<svg xmlns="http://www.w3.org/2000/svg" width="760" height="443"><defs><pattern id="ecb29a1f-4c93-4c7e-9e42-fd51fa0f01fb" data-name="diaginal hash (gray)" width="50" height="50" patternUnits="userSpaceOnUse"><path class="f1083356-e30b-48f2-a92e-0325da97ec5c" d="M0 0h50v50H0z"/><path class="f2898957-f84b-4c10-ba12-2f90592e959a" d="M50 50v.707l.707-.707H50zM54.849 50L50 54.849v1.414L56.263 50h-1.414zM60.404 50L50 60.404v1.414L61.818 50h-1.414zM65.96 50L50 65.96v1.414L67.374 50H65.96zM71.515 50L50 71.515v1.414L72.929 50h-1.414zM77.071 50L50 77.071v1.414L78.485 50h-1.414zM82.626 50L50 82.626v1.414L84.041 50h-1.415zM88.182 50L50 88.182v1.414L89.596 50h-1.414zM93.737 50L50 93.737v1.414L95.151 50h-1.414zM100 50h-.707L50 99.293V100h.707L100 50.707V50z"/><g><path class="f2898957-f84b-4c10-ba12-2f90592e959a" d="M0 50v.707L.707 50H0zM4.849 50L0 54.849v1.414L6.263 50H4.849zM10.404 50L0 60.404v1.414L11.818 50h-1.414zM15.96 50L0 65.96v1.414L17.374 50H15.96zM21.515 50L0 71.515v1.414L22.929 50h-1.414zM27.071 50L0 77.071v1.414L28.485 50h-1.414zM32.626 50L0 82.626v1.414L34.041 50h-1.415zM38.182 50L0 88.182v1.414L39.596 50h-1.414zM43.737 50L0 93.737v1.414L45.151 50h-1.414zM50 50h-.707L0 99.293V100h.707L50 50.707V50z"/></g><path class="f2898957-f84b-4c10-ba12-2f90592e959a" d="M0 50h-.707L-50 99.293V100h.707L0 50.707V50z"/><g><path class="f2898957-f84b-4c10-ba12-2f90592e959a" d="M50 0v.707L50.707 0H50zM54.849 0L50 4.849v1.414L56.263 0h-1.414zM60.404 0L50 10.404v1.414L61.818 0h-1.414zM65.96 0L50 15.96v1.414L67.374 0H65.96zM71.515 0L50 21.515v1.414L72.929 0h-1.414zM77.071 0L50 27.071v1.414L78.485 0h-1.414zM82.626 0L50 32.626v1.414L84.041 0h-1.415zM88.182 0L50 38.182v1.414L89.596 0h-1.414zM93.737 0L50 43.737v1.414L95.151 0h-1.414zM100 0h-.707L50 49.293V50h.707L100 .707V0z"/></g><g><path class="f2898957-f84b-4c10-ba12-2f90592e959a" d="M0 0v.707L.707 0H0zM4.849 0L0 4.849v1.414L6.263 0H4.849zM10.404 0L0 10.404v1.414L11.818 0h-1.414zM15.96 0L0 15.96v1.414L17.374 0H15.96zM21.515 0L0 21.515v1.414L22.929 0h-1.414zM27.071 0L0 27.071v1.414L28.485 0h-1.414zM32.626 0L0 32.626v1.414L34.041 0h-1.415zM38.182 0L0 38.182v1.414L39.596 0h-1.414zM43.737 0L0 43.737v1.414L45.151 0h-1.414zM50 0h-.707L0 49.293V50h.707L50 .707V0zM6.263 50L50 6.262V4.848L4.849 50h1.414zM11.818 50L50 11.818v-1.414L10.404 50h1.414zM17.374 50L50 17.374V15.96L15.96 50h1.414zM22.929 50L50 22.929v-1.414L21.515 50h1.414zM28.485 50L50 28.485v-1.414L27.071 50h1.414zM34.04 50L50 34.04v-1.414L32.626 50h1.414zM39.596 50L50 39.596v-1.414L38.182 50h1.414zM45.151 50L50 45.151v-1.414L43.737 50h1.414zM50 50v-.707l-.707.707H50z"/></g><g><path class="f2898957-f84b-4c10-ba12-2f90592e959a" d="M0 0h-.707L-50 49.293V50h.707L0 .707V0zM-43.737 50L0 6.262V4.848L-45.151 50h1.414zM-38.182 50L0 11.818v-1.414L-39.596 50h1.414zM-32.626 50L0 17.374V15.96L-34.04 50h1.414zM-27.071 50L0 22.929v-1.414L-28.485 50h1.414zM-21.515 50L0 28.485v-1.414L-22.929 50h1.414zM-15.96 50L0 34.04v-1.414L-17.374 50h1.414zM-10.404 50L0 39.596v-1.414L-11.818 50h1.414zM-4.849 50L0 45.151v-1.414L-6.263 50h1.414zM0 50v-.707L-.707 50H0z"/></g><path class="f2898957-f84b-4c10-ba12-2f90592e959a" d="M100-50h-.707L50-.707V0h.707L100-49.293V-50z"/><g><path class="f2898957-f84b-4c10-ba12-2f90592e959a" d="M50-50h-.707L0-.707V0h.707L50-49.293V-50zM6.263 0L50-43.738v-1.414L4.849 0h1.414zM11.818 0L50-38.182v-1.414L10.404 0h1.414zM17.374 0L50-32.626v-1.414L15.96 0h1.414zM22.929 0L50-27.071v-1.414L21.515 0h1.414zM28.485 0L50-21.515v-1.414L27.071 0h1.414zM34.04 0L50-15.96v-1.414L32.626 0h1.414zM39.596 0L50-10.404v-1.414L38.182 0h1.414zM45.151 0L50-4.849v-1.414L43.737 0h1.414zM50 0v-.707L49.293 0H50z"/></g><g><path class="f2898957-f84b-4c10-ba12-2f90592e959a" d="M0-50h-.707L-50-.707V0h.707L0-49.293V-50zM-43.737 0L0-43.738v-1.414L-45.151 0h1.414zM-38.182 0L0-38.182v-1.414L-39.596 0h1.414zM-32.626 0L0-32.626v-1.414L-34.04 0h1.414zM-27.071 0L0-27.071v-1.414L-28.485 0h1.414zM-21.515 0L0-21.515v-1.414L-22.929 0h1.414zM-15.96 0L0-15.96v-1.414L-17.374 0h1.414zM-10.404 0L0-10.404v-1.414L-11.818 0h1.414zM-4.849 0L0-4.849v-1.414L-6.263 0h1.414zM0 0v-.707L-.707 0H0z"/></g></pattern><pattern id="b5f6a468-3099-41e7-9d23-7cda50d78f7c" data-name="diaginal hash (gray)" width="50" height="50" patternTransform="translate(-124.569 190.023)" patternUnits="userSpaceOnUse"><path class="f1083356-e30b-48f2-a92e-0325da97ec5c" d="M0 0h50v50H0z"/><path class="f2898957-f84b-4c10-ba12-2f90592e959a" d="M50 50v.707l.707-.707H50zM54.849 50L50 54.849v1.414L56.263 50h-1.414zM60.404 50L50 60.404v1.414L61.818 50h-1.414zM65.96 50L50 65.96v1.414L67.374 50H65.96zM71.515 50L50 71.515v1.414L72.929 50h-1.414zM77.071 50L50 77.071v1.414L78.485 50h-1.414zM82.626 50L50 82.626v1.414L84.041 50h-1.415zM88.182 50L50 88.182v1.414L89.596 50h-1.414zM93.737 50L50 93.737v1.414L95.151 50h-1.414zM100 50h-.707L50 99.293V100h.707L100 50.707V50z"/><g><path class="f2898957-f84b-4c10-ba12-2f90592e959a" d="M0 50v.707L.707 50H0zM4.849 50L0 54.849v1.414L6.263 50H4.849zM10.404 50L0 60.404v1.414L11.818 50h-1.414zM15.96 50L0 65.96v1.414L17.374 50H15.96zM21.515 50L0 71.515v1.414L22.929 50h-1.414zM27.071 50L0 77.071v1.414L28.485 50h-1.414zM32.626 50L0 82.626v1.414L34.041 50h-1.415zM38.182 50L0 88.182v1.414L39.596 50h-1.414zM43.737 50L0 93.737v1.414L45.151 50h-1.414zM50 50h-.707L0 99.293V100h.707L50 50.707V50z"/></g><path class="f2898957-f84b-4c10-ba12-2f90592e959a" d="M0 50h-.707L-50 99.293V100h.707L0 50.707V50z"/><g><path class="f2898957-f84b-4c10-ba12-2f90592e959a" d="M50 0v.707L50.707 0H50zM54.849 0L50 4.849v1.414L56.263 0h-1.414zM60.404 0L50 10.404v1.414L61.818 0h-1.414zM65.96 0L50 15.96v1.414L67.374 0H65.96zM71.515 0L50 21.515v1.414L72.929 0h-1.414zM77.071 0L50 27.071v1.414L78.485 0h-1.414zM82.626 0L50 32.626v1.414L84.041 0h-1.415zM88.182 0L50 38.182v1.414L89.596 0h-1.414zM93.737 0L50 43.737v1.414L95.151 0h-1.414zM100 0h-.707L50 49.293V50h.707L100 .707V0z"/></g><g><path class="f2898957-f84b-4c10-ba12-2f90592e959a" d="M0 0v.707L.707 0H0zM4.849 0L0 4.849v1.414L6.263 0H4.849zM10.404 0L0 10.404v1.414L11.818 0h-1.414zM15.96 0L0 15.96v1.414L17.374 0H15.96zM21.515 0L0 21.515v1.414L22.929 0h-1.414zM27.071 0L0 27.071v1.414L28.485 0h-1.414zM32.626 0L0 32.626v1.414L34.041 0h-1.415zM38.182 0L0 38.182v1.414L39.596 0h-1.414zM43.737 0L0 43.737v1.414L45.151 0h-1.414zM50 0h-.707L0 49.293V50h.707L50 .707V0zM6.263 50L50 6.262V4.848L4.849 50h1.414zM11.818 50L50 11.818v-1.414L10.404 50h1.414zM17.374 50L50 17.374V15.96L15.96 50h1.414zM22.929 50L50 22.929v-1.414L21.515 50h1.414zM28.485 50L50 28.485v-1.414L27.071 50h1.414zM34.04 50L50 34.04v-1.414L32.626 50h1.414zM39.596 50L50 39.596v-1.414L38.182 50h1.414zM45.151 50L50 45.151v-1.414L43.737 50h1.414zM50 50v-.707l-.707.707H50z"/></g><g><path class="f2898957-f84b-4c10-ba12-2f90592e959a" d="M0 0h-.707L-50 49.293V50h.707L0 .707V0zM-43.737 50L0 6.262V4.848L-45.151 50h1.414zM-38.182 50L0 11.818v-1.414L-39.596 50h1.414zM-32.626 50L0 17.374V15.96L-34.04 50h1.414zM-27.071 50L0 22.929v-1.414L-28.485 50h1.414zM-21.515 50L0 28.485v-1.414L-22.929 50h1.414zM-15.96 50L0 34.04v-1.414L-17.374 50h1.414zM-10.404 50L0 39.596v-1.414L-11.818 50h1.414zM-4.849 50L0 45.151v-1.414L-6.263 50h1.414zM0 50v-.707L-.707 50H0z"/></g><path class="f2898957-f84b-4c10-ba12-2f90592e959a" d="M100-50h-.707L50-.707V0h.707L100-49.293V-50z"/><g><path class="f2898957-f84b-4c10-ba12-2f90592e959a" d="M50-50h-.707L0-.707V0h.707L50-49.293V-50zM6.263 0L50-43.738v-1.414L4.849 0h1.414zM11.818 0L50-38.182v-1.414L10.404 0h1.414zM17.374 0L50-32.626v-1.414L15.96 0h1.414zM22.929 0L50-27.071v-1.414L21.515 0h1.414zM28.485 0L50-21.515v-1.414L27.071 0h1.414zM34.04 0L50-15.96v-1.414L32.626 0h1.414zM39.596 0L50-10.404v-1.414L38.182 0h1.414zM45.151 0L50-4.849v-1.414L43.737 0h1.414zM50 0v-.707L49.293 0H50z"/></g><g><path class="f2898957-f84b-4c10-ba12-2f90592e959a" d="M0-50h-.707L-50-.707V0h.707L0-49.293V-50zM-43.737 0L0-43.738v-1.414L-45.151 0h1.414zM-38.182 0L0-38.182v-1.414L-39.596 0h1.414zM-32.626 0L0-32.626v-1.414L-34.04 0h1.414zM-27.071 0L0-27.071v-1.414L-28.485 0h1.414zM-21.515 0L0-21.515v-1.414L-22.929 0h1.414zM-15.96 0L0-15.96v-1.414L-17.374 0h1.414zM-10.404 0L0-10.404v-1.414L-11.818 0h1.414zM-4.849 0L0-4.849v-1.414L-6.263 0h1.414zM0 0v-.707L-.707 0H0z"/></g></pattern><style>.a3f2f32f-ad82-4932-8370-78c118f423f7,.a44736b6-9a84-457c-b53e-ae27fd17e0dc,.a86a21ed-5bb3-4e4d-8f60-2c22a9633d2a,.aefd2000-379c-4300-9b83-b1282499d7a7,.ba6530c5-4512-4e5a-9761-33371ee13e12,.babee0a8-5dac-4a3f-bf8d-145e6f825ebd,.f1083356-e30b-48f2-a92e-0325da97ec5c,.f2e0b72e-0d12-40e1-8f3d-663e6d81b450,.f50f351a-9a61-43c4-abdd-bb237d50355a,.f55fdfbf-eb09-483d-9883-484877245af8,.fd8e35f3-d287-45fd-81dc-d3767d193eb7{fill:none}.af927558-909e-499c-9004-53b4b2f14645,.e12e354d-b8f6-473a-afb7-5f4003da8a3f,.f2898957-f84b-4c10-ba12-2f90592e959a{fill:#151515}.a86a21ed-5bb3-4e4d-8f60-2c22a9633d2a,.aefd2000-379c-4300-9b83-b1282499d7a7,.ba6530c5-4512-4e5a-9761-33371ee13e12,.f2898957-f84b-4c10-ba12-2f90592e959a,.f55fdfbf-eb09-483d-9883-484877245af8{stroke:#151515}.f2898957-f84b-4c10-ba12-2f90592e959a{stroke-miterlimit:10}.f50f351a-9a61-43c4-abdd-bb237d50355a{stroke:#5e40be}.a3f2f32f-ad82-4932-8370-78c118f423f7,.a44736b6-9a84-457c-b53e-ae27fd17e0dc,.a86a21ed-5bb3-4e4d-8f60-2c22a9633d2a,.ae73c5cf-3cf8-4a78-94f0-3a3a8677bd26,.aefd2000-379c-4300-9b83-b1282499d7a7,.ba6530c5-4512-4e5a-9761-33371ee13e12,.babee0a8-5dac-4a3f-bf8d-145e6f825ebd,.ed2a521c-c067-451e-8e1e-c1d3b1c9b229,.f2e0b72e-0d12-40e1-8f3d-663e6d81b450,.f50f351a-9a61-43c4-abdd-bb237d50355a,.f55fdfbf-eb09-483d-9883-484877245af8,.fd8e35f3-d287-45fd-81dc-d3767d193eb7{stroke-linecap:round;stroke-linejoin:round}.a3f2f32f-ad82-4932-8370-78c118f423f7,.babee0a8-5dac-4a3f-bf8d-145e6f825ebd,.ed2a521c-c067-451e-8e1e-c1d3b1c9b229,.f2e0b72e-0d12-40e1-8f3d-663e6d81b450,.f50f351a-9a61-43c4-abdd-bb237d50355a,.fd8e35f3-d287-45fd-81dc-d3767d193eb7{stroke-width:2px}.f7b85105-3beb-4208-b294-0aad0ae51d40{fill:#e8e8e8}.babee0a8-5dac-4a3f-bf8d-145e6f825ebd,.ed2a521c-c067-451e-8e1e-c1d3b1c9b229{stroke:#06c}.ae7092e3-f3fd-4982-be27-43e0e0728453,.e12e354d-b8f6-473a-afb7-5f4003da8a3f{font-size:11px;font-family:RedHatText,&quot;Red Hat Text&quot;,Overpass,&quot;Helvetica Neue&quot;,Arial,sans-serif;font-weight:500}.fd8e35f3-d287-45fd-81dc-d3767d193eb7{stroke:#4cb6d6}.ad89b6a3-4110-48a0-adce-ddf3e30d0bd7{font-size:12px;font-family:RedHatText,&quot;Red Hat Text&quot;,Overpass,&quot;Helvetica Neue&quot;,Arial,sans-serif;font-weight:700}.a86a21ed-5bb3-4e4d-8f60-2c22a9633d2a{stroke-dasharray:2 2}.ba6530c5-4512-4e5a-9761-33371ee13e12{stroke-dasharray:3.071 3.071}.f55fdfbf-eb09-483d-9883-484877245af8{stroke-dasharray:2.941 2.941}.a0e7e27e-1733-42ea-bfd5-bb7b189cbfd8,.ae7092e3-f3fd-4982-be27-43e0e0728453,.ae73c5cf-3cf8-4a78-94f0-3a3a8677bd26,.ed2a521c-c067-451e-8e1e-c1d3b1c9b229{fill:#fff}.a3f2f32f-ad82-4932-8370-78c118f423f7{stroke:#c0d682}.a44736b6-9a84-457c-b53e-ae27fd17e0dc,.ae73c5cf-3cf8-4a78-94f0-3a3a8677bd26,.f2e0b72e-0d12-40e1-8f3d-663e6d81b450{stroke:#5b5b5b}.a44736b6-9a84-457c-b53e-ae27fd17e0dc,.ae73c5cf-3cf8-4a78-94f0-3a3a8677bd26{stroke-width:1.5px}.ad89b6a3-4110-48a0-adce-ddf3e30d0bd7{fill:#dcdcdc}.ac88cf2a-c591-479b-8569-da23bfc2a5ad{fill:#5e40be}.bdcde537-2ea7-45a5-b716-70f7a488aec6{opacity:.35;mix-blend-mode:multiply}.af4164eb-360b-4ecb-b318-3774847e3adf{fill:#06c}</style></defs><g style="isolation:isolate"><g id="b7f7a9f2-af64-4782-b569-07f19ba8f2f0" data-name="artwork"><path class="f50f351a-9a61-43c4-abdd-bb237d50355a" d="M649 378v25M409.5 378v25"/><path class="f7b85105-3beb-4208-b294-0aad0ae51d40" d="M0 209.5h281V378H0z"/><path class="f50f351a-9a61-43c4-abdd-bb237d50355a" d="M0 403h760"/><path class="babee0a8-5dac-4a3f-bf8d-145e6f825ebd" d="M0 114.017h760"/><text class="e12e354d-b8f6-473a-afb7-5f4003da8a3f" transform="translate(0 104.017)">Baremetal network</text><text class="e12e354d-b8f6-473a-afb7-5f4003da8a3f" transform="translate(1 419.817)">Provisioning network</text><path class="f50f351a-9a61-43c4-abdd-bb237d50355a" d="M22.727 403v-50.25"/><path class="babee0a8-5dac-4a3f-bf8d-145e6f825ebd" d="M22.727 114.009V264.25"/><text transform="translate(670.861 422.834)" font-size="10" fill="#f3f3f3" font-family="RedHatText,&quot;Red Hat Text&quot;,Overpass,&quot;Helvetica Neue&quot;,Arial,sans-serif">71_OpenShift_0920</text><path class="f1083356-e30b-48f2-a92e-0325da97ec5c" d="M0 399.817h760v40H0z"/><path class="fd8e35f3-d287-45fd-81dc-d3767d193eb7" d="M0 38.672h760"/><text class="e12e354d-b8f6-473a-afb7-5f4003da8a3f" transform="translate(.5 28.671)">Internet access</text><path class="f50f351a-9a61-43c4-abdd-bb237d50355a" d="M183.217 327.5v25.25h-17.293"/><path class="babee0a8-5dac-4a3f-bf8d-145e6f825ebd" d="M183.217 289.5v-25.25h-17.293"/><path class="f7b85105-3beb-4208-b294-0aad0ae51d40" d="M41.209 219.5H0V240h41.209c5.661 0 5.661-20.5 0-20.5z"/><path fill="#d0d0d0" d="M15 289.5h246v38H15z"/><text class="e12e354d-b8f6-473a-afb7-5f4003da8a3f" transform="translate(101.893 311.547)">Bootstrap VM</text><text transform="translate(15 234.604)" font-size="12" font-family="RedHatText,&quot;Red Hat Text&quot;,Overpass,&quot;Helvetica Neue&quot;,Arial,sans-serif" font-weight="700" fill="#151515">Provisioning node</text><path class="aefd2000-379c-4300-9b83-b1282499d7a7" d="M191.972 123.726v1.5"/><path class="a86a21ed-5bb3-4e4d-8f60-2c22a9633d2a" d="M191.972 127.226v3"/><path class="aefd2000-379c-4300-9b83-b1282499d7a7" d="M191.972 131.226v1.5h1.5"/><path class="ba6530c5-4512-4e5a-9761-33371ee13e12" d="M196.543 132.726h23.035"/><path class="aefd2000-379c-4300-9b83-b1282499d7a7" d="M221.114 132.726h1.5v1.5"/><path class="f55fdfbf-eb09-483d-9883-484877245af8" d="M222.614 137.167v139.686"/><path class="aefd2000-379c-4300-9b83-b1282499d7a7" d="M222.614 278.324v1.5"/><path class="af927558-909e-499c-9004-53b4b2f14645" d="M217.627 278.365l4.987 8.635 4.986-8.635h-9.973z"/><path class="aefd2000-379c-4300-9b83-b1282499d7a7" d="M268.255 123.726v1.5"/><path class="a86a21ed-5bb3-4e4d-8f60-2c22a9633d2a" d="M268.255 127.226v3"/><path class="aefd2000-379c-4300-9b83-b1282499d7a7" d="M268.255 131.226v1.5h-1.5"/><path class="ba6530c5-4512-4e5a-9761-33371ee13e12" d="M263.684 132.726h-23.035"/><path class="aefd2000-379c-4300-9b83-b1282499d7a7" d="M239.114 132.726h-1.5v1.5"/><path class="f55fdfbf-eb09-483d-9883-484877245af8" d="M237.614 137.167v139.686"/><path class="aefd2000-379c-4300-9b83-b1282499d7a7" d="M237.614 278.324v1.5"/><path class="af927558-909e-499c-9004-53b4b2f14645" d="M232.627 278.365l4.987 8.635 4.986-8.635h-9.973z"/><circle class="ed2a521c-c067-451e-8e1e-c1d3b1c9b229" cx="268.255" cy="113.371" r="9.355"/><text class="e12e354d-b8f6-473a-afb7-5f4003da8a3f" transform="translate(239.271 98.016)">Ingress VIP</text><circle class="ed2a521c-c067-451e-8e1e-c1d3b1c9b229" cx="191.972" cy="113.371" r="9.355"/><text class="e12e354d-b8f6-473a-afb7-5f4003da8a3f" transform="translate(172.552 98.016)">API VIP</text><path class="babee0a8-5dac-4a3f-bf8d-145e6f825ebd" d="M639 114.017V209.5"/><path stroke="#fff" stroke-width="10" stroke-linecap="round" stroke-linejoin="round" fill="none" d="M617.425 189.5H645.5"/><path class="a3f2f32f-ad82-4932-8370-78c118f423f7" d="M760 189.5H419.832v20M659 189.5v20"/><path class="babee0a8-5dac-4a3f-bf8d-145e6f825ebd" d="M399.5 114.017V209.5"/><text class="e12e354d-b8f6-473a-afb7-5f4003da8a3f" transform="translate(418.832 167.501)">Out-of-Band Management<tspan x="0" y="12">network (optional)</tspan></text><path class="babee0a8-5dac-4a3f-bf8d-145e6f825ebd" d="M689.778 114.069v20"/><g><text class="e12e354d-b8f6-473a-afb7-5f4003da8a3f" transform="translate(672.001 164.414)">Router</text><path class="ae73c5cf-3cf8-4a78-94f0-3a3a8677bd26" d="M662.278 134.069h55v13.75h-55z"/><path class="f2e0b72e-0d12-40e1-8f3d-663e6d81b450" d="M711.398 139.966"/><path class="a44736b6-9a84-457c-b53e-ae27fd17e0dc" d="M668.17 138.931v3.965M674.063 138.931v3.965M679.956 138.931v3.965M685.849 138.931v3.965M691.742 138.931v3.965M697.635 138.931v3.965"/></g><path class="a3f2f32f-ad82-4932-8370-78c118f423f7" d="M689.778 169.5v20"/><g><path class="a0e7e27e-1733-42ea-bfd5-bb7b189cbfd8" d="M299.5 210h220v167.5h-220z"/><path class="f7b85105-3beb-4208-b294-0aad0ae51d40" d="M519 210.5V377H300V210.5h219m1-1H299V378h221V209.5z"/><text class="ad89b6a3-4110-48a0-adce-ddf3e30d0bd7" transform="translate(314 234.604)"><tspan>Master nodes x3</tspan></text></g><g><path class="a0e7e27e-1733-42ea-bfd5-bb7b189cbfd8" d="M539 210h220v167.5H539z"/><path class="f7b85105-3beb-4208-b294-0aad0ae51d40" d="M758.5 210.5V377h-219V210.5h219m1-1h-221V378h221V209.5z"/><text class="ad89b6a3-4110-48a0-adce-ddf3e30d0bd7" transform="translate(552.467 234.604)"><tspan>Worker nodes xN</tspan></text></g><path class="babee0a8-5dac-4a3f-bf8d-145e6f825ebd" d="M436.439 94.017v20"/><path class="fd8e35f3-d287-45fd-81dc-d3767d193eb7" d="M436.439 38.672v20"/><g><text class="e12e354d-b8f6-473a-afb7-5f4003da8a3f" transform="translate(418.663 89.017)">Router</text><path class="ae73c5cf-3cf8-4a78-94f0-3a3a8677bd26" d="M408.939 58.672h55v13.75h-55z"/><path class="f2e0b72e-0d12-40e1-8f3d-663e6d81b450" d="M458.06 64.569"/><path class="a44736b6-9a84-457c-b53e-ae27fd17e0dc" d="M414.832 63.535v3.964M420.725 63.535v3.964M426.618 63.535v3.964M432.511 63.535v3.964M438.403 63.535v3.964M444.296 63.535v3.964"/></g><path class="babee0a8-5dac-4a3f-bf8d-145e6f825ebd" d="M518.252 94.017v20"/><g><text class="e12e354d-b8f6-473a-afb7-5f4003da8a3f" transform="translate(484.878 89.838)">DHCP server</text><path class="ae73c5cf-3cf8-4a78-94f0-3a3a8677bd26" d="M490.684 59.493h55v13.75h-55z"/><path class="f2e0b72e-0d12-40e1-8f3d-663e6d81b450" d="M539.805 65.39"/><path class="a44736b6-9a84-457c-b53e-ae27fd17e0dc" d="M497.42 67.35h8.25"/></g><path class="babee0a8-5dac-4a3f-bf8d-145e6f825ebd" d="M601.063 94.017v20"/><g><text class="e12e354d-b8f6-473a-afb7-5f4003da8a3f" transform="translate(571.814 89.838)">DNS server</text><path class="ae73c5cf-3cf8-4a78-94f0-3a3a8677bd26" d="M573.495 59.493h55v13.75h-55z"/><path class="f2e0b72e-0d12-40e1-8f3d-663e6d81b450" d="M622.616 65.39"/><path class="a44736b6-9a84-457c-b53e-ae27fd17e0dc" d="M580.23 67.35h8.25"/></g><g><path class="ac88cf2a-c591-479b-8569-da23bfc2a5ad" d="M161.678 342.5H.455V363h161.223c5.661 0 5.661-20.5 0-20.5z"/><path d="M161.678 342.5H.455V363h161.223c5.661 0 5.661-20.5 0-20.5z" fill="url(#ecb29a1f-4c93-4c7e-9e42-fd51fa0f01fb)"/><text class="ae7092e3-f3fd-4982-be27-43e0e0728453" transform="translate(55.661 356.074)">Provisioning bridge</text><path class="ac88cf2a-c591-479b-8569-da23bfc2a5ad" d="M41.223 342.5H0V363h41.223c5.661 0 5.661-20.5 0-20.5z"/><text class="ae7092e3-f3fd-4982-be27-43e0e0728453" transform="translate(11.671 356.074)">eno1</text></g><g><path class="af4164eb-360b-4ecb-b318-3774847e3adf" d="M161.664 254.5H.455V275h161.209c5.661 0 5.661-20.5 0-20.5z"/><path d="M161.664 254.5H.455V275h161.209c5.661 0 5.661-20.5 0-20.5z" fill="url(#b5f6a468-3099-41e7-9d23-7cda50d78f7c)"/><text class="ae7092e3-f3fd-4982-be27-43e0e0728453" transform="translate(55.677 269.349)">Baremetal bridge</text><g><path class="af4164eb-360b-4ecb-b318-3774847e3adf" d="M41.209 254.5H0V275h41.209c5.661 0 5.661-20.5 0-20.5z"/><text class="ae7092e3-f3fd-4982-be27-43e0e0728453" transform="translate(11.671 269.349)">eno2</text></g></g></g></g></svg>