<svg xmlns="http://www.w3.org/2000/svg" width="760" height="443"><defs><pattern id="fc07334e-d75b-424c-bf67-836bf85ee63e" data-name="diaginal hash (gray)" width="50" height="50" patternUnits="userSpaceOnUse"><path class="adceaded-53db-476d-9036-db73830adcda" d="M0 0h50v50H0z"/><path class="be22b9c9-4b6a-4f46-b69a-61e021ab8c82" d="M50 50v.707l.707-.707H50zM54.849 50L50 54.849v1.414L56.263 50h-1.414zM60.404 50L50 60.404v1.414L61.818 50h-1.414zM65.96 50L50 65.96v1.414L67.374 50H65.96zM71.515 50L50 71.515v1.414L72.929 50h-1.414zM77.071 50L50 77.071v1.414L78.485 50h-1.414zM82.626 50L50 82.626v1.414L84.041 50h-1.415zM88.182 50L50 88.182v1.414L89.596 50h-1.414zM93.737 50L50 93.737v1.414L95.151 50h-1.414zM100 50h-.707L50 99.293V100h.707L100 50.707V50z"/><g><path class="be22b9c9-4b6a-4f46-b69a-61e021ab8c82" d="M0 50v.707L.707 50H0zM4.849 50L0 54.849v1.414L6.263 50H4.849zM10.404 50L0 60.404v1.414L11.818 50h-1.414zM15.96 50L0 65.96v1.414L17.374 50H15.96zM21.515 50L0 71.515v1.414L22.929 50h-1.414zM27.071 50L0 77.071v1.414L28.485 50h-1.414zM32.626 50L0 82.626v1.414L34.041 50h-1.415zM38.182 50L0 88.182v1.414L39.596 50h-1.414zM43.737 50L0 93.737v1.414L45.151 50h-1.414zM50 50h-.707L0 99.293V100h.707L50 50.707V50z"/></g><path class="be22b9c9-4b6a-4f46-b69a-61e021ab8c82" d="M0 50h-.707L-50 99.293V100h.707L0 50.707V50z"/><g><path class="be22b9c9-4b6a-4f46-b69a-61e021ab8c82" d="M50 0v.707L50.707 0H50zM54.849 0L50 4.849v1.414L56.263 0h-1.414zM60.404 0L50 10.404v1.414L61.818 0h-1.414zM65.96 0L50 15.96v1.414L67.374 0H65.96zM71.515 0L50 21.515v1.414L72.929 0h-1.414zM77.071 0L50 27.071v1.414L78.485 0h-1.414zM82.626 0L50 32.626v1.414L84.041 0h-1.415zM88.182 0L50 38.182v1.414L89.596 0h-1.414zM93.737 0L50 43.737v1.414L95.151 0h-1.414zM100 0h-.707L50 49.293V50h.707L100 .707V0z"/></g><g><path class="be22b9c9-4b6a-4f46-b69a-61e021ab8c82" d="M0 0v.707L.707 0H0zM4.849 0L0 4.849v1.414L6.263 0H4.849zM10.404 0L0 10.404v1.414L11.818 0h-1.414zM15.96 0L0 15.96v1.414L17.374 0H15.96zM21.515 0L0 21.515v1.414L22.929 0h-1.414zM27.071 0L0 27.071v1.414L28.485 0h-1.414zM32.626 0L0 32.626v1.414L34.041 0h-1.415zM38.182 0L0 38.182v1.414L39.596 0h-1.414zM43.737 0L0 43.737v1.414L45.151 0h-1.414zM50 0h-.707L0 49.293V50h.707L50 .707V0zM6.263 50L50 6.262V4.848L4.849 50h1.414zM11.818 50L50 11.818v-1.414L10.404 50h1.414zM17.374 50L50 17.374V15.96L15.96 50h1.414zM22.929 50L50 22.929v-1.414L21.515 50h1.414zM28.485 50L50 28.485v-1.414L27.071 50h1.414zM34.04 50L50 34.04v-1.414L32.626 50h1.414zM39.596 50L50 39.596v-1.414L38.182 50h1.414zM45.151 50L50 45.151v-1.414L43.737 50h1.414zM50 50v-.707l-.707.707H50z"/></g><g><path class="be22b9c9-4b6a-4f46-b69a-61e021ab8c82" d="M0 0h-.707L-50 49.293V50h.707L0 .707V0zM-43.737 50L0 6.262V4.848L-45.151 50h1.414zM-38.182 50L0 11.818v-1.414L-39.596 50h1.414zM-32.626 50L0 17.374V15.96L-34.04 50h1.414zM-27.071 50L0 22.929v-1.414L-28.485 50h1.414zM-21.515 50L0 28.485v-1.414L-22.929 50h1.414zM-15.96 50L0 34.04v-1.414L-17.374 50h1.414zM-10.404 50L0 39.596v-1.414L-11.818 50h1.414zM-4.849 50L0 45.151v-1.414L-6.263 50h1.414zM0 50v-.707L-.707 50H0z"/></g><path class="be22b9c9-4b6a-4f46-b69a-61e021ab8c82" d="M100-50h-.707L50-.707V0h.707L100-49.293V-50z"/><g><path class="be22b9c9-4b6a-4f46-b69a-61e021ab8c82" d="M50-50h-.707L0-.707V0h.707L50-49.293V-50zM6.263 0L50-43.738v-1.414L4.849 0h1.414zM11.818 0L50-38.182v-1.414L10.404 0h1.414zM17.374 0L50-32.626v-1.414L15.96 0h1.414zM22.929 0L50-27.071v-1.414L21.515 0h1.414zM28.485 0L50-21.515v-1.414L27.071 0h1.414zM34.04 0L50-15.96v-1.414L32.626 0h1.414zM39.596 0L50-10.404v-1.414L38.182 0h1.414zM45.151 0L50-4.849v-1.414L43.737 0h1.414zM50 0v-.707L49.293 0H50z"/></g><g><path class="be22b9c9-4b6a-4f46-b69a-61e021ab8c82" d="M0-50h-.707L-50-.707V0h.707L0-49.293V-50zM-43.737 0L0-43.738v-1.414L-45.151 0h1.414zM-38.182 0L0-38.182v-1.414L-39.596 0h1.414zM-32.626 0L0-32.626v-1.414L-34.04 0h1.414zM-27.071 0L0-27.071v-1.414L-28.485 0h1.414zM-21.515 0L0-21.515v-1.414L-22.929 0h1.414zM-15.96 0L0-15.96v-1.414L-17.374 0h1.414zM-10.404 0L0-10.404v-1.414L-11.818 0h1.414zM-4.849 0L0-4.849v-1.414L-6.263 0h1.414zM0 0v-.707L-.707 0H0z"/></g></pattern><pattern id="aeb1ab7a-69a2-40bd-88e6-abd2d4ef4e73" data-name="diaginal hash (gray)" width="50" height="50" patternTransform="translate(-124.569 190.023)" patternUnits="userSpaceOnUse"><path class="adceaded-53db-476d-9036-db73830adcda" d="M0 0h50v50H0z"/><path class="be22b9c9-4b6a-4f46-b69a-61e021ab8c82" d="M50 50v.707l.707-.707H50zM54.849 50L50 54.849v1.414L56.263 50h-1.414zM60.404 50L50 60.404v1.414L61.818 50h-1.414zM65.96 50L50 65.96v1.414L67.374 50H65.96zM71.515 50L50 71.515v1.414L72.929 50h-1.414zM77.071 50L50 77.071v1.414L78.485 50h-1.414zM82.626 50L50 82.626v1.414L84.041 50h-1.415zM88.182 50L50 88.182v1.414L89.596 50h-1.414zM93.737 50L50 93.737v1.414L95.151 50h-1.414zM100 50h-.707L50 99.293V100h.707L100 50.707V50z"/><g><path class="be22b9c9-4b6a-4f46-b69a-61e021ab8c82" d="M0 50v.707L.707 50H0zM4.849 50L0 54.849v1.414L6.263 50H4.849zM10.404 50L0 60.404v1.414L11.818 50h-1.414zM15.96 50L0 65.96v1.414L17.374 50H15.96zM21.515 50L0 71.515v1.414L22.929 50h-1.414zM27.071 50L0 77.071v1.414L28.485 50h-1.414zM32.626 50L0 82.626v1.414L34.041 50h-1.415zM38.182 50L0 88.182v1.414L39.596 50h-1.414zM43.737 50L0 93.737v1.414L45.151 50h-1.414zM50 50h-.707L0 99.293V100h.707L50 50.707V50z"/></g><path class="be22b9c9-4b6a-4f46-b69a-61e021ab8c82" d="M0 50h-.707L-50 99.293V100h.707L0 50.707V50z"/><g><path class="be22b9c9-4b6a-4f46-b69a-61e021ab8c82" d="M50 0v.707L50.707 0H50zM54.849 0L50 4.849v1.414L56.263 0h-1.414zM60.404 0L50 10.404v1.414L61.818 0h-1.414zM65.96 0L50 15.96v1.414L67.374 0H65.96zM71.515 0L50 21.515v1.414L72.929 0h-1.414zM77.071 0L50 27.071v1.414L78.485 0h-1.414zM82.626 0L50 32.626v1.414L84.041 0h-1.415zM88.182 0L50 38.182v1.414L89.596 0h-1.414zM93.737 0L50 43.737v1.414L95.151 0h-1.414zM100 0h-.707L50 49.293V50h.707L100 .707V0z"/></g><g><path class="be22b9c9-4b6a-4f46-b69a-61e021ab8c82" d="M0 0v.707L.707 0H0zM4.849 0L0 4.849v1.414L6.263 0H4.849zM10.404 0L0 10.404v1.414L11.818 0h-1.414zM15.96 0L0 15.96v1.414L17.374 0H15.96zM21.515 0L0 21.515v1.414L22.929 0h-1.414zM27.071 0L0 27.071v1.414L28.485 0h-1.414zM32.626 0L0 32.626v1.414L34.041 0h-1.415zM38.182 0L0 38.182v1.414L39.596 0h-1.414zM43.737 0L0 43.737v1.414L45.151 0h-1.414zM50 0h-.707L0 49.293V50h.707L50 .707V0zM6.263 50L50 6.262V4.848L4.849 50h1.414zM11.818 50L50 11.818v-1.414L10.404 50h1.414zM17.374 50L50 17.374V15.96L15.96 50h1.414zM22.929 50L50 22.929v-1.414L21.515 50h1.414zM28.485 50L50 28.485v-1.414L27.071 50h1.414zM34.04 50L50 34.04v-1.414L32.626 50h1.414zM39.596 50L50 39.596v-1.414L38.182 50h1.414zM45.151 50L50 45.151v-1.414L43.737 50h1.414zM50 50v-.707l-.707.707H50z"/></g><g><path class="be22b9c9-4b6a-4f46-b69a-61e021ab8c82" d="M0 0h-.707L-50 49.293V50h.707L0 .707V0zM-43.737 50L0 6.262V4.848L-45.151 50h1.414zM-38.182 50L0 11.818v-1.414L-39.596 50h1.414zM-32.626 50L0 17.374V15.96L-34.04 50h1.414zM-27.071 50L0 22.929v-1.414L-28.485 50h1.414zM-21.515 50L0 28.485v-1.414L-22.929 50h1.414zM-15.96 50L0 34.04v-1.414L-17.374 50h1.414zM-10.404 50L0 39.596v-1.414L-11.818 50h1.414zM-4.849 50L0 45.151v-1.414L-6.263 50h1.414zM0 50v-.707L-.707 50H0z"/></g><path class="be22b9c9-4b6a-4f46-b69a-61e021ab8c82" d="M100-50h-.707L50-.707V0h.707L100-49.293V-50z"/><g><path class="be22b9c9-4b6a-4f46-b69a-61e021ab8c82" d="M50-50h-.707L0-.707V0h.707L50-49.293V-50zM6.263 0L50-43.738v-1.414L4.849 0h1.414zM11.818 0L50-38.182v-1.414L10.404 0h1.414zM17.374 0L50-32.626v-1.414L15.96 0h1.414zM22.929 0L50-27.071v-1.414L21.515 0h1.414zM28.485 0L50-21.515v-1.414L27.071 0h1.414zM34.04 0L50-15.96v-1.414L32.626 0h1.414zM39.596 0L50-10.404v-1.414L38.182 0h1.414zM45.151 0L50-4.849v-1.414L43.737 0h1.414zM50 0v-.707L49.293 0H50z"/></g><g><path class="be22b9c9-4b6a-4f46-b69a-61e021ab8c82" d="M0-50h-.707L-50-.707V0h.707L0-49.293V-50zM-43.737 0L0-43.738v-1.414L-45.151 0h1.414zM-38.182 0L0-38.182v-1.414L-39.596 0h1.414zM-32.626 0L0-32.626v-1.414L-34.04 0h1.414zM-27.071 0L0-27.071v-1.414L-28.485 0h1.414zM-21.515 0L0-21.515v-1.414L-22.929 0h1.414zM-15.96 0L0-15.96v-1.414L-17.374 0h1.414zM-10.404 0L0-10.404v-1.414L-11.818 0h1.414zM-4.849 0L0-4.849v-1.414L-6.263 0h1.414zM0 0v-.707L-.707 0H0z"/></g></pattern><style>.a4370618-cae6-4853-9893-efbcd4eae21f,.a82b0699-11f1-4ec4-8755-44d0dfcbd4e1,.a956bb17-ae53-4ed3-8a7f-94d43ad37da2,.adceaded-53db-476d-9036-db73830adcda,.ae2addde-7bd9-40f4-86f1-f7540a5f3593,.af37e773-23c5-4124-8eaf-3e3bdfe6eb30,.e1d2fba0-4151-4324-9d6a-32486a323227,.ee7b795d-4cd4-431a-9a69-1798c3ae1344,.f11e0fcb-6c5a-4082-853d-757604a41d8e,.f15000b4-0da8-480a-aafc-ee8b36d67207,.fac0212f-5015-4ed2-982d-a44366ec1813{fill:none}.a2eab79a-f6b5-4547-b89d-14c1ebb0fa0a,.ba69c1f7-3de0-46c8-95e3-510a671a17d8,.be22b9c9-4b6a-4f46-b69a-61e021ab8c82{fill:#151515}.a4370618-cae6-4853-9893-efbcd4eae21f,.a956bb17-ae53-4ed3-8a7f-94d43ad37da2,.ae2addde-7bd9-40f4-86f1-f7540a5f3593,.be22b9c9-4b6a-4f46-b69a-61e021ab8c82,.e1d2fba0-4151-4324-9d6a-32486a323227{stroke:#151515}.be22b9c9-4b6a-4f46-b69a-61e021ab8c82{stroke-miterlimit:10}.ee7b795d-4cd4-431a-9a69-1798c3ae1344{stroke:#5e40be}.a4370618-cae6-4853-9893-efbcd4eae21f,.a82b0699-11f1-4ec4-8755-44d0dfcbd4e1,.a89daeff-e234-4714-be92-b9b4e7db30d6,.a956bb17-ae53-4ed3-8a7f-94d43ad37da2,.ae2addde-7bd9-40f4-86f1-f7540a5f3593,.af37e773-23c5-4124-8eaf-3e3bdfe6eb30,.afd33c2b-24a5-417f-a1f4-08b21b5f46c9,.e1d2fba0-4151-4324-9d6a-32486a323227,.ee7b795d-4cd4-431a-9a69-1798c3ae1344,.f11e0fcb-6c5a-4082-853d-757604a41d8e,.f15000b4-0da8-480a-aafc-ee8b36d67207,.fac0212f-5015-4ed2-982d-a44366ec1813{stroke-linecap:round;stroke-linejoin:round}.a82b0699-11f1-4ec4-8755-44d0dfcbd4e1,.af37e773-23c5-4124-8eaf-3e3bdfe6eb30,.afd33c2b-24a5-417f-a1f4-08b21b5f46c9,.ee7b795d-4cd4-431a-9a69-1798c3ae1344,.f15000b4-0da8-480a-aafc-ee8b36d67207,.fac0212f-5015-4ed2-982d-a44366ec1813{stroke-width:2px}.ba048f37-58c5-409b-bb64-36255ffff6a4{fill:#e8e8e8}.afd33c2b-24a5-417f-a1f4-08b21b5f46c9,.fac0212f-5015-4ed2-982d-a44366ec1813{stroke:#06c}.a2eab79a-f6b5-4547-b89d-14c1ebb0fa0a,.b9236be4-3ab2-4cb0-8152-e5e79ea3f28f{font-size:11px;font-family:RedHatText,&quot;Red Hat Text&quot;,Overpass,&quot;Helvetica Neue&quot;,Arial,sans-serif;font-weight:500}.f15000b4-0da8-480a-aafc-ee8b36d67207{stroke:#4cb6d6}.a57ceeb7-d71d-452f-a5d4-841c0f7f4ac7{font-size:12px;font-family:RedHatText,&quot;Red Hat Text&quot;,Overpass,&quot;Helvetica Neue&quot;,Arial,sans-serif;font-weight:700}.a956bb17-ae53-4ed3-8a7f-94d43ad37da2{stroke-dasharray:2 2}.ae2addde-7bd9-40f4-86f1-f7540a5f3593{stroke-dasharray:3.071 3.071}.a4370618-cae6-4853-9893-efbcd4eae21f{stroke-dasharray:2.941 2.941}.a89daeff-e234-4714-be92-b9b4e7db30d6,.afd33c2b-24a5-417f-a1f4-08b21b5f46c9,.b9236be4-3ab2-4cb0-8152-e5e79ea3f28f,.babf7aa7-e5fa-4126-af31-89ad7537aa9f{fill:#fff}.a82b0699-11f1-4ec4-8755-44d0dfcbd4e1{stroke:#c0d682}.a89daeff-e234-4714-be92-b9b4e7db30d6,.af37e773-23c5-4124-8eaf-3e3bdfe6eb30,.f11e0fcb-6c5a-4082-853d-757604a41d8e{stroke:#5b5b5b}.a89daeff-e234-4714-be92-b9b4e7db30d6,.f11e0fcb-6c5a-4082-853d-757604a41d8e{stroke-width:1.5px}.a57ceeb7-d71d-452f-a5d4-841c0f7f4ac7{fill:#dcdcdc}.e0582b26-f2b6-442b-9822-d6af75066051{fill:#5e40be}.ac3193ec-d708-427e-a09b-93059aaa4c97{opacity:.35;mix-blend-mode:multiply}.a8406c5d-ab37-4684-a008-e7a42d10a1ed{fill:#06c}</style></defs><g style="isolation:isolate"><g id="a80baa3a-c838-4eea-ae9a-f6ddd523a945" data-name="artwork"><path class="ee7b795d-4cd4-431a-9a69-1798c3ae1344" d="M649 378v25M409.5 378v25"/><path class="ba048f37-58c5-409b-bb64-36255ffff6a4" d="M0 209.5h281V378H0z"/><path class="ee7b795d-4cd4-431a-9a69-1798c3ae1344" d="M0 403h760"/><path class="fac0212f-5015-4ed2-982d-a44366ec1813" d="M0 114.017h760"/><text class="a2eab79a-f6b5-4547-b89d-14c1ebb0fa0a" transform="translate(0 104.017)">Baremetal network</text><text class="a2eab79a-f6b5-4547-b89d-14c1ebb0fa0a" transform="translate(1 419.817)">Provisioning network</text><path class="ee7b795d-4cd4-431a-9a69-1798c3ae1344" d="M22.727 403v-50.25"/><path class="fac0212f-5015-4ed2-982d-a44366ec1813" d="M22.727 114.009V264.25"/><text transform="translate(673.981 422.834)" font-size="10" fill="#f3f3f3" font-family="RedHatText,&quot;Red Hat Text&quot;,Overpass,&quot;Helvetica Neue&quot;,Arial,sans-serif">71_OpenShift_1020</text><path class="adceaded-53db-476d-9036-db73830adcda" d="M0 399.817h760v40H0z"/><path class="f15000b4-0da8-480a-aafc-ee8b36d67207" d="M0 38.672h760"/><text class="a2eab79a-f6b5-4547-b89d-14c1ebb0fa0a" transform="translate(.5 28.671)">Internet access</text><path class="ee7b795d-4cd4-431a-9a69-1798c3ae1344" d="M183.217 327.5v25.25h-17.293"/><path class="fac0212f-5015-4ed2-982d-a44366ec1813" d="M183.217 289.5v-25.25h-17.293"/><path class="ba048f37-58c5-409b-bb64-36255ffff6a4" d="M41.209 219.5H0V240h41.209c5.661 0 5.661-20.5 0-20.5z"/><path fill="#d0d0d0" d="M15 289.5h246v38H15z"/><text class="a2eab79a-f6b5-4547-b89d-14c1ebb0fa0a" transform="translate(101.893 311.547)">Bootstrap VM</text><text transform="translate(15 234.604)" font-size="12" font-family="RedHatText,&quot;Red Hat Text&quot;,Overpass,&quot;Helvetica Neue&quot;,Arial,sans-serif" font-weight="700" fill="#151515">Provisioning node</text><path class="e1d2fba0-4151-4324-9d6a-32486a323227" d="M191.972 123.726v1.5"/><path class="a956bb17-ae53-4ed3-8a7f-94d43ad37da2" d="M191.972 127.226v3"/><path class="e1d2fba0-4151-4324-9d6a-32486a323227" d="M191.972 131.226v1.5h1.5"/><path class="ae2addde-7bd9-40f4-86f1-f7540a5f3593" d="M196.543 132.726h23.035"/><path class="e1d2fba0-4151-4324-9d6a-32486a323227" d="M221.114 132.726h1.5v1.5"/><path class="a4370618-cae6-4853-9893-efbcd4eae21f" d="M222.614 137.167v139.686"/><path class="e1d2fba0-4151-4324-9d6a-32486a323227" d="M222.614 278.324v1.5"/><path class="ba69c1f7-3de0-46c8-95e3-510a671a17d8" d="M217.627 278.365l4.987 8.635 4.986-8.635h-9.973z"/><path class="e1d2fba0-4151-4324-9d6a-32486a323227" d="M268.255 123.726v1.5"/><path class="a956bb17-ae53-4ed3-8a7f-94d43ad37da2" d="M268.255 127.226v3"/><path class="e1d2fba0-4151-4324-9d6a-32486a323227" d="M268.255 131.226v1.5h-1.5"/><path class="ae2addde-7bd9-40f4-86f1-f7540a5f3593" d="M263.684 132.726h-23.035"/><path class="e1d2fba0-4151-4324-9d6a-32486a323227" d="M239.114 132.726h-1.5v1.5"/><path class="a4370618-cae6-4853-9893-efbcd4eae21f" d="M237.614 137.167v139.686"/><path class="e1d2fba0-4151-4324-9d6a-32486a323227" d="M237.614 278.324v1.5"/><path class="ba69c1f7-3de0-46c8-95e3-510a671a17d8" d="M232.627 278.365l4.987 8.635 4.986-8.635h-9.973z"/><circle class="afd33c2b-24a5-417f-a1f4-08b21b5f46c9" cx="268.255" cy="113.371" r="9.355"/><text class="a2eab79a-f6b5-4547-b89d-14c1ebb0fa0a" transform="translate(239.271 98.016)">Ingress VIP</text><circle class="afd33c2b-24a5-417f-a1f4-08b21b5f46c9" cx="191.972" cy="113.371" r="9.355"/><text class="a2eab79a-f6b5-4547-b89d-14c1ebb0fa0a" transform="translate(172.552 98.016)">API VIP</text><path class="fac0212f-5015-4ed2-982d-a44366ec1813" d="M639 114.017V209.5"/><path stroke="#fff" stroke-width="10" stroke-linecap="round" stroke-linejoin="round" fill="none" d="M617.425 189.5H645.5"/><path class="a82b0699-11f1-4ec4-8755-44d0dfcbd4e1" d="M760 189.5H419.832v20M659 189.5v20"/><path class="fac0212f-5015-4ed2-982d-a44366ec1813" d="M399.5 114.017V209.5"/><text class="a2eab79a-f6b5-4547-b89d-14c1ebb0fa0a" transform="translate(418.832 167.501)">Out-of-Band Management<tspan x="0" y="12">network (optional)</tspan></text><path class="fac0212f-5015-4ed2-982d-a44366ec1813" d="M689.778 114.069v20"/><g><text class="a2eab79a-f6b5-4547-b89d-14c1ebb0fa0a" transform="translate(672.001 164.414)">Router</text><path class="a89daeff-e234-4714-be92-b9b4e7db30d6" d="M662.278 134.069h55v13.75h-55z"/><path class="af37e773-23c5-4124-8eaf-3e3bdfe6eb30" d="M711.398 139.966"/><path class="f11e0fcb-6c5a-4082-853d-757604a41d8e" d="M668.17 138.931v3.965M674.063 138.931v3.965M679.956 138.931v3.965M685.849 138.931v3.965M691.742 138.931v3.965M697.635 138.931v3.965"/></g><path class="a82b0699-11f1-4ec4-8755-44d0dfcbd4e1" d="M689.778 169.5v20"/><g><path class="babf7aa7-e5fa-4126-af31-89ad7537aa9f" d="M299.5 210h220v167.5h-220z"/><path class="ba048f37-58c5-409b-bb64-36255ffff6a4" d="M519 210.5V377H300V210.5h219m1-1H299V378h221V209.5z"/><text class="a57ceeb7-d71d-452f-a5d4-841c0f7f4ac7" transform="translate(314 234.604)"><tspan>Control plane nodes x3</tspan></text></g><g><path class="babf7aa7-e5fa-4126-af31-89ad7537aa9f" d="M539 210h220v167.5H539z"/><path class="ba048f37-58c5-409b-bb64-36255ffff6a4" d="M758.5 210.5V377h-219V210.5h219m1-1h-221V378h221V209.5z"/><text class="a57ceeb7-d71d-452f-a5d4-841c0f7f4ac7" transform="translate(552.467 234.604)"><tspan>Worker nodes xN</tspan></text></g><path class="fac0212f-5015-4ed2-982d-a44366ec1813" d="M436.439 94.017v20"/><path class="f15000b4-0da8-480a-aafc-ee8b36d67207" d="M436.439 38.672v20"/><g><text class="a2eab79a-f6b5-4547-b89d-14c1ebb0fa0a" transform="translate(418.663 89.017)">Router</text><path class="a89daeff-e234-4714-be92-b9b4e7db30d6" d="M408.939 58.672h55v13.75h-55z"/><path class="af37e773-23c5-4124-8eaf-3e3bdfe6eb30" d="M458.06 64.569"/><path class="f11e0fcb-6c5a-4082-853d-757604a41d8e" d="M414.832 63.535v3.964M420.725 63.535v3.964M426.618 63.535v3.964M432.511 63.535v3.964M438.403 63.535v3.964M444.296 63.535v3.964"/></g><path class="fac0212f-5015-4ed2-982d-a44366ec1813" d="M518.252 94.017v20"/><g><text class="a2eab79a-f6b5-4547-b89d-14c1ebb0fa0a" transform="translate(484.878 89.838)">DHCP server</text><path class="a89daeff-e234-4714-be92-b9b4e7db30d6" d="M490.684 59.493h55v13.75h-55z"/><path class="af37e773-23c5-4124-8eaf-3e3bdfe6eb30" d="M539.805 65.39"/><path class="f11e0fcb-6c5a-4082-853d-757604a41d8e" d="M497.42 67.35h8.25"/></g><path class="fac0212f-5015-4ed2-982d-a44366ec1813" d="M601.063 94.017v20"/><g><text class="a2eab79a-f6b5-4547-b89d-14c1ebb0fa0a" transform="translate(571.814 89.838)">DNS server</text><path class="a89daeff-e234-4714-be92-b9b4e7db30d6" d="M573.495 59.493h55v13.75h-55z"/><path class="af37e773-23c5-4124-8eaf-3e3bdfe6eb30" d="M622.616 65.39"/><path class="f11e0fcb-6c5a-4082-853d-757604a41d8e" d="M580.23 67.35h8.25"/></g><g><path class="e0582b26-f2b6-442b-9822-d6af75066051" d="M161.678 342.5H.455V363h161.223c5.661 0 5.661-20.5 0-20.5z"/><path d="M161.678 342.5H.455V363h161.223c5.661 0 5.661-20.5 0-20.5z" fill="url(#fc07334e-d75b-424c-bf67-836bf85ee63e)"/><text class="b9236be4-3ab2-4cb0-8152-e5e79ea3f28f" transform="translate(55.661 356.074)">Provisioning bridge</text><path class="e0582b26-f2b6-442b-9822-d6af75066051" d="M41.223 342.5H0V363h41.223c5.661 0 5.661-20.5 0-20.5z"/><text class="b9236be4-3ab2-4cb0-8152-e5e79ea3f28f" transform="translate(11.671 356.074)">eno1</text></g><g><path class="a8406c5d-ab37-4684-a008-e7a42d10a1ed" d="M161.664 254.5H.455V275h161.209c5.661 0 5.661-20.5 0-20.5z"/><path d="M161.664 254.5H.455V275h161.209c5.661 0 5.661-20.5 0-20.5z" fill="url(#aeb1ab7a-69a2-40bd-88e6-abd2d4ef4e73)"/><text class="b9236be4-3ab2-4cb0-8152-e5e79ea3f28f" transform="translate(55.677 269.349)">Baremetal bridge</text><g><path class="a8406c5d-ab37-4684-a008-e7a42d10a1ed" d="M41.209 254.5H0V275h41.209c5.661 0 5.661-20.5 0-20.5z"/><text class="b9236be4-3ab2-4cb0-8152-e5e79ea3f28f" transform="translate(11.671 269.349)">eno2</text></g></g></g></g></svg>