<svg xmlns="http://www.w3.org/2000/svg" width="760" height="443"><defs><pattern id="e619fbfa-2abe-44da-b8cd-184defd1ab1a" data-name="diaginal hash (gray)" width="50" height="50" patternTransform="translate(-114.569 75.023)" patternUnits="userSpaceOnUse"><path class="b53443f8-a0c8-4a59-abc7-0797c3786f3c" d="M0 0h50v50H0z"/><path class="b29e042c-1ecf-4a47-bbc8-0966befc6ac9" d="M50 50v.707l.707-.707H50zM54.849 50L50 54.849v1.414L56.263 50h-1.414zM60.404 50L50 60.404v1.414L61.818 50h-1.414zM65.96 50L50 65.96v1.414L67.374 50H65.96zM71.515 50L50 71.515v1.414L72.929 50h-1.414zM77.071 50L50 77.071v1.414L78.485 50h-1.414zM82.626 50L50 82.626v1.414L84.041 50h-1.415zM88.182 50L50 88.182v1.414L89.596 50h-1.414zM93.737 50L50 93.737v1.414L95.151 50h-1.414zM100 50h-.707L50 99.293V100h.707L100 50.707V50z"/><g><path class="b29e042c-1ecf-4a47-bbc8-0966befc6ac9" d="M0 50v.707L.707 50H0zM4.849 50L0 54.849v1.414L6.263 50H4.849zM10.404 50L0 60.404v1.414L11.818 50h-1.414zM15.96 50L0 65.96v1.414L17.374 50H15.96zM21.515 50L0 71.515v1.414L22.929 50h-1.414zM27.071 50L0 77.071v1.414L28.485 50h-1.414zM32.626 50L0 82.626v1.414L34.041 50h-1.415zM38.182 50L0 88.182v1.414L39.596 50h-1.414zM43.737 50L0 93.737v1.414L45.151 50h-1.414zM50 50h-.707L0 99.293V100h.707L50 50.707V50z"/></g><path class="b29e042c-1ecf-4a47-bbc8-0966befc6ac9" d="M0 50h-.707L-50 99.293V100h.707L0 50.707V50z"/><g><path class="b29e042c-1ecf-4a47-bbc8-0966befc6ac9" d="M50 0v.707L50.707 0H50zM54.849 0L50 4.849v1.414L56.263 0h-1.414zM60.404 0L50 10.404v1.414L61.818 0h-1.414zM65.96 0L50 15.96v1.414L67.374 0H65.96zM71.515 0L50 21.515v1.414L72.929 0h-1.414zM77.071 0L50 27.071v1.414L78.485 0h-1.414zM82.626 0L50 32.626v1.414L84.041 0h-1.415zM88.182 0L50 38.182v1.414L89.596 0h-1.414zM93.737 0L50 43.737v1.414L95.151 0h-1.414zM100 0h-.707L50 49.293V50h.707L100 .707V0z"/></g><g><path class="b29e042c-1ecf-4a47-bbc8-0966befc6ac9" d="M0 0v.707L.707 0H0zM4.849 0L0 4.849v1.414L6.263 0H4.849zM10.404 0L0 10.404v1.414L11.818 0h-1.414zM15.96 0L0 15.96v1.414L17.374 0H15.96zM21.515 0L0 21.515v1.414L22.929 0h-1.414zM27.071 0L0 27.071v1.414L28.485 0h-1.414zM32.626 0L0 32.626v1.414L34.041 0h-1.415zM38.182 0L0 38.182v1.414L39.596 0h-1.414zM43.737 0L0 43.737v1.414L45.151 0h-1.414zM50 0h-.707L0 49.293V50h.707L50 .707V0zM6.263 50L50 6.262V4.848L4.849 50h1.414zM11.818 50L50 11.818v-1.414L10.404 50h1.414zM17.374 50L50 17.374V15.96L15.96 50h1.414zM22.929 50L50 22.929v-1.414L21.515 50h1.414zM28.485 50L50 28.485v-1.414L27.071 50h1.414zM34.04 50L50 34.04v-1.414L32.626 50h1.414zM39.596 50L50 39.596v-1.414L38.182 50h1.414zM45.151 50L50 45.151v-1.414L43.737 50h1.414zM50 50v-.707l-.707.707H50z"/></g><g><path class="b29e042c-1ecf-4a47-bbc8-0966befc6ac9" d="M0 0h-.707L-50 49.293V50h.707L0 .707V0zM-43.737 50L0 6.262V4.848L-45.151 50h1.414zM-38.182 50L0 11.818v-1.414L-39.596 50h1.414zM-32.626 50L0 17.374V15.96L-34.04 50h1.414zM-27.071 50L0 22.929v-1.414L-28.485 50h1.414zM-21.515 50L0 28.485v-1.414L-22.929 50h1.414zM-15.96 50L0 34.04v-1.414L-17.374 50h1.414zM-10.404 50L0 39.596v-1.414L-11.818 50h1.414zM-4.849 50L0 45.151v-1.414L-6.263 50h1.414zM0 50v-.707L-.707 50H0z"/></g><path class="b29e042c-1ecf-4a47-bbc8-0966befc6ac9" d="M100-50h-.707L50-.707V0h.707L100-49.293V-50z"/><g><path class="b29e042c-1ecf-4a47-bbc8-0966befc6ac9" d="M50-50h-.707L0-.707V0h.707L50-49.293V-50zM6.263 0L50-43.738v-1.414L4.849 0h1.414zM11.818 0L50-38.182v-1.414L10.404 0h1.414zM17.374 0L50-32.626v-1.414L15.96 0h1.414zM22.929 0L50-27.071v-1.414L21.515 0h1.414zM28.485 0L50-21.515v-1.414L27.071 0h1.414zM34.04 0L50-15.96v-1.414L32.626 0h1.414zM39.596 0L50-10.404v-1.414L38.182 0h1.414zM45.151 0L50-4.849v-1.414L43.737 0h1.414zM50 0v-.707L49.293 0H50z"/></g><g><path class="b29e042c-1ecf-4a47-bbc8-0966befc6ac9" d="M0-50h-.707L-50-.707V0h.707L0-49.293V-50zM-43.737 0L0-43.738v-1.414L-45.151 0h1.414zM-38.182 0L0-38.182v-1.414L-39.596 0h1.414zM-32.626 0L0-32.626v-1.414L-34.04 0h1.414zM-27.071 0L0-27.071v-1.414L-28.485 0h1.414zM-21.515 0L0-21.515v-1.414L-22.929 0h1.414zM-15.96 0L0-15.96v-1.414L-17.374 0h1.414zM-10.404 0L0-10.404v-1.414L-11.818 0h1.414zM-4.849 0L0-4.849v-1.414L-6.263 0h1.414zM0 0v-.707L-.707 0H0z"/></g></pattern><pattern id="fa2c8e68-59c8-467d-8b3f-13f6b9792edd" data-name="diaginal hash (gray)" width="50" height="50" patternTransform="translate(-114.569 190.023)" patternUnits="userSpaceOnUse"><path class="b53443f8-a0c8-4a59-abc7-0797c3786f3c" d="M0 0h50v50H0z"/><path class="b29e042c-1ecf-4a47-bbc8-0966befc6ac9" d="M50 50v.707l.707-.707H50zM54.849 50L50 54.849v1.414L56.263 50h-1.414zM60.404 50L50 60.404v1.414L61.818 50h-1.414zM65.96 50L50 65.96v1.414L67.374 50H65.96zM71.515 50L50 71.515v1.414L72.929 50h-1.414zM77.071 50L50 77.071v1.414L78.485 50h-1.414zM82.626 50L50 82.626v1.414L84.041 50h-1.415zM88.182 50L50 88.182v1.414L89.596 50h-1.414zM93.737 50L50 93.737v1.414L95.151 50h-1.414zM100 50h-.707L50 99.293V100h.707L100 50.707V50z"/><g><path class="b29e042c-1ecf-4a47-bbc8-0966befc6ac9" d="M0 50v.707L.707 50H0zM4.849 50L0 54.849v1.414L6.263 50H4.849zM10.404 50L0 60.404v1.414L11.818 50h-1.414zM15.96 50L0 65.96v1.414L17.374 50H15.96zM21.515 50L0 71.515v1.414L22.929 50h-1.414zM27.071 50L0 77.071v1.414L28.485 50h-1.414zM32.626 50L0 82.626v1.414L34.041 50h-1.415zM38.182 50L0 88.182v1.414L39.596 50h-1.414zM43.737 50L0 93.737v1.414L45.151 50h-1.414zM50 50h-.707L0 99.293V100h.707L50 50.707V50z"/></g><path class="b29e042c-1ecf-4a47-bbc8-0966befc6ac9" d="M0 50h-.707L-50 99.293V100h.707L0 50.707V50z"/><g><path class="b29e042c-1ecf-4a47-bbc8-0966befc6ac9" d="M50 0v.707L50.707 0H50zM54.849 0L50 4.849v1.414L56.263 0h-1.414zM60.404 0L50 10.404v1.414L61.818 0h-1.414zM65.96 0L50 15.96v1.414L67.374 0H65.96zM71.515 0L50 21.515v1.414L72.929 0h-1.414zM77.071 0L50 27.071v1.414L78.485 0h-1.414zM82.626 0L50 32.626v1.414L84.041 0h-1.415zM88.182 0L50 38.182v1.414L89.596 0h-1.414zM93.737 0L50 43.737v1.414L95.151 0h-1.414zM100 0h-.707L50 49.293V50h.707L100 .707V0z"/></g><g><path class="b29e042c-1ecf-4a47-bbc8-0966befc6ac9" d="M0 0v.707L.707 0H0zM4.849 0L0 4.849v1.414L6.263 0H4.849zM10.404 0L0 10.404v1.414L11.818 0h-1.414zM15.96 0L0 15.96v1.414L17.374 0H15.96zM21.515 0L0 21.515v1.414L22.929 0h-1.414zM27.071 0L0 27.071v1.414L28.485 0h-1.414zM32.626 0L0 32.626v1.414L34.041 0h-1.415zM38.182 0L0 38.182v1.414L39.596 0h-1.414zM43.737 0L0 43.737v1.414L45.151 0h-1.414zM50 0h-.707L0 49.293V50h.707L50 .707V0zM6.263 50L50 6.262V4.848L4.849 50h1.414zM11.818 50L50 11.818v-1.414L10.404 50h1.414zM17.374 50L50 17.374V15.96L15.96 50h1.414zM22.929 50L50 22.929v-1.414L21.515 50h1.414zM28.485 50L50 28.485v-1.414L27.071 50h1.414zM34.04 50L50 34.04v-1.414L32.626 50h1.414zM39.596 50L50 39.596v-1.414L38.182 50h1.414zM45.151 50L50 45.151v-1.414L43.737 50h1.414zM50 50v-.707l-.707.707H50z"/></g><g><path class="b29e042c-1ecf-4a47-bbc8-0966befc6ac9" d="M0 0h-.707L-50 49.293V50h.707L0 .707V0zM-43.737 50L0 6.262V4.848L-45.151 50h1.414zM-38.182 50L0 11.818v-1.414L-39.596 50h1.414zM-32.626 50L0 17.374V15.96L-34.04 50h1.414zM-27.071 50L0 22.929v-1.414L-28.485 50h1.414zM-21.515 50L0 28.485v-1.414L-22.929 50h1.414zM-15.96 50L0 34.04v-1.414L-17.374 50h1.414zM-10.404 50L0 39.596v-1.414L-11.818 50h1.414zM-4.849 50L0 45.151v-1.414L-6.263 50h1.414zM0 50v-.707L-.707 50H0z"/></g><path class="b29e042c-1ecf-4a47-bbc8-0966befc6ac9" d="M100-50h-.707L50-.707V0h.707L100-49.293V-50z"/><g><path class="b29e042c-1ecf-4a47-bbc8-0966befc6ac9" d="M50-50h-.707L0-.707V0h.707L50-49.293V-50zM6.263 0L50-43.738v-1.414L4.849 0h1.414zM11.818 0L50-38.182v-1.414L10.404 0h1.414zM17.374 0L50-32.626v-1.414L15.96 0h1.414zM22.929 0L50-27.071v-1.414L21.515 0h1.414zM28.485 0L50-21.515v-1.414L27.071 0h1.414zM34.04 0L50-15.96v-1.414L32.626 0h1.414zM39.596 0L50-10.404v-1.414L38.182 0h1.414zM45.151 0L50-4.849v-1.414L43.737 0h1.414zM50 0v-.707L49.293 0H50z"/></g><g><path class="b29e042c-1ecf-4a47-bbc8-0966befc6ac9" d="M0-50h-.707L-50-.707V0h.707L0-49.293V-50zM-43.737 0L0-43.738v-1.414L-45.151 0h1.414zM-38.182 0L0-38.182v-1.414L-39.596 0h1.414zM-32.626 0L0-32.626v-1.414L-34.04 0h1.414zM-27.071 0L0-27.071v-1.414L-28.485 0h1.414zM-21.515 0L0-21.515v-1.414L-22.929 0h1.414zM-15.96 0L0-15.96v-1.414L-17.374 0h1.414zM-10.404 0L0-10.404v-1.414L-11.818 0h1.414zM-4.849 0L0-4.849v-1.414L-6.263 0h1.414zM0 0v-.707L-.707 0H0z"/></g></pattern><style>.a3e669ca-0d11-4b28-8a35-03f092c800f8,.aa0e8ae2-eebb-4d0b-a0d0-418c2c3169ba,.aa12cb21-04c4-42c4-9b2b-b60626822148,.ad1accc0-d5d9-4dd3-8090-7459bde41b0c,.b53443f8-a0c8-4a59-abc7-0797c3786f3c,.baa745ec-45ec-4137-88ab-c3f5033704a1,.ed2d8680-e9f4-4fce-b73e-76f42e8c8f6c,.fca86093-6d52-459a-a85e-5ec3b8348a13{fill:none}.a1069764-671e-4609-a23e-607d9c515e5a,.a70acb2e-b602-4f4f-8d23-a8c89575e896,.b29e042c-1ecf-4a47-bbc8-0966befc6ac9,.f3dda512-0f62-4d6e-8531-6ecb2c374d10{fill:#151515}.b29e042c-1ecf-4a47-bbc8-0966befc6ac9,.ed2d8680-e9f4-4fce-b73e-76f42e8c8f6c{stroke:#151515}.b29e042c-1ecf-4a47-bbc8-0966befc6ac9{stroke-miterlimit:10}.a3e669ca-0d11-4b28-8a35-03f092c800f8,.a4d0936d-64e1-4abb-b278-19e07bed45ce{stroke:#06c}.a0a8be02-d197-4f06-8b7f-641f42629389,.a3e669ca-0d11-4b28-8a35-03f092c800f8,.a4d0936d-64e1-4abb-b278-19e07bed45ce,.aa0e8ae2-eebb-4d0b-a0d0-418c2c3169ba,.aa12cb21-04c4-42c4-9b2b-b60626822148,.ad1accc0-d5d9-4dd3-8090-7459bde41b0c,.baa745ec-45ec-4137-88ab-c3f5033704a1,.ed2d8680-e9f4-4fce-b73e-76f42e8c8f6c,.fca86093-6d52-459a-a85e-5ec3b8348a13{stroke-linecap:round;stroke-linejoin:round}.a3e669ca-0d11-4b28-8a35-03f092c800f8,.a4d0936d-64e1-4abb-b278-19e07bed45ce,.aa0e8ae2-eebb-4d0b-a0d0-418c2c3169ba,.aa12cb21-04c4-42c4-9b2b-b60626822148,.ad1accc0-d5d9-4dd3-8090-7459bde41b0c,.fca86093-6d52-459a-a85e-5ec3b8348a13{stroke-width:2px}.ad1accc0-d5d9-4dd3-8090-7459bde41b0c{stroke:#c0d682}.a70acb2e-b602-4f4f-8d23-a8c89575e896,.f0928665-c43e-4a82-87ed-6fe39de55c31{font-size:11px;font-family:RedHatText,&quot;Red Hat Text&quot;,Overpass,&quot;Helvetica Neue&quot;,Arial,sans-serif;font-weight:500}.a0a8be02-d197-4f06-8b7f-641f42629389,.a4d0936d-64e1-4abb-b278-19e07bed45ce,.f0928665-c43e-4a82-87ed-6fe39de55c31{fill:#fff}.a0a8be02-d197-4f06-8b7f-641f42629389,.aa12cb21-04c4-42c4-9b2b-b60626822148,.baa745ec-45ec-4137-88ab-c3f5033704a1{stroke:#5b5b5b}.a0a8be02-d197-4f06-8b7f-641f42629389,.baa745ec-45ec-4137-88ab-c3f5033704a1{stroke-width:1.5px}.aa0e8ae2-eebb-4d0b-a0d0-418c2c3169ba{stroke:#5e40be}.e32644b7-5646-4bef-a3f4-5662d64a0e44{fill:#e8e8e8}.a1069764-671e-4609-a23e-607d9c515e5a{font-size:12px;font-family:RedHatText,&quot;Red Hat Text&quot;,Overpass,&quot;Helvetica Neue&quot;,Arial,sans-serif;font-weight:700}.fca86093-6d52-459a-a85e-5ec3b8348a13{stroke:#4cb6d6}.fe3a1e5b-9c7c-40aa-90d5-f3ab047702e4{fill:#5e40be}.a407bb58-79a5-4dab-80f4-428c32d5478c{opacity:.35;mix-blend-mode:multiply}.e519420c-29ed-42a6-914c-913595968b84{fill:#06c}</style></defs><g style="isolation:isolate"><g id="b64d8244-7f33-4d7a-b363-874e0934e016" data-name="artwork"><path class="a3e669ca-0d11-4b28-8a35-03f092c800f8" d="M639 114.017V209.5"/><path stroke-width="10" stroke="#fff" stroke-linecap="round" stroke-linejoin="round" fill="none" d="M617.425 189.5H645.5"/><path class="ad1accc0-d5d9-4dd3-8090-7459bde41b0c" d="M760 189.5H419.832v20M659 189.5v20"/><path class="a3e669ca-0d11-4b28-8a35-03f092c800f8" d="M399.5 114.017V209.5"/><text class="a70acb2e-b602-4f4f-8d23-a8c89575e896" transform="translate(418.832 167.501)">Out-of-Band Management<tspan x="0" y="12">network (optional)</tspan></text><path class="a3e669ca-0d11-4b28-8a35-03f092c800f8" d="M689.778 114.069v20"/><text class="a70acb2e-b602-4f4f-8d23-a8c89575e896" transform="translate(672.001 164.414)">Router</text><path class="a0a8be02-d197-4f06-8b7f-641f42629389" d="M662.278 134.069h55v13.75h-55z"/><path class="aa12cb21-04c4-42c4-9b2b-b60626822148" d="M711.398 139.966"/><path class="baa745ec-45ec-4137-88ab-c3f5033704a1" d="M668.17 138.931v3.965M674.063 138.931v3.965M679.956 138.931v3.965M685.849 138.931v3.965M691.742 138.931v3.965M697.635 138.931v3.965"/><path class="ad1accc0-d5d9-4dd3-8090-7459bde41b0c" d="M689.778 169.5v20"/><path class="aa0e8ae2-eebb-4d0b-a0d0-418c2c3169ba" d="M649 378v25M409.5 378v25"/><path class="e32644b7-5646-4bef-a3f4-5662d64a0e44" d="M299 209.5h221V378H299z"/><text class="a1069764-671e-4609-a23e-607d9c515e5a" transform="translate(314 234.604)"><tspan>Control plane nodes x3</tspan></text><path class="e32644b7-5646-4bef-a3f4-5662d64a0e44" d="M0 209.5h281V378H0z"/><path class="aa0e8ae2-eebb-4d0b-a0d0-418c2c3169ba" d="M0 403h760"/><path class="a3e669ca-0d11-4b28-8a35-03f092c800f8" d="M0 114.017h760"/><text class="a70acb2e-b602-4f4f-8d23-a8c89575e896" transform="translate(0 104.017)">Baremetal network</text><text class="a70acb2e-b602-4f4f-8d23-a8c89575e896" transform="translate(1 419.817)">Provisioning network</text><path class="aa0e8ae2-eebb-4d0b-a0d0-418c2c3169ba" d="M22.727 403v-50.25"/><path class="a3e669ca-0d11-4b28-8a35-03f092c800f8" d="M22.727 114.009V264.25M436.439 94.017v20"/><path class="fca86093-6d52-459a-a85e-5ec3b8348a13" d="M436.439 38.672v20"/><text class="a70acb2e-b602-4f4f-8d23-a8c89575e896" transform="translate(418.663 89.017)">Router</text><path class="a0a8be02-d197-4f06-8b7f-641f42629389" d="M408.939 58.672h55v13.75h-55z"/><path class="aa12cb21-04c4-42c4-9b2b-b60626822148" d="M458.06 64.569"/><path class="baa745ec-45ec-4137-88ab-c3f5033704a1" d="M414.832 63.535v3.964M420.725 63.535v3.964M426.618 63.535v3.964M432.511 63.535v3.964M438.403 63.535v3.964M444.296 63.535v3.964"/><path class="a3e669ca-0d11-4b28-8a35-03f092c800f8" d="M518.252 94.017v20"/><g><text class="a70acb2e-b602-4f4f-8d23-a8c89575e896" transform="translate(484.878 89.838)">DHCP server</text><path class="a0a8be02-d197-4f06-8b7f-641f42629389" d="M490.684 59.493h55v13.75h-55z"/><path class="aa12cb21-04c4-42c4-9b2b-b60626822148" d="M539.805 65.39"/><path class="baa745ec-45ec-4137-88ab-c3f5033704a1" d="M497.42 67.35h8.25"/></g><path class="a3e669ca-0d11-4b28-8a35-03f092c800f8" d="M601.063 94.017v20"/><g><text class="a70acb2e-b602-4f4f-8d23-a8c89575e896" transform="translate(571.814 89.838)">DNS server</text><path class="a0a8be02-d197-4f06-8b7f-641f42629389" d="M573.495 59.493h55v13.75h-55z"/><path class="aa12cb21-04c4-42c4-9b2b-b60626822148" d="M622.616 65.39"/><path class="baa745ec-45ec-4137-88ab-c3f5033704a1" d="M580.23 67.35h8.25"/></g><g><text transform="translate(673.981 426.017)" font-size="10" fill="#f3f3f3" font-family="RedHatText,&quot;Red Hat Text&quot;,Overpass,&quot;Helvetica Neue&quot;,Arial,sans-serif">71_OpenShift_1020</text><path class="b53443f8-a0c8-4a59-abc7-0797c3786f3c" d="M0 403h760v40H0z"/></g><path class="fca86093-6d52-459a-a85e-5ec3b8348a13" d="M0 38.672h760"/><text class="a70acb2e-b602-4f4f-8d23-a8c89575e896" transform="translate(.5 28.671)">Internet access</text><path class="e32644b7-5646-4bef-a3f4-5662d64a0e44" d="M41.209 219.5H0V240h41.209c5.661 0 5.661-20.5 0-20.5z"/><text class="a1069764-671e-4609-a23e-607d9c515e5a" transform="translate(15 234.604)">Provisioning node</text><g><path class="ed2d8680-e9f4-4fce-b73e-76f42e8c8f6c" d="M191.972 123.726v1.5"/><path stroke-dasharray="3 3" stroke-linecap="round" stroke-linejoin="round" stroke="#151515" fill="none" d="M191.972 128.226v16.5"/><path class="ed2d8680-e9f4-4fce-b73e-76f42e8c8f6c" d="M191.972 146.226v1.5h1.5"/><path stroke-dasharray="2.991 2.991" stroke-linecap="round" stroke-linejoin="round" stroke="#151515" fill="none" d="M196.463 147.726h160.041"/><path class="ed2d8680-e9f4-4fce-b73e-76f42e8c8f6c" d="M358 147.726h1.5v1.5"/><path stroke-dasharray="2.888 2.888" stroke-linecap="round" stroke-linejoin="round" stroke="#151515" fill="none" d="M359.5 152.114v44.766"/><path class="ed2d8680-e9f4-4fce-b73e-76f42e8c8f6c" d="M359.5 198.324v1.5"/><path class="f3dda512-0f62-4d6e-8531-6ecb2c374d10" d="M354.514 198.365L359.5 207l4.986-8.635h-9.972z"/></g><path stroke-width="8" stroke="#fff" stroke-linecap="round" stroke-linejoin="round" fill="none" d="M268.255 123.726v9h350.859V207"/><g><path class="ed2d8680-e9f4-4fce-b73e-76f42e8c8f6c" d="M268.255 123.726v1.5"/><path stroke-dasharray="2 2" stroke-linecap="round" stroke-linejoin="round" stroke="#151515" fill="none" d="M268.255 127.226v3"/><path class="ed2d8680-e9f4-4fce-b73e-76f42e8c8f6c" d="M268.255 131.226v1.5h1.5"/><path stroke-dasharray="3.025 3.025" stroke-linecap="round" stroke-linejoin="round" stroke="#151515" fill="none" d="M272.78 132.726h343.321"/><path class="ed2d8680-e9f4-4fce-b73e-76f42e8c8f6c" d="M617.614 132.726h1.5v1.5"/><path stroke-dasharray="3.052 3.052" stroke-linecap="round" stroke-linejoin="round" stroke="#151515" fill="none" d="M619.114 137.278v59.52"/><path class="ed2d8680-e9f4-4fce-b73e-76f42e8c8f6c" d="M619.114 198.324v1.5"/><path class="f3dda512-0f62-4d6e-8531-6ecb2c374d10" d="M614.127 198.365l4.987 8.635 4.986-8.635h-9.973z"/></g><path d="M260 290.5v36H16v-36h244m1-1H15v38h246v-38z" fill="#d5d5d5"/><text transform="translate(101.893 311.547)" fill="#c4c4c4" font-size="11" font-family="RedHatText,&quot;Red Hat Text&quot;,Overpass,&quot;Helvetica Neue&quot;,Arial,sans-serif" font-weight="500">Bootstrap VM</text><g><path class="e32644b7-5646-4bef-a3f4-5662d64a0e44" d="M538.5 209.5h221V378h-221z"/><text class="a1069764-671e-4609-a23e-607d9c515e5a" transform="translate(552.467 234.604)"><tspan>Worker nodes xN</tspan></text></g><g><path class="fe3a1e5b-9c7c-40aa-90d5-f3ab047702e4" d="M161.678 342.5H.455V363h161.223c5.661 0 5.661-20.5 0-20.5z"/><path d="M161.678 342.5H.455V363h161.223c5.661 0 5.661-20.5 0-20.5z" fill="url(#e619fbfa-2abe-44da-b8cd-184defd1ab1a)"/><text class="f0928665-c43e-4a82-87ed-6fe39de55c31" transform="translate(55.661 356.074)">Provisioning bridge</text><path class="fe3a1e5b-9c7c-40aa-90d5-f3ab047702e4" d="M41.223 342.5H0V363h41.223c5.661 0 5.661-20.5 0-20.5z"/><text class="f0928665-c43e-4a82-87ed-6fe39de55c31" transform="translate(11.671 356.074)">eno1</text><g><path class="e519420c-29ed-42a6-914c-913595968b84" d="M161.664 254.5H.455V275h161.209c5.661 0 5.661-20.5 0-20.5z"/><path d="M161.664 254.5H.455V275h161.209c5.661 0 5.661-20.5 0-20.5z" fill="url(#fa2c8e68-59c8-467d-8b3f-13f6b9792edd)"/><text class="f0928665-c43e-4a82-87ed-6fe39de55c31" transform="translate(55.677 269.349)">Baremetal bridge</text><g><path class="e519420c-29ed-42a6-914c-913595968b84" d="M41.209 254.5H0V275h41.209c5.661 0 5.661-20.5 0-20.5z"/><text class="f0928665-c43e-4a82-87ed-6fe39de55c31" transform="translate(11.671 269.349)">eno2</text></g></g></g><circle class="a4d0936d-64e1-4abb-b278-19e07bed45ce" cx="268.255" cy="113.371" r="9.355"/><text class="a70acb2e-b602-4f4f-8d23-a8c89575e896" transform="translate(239.271 98.016)">Ingress VIP</text><circle class="a4d0936d-64e1-4abb-b278-19e07bed45ce" cx="191.972" cy="113.371" r="9.355"/><text class="a70acb2e-b602-4f4f-8d23-a8c89575e896" transform="translate(172.552 98.016)">API VIP</text></g></g></svg>