<svg id="aedd8c4d-37a2-4634-b8b3-f2093d8a0729" data-name="artwork" xmlns="http://www.w3.org/2000/svg" width="760" height="354.436" viewBox="0 0 760 354.436">
  <defs>
    <style>
      .acdf6b44-10fb-4f1a-a2e2-3359408158fb, .b1e06d76-b3fc-436b-a94e-af80beec7f40 {
        fill: none;
      }

      .acdf6b44-10fb-4f1a-a2e2-3359408158fb {
        stroke: #151515;
        stroke-linecap: round;
        stroke-linejoin: round;
      }

      .a3c655a0-05aa-4416-bdbc-185d5a9177b2, .b7a7b433-c803-4b7f-984e-681178faa30a, .f83063ab-3123-4ee0-8227-97cd75c1a750 {
        fill: #151515;
      }

      .bbcc88b6-1370-4100-9c95-799254a0234e, .e3ffea26-e905-4bc5-93b9-e6dae450eb69 {
        fill: #e8e8e8;
      }

      .b7a7b433-c803-4b7f-984e-681178faa30a, .e13b92e4-28fc-4d0f-84d2-f441a57ba347, .f83063ab-3123-4ee0-8227-97cd75c1a750 {
        font-size: 12px;
      }

      .b7a7b433-c803-4b7f-984e-681178faa30a {
        font-family: RedHatText-Medium, Red Hat Text;
        font-weight: 500;
      }

      .e3ffea26-e905-4bc5-93b9-e6dae450eb69 {
        font-size: 10px;
        font-family: RedHatText-Regular, Red Hat Text;
      }

      .ed933603-de54-4005-98b0-018247f97793 {
        fill: #06c;
      }

      .e13b92e4-28fc-4d0f-84d2-f441a57ba347, .f83063ab-3123-4ee0-8227-97cd75c1a750 {
        font-family: RedHatText-Bold, Red Hat Text;
        font-weight: 700;
      }

      .a42a04f3-bb1d-41af-9fea-700ebc2b9db6 {
        fill: #e5f0fa;
      }

      .e13b92e4-28fc-4d0f-84d2-f441a57ba347 {
        fill: #fff;
      }
    </style>
  </defs>
  <g>
    <line class="acdf6b44-10fb-4f1a-a2e2-3359408158fb" x1="393" y1="167.26" x2="393" y2="146.612"/>
    <polygon class="a3c655a0-05aa-4416-bdbc-185d5a9177b2" points="397.986 165.801 393 174.436 388.014 165.801 397.986 165.801"/>
    <polygon class="a3c655a0-05aa-4416-bdbc-185d5a9177b2" points="397.986 148.071 393 139.436 388.014 148.071 397.986 148.071"/>
  </g>
  <g>
    <line class="acdf6b44-10fb-4f1a-a2e2-3359408158fb" x1="117.499" y1="167.26" x2="117.499" y2="146.612"/>
    <polygon class="a3c655a0-05aa-4416-bdbc-185d5a9177b2" points="122.485 165.801 117.499 174.436 112.513 165.801 122.485 165.801"/>
    <polygon class="a3c655a0-05aa-4416-bdbc-185d5a9177b2" points="122.485 148.071 117.499 139.436 112.513 148.071 122.485 148.071"/>
  </g>
  <g>
    <line class="acdf6b44-10fb-4f1a-a2e2-3359408158fb" x1="393" y1="267.26" x2="393" y2="246.612"/>
    <polygon class="a3c655a0-05aa-4416-bdbc-185d5a9177b2" points="397.986 265.801 393 274.436 388.014 265.801 397.986 265.801"/>
    <polygon class="a3c655a0-05aa-4416-bdbc-185d5a9177b2" points="397.986 248.071 393 239.436 388.014 248.071 397.986 248.071"/>
  </g>
  <g>
    <line class="acdf6b44-10fb-4f1a-a2e2-3359408158fb" x1="117.499" y1="267.26" x2="117.499" y2="246.612"/>
    <polygon class="a3c655a0-05aa-4416-bdbc-185d5a9177b2" points="122.485 265.801 117.499 274.436 112.513 265.801 122.485 265.801"/>
    <polygon class="a3c655a0-05aa-4416-bdbc-185d5a9177b2" points="122.485 248.071 117.499 239.436 112.513 248.071 122.485 248.071"/>
  </g>
  <g>
    <rect class="bbcc88b6-1370-4100-9c95-799254a0234e" x="290.5" y="176.495" width="205" height="60"/>
    <text class="b7a7b433-c803-4b7f-984e-681178faa30a" transform="translate(374.178 211.38)">Maven</text>
  </g>
  <g>
    <rect class="bbcc88b6-1370-4100-9c95-799254a0234e" x="14.999" y="176.936" width="205" height="60"/>
    <text class="b7a7b433-c803-4b7f-984e-681178faa30a" transform="translate(108.691 211.821)">Git</text>
  </g>
  <rect class="bbcc88b6-1370-4100-9c95-799254a0234e" x="14.999" y="276.936" width="480.5" height="60"/>
  <text class="b7a7b433-c803-4b7f-984e-681178faa30a" transform="translate(209.314 311.821)">CI/CD (Jenkins)</text>
  <g>
    <text class="e3ffea26-e905-4bc5-93b9-e6dae450eb69" transform="translate(679.172 331.796)">123_RHPAM_1020</text>
    <rect class="b1e06d76-b3fc-436b-a94e-af80beec7f40" x="-0.001" y="309.436" width="760" height="40"/>
  </g>
  <g>
    <path class="ed933603-de54-4005-98b0-018247f97793" d="M509.5,20.932v115h-233v-115h233m1-1h-235v117h235v-117Z"/>
    <text class="f83063ab-3123-4ee0-8227-97cd75c1a750" transform="translate(290.5 47.059)">Custom Application</text>
    <rect class="a42a04f3-bb1d-41af-9fea-700ebc2b9db6" x="290.5" y="61.932" width="205" height="60"/>
    <text class="b7a7b433-c803-4b7f-984e-681178faa30a" transform="translate(309.451 91.817)">Red Hat Business Automation<tspan x="58.781" y="13">Libraries</tspan></text>
  </g>
  <rect class="ed933603-de54-4005-98b0-018247f97793" x="555" y="61.932" width="205" height="60"/>
  <text class="e13b92e4-28fc-4d0f-84d2-f441a57ba347" transform="translate(569.463 91.817)">Red Hat Business Automation<tspan x="59.825" y="13">Database</tspan></text>
  <path class="ed933603-de54-4005-98b0-018247f97793" d="M234,20.932v115H1v-115H234m1-1H0v117H235v-117Z"/>
  <text class="f83063ab-3123-4ee0-8227-97cd75c1a750" transform="translate(14.999 47.059)">IDE</text>
  <g>
    <line class="acdf6b44-10fb-4f1a-a2e2-3359408158fb" x1="519.926" y1="91.817" x2="545.574" y2="91.817"/>
    <polygon class="a3c655a0-05aa-4416-bdbc-185d5a9177b2" points="521.385 96.803 512.75 91.817 521.385 86.83 521.385 96.803"/>
    <polygon class="a3c655a0-05aa-4416-bdbc-185d5a9177b2" points="544.114 96.803 552.75 91.817 544.114 86.83 544.114 96.803"/>
  </g>
</svg>
