<?xml version="1.0" encoding="UTF-8"?>
<svg id="artwork" xmlns="http://www.w3.org/2000/svg" viewBox="0 0 760 462.88">
  <defs>
    <style>
      .cls-1, .cls-2, .cls-3, .cls-4, .cls-5, .cls-6, .cls-7, .cls-8, .cls-9, .cls-10, .cls-11 {
        fill: none;
      }

      .cls-2, .cls-3, .cls-4, .cls-5, .cls-6, .cls-7, .cls-8, .cls-12, .cls-9, .cls-10, .cls-11 {
        stroke-linecap: round;
        stroke-linejoin: round;
      }

      .cls-2, .cls-12 {
        stroke: #5b5b5b;
        stroke-width: 1.5px;
      }

      .cls-3, .cls-4, .cls-5, .cls-6, .cls-7, .cls-9, .cls-10, .cls-11 {
        stroke: #06c;
      }

      .cls-4 {
        stroke-dasharray: 0 0 3.03 3.03;
      }

      .cls-13 {
        font-family: RedHatText-Bold, 'Red Hat Text';
        font-size: 14px;
      }

      .cls-13, .cls-14, .cls-15 {
        fill: #151515;
      }

      .cls-16 {
        fill: #06c;
      }

      .cls-17, .cls-12 {
        fill: #fff;
      }

      .cls-18 {
        fill: #e8e8e8;
      }

      .cls-19 {
        fill: #d9e8f7;
      }

      .cls-20 {
        fill: #5b5b5b;
      }

      .cls-5 {
        stroke-dasharray: 0 0 2.93 2.93;
      }

      .cls-6 {
        stroke-dasharray: 0 0 2.98 2.98;
      }

      .cls-14 {
        font-family: RedHatText-Medium, 'Red Hat Text';
      }

      .cls-14, .cls-15 {
        font-size: 11px;
      }

      .cls-21 {
        fill: #ececec;
        font-family: RedHatText-Regular, 'Red Hat Text';
        font-size: 10px;
      }

      .cls-7 {
        stroke-dasharray: 0 0 3.07 3.07;
      }

      .cls-15 {
        font-family: RedHatTextRoman-Medium, 'Red Hat Text';
        font-variation-settings: 'wght' 500;
      }

      .cls-8 {
        stroke: #fff;
        stroke-width: 8px;
      }

      .cls-9 {
        stroke-dasharray: 0 0 2.4 2.4;
      }

      .cls-10 {
        stroke-dasharray: 0 0 3.31 3.31;
      }

      .cls-11 {
        stroke-dasharray: 0 0 2.94 2.94;
      }
    </style>
  </defs>
  <path class="cls-18" d="M620.5,22V319H254.5V22h366m2-2H252.5V321h370V20h0Z"/>
  <line class="cls-8" x1="380" y1="317.47" x2="380" y2="329.53"/>
  <g>
    <text class="cls-21" transform="translate(717.48 445.89)"><tspan x="0" y="0">285_1022</tspan></text>
    <rect class="cls-1" y="422.88" width="760" height="40"/>
  </g>
  <g>
    <line class="cls-3" x1="705" y1="121.18" x2="705" y2="122.68"/>
    <line class="cls-7" x1="705" y1="125.74" x2="705" y2="252.97"/>
    <line class="cls-3" x1="705" y1="254.5" x2="705" y2="256"/>
    <polygon class="cls-16" points="700.01 122.64 705 114 709.99 122.64 700.01 122.64"/>
  </g>
  <line class="cls-3" x1="437.5" y1="111.5" x2="437.5" y2="211.5"/>
  <g>
    <line class="cls-3" x1="380" y1="211.55" x2="380" y2="246.37"/>
    <polygon class="cls-16" points="375.01 244.91 380 253.55 384.99 244.91 375.01 244.91"/>
  </g>
  <g>
    <line class="cls-3" x1="380" y1="315.68" x2="380" y2="331.32"/>
    <polygon class="cls-16" points="375.01 317.14 380 308.5 384.99 317.14 375.01 317.14"/>
    <polygon class="cls-16" points="375.01 329.86 380 338.5 384.99 329.86 375.01 329.86"/>
  </g>
  <g>
    <line class="cls-3" x1="487.82" y1="281" x2="486.32" y2="281"/>
    <line class="cls-5" x1="483.39" y1="281" x2="437.97" y2="281"/>
    <line class="cls-3" x1="436.5" y1="281" x2="435" y2="281"/>
    <polygon class="cls-16" points="486.36 276.01 495 281 486.36 285.99 486.36 276.01"/>
  </g>
  <line class="cls-8" x1="635.27" y1="281" x2="619.73" y2="281"/>
  <g>
    <line class="cls-3" x1="640.32" y1="281" x2="638.82" y2="281"/>
    <line class="cls-10" x1="635.51" y1="281" x2="610.66" y2="281"/>
    <line class="cls-3" x1="609" y1="281" x2="607.5" y2="281"/>
    <polygon class="cls-16" points="638.86 276.01 647.5 281 638.86 285.99 638.86 276.01"/>
  </g>
  <polyline class="cls-3" points="322.5 111.5 322.5 211.5 552.5 211.5 552.5 111.5"/>
  <g>
    <line class="cls-3" x1="112.5" y1="321.05" x2="112.5" y2="322.55"/>
    <line class="cls-11" x1="112.5" y1="325.48" x2="112.5" y2="418.03"/>
    <polyline class="cls-3" points="112.5 419.5 112.5 421 114 421"/>
    <line class="cls-6" x1="116.98" y1="421" x2="312.33" y2="421"/>
    <line class="cls-3" x1="313.82" y1="421" x2="315.32" y2="421"/>
    <polygon class="cls-16" points="313.86 425.99 322.5 421 313.86 416.01 313.86 425.99"/>
  </g>
  <g>
    <line class="cls-3" x1="55" y1="306" x2="55" y2="307.5"/>
    <line class="cls-9" x1="55" y1="309.9" x2="55" y2="318.3"/>
    <polyline class="cls-3" points="55 319.5 55 321 56.5 321"/>
    <line class="cls-4" x1="59.53" y1="321" x2="166.99" y2="321"/>
    <polyline class="cls-3" points="168.5 321 170 321 170 319.5"/>
    <line class="cls-9" x1="170" y1="317.1" x2="170" y2="308.7"/>
    <line class="cls-3" x1="170" y1="307.5" x2="170" y2="306"/>
  </g>
  <g>
    <rect class="cls-18" x="650" y="61.5" width="110" height="50"/>
    <text class="cls-14" transform="translate(674.15 83.55)"><tspan x="0" y="0">Reporting &amp;</tspan><tspan x="8.08" y="12">analytics</tspan></text>
  </g>
  <text class="cls-13" transform="translate(267.5 46.53)"><tspan x="0" y="0">Python application</tspan></text>
  <rect class="cls-18" x="267.5" y="61.5" width="110" height="50"/>
  <rect class="cls-17" x="267.5" y="153.69" width="340" height="36.31"/>
  <text class="cls-14" transform="translate(303.63 83.55)"><tspan x="0" y="0">Project</tspan><tspan x="1.56" y="12">source</tspan></text>
  <rect class="cls-18" x="382.5" y="61.5" width="110" height="50"/>
  <text class="cls-14" transform="translate(410.43 83.55)"><tspan x="0" y="0">Credential</tspan><tspan x="9.76" y="12">source</tspan></text>
  <g>
    <rect class="cls-19" x="325" y="256" width="110" height="50"/>
    <text class="cls-14" transform="translate(348.55 278.05)"><tspan x="0" y="0">Ansible SDK</tspan><tspan x="-.91" y="12">async library</tspan></text>
  </g>
  <g>
    <rect class="cls-19" x="325" y="341" width="110" height="50"/>
    <text class="cls-14" transform="translate(365.99 363.05)"><tspan x="0" y="0">Local</tspan><tspan x="-29.22" y="12">Ansible executor</tspan></text>
    <rect class="cls-18" x="325" y="396" width="110" height="50"/>
    <text class="cls-14" transform="translate(354.16 418.05)"><tspan x="0" y="0">Execution</tspan><tspan x="-6.97" y="12">environment</tspan></text>
  </g>
  <g>
    <rect class="cls-17" x=".5" y="256.5" width="109" height="49"/>
    <path class="cls-16" d="M109,257v48H1v-48H109m1-1H0v50H110v-50h0Z"/>
  </g>
  <text class="cls-14" transform="translate(29.34 278.05)"><tspan x="0" y="0">Container</tspan><tspan x="5.59" y="12">registry</tspan></text>
  <g>
    <rect class="cls-17" x="115.5" y="256.5" width="109" height="49"/>
    <path class="cls-16" d="M224,257v48H116v-48h108m1-1H115v50h110v-50h0Z"/>
  </g>
  <text class="cls-14" transform="translate(139.42 278.05)"><tspan x="0" y="0">Automation</tspan><tspan x="19.92" y="12">Hub</tspan></text>
  <rect class="cls-18" x="497.5" y="61.5" width="110" height="50"/>
  <text class="cls-14" transform="translate(527.76 83.55)"><tspan x="0" y="0">Inventory</tspan><tspan x="7.43" y="12">source</tspan></text>
  <rect class="cls-18" x="497.5" y="256" width="110" height="50"/>
  <text class="cls-14" transform="translate(521.92 278.05)"><tspan x="0" y="0">Automation</tspan><tspan x="-3.35" y="12">data receiver</tspan></text>
  <g>
    <rect class="cls-17" x="650.5" y="256.5" width="109" height="49"/>
    <path class="cls-16" d="M759,257v48h-108v-48h108m1-1h-110v50h110v-50h0Z"/>
  </g>
  <text class="cls-14" transform="translate(678.39 278.05)"><tspan x="0" y="0">Persistent</tspan><tspan x="-6.19" y="12">data storage</tspan></text>
  <g>
    <text class="cls-15" transform="translate(303.63 182.64)"><tspan x="0" y="0">Project</tspan></text>
    <g>
      <polygon class="cls-12" points="338.9 166 306.1 166 306.1 145.99 311.36 140.72 338.9 140.72 338.9 166"/>
      <polygon class="cls-12" points="306.1 145.99 311.36 145.99 311.36 140.72 306.1 145.99"/>
      <polyline class="cls-2" points="326.38 147.08 322.56 147.08 322.56 159.71 326.38 159.71"/>
      <line class="cls-2" x1="322.56" y1="153.39" x2="318.74" y2="153.39"/>
      <circle class="cls-12" cx="313.72" cy="153.39" r="2.51"/>
      <circle class="cls-12" cx="331.4" cy="159.71" r="2.51"/>
      <circle class="cls-12" cx="331.4" cy="147.08" r="2.51"/>
    </g>
  </g>
  <g>
    <text class="cls-15" transform="translate(407.8 182.64)"><tspan x="0" y="0">Credentials</tspan></text>
    <g>
      <path class="cls-12" d="M434.98,149.17c-3.29-1.06-5.68-4.15-5.68-7.8,0-4.53,3.67-8.2,8.2-8.2s8.2,3.67,8.2,8.2c0,3.16-1.79,5.9-4.42,7.27h0s0,4.71,0,4.71l-1.26,1.27,2.52,2.52-2.52,2.52v3.8h0s-2.52,2.52-2.52,2.52l-2.52-2.52v-14.31h0Z"/>
      <circle class="cls-20" cx="437.5" cy="136.95" r=".79"/>
    </g>
  </g>
  <g>
    <text class="cls-15" transform="translate(527.76 182.64)"><tspan x="0" y="0">Inventory</tspan></text>
    <g>
      <line class="cls-2" x1="548.7" y1="149.59" x2="541.12" y2="149.59"/>
      <line class="cls-2" x1="563.88" y1="149.59" x2="556.3" y2="149.59"/>
      <line class="cls-2" x1="552.5" y1="153.39" x2="552.5" y2="160.97"/>
      <line class="cls-2" x1="552.5" y1="138.22" x2="552.5" y2="145.79"/>
      <circle class="cls-12" cx="566.39" cy="149.59" r="2.51"/>
      <circle class="cls-12" cx="566.39" cy="163.49" r="2.51"/>
      <circle class="cls-12" cx="566.39" cy="135.7" r="2.51"/>
      <circle class="cls-12" cx="552.5" cy="149.59" r="3.8"/>
      <g>
        <line class="cls-12" x1="555.19" y1="152.28" x2="564.62" y2="161.71"/>
        <line class="cls-12" x1="549.82" y1="146.9" x2="540.39" y2="137.48"/>
        <line class="cls-12" x1="540.39" y1="161.71" x2="549.82" y2="152.28"/>
        <line class="cls-12" x1="564.62" y1="137.48" x2="555.19" y2="146.91"/>
      </g>
      <circle class="cls-12" cx="552.5" cy="163.49" r="2.51"/>
      <circle class="cls-12" cx="552.5" cy="135.7" r="2.51"/>
      <circle class="cls-12" cx="538.61" cy="149.59" r="2.51"/>
      <circle class="cls-12" cx="538.61" cy="163.49" r="2.51"/>
      <circle class="cls-12" cx="538.61" cy="135.7" r="2.51"/>
    </g>
  </g>
</svg>