<svg id="a99dc419-d6cd-4265-9037-a03b75b9ee1e" data-name="artwork" xmlns="http://www.w3.org/2000/svg" width="760" height="389.824"><defs><style>.a8943fa1-8b28-4fc7-ba10-583f8023f1c5,.eeebf62e-3981-43f4-a1c1-291de3178933{fill:none}.a1efff39-2cb2-42ad-848a-d691cac23a86{fill:#e8e8e8}.ef9a8c89-0af4-4cb8-9d0a-caf4531e61cd,.f3392899-3745-42da-925b-c7e071ec8a9f{font-size:12px}.a635cda8-109d-41b0-8498-57584b20923d,.ef9a8c89-0af4-4cb8-9d0a-caf4531e61cd,.f3392899-3745-42da-925b-c7e071ec8a9f,.fa8a6157-9b34-4f87-bdeb-b35d97472679{fill:#151515}.ef9a8c89-0af4-4cb8-9d0a-caf4531e61cd{font-family:RedHatText,&quot;Red Hat Text&quot;,Overpass,&quot;Helvetica Neue&quot;,Arial,sans-serif;font-weight:700}.ae17aaa9-7e23-4b1d-83d9-690b38e3cb52,.b9fbd252-6666-41fa-a0da-21eaf123eb32{fill:#fff}.bb301476-690c-47d6-83b7-daf698bcb8ef{fill:#06c}.a635cda8-109d-41b0-8498-57584b20923d,.f3392899-3745-42da-925b-c7e071ec8a9f{font-family:RedHatText,&quot;Red Hat Text&quot;,Overpass,&quot;Helvetica Neue&quot;,Arial,sans-serif;font-weight:500}.a8943fa1-8b28-4fc7-ba10-583f8023f1c5{stroke:#adadad;stroke-miterlimit:10}.eeebf62e-3981-43f4-a1c1-291de3178933{stroke:#151515}.b9fbd252-6666-41fa-a0da-21eaf123eb32,.eeebf62e-3981-43f4-a1c1-291de3178933{stroke-linecap:round;stroke-linejoin:round}.a635cda8-109d-41b0-8498-57584b20923d{font-size:11px}.b9fbd252-6666-41fa-a0da-21eaf123eb32{stroke:#5b5b5b;stroke-width:1.5px}</style></defs><text transform="translate(689.581 372.842)" font-size="10" fill="#ececec" font-family="RedHatText,&quot;Red Hat Text&quot;,Overpass,&quot;Helvetica Neue&quot;,Arial,sans-serif">173_RHEL_0721</text><path fill="none" d="M0 349.824h760v40H0z"/><path class="a1efff39-2cb2-42ad-848a-d691cac23a86" d="M0 20h210v111H0z"/><text class="ef9a8c89-0af4-4cb8-9d0a-caf4531e61cd" transform="translate(15 44.604)">Monitor host 1</text><path class="ae17aaa9-7e23-4b1d-83d9-690b38e3cb52" d="M110.5 57.824h74v49h-74z"/><path class="bb301476-690c-47d6-83b7-daf698bcb8ef" d="M184 58.324v48h-73v-48h73m1-1h-75v50h75v-50z"/><text class="f3392899-3745-42da-925b-c7e071ec8a9f" transform="translate(129.296 85.648)">PMCD</text><path class="a8943fa1-8b28-4fc7-ba10-583f8023f1c5" d="M25 117.324h75v-50"/><path class="a8943fa1-8b28-4fc7-ba10-583f8023f1c5" d="M20 112.324h75v-50"/><path class="ae17aaa9-7e23-4b1d-83d9-690b38e3cb52" d="M15 57.324h75v50H15z"/><text class="f3392899-3745-42da-925b-c7e071ec8a9f" transform="translate(31.578 85.648)">PMDAs</text><path class="a1efff39-2cb2-42ad-848a-d691cac23a86" d="M0 141h210v111H0z"/><text class="ef9a8c89-0af4-4cb8-9d0a-caf4531e61cd" transform="translate(15 165.604)">Monitor host 2</text><path class="ae17aaa9-7e23-4b1d-83d9-690b38e3cb52" d="M110.5 178.824h74v49h-74z"/><path class="bb301476-690c-47d6-83b7-daf698bcb8ef" d="M184 179.324v48h-73v-48h73m1-1h-75v50h75v-50z"/><text class="f3392899-3745-42da-925b-c7e071ec8a9f" transform="translate(129.296 206.648)">PMCD</text><path class="a8943fa1-8b28-4fc7-ba10-583f8023f1c5" d="M25 238.324h75v-50"/><path class="a8943fa1-8b28-4fc7-ba10-583f8023f1c5" d="M20 233.324h75v-50"/><path class="ae17aaa9-7e23-4b1d-83d9-690b38e3cb52" d="M15 178.324h75v50H15z"/><text class="f3392899-3745-42da-925b-c7e071ec8a9f" transform="translate(31.578 206.648)">PMDAs</text><path class="a1efff39-2cb2-42ad-848a-d691cac23a86" d="M0 262h210v111H0z"/><text class="ef9a8c89-0af4-4cb8-9d0a-caf4531e61cd" transform="translate(15 286.604)">Monitor host N</text><path class="ae17aaa9-7e23-4b1d-83d9-690b38e3cb52" d="M110.5 299.824h74v49h-74z"/><path class="bb301476-690c-47d6-83b7-daf698bcb8ef" d="M184 300.324v48h-73v-48h73m1-1h-75v50h75v-50z"/><text class="f3392899-3745-42da-925b-c7e071ec8a9f" transform="translate(129.296 327.648)">PMCD</text><path class="a8943fa1-8b28-4fc7-ba10-583f8023f1c5" d="M25 359.324h75v-50"/><path class="a8943fa1-8b28-4fc7-ba10-583f8023f1c5" d="M20 354.324h75v-50"/><path class="ae17aaa9-7e23-4b1d-83d9-690b38e3cb52" d="M15 299.324h75v50H15z"/><text class="f3392899-3745-42da-925b-c7e071ec8a9f" transform="translate(31.578 327.648)">PMDAs</text><path class="a1efff39-2cb2-42ad-848a-d691cac23a86" d="M240 20h390v353H240z"/><text class="ef9a8c89-0af4-4cb8-9d0a-caf4531e61cd" transform="translate(255 44.604)">pmlogger host</text><path class="ae17aaa9-7e23-4b1d-83d9-690b38e3cb52" d="M510.5 178.824h104v49h-104z"/><path class="bb301476-690c-47d6-83b7-daf698bcb8ef" d="M614 179.324v48H511v-48h103m1-1H510v50h105v-50z"/><text class="f3392899-3745-42da-925b-c7e071ec8a9f" transform="translate(537.54 206.648)">pmproxy</text><path fill="#d9e8f7" d="M655 150.824h105v105H655z"/><path class="ae17aaa9-7e23-4b1d-83d9-690b38e3cb52" d="M255.5 178.824h104v49h-104z"/><path class="bb301476-690c-47d6-83b7-daf698bcb8ef" d="M359 179.324v48H256v-48h103m1-1H255v50h105v-50z"/><text class="f3392899-3745-42da-925b-c7e071ec8a9f" transform="translate(275.604 206.647)">pmlogger 2</text><path class="eeebf62e-3981-43f4-a1c1-291de3178933" d="M245.324 203.324h-50.648"/><path class="fa8a6157-9b34-4f87-bdeb-b35d97472679" d="M243.865 198.337l8.635 4.987-8.635 4.986v-9.973zM196.135 198.337l-8.635 4.987 8.635 4.986v-9.973z"/><path class="eeebf62e-3981-43f4-a1c1-291de3178933" d="M194.676 324.324H225v-40.823h20.324"/><path class="fa8a6157-9b34-4f87-bdeb-b35d97472679" d="M196.135 329.31l-8.635-4.986 8.635-4.987v9.973zM243.865 288.487l8.635-4.986-8.635-4.987v9.973z"/><path class="eeebf62e-3981-43f4-a1c1-291de3178933" d="M194.676 82.324H225v41h20.324"/><path class="fa8a6157-9b34-4f87-bdeb-b35d97472679" d="M196.135 87.31l-8.635-4.986 8.635-4.987v9.973zM243.865 128.31l8.635-4.986-8.635-4.987v9.973z"/><path class="eeebf62e-3981-43f4-a1c1-291de3178933" d="M645.324 203.324h-20.648"/><path class="fa8a6157-9b34-4f87-bdeb-b35d97472679" d="M643.865 198.337l8.635 4.987-8.635 4.986v-9.973zM626.135 198.337l-8.635 4.987 8.635 4.986v-9.973z"/><g><path class="eeebf62e-3981-43f4-a1c1-291de3178933" d="M391.121 203.324H360"/><path class="fa8a6157-9b34-4f87-bdeb-b35d97472679" d="M389.662 198.337l8.635 4.987-8.635 4.986v-9.973z"/></g><g><path class="eeebf62e-3981-43f4-a1c1-291de3178933" d="M500.377 203.324h-61.121"/><path class="fa8a6157-9b34-4f87-bdeb-b35d97472679" d="M498.918 198.337l8.635 4.987-8.635 4.986v-9.973z"/></g><g><path class="eeebf62e-3981-43f4-a1c1-291de3178933" d="M500.377 218.324h-16.121v65.177h-45.807"/><path class="fa8a6157-9b34-4f87-bdeb-b35d97472679" d="M498.918 213.337l8.635 4.987-8.635 4.986v-9.973z"/></g><g><path class="eeebf62e-3981-43f4-a1c1-291de3178933" d="M500.377 188.3h-16.121v-64.976h-45.807"/><path class="fa8a6157-9b34-4f87-bdeb-b35d97472679" d="M498.918 183.313l8.635 4.987-8.635 4.986v-9.973z"/></g><g><path class="ae17aaa9-7e23-4b1d-83d9-690b38e3cb52" d="M255.5 259h104v49h-104z"/><path class="bb301476-690c-47d6-83b7-daf698bcb8ef" d="M359 259.5v48H256v-48h103m1-1H255v50h105v-50z"/></g><text class="f3392899-3745-42da-925b-c7e071ec8a9f" transform="translate(275.382 286.824)">pmlogger 3</text><g><path class="eeebf62e-3981-43f4-a1c1-291de3178933" d="M391.121 283.501H360"/><path class="fa8a6157-9b34-4f87-bdeb-b35d97472679" d="M389.662 278.514l8.635 4.987-8.635 4.986v-9.973z"/></g><g><path class="ae17aaa9-7e23-4b1d-83d9-690b38e3cb52" d="M255.5 98.824h104v49h-104z"/><path class="bb301476-690c-47d6-83b7-daf698bcb8ef" d="M359 99.324v48H256v-48h103m1-1H255v50h105v-50z"/></g><text class="f3392899-3745-42da-925b-c7e071ec8a9f" transform="translate(276.972 126.648)">pmlogger 1</text><g><path class="eeebf62e-3981-43f4-a1c1-291de3178933" d="M391.121 123.324H360"/><path class="fa8a6157-9b34-4f87-bdeb-b35d97472679" d="M389.662 118.337l8.635 4.987-8.635 4.986v-9.973z"/></g><g><text class="a635cda8-109d-41b0-8498-57584b20923d" transform="translate(693.278 217.674)">Redis<tspan x="-7.529" y="12">instance</tspan></text><path class="b9fbd252-6666-41fa-a0da-21eaf123eb32" d="M722.561 187.827a13.4 13.4 0 00-25.035-6.507 10.117 10.117 0 00-1.726-.157 9.968 9.968 0 100 19.935h26.761a6.636 6.636 0 100-13.271z"/></g><g><path class="b9fbd252-6666-41fa-a0da-21eaf123eb32" d="M420 104.308c-10.19 0-18.45 4.063-18.45 9.692v16.943c0 5.629 8.26 10.192 18.45 10.192s18.449-4.563 18.449-10.192V114c.001-5.629-8.259-9.692-18.449-9.692z"/><path class="b9fbd252-6666-41fa-a0da-21eaf123eb32" d="M438.45 125.25c0 5.63-8.26 10.193-18.449 10.193s-18.45-4.563-18.45-10.193"/><path class="b9fbd252-6666-41fa-a0da-21eaf123eb32" d="M438.45 119.5c0 5.63-8.26 10.193-18.449 10.193s-18.45-4.563-18.45-10.193"/><path class="b9fbd252-6666-41fa-a0da-21eaf123eb32" d="M438.45 114c0 5.63-8.26 10.193-18.449 10.193s-18.45-4.563-18.45-10.193 8.26-9.692 18.45-9.692 18.449 4.063 18.449 9.692z"/><text class="a635cda8-109d-41b0-8498-57584b20923d" transform="translate(376.155 157.773)">PCP archive log 1</text></g><g><path class="b9fbd252-6666-41fa-a0da-21eaf123eb32" d="M420 184.308c-10.19 0-18.45 4.063-18.45 9.693v16.942c0 5.629 8.26 10.192 18.45 10.192s18.449-4.563 18.449-10.192V194c.001-5.629-8.259-9.692-18.449-9.692z"/><path class="b9fbd252-6666-41fa-a0da-21eaf123eb32" d="M438.45 205.251c0 5.629-8.26 10.192-18.449 10.192s-18.45-4.563-18.45-10.192"/><path class="b9fbd252-6666-41fa-a0da-21eaf123eb32" d="M438.45 199.5c0 5.629-8.26 10.192-18.449 10.192s-18.45-4.563-18.45-10.192"/><path class="b9fbd252-6666-41fa-a0da-21eaf123eb32" d="M438.45 194c0 5.629-8.26 10.192-18.449 10.192s-18.45-4.563-18.45-10.192 8.26-9.693 18.45-9.693 18.449 4.064 18.449 9.693z"/><text class="a635cda8-109d-41b0-8498-57584b20923d" transform="translate(374.901 237.774)">PCP archive log 2</text></g><g><path class="b9fbd252-6666-41fa-a0da-21eaf123eb32" d="M420 264.308c-10.19 0-18.45 4.064-18.45 9.693v16.942c0 5.629 8.26 10.192 18.45 10.192s18.449-4.563 18.449-10.192V274c.001-5.628-8.259-9.692-18.449-9.692z"/><path class="b9fbd252-6666-41fa-a0da-21eaf123eb32" d="M438.45 285.251c0 5.629-8.26 10.192-18.449 10.192s-18.45-4.563-18.45-10.192"/><path class="b9fbd252-6666-41fa-a0da-21eaf123eb32" d="M438.45 279.5c0 5.629-8.26 10.192-18.449 10.192s-18.45-4.563-18.45-10.192"/><path class="b9fbd252-6666-41fa-a0da-21eaf123eb32" d="M438.45 274c0 5.629-8.26 10.192-18.449 10.192s-18.45-4.563-18.45-10.192 8.26-9.693 18.45-9.693 18.449 4.065 18.449 9.693z"/><text class="a635cda8-109d-41b0-8498-57584b20923d" transform="translate(374.697 317.774)">PCP archive log 3</text></g></svg>