<svg id="bb2e8f5e-be9f-4204-b3fc-7f1dafdb6c3a" data-name="artwork" xmlns="http://www.w3.org/2000/svg" width="760" height="407.324"><defs><style>.b51fdc7b-f728-4f90-8f92-188eec672887{fill:#e8e8e8}.a40fa252-e272-4b55-ba99-15513cc25a4a,.a7b3d2f9-f99d-4a08-880b-55cab2e26786{font-size:12px}.a40fa252-e272-4b55-ba99-15513cc25a4a,.a5ac8101-cd7e-4e6f-bbb9-746a03dad846,.a7b3d2f9-f99d-4a08-880b-55cab2e26786,.ffc0575f-7329-47e6-872c-902c99bef3ba{fill:#151515}.a40fa252-e272-4b55-ba99-15513cc25a4a{font-family:RedHatText,&quot;Red Hat Text&quot;,Overpass,&quot;Helvetica Neue&quot;,Arial,sans-serif;font-weight:700}.b96e223a-8d0c-4989-83dd-ddf12115847a,.f34a0b04-365f-4bda-83ce-971c06080387{fill:none}.f34a0b04-365f-4bda-83ce-971c06080387{stroke:#adadad;stroke-miterlimit:10}.acd129d7-4f1b-4ae5-8927-52a0ee66fc93,.b648aa24-d51b-4e5e-ab80-998916c23c4c{fill:#fff}.a7b3d2f9-f99d-4a08-880b-55cab2e26786,.ffc0575f-7329-47e6-872c-902c99bef3ba{font-family:RedHatText,&quot;Red Hat Text&quot;,Overpass,&quot;Helvetica Neue&quot;,Arial,sans-serif;font-weight:500}.ffc0575f-7329-47e6-872c-902c99bef3ba{font-size:11px}.b648aa24-d51b-4e5e-ab80-998916c23c4c{stroke:#5b5b5b;stroke-width:1.5px;stroke-linecap:round;stroke-linejoin:round}.b96e223a-8d0c-4989-83dd-ddf12115847a{stroke-linecap:round;stroke-linejoin:round;stroke:#151515}.a3b2019d-36f0-499b-9d06-4fdd345c233d{fill:#06c}</style></defs><path class="b51fdc7b-f728-4f90-8f92-188eec672887" d="M0 20h605v116H0z"/><text class="a40fa252-e272-4b55-ba99-15513cc25a4a" transform="translate(15 44.604)">Monitor host 1</text><path class="f34a0b04-365f-4bda-83ce-971c06080387" d="M25 117.324h75v-50"/><path class="f34a0b04-365f-4bda-83ce-971c06080387" d="M20 112.324h75v-50"/><path class="acd129d7-4f1b-4ae5-8927-52a0ee66fc93" d="M15 57.324h75v50H15z"/><text class="a7b3d2f9-f99d-4a08-880b-55cab2e26786" transform="translate(31.578 85.647)">PMDAs</text><path class="b51fdc7b-f728-4f90-8f92-188eec672887" d="M0 146h605v118.5H0z"/><text class="a40fa252-e272-4b55-ba99-15513cc25a4a" transform="translate(15 170.604)">Monitor host 2</text><path class="f34a0b04-365f-4bda-83ce-971c06080387" d="M25 243.324h75v-50"/><path class="f34a0b04-365f-4bda-83ce-971c06080387" d="M20 238.324h75v-50"/><path class="acd129d7-4f1b-4ae5-8927-52a0ee66fc93" d="M15 183.324h75v50H15z"/><text class="a7b3d2f9-f99d-4a08-880b-55cab2e26786" transform="translate(31.578 211.647)">PMDAs</text><path class="b51fdc7b-f728-4f90-8f92-188eec672887" d="M0 274.5h605v116H0z"/><text class="a40fa252-e272-4b55-ba99-15513cc25a4a" transform="translate(15 299.104)">Monitor host N</text><path class="f34a0b04-365f-4bda-83ce-971c06080387" d="M25 371.824h75v-50"/><path class="f34a0b04-365f-4bda-83ce-971c06080387" d="M20 366.824h75v-50"/><path class="acd129d7-4f1b-4ae5-8927-52a0ee66fc93" d="M15 311.824h75v50H15z"/><text class="a7b3d2f9-f99d-4a08-880b-55cab2e26786" transform="translate(31.578 340.148)">PMDAs</text><path fill="#d9e8f7" d="M655 146h105v118.5H655z"/><text class="ffc0575f-7329-47e6-872c-902c99bef3ba" transform="translate(693.278 219.6)">Redis<tspan x="-7.529" y="12">instance</tspan></text><path class="b648aa24-d51b-4e5e-ab80-998916c23c4c" d="M722.561 189.753a13.4 13.4 0 00-25.035-6.507 10.117 10.117 0 00-1.726-.157 9.968 9.968 0 100 19.935h26.761a6.636 6.636 0 100-13.271z"/><path class="b96e223a-8d0c-4989-83dd-ddf12115847a" d="M645.324 208.324h-45.648"/><path class="a5ac8101-cd7e-4e6f-bbb9-746a03dad846" d="M643.865 203.337l8.635 4.987-8.635 4.986v-9.973zM601.135 203.337l-8.635 4.987 8.635 4.986v-9.973z"/><path class="b96e223a-8d0c-4989-83dd-ddf12115847a" d="M645.324 193.324h-25.137v-111h-20.511"/><path class="a5ac8101-cd7e-4e6f-bbb9-746a03dad846" d="M643.865 188.337l8.635 4.987-8.635 4.986v-9.973zM601.135 77.337l-8.635 4.987 8.635 4.986v-9.973z"/><path class="b96e223a-8d0c-4989-83dd-ddf12115847a" d="M645.324 223.324h-25.137v113.5h-20.511"/><path class="a5ac8101-cd7e-4e6f-bbb9-746a03dad846" d="M643.865 218.337l8.635 4.987-8.635 4.986v-9.973zM601.135 331.837l-8.635 4.987 8.635 4.986v-9.973z"/><path class="acd129d7-4f1b-4ae5-8927-52a0ee66fc93" d="M486.279 57.824h104v49h-104z"/><path class="a3b2019d-36f0-499b-9d06-4fdd345c233d" d="M589.779 58.324v48h-103v-48h103m1-1h-105v50h105v-50z"/><text class="a7b3d2f9-f99d-4a08-880b-55cab2e26786" transform="translate(513.319 85.648)">pmproxy</text><path class="b96e223a-8d0c-4989-83dd-ddf12115847a" d="M381.901 82.324H335.78"/><path class="a5ac8101-cd7e-4e6f-bbb9-746a03dad846" d="M380.442 77.337l8.635 4.987-8.635 4.986v-9.973z"/><path class="b96e223a-8d0c-4989-83dd-ddf12115847a" d="M476.092 82.324h-46.121"/><path class="a5ac8101-cd7e-4e6f-bbb9-746a03dad846" d="M474.633 77.337l8.635 4.987-8.635 4.986v-9.973z"/><path class="b96e223a-8d0c-4989-83dd-ddf12115847a" d="M221.104 82.324h-36.121"/><path class="a5ac8101-cd7e-4e6f-bbb9-746a03dad846" d="M219.645 77.337l8.635 4.987-8.635 4.986v-9.973z"/><path class="acd129d7-4f1b-4ae5-8927-52a0ee66fc93" d="M486.279 183.824h104v49h-104z"/><path class="a3b2019d-36f0-499b-9d06-4fdd345c233d" d="M589.779 184.324v48h-103v-48h103m1-1h-105v50h105v-50z"/><text class="a7b3d2f9-f99d-4a08-880b-55cab2e26786" transform="translate(513.319 211.648)">pmproxy</text><path class="b96e223a-8d0c-4989-83dd-ddf12115847a" d="M381.901 208.324H335.78"/><path class="a5ac8101-cd7e-4e6f-bbb9-746a03dad846" d="M380.442 203.337l8.635 4.987-8.635 4.986v-9.973z"/><path class="b96e223a-8d0c-4989-83dd-ddf12115847a" d="M476.092 208.324h-46.121"/><path class="a5ac8101-cd7e-4e6f-bbb9-746a03dad846" d="M474.633 203.337l8.635 4.987-8.635 4.986v-9.973z"/><path class="b96e223a-8d0c-4989-83dd-ddf12115847a" d="M221.104 208.324h-36.121"/><path class="a5ac8101-cd7e-4e6f-bbb9-746a03dad846" d="M219.645 203.337l8.635 4.987-8.635 4.986v-9.973z"/><path class="b96e223a-8d0c-4989-83dd-ddf12115847a" d="M221.104 336.824h-36.121"/><path class="a5ac8101-cd7e-4e6f-bbb9-746a03dad846" d="M219.645 331.837l8.635 4.987-8.635 4.986v-9.973z"/><path class="acd129d7-4f1b-4ae5-8927-52a0ee66fc93" d="M486.279 312.324h104v49h-104z"/><path class="a3b2019d-36f0-499b-9d06-4fdd345c233d" d="M589.779 312.824v48h-103v-48h103m1-1h-105v50h105v-50z"/><text class="a7b3d2f9-f99d-4a08-880b-55cab2e26786" transform="translate(513.319 340.148)">pmproxy</text><path class="b96e223a-8d0c-4989-83dd-ddf12115847a" d="M381.901 336.824H335.78"/><path class="a5ac8101-cd7e-4e6f-bbb9-746a03dad846" d="M380.442 331.837l8.635 4.987-8.635 4.986v-9.973z"/><g><path class="b96e223a-8d0c-4989-83dd-ddf12115847a" d="M476.092 336.824h-46.121"/><path class="a5ac8101-cd7e-4e6f-bbb9-746a03dad846" d="M474.633 331.837l8.635 4.987-8.635 4.986v-9.973z"/></g><g><path class="acd129d7-4f1b-4ae5-8927-52a0ee66fc93" d="M110.5 57.824h74v49h-74z"/><path class="a3b2019d-36f0-499b-9d06-4fdd345c233d" d="M184 58.324v48h-73v-48h73m1-1h-75v50h75v-50z"/></g><text class="a7b3d2f9-f99d-4a08-880b-55cab2e26786" transform="translate(129.296 85.647)">PMCD</text><g><path class="acd129d7-4f1b-4ae5-8927-52a0ee66fc93" d="M110.5 183.824h74v49h-74z"/><path class="a3b2019d-36f0-499b-9d06-4fdd345c233d" d="M184 184.324v48h-73v-48h73m1-1h-75v50h75v-50z"/></g><text class="a7b3d2f9-f99d-4a08-880b-55cab2e26786" transform="translate(129.296 211.648)">PMCD</text><g><path class="acd129d7-4f1b-4ae5-8927-52a0ee66fc93" d="M110.5 312.324h74v49h-74z"/><path class="a3b2019d-36f0-499b-9d06-4fdd345c233d" d="M184 312.824v48h-73v-48h73m1-1h-75v50h75v-50z"/></g><text class="a7b3d2f9-f99d-4a08-880b-55cab2e26786" transform="translate(129.296 340.147)">PMCD</text><g><path class="acd129d7-4f1b-4ae5-8927-52a0ee66fc93" d="M231.28 312.324h104v49h-104z"/><path class="a3b2019d-36f0-499b-9d06-4fdd345c233d" d="M334.78 312.824v48h-103v-48h103m1-1h-105v50h105v-50z"/></g><text class="a7b3d2f9-f99d-4a08-880b-55cab2e26786" transform="translate(256.154 340.148)">pmlogger</text><g><path class="acd129d7-4f1b-4ae5-8927-52a0ee66fc93" d="M231.28 183.824h104v49h-104z"/><path class="a3b2019d-36f0-499b-9d06-4fdd345c233d" d="M334.78 184.324v48h-103v-48h103m1-1h-105v50h105v-50z"/></g><text class="a7b3d2f9-f99d-4a08-880b-55cab2e26786" transform="translate(256.154 211.648)">pmlogger</text><g><path class="acd129d7-4f1b-4ae5-8927-52a0ee66fc93" d="M231.28 57.824h104v49h-104z"/><path class="a3b2019d-36f0-499b-9d06-4fdd345c233d" d="M334.78 58.324v48h-103v-48h103m1-1h-105v50h105v-50z"/></g><text class="a7b3d2f9-f99d-4a08-880b-55cab2e26786" transform="translate(256.154 85.648)">pmlogger</text><g><text transform="translate(689.581 390.342)" font-size="10" fill="#ececec" font-family="RedHatText,&quot;Red Hat Text&quot;,Overpass,&quot;Helvetica Neue&quot;,Arial,sans-serif">173_RHEL_0721</text><path fill="none" d="M0 367.324h760v40H0z"/></g><g><path class="b648aa24-d51b-4e5e-ab80-998916c23c4c" d="M410.78 63.132c-10.19 0-18.45 4.063-18.45 9.692v16.943c0 5.629 8.26 10.192 18.45 10.192s18.449-4.563 18.449-10.192V72.824c0-5.629-8.26-9.692-18.449-9.692z"/><path class="b648aa24-d51b-4e5e-ab80-998916c23c4c" d="M429.229 84.074c0 5.629-8.26 10.193-18.449 10.193s-18.449-4.567-18.449-10.193"/><path class="b648aa24-d51b-4e5e-ab80-998916c23c4c" d="M429.229 78.324c0 5.629-8.26 10.193-18.449 10.193s-18.449-4.564-18.449-10.193"/><path class="b648aa24-d51b-4e5e-ab80-998916c23c4c" d="M429.229 72.824c0 5.629-8.26 10.193-18.449 10.193s-18.449-4.564-18.449-10.193 8.259-9.692 18.449-9.692 18.449 4.063 18.449 9.692z"/><text class="ffc0575f-7329-47e6-872c-902c99bef3ba" transform="translate(370.052 116.597)">PCP archive log</text></g><g><path class="b648aa24-d51b-4e5e-ab80-998916c23c4c" d="M410.78 189.132c-10.19 0-18.45 4.063-18.45 9.692v16.943c0 5.629 8.26 10.192 18.45 10.192s18.449-4.563 18.449-10.192v-16.943c0-5.624-8.26-9.692-18.449-9.692z"/><path class="b648aa24-d51b-4e5e-ab80-998916c23c4c" d="M429.229 210.074c0 5.629-8.26 10.193-18.449 10.193s-18.449-4.564-18.449-10.193"/><path class="b648aa24-d51b-4e5e-ab80-998916c23c4c" d="M429.229 204.324c0 5.629-8.26 10.193-18.449 10.193s-18.449-4.564-18.449-10.193"/><path class="b648aa24-d51b-4e5e-ab80-998916c23c4c" d="M429.229 198.824c0 5.629-8.26 10.193-18.449 10.193s-18.449-4.564-18.449-10.193 8.259-9.692 18.449-9.692 18.449 4.068 18.449 9.692z"/><text class="ffc0575f-7329-47e6-872c-902c99bef3ba" transform="translate(370.052 242.597)">PCP archive log</text></g><g><path class="b648aa24-d51b-4e5e-ab80-998916c23c4c" d="M410.78 317.632c-10.19 0-18.45 4.063-18.45 9.692v16.943c0 5.629 8.26 10.192 18.45 10.192s18.449-4.563 18.449-10.192v-16.943c0-5.624-8.26-9.692-18.449-9.692z"/><path class="b648aa24-d51b-4e5e-ab80-998916c23c4c" d="M429.229 338.575c0 5.629-8.26 10.192-18.449 10.192s-18.449-4.563-18.449-10.192"/><path class="b648aa24-d51b-4e5e-ab80-998916c23c4c" d="M429.229 332.825c0 5.629-8.26 10.192-18.449 10.192s-18.449-4.563-18.449-10.192"/><path class="b648aa24-d51b-4e5e-ab80-998916c23c4c" d="M429.229 327.324c0 5.63-8.26 10.193-18.449 10.193s-18.449-4.563-18.449-10.193 8.259-9.692 18.449-9.692 18.449 4.068 18.449 9.692z"/><text class="ffc0575f-7329-47e6-872c-902c99bef3ba" transform="translate(370.052 371.098)">PCP archive log</text></g></svg>