<svg id="b911e18d-7acd-4165-86dd-2b21a4f459ab" data-name="artwork" xmlns="http://www.w3.org/2000/svg" width="760" height="994.677"><defs><style>.a5cb34b2-af20-494f-8f86-750feffefa33{fill:#e8e8e8}.acc8b0a7-df4e-477f-954d-6a80bfcc3fff,.bdd28fb6-4a7b-496d-8492-7f6b91bef04c{font-size:12px}.acc8b0a7-df4e-477f-954d-6a80bfcc3fff,.b0cd7d86-2a1b-4ec1-bf9c-d954d7db84aa,.bdd28fb6-4a7b-496d-8492-7f6b91bef04c,.e13fba09-24c6-4355-930d-03555caada1f,.fa063709-c141-4aa3-a3d4-10a025422abb{fill:#151515}.b0cd7d86-2a1b-4ec1-bf9c-d954d7db84aa,.bdd28fb6-4a7b-496d-8492-7f6b91bef04c{font-family:RedHatText,&quot;Red Hat Text&quot;,Overpass,&quot;Helvetica Neue&quot;,Arial,sans-serif;font-weight:700}.b3cac46e-3801-40ef-97de-f0c5741d94dd,.b93a608d-b14a-4d60-bc81-ae7926812031{fill:#fff}.baedb06c-472a-48af-9cc2-a8de143be716{fill:#06c}.acc8b0a7-df4e-477f-954d-6a80bfcc3fff,.fa063709-c141-4aa3-a3d4-10a025422abb{font-family:RedHatText,&quot;Red Hat Text&quot;,Overpass,&quot;Helvetica Neue&quot;,Arial,sans-serif;font-weight:500}.a26a8189-9d52-444e-9472-3835b2e09c54,.aa75651f-166e-45a9-9395-35601a4cf706,.b9ce1ccc-bf72-48ee-bbda-7da1502a146b,.bd9b3c4e-d424-43fb-87e4-89ada4a0186d,.eeb33934-fdc9-45ee-b706-5f951ca44658{fill:none}.a26a8189-9d52-444e-9472-3835b2e09c54,.aa75651f-166e-45a9-9395-35601a4cf706,.b9ce1ccc-bf72-48ee-bbda-7da1502a146b,.eeb33934-fdc9-45ee-b706-5f951ca44658{stroke:#adadad}.eeb33934-fdc9-45ee-b706-5f951ca44658{stroke-miterlimit:10}.bd9b3c4e-d424-43fb-87e4-89ada4a0186d{stroke:#151515}.a26a8189-9d52-444e-9472-3835b2e09c54,.aa75651f-166e-45a9-9395-35601a4cf706,.b3cac46e-3801-40ef-97de-f0c5741d94dd,.b9ce1ccc-bf72-48ee-bbda-7da1502a146b,.bd9b3c4e-d424-43fb-87e4-89ada4a0186d{stroke-linecap:round;stroke-linejoin:round}.a26a8189-9d52-444e-9472-3835b2e09c54{stroke-dasharray:2.995 2.995}.aa75651f-166e-45a9-9395-35601a4cf706{stroke-dasharray:3 3}.b0cd7d86-2a1b-4ec1-bf9c-d954d7db84aa{font-size:14px}.fa063709-c141-4aa3-a3d4-10a025422abb{font-size:11px}.b3cac46e-3801-40ef-97de-f0c5741d94dd{stroke:#5b5b5b;stroke-width:1.5px}</style></defs><path class="a5cb34b2-af20-494f-8f86-750feffefa33" d="M15.5 60.5h210v111h-210z"/><text class="bdd28fb6-4a7b-496d-8492-7f6b91bef04c" transform="translate(30.5 85.104)">Monitor host 1</text><path class="b93a608d-b14a-4d60-bc81-ae7926812031" d="M126 98.323h74v49h-74z"/><path class="baedb06c-472a-48af-9cc2-a8de143be716" d="M199.5 98.824v48h-73v-48h73m1-1h-75v50h75v-50z"/><text class="acc8b0a7-df4e-477f-954d-6a80bfcc3fff" transform="translate(144.796 126.148)">PMCD</text><path class="eeb33934-fdc9-45ee-b706-5f951ca44658" d="M40.5 157.824h75v-45"/><path class="eeb33934-fdc9-45ee-b706-5f951ca44658" d="M35.5 152.824h75v-50"/><path class="b93a608d-b14a-4d60-bc81-ae7926812031" d="M30.5 97.824h75v50h-75z"/><text class="acc8b0a7-df4e-477f-954d-6a80bfcc3fff" transform="translate(47.078 126.148)">PMDAs</text><path class="a5cb34b2-af20-494f-8f86-750feffefa33" d="M15.5 181.5h210v111h-210z"/><text class="bdd28fb6-4a7b-496d-8492-7f6b91bef04c" transform="translate(30.5 206.104)">Monitor host 2</text><path class="b93a608d-b14a-4d60-bc81-ae7926812031" d="M126 219.323h74v49h-74z"/><path class="baedb06c-472a-48af-9cc2-a8de143be716" d="M199.5 219.824v48h-73v-48h73m1-1h-75v50h75v-50z"/><text class="acc8b0a7-df4e-477f-954d-6a80bfcc3fff" transform="translate(144.796 245.324)">PMCD</text><path class="eeb33934-fdc9-45ee-b706-5f951ca44658" d="M40.5 278.824h75v-50"/><path class="eeb33934-fdc9-45ee-b706-5f951ca44658" d="M35.5 273.824h75v-50"/><path class="b93a608d-b14a-4d60-bc81-ae7926812031" d="M30.5 218.824h75v50h-75z"/><text class="acc8b0a7-df4e-477f-954d-6a80bfcc3fff" transform="translate(47.078 245.323)">PMDAs</text><path class="a5cb34b2-af20-494f-8f86-750feffefa33" d="M15.5 302.5h210v111h-210z"/><text class="bdd28fb6-4a7b-496d-8492-7f6b91bef04c" transform="translate(30.5 327.104)">Monitor host N</text><path class="b93a608d-b14a-4d60-bc81-ae7926812031" d="M126 340.323h74v49h-74z"/><path class="baedb06c-472a-48af-9cc2-a8de143be716" d="M199.5 340.824v48h-73v-48h73m1-1h-75v50h75v-50z"/><text class="acc8b0a7-df4e-477f-954d-6a80bfcc3fff" transform="translate(144.796 368.147)">PMCD</text><path class="eeb33934-fdc9-45ee-b706-5f951ca44658" d="M40.5 399.824h75v-50"/><path class="eeb33934-fdc9-45ee-b706-5f951ca44658" d="M35.5 394.824h75v-50"/><path class="b93a608d-b14a-4d60-bc81-ae7926812031" d="M30.5 339.824h75v50h-75z"/><text class="acc8b0a7-df4e-477f-954d-6a80bfcc3fff" transform="translate(47.078 368.147)">PMDAs</text><path class="a5cb34b2-af20-494f-8f86-750feffefa33" d="M255.5 60.5h390v353h-390z"/><text class="bdd28fb6-4a7b-496d-8492-7f6b91bef04c" transform="translate(270.5 85.104)">pmlogger host</text><path class="b93a608d-b14a-4d60-bc81-ae7926812031" d="M526 219.323h104v49H526z"/><path class="baedb06c-472a-48af-9cc2-a8de143be716" d="M629.5 219.824v48h-103v-48h103m1-1h-105v50h105v-50z"/><text class="acc8b0a7-df4e-477f-954d-6a80bfcc3fff" transform="translate(553.04 247.148)">pmproxy</text><path class="b93a608d-b14a-4d60-bc81-ae7926812031" d="M271 219.323h104v49H271z"/><path class="baedb06c-472a-48af-9cc2-a8de143be716" d="M374.5 219.824v48h-103v-48h103m1-1h-105v50h105v-50z"/><text class="acc8b0a7-df4e-477f-954d-6a80bfcc3fff" transform="translate(291.104 247.147)">pmlogger 2</text><path class="bd9b3c4e-d424-43fb-87e4-89ada4a0186d" d="M260.824 243.824h-50.648"/><path class="e13fba09-24c6-4355-930d-03555caada1f" d="M259.365 238.837l8.635 4.987-8.635 4.986v-9.973zM211.635 238.837L203 243.824l8.635 4.986v-9.973z"/><path class="bd9b3c4e-d424-43fb-87e4-89ada4a0186d" d="M210.176 364.824H240.5v-40.823h20.324"/><path class="e13fba09-24c6-4355-930d-03555caada1f" d="M211.635 369.81L203 364.824l8.635-4.987v9.973zM259.365 328.987l8.635-4.986-8.635-4.987v9.973z"/><path class="bd9b3c4e-d424-43fb-87e4-89ada4a0186d" d="M210.176 122.824H240.5v41h20.324"/><path class="e13fba09-24c6-4355-930d-03555caada1f" d="M211.635 127.81L203 122.824l8.635-4.987v9.973zM259.365 168.81l8.635-4.986-8.635-4.987v9.973z"/><path class="bd9b3c4e-d424-43fb-87e4-89ada4a0186d" d="M578 436.828V278.496"/><path class="e13fba09-24c6-4355-930d-03555caada1f" d="M582.986 435.369L578 444.004l-4.987-8.635h9.973zM582.986 279.955L578 271.319l-4.987 8.636h9.973z"/><path class="bd9b3c4e-d424-43fb-87e4-89ada4a0186d" d="M406.621 243.824H375.5"/><path class="e13fba09-24c6-4355-930d-03555caada1f" d="M405.162 238.837l8.635 4.987-8.635 4.986v-9.973z"/><path class="bd9b3c4e-d424-43fb-87e4-89ada4a0186d" d="M515.877 243.824h-61.121"/><path class="e13fba09-24c6-4355-930d-03555caada1f" d="M514.418 238.837l8.635 4.987-8.635 4.986v-9.973z"/><path class="bd9b3c4e-d424-43fb-87e4-89ada4a0186d" d="M515.877 258.824h-16.121v65.177h-45.807"/><path class="e13fba09-24c6-4355-930d-03555caada1f" d="M514.418 253.837l8.635 4.987-8.635 4.986v-9.973z"/><path class="bd9b3c4e-d424-43fb-87e4-89ada4a0186d" d="M515.877 228.8h-16.121v-64.976h-45.807"/><path class="e13fba09-24c6-4355-930d-03555caada1f" d="M514.418 223.813l8.635 4.987-8.635 4.986v-9.973z"/><path class="b93a608d-b14a-4d60-bc81-ae7926812031" d="M271 299.501h104v49H271z"/><path class="baedb06c-472a-48af-9cc2-a8de143be716" d="M374.5 300v48h-103v-48h103m1-1h-105v50h105v-50z"/><text class="acc8b0a7-df4e-477f-954d-6a80bfcc3fff" transform="translate(290.882 327.324)">pmlogger 3</text><path class="bd9b3c4e-d424-43fb-87e4-89ada4a0186d" d="M406.621 324.001H375.5"/><path class="e13fba09-24c6-4355-930d-03555caada1f" d="M405.162 319.014l8.635 4.987-8.635 4.986v-9.973z"/><path class="b93a608d-b14a-4d60-bc81-ae7926812031" d="M271 139.323h104v49H271z"/><path class="baedb06c-472a-48af-9cc2-a8de143be716" d="M374.5 139.824v48h-103v-48h103m1-1h-105v50h105v-50z"/><text class="acc8b0a7-df4e-477f-954d-6a80bfcc3fff" transform="translate(292.472 167.148)">pmlogger 1</text><path class="bd9b3c4e-d424-43fb-87e4-89ada4a0186d" d="M406.621 163.824H375.5"/><path class="e13fba09-24c6-4355-930d-03555caada1f" d="M405.162 158.837l8.635 4.987-8.635 4.986v-9.973z"/><path class="b9ce1ccc-bf72-48ee-bbda-7da1502a146b" d="M.5 22v-1.5H2"/><path class="a26a8189-9d52-444e-9472-3835b2e09c54" d="M4.995 20.5h651.507"/><path class="b9ce1ccc-bf72-48ee-bbda-7da1502a146b" d="M658 20.5h1.5V22"/><path class="aa75651f-166e-45a9-9395-35601a4cf706" d="M659.5 25v400.5"/><path class="b9ce1ccc-bf72-48ee-bbda-7da1502a146b" d="M659.5 427v1.5H658"/><path class="a26a8189-9d52-444e-9472-3835b2e09c54" d="M655.005 428.5H3.498"/><path class="b9ce1ccc-bf72-48ee-bbda-7da1502a146b" d="M2 428.5H.5V427"/><path class="aa75651f-166e-45a9-9395-35601a4cf706" d="M.5 424V23.5"/><text class="b0cd7d86-2a1b-4ec1-bf9c-d954d7db84aa" transform="translate(15.5 45.604)">Site 1</text><path class="a5cb34b2-af20-494f-8f86-750feffefa33" d="M15.5 609h210v111h-210z"/><text class="bdd28fb6-4a7b-496d-8492-7f6b91bef04c" transform="translate(30.5 633.604)">Monitor host 1</text><path class="b93a608d-b14a-4d60-bc81-ae7926812031" d="M126 646.823h74v49h-74z"/><path class="baedb06c-472a-48af-9cc2-a8de143be716" d="M199.5 647.324v48h-73v-48h73m1-1h-75v50h75v-50z"/><text class="acc8b0a7-df4e-477f-954d-6a80bfcc3fff" transform="translate(144.796 674.648)">PMCD</text><path class="eeb33934-fdc9-45ee-b706-5f951ca44658" d="M40.5 706.324h75v-50"/><path class="eeb33934-fdc9-45ee-b706-5f951ca44658" d="M35.5 701.324h75v-50"/><path class="b93a608d-b14a-4d60-bc81-ae7926812031" d="M30.5 646.324h75v50h-75z"/><text class="acc8b0a7-df4e-477f-954d-6a80bfcc3fff" transform="translate(47.078 674.648)">PMDAs</text><path class="a5cb34b2-af20-494f-8f86-750feffefa33" d="M15.5 730h210v111h-210z"/><text class="bdd28fb6-4a7b-496d-8492-7f6b91bef04c" transform="translate(30.5 754.604)">Monitor host 2</text><path class="b93a608d-b14a-4d60-bc81-ae7926812031" d="M126 767.823h74v49h-74z"/><path class="baedb06c-472a-48af-9cc2-a8de143be716" d="M199.5 768.324v48h-73v-48h73m1-1h-75v50h75v-50z"/><text class="acc8b0a7-df4e-477f-954d-6a80bfcc3fff" transform="translate(144.796 793.824)">PMCD</text><path class="eeb33934-fdc9-45ee-b706-5f951ca44658" d="M40.5 827.324h75v-50"/><path class="eeb33934-fdc9-45ee-b706-5f951ca44658" d="M35.5 822.324h75v-50"/><path class="b93a608d-b14a-4d60-bc81-ae7926812031" d="M30.5 767.324h75v50h-75z"/><text class="acc8b0a7-df4e-477f-954d-6a80bfcc3fff" transform="translate(47.078 793.823)">PMDAs</text><path class="a5cb34b2-af20-494f-8f86-750feffefa33" d="M15.5 851h210v111h-210z"/><text class="bdd28fb6-4a7b-496d-8492-7f6b91bef04c" transform="translate(30.5 875.604)">Monitor host N</text><path class="b93a608d-b14a-4d60-bc81-ae7926812031" d="M126 888.823h74v49h-74z"/><path class="baedb06c-472a-48af-9cc2-a8de143be716" d="M199.5 889.324v48h-73v-48h73m1-1h-75v50h75v-50z"/><text class="acc8b0a7-df4e-477f-954d-6a80bfcc3fff" transform="translate(144.796 916.648)">PMCD</text><path class="eeb33934-fdc9-45ee-b706-5f951ca44658" d="M40.5 948.324h75v-50"/><path class="eeb33934-fdc9-45ee-b706-5f951ca44658" d="M35.5 943.324h75v-50"/><path class="b93a608d-b14a-4d60-bc81-ae7926812031" d="M30.5 888.324h75v50h-75z"/><text class="acc8b0a7-df4e-477f-954d-6a80bfcc3fff" transform="translate(47.078 916.648)">PMDAs</text><path class="a5cb34b2-af20-494f-8f86-750feffefa33" d="M255.5 609h390v353h-390z"/><text class="bdd28fb6-4a7b-496d-8492-7f6b91bef04c" transform="translate(270.5 633.604)">pmlogger host</text><g><path class="b93a608d-b14a-4d60-bc81-ae7926812031" d="M526 767.823h104v49H526z"/><path class="baedb06c-472a-48af-9cc2-a8de143be716" d="M629.5 768.324v48h-103v-48h103m1-1h-105v50h105v-50z"/></g><text class="acc8b0a7-df4e-477f-954d-6a80bfcc3fff" transform="translate(553.04 795.648)">pmproxy</text><g><path class="b93a608d-b14a-4d60-bc81-ae7926812031" d="M271 767.823h104v49H271z"/><path class="baedb06c-472a-48af-9cc2-a8de143be716" d="M374.5 768.324v48h-103v-48h103m1-1h-105v50h105v-50z"/></g><text class="acc8b0a7-df4e-477f-954d-6a80bfcc3fff" transform="translate(291.104 795.648)">pmlogger 2</text><g><path class="bd9b3c4e-d424-43fb-87e4-89ada4a0186d" d="M260.824 792.324h-50.648"/><path class="e13fba09-24c6-4355-930d-03555caada1f" d="M259.365 787.337l8.635 4.987-8.635 4.986v-9.973zM211.635 787.337L203 792.324l8.635 4.986v-9.973z"/></g><g><path class="bd9b3c4e-d424-43fb-87e4-89ada4a0186d" d="M210.176 913.324H240.5v-40.823h20.324"/><path class="e13fba09-24c6-4355-930d-03555caada1f" d="M211.635 918.31L203 913.324l8.635-4.987v9.973zM259.365 877.487l8.635-4.986-8.635-4.987v9.973z"/></g><g><path class="bd9b3c4e-d424-43fb-87e4-89ada4a0186d" d="M210.176 671.324H240.5v41h20.324"/><path class="e13fba09-24c6-4355-930d-03555caada1f" d="M211.635 676.31L203 671.324l8.635-4.987v9.973zM259.365 717.31l8.635-4.986-8.635-4.987v9.973z"/></g><g><path class="bd9b3c4e-d424-43fb-87e4-89ada4a0186d" d="M406.621 792.324H375.5"/><path class="e13fba09-24c6-4355-930d-03555caada1f" d="M405.162 787.337l8.635 4.987-8.635 4.986v-9.973z"/></g><g><path class="bd9b3c4e-d424-43fb-87e4-89ada4a0186d" d="M515.877 792.324h-61.121"/><path class="e13fba09-24c6-4355-930d-03555caada1f" d="M514.418 787.337l8.635 4.987-8.635 4.986v-9.973z"/></g><g><path class="bd9b3c4e-d424-43fb-87e4-89ada4a0186d" d="M515.877 807.324h-16.121v65.177h-45.807"/><path class="e13fba09-24c6-4355-930d-03555caada1f" d="M514.418 802.337l8.635 4.987-8.635 4.986v-9.973z"/></g><g><path class="bd9b3c4e-d424-43fb-87e4-89ada4a0186d" d="M515.877 777.3h-16.121v-64.976h-45.807"/><path class="e13fba09-24c6-4355-930d-03555caada1f" d="M514.418 772.313l8.635 4.987-8.635 4.986v-9.973z"/></g><g><path class="b93a608d-b14a-4d60-bc81-ae7926812031" d="M271 848.001h104v49H271z"/><path class="baedb06c-472a-48af-9cc2-a8de143be716" d="M374.5 848.5v48h-103v-48h103m1-1h-105v50h105v-50z"/></g><text class="acc8b0a7-df4e-477f-954d-6a80bfcc3fff" transform="translate(290.882 875.825)">pmlogger 3</text><g><path class="bd9b3c4e-d424-43fb-87e4-89ada4a0186d" d="M406.621 872.501H375.5"/><path class="e13fba09-24c6-4355-930d-03555caada1f" d="M405.162 867.514l8.635 4.987-8.635 4.986v-9.973z"/></g><g><path class="b93a608d-b14a-4d60-bc81-ae7926812031" d="M271 687.823h104v49H271z"/><path class="baedb06c-472a-48af-9cc2-a8de143be716" d="M374.5 688.324v48h-103v-48h103m1-1h-105v50h105v-50z"/></g><text class="acc8b0a7-df4e-477f-954d-6a80bfcc3fff" transform="translate(292.472 715.648)">pmlogger 1</text><g><path class="bd9b3c4e-d424-43fb-87e4-89ada4a0186d" d="M406.621 712.324H375.5"/><path class="e13fba09-24c6-4355-930d-03555caada1f" d="M405.162 707.337l8.635 4.987-8.635 4.986v-9.973z"/></g><g><path class="b9ce1ccc-bf72-48ee-bbda-7da1502a146b" d="M.5 570.5V569H2"/><path class="a26a8189-9d52-444e-9472-3835b2e09c54" d="M4.995 569h651.507"/><path class="b9ce1ccc-bf72-48ee-bbda-7da1502a146b" d="M658 569h1.5v1.5"/><path class="aa75651f-166e-45a9-9395-35601a4cf706" d="M659.5 573.5V974"/><path class="b9ce1ccc-bf72-48ee-bbda-7da1502a146b" d="M659.5 975.5v1.5H658"/><path class="a26a8189-9d52-444e-9472-3835b2e09c54" d="M655.005 977H3.498"/><path class="b9ce1ccc-bf72-48ee-bbda-7da1502a146b" d="M2 977H.5v-1.5"/><path class="aa75651f-166e-45a9-9395-35601a4cf706" d="M.5 972.5V572"/></g><text class="b0cd7d86-2a1b-4ec1-bf9c-d954d7db84aa" transform="translate(15.5 594.104)">Site 2</text><g><path class="bd9b3c4e-d424-43fb-87e4-89ada4a0186d" d="M578 757.648V561.176"/><path class="e13fba09-24c6-4355-930d-03555caada1f" d="M582.986 756.189L578 764.824l-4.987-8.635h9.973zM582.986 562.635L578 554l-4.987 8.635h9.973z"/></g><g><text transform="translate(689.581 977.695)" font-size="10" fill="#ececec" font-family="RedHatText,&quot;Red Hat Text&quot;,Overpass,&quot;Helvetica Neue&quot;,Arial,sans-serif">173_RHEL_0721</text><path fill="none" d="M0 954.677h760v40H0z"/></g><path fill="#d9e8f7" d="M525.5 446.5h105v105h-105z"/><g><text class="fa063709-c141-4aa3-a3d4-10a025422abb" transform="translate(563.777 513.35)">Redis<tspan x="-7.529" y="12">instance</tspan></text><path class="b3cac46e-3801-40ef-97de-f0c5741d94dd" d="M593.06 483.5a13.4 13.4 0 00-25.034-6.5 10.229 10.229 0 00-1.726-.157 9.968 9.968 0 100 19.935h26.76a6.636 6.636 0 100-13.271z"/></g><g><path class="b3cac46e-3801-40ef-97de-f0c5741d94dd" d="M435.5 144.808c-10.189 0-18.449 4.064-18.449 9.693v16.942c0 5.629 8.26 10.192 18.449 10.192s18.449-4.563 18.449-10.192V154.5c0-5.628-8.26-9.692-18.449-9.692z"/><path class="b3cac46e-3801-40ef-97de-f0c5741d94dd" d="M453.949 165.751c0 5.629-8.26 10.192-18.449 10.192s-18.449-4.563-18.449-10.192"/><path class="b3cac46e-3801-40ef-97de-f0c5741d94dd" d="M453.949 160c0 5.629-8.26 10.192-18.449 10.192S417.051 165.63 417.051 160"/><path class="b3cac46e-3801-40ef-97de-f0c5741d94dd" d="M453.949 154.5c0 5.629-8.26 10.192-18.449 10.192s-18.449-4.563-18.449-10.192 8.26-9.693 18.449-9.693 18.449 4.064 18.449 9.693z"/><text class="fa063709-c141-4aa3-a3d4-10a025422abb" transform="translate(391.654 198.273)">PCP archive log 1</text></g><g><path class="b3cac46e-3801-40ef-97de-f0c5741d94dd" d="M435.5 224.808c-10.189 0-18.449 4.064-18.449 9.693v16.942c0 5.629 8.26 10.192 18.449 10.192s18.449-4.563 18.449-10.192V234.5c0-5.628-8.26-9.692-18.449-9.692z"/><path class="b3cac46e-3801-40ef-97de-f0c5741d94dd" d="M453.949 245.751c0 5.629-8.26 10.192-18.449 10.192s-18.449-4.563-18.449-10.192"/><path class="b3cac46e-3801-40ef-97de-f0c5741d94dd" d="M453.949 240c0 5.629-8.26 10.192-18.449 10.192S417.051 245.63 417.051 240"/><path class="b3cac46e-3801-40ef-97de-f0c5741d94dd" d="M453.949 234.5c0 5.629-8.26 10.192-18.449 10.192s-18.449-4.563-18.449-10.192 8.26-9.693 18.449-9.693 18.449 4.065 18.449 9.693z"/><text class="fa063709-c141-4aa3-a3d4-10a025422abb" transform="translate(390.401 278.274)">PCP archive log 2</text></g><g><path class="b3cac46e-3801-40ef-97de-f0c5741d94dd" d="M435.5 304.808c-10.19 0-18.45 4.064-18.45 9.693v16.942c0 5.629 8.26 10.192 18.45 10.192s18.449-4.563 18.449-10.192V314.5c.001-5.628-8.259-9.692-18.449-9.692z"/><path class="b3cac46e-3801-40ef-97de-f0c5741d94dd" d="M453.95 325.751c0 5.629-8.26 10.192-18.449 10.192s-18.45-4.563-18.45-10.192"/><path class="b3cac46e-3801-40ef-97de-f0c5741d94dd" d="M453.95 320c0 5.629-8.26 10.192-18.449 10.192s-18.45-4.563-18.45-10.192"/><path class="b3cac46e-3801-40ef-97de-f0c5741d94dd" d="M453.95 314.5c0 5.629-8.26 10.192-18.449 10.192s-18.45-4.563-18.45-10.192 8.26-9.693 18.45-9.693 18.449 4.065 18.449 9.693z"/><text class="fa063709-c141-4aa3-a3d4-10a025422abb" transform="translate(390.197 358.274)">PCP archive log 3</text></g><g><path class="b3cac46e-3801-40ef-97de-f0c5741d94dd" d="M435.5 693.308c-10.189 0-18.449 4.063-18.449 9.692v16.943c0 5.629 8.26 10.192 18.449 10.192s18.449-4.563 18.449-10.192V703c-.001-5.629-8.261-9.692-18.449-9.692z"/><path class="b3cac46e-3801-40ef-97de-f0c5741d94dd" d="M453.948 714.251c0 5.629-8.259 10.192-18.449 10.192s-18.449-4.563-18.449-10.192"/><path class="b3cac46e-3801-40ef-97de-f0c5741d94dd" d="M453.948 708.5c0 5.629-8.259 10.192-18.449 10.192S417.05 714.13 417.05 708.5"/><path class="b3cac46e-3801-40ef-97de-f0c5741d94dd" d="M453.948 703c0 5.63-8.259 10.193-18.449 10.193S417.05 708.63 417.05 703s8.26-9.692 18.449-9.692 18.449 4.063 18.449 9.692z"/><text class="fa063709-c141-4aa3-a3d4-10a025422abb" transform="translate(391.654 746.773)">PCP archive log 1</text></g><g><path class="b3cac46e-3801-40ef-97de-f0c5741d94dd" d="M435.5 773.308c-10.189 0-18.449 4.063-18.449 9.693v16.942c0 5.629 8.26 10.192 18.449 10.192s18.449-4.563 18.449-10.192V783c-.001-5.629-8.261-9.692-18.449-9.692z"/><path class="b3cac46e-3801-40ef-97de-f0c5741d94dd" d="M453.948 794.251c0 5.629-8.259 10.192-18.449 10.192s-18.449-4.563-18.449-10.192"/><path class="b3cac46e-3801-40ef-97de-f0c5741d94dd" d="M453.948 788.5c0 5.629-8.259 10.192-18.449 10.192S417.05 794.13 417.05 788.5"/><path class="b3cac46e-3801-40ef-97de-f0c5741d94dd" d="M453.948 783c0 5.629-8.259 10.192-18.449 10.192S417.05 788.63 417.05 783s8.26-9.693 18.449-9.693 18.449 4.064 18.449 9.693z"/><text class="fa063709-c141-4aa3-a3d4-10a025422abb" transform="translate(390.4 826.774)">PCP archive log 2</text></g><g><path class="b3cac46e-3801-40ef-97de-f0c5741d94dd" d="M435.5 853.308c-10.189 0-18.449 4.064-18.449 9.693v16.942c0 5.629 8.26 10.192 18.449 10.192s18.449-4.563 18.449-10.192V863c0-5.628-8.26-9.692-18.449-9.692z"/><path class="b3cac46e-3801-40ef-97de-f0c5741d94dd" d="M453.949 874.251c0 5.629-8.26 10.192-18.449 10.192s-18.449-4.563-18.449-10.192"/><path class="b3cac46e-3801-40ef-97de-f0c5741d94dd" d="M453.949 868.5c0 5.629-8.26 10.192-18.449 10.192s-18.449-4.563-18.449-10.192"/><path class="b3cac46e-3801-40ef-97de-f0c5741d94dd" d="M453.949 863c0 5.629-8.26 10.192-18.449 10.192S417.051 868.63 417.051 863s8.26-9.693 18.449-9.693 18.449 4.065 18.449 9.693z"/><text class="fa063709-c141-4aa3-a3d4-10a025422abb" transform="translate(390.197 906.774)">PCP archive log 3</text></g></svg>