<svg id="b528c868-65e2-4a3c-916e-663753b25709" data-name="artwork" xmlns="http://www.w3.org/2000/svg" width="760" height="905" viewBox="0 0 760 905">
  <defs>
    <style>
      .a25793e9-30a4-40d0-8852-0a50af4c0199 {
        fill: #e8e8e8;
      }

      .a8a4c98e-ece1-4582-b284-f8cd6b426fdc, .b9e782a9-2ace-4c4a-a9e7-bb2ac3d557a2, .e3caec7b-947f-4e1d-b0c6-491333ec5fa3 {
        font-size: 12px;
      }

      .e3caec7b-947f-4e1d-b0c6-491333ec5fa3 {
        fill: #262626;
        font-family: RedHatText-Bold, Red Hat Text;
        font-weight: 700;
      }

      .b0bb67c4-af28-467d-9fdc-c8ae61ce1fda {
        letter-spacing: -0.01em;
      }

      .b949b086-eacb-4f95-be8c-a6b12508b56a {
        letter-spacing: -0.015em;
      }

      .abdb970c-499e-4491-ad66-bd4e46573b7d {
        letter-spacing: 0em;
      }

      .a4479865-4b82-4b89-b5f8-aff47b75f628 {
        letter-spacing: 0.01em;
      }

      .b9e782a9-2ace-4c4a-a9e7-bb2ac3d557a2, .e52d213e-6a2d-44f9-8a8e-3fd107518d00 {
        fill: #fff;
      }

      .a8a4c98e-ece1-4582-b284-f8cd6b426fdc, .b0f1cbbf-a03e-46fe-8904-42e26be11174, .f682e991-80ad-4f0e-b324-4f973716cdb9 {
        fill: #151515;
      }

      .a8a4c98e-ece1-4582-b284-f8cd6b426fdc, .b0f1cbbf-a03e-46fe-8904-42e26be11174, .b9e782a9-2ace-4c4a-a9e7-bb2ac3d557a2 {
        font-family: RedHatText-Medium, Red Hat Text;
        font-weight: 500;
      }

      .a085d661-2886-44a4-9d54-d528a5ec1430, .b117d354-1eab-497a-bb31-7c6823a0c8bb, .b7bdda94-43de-460d-8cbb-bdc8c190ea9a, .ba70c45b-7e6a-4db5-9281-f0285b49b019, .e6ae8e50-de90-495d-8d1e-28376d9f04ff, .f2443fc6-2379-46df-b58b-885c2f0de084 {
        fill: none;
      }

      .a085d661-2886-44a4-9d54-d528a5ec1430 {
        stroke: #151515;
        stroke-miterlimit: 10;
      }

      .a5eed8bc-7671-405d-aa4f-44aaacf50c14 {
        letter-spacing: -0.015em;
      }

      .b5092077-ebc1-45e5-be8b-76ef606b6c37 {
        letter-spacing: 0.005em;
      }

      .bc4850e3-70bf-4ba8-807c-084a9be00d38 {
        letter-spacing: -0.01em;
      }

      .e899edd8-01e2-4ec5-828d-2f1a28a53f86 {
        letter-spacing: 0.005em;
      }

      .efe2647c-43ff-473f-a2ef-02c0b0ce5f6a {
        letter-spacing: 0em;
      }

      .b00c35db-8f1f-452d-abf6-1e3d9e84fdaa {
        letter-spacing: 0.01em;
      }

      .b117d354-1eab-497a-bb31-7c6823a0c8bb, .b7bdda94-43de-460d-8cbb-bdc8c190ea9a, .ba70c45b-7e6a-4db5-9281-f0285b49b019, .f2443fc6-2379-46df-b58b-885c2f0de084 {
        stroke: #06c;
        stroke-linecap: round;
        stroke-linejoin: round;
      }

      .f2443fc6-2379-46df-b58b-885c2f0de084 {
        stroke-dasharray: 3.8 3.8;
      }

      .b117d354-1eab-497a-bb31-7c6823a0c8bb {
        stroke-dasharray: 3.435 3.435;
      }

      .ba70c45b-7e6a-4db5-9281-f0285b49b019 {
        stroke-dasharray: 2.963 2.963;
      }

      .eebd193e-8b55-43ec-8259-2b6b78cef4b9 {
        fill: #06c;
      }

      .b0f1cbbf-a03e-46fe-8904-42e26be11174 {
        font-size: 11px;
      }

      .b2869017-8023-45c4-8232-2318dbd3a12e {
        fill: #e1e1e1;
      }

      .f58487da-1973-45a8-8682-8ceaff6ecd88 {
        font-size: 10px;
        fill: #ececec;
        font-family: RedHatText-Regular, Red Hat Text;
      }
    </style>
  </defs>
  <g>
    <rect class="a25793e9-30a4-40d0-8852-0a50af4c0199" x="117.5" y="790" width="642.5" height="75"/>
    <text class="e3caec7b-947f-4e1d-b0c6-491333ec5fa3" transform="translate(137.5 820.104)"><tspan class="b0bb67c4-af28-467d-9fdc-c8ae61ce1fda">P</tspan><tspan x="8.4" y="0">ublish the</tspan><tspan class="b949b086-eacb-4f95-be8c-a6b12508b56a" x="0" y="13">c</tspan><tspan class="abdb970c-499e-4491-ad66-bd4e46573b7d" x="6.288" y="13">e</tspan><tspan class="a4479865-4b82-4b89-b5f8-aff47b75f628" x="13.392" y="13">r</tspan><tspan x="18.815" y="13">tific</tspan><tspan class="b949b086-eacb-4f95-be8c-a6b12508b56a" x="43.211" y="13">a</tspan><tspan x="49.979" y="13">tion</tspan></text>
    <g>
      <rect class="e52d213e-6a2d-44f9-8a8e-3fd107518d00" x="265" y="810" width="475" height="35"/>
      <text class="a8a4c98e-ece1-4582-b284-f8cd6b426fdc" transform="translate(370.215 832.047)">Certification appears in the Ecosystem Catalog</text>
    </g>
  </g>
  <rect class="a25793e9-30a4-40d0-8852-0a50af4c0199" x="117.5" y="20" width="642.5" height="200"/>
  <g>
    <line class="a085d661-2886-44a4-9d54-d528a5ec1430" x1="502.5" y1="145" x2="502.5" y2="155.324"/>
    <polygon class="f682e991-80ad-4f0e-b324-4f973716cdb9" points="497.514 153.865 502.5 162.5 507.486 153.865 497.514 153.865"/>
  </g>
  <g>
    <line class="a085d661-2886-44a4-9d54-d528a5ec1430" x1="502.5" y1="220" x2="502.5" y2="230.324"/>
    <polygon class="f682e991-80ad-4f0e-b324-4f973716cdb9" points="497.514 228.865 502.5 237.5 507.486 228.865 497.514 228.865"/>
  </g>
  <g>
    <line class="a085d661-2886-44a4-9d54-d528a5ec1430" x1="502.5" y1="75" x2="502.5" y2="85.324"/>
    <polygon class="f682e991-80ad-4f0e-b324-4f973716cdb9" points="497.514 83.865 502.5 92.5 507.486 83.865 497.514 83.865"/>
  </g>
  <rect class="e52d213e-6a2d-44f9-8a8e-3fd107518d00" x="265" y="40" width="475" height="35"/>
  <text class="a8a4c98e-ece1-4582-b284-f8cd6b426fdc" transform="translate(356.595 61.5)">Register as Technology partner on Red Hat Connect</text>
  <rect class="e52d213e-6a2d-44f9-8a8e-3fd107518d00" x="265" y="95" width="475" height="50"/>
  <text class="a8a4c98e-ece1-4582-b284-f8cd6b426fdc" transform="translate(396.086 116.824)">Create project in Red Hat Connect for<tspan x="-54.179" y="13">Technology partners requesting certification permissions</tspan></text>
  <rect class="e52d213e-6a2d-44f9-8a8e-3fd107518d00" x="265" y="165" width="475" height="35"/>
  <text class="a8a4c98e-ece1-4582-b284-f8cd6b426fdc" transform="translate(341.984 186.5)">Approves SSO account and grants certification privileges</text>
  <text class="e3caec7b-947f-4e1d-b0c6-491333ec5fa3" transform="translate(137.5 50.104)">P<tspan class="a5eed8bc-7671-405d-aa4f-44aaacf50c14" x="8.52" y="0">r</tspan><tspan class="b5092077-ebc1-45e5-be8b-76ef606b6c37" x="13.644" y="0">o</tspan><tspan x="21.131" y="0">g</tspan><tspan class="bc4850e3-70bf-4ba8-807c-084a9be00d38" x="28.835" y="0">r</tspan><tspan x="34.02" y="0">am</tspan><tspan x="0" y="13">and p</tspan><tspan class="b949b086-eacb-4f95-be8c-a6b12508b56a" x="32.388" y="13">r</tspan><tspan class="e899edd8-01e2-4ec5-828d-2f1a28a53f86" x="37.512" y="13">o</tspan><tspan class="efe2647c-43ff-473f-a2ef-02c0b0ce5f6a" x="44.999" y="13">du</tspan><tspan class="a4479865-4b82-4b89-b5f8-aff47b75f628" x="60.131" y="13">c</tspan><tspan x="66.719" y="13">t</tspan><tspan class="b949b086-eacb-4f95-be8c-a6b12508b56a" x="0" y="26">r</tspan><tspan class="e899edd8-01e2-4ec5-828d-2f1a28a53f86" x="5.124" y="26">e</tspan><tspan x="12.288" y="26">qui</tspan><tspan class="a5eed8bc-7671-405d-aa4f-44aaacf50c14" x="30.875" y="26">r</tspan><tspan x="35.999" y="26">eme</tspan><tspan class="a5eed8bc-7671-405d-aa4f-44aaacf50c14" x="61.163" y="26">n</tspan><tspan class="b00c35db-8f1f-452d-abf6-1e3d9e84fdaa" x="68.399" y="26">t</tspan><tspan x="74.015" y="26">s</tspan></text>
  <rect class="a25793e9-30a4-40d0-8852-0a50af4c0199" x="117.5" y="240" width="642.5" height="530"/>
  <line class="a085d661-2886-44a4-9d54-d528a5ec1430" x1="502.5" y1="295" x2="502.5" y2="310"/>
  <g>
    <polyline class="a085d661-2886-44a4-9d54-d528a5ec1430" points="375 320.324 375 310 630 310 630 320.324"/>
    <polygon class="f682e991-80ad-4f0e-b324-4f973716cdb9" points="379.986 318.865 375 327.5 370.014 318.865 379.986 318.865"/>
    <polygon class="f682e991-80ad-4f0e-b324-4f973716cdb9" points="625.014 318.865 630 327.5 634.986 318.865 625.014 318.865"/>
  </g>
  <rect class="e52d213e-6a2d-44f9-8a8e-3fd107518d00" x="265" y="260" width="475" height="35"/>
  <text class="a8a4c98e-ece1-4582-b284-f8cd6b426fdc" transform="translate(347.019 281.5)">Prepare test environment and install required packages</text>
  <g>
    <line class="a085d661-2886-44a4-9d54-d528a5ec1430" x1="502.5" y1="640" x2="502.5" y2="650.324"/>
    <polygon class="f682e991-80ad-4f0e-b324-4f973716cdb9" points="497.514 648.865 502.5 657.5 507.486 648.865 497.514 648.865"/>
  </g>
  <g>
    <line class="a085d661-2886-44a4-9d54-d528a5ec1430" x1="502.5" y1="585" x2="502.5" y2="595.324"/>
    <polygon class="f682e991-80ad-4f0e-b324-4f973716cdb9" points="497.514 593.865 502.5 602.5 507.486 593.865 497.514 593.865"/>
  </g>
  <rect class="e52d213e-6a2d-44f9-8a8e-3fd107518d00" x="265" y="550" width="475" height="35"/>
  <text class="a8a4c98e-ece1-4582-b284-f8cd6b426fdc" transform="translate(388.172 572.047)">Run new OpenShift IPI certification tests</text>
  <rect class="e52d213e-6a2d-44f9-8a8e-3fd107518d00" x="265" y="605" width="475" height="35"/>
  <text class="a8a4c98e-ece1-4582-b284-f8cd6b426fdc" transform="translate(438.493 627.047)">Submit the test results</text>
  <g>
    <line class="a085d661-2886-44a4-9d54-d528a5ec1430" x1="502.5" y1="695" x2="502.5" y2="705.324"/>
    <polygon class="f682e991-80ad-4f0e-b324-4f973716cdb9" points="497.514 703.865 502.5 712.5 507.486 703.865 497.514 703.865"/>
  </g>
  <g>
    <line class="b7bdda94-43de-460d-8cbb-bdc8c190ea9a" x1="265.435" y1="677.5" x2="263.685" y2="677.5"/>
    <line class="f2443fc6-2379-46df-b58b-885c2f0de084" x1="259.885" y1="677.5" x2="246.585" y2="677.5"/>
    <polyline class="b7bdda94-43de-460d-8cbb-bdc8c190ea9a" points="244.685 677.5 242.935 677.5 242.935 675.75"/>
    <line class="b117d354-1eab-497a-bb31-7c6823a0c8bb" x1="242.935" y1="672.315" x2="242.935" y2="570.968"/>
    <polyline class="b7bdda94-43de-460d-8cbb-bdc8c190ea9a" points="242.935 569.25 242.935 567.5 244.685 567.5"/>
    <line class="ba70c45b-7e6a-4db5-9281-f0285b49b019" x1="247.648" y1="567.5" x2="252.092" y2="567.5"/>
    <line class="b7bdda94-43de-460d-8cbb-bdc8c190ea9a" x1="253.574" y1="567.5" x2="255.324" y2="567.5"/>
    <polygon class="eebd193e-8b55-43ec-8259-2b6b78cef4b9" points="253.865 572.486 262.5 567.5 253.865 562.514 253.865 572.486"/>
  </g>
  <g>
    <rect class="e52d213e-6a2d-44f9-8a8e-3fd107518d00" x="265.5" y="660.5" width="474" height="34"/>
    <path class="eebd193e-8b55-43ec-8259-2b6b78cef4b9" d="M739,661v33H266V661H739m1-1H265v35H740V660Z"/>
  </g>
  <text class="a8a4c98e-ece1-4582-b284-f8cd6b426fdc" transform="translate(438.631 682.047)">Review the test results</text>
  <rect class="eebd193e-8b55-43ec-8259-2b6b78cef4b9" x="265" y="715" width="475" height="35"/>
  <text class="b9e782a9-2ace-4c4a-a9e7-bb2ac3d557a2" transform="translate(477.294 737.047)">Certified</text>
  <g>
    <line class="a085d661-2886-44a4-9d54-d528a5ec1430" x1="502.5" y1="475" x2="502.5" y2="485.324"/>
    <polygon class="f682e991-80ad-4f0e-b324-4f973716cdb9" points="497.514 483.865 502.5 492.5 507.486 483.865 497.514 483.865"/>
  </g>
  <rect class="e52d213e-6a2d-44f9-8a8e-3fd107518d00" x="265" y="440" width="475" height="35"/>
  <text class="a8a4c98e-ece1-4582-b284-f8cd6b426fdc" transform="translate(386.96 462.047)">Create new OpenShift layered certificate</text>
  <g>
    <line class="a085d661-2886-44a4-9d54-d528a5ec1430" x1="502.5" y1="530" x2="502.5" y2="540.324"/>
    <polygon class="f682e991-80ad-4f0e-b324-4f973716cdb9" points="497.514 538.865 502.5 547.5 507.486 538.865 497.514 538.865"/>
  </g>
  <rect class="e52d213e-6a2d-44f9-8a8e-3fd107518d00" x="265" y="495" width="475" height="35"/>
  <text class="a8a4c98e-ece1-4582-b284-f8cd6b426fdc" transform="translate(361.01 517.047)">Create new OpenShift IPI supplemental certificate</text>
  <rect class="e52d213e-6a2d-44f9-8a8e-3fd107518d00" x="265" y="330" width="220" height="35"/>
  <text class="a8a4c98e-ece1-4582-b284-f8cd6b426fdc" transform="translate(303.331 351.5)">Existing certified product</text>
  <g>
    <line class="a085d661-2886-44a4-9d54-d528a5ec1430" x1="630" y1="365" x2="630" y2="375.324"/>
    <polygon class="f682e991-80ad-4f0e-b324-4f973716cdb9" points="625.014 373.865 630 382.5 634.986 373.865 625.014 373.865"/>
  </g>
  <g>
    <line class="a085d661-2886-44a4-9d54-d528a5ec1430" x1="375" y1="365" x2="375" y2="430.324"/>
    <polygon class="f682e991-80ad-4f0e-b324-4f973716cdb9" points="370.014 428.865 375 437.5 379.986 428.865 370.014 428.865"/>
  </g>
  <rect class="e52d213e-6a2d-44f9-8a8e-3fd107518d00" x="520" y="330" width="220" height="35"/>
  <text class="a8a4c98e-ece1-4582-b284-f8cd6b426fdc" transform="translate(593.839 351.5)">New product</text>
  <g>
    <line class="a085d661-2886-44a4-9d54-d528a5ec1430" x1="630" y1="420" x2="630" y2="430.324"/>
    <polygon class="f682e991-80ad-4f0e-b324-4f973716cdb9" points="625.014 428.865 630 437.5 634.986 428.865 625.014 428.865"/>
  </g>
  <rect class="e52d213e-6a2d-44f9-8a8e-3fd107518d00" x="520" y="385" width="220" height="35"/>
  <text class="a8a4c98e-ece1-4582-b284-f8cd6b426fdc" transform="translate(549.871 406.5)">Create new RHEL certificate</text>
  <text class="e3caec7b-947f-4e1d-b0c6-491333ec5fa3" transform="translate(137.5 270.104)"><tspan class="b949b086-eacb-4f95-be8c-a6b12508b56a">C</tspan><tspan x="8.46" y="0">e</tspan><tspan class="b00c35db-8f1f-452d-abf6-1e3d9e84fdaa" x="15.564" y="0">r</tspan><tspan x="20.987" y="0">tific</tspan><tspan class="b949b086-eacb-4f95-be8c-a6b12508b56a" x="45.383" y="0">a</tspan><tspan x="52.151" y="0">tion</tspan><tspan class="b0bb67c4-af28-467d-9fdc-c8ae61ce1fda" x="0" y="13">w</tspan><tspan x="9.276" y="13">or</tspan><tspan class="b0bb67c4-af28-467d-9fdc-c8ae61ce1fda" x="22.008" y="13">k</tspan><tspan class="abdb970c-499e-4491-ad66-bd4e46573b7d" x="29.136" y="13">fl</tspan><tspan class="bc4850e3-70bf-4ba8-807c-084a9be00d38" x="38.111" y="13">o</tspan><tspan x="45.419" y="13">w</tspan></text>
  <g>
    <line class="a085d661-2886-44a4-9d54-d528a5ec1430" x1="502.5" y1="770" x2="502.5" y2="780.324"/>
    <polygon class="f682e991-80ad-4f0e-b324-4f973716cdb9" points="497.514 778.865 502.5 787.5 507.486 778.865 497.514 778.865"/>
  </g>
  <g>
    <g>
      <text class="b0f1cbbf-a03e-46fe-8904-42e26be11174" transform="translate(22.761 106.899)">Partners</text>
      <path class="b2869017-8023-45c4-8232-2318dbd3a12e" d="M16,97v14H2V97H16m2-2H0v18H18V95Z"/>
    </g>
    <g>
      <text class="b0f1cbbf-a03e-46fe-8904-42e26be11174" transform="translate(22.761 133.399)">Red Hat</text>
      <g>
        <rect class="e52d213e-6a2d-44f9-8a8e-3fd107518d00" x="0.5" y="122" width="17" height="17"/>
        <path class="eebd193e-8b55-43ec-8259-2b6b78cef4b9" d="M17,122.5v16H1v-16H17m1-1H0v18H18v-18Z"/>
      </g>
    </g>
  </g>
  <g>
    <text class="f58487da-1973-45a8-8682-8ceaff6ecd88" transform="translate(664.342 888.017)">185_OpenStack_0921</text>
    <rect class="e6ae8e50-de90-495d-8d1e-28376d9f04ff" y="865" width="760" height="40"/>
  </g>
</svg>
