<svg id="f1c4f1d2-d61a-4519-80f9-d02e5ef880ee" data-name="artwork" xmlns="http://www.w3.org/2000/svg" width="760" height="905" viewBox="0 0 760 905">
  <defs>
    <style>
      .ac7dfc02-6690-4e39-8e66-7cff60afbf2e {
        fill: #e8e8e8;
      }

      .a886a975-4b6f-4ce0-a9ad-c2d8c2ac2e4e, .bba356eb-0b8e-4106-90d4-912448ce0e9c, .ed087a7a-ecec-4bd8-ab61-5b65f521b439, .ed944ead-b1f6-4d1c-849a-7a511c3868a4, .f01a5f01-aa43-4617-b836-8bcecc783c19, .fa3beb7d-3c72-4f3b-9aa8-e55e9025b7e2 {
        fill: none;
      }

      .a886a975-4b6f-4ce0-a9ad-c2d8c2ac2e4e {
        stroke: #151515;
        stroke-miterlimit: 10;
      }

      .a2be7d9d-51f5-4831-a6e7-e2c23673d851, .b33e4558-6f90-46bb-a212-28831a38cce4, .b76c638d-c599-40bc-bea7-c0284e212031 {
        fill: #151515;
      }

      .e4572c7a-f78e-4e73-a8da-ac3cf8585f8c, .e53db772-3bbb-4aa9-9ae0-69612b3f13f8 {
        fill: #fff;
      }

      .a2be7d9d-51f5-4831-a6e7-e2c23673d851, .a89fbac4-5e99-4110-ae29-89ea18b6ed94, .e4572c7a-f78e-4e73-a8da-ac3cf8585f8c {
        font-size: 12px;
      }

      .a2be7d9d-51f5-4831-a6e7-e2c23673d851, .b76c638d-c599-40bc-bea7-c0284e212031, .e4572c7a-f78e-4e73-a8da-ac3cf8585f8c {
        font-family: RedHatText-Medium, Red Hat Text;
        font-weight: 500;
      }

      .a89fbac4-5e99-4110-ae29-89ea18b6ed94 {
        fill: #262626;
        font-family: RedHatText-Bold, Red Hat Text;
        font-weight: 700;
      }

      .afeab615-75bb-46f2-ae0a-8449c590b2f6 {
        letter-spacing: -0.015em;
      }

      .b0ffd7ac-7f13-41ef-ac27-093d41c30ba3 {
        letter-spacing: 0.005em;
      }

      .b00e4bb9-23df-421e-b8ff-e7c6debbd8f8 {
        letter-spacing: -0.01em;
      }

      .a1a1c28e-2afc-4007-8d6d-7695efd6adb8 {
        letter-spacing: -0.015em;
      }

      .bf86e0ae-c651-43dd-905f-3786d5cd92bc {
        letter-spacing: 0.005em;
      }

      .a8c24d02-7239-43ac-bfe9-17297c9ac236 {
        letter-spacing: 0em;
      }

      .a302006e-de1c-42f9-9e33-4001a4db3960 {
        letter-spacing: 0.01em;
      }

      .bcef9e5f-9f95-4271-abf8-f959a826aa4c {
        letter-spacing: 0.01em;
      }

      .bf641969-8845-4349-a432-609d6cebc005 {
        letter-spacing: -0.01em;
      }

      .ac998915-dd4c-496f-87b9-0ede9c3d85b2 {
        letter-spacing: 0em;
      }

      .bba356eb-0b8e-4106-90d4-912448ce0e9c, .ed944ead-b1f6-4d1c-849a-7a511c3868a4, .f01a5f01-aa43-4617-b836-8bcecc783c19, .fa3beb7d-3c72-4f3b-9aa8-e55e9025b7e2 {
        stroke: #06c;
        stroke-linecap: round;
        stroke-linejoin: round;
      }

      .bba356eb-0b8e-4106-90d4-912448ce0e9c {
        stroke-dasharray: 3.8 3.8;
      }

      .ed944ead-b1f6-4d1c-849a-7a511c3868a4 {
        stroke-dasharray: 3.435 3.435;
      }

      .f01a5f01-aa43-4617-b836-8bcecc783c19 {
        stroke-dasharray: 2.963 2.963;
      }

      .efabd182-1bfa-4c07-bc70-e2b738ce0238 {
        fill: #06c;
      }

      .b76c638d-c599-40bc-bea7-c0284e212031 {
        font-size: 11px;
      }

      .f40ed827-0b43-4010-ad2f-19d0c3b0eeb0 {
        fill: #e1e1e1;
      }

      .ba2ea101-3836-476e-b076-9342925fd645 {
        font-size: 10px;
        fill: #ececec;
        font-family: RedHatText-Regular, Red Hat Text;
      }
    </style>
  </defs>
  <rect class="ac7dfc02-6690-4e39-8e66-7cff60afbf2e" x="117.5" y="20" width="642.5" height="200"/>
  <g>
    <line class="a886a975-4b6f-4ce0-a9ad-c2d8c2ac2e4e" x1="502.5" y1="145" x2="502.5" y2="155.324"/>
    <polygon class="b33e4558-6f90-46bb-a212-28831a38cce4" points="497.514 153.865 502.5 162.5 507.486 153.865 497.514 153.865"/>
  </g>
  <g>
    <line class="a886a975-4b6f-4ce0-a9ad-c2d8c2ac2e4e" x1="502.5" y1="220" x2="502.5" y2="230.324"/>
    <polygon class="b33e4558-6f90-46bb-a212-28831a38cce4" points="497.514 228.865 502.5 237.5 507.486 228.865 497.514 228.865"/>
  </g>
  <g>
    <line class="a886a975-4b6f-4ce0-a9ad-c2d8c2ac2e4e" x1="502.5" y1="75" x2="502.5" y2="85.324"/>
    <polygon class="b33e4558-6f90-46bb-a212-28831a38cce4" points="497.514 83.865 502.5 92.5 507.486 83.865 497.514 83.865"/>
  </g>
  <rect class="e53db772-3bbb-4aa9-9ae0-69612b3f13f8" x="265" y="40" width="475" height="35"/>
  <text class="a2be7d9d-51f5-4831-a6e7-e2c23673d851" transform="translate(356.595 62.047)">Register as Technology partner on Red Hat Connect</text>
  <rect class="e53db772-3bbb-4aa9-9ae0-69612b3f13f8" x="265" y="95" width="475" height="50"/>
  <text class="a2be7d9d-51f5-4831-a6e7-e2c23673d851" transform="translate(396.086 116.824)">Create project in Red Hat Connect for<tspan x="-54.179" y="13">Technology partners requesting certification permissions</tspan></text>
  <rect class="e53db772-3bbb-4aa9-9ae0-69612b3f13f8" x="265" y="165" width="475" height="35"/>
  <text class="a2be7d9d-51f5-4831-a6e7-e2c23673d851" transform="translate(341.984 187.047)">Approves SSO account and grants certification privileges</text>
  <text class="a89fbac4-5e99-4110-ae29-89ea18b6ed94" transform="translate(137.5 50.104)">P<tspan class="afeab615-75bb-46f2-ae0a-8449c590b2f6" x="8.52" y="0">r</tspan><tspan class="b0ffd7ac-7f13-41ef-ac27-093d41c30ba3" x="13.644" y="0">o</tspan><tspan x="21.131" y="0">g</tspan><tspan class="b00e4bb9-23df-421e-b8ff-e7c6debbd8f8" x="28.835" y="0">r</tspan><tspan x="34.02" y="0">am</tspan><tspan x="0" y="13">and p</tspan><tspan class="a1a1c28e-2afc-4007-8d6d-7695efd6adb8" x="32.388" y="13">r</tspan><tspan class="bf86e0ae-c651-43dd-905f-3786d5cd92bc" x="37.512" y="13">o</tspan><tspan class="a8c24d02-7239-43ac-bfe9-17297c9ac236" x="44.999" y="13">du</tspan><tspan class="a302006e-de1c-42f9-9e33-4001a4db3960" x="60.131" y="13">c</tspan><tspan x="66.719" y="13">t</tspan><tspan class="a1a1c28e-2afc-4007-8d6d-7695efd6adb8" x="0" y="26">r</tspan><tspan class="bf86e0ae-c651-43dd-905f-3786d5cd92bc" x="5.124" y="26">e</tspan><tspan x="12.288" y="26">qui</tspan><tspan class="afeab615-75bb-46f2-ae0a-8449c590b2f6" x="30.875" y="26">r</tspan><tspan x="35.999" y="26">eme</tspan><tspan class="afeab615-75bb-46f2-ae0a-8449c590b2f6" x="61.163" y="26">n</tspan><tspan class="bcef9e5f-9f95-4271-abf8-f959a826aa4c" x="68.399" y="26">t</tspan><tspan x="74.015" y="26">s</tspan></text>
  <rect class="ac7dfc02-6690-4e39-8e66-7cff60afbf2e" x="117.5" y="790" width="642.5" height="75"/>
  <text class="a89fbac4-5e99-4110-ae29-89ea18b6ed94" transform="translate(137.5 820.104)"><tspan class="bf641969-8845-4349-a432-609d6cebc005">P</tspan><tspan x="8.4" y="0">ublish the</tspan><tspan class="a1a1c28e-2afc-4007-8d6d-7695efd6adb8" x="0" y="13">c</tspan><tspan class="ac998915-dd4c-496f-87b9-0ede9c3d85b2" x="6.288" y="13">e</tspan><tspan class="a302006e-de1c-42f9-9e33-4001a4db3960" x="13.392" y="13">r</tspan><tspan x="18.815" y="13">tific</tspan><tspan class="a1a1c28e-2afc-4007-8d6d-7695efd6adb8" x="43.211" y="13">a</tspan><tspan x="49.979" y="13">tion</tspan></text>
  <rect class="ac7dfc02-6690-4e39-8e66-7cff60afbf2e" x="117.5" y="240" width="642.5" height="530"/>
  <line class="a886a975-4b6f-4ce0-a9ad-c2d8c2ac2e4e" x1="502.5" y1="295" x2="502.5" y2="310"/>
  <g>
    <polyline class="a886a975-4b6f-4ce0-a9ad-c2d8c2ac2e4e" points="375 320.324 375 310 630 310 630 320.324"/>
    <polygon class="b33e4558-6f90-46bb-a212-28831a38cce4" points="379.986 318.865 375 327.5 370.014 318.865 379.986 318.865"/>
    <polygon class="b33e4558-6f90-46bb-a212-28831a38cce4" points="625.014 318.865 630 327.5 634.986 318.865 625.014 318.865"/>
  </g>
  <rect class="e53db772-3bbb-4aa9-9ae0-69612b3f13f8" x="265" y="260" width="475" height="35"/>
  <text class="a2be7d9d-51f5-4831-a6e7-e2c23673d851" transform="translate(347.019 282.047)">Prepare test environment and install required packages</text>
  <g>
    <rect class="e53db772-3bbb-4aa9-9ae0-69612b3f13f8" x="265" y="810" width="475" height="35"/>
    <text class="a2be7d9d-51f5-4831-a6e7-e2c23673d851" transform="translate(370.214 832.047)">Certification appears in the Ecosystem Catalog</text>
  </g>
  <g>
    <line class="a886a975-4b6f-4ce0-a9ad-c2d8c2ac2e4e" x1="502.5" y1="640" x2="502.5" y2="650.324"/>
    <polygon class="b33e4558-6f90-46bb-a212-28831a38cce4" points="497.514 648.865 502.5 657.5 507.486 648.865 497.514 648.865"/>
  </g>
  <g>
    <line class="a886a975-4b6f-4ce0-a9ad-c2d8c2ac2e4e" x1="502.5" y1="585" x2="502.5" y2="595.324"/>
    <polygon class="b33e4558-6f90-46bb-a212-28831a38cce4" points="497.514 593.865 502.5 602.5 507.486 593.865 497.514 593.865"/>
  </g>
  <rect class="e53db772-3bbb-4aa9-9ae0-69612b3f13f8" x="265" y="550" width="475" height="35"/>
  <text class="a2be7d9d-51f5-4831-a6e7-e2c23673d851" transform="translate(362.66 572.047)">Run new OpenStack Bare Metal certification tests</text>
  <rect class="e53db772-3bbb-4aa9-9ae0-69612b3f13f8" x="265" y="605" width="475" height="35"/>
  <text class="a2be7d9d-51f5-4831-a6e7-e2c23673d851" transform="translate(438.493 627.047)">Submit the test results</text>
  <g>
    <line class="a886a975-4b6f-4ce0-a9ad-c2d8c2ac2e4e" x1="502.5" y1="695" x2="502.5" y2="705.324"/>
    <polygon class="b33e4558-6f90-46bb-a212-28831a38cce4" points="497.514 703.865 502.5 712.5 507.486 703.865 497.514 703.865"/>
  </g>
  <g>
    <line class="fa3beb7d-3c72-4f3b-9aa8-e55e9025b7e2" x1="265.435" y1="677.5" x2="263.685" y2="677.5"/>
    <line class="bba356eb-0b8e-4106-90d4-912448ce0e9c" x1="259.885" y1="677.5" x2="246.585" y2="677.5"/>
    <polyline class="fa3beb7d-3c72-4f3b-9aa8-e55e9025b7e2" points="244.685 677.5 242.935 677.5 242.935 675.75"/>
    <line class="ed944ead-b1f6-4d1c-849a-7a511c3868a4" x1="242.935" y1="672.315" x2="242.935" y2="570.968"/>
    <polyline class="fa3beb7d-3c72-4f3b-9aa8-e55e9025b7e2" points="242.935 569.25 242.935 567.5 244.685 567.5"/>
    <line class="f01a5f01-aa43-4617-b836-8bcecc783c19" x1="247.648" y1="567.5" x2="252.092" y2="567.5"/>
    <line class="fa3beb7d-3c72-4f3b-9aa8-e55e9025b7e2" x1="253.574" y1="567.5" x2="255.324" y2="567.5"/>
    <polygon class="efabd182-1bfa-4c07-bc70-e2b738ce0238" points="253.865 572.486 262.5 567.5 253.865 562.514 253.865 572.486"/>
  </g>
  <g>
    <rect class="e53db772-3bbb-4aa9-9ae0-69612b3f13f8" x="265.5" y="660.5" width="474" height="34"/>
    <path class="efabd182-1bfa-4c07-bc70-e2b738ce0238" d="M739,661v33H266V661H739m1-1H265v35H740V660Z"/>
  </g>
  <text class="a2be7d9d-51f5-4831-a6e7-e2c23673d851" transform="translate(438.631 682.047)">Review the test results</text>
  <rect class="efabd182-1bfa-4c07-bc70-e2b738ce0238" x="265" y="715" width="475" height="35"/>
  <text class="e4572c7a-f78e-4e73-a8da-ac3cf8585f8c" transform="translate(477.294 737.047)">Certified</text>
  <g>
    <line class="a886a975-4b6f-4ce0-a9ad-c2d8c2ac2e4e" x1="502.5" y1="530" x2="502.5" y2="540.324"/>
    <polygon class="b33e4558-6f90-46bb-a212-28831a38cce4" points="497.514 538.865 502.5 547.5 507.486 538.865 497.514 538.865"/>
  </g>
  <g>
    <line class="a886a975-4b6f-4ce0-a9ad-c2d8c2ac2e4e" x1="502.5" y1="475" x2="502.5" y2="485.324"/>
    <polygon class="b33e4558-6f90-46bb-a212-28831a38cce4" points="497.514 483.865 502.5 492.5 507.486 483.865 497.514 483.865"/>
  </g>
  <rect class="e53db772-3bbb-4aa9-9ae0-69612b3f13f8" x="265" y="440" width="475" height="35"/>
  <text class="a2be7d9d-51f5-4831-a6e7-e2c23673d851" transform="translate(335.379 462.047)">Create new OpenStack Compute Node layered certification</text>
  <rect class="e53db772-3bbb-4aa9-9ae0-69612b3f13f8" x="265" y="495" width="475" height="35"/>
  <text class="a2be7d9d-51f5-4831-a6e7-e2c23673d851" transform="translate(352.7 517.047)">Create new OpenStack Bare Metal layered certificate</text>
  <rect class="e53db772-3bbb-4aa9-9ae0-69612b3f13f8" x="265" y="330" width="220" height="35"/>
  <text class="a2be7d9d-51f5-4831-a6e7-e2c23673d851" transform="translate(303.331 352.047)">Existing certified product</text>
  <g>
    <line class="a886a975-4b6f-4ce0-a9ad-c2d8c2ac2e4e" x1="630" y1="365" x2="630" y2="375.324"/>
    <polygon class="b33e4558-6f90-46bb-a212-28831a38cce4" points="625.014 373.865 630 382.5 634.986 373.865 625.014 373.865"/>
  </g>
  <g>
    <line class="a886a975-4b6f-4ce0-a9ad-c2d8c2ac2e4e" x1="375" y1="365" x2="375" y2="430.324"/>
    <polygon class="b33e4558-6f90-46bb-a212-28831a38cce4" points="370.014 428.865 375 437.5 379.986 428.865 370.014 428.865"/>
  </g>
  <rect class="e53db772-3bbb-4aa9-9ae0-69612b3f13f8" x="520" y="330" width="220" height="35"/>
  <text class="a2be7d9d-51f5-4831-a6e7-e2c23673d851" transform="translate(593.839 352.047)">New product</text>
  <g>
    <line class="a886a975-4b6f-4ce0-a9ad-c2d8c2ac2e4e" x1="630" y1="420" x2="630" y2="430.324"/>
    <polygon class="b33e4558-6f90-46bb-a212-28831a38cce4" points="625.014 428.865 630 437.5 634.986 428.865 625.014 428.865"/>
  </g>
  <rect class="e53db772-3bbb-4aa9-9ae0-69612b3f13f8" x="520" y="385" width="220" height="35"/>
  <text class="a2be7d9d-51f5-4831-a6e7-e2c23673d851" transform="translate(549.871 407.047)">Create new RHEL certificate</text>
  <text class="a89fbac4-5e99-4110-ae29-89ea18b6ed94" transform="translate(137.5 270.104)"><tspan class="a1a1c28e-2afc-4007-8d6d-7695efd6adb8">C</tspan><tspan x="8.46" y="0">e</tspan><tspan class="bcef9e5f-9f95-4271-abf8-f959a826aa4c" x="15.564" y="0">r</tspan><tspan x="20.987" y="0">tific</tspan><tspan class="a1a1c28e-2afc-4007-8d6d-7695efd6adb8" x="45.383" y="0">a</tspan><tspan x="52.151" y="0">tion</tspan><tspan class="bf641969-8845-4349-a432-609d6cebc005" x="0" y="13">w</tspan><tspan x="9.276" y="13">or</tspan><tspan class="bf641969-8845-4349-a432-609d6cebc005" x="22.008" y="13">k</tspan><tspan class="ac998915-dd4c-496f-87b9-0ede9c3d85b2" x="29.136" y="13">fl</tspan><tspan class="b00e4bb9-23df-421e-b8ff-e7c6debbd8f8" x="38.111" y="13">o</tspan><tspan x="45.419" y="13">w</tspan></text>
  <g>
    <line class="a886a975-4b6f-4ce0-a9ad-c2d8c2ac2e4e" x1="502.5" y1="770" x2="502.5" y2="780.324"/>
    <polygon class="b33e4558-6f90-46bb-a212-28831a38cce4" points="497.514 778.865 502.5 787.5 507.486 778.865 497.514 778.865"/>
  </g>
  <g>
    <g>
      <text class="b76c638d-c599-40bc-bea7-c0284e212031" transform="translate(22.761 106.899)">Partners</text>
      <path class="f40ed827-0b43-4010-ad2f-19d0c3b0eeb0" d="M16,97v14H2V97H16m2-2H0v18H18V95Z"/>
    </g>
    <g>
      <text class="b76c638d-c599-40bc-bea7-c0284e212031" transform="translate(22.761 133.399)">Red Hat</text>
      <g>
        <rect class="e53db772-3bbb-4aa9-9ae0-69612b3f13f8" x="0.5" y="122" width="17" height="17"/>
        <path class="efabd182-1bfa-4c07-bc70-e2b738ce0238" d="M17,122.5v16H1v-16H17m1-1H0v18H18v-18Z"/>
      </g>
    </g>
  </g>
  <g>
    <text class="ba2ea101-3836-476e-b076-9342925fd645" transform="translate(664.342 888.017)">185_OpenStack_0921</text>
    <rect class="ed087a7a-ecec-4bd8-ab61-5b65f521b439" y="865" width="760" height="40"/>
  </g>
</svg>
