<svg id="b88e027b-0910-47c8-a09f-11de86834c16" data-name="artwork" xmlns="http://www.w3.org/2000/svg" width="760" height="232.509"><defs><style>.b3f9ef94-4d0e-47d4-b666-2260151a86d1{fill:#151515}.f5de4808-0513-4dae-a263-f956dbc4e818{fill:#fff}.b3f9ef94-4d0e-47d4-b666-2260151a86d1{font-size:12px;font-family:RedHatText,&quot;Red Hat Text&quot;,Overpass,&quot;Helvetica Neue&quot;,Arial,sans-serif;font-weight:500}.b66caf9b-6262-41f5-ba27-51e2dd950d12,.e148c61f-b3cd-4605-83ff-45fc76695267,.ecdc72ab-c1a8-45af-b43a-33ce3f50146b{fill:none}.bd036703-17e5-426c-8864-af205d6b04f9{fill:#d9e8f7}.b66caf9b-6262-41f5-ba27-51e2dd950d12,.e148c61f-b3cd-4605-83ff-45fc76695267,.ecdc72ab-c1a8-45af-b43a-33ce3f50146b{stroke:#151515;stroke-linecap:round;stroke-linejoin:round}.ecdc72ab-c1a8-45af-b43a-33ce3f50146b{stroke-dasharray:3.011 3.011}.e148c61f-b3cd-4605-83ff-45fc76695267{stroke-dasharray:2.913 2.913}</style></defs><path fill="#e8e8e8" d="M0 20h760v172.5H0z"/><text transform="translate(25.5 56.532)" fill="#151515" font-size="16" font-family="RedHatText,&quot;Red Hat Text&quot;,Overpass,&quot;Helvetica Neue&quot;,Arial,sans-serif" font-weight="700">RAM</text><path class="f5de4808-0513-4dae-a263-f956dbc4e818" transform="rotate(-180 88 122.5)" d="M25.5 77.5h125v90h-125z"/><text class="b3f9ef94-4d0e-47d4-b666-2260151a86d1" transform="translate(69.754 125.824)">Kernel</text><path class="f5de4808-0513-4dae-a263-f956dbc4e818" transform="rotate(-180 672 122.5)" d="M609.5 77.5h125v90h-125z"/><text class="b3f9ef94-4d0e-47d4-b666-2260151a86d1" transform="translate(658.962 125.824)">Free</text><text transform="translate(691.812 215.526)" font-size="10" fill="#f3f3f3" font-family="RedHatText,&quot;Red Hat Text&quot;,Overpass,&quot;Helvetica Neue&quot;,Arial,sans-serif">133_RHEL_0121</text><path fill="none" d="M0 192.509h760v40H0z"/><path class="f5de4808-0513-4dae-a263-f956dbc4e818" transform="rotate(-180 380 122.5)" d="M168 77.5h424v90H168z"/><path class="bd036703-17e5-426c-8864-af205d6b04f9" transform="rotate(-180 385.5 122.5)" d="M323 92.5h125v60H323z"/><path class="b66caf9b-6262-41f5-ba27-51e2dd950d12" d="M318 156v1.5h1.5"/><path class="ecdc72ab-c1a8-45af-b43a-33ce3f50146b" d="M322.511 157.5h257.483"/><path class="b66caf9b-6262-41f5-ba27-51e2dd950d12" d="M581.5 157.5h1.5V156"/><path class="e148c61f-b3cd-4605-83ff-45fc76695267" d="M583 153.087v-62.63"/><path class="b66caf9b-6262-41f5-ba27-51e2dd950d12" d="M583 89v-1.5h-1.5"/><path class="ecdc72ab-c1a8-45af-b43a-33ce3f50146b" d="M578.489 87.5H321.006"/><path class="b66caf9b-6262-41f5-ba27-51e2dd950d12" d="M319.5 87.5H318V89"/><path class="e148c61f-b3cd-4605-83ff-45fc76695267" d="M318 91.913v62.63"/><text class="b3f9ef94-4d0e-47d4-b666-2260151a86d1" transform="translate(375.248 119.324)">File<tspan x="-12.72" y="13">mapped</tspan></text><path class="bd036703-17e5-426c-8864-af205d6b04f9" transform="rotate(-180 515.5 122.5)" d="M453 92.5h125v60H453z"/><text class="b3f9ef94-4d0e-47d4-b666-2260151a86d1" transform="translate(505.248 119.324)">File<tspan x="-19.704" y="13">unmapped</tspan></text><path class="bd036703-17e5-426c-8864-af205d6b04f9" transform="rotate(-180 245.5 122.5)" d="M183 92.5h125v60H183z"/><text class="b3f9ef94-4d0e-47d4-b666-2260151a86d1" transform="translate(212.328 119.324)">Anonymous<tspan x="10.2" y="13">mapped</tspan></text><g><text class="b3f9ef94-4d0e-47d4-b666-2260151a86d1" transform="translate(527.357 61.85)">Page cache</text><path class="b66caf9b-6262-41f5-ba27-51e2dd950d12" d="M522.889 57.698l-32.827 29.626"/></g></svg>