<svg id="b2762277-a74d-4949-8dd9-ab86facbe797" data-name="Layer 1" xmlns="http://www.w3.org/2000/svg" width="760" height="818.14"><defs><style>.bcbd8f79-5b4c-4d9a-845d-fa88661b2966,.bf651ba7-f1a9-48dc-a62d-7aa56c66d989,.ef3a7063-f5f2-43cd-8614-bc758a61391f{fill:none}.bf651ba7-f1a9-48dc-a62d-7aa56c66d989{stroke:#e8e8e8}.bcbd8f79-5b4c-4d9a-845d-fa88661b2966,.bf651ba7-f1a9-48dc-a62d-7aa56c66d989{stroke-miterlimit:10;stroke-width:1.5px}.b47caa97-617a-4be3-9b0d-c21c0a54de65,.bc0cb7cf-29b0-4e8f-a468-8d7b56a9b13c{fill:#fff}.b77326f0-9fba-4d86-8e20-c31e76056194,.ed3c9d8c-1c4c-41a5-bd0f-8622c652ad69{fill:#06c}.b5caf57d-cfdd-4139-88c9-7c49aa7f27fa{fill:#e8e8e8}.a3e71e00-25f3-47f6-a628-8628ab936743,.e7362283-9eae-45a7-8ba9-08d2f76b7433{fill:#151515}.b8264243-85ff-4fd2-86a8-2a809644e669{letter-spacing:.004em}.bcbd8f79-5b4c-4d9a-845d-fa88661b2966{stroke:#d5d5d5}.a3e71e00-25f3-47f6-a628-8628ab936743,.b47caa97-617a-4be3-9b0d-c21c0a54de65,.ed3c9d8c-1c4c-41a5-bd0f-8622c652ad69{font-size:11px;font-family:RedHatText,&quot;Red Hat Text&quot;,Overpass,&quot;Helvetica Neue&quot;,Arial,sans-serif;font-weight:500}.fb62a76d-56b3-4a31-be1e-b3bd92d21cf0{letter-spacing:-.015em}.a667fd4f-057d-42c6-ab68-33e9c97fdde4{letter-spacing:-.024em}.b3317cd6-c3f9-43c0-9810-338583efda78{letter-spacing:0}.ef3a7063-f5f2-43cd-8614-bc758a61391f{stroke:#151515;stroke-linecap:round;stroke-linejoin:round}.ad9662f3-9289-422d-9dd5-8a25cd534172{letter-spacing:-.039em}.a3a1b88d-5c0a-4061-a070-2ff2aa417edb,.e961b3dc-d7db-41a9-8cfa-e9f43626c7c9{letter-spacing:.01em}.b29413ce-88c9-4c2c-82cd-2ddbfb62ce92{letter-spacing:-.024em}.e9a56251-9406-4b4e-98aa-d94467e70958{letter-spacing:-.015em}.e12c4217-580f-4db1-bf40-b97d458e9748{letter-spacing:-.007em}.a185bc16-5a1f-451c-b8b9-fba5604f7823{letter-spacing:.003em}.e8198cdd-c7ae-47c5-8bdf-993877669cee{letter-spacing:0}</style></defs><path class="bf651ba7-f1a9-48dc-a62d-7aa56c66d989" d="M10.335 270.278h119v-60"/><path class="bf651ba7-f1a9-48dc-a62d-7aa56c66d989" d="M5.335 265.278h119v-60"/><path class="bc0cb7cf-29b0-4e8f-a468-8d7b56a9b13c" d="M.835 200.778h118v59h-118z"/><path class="b77326f0-9fba-4d86-8e20-c31e76056194" d="M118.335 201.278v58h-117v-58h117m1-1h-119v60h119v-60z"/><path class="bf651ba7-f1a9-48dc-a62d-7aa56c66d989" d="M10.335 385.457h119v-60"/><path class="bf651ba7-f1a9-48dc-a62d-7aa56c66d989" d="M5.335 380.457h119v-60"/><path class="bc0cb7cf-29b0-4e8f-a468-8d7b56a9b13c" d="M.835 315.957h118v59h-118z"/><path class="b77326f0-9fba-4d86-8e20-c31e76056194" d="M118.335 316.457v58h-117v-58h117m1-1h-119v60h119v-60z"/><path class="bf651ba7-f1a9-48dc-a62d-7aa56c66d989" d="M10.335 500.135h119v-60"/><path class="bf651ba7-f1a9-48dc-a62d-7aa56c66d989" d="M5.335 495.135h119v-60"/><path class="bc0cb7cf-29b0-4e8f-a468-8d7b56a9b13c" d="M.835 430.636h118v59h-118z"/><path class="b77326f0-9fba-4d86-8e20-c31e76056194" d="M118.335 431.135v58h-117v-58h117m1-1h-119v60h119v-60z"/><path class="bf651ba7-f1a9-48dc-a62d-7aa56c66d989" d="M10.335 615.14h119v-60"/><path class="bf651ba7-f1a9-48dc-a62d-7aa56c66d989" d="M5.335 610.14h119v-60"/><path class="bc0cb7cf-29b0-4e8f-a468-8d7b56a9b13c" d="M.835 545.64h118v59h-118z"/><path class="b77326f0-9fba-4d86-8e20-c31e76056194" d="M118.335 546.14v58h-117v-58h117m1-1h-119v60h119v-60z"/><path class="b5caf57d-cfdd-4139-88c9-7c49aa7f27fa" d="M150 20.002h610v757H150z"/><text transform="translate(180 61.159)" font-family="RedHatText,&quot;Red Hat Text&quot;,Overpass,&quot;Helvetica Neue&quot;,Arial,sans-serif" font-weight="700" fill="#151515" font-size="16"><tspan letter-spacing=".011em">O</tspan><tspan x="13.186" y="0" letter-spacing="-.001em">p</tspan><tspan class="b8264243-85ff-4fd2-86a8-2a809644e669" x="23.467" y="0">e</tspan><tspan x="33.01" y="0" letter-spacing=".011em">nS</tspan><tspan x="53.723" y="0" letter-spacing=".006em">h</tspan><tspan x="63.71" y="0" letter-spacing="-.008em">i</tspan><tspan x="68.198" y="0" letter-spacing=".008em">f</tspan><tspan x="75.688" y="0">t </tspan><tspan x="86.457" y="0" letter-spacing="-.002em">C</tspan><tspan x="97.951" y="0" letter-spacing=".007em">l</tspan><tspan x="102.666" y="0" letter-spacing=".011em">u</tspan><tspan x="112.734" y="0" letter-spacing="-.003em">s</tspan><tspan x="120.856" y="0" letter-spacing=".002em">t</tspan><tspan class="b8264243-85ff-4fd2-86a8-2a809644e669" x="128.216" y="0">e</tspan><tspan x="137.759" y="0" letter-spacing="0">r</tspan></text><path class="bcbd8f79-5b4c-4d9a-845d-fa88661b2966" d="M190.617 199.579h119v-60"/><path class="bcbd8f79-5b4c-4d9a-845d-fa88661b2966" d="M185.617 194.579h119v-60"/><path class="b77326f0-9fba-4d86-8e20-c31e76056194" d="M180.617 129.579h119v60h-119z"/><path class="bcbd8f79-5b4c-4d9a-845d-fa88661b2966" d="M190.617 314.692h119v-60"/><path class="bcbd8f79-5b4c-4d9a-845d-fa88661b2966" d="M185.617 309.692h119v-60"/><path class="b77326f0-9fba-4d86-8e20-c31e76056194" d="M180.617 244.692h119v60h-119z"/><path class="bcbd8f79-5b4c-4d9a-845d-fa88661b2966" d="M190.617 429.805h119v-60"/><path class="bcbd8f79-5b4c-4d9a-845d-fa88661b2966" d="M185.617 424.805h119v-60"/><path class="b77326f0-9fba-4d86-8e20-c31e76056194" d="M180.617 359.805h119v60h-119z"/><path class="bcbd8f79-5b4c-4d9a-845d-fa88661b2966" d="M190.617 544.484h119v-60"/><path class="bcbd8f79-5b4c-4d9a-845d-fa88661b2966" d="M185.617 539.484h119v-60"/><path class="b77326f0-9fba-4d86-8e20-c31e76056194" d="M180.617 474.484h119v60h-119z"/><path class="bcbd8f79-5b4c-4d9a-845d-fa88661b2966" d="M190.617 660.031h119v-60"/><path class="bcbd8f79-5b4c-4d9a-845d-fa88661b2966" d="M185.617 655.031h119v-60"/><path class="b77326f0-9fba-4d86-8e20-c31e76056194" d="M180.617 590.031h119v60h-119z"/><path class="bc0cb7cf-29b0-4e8f-a468-8d7b56a9b13c" d="M375 80.002h355v667H375z"/><path class="b5caf57d-cfdd-4139-88c9-7c49aa7f27fa" d="M395.5 687.002h315v40h-315z"/><text class="a3e71e00-25f3-47f6-a628-8628ab936743" transform="translate(513.313 711.398)"><tspan class="fb62a76d-56b3-4a31-be1e-b3bd92d21cf0">C</tspan><tspan x="7.788" y="0">o</tspan><tspan class="fb62a76d-56b3-4a31-be1e-b3bd92d21cf0" x="14.366" y="0">n</tspan><tspan x="20.603" y="0">t</tspan><tspan class="a667fd4f-057d-42c6-ab68-33e9c97fdde4" x="25.156" y="0">r</tspan><tspan x="29.216" y="0">ol P</tspan><tspan class="a667fd4f-057d-42c6-ab68-33e9c97fdde4" x="48.509" y="0">r</tspan><tspan x="52.568" y="0" letter-spacing=".003em">o</tspan><tspan class="fb62a76d-56b3-4a31-be1e-b3bd92d21cf0" x="59.179" y="0">c</tspan><tspan x="64.767" y="0" letter-spacing=".005em">e</tspan><tspan x="71.125" y="0" letter-spacing=".004em">s</tspan><tspan class="b3317cd6-c3f9-43c0-9810-338583efda78" x="76.438" y="0">s</tspan></text><path class="ef3a7063-f5f2-43cd-8614-bc758a61391f" d="M554.167 677.326v-30.648"/><path class="e7362283-9eae-45a7-8ba9-08d2f76b7433" d="M559.153 675.867l-4.986 8.635-4.986-8.635h9.972zM559.153 648.137l-4.986-8.635-4.986 8.635h9.972z"/><path class="ef3a7063-f5f2-43cd-8614-bc758a61391f" d="M309.176 160.002h76.064"/><path class="e7362283-9eae-45a7-8ba9-08d2f76b7433" d="M310.635 164.988L302 160.002l8.635-4.986v9.972zM383.781 164.988l8.636-4.986-8.636-4.986v9.972z"/><path class="bf651ba7-f1a9-48dc-a62d-7aa56c66d989" d="M10.335 154.948h119v-60"/><path class="bf651ba7-f1a9-48dc-a62d-7aa56c66d989" d="M5.335 149.948h119v-60"/><path class="bc0cb7cf-29b0-4e8f-a468-8d7b56a9b13c" d="M.835 85.448h118v59h-118z"/><path class="b77326f0-9fba-4d86-8e20-c31e76056194" d="M118.335 85.948v58h-117v-58h117m1-1h-119v60h119v-60z"/><text class="b47caa97-617a-4be3-9b0d-c21c0a54de65" transform="translate(204.553 163.598)">M<tspan class="ad9662f3-9289-422d-9dd5-8a25cd534172" x="9.79" y="0">Q</tspan><tspan class="e961b3dc-d7db-41a9-8cfa-e9f43626c7c9" x="18.282" y="0">T</tspan><tspan x="25.421" y="0">T Clie</tspan><tspan class="fb62a76d-56b3-4a31-be1e-b3bd92d21cf0" x="54.725" y="0">n</tspan><tspan class="a3a1b88d-5c0a-4061-a070-2ff2aa417edb" x="60.961" y="0">t</tspan><tspan class="b3317cd6-c3f9-43c0-9810-338583efda78" x="65.625" y="0">s</tspan></text><path class="b5caf57d-cfdd-4139-88c9-7c49aa7f27fa" d="M394.917 130.002h316.75v507h-316.75z"/><text class="a3e71e00-25f3-47f6-a628-8628ab936743" transform="translate(517.157 386.549)">AMQ 7 B<tspan class="b29413ce-88c9-4c2c-82cd-2ddbfb62ce92" x="45.419" y="0">r</tspan><tspan x="49.478" y="0">o</tspan><tspan x="56.056" y="0" letter-spacing="-.033em">k</tspan><tspan x="61.644" y="0">er</tspan></text><g><path class="ef3a7063-f5f2-43cd-8614-bc758a61391f" d="M385.24 260.126H345v-30H129.676"/><path class="e7362283-9eae-45a7-8ba9-08d2f76b7433" d="M383.781 255.14l8.636 4.986-8.636 4.987v-9.973zM131.135 225.14l-8.635 4.986 8.635 4.987v-9.973z"/></g><g><path class="ef3a7063-f5f2-43cd-8614-bc758a61391f" d="M385.24 375.002H345v-30H129.676"/><path class="e7362283-9eae-45a7-8ba9-08d2f76b7433" d="M383.781 370.016l8.636 4.986-8.636 4.986v-9.972zM131.135 340.016l-8.635 4.986 8.635 4.986v-9.972z"/></g><g><path class="ef3a7063-f5f2-43cd-8614-bc758a61391f" d="M385.24 145.002H345v-30H129.676"/><path class="e7362283-9eae-45a7-8ba9-08d2f76b7433" d="M383.781 140.016l8.636 4.986-8.636 4.986v-9.972zM131.135 110.016l-8.635 4.986 8.635 4.986v-9.972z"/></g><g><path class="ef3a7063-f5f2-43cd-8614-bc758a61391f" d="M309.176 275.002h76.064"/><path class="e7362283-9eae-45a7-8ba9-08d2f76b7433" d="M310.635 279.988L302 275.002l8.635-4.986v9.972zM383.781 279.988l8.636-4.986-8.636-4.986v9.972z"/></g><text class="b47caa97-617a-4be3-9b0d-c21c0a54de65" transform="translate(203.854 278.598)">AMQP Clie<tspan class="e9a56251-9406-4b4e-98aa-d94467e70958" x="56.121" y="0">n</tspan><tspan class="a3a1b88d-5c0a-4061-a070-2ff2aa417edb" x="62.358" y="0">t</tspan><tspan x="67.022" y="0">s</tspan></text><g><path class="ef3a7063-f5f2-43cd-8614-bc758a61391f" d="M309.176 390.002h76.064"/><path class="e7362283-9eae-45a7-8ba9-08d2f76b7433" d="M310.635 394.988L302 390.002l8.635-4.986v9.972zM383.781 394.988l8.636-4.986-8.636-4.986v9.972z"/></g><text class="b47caa97-617a-4be3-9b0d-c21c0a54de65" transform="translate(204.465 387.598)"><tspan class="fb62a76d-56b3-4a31-be1e-b3bd92d21cf0">C</tspan><tspan x="7.788" y="0">o</tspan><tspan class="b29413ce-88c9-4c2c-82cd-2ddbfb62ce92" x="14.366" y="0">r</tspan><tspan x="18.425" y="0">e P</tspan><tspan class="b29413ce-88c9-4c2c-82cd-2ddbfb62ce92" x="34.672" y="0">ro</tspan><tspan class="e12c4217-580f-4db1-bf40-b97d458e9748" x="45.045" y="0">t</tspan><tspan class="a185bc16-5a1f-451c-b8b9-fba5604f7823" x="49.521" y="0">o</tspan><tspan class="fb62a76d-56b3-4a31-be1e-b3bd92d21cf0" x="56.133" y="0">c</tspan><tspan class="e8198cdd-c7ae-47c5-8bdf-993877669cee" x="61.721" y="0">ol</tspan><tspan x="4.438" y="12">JMS Clie</tspan><tspan class="e9a56251-9406-4b4e-98aa-d94467e70958" x="50.462" y="12">n</tspan><tspan class="e961b3dc-d7db-41a9-8cfa-e9f43626c7c9" x="56.699" y="12">t</tspan><tspan class="b3317cd6-c3f9-43c0-9810-338583efda78" x="61.362" y="12">s</tspan></text><g><path class="ef3a7063-f5f2-43cd-8614-bc758a61391f" d="M309.176 505.002h76.064"/><path class="e7362283-9eae-45a7-8ba9-08d2f76b7433" d="M310.635 509.988L302 505.002l8.635-4.986v9.972zM383.781 509.988l8.636-4.986-8.636-4.986v9.972z"/></g><text class="b47caa97-617a-4be3-9b0d-c21c0a54de65" transform="translate(214.096 502.598)">O<tspan class="a185bc16-5a1f-451c-b8b9-fba5604f7823" x="8.921" y="0">p</tspan><tspan x="15.675" y="0">enWi</tspan><tspan class="a667fd4f-057d-42c6-ab68-33e9c97fdde4" x="41.447" y="0">r</tspan><tspan x="45.507" y="0">e</tspan><tspan x="-5.192" y="12">JMS Clie</tspan><tspan class="e9a56251-9406-4b4e-98aa-d94467e70958" x="40.831" y="12">n</tspan><tspan class="e961b3dc-d7db-41a9-8cfa-e9f43626c7c9" x="47.068" y="12">t</tspan><tspan class="b3317cd6-c3f9-43c0-9810-338583efda78" x="51.731" y="12">s</tspan></text><g><path class="ef3a7063-f5f2-43cd-8614-bc758a61391f" d="M309.176 620.002h76.064"/><path class="e7362283-9eae-45a7-8ba9-08d2f76b7433" d="M310.635 624.988L302 620.002l8.635-4.986v9.972zM383.781 624.988l8.636-4.986-8.636-4.986v9.972z"/></g><text class="b47caa97-617a-4be3-9b0d-c21c0a54de65" transform="translate(200.967 623.598)"><tspan class="fb62a76d-56b3-4a31-be1e-b3bd92d21cf0">S</tspan><tspan class="ad9662f3-9289-422d-9dd5-8a25cd534172" x="6.842" y="0">T</tspan><tspan x="13.442" y="0">OMP Clie</tspan><tspan class="e9a56251-9406-4b4e-98aa-d94467e70958" x="61.896" y="0">n</tspan><tspan class="e961b3dc-d7db-41a9-8cfa-e9f43626c7c9" x="68.134" y="0">t</tspan><tspan class="b3317cd6-c3f9-43c0-9810-338583efda78" x="72.797" y="0">s</tspan></text><text class="ed3c9d8c-1c4c-41a5-bd0f-8622c652ad69" transform="translate(24.387 118.847)">M<tspan class="ad9662f3-9289-422d-9dd5-8a25cd534172" x="9.79" y="0">Q</tspan><tspan class="e961b3dc-d7db-41a9-8cfa-e9f43626c7c9" x="18.282" y="0">T</tspan><tspan x="25.421" y="0">T Clie</tspan><tspan class="fb62a76d-56b3-4a31-be1e-b3bd92d21cf0" x="54.725" y="0">n</tspan><tspan class="a3a1b88d-5c0a-4061-a070-2ff2aa417edb" x="60.961" y="0">t</tspan><tspan class="b3317cd6-c3f9-43c0-9810-338583efda78" x="65.625" y="0">s</tspan></text><text class="ed3c9d8c-1c4c-41a5-bd0f-8622c652ad69" transform="translate(23.854 233.847)">AMQP Clie<tspan class="e9a56251-9406-4b4e-98aa-d94467e70958" x="56.121" y="0">n</tspan><tspan class="a3a1b88d-5c0a-4061-a070-2ff2aa417edb" x="62.358" y="0">t</tspan><tspan x="67.022" y="0">s</tspan></text><g><path class="bc0cb7cf-29b0-4e8f-a468-8d7b56a9b13c" d="M.5 315.751h119v59H.5z"/><path class="b77326f0-9fba-4d86-8e20-c31e76056194" d="M119 316.251v58H1v-58h118m1-1H0v60h120v-60z"/></g><g><path class="ef3a7063-f5f2-43cd-8614-bc758a61391f" d="M385.24 490.002H345v-30H129.676"/><path class="e7362283-9eae-45a7-8ba9-08d2f76b7433" d="M383.781 485.016l8.636 4.986-8.636 4.986v-9.972zM131.135 455.016l-8.635 4.986 8.635 4.986v-9.972z"/></g><text class="ed3c9d8c-1c4c-41a5-bd0f-8622c652ad69" transform="translate(24.465 342.347)"><tspan class="fb62a76d-56b3-4a31-be1e-b3bd92d21cf0">C</tspan><tspan x="7.788" y="0">o</tspan><tspan class="b29413ce-88c9-4c2c-82cd-2ddbfb62ce92" x="14.366" y="0">r</tspan><tspan x="18.425" y="0">e P</tspan><tspan class="b29413ce-88c9-4c2c-82cd-2ddbfb62ce92" x="34.672" y="0">ro</tspan><tspan class="e12c4217-580f-4db1-bf40-b97d458e9748" x="45.045" y="0">t</tspan><tspan class="a185bc16-5a1f-451c-b8b9-fba5604f7823" x="49.521" y="0">o</tspan><tspan class="fb62a76d-56b3-4a31-be1e-b3bd92d21cf0" x="56.133" y="0">c</tspan><tspan class="e8198cdd-c7ae-47c5-8bdf-993877669cee" x="61.721" y="0">ol</tspan><tspan x="4.438" y="12">JMS Clie</tspan><tspan class="e9a56251-9406-4b4e-98aa-d94467e70958" x="50.462" y="12">n</tspan><tspan class="e961b3dc-d7db-41a9-8cfa-e9f43626c7c9" x="56.699" y="12">t</tspan><tspan class="b3317cd6-c3f9-43c0-9810-338583efda78" x="61.362" y="12">s</tspan></text><g><path class="bc0cb7cf-29b0-4e8f-a468-8d7b56a9b13c" d="M.5 430.751h119v59H.5z"/><path class="b77326f0-9fba-4d86-8e20-c31e76056194" d="M119 431.251v58H1v-58h118m1-1H0v60h120v-60z"/></g><g><path class="ef3a7063-f5f2-43cd-8614-bc758a61391f" d="M385.24 605.002H345v-30H129.676"/><path class="e7362283-9eae-45a7-8ba9-08d2f76b7433" d="M383.781 600.016l8.636 4.986-8.636 4.986v-9.972zM131.135 570.016l-8.635 4.986 8.635 4.986v-9.972z"/></g><text class="ed3c9d8c-1c4c-41a5-bd0f-8622c652ad69" transform="translate(34.096 457.347)">O<tspan class="a185bc16-5a1f-451c-b8b9-fba5604f7823" x="8.921" y="0">p</tspan><tspan x="15.675" y="0">enWi</tspan><tspan class="a667fd4f-057d-42c6-ab68-33e9c97fdde4" x="41.447" y="0">r</tspan><tspan x="45.507" y="0">e</tspan><tspan x="-5.192" y="12">JMS Clie</tspan><tspan class="e9a56251-9406-4b4e-98aa-d94467e70958" x="40.831" y="12">n</tspan><tspan class="e961b3dc-d7db-41a9-8cfa-e9f43626c7c9" x="47.068" y="12">t</tspan><tspan class="b3317cd6-c3f9-43c0-9810-338583efda78" x="51.731" y="12">s</tspan></text><g><path class="bc0cb7cf-29b0-4e8f-a468-8d7b56a9b13c" d="M.5 545.751h119v59H.5z"/><path class="b77326f0-9fba-4d86-8e20-c31e76056194" d="M119 546.251v58H1v-58h118m1-1H0v60h120v-60z"/></g><text class="ed3c9d8c-1c4c-41a5-bd0f-8622c652ad69" transform="translate(20.967 578.847)"><tspan class="fb62a76d-56b3-4a31-be1e-b3bd92d21cf0">S</tspan><tspan class="ad9662f3-9289-422d-9dd5-8a25cd534172" x="6.842" y="0">T</tspan><tspan x="13.442" y="0">OMP Clie</tspan><tspan class="e9a56251-9406-4b4e-98aa-d94467e70958" x="61.896" y="0">n</tspan><tspan class="e961b3dc-d7db-41a9-8cfa-e9f43626c7c9" x="68.134" y="0">t</tspan><tspan class="b3317cd6-c3f9-43c0-9810-338583efda78" x="72.797" y="0">s</tspan></text><text transform="translate(395 110.178)" font-size="14" font-family="RedHatText,&quot;Red Hat Text&quot;,Overpass,&quot;Helvetica Neue&quot;,Arial,sans-serif" font-weight="700" fill="#151515"><tspan letter-spacing=".004em">A</tspan><tspan x="10.446" y="0" letter-spacing=".006em">M</tspan><tspan x="23.477" y="0">Q </tspan><tspan x="37.868" y="0" letter-spacing=".012em">O</tspan><tspan x="49.414" y="0" letter-spacing=".008em">n</tspan><tspan x="58.184" y="0" letter-spacing=".006em">l</tspan><tspan x="62.301" y="0" letter-spacing=".007em">i</tspan><tspan x="66.425" y="0" letter-spacing=".003em">n</tspan><tspan x="75.112" y="0" letter-spacing="0">e</tspan></text><g><text transform="translate(690.671 800.019)" font-size="10" font-family="RedHatText,&quot;Red Hat Text&quot;,Overpass,&quot;Helvetica Neue&quot;,Arial,sans-serif" fill="#e8e8e8">119_AMQ_<tspan x="44.77" y="0" letter-spacing="-.008em">0</tspan><tspan x="51.289" y="0" letter-spacing="-.023em">9</tspan><tspan x="57.249" y="0">20</tspan></text><path fill="none" d="M0 777.002h760v40H0z"/></g></svg>