<svg id="a2f72992-d44b-4efd-9a56-2c4a63953992" data-name="artwork" xmlns="http://www.w3.org/2000/svg" width="760" height="479"><defs><style>.a3a4fb28-ba5c-4dfe-8f96-b6c8e7dba3ca,.ae2376f9-4403-4252-98c3-b9eaf97192d2{fill:none}.b61d169e-c31f-4387-957c-d576533d6737,.ba6451a3-668e-4f38-8a96-4b81b5d4e6aa{font-size:11px}.b61d169e-c31f-4387-957c-d576533d6737,.ba6451a3-668e-4f38-8a96-4b81b5d4e6aa,.be02b8ec-8f41-439c-9853-8f002ceb2b1c,.f7cfefb7-8dd4-4c87-b5a1-557eff8b1f63{fill:#151515}.ac3e1a62-7e2c-457c-9482-ba99544059c5,.ba6451a3-668e-4f38-8a96-4b81b5d4e6aa,.f7cfefb7-8dd4-4c87-b5a1-557eff8b1f63{font-family:RedHatText,&quot;Red Hat Text&quot;,Overpass,&quot;Helvetica Neue&quot;,Arial,sans-serif;font-weight:500}.ac3e1a62-7e2c-457c-9482-ba99544059c5,.bde0b271-00c3-47bc-8f07-fb0e9e28d1f2,.f819e347-121c-413c-8286-fae1806448fe{fill:#fff}.bde0b271-00c3-47bc-8f07-fb0e9e28d1f2{stroke:#5b5b5b}.a3a4fb28-ba5c-4dfe-8f96-b6c8e7dba3ca,.bde0b271-00c3-47bc-8f07-fb0e9e28d1f2{stroke-linecap:round;stroke-linejoin:round}.ae2376f9-4403-4252-98c3-b9eaf97192d2,.bde0b271-00c3-47bc-8f07-fb0e9e28d1f2{stroke-width:1.5px}.ae2376f9-4403-4252-98c3-b9eaf97192d2{stroke:#d5d5d5;stroke-miterlimit:10}.a3a4fb28-ba5c-4dfe-8f96-b6c8e7dba3ca{stroke:#151515}.a1be7bb4-6959-4c42-beea-f05d179195d0{fill:#06c}.ac3e1a62-7e2c-457c-9482-ba99544059c5,.f7cfefb7-8dd4-4c87-b5a1-557eff8b1f63{font-size:12px}.b61d169e-c31f-4387-957c-d576533d6737{font-family:RedHatText,&quot;Red Hat Text&quot;,Overpass,&quot;Helvetica Neue&quot;,Arial,sans-serif;font-style:italic}</style></defs><path fill="#e8e8e8" d="M0 128h760v311H0z"/><text transform="translate(664.842 462.017)" font-size="10" fill="#f3f3f3" font-family="RedHatText,&quot;Red Hat Text&quot;,Overpass,&quot;Helvetica Neue&quot;,Arial,sans-serif">139_OpenStack_0221</text><path fill="none" d="M0 439h760v40H0z"/><text class="ba6451a3-668e-4f38-8a96-4b81b5d4e6aa" transform="translate(602.171 305.028)">Database</text><path class="bde0b271-00c3-47bc-8f07-fb0e9e28d1f2" d="M608.3 268.005V278.2c0 5.63 8.26 10.193 18.449 10.193S645.2 283.827 645.2 278.2v-10.195"/><path class="bde0b271-00c3-47bc-8f07-fb0e9e28d1f2" d="M608.3 257.813v10.192c0 5.629 8.26 10.192 18.449 10.192s18.449-4.563 18.449-10.192v-10.192"/><ellipse class="bde0b271-00c3-47bc-8f07-fb0e9e28d1f2" cx="626.751" cy="257.813" rx="18.449" ry="10.192"/><path class="ae2376f9-4403-4252-98c3-b9eaf97192d2" d="M482.125 253v50h-195"/><path class="ae2376f9-4403-4252-98c3-b9eaf97192d2" d="M477.125 248v50h-195"/><path class="a3a4fb28-ba5c-4dfe-8f96-b6c8e7dba3ca" d="M374.625 343.324v-35.648"/><path class="be02b8ec-8f41-439c-9853-8f002ceb2b1c" d="M379.611 341.865l-4.986 8.635-4.986-8.635h9.972zM379.611 309.135l-4.986-8.635-4.986 8.635h9.972z"/><path class="a3a4fb28-ba5c-4dfe-8f96-b6c8e7dba3ca" d="M122.5 343.324V330.5h237.125v-17.824"/><path class="be02b8ec-8f41-439c-9853-8f002ceb2b1c" d="M127.486 341.865L122.5 350.5l-4.986-8.635h9.972zM364.611 314.135l-4.986-8.635-4.987 8.635h9.973z"/><path class="a3a4fb28-ba5c-4dfe-8f96-b6c8e7dba3ca" d="M626.75 343.324V330.5H389.625v-27.824"/><path class="be02b8ec-8f41-439c-9853-8f002ceb2b1c" d="M631.736 341.865l-4.986 8.635-4.986-8.635h9.972zM394.612 304.135l-4.987-8.635-4.986 8.635h9.973z"/><path class="a1be7bb4-6959-4c42-beea-f05d179195d0" d="M277.125 243h195v50h-195z"/><text class="ac3e1a62-7e2c-457c-9482-ba99544059c5" transform="translate(320.746 271.324)">Ironic conductor(s)</text><path class="a3a4fb28-ba5c-4dfe-8f96-b6c8e7dba3ca" d="M374.625 233.324v-1.5"/><path stroke-dasharray="3.036 3.036" stroke="#151515" stroke-linecap="round" stroke-linejoin="round" fill="none" d="M374.625 228.788v-22.77"/><path class="a3a4fb28-ba5c-4dfe-8f96-b6c8e7dba3ca" d="M374.625 204.5V203"/><path class="be02b8ec-8f41-439c-9853-8f002ceb2b1c" d="M379.611 231.865l-4.986 8.635-4.986-8.635h9.972z"/><path class="a3a4fb28-ba5c-4dfe-8f96-b6c8e7dba3ca" d="M374.625 143.324V87.676"/><path class="be02b8ec-8f41-439c-9853-8f002ceb2b1c" d="M379.611 141.865l-4.986 8.635-4.986-8.635h9.972zM379.611 89.135l-4.986-8.635-4.986 8.635h9.972z"/><text class="ba6451a3-668e-4f38-8a96-4b81b5d4e6aa" transform="translate(324.57 75.818)">Cloud adminstrator</text><path class="bde0b271-00c3-47bc-8f07-fb0e9e28d1f2" d="M395.817 59.25a21.192 21.192 0 10-42.384 0z"/><ellipse class="bde0b271-00c3-47bc-8f07-fb0e9e28d1f2" cx="374.625" cy="27.401" rx="10.639" ry="10.651"/><text class="b61d169e-c31f-4387-957c-d576533d6737" transform="translate(379.639 221.124)">RPC</text><text class="b61d169e-c31f-4387-957c-d576533d6737" transform="translate(379.639 112.262)">Enroll hardware</text><path class="a1be7bb4-6959-4c42-beea-f05d179195d0" d="M277.125 153h195v50h-195z"/><text class="ac3e1a62-7e2c-457c-9482-ba99544059c5" transform="translate(323.254 181.324)">Ironic RESTful API</text><path class="ae2376f9-4403-4252-98c3-b9eaf97192d2" d="M482.125 363v50h-195"/><path class="ae2376f9-4403-4252-98c3-b9eaf97192d2" d="M477.125 358v50h-195"/><path class="f819e347-121c-413c-8286-fae1806448fe" d="M277.125 353h195v50h-195z"/><text class="f7cfefb7-8dd4-4c87-b5a1-557eff8b1f63" transform="translate(354.382 381.324)">Drivers</text><path class="ae2376f9-4403-4252-98c3-b9eaf97192d2" d="M230 363v50H35"/><path class="ae2376f9-4403-4252-98c3-b9eaf97192d2" d="M225 358v50H30"/><path class="f819e347-121c-413c-8286-fae1806448fe" d="M25 353h195v50H25z"/><text class="f7cfefb7-8dd4-4c87-b5a1-557eff8b1f63" transform="translate(102.256 381.324)">Drivers</text><path class="ae2376f9-4403-4252-98c3-b9eaf97192d2" d="M734.25 363v50h-195"/><path class="ae2376f9-4403-4252-98c3-b9eaf97192d2" d="M729.25 358v50h-195"/><path class="f819e347-121c-413c-8286-fae1806448fe" d="M529.25 353h195v50h-195z"/><text class="f7cfefb7-8dd4-4c87-b5a1-557eff8b1f63" transform="translate(606.506 381.324)">Drivers</text><g><path class="a3a4fb28-ba5c-4dfe-8f96-b6c8e7dba3ca" d="M597.839 268H481.801"/><path class="be02b8ec-8f41-439c-9853-8f002ceb2b1c" d="M596.38 263.014l8.635 4.986-8.635 4.986v-9.972zM483.26 263.014L474.625 268l8.635 4.986v-9.972z"/></g><g><path class="a3a4fb28-ba5c-4dfe-8f96-b6c8e7dba3ca" d="M481.801 178h144.95v59.168"/><path class="be02b8ec-8f41-439c-9853-8f002ceb2b1c" d="M483.26 182.986L474.625 178l8.635-4.986v9.972zM621.764 235.709l4.987 8.635 4.986-8.635h-9.973z"/></g></svg>