<svg id="bf89f82f-19b9-4962-8a4b-f96894149b7a" data-name="artwork" xmlns="http://www.w3.org/2000/svg" width="760" height="599.206" viewBox="0 0 760 599.206">
  <defs>
    <style>
      .a44908f3-ae53-42b2-9790-19b7c7fbf888, .a477bbc0-a195-4244-a6fe-58893efe2e28, .aab7a0f4-951f-4b2c-93ea-47dc3db867a6, .ad531038-4f95-4b6c-9a83-ba0fcf274ec0, .b1bb5bec-ab3e-45ec-b8b2-d15ef9ad5c98, .b5334657-1149-43d6-987f-24b6408ed838, .e4d0b0fc-82cc-4423-9a5c-edd87391557d, .f79d0dda-45a3-4ed2-8974-f59ab54e0e1d, .fb2472cb-b3e9-4da9-8cba-d9213ce6f237 {
        fill: none;
      }

      .a44908f3-ae53-42b2-9790-19b7c7fbf888, .a477bbc0-a195-4244-a6fe-58893efe2e28, .aab7a0f4-951f-4b2c-93ea-47dc3db867a6, .b1bb5bec-ab3e-45ec-b8b2-d15ef9ad5c98, .e4d0b0fc-82cc-4423-9a5c-edd87391557d, .f79d0dda-45a3-4ed2-8974-f59ab54e0e1d {
        stroke: #151515;
      }

      .a44908f3-ae53-42b2-9790-19b7c7fbf888, .a477bbc0-a195-4244-a6fe-58893efe2e28, .aab7a0f4-951f-4b2c-93ea-47dc3db867a6, .b1bb5bec-ab3e-45ec-b8b2-d15ef9ad5c98, .b5334657-1149-43d6-987f-24b6408ed838, .e4d0b0fc-82cc-4423-9a5c-edd87391557d, .f79d0dda-45a3-4ed2-8974-f59ab54e0e1d, .fb2472cb-b3e9-4da9-8cba-d9213ce6f237 {
        stroke-linecap: round;
        stroke-linejoin: round;
      }

      .e4d0b0fc-82cc-4423-9a5c-edd87391557d {
        stroke-dasharray: 3.181 3.181;
      }

      .a477bbc0-a195-4244-a6fe-58893efe2e28 {
        stroke-dasharray: 2.968 2.968;
      }

      .e354d620-fefc-413b-b3a9-660295110f56, .f19b037a-9307-421c-aa96-d097c6e5612b, .f28f5aa0-0d76-47d8-b101-5f78dd108b31 {
        fill: #151515;
      }

      .aab7a0f4-951f-4b2c-93ea-47dc3db867a6 {
        stroke-dasharray: 2.921 2.921;
      }

      .f79d0dda-45a3-4ed2-8974-f59ab54e0e1d {
        stroke-dasharray: 2.967 2.967;
      }

      .b642b096-ee18-4a50-b0bc-30c185a27d30 {
        fill: #e8e8e8;
      }

      .ac3eb8dc-124d-4f9a-b345-d68031b48634, .e354d620-fefc-413b-b3a9-660295110f56, .f28f5aa0-0d76-47d8-b101-5f78dd108b31, .fca963df-288e-4dac-b878-85a2dc1cc3e1 {
        font-size: 10px;
      }

      .f28f5aa0-0d76-47d8-b101-5f78dd108b31 {
        font-family: RedHatText-Medium, Red Hat Text;
        font-weight: 500;
      }

      .e354d620-fefc-413b-b3a9-660295110f56 {
        font-family: RedHatText-Italic, Red Hat Text;
        font-style: italic;
      }

      .a552f5f5-fb8c-4cc0-9c95-77fc52b6f1a5 {
        fill: #06c;
      }

      .ac3eb8dc-124d-4f9a-b345-d68031b48634 {
        fill: #fff;
        font-family: RedHatText-Bold, Red Hat Text;
        font-weight: 700;
      }

      .b5334657-1149-43d6-987f-24b6408ed838 {
        stroke: #06c;
      }

      .fb2472cb-b3e9-4da9-8cba-d9213ce6f237 {
        stroke: #fff;
        stroke-width: 8px;
      }

      .fca963df-288e-4dac-b878-85a2dc1cc3e1 {
        fill: #f3f3f3;
        font-family: RedHatText-Regular, Red Hat Text;
      }

      .a44908f3-ae53-42b2-9790-19b7c7fbf888 {
        stroke-dasharray: 3.011 3.011;
      }
    </style>
  </defs>
  <polyline class="b1bb5bec-ab3e-45ec-b8b2-d15ef9ad5c98" points="634.505 343.438 634.505 356.877 132.021 356.877 132.021 343.438"/>
  <g>
    <line class="b1bb5bec-ab3e-45ec-b8b2-d15ef9ad5c98" x1="75.718" y1="49.5" x2="74.218" y2="49.5"/>
    <line class="e4d0b0fc-82cc-4423-9a5c-edd87391557d" x1="71.037" y1="49.5" x2="28.091" y2="49.5"/>
    <polyline class="b1bb5bec-ab3e-45ec-b8b2-d15ef9ad5c98" points="26.5 49.5 25 49.5 25 51"/>
    <line class="a477bbc0-a195-4244-a6fe-58893efe2e28" x1="25" y1="53.968" x2="25" y2="218.673"/>
    <line class="b1bb5bec-ab3e-45ec-b8b2-d15ef9ad5c98" x1="25" y1="220.157" x2="25" y2="221.657"/>
    <polygon class="f19b037a-9307-421c-aa96-d097c6e5612b" points="74.259 44.514 82.894 49.5 74.259 54.486 74.259 44.514"/>
    <polygon class="f19b037a-9307-421c-aa96-d097c6e5612b" points="20.014 220.198 25 228.833 29.987 220.198 20.014 220.198"/>
  </g>
  <g>
    <line class="b1bb5bec-ab3e-45ec-b8b2-d15ef9ad5c98" x1="75.136" y1="138.542" x2="73.636" y2="138.542"/>
    <line class="aab7a0f4-951f-4b2c-93ea-47dc3db867a6" x1="70.715" y1="138.542" x2="42.961" y2="138.542"/>
    <polyline class="b1bb5bec-ab3e-45ec-b8b2-d15ef9ad5c98" points="41.5 138.542 40 138.542 40 140.042"/>
    <line class="f79d0dda-45a3-4ed2-8974-f59ab54e0e1d" x1="40" y1="143.01" x2="40" y2="218.673"/>
    <line class="b1bb5bec-ab3e-45ec-b8b2-d15ef9ad5c98" x1="40" y1="220.157" x2="40" y2="221.657"/>
    <polygon class="f19b037a-9307-421c-aa96-d097c6e5612b" points="73.677 133.556 82.312 138.542 73.677 143.529 73.677 133.556"/>
    <polygon class="f19b037a-9307-421c-aa96-d097c6e5612b" points="35.014 220.198 40 228.833 44.987 220.198 35.014 220.198"/>
  </g>
  <polyline class="b1bb5bec-ab3e-45ec-b8b2-d15ef9ad5c98" points="288.604 366.915 288.521 391.88 209.521 391.828 209.604 366.862"/>
  <polyline class="b1bb5bec-ab3e-45ec-b8b2-d15ef9ad5c98" points="549.504 451.88 549.504 475.837 298.521 475.837 298.521 451.88"/>
  <polyline class="b1bb5bec-ab3e-45ec-b8b2-d15ef9ad5c98" points="719.505 401.88 719.505 441.88 298.521 441.88 298.521 401.877"/>
  <polyline class="b1bb5bec-ab3e-45ec-b8b2-d15ef9ad5c98" points="719.505 343.438 719.505 391.88 464.521 391.88 464.521 366.866"/>
  <polyline class="b1bb5bec-ab3e-45ec-b8b2-d15ef9ad5c98" points="719.505 520.837 719.505 545.837 132.021 545.837 132.021 366.862"/>
  <line class="b1bb5bec-ab3e-45ec-b8b2-d15ef9ad5c98" x1="298.521" y1="343.438" x2="298.521" y2="356.877"/>
  <line class="b1bb5bec-ab3e-45ec-b8b2-d15ef9ad5c98" x1="379.521" y1="343.438" x2="379.521" y2="356.877"/>
  <line class="b1bb5bec-ab3e-45ec-b8b2-d15ef9ad5c98" x1="209.521" y1="343.438" x2="209.521" y2="356.877"/>
  <line class="b1bb5bec-ab3e-45ec-b8b2-d15ef9ad5c98" x1="464.521" y1="343.438" x2="464.521" y2="356.877"/>
  <line class="b1bb5bec-ab3e-45ec-b8b2-d15ef9ad5c98" x1="549.503" y1="343.438" x2="549.503" y2="356.877"/>
  <line class="b1bb5bec-ab3e-45ec-b8b2-d15ef9ad5c98" x1="549.503" y1="366.889" x2="549.503" y2="391.88"/>
  <line class="b1bb5bec-ab3e-45ec-b8b2-d15ef9ad5c98" x1="464.521" y1="401.88" x2="464.521" y2="441.88"/>
  <line class="b1bb5bec-ab3e-45ec-b8b2-d15ef9ad5c98" x1="298.521" y1="520.837" x2="298.521" y2="545.837"/>
  <rect class="b642b096-ee18-4a50-b0bc-30c185a27d30" x="85" y="15.943" width="674.897" height="67.049"/>
  <rect class="b642b096-ee18-4a50-b0bc-30c185a27d30" y="231.438" width="65" height="112"/>
  <text class="f28f5aa0-0d76-47d8-b101-5f78dd108b31" transform="translate(14.205 283.493)">Identity<tspan x="1.62" y="11">service</tspan></text>
  <text class="e354d620-fefc-413b-b3a9-660295110f56" transform="translate(234.638 404.72)">Stores<tspan x="-14.98" y="11">block devices</tspan><tspan x="-2.79" y="22">for VMs</tspan></text>
  <text class="e354d620-fefc-413b-b3a9-660295110f56" transform="translate(328.603 41.615)">Graphical user interface</text>
  <text class="e354d620-fefc-413b-b3a9-660295110f56" transform="translate(433.347 454.72)">Stores images</text>
  <polyline class="b1bb5bec-ab3e-45ec-b8b2-d15ef9ad5c98" points="379.521 381.877 379.521 391.88 298.521 391.88 298.521 366.877"/>
  <text class="e354d620-fefc-413b-b3a9-660295110f56" transform="translate(324.596 404.72)">Stores<tspan x="-7.64" y="11">file shares</tspan><tspan x="-2.79" y="22">for VMs</tspan></text>
  <text class="e354d620-fefc-413b-b3a9-660295110f56" transform="translate(560.838 404.72)">Stores images<tspan x="9.13" y="11">as objects</tspan></text>
  <text class="e354d620-fefc-413b-b3a9-660295110f56" transform="translate(375.708 488.677)">Stores objects for VMs</text>
  <polyline class="b1bb5bec-ab3e-45ec-b8b2-d15ef9ad5c98" points="719.505 451.88 719.505 510.837 298.521 510.837 298.521 486.88"/>
  <text class="e354d620-fefc-413b-b3a9-660295110f56" transform="translate(372.964 523.677)">Provisions VM instances</text>
  <text class="e354d620-fefc-413b-b3a9-660295110f56" transform="translate(379.054 558.677)">Network connectivity</text>
  <text class="e354d620-fefc-413b-b3a9-660295110f56" transform="translate(330.514 369.718)">Collects usage statistics</text>
  <text class="f28f5aa0-0d76-47d8-b101-5f78dd108b31" transform="translate(126.258 52.785)">Dashboard service</text>
  <g>
    <path class="a552f5f5-fb8c-4cc0-9c95-77fc52b6f1a5" d="M120.467,49.5a9.5,9.5,0,1,1-9.5-9.5A9.5,9.5,0,0,1,120.467,49.5Z"/>
    <text class="ac3eb8dc-124d-4f9a-b345-d68031b48634" transform="translate(109.042 52.785)">1</text>
  </g>
  <g>
    <path class="a552f5f5-fb8c-4cc0-9c95-77fc52b6f1a5" d="M42,258.715a9.5,9.5,0,1,1-9.5-9.5A9.5,9.5,0,0,1,42,258.715Z"/>
    <text class="ac3eb8dc-124d-4f9a-b345-d68031b48634" transform="translate(29.515 261.999)">2</text>
  </g>
  <g>
    <rect class="b642b096-ee18-4a50-b0bc-30c185a27d30" x="680" y="231.438" width="80" height="112"/>
    <text class="f28f5aa0-0d76-47d8-b101-5f78dd108b31" transform="translate(705.775 283.493)">Load-<tspan x="-8.33" y="11">balancing</tspan><tspan x="-2.45" y="22">service</tspan></text>
    <g>
      <path class="a552f5f5-fb8c-4cc0-9c95-77fc52b6f1a5" d="M729.5,258.715a9.5,9.5,0,1,1-9.5-9.5A9.5,9.5,0,0,1,729.5,258.715Z"/>
      <text class="ac3eb8dc-124d-4f9a-b345-d68031b48634" transform="translate(714.621 261.999)">10</text>
    </g>
  </g>
  <rect class="b642b096-ee18-4a50-b0bc-30c185a27d30" x="85" y="105.051" width="674.897" height="67.049"/>
  <text class="f28f5aa0-0d76-47d8-b101-5f78dd108b31" transform="translate(126.258 141.828)">Orchestration service</text>
  <g>
    <path class="a552f5f5-fb8c-4cc0-9c95-77fc52b6f1a5" d="M120.467,138.543a9.5,9.5,0,1,1-9.5-9.5A9.5,9.5,0,0,1,120.467,138.543Z"/>
    <text class="ac3eb8dc-124d-4f9a-b345-d68031b48634" transform="translate(107.118 141.828)">11</text>
  </g>
  <text class="e354d620-fefc-413b-b3a9-660295110f56" transform="translate(348.773 130.821)">Creates stacks</text>
  <g>
    <polyline class="b1bb5bec-ab3e-45ec-b8b2-d15ef9ad5c98" points="132.521 221.657 132.521 206.5 712.504 206.5 712.504 221.657"/>
    <polygon class="f19b037a-9307-421c-aa96-d097c6e5612b" points="137.508 220.198 132.521 228.833 127.535 220.198 137.508 220.198"/>
    <polygon class="f19b037a-9307-421c-aa96-d097c6e5612b" points="707.518 220.198 712.504 228.833 717.49 220.198 707.518 220.198"/>
  </g>
  <g>
    <rect class="b642b096-ee18-4a50-b0bc-30c185a27d30" x="340" y="231.438" width="80" height="112"/>
    <text class="f28f5aa0-0d76-47d8-b101-5f78dd108b31" transform="translate(353.595 283.493)">Shared File<tspan x="6.43" y="11">Systems</tspan><tspan x="9.73" y="22">service</tspan></text>
    <g>
      <path class="a552f5f5-fb8c-4cc0-9c95-77fc52b6f1a5" d="M389.5,258.715a9.5,9.5,0,1,1-9.5-9.5A9.5,9.5,0,0,1,389.5,258.715Z"/>
      <text class="ac3eb8dc-124d-4f9a-b345-d68031b48634" transform="translate(376.745 261.999)">6</text>
    </g>
  </g>
  <g>
    <rect class="b642b096-ee18-4a50-b0bc-30c185a27d30" x="85" y="231.438" width="80" height="112"/>
    <text class="f28f5aa0-0d76-47d8-b101-5f78dd108b31" transform="translate(97.7 283.493)">Networking<tspan x="10.625" y="11">service</tspan></text>
    <g>
      <path class="a552f5f5-fb8c-4cc0-9c95-77fc52b6f1a5" d="M134.5,258.715a9.5,9.5,0,1,1-9.5-9.5A9.5,9.5,0,0,1,134.5,258.715Z"/>
      <text class="ac3eb8dc-124d-4f9a-b345-d68031b48634" transform="translate(121.835 261.999)">3</text>
    </g>
  </g>
  <g>
    <rect class="b642b096-ee18-4a50-b0bc-30c185a27d30" x="170" y="231.438" width="80" height="112"/>
    <text class="f28f5aa0-0d76-47d8-b101-5f78dd108b31" transform="translate(196.951 283.493)">Block<tspan x="-5.82" y="11">Storage</tspan><tspan x="-3.625" y="22">service</tspan></text>
    <g>
      <path class="a552f5f5-fb8c-4cc0-9c95-77fc52b6f1a5" d="M219.5,258.715a9.5,9.5,0,1,1-9.5-9.5A9.5,9.5,0,0,1,219.5,258.715Z"/>
      <text class="ac3eb8dc-124d-4f9a-b345-d68031b48634" transform="translate(206.55 261.999)">4</text>
    </g>
  </g>
  <g>
    <rect class="b642b096-ee18-4a50-b0bc-30c185a27d30" x="255" y="231.438" width="80" height="112"/>
    <text class="f28f5aa0-0d76-47d8-b101-5f78dd108b31" transform="translate(273.115 283.493)">Compute<tspan x="5.21" y="11">service</tspan></text>
    <g>
      <path class="a552f5f5-fb8c-4cc0-9c95-77fc52b6f1a5" d="M304.5,258.715a9.5,9.5,0,1,1-9.5-9.5A9.5,9.5,0,0,1,304.5,258.715Z"/>
      <text class="ac3eb8dc-124d-4f9a-b345-d68031b48634" transform="translate(291.92 261.999)">5</text>
    </g>
  </g>
  <rect class="b642b096-ee18-4a50-b0bc-30c185a27d30" x="425" y="231.438" width="80" height="112"/>
  <text class="f28f5aa0-0d76-47d8-b101-5f78dd108b31" transform="translate(450.575 283.493)">Image<tspan x="-4.445" y="11">Storage</tspan><tspan x="-2.25" y="22">service</tspan></text>
  <g>
    <path class="a552f5f5-fb8c-4cc0-9c95-77fc52b6f1a5" d="M474.5,258.715a9.5,9.5,0,1,1-9.5-9.5A9.5,9.5,0,0,1,474.5,258.715Z"/>
    <text class="ac3eb8dc-124d-4f9a-b345-d68031b48634" transform="translate(461.911 261.999)">7</text>
  </g>
  <rect class="b642b096-ee18-4a50-b0bc-30c185a27d30" x="509.983" y="231.438" width="80" height="112"/>
  <g>
    <path class="a552f5f5-fb8c-4cc0-9c95-77fc52b6f1a5" d="M559.483,258.715a9.5,9.5,0,1,1-9.5-9.5A9.5,9.5,0,0,1,559.483,258.715Z"/>
    <text class="ac3eb8dc-124d-4f9a-b345-d68031b48634" transform="translate(546.794 261.999)">8</text>
  </g>
  <g>
    <rect class="b642b096-ee18-4a50-b0bc-30c185a27d30" x="594.983" y="231.438" width="80" height="112"/>
    <text class="f28f5aa0-0d76-47d8-b101-5f78dd108b31" transform="translate(610.833 283.493)">Telemetry<tspan x="7.475" y="11">service</tspan></text>
    <g>
      <path class="a552f5f5-fb8c-4cc0-9c95-77fc52b6f1a5" d="M644.483,258.715a9.5,9.5,0,1,1-9.5-9.5A9.5,9.5,0,0,1,644.483,258.715Z"/>
      <text class="ac3eb8dc-124d-4f9a-b345-d68031b48634" transform="translate(631.748 261.999)">9</text>
    </g>
  </g>
  <g>
    <polyline class="b1bb5bec-ab3e-45ec-b8b2-d15ef9ad5c98" points="472.521 221.657 472.521 137.981 232.163 137.981"/>
    <polygon class="f19b037a-9307-421c-aa96-d097c6e5612b" points="477.508 220.198 472.521 228.833 467.535 220.198 477.508 220.198"/>
  </g>
  <g>
    <line class="b5334657-1149-43d6-987f-24b6408ed838" x1="505.713" y1="49.751" x2="505.713" y2="95.305"/>
    <polygon class="a552f5f5-fb8c-4cc0-9c95-77fc52b6f1a5" points="500.726 93.846 505.713 102.481 510.699 93.846 500.726 93.846"/>
  </g>
  <g>
    <g>
      <line class="b1bb5bec-ab3e-45ec-b8b2-d15ef9ad5c98" x1="217.5" y1="206.5" x2="217.5" y2="221.657"/>
      <polygon class="f19b037a-9307-421c-aa96-d097c6e5612b" points="212.514 220.198 217.5 228.833 222.486 220.198 212.514 220.198"/>
    </g>
    <line class="fb2472cb-b3e9-4da9-8cba-d9213ce6f237" x1="202.5" y1="194.087" x2="202.5" y2="212.8"/>
    <g>
      <line class="b5334657-1149-43d6-987f-24b6408ed838" x1="202.5" y1="191.5" x2="202.5" y2="221.657"/>
      <polygon class="a552f5f5-fb8c-4cc0-9c95-77fc52b6f1a5" points="197.514 220.198 202.5 228.833 207.486 220.198 197.514 220.198"/>
    </g>
  </g>
  <g>
    <g>
      <line class="b1bb5bec-ab3e-45ec-b8b2-d15ef9ad5c98" x1="302.5" y1="206.5" x2="302.5" y2="221.657"/>
      <polygon class="f19b037a-9307-421c-aa96-d097c6e5612b" points="297.514 220.198 302.5 228.833 307.486 220.198 297.514 220.198"/>
    </g>
    <line class="fb2472cb-b3e9-4da9-8cba-d9213ce6f237" x1="287.5" y1="194.087" x2="287.5" y2="212.8"/>
    <g>
      <line class="b5334657-1149-43d6-987f-24b6408ed838" x1="287.5" y1="191.5" x2="287.5" y2="221.657"/>
      <polygon class="a552f5f5-fb8c-4cc0-9c95-77fc52b6f1a5" points="282.514 220.198 287.5 228.833 292.486 220.198 282.514 220.198"/>
    </g>
  </g>
  <g>
    <g>
      <line class="b1bb5bec-ab3e-45ec-b8b2-d15ef9ad5c98" x1="387.5" y1="206.5" x2="387.5" y2="221.657"/>
      <polygon class="f19b037a-9307-421c-aa96-d097c6e5612b" points="382.514 220.198 387.5 228.833 392.486 220.198 382.514 220.198"/>
    </g>
    <line class="fb2472cb-b3e9-4da9-8cba-d9213ce6f237" x1="372.5" y1="194.087" x2="372.5" y2="212.8"/>
    <g>
      <line class="b5334657-1149-43d6-987f-24b6408ed838" x1="372.5" y1="191.5" x2="372.5" y2="221.657"/>
      <polygon class="a552f5f5-fb8c-4cc0-9c95-77fc52b6f1a5" points="367.514 220.198 372.5 228.833 377.486 220.198 367.514 220.198"/>
    </g>
  </g>
  <g>
    <g>
      <line class="b1bb5bec-ab3e-45ec-b8b2-d15ef9ad5c98" x1="627.483" y1="206.5" x2="627.483" y2="221.657"/>
      <polygon class="f19b037a-9307-421c-aa96-d097c6e5612b" points="622.496 220.198 627.483 228.833 632.469 220.198 622.496 220.198"/>
    </g>
    <line class="fb2472cb-b3e9-4da9-8cba-d9213ce6f237" x1="642.483" y1="194.087" x2="642.483" y2="212.8"/>
    <g>
      <line class="b5334657-1149-43d6-987f-24b6408ed838" x1="642.483" y1="191.5" x2="642.483" y2="221.657"/>
      <polygon class="a552f5f5-fb8c-4cc0-9c95-77fc52b6f1a5" points="637.496 220.198 642.483 228.833 647.469 220.198 637.496 220.198"/>
    </g>
  </g>
  <g>
    <g>
      <line class="b1bb5bec-ab3e-45ec-b8b2-d15ef9ad5c98" x1="542.504" y1="206.5" x2="542.504" y2="221.657"/>
      <polygon class="f19b037a-9307-421c-aa96-d097c6e5612b" points="537.518 220.198 542.504 228.833 547.49 220.198 537.518 220.198"/>
    </g>
    <line class="fb2472cb-b3e9-4da9-8cba-d9213ce6f237" x1="557.004" y1="194.087" x2="557.004" y2="212.8"/>
  </g>
  <line class="fb2472cb-b3e9-4da9-8cba-d9213ce6f237" x1="457.521" y1="194.087" x2="457.521" y2="212.8"/>
  <line class="fb2472cb-b3e9-4da9-8cba-d9213ce6f237" x1="465.165" y1="191.5" x2="478.878" y2="191.5"/>
  <g>
    <line class="b5334657-1149-43d6-987f-24b6408ed838" x1="457.521" y1="191.5" x2="457.521" y2="221.657"/>
    <polygon class="a552f5f5-fb8c-4cc0-9c95-77fc52b6f1a5" points="452.535 220.198 457.521 228.833 462.508 220.198 452.535 220.198"/>
  </g>
  <g>
    <polyline class="b5334657-1149-43d6-987f-24b6408ed838" points="117.521 221.657 117.521 191.5 727.504 191.5 727.504 221.657"/>
    <polygon class="a552f5f5-fb8c-4cc0-9c95-77fc52b6f1a5" points="122.508 220.198 117.521 228.833 112.535 220.198 122.508 220.198"/>
    <polygon class="a552f5f5-fb8c-4cc0-9c95-77fc52b6f1a5" points="722.518 220.198 727.504 228.833 732.49 220.198 722.518 220.198"/>
  </g>
  <g>
    <polyline class="b5334657-1149-43d6-987f-24b6408ed838" points="557.504 221.657 557.504 48.775 219.021 48.775"/>
    <polygon class="a552f5f5-fb8c-4cc0-9c95-77fc52b6f1a5" points="562.49 220.198 557.504 228.833 552.518 220.198 562.49 220.198"/>
  </g>
  <rect class="b642b096-ee18-4a50-b0bc-30c185a27d30" x="519.946" y="105.051" width="180.37" height="67.049"/>
  <g>
    <text class="fca963df-288e-4dac-b878-85a2dc1cc3e1" transform="translate(666.762 582.223)">134_OpenStack_0121</text>
    <rect class="ad531038-4f95-4b6c-9a83-ba0fcf274ec0" y="559.206" width="760" height="40"/>
  </g>
  <g>
    <line class="b1bb5bec-ab3e-45ec-b8b2-d15ef9ad5c98" x1="74.676" y1="324.33" x2="76.176" y2="324.33"/>
    <line class="a44908f3-ae53-42b2-9790-19b7c7fbf888" x1="79.187" y1="324.33" x2="740.109" y2="324.33"/>
    <line class="b1bb5bec-ab3e-45ec-b8b2-d15ef9ad5c98" x1="741.614" y1="324.33" x2="743.114" y2="324.33"/>
    <polygon class="f19b037a-9307-421c-aa96-d097c6e5612b" points="76.135 329.316 67.5 324.33 76.135 319.344 76.135 329.316"/>
    <polygon class="f19b037a-9307-421c-aa96-d097c6e5612b" points="741.655 329.316 750.291 324.33 741.655 319.344 741.655 329.316"/>
  </g>
  <text class="f28f5aa0-0d76-47d8-b101-5f78dd108b31" transform="translate(534.063 283.493)">Object<tspan x="-2.95" y="11">Storage</tspan><tspan x="-0.755" y="22">service</tspan></text>
</svg>
