<svg id="a7fa9573-abe2-4a40-ae64-fae5bf205cc4" data-name="artwork" xmlns="http://www.w3.org/2000/svg" width="760" height="519.507"><defs><style>.b7c84ee7-c086-42d9-93ee-26d53bfb781f,.e7efa073-ee49-4805-a810-fbb8987e49b0{font-size:11px}.b7c84ee7-c086-42d9-93ee-26d53bfb781f,.e3f0e370-4c82-46bf-ba70-3fba369fa8db,.e7efa073-ee49-4805-a810-fbb8987e49b0{fill:#151515}.b7c84ee7-c086-42d9-93ee-26d53bfb781f{font-family:RedHatText,&quot;Red Hat Text&quot;,Overpass,&quot;Helvetica Neue&quot;,Arial,sans-serif;font-weight:500}.b3fb0424-c963-40cb-9f46-075ec073efa1,.b418bf25-9744-4ab9-b65b-f320f7318127,.b7f18908-c244-4e26-81e8-4de98e875cf5,.bd0843c9-21b4-4b81-9c52-8a9f27180b8d,.f2a6a062-2134-43e7-8296-436a2fa25740,.f3fdb182-0969-4fc9-953e-d5263db0d50f,.f69dd7fb-6bbf-4ca0-aca9-665a506b8919{fill:none}.bd0843c9-21b4-4b81-9c52-8a9f27180b8d{stroke:#06c}.b3fb0424-c963-40cb-9f46-075ec073efa1,.b418bf25-9744-4ab9-b65b-f320f7318127,.b7f18908-c244-4e26-81e8-4de98e875cf5,.bd0843c9-21b4-4b81-9c52-8a9f27180b8d,.f2a6a062-2134-43e7-8296-436a2fa25740,.f3fdb182-0969-4fc9-953e-d5263db0d50f,.f69dd7fb-6bbf-4ca0-aca9-665a506b8919,.fbc04b7e-7692-4d2e-8e80-0337122aab34{stroke-linecap:round;stroke-linejoin:round}.b418bf25-9744-4ab9-b65b-f320f7318127,.bd0843c9-21b4-4b81-9c52-8a9f27180b8d{stroke-width:2px}.b9a814cc-2dba-4cfb-885b-03db17853ad3{fill:#06c}.ac1a4e9a-8a92-46a2-91ec-3546765ddb62,.fbc04b7e-7692-4d2e-8e80-0337122aab34{fill:#fff}.b418bf25-9744-4ab9-b65b-f320f7318127,.f2a6a062-2134-43e7-8296-436a2fa25740,.fbc04b7e-7692-4d2e-8e80-0337122aab34{stroke:#5b5b5b}.f2a6a062-2134-43e7-8296-436a2fa25740,.fbc04b7e-7692-4d2e-8e80-0337122aab34{stroke-width:1.5px}.b7f18908-c244-4e26-81e8-4de98e875cf5{stroke:#151515}.b3fb0424-c963-40cb-9f46-075ec073efa1,.f3fdb182-0969-4fc9-953e-d5263db0d50f,.f69dd7fb-6bbf-4ca0-aca9-665a506b8919{stroke:#c4c4c4}.f3fdb182-0969-4fc9-953e-d5263db0d50f{stroke-dasharray:2.981 2.981}.b3fb0424-c963-40cb-9f46-075ec073efa1{stroke-dasharray:3 3}.fdb956ea-1dce-4b0b-a7c0-7a46fd063796{fill:#e8e8e8}.e7efa073-ee49-4805-a810-fbb8987e49b0{font-family:RedHatText,&quot;Red Hat Text&quot;,Overpass,&quot;Helvetica Neue&quot;,Arial,sans-serif;font-weight:700}</style></defs><path d="M759 178.732v299.775H227.5V178.732H759m1-1H226.5v301.775H760V177.732z" fill="#c4c4c4"/><text class="b7c84ee7-c086-42d9-93ee-26d53bfb781f" transform="translate(0 207.113)">Private network</text><path class="bd0843c9-21b4-4b81-9c52-8a9f27180b8d" d="M740 192.352l-739 1.5M104.094 159.356v23.824"/><path class="b9a814cc-2dba-4cfb-885b-03db17853ad3" d="M99.107 181.721l4.987 8.635 4.986-8.635h-9.973z"/><path class="bd0843c9-21b4-4b81-9c52-8a9f27180b8d" d="M184.258 171.356v11.824"/><path class="b9a814cc-2dba-4cfb-885b-03db17853ad3" d="M179.272 181.721l4.986 8.635 4.987-8.635h-9.973z"/><text class="b7c84ee7-c086-42d9-93ee-26d53bfb781f" transform="translate(162.055 154.659)">Route53<tspan x="10.433" y="12">DNS</tspan></text><path class="fbc04b7e-7692-4d2e-8e80-0337122aab34" d="M156.758 124.314h55v13.75h-55z"/><path class="b418bf25-9744-4ab9-b65b-f320f7318127" d="M205.879 130.211"/><path class="f2a6a062-2134-43e7-8296-436a2fa25740" d="M162.651 129.176v3.965M168.544 129.176v3.965M174.437 129.176v3.965M180.33 129.176v3.965M186.223 129.176v3.965M192.115 129.176v3.965"/><path class="b7f18908-c244-4e26-81e8-4de98e875cf5" d="M104.094 101.864V82.54"/><path class="e3f0e370-4c82-46bf-ba70-3fba369fa8db" d="M109.08 100.405l-4.986 8.635-4.987-8.635h9.973z"/><path class="b7f18908-c244-4e26-81e8-4de98e875cf5" d="M26.713 183.18V69.41"/><path class="e3f0e370-4c82-46bf-ba70-3fba369fa8db" d="M31.699 181.721l-4.986 8.636-4.987-8.636h9.973z"/><text class="b7c84ee7-c086-42d9-93ee-26d53bfb781f" transform="translate(0 64.096)">Developer</text><path class="fbc04b7e-7692-4d2e-8e80-0337122aab34" d="M45.162 47.529a18.451 18.451 0 00-36.9 0z"/><ellipse class="fbc04b7e-7692-4d2e-8e80-0337122aab34" cx="26.713" cy="20.175" rx="9.262" ry="9.148"/><text class="b7c84ee7-c086-42d9-93ee-26d53bfb781f" transform="translate(83.249 64.097)">Red Hat<tspan x="-13.25" y="12">Management</tspan></text><path class="fbc04b7e-7692-4d2e-8e80-0337122aab34" d="M122.544 47.529a18.451 18.451 0 00-36.9 0z"/><ellipse class="fbc04b7e-7692-4d2e-8e80-0337122aab34" cx="104.095" cy="20.175" rx="9.262" ry="9.148"/><text class="b7c84ee7-c086-42d9-93ee-26d53bfb781f" transform="translate(74.378 154.659)">PrivateLink</text><path class="fbc04b7e-7692-4d2e-8e80-0337122aab34" d="M125.361 128.967a6.694 6.694 0 00-6.207-4.156 13.4 13.4 0 00-25.035-6.511 10.22 10.22 0 00-1.726-.157 9.968 9.968 0 100 19.936h19.486"/><path d="M125.625 131.975l-4.594-.975a.949.949 0 00-.4 0l-4.594.976a.959.959 0 00-.758.937v5.287a5.551 5.551 0 1011.1 0v-5.287a.959.959 0 00-.754-.938z" fill="#5b5b5b"/><path class="b7f18908-c244-4e26-81e8-4de98e875cf5" d="M485.25 271.834v-51.357h-39.824"/><path class="e3f0e370-4c82-46bf-ba70-3fba369fa8db" d="M446.885 215.49l-8.635 4.987 8.635 4.986v-9.973z"/><path class="b7f18908-c244-4e26-81e8-4de98e875cf5" d="M614 271.834v-51.357H500.25v41.681"/><path class="e3f0e370-4c82-46bf-ba70-3fba369fa8db" d="M495.263 260.699l4.987 8.635 4.986-8.635h-9.973z"/><path class="b7f18908-c244-4e26-81e8-4de98e875cf5" d="M664.5 249.372v12.786"/><path class="e3f0e370-4c82-46bf-ba70-3fba369fa8db" d="M659.514 260.699l4.986 8.635 4.986-8.635h-9.972z"/><path class="b7f18908-c244-4e26-81e8-4de98e875cf5" d="M329.568 262.158v-41.681h55.557"/><path class="e3f0e370-4c82-46bf-ba70-3fba369fa8db" d="M334.554 260.699l-4.986 8.635-4.987-8.635h9.973z"/><path class="f69dd7fb-6bbf-4ca0-aca9-665a506b8919" d="M402.5 450.334v1.5H401"/><path class="f3fdb182-0969-4fc9-953e-d5263db0d50f" d="M398.019 451.834H244.491"/><path class="f69dd7fb-6bbf-4ca0-aca9-665a506b8919" d="M243 451.834h-1.5v-1.5"/><path class="b3fb0424-c963-40cb-9f46-075ec073efa1" d="M241.5 447.334v-172.5"/><path class="f69dd7fb-6bbf-4ca0-aca9-665a506b8919" d="M241.5 273.334v-1.5h1.5"/><path class="f3fdb182-0969-4fc9-953e-d5263db0d50f" d="M245.981 271.834h153.528"/><path class="f69dd7fb-6bbf-4ca0-aca9-665a506b8919" d="M401 271.834h1.5v1.5"/><path class="b3fb0424-c963-40cb-9f46-075ec073efa1" d="M402.5 276.334v172.5"/><path class="fdb956ea-1dce-4b0b-a7c0-7a46fd063796" d="M251.5 281.834h141v155h-141z"/><text class="e7efa073-ee49-4805-a810-fbb8987e49b0" transform="translate(261.5 301.938)">Control plane nodes <tspan x="0" y="12">(x3)</tspan></text><path class="ac1a4e9a-8a92-46a2-91ec-3546765ddb62" d="M261.5 326.834h120v30h-120z"/><text class="b7c84ee7-c086-42d9-93ee-26d53bfb781f" transform="translate(297.487 344.881)">apiserver</text><path class="ac1a4e9a-8a92-46a2-91ec-3546765ddb62" d="M261.5 361.834h120v30h-120z"/><text class="b7c84ee7-c086-42d9-93ee-26d53bfb781f" transform="translate(309.839 379.881)">etcd</text><path class="ac1a4e9a-8a92-46a2-91ec-3546765ddb62" d="M261.5 396.834h120v30h-120z"/><text class="b7c84ee7-c086-42d9-93ee-26d53bfb781f" transform="translate(296.321 414.881)">controller</text><g><path class="f69dd7fb-6bbf-4ca0-aca9-665a506b8919" d="M573.75 450.334v1.5h-1.5"/><path class="f3fdb182-0969-4fc9-953e-d5263db0d50f" d="M569.269 451.834H415.741"/><path class="f69dd7fb-6bbf-4ca0-aca9-665a506b8919" d="M414.25 451.834h-1.5v-1.5"/><path class="b3fb0424-c963-40cb-9f46-075ec073efa1" d="M412.75 447.334v-172.5"/><path class="f69dd7fb-6bbf-4ca0-aca9-665a506b8919" d="M412.75 273.334v-1.5h1.5"/><path class="f3fdb182-0969-4fc9-953e-d5263db0d50f" d="M417.231 271.834h153.528"/><path class="f69dd7fb-6bbf-4ca0-aca9-665a506b8919" d="M572.25 271.834h1.5v1.5"/><path class="b3fb0424-c963-40cb-9f46-075ec073efa1" d="M573.75 276.334v172.5"/></g><path class="fdb956ea-1dce-4b0b-a7c0-7a46fd063796" d="M422.75 281.834h141v155h-141z"/><text class="e7efa073-ee49-4805-a810-fbb8987e49b0" transform="translate(432.75 301.938)">Worker nodes <tspan x="0" y="12">(xN)</tspan></text><path class="ac1a4e9a-8a92-46a2-91ec-3546765ddb62" d="M432.75 326.834h120v30h-120z"/><text class="b7c84ee7-c086-42d9-93ee-26d53bfb781f" transform="translate(455.762 344.881)">Compute (xN)</text><path class="ac1a4e9a-8a92-46a2-91ec-3546765ddb62" d="M432.75 361.834h120v30h-120z"/><text class="b7c84ee7-c086-42d9-93ee-26d53bfb781f" transform="translate(445.016 379.881)">Persistent storage</text><g><text class="b7c84ee7-c086-42d9-93ee-26d53bfb781f" transform="translate(385.845 243.945)">API NLB</text><path class="fbc04b7e-7692-4d2e-8e80-0337122aab34" d="M380.125 213.602h55v13.75h-55z"/><path class="b418bf25-9744-4ab9-b65b-f320f7318127" d="M429.246 219.498"/><path class="f2a6a062-2134-43e7-8296-436a2fa25740" d="M386.018 218.464v3.965M391.911 218.464v3.965M397.804 218.464v3.965M403.696 218.464v3.965M409.589 218.464v3.965M415.482 218.464v3.965"/></g><g><text class="b7c84ee7-c086-42d9-93ee-26d53bfb781f" transform="translate(641.917 243.947)">App ELB</text><path class="fbc04b7e-7692-4d2e-8e80-0337122aab34" d="M637 213.602h55v13.75h-55z"/><path class="b418bf25-9744-4ab9-b65b-f320f7318127" d="M686.121 219.498"/><path class="f2a6a062-2134-43e7-8296-436a2fa25740" d="M643.735 221.459h8.25"/></g><g><path class="bd0843c9-21b4-4b81-9c52-8a9f27180b8d" d="M407.625 193.019v10.141"/><path class="b9a814cc-2dba-4cfb-885b-03db17853ad3" d="M402.638 201.701l4.987 8.635 4.986-8.635h-9.973z"/></g><g><path class="bd0843c9-21b4-4b81-9c52-8a9f27180b8d" d="M664.5 193.019v10.141"/><path class="b9a814cc-2dba-4cfb-885b-03db17853ad3" d="M659.514 201.701l4.986 8.635 4.986-8.635h-9.972z"/></g><g><path class="f69dd7fb-6bbf-4ca0-aca9-665a506b8919" d="M745 450.334v1.5h-1.5"/><path class="f3fdb182-0969-4fc9-953e-d5263db0d50f" d="M740.519 451.834H586.991"/><path class="f69dd7fb-6bbf-4ca0-aca9-665a506b8919" d="M585.5 451.834H584v-1.5"/><path class="b3fb0424-c963-40cb-9f46-075ec073efa1" d="M584 447.334v-172.5"/><path class="f69dd7fb-6bbf-4ca0-aca9-665a506b8919" d="M584 273.334v-1.5h1.5"/><path class="f3fdb182-0969-4fc9-953e-d5263db0d50f" d="M588.481 271.834h153.528"/><path class="f69dd7fb-6bbf-4ca0-aca9-665a506b8919" d="M743.5 271.834h1.5v1.5"/><path class="b3fb0424-c963-40cb-9f46-075ec073efa1" d="M745 276.334v172.5"/></g><path class="fdb956ea-1dce-4b0b-a7c0-7a46fd063796" d="M594 281.834h141v155H594z"/><text class="e7efa073-ee49-4805-a810-fbb8987e49b0" transform="translate(604 301.938)">Infra nodes <tspan x="0" y="12">(x2, x3)</tspan></text><path class="ac1a4e9a-8a92-46a2-91ec-3546765ddb62" d="M604 326.834h120v30H604z"/><text class="b7c84ee7-c086-42d9-93ee-26d53bfb781f" transform="translate(643.925 344.881)">registry</text><path class="ac1a4e9a-8a92-46a2-91ec-3546765ddb62" d="M604 361.834h120v30H604z"/><text class="b7c84ee7-c086-42d9-93ee-26d53bfb781f" transform="translate(647.758 379.881)">router</text><path class="ac1a4e9a-8a92-46a2-91ec-3546765ddb62" d="M604 396.834h120v30H604z"/><text class="b7c84ee7-c086-42d9-93ee-26d53bfb781f" transform="translate(635.642 414.881)">monitoring</text><g><text transform="translate(702.797 162.732)" font-size="12" font-family="RedHatText,&quot;Red Hat Text&quot;,Overpass,&quot;Helvetica Neue&quot;,Arial,sans-serif" font-weight="700" fill="#151515">AWS VPC</text><path class="b7f18908-c244-4e26-81e8-4de98e875cf5" d="M699.599 158.204l-22.864 19.528"/></g><path class="ac1a4e9a-8a92-46a2-91ec-3546765ddb62" d="M274.429 444.078h95.143v14.513h-95.143zM445.679 444.078h95.143v14.513h-95.143zM616.929 444.078h95.143v14.513h-95.143z"/><text class="b7c84ee7-c086-42d9-93ee-26d53bfb781f" transform="translate(280.085 454.381)">Availability zone<tspan x="23.683" y="12">(x1, x3)</tspan></text><text class="b7c84ee7-c086-42d9-93ee-26d53bfb781f" transform="translate(451.336 454.381)">Availability zone<tspan x="23.683" y="12">(x1, x3)</tspan></text><text class="b7c84ee7-c086-42d9-93ee-26d53bfb781f" transform="translate(622.585 454.381)">Availability zone<tspan x="23.683" y="12">(x1, x3)</tspan></text><g><text transform="translate(672.322 502.524)" font-size="10" fill="#ececec" font-family="RedHatText,&quot;Red Hat Text&quot;,Overpass,&quot;Helvetica Neue&quot;,Arial,sans-serif">156_OpenShift_1221</text><path fill="none" d="M0 479.507h760v40H0z"/></g></svg>