<svg id="b3f0068c-34d8-461e-92b5-dcdd9b6134fc" data-name="artwork" xmlns="http://www.w3.org/2000/svg" width="760" height="363.864" viewBox="0 0 760 363.864">
  <defs>
    <style>
      .beb93c36-0967-4e3b-88bd-2af5dbfcbca3 {
        fill: #e8e8e8;
      }

      .afcc51c5-c24c-498b-a754-f8a75f8ec9ac {
        font-size: 14px;
      }

      .ae12c8a8-1e41-4a3d-ad85-b7e2afa28085, .ae882727-f452-42bc-98ee-39914d3d3aca, .afcc51c5-c24c-498b-a754-f8a75f8ec9ac, .b43556f5-2e30-4f45-b703-232fd8317d2b, .bc8c8972-9f0f-403e-8a63-c6bbc3021ff8 {
        fill: #151515;
      }

      .ae882727-f452-42bc-98ee-39914d3d3aca, .afcc51c5-c24c-498b-a754-f8a75f8ec9ac, .e6de1575-170e-4faf-99c8-8d87287c8e1b {
        font-family: RedHatText-Bold, Red Hat Text;
        font-weight: 700;
      }

      .be6ec3f8-501f-4f64-a54d-4048aeda985f, .e6de1575-170e-4faf-99c8-8d87287c8e1b {
        fill: #fff;
      }

      .ae12c8a8-1e41-4a3d-ad85-b7e2afa28085, .ae882727-f452-42bc-98ee-39914d3d3aca {
        font-size: 12px;
      }

      .b43556f5-2e30-4f45-b703-232fd8317d2b, .e6de1575-170e-4faf-99c8-8d87287c8e1b {
        font-size: 11px;
      }

      .ae12c8a8-1e41-4a3d-ad85-b7e2afa28085, .b43556f5-2e30-4f45-b703-232fd8317d2b {
        font-family: RedHatText-Medium, Red Hat Text;
        font-weight: 500;
      }

      .a4cd9931-2d37-40ad-8626-6bf927faa111, .a51a1042-1f7b-441e-a36c-709f89e321c2, .a97a2fd1-5224-4b3f-8ee5-5e14fed8a025, .b124c267-2984-45ae-8067-56208656f698, .b86290ba-5142-49b3-ab49-bc666e9c1f3c, .b8be943e-8754-49a9-b440-55ed3f723685, .ba220a6d-8e8c-4ef2-b4f2-5ff2fb01ea1d, .bac1a2e7-e1d6-44be-b9ca-432251f86c26, .bb8897b3-01c9-41e4-92e6-4f02b62a4828, .ecb57844-cc57-4b63-bd28-129b09202968 {
        fill: none;
      }

      .a4cd9931-2d37-40ad-8626-6bf927faa111, .a51a1042-1f7b-441e-a36c-709f89e321c2, .b8be943e-8754-49a9-b440-55ed3f723685 {
        stroke: #adadad;
      }

      .a4cd9931-2d37-40ad-8626-6bf927faa111, .a51a1042-1f7b-441e-a36c-709f89e321c2, .a97a2fd1-5224-4b3f-8ee5-5e14fed8a025, .b86290ba-5142-49b3-ab49-bc666e9c1f3c, .b8be943e-8754-49a9-b440-55ed3f723685, .ba220a6d-8e8c-4ef2-b4f2-5ff2fb01ea1d, .bac1a2e7-e1d6-44be-b9ca-432251f86c26, .bb8897b3-01c9-41e4-92e6-4f02b62a4828, .ecb57844-cc57-4b63-bd28-129b09202968 {
        stroke-linecap: round;
        stroke-linejoin: round;
      }

      .a4cd9931-2d37-40ad-8626-6bf927faa111 {
        stroke-dasharray: 3 3;
      }

      .a51a1042-1f7b-441e-a36c-709f89e321c2 {
        stroke-dasharray: 2.998 2.998;
      }

      .a97a2fd1-5224-4b3f-8ee5-5e14fed8a025 {
        stroke: #151515;
      }

      .a28bbed7-a7ae-407c-b28f-0b89ba84e26f {
        fill: #06c;
      }

      .b86290ba-5142-49b3-ab49-bc666e9c1f3c, .ba220a6d-8e8c-4ef2-b4f2-5ff2fb01ea1d, .bac1a2e7-e1d6-44be-b9ca-432251f86c26, .bb8897b3-01c9-41e4-92e6-4f02b62a4828, .ecb57844-cc57-4b63-bd28-129b09202968 {
        stroke: #99c2eb;
      }

      .ba220a6d-8e8c-4ef2-b4f2-5ff2fb01ea1d {
        stroke-dasharray: 3.16 3.16;
      }

      .bac1a2e7-e1d6-44be-b9ca-432251f86c26 {
        stroke-dasharray: 3.015 3.015;
      }

      .b86290ba-5142-49b3-ab49-bc666e9c1f3c {
        stroke-dasharray: 3.2 3.2;
      }

      .bb8897b3-01c9-41e4-92e6-4f02b62a4828 {
        stroke-dasharray: 3.024 3.024;
      }

      .b12916cd-3b36-40ef-95e5-ff558aa2a66d {
        font-size: 10px;
        fill: #f3f3f3;
        font-family: RedHatText-Regular, Red Hat Text;
      }
    </style>
  </defs>
  <rect class="beb93c36-0967-4e3b-88bd-2af5dbfcbca3" y="16" width="310" height="307.864"/>
  <text class="afcc51c5-c24c-498b-a754-f8a75f8ec9ac" transform="translate(20 303.984)">Linux machine</text>
  <rect class="be6ec3f8-501f-4f64-a54d-4048aeda985f" x="30" y="46.364" width="250" height="202.5" transform="translate(310 295.228) rotate(180)"/>
  <text class="ae882727-f452-42bc-98ee-39914d3d3aca" transform="translate(45 233.704)">Gateway</text>
  <rect class="beb93c36-0967-4e3b-88bd-2af5dbfcbca3" x="45" y="158.864" width="220" height="50"/>
  <text class="b43556f5-2e30-4f45-b703-232fd8317d2b" transform="translate(119.641 186.911)">Local process</text>
  <rect class="beb93c36-0967-4e3b-88bd-2af5dbfcbca3" x="346.5" y="16" width="413.5" height="307.864"/>
  <g>
    <polyline class="b8be943e-8754-49a9-b440-55ed3f723685" points="366.5 262.364 366.5 263.864 368 263.864"/>
    <line class="a4cd9931-2d37-40ad-8626-6bf927faa111" x1="371" y1="263.864" x2="543.5" y2="263.864"/>
    <polyline class="b8be943e-8754-49a9-b440-55ed3f723685" points="545 263.864 546.5 263.864 546.5 262.364"/>
    <line class="a51a1042-1f7b-441e-a36c-709f89e321c2" x1="546.5" y1="259.366" x2="546.5" y2="38.999"/>
    <polyline class="b8be943e-8754-49a9-b440-55ed3f723685" points="546.5 37.5 546.5 36 545 36"/>
    <line class="a4cd9931-2d37-40ad-8626-6bf927faa111" x1="542" y1="36" x2="369.5" y2="36"/>
    <polyline class="b8be943e-8754-49a9-b440-55ed3f723685" points="368 36 366.5 36 366.5 37.5"/>
    <line class="a51a1042-1f7b-441e-a36c-709f89e321c2" x1="366.5" y1="40.498" x2="366.5" y2="260.865"/>
  </g>
  <text class="afcc51c5-c24c-498b-a754-f8a75f8ec9ac" transform="translate(366.5 303.984)">Kubernetes Cluster</text>
  <rect class="be6ec3f8-501f-4f64-a54d-4048aeda985f" x="376.5" y="46.364" width="160" height="202.5" transform="translate(913 295.228) rotate(180)"/>
  <text class="ae882727-f452-42bc-98ee-39914d3d3aca" transform="translate(391.5 233.704)">Site A</text>
  <rect class="beb93c36-0967-4e3b-88bd-2af5dbfcbca3" x="391.5" y="158.864" width="130" height="50"/>
  <text class="b43556f5-2e30-4f45-b703-232fd8317d2b" transform="translate(437.289 186.911)">Service</text>
  <g>
    <line class="a97a2fd1-5224-4b3f-8ee5-5e14fed8a025" x1="456.5" y1="149.188" x2="456.5" y2="123.54"/>
    <polygon class="bc8c8972-9f0f-403e-8a63-c6bbc3021ff8" points="461.486 147.729 456.5 156.364 451.514 147.729 461.486 147.729"/>
    <polygon class="bc8c8972-9f0f-403e-8a63-c6bbc3021ff8" points="461.486 124.999 456.5 116.364 451.514 124.999 461.486 124.999"/>
  </g>
  <rect class="be6ec3f8-501f-4f64-a54d-4048aeda985f" x="570" y="46.364" width="160" height="202.5" transform="translate(1300 295.228) rotate(180)"/>
  <text class="ae882727-f452-42bc-98ee-39914d3d3aca" transform="translate(585 233.704)">Site B</text>
  <rect class="beb93c36-0967-4e3b-88bd-2af5dbfcbca3" x="585" y="158.864" width="130" height="50"/>
  <text class="b43556f5-2e30-4f45-b703-232fd8317d2b" transform="translate(630.789 186.911)">Service</text>
  <g>
    <line class="a97a2fd1-5224-4b3f-8ee5-5e14fed8a025" x1="650" y1="149.188" x2="650" y2="123.54"/>
    <polygon class="bc8c8972-9f0f-403e-8a63-c6bbc3021ff8" points="654.986 147.729 650 156.364 645.014 147.729 654.986 147.729"/>
    <polygon class="bc8c8972-9f0f-403e-8a63-c6bbc3021ff8" points="654.986 124.999 650 116.364 645.014 124.999 654.986 124.999"/>
  </g>
  <g>
    <polyline class="b8be943e-8754-49a9-b440-55ed3f723685" points="560 262.364 560 263.864 561.5 263.864"/>
    <line class="a4cd9931-2d37-40ad-8626-6bf927faa111" x1="564.5" y1="263.864" x2="737" y2="263.864"/>
    <polyline class="b8be943e-8754-49a9-b440-55ed3f723685" points="738.5 263.864 740 263.864 740 262.364"/>
    <line class="a51a1042-1f7b-441e-a36c-709f89e321c2" x1="740" y1="259.366" x2="740" y2="38.999"/>
    <polyline class="b8be943e-8754-49a9-b440-55ed3f723685" points="740 37.5 740 36 738.5 36"/>
    <line class="a4cd9931-2d37-40ad-8626-6bf927faa111" x1="735.5" y1="36" x2="563" y2="36"/>
    <polyline class="b8be943e-8754-49a9-b440-55ed3f723685" points="561.5 36 560 36 560 37.5"/>
    <line class="a51a1042-1f7b-441e-a36c-709f89e321c2" x1="560" y1="40.498" x2="560" y2="260.865"/>
  </g>
  <rect class="a28bbed7-a7ae-407c-b28f-0b89ba84e26f" x="45" y="61.364" width="669.5" height="52.5"/>
  <rect class="beb93c36-0967-4e3b-88bd-2af5dbfcbca3" x="411.889" y="258.817" width="89.223" height="15.094"/>
  <text class="ae12c8a8-1e41-4a3d-ad85-b7e2afa28085" transform="translate(417.992 267.496)">Namespace A</text>
  <rect class="beb93c36-0967-4e3b-88bd-2af5dbfcbca3" x="605.352" y="258.817" width="89.297" height="15.094"/>
  <text class="ae12c8a8-1e41-4a3d-ad85-b7e2afa28085" transform="translate(611.498 267.496)">Namespace B</text>
  <polygon class="be6ec3f8-501f-4f64-a54d-4048aeda985f" points="130.001 128.982 130.001 107.554 155.001 100.411 180.001 107.554 180.001 128.982 130.001 128.982"/>
  <text class="b43556f5-2e30-4f45-b703-232fd8317d2b" transform="translate(143.778 118.831)">TCP</text>
  <g>
    <line class="ecb57844-cc57-4b63-bd28-129b09202968" x1="155" y1="98.411" x2="155" y2="96.911"/>
    <line class="ba220a6d-8e8c-4ef2-b4f2-5ff2fb01ea1d" x1="155" y1="93.751" x2="155" y2="89.01"/>
    <polyline class="ecb57844-cc57-4b63-bd28-129b09202968" points="155 87.43 155 85.93 156.5 85.93"/>
    <line class="bac1a2e7-e1d6-44be-b9ca-432251f86c26" x1="159.515" y1="85.93" x2="453.493" y2="85.93"/>
    <polyline class="ecb57844-cc57-4b63-bd28-129b09202968" points="455.001 85.93 456.501 85.93 456.501 87.43"/>
    <line class="b86290ba-5142-49b3-ab49-bc666e9c1f3c" x1="456.501" y1="90.63" x2="456.501" y2="108.231"/>
    <line class="ecb57844-cc57-4b63-bd28-129b09202968" x1="456.501" y1="109.831" x2="456.501" y2="111.331"/>
  </g>
  <g>
    <line class="ecb57844-cc57-4b63-bd28-129b09202968" x1="456.501" y1="85.93" x2="458.001" y2="85.93"/>
    <line class="bb8897b3-01c9-41e4-92e6-4f02b62a4828" x1="461.025" y1="85.93" x2="646.988" y2="85.93"/>
    <polyline class="ecb57844-cc57-4b63-bd28-129b09202968" points="648.5 85.93 650 85.93 650 87.43"/>
    <line class="b86290ba-5142-49b3-ab49-bc666e9c1f3c" x1="650" y1="90.63" x2="650" y2="108.231"/>
    <line class="ecb57844-cc57-4b63-bd28-129b09202968" x1="650" y1="109.831" x2="650" y2="111.331"/>
  </g>
  <g>
    <line class="a97a2fd1-5224-4b3f-8ee5-5e14fed8a025" x1="155" y1="149.188" x2="155" y2="133.54"/>
    <polygon class="bc8c8972-9f0f-403e-8a63-c6bbc3021ff8" points="159.986 147.729 155 156.364 150.014 147.729 159.986 147.729"/>
    <polygon class="bc8c8972-9f0f-403e-8a63-c6bbc3021ff8" points="159.986 134.999 155 126.364 150.014 134.999 159.986 134.999"/>
  </g>
  <rect class="a28bbed7-a7ae-407c-b28f-0b89ba84e26f" x="261.046" y="72.008" width="119.95" height="25.211"/>
  <text class="e6de1575-170e-4faf-99c8-8d87287c8e1b" transform="translate(264.394 88.735)">Service interconnect</text>
  <g>
    <text class="b12916cd-3b36-40ef-95e5-ff558aa2a66d" transform="translate(690.491 346.881)">130_AMQ_0821</text>
    <rect class="b124c267-2984-45ae-8067-56208656f698" x="-0.25" y="323.864" width="760" height="40"/>
  </g>
</svg>
