<svg id="a2f406fc-0feb-4d76-bf1a-bea00dd8b3b3" data-name="Layer 1" xmlns="http://www.w3.org/2000/svg" width="760" height="575.175" viewBox="0 0 760 575.175">
  <defs>
    <style>
      .f4622b94-b95c-461c-8a62-04c0ea5d987c {
        fill: #e8e8e8;
      }

      .b94ad13d-1ddb-4b6f-8b49-a9970bf2aff7, .e541c7fd-49f1-4820-8f56-e6eae201cdce, .eccc97ca-106e-43f6-808f-8ce629552d1c {
        fill: #151515;
      }

      .ae6f6620-c912-4ff4-a5b3-83ec8063ec7f {
        fill: #06c;
      }

      .b1ae88c4-303c-4b77-95d1-340c68e6c625, .ba30350d-b785-4db8-a46d-2a83ab17555d {
        fill: #fff;
      }

      .e541c7fd-49f1-4820-8f56-e6eae201cdce {
        font-size: 14px;
        font-family: RedHatText-Bold, Red Hat Text;
        font-weight: 700;
      }

      .a375708d-7898-421c-86a7-210c81b59a3f, .a3e4463f-5d9a-42a0-8104-dafd34c04c39, .ee941a22-1604-4f5d-9f4d-e5841757eff9, .eea3dce6-32a9-4c96-8c1e-ebe64519b763, .f36c2ac5-9d0f-4171-bc5a-40832604235a, .f46d3749-431c-4712-b2f9-b1aa6f5e9793 {
        fill: none;
      }

      .a375708d-7898-421c-86a7-210c81b59a3f {
        stroke: #151515;
        stroke-miterlimit: 10;
      }

      .b94ad13d-1ddb-4b6f-8b49-a9970bf2aff7 {
        font-size: 9px;
      }

      .b94ad13d-1ddb-4b6f-8b49-a9970bf2aff7, .bdced67e-e906-400d-9029-bf5b1572bf75 {
        font-family: RedHatText-Medium, Red Hat Text;
        font-weight: 500;
      }

      .ba30350d-b785-4db8-a46d-2a83ab17555d, .f46d3749-431c-4712-b2f9-b1aa6f5e9793 {
        stroke: #5b5b5b;
      }

      .a3e4463f-5d9a-42a0-8104-dafd34c04c39, .ba30350d-b785-4db8-a46d-2a83ab17555d, .eea3dce6-32a9-4c96-8c1e-ebe64519b763, .f36c2ac5-9d0f-4171-bc5a-40832604235a, .f46d3749-431c-4712-b2f9-b1aa6f5e9793 {
        stroke-linecap: round;
        stroke-linejoin: round;
        stroke-width: 1.5px;
      }

      .bc78cc20-e9de-48c5-a6ac-ab1fcf0f136b, .bdced67e-e906-400d-9029-bf5b1572bf75 {
        font-size: 10px;
      }

      .bc78cc20-e9de-48c5-a6ac-ab1fcf0f136b {
        fill: #f3f3f3;
        font-family: RedHatText-Regular, Red Hat Text;
      }

      .a3e4463f-5d9a-42a0-8104-dafd34c04c39, .eea3dce6-32a9-4c96-8c1e-ebe64519b763, .f36c2ac5-9d0f-4171-bc5a-40832604235a {
        stroke: #d0d0d0;
      }

      .a3e4463f-5d9a-42a0-8104-dafd34c04c39 {
        stroke-dasharray: 2.929 2.929;
      }

      .f36c2ac5-9d0f-4171-bc5a-40832604235a {
        stroke-dasharray: 3.226 3.226;
      }

      .bdced67e-e906-400d-9029-bf5b1572bf75 {
        fill: #d0d0d0;
      }
    </style>
  </defs>
  <rect class="f4622b94-b95c-461c-8a62-04c0ea5d987c" x="92.749" y="163.533" width="255.5" height="271"/>
  <rect class="f4622b94-b95c-461c-8a62-04c0ea5d987c" x="112.749" y="20" width="215.5" height="55"/>
  <g>
    <path class="eccc97ca-106e-43f6-808f-8ce629552d1c" d="M128.685,44.241v-8.4h4.1a3.348,3.348,0,0,1,1.218.21,2.823,2.823,0,0,1,.936.576,2.463,2.463,0,0,1,.6.876,2.886,2.886,0,0,1,.21,1.109,2.71,2.71,0,0,1-.21,1.063,2.443,2.443,0,0,1-.6.857,2.9,2.9,0,0,1-.936.571,3.391,3.391,0,0,1-1.218.209h-2.04v2.928Zm3.744-6.695h-1.68V39.67h1.668a1.287,1.287,0,0,0,.936-.307,1.023,1.023,0,0,0,.312-.761,1.01,1.01,0,0,0-.312-.75A1.264,1.264,0,0,0,132.429,37.546Z"/>
    <path class="eccc97ca-106e-43f6-808f-8ce629552d1c" d="M137.024,44.241V38.05h1.945v1.4a2.988,2.988,0,0,1,.714-1.145,1.385,1.385,0,0,1,.965-.378,2.01,2.01,0,0,1,.336.042,1.485,1.485,0,0,1,.313.114v1.668a2.027,2.027,0,0,0-.42-.139,2.234,2.234,0,0,0-.492-.053,1.655,1.655,0,0,0-.811.209,1.693,1.693,0,0,0-.605.558v3.912Z"/>
    <path class="eccc97ca-106e-43f6-808f-8ce629552d1c" d="M142.053,41.157a3.253,3.253,0,0,1,.245-1.271,3.052,3.052,0,0,1,.679-1.015A3.184,3.184,0,0,1,144,38.2a3.307,3.307,0,0,1,1.278-.246,3.351,3.351,0,0,1,1.284.246,3.177,3.177,0,0,1,1.033.672,3.078,3.078,0,0,1,.677,1.015,3.254,3.254,0,0,1,.247,1.271,3.2,3.2,0,0,1-.252,1.273,3.113,3.113,0,0,1-1.71,1.685,3.445,3.445,0,0,1-2.557,0,3.087,3.087,0,0,1-1.7-1.7A3.231,3.231,0,0,1,142.053,41.157Zm3.227,1.561a1.22,1.22,0,0,0,.966-.439,1.656,1.656,0,0,0,.378-1.122,1.7,1.7,0,0,0-.378-1.134,1.209,1.209,0,0,0-.966-.45,1.193,1.193,0,0,0-.96.45,1.72,1.72,0,0,0-.372,1.134,1.673,1.673,0,0,0,.372,1.122A1.2,1.2,0,0,0,145.28,42.718Z"/>
    <path class="eccc97ca-106e-43f6-808f-8ce629552d1c" d="M154.041,44.241v-.8a2.139,2.139,0,0,1-.786.612,2.463,2.463,0,0,1-2.106-.019,2.658,2.658,0,0,1-.87-.672,3.3,3.3,0,0,1-.582-1,3.452,3.452,0,0,1-.216-1.223,3.332,3.332,0,0,1,.222-1.219,3.076,3.076,0,0,1,.612-.989,2.926,2.926,0,0,1,.918-.666,2.638,2.638,0,0,1,1.128-.246,2.22,2.22,0,0,1,.912.191,2.119,2.119,0,0,1,.744.553v-3.1l1.944-.3v8.88Zm-2.652-3.095a1.5,1.5,0,0,0,.426,1.085,1.408,1.408,0,0,0,1.05.439,1.554,1.554,0,0,0,.636-.127,1.58,1.58,0,0,0,.516-.365V40.09a1.667,1.667,0,0,0-.522-.355,1.582,1.582,0,0,0-.63-.126,1.4,1.4,0,0,0-1.056.439A1.523,1.523,0,0,0,151.389,41.146Z"/>
    <path class="eccc97ca-106e-43f6-808f-8ce629552d1c" d="M159.369,38.05v3.611a1.213,1.213,0,0,0,.281.834.956.956,0,0,0,.75.318,1.3,1.3,0,0,0,.571-.125,1.318,1.318,0,0,0,.462-.39V38.05h1.944v6.191h-1.944V43.233a2.559,2.559,0,0,1-.858.823,2.2,2.2,0,0,1-1.1.282A1.963,1.963,0,0,1,158,43.743a2.086,2.086,0,0,1-.576-1.517V38.05Z"/>
    <path class="eccc97ca-106e-43f6-808f-8ce629552d1c" d="M167.937,42.682a1.562,1.562,0,0,0,.7-.157,1.5,1.5,0,0,0,.546-.456l1.152,1.14a3.079,3.079,0,0,1-1.11.847,3.341,3.341,0,0,1-1.411.3,3.226,3.226,0,0,1-1.259-.246,3.1,3.1,0,0,1-1.7-1.7,3.363,3.363,0,0,1,0-2.52,3.116,3.116,0,0,1,1.7-1.7,3.226,3.226,0,0,1,1.259-.246,3.584,3.584,0,0,1,1.435.294,3.085,3.085,0,0,1,1.145.847l-1.187,1.187a2.149,2.149,0,0,0-.612-.51,1.517,1.517,0,0,0-.708-.162,1.218,1.218,0,0,0-.96.445,1.627,1.627,0,0,0-.384,1.1,1.561,1.561,0,0,0,.4,1.086A1.29,1.29,0,0,0,167.937,42.682Z"/>
    <path class="eccc97ca-106e-43f6-808f-8ce629552d1c" d="M176.948,43.365a4,4,0,0,1-1.212.763,3.9,3.9,0,0,1-1.391.233,3.315,3.315,0,0,1-1.279-.246,3.271,3.271,0,0,1-1.038-.677,3.125,3.125,0,0,1-.695-1.021,3.165,3.165,0,0,1-.252-1.26,3.324,3.324,0,0,1,.239-1.271,3.189,3.189,0,0,1,.655-1.021,2.966,2.966,0,0,1,.99-.677,3.1,3.1,0,0,1,1.235-.247,3,3,0,0,1,1.231.247,2.892,2.892,0,0,1,.96.677,3.155,3.155,0,0,1,.63,1.038,3.741,3.741,0,0,1,.228,1.326v.42h-4.261a1.553,1.553,0,0,0,.529.84,1.413,1.413,0,0,0,.923.324,1.819,1.819,0,0,0,.7-.131,1.313,1.313,0,0,0,.522-.384Zm-2.76-3.912a1.094,1.094,0,0,0-.767.288,1.537,1.537,0,0,0-.433.8h2.46a1.475,1.475,0,0,0-.456-.8A1.181,1.181,0,0,0,174.188,39.453Z"/>
    <path class="eccc97ca-106e-43f6-808f-8ce629552d1c" d="M178.46,44.241V38.05H180.4v1.4a3.012,3.012,0,0,1,.714-1.145,1.389,1.389,0,0,1,.966-.378,2.01,2.01,0,0,1,.336.042,1.479,1.479,0,0,1,.312.114v1.668a2.008,2.008,0,0,0-.42-.139,2.234,2.234,0,0,0-.492-.053,1.651,1.651,0,0,0-.81.209,1.7,1.7,0,0,0-.606.558v3.912Z"/>
    <path class="eccc97ca-106e-43f6-808f-8ce629552d1c" d="M128.589,53.232h1.354v.96a2.053,2.053,0,0,1,1.787-1.055,1.89,1.89,0,0,1,1.764,1.163,2.214,2.214,0,0,1,1.99-1.163,1.991,1.991,0,0,1,1.968,2.182v3.922H136.1V55.607a1.215,1.215,0,0,0-1.212-1.378,1.431,1.431,0,0,0-1.211.707c.012.131.023.252.023.383v3.922h-1.354V55.607a1.215,1.215,0,0,0-1.212-1.378,1.4,1.4,0,0,0-1.188.683v4.329h-1.354Z"/>
    <path class="eccc97ca-106e-43f6-808f-8ce629552d1c" d="M140.636,59.277l-2.267-6.045h1.511l1.523,4.462,1.679-4.462h1.476L141.7,60.225a2.031,2.031,0,0,1-2.135,1.583,2.86,2.86,0,0,1-.683-.084V60.561a4.8,4.8,0,0,0,.527.047.958.958,0,0,0,.972-.7Z"/>
    <path class="eccc97ca-106e-43f6-808f-8ce629552d1c" d="M147.008,58.474a.84.84,0,1,1-.84-.875A.858.858,0,0,1,147.008,58.474Z"/>
    <path class="eccc97ca-106e-43f6-808f-8ce629552d1c" d="M148.185,57.515c0-1.08.875-1.764,2.29-1.764a3.708,3.708,0,0,1,1.619.372v-.659c0-.792-.455-1.2-1.379-1.2a4.16,4.16,0,0,0-1.751.466l-.48-.983a5.78,5.78,0,0,1,2.5-.611c1.559,0,2.459.792,2.459,2.182v3.922h-1.344V58.63a2.511,2.511,0,0,1-1.787.707A1.893,1.893,0,0,1,148.185,57.515Zm2.494.875a2.14,2.14,0,0,0,1.415-.492v-.983a3.11,3.11,0,0,0-1.391-.288c-.767,0-1.248.336-1.248.863C149.455,58.042,149.936,58.39,150.679,58.39Z"/>
    <path class="eccc97ca-106e-43f6-808f-8ce629552d1c" d="M155.084,53.232h1.354v.984a2.184,2.184,0,0,1,1.908-1.079,2.022,2.022,0,0,1,2.075,2.146v3.958h-1.356V55.667a1.293,1.293,0,0,0-1.319-1.438,1.542,1.542,0,0,0-1.308.719v4.293h-1.354Z"/>
    <path class="eccc97ca-106e-43f6-808f-8ce629552d1c" d="M163.6,59.277l-2.267-6.045h1.511l1.523,4.462,1.679-4.462h1.475l-2.854,6.993a2.032,2.032,0,0,1-2.135,1.583,2.86,2.86,0,0,1-.683-.084V60.561a4.8,4.8,0,0,0,.527.047.959.959,0,0,0,.972-.7Z"/>
    <path class="eccc97ca-106e-43f6-808f-8ce629552d1c" d="M172.805,57.5l.816.816a3.126,3.126,0,0,1-2.351,1.043,3.107,3.107,0,0,1,0-6.213,3.243,3.243,0,0,1,2.4,1.008l-.84.876a1.985,1.985,0,0,0-1.511-.708,1.928,1.928,0,0,0,.036,3.838A1.842,1.842,0,0,0,172.805,57.5Z"/>
    <path class="eccc97ca-106e-43f6-808f-8ce629552d1c" d="M174.488,57.515c0-1.08.875-1.764,2.29-1.764a3.705,3.705,0,0,1,1.619.372v-.659c0-.792-.455-1.2-1.378-1.2a4.16,4.16,0,0,0-1.751.466l-.48-.983a5.779,5.779,0,0,1,2.494-.611c1.56,0,2.459.792,2.459,2.182v3.922H178.4V58.63a2.509,2.509,0,0,1-1.787.707A1.894,1.894,0,0,1,174.488,57.515Zm2.494.875A2.14,2.14,0,0,0,178.4,57.9v-.983a3.1,3.1,0,0,0-1.39-.288c-.768,0-1.248.336-1.248.863C175.759,58.042,176.239,58.39,176.982,58.39Z"/>
    <path class="eccc97ca-106e-43f6-808f-8ce629552d1c" d="M181.483,57.635a3.47,3.47,0,0,0,1.931.683c.72,0,1.212-.324,1.212-.8,0-.372-.252-.577-.828-.684l-1.068-.181c-1.163-.215-1.739-.754-1.739-1.654,0-1.128.924-1.859,2.327-1.859a4.226,4.226,0,0,1,2.363.719l-.636.888a3.28,3.28,0,0,0-1.811-.576c-.624,0-1.031.264-1.031.708,0,.384.216.552.852.659l1.055.193c1.2.227,1.775.779,1.775,1.678a2.2,2.2,0,0,1-2.447,1.955,4.033,4.033,0,0,1-2.59-.815Z"/>
    <path class="eccc97ca-106e-43f6-808f-8ce629552d1c" d="M187.879,54.312h-1.211v-1.08h1.211V51.578l1.355-.288v1.942h1.679v1.08h-1.679v3.046c0,.588.228.816.84.816a2.5,2.5,0,0,0,.816-.144v1.14a4.3,4.3,0,0,1-1.164.167c-1.211,0-1.847-.575-1.847-1.679Z"/>
    <path class="eccc97ca-106e-43f6-808f-8ce629552d1c" d="M193.566,58.474a.84.84,0,1,1-.839-.875A.858.858,0,0,1,193.566,58.474Z"/>
    <path class="eccc97ca-106e-43f6-808f-8ce629552d1c" d="M199.337,58.438a2.31,2.31,0,0,1-1.847.864,3.075,3.075,0,0,1,.084-6.117,2.29,2.29,0,0,1,1.751.792V50.666l1.356-.228v8.8h-1.344Zm-1.439-.276a1.793,1.793,0,0,0,1.427-.66v-2.53a1.861,1.861,0,0,0-1.427-.648,1.924,1.924,0,0,0,0,3.838Z"/>
    <path class="eccc97ca-106e-43f6-808f-8ce629552d1c" d="M205.146,59.361a3.055,3.055,0,0,1-3.059-3.118,2.96,2.96,0,0,1,2.927-3.106,2.883,2.883,0,0,1,2.841,3.094v.336h-4.437a1.836,1.836,0,0,0,1.8,1.643,1.952,1.952,0,0,0,1.427-.564l.887.828A3.471,3.471,0,0,1,205.146,59.361Zm-1.7-3.622h3.13a1.644,1.644,0,0,0-1.57-1.5A1.616,1.616,0,0,0,203.442,55.739Z"/>
    <path class="eccc97ca-106e-43f6-808f-8ce629552d1c" d="M209.335,57.635a3.465,3.465,0,0,0,1.931.683c.719,0,1.212-.324,1.212-.8,0-.372-.252-.577-.829-.684l-1.067-.181c-1.163-.215-1.739-.754-1.739-1.654,0-1.128.924-1.859,2.327-1.859a4.221,4.221,0,0,1,2.362.719l-.636.888a3.28,3.28,0,0,0-1.81-.576c-.624,0-1.031.264-1.031.708,0,.384.216.552.851.659l1.056.193c1.2.227,1.774.779,1.774,1.678a2.2,2.2,0,0,1-2.446,1.955,4.036,4.036,0,0,1-2.591-.815Z"/>
    <path class="eccc97ca-106e-43f6-808f-8ce629552d1c" d="M215.73,54.312h-1.21v-1.08h1.21V51.578l1.356-.288v1.942h1.679v1.08h-1.679v3.046c0,.588.227.816.84.816a2.49,2.49,0,0,0,.815-.144v1.14a4.292,4.292,0,0,1-1.164.167c-1.211,0-1.847-.575-1.847-1.679Z"/>
    <path class="eccc97ca-106e-43f6-808f-8ce629552d1c" d="M219.787,51.182a.846.846,0,0,1,1.691,0,.846.846,0,0,1-1.691,0Zm1.523,8.059h-1.355V53.232h1.355Z"/>
    <path class="eccc97ca-106e-43f6-808f-8ce629552d1c" d="M222.979,53.232h1.354v.984a2.182,2.182,0,0,1,1.907-1.079,2.021,2.021,0,0,1,2.075,2.146v3.958H226.96V55.667a1.293,1.293,0,0,0-1.319-1.438,1.54,1.54,0,0,0-1.308.719v4.293h-1.354Z"/>
    <path class="eccc97ca-106e-43f6-808f-8ce629552d1c" d="M229.663,57.515c0-1.08.875-1.764,2.29-1.764a3.705,3.705,0,0,1,1.619.372v-.659c0-.792-.455-1.2-1.379-1.2a4.164,4.164,0,0,0-1.751.466l-.479-.983a5.773,5.773,0,0,1,2.494-.611c1.56,0,2.459.792,2.459,2.182v3.922h-1.344V58.63a2.509,2.509,0,0,1-1.787.707A1.893,1.893,0,0,1,229.663,57.515Zm2.494.875a2.14,2.14,0,0,0,1.415-.492v-.983a3.1,3.1,0,0,0-1.39-.288c-.768,0-1.248.336-1.248.863C230.934,58.042,231.414,58.39,232.157,58.39Z"/>
    <path class="eccc97ca-106e-43f6-808f-8ce629552d1c" d="M237.306,54.312H236.1v-1.08h1.211V51.578l1.355-.288v1.942h1.679v1.08h-1.679v3.046c0,.588.228.816.84.816a2.49,2.49,0,0,0,.815-.144v1.14a4.292,4.292,0,0,1-1.164.167c-1.211,0-1.846-.575-1.846-1.679Z"/>
    <path class="eccc97ca-106e-43f6-808f-8ce629552d1c" d="M241.362,51.182a.846.846,0,0,1,1.691,0,.846.846,0,0,1-1.691,0Zm1.523,8.059H241.53V53.232h1.355Z"/>
    <path class="eccc97ca-106e-43f6-808f-8ce629552d1c" d="M247.3,53.137a3.113,3.113,0,1,1-3.023,3.106A3,3,0,0,1,247.3,53.137Zm1.678,3.118a1.7,1.7,0,1,0-3.357,0,1.7,1.7,0,1,0,3.357,0Z"/>
    <path class="eccc97ca-106e-43f6-808f-8ce629552d1c" d="M251.73,53.232h1.355v.984a2.181,2.181,0,0,1,1.907-1.079,2.021,2.021,0,0,1,2.075,2.146v3.958h-1.355V55.667a1.293,1.293,0,0,0-1.319-1.438,1.54,1.54,0,0,0-1.308.719v4.293H251.73Z"/>
  </g>
  <g>
    <rect class="ae6f6620-c912-4ff4-a5b3-83ec8063ec7f" x="112.749" y="210.982" width="215.5" height="55"/>
    <g>
      <path class="b1ae88c4-303c-4b77-95d1-340c68e6c625" d="M127.773,235.224l3.276-8.4H133.4l3.228,8.4H134.4l-.7-2h-3.072l-.708,2Zm3.42-3.6h1.956l-.972-2.783Z"/>
      <path class="b1ae88c4-303c-4b77-95d1-340c68e6c625" d="M141.693,235.224v-.8a2.1,2.1,0,0,1-.786.612,2.452,2.452,0,0,1-2.105-.017,2.685,2.685,0,0,1-.87-.672,3.278,3.278,0,0,1-.582-1,3.44,3.44,0,0,1-.216-1.225,3.33,3.33,0,0,1,.221-1.218,3.088,3.088,0,0,1,.613-.99,2.931,2.931,0,0,1,.918-.666,2.632,2.632,0,0,1,1.128-.246,2.225,2.225,0,0,1,.912.193,2.1,2.1,0,0,1,.743.551v-3.095l1.944-.3v8.88Zm-2.652-3.1a1.5,1.5,0,0,0,.427,1.087,1.4,1.4,0,0,0,1.05.437,1.531,1.531,0,0,0,1.151-.492v-2.088a1.655,1.655,0,0,0-.522-.353,1.581,1.581,0,0,0-.629-.126,1.4,1.4,0,0,0-1.057.437A1.529,1.529,0,0,0,139.041,232.127Z"/>
      <path class="b1ae88c4-303c-4b77-95d1-340c68e6c625" d="M149.409,235.224v-.8a2.1,2.1,0,0,1-.786.612,2.452,2.452,0,0,1-2.1-.017,2.7,2.7,0,0,1-.871-.672,3.3,3.3,0,0,1-.582-1,3.462,3.462,0,0,1-.215-1.225,3.33,3.33,0,0,1,.221-1.218,3.088,3.088,0,0,1,.613-.99,2.919,2.919,0,0,1,.918-.666,2.631,2.631,0,0,1,1.127-.246,2.226,2.226,0,0,1,.913.193,2.1,2.1,0,0,1,.743.551v-3.095l1.944-.3v8.88Zm-2.652-3.1a1.494,1.494,0,0,0,.427,1.087,1.4,1.4,0,0,0,1.049.437,1.531,1.531,0,0,0,1.152-.492v-2.088a1.667,1.667,0,0,0-.522-.353,1.582,1.582,0,0,0-.63-.126,1.4,1.4,0,0,0-1.056.437A1.525,1.525,0,0,0,146.757,232.127Z"/>
      <path class="b1ae88c4-303c-4b77-95d1-340c68e6c625" d="M152.841,235.224v-6.193h1.944v1.405a3.01,3.01,0,0,1,.714-1.147,1.388,1.388,0,0,1,.966-.378,2.385,2.385,0,0,1,.336.042,1.744,1.744,0,0,1,.312.114v1.668a2.135,2.135,0,0,0-.42-.137,2.235,2.235,0,0,0-.492-.055,1.642,1.642,0,0,0-.81.21,1.7,1.7,0,0,0-.606.559v3.912Z"/>
      <path class="b1ae88c4-303c-4b77-95d1-340c68e6c625" d="M163.736,234.348a4.027,4.027,0,0,1-1.212.761,3.853,3.853,0,0,1-1.391.235,3.315,3.315,0,0,1-1.279-.246,3.276,3.276,0,0,1-1.038-.679,3.164,3.164,0,0,1-.947-2.279,3.342,3.342,0,0,1,.239-1.273,3.219,3.219,0,0,1,.655-1.019,2.971,2.971,0,0,1,.99-.679,3.129,3.129,0,0,1,1.235-.245,3.033,3.033,0,0,1,1.231.245,2.9,2.9,0,0,1,.96.679,3.135,3.135,0,0,1,.63,1.038,3.727,3.727,0,0,1,.228,1.325v.421h-4.261a1.553,1.553,0,0,0,.529.84,1.413,1.413,0,0,0,.924.323,1.8,1.8,0,0,0,.7-.132,1.306,1.306,0,0,0,.522-.384Zm-2.759-3.912a1.086,1.086,0,0,0-.768.288,1.531,1.531,0,0,0-.433.8h2.46a1.479,1.479,0,0,0-.456-.8A1.175,1.175,0,0,0,160.977,230.436Z"/>
      <path class="b1ae88c4-303c-4b77-95d1-340c68e6c625" d="M164.744,234.587l.852-1.3a6.748,6.748,0,0,0,1.1.486,2.978,2.978,0,0,0,.888.138,1.3,1.3,0,0,0,.648-.138.413.413,0,0,0,.241-.366.348.348,0,0,0-.139-.288.97.97,0,0,0-.438-.155l-1.188-.217a2.539,2.539,0,0,1-1.361-.624,1.575,1.575,0,0,1-.462-1.176,1.781,1.781,0,0,1,.689-1.487,3.013,3.013,0,0,1,1.9-.54,4.668,4.668,0,0,1,1.285.18,5.344,5.344,0,0,1,1.235.528l-.888,1.235a4.487,4.487,0,0,0-.906-.395,3,3,0,0,0-.87-.132,1.11,1.11,0,0,0-.546.113.353.353,0,0,0-.2.318.331.331,0,0,0,.138.289,1.334,1.334,0,0,0,.5.156l1.164.216a2.653,2.653,0,0,1,1.391.63,1.5,1.5,0,0,1,.468,1.158,1.825,1.825,0,0,1-.2.845,1.985,1.985,0,0,1-.558.672,2.782,2.782,0,0,1-.851.445,3.4,3.4,0,0,1-1.057.162,6.164,6.164,0,0,1-1.571-.193A3.992,3.992,0,0,1,164.744,234.587Z"/>
      <path class="b1ae88c4-303c-4b77-95d1-340c68e6c625" d="M170.876,234.587l.852-1.3a6.748,6.748,0,0,0,1.1.486,2.978,2.978,0,0,0,.888.138,1.3,1.3,0,0,0,.648-.138.412.412,0,0,0,.24-.366.347.347,0,0,0-.138-.288.975.975,0,0,0-.438-.155l-1.188-.217a2.546,2.546,0,0,1-1.362-.624,1.578,1.578,0,0,1-.461-1.176,1.781,1.781,0,0,1,.689-1.487,3.013,3.013,0,0,1,1.9-.54,4.656,4.656,0,0,1,1.284.18,5.351,5.351,0,0,1,1.236.528l-.888,1.235a4.487,4.487,0,0,0-.906-.395,3,3,0,0,0-.87-.132,1.11,1.11,0,0,0-.546.113.353.353,0,0,0-.2.318.331.331,0,0,0,.138.289,1.334,1.334,0,0,0,.5.156l1.164.216a2.653,2.653,0,0,1,1.392.63,1.5,1.5,0,0,1,.468,1.158,1.838,1.838,0,0,1-.2.845,1.985,1.985,0,0,1-.558.672,2.777,2.777,0,0,1-.852.445,3.385,3.385,0,0,1-1.056.162,6.177,6.177,0,0,1-1.572-.193A4,4,0,0,1,170.876,234.587Z"/>
      <path class="b1ae88c4-303c-4b77-95d1-340c68e6c625" d="M128.589,244.215h1.354v.959a2.053,2.053,0,0,1,1.787-1.055,1.888,1.888,0,0,1,1.764,1.163,2.216,2.216,0,0,1,1.99-1.163,1.992,1.992,0,0,1,1.968,2.183v3.922H136.1V246.59a1.217,1.217,0,0,0-1.212-1.38,1.432,1.432,0,0,0-1.211.708c.012.132.023.252.023.384v3.922h-1.354V246.59a1.217,1.217,0,0,0-1.212-1.38,1.4,1.4,0,0,0-1.188.684v4.33h-1.354Z"/>
      <path class="b1ae88c4-303c-4b77-95d1-340c68e6c625" d="M140.636,250.26l-2.267-6.045h1.511l1.523,4.461,1.679-4.461h1.476l-2.855,6.992a2.031,2.031,0,0,1-2.135,1.583,2.86,2.86,0,0,1-.683-.084v-1.163a4.9,4.9,0,0,0,.527.048.959.959,0,0,0,.972-.7Z"/>
      <path class="b1ae88c4-303c-4b77-95d1-340c68e6c625" d="M147.008,249.456a.84.84,0,1,1-.84-.876A.867.867,0,0,1,147.008,249.456Z"/>
      <path class="b1ae88c4-303c-4b77-95d1-340c68e6c625" d="M148.185,248.5c0-1.079.875-1.763,2.29-1.763a3.722,3.722,0,0,1,1.619.372v-.66c0-.791-.455-1.2-1.379-1.2a4.152,4.152,0,0,0-1.751.468l-.48-.984a5.78,5.78,0,0,1,2.5-.611c1.559,0,2.459.791,2.459,2.183v3.922h-1.344v-.613a2.5,2.5,0,0,1-1.787.708A1.894,1.894,0,0,1,148.185,248.5Zm2.494.876a2.14,2.14,0,0,0,1.415-.492V247.9a3.11,3.11,0,0,0-1.391-.288c-.767,0-1.248.336-1.248.865C149.455,249.024,149.936,249.372,150.679,249.372Z"/>
      <path class="b1ae88c4-303c-4b77-95d1-340c68e6c625" d="M155.084,244.215h1.354v.983a2.182,2.182,0,0,1,1.908-1.079,2.022,2.022,0,0,1,2.075,2.147v3.958h-1.356v-3.575a1.293,1.293,0,0,0-1.319-1.439,1.542,1.542,0,0,0-1.308.72v4.294h-1.354Z"/>
      <path class="b1ae88c4-303c-4b77-95d1-340c68e6c625" d="M163.6,250.26l-2.267-6.045h1.511l1.523,4.461,1.679-4.461h1.475l-2.854,6.992a2.032,2.032,0,0,1-2.135,1.583,2.86,2.86,0,0,1-.683-.084v-1.163a4.9,4.9,0,0,0,.527.048.96.96,0,0,0,.972-.7Z"/>
      <path class="b1ae88c4-303c-4b77-95d1-340c68e6c625" d="M172.805,248.484l.816.816a3.13,3.13,0,0,1-2.351,1.044,3.107,3.107,0,0,1,0-6.213,3.236,3.236,0,0,1,2.4,1.008l-.84.875a1.985,1.985,0,0,0-1.511-.708,1.928,1.928,0,0,0,.036,3.838A1.845,1.845,0,0,0,172.805,248.484Z"/>
      <path class="b1ae88c4-303c-4b77-95d1-340c68e6c625" d="M174.488,248.5c0-1.079.875-1.763,2.29-1.763a3.719,3.719,0,0,1,1.619.372v-.66c0-.791-.455-1.2-1.378-1.2a4.152,4.152,0,0,0-1.751.468l-.48-.984a5.779,5.779,0,0,1,2.494-.611c1.56,0,2.459.791,2.459,2.183v3.922H178.4v-.613a2.5,2.5,0,0,1-1.787.708A1.894,1.894,0,0,1,174.488,248.5Zm2.494.876a2.14,2.14,0,0,0,1.415-.492V247.9a3.1,3.1,0,0,0-1.39-.288c-.768,0-1.248.336-1.248.865C175.759,249.024,176.239,249.372,176.982,249.372Z"/>
      <path class="b1ae88c4-303c-4b77-95d1-340c68e6c625" d="M181.483,248.616a3.464,3.464,0,0,0,1.931.684c.72,0,1.212-.323,1.212-.8,0-.371-.252-.575-.828-.684l-1.068-.179c-1.163-.216-1.739-.756-1.739-1.655,0-1.127.924-1.859,2.327-1.859a4.234,4.234,0,0,1,2.363.719l-.636.888a3.28,3.28,0,0,0-1.811-.576c-.624,0-1.031.264-1.031.707,0,.384.216.552.852.661l1.055.191c1.2.229,1.775.78,1.775,1.68a2.2,2.2,0,0,1-2.447,1.955,4.022,4.022,0,0,1-2.59-.817Z"/>
      <path class="b1ae88c4-303c-4b77-95d1-340c68e6c625" d="M187.879,245.294h-1.211v-1.079h1.211V242.56l1.355-.289v1.944h1.679v1.079h-1.679v3.047c0,.587.228.815.84.815a2.5,2.5,0,0,0,.816-.144v1.139a4.227,4.227,0,0,1-1.164.168c-1.211,0-1.847-.575-1.847-1.678Z"/>
      <path class="b1ae88c4-303c-4b77-95d1-340c68e6c625" d="M193.566,249.456a.84.84,0,1,1-1.678,0,.84.84,0,1,1,1.678,0Z"/>
      <path class="b1ae88c4-303c-4b77-95d1-340c68e6c625" d="M199.337,249.42a2.309,2.309,0,0,1-1.847.863,3.074,3.074,0,0,1,.084-6.116,2.289,2.289,0,0,1,1.751.791v-3.31l1.356-.228v8.8h-1.344Zm-1.439-.276a1.8,1.8,0,0,0,1.427-.66v-2.53a1.861,1.861,0,0,0-1.427-.648,1.924,1.924,0,0,0,0,3.838Z"/>
      <path class="b1ae88c4-303c-4b77-95d1-340c68e6c625" d="M205.146,250.344a3.055,3.055,0,0,1-3.059-3.119,2.96,2.96,0,0,1,2.927-3.106,2.883,2.883,0,0,1,2.841,3.094v.336h-4.437a1.837,1.837,0,0,0,1.8,1.643,1.952,1.952,0,0,0,1.427-.564l.887.828A3.477,3.477,0,0,1,205.146,250.344Zm-1.7-3.622h3.13a1.644,1.644,0,0,0-1.57-1.5A1.616,1.616,0,0,0,203.442,246.722Z"/>
      <path class="b1ae88c4-303c-4b77-95d1-340c68e6c625" d="M209.335,248.616a3.46,3.46,0,0,0,1.931.684c.719,0,1.212-.323,1.212-.8,0-.371-.252-.575-.829-.684l-1.067-.179c-1.163-.216-1.739-.756-1.739-1.655,0-1.127.924-1.859,2.327-1.859a4.229,4.229,0,0,1,2.362.719l-.636.888a3.28,3.28,0,0,0-1.81-.576c-.624,0-1.031.264-1.031.707,0,.384.216.552.851.661l1.056.191c1.2.229,1.774.78,1.774,1.68a2.2,2.2,0,0,1-2.446,1.955,4.025,4.025,0,0,1-2.591-.817Z"/>
      <path class="b1ae88c4-303c-4b77-95d1-340c68e6c625" d="M215.73,245.294h-1.21v-1.079h1.21V242.56l1.356-.289v1.944h1.679v1.079h-1.679v3.047c0,.587.227.815.84.815a2.49,2.49,0,0,0,.815-.144v1.139a4.216,4.216,0,0,1-1.164.168c-1.211,0-1.847-.575-1.847-1.678Z"/>
      <path class="b1ae88c4-303c-4b77-95d1-340c68e6c625" d="M219.787,242.164a.846.846,0,0,1,1.691,0,.846.846,0,0,1-1.691,0Zm1.523,8.06h-1.355v-6.009h1.355Z"/>
      <path class="b1ae88c4-303c-4b77-95d1-340c68e6c625" d="M222.979,244.215h1.354v.983a2.18,2.18,0,0,1,1.907-1.079,2.022,2.022,0,0,1,2.075,2.147v3.958H226.96v-3.575a1.294,1.294,0,0,0-1.319-1.439,1.541,1.541,0,0,0-1.308.72v4.294h-1.354Z"/>
      <path class="b1ae88c4-303c-4b77-95d1-340c68e6c625" d="M229.663,248.5c0-1.079.875-1.763,2.29-1.763a3.719,3.719,0,0,1,1.619.372v-.66c0-.791-.455-1.2-1.379-1.2a4.156,4.156,0,0,0-1.751.468l-.479-.984a5.773,5.773,0,0,1,2.494-.611c1.56,0,2.459.791,2.459,2.183v3.922h-1.344v-.613a2.5,2.5,0,0,1-1.787.708A1.894,1.894,0,0,1,229.663,248.5Zm2.494.876a2.14,2.14,0,0,0,1.415-.492V247.9a3.1,3.1,0,0,0-1.39-.288c-.768,0-1.248.336-1.248.865C230.934,249.024,231.414,249.372,232.157,249.372Z"/>
      <path class="b1ae88c4-303c-4b77-95d1-340c68e6c625" d="M237.306,245.294H236.1v-1.079h1.211V242.56l1.355-.289v1.944h1.679v1.079h-1.679v3.047c0,.587.228.815.84.815a2.49,2.49,0,0,0,.815-.144v1.139a4.216,4.216,0,0,1-1.164.168c-1.211,0-1.846-.575-1.846-1.678Z"/>
      <path class="b1ae88c4-303c-4b77-95d1-340c68e6c625" d="M241.362,242.164a.846.846,0,0,1,1.691,0,.846.846,0,0,1-1.691,0Zm1.523,8.06H241.53v-6.009h1.355Z"/>
      <path class="b1ae88c4-303c-4b77-95d1-340c68e6c625" d="M247.3,244.119a3.114,3.114,0,1,1-3.023,3.106A3,3,0,0,1,247.3,244.119Zm1.678,3.118a1.7,1.7,0,1,0-3.357,0,1.7,1.7,0,1,0,3.357,0Z"/>
      <path class="b1ae88c4-303c-4b77-95d1-340c68e6c625" d="M251.73,244.215h1.355v.983a2.179,2.179,0,0,1,1.907-1.079,2.022,2.022,0,0,1,2.075,2.147v3.958h-1.355v-3.575a1.294,1.294,0,0,0-1.319-1.439,1.541,1.541,0,0,0-1.308.72v4.294H251.73Z"/>
    </g>
  </g>
  <text class="e541c7fd-49f1-4820-8f56-e6eae201cdce" transform="translate(112.748 193.62)">Broker</text>
  <rect class="f4622b94-b95c-461c-8a62-04c0ea5d987c" x="-0.001" y="503.175" width="215.5" height="55"/>
  <g>
    <path class="eccc97ca-106e-43f6-808f-8ce629552d1c" d="M20.039,525.688a2.123,2.123,0,0,0,1.044-.264,2.813,2.813,0,0,0,.875-.779l1.357,1.284a4.028,4.028,0,0,1-1.465,1.163,4.238,4.238,0,0,1-1.884.445,4.575,4.575,0,0,1-1.752-.336,4.373,4.373,0,0,1-1.4-.912,4.278,4.278,0,0,1-1.271-3.073,4.315,4.315,0,0,1,.341-1.71,4.212,4.212,0,0,1,.937-1.374,4.415,4.415,0,0,1,1.4-.911,4.512,4.512,0,0,1,1.746-.337,4.413,4.413,0,0,1,1.933.445,3.915,3.915,0,0,1,1.476,1.188l-1.392,1.319a2.916,2.916,0,0,0-.918-.834,2.236,2.236,0,0,0-1.1-.281,2.167,2.167,0,0,0-.912.192,2.242,2.242,0,0,0-.725.522,2.379,2.379,0,0,0-.481.792,2.806,2.806,0,0,0-.174.989,2.662,2.662,0,0,0,.181.985,2.352,2.352,0,0,0,.5.785,2.279,2.279,0,0,0,.75.516A2.346,2.346,0,0,0,20.039,525.688Z"/>
    <path class="eccc97ca-106e-43f6-808f-8ce629552d1c" d="M24.119,524.333a3.258,3.258,0,0,1,.245-1.272,3.075,3.075,0,0,1,.678-1.015,3.2,3.2,0,0,1,1.026-.671,3.289,3.289,0,0,1,1.278-.247,3.333,3.333,0,0,1,1.284.247,3.174,3.174,0,0,1,1.033.671,3.088,3.088,0,0,1,.677,1.015,3.259,3.259,0,0,1,.246,1.272,3.19,3.19,0,0,1-.252,1.271,3.137,3.137,0,0,1-.684,1.015,3.211,3.211,0,0,1-1.025.672,3.445,3.445,0,0,1-2.557,0,3.093,3.093,0,0,1-1.7-1.7A3.222,3.222,0,0,1,24.119,524.333Zm3.227,1.56a1.219,1.219,0,0,0,.966-.438,1.656,1.656,0,0,0,.378-1.122,1.7,1.7,0,0,0-.378-1.134,1.2,1.2,0,0,0-.966-.45,1.187,1.187,0,0,0-.96.45,1.719,1.719,0,0,0-.372,1.134,1.673,1.673,0,0,0,.372,1.122A1.2,1.2,0,0,0,27.346,525.893Z"/>
    <path class="eccc97ca-106e-43f6-808f-8ce629552d1c" d="M31.822,527.417v-6.192h1.944v1.007a2.544,2.544,0,0,1,.858-.821,2.19,2.19,0,0,1,1.1-.283,1.967,1.967,0,0,1,1.476.595,2.09,2.09,0,0,1,.576,1.518v4.176H35.83V523.8a1.209,1.209,0,0,0-.282-.834.954.954,0,0,0-.75-.319,1.278,1.278,0,0,0-.57.126,1.329,1.329,0,0,0-.462.39v4.249Z"/>
    <path class="eccc97ca-106e-43f6-808f-8ce629552d1c" d="M38.734,526.78l.851-1.3a6.9,6.9,0,0,0,1.1.487,3.009,3.009,0,0,0,.888.137,1.311,1.311,0,0,0,.648-.137.415.415,0,0,0,.24-.367.351.351,0,0,0-.138-.288.975.975,0,0,0-.438-.155l-1.188-.217a2.546,2.546,0,0,1-1.362-.624,1.577,1.577,0,0,1-.462-1.175,1.785,1.785,0,0,1,.69-1.488,3.007,3.007,0,0,1,1.9-.54,4.693,4.693,0,0,1,1.284.179,5.443,5.443,0,0,1,1.236.529l-.888,1.236a4.438,4.438,0,0,0-.906-.4,3,3,0,0,0-.87-.132,1.11,1.11,0,0,0-.546.113.354.354,0,0,0-.2.318.324.324,0,0,0,.138.288,1.312,1.312,0,0,0,.5.157l1.164.216a2.66,2.66,0,0,1,1.392.629,1.5,1.5,0,0,1,.468,1.159,1.823,1.823,0,0,1-.2.845,1.973,1.973,0,0,1-.557.673,2.786,2.786,0,0,1-.852.444,3.385,3.385,0,0,1-1.056.162,6.223,6.223,0,0,1-1.572-.192A4,4,0,0,1,38.734,526.78Z"/>
    <path class="eccc97ca-106e-43f6-808f-8ce629552d1c" d="M47.266,521.225v3.611a1.213,1.213,0,0,0,.281.834.956.956,0,0,0,.75.318,1.286,1.286,0,0,0,.571-.126,1.326,1.326,0,0,0,.462-.389v-4.248h1.944v6.192H49.33v-1.008a2.553,2.553,0,0,1-.858.821,2.19,2.19,0,0,1-1.1.283,1.967,1.967,0,0,1-1.476-.6,2.089,2.089,0,0,1-.576-1.518v-4.175Z"/>
    <path class="eccc97ca-106e-43f6-808f-8ce629552d1c" d="M52.786,527.417v-6.192H54.73v.983a2.421,2.421,0,0,1,.8-.8,2,2,0,0,1,1.032-.276,1.827,1.827,0,0,1,1.056.312,1.925,1.925,0,0,1,.684.84,2.593,2.593,0,0,1,.876-.851,2.25,2.25,0,0,1,1.151-.3,1.791,1.791,0,0,1,1.4.613,2.251,2.251,0,0,1,.546,1.559v4.117H60.333v-3.732a1.067,1.067,0,0,0-.257-.75.862.862,0,0,0-.666-.283,1.044,1.044,0,0,0-.487.115,1.243,1.243,0,0,0-.413.365v4.285H56.566v-3.732a1.068,1.068,0,0,0-.258-.75.864.864,0,0,0-.666-.283,1.047,1.047,0,0,0-.492.12,1.374,1.374,0,0,0-.42.36v4.285Z"/>
    <path class="eccc97ca-106e-43f6-808f-8ce629552d1c" d="M69.333,526.541a4.04,4.04,0,0,1-1.211.762,3.9,3.9,0,0,1-1.392.234,3.307,3.307,0,0,1-1.278-.246,3.27,3.27,0,0,1-1.038-.679,3.113,3.113,0,0,1-.7-1.02,3.156,3.156,0,0,1-.252-1.259,3.311,3.311,0,0,1,.24-1.272,3.182,3.182,0,0,1,.654-1.02,2.957,2.957,0,0,1,.99-.679,3.129,3.129,0,0,1,1.235-.245,3.033,3.033,0,0,1,1.231.245,2.883,2.883,0,0,1,.96.679,3.145,3.145,0,0,1,.63,1.038,3.727,3.727,0,0,1,.228,1.325v.421h-4.26a1.55,1.55,0,0,0,.528.84,1.42,1.42,0,0,0,.924.323,1.8,1.8,0,0,0,.7-.132,1.288,1.288,0,0,0,.522-.383Zm-2.759-3.913a1.091,1.091,0,0,0-.768.289,1.525,1.525,0,0,0-.432.8h2.459a1.479,1.479,0,0,0-.456-.8A1.18,1.18,0,0,0,66.574,522.628Z"/>
    <path class="eccc97ca-106e-43f6-808f-8ce629552d1c" d="M70.845,527.417v-6.192H72.79v1.4a3.012,3.012,0,0,1,.713-1.146,1.389,1.389,0,0,1,.966-.378,2.245,2.245,0,0,1,.336.042,1.688,1.688,0,0,1,.313.115v1.668a2.09,2.09,0,0,0-.42-.138,2.176,2.176,0,0,0-.492-.055,1.653,1.653,0,0,0-.811.21,1.684,1.684,0,0,0-.6.558v3.913Z"/>
    <path class="eccc97ca-106e-43f6-808f-8ce629552d1c" d="M81.862,519.017v8.4H80.014v-6.48l-1.656.684v-1.633l2.34-.971Z"/>
    <path class="eccc97ca-106e-43f6-808f-8ce629552d1c" d="M15.838,536.408h1.355v.959a2.051,2.051,0,0,1,1.787-1.055,1.891,1.891,0,0,1,1.764,1.163,2.215,2.215,0,0,1,1.99-1.163A1.991,1.991,0,0,1,24.7,538.5v3.922H23.346v-3.634a1.217,1.217,0,0,0-1.212-1.38,1.433,1.433,0,0,0-1.211.708c.012.132.024.252.024.384v3.922H19.592v-3.634a1.216,1.216,0,0,0-1.212-1.38,1.4,1.4,0,0,0-1.187.684v4.33H15.838Z"/>
    <path class="eccc97ca-106e-43f6-808f-8ce629552d1c" d="M27.885,542.453l-2.266-6.045h1.51l1.524,4.461,1.679-4.461h1.475L28.953,543.4a2.032,2.032,0,0,1-2.135,1.583,2.874,2.874,0,0,1-.684-.084v-1.163a4.934,4.934,0,0,0,.528.048.958.958,0,0,0,.971-.7Z"/>
    <path class="eccc97ca-106e-43f6-808f-8ce629552d1c" d="M34.257,541.649a.84.84,0,1,1-.84-.876A.866.866,0,0,1,34.257,541.649Z"/>
    <path class="eccc97ca-106e-43f6-808f-8ce629552d1c" d="M35.434,540.689c0-1.079.875-1.763,2.29-1.763a3.705,3.705,0,0,1,1.619.372v-.659c0-.792-.455-1.2-1.379-1.2a4.156,4.156,0,0,0-1.751.468l-.479-.984a5.773,5.773,0,0,1,2.494-.611c1.56,0,2.459.792,2.459,2.183v3.922H39.343V541.8a2.509,2.509,0,0,1-1.787.707A1.894,1.894,0,0,1,35.434,540.689Zm2.494.876a2.14,2.14,0,0,0,1.415-.492v-.983a3.1,3.1,0,0,0-1.39-.288c-.768,0-1.248.336-1.248.864C36.705,541.217,37.185,541.565,37.928,541.565Z"/>
    <path class="eccc97ca-106e-43f6-808f-8ce629552d1c" d="M42.333,536.408h1.355v.983a2.182,2.182,0,0,1,1.907-1.079,2.021,2.021,0,0,1,2.075,2.146v3.959H46.315v-3.575A1.294,1.294,0,0,0,45,537.4a1.541,1.541,0,0,0-1.308.72v4.294H42.333Z"/>
    <path class="eccc97ca-106e-43f6-808f-8ce629552d1c" d="M50.853,542.453l-2.267-6.045H50.1l1.524,4.461,1.678-4.461h1.476L51.92,543.4a2.031,2.031,0,0,1-2.134,1.583,2.868,2.868,0,0,1-.684-.084v-1.163a4.9,4.9,0,0,0,.527.048.958.958,0,0,0,.972-.7Z"/>
    <path class="eccc97ca-106e-43f6-808f-8ce629552d1c" d="M60.054,540.677l.817.816a3.129,3.129,0,0,1-2.352,1.044,3.107,3.107,0,0,1,0-6.213,3.236,3.236,0,0,1,2.4,1.008l-.839.875a1.986,1.986,0,0,0-1.511-.708,1.928,1.928,0,0,0,.035,3.838A1.844,1.844,0,0,0,60.054,540.677Z"/>
    <path class="eccc97ca-106e-43f6-808f-8ce629552d1c" d="M61.738,540.689c0-1.079.875-1.763,2.29-1.763a3.708,3.708,0,0,1,1.619.372v-.659c0-.792-.455-1.2-1.379-1.2a4.152,4.152,0,0,0-1.751.468l-.479-.984a5.773,5.773,0,0,1,2.494-.611c1.559,0,2.459.792,2.459,2.183v3.922H65.647V541.8a2.511,2.511,0,0,1-1.787.707A1.894,1.894,0,0,1,61.738,540.689Zm2.494.876a2.14,2.14,0,0,0,1.415-.492v-.983a3.107,3.107,0,0,0-1.391-.288c-.767,0-1.248.336-1.248.864C63.008,541.217,63.489,541.565,64.232,541.565Z"/>
    <path class="eccc97ca-106e-43f6-808f-8ce629552d1c" d="M68.733,540.81a3.465,3.465,0,0,0,1.931.683c.719,0,1.211-.324,1.211-.8,0-.371-.251-.575-.828-.683l-1.067-.18c-1.163-.216-1.739-.756-1.739-1.655,0-1.128.924-1.859,2.327-1.859a4.229,4.229,0,0,1,2.362.719l-.636.888a3.28,3.28,0,0,0-1.81-.576c-.624,0-1.031.264-1.031.708,0,.384.215.552.851.659l1.056.192c1.2.228,1.774.78,1.774,1.68a2.2,2.2,0,0,1-2.446,1.955,4.031,4.031,0,0,1-2.591-.816Z"/>
    <path class="eccc97ca-106e-43f6-808f-8ce629552d1c" d="M75.128,537.487H73.917v-1.079h1.211v-1.655l1.356-.288v1.943h1.679v1.079H76.484v3.047c0,.587.227.815.84.815a2.49,2.49,0,0,0,.815-.144v1.14a4.259,4.259,0,0,1-1.164.167c-1.211,0-1.847-.575-1.847-1.679Z"/>
    <path class="eccc97ca-106e-43f6-808f-8ce629552d1c" d="M80.816,541.649a.84.84,0,1,1-.84-.876A.866.866,0,0,1,80.816,541.649Z"/>
    <path class="eccc97ca-106e-43f6-808f-8ce629552d1c" d="M86.586,541.613a2.308,2.308,0,0,1-1.846.864,3.074,3.074,0,0,1,.084-6.117,2.292,2.292,0,0,1,1.751.791v-3.31l1.355-.228v8.8H86.586Zm-1.438-.276a1.8,1.8,0,0,0,1.427-.66v-2.53a1.864,1.864,0,0,0-1.427-.648,1.924,1.924,0,0,0,0,3.838Z"/>
    <path class="eccc97ca-106e-43f6-808f-8ce629552d1c" d="M92.4,542.537a3.056,3.056,0,0,1-3.059-3.119,2.96,2.96,0,0,1,2.927-3.106,2.884,2.884,0,0,1,2.842,3.094v.336H90.667a1.837,1.837,0,0,0,1.8,1.643,1.951,1.951,0,0,0,1.427-.564l.888.828A3.474,3.474,0,0,1,92.4,542.537Zm-1.7-3.622h3.13a1.645,1.645,0,0,0-1.571-1.5A1.615,1.615,0,0,0,90.692,538.915Z"/>
    <path class="eccc97ca-106e-43f6-808f-8ce629552d1c" d="M96.584,540.81a3.47,3.47,0,0,0,1.931.683c.72,0,1.212-.324,1.212-.8,0-.371-.252-.575-.828-.683l-1.067-.18c-1.164-.216-1.74-.756-1.74-1.655,0-1.128.924-1.859,2.327-1.859a4.234,4.234,0,0,1,2.363.719l-.636.888a3.28,3.28,0,0,0-1.811-.576c-.624,0-1.031.264-1.031.708,0,.384.216.552.852.659l1.055.192c1.2.228,1.775.78,1.775,1.68a2.2,2.2,0,0,1-2.446,1.955,4.029,4.029,0,0,1-2.591-.816Z"/>
    <path class="eccc97ca-106e-43f6-808f-8ce629552d1c" d="M102.98,537.487h-1.211v-1.079h1.211v-1.655l1.355-.288v1.943h1.679v1.079h-1.679v3.047c0,.587.228.815.84.815a2.5,2.5,0,0,0,.816-.144v1.14a4.264,4.264,0,0,1-1.164.167c-1.211,0-1.847-.575-1.847-1.679Z"/>
    <path class="eccc97ca-106e-43f6-808f-8ce629552d1c" d="M107.037,534.357a.845.845,0,0,1,1.69,0,.845.845,0,0,1-1.69,0Zm1.522,8.06h-1.354v-6.009h1.354Z"/>
    <path class="eccc97ca-106e-43f6-808f-8ce629552d1c" d="M110.228,536.408h1.355v.983a2.181,2.181,0,0,1,1.907-1.079,2.022,2.022,0,0,1,2.075,2.146v3.959h-1.356v-3.575a1.294,1.294,0,0,0-1.319-1.439,1.54,1.54,0,0,0-1.307.72v4.294h-1.355Z"/>
    <path class="eccc97ca-106e-43f6-808f-8ce629552d1c" d="M116.913,540.689c0-1.079.875-1.763,2.29-1.763a3.708,3.708,0,0,1,1.619.372v-.659c0-.792-.455-1.2-1.379-1.2a4.152,4.152,0,0,0-1.751.468l-.48-.984a5.78,5.78,0,0,1,2.495-.611c1.559,0,2.459.792,2.459,2.183v3.922h-1.344V541.8a2.511,2.511,0,0,1-1.787.707A1.894,1.894,0,0,1,116.913,540.689Zm2.494.876a2.14,2.14,0,0,0,1.415-.492v-.983a3.11,3.11,0,0,0-1.391-.288c-.767,0-1.248.336-1.248.864C118.183,541.217,118.664,541.565,119.407,541.565Z"/>
    <path class="eccc97ca-106e-43f6-808f-8ce629552d1c" d="M124.555,537.487h-1.211v-1.079h1.211v-1.655l1.356-.288v1.943h1.678v1.079h-1.678v3.047c0,.587.227.815.839.815a2.491,2.491,0,0,0,.816-.144v1.14a4.264,4.264,0,0,1-1.164.167c-1.211,0-1.847-.575-1.847-1.679Z"/>
    <path class="eccc97ca-106e-43f6-808f-8ce629552d1c" d="M128.612,534.357a.845.845,0,0,1,1.69,0,.845.845,0,0,1-1.69,0Zm1.522,8.06H128.78v-6.009h1.354Z"/>
    <path class="eccc97ca-106e-43f6-808f-8ce629552d1c" d="M134.55,536.312a3.114,3.114,0,1,1-3.022,3.106A3,3,0,0,1,134.55,536.312Zm1.679,3.118a1.7,1.7,0,1,0-3.357,0,1.7,1.7,0,1,0,3.357,0Z"/>
    <path class="eccc97ca-106e-43f6-808f-8ce629552d1c" d="M138.98,536.408h1.354v.983a2.184,2.184,0,0,1,1.908-1.079,2.022,2.022,0,0,1,2.075,2.146v3.959h-1.356v-3.575a1.294,1.294,0,0,0-1.319-1.439,1.542,1.542,0,0,0-1.308.72v4.294H138.98Z"/>
  </g>
  <rect class="f4622b94-b95c-461c-8a62-04c0ea5d987c" x="225.499" y="503.175" width="215.5" height="55"/>
  <g>
    <path class="eccc97ca-106e-43f6-808f-8ce629552d1c" d="M245.539,525.688a2.123,2.123,0,0,0,1.044-.264,2.813,2.813,0,0,0,.875-.779l1.357,1.284a4.028,4.028,0,0,1-1.465,1.163,4.238,4.238,0,0,1-1.884.445,4.575,4.575,0,0,1-1.752-.336,4.373,4.373,0,0,1-1.4-.912,4.278,4.278,0,0,1-1.271-3.073,4.315,4.315,0,0,1,.341-1.71,4.212,4.212,0,0,1,.937-1.374,4.415,4.415,0,0,1,1.4-.911,4.512,4.512,0,0,1,1.746-.337,4.413,4.413,0,0,1,1.933.445,3.915,3.915,0,0,1,1.476,1.188l-1.392,1.319a2.916,2.916,0,0,0-.918-.834,2.236,2.236,0,0,0-1.1-.281,2.167,2.167,0,0,0-.912.192,2.242,2.242,0,0,0-.725.522,2.379,2.379,0,0,0-.481.792,2.806,2.806,0,0,0-.174.989,2.662,2.662,0,0,0,.181.985,2.352,2.352,0,0,0,.5.785,2.279,2.279,0,0,0,.75.516A2.346,2.346,0,0,0,245.539,525.688Z"/>
    <path class="eccc97ca-106e-43f6-808f-8ce629552d1c" d="M249.619,524.333a3.258,3.258,0,0,1,.245-1.272,3.075,3.075,0,0,1,.678-1.015,3.2,3.2,0,0,1,1.026-.671,3.289,3.289,0,0,1,1.278-.247,3.333,3.333,0,0,1,1.284.247,3.174,3.174,0,0,1,1.033.671,3.088,3.088,0,0,1,.677,1.015,3.259,3.259,0,0,1,.246,1.272,3.19,3.19,0,0,1-.252,1.271,3.137,3.137,0,0,1-.684,1.015,3.211,3.211,0,0,1-1.025.672,3.445,3.445,0,0,1-2.557,0,3.093,3.093,0,0,1-1.7-1.7A3.222,3.222,0,0,1,249.619,524.333Zm3.227,1.56a1.219,1.219,0,0,0,.966-.438,1.656,1.656,0,0,0,.378-1.122,1.7,1.7,0,0,0-.378-1.134,1.2,1.2,0,0,0-.966-.45,1.187,1.187,0,0,0-.96.45,1.719,1.719,0,0,0-.372,1.134,1.673,1.673,0,0,0,.372,1.122A1.2,1.2,0,0,0,252.846,525.893Z"/>
    <path class="eccc97ca-106e-43f6-808f-8ce629552d1c" d="M257.322,527.417v-6.192h1.944v1.007a2.544,2.544,0,0,1,.858-.821,2.19,2.19,0,0,1,1.1-.283,1.967,1.967,0,0,1,1.476.595,2.09,2.09,0,0,1,.576,1.518v4.176H261.33V523.8a1.209,1.209,0,0,0-.282-.834.954.954,0,0,0-.75-.319,1.278,1.278,0,0,0-.57.126,1.329,1.329,0,0,0-.462.39v4.249Z"/>
    <path class="eccc97ca-106e-43f6-808f-8ce629552d1c" d="M264.234,526.78l.851-1.3a6.9,6.9,0,0,0,1.105.487,3.009,3.009,0,0,0,.888.137,1.311,1.311,0,0,0,.648-.137.415.415,0,0,0,.24-.367.351.351,0,0,0-.138-.288.975.975,0,0,0-.438-.155l-1.188-.217a2.546,2.546,0,0,1-1.362-.624,1.577,1.577,0,0,1-.462-1.175,1.785,1.785,0,0,1,.69-1.488,3.007,3.007,0,0,1,1.9-.54,4.693,4.693,0,0,1,1.284.179,5.443,5.443,0,0,1,1.236.529l-.888,1.236a4.438,4.438,0,0,0-.906-.4,3,3,0,0,0-.87-.132,1.11,1.11,0,0,0-.546.113.354.354,0,0,0-.2.318.324.324,0,0,0,.138.288,1.312,1.312,0,0,0,.5.157l1.164.216a2.66,2.66,0,0,1,1.392.629,1.5,1.5,0,0,1,.468,1.159,1.823,1.823,0,0,1-.2.845,1.973,1.973,0,0,1-.557.673,2.786,2.786,0,0,1-.852.444,3.385,3.385,0,0,1-1.056.162,6.223,6.223,0,0,1-1.572-.192A4,4,0,0,1,264.234,526.78Z"/>
    <path class="eccc97ca-106e-43f6-808f-8ce629552d1c" d="M272.766,521.225v3.611a1.213,1.213,0,0,0,.281.834.956.956,0,0,0,.75.318,1.286,1.286,0,0,0,.571-.126,1.326,1.326,0,0,0,.462-.389v-4.248h1.944v6.192H274.83v-1.008a2.553,2.553,0,0,1-.858.821,2.19,2.19,0,0,1-1.1.283,1.967,1.967,0,0,1-1.476-.6,2.089,2.089,0,0,1-.576-1.518v-4.175Z"/>
    <path class="eccc97ca-106e-43f6-808f-8ce629552d1c" d="M278.286,527.417v-6.192h1.944v.983a2.421,2.421,0,0,1,.8-.8,2,2,0,0,1,1.032-.276,1.827,1.827,0,0,1,1.056.312,1.925,1.925,0,0,1,.684.84,2.593,2.593,0,0,1,.876-.851,2.25,2.25,0,0,1,1.151-.3,1.791,1.791,0,0,1,1.4.613,2.251,2.251,0,0,1,.546,1.559v4.117h-1.945v-3.732a1.067,1.067,0,0,0-.257-.75.862.862,0,0,0-.666-.283,1.044,1.044,0,0,0-.487.115,1.243,1.243,0,0,0-.413.365v4.285h-1.944v-3.732a1.068,1.068,0,0,0-.258-.75.864.864,0,0,0-.666-.283,1.047,1.047,0,0,0-.492.12,1.374,1.374,0,0,0-.42.36v4.285Z"/>
    <path class="eccc97ca-106e-43f6-808f-8ce629552d1c" d="M294.833,526.541a4.04,4.04,0,0,1-1.211.762,3.9,3.9,0,0,1-1.392.234,3.307,3.307,0,0,1-1.278-.246,3.27,3.27,0,0,1-1.038-.679,3.113,3.113,0,0,1-.7-1.02,3.156,3.156,0,0,1-.252-1.259,3.311,3.311,0,0,1,.24-1.272,3.182,3.182,0,0,1,.654-1.02,2.957,2.957,0,0,1,.99-.679,3.129,3.129,0,0,1,1.235-.245,3.033,3.033,0,0,1,1.231.245,2.883,2.883,0,0,1,.96.679,3.145,3.145,0,0,1,.63,1.038,3.727,3.727,0,0,1,.228,1.325v.421h-4.26a1.55,1.55,0,0,0,.528.84,1.42,1.42,0,0,0,.924.323,1.8,1.8,0,0,0,.7-.132,1.288,1.288,0,0,0,.522-.383Zm-2.759-3.913a1.091,1.091,0,0,0-.768.289,1.525,1.525,0,0,0-.432.8h2.459a1.479,1.479,0,0,0-.456-.8A1.18,1.18,0,0,0,292.074,522.628Z"/>
    <path class="eccc97ca-106e-43f6-808f-8ce629552d1c" d="M296.345,527.417v-6.192h1.945v1.4a3.012,3.012,0,0,1,.713-1.146,1.389,1.389,0,0,1,.966-.378,2.245,2.245,0,0,1,.336.042,1.688,1.688,0,0,1,.313.115v1.668a2.09,2.09,0,0,0-.42-.138,2.176,2.176,0,0,0-.492-.055,1.653,1.653,0,0,0-.811.21,1.684,1.684,0,0,0-.6.558v3.913Z"/>
    <path class="eccc97ca-106e-43f6-808f-8ce629552d1c" d="M304.086,527.417V526.1l3.552-3.516a2.237,2.237,0,0,0,.426-.559,1.209,1.209,0,0,0,.138-.558.819.819,0,0,0-.354-.677,1.406,1.406,0,0,0-.882-.27,2.389,2.389,0,0,0-1.056.239,4.446,4.446,0,0,0-1.068.792l-1.032-1.259a5.224,5.224,0,0,1,1.536-1.033,4.241,4.241,0,0,1,1.68-.347,3.288,3.288,0,0,1,2.154.672,2.168,2.168,0,0,1,.822,1.764,2.4,2.4,0,0,1-.264,1.1,4.283,4.283,0,0,1-.828,1.068l-2.424,2.339,3.637-.011v1.572Z"/>
    <path class="eccc97ca-106e-43f6-808f-8ce629552d1c" d="M241.338,536.408h1.355v.959a2.051,2.051,0,0,1,1.787-1.055,1.891,1.891,0,0,1,1.764,1.163,2.215,2.215,0,0,1,1.99-1.163A1.991,1.991,0,0,1,250.2,538.5v3.922h-1.356v-3.634a1.217,1.217,0,0,0-1.212-1.38,1.433,1.433,0,0,0-1.211.708c.012.132.024.252.024.384v3.922h-1.355v-3.634a1.216,1.216,0,0,0-1.212-1.38,1.4,1.4,0,0,0-1.187.684v4.33h-1.355Z"/>
    <path class="eccc97ca-106e-43f6-808f-8ce629552d1c" d="M253.385,542.453l-2.266-6.045h1.51l1.524,4.461,1.679-4.461h1.475l-2.854,6.992a2.032,2.032,0,0,1-2.135,1.583,2.874,2.874,0,0,1-.684-.084v-1.163a4.934,4.934,0,0,0,.528.048.958.958,0,0,0,.971-.7Z"/>
    <path class="eccc97ca-106e-43f6-808f-8ce629552d1c" d="M259.757,541.649a.84.84,0,1,1-.84-.876A.866.866,0,0,1,259.757,541.649Z"/>
    <path class="eccc97ca-106e-43f6-808f-8ce629552d1c" d="M260.934,540.689c0-1.079.875-1.763,2.29-1.763a3.705,3.705,0,0,1,1.619.372v-.659c0-.792-.455-1.2-1.379-1.2a4.156,4.156,0,0,0-1.751.468l-.479-.984a5.773,5.773,0,0,1,2.494-.611c1.56,0,2.459.792,2.459,2.183v3.922h-1.344V541.8a2.509,2.509,0,0,1-1.787.707A1.894,1.894,0,0,1,260.934,540.689Zm2.494.876a2.14,2.14,0,0,0,1.415-.492v-.983a3.1,3.1,0,0,0-1.39-.288c-.768,0-1.248.336-1.248.864C262.205,541.217,262.685,541.565,263.428,541.565Z"/>
    <path class="eccc97ca-106e-43f6-808f-8ce629552d1c" d="M267.833,536.408h1.355v.983a2.182,2.182,0,0,1,1.907-1.079,2.021,2.021,0,0,1,2.075,2.146v3.959h-1.355v-3.575A1.294,1.294,0,0,0,270.5,537.4a1.541,1.541,0,0,0-1.308.72v4.294h-1.355Z"/>
    <path class="eccc97ca-106e-43f6-808f-8ce629552d1c" d="M276.353,542.453l-2.267-6.045H275.6l1.524,4.461,1.678-4.461h1.476L277.42,543.4a2.031,2.031,0,0,1-2.134,1.583,2.868,2.868,0,0,1-.684-.084v-1.163a4.9,4.9,0,0,0,.527.048.958.958,0,0,0,.972-.7Z"/>
    <path class="eccc97ca-106e-43f6-808f-8ce629552d1c" d="M285.554,540.677l.817.816a3.129,3.129,0,0,1-2.352,1.044,3.107,3.107,0,0,1,0-6.213,3.236,3.236,0,0,1,2.4,1.008l-.839.875a1.986,1.986,0,0,0-1.511-.708,1.928,1.928,0,0,0,.035,3.838A1.844,1.844,0,0,0,285.554,540.677Z"/>
    <path class="eccc97ca-106e-43f6-808f-8ce629552d1c" d="M287.238,540.689c0-1.079.875-1.763,2.29-1.763a3.708,3.708,0,0,1,1.619.372v-.659c0-.792-.455-1.2-1.379-1.2a4.152,4.152,0,0,0-1.751.468l-.479-.984a5.773,5.773,0,0,1,2.494-.611c1.559,0,2.459.792,2.459,2.183v3.922h-1.344V541.8a2.511,2.511,0,0,1-1.787.707A1.894,1.894,0,0,1,287.238,540.689Zm2.494.876a2.14,2.14,0,0,0,1.415-.492v-.983a3.107,3.107,0,0,0-1.391-.288c-.767,0-1.248.336-1.248.864C288.508,541.217,288.989,541.565,289.732,541.565Z"/>
    <path class="eccc97ca-106e-43f6-808f-8ce629552d1c" d="M294.233,540.81a3.465,3.465,0,0,0,1.931.683c.719,0,1.211-.324,1.211-.8,0-.371-.251-.575-.828-.683l-1.067-.18c-1.163-.216-1.739-.756-1.739-1.655,0-1.128.924-1.859,2.327-1.859a4.229,4.229,0,0,1,2.362.719l-.636.888a3.28,3.28,0,0,0-1.81-.576c-.624,0-1.031.264-1.031.708,0,.384.215.552.851.659l1.056.192c1.2.228,1.774.78,1.774,1.68a2.2,2.2,0,0,1-2.446,1.955,4.031,4.031,0,0,1-2.591-.816Z"/>
    <path class="eccc97ca-106e-43f6-808f-8ce629552d1c" d="M300.628,537.487h-1.211v-1.079h1.211v-1.655l1.356-.288v1.943h1.679v1.079h-1.679v3.047c0,.587.227.815.84.815a2.49,2.49,0,0,0,.815-.144v1.14a4.259,4.259,0,0,1-1.164.167c-1.211,0-1.847-.575-1.847-1.679Z"/>
    <path class="eccc97ca-106e-43f6-808f-8ce629552d1c" d="M306.316,541.649a.84.84,0,1,1-.84-.876A.866.866,0,0,1,306.316,541.649Z"/>
    <path class="eccc97ca-106e-43f6-808f-8ce629552d1c" d="M312.086,541.613a2.308,2.308,0,0,1-1.846.864,3.074,3.074,0,0,1,.084-6.117,2.292,2.292,0,0,1,1.751.791v-3.31l1.355-.228v8.8h-1.344Zm-1.438-.276a1.8,1.8,0,0,0,1.427-.66v-2.53a1.864,1.864,0,0,0-1.427-.648,1.924,1.924,0,0,0,0,3.838Z"/>
    <path class="eccc97ca-106e-43f6-808f-8ce629552d1c" d="M317.9,542.537a3.056,3.056,0,0,1-3.059-3.119,2.96,2.96,0,0,1,2.927-3.106,2.884,2.884,0,0,1,2.842,3.094v.336h-4.438a1.837,1.837,0,0,0,1.8,1.643,1.951,1.951,0,0,0,1.427-.564l.888.828A3.474,3.474,0,0,1,317.9,542.537Zm-1.7-3.622h3.13a1.645,1.645,0,0,0-1.571-1.5A1.615,1.615,0,0,0,316.192,538.915Z"/>
    <path class="eccc97ca-106e-43f6-808f-8ce629552d1c" d="M322.084,540.81a3.47,3.47,0,0,0,1.931.683c.72,0,1.212-.324,1.212-.8,0-.371-.252-.575-.828-.683l-1.067-.18c-1.164-.216-1.74-.756-1.74-1.655,0-1.128.924-1.859,2.327-1.859a4.234,4.234,0,0,1,2.363.719l-.636.888a3.28,3.28,0,0,0-1.811-.576c-.624,0-1.031.264-1.031.708,0,.384.216.552.852.659l1.055.192c1.2.228,1.775.78,1.775,1.68a2.2,2.2,0,0,1-2.446,1.955,4.029,4.029,0,0,1-2.591-.816Z"/>
    <path class="eccc97ca-106e-43f6-808f-8ce629552d1c" d="M328.48,537.487h-1.211v-1.079h1.211v-1.655l1.355-.288v1.943h1.679v1.079h-1.679v3.047c0,.587.228.815.84.815a2.5,2.5,0,0,0,.816-.144v1.14a4.264,4.264,0,0,1-1.164.167c-1.211,0-1.847-.575-1.847-1.679Z"/>
    <path class="eccc97ca-106e-43f6-808f-8ce629552d1c" d="M332.537,534.357a.845.845,0,0,1,1.69,0,.845.845,0,0,1-1.69,0Zm1.522,8.06h-1.354v-6.009h1.354Z"/>
    <path class="eccc97ca-106e-43f6-808f-8ce629552d1c" d="M335.728,536.408h1.355v.983a2.181,2.181,0,0,1,1.907-1.079,2.022,2.022,0,0,1,2.075,2.146v3.959h-1.356v-3.575a1.294,1.294,0,0,0-1.319-1.439,1.54,1.54,0,0,0-1.307.72v4.294h-1.355Z"/>
    <path class="eccc97ca-106e-43f6-808f-8ce629552d1c" d="M342.413,540.689c0-1.079.875-1.763,2.29-1.763a3.708,3.708,0,0,1,1.619.372v-.659c0-.792-.455-1.2-1.379-1.2a4.152,4.152,0,0,0-1.751.468l-.48-.984a5.78,5.78,0,0,1,2.5-.611c1.559,0,2.459.792,2.459,2.183v3.922h-1.344V541.8a2.511,2.511,0,0,1-1.787.707A1.894,1.894,0,0,1,342.413,540.689Zm2.494.876a2.14,2.14,0,0,0,1.415-.492v-.983a3.11,3.11,0,0,0-1.391-.288c-.767,0-1.248.336-1.248.864C343.683,541.217,344.164,541.565,344.907,541.565Z"/>
    <path class="eccc97ca-106e-43f6-808f-8ce629552d1c" d="M350.055,537.487h-1.211v-1.079h1.211v-1.655l1.356-.288v1.943h1.678v1.079h-1.678v3.047c0,.587.227.815.839.815a2.491,2.491,0,0,0,.816-.144v1.14a4.264,4.264,0,0,1-1.164.167c-1.211,0-1.847-.575-1.847-1.679Z"/>
    <path class="eccc97ca-106e-43f6-808f-8ce629552d1c" d="M354.112,534.357a.845.845,0,0,1,1.69,0,.845.845,0,0,1-1.69,0Zm1.522,8.06H354.28v-6.009h1.354Z"/>
    <path class="eccc97ca-106e-43f6-808f-8ce629552d1c" d="M360.05,536.312a3.114,3.114,0,1,1-3.022,3.106A3,3,0,0,1,360.05,536.312Zm1.679,3.118a1.7,1.7,0,1,0-3.357,0,1.7,1.7,0,1,0,3.357,0Z"/>
    <path class="eccc97ca-106e-43f6-808f-8ce629552d1c" d="M364.48,536.408h1.354v.983a2.184,2.184,0,0,1,1.908-1.079,2.022,2.022,0,0,1,2.075,2.146v3.959h-1.356v-3.575a1.294,1.294,0,0,0-1.319-1.439,1.542,1.542,0,0,0-1.308.72v4.294H364.48Z"/>
  </g>
  <g>
    <g>
      <line class="a375708d-7898-421c-86a7-210c81b59a3f" x1="220.499" y1="74.794" x2="220.499" y2="153.76"/>
      <polygon class="eccc97ca-106e-43f6-808f-8ce629552d1c" points="215.512 152.301 220.499 160.936 225.485 152.301 215.512 152.301"/>
    </g>
    <rect class="b1ae88c4-303c-4b77-95d1-340c68e6c625" x="184.912" y="111.117" width="71.174" height="30.699"/>
    <g>
      <text class="b94ad13d-1ddb-4b6f-8b49-a9970bf2aff7" transform="translate(193.756 135.049)">Message 1-N</text>
      <g>
        <polygon class="ba30350d-b785-4db8-a46d-2a83ab17555d" points="232.249 119.996 208.749 119.996 208.749 93.789 214.624 87.965 232.249 87.965 232.249 119.996"/>
        <polygon class="f46d3749-431c-4712-b2f9-b1aa6f5e9793" points="214.624 93.789 208.749 93.789 214.624 87.965 214.624 93.789"/>
        <line class="f46d3749-431c-4712-b2f9-b1aa6f5e9793" x1="213.155" y1="98.157" x2="220.499" y2="98.157"/>
        <line class="f46d3749-431c-4712-b2f9-b1aa6f5e9793" x1="213.155" y1="102.525" x2="227.843" y2="102.525"/>
        <line class="f46d3749-431c-4712-b2f9-b1aa6f5e9793" x1="213.155" y1="106.893" x2="227.843" y2="106.893"/>
        <line class="f46d3749-431c-4712-b2f9-b1aa6f5e9793" x1="213.155" y1="111.26" x2="227.843" y2="111.26"/>
      </g>
    </g>
  </g>
  <g>
    <g>
      <line class="a375708d-7898-421c-86a7-210c81b59a3f" x1="153.029" y1="414.533" x2="153.029" y2="493.499"/>
      <polygon class="eccc97ca-106e-43f6-808f-8ce629552d1c" points="148.042 492.04 153.029 500.675 158.015 492.04 148.042 492.04"/>
    </g>
    <rect class="b1ae88c4-303c-4b77-95d1-340c68e6c625" x="117.442" y="450.857" width="71.174" height="30.699"/>
    <g>
      <text class="b94ad13d-1ddb-4b6f-8b49-a9970bf2aff7" transform="translate(131.789 474.789)">Message 1</text>
      <g>
        <polygon class="ba30350d-b785-4db8-a46d-2a83ab17555d" points="164.779 459.736 141.279 459.736 141.279 433.528 147.154 427.704 164.779 427.704 164.779 459.736"/>
        <polygon class="f46d3749-431c-4712-b2f9-b1aa6f5e9793" points="147.154 433.528 141.279 433.528 147.154 427.704 147.154 433.528"/>
        <line class="f46d3749-431c-4712-b2f9-b1aa6f5e9793" x1="145.686" y1="437.896" x2="153.029" y2="437.896"/>
        <line class="f46d3749-431c-4712-b2f9-b1aa6f5e9793" x1="145.686" y1="442.264" x2="160.373" y2="442.264"/>
        <line class="f46d3749-431c-4712-b2f9-b1aa6f5e9793" x1="145.686" y1="446.632" x2="160.373" y2="446.632"/>
        <line class="f46d3749-431c-4712-b2f9-b1aa6f5e9793" x1="145.686" y1="451" x2="160.373" y2="451"/>
      </g>
    </g>
  </g>
  <g>
    <g>
      <line class="a375708d-7898-421c-86a7-210c81b59a3f" x1="287.969" y1="414.533" x2="287.969" y2="493.499"/>
      <polygon class="eccc97ca-106e-43f6-808f-8ce629552d1c" points="282.982 492.04 287.969 500.675 292.955 492.04 282.982 492.04"/>
    </g>
    <rect class="b1ae88c4-303c-4b77-95d1-340c68e6c625" x="252.382" y="450.857" width="71.174" height="30.699"/>
    <g>
      <text class="b94ad13d-1ddb-4b6f-8b49-a9970bf2aff7" transform="translate(265.703 474.789)">Message 2</text>
      <g>
        <polygon class="ba30350d-b785-4db8-a46d-2a83ab17555d" points="299.719 459.736 276.219 459.736 276.219 433.528 282.094 427.704 299.719 427.704 299.719 459.736"/>
        <polygon class="f46d3749-431c-4712-b2f9-b1aa6f5e9793" points="282.094 433.528 276.219 433.528 282.094 427.704 282.094 433.528"/>
        <line class="f46d3749-431c-4712-b2f9-b1aa6f5e9793" x1="280.625" y1="437.896" x2="287.969" y2="437.896"/>
        <line class="f46d3749-431c-4712-b2f9-b1aa6f5e9793" x1="280.625" y1="442.264" x2="295.313" y2="442.264"/>
        <line class="f46d3749-431c-4712-b2f9-b1aa6f5e9793" x1="280.625" y1="446.632" x2="295.313" y2="446.632"/>
        <line class="f46d3749-431c-4712-b2f9-b1aa6f5e9793" x1="280.625" y1="451" x2="295.313" y2="451"/>
      </g>
    </g>
  </g>
  <g>
    <line class="a375708d-7898-421c-86a7-210c81b59a3f" x1="220.499" y1="265.982" x2="220.499" y2="279.945"/>
    <polygon class="eccc97ca-106e-43f6-808f-8ce629552d1c" points="215.512 278.486 220.499 287.121 225.485 278.486 215.512 278.486"/>
  </g>
  <g>
    <text class="bc78cc20-e9de-48c5-a6ac-ab1fcf0f136b" transform="translate(694.192 558.193)">120_AMQ_1120</text>
    <rect class="ee941a22-1604-4f5d-9f4d-e5841757eff9" y="535.175" width="760" height="40"/>
  </g>
  <rect class="b1ae88c4-303c-4b77-95d1-340c68e6c625" x="112.749" y="289.621" width="215.5" height="125"/>
  <g>
    <path class="eccc97ca-106e-43f6-808f-8ce629552d1c" d="M136.964,309.625a4.327,4.327,0,0,1-1.188,3l.732.875-1.476,1.009-.732-.876a4.118,4.118,0,0,1-.8.24,4.486,4.486,0,0,1-.87.084,4.361,4.361,0,0,1-1.71-.336,4.2,4.2,0,0,1-2.3-2.3,4.458,4.458,0,0,1,0-3.4,4.2,4.2,0,0,1,2.3-2.3,4.362,4.362,0,0,1,1.71-.337,4.332,4.332,0,0,1,3.078,1.255,4.273,4.273,0,0,1,.918,1.38A4.331,4.331,0,0,1,136.964,309.625Zm-3.192.588.684.828a2.573,2.573,0,0,0,.276-.654,3.031,3.031,0,0,0-.072-1.752,2.417,2.417,0,0,0-.462-.792,2.163,2.163,0,0,0-.7-.522,2.094,2.094,0,0,0-1.752,0,2.163,2.163,0,0,0-.7.522,2.417,2.417,0,0,0-.462.792,3,3,0,0,0,0,1.98,2.417,2.417,0,0,0,.462.792,2.163,2.163,0,0,0,.7.522,2.032,2.032,0,0,0,.876.192,1.7,1.7,0,0,0,.2-.012l.2-.025-.72-.863Z"/>
    <path class="eccc97ca-106e-43f6-808f-8ce629552d1c" d="M140.156,307.633v3.612a1.21,1.21,0,0,0,.282.834.952.952,0,0,0,.75.317,1.294,1.294,0,0,0,.57-.125,1.318,1.318,0,0,0,.462-.39v-4.248h1.944v6.192H142.22v-1.008a2.556,2.556,0,0,1-.858.822,2.19,2.19,0,0,1-1.1.282,1.966,1.966,0,0,1-1.476-.594,2.09,2.09,0,0,1-.576-1.518v-4.176Z"/>
    <path class="eccc97ca-106e-43f6-808f-8ce629552d1c" d="M151.268,312.949a4.036,4.036,0,0,1-1.212.762,3.881,3.881,0,0,1-1.392.234,3.307,3.307,0,0,1-1.278-.246,3.262,3.262,0,0,1-1.038-.678,3.117,3.117,0,0,1-.7-1.021,3.156,3.156,0,0,1-.252-1.259,3.315,3.315,0,0,1,.24-1.272,3.21,3.21,0,0,1,.654-1.02,2.969,2.969,0,0,1,.99-.678,3.114,3.114,0,0,1,1.236-.246,3.016,3.016,0,0,1,1.23.246,2.9,2.9,0,0,1,.96.678,3.112,3.112,0,0,1,.63,1.038,3.735,3.735,0,0,1,.228,1.325v.421h-4.26a1.552,1.552,0,0,0,.528.84,1.415,1.415,0,0,0,.924.323,1.814,1.814,0,0,0,.7-.131,1.3,1.3,0,0,0,.522-.384Zm-2.76-3.912a1.09,1.09,0,0,0-.768.288,1.533,1.533,0,0,0-.432.8h2.46a1.478,1.478,0,0,0-.456-.8A1.18,1.18,0,0,0,148.508,309.037Z"/>
    <path class="eccc97ca-106e-43f6-808f-8ce629552d1c" d="M154.676,307.633v3.612a1.215,1.215,0,0,0,.281.834.955.955,0,0,0,.75.317,1.294,1.294,0,0,0,.57-.125,1.31,1.31,0,0,0,.462-.39v-4.248h1.945v6.192h-1.945v-1.008a2.544,2.544,0,0,1-.857.822,2.191,2.191,0,0,1-1.1.282,1.964,1.964,0,0,1-1.475-.594,2.091,2.091,0,0,1-.577-1.518v-4.176Z"/>
    <path class="eccc97ca-106e-43f6-808f-8ce629552d1c" d="M165.787,312.949a4.024,4.024,0,0,1-1.212.762,3.875,3.875,0,0,1-1.391.234,3.315,3.315,0,0,1-1.279-.246,3.273,3.273,0,0,1-1.038-.678,3.114,3.114,0,0,1-.695-1.021,3.156,3.156,0,0,1-.252-1.259,3.333,3.333,0,0,1,.239-1.272,3.21,3.21,0,0,1,.654-1.02,2.983,2.983,0,0,1,.991-.678,3.112,3.112,0,0,1,1.235-.246,3.024,3.024,0,0,1,1.231.246,2.881,2.881,0,0,1,.959.678,3.112,3.112,0,0,1,.63,1.038,3.713,3.713,0,0,1,.229,1.325v.421h-4.261a1.558,1.558,0,0,0,.528.84,1.417,1.417,0,0,0,.924.323,1.81,1.81,0,0,0,.7-.131,1.309,1.309,0,0,0,.523-.384Zm-2.76-3.912a1.089,1.089,0,0,0-.767.288,1.534,1.534,0,0,0-.433.8h2.46a1.472,1.472,0,0,0-.456-.8A1.178,1.178,0,0,0,163.027,309.037Z"/>
    <path class="eccc97ca-106e-43f6-808f-8ce629552d1c" d="M128.588,322.816h1.354v.959a2.053,2.053,0,0,1,1.787-1.055,1.89,1.89,0,0,1,1.764,1.163,2.216,2.216,0,0,1,1.99-1.163,1.992,1.992,0,0,1,1.968,2.183v3.922H136.1v-3.634a1.216,1.216,0,0,0-1.212-1.379,1.431,1.431,0,0,0-1.211.707c.012.132.023.252.023.384v3.922h-1.354v-3.634a1.216,1.216,0,0,0-1.212-1.379,1.4,1.4,0,0,0-1.188.683v4.33h-1.354Z"/>
    <path class="eccc97ca-106e-43f6-808f-8ce629552d1c" d="M140.635,328.861l-2.267-6.045h1.511l1.523,4.461,1.679-4.461h1.476l-2.855,6.992a2.031,2.031,0,0,1-2.135,1.583,2.86,2.86,0,0,1-.683-.084v-1.163a4.9,4.9,0,0,0,.527.048.959.959,0,0,0,.972-.695Z"/>
    <path class="eccc97ca-106e-43f6-808f-8ce629552d1c" d="M147.007,328.057a.84.84,0,1,1-.84-.875A.858.858,0,0,1,147.007,328.057Z"/>
    <path class="eccc97ca-106e-43f6-808f-8ce629552d1c" d="M148.184,327.1c0-1.08.875-1.764,2.29-1.764a3.709,3.709,0,0,1,1.619.373v-.66c0-.792-.455-1.2-1.379-1.2a4.149,4.149,0,0,0-1.751.467l-.48-.983a5.768,5.768,0,0,1,2.5-.612c1.559,0,2.459.792,2.459,2.183v3.922h-1.344v-.612a2.507,2.507,0,0,1-1.787.707A1.893,1.893,0,0,1,148.184,327.1Zm2.494.875a2.14,2.14,0,0,0,1.415-.492V326.5a3.11,3.11,0,0,0-1.391-.288c-.767,0-1.248.336-1.248.864C149.454,327.625,149.935,327.973,150.678,327.973Z"/>
    <path class="eccc97ca-106e-43f6-808f-8ce629552d1c" d="M155.083,322.816h1.355v.983a2.181,2.181,0,0,1,1.907-1.079,2.022,2.022,0,0,1,2.075,2.147v3.958h-1.356V325.25a1.293,1.293,0,0,0-1.319-1.438,1.539,1.539,0,0,0-1.307.719v4.294h-1.355Z"/>
    <path class="eccc97ca-106e-43f6-808f-8ce629552d1c" d="M163.6,328.861l-2.267-6.045h1.511l1.523,4.461,1.679-4.461h1.475l-2.854,6.992a2.032,2.032,0,0,1-2.135,1.583,2.86,2.86,0,0,1-.683-.084v-1.163a4.9,4.9,0,0,0,.527.048.96.96,0,0,0,.972-.695Z"/>
    <path class="eccc97ca-106e-43f6-808f-8ce629552d1c" d="M172.8,327.085l.816.816a3.126,3.126,0,0,1-2.351,1.044,3.107,3.107,0,0,1,0-6.213,3.239,3.239,0,0,1,2.4,1.008l-.84.875a1.985,1.985,0,0,0-1.511-.708,1.928,1.928,0,0,0,.036,3.838A1.842,1.842,0,0,0,172.8,327.085Z"/>
    <path class="eccc97ca-106e-43f6-808f-8ce629552d1c" d="M174.487,327.1c0-1.08.875-1.764,2.29-1.764a3.706,3.706,0,0,1,1.619.373v-.66c0-.792-.455-1.2-1.378-1.2a4.149,4.149,0,0,0-1.751.467l-.48-.983a5.767,5.767,0,0,1,2.494-.612c1.56,0,2.459.792,2.459,2.183v3.922H178.4v-.612a2.5,2.5,0,0,1-1.787.707A1.894,1.894,0,0,1,174.487,327.1Zm2.494.875a2.14,2.14,0,0,0,1.415-.492V326.5a3.1,3.1,0,0,0-1.39-.288c-.768,0-1.248.336-1.248.864C175.758,327.625,176.238,327.973,176.981,327.973Z"/>
    <path class="eccc97ca-106e-43f6-808f-8ce629552d1c" d="M181.482,327.218a3.47,3.47,0,0,0,1.931.683c.72,0,1.212-.323,1.212-.8,0-.372-.252-.576-.828-.684l-1.068-.18c-1.163-.216-1.739-.755-1.739-1.655,0-1.127.924-1.859,2.327-1.859a4.234,4.234,0,0,1,2.363.719l-.636.888a3.28,3.28,0,0,0-1.811-.576c-.624,0-1.031.264-1.031.708,0,.384.216.552.852.66l1.055.192c1.2.228,1.775.779,1.775,1.679a2.2,2.2,0,0,1-2.446,1.955,4.029,4.029,0,0,1-2.591-.816Z"/>
    <path class="eccc97ca-106e-43f6-808f-8ce629552d1c" d="M187.878,323.9h-1.211v-1.08h1.211v-1.655l1.355-.288v1.943h1.679v1.08h-1.679v3.046c0,.587.228.815.84.815a2.5,2.5,0,0,0,.816-.144v1.14a4.264,4.264,0,0,1-1.164.167c-1.211,0-1.847-.575-1.847-1.678Z"/>
    <path class="eccc97ca-106e-43f6-808f-8ce629552d1c" d="M193.565,328.057a.84.84,0,1,1-.839-.875A.858.858,0,0,1,193.565,328.057Z"/>
    <path class="eccc97ca-106e-43f6-808f-8ce629552d1c" d="M199.336,328.021a2.31,2.31,0,0,1-1.847.864,3.075,3.075,0,0,1,.084-6.117,2.29,2.29,0,0,1,1.751.792v-3.31l1.356-.229v8.8h-1.344Zm-1.439-.276a1.793,1.793,0,0,0,1.427-.66v-2.53a1.861,1.861,0,0,0-1.427-.648,1.924,1.924,0,0,0,0,3.838Z"/>
    <path class="eccc97ca-106e-43f6-808f-8ce629552d1c" d="M205.145,328.945a3.055,3.055,0,0,1-3.059-3.119,2.96,2.96,0,0,1,2.927-3.106,2.883,2.883,0,0,1,2.841,3.094v.336h-4.437a1.836,1.836,0,0,0,1.8,1.643,1.952,1.952,0,0,0,1.427-.564l.887.828A3.472,3.472,0,0,1,205.145,328.945Zm-1.7-3.622h3.13a1.644,1.644,0,0,0-1.57-1.5A1.616,1.616,0,0,0,203.441,325.323Z"/>
    <path class="eccc97ca-106e-43f6-808f-8ce629552d1c" d="M209.334,327.218a3.465,3.465,0,0,0,1.931.683c.719,0,1.212-.323,1.212-.8,0-.372-.252-.576-.829-.684l-1.067-.18c-1.163-.216-1.739-.755-1.739-1.655,0-1.127.924-1.859,2.327-1.859a4.229,4.229,0,0,1,2.362.719l-.635.888a3.285,3.285,0,0,0-1.811-.576c-.624,0-1.031.264-1.031.708,0,.384.216.552.851.66l1.056.192c1.2.228,1.774.779,1.774,1.679a2.2,2.2,0,0,1-2.446,1.955,4.031,4.031,0,0,1-2.591-.816Z"/>
    <path class="eccc97ca-106e-43f6-808f-8ce629552d1c" d="M215.729,323.9h-1.21v-1.08h1.21v-1.655l1.356-.288v1.943h1.679v1.08h-1.679v3.046c0,.587.227.815.84.815a2.49,2.49,0,0,0,.815-.144v1.14a4.253,4.253,0,0,1-1.164.167c-1.211,0-1.847-.575-1.847-1.678Z"/>
    <path class="eccc97ca-106e-43f6-808f-8ce629552d1c" d="M219.786,320.765a.846.846,0,0,1,1.691,0,.846.846,0,0,1-1.691,0Zm1.523,8.06h-1.355v-6.009h1.355Z"/>
    <path class="eccc97ca-106e-43f6-808f-8ce629552d1c" d="M222.978,322.816h1.354v.983a2.182,2.182,0,0,1,1.907-1.079,2.022,2.022,0,0,1,2.075,2.147v3.958h-1.355V325.25a1.293,1.293,0,0,0-1.319-1.438,1.54,1.54,0,0,0-1.308.719v4.294h-1.354Z"/>
    <path class="eccc97ca-106e-43f6-808f-8ce629552d1c" d="M229.662,327.1c0-1.08.875-1.764,2.29-1.764a3.706,3.706,0,0,1,1.619.373v-.66c0-.792-.455-1.2-1.379-1.2a4.152,4.152,0,0,0-1.751.467l-.479-.983a5.76,5.76,0,0,1,2.494-.612c1.56,0,2.459.792,2.459,2.183v3.922h-1.344v-.612a2.5,2.5,0,0,1-1.787.707A1.893,1.893,0,0,1,229.662,327.1Zm2.494.875a2.14,2.14,0,0,0,1.415-.492V326.5a3.1,3.1,0,0,0-1.39-.288c-.768,0-1.248.336-1.248.864C230.933,327.625,231.413,327.973,232.156,327.973Z"/>
    <path class="eccc97ca-106e-43f6-808f-8ce629552d1c" d="M237.305,323.9h-1.211v-1.08h1.211v-1.655l1.355-.288v1.943h1.679v1.08H238.66v3.046c0,.587.228.815.84.815a2.49,2.49,0,0,0,.815-.144v1.14a4.253,4.253,0,0,1-1.164.167c-1.211,0-1.846-.575-1.846-1.678Z"/>
    <path class="eccc97ca-106e-43f6-808f-8ce629552d1c" d="M241.361,320.765a.846.846,0,0,1,1.691,0,.846.846,0,0,1-1.691,0Zm1.523,8.06h-1.355v-6.009h1.355Z"/>
    <path class="eccc97ca-106e-43f6-808f-8ce629552d1c" d="M247.3,322.72a3.114,3.114,0,1,1-3.023,3.106A3,3,0,0,1,247.3,322.72Zm1.679,3.118a1.7,1.7,0,1,0-3.358,0,1.7,1.7,0,1,0,3.358,0Z"/>
    <path class="eccc97ca-106e-43f6-808f-8ce629552d1c" d="M251.729,322.816h1.355v.983a2.182,2.182,0,0,1,1.907-1.079,2.022,2.022,0,0,1,2.075,2.147v3.958h-1.355V325.25a1.293,1.293,0,0,0-1.319-1.438,1.54,1.54,0,0,0-1.308.719v4.294h-1.355Z"/>
  </g>
  <g>
    <g>
      <polyline class="eea3dce6-32a9-4c96-8c1e-ebe64519b763" points="164.779 377.022 164.779 378.522 163.279 378.522"/>
      <line class="a3e4463f-5d9a-42a0-8104-dafd34c04c39" x1="160.35" y1="378.522" x2="144.243" y2="378.522"/>
      <polyline class="eea3dce6-32a9-4c96-8c1e-ebe64519b763" points="142.779 378.522 141.279 378.522 141.279 377.022"/>
      <line class="f36c2ac5-9d0f-4171-bc5a-40832604235a" x1="141.279" y1="373.796" x2="141.279" y2="349.604"/>
      <polyline class="eea3dce6-32a9-4c96-8c1e-ebe64519b763" points="141.279 347.991 141.279 346.491 142.779 346.491"/>
      <line class="a3e4463f-5d9a-42a0-8104-dafd34c04c39" x1="145.707" y1="346.491" x2="161.814" y2="346.491"/>
      <polyline class="eea3dce6-32a9-4c96-8c1e-ebe64519b763" points="163.279 346.491 164.779 346.491 164.779 347.991"/>
      <line class="f36c2ac5-9d0f-4171-bc5a-40832604235a" x1="164.779" y1="351.217" x2="164.779" y2="375.409"/>
    </g>
    <text class="bdced67e-e906-400d-9029-bf5b1572bf75" transform="translate(149.222 365.277)">N</text>
  </g>
  <g>
    <g>
      <polyline class="eea3dce6-32a9-4c96-8c1e-ebe64519b763" points="299.719 377.022 299.719 378.522 298.219 378.522"/>
      <line class="a3e4463f-5d9a-42a0-8104-dafd34c04c39" x1="295.29" y1="378.522" x2="279.183" y2="378.522"/>
      <polyline class="eea3dce6-32a9-4c96-8c1e-ebe64519b763" points="277.719 378.522 276.219 378.522 276.219 377.022"/>
      <line class="f36c2ac5-9d0f-4171-bc5a-40832604235a" x1="276.219" y1="373.796" x2="276.219" y2="349.604"/>
      <polyline class="eea3dce6-32a9-4c96-8c1e-ebe64519b763" points="276.219 347.991 276.219 346.491 277.719 346.491"/>
      <line class="a3e4463f-5d9a-42a0-8104-dafd34c04c39" x1="280.647" y1="346.491" x2="296.754" y2="346.491"/>
      <polyline class="eea3dce6-32a9-4c96-8c1e-ebe64519b763" points="298.219 346.491 299.719 346.491 299.719 347.991"/>
      <line class="f36c2ac5-9d0f-4171-bc5a-40832604235a" x1="299.719" y1="351.217" x2="299.719" y2="375.409"/>
    </g>
    <text class="bdced67e-e906-400d-9029-bf5b1572bf75" transform="translate(286.258 365.277)">1</text>
  </g>
  <g>
    <g>
      <polyline class="eea3dce6-32a9-4c96-8c1e-ebe64519b763" points="254.749 377.022 254.749 378.522 253.249 378.522"/>
      <line class="a3e4463f-5d9a-42a0-8104-dafd34c04c39" x1="250.32" y1="378.522" x2="234.213" y2="378.522"/>
      <polyline class="eea3dce6-32a9-4c96-8c1e-ebe64519b763" points="232.749 378.522 231.249 378.522 231.249 377.022"/>
      <line class="f36c2ac5-9d0f-4171-bc5a-40832604235a" x1="231.249" y1="373.796" x2="231.249" y2="349.604"/>
      <polyline class="eea3dce6-32a9-4c96-8c1e-ebe64519b763" points="231.249 347.991 231.249 346.491 232.749 346.491"/>
      <line class="a3e4463f-5d9a-42a0-8104-dafd34c04c39" x1="235.677" y1="346.491" x2="251.785" y2="346.491"/>
      <polyline class="eea3dce6-32a9-4c96-8c1e-ebe64519b763" points="253.249 346.491 254.749 346.491 254.749 347.991"/>
      <line class="f36c2ac5-9d0f-4171-bc5a-40832604235a" x1="254.749" y1="351.217" x2="254.749" y2="375.409"/>
    </g>
    <text class="bdced67e-e906-400d-9029-bf5b1572bf75" transform="translate(240.149 365.277)">2</text>
  </g>
  <g>
    <text class="b94ad13d-1ddb-4b6f-8b49-a9970bf2aff7" transform="translate(179.31 392.575)">Message<tspan x="15.957" y="10">3</tspan></text>
    <g>
      <polygon class="ba30350d-b785-4db8-a46d-2a83ab17555d" points="209.749 378.522 186.249 378.522 186.249 352.315 192.124 346.491 209.749 346.491 209.749 378.522"/>
      <polygon class="f46d3749-431c-4712-b2f9-b1aa6f5e9793" points="192.124 352.315 186.249 352.315 192.124 346.491 192.124 352.315"/>
      <line class="f46d3749-431c-4712-b2f9-b1aa6f5e9793" x1="190.655" y1="356.683" x2="197.999" y2="356.683"/>
      <line class="f46d3749-431c-4712-b2f9-b1aa6f5e9793" x1="190.655" y1="361.051" x2="205.342" y2="361.051"/>
      <line class="f46d3749-431c-4712-b2f9-b1aa6f5e9793" x1="190.655" y1="365.418" x2="205.342" y2="365.418"/>
      <line class="f46d3749-431c-4712-b2f9-b1aa6f5e9793" x1="190.655" y1="369.786" x2="205.342" y2="369.786"/>
    </g>
  </g>
</svg>
