<svg id="abc66b85-12ee-4f7c-bd9b-be41a13d56c1" data-name="Layer 1" xmlns="http://www.w3.org/2000/svg" width="760" height="483.675" viewBox="0 0 760 483.675">
  <defs>
    <style>
      .a159cb92-1302-4b4b-965f-06bfd683ab15 {
        fill: #e8e8e8;
      }

      .aa9aaec9-03e2-48e8-a204-c26fef29fa5c, .b0cf3a6f-5e4a-4a04-b34e-4ca2b01ec6d1, .bc736af3-7c83-4d01-bb24-ec711cb320cb, .e4cf4f52-12a9-4028-8cac-a96871631bfc, .f8ec21b8-0b38-4b28-b82c-261c3e8f2b45, .f93d55c7-a7a8-4ed6-a486-135c300418ca, .fb06aac9-8518-4dcb-bd24-1d9c120ff770 {
        fill: none;
      }

      .e4cf4f52-12a9-4028-8cac-a96871631bfc {
        stroke: #d5d5d5;
      }

      .e4cf4f52-12a9-4028-8cac-a96871631bfc, .f8ec21b8-0b38-4b28-b82c-261c3e8f2b45 {
        stroke-miterlimit: 10;
      }

      .a61a94db-d549-4a94-ad7c-c33cde518403, .e4cf4f52-12a9-4028-8cac-a96871631bfc, .fb06aac9-8518-4dcb-bd24-1d9c120ff770 {
        stroke-width: 1.5px;
      }

      .aff4ef5a-8471-4f50-ab2e-a5705eb7d475, .be69e3f1-54b4-4f07-b440-ea65ab095af5, .fabdf109-972c-493a-bb15-85182a74293c {
        font-size: 12px;
      }

      .ab3af15c-09b7-4a2f-a848-c93777b57f8a, .aff4ef5a-8471-4f50-ab2e-a5705eb7d475, .b72aa2f9-742f-472d-a346-15731b69989f, .be69e3f1-54b4-4f07-b440-ea65ab095af5 {
        fill: #151515;
      }

      .aff4ef5a-8471-4f50-ab2e-a5705eb7d475 {
        font-family: RedHatText-Bold, Red Hat Text;
        font-weight: 700;
      }

      .a61a94db-d549-4a94-ad7c-c33cde518403, .ba706bfd-e0c6-4fa2-886f-30dc0de8619f, .fabdf109-972c-493a-bb15-85182a74293c {
        fill: #fff;
      }

      .bc4117bd-e05b-4d69-aaf2-a7e73b8f7077 {
        fill: #06c;
      }

      .fabdf109-972c-493a-bb15-85182a74293c {
        font-family: RedHatText-MediumItalic, Red Hat Text;
        font-style: italic;
      }

      .ab3af15c-09b7-4a2f-a848-c93777b57f8a, .be69e3f1-54b4-4f07-b440-ea65ab095af5, .fabdf109-972c-493a-bb15-85182a74293c {
        font-weight: 500;
      }

      .f8ec21b8-0b38-4b28-b82c-261c3e8f2b45, .f93d55c7-a7a8-4ed6-a486-135c300418ca {
        stroke: #151515;
      }

      .a61a94db-d549-4a94-ad7c-c33cde518403, .b0cf3a6f-5e4a-4a04-b34e-4ca2b01ec6d1, .bc736af3-7c83-4d01-bb24-ec711cb320cb, .f93d55c7-a7a8-4ed6-a486-135c300418ca, .fb06aac9-8518-4dcb-bd24-1d9c120ff770 {
        stroke-linecap: round;
        stroke-linejoin: round;
      }

      .b0cf3a6f-5e4a-4a04-b34e-4ca2b01ec6d1, .bc736af3-7c83-4d01-bb24-ec711cb320cb {
        stroke: #06c;
      }

      .b0cf3a6f-5e4a-4a04-b34e-4ca2b01ec6d1 {
        stroke-dasharray: 2.998 2.998;
      }

      .ab3af15c-09b7-4a2f-a848-c93777b57f8a, .be69e3f1-54b4-4f07-b440-ea65ab095af5 {
        font-family: RedHatText-Medium, Red Hat Text;
      }

      .ab3af15c-09b7-4a2f-a848-c93777b57f8a {
        font-size: 9px;
      }

      .a61a94db-d549-4a94-ad7c-c33cde518403, .fb06aac9-8518-4dcb-bd24-1d9c120ff770 {
        stroke: #5b5b5b;
      }

      .a9052ead-f37b-4f4a-aac2-f6c86a22770f {
        font-size: 10px;
        fill: #f3f3f3;
        font-family: RedHatText-Regular, Red Hat Text;
      }
    </style>
  </defs>
  <rect class="a159cb92-1302-4b4b-965f-06bfd683ab15" y="133.533" width="275.5" height="207"/>
  <rect class="a159cb92-1302-4b4b-965f-06bfd683ab15" x="484.5" y="133.533" width="275.5" height="207"/>
  <polyline class="e4cf4f52-12a9-4028-8cac-a96871631bfc" points="30 270.982 265.5 270.982 265.5 185.982"/>
  <polyline class="e4cf4f52-12a9-4028-8cac-a96871631bfc" points="25 265.982 260.5 265.982 260.5 180.982"/>
  <polyline class="e4cf4f52-12a9-4028-8cac-a96871631bfc" points="514.5 270.982 750 270.982 750 185.982"/>
  <polyline class="e4cf4f52-12a9-4028-8cac-a96871631bfc" points="509.5 265.982 745 265.982 745 180.982"/>
  <text class="aff4ef5a-8471-4f50-ab2e-a5705eb7d475" transform="translate(20 158.62)">Broker A</text>
  <rect class="ba706bfd-e0c6-4fa2-886f-30dc0de8619f" x="20" y="175.982" width="235.5" height="85"/>
  <rect class="bc4117bd-e05b-4d69-aaf2-a7e73b8f7077" x="35.25" y="210.982" width="205" height="35" transform="translate(275.5 456.964) rotate(-180)"/>
  <text class="fabdf109-972c-493a-bb15-85182a74293c" transform="translate(112.184 231.766)">multicast</text>
  <text class="aff4ef5a-8471-4f50-ab2e-a5705eb7d475" transform="translate(35.063 200.185)">Addresses</text>
  <g>
    <line class="f93d55c7-a7a8-4ed6-a486-135c300418ca" x1="137.75" y1="275.945" x2="137.75" y2="245.982"/>
    <polygon class="b72aa2f9-742f-472d-a346-15731b69989f" points="142.736 274.486 137.75 283.121 132.764 274.486 142.736 274.486"/>
  </g>
  <text class="aff4ef5a-8471-4f50-ab2e-a5705eb7d475" transform="translate(504.5 158.62)">Broker B</text>
  <rect class="ba706bfd-e0c6-4fa2-886f-30dc0de8619f" x="504.5" y="175.982" width="235.5" height="85"/>
  <rect class="bc4117bd-e05b-4d69-aaf2-a7e73b8f7077" x="519.75" y="210.982" width="205" height="35" transform="translate(1244.5 456.964) rotate(-180)"/>
  <text class="fabdf109-972c-493a-bb15-85182a74293c" transform="translate(596.684 231.766)">multicast</text>
  <text class="aff4ef5a-8471-4f50-ab2e-a5705eb7d475" transform="translate(519.563 200.185)">Addresses</text>
  <rect class="ba706bfd-e0c6-4fa2-886f-30dc0de8619f" x="504.5" y="285.621" width="235.5" height="35"/>
  <g>
    <line class="bc736af3-7c83-4d01-bb24-ec711cb320cb" x1="495.074" y1="303.121" x2="493.574" y2="303.121"/>
    <line class="b0cf3a6f-5e4a-4a04-b34e-4ca2b01ec6d1" x1="490.576" y1="303.121" x2="258.261" y2="303.121"/>
    <line class="bc736af3-7c83-4d01-bb24-ec711cb320cb" x1="256.762" y1="303.121" x2="255.262" y2="303.121"/>
    <polygon class="bc4117bd-e05b-4d69-aaf2-a7e73b8f7077" points="493.615 298.135 502.25 303.121 493.615 308.107 493.615 298.135"/>
  </g>
  <text class="be69e3f1-54b4-4f07-b440-ea65ab095af5" transform="translate(600.122 306.406)">Queue 1</text>
  <text class="be69e3f1-54b4-4f07-b440-ea65ab095af5" transform="translate(328.851 296.445)">Queue Federation</text>
  <g>
    <rect class="a159cb92-1302-4b4b-965f-06bfd683ab15" x="504.5" y="409.175" width="235.5" height="35"/>
    <text class="aff4ef5a-8471-4f50-ab2e-a5705eb7d475" transform="translate(592.053 429.999)">Consumer</text>
  </g>
  <rect class="a159cb92-1302-4b4b-965f-06bfd683ab15" x="20" y="20" width="235.5" height="35"/>
  <text class="aff4ef5a-8471-4f50-ab2e-a5705eb7d475" transform="translate(110.121 40.824)">Producer</text>
  <rect class="ba706bfd-e0c6-4fa2-886f-30dc0de8619f" x="20" y="285.621" width="235.5" height="35"/>
  <text class="be69e3f1-54b4-4f07-b440-ea65ab095af5" transform="translate(115.622 306.406)">Queue 1</text>
  <g>
    <line class="f93d55c7-a7a8-4ed6-a486-135c300418ca" x1="137.75" y1="201.306" x2="137.75" y2="55"/>
    <polygon class="b72aa2f9-742f-472d-a346-15731b69989f" points="142.736 199.847 137.75 208.482 132.764 199.847 142.736 199.847"/>
  </g>
  <rect class="ba706bfd-e0c6-4fa2-886f-30dc0de8619f" x="102.163" y="90.824" width="71.174" height="30.699"/>
  <g>
    <text class="ab3af15c-09b7-4a2f-a848-c93777b57f8a" transform="translate(116.51 114.756)">Message 1</text>
    <g>
      <polygon class="a61a94db-d549-4a94-ad7c-c33cde518403" points="149.5 99.703 126 99.703 126 73.495 131.875 67.671 149.5 67.671 149.5 99.703"/>
      <polygon class="fb06aac9-8518-4dcb-bd24-1d9c120ff770" points="131.875 73.495 126 73.495 131.875 67.671 131.875 73.495"/>
      <line class="fb06aac9-8518-4dcb-bd24-1d9c120ff770" x1="130.406" y1="77.863" x2="137.75" y2="77.863"/>
      <line class="fb06aac9-8518-4dcb-bd24-1d9c120ff770" x1="130.406" y1="82.231" x2="145.094" y2="82.231"/>
      <line class="fb06aac9-8518-4dcb-bd24-1d9c120ff770" x1="130.406" y1="86.599" x2="145.094" y2="86.599"/>
      <line class="fb06aac9-8518-4dcb-bd24-1d9c120ff770" x1="130.406" y1="90.967" x2="145.094" y2="90.967"/>
    </g>
  </g>
  <g>
    <g>
      <line class="f8ec21b8-0b38-4b28-b82c-261c3e8f2b45" x1="622.25" y1="320.608" x2="622.25" y2="399.575"/>
      <polygon class="b72aa2f9-742f-472d-a346-15731b69989f" points="617.263 398.116 622.25 406.751 627.236 398.116 617.263 398.116"/>
    </g>
    <rect class="ba706bfd-e0c6-4fa2-886f-30dc0de8619f" x="586.663" y="356.932" width="71.174" height="30.699"/>
    <g>
      <text class="ab3af15c-09b7-4a2f-a848-c93777b57f8a" transform="translate(601.01 380.864)">Message 1</text>
      <g>
        <polygon class="a61a94db-d549-4a94-ad7c-c33cde518403" points="634 365.811 610.5 365.811 610.5 339.604 616.375 333.78 634 333.78 634 365.811"/>
        <polygon class="fb06aac9-8518-4dcb-bd24-1d9c120ff770" points="616.375 339.604 610.5 339.604 616.375 333.78 616.375 339.604"/>
        <line class="fb06aac9-8518-4dcb-bd24-1d9c120ff770" x1="614.906" y1="343.972" x2="622.25" y2="343.972"/>
        <line class="fb06aac9-8518-4dcb-bd24-1d9c120ff770" x1="614.906" y1="348.34" x2="629.594" y2="348.34"/>
        <line class="fb06aac9-8518-4dcb-bd24-1d9c120ff770" x1="614.906" y1="352.707" x2="629.594" y2="352.707"/>
        <line class="fb06aac9-8518-4dcb-bd24-1d9c120ff770" x1="614.906" y1="357.075" x2="629.594" y2="357.075"/>
      </g>
    </g>
  </g>
  <g>
    <text class="a9052ead-f37b-4f4a-aac2-f6c86a22770f" transform="translate(690.661 466.693)">120_AMQ_1020</text>
    <rect class="aa9aaec9-03e2-48e8-a204-c26fef29fa5c" y="443.675" width="760" height="40"/>
  </g>
</svg>
