<svg id="a0843a7a-bc2e-4808-9f0d-31aef128d763" data-name="Layer 1" xmlns="http://www.w3.org/2000/svg" width="760" height="552.675" viewBox="0 0 760 552.675">
  <defs>
    <style>
      .b8d989d8-f5dc-4c23-94cc-f54ddf22aab6 {
        fill: #e8e8e8;
      }

      .a556e80f-df6a-4bb1-a06d-7f257f16866e, .b40fc3a1-8e60-4948-aff5-92ff014b77df, .f297cb86-9eef-4f65-a3b1-bef72dcaf71e {
        fill: #151515;
      }

      .a0068f99-a98f-4a95-9ab8-9e55aa1150a5, .aaecb16d-4ebf-4379-8e9b-c5715be626ed, .b23127cd-37b5-46b6-8fd2-1047dc5c2cae, .b90ff29f-9f99-492b-9097-b50f32a1d4bb, .bab58652-448f-49ec-8599-b0bb9b2b60ab, .bd737ae2-502f-4ea0-ad11-f24601d8e0b6 {
        fill: none;
      }

      .b90ff29f-9f99-492b-9097-b50f32a1d4bb {
        stroke: #151515;
        stroke-miterlimit: 10;
      }

      .a65cd1f4-6816-472c-a6da-31d32cbdd204, .f389151c-099d-4912-8b42-5770fd565bf3 {
        fill: #fff;
      }

      .f297cb86-9eef-4f65-a3b1-bef72dcaf71e {
        font-size: 9px;
      }

      .bb0887c9-64e9-4e19-893a-5b9aa2472b2a, .f297cb86-9eef-4f65-a3b1-bef72dcaf71e {
        font-family: RedHatText-Medium, Red Hat Text;
        font-weight: 500;
      }

      .aaecb16d-4ebf-4379-8e9b-c5715be626ed, .f389151c-099d-4912-8b42-5770fd565bf3 {
        stroke: #5b5b5b;
      }

      .a0068f99-a98f-4a95-9ab8-9e55aa1150a5, .aaecb16d-4ebf-4379-8e9b-c5715be626ed, .bab58652-448f-49ec-8599-b0bb9b2b60ab, .bd737ae2-502f-4ea0-ad11-f24601d8e0b6, .f389151c-099d-4912-8b42-5770fd565bf3 {
        stroke-linecap: round;
        stroke-linejoin: round;
        stroke-width: 1.5px;
      }

      .a556e80f-df6a-4bb1-a06d-7f257f16866e {
        font-size: 14px;
        font-family: RedHatText-Bold, Red Hat Text;
        font-weight: 700;
      }

      .f651d7ea-7eb6-4ee6-b097-4fcd245254fc {
        fill: #06c;
      }

      .a0068f99-a98f-4a95-9ab8-9e55aa1150a5, .bab58652-448f-49ec-8599-b0bb9b2b60ab, .bd737ae2-502f-4ea0-ad11-f24601d8e0b6 {
        stroke: #d0d0d0;
      }

      .a0068f99-a98f-4a95-9ab8-9e55aa1150a5 {
        stroke-dasharray: 2.929 2.929;
      }

      .bab58652-448f-49ec-8599-b0bb9b2b60ab {
        stroke-dasharray: 3.226 3.226;
      }

      .bb0887c9-64e9-4e19-893a-5b9aa2472b2a, .f245e50e-e43e-4303-92a7-4abd251e45a7 {
        font-size: 10px;
      }

      .bb0887c9-64e9-4e19-893a-5b9aa2472b2a {
        fill: #d0d0d0;
      }

      .f245e50e-e43e-4303-92a7-4abd251e45a7 {
        fill: #f3f3f3;
        font-family: RedHatText-Regular, Red Hat Text;
      }
    </style>
  </defs>
  <rect class="b8d989d8-f5dc-4c23-94cc-f54ddf22aab6" x="143.055" y="20" width="215.5" height="55"/>
  <g>
    <path class="b40fc3a1-8e60-4948-aff5-92ff014b77df" d="M224.11,44.241v-8.4h4.1a3.352,3.352,0,0,1,1.218.21,2.833,2.833,0,0,1,.936.576,2.463,2.463,0,0,1,.6.876,2.9,2.9,0,0,1,.21,1.109,2.728,2.728,0,0,1-.21,1.063,2.443,2.443,0,0,1-.6.857,2.907,2.907,0,0,1-.936.571,3.4,3.4,0,0,1-1.218.209h-2.04v2.928Zm3.744-6.695h-1.679V39.67h1.668a1.284,1.284,0,0,0,.935-.307,1.024,1.024,0,0,0,.313-.761,1.011,1.011,0,0,0-.313-.75A1.263,1.263,0,0,0,227.854,37.546Z"/>
    <path class="b40fc3a1-8e60-4948-aff5-92ff014b77df" d="M232.45,44.241V38.05H234.4v1.4a3,3,0,0,1,.713-1.145,1.389,1.389,0,0,1,.966-.378,2.01,2.01,0,0,1,.336.042,1.485,1.485,0,0,1,.313.114v1.668a2.027,2.027,0,0,0-.42-.139,2.234,2.234,0,0,0-.492-.053,1.652,1.652,0,0,0-.811.209,1.693,1.693,0,0,0-.6.558v3.912Z"/>
    <path class="b40fc3a1-8e60-4948-aff5-92ff014b77df" d="M237.479,41.157a3.254,3.254,0,0,1,.246-1.271,3.065,3.065,0,0,1,.678-1.015,3.188,3.188,0,0,1,1.026-.672,3.307,3.307,0,0,1,1.278-.246,3.351,3.351,0,0,1,1.284.246,3.172,3.172,0,0,1,1.032.672,3.065,3.065,0,0,1,.678,1.015,3.254,3.254,0,0,1,.246,1.271,3.2,3.2,0,0,1-.252,1.273,3.1,3.1,0,0,1-1.71,1.685,3.443,3.443,0,0,1-2.556,0,3.079,3.079,0,0,1-1.7-1.7A3.231,3.231,0,0,1,237.479,41.157Zm3.228,1.561a1.22,1.22,0,0,0,.966-.439,1.656,1.656,0,0,0,.378-1.122,1.7,1.7,0,0,0-.378-1.134,1.209,1.209,0,0,0-.966-.45,1.191,1.191,0,0,0-.96.45,1.72,1.72,0,0,0-.372,1.134,1.673,1.673,0,0,0,.372,1.122A1.2,1.2,0,0,0,240.707,42.718Z"/>
    <path class="b40fc3a1-8e60-4948-aff5-92ff014b77df" d="M249.467,44.241v-.8a2.139,2.139,0,0,1-.786.612,2.431,2.431,0,0,1-1.038.227,2.4,2.4,0,0,1-1.068-.246,2.658,2.658,0,0,1-.87-.672,3.3,3.3,0,0,1-.582-1,3.452,3.452,0,0,1-.216-1.223,3.311,3.311,0,0,1,.222-1.219,3.042,3.042,0,0,1,.612-.989,2.926,2.926,0,0,1,.918-.666,2.638,2.638,0,0,1,1.128-.246,2.223,2.223,0,0,1,.912.191,2.125,2.125,0,0,1,.743.553v-3.1l1.945-.3v8.88Zm-2.653-3.095a1.5,1.5,0,0,0,.427,1.085,1.406,1.406,0,0,0,1.05.439,1.537,1.537,0,0,0,1.151-.492V40.09a1.651,1.651,0,0,0-.521-.355,1.582,1.582,0,0,0-.63-.126,1.4,1.4,0,0,0-1.057.439A1.528,1.528,0,0,0,246.814,41.146Z"/>
    <path class="b40fc3a1-8e60-4948-aff5-92ff014b77df" d="M254.8,38.05v3.611a1.213,1.213,0,0,0,.281.834.956.956,0,0,0,.75.318,1.291,1.291,0,0,0,.57-.125,1.31,1.31,0,0,0,.462-.39V38.05H258.8v6.191h-1.945V43.233a2.548,2.548,0,0,1-.857.823,2.2,2.2,0,0,1-1.1.282,1.963,1.963,0,0,1-1.475-.595,2.086,2.086,0,0,1-.576-1.517V38.05Z"/>
    <path class="b40fc3a1-8e60-4948-aff5-92ff014b77df" d="M263.362,42.682a1.556,1.556,0,0,0,.7-.157,1.5,1.5,0,0,0,.546-.456l1.153,1.14a3.074,3.074,0,0,1-1.111.847,3.333,3.333,0,0,1-1.41.3,3.235,3.235,0,0,1-1.26-.246,3.1,3.1,0,0,1-1.7-1.7,3.363,3.363,0,0,1,0-2.52,3.118,3.118,0,0,1,1.7-1.7,3.235,3.235,0,0,1,1.26-.246,3.584,3.584,0,0,1,1.435.294,3.085,3.085,0,0,1,1.145.847l-1.187,1.187a2.152,2.152,0,0,0-.613-.51,1.514,1.514,0,0,0-.708-.162,1.219,1.219,0,0,0-.96.445,1.631,1.631,0,0,0-.383,1.1,1.561,1.561,0,0,0,.395,1.086A1.29,1.29,0,0,0,263.362,42.682Z"/>
    <path class="b40fc3a1-8e60-4948-aff5-92ff014b77df" d="M272.374,43.365a4.008,4.008,0,0,1-1.212.763,3.9,3.9,0,0,1-1.391.233,3.312,3.312,0,0,1-1.279-.246,3.271,3.271,0,0,1-1.038-.677,3.125,3.125,0,0,1-.695-1.021,3.165,3.165,0,0,1-.252-1.26,3.324,3.324,0,0,1,.239-1.271,3.2,3.2,0,0,1,.654-1.021,2.98,2.98,0,0,1,.991-.677,3.092,3.092,0,0,1,1.235-.247,3,3,0,0,1,1.23.247,2.872,2.872,0,0,1,.96.677,3.122,3.122,0,0,1,.63,1.038,3.719,3.719,0,0,1,.229,1.326v.42h-4.261a1.558,1.558,0,0,0,.528.84,1.417,1.417,0,0,0,.924.324,1.814,1.814,0,0,0,.7-.131,1.309,1.309,0,0,0,.523-.384Zm-2.76-3.912a1.094,1.094,0,0,0-.767.288,1.537,1.537,0,0,0-.433.8h2.46a1.475,1.475,0,0,0-.456-.8A1.183,1.183,0,0,0,269.614,39.453Z"/>
    <path class="b40fc3a1-8e60-4948-aff5-92ff014b77df" d="M273.886,44.241V38.05h1.944v1.4a3,3,0,0,1,.714-1.145,1.388,1.388,0,0,1,.966-.378,2.01,2.01,0,0,1,.336.042,1.479,1.479,0,0,1,.312.114v1.668a2.027,2.027,0,0,0-.42-.139,2.234,2.234,0,0,0-.492-.053,1.651,1.651,0,0,0-.81.209,1.7,1.7,0,0,0-.606.558v3.912Z"/>
    <path class="b40fc3a1-8e60-4948-aff5-92ff014b77df" d="M188.046,53.729h1.243v.88a1.88,1.88,0,0,1,1.639-.967,1.732,1.732,0,0,1,1.617,1.067,2.033,2.033,0,0,1,1.826-1.067,1.827,1.827,0,0,1,1.8,2v3.6h-1.243V55.908a1.115,1.115,0,0,0-1.112-1.265,1.313,1.313,0,0,0-1.111.649c.011.121.022.23.022.352v3.6h-1.243V55.908a1.115,1.115,0,0,0-1.111-1.265,1.279,1.279,0,0,0-1.089.627v3.971h-1.243Z"/>
    <path class="b40fc3a1-8e60-4948-aff5-92ff014b77df" d="M199.09,59.274l-2.08-5.545H198.4l1.4,4.093,1.54-4.093h1.353l-2.619,6.415A1.862,1.862,0,0,1,198.11,61.6a2.634,2.634,0,0,1-.627-.077V60.451a4.625,4.625,0,0,0,.485.045.877.877,0,0,0,.89-.639Z"/>
    <path class="b40fc3a1-8e60-4948-aff5-92ff014b77df" d="M204.931,58.537a.771.771,0,1,1-.771-.8A.788.788,0,0,1,204.931,58.537Z"/>
    <path class="b40fc3a1-8e60-4948-aff5-92ff014b77df" d="M206.283,53.729h1.243v.88a1.881,1.881,0,0,1,1.639-.967,1.732,1.732,0,0,1,1.617,1.067,2.033,2.033,0,0,1,1.826-1.067,1.826,1.826,0,0,1,1.805,2v3.6H213.17V55.908a1.115,1.115,0,0,0-1.111-1.265,1.313,1.313,0,0,0-1.112.649c.011.121.023.23.023.352v3.6h-1.243V55.908a1.116,1.116,0,0,0-1.112-1.265,1.279,1.279,0,0,0-1.089.627v3.971h-1.243Z"/>
    <path class="b40fc3a1-8e60-4948-aff5-92ff014b77df" d="M217.13,57.008a1.186,1.186,0,0,0,1.21,1.32,1.388,1.388,0,0,0,1.21-.682V53.729h1.243v5.512H219.55v-.913a2.013,2.013,0,0,1-1.76,1,1.849,1.849,0,0,1-1.9-1.969V53.729h1.243Z"/>
    <path class="b40fc3a1-8e60-4948-aff5-92ff014b77df" d="M223.564,59.241h-1.243V51.375l1.243-.209Z"/>
    <path class="b40fc3a1-8e60-4948-aff5-92ff014b77df" d="M225.775,54.72h-1.111v-.991h1.111V52.212l1.244-.265v1.782h1.54v.991h-1.54v2.8c0,.539.209.748.77.748a2.287,2.287,0,0,0,.748-.133v1.046a3.948,3.948,0,0,1-1.067.153c-1.112,0-1.695-.527-1.695-1.54Z"/>
    <path class="b40fc3a1-8e60-4948-aff5-92ff014b77df" d="M229.493,51.849a.776.776,0,0,1,1.551,0,.776.776,0,0,1-1.551,0Zm1.4,7.392h-1.244V53.729h1.244Z"/>
    <path class="b40fc3a1-8e60-4948-aff5-92ff014b77df" d="M236.357,57.646l.748.749a2.87,2.87,0,0,1-2.156.957,2.851,2.851,0,0,1,0-5.7,2.966,2.966,0,0,1,2.2.925l-.77.8a1.822,1.822,0,0,0-1.386-.65,1.769,1.769,0,0,0,.033,3.521A1.693,1.693,0,0,0,236.357,57.646Z"/>
    <path class="b40fc3a1-8e60-4948-aff5-92ff014b77df" d="M237.9,57.657c0-.99.8-1.617,2.1-1.617a3.406,3.406,0,0,1,1.485.341v-.6c0-.726-.419-1.1-1.265-1.1a3.832,3.832,0,0,0-1.607.428l-.439-.9a5.277,5.277,0,0,1,2.288-.561c1.43,0,2.255.726,2.255,2v3.6h-1.232v-.56a2.3,2.3,0,0,1-1.639.648A1.738,1.738,0,0,1,237.9,57.657Zm2.289.8a1.965,1.965,0,0,0,1.3-.451v-.9a2.855,2.855,0,0,0-1.276-.264c-.7,0-1.145.308-1.145.792C239.062,58.142,239.5,58.46,240.185,58.46Z"/>
    <path class="b40fc3a1-8e60-4948-aff5-92ff014b77df" d="M244.31,57.768a3.173,3.173,0,0,0,1.77.627c.66,0,1.111-.3,1.111-.738,0-.341-.23-.528-.758-.627l-.98-.165c-1.066-.2-1.595-.693-1.595-1.518,0-1.035.847-1.7,2.134-1.7a3.879,3.879,0,0,1,2.168.66l-.583.814a3.013,3.013,0,0,0-1.662-.528c-.571,0-.945.242-.945.649,0,.352.2.506.781.6l.968.176c1.1.209,1.628.715,1.628,1.541a2.02,2.02,0,0,1-2.244,1.793,3.7,3.7,0,0,1-2.376-.748Z"/>
    <path class="b40fc3a1-8e60-4948-aff5-92ff014b77df" d="M250.173,54.72h-1.111v-.991h1.111V52.212l1.243-.265v1.782h1.54v.991h-1.54v2.8c0,.539.209.748.771.748a2.3,2.3,0,0,0,.748-.133v1.046a3.961,3.961,0,0,1-1.068.153c-1.111,0-1.694-.527-1.694-1.54Z"/>
    <path class="b40fc3a1-8e60-4948-aff5-92ff014b77df" d="M255.387,58.537a.771.771,0,1,1-.771-.8A.789.789,0,0,1,255.387,58.537Z"/>
    <path class="b40fc3a1-8e60-4948-aff5-92ff014b77df" d="M260.678,58.5a2.124,2.124,0,0,1-1.695.793,2.82,2.82,0,0,1,.078-5.611,2.1,2.1,0,0,1,1.605.726V51.375l1.243-.209v8.075h-1.231Zm-1.321-.253a1.648,1.648,0,0,0,1.309-.6V55.325a1.709,1.709,0,0,0-1.309-.6,1.765,1.765,0,0,0,0,3.521Z"/>
    <path class="b40fc3a1-8e60-4948-aff5-92ff014b77df" d="M266,59.352a2.8,2.8,0,0,1-2.806-2.861,2.715,2.715,0,0,1,2.685-2.849,2.645,2.645,0,0,1,2.607,2.838v.308h-4.07a1.683,1.683,0,0,0,1.65,1.507,1.79,1.79,0,0,0,1.309-.517l.814.759A3.182,3.182,0,0,1,266,59.352Zm-1.563-3.323h2.873a1.511,1.511,0,0,0-1.442-1.376A1.482,1.482,0,0,0,264.438,56.029Z"/>
    <path class="b40fc3a1-8e60-4948-aff5-92ff014b77df" d="M269.841,57.768a3.176,3.176,0,0,0,1.77.627c.66,0,1.112-.3,1.112-.738,0-.341-.231-.528-.759-.627l-.98-.165c-1.066-.2-1.594-.693-1.594-1.518,0-1.035.846-1.7,2.133-1.7a3.879,3.879,0,0,1,2.168.66l-.583.814a3.013,3.013,0,0,0-1.662-.528c-.571,0-.945.242-.945.649,0,.352.2.506.781.6l.968.176c1.1.209,1.628.715,1.628,1.541a2.02,2.02,0,0,1-2.244,1.793,3.7,3.7,0,0,1-2.376-.748Z"/>
    <path class="b40fc3a1-8e60-4948-aff5-92ff014b77df" d="M275.7,54.72h-1.111v-.991H275.7V52.212l1.243-.265v1.782h1.54v.991h-1.54v2.8c0,.539.209.748.771.748a2.287,2.287,0,0,0,.748-.133v1.046a3.949,3.949,0,0,1-1.068.153c-1.111,0-1.694-.527-1.694-1.54Z"/>
    <path class="b40fc3a1-8e60-4948-aff5-92ff014b77df" d="M279.421,51.849a.776.776,0,0,1,1.551,0,.776.776,0,0,1-1.551,0Zm1.4,7.392h-1.243V53.729h1.243Z"/>
    <path class="b40fc3a1-8e60-4948-aff5-92ff014b77df" d="M282.348,53.729h1.243v.9a2,2,0,0,1,1.749-.99,1.855,1.855,0,0,1,1.9,1.969v3.63H286V55.963a1.187,1.187,0,0,0-1.21-1.32,1.413,1.413,0,0,0-1.2.66v3.938h-1.243Z"/>
    <path class="b40fc3a1-8e60-4948-aff5-92ff014b77df" d="M288.474,57.657c0-.99.8-1.617,2.1-1.617a3.413,3.413,0,0,1,1.486.341v-.6c0-.726-.419-1.1-1.266-1.1a3.832,3.832,0,0,0-1.607.428l-.439-.9a5.277,5.277,0,0,1,2.288-.561c1.43,0,2.255.726,2.255,2v3.6h-1.231v-.56a2.3,2.3,0,0,1-1.64.648A1.738,1.738,0,0,1,288.474,57.657Zm2.288.8a1.968,1.968,0,0,0,1.3-.451v-.9a2.859,2.859,0,0,0-1.277-.264c-.7,0-1.144.308-1.144.792C289.64,58.142,290.08,58.46,290.762,58.46Z"/>
    <path class="b40fc3a1-8e60-4948-aff5-92ff014b77df" d="M295.48,54.72h-1.111v-.991h1.111V52.212l1.244-.265v1.782h1.54v.991h-1.54v2.8c0,.539.209.748.77.748a2.287,2.287,0,0,0,.748-.133v1.046a3.948,3.948,0,0,1-1.067.153c-1.112,0-1.695-.527-1.695-1.54Z"/>
    <path class="b40fc3a1-8e60-4948-aff5-92ff014b77df" d="M299.2,51.849a.776.776,0,0,1,1.551,0,.776.776,0,0,1-1.551,0Zm1.4,7.392h-1.243V53.729H300.6Z"/>
    <path class="b40fc3a1-8e60-4948-aff5-92ff014b77df" d="M304.644,53.642a2.856,2.856,0,1,1-2.773,2.849A2.751,2.751,0,0,1,304.644,53.642Zm1.541,2.86a1.558,1.558,0,1,0-3.081,0,1.556,1.556,0,1,0,3.081,0Z"/>
    <path class="b40fc3a1-8e60-4948-aff5-92ff014b77df" d="M308.7,53.729h1.243v.9a2,2,0,0,1,1.749-.99,1.855,1.855,0,0,1,1.9,1.969v3.63h-1.244V55.963a1.187,1.187,0,0,0-1.209-1.32,1.413,1.413,0,0,0-1.2.66v3.938H308.7Z"/>
  </g>
  <rect class="b8d989d8-f5dc-4c23-94cc-f54ddf22aab6" x="19.305" y="480.675" width="215.5" height="55"/>
  <g>
    <path class="b40fc3a1-8e60-4948-aff5-92ff014b77df" d="M39.345,503.188a2.12,2.12,0,0,0,1.044-.264,2.827,2.827,0,0,0,.876-.779l1.357,1.284a4.036,4.036,0,0,1-1.465,1.163,4.244,4.244,0,0,1-1.884.445,4.575,4.575,0,0,1-1.752-.336,4.362,4.362,0,0,1-1.4-.912,4.38,4.38,0,0,1-.93-4.783,4.212,4.212,0,0,1,.937-1.374,4.415,4.415,0,0,1,1.4-.911,4.512,4.512,0,0,1,1.746-.337,4.416,4.416,0,0,1,1.933.445,3.9,3.9,0,0,1,1.475,1.188l-1.391,1.319a2.927,2.927,0,0,0-.918-.834,2.236,2.236,0,0,0-1.1-.281,2.167,2.167,0,0,0-.912.192,2.246,2.246,0,0,0-.726.522,2.377,2.377,0,0,0-.48.792,2.806,2.806,0,0,0-.174.989,2.662,2.662,0,0,0,.181.985,2.352,2.352,0,0,0,.5.785,2.279,2.279,0,0,0,.75.516A2.342,2.342,0,0,0,39.345,503.188Z"/>
    <path class="b40fc3a1-8e60-4948-aff5-92ff014b77df" d="M43.425,501.833a3.258,3.258,0,0,1,.245-1.272,3.078,3.078,0,0,1,.679-1.015,3.186,3.186,0,0,1,1.026-.671,3.289,3.289,0,0,1,1.278-.247,3.333,3.333,0,0,1,1.284.247,3.181,3.181,0,0,1,1.032.671,3.09,3.09,0,0,1,.678,1.015,3.259,3.259,0,0,1,.246,1.272,3.19,3.19,0,0,1-.252,1.271,3.153,3.153,0,0,1-.684,1.015,3.216,3.216,0,0,1-1.026.672,3.443,3.443,0,0,1-2.556,0,3.1,3.1,0,0,1-1.7-1.7A3.222,3.222,0,0,1,43.425,501.833Zm3.228,1.56a1.22,1.22,0,0,0,.966-.438A1.656,1.656,0,0,0,48,501.833a1.7,1.7,0,0,0-.378-1.134,1.2,1.2,0,0,0-.966-.45,1.186,1.186,0,0,0-.96.45,1.719,1.719,0,0,0-.372,1.134,1.673,1.673,0,0,0,.372,1.122A1.2,1.2,0,0,0,46.653,503.393Z"/>
    <path class="b40fc3a1-8e60-4948-aff5-92ff014b77df" d="M51.128,504.917v-6.192h1.945v1.007a2.541,2.541,0,0,1,.857-.821,2.191,2.191,0,0,1,1.1-.283,1.965,1.965,0,0,1,1.475.6,2.091,2.091,0,0,1,.577,1.518v4.176H55.136v-3.612a1.213,1.213,0,0,0-.281-.834.954.954,0,0,0-.75-.319,1.278,1.278,0,0,0-.57.126,1.32,1.32,0,0,0-.462.39v4.249Z"/>
    <path class="b40fc3a1-8e60-4948-aff5-92ff014b77df" d="M58.041,504.28l.851-1.3a6.9,6.9,0,0,0,1.1.487,3,3,0,0,0,.887.137,1.313,1.313,0,0,0,.649-.137.415.415,0,0,0,.24-.367.349.349,0,0,0-.139-.288.97.97,0,0,0-.437-.155l-1.189-.217a2.546,2.546,0,0,1-1.361-.624,1.573,1.573,0,0,1-.462-1.175,1.785,1.785,0,0,1,.69-1.488,3,3,0,0,1,1.9-.54,4.7,4.7,0,0,1,1.284.179,5.417,5.417,0,0,1,1.235.529l-.887,1.236a4.469,4.469,0,0,0-.907-.4,3,3,0,0,0-.87-.132,1.113,1.113,0,0,0-.546.113.356.356,0,0,0-.2.318.325.325,0,0,0,.139.288,1.312,1.312,0,0,0,.5.157l1.164.216a2.668,2.668,0,0,1,1.392.629,1.5,1.5,0,0,1,.467,1.159,1.822,1.822,0,0,1-.2.845,1.976,1.976,0,0,1-.558.673,2.781,2.781,0,0,1-.851.444,3.392,3.392,0,0,1-1.057.162,6.215,6.215,0,0,1-1.571-.192A4,4,0,0,1,58.041,504.28Z"/>
    <path class="b40fc3a1-8e60-4948-aff5-92ff014b77df" d="M66.573,498.725v3.611a1.213,1.213,0,0,0,.281.834.953.953,0,0,0,.75.318,1.281,1.281,0,0,0,.57-.126,1.326,1.326,0,0,0,.462-.389v-4.248h1.945v6.192H68.636v-1.008a2.541,2.541,0,0,1-.857.821,2.191,2.191,0,0,1-1.1.283,1.965,1.965,0,0,1-1.475-.595,2.09,2.09,0,0,1-.577-1.518v-4.175Z"/>
    <path class="b40fc3a1-8e60-4948-aff5-92ff014b77df" d="M72.092,504.917v-6.192h1.945v.983a2.418,2.418,0,0,1,.8-.8,2.01,2.01,0,0,1,1.033-.276,1.821,1.821,0,0,1,1.055.312,1.927,1.927,0,0,1,.685.84,2.593,2.593,0,0,1,.876-.851,2.247,2.247,0,0,1,1.151-.3,1.794,1.794,0,0,1,1.4.613,2.251,2.251,0,0,1,.545,1.559v4.117H79.64v-3.732a1.068,1.068,0,0,0-.258-.75.861.861,0,0,0-.666-.283,1.04,1.04,0,0,0-.486.115,1.243,1.243,0,0,0-.413.365v4.285H75.873v-3.732a1.068,1.068,0,0,0-.258-.75.865.865,0,0,0-.666-.283,1.047,1.047,0,0,0-.492.12,1.363,1.363,0,0,0-.42.36v4.285Z"/>
    <path class="b40fc3a1-8e60-4948-aff5-92ff014b77df" d="M88.64,504.041a4.044,4.044,0,0,1-1.212.762,3.9,3.9,0,0,1-1.391.234,3.287,3.287,0,0,1-2.317-.925,3.11,3.11,0,0,1-.695-1.02,3.156,3.156,0,0,1-.252-1.259,3.33,3.33,0,0,1,.239-1.272,3.185,3.185,0,0,1,.655-1.02,2.957,2.957,0,0,1,.99-.679,3.129,3.129,0,0,1,1.235-.245,3.04,3.04,0,0,1,1.231.245,2.883,2.883,0,0,1,.96.679,3.126,3.126,0,0,1,.629,1.038,3.706,3.706,0,0,1,.229,1.325v.421H84.68a1.561,1.561,0,0,0,.528.84,1.422,1.422,0,0,0,.924.323,1.792,1.792,0,0,0,.7-.132,1.3,1.3,0,0,0,.523-.383Zm-2.76-3.913a1.09,1.09,0,0,0-.767.289,1.526,1.526,0,0,0-.433.8h2.46a1.479,1.479,0,0,0-.456-.8A1.183,1.183,0,0,0,85.88,500.128Z"/>
    <path class="b40fc3a1-8e60-4948-aff5-92ff014b77df" d="M90.152,504.917v-6.192H92.1v1.4a3.013,3.013,0,0,1,.714-1.146,1.388,1.388,0,0,1,.966-.378,2.245,2.245,0,0,1,.336.042,1.682,1.682,0,0,1,.312.115v1.668a2.069,2.069,0,0,0-.42-.138,2.176,2.176,0,0,0-.492-.055,1.652,1.652,0,0,0-.81.21A1.7,1.7,0,0,0,92.1,501v3.913Z"/>
    <path class="b40fc3a1-8e60-4948-aff5-92ff014b77df" d="M101.168,496.517v8.4H99.321v-6.48l-1.656.684v-1.633l2.339-.971Z"/>
    <path class="b40fc3a1-8e60-4948-aff5-92ff014b77df" d="M39.014,518.321l.748.748a2.863,2.863,0,0,1-2.156.957,2.85,2.85,0,0,1,0-5.7,2.972,2.972,0,0,1,2.2.924l-.77.8a1.823,1.823,0,0,0-1.386-.649,1.768,1.768,0,0,0,.033,3.52A1.7,1.7,0,0,0,39.014,518.321Z"/>
    <path class="b40fc3a1-8e60-4948-aff5-92ff014b77df" d="M42.072,519.917H40.829V512.05l1.243-.209Z"/>
    <path class="b40fc3a1-8e60-4948-aff5-92ff014b77df" d="M43.447,512.523a.776.776,0,0,1,1.551,0,.776.776,0,0,1-1.551,0Zm1.4,7.394H43.6v-5.512h1.243Z"/>
    <path class="b40fc3a1-8e60-4948-aff5-92ff014b77df" d="M48.924,520.026a2.8,2.8,0,0,1-2.8-2.86,2.714,2.714,0,0,1,2.684-2.849,2.645,2.645,0,0,1,2.608,2.838v.308H47.34a1.683,1.683,0,0,0,1.651,1.507,1.788,1.788,0,0,0,1.308-.517l.815.759A3.188,3.188,0,0,1,48.924,520.026ZM47.363,516.7h2.871a1.509,1.509,0,0,0-1.442-1.375A1.479,1.479,0,0,0,47.363,516.7Z"/>
    <path class="b40fc3a1-8e60-4948-aff5-92ff014b77df" d="M52.675,514.405h1.243v.9a2,2,0,0,1,1.749-.99,1.855,1.855,0,0,1,1.9,1.969v3.631H56.328v-3.279a1.187,1.187,0,0,0-1.21-1.32,1.414,1.414,0,0,0-1.2.66v3.939H52.675Z"/>
    <path class="b40fc3a1-8e60-4948-aff5-92ff014b77df" d="M59.759,515.4H58.648v-.99h1.111v-1.518L61,512.623v1.782h1.54v.99H61v2.794c0,.54.209.749.771.749a2.287,2.287,0,0,0,.748-.133v1.046a3.909,3.909,0,0,1-1.067.153c-1.112,0-1.7-.527-1.7-1.54Z"/>
    <path class="b40fc3a1-8e60-4948-aff5-92ff014b77df" d="M65.832,519.917h-1.2V513.47l-1.364.593V513l1.8-.782h.76Z"/>
    <path class="b40fc3a1-8e60-4948-aff5-92ff014b77df" d="M67.184,519.047l3.157-3.3a2.062,2.062,0,0,0,.748-1.452,1.255,1.255,0,0,0-1.408-1.133,2.774,2.774,0,0,0-1.991.946l-.683-.825a3.9,3.9,0,0,1,2.707-1.167c1.507,0,2.541.859,2.541,2.1a2.939,2.939,0,0,1-1.1,2.145L68.691,518.9l3.707-.022v1.035H67.184Z"/>
    <path class="b40fc3a1-8e60-4948-aff5-92ff014b77df" d="M76.106,520.026a3.873,3.873,0,0,1-2.85-1.154l.814-.76a2.525,2.525,0,0,0,2.024.858c.99,0,1.673-.517,1.673-1.276a1.216,1.216,0,0,0-1.364-1.155h-.957v-1H76.3a1.116,1.116,0,0,0,1.222-1.155,1.328,1.328,0,0,0-1.463-1.221,2.383,2.383,0,0,0-1.915.913l-.814-.76a3.737,3.737,0,0,1,2.773-1.221c1.528,0,2.629.913,2.629,2.156a1.852,1.852,0,0,1-1.5,1.761,1.907,1.907,0,0,1,1.738,1.76C78.977,519.081,77.778,520.026,76.106,520.026Z"/>
    <path class="b40fc3a1-8e60-4948-aff5-92ff014b77df" d="M81.682,519.212a.771.771,0,1,1-.77-.8A.787.787,0,0,1,81.682,519.212Z"/>
    <path class="b40fc3a1-8e60-4948-aff5-92ff014b77df" d="M83.035,514.405h1.243v.88a1.879,1.879,0,0,1,1.639-.968,1.732,1.732,0,0,1,1.617,1.067,2.033,2.033,0,0,1,1.826-1.067,1.827,1.827,0,0,1,1.805,2v3.6H89.921v-3.334a1.115,1.115,0,0,0-1.111-1.265,1.313,1.313,0,0,0-1.111.649c.01.121.022.231.022.352v3.6H86.478v-3.334a1.116,1.116,0,0,0-1.111-1.265,1.278,1.278,0,0,0-1.089.627v3.972H83.035Z"/>
    <path class="b40fc3a1-8e60-4948-aff5-92ff014b77df" d="M94.08,519.95,92,514.405h1.386l1.4,4.092,1.54-4.092h1.352l-2.618,6.414a1.862,1.862,0,0,1-1.958,1.452,2.634,2.634,0,0,1-.627-.077v-1.068a4.358,4.358,0,0,0,.484.045.878.878,0,0,0,.891-.638Z"/>
    <path class="b40fc3a1-8e60-4948-aff5-92ff014b77df" d="M99.919,519.212a.771.771,0,1,1-.77-.8A.787.787,0,0,1,99.919,519.212Z"/>
    <path class="b40fc3a1-8e60-4948-aff5-92ff014b77df" d="M101.273,514.405h1.243v.88a1.879,1.879,0,0,1,1.639-.968,1.732,1.732,0,0,1,1.617,1.067,2.033,2.033,0,0,1,1.826-1.067,1.826,1.826,0,0,1,1.805,2v3.6H108.16v-3.334a1.115,1.115,0,0,0-1.112-1.265,1.313,1.313,0,0,0-1.111.649c.011.121.022.231.022.352v3.6h-1.243v-3.334a1.115,1.115,0,0,0-1.111-1.265,1.279,1.279,0,0,0-1.089.627v3.972h-1.243Z"/>
    <path class="b40fc3a1-8e60-4948-aff5-92ff014b77df" d="M112.119,517.683a1.186,1.186,0,0,0,1.21,1.32,1.391,1.391,0,0,0,1.21-.682v-3.916h1.243v5.512h-1.243V519a2.015,2.015,0,0,1-1.76,1,1.849,1.849,0,0,1-1.9-1.969v-3.63h1.244Z"/>
    <path class="b40fc3a1-8e60-4948-aff5-92ff014b77df" d="M118.553,519.917H117.31V512.05l1.243-.209Z"/>
    <path class="b40fc3a1-8e60-4948-aff5-92ff014b77df" d="M120.764,515.4h-1.111v-.99h1.111v-1.518l1.243-.264v1.782h1.54v.99h-1.54v2.794c0,.54.209.749.771.749a2.287,2.287,0,0,0,.748-.133v1.046a3.91,3.91,0,0,1-1.068.153c-1.111,0-1.694-.527-1.694-1.54Z"/>
    <path class="b40fc3a1-8e60-4948-aff5-92ff014b77df" d="M124.482,512.523a.776.776,0,0,1,1.551,0,.776.776,0,0,1-1.551,0Zm1.4,7.394h-1.243v-5.512h1.243Z"/>
    <path class="b40fc3a1-8e60-4948-aff5-92ff014b77df" d="M131.347,518.321l.748.748a2.863,2.863,0,0,1-2.156.957,2.85,2.85,0,0,1,0-5.7,2.972,2.972,0,0,1,2.2.924l-.77.8a1.821,1.821,0,0,0-1.386-.649,1.768,1.768,0,0,0,.033,3.52A1.7,1.7,0,0,0,131.347,518.321Z"/>
    <path class="b40fc3a1-8e60-4948-aff5-92ff014b77df" d="M132.886,518.333c0-.991.8-1.618,2.1-1.618a3.409,3.409,0,0,1,1.485.341v-.605c0-.726-.419-1.1-1.265-1.1a3.82,3.82,0,0,0-1.607.429l-.439-.9a5.288,5.288,0,0,1,2.288-.561c1.429,0,2.255.726,2.255,2v3.6h-1.232v-.562a2.3,2.3,0,0,1-1.64.649A1.737,1.737,0,0,1,132.886,518.333Zm2.288.8a1.968,1.968,0,0,0,1.3-.451v-.9a2.855,2.855,0,0,0-1.276-.264c-.7,0-1.145.308-1.145.792C134.052,518.816,134.493,519.135,135.174,519.135Z"/>
    <path class="b40fc3a1-8e60-4948-aff5-92ff014b77df" d="M139.3,518.442a3.168,3.168,0,0,0,1.771.627c.66,0,1.111-.3,1.111-.736,0-.342-.23-.529-.759-.628l-.979-.165c-1.067-.2-1.595-.693-1.595-1.518,0-1.034.847-1.705,2.134-1.705a3.881,3.881,0,0,1,2.168.66l-.583.814a3.015,3.015,0,0,0-1.661-.528c-.573,0-.947.242-.947.649,0,.352.2.506.782.605l.967.176c1.1.209,1.628.715,1.628,1.54a2.018,2.018,0,0,1-2.244,1.793,3.692,3.692,0,0,1-2.376-.748Z"/>
    <path class="b40fc3a1-8e60-4948-aff5-92ff014b77df" d="M145.162,515.4H144.05v-.99h1.112v-1.518l1.243-.264v1.782h1.54v.99h-1.54v2.794c0,.54.209.749.77.749a2.287,2.287,0,0,0,.748-.133v1.046a3.909,3.909,0,0,1-1.067.153c-1.111,0-1.694-.527-1.694-1.54Z"/>
    <path class="b40fc3a1-8e60-4948-aff5-92ff014b77df" d="M150.375,519.212a.771.771,0,1,1-.77-.8A.787.787,0,0,1,150.375,519.212Z"/>
    <path class="b40fc3a1-8e60-4948-aff5-92ff014b77df" d="M155.667,519.179a2.12,2.12,0,0,1-1.694.793,2.82,2.82,0,0,1,.077-5.611,2.1,2.1,0,0,1,1.606.726V512.05l1.243-.209v8.076h-1.232Zm-1.32-.253a1.649,1.649,0,0,0,1.309-.605V516a1.71,1.71,0,0,0-1.309-.594,1.764,1.764,0,0,0,0,3.52Z"/>
    <path class="b40fc3a1-8e60-4948-aff5-92ff014b77df" d="M160.991,520.026a2.8,2.8,0,0,1-2.806-2.86,2.714,2.714,0,0,1,2.685-2.849,2.645,2.645,0,0,1,2.607,2.838v.308h-4.07a1.682,1.682,0,0,0,1.65,1.507,1.79,1.79,0,0,0,1.309-.517l.814.759A3.187,3.187,0,0,1,160.991,520.026Zm-1.562-3.322H162.3a1.509,1.509,0,0,0-1.441-1.375A1.48,1.48,0,0,0,159.429,516.7Z"/>
    <path class="b40fc3a1-8e60-4948-aff5-92ff014b77df" d="M164.83,518.442a3.166,3.166,0,0,0,1.77.627c.66,0,1.111-.3,1.111-.736,0-.342-.23-.529-.758-.628l-.98-.165c-1.066-.2-1.6-.693-1.6-1.518,0-1.034.847-1.705,2.134-1.705a3.879,3.879,0,0,1,2.168.66l-.583.814a3.013,3.013,0,0,0-1.662-.528c-.571,0-.945.242-.945.649,0,.352.2.506.781.605l.968.176c1.1.209,1.628.715,1.628,1.54a2.019,2.019,0,0,1-2.244,1.793,3.692,3.692,0,0,1-2.376-.748Z"/>
    <path class="b40fc3a1-8e60-4948-aff5-92ff014b77df" d="M170.692,515.4h-1.111v-.99h1.111v-1.518l1.243-.264v1.782h1.54v.99h-1.54v2.794c0,.54.209.749.771.749a2.292,2.292,0,0,0,.748-.133v1.046a3.921,3.921,0,0,1-1.068.153c-1.111,0-1.694-.527-1.694-1.54Z"/>
    <path class="b40fc3a1-8e60-4948-aff5-92ff014b77df" d="M174.41,512.523a.775.775,0,0,1,1.55,0,.775.775,0,0,1-1.55,0Zm1.4,7.394h-1.243v-5.512h1.243Z"/>
    <path class="b40fc3a1-8e60-4948-aff5-92ff014b77df" d="M177.336,514.405h1.244v.9a2,2,0,0,1,1.749-.99,1.855,1.855,0,0,1,1.9,1.969v3.631h-1.243v-3.279a1.187,1.187,0,0,0-1.21-1.32,1.412,1.412,0,0,0-1.2.66v3.939h-1.244Z"/>
    <path class="b40fc3a1-8e60-4948-aff5-92ff014b77df" d="M183.462,518.333c0-.991.8-1.618,2.1-1.618a3.406,3.406,0,0,1,1.485.341v-.605c0-.726-.419-1.1-1.265-1.1a3.82,3.82,0,0,0-1.607.429l-.439-.9a5.291,5.291,0,0,1,2.288-.561c1.43,0,2.255.726,2.255,2v3.6h-1.232v-.562a2.3,2.3,0,0,1-1.639.649A1.738,1.738,0,0,1,183.462,518.333Zm2.288.8a1.966,1.966,0,0,0,1.3-.451v-.9a2.855,2.855,0,0,0-1.276-.264c-.7,0-1.145.308-1.145.792C184.628,518.816,185.069,519.135,185.75,519.135Z"/>
    <path class="b40fc3a1-8e60-4948-aff5-92ff014b77df" d="M190.469,515.4h-1.111v-.99h1.111v-1.518l1.243-.264v1.782h1.54v.99h-1.54v2.794c0,.54.209.749.771.749a2.287,2.287,0,0,0,.748-.133v1.046a3.909,3.909,0,0,1-1.067.153c-1.112,0-1.695-.527-1.695-1.54Z"/>
    <path class="b40fc3a1-8e60-4948-aff5-92ff014b77df" d="M194.188,512.523a.776.776,0,0,1,1.551,0,.776.776,0,0,1-1.551,0Zm1.4,7.394h-1.243v-5.512h1.243Z"/>
    <path class="b40fc3a1-8e60-4948-aff5-92ff014b77df" d="M199.632,514.317a2.856,2.856,0,1,1-2.772,2.849A2.752,2.752,0,0,1,199.632,514.317Zm1.541,2.86a1.558,1.558,0,1,0-3.081,0,1.556,1.556,0,1,0,3.081,0Z"/>
    <path class="b40fc3a1-8e60-4948-aff5-92ff014b77df" d="M203.692,514.405h1.243v.9a2,2,0,0,1,1.749-.99,1.855,1.855,0,0,1,1.9,1.969v3.631h-1.243v-3.279a1.187,1.187,0,0,0-1.21-1.32,1.413,1.413,0,0,0-1.2.66v3.939h-1.243Z"/>
  </g>
  <rect class="b8d989d8-f5dc-4c23-94cc-f54ddf22aab6" x="266.555" y="480.675" width="215.5" height="55"/>
  <g>
    <path class="b40fc3a1-8e60-4948-aff5-92ff014b77df" d="M286.6,503.188a2.12,2.12,0,0,0,1.044-.264,2.827,2.827,0,0,0,.876-.779l1.357,1.284a4.036,4.036,0,0,1-1.465,1.163,4.244,4.244,0,0,1-1.884.445,4.575,4.575,0,0,1-1.752-.336,4.362,4.362,0,0,1-1.4-.912,4.38,4.38,0,0,1-.93-4.783,4.212,4.212,0,0,1,.937-1.374,4.415,4.415,0,0,1,1.4-.911,4.512,4.512,0,0,1,1.746-.337,4.416,4.416,0,0,1,1.933.445,3.9,3.9,0,0,1,1.475,1.188l-1.391,1.319a2.927,2.927,0,0,0-.918-.834,2.236,2.236,0,0,0-1.1-.281,2.167,2.167,0,0,0-.912.192,2.246,2.246,0,0,0-.726.522,2.377,2.377,0,0,0-.48.792,2.806,2.806,0,0,0-.174.989,2.662,2.662,0,0,0,.181.985,2.352,2.352,0,0,0,.5.785,2.279,2.279,0,0,0,.75.516A2.342,2.342,0,0,0,286.6,503.188Z"/>
    <path class="b40fc3a1-8e60-4948-aff5-92ff014b77df" d="M290.675,501.833a3.258,3.258,0,0,1,.245-1.272,3.078,3.078,0,0,1,.679-1.015,3.186,3.186,0,0,1,1.026-.671,3.289,3.289,0,0,1,1.278-.247,3.333,3.333,0,0,1,1.284.247,3.181,3.181,0,0,1,1.032.671,3.09,3.09,0,0,1,.678,1.015,3.259,3.259,0,0,1,.246,1.272,3.19,3.19,0,0,1-.252,1.271,3.153,3.153,0,0,1-.684,1.015,3.216,3.216,0,0,1-1.026.672,3.443,3.443,0,0,1-2.556,0,3.1,3.1,0,0,1-1.7-1.7A3.222,3.222,0,0,1,290.675,501.833Zm3.228,1.56a1.22,1.22,0,0,0,.966-.438,1.656,1.656,0,0,0,.378-1.122,1.7,1.7,0,0,0-.378-1.134,1.2,1.2,0,0,0-.966-.45,1.186,1.186,0,0,0-.96.45,1.719,1.719,0,0,0-.372,1.134,1.673,1.673,0,0,0,.372,1.122A1.2,1.2,0,0,0,293.9,503.393Z"/>
    <path class="b40fc3a1-8e60-4948-aff5-92ff014b77df" d="M298.378,504.917v-6.192h1.945v1.007a2.541,2.541,0,0,1,.857-.821,2.191,2.191,0,0,1,1.1-.283,1.965,1.965,0,0,1,1.475.6,2.091,2.091,0,0,1,.577,1.518v4.176h-1.945v-3.612a1.213,1.213,0,0,0-.281-.834.954.954,0,0,0-.75-.319,1.278,1.278,0,0,0-.57.126,1.32,1.32,0,0,0-.462.39v4.249Z"/>
    <path class="b40fc3a1-8e60-4948-aff5-92ff014b77df" d="M305.291,504.28l.851-1.3a6.9,6.9,0,0,0,1.105.487,3,3,0,0,0,.887.137,1.313,1.313,0,0,0,.649-.137.415.415,0,0,0,.24-.367.349.349,0,0,0-.139-.288.97.97,0,0,0-.437-.155l-1.189-.217a2.546,2.546,0,0,1-1.361-.624,1.573,1.573,0,0,1-.462-1.175,1.785,1.785,0,0,1,.69-1.488,3,3,0,0,1,1.9-.54,4.7,4.7,0,0,1,1.284.179,5.417,5.417,0,0,1,1.235.529l-.887,1.236a4.469,4.469,0,0,0-.907-.4,3,3,0,0,0-.87-.132,1.113,1.113,0,0,0-.546.113.356.356,0,0,0-.2.318.325.325,0,0,0,.139.288,1.312,1.312,0,0,0,.5.157l1.164.216a2.668,2.668,0,0,1,1.392.629,1.5,1.5,0,0,1,.467,1.159,1.822,1.822,0,0,1-.2.845,1.976,1.976,0,0,1-.558.673,2.781,2.781,0,0,1-.851.444,3.392,3.392,0,0,1-1.057.162,6.215,6.215,0,0,1-1.571-.192A4,4,0,0,1,305.291,504.28Z"/>
    <path class="b40fc3a1-8e60-4948-aff5-92ff014b77df" d="M313.823,498.725v3.611a1.213,1.213,0,0,0,.281.834.953.953,0,0,0,.75.318,1.281,1.281,0,0,0,.57-.126,1.326,1.326,0,0,0,.462-.389v-4.248h1.945v6.192h-1.945v-1.008a2.541,2.541,0,0,1-.857.821,2.191,2.191,0,0,1-1.1.283,1.965,1.965,0,0,1-1.475-.595,2.09,2.09,0,0,1-.577-1.518v-4.175Z"/>
    <path class="b40fc3a1-8e60-4948-aff5-92ff014b77df" d="M319.342,504.917v-6.192h1.945v.983a2.418,2.418,0,0,1,.8-.8,2.01,2.01,0,0,1,1.033-.276,1.821,1.821,0,0,1,1.055.312,1.927,1.927,0,0,1,.685.84,2.593,2.593,0,0,1,.876-.851,2.247,2.247,0,0,1,1.151-.3,1.794,1.794,0,0,1,1.4.613,2.251,2.251,0,0,1,.545,1.559v4.117H326.89v-3.732a1.068,1.068,0,0,0-.258-.75.861.861,0,0,0-.666-.283,1.04,1.04,0,0,0-.486.115,1.243,1.243,0,0,0-.413.365v4.285h-1.944v-3.732a1.068,1.068,0,0,0-.258-.75.865.865,0,0,0-.666-.283,1.047,1.047,0,0,0-.492.12,1.363,1.363,0,0,0-.42.36v4.285Z"/>
    <path class="b40fc3a1-8e60-4948-aff5-92ff014b77df" d="M335.89,504.041a4.044,4.044,0,0,1-1.212.762,3.9,3.9,0,0,1-1.391.234,3.287,3.287,0,0,1-2.317-.925,3.11,3.11,0,0,1-.7-1.02,3.156,3.156,0,0,1-.252-1.259,3.33,3.33,0,0,1,.239-1.272,3.185,3.185,0,0,1,.655-1.02,2.957,2.957,0,0,1,.99-.679,3.129,3.129,0,0,1,1.235-.245,3.04,3.04,0,0,1,1.231.245,2.883,2.883,0,0,1,.96.679,3.126,3.126,0,0,1,.629,1.038,3.706,3.706,0,0,1,.229,1.325v.421H331.93a1.561,1.561,0,0,0,.528.84,1.422,1.422,0,0,0,.924.323,1.792,1.792,0,0,0,.7-.132,1.3,1.3,0,0,0,.523-.383Zm-2.76-3.913a1.09,1.09,0,0,0-.767.289,1.526,1.526,0,0,0-.433.8h2.46a1.479,1.479,0,0,0-.456-.8A1.183,1.183,0,0,0,333.13,500.128Z"/>
    <path class="b40fc3a1-8e60-4948-aff5-92ff014b77df" d="M337.4,504.917v-6.192h1.944v1.4a3.013,3.013,0,0,1,.714-1.146,1.388,1.388,0,0,1,.966-.378,2.245,2.245,0,0,1,.336.042,1.682,1.682,0,0,1,.312.115v1.668a2.069,2.069,0,0,0-.42-.138,2.176,2.176,0,0,0-.492-.055,1.652,1.652,0,0,0-.81.21,1.7,1.7,0,0,0-.606.558v3.913Z"/>
    <path class="b40fc3a1-8e60-4948-aff5-92ff014b77df" d="M345.143,504.917V503.6l3.552-3.516a2.261,2.261,0,0,0,.426-.559,1.22,1.22,0,0,0,.137-.558.818.818,0,0,0-.353-.677,1.408,1.408,0,0,0-.882-.27,2.394,2.394,0,0,0-1.057.239,4.443,4.443,0,0,0-1.067.792l-1.032-1.259a5.211,5.211,0,0,1,1.536-1.033,4.238,4.238,0,0,1,1.68-.347,3.29,3.29,0,0,1,2.154.672,2.168,2.168,0,0,1,.822,1.764,2.4,2.4,0,0,1-.265,1.1,4.259,4.259,0,0,1-.828,1.068l-2.424,2.339,3.637-.011v1.572Z"/>
    <path class="b40fc3a1-8e60-4948-aff5-92ff014b77df" d="M286.264,518.321l.748.748a2.863,2.863,0,0,1-2.156.957,2.85,2.85,0,0,1,0-5.7,2.972,2.972,0,0,1,2.2.924l-.77.8a1.823,1.823,0,0,0-1.386-.649,1.768,1.768,0,0,0,.033,3.52A1.7,1.7,0,0,0,286.264,518.321Z"/>
    <path class="b40fc3a1-8e60-4948-aff5-92ff014b77df" d="M289.322,519.917h-1.243V512.05l1.243-.209Z"/>
    <path class="b40fc3a1-8e60-4948-aff5-92ff014b77df" d="M290.7,512.523a.776.776,0,0,1,1.551,0,.776.776,0,0,1-1.551,0Zm1.4,7.394h-1.243v-5.512h1.243Z"/>
    <path class="b40fc3a1-8e60-4948-aff5-92ff014b77df" d="M296.174,520.026a2.8,2.8,0,0,1-2.8-2.86,2.714,2.714,0,0,1,2.684-2.849,2.645,2.645,0,0,1,2.608,2.838v.308H294.59a1.683,1.683,0,0,0,1.651,1.507,1.788,1.788,0,0,0,1.308-.517l.815.759A3.188,3.188,0,0,1,296.174,520.026Zm-1.561-3.322h2.871a1.509,1.509,0,0,0-1.442-1.375A1.479,1.479,0,0,0,294.613,516.7Z"/>
    <path class="b40fc3a1-8e60-4948-aff5-92ff014b77df" d="M299.925,514.405h1.243v.9a2,2,0,0,1,1.749-.99,1.855,1.855,0,0,1,1.9,1.969v3.631h-1.243v-3.279a1.187,1.187,0,0,0-1.21-1.32,1.414,1.414,0,0,0-1.2.66v3.939h-1.243Z"/>
    <path class="b40fc3a1-8e60-4948-aff5-92ff014b77df" d="M307.009,515.4H305.9v-.99h1.111v-1.518l1.243-.264v1.782h1.54v.99h-1.54v2.794c0,.54.209.749.771.749a2.287,2.287,0,0,0,.748-.133v1.046A3.909,3.909,0,0,1,308.7,520c-1.112,0-1.695-.527-1.695-1.54Z"/>
    <path class="b40fc3a1-8e60-4948-aff5-92ff014b77df" d="M315.886,516.979h.99v1.034h-.99v1.9h-1.2v-1.9h-4.136v-.979l3.972-4.819h1.363Zm-1.2,0V513.5l-2.849,3.477Z"/>
    <path class="b40fc3a1-8e60-4948-aff5-92ff014b77df" d="M318.174,512.215h4.687v1.035H319.2l-.1,2.233a3.427,3.427,0,0,1,1.607-.385,2.325,2.325,0,0,1,2.563,2.332,2.634,2.634,0,0,1-2.916,2.608,3.879,3.879,0,0,1-2.706-1.046l.727-.825a2.86,2.86,0,0,0,2.023.825,1.484,1.484,0,1,0-.032-2.948,3.255,3.255,0,0,0-1.53.407L318,516.2Z"/>
    <path class="b40fc3a1-8e60-4948-aff5-92ff014b77df" d="M324.323,516.264c0-2.5,1.43-4.159,3.587-4.159a3.463,3.463,0,0,1,2.046.661l-.661.891a2.43,2.43,0,0,0-1.485-.473c-1.43,0-2.266,1.122-2.288,3.058a2.669,2.669,0,0,1,2.124-1.122,2.383,2.383,0,0,1,2.574,2.365,2.542,2.542,0,0,1-2.707,2.531C325.622,520.016,324.323,518.486,324.323,516.264Zm1.255.737c.186,1.2.913,1.98,1.891,1.98a1.483,1.483,0,0,0,1.573-1.463,1.451,1.451,0,0,0-1.584-1.441A2.4,2.4,0,0,0,325.578,517Z"/>
    <path class="b40fc3a1-8e60-4948-aff5-92ff014b77df" d="M332.859,519.212a.771.771,0,1,1-.771-.8A.787.787,0,0,1,332.859,519.212Z"/>
    <path class="b40fc3a1-8e60-4948-aff5-92ff014b77df" d="M334.211,514.405h1.244v.88a1.878,1.878,0,0,1,1.638-.968,1.731,1.731,0,0,1,1.617,1.067,2.033,2.033,0,0,1,1.827-1.067,1.826,1.826,0,0,1,1.8,2v3.6H341.1v-3.334a1.115,1.115,0,0,0-1.111-1.265,1.315,1.315,0,0,0-1.112.649c.011.121.023.231.023.352v3.6h-1.243v-3.334a1.116,1.116,0,0,0-1.112-1.265,1.277,1.277,0,0,0-1.088.627v3.972h-1.244Z"/>
    <path class="b40fc3a1-8e60-4948-aff5-92ff014b77df" d="M345.256,519.95l-2.08-5.545h1.387l1.4,4.092,1.54-4.092h1.353l-2.618,6.414a1.863,1.863,0,0,1-1.958,1.452,2.628,2.628,0,0,1-.627-.077v-1.068a4.358,4.358,0,0,0,.484.045.878.878,0,0,0,.891-.638Z"/>
    <path class="b40fc3a1-8e60-4948-aff5-92ff014b77df" d="M351.1,519.212a.771.771,0,1,1-.77-.8A.787.787,0,0,1,351.1,519.212Z"/>
    <path class="b40fc3a1-8e60-4948-aff5-92ff014b77df" d="M352.45,514.405h1.243v.88a1.879,1.879,0,0,1,1.639-.968,1.732,1.732,0,0,1,1.617,1.067,2.033,2.033,0,0,1,1.826-1.067,1.827,1.827,0,0,1,1.805,2v3.6h-1.244v-3.334a1.115,1.115,0,0,0-1.111-1.265,1.313,1.313,0,0,0-1.111.649c.011.121.022.231.022.352v3.6h-1.243v-3.334a1.116,1.116,0,0,0-1.111-1.265,1.278,1.278,0,0,0-1.089.627v3.972H352.45Z"/>
    <path class="b40fc3a1-8e60-4948-aff5-92ff014b77df" d="M363.3,517.683a1.187,1.187,0,0,0,1.21,1.32,1.39,1.39,0,0,0,1.21-.682v-3.916h1.243v5.512h-1.243V519a2.013,2.013,0,0,1-1.759,1,1.849,1.849,0,0,1-1.9-1.969v-3.63H363.3Z"/>
    <path class="b40fc3a1-8e60-4948-aff5-92ff014b77df" d="M369.73,519.917h-1.243V512.05l1.243-.209Z"/>
    <path class="b40fc3a1-8e60-4948-aff5-92ff014b77df" d="M371.941,515.4H370.83v-.99h1.111v-1.518l1.243-.264v1.782h1.54v.99h-1.54v2.794c0,.54.209.749.771.749a2.287,2.287,0,0,0,.748-.133v1.046a3.921,3.921,0,0,1-1.068.153c-1.111,0-1.694-.527-1.694-1.54Z"/>
    <path class="b40fc3a1-8e60-4948-aff5-92ff014b77df" d="M375.659,512.523a.775.775,0,0,1,1.55,0,.775.775,0,0,1-1.55,0Zm1.4,7.394h-1.243v-5.512h1.243Z"/>
    <path class="b40fc3a1-8e60-4948-aff5-92ff014b77df" d="M382.524,518.321l.748.748a2.866,2.866,0,0,1-2.156.957,2.85,2.85,0,0,1,0-5.7,2.972,2.972,0,0,1,2.2.924l-.771.8a1.819,1.819,0,0,0-1.385-.649,1.768,1.768,0,0,0,.033,3.52A1.7,1.7,0,0,0,382.524,518.321Z"/>
    <path class="b40fc3a1-8e60-4948-aff5-92ff014b77df" d="M384.063,518.333c0-.991.8-1.618,2.1-1.618a3.409,3.409,0,0,1,1.485.341v-.605c0-.726-.419-1.1-1.266-1.1a3.817,3.817,0,0,0-1.606.429l-.44-.9a5.294,5.294,0,0,1,2.288-.561c1.43,0,2.255.726,2.255,2v3.6H387.65v-.562a2.3,2.3,0,0,1-1.64.649A1.737,1.737,0,0,1,384.063,518.333Zm2.288.8a1.968,1.968,0,0,0,1.3-.451v-.9a2.858,2.858,0,0,0-1.276-.264c-.705,0-1.145.308-1.145.792C385.229,518.816,385.669,519.135,386.351,519.135Z"/>
    <path class="b40fc3a1-8e60-4948-aff5-92ff014b77df" d="M390.476,518.442a3.168,3.168,0,0,0,1.771.627c.66,0,1.111-.3,1.111-.736,0-.342-.231-.529-.759-.628l-.979-.165c-1.067-.2-1.6-.693-1.6-1.518,0-1.034.847-1.705,2.134-1.705a3.881,3.881,0,0,1,2.168.66l-.583.814a3.018,3.018,0,0,0-1.662-.528c-.572,0-.946.242-.946.649,0,.352.2.506.781.605l.968.176c1.1.209,1.628.715,1.628,1.54a2.019,2.019,0,0,1-2.244,1.793,3.692,3.692,0,0,1-2.376-.748Z"/>
    <path class="b40fc3a1-8e60-4948-aff5-92ff014b77df" d="M396.338,515.4h-1.111v-.99h1.111v-1.518l1.244-.264v1.782h1.54v.99h-1.54v2.794c0,.54.209.749.77.749a2.287,2.287,0,0,0,.748-.133v1.046a3.909,3.909,0,0,1-1.067.153c-1.112,0-1.695-.527-1.695-1.54Z"/>
    <path class="b40fc3a1-8e60-4948-aff5-92ff014b77df" d="M401.552,519.212a.771.771,0,1,1-.77-.8A.787.787,0,0,1,401.552,519.212Z"/>
    <path class="b40fc3a1-8e60-4948-aff5-92ff014b77df" d="M406.844,519.179a2.123,2.123,0,0,1-1.694.793,2.82,2.82,0,0,1,.077-5.611,2.1,2.1,0,0,1,1.606.726V512.05l1.243-.209v8.076h-1.232Zm-1.32-.253a1.651,1.651,0,0,0,1.309-.605V516a1.71,1.71,0,0,0-1.309-.594,1.764,1.764,0,0,0,0,3.52Z"/>
    <path class="b40fc3a1-8e60-4948-aff5-92ff014b77df" d="M412.167,520.026a2.8,2.8,0,0,1-2.8-2.86,2.714,2.714,0,0,1,2.684-2.849,2.645,2.645,0,0,1,2.608,2.838v.308h-4.071a1.683,1.683,0,0,0,1.651,1.507,1.788,1.788,0,0,0,1.308-.517l.815.759A3.188,3.188,0,0,1,412.167,520.026Zm-1.562-3.322h2.872a1.509,1.509,0,0,0-1.441-1.375A1.481,1.481,0,0,0,410.605,516.7Z"/>
    <path class="b40fc3a1-8e60-4948-aff5-92ff014b77df" d="M416.006,518.442a3.168,3.168,0,0,0,1.771.627c.66,0,1.111-.3,1.111-.736,0-.342-.23-.529-.759-.628l-.979-.165c-1.067-.2-1.595-.693-1.595-1.518,0-1.034.847-1.705,2.134-1.705a3.881,3.881,0,0,1,2.168.66l-.583.814a3.015,3.015,0,0,0-1.661-.528c-.572,0-.946.242-.946.649,0,.352.2.506.781.605l.968.176c1.1.209,1.627.715,1.627,1.54a2.018,2.018,0,0,1-2.244,1.793,3.692,3.692,0,0,1-2.376-.748Z"/>
    <path class="b40fc3a1-8e60-4948-aff5-92ff014b77df" d="M421.869,515.4h-1.112v-.99h1.112v-1.518l1.243-.264v1.782h1.54v.99h-1.54v2.794c0,.54.209.749.77.749a2.287,2.287,0,0,0,.748-.133v1.046a3.909,3.909,0,0,1-1.067.153c-1.111,0-1.694-.527-1.694-1.54Z"/>
    <path class="b40fc3a1-8e60-4948-aff5-92ff014b77df" d="M425.586,512.523a.776.776,0,0,1,1.551,0,.776.776,0,0,1-1.551,0Zm1.4,7.394h-1.243v-5.512h1.243Z"/>
    <path class="b40fc3a1-8e60-4948-aff5-92ff014b77df" d="M428.513,514.405h1.243v.9a2,2,0,0,1,1.749-.99,1.855,1.855,0,0,1,1.9,1.969v3.631h-1.243v-3.279a1.187,1.187,0,0,0-1.21-1.32,1.413,1.413,0,0,0-1.2.66v3.939h-1.243Z"/>
    <path class="b40fc3a1-8e60-4948-aff5-92ff014b77df" d="M434.639,518.333c0-.991.8-1.618,2.1-1.618a3.409,3.409,0,0,1,1.485.341v-.605c0-.726-.419-1.1-1.266-1.1a3.82,3.82,0,0,0-1.606.429l-.439-.9a5.288,5.288,0,0,1,2.288-.561c1.429,0,2.255.726,2.255,2v3.6h-1.232v-.562a2.3,2.3,0,0,1-1.64.649A1.737,1.737,0,0,1,434.639,518.333Zm2.288.8a1.968,1.968,0,0,0,1.3-.451v-.9a2.855,2.855,0,0,0-1.276-.264c-.7,0-1.145.308-1.145.792C435.805,518.816,436.246,519.135,436.927,519.135Z"/>
    <path class="b40fc3a1-8e60-4948-aff5-92ff014b77df" d="M441.646,515.4h-1.111v-.99h1.111v-1.518l1.243-.264v1.782h1.54v.99h-1.54v2.794c0,.54.209.749.771.749a2.287,2.287,0,0,0,.748-.133v1.046a3.921,3.921,0,0,1-1.068.153c-1.111,0-1.694-.527-1.694-1.54Z"/>
    <path class="b40fc3a1-8e60-4948-aff5-92ff014b77df" d="M445.365,512.523a.776.776,0,0,1,1.551,0,.776.776,0,0,1-1.551,0Zm1.4,7.394h-1.243v-5.512h1.243Z"/>
    <path class="b40fc3a1-8e60-4948-aff5-92ff014b77df" d="M450.809,514.317a2.856,2.856,0,1,1-2.772,2.849A2.752,2.752,0,0,1,450.809,514.317Zm1.541,2.86a1.558,1.558,0,1,0-3.081,0,1.556,1.556,0,1,0,3.081,0Z"/>
    <path class="b40fc3a1-8e60-4948-aff5-92ff014b77df" d="M454.869,514.405h1.243v.9a2,2,0,0,1,1.749-.99,1.855,1.855,0,0,1,1.9,1.969v3.631h-1.243v-3.279a1.187,1.187,0,0,0-1.21-1.32,1.413,1.413,0,0,0-1.2.66v3.939h-1.243Z"/>
  </g>
  <g>
    <g>
      <line class="b90ff29f-9f99-492b-9097-b50f32a1d4bb" x1="250.805" y1="74.794" x2="250.805" y2="153.76"/>
      <polygon class="b40fc3a1-8e60-4948-aff5-92ff014b77df" points="245.819 152.301 250.805 160.936 255.791 152.301 245.819 152.301"/>
    </g>
    <rect class="a65cd1f4-6816-472c-a6da-31d32cbdd204" x="215.218" y="111.117" width="71.174" height="30.699"/>
    <g>
      <text class="f297cb86-9eef-4f65-a3b1-bef72dcaf71e" transform="translate(224.062 135.049)">Message 1-N</text>
      <g>
        <polygon class="f389151c-099d-4912-8b42-5770fd565bf3" points="262.555 119.996 239.055 119.996 239.055 93.789 244.93 87.965 262.555 87.965 262.555 119.996"/>
        <polygon class="aaecb16d-4ebf-4379-8e9b-c5715be626ed" points="244.93 93.789 239.055 93.789 244.93 87.965 244.93 93.789"/>
        <line class="aaecb16d-4ebf-4379-8e9b-c5715be626ed" x1="243.462" y1="98.157" x2="250.805" y2="98.157"/>
        <line class="aaecb16d-4ebf-4379-8e9b-c5715be626ed" x1="243.462" y1="102.525" x2="258.149" y2="102.525"/>
        <line class="aaecb16d-4ebf-4379-8e9b-c5715be626ed" x1="243.462" y1="106.893" x2="258.149" y2="106.893"/>
        <line class="aaecb16d-4ebf-4379-8e9b-c5715be626ed" x1="243.462" y1="111.26" x2="258.149" y2="111.26"/>
      </g>
    </g>
  </g>
  <rect class="b8d989d8-f5dc-4c23-94cc-f54ddf22aab6" x="-0.695" y="163.533" width="503" height="248.5"/>
  <text class="a556e80f-df6a-4bb1-a06d-7f257f16866e" transform="translate(19.305 193.62)">Broker</text>
  <rect class="f651d7ea-7eb6-4ee6-b097-4fcd245254fc" x="143.055" y="183.482" width="215.5" height="60"/>
  <g>
    <path class="a65cd1f4-6816-472c-a6da-31d32cbdd204" d="M226.325,207.724l3.276-8.4h2.352l3.228,8.4h-2.232l-.7-2h-3.072l-.708,2Zm3.42-3.6H231.7l-.972-2.783Z"/>
    <path class="a65cd1f4-6816-472c-a6da-31d32cbdd204" d="M240.245,207.724v-.8a2.1,2.1,0,0,1-.786.612,2.452,2.452,0,0,1-2.1-.017,2.7,2.7,0,0,1-.871-.672,3.3,3.3,0,0,1-.582-1,3.462,3.462,0,0,1-.215-1.225,3.33,3.33,0,0,1,.221-1.218,3.088,3.088,0,0,1,.613-.99,2.919,2.919,0,0,1,.918-.666,2.631,2.631,0,0,1,1.127-.246,2.23,2.23,0,0,1,.913.193,2.1,2.1,0,0,1,.743.551v-3.095l1.944-.3v8.88Zm-2.652-3.1a1.494,1.494,0,0,0,.427,1.087,1.4,1.4,0,0,0,1.049.437,1.531,1.531,0,0,0,1.152-.492v-2.088a1.667,1.667,0,0,0-.522-.353,1.582,1.582,0,0,0-.63-.126,1.4,1.4,0,0,0-1.056.437A1.525,1.525,0,0,0,237.593,204.627Z"/>
    <path class="a65cd1f4-6816-472c-a6da-31d32cbdd204" d="M247.961,207.724v-.8a2.1,2.1,0,0,1-.786.612,2.454,2.454,0,0,1-2.106-.017,2.685,2.685,0,0,1-.87-.672,3.3,3.3,0,0,1-.582-1,3.463,3.463,0,0,1-.216-1.225,3.33,3.33,0,0,1,.222-1.218,3.1,3.1,0,0,1,.612-.99,2.942,2.942,0,0,1,.918-.666,2.638,2.638,0,0,1,1.128-.246,2.222,2.222,0,0,1,.912.193,2.1,2.1,0,0,1,.744.551v-3.095l1.944-.3v8.88Zm-2.652-3.1a1.5,1.5,0,0,0,.426,1.087,1.406,1.406,0,0,0,1.05.437,1.531,1.531,0,0,0,1.152-.492v-2.088a1.678,1.678,0,0,0-.522-.353,1.582,1.582,0,0,0-.63-.126,1.4,1.4,0,0,0-1.056.437A1.525,1.525,0,0,0,245.309,204.627Z"/>
    <path class="a65cd1f4-6816-472c-a6da-31d32cbdd204" d="M251.393,207.724v-6.193h1.944v1.405a3,3,0,0,1,.714-1.147,1.386,1.386,0,0,1,.966-.378,2.4,2.4,0,0,1,.336.042,1.772,1.772,0,0,1,.312.114v1.668a2.157,2.157,0,0,0-.42-.137,2.235,2.235,0,0,0-.492-.055,1.645,1.645,0,0,0-.811.21,1.687,1.687,0,0,0-.605.559v3.912Z"/>
    <path class="a65cd1f4-6816-472c-a6da-31d32cbdd204" d="M262.288,206.848a4.039,4.039,0,0,1-1.212.761,3.853,3.853,0,0,1-1.391.235,3.315,3.315,0,0,1-1.279-.246,3.276,3.276,0,0,1-1.038-.679,3.11,3.11,0,0,1-.695-1.02,3.156,3.156,0,0,1-.252-1.259,3.342,3.342,0,0,1,.239-1.273,3.217,3.217,0,0,1,.654-1.019,2.985,2.985,0,0,1,.991-.679,3.126,3.126,0,0,1,1.235-.245,3.04,3.04,0,0,1,1.231.245,2.883,2.883,0,0,1,.959.679,3.1,3.1,0,0,1,.63,1.038,3.706,3.706,0,0,1,.229,1.325v.421h-4.261a1.558,1.558,0,0,0,.528.84,1.417,1.417,0,0,0,.924.323,1.792,1.792,0,0,0,.7-.132,1.309,1.309,0,0,0,.523-.384Zm-2.76-3.912a1.085,1.085,0,0,0-.767.288,1.531,1.531,0,0,0-.433.8h2.46a1.479,1.479,0,0,0-.456-.8A1.177,1.177,0,0,0,259.528,202.936Z"/>
    <path class="a65cd1f4-6816-472c-a6da-31d32cbdd204" d="M263.3,207.087l.851-1.3a6.79,6.79,0,0,0,1.105.486,2.978,2.978,0,0,0,.888.138,1.3,1.3,0,0,0,.648-.138.412.412,0,0,0,.24-.366.35.35,0,0,0-.138-.288.975.975,0,0,0-.438-.155l-1.188-.217a2.546,2.546,0,0,1-1.362-.624,1.579,1.579,0,0,1-.462-1.176,1.782,1.782,0,0,1,.69-1.487,3.013,3.013,0,0,1,1.9-.54,4.656,4.656,0,0,1,1.284.18,5.351,5.351,0,0,1,1.236.528l-.888,1.235a4.487,4.487,0,0,0-.906-.395,3,3,0,0,0-.87-.132,1.11,1.11,0,0,0-.546.113.353.353,0,0,0-.2.318.328.328,0,0,0,.138.289,1.334,1.334,0,0,0,.5.156l1.164.216a2.653,2.653,0,0,1,1.392.63,1.5,1.5,0,0,1,.468,1.158,1.826,1.826,0,0,1-.2.845,1.97,1.97,0,0,1-.557.672,2.788,2.788,0,0,1-.852.445,3.385,3.385,0,0,1-1.056.162,6.177,6.177,0,0,1-1.572-.193A4,4,0,0,1,263.3,207.087Z"/>
    <path class="a65cd1f4-6816-472c-a6da-31d32cbdd204" d="M269.428,207.087l.851-1.3a6.79,6.79,0,0,0,1.105.486,2.976,2.976,0,0,0,.887.138,1.3,1.3,0,0,0,.649-.138.412.412,0,0,0,.24-.366.348.348,0,0,0-.139-.288.966.966,0,0,0-.437-.155l-1.188-.217a2.546,2.546,0,0,1-1.362-.624,1.579,1.579,0,0,1-.462-1.176,1.782,1.782,0,0,1,.69-1.487,3.011,3.011,0,0,1,1.9-.54,4.661,4.661,0,0,1,1.284.18,5.351,5.351,0,0,1,1.236.528l-.888,1.235a4.511,4.511,0,0,0-.906-.395,3,3,0,0,0-.87-.132,1.108,1.108,0,0,0-.546.113.354.354,0,0,0-.2.318.329.329,0,0,0,.139.289,1.334,1.334,0,0,0,.5.156l1.164.216a2.657,2.657,0,0,1,1.392.63,1.5,1.5,0,0,1,.468,1.158,1.826,1.826,0,0,1-.2.845,1.981,1.981,0,0,1-.557.672,2.8,2.8,0,0,1-.852.445,3.392,3.392,0,0,1-1.057.162,6.175,6.175,0,0,1-1.571-.193A4,4,0,0,1,269.428,207.087Z"/>
    <path class="a65cd1f4-6816-472c-a6da-31d32cbdd204" d="M188.046,217.212h1.243v.88a1.879,1.879,0,0,1,1.639-.968,1.732,1.732,0,0,1,1.617,1.066,2.032,2.032,0,0,1,1.826-1.066,1.826,1.826,0,0,1,1.8,2v3.6h-1.243V219.39a1.115,1.115,0,0,0-1.112-1.265,1.314,1.314,0,0,0-1.111.648c.011.122.022.232.022.353v3.6h-1.243V219.39a1.115,1.115,0,0,0-1.111-1.265,1.279,1.279,0,0,0-1.089.627v3.972h-1.243Z"/>
    <path class="a65cd1f4-6816-472c-a6da-31d32cbdd204" d="M199.09,222.757l-2.08-5.545H198.4l1.4,4.092,1.54-4.092h1.353l-2.619,6.414a1.862,1.862,0,0,1-1.958,1.452,2.634,2.634,0,0,1-.627-.077v-1.067a4.512,4.512,0,0,0,.485.044.878.878,0,0,0,.89-.638Z"/>
    <path class="a65cd1f4-6816-472c-a6da-31d32cbdd204" d="M204.931,222.02a.771.771,0,1,1-.771-.8A.794.794,0,0,1,204.931,222.02Z"/>
    <path class="a65cd1f4-6816-472c-a6da-31d32cbdd204" d="M206.283,217.212h1.243v.88a1.88,1.88,0,0,1,1.639-.968,1.732,1.732,0,0,1,1.617,1.066,2.032,2.032,0,0,1,1.826-1.066,1.826,1.826,0,0,1,1.805,2v3.6H213.17V219.39a1.115,1.115,0,0,0-1.111-1.265,1.314,1.314,0,0,0-1.112.648c.011.122.023.232.023.353v3.6h-1.243V219.39a1.116,1.116,0,0,0-1.112-1.265,1.279,1.279,0,0,0-1.089.627v3.972h-1.243Z"/>
    <path class="a65cd1f4-6816-472c-a6da-31d32cbdd204" d="M217.13,220.49a1.188,1.188,0,0,0,1.21,1.321,1.391,1.391,0,0,0,1.21-.683v-3.916h1.243v5.512H219.55v-.913a2.017,2.017,0,0,1-1.76,1,1.849,1.849,0,0,1-1.9-1.97v-3.63h1.243Z"/>
    <path class="a65cd1f4-6816-472c-a6da-31d32cbdd204" d="M223.564,222.724h-1.243v-7.867l1.243-.209Z"/>
    <path class="a65cd1f4-6816-472c-a6da-31d32cbdd204" d="M225.775,218.2h-1.111v-.99h1.111v-1.519l1.244-.263v1.782h1.54v.99h-1.54V221c0,.539.209.748.77.748a2.283,2.283,0,0,0,.748-.132v1.045a3.873,3.873,0,0,1-1.067.155c-1.112,0-1.695-.529-1.695-1.541Z"/>
    <path class="a65cd1f4-6816-472c-a6da-31d32cbdd204" d="M229.493,215.33a.776.776,0,0,1,1.551,0,.776.776,0,0,1-1.551,0Zm1.4,7.394h-1.244v-5.512h1.244Z"/>
    <path class="a65cd1f4-6816-472c-a6da-31d32cbdd204" d="M236.357,221.128l.748.748a2.863,2.863,0,0,1-2.156.957,2.85,2.85,0,0,1,0-5.7,2.968,2.968,0,0,1,2.2.924l-.77.8a1.821,1.821,0,0,0-1.386-.649,1.768,1.768,0,0,0,.033,3.52A1.693,1.693,0,0,0,236.357,221.128Z"/>
    <path class="a65cd1f4-6816-472c-a6da-31d32cbdd204" d="M237.9,221.14c0-.991.8-1.619,2.1-1.619a3.407,3.407,0,0,1,1.485.342v-.6c0-.726-.419-1.1-1.265-1.1a3.82,3.82,0,0,0-1.607.429l-.439-.9a5.291,5.291,0,0,1,2.288-.561c1.43,0,2.255.726,2.255,2v3.6h-1.232v-.562a2.3,2.3,0,0,1-1.639.65A1.739,1.739,0,0,1,237.9,221.14Zm2.289.8a1.965,1.965,0,0,0,1.3-.451v-.9a2.855,2.855,0,0,0-1.276-.264c-.7,0-1.145.308-1.145.792C239.062,221.623,239.5,221.942,240.185,221.942Z"/>
    <path class="a65cd1f4-6816-472c-a6da-31d32cbdd204" d="M244.31,221.249a3.173,3.173,0,0,0,1.77.627c.66,0,1.111-.3,1.111-.736,0-.342-.23-.529-.758-.628l-.98-.165c-1.066-.2-1.595-.693-1.595-1.518,0-1.034.847-1.705,2.134-1.705a3.886,3.886,0,0,1,2.168.659l-.583.815a3.006,3.006,0,0,0-1.662-.529c-.571,0-.945.243-.945.65,0,.352.2.506.781.605l.968.176c1.1.209,1.628.715,1.628,1.54a2.019,2.019,0,0,1-2.244,1.793,3.7,3.7,0,0,1-2.376-.748Z"/>
    <path class="a65cd1f4-6816-472c-a6da-31d32cbdd204" d="M250.173,218.2h-1.111v-.99h1.111v-1.519l1.243-.263v1.782h1.54v.99h-1.54V221c0,.539.209.748.771.748a2.292,2.292,0,0,0,.748-.132v1.045a3.886,3.886,0,0,1-1.068.155c-1.111,0-1.694-.529-1.694-1.541Z"/>
    <path class="a65cd1f4-6816-472c-a6da-31d32cbdd204" d="M255.387,222.02a.771.771,0,1,1-.771-.8A.8.8,0,0,1,255.387,222.02Z"/>
    <path class="a65cd1f4-6816-472c-a6da-31d32cbdd204" d="M260.678,221.986a2.123,2.123,0,0,1-1.695.792,2.819,2.819,0,0,1,.078-5.61,2.1,2.1,0,0,1,1.605.726v-3.037l1.243-.209v8.076h-1.231Zm-1.321-.253a1.648,1.648,0,0,0,1.309-.605v-2.321a1.708,1.708,0,0,0-1.309-.594,1.764,1.764,0,0,0,0,3.52Z"/>
    <path class="a65cd1f4-6816-472c-a6da-31d32cbdd204" d="M266,222.833a2.8,2.8,0,0,1-2.806-2.86,2.714,2.714,0,0,1,2.685-2.849,2.645,2.645,0,0,1,2.607,2.838v.309h-4.07a1.682,1.682,0,0,0,1.65,1.506,1.79,1.79,0,0,0,1.309-.517l.814.76A3.189,3.189,0,0,1,266,222.833Zm-1.563-3.322h2.873a1.51,1.51,0,0,0-1.442-1.375A1.482,1.482,0,0,0,264.438,219.511Z"/>
    <path class="a65cd1f4-6816-472c-a6da-31d32cbdd204" d="M269.841,221.249a3.176,3.176,0,0,0,1.77.627c.66,0,1.112-.3,1.112-.736,0-.342-.231-.529-.759-.628l-.98-.165c-1.066-.2-1.594-.693-1.594-1.518,0-1.034.846-1.705,2.133-1.705a3.886,3.886,0,0,1,2.168.659l-.583.815a3.006,3.006,0,0,0-1.662-.529c-.571,0-.945.243-.945.65,0,.352.2.506.781.605l.968.176c1.1.209,1.628.715,1.628,1.54a2.019,2.019,0,0,1-2.244,1.793,3.7,3.7,0,0,1-2.376-.748Z"/>
    <path class="a65cd1f4-6816-472c-a6da-31d32cbdd204" d="M275.7,218.2h-1.111v-.99H275.7v-1.519l1.243-.263v1.782h1.54v.99h-1.54V221c0,.539.209.748.771.748a2.283,2.283,0,0,0,.748-.132v1.045a3.875,3.875,0,0,1-1.068.155c-1.111,0-1.694-.529-1.694-1.541Z"/>
    <path class="a65cd1f4-6816-472c-a6da-31d32cbdd204" d="M279.421,215.33a.776.776,0,0,1,1.551,0,.776.776,0,0,1-1.551,0Zm1.4,7.394h-1.243v-5.512h1.243Z"/>
    <path class="a65cd1f4-6816-472c-a6da-31d32cbdd204" d="M282.348,217.212h1.243v.9a2,2,0,0,1,1.749-.989,1.855,1.855,0,0,1,1.9,1.969v3.631H286v-3.279a1.187,1.187,0,0,0-1.21-1.32,1.411,1.411,0,0,0-1.2.66v3.939h-1.243Z"/>
    <path class="a65cd1f4-6816-472c-a6da-31d32cbdd204" d="M288.474,221.14c0-.991.8-1.619,2.1-1.619a3.415,3.415,0,0,1,1.486.342v-.6c0-.726-.419-1.1-1.266-1.1a3.82,3.82,0,0,0-1.607.429l-.439-.9a5.291,5.291,0,0,1,2.288-.561c1.43,0,2.255.726,2.255,2v3.6h-1.231v-.562a2.306,2.306,0,0,1-1.64.65A1.738,1.738,0,0,1,288.474,221.14Zm2.288.8a1.968,1.968,0,0,0,1.3-.451v-.9a2.859,2.859,0,0,0-1.277-.264c-.7,0-1.144.308-1.144.792C289.64,221.623,290.08,221.942,290.762,221.942Z"/>
    <path class="a65cd1f4-6816-472c-a6da-31d32cbdd204" d="M295.48,218.2h-1.111v-.99h1.111v-1.519l1.244-.263v1.782h1.54v.99h-1.54V221c0,.539.209.748.77.748a2.283,2.283,0,0,0,.748-.132v1.045a3.873,3.873,0,0,1-1.067.155c-1.112,0-1.695-.529-1.695-1.541Z"/>
    <path class="a65cd1f4-6816-472c-a6da-31d32cbdd204" d="M299.2,215.33a.776.776,0,0,1,1.551,0,.776.776,0,0,1-1.551,0Zm1.4,7.394h-1.243v-5.512H300.6Z"/>
    <path class="a65cd1f4-6816-472c-a6da-31d32cbdd204" d="M304.644,217.124a2.856,2.856,0,1,1-2.773,2.849A2.75,2.75,0,0,1,304.644,217.124Zm1.541,2.86a1.558,1.558,0,1,0-3.081,0,1.556,1.556,0,1,0,3.081,0Z"/>
    <path class="a65cd1f4-6816-472c-a6da-31d32cbdd204" d="M308.7,217.212h1.243v.9a2,2,0,0,1,1.749-.989,1.855,1.855,0,0,1,1.9,1.969v3.631h-1.244v-3.279a1.187,1.187,0,0,0-1.209-1.32,1.411,1.411,0,0,0-1.2.66v3.939H308.7Z"/>
  </g>
  <g>
    <polyline class="b90ff29f-9f99-492b-9097-b50f32a1d4bb" points="374.305 257.445 374.305 213.482 358.555 213.482"/>
    <polygon class="b40fc3a1-8e60-4948-aff5-92ff014b77df" points="379.291 255.986 374.305 264.621 369.319 255.986 379.291 255.986"/>
  </g>
  <g>
    <polyline class="b90ff29f-9f99-492b-9097-b50f32a1d4bb" points="127.055 257.445 127.055 213.482 143.152 213.482"/>
    <polygon class="b40fc3a1-8e60-4948-aff5-92ff014b77df" points="132.042 255.986 127.055 264.621 122.069 255.986 132.042 255.986"/>
  </g>
  <g>
    <rect class="a65cd1f4-6816-472c-a6da-31d32cbdd204" x="266.555" y="267.315" width="215.5" height="125"/>
    <g>
      <path class="b40fc3a1-8e60-4948-aff5-92ff014b77df" d="M290.77,287.318a4.316,4.316,0,0,1-1.187,3l.731.876-1.476,1.008-.732-.876a3.983,3.983,0,0,1-.8.24,4.486,4.486,0,0,1-.87.084,4.365,4.365,0,0,1-1.71-.336,4.207,4.207,0,0,1-2.3-2.3,4.461,4.461,0,0,1,0-3.4,4.2,4.2,0,0,1,2.3-2.3,4.383,4.383,0,0,1,1.71-.336,4.326,4.326,0,0,1,3.078,1.254,4.284,4.284,0,0,1,.918,1.38A4.334,4.334,0,0,1,290.77,287.318Zm-3.191.588.683.828a2.611,2.611,0,0,0,.277-.654,2.934,2.934,0,0,0,.1-.762,2.859,2.859,0,0,0-.168-.99,2.438,2.438,0,0,0-.462-.792,2.16,2.16,0,0,0-.7-.521,2.085,2.085,0,0,0-1.752,0,2.16,2.16,0,0,0-.7.521,2.456,2.456,0,0,0-.462.792,3,3,0,0,0,0,1.981,2.446,2.446,0,0,0,.462.792,2.174,2.174,0,0,0,.7.521,2.032,2.032,0,0,0,.876.192,1.718,1.718,0,0,0,.2-.011l.2-.025-.72-.864Z"/>
      <path class="b40fc3a1-8e60-4948-aff5-92ff014b77df" d="M293.962,285.326v3.612a1.209,1.209,0,0,0,.282.834.953.953,0,0,0,.75.318,1.281,1.281,0,0,0,.57-.126,1.318,1.318,0,0,0,.462-.39v-4.248h1.944v6.193h-1.944v-1.008a2.535,2.535,0,0,1-.858.821,2.179,2.179,0,0,1-1.1.282,1.969,1.969,0,0,1-1.476-.593,2.094,2.094,0,0,1-.576-1.519v-4.176Z"/>
      <path class="b40fc3a1-8e60-4948-aff5-92ff014b77df" d="M305.074,290.643a4.052,4.052,0,0,1-1.212.761,3.855,3.855,0,0,1-1.392.235,3.307,3.307,0,0,1-1.278-.246,3.265,3.265,0,0,1-1.038-.679,3.113,3.113,0,0,1-.7-1.02,3.173,3.173,0,0,1-.251-1.259,3.342,3.342,0,0,1,.239-1.273,3.217,3.217,0,0,1,.654-1.019,2.967,2.967,0,0,1,.99-.679,3.13,3.13,0,0,1,1.236-.245,3.032,3.032,0,0,1,1.23.245,2.873,2.873,0,0,1,.96.679,3.1,3.1,0,0,1,.63,1.038,3.728,3.728,0,0,1,.229,1.325v.421h-4.261a1.552,1.552,0,0,0,.528.84,1.42,1.42,0,0,0,.924.323,1.8,1.8,0,0,0,.7-.132,1.309,1.309,0,0,0,.523-.384Zm-2.76-3.913a1.086,1.086,0,0,0-.768.289,1.53,1.53,0,0,0-.432.8h2.46a1.486,1.486,0,0,0-.456-.8A1.18,1.18,0,0,0,302.314,286.73Z"/>
      <path class="b40fc3a1-8e60-4948-aff5-92ff014b77df" d="M308.482,285.326v3.612a1.213,1.213,0,0,0,.281.834.956.956,0,0,0,.75.318,1.278,1.278,0,0,0,.57-.126,1.31,1.31,0,0,0,.462-.39v-4.248h1.945v6.193h-1.945v-1.008a2.541,2.541,0,0,1-.857.821,2.18,2.18,0,0,1-1.1.282,1.969,1.969,0,0,1-1.475-.593,2.094,2.094,0,0,1-.576-1.519v-4.176Z"/>
      <path class="b40fc3a1-8e60-4948-aff5-92ff014b77df" d="M319.593,290.643a4.027,4.027,0,0,1-1.212.761,3.853,3.853,0,0,1-1.391.235,3.315,3.315,0,0,1-1.279-.246,3.276,3.276,0,0,1-1.038-.679,3.11,3.11,0,0,1-.695-1.02,3.156,3.156,0,0,1-.252-1.259,3.342,3.342,0,0,1,.239-1.273,3.2,3.2,0,0,1,.655-1.019,2.957,2.957,0,0,1,.99-.679,3.129,3.129,0,0,1,1.235-.245,3.037,3.037,0,0,1,1.231.245,2.883,2.883,0,0,1,.96.679,3.135,3.135,0,0,1,.63,1.038,3.727,3.727,0,0,1,.228,1.325v.421h-4.261a1.553,1.553,0,0,0,.529.84,1.417,1.417,0,0,0,.923.323,1.8,1.8,0,0,0,.7-.132,1.306,1.306,0,0,0,.522-.384Zm-2.76-3.913a1.086,1.086,0,0,0-.767.289,1.531,1.531,0,0,0-.433.8h2.46a1.479,1.479,0,0,0-.456-.8A1.176,1.176,0,0,0,316.833,286.73Z"/>
      <path class="b40fc3a1-8e60-4948-aff5-92ff014b77df" d="M286.263,304.923l.748.748a2.863,2.863,0,0,1-2.156.957,2.85,2.85,0,0,1,0-5.7,2.972,2.972,0,0,1,2.2.924l-.77.8a1.823,1.823,0,0,0-1.386-.649,1.768,1.768,0,0,0,.033,3.52A1.7,1.7,0,0,0,286.263,304.923Z"/>
      <path class="b40fc3a1-8e60-4948-aff5-92ff014b77df" d="M289.321,306.519h-1.243v-7.867l1.243-.209Z"/>
      <path class="b40fc3a1-8e60-4948-aff5-92ff014b77df" d="M290.7,299.125a.776.776,0,0,1,1.551,0,.776.776,0,0,1-1.551,0Zm1.4,7.394H290.85v-5.512h1.243Z"/>
      <path class="b40fc3a1-8e60-4948-aff5-92ff014b77df" d="M296.173,306.628a2.8,2.8,0,0,1-2.805-2.86,2.714,2.714,0,0,1,2.684-2.849,2.645,2.645,0,0,1,2.608,2.838v.308h-4.071a1.683,1.683,0,0,0,1.651,1.507,1.788,1.788,0,0,0,1.308-.517l.815.759A3.188,3.188,0,0,1,296.173,306.628Zm-1.561-3.322h2.871a1.509,1.509,0,0,0-1.441-1.375A1.479,1.479,0,0,0,294.612,303.306Z"/>
      <path class="b40fc3a1-8e60-4948-aff5-92ff014b77df" d="M299.924,301.007h1.243v.9a2,2,0,0,1,1.75-.989,1.854,1.854,0,0,1,1.9,1.969v3.631h-1.243V303.24a1.187,1.187,0,0,0-1.21-1.32,1.412,1.412,0,0,0-1.2.66v3.939h-1.243Z"/>
      <path class="b40fc3a1-8e60-4948-aff5-92ff014b77df" d="M307.008,302H305.9v-.99h1.111v-1.519l1.243-.263v1.782h1.541V302h-1.541v2.794c0,.539.209.748.771.748a2.283,2.283,0,0,0,.748-.132v1.045a3.872,3.872,0,0,1-1.067.154c-1.112,0-1.695-.528-1.695-1.54Z"/>
      <path class="b40fc3a1-8e60-4948-aff5-92ff014b77df" d="M315.885,303.581h.99v1.034h-.99v1.9h-1.2v-1.9H310.55v-.979l3.972-4.819h1.363Zm-1.2,0V300.1l-2.849,3.477Z"/>
      <path class="b40fc3a1-8e60-4948-aff5-92ff014b77df" d="M318.173,298.817h4.687v1.035H319.2l-.1,2.233a3.416,3.416,0,0,1,1.607-.386,2.326,2.326,0,0,1,2.563,2.333,2.634,2.634,0,0,1-2.916,2.608,3.884,3.884,0,0,1-2.706-1.046l.727-.824a2.858,2.858,0,0,0,2.023.824,1.484,1.484,0,1,0-.032-2.948,3.243,3.243,0,0,0-1.53.407L318,302.8Z"/>
      <path class="b40fc3a1-8e60-4948-aff5-92ff014b77df" d="M324.322,302.866c0-2.5,1.43-4.159,3.587-4.159a3.469,3.469,0,0,1,2.046.66l-.661.892a2.431,2.431,0,0,0-1.485-.474c-1.43,0-2.266,1.122-2.288,3.059a2.669,2.669,0,0,1,2.124-1.122,2.383,2.383,0,0,1,2.574,2.365,2.542,2.542,0,0,1-2.707,2.53C325.621,306.617,324.322,305.088,324.322,302.866Zm1.255.737c.186,1.2.913,1.98,1.891,1.98a1.484,1.484,0,0,0,1.574-1.463,1.451,1.451,0,0,0-1.584-1.441A2.406,2.406,0,0,0,325.577,303.6Z"/>
      <path class="b40fc3a1-8e60-4948-aff5-92ff014b77df" d="M332.858,305.814a.771.771,0,1,1-.771-.8A.786.786,0,0,1,332.858,305.814Z"/>
      <path class="b40fc3a1-8e60-4948-aff5-92ff014b77df" d="M334.21,301.007h1.244v.88a1.878,1.878,0,0,1,1.638-.968,1.731,1.731,0,0,1,1.617,1.066,2.032,2.032,0,0,1,1.827-1.066,1.825,1.825,0,0,1,1.8,2v3.6H341.1v-3.334a1.115,1.115,0,0,0-1.111-1.265,1.313,1.313,0,0,0-1.111.648c.01.121.022.232.022.353v3.6h-1.243v-3.334a1.116,1.116,0,0,0-1.112-1.265,1.277,1.277,0,0,0-1.088.627v3.972H334.21Z"/>
      <path class="b40fc3a1-8e60-4948-aff5-92ff014b77df" d="M345.255,306.552l-2.08-5.545h1.387l1.4,4.092,1.541-4.092h1.352l-2.618,6.414a1.863,1.863,0,0,1-1.958,1.452,2.628,2.628,0,0,1-.627-.077v-1.067a4.414,4.414,0,0,0,.484.043.878.878,0,0,0,.891-.637Z"/>
      <path class="b40fc3a1-8e60-4948-aff5-92ff014b77df" d="M351.1,305.814a.771.771,0,1,1-.77-.8A.786.786,0,0,1,351.1,305.814Z"/>
      <path class="b40fc3a1-8e60-4948-aff5-92ff014b77df" d="M352.449,301.007h1.243v.88a1.879,1.879,0,0,1,1.639-.968,1.732,1.732,0,0,1,1.617,1.066,2.032,2.032,0,0,1,1.826-1.066,1.826,1.826,0,0,1,1.805,2v3.6h-1.244v-3.334a1.115,1.115,0,0,0-1.111-1.265,1.314,1.314,0,0,0-1.111.648c.011.121.022.232.022.353v3.6h-1.243v-3.334a1.116,1.116,0,0,0-1.111-1.265,1.278,1.278,0,0,0-1.089.627v3.972h-1.243Z"/>
      <path class="b40fc3a1-8e60-4948-aff5-92ff014b77df" d="M363.294,304.285a1.187,1.187,0,0,0,1.21,1.32,1.39,1.39,0,0,0,1.21-.682v-3.916h1.244v5.512h-1.244v-.914a2.013,2.013,0,0,1-1.759,1,1.849,1.849,0,0,1-1.9-1.969v-3.63h1.243Z"/>
      <path class="b40fc3a1-8e60-4948-aff5-92ff014b77df" d="M369.729,306.519h-1.243v-7.867l1.243-.209Z"/>
      <path class="b40fc3a1-8e60-4948-aff5-92ff014b77df" d="M371.94,302h-1.111v-.99h1.111v-1.519l1.243-.263v1.782h1.54V302h-1.54v2.794c0,.539.209.748.771.748a2.283,2.283,0,0,0,.748-.132v1.045a3.884,3.884,0,0,1-1.068.154c-1.111,0-1.694-.528-1.694-1.54Z"/>
      <path class="b40fc3a1-8e60-4948-aff5-92ff014b77df" d="M375.658,299.125a.775.775,0,0,1,1.55,0,.775.775,0,0,1-1.55,0Zm1.4,7.394h-1.243v-5.512h1.243Z"/>
      <path class="b40fc3a1-8e60-4948-aff5-92ff014b77df" d="M382.523,304.923l.748.748a2.866,2.866,0,0,1-2.156.957,2.85,2.85,0,0,1,0-5.7,2.972,2.972,0,0,1,2.2.924l-.771.8a1.819,1.819,0,0,0-1.385-.649,1.768,1.768,0,0,0,.033,3.52A1.7,1.7,0,0,0,382.523,304.923Z"/>
      <path class="b40fc3a1-8e60-4948-aff5-92ff014b77df" d="M384.062,304.935c0-.991.8-1.619,2.1-1.619a3.41,3.41,0,0,1,1.485.342v-.605c0-.726-.419-1.1-1.266-1.1a3.817,3.817,0,0,0-1.606.429l-.44-.9a5.306,5.306,0,0,1,2.288-.56c1.43,0,2.255.726,2.255,2v3.6h-1.231v-.562a2.3,2.3,0,0,1-1.64.649A1.737,1.737,0,0,1,384.062,304.935Zm2.288.8a1.968,1.968,0,0,0,1.3-.451v-.9a2.858,2.858,0,0,0-1.276-.264c-.7,0-1.145.308-1.145.792C385.228,305.418,385.668,305.737,386.35,305.737Z"/>
      <path class="b40fc3a1-8e60-4948-aff5-92ff014b77df" d="M390.475,305.044a3.176,3.176,0,0,0,1.771.627c.66,0,1.111-.3,1.111-.736,0-.342-.231-.529-.759-.628l-.979-.165c-1.067-.2-1.6-.693-1.6-1.518,0-1.034.847-1.705,2.134-1.705a3.888,3.888,0,0,1,2.168.659l-.583.815a3.011,3.011,0,0,0-1.662-.529c-.572,0-.946.242-.946.65,0,.352.2.506.782.605l.967.176c1.1.209,1.628.715,1.628,1.54a2.019,2.019,0,0,1-2.244,1.793,3.7,3.7,0,0,1-2.376-.748Z"/>
      <path class="b40fc3a1-8e60-4948-aff5-92ff014b77df" d="M396.337,302h-1.111v-.99h1.111v-1.519l1.244-.263v1.782h1.54V302h-1.54v2.794c0,.539.209.748.77.748a2.283,2.283,0,0,0,.748-.132v1.045a3.872,3.872,0,0,1-1.067.154c-1.112,0-1.695-.528-1.695-1.54Z"/>
      <path class="b40fc3a1-8e60-4948-aff5-92ff014b77df" d="M401.551,305.814a.771.771,0,1,1-1.54,0,.771.771,0,1,1,1.54,0Z"/>
      <path class="b40fc3a1-8e60-4948-aff5-92ff014b77df" d="M406.843,305.781a2.121,2.121,0,0,1-1.694.792,2.82,2.82,0,0,1,.077-5.61,2.105,2.105,0,0,1,1.606.725v-3.036l1.243-.209v8.076h-1.232Zm-1.32-.253a1.651,1.651,0,0,0,1.309-.605V302.6a1.71,1.71,0,0,0-1.309-.594,1.764,1.764,0,0,0,0,3.52Z"/>
      <path class="b40fc3a1-8e60-4948-aff5-92ff014b77df" d="M412.167,306.628a2.8,2.8,0,0,1-2.806-2.86,2.714,2.714,0,0,1,2.684-2.849,2.645,2.645,0,0,1,2.608,2.838v.308h-4.07a1.682,1.682,0,0,0,1.65,1.507,1.79,1.79,0,0,0,1.309-.517l.814.759A3.187,3.187,0,0,1,412.167,306.628Zm-1.563-3.322h2.872a1.509,1.509,0,0,0-1.441-1.375A1.481,1.481,0,0,0,410.6,303.306Z"/>
      <path class="b40fc3a1-8e60-4948-aff5-92ff014b77df" d="M416.005,305.044a3.176,3.176,0,0,0,1.771.627c.66,0,1.111-.3,1.111-.736,0-.342-.23-.529-.759-.628l-.979-.165c-1.066-.2-1.6-.693-1.6-1.518,0-1.034.847-1.705,2.134-1.705a3.888,3.888,0,0,1,2.168.659l-.583.815a3.008,3.008,0,0,0-1.661-.529c-.572,0-.946.242-.946.65,0,.352.2.506.781.605l.968.176c1.1.209,1.627.715,1.627,1.54a2.018,2.018,0,0,1-2.244,1.793,3.7,3.7,0,0,1-2.376-.748Z"/>
      <path class="b40fc3a1-8e60-4948-aff5-92ff014b77df" d="M421.868,302h-1.112v-.99h1.112v-1.519l1.243-.263v1.782h1.54V302h-1.54v2.794c0,.539.209.748.77.748a2.283,2.283,0,0,0,.748-.132v1.045a3.872,3.872,0,0,1-1.067.154c-1.111,0-1.694-.528-1.694-1.54Z"/>
      <path class="b40fc3a1-8e60-4948-aff5-92ff014b77df" d="M425.585,299.125a.776.776,0,0,1,1.551,0,.776.776,0,0,1-1.551,0Zm1.4,7.394H425.74v-5.512h1.243Z"/>
      <path class="b40fc3a1-8e60-4948-aff5-92ff014b77df" d="M428.512,301.007h1.243v.9a2,2,0,0,1,1.749-.989,1.855,1.855,0,0,1,1.9,1.969v3.631h-1.243V303.24a1.187,1.187,0,0,0-1.21-1.32,1.411,1.411,0,0,0-1.2.66v3.939h-1.243Z"/>
      <path class="b40fc3a1-8e60-4948-aff5-92ff014b77df" d="M434.638,304.935c0-.991.8-1.619,2.1-1.619a3.41,3.41,0,0,1,1.485.342v-.605c0-.726-.419-1.1-1.266-1.1a3.82,3.82,0,0,0-1.606.429l-.439-.9a5.3,5.3,0,0,1,2.288-.56c1.429,0,2.255.726,2.255,2v3.6h-1.232v-.562a2.3,2.3,0,0,1-1.64.649A1.737,1.737,0,0,1,434.638,304.935Zm2.288.8a1.968,1.968,0,0,0,1.3-.451v-.9a2.855,2.855,0,0,0-1.276-.264c-.7,0-1.145.308-1.145.792C435.8,305.418,436.245,305.737,436.926,305.737Z"/>
      <path class="b40fc3a1-8e60-4948-aff5-92ff014b77df" d="M441.645,302h-1.111v-.99h1.111v-1.519l1.243-.263v1.782h1.54V302h-1.54v2.794c0,.539.209.748.771.748a2.283,2.283,0,0,0,.748-.132v1.045a3.884,3.884,0,0,1-1.068.154c-1.111,0-1.694-.528-1.694-1.54Z"/>
      <path class="b40fc3a1-8e60-4948-aff5-92ff014b77df" d="M445.364,299.125a.776.776,0,0,1,1.551,0,.776.776,0,0,1-1.551,0Zm1.4,7.394h-1.243v-5.512h1.243Z"/>
      <path class="b40fc3a1-8e60-4948-aff5-92ff014b77df" d="M450.808,300.919a2.856,2.856,0,1,1-2.772,2.849A2.751,2.751,0,0,1,450.808,300.919Zm1.541,2.86a1.558,1.558,0,1,0-3.081,0,1.556,1.556,0,1,0,3.081,0Z"/>
      <path class="b40fc3a1-8e60-4948-aff5-92ff014b77df" d="M454.868,301.007h1.243v.9a2,2,0,0,1,1.749-.989,1.854,1.854,0,0,1,1.9,1.969v3.631H458.52V303.24a1.187,1.187,0,0,0-1.21-1.32,1.411,1.411,0,0,0-1.2.66v3.939h-1.243Z"/>
    </g>
    <g>
      <g>
        <polyline class="bd737ae2-502f-4ea0-ad11-f24601d8e0b6" points="318.585 354.716 318.585 356.216 317.085 356.216"/>
        <line class="a0068f99-a98f-4a95-9ab8-9e55aa1150a5" x1="314.156" y1="356.216" x2="298.049" y2="356.216"/>
        <polyline class="bd737ae2-502f-4ea0-ad11-f24601d8e0b6" points="296.585 356.216 295.085 356.216 295.085 354.716"/>
        <line class="bab58652-448f-49ec-8599-b0bb9b2b60ab" x1="295.085" y1="351.49" x2="295.085" y2="327.297"/>
        <polyline class="bd737ae2-502f-4ea0-ad11-f24601d8e0b6" points="295.085 325.684 295.085 324.184 296.585 324.184"/>
        <line class="a0068f99-a98f-4a95-9ab8-9e55aa1150a5" x1="299.514" y1="324.184" x2="315.621" y2="324.184"/>
        <polyline class="bd737ae2-502f-4ea0-ad11-f24601d8e0b6" points="317.085 324.184 318.585 324.184 318.585 325.684"/>
        <line class="bab58652-448f-49ec-8599-b0bb9b2b60ab" x1="318.585" y1="328.91" x2="318.585" y2="353.103"/>
      </g>
      <text class="bb0887c9-64e9-4e19-893a-5b9aa2472b2a" transform="translate(303.029 342.97)">N</text>
    </g>
    <g>
      <text class="f297cb86-9eef-4f65-a3b1-bef72dcaf71e" transform="translate(378.117 370.268)">Message<tspan x="16.124" y="10">2</tspan></text>
      <g>
        <polygon class="f389151c-099d-4912-8b42-5770fd565bf3" points="408.555 356.216 385.055 356.216 385.055 330.008 390.93 324.184 408.555 324.184 408.555 356.216"/>
        <polygon class="aaecb16d-4ebf-4379-8e9b-c5715be626ed" points="390.93 330.008 385.055 330.008 390.93 324.184 390.93 330.008"/>
        <line class="aaecb16d-4ebf-4379-8e9b-c5715be626ed" x1="389.461" y1="334.376" x2="396.805" y2="334.376"/>
        <line class="aaecb16d-4ebf-4379-8e9b-c5715be626ed" x1="389.461" y1="338.744" x2="404.149" y2="338.744"/>
        <line class="aaecb16d-4ebf-4379-8e9b-c5715be626ed" x1="389.461" y1="343.112" x2="404.149" y2="343.112"/>
        <line class="aaecb16d-4ebf-4379-8e9b-c5715be626ed" x1="389.461" y1="347.48" x2="404.149" y2="347.48"/>
      </g>
    </g>
    <g>
      <g>
        <polyline class="bd737ae2-502f-4ea0-ad11-f24601d8e0b6" points="453.525 354.716 453.525 356.216 452.025 356.216"/>
        <line class="a0068f99-a98f-4a95-9ab8-9e55aa1150a5" x1="449.096" y1="356.216" x2="432.989" y2="356.216"/>
        <polyline class="bd737ae2-502f-4ea0-ad11-f24601d8e0b6" points="431.525 356.216 430.025 356.216 430.025 354.716"/>
        <line class="bab58652-448f-49ec-8599-b0bb9b2b60ab" x1="430.025" y1="351.49" x2="430.025" y2="327.297"/>
        <polyline class="bd737ae2-502f-4ea0-ad11-f24601d8e0b6" points="430.025 325.684 430.025 324.184 431.525 324.184"/>
        <line class="a0068f99-a98f-4a95-9ab8-9e55aa1150a5" x1="434.454" y1="324.184" x2="450.561" y2="324.184"/>
        <polyline class="bd737ae2-502f-4ea0-ad11-f24601d8e0b6" points="452.025 324.184 453.525 324.184 453.525 325.684"/>
        <line class="bab58652-448f-49ec-8599-b0bb9b2b60ab" x1="453.525" y1="328.91" x2="453.525" y2="353.103"/>
      </g>
      <text class="bb0887c9-64e9-4e19-893a-5b9aa2472b2a" transform="translate(440.065 342.97)">1</text>
    </g>
    <g>
      <text class="f297cb86-9eef-4f65-a3b1-bef72dcaf71e" transform="translate(333.117 370.268)">Message<tspan x="15.957" y="10">3</tspan></text>
      <g>
        <polygon class="f389151c-099d-4912-8b42-5770fd565bf3" points="363.555 356.216 340.055 356.216 340.055 330.008 345.93 324.184 363.555 324.184 363.555 356.216"/>
        <polygon class="aaecb16d-4ebf-4379-8e9b-c5715be626ed" points="345.93 330.008 340.055 330.008 345.93 324.184 345.93 330.008"/>
        <line class="aaecb16d-4ebf-4379-8e9b-c5715be626ed" x1="344.461" y1="334.376" x2="351.805" y2="334.376"/>
        <line class="aaecb16d-4ebf-4379-8e9b-c5715be626ed" x1="344.461" y1="338.744" x2="359.149" y2="338.744"/>
        <line class="aaecb16d-4ebf-4379-8e9b-c5715be626ed" x1="344.461" y1="343.112" x2="359.149" y2="343.112"/>
        <line class="aaecb16d-4ebf-4379-8e9b-c5715be626ed" x1="344.461" y1="347.48" x2="359.149" y2="347.48"/>
      </g>
    </g>
  </g>
  <g>
    <rect class="a65cd1f4-6816-472c-a6da-31d32cbdd204" x="19.305" y="267.315" width="215.5" height="125"/>
    <g>
      <path class="b40fc3a1-8e60-4948-aff5-92ff014b77df" d="M43.52,287.318a4.316,4.316,0,0,1-1.187,3l.731.876L41.588,292.2l-.732-.876a3.983,3.983,0,0,1-.8.24,4.486,4.486,0,0,1-.87.084,4.365,4.365,0,0,1-1.71-.336,4.207,4.207,0,0,1-2.3-2.3,4.461,4.461,0,0,1,0-3.4,4.2,4.2,0,0,1,2.3-2.3,4.383,4.383,0,0,1,1.71-.336,4.326,4.326,0,0,1,3.078,1.254,4.284,4.284,0,0,1,.918,1.38A4.334,4.334,0,0,1,43.52,287.318Zm-3.191.588.683.828a2.611,2.611,0,0,0,.277-.654,2.934,2.934,0,0,0,.095-.762,2.859,2.859,0,0,0-.168-.99,2.438,2.438,0,0,0-.462-.792,2.16,2.16,0,0,0-.7-.521,2.085,2.085,0,0,0-1.752,0,2.16,2.16,0,0,0-.7.521,2.456,2.456,0,0,0-.462.792,3,3,0,0,0,0,1.981,2.446,2.446,0,0,0,.462.792,2.174,2.174,0,0,0,.7.521,2.032,2.032,0,0,0,.876.192,1.718,1.718,0,0,0,.2-.011l.2-.025-.72-.864Z"/>
      <path class="b40fc3a1-8e60-4948-aff5-92ff014b77df" d="M46.712,285.326v3.612a1.209,1.209,0,0,0,.282.834.953.953,0,0,0,.75.318,1.281,1.281,0,0,0,.57-.126,1.318,1.318,0,0,0,.462-.39v-4.248H50.72v6.193H48.776v-1.008a2.535,2.535,0,0,1-.858.821,2.179,2.179,0,0,1-1.1.282,1.969,1.969,0,0,1-1.476-.593,2.094,2.094,0,0,1-.576-1.519v-4.176Z"/>
      <path class="b40fc3a1-8e60-4948-aff5-92ff014b77df" d="M57.824,290.643a4.052,4.052,0,0,1-1.212.761,3.855,3.855,0,0,1-1.392.235,3.307,3.307,0,0,1-1.278-.246,3.265,3.265,0,0,1-1.038-.679,3.113,3.113,0,0,1-.7-1.02,3.173,3.173,0,0,1-.251-1.259,3.342,3.342,0,0,1,.239-1.273,3.217,3.217,0,0,1,.654-1.019,2.967,2.967,0,0,1,.99-.679,3.13,3.13,0,0,1,1.236-.245,3.032,3.032,0,0,1,1.23.245,2.873,2.873,0,0,1,.96.679,3.1,3.1,0,0,1,.63,1.038,3.728,3.728,0,0,1,.229,1.325v.421H53.864a1.552,1.552,0,0,0,.528.84,1.42,1.42,0,0,0,.924.323,1.8,1.8,0,0,0,.7-.132,1.309,1.309,0,0,0,.523-.384Zm-2.76-3.913a1.086,1.086,0,0,0-.768.289,1.53,1.53,0,0,0-.432.8h2.46a1.486,1.486,0,0,0-.456-.8A1.18,1.18,0,0,0,55.064,286.73Z"/>
      <path class="b40fc3a1-8e60-4948-aff5-92ff014b77df" d="M61.232,285.326v3.612a1.213,1.213,0,0,0,.281.834.956.956,0,0,0,.75.318,1.278,1.278,0,0,0,.57-.126,1.31,1.31,0,0,0,.462-.39v-4.248H65.24v6.193H63.3v-1.008a2.541,2.541,0,0,1-.857.821,2.18,2.18,0,0,1-1.1.282,1.969,1.969,0,0,1-1.475-.593,2.094,2.094,0,0,1-.576-1.519v-4.176Z"/>
      <path class="b40fc3a1-8e60-4948-aff5-92ff014b77df" d="M72.343,290.643a4.027,4.027,0,0,1-1.212.761,3.853,3.853,0,0,1-1.391.235,3.315,3.315,0,0,1-1.279-.246,3.276,3.276,0,0,1-1.038-.679,3.11,3.11,0,0,1-.7-1.02,3.156,3.156,0,0,1-.252-1.259,3.342,3.342,0,0,1,.239-1.273,3.2,3.2,0,0,1,.655-1.019,2.957,2.957,0,0,1,.99-.679,3.129,3.129,0,0,1,1.235-.245,3.037,3.037,0,0,1,1.231.245,2.883,2.883,0,0,1,.96.679,3.135,3.135,0,0,1,.63,1.038,3.727,3.727,0,0,1,.228,1.325v.421H68.383a1.553,1.553,0,0,0,.529.84,1.417,1.417,0,0,0,.923.323,1.8,1.8,0,0,0,.7-.132,1.306,1.306,0,0,0,.522-.384Zm-2.76-3.913a1.086,1.086,0,0,0-.767.289,1.531,1.531,0,0,0-.433.8h2.46a1.479,1.479,0,0,0-.456-.8A1.176,1.176,0,0,0,69.583,286.73Z"/>
      <path class="b40fc3a1-8e60-4948-aff5-92ff014b77df" d="M39.013,304.923l.748.748a2.863,2.863,0,0,1-2.156.957,2.85,2.85,0,0,1,0-5.7,2.972,2.972,0,0,1,2.2.924l-.77.8a1.823,1.823,0,0,0-1.386-.649,1.768,1.768,0,0,0,.033,3.52A1.7,1.7,0,0,0,39.013,304.923Z"/>
      <path class="b40fc3a1-8e60-4948-aff5-92ff014b77df" d="M42.071,306.519H40.828v-7.867l1.243-.209Z"/>
      <path class="b40fc3a1-8e60-4948-aff5-92ff014b77df" d="M43.446,299.125a.776.776,0,0,1,1.551,0,.776.776,0,0,1-1.551,0Zm1.4,7.394H43.6v-5.512h1.243Z"/>
      <path class="b40fc3a1-8e60-4948-aff5-92ff014b77df" d="M48.923,306.628a2.8,2.8,0,0,1-2.8-2.86,2.714,2.714,0,0,1,2.684-2.849,2.645,2.645,0,0,1,2.608,2.838v.308H47.339a1.683,1.683,0,0,0,1.651,1.507,1.788,1.788,0,0,0,1.308-.517l.815.759A3.188,3.188,0,0,1,48.923,306.628Zm-1.561-3.322h2.871a1.509,1.509,0,0,0-1.441-1.375A1.479,1.479,0,0,0,47.362,303.306Z"/>
      <path class="b40fc3a1-8e60-4948-aff5-92ff014b77df" d="M52.674,301.007h1.243v.9a2,2,0,0,1,1.75-.989,1.854,1.854,0,0,1,1.9,1.969v3.631H56.327V303.24a1.187,1.187,0,0,0-1.21-1.32,1.412,1.412,0,0,0-1.2.66v3.939H52.674Z"/>
      <path class="b40fc3a1-8e60-4948-aff5-92ff014b77df" d="M59.758,302H58.647v-.99h1.111v-1.519L61,299.225v1.782h1.541V302H61v2.794c0,.539.209.748.771.748a2.283,2.283,0,0,0,.748-.132v1.045a3.872,3.872,0,0,1-1.067.154c-1.112,0-1.7-.528-1.7-1.54Z"/>
      <path class="b40fc3a1-8e60-4948-aff5-92ff014b77df" d="M65.831,306.519h-1.2v-6.448l-1.364.594V299.6l1.8-.782h.76Z"/>
      <path class="b40fc3a1-8e60-4948-aff5-92ff014b77df" d="M67.183,305.649l3.157-3.3a2.062,2.062,0,0,0,.748-1.453,1.254,1.254,0,0,0-1.408-1.132,2.77,2.77,0,0,0-1.991.946l-.683-.825a3.9,3.9,0,0,1,2.707-1.167c1.507,0,2.541.858,2.541,2.1a2.939,2.939,0,0,1-1.1,2.146l-2.464,2.541,3.707-.022v1.035H67.183Z"/>
      <path class="b40fc3a1-8e60-4948-aff5-92ff014b77df" d="M76.105,306.628a3.873,3.873,0,0,1-2.85-1.154l.814-.76a2.525,2.525,0,0,0,2.024.858c.99,0,1.673-.517,1.673-1.276a1.216,1.216,0,0,0-1.364-1.155h-.957v-1H76.3a1.117,1.117,0,0,0,1.222-1.156,1.328,1.328,0,0,0-1.463-1.22,2.383,2.383,0,0,0-1.915.913l-.813-.76a3.733,3.733,0,0,1,2.772-1.221c1.528,0,2.629.913,2.629,2.157a1.851,1.851,0,0,1-1.5,1.759,1.909,1.909,0,0,1,1.738,1.761C78.976,305.683,77.777,306.628,76.105,306.628Z"/>
      <path class="b40fc3a1-8e60-4948-aff5-92ff014b77df" d="M81.681,305.814a.771.771,0,1,1-.77-.8A.786.786,0,0,1,81.681,305.814Z"/>
      <path class="b40fc3a1-8e60-4948-aff5-92ff014b77df" d="M83.034,301.007h1.243v.88a1.879,1.879,0,0,1,1.639-.968,1.732,1.732,0,0,1,1.617,1.066,2.032,2.032,0,0,1,1.826-1.066,1.826,1.826,0,0,1,1.805,2v3.6H89.92v-3.334a1.115,1.115,0,0,0-1.111-1.265,1.314,1.314,0,0,0-1.111.648c.01.121.022.232.022.353v3.6H86.477v-3.334a1.116,1.116,0,0,0-1.111-1.265,1.278,1.278,0,0,0-1.089.627v3.972H83.034Z"/>
      <path class="b40fc3a1-8e60-4948-aff5-92ff014b77df" d="M94.079,306.552,92,301.007h1.386l1.4,4.092,1.54-4.092h1.352l-2.618,6.414a1.862,1.862,0,0,1-1.958,1.452,2.634,2.634,0,0,1-.627-.077v-1.067a4.414,4.414,0,0,0,.484.043.878.878,0,0,0,.891-.637Z"/>
      <path class="b40fc3a1-8e60-4948-aff5-92ff014b77df" d="M99.918,305.814a.771.771,0,1,1-1.54,0,.771.771,0,1,1,1.54,0Z"/>
      <path class="b40fc3a1-8e60-4948-aff5-92ff014b77df" d="M101.272,301.007h1.243v.88a1.879,1.879,0,0,1,1.639-.968,1.732,1.732,0,0,1,1.617,1.066,2.032,2.032,0,0,1,1.826-1.066,1.826,1.826,0,0,1,1.805,2v3.6h-1.243v-3.334a1.115,1.115,0,0,0-1.112-1.265,1.314,1.314,0,0,0-1.111.648c.011.121.022.232.022.353v3.6h-1.243v-3.334a1.115,1.115,0,0,0-1.111-1.265,1.279,1.279,0,0,0-1.089.627v3.972h-1.243Z"/>
      <path class="b40fc3a1-8e60-4948-aff5-92ff014b77df" d="M112.118,304.285a1.186,1.186,0,0,0,1.21,1.32,1.391,1.391,0,0,0,1.21-.682v-3.916h1.243v5.512h-1.243v-.914a2.015,2.015,0,0,1-1.76,1,1.849,1.849,0,0,1-1.9-1.969v-3.63h1.243Z"/>
      <path class="b40fc3a1-8e60-4948-aff5-92ff014b77df" d="M118.552,306.519h-1.243v-7.867l1.243-.209Z"/>
      <path class="b40fc3a1-8e60-4948-aff5-92ff014b77df" d="M120.763,302h-1.111v-.99h1.111v-1.519l1.243-.263v1.782h1.54V302h-1.54v2.794c0,.539.209.748.771.748a2.283,2.283,0,0,0,.748-.132v1.045a3.872,3.872,0,0,1-1.067.154c-1.112,0-1.695-.528-1.695-1.54Z"/>
      <path class="b40fc3a1-8e60-4948-aff5-92ff014b77df" d="M124.481,299.125a.776.776,0,0,1,1.551,0,.776.776,0,0,1-1.551,0Zm1.4,7.394h-1.243v-5.512h1.243Z"/>
      <path class="b40fc3a1-8e60-4948-aff5-92ff014b77df" d="M131.346,304.923l.748.748a2.863,2.863,0,0,1-2.156.957,2.85,2.85,0,0,1,0-5.7,2.972,2.972,0,0,1,2.2.924l-.77.8a1.821,1.821,0,0,0-1.386-.649,1.768,1.768,0,0,0,.033,3.52A1.7,1.7,0,0,0,131.346,304.923Z"/>
      <path class="b40fc3a1-8e60-4948-aff5-92ff014b77df" d="M132.885,304.935c0-.991.8-1.619,2.1-1.619a3.41,3.41,0,0,1,1.485.342v-.605c0-.726-.419-1.1-1.265-1.1a3.82,3.82,0,0,0-1.607.429l-.439-.9a5.3,5.3,0,0,1,2.288-.56c1.429,0,2.255.726,2.255,2v3.6h-1.232v-.562a2.3,2.3,0,0,1-1.639.649A1.738,1.738,0,0,1,132.885,304.935Zm2.288.8a1.968,1.968,0,0,0,1.3-.451v-.9a2.855,2.855,0,0,0-1.276-.264c-.7,0-1.145.308-1.145.792C134.051,305.418,134.492,305.737,135.173,305.737Z"/>
      <path class="b40fc3a1-8e60-4948-aff5-92ff014b77df" d="M139.3,305.044a3.176,3.176,0,0,0,1.771.627c.66,0,1.111-.3,1.111-.736,0-.342-.23-.529-.759-.628l-.979-.165c-1.067-.2-1.595-.693-1.595-1.518,0-1.034.847-1.705,2.134-1.705a3.888,3.888,0,0,1,2.168.659l-.583.815a3.008,3.008,0,0,0-1.661-.529c-.572,0-.947.242-.947.65,0,.352.2.506.782.605l.968.176c1.1.209,1.627.715,1.627,1.54a2.018,2.018,0,0,1-2.244,1.793,3.7,3.7,0,0,1-2.376-.748Z"/>
      <path class="b40fc3a1-8e60-4948-aff5-92ff014b77df" d="M145.161,302h-1.112v-.99h1.112v-1.519l1.243-.263v1.782h1.54V302H146.4v2.794c0,.539.209.748.77.748a2.283,2.283,0,0,0,.748-.132v1.045a3.872,3.872,0,0,1-1.067.154c-1.111,0-1.694-.528-1.694-1.54Z"/>
      <path class="b40fc3a1-8e60-4948-aff5-92ff014b77df" d="M150.375,305.814a.771.771,0,1,1-.771-.8A.787.787,0,0,1,150.375,305.814Z"/>
      <path class="b40fc3a1-8e60-4948-aff5-92ff014b77df" d="M155.667,305.781a2.123,2.123,0,0,1-1.695.792,2.82,2.82,0,0,1,.077-5.61,2.1,2.1,0,0,1,1.606.725v-3.036l1.243-.209v8.076h-1.231Zm-1.321-.253a1.648,1.648,0,0,0,1.309-.605V302.6a1.71,1.71,0,0,0-1.309-.594,1.764,1.764,0,0,0,0,3.52Z"/>
      <path class="b40fc3a1-8e60-4948-aff5-92ff014b77df" d="M160.99,306.628a2.8,2.8,0,0,1-2.806-2.86,2.714,2.714,0,0,1,2.685-2.849,2.645,2.645,0,0,1,2.607,2.838v.308h-4.07a1.682,1.682,0,0,0,1.65,1.507,1.79,1.79,0,0,0,1.309-.517l.814.759A3.187,3.187,0,0,1,160.99,306.628Zm-1.562-3.322H162.3a1.509,1.509,0,0,0-1.441-1.375A1.48,1.48,0,0,0,159.428,303.306Z"/>
      <path class="b40fc3a1-8e60-4948-aff5-92ff014b77df" d="M164.829,305.044a3.173,3.173,0,0,0,1.77.627c.66,0,1.111-.3,1.111-.736,0-.342-.23-.529-.758-.628l-.98-.165c-1.066-.2-1.595-.693-1.595-1.518,0-1.034.847-1.705,2.134-1.705a3.886,3.886,0,0,1,2.168.659l-.583.815a3.006,3.006,0,0,0-1.662-.529c-.571,0-.945.242-.945.65,0,.352.2.506.781.605l.968.176c1.1.209,1.628.715,1.628,1.54a2.019,2.019,0,0,1-2.244,1.793,3.7,3.7,0,0,1-2.376-.748Z"/>
      <path class="b40fc3a1-8e60-4948-aff5-92ff014b77df" d="M170.691,302H169.58v-.99h1.111v-1.519l1.243-.263v1.782h1.54V302h-1.54v2.794c0,.539.209.748.771.748a2.283,2.283,0,0,0,.748-.132v1.045a3.884,3.884,0,0,1-1.068.154c-1.111,0-1.694-.528-1.694-1.54Z"/>
      <path class="b40fc3a1-8e60-4948-aff5-92ff014b77df" d="M174.409,299.125a.775.775,0,0,1,1.55,0,.775.775,0,0,1-1.55,0Zm1.4,7.394h-1.243v-5.512h1.243Z"/>
      <path class="b40fc3a1-8e60-4948-aff5-92ff014b77df" d="M177.335,301.007h1.244v.9a2,2,0,0,1,1.749-.989,1.854,1.854,0,0,1,1.9,1.969v3.631h-1.243V303.24a1.187,1.187,0,0,0-1.21-1.32,1.409,1.409,0,0,0-1.2.66v3.939h-1.244Z"/>
      <path class="b40fc3a1-8e60-4948-aff5-92ff014b77df" d="M183.461,304.935c0-.991.8-1.619,2.1-1.619a3.407,3.407,0,0,1,1.485.342v-.605c0-.726-.419-1.1-1.265-1.1a3.82,3.82,0,0,0-1.607.429l-.439-.9a5.3,5.3,0,0,1,2.288-.56c1.43,0,2.255.726,2.255,2v3.6h-1.232v-.562a2.3,2.3,0,0,1-1.639.649A1.738,1.738,0,0,1,183.461,304.935Zm2.289.8a1.965,1.965,0,0,0,1.3-.451v-.9a2.855,2.855,0,0,0-1.276-.264c-.7,0-1.145.308-1.145.792C184.627,305.418,185.068,305.737,185.75,305.737Z"/>
      <path class="b40fc3a1-8e60-4948-aff5-92ff014b77df" d="M190.468,302h-1.111v-.99h1.111v-1.519l1.243-.263v1.782h1.54V302h-1.54v2.794c0,.539.209.748.771.748a2.283,2.283,0,0,0,.748-.132v1.045a3.872,3.872,0,0,1-1.067.154c-1.112,0-1.7-.528-1.7-1.54Z"/>
      <path class="b40fc3a1-8e60-4948-aff5-92ff014b77df" d="M194.187,299.125a.776.776,0,0,1,1.551,0,.776.776,0,0,1-1.551,0Zm1.4,7.394h-1.243v-5.512h1.243Z"/>
      <path class="b40fc3a1-8e60-4948-aff5-92ff014b77df" d="M199.631,300.919a2.856,2.856,0,1,1-2.772,2.849A2.751,2.751,0,0,1,199.631,300.919Zm1.541,2.86a1.558,1.558,0,1,0-3.081,0,1.556,1.556,0,1,0,3.081,0Z"/>
      <path class="b40fc3a1-8e60-4948-aff5-92ff014b77df" d="M203.691,301.007h1.243v.9a2,2,0,0,1,1.749-.989,1.854,1.854,0,0,1,1.9,1.969v3.631h-1.243V303.24a1.187,1.187,0,0,0-1.21-1.32,1.411,1.411,0,0,0-1.2.66v3.939h-1.243Z"/>
    </g>
    <g>
      <g>
        <polyline class="bd737ae2-502f-4ea0-ad11-f24601d8e0b6" points="71.335 354.716 71.335 356.216 69.835 356.216"/>
        <line class="a0068f99-a98f-4a95-9ab8-9e55aa1150a5" x1="66.906" y1="356.216" x2="50.799" y2="356.216"/>
        <polyline class="bd737ae2-502f-4ea0-ad11-f24601d8e0b6" points="49.335 356.216 47.835 356.216 47.835 354.716"/>
        <line class="bab58652-448f-49ec-8599-b0bb9b2b60ab" x1="47.835" y1="351.49" x2="47.835" y2="327.297"/>
        <polyline class="bd737ae2-502f-4ea0-ad11-f24601d8e0b6" points="47.835 325.684 47.835 324.184 49.335 324.184"/>
        <line class="a0068f99-a98f-4a95-9ab8-9e55aa1150a5" x1="52.264" y1="324.184" x2="68.371" y2="324.184"/>
        <polyline class="bd737ae2-502f-4ea0-ad11-f24601d8e0b6" points="69.835 324.184 71.335 324.184 71.335 325.684"/>
        <line class="bab58652-448f-49ec-8599-b0bb9b2b60ab" x1="71.335" y1="328.91" x2="71.335" y2="353.103"/>
      </g>
      <text class="bb0887c9-64e9-4e19-893a-5b9aa2472b2a" transform="translate(55.779 342.97)">N</text>
    </g>
    <g>
      <text class="f297cb86-9eef-4f65-a3b1-bef72dcaf71e" transform="translate(130.867 370.268)">Message<tspan x="16.124" y="10">2</tspan></text>
      <g>
        <polygon class="f389151c-099d-4912-8b42-5770fd565bf3" points="161.305 356.216 137.805 356.216 137.805 330.008 143.68 324.184 161.305 324.184 161.305 356.216"/>
        <polygon class="aaecb16d-4ebf-4379-8e9b-c5715be626ed" points="143.68 330.008 137.805 330.008 143.68 324.184 143.68 330.008"/>
        <line class="aaecb16d-4ebf-4379-8e9b-c5715be626ed" x1="142.211" y1="334.376" x2="149.555" y2="334.376"/>
        <line class="aaecb16d-4ebf-4379-8e9b-c5715be626ed" x1="142.211" y1="338.744" x2="156.899" y2="338.744"/>
        <line class="aaecb16d-4ebf-4379-8e9b-c5715be626ed" x1="142.211" y1="343.112" x2="156.899" y2="343.112"/>
        <line class="aaecb16d-4ebf-4379-8e9b-c5715be626ed" x1="142.211" y1="347.48" x2="156.899" y2="347.48"/>
      </g>
    </g>
    <g>
      <g>
        <polyline class="bd737ae2-502f-4ea0-ad11-f24601d8e0b6" points="206.275 354.716 206.275 356.216 204.775 356.216"/>
        <line class="a0068f99-a98f-4a95-9ab8-9e55aa1150a5" x1="201.846" y1="356.216" x2="185.739" y2="356.216"/>
        <polyline class="bd737ae2-502f-4ea0-ad11-f24601d8e0b6" points="184.275 356.216 182.775 356.216 182.775 354.716"/>
        <line class="bab58652-448f-49ec-8599-b0bb9b2b60ab" x1="182.775" y1="351.49" x2="182.775" y2="327.297"/>
        <polyline class="bd737ae2-502f-4ea0-ad11-f24601d8e0b6" points="182.775 325.684 182.775 324.184 184.275 324.184"/>
        <line class="a0068f99-a98f-4a95-9ab8-9e55aa1150a5" x1="187.204" y1="324.184" x2="203.311" y2="324.184"/>
        <polyline class="bd737ae2-502f-4ea0-ad11-f24601d8e0b6" points="204.775 324.184 206.275 324.184 206.275 325.684"/>
        <line class="bab58652-448f-49ec-8599-b0bb9b2b60ab" x1="206.275" y1="328.91" x2="206.275" y2="353.103"/>
      </g>
      <text class="bb0887c9-64e9-4e19-893a-5b9aa2472b2a" transform="translate(192.815 342.97)">1</text>
    </g>
    <g>
      <text class="f297cb86-9eef-4f65-a3b1-bef72dcaf71e" transform="translate(85.867 370.268)">Message<tspan x="15.957" y="10">3</tspan></text>
      <g>
        <polygon class="f389151c-099d-4912-8b42-5770fd565bf3" points="116.305 356.216 92.805 356.216 92.805 330.008 98.68 324.184 116.305 324.184 116.305 356.216"/>
        <polygon class="aaecb16d-4ebf-4379-8e9b-c5715be626ed" points="98.68 330.008 92.805 330.008 98.68 324.184 98.68 330.008"/>
        <line class="aaecb16d-4ebf-4379-8e9b-c5715be626ed" x1="97.211" y1="334.376" x2="104.555" y2="334.376"/>
        <line class="aaecb16d-4ebf-4379-8e9b-c5715be626ed" x1="97.211" y1="338.744" x2="111.899" y2="338.744"/>
        <line class="aaecb16d-4ebf-4379-8e9b-c5715be626ed" x1="97.211" y1="343.112" x2="111.899" y2="343.112"/>
        <line class="aaecb16d-4ebf-4379-8e9b-c5715be626ed" x1="97.211" y1="347.48" x2="111.899" y2="347.48"/>
      </g>
    </g>
  </g>
  <g>
    <g>
      <line class="b90ff29f-9f99-492b-9097-b50f32a1d4bb" x1="127.055" y1="392.033" x2="127.055" y2="470.999"/>
      <polygon class="b40fc3a1-8e60-4948-aff5-92ff014b77df" points="122.069 469.54 127.055 478.175 132.041 469.54 122.069 469.54"/>
    </g>
    <rect class="a65cd1f4-6816-472c-a6da-31d32cbdd204" x="91.468" y="428.357" width="71.174" height="30.699"/>
    <g>
      <text class="f297cb86-9eef-4f65-a3b1-bef72dcaf71e" transform="translate(105.815 452.289)">Message 1</text>
      <g>
        <polygon class="f389151c-099d-4912-8b42-5770fd565bf3" points="138.805 437.236 115.305 437.236 115.305 411.028 121.18 405.204 138.805 405.204 138.805 437.236"/>
        <polygon class="aaecb16d-4ebf-4379-8e9b-c5715be626ed" points="121.18 411.028 115.305 411.028 121.18 405.204 121.18 411.028"/>
        <line class="aaecb16d-4ebf-4379-8e9b-c5715be626ed" x1="119.712" y1="415.396" x2="127.055" y2="415.396"/>
        <line class="aaecb16d-4ebf-4379-8e9b-c5715be626ed" x1="119.712" y1="419.764" x2="134.399" y2="419.764"/>
        <line class="aaecb16d-4ebf-4379-8e9b-c5715be626ed" x1="119.712" y1="424.132" x2="134.399" y2="424.132"/>
        <line class="aaecb16d-4ebf-4379-8e9b-c5715be626ed" x1="119.712" y1="428.5" x2="134.399" y2="428.5"/>
      </g>
    </g>
  </g>
  <g>
    <g>
      <line class="b90ff29f-9f99-492b-9097-b50f32a1d4bb" x1="374.305" y1="392.033" x2="374.305" y2="470.999"/>
      <polygon class="b40fc3a1-8e60-4948-aff5-92ff014b77df" points="369.319 469.54 374.305 478.175 379.291 469.54 369.319 469.54"/>
    </g>
    <rect class="a65cd1f4-6816-472c-a6da-31d32cbdd204" x="338.718" y="428.357" width="71.174" height="30.699"/>
    <g>
      <text class="f297cb86-9eef-4f65-a3b1-bef72dcaf71e" transform="translate(353.065 452.289)">Message 1</text>
      <g>
        <polygon class="f389151c-099d-4912-8b42-5770fd565bf3" points="386.055 437.236 362.555 437.236 362.555 411.028 368.43 405.204 386.055 405.204 386.055 437.236"/>
        <polygon class="aaecb16d-4ebf-4379-8e9b-c5715be626ed" points="368.43 411.028 362.555 411.028 368.43 405.204 368.43 411.028"/>
        <line class="aaecb16d-4ebf-4379-8e9b-c5715be626ed" x1="366.962" y1="415.396" x2="374.305" y2="415.396"/>
        <line class="aaecb16d-4ebf-4379-8e9b-c5715be626ed" x1="366.962" y1="419.764" x2="381.649" y2="419.764"/>
        <line class="aaecb16d-4ebf-4379-8e9b-c5715be626ed" x1="366.962" y1="424.132" x2="381.649" y2="424.132"/>
        <line class="aaecb16d-4ebf-4379-8e9b-c5715be626ed" x1="366.962" y1="428.5" x2="381.649" y2="428.5"/>
      </g>
    </g>
  </g>
  <g>
    <text class="f245e50e-e43e-4303-92a7-4abd251e45a7" transform="translate(690.661 535.693)">120_AMQ_1020</text>
    <rect class="b23127cd-37b5-46b6-8fd2-1047dc5c2cae" y="512.675" width="760" height="40"/>
  </g>
</svg>
