<svg id="aae78b09-8c65-4043-9dc1-be99d1732df4" data-name="Layer 1" xmlns="http://www.w3.org/2000/svg" width="760" height="583.758" viewBox="0 0 760 583.758">
  <defs>
    <style>
      .ae01e960-619c-444e-aa08-0a0e67ba798d {
        fill: #e8e8e8;
      }

      .a207dfee-bd57-4677-a60a-b4e83b049a82, .a367243e-08cd-476a-849e-d6c1e70d9721, .a531ff33-e642-4da6-868c-7b2c9bc5922d, .a7e799e6-30dc-48fc-ad87-85ebccf48af7, .aa8ee59e-397f-46dd-a55b-07353aa203e5, .bd12f9b0-a0ce-46de-b4fe-3d67bfece0cc, .eaa1532d-0922-4d82-9249-dcdfd5771c2c, .eea62e53-36e1-413a-a74b-822376d6bd17, .f9ba8360-c5be-43c8-b933-e5d84e1d791d, .ffac1fac-8e66-4f41-814d-dc9b67baa06d, .ffd9b79f-3049-4eda-baae-5bc359f113ee {
        fill: none;
      }

      .eaa1532d-0922-4d82-9249-dcdfd5771c2c {
        stroke: #d5d5d5;
        stroke-width: 1.5px;
      }

      .bd12f9b0-a0ce-46de-b4fe-3d67bfece0cc, .eaa1532d-0922-4d82-9249-dcdfd5771c2c {
        stroke-miterlimit: 10;
      }

      .b6f41fe1-c836-4c10-9ced-5c6a8ea9c4c6, .b8aadce8-90ad-4a0a-8b6c-b2993ea82acd {
        font-size: 12px;
      }

      .a1148186-693e-41b6-bc03-3ff83cddd6cc, .b8aadce8-90ad-4a0a-8b6c-b2993ea82acd {
        fill: #151515;
      }

      .b8aadce8-90ad-4a0a-8b6c-b2993ea82acd {
        font-family: RedHatText-Bold, Red Hat Text;
        font-weight: 700;
      }

      .b6f41fe1-c836-4c10-9ced-5c6a8ea9c4c6, .ee7df9ee-927f-4666-b087-52305d684772 {
        fill: #fff;
      }

      .b93598dc-a467-499a-80d1-35127a9c9d8a {
        fill: #06c;
      }

      .b6f41fe1-c836-4c10-9ced-5c6a8ea9c4c6 {
        font-family: RedHatText-MediumItalic, Red Hat Text;
        font-style: italic;
      }

      .a1148186-693e-41b6-bc03-3ff83cddd6cc, .b6f41fe1-c836-4c10-9ced-5c6a8ea9c4c6 {
        font-weight: 500;
      }

      .a367243e-08cd-476a-849e-d6c1e70d9721, .a531ff33-e642-4da6-868c-7b2c9bc5922d, .a7e799e6-30dc-48fc-ad87-85ebccf48af7, .aa8ee59e-397f-46dd-a55b-07353aa203e5, .eea62e53-36e1-413a-a74b-822376d6bd17, .f9ba8360-c5be-43c8-b933-e5d84e1d791d, .ffac1fac-8e66-4f41-814d-dc9b67baa06d, .ffd9b79f-3049-4eda-baae-5bc359f113ee {
        stroke: #06c;
        stroke-linecap: round;
        stroke-linejoin: round;
      }

      .eea62e53-36e1-413a-a74b-822376d6bd17 {
        stroke-dasharray: 2.998 2.998;
      }

      .a367243e-08cd-476a-849e-d6c1e70d9721 {
        stroke-dasharray: 2.943 2.943;
      }

      .aa8ee59e-397f-46dd-a55b-07353aa203e5 {
        stroke-dasharray: 2.965 2.965;
      }

      .f9ba8360-c5be-43c8-b933-e5d84e1d791d {
        stroke-dasharray: 3.275 3.275;
      }

      .a531ff33-e642-4da6-868c-7b2c9bc5922d {
        stroke-dasharray: 2.965 2.965;
      }

      .ffd9b79f-3049-4eda-baae-5bc359f113ee {
        stroke-dasharray: 2.965 2.965;
      }

      .a7e799e6-30dc-48fc-ad87-85ebccf48af7 {
        stroke-dasharray: 3.427 3.427;
      }

      .a1148186-693e-41b6-bc03-3ff83cddd6cc, .b7fc3581-9610-4e2e-9508-980550dd7023 {
        font-size: 10px;
      }

      .a1148186-693e-41b6-bc03-3ff83cddd6cc {
        font-family: RedHatText-Medium, Red Hat Text;
      }

      .bad19507-ceb5-423f-8eac-61dba3364e31 {
        font-family: LiberationMono, Liberation Mono;
        font-weight: 400;
      }

      .bd12f9b0-a0ce-46de-b4fe-3d67bfece0cc {
        stroke: #e8e8e8;
      }

      .b7fc3581-9610-4e2e-9508-980550dd7023 {
        fill: #f3f3f3;
        font-family: RedHatText-Regular, Red Hat Text;
      }
    </style>
  </defs>
  <rect class="ae01e960-619c-444e-aa08-0a0e67ba798d" x="314.75" y="62" width="130.5" height="137"/>
  <polyline class="eaa1532d-0922-4d82-9249-dcdfd5771c2c" points="339.75 184.449 435.25 184.449 435.25 109.449"/>
  <polyline class="eaa1532d-0922-4d82-9249-dcdfd5771c2c" points="334.75 179.449 430.25 179.449 430.25 104.449"/>
  <text class="b8aadce8-90ad-4a0a-8b6c-b2993ea82acd" transform="translate(329.75 87.104)">Broker A</text>
  <rect class="ee7df9ee-927f-4666-b087-52305d684772" x="329.75" y="99.449" width="95.5" height="75"/>
  <rect class="b93598dc-a467-499a-80d1-35127a9c9d8a" x="340" y="129.449" width="75" height="35" transform="translate(755 293.898) rotate(-180)"/>
  <text class="b6f41fe1-c836-4c10-9ced-5c6a8ea9c4c6" transform="translate(351.934 150.234)">multicast</text>
  <text class="b8aadce8-90ad-4a0a-8b6c-b2993ea82acd" transform="translate(339.813 118.653)">Addresses</text>
  <g>
    <g>
      <line class="ffac1fac-8e66-4f41-814d-dc9b67baa06d" x1="380" y1="224.412" x2="380" y2="222.912"/>
      <line class="eea62e53-36e1-413a-a74b-822376d6bd17" x1="380" y1="219.914" x2="380" y2="167.448"/>
      <line class="ffac1fac-8e66-4f41-814d-dc9b67baa06d" x1="380" y1="165.949" x2="380" y2="164.449"/>
      <polygon class="b93598dc-a467-499a-80d1-35127a9c9d8a" points="384.987 222.953 380 231.588 375.014 222.953 384.987 222.953"/>
    </g>
    <g>
      <line class="ffac1fac-8e66-4f41-814d-dc9b67baa06d" x1="395" y1="164.449" x2="395" y2="165.949"/>
      <line class="a367243e-08cd-476a-849e-d6c1e70d9721" x1="395" y1="168.892" x2="395" y2="208.617"/>
      <polyline class="ffac1fac-8e66-4f41-814d-dc9b67baa06d" points="395 210.088 395 211.588 396.5 211.588"/>
      <line class="aa8ee59e-397f-46dd-a55b-07353aa203e5" x1="399.466" y1="211.588" x2="534.392" y2="211.588"/>
      <polyline class="ffac1fac-8e66-4f41-814d-dc9b67baa06d" points="535.875 211.588 537.375 211.588 537.375 213.088"/>
      <line class="f9ba8360-c5be-43c8-b933-e5d84e1d791d" x1="537.375" y1="216.363" x2="537.375" y2="221.275"/>
      <line class="ffac1fac-8e66-4f41-814d-dc9b67baa06d" x1="537.375" y1="222.912" x2="537.375" y2="224.412"/>
      <polygon class="b93598dc-a467-499a-80d1-35127a9c9d8a" points="532.389 222.953 537.375 231.588 542.361 222.953 532.389 222.953"/>
    </g>
    <g>
      <line class="ffac1fac-8e66-4f41-814d-dc9b67baa06d" x1="365" y1="164.449" x2="365" y2="165.949"/>
      <line class="a367243e-08cd-476a-849e-d6c1e70d9721" x1="365" y1="168.892" x2="365" y2="208.617"/>
      <polyline class="ffac1fac-8e66-4f41-814d-dc9b67baa06d" points="365 210.088 365 211.588 363.5 211.588"/>
      <line class="a531ff33-e642-4da6-868c-7b2c9bc5922d" x1="360.535" y1="211.588" x2="225.608" y2="211.588"/>
      <polyline class="ffac1fac-8e66-4f41-814d-dc9b67baa06d" points="224.125 211.588 222.625 211.588 222.625 213.088"/>
      <line class="f9ba8360-c5be-43c8-b933-e5d84e1d791d" x1="222.625" y1="216.363" x2="222.625" y2="221.275"/>
      <line class="ffac1fac-8e66-4f41-814d-dc9b67baa06d" x1="222.625" y1="222.912" x2="222.625" y2="224.412"/>
      <polygon class="b93598dc-a467-499a-80d1-35127a9c9d8a" points="217.639 222.953 222.625 231.588 227.611 222.953 217.639 222.953"/>
    </g>
  </g>
  <rect class="ae01e960-619c-444e-aa08-0a0e67ba798d" x="157.375" y="234.379" width="130.5" height="137"/>
  <polyline class="eaa1532d-0922-4d82-9249-dcdfd5771c2c" points="182.375 356.828 277.875 356.828 277.875 281.828"/>
  <polyline class="eaa1532d-0922-4d82-9249-dcdfd5771c2c" points="177.375 351.828 272.875 351.828 272.875 276.828"/>
  <text class="b8aadce8-90ad-4a0a-8b6c-b2993ea82acd" transform="translate(172.375 259.483)">Broker B</text>
  <rect class="ee7df9ee-927f-4666-b087-52305d684772" x="172.375" y="271.828" width="95.5" height="75"/>
  <rect class="b93598dc-a467-499a-80d1-35127a9c9d8a" x="182.625" y="301.828" width="75" height="35" transform="translate(440.25 638.656) rotate(-180)"/>
  <text class="b6f41fe1-c836-4c10-9ced-5c6a8ea9c4c6" transform="translate(194.559 322.613)">multicast</text>
  <text class="b8aadce8-90ad-4a0a-8b6c-b2993ea82acd" transform="translate(182.438 291.032)">Addresses</text>
  <rect class="ae01e960-619c-444e-aa08-0a0e67ba798d" x="314.75" y="234.379" width="130.5" height="137"/>
  <polyline class="eaa1532d-0922-4d82-9249-dcdfd5771c2c" points="339.75 356.828 435.25 356.828 435.25 281.828"/>
  <polyline class="eaa1532d-0922-4d82-9249-dcdfd5771c2c" points="334.75 351.828 430.25 351.828 430.25 276.828"/>
  <text class="b8aadce8-90ad-4a0a-8b6c-b2993ea82acd" transform="translate(329.75 259.483)">Broker C</text>
  <rect class="ee7df9ee-927f-4666-b087-52305d684772" x="329.75" y="271.828" width="95.5" height="75"/>
  <rect class="b93598dc-a467-499a-80d1-35127a9c9d8a" x="340" y="301.828" width="75" height="35" transform="translate(755 638.656) rotate(-180)"/>
  <text class="b6f41fe1-c836-4c10-9ced-5c6a8ea9c4c6" transform="translate(351.934 322.613)">multicast</text>
  <text class="b8aadce8-90ad-4a0a-8b6c-b2993ea82acd" transform="translate(339.813 291.032)">Addresses</text>
  <rect class="ae01e960-619c-444e-aa08-0a0e67ba798d" x="472.125" y="234.379" width="130.5" height="137"/>
  <polyline class="eaa1532d-0922-4d82-9249-dcdfd5771c2c" points="497.125 356.828 592.625 356.828 592.625 281.828"/>
  <polyline class="eaa1532d-0922-4d82-9249-dcdfd5771c2c" points="492.125 351.828 587.625 351.828 587.625 276.828"/>
  <text class="b8aadce8-90ad-4a0a-8b6c-b2993ea82acd" transform="translate(487.125 259.483)">Broker D</text>
  <rect class="ee7df9ee-927f-4666-b087-52305d684772" x="487.125" y="271.828" width="95.5" height="75"/>
  <rect class="b93598dc-a467-499a-80d1-35127a9c9d8a" x="497.375" y="301.828" width="75" height="35" transform="translate(1069.75 638.656) rotate(-180)"/>
  <text class="b6f41fe1-c836-4c10-9ced-5c6a8ea9c4c6" transform="translate(509.309 322.613)">multicast</text>
  <text class="b8aadce8-90ad-4a0a-8b6c-b2993ea82acd" transform="translate(497.188 291.032)">Addresses</text>
  <rect class="ae01e960-619c-444e-aa08-0a0e67ba798d" y="406.758" width="130.5" height="137"/>
  <polyline class="eaa1532d-0922-4d82-9249-dcdfd5771c2c" points="25 529.207 120.5 529.207 120.5 454.207"/>
  <polyline class="eaa1532d-0922-4d82-9249-dcdfd5771c2c" points="20 524.207 115.5 524.207 115.5 449.207"/>
  <text class="b8aadce8-90ad-4a0a-8b6c-b2993ea82acd" transform="translate(15 431.862)">Broker E</text>
  <rect class="ee7df9ee-927f-4666-b087-52305d684772" x="15" y="444.207" width="95.5" height="75"/>
  <rect class="b93598dc-a467-499a-80d1-35127a9c9d8a" x="25.25" y="474.207" width="75" height="35" transform="translate(125.5 983.415) rotate(-180)"/>
  <text class="b6f41fe1-c836-4c10-9ced-5c6a8ea9c4c6" transform="translate(37.184 494.992)">multicast</text>
  <text class="b8aadce8-90ad-4a0a-8b6c-b2993ea82acd" transform="translate(25.063 463.411)">Addresses</text>
  <rect class="ae01e960-619c-444e-aa08-0a0e67ba798d" x="157.375" y="406.758" width="130.5" height="137"/>
  <polyline class="eaa1532d-0922-4d82-9249-dcdfd5771c2c" points="182.375 529.207 277.875 529.207 277.875 454.207"/>
  <polyline class="eaa1532d-0922-4d82-9249-dcdfd5771c2c" points="177.375 524.207 272.875 524.207 272.875 449.207"/>
  <text class="b8aadce8-90ad-4a0a-8b6c-b2993ea82acd" transform="translate(172.375 431.862)">Broker F</text>
  <rect class="ee7df9ee-927f-4666-b087-52305d684772" x="172.375" y="444.207" width="95.5" height="75"/>
  <rect class="b93598dc-a467-499a-80d1-35127a9c9d8a" x="182.625" y="474.207" width="75" height="35" transform="translate(440.25 983.415) rotate(-180)"/>
  <text class="b6f41fe1-c836-4c10-9ced-5c6a8ea9c4c6" transform="translate(194.559 494.992)">multicast</text>
  <text class="b8aadce8-90ad-4a0a-8b6c-b2993ea82acd" transform="translate(182.438 463.411)">Addresses</text>
  <rect class="ae01e960-619c-444e-aa08-0a0e67ba798d" x="314.75" y="406.758" width="130.5" height="137"/>
  <polyline class="eaa1532d-0922-4d82-9249-dcdfd5771c2c" points="339.75 529.207 435.25 529.207 435.25 454.207"/>
  <polyline class="eaa1532d-0922-4d82-9249-dcdfd5771c2c" points="334.75 524.207 430.25 524.207 430.25 449.207"/>
  <text class="b8aadce8-90ad-4a0a-8b6c-b2993ea82acd" transform="translate(329.75 431.862)">Broker G</text>
  <rect class="ee7df9ee-927f-4666-b087-52305d684772" x="329.75" y="444.207" width="95.5" height="75"/>
  <rect class="b93598dc-a467-499a-80d1-35127a9c9d8a" x="340" y="474.207" width="75" height="35" transform="translate(755 983.415) rotate(-180)"/>
  <text class="b6f41fe1-c836-4c10-9ced-5c6a8ea9c4c6" transform="translate(351.934 494.992)">multicast</text>
  <text class="b8aadce8-90ad-4a0a-8b6c-b2993ea82acd" transform="translate(339.813 463.411)">Addresses</text>
  <rect class="ae01e960-619c-444e-aa08-0a0e67ba798d" x="472.125" y="406.758" width="130.5" height="137"/>
  <polyline class="eaa1532d-0922-4d82-9249-dcdfd5771c2c" points="497.125 529.207 592.625 529.207 592.625 454.207"/>
  <polyline class="eaa1532d-0922-4d82-9249-dcdfd5771c2c" points="492.125 524.207 587.625 524.207 587.625 449.207"/>
  <text class="b8aadce8-90ad-4a0a-8b6c-b2993ea82acd" transform="translate(487.125 431.862)">Broker H</text>
  <rect class="ee7df9ee-927f-4666-b087-52305d684772" x="487.125" y="444.207" width="95.5" height="75"/>
  <rect class="b93598dc-a467-499a-80d1-35127a9c9d8a" x="497.375" y="474.207" width="75" height="35" transform="translate(1069.75 983.415) rotate(-180)"/>
  <text class="b6f41fe1-c836-4c10-9ced-5c6a8ea9c4c6" transform="translate(509.309 494.992)">multicast</text>
  <text class="b8aadce8-90ad-4a0a-8b6c-b2993ea82acd" transform="translate(497.188 463.411)">Addresses</text>
  <rect class="ae01e960-619c-444e-aa08-0a0e67ba798d" x="629.5" y="406.758" width="130.5" height="137"/>
  <polyline class="eaa1532d-0922-4d82-9249-dcdfd5771c2c" points="654.5 529.207 750 529.207 750 454.207"/>
  <polyline class="eaa1532d-0922-4d82-9249-dcdfd5771c2c" points="649.5 524.207 745 524.207 745 449.207"/>
  <text class="b8aadce8-90ad-4a0a-8b6c-b2993ea82acd" transform="translate(644.5 431.862)">Broker I</text>
  <rect class="ee7df9ee-927f-4666-b087-52305d684772" x="644.5" y="444.207" width="95.5" height="75"/>
  <rect class="b93598dc-a467-499a-80d1-35127a9c9d8a" x="654.75" y="474.207" width="75" height="35" transform="translate(1384.5 983.415) rotate(-180)"/>
  <text class="b6f41fe1-c836-4c10-9ced-5c6a8ea9c4c6" transform="translate(666.684 494.992)">multicast</text>
  <text class="b8aadce8-90ad-4a0a-8b6c-b2993ea82acd" transform="translate(654.563 463.411)">Addresses</text>
  <g>
    <line class="ffac1fac-8e66-4f41-814d-dc9b67baa06d" x1="380" y1="396.792" x2="380" y2="395.292"/>
    <line class="eea62e53-36e1-413a-a74b-822376d6bd17" x1="380" y1="392.294" x2="380" y2="339.828"/>
    <line class="ffac1fac-8e66-4f41-814d-dc9b67baa06d" x1="380" y1="338.329" x2="380" y2="336.829"/>
    <polygon class="b93598dc-a467-499a-80d1-35127a9c9d8a" points="384.987 395.333 380 403.968 375.014 395.333 384.987 395.333"/>
  </g>
  <g>
    <line class="ffac1fac-8e66-4f41-814d-dc9b67baa06d" x1="395" y1="336.829" x2="395" y2="338.329"/>
    <line class="a367243e-08cd-476a-849e-d6c1e70d9721" x1="395" y1="341.271" x2="395" y2="380.997"/>
    <polyline class="ffac1fac-8e66-4f41-814d-dc9b67baa06d" points="395 382.468 395 383.968 396.5 383.968"/>
    <line class="aa8ee59e-397f-46dd-a55b-07353aa203e5" x1="399.466" y1="383.968" x2="534.392" y2="383.968"/>
    <polyline class="ffac1fac-8e66-4f41-814d-dc9b67baa06d" points="535.875 383.968 537.375 383.968 537.375 385.468"/>
    <line class="f9ba8360-c5be-43c8-b933-e5d84e1d791d" x1="537.375" y1="388.742" x2="537.375" y2="393.654"/>
    <line class="ffac1fac-8e66-4f41-814d-dc9b67baa06d" x1="537.375" y1="395.292" x2="537.375" y2="396.792"/>
    <polygon class="b93598dc-a467-499a-80d1-35127a9c9d8a" points="532.389 395.333 537.375 403.968 542.361 395.333 532.389 395.333"/>
  </g>
  <g>
    <line class="ffac1fac-8e66-4f41-814d-dc9b67baa06d" x1="552.375" y1="336.829" x2="552.375" y2="338.329"/>
    <line class="a367243e-08cd-476a-849e-d6c1e70d9721" x1="552.375" y1="341.271" x2="552.375" y2="380.997"/>
    <polyline class="ffac1fac-8e66-4f41-814d-dc9b67baa06d" points="552.375 382.468 552.375 383.968 553.875 383.968"/>
    <line class="ffd9b79f-3049-4eda-baae-5bc359f113ee" x1="556.84" y1="383.968" x2="691.737" y2="383.968"/>
    <polyline class="ffac1fac-8e66-4f41-814d-dc9b67baa06d" points="693.22 383.968 694.72 383.968 694.72 385.468"/>
    <line class="f9ba8360-c5be-43c8-b933-e5d84e1d791d" x1="694.72" y1="388.742" x2="694.72" y2="393.654"/>
    <line class="ffac1fac-8e66-4f41-814d-dc9b67baa06d" x1="694.72" y1="395.292" x2="694.72" y2="396.792"/>
    <polygon class="b93598dc-a467-499a-80d1-35127a9c9d8a" points="689.733 395.333 694.72 403.968 699.706 395.333 689.733 395.333"/>
  </g>
  <g>
    <line class="ffac1fac-8e66-4f41-814d-dc9b67baa06d" x1="207.625" y1="336.829" x2="207.625" y2="338.329"/>
    <line class="a367243e-08cd-476a-849e-d6c1e70d9721" x1="207.625" y1="341.271" x2="207.625" y2="380.997"/>
    <polyline class="ffac1fac-8e66-4f41-814d-dc9b67baa06d" points="207.625 382.468 207.625 383.968 206.125 383.968"/>
    <line class="ffd9b79f-3049-4eda-baae-5bc359f113ee" x1="203.16" y1="383.968" x2="68.263" y2="383.968"/>
    <polyline class="ffac1fac-8e66-4f41-814d-dc9b67baa06d" points="66.78 383.968 65.28 383.968 65.28 385.468"/>
    <line class="f9ba8360-c5be-43c8-b933-e5d84e1d791d" x1="65.28" y1="388.742" x2="65.28" y2="393.654"/>
    <line class="ffac1fac-8e66-4f41-814d-dc9b67baa06d" x1="65.28" y1="395.292" x2="65.28" y2="396.792"/>
    <polygon class="b93598dc-a467-499a-80d1-35127a9c9d8a" points="60.294 395.333 65.28 403.968 70.267 395.333 60.294 395.333"/>
  </g>
  <g>
    <line class="ffac1fac-8e66-4f41-814d-dc9b67baa06d" x1="365" y1="336.829" x2="365" y2="338.329"/>
    <line class="a367243e-08cd-476a-849e-d6c1e70d9721" x1="365" y1="341.271" x2="365" y2="380.997"/>
    <polyline class="ffac1fac-8e66-4f41-814d-dc9b67baa06d" points="365 382.468 365 383.968 363.5 383.968"/>
    <line class="a531ff33-e642-4da6-868c-7b2c9bc5922d" x1="360.535" y1="383.968" x2="225.608" y2="383.968"/>
    <polyline class="ffac1fac-8e66-4f41-814d-dc9b67baa06d" points="224.125 383.968 222.625 383.968 222.625 385.468"/>
    <line class="f9ba8360-c5be-43c8-b933-e5d84e1d791d" x1="222.625" y1="388.742" x2="222.625" y2="393.654"/>
    <line class="ffac1fac-8e66-4f41-814d-dc9b67baa06d" x1="222.625" y1="395.292" x2="222.625" y2="396.792"/>
    <polygon class="b93598dc-a467-499a-80d1-35127a9c9d8a" points="217.639 395.333 222.625 403.968 227.611 395.333 217.639 395.333"/>
  </g>
  <g>
    <g>
      <line class="ffac1fac-8e66-4f41-814d-dc9b67baa06d" x1="27.31" y1="24" x2="25.81" y2="24"/>
      <line class="a7e799e6-30dc-48fc-ad87-85ebccf48af7" x1="22.383" y1="24" x2="10.39" y2="24"/>
      <line class="ffac1fac-8e66-4f41-814d-dc9b67baa06d" x1="8.676" y1="24" x2="7.176" y2="24"/>
      <polygon class="b93598dc-a467-499a-80d1-35127a9c9d8a" points="8.635 19.013 0 24 8.635 28.986 8.635 19.013"/>
    </g>
    <text class="a1148186-693e-41b6-bc03-3ff83cddd6cc" transform="translate(35 27.324)"><tspan xml:space="preserve">Symmetric Address Federation  /  </tspan><tspan class="bad19507-ceb5-423f-8eac-61dba3364e31" x="159.477" y="0">max-hops=[Number of levels]-1</tspan></text>
  </g>
  <line class="bd12f9b0-a0ce-46de-b4fe-3d67bfece0cc" y1="44.943" x2="760" y2="44.943"/>
  <g>
    <text class="b7fc3581-9610-4e2e-9508-980550dd7023" transform="translate(690.661 566.776)">120_AMQ_1020</text>
    <rect class="a207dfee-bd57-4677-a60a-b4e83b049a82" y="543.758" width="760" height="40"/>
  </g>
</svg>
