<svg id="b2a89148-32e0-429b-bbc1-79bd3f8ebd78" data-name="Layer 1" xmlns="http://www.w3.org/2000/svg" width="760" height="552.675" viewBox="0 0 760 552.675">
  <defs>
    <style>
      .f429868d-887e-49e2-9a6e-083d411e0e5f {
        fill: #e8e8e8;
      }

      .b62a894e-439b-4959-8989-574cf7f70f90, .b69373db-add7-40f1-8de7-d2c769ca716a, .f3d9eea9-171d-4f9c-990d-2c2f29103fd0 {
        fill: #151515;
      }

      .a2656a7f-605f-459a-a4ae-d8e38cd53c05, .a5a02778-f84c-48ba-90a1-b3511655b28e, .a72b663a-4a7d-4d1e-b085-67b44f03bf27, .a9e960cf-1682-44e9-9ebd-4e50846c96e2, .b8be379a-eb53-4509-8bc8-9d079aef9ddc, .be1962fd-f30f-4c54-8032-a98e21fce069 {
        fill: none;
      }

      .a72b663a-4a7d-4d1e-b085-67b44f03bf27 {
        stroke: #151515;
        stroke-miterlimit: 10;
      }

      .b4c42cb8-5410-4bea-9053-66d0732ab648, .bc2e639e-bee8-4c70-9b25-d769e81d7c5c {
        fill: #fff;
      }

      .b62a894e-439b-4959-8989-574cf7f70f90 {
        font-size: 9px;
      }

      .b62a894e-439b-4959-8989-574cf7f70f90, .ba1f298f-c4b2-4185-859b-bc076f648909 {
        font-family: RedHatText-Medium, Red Hat Text;
        font-weight: 500;
      }

      .a5a02778-f84c-48ba-90a1-b3511655b28e, .bc2e639e-bee8-4c70-9b25-d769e81d7c5c {
        stroke: #5b5b5b;
      }

      .a2656a7f-605f-459a-a4ae-d8e38cd53c05, .a5a02778-f84c-48ba-90a1-b3511655b28e, .b8be379a-eb53-4509-8bc8-9d079aef9ddc, .bc2e639e-bee8-4c70-9b25-d769e81d7c5c, .be1962fd-f30f-4c54-8032-a98e21fce069 {
        stroke-linecap: round;
        stroke-linejoin: round;
        stroke-width: 1.5px;
      }

      .b69373db-add7-40f1-8de7-d2c769ca716a {
        font-size: 14px;
        font-family: RedHatText-Bold, Red Hat Text;
        font-weight: 700;
      }

      .e636f8c9-2842-41cf-aa7a-7892c71cbec8 {
        fill: #06c;
      }

      .a2656a7f-605f-459a-a4ae-d8e38cd53c05, .b8be379a-eb53-4509-8bc8-9d079aef9ddc, .be1962fd-f30f-4c54-8032-a98e21fce069 {
        stroke: #d0d0d0;
      }

      .b8be379a-eb53-4509-8bc8-9d079aef9ddc {
        stroke-dasharray: 2.929 2.929;
      }

      .be1962fd-f30f-4c54-8032-a98e21fce069 {
        stroke-dasharray: 3.226 3.226;
      }

      .a53b44b0-85fa-4602-a4c1-001ac9f0b536, .ba1f298f-c4b2-4185-859b-bc076f648909 {
        font-size: 10px;
      }

      .ba1f298f-c4b2-4185-859b-bc076f648909 {
        fill: #d0d0d0;
      }

      .a53b44b0-85fa-4602-a4c1-001ac9f0b536 {
        fill: #f3f3f3;
        font-family: RedHatText-Regular, Red Hat Text;
      }
    </style>
  </defs>
  <g>
    <g>
      <rect class="f429868d-887e-49e2-9a6e-083d411e0e5f" x="143.75" y="20" width="215.5" height="55"/>
      <g>
        <path class="f3d9eea9-171d-4f9c-990d-2c2f29103fd0" d="M159.686,44.241v-8.4h4.1a3.348,3.348,0,0,1,1.218.21,2.823,2.823,0,0,1,.936.576,2.463,2.463,0,0,1,.6.876,2.886,2.886,0,0,1,.21,1.109,2.71,2.71,0,0,1-.21,1.063,2.443,2.443,0,0,1-.6.857,2.9,2.9,0,0,1-.936.571,3.391,3.391,0,0,1-1.218.209h-2.04v2.928Zm3.744-6.695h-1.68V39.67h1.668a1.287,1.287,0,0,0,.936-.307,1.023,1.023,0,0,0,.312-.761,1.01,1.01,0,0,0-.312-.75A1.264,1.264,0,0,0,163.43,37.546Z"/>
        <path class="f3d9eea9-171d-4f9c-990d-2c2f29103fd0" d="M168.025,44.241V38.05h1.945v1.4a2.988,2.988,0,0,1,.714-1.145,1.385,1.385,0,0,1,.965-.378,2.01,2.01,0,0,1,.336.042,1.485,1.485,0,0,1,.313.114v1.668a2.027,2.027,0,0,0-.42-.139,2.234,2.234,0,0,0-.492-.053,1.655,1.655,0,0,0-.811.209,1.693,1.693,0,0,0-.6.558v3.912Z"/>
        <path class="f3d9eea9-171d-4f9c-990d-2c2f29103fd0" d="M173.054,41.157a3.253,3.253,0,0,1,.245-1.271,3.052,3.052,0,0,1,.679-1.015A3.184,3.184,0,0,1,175,38.2a3.307,3.307,0,0,1,1.278-.246,3.351,3.351,0,0,1,1.284.246,3.177,3.177,0,0,1,1.033.672,3.078,3.078,0,0,1,.677,1.015,3.254,3.254,0,0,1,.246,1.271,3.2,3.2,0,0,1-.251,1.273,3.113,3.113,0,0,1-1.71,1.685,3.445,3.445,0,0,1-2.557,0,3.087,3.087,0,0,1-1.7-1.7A3.231,3.231,0,0,1,173.054,41.157Zm3.227,1.561a1.22,1.22,0,0,0,.966-.439,1.656,1.656,0,0,0,.378-1.122,1.7,1.7,0,0,0-.378-1.134,1.209,1.209,0,0,0-.966-.45,1.193,1.193,0,0,0-.96.45,1.72,1.72,0,0,0-.372,1.134,1.673,1.673,0,0,0,.372,1.122A1.2,1.2,0,0,0,176.281,42.718Z"/>
        <path class="f3d9eea9-171d-4f9c-990d-2c2f29103fd0" d="M185.042,44.241v-.8a2.139,2.139,0,0,1-.786.612,2.463,2.463,0,0,1-2.106-.019,2.658,2.658,0,0,1-.87-.672,3.3,3.3,0,0,1-.582-1,3.452,3.452,0,0,1-.216-1.223,3.332,3.332,0,0,1,.222-1.219,3.076,3.076,0,0,1,.612-.989,2.926,2.926,0,0,1,.918-.666,2.638,2.638,0,0,1,1.128-.246,2.22,2.22,0,0,1,.912.191,2.119,2.119,0,0,1,.744.553v-3.1l1.944-.3v8.88Zm-2.652-3.095a1.5,1.5,0,0,0,.426,1.085,1.408,1.408,0,0,0,1.05.439,1.554,1.554,0,0,0,.636-.127,1.58,1.58,0,0,0,.516-.365V40.09a1.667,1.667,0,0,0-.522-.355,1.582,1.582,0,0,0-.63-.126,1.4,1.4,0,0,0-1.056.439A1.523,1.523,0,0,0,182.39,41.146Z"/>
        <path class="f3d9eea9-171d-4f9c-990d-2c2f29103fd0" d="M190.37,38.05v3.611a1.213,1.213,0,0,0,.281.834.956.956,0,0,0,.75.318,1.3,1.3,0,0,0,.571-.125,1.318,1.318,0,0,0,.462-.39V38.05h1.944v6.191h-1.944V43.233a2.559,2.559,0,0,1-.858.823,2.2,2.2,0,0,1-1.1.282A1.963,1.963,0,0,1,189,43.743a2.086,2.086,0,0,1-.576-1.517V38.05Z"/>
        <path class="f3d9eea9-171d-4f9c-990d-2c2f29103fd0" d="M198.938,42.682a1.562,1.562,0,0,0,.7-.157,1.5,1.5,0,0,0,.546-.456l1.152,1.14a3.079,3.079,0,0,1-1.11.847,3.341,3.341,0,0,1-1.411.3,3.226,3.226,0,0,1-1.259-.246,3.1,3.1,0,0,1-1.7-1.7,3.363,3.363,0,0,1,0-2.52,3.116,3.116,0,0,1,1.7-1.7,3.226,3.226,0,0,1,1.259-.246,3.584,3.584,0,0,1,1.435.294,3.085,3.085,0,0,1,1.145.847l-1.187,1.187a2.149,2.149,0,0,0-.612-.51,1.517,1.517,0,0,0-.708-.162,1.218,1.218,0,0,0-.96.445,1.627,1.627,0,0,0-.384,1.1,1.561,1.561,0,0,0,.4,1.086A1.29,1.29,0,0,0,198.938,42.682Z"/>
        <path class="f3d9eea9-171d-4f9c-990d-2c2f29103fd0" d="M207.949,43.365a4,4,0,0,1-1.212.763,3.9,3.9,0,0,1-1.391.233,3.315,3.315,0,0,1-1.279-.246,3.271,3.271,0,0,1-1.038-.677,3.125,3.125,0,0,1-.695-1.021,3.165,3.165,0,0,1-.252-1.26,3.324,3.324,0,0,1,.239-1.271,3.189,3.189,0,0,1,.655-1.021,2.966,2.966,0,0,1,.99-.677,3.1,3.1,0,0,1,1.235-.247,3,3,0,0,1,1.231.247,2.892,2.892,0,0,1,.96.677,3.137,3.137,0,0,1,.629,1.038,3.719,3.719,0,0,1,.229,1.326v.42h-4.261a1.553,1.553,0,0,0,.529.84,1.413,1.413,0,0,0,.923.324,1.819,1.819,0,0,0,.7-.131,1.313,1.313,0,0,0,.522-.384Zm-2.76-3.912a1.094,1.094,0,0,0-.767.288,1.537,1.537,0,0,0-.433.8h2.46a1.475,1.475,0,0,0-.456-.8A1.181,1.181,0,0,0,205.189,39.453Z"/>
        <path class="f3d9eea9-171d-4f9c-990d-2c2f29103fd0" d="M209.461,44.241V38.05h1.944v1.4a3,3,0,0,1,.714-1.145,1.389,1.389,0,0,1,.966-.378,2.01,2.01,0,0,1,.336.042,1.479,1.479,0,0,1,.312.114v1.668a2.008,2.008,0,0,0-.42-.139,2.234,2.234,0,0,0-.492-.053,1.651,1.651,0,0,0-.81.209,1.7,1.7,0,0,0-.606.558v3.912Z"/>
        <path class="f3d9eea9-171d-4f9c-990d-2c2f29103fd0" d="M159.59,53.232h1.354v.96a2.053,2.053,0,0,1,1.787-1.055A1.89,1.89,0,0,1,164.5,54.3a2.214,2.214,0,0,1,1.99-1.163,1.991,1.991,0,0,1,1.968,2.182v3.922H167.1V55.607a1.215,1.215,0,0,0-1.212-1.378,1.431,1.431,0,0,0-1.211.707c.012.131.023.252.023.383v3.922h-1.354V55.607a1.215,1.215,0,0,0-1.212-1.378,1.4,1.4,0,0,0-1.188.683v4.329H159.59Z"/>
        <path class="f3d9eea9-171d-4f9c-990d-2c2f29103fd0" d="M171.637,59.277l-2.267-6.045h1.511l1.523,4.462,1.679-4.462h1.476L172.7,60.225a2.031,2.031,0,0,1-2.135,1.583,2.86,2.86,0,0,1-.683-.084V60.561a4.8,4.8,0,0,0,.527.047.958.958,0,0,0,.972-.7Z"/>
        <path class="f3d9eea9-171d-4f9c-990d-2c2f29103fd0" d="M178.009,58.474a.84.84,0,1,1-.84-.875A.858.858,0,0,1,178.009,58.474Z"/>
        <path class="f3d9eea9-171d-4f9c-990d-2c2f29103fd0" d="M179.186,57.515c0-1.08.875-1.764,2.29-1.764a3.708,3.708,0,0,1,1.619.372v-.659c0-.792-.455-1.2-1.379-1.2a4.16,4.16,0,0,0-1.751.466l-.48-.983a5.779,5.779,0,0,1,2.494-.611c1.56,0,2.459.792,2.459,2.182v3.922H183.1V58.63a2.511,2.511,0,0,1-1.787.707A1.893,1.893,0,0,1,179.186,57.515Zm2.494.875A2.14,2.14,0,0,0,183.1,57.9v-.983a3.11,3.11,0,0,0-1.391-.288c-.767,0-1.248.336-1.248.863C180.456,58.042,180.937,58.39,181.68,58.39Z"/>
        <path class="f3d9eea9-171d-4f9c-990d-2c2f29103fd0" d="M186.085,53.232h1.354v.984a2.184,2.184,0,0,1,1.908-1.079,2.022,2.022,0,0,1,2.075,2.146v3.958h-1.356V55.667a1.293,1.293,0,0,0-1.319-1.438,1.542,1.542,0,0,0-1.308.719v4.293h-1.354Z"/>
        <path class="f3d9eea9-171d-4f9c-990d-2c2f29103fd0" d="M194.6,59.277l-2.266-6.045h1.511l1.523,4.462,1.679-4.462h1.475l-2.854,6.993a2.032,2.032,0,0,1-2.135,1.583,2.86,2.86,0,0,1-.683-.084V60.561a4.8,4.8,0,0,0,.527.047.959.959,0,0,0,.972-.7Z"/>
        <path class="f3d9eea9-171d-4f9c-990d-2c2f29103fd0" d="M203.806,57.5l.816.816a3.126,3.126,0,0,1-2.351,1.043,3.107,3.107,0,0,1,0-6.213,3.243,3.243,0,0,1,2.4,1.008l-.84.876a1.985,1.985,0,0,0-1.511-.708,1.928,1.928,0,0,0,.035,3.838A1.843,1.843,0,0,0,203.806,57.5Z"/>
        <path class="f3d9eea9-171d-4f9c-990d-2c2f29103fd0" d="M205.489,57.515c0-1.08.875-1.764,2.29-1.764a3.705,3.705,0,0,1,1.619.372v-.659c0-.792-.455-1.2-1.378-1.2a4.16,4.16,0,0,0-1.751.466l-.48-.983a5.773,5.773,0,0,1,2.494-.611c1.56,0,2.459.792,2.459,2.182v3.922H209.4V58.63a2.509,2.509,0,0,1-1.787.707A1.894,1.894,0,0,1,205.489,57.515Zm2.494.875A2.14,2.14,0,0,0,209.4,57.9v-.983a3.1,3.1,0,0,0-1.39-.288c-.768,0-1.248.336-1.248.863C206.76,58.042,207.24,58.39,207.983,58.39Z"/>
        <path class="f3d9eea9-171d-4f9c-990d-2c2f29103fd0" d="M212.484,57.635a3.47,3.47,0,0,0,1.931.683c.72,0,1.212-.324,1.212-.8,0-.372-.252-.577-.828-.684l-1.068-.181c-1.163-.215-1.739-.754-1.739-1.654,0-1.128.924-1.859,2.327-1.859a4.226,4.226,0,0,1,2.363.719l-.636.888a3.28,3.28,0,0,0-1.811-.576c-.624,0-1.031.264-1.031.708,0,.384.216.552.852.659l1.055.193c1.2.227,1.775.779,1.775,1.678a2.2,2.2,0,0,1-2.447,1.955,4.033,4.033,0,0,1-2.59-.815Z"/>
        <path class="f3d9eea9-171d-4f9c-990d-2c2f29103fd0" d="M218.88,54.312h-1.211v-1.08h1.211V51.578l1.355-.288v1.942h1.679v1.08h-1.679v3.046c0,.588.228.816.84.816a2.5,2.5,0,0,0,.816-.144v1.14a4.3,4.3,0,0,1-1.164.167c-1.211,0-1.847-.575-1.847-1.679Z"/>
        <path class="f3d9eea9-171d-4f9c-990d-2c2f29103fd0" d="M224.567,58.474a.84.84,0,1,1-.839-.875A.858.858,0,0,1,224.567,58.474Z"/>
        <path class="f3d9eea9-171d-4f9c-990d-2c2f29103fd0" d="M230.338,58.438a2.31,2.31,0,0,1-1.847.864,3.075,3.075,0,0,1,.084-6.117,2.29,2.29,0,0,1,1.751.792V50.666l1.356-.228v8.8h-1.344Zm-1.439-.276a1.793,1.793,0,0,0,1.427-.66v-2.53a1.861,1.861,0,0,0-1.427-.648,1.924,1.924,0,0,0,0,3.838Z"/>
        <path class="f3d9eea9-171d-4f9c-990d-2c2f29103fd0" d="M236.146,59.361a3.054,3.054,0,0,1-3.058-3.118,2.96,2.96,0,0,1,2.927-3.106,2.883,2.883,0,0,1,2.841,3.094v.336h-4.437a1.836,1.836,0,0,0,1.8,1.643,1.952,1.952,0,0,0,1.427-.564l.887.828A3.472,3.472,0,0,1,236.146,59.361Zm-1.7-3.622h3.13a1.644,1.644,0,0,0-1.57-1.5A1.616,1.616,0,0,0,234.443,55.739Z"/>
        <path class="f3d9eea9-171d-4f9c-990d-2c2f29103fd0" d="M240.336,57.635a3.465,3.465,0,0,0,1.931.683c.719,0,1.212-.324,1.212-.8,0-.372-.252-.577-.829-.684l-1.067-.181c-1.163-.215-1.739-.754-1.739-1.654,0-1.128.924-1.859,2.327-1.859a4.221,4.221,0,0,1,2.362.719l-.636.888a3.28,3.28,0,0,0-1.81-.576c-.624,0-1.031.264-1.031.708,0,.384.215.552.851.659l1.056.193c1.2.227,1.774.779,1.774,1.678a2.2,2.2,0,0,1-2.446,1.955,4.036,4.036,0,0,1-2.591-.815Z"/>
        <path class="f3d9eea9-171d-4f9c-990d-2c2f29103fd0" d="M246.731,54.312h-1.21v-1.08h1.21V51.578l1.356-.288v1.942h1.679v1.08h-1.679v3.046c0,.588.227.816.84.816a2.49,2.49,0,0,0,.815-.144v1.14a4.3,4.3,0,0,1-1.164.167c-1.211,0-1.847-.575-1.847-1.679Z"/>
        <path class="f3d9eea9-171d-4f9c-990d-2c2f29103fd0" d="M250.788,51.182a.846.846,0,0,1,1.691,0,.846.846,0,0,1-1.691,0Zm1.523,8.059h-1.355V53.232h1.355Z"/>
        <path class="f3d9eea9-171d-4f9c-990d-2c2f29103fd0" d="M253.979,53.232h1.355v.984a2.182,2.182,0,0,1,1.907-1.079,2.021,2.021,0,0,1,2.075,2.146v3.958h-1.355V55.667a1.293,1.293,0,0,0-1.319-1.438,1.54,1.54,0,0,0-1.308.719v4.293h-1.355Z"/>
        <path class="f3d9eea9-171d-4f9c-990d-2c2f29103fd0" d="M260.664,57.515c0-1.08.875-1.764,2.29-1.764a3.705,3.705,0,0,1,1.619.372v-.659c0-.792-.455-1.2-1.379-1.2a4.164,4.164,0,0,0-1.751.466l-.479-.983a5.773,5.773,0,0,1,2.494-.611c1.56,0,2.459.792,2.459,2.182v3.922h-1.344V58.63a2.509,2.509,0,0,1-1.787.707A1.893,1.893,0,0,1,260.664,57.515Zm2.494.875a2.14,2.14,0,0,0,1.415-.492v-.983a3.1,3.1,0,0,0-1.39-.288c-.768,0-1.248.336-1.248.863C261.935,58.042,262.415,58.39,263.158,58.39Z"/>
        <path class="f3d9eea9-171d-4f9c-990d-2c2f29103fd0" d="M268.307,54.312H267.1v-1.08h1.211V51.578l1.355-.288v1.942h1.679v1.08h-1.679v3.046c0,.588.228.816.84.816a2.49,2.49,0,0,0,.815-.144v1.14a4.292,4.292,0,0,1-1.164.167c-1.211,0-1.846-.575-1.846-1.679Z"/>
        <path class="f3d9eea9-171d-4f9c-990d-2c2f29103fd0" d="M272.363,51.182a.846.846,0,0,1,1.691,0,.846.846,0,0,1-1.691,0Zm1.523,8.059h-1.355V53.232h1.355Z"/>
        <path class="f3d9eea9-171d-4f9c-990d-2c2f29103fd0" d="M278.3,53.137a3.113,3.113,0,1,1-3.023,3.106A3,3,0,0,1,278.3,53.137Zm1.678,3.118a1.7,1.7,0,1,0-3.357,0,1.7,1.7,0,1,0,3.357,0Z"/>
        <path class="f3d9eea9-171d-4f9c-990d-2c2f29103fd0" d="M282.731,53.232h1.355v.984a2.181,2.181,0,0,1,1.907-1.079,2.021,2.021,0,0,1,2.075,2.146v3.958h-1.355V55.667a1.293,1.293,0,0,0-1.319-1.438,1.54,1.54,0,0,0-1.308.719v4.293h-1.355Z"/>
      </g>
    </g>
    <g>
      <rect class="f429868d-887e-49e2-9a6e-083d411e0e5f" x="20" y="480.675" width="215.5" height="55"/>
      <g>
        <path class="f3d9eea9-171d-4f9c-990d-2c2f29103fd0" d="M40.04,503.188a2.12,2.12,0,0,0,1.044-.264,2.827,2.827,0,0,0,.876-.779l1.356,1.284a4.024,4.024,0,0,1-1.464,1.163,4.244,4.244,0,0,1-1.884.445,4.575,4.575,0,0,1-1.752-.336,4.362,4.362,0,0,1-1.4-.912,4.38,4.38,0,0,1-.93-4.783,4.209,4.209,0,0,1,.936-1.374,4.431,4.431,0,0,1,1.4-.911,4.512,4.512,0,0,1,1.746-.337,4.409,4.409,0,0,1,1.932.445,3.9,3.9,0,0,1,1.476,1.188l-1.392,1.319a2.906,2.906,0,0,0-.918-.834,2.232,2.232,0,0,0-1.1-.281,2.167,2.167,0,0,0-.912.192,2.235,2.235,0,0,0-.726.522,2.377,2.377,0,0,0-.48.792,2.784,2.784,0,0,0-.174.989,2.661,2.661,0,0,0,.18.985,2.37,2.37,0,0,0,.5.785,2.259,2.259,0,0,0,.75.516A2.342,2.342,0,0,0,40.04,503.188Z"/>
        <path class="f3d9eea9-171d-4f9c-990d-2c2f29103fd0" d="M44.12,501.833a3.258,3.258,0,0,1,.245-1.272,3.078,3.078,0,0,1,.679-1.015,3.192,3.192,0,0,1,1.025-.671,3.3,3.3,0,0,1,1.279-.247,3.337,3.337,0,0,1,1.284.247,3.181,3.181,0,0,1,1.032.671,3.09,3.09,0,0,1,.678,1.015,3.259,3.259,0,0,1,.246,1.272,3.19,3.19,0,0,1-.252,1.271,3.156,3.156,0,0,1-.685,1.015,3.211,3.211,0,0,1-1.025.672,3.445,3.445,0,0,1-2.557,0,3.1,3.1,0,0,1-1.7-1.7A3.222,3.222,0,0,1,44.12,501.833Zm3.228,1.56a1.217,1.217,0,0,0,.965-.438,1.656,1.656,0,0,0,.378-1.122,1.7,1.7,0,0,0-.378-1.134,1.2,1.2,0,0,0-.965-.45,1.186,1.186,0,0,0-.96.45,1.719,1.719,0,0,0-.372,1.134,1.673,1.673,0,0,0,.372,1.122A1.2,1.2,0,0,0,47.348,503.393Z"/>
        <path class="f3d9eea9-171d-4f9c-990d-2c2f29103fd0" d="M51.823,504.917v-6.192h1.945v1.007a2.541,2.541,0,0,1,.857-.821,2.191,2.191,0,0,1,1.1-.283,1.966,1.966,0,0,1,1.475.6,2.09,2.09,0,0,1,.576,1.518v4.176H55.831v-3.612a1.213,1.213,0,0,0-.281-.834.957.957,0,0,0-.75-.319,1.283,1.283,0,0,0-.571.126,1.326,1.326,0,0,0-.461.39v4.249Z"/>
        <path class="f3d9eea9-171d-4f9c-990d-2c2f29103fd0" d="M58.735,504.28l.852-1.3a6.893,6.893,0,0,0,1.1.487,3.009,3.009,0,0,0,.888.137,1.315,1.315,0,0,0,.649-.137.415.415,0,0,0,.24-.367.349.349,0,0,0-.139-.288.97.97,0,0,0-.437-.155l-1.189-.217a2.543,2.543,0,0,1-1.361-.624,1.573,1.573,0,0,1-.462-1.175,1.784,1.784,0,0,1,.689-1.488,3.008,3.008,0,0,1,1.9-.54,4.7,4.7,0,0,1,1.284.179,5.417,5.417,0,0,1,1.235.529l-.887,1.236a4.469,4.469,0,0,0-.907-.4,3,3,0,0,0-.87-.132,1.113,1.113,0,0,0-.546.113.354.354,0,0,0-.2.318.325.325,0,0,0,.139.288,1.3,1.3,0,0,0,.5.157l1.164.216a2.661,2.661,0,0,1,1.391.629,1.5,1.5,0,0,1,.468,1.159,1.822,1.822,0,0,1-.2.845,1.976,1.976,0,0,1-.558.673,2.781,2.781,0,0,1-.851.444,3.392,3.392,0,0,1-1.057.162,6.215,6.215,0,0,1-1.571-.192A4.014,4.014,0,0,1,58.735,504.28Z"/>
        <path class="f3d9eea9-171d-4f9c-990d-2c2f29103fd0" d="M67.268,498.725v3.611a1.208,1.208,0,0,0,.281.834.953.953,0,0,0,.75.318,1.281,1.281,0,0,0,.57-.126,1.326,1.326,0,0,0,.462-.389v-4.248h1.944v6.192H69.331v-1.008a2.541,2.541,0,0,1-.857.821,2.194,2.194,0,0,1-1.1.283,1.967,1.967,0,0,1-1.476-.595,2.093,2.093,0,0,1-.576-1.518v-4.175Z"/>
        <path class="f3d9eea9-171d-4f9c-990d-2c2f29103fd0" d="M72.787,504.917v-6.192h1.944v.983a2.43,2.43,0,0,1,.8-.8,2.006,2.006,0,0,1,1.032-.276,1.825,1.825,0,0,1,1.056.312,1.927,1.927,0,0,1,.685.84,2.593,2.593,0,0,1,.876-.851,2.244,2.244,0,0,1,1.151-.3,1.79,1.79,0,0,1,1.4.613,2.247,2.247,0,0,1,.546,1.559v4.117H80.335v-3.732a1.068,1.068,0,0,0-.258-.75.861.861,0,0,0-.666-.283,1.037,1.037,0,0,0-.486.115,1.233,1.233,0,0,0-.413.365v4.285H76.567v-3.732a1.072,1.072,0,0,0-.257-.75.865.865,0,0,0-.666-.283,1.053,1.053,0,0,0-.493.12,1.374,1.374,0,0,0-.42.36v4.285Z"/>
        <path class="f3d9eea9-171d-4f9c-990d-2c2f29103fd0" d="M89.335,504.041a4.044,4.044,0,0,1-1.212.762,3.9,3.9,0,0,1-1.392.234,3.287,3.287,0,0,1-2.316-.925,3.11,3.11,0,0,1-.7-1.02,3.156,3.156,0,0,1-.252-1.259,3.33,3.33,0,0,1,.239-1.272,3.2,3.2,0,0,1,.654-1.02,2.971,2.971,0,0,1,.991-.679,3.122,3.122,0,0,1,1.235-.245,3.032,3.032,0,0,1,1.23.245,2.873,2.873,0,0,1,.96.679,3.112,3.112,0,0,1,.63,1.038,3.706,3.706,0,0,1,.229,1.325v.421H85.375a1.561,1.561,0,0,0,.528.84,1.422,1.422,0,0,0,.924.323,1.8,1.8,0,0,0,.7-.132,1.3,1.3,0,0,0,.523-.383Zm-2.76-3.913a1.088,1.088,0,0,0-.767.289,1.526,1.526,0,0,0-.433.8h2.46a1.479,1.479,0,0,0-.456-.8A1.183,1.183,0,0,0,86.575,500.128Z"/>
        <path class="f3d9eea9-171d-4f9c-990d-2c2f29103fd0" d="M90.847,504.917v-6.192h1.944v1.4a3.013,3.013,0,0,1,.714-1.146,1.388,1.388,0,0,1,.966-.378,2.263,2.263,0,0,1,.336.042,1.682,1.682,0,0,1,.312.115v1.668a2.09,2.09,0,0,0-.42-.138,2.176,2.176,0,0,0-.492-.055,1.656,1.656,0,0,0-.811.21,1.693,1.693,0,0,0-.605.558v3.913Z"/>
        <path class="f3d9eea9-171d-4f9c-990d-2c2f29103fd0" d="M101.863,496.517v8.4h-1.847v-6.48l-1.657.684v-1.633l2.34-.971Z"/>
        <path class="f3d9eea9-171d-4f9c-990d-2c2f29103fd0" d="M35.84,513.908h1.354v.959a2.053,2.053,0,0,1,1.787-1.055,1.89,1.89,0,0,1,1.764,1.163,2.216,2.216,0,0,1,1.99-1.163A1.991,1.991,0,0,1,44.7,516v3.922H43.348v-3.634a1.217,1.217,0,0,0-1.212-1.38,1.432,1.432,0,0,0-1.211.708c.012.132.023.252.023.384v3.922H39.594v-3.634a1.217,1.217,0,0,0-1.212-1.38,1.4,1.4,0,0,0-1.188.684v4.33H35.84Z"/>
        <path class="f3d9eea9-171d-4f9c-990d-2c2f29103fd0" d="M47.887,519.953l-2.267-6.045h1.511l1.523,4.461,1.679-4.461h1.476L48.954,520.9a2.031,2.031,0,0,1-2.135,1.583,2.86,2.86,0,0,1-.683-.084v-1.163a4.9,4.9,0,0,0,.527.048.959.959,0,0,0,.972-.7Z"/>
        <path class="f3d9eea9-171d-4f9c-990d-2c2f29103fd0" d="M54.259,519.149a.84.84,0,1,1-.84-.876A.866.866,0,0,1,54.259,519.149Z"/>
        <path class="f3d9eea9-171d-4f9c-990d-2c2f29103fd0" d="M55.436,518.189c0-1.079.875-1.763,2.29-1.763a3.708,3.708,0,0,1,1.619.372v-.659c0-.792-.455-1.2-1.379-1.2a4.152,4.152,0,0,0-1.751.468l-.48-.984a5.779,5.779,0,0,1,2.494-.611c1.56,0,2.459.792,2.459,2.183v3.922H59.345V519.3a2.511,2.511,0,0,1-1.787.707A1.894,1.894,0,0,1,55.436,518.189Zm2.494.876a2.14,2.14,0,0,0,1.415-.492v-.983a3.11,3.11,0,0,0-1.391-.288c-.767,0-1.248.336-1.248.864C56.706,518.717,57.187,519.065,57.93,519.065Z"/>
        <path class="f3d9eea9-171d-4f9c-990d-2c2f29103fd0" d="M62.335,513.908h1.354v.983a2.184,2.184,0,0,1,1.908-1.079,2.022,2.022,0,0,1,2.075,2.146v3.959H66.316v-3.575A1.294,1.294,0,0,0,65,514.9a1.542,1.542,0,0,0-1.308.72v4.294H62.335Z"/>
        <path class="f3d9eea9-171d-4f9c-990d-2c2f29103fd0" d="M70.854,519.953l-2.266-6.045H70.1l1.523,4.461,1.679-4.461h1.475L71.922,520.9a2.032,2.032,0,0,1-2.135,1.583,2.86,2.86,0,0,1-.683-.084v-1.163a4.9,4.9,0,0,0,.527.048.959.959,0,0,0,.972-.7Z"/>
        <path class="f3d9eea9-171d-4f9c-990d-2c2f29103fd0" d="M80.056,518.177l.816.816a3.126,3.126,0,0,1-2.351,1.044,3.107,3.107,0,0,1,0-6.213,3.239,3.239,0,0,1,2.4,1.008l-.84.875A1.985,1.985,0,0,0,78.569,515a1.928,1.928,0,0,0,.035,3.838A1.846,1.846,0,0,0,80.056,518.177Z"/>
        <path class="f3d9eea9-171d-4f9c-990d-2c2f29103fd0" d="M81.739,518.189c0-1.079.875-1.763,2.29-1.763a3.705,3.705,0,0,1,1.619.372v-.659c0-.792-.455-1.2-1.378-1.2a4.152,4.152,0,0,0-1.751.468l-.48-.984a5.773,5.773,0,0,1,2.494-.611c1.56,0,2.459.792,2.459,2.183v3.922H85.648V519.3a2.509,2.509,0,0,1-1.787.707A1.894,1.894,0,0,1,81.739,518.189Zm2.494.876a2.14,2.14,0,0,0,1.415-.492v-.983a3.1,3.1,0,0,0-1.39-.288c-.768,0-1.248.336-1.248.864C83.01,518.717,83.49,519.065,84.233,519.065Z"/>
        <path class="f3d9eea9-171d-4f9c-990d-2c2f29103fd0" d="M88.734,518.31a3.47,3.47,0,0,0,1.931.683c.72,0,1.212-.324,1.212-.8,0-.371-.252-.575-.828-.683l-1.068-.18c-1.163-.216-1.739-.756-1.739-1.655,0-1.128.924-1.859,2.327-1.859a4.234,4.234,0,0,1,2.363.719l-.636.888a3.28,3.28,0,0,0-1.811-.576c-.624,0-1.031.264-1.031.708,0,.384.216.552.852.659l1.055.192c1.2.228,1.775.78,1.775,1.68a2.2,2.2,0,0,1-2.447,1.955,4.028,4.028,0,0,1-2.59-.816Z"/>
        <path class="f3d9eea9-171d-4f9c-990d-2c2f29103fd0" d="M95.13,514.987H93.919v-1.079H95.13v-1.655l1.355-.288v1.943h1.679v1.079H96.485v3.047c0,.587.228.815.84.815a2.5,2.5,0,0,0,.816-.144v1.14a4.264,4.264,0,0,1-1.164.167c-1.211,0-1.847-.575-1.847-1.679Z"/>
        <path class="f3d9eea9-171d-4f9c-990d-2c2f29103fd0" d="M100.817,519.149a.84.84,0,1,1-1.678,0,.84.84,0,1,1,1.678,0Z"/>
        <path class="f3d9eea9-171d-4f9c-990d-2c2f29103fd0" d="M106.588,519.113a2.31,2.31,0,0,1-1.847.864,3.075,3.075,0,0,1,.084-6.117,2.289,2.289,0,0,1,1.751.791v-3.31l1.356-.228v8.8h-1.344Zm-1.439-.276a1.8,1.8,0,0,0,1.427-.66v-2.53a1.861,1.861,0,0,0-1.427-.648,1.924,1.924,0,0,0,0,3.838Z"/>
        <path class="f3d9eea9-171d-4f9c-990d-2c2f29103fd0" d="M112.4,520.037a3.055,3.055,0,0,1-3.058-3.119,2.96,2.96,0,0,1,2.927-3.106,2.883,2.883,0,0,1,2.841,3.094v.336h-4.437a1.837,1.837,0,0,0,1.8,1.643,1.952,1.952,0,0,0,1.427-.564l.887.828A3.473,3.473,0,0,1,112.4,520.037Zm-1.7-3.622h3.13a1.644,1.644,0,0,0-1.57-1.5A1.616,1.616,0,0,0,110.693,516.415Z"/>
        <path class="f3d9eea9-171d-4f9c-990d-2c2f29103fd0" d="M116.586,518.31a3.465,3.465,0,0,0,1.931.683c.719,0,1.212-.324,1.212-.8,0-.371-.252-.575-.829-.683l-1.067-.18c-1.163-.216-1.739-.756-1.739-1.655,0-1.128.924-1.859,2.327-1.859a4.229,4.229,0,0,1,2.362.719l-.636.888a3.28,3.28,0,0,0-1.81-.576c-.624,0-1.031.264-1.031.708,0,.384.215.552.851.659l1.056.192c1.2.228,1.774.78,1.774,1.68a2.2,2.2,0,0,1-2.446,1.955,4.031,4.031,0,0,1-2.591-.816Z"/>
        <path class="f3d9eea9-171d-4f9c-990d-2c2f29103fd0" d="M122.981,514.987h-1.21v-1.079h1.21v-1.655l1.356-.288v1.943h1.679v1.079h-1.679v3.047c0,.587.227.815.84.815a2.49,2.49,0,0,0,.815-.144v1.14a4.259,4.259,0,0,1-1.164.167c-1.211,0-1.847-.575-1.847-1.679Z"/>
        <path class="f3d9eea9-171d-4f9c-990d-2c2f29103fd0" d="M127.038,511.857a.846.846,0,0,1,1.691,0,.846.846,0,0,1-1.691,0Zm1.523,8.06h-1.355v-6.009h1.355Z"/>
        <path class="f3d9eea9-171d-4f9c-990d-2c2f29103fd0" d="M130.229,513.908h1.355v.983a2.182,2.182,0,0,1,1.907-1.079,2.021,2.021,0,0,1,2.075,2.146v3.959h-1.355v-3.575a1.294,1.294,0,0,0-1.319-1.439,1.541,1.541,0,0,0-1.308.72v4.294h-1.355Z"/>
        <path class="f3d9eea9-171d-4f9c-990d-2c2f29103fd0" d="M136.914,518.189c0-1.079.875-1.763,2.29-1.763a3.705,3.705,0,0,1,1.619.372v-.659c0-.792-.455-1.2-1.379-1.2a4.156,4.156,0,0,0-1.751.468l-.479-.984a5.773,5.773,0,0,1,2.494-.611c1.56,0,2.459.792,2.459,2.183v3.922h-1.344V519.3a2.509,2.509,0,0,1-1.787.707A1.894,1.894,0,0,1,136.914,518.189Zm2.494.876a2.14,2.14,0,0,0,1.415-.492v-.983a3.1,3.1,0,0,0-1.39-.288c-.768,0-1.248.336-1.248.864C138.185,518.717,138.665,519.065,139.408,519.065Z"/>
        <path class="f3d9eea9-171d-4f9c-990d-2c2f29103fd0" d="M144.557,514.987h-1.211v-1.079h1.211v-1.655l1.355-.288v1.943h1.679v1.079h-1.679v3.047c0,.587.228.815.84.815a2.49,2.49,0,0,0,.815-.144v1.14a4.253,4.253,0,0,1-1.164.167c-1.211,0-1.846-.575-1.846-1.679Z"/>
        <path class="f3d9eea9-171d-4f9c-990d-2c2f29103fd0" d="M148.613,511.857a.846.846,0,0,1,1.691,0,.846.846,0,0,1-1.691,0Zm1.523,8.06h-1.355v-6.009h1.355Z"/>
        <path class="f3d9eea9-171d-4f9c-990d-2c2f29103fd0" d="M154.552,513.812a3.114,3.114,0,1,1-3.023,3.106A3,3,0,0,1,154.552,513.812Zm1.678,3.118a1.7,1.7,0,1,0-3.357,0,1.7,1.7,0,1,0,3.357,0Z"/>
        <path class="f3d9eea9-171d-4f9c-990d-2c2f29103fd0" d="M158.981,513.908h1.355v.983a2.181,2.181,0,0,1,1.907-1.079,2.021,2.021,0,0,1,2.075,2.146v3.959h-1.355v-3.575a1.294,1.294,0,0,0-1.319-1.439,1.541,1.541,0,0,0-1.308.72v4.294h-1.355Z"/>
        <path class="f3d9eea9-171d-4f9c-990d-2c2f29103fd0" d="M167.428,514.651a.84.84,0,1,1-.84-.875A.858.858,0,0,1,167.428,514.651Zm0,4.5a.84.84,0,1,1-.84-.876A.866.866,0,0,1,167.428,519.149Z"/>
        <path class="f3d9eea9-171d-4f9c-990d-2c2f29103fd0" d="M170.368,514.651a.84.84,0,1,1-.84-.875A.858.858,0,0,1,170.368,514.651Zm0,4.5a.84.84,0,1,1-.84-.876A.866.866,0,0,1,170.368,519.149Z"/>
        <path class="f3d9eea9-171d-4f9c-990d-2c2f29103fd0" d="M171.568,516.918a2.911,2.911,0,0,1,2.807-3.058,2.261,2.261,0,0,1,1.763.815v-.767h1.343v8.551h-1.355v-3.334a2.333,2.333,0,0,1-1.835.852A2.885,2.885,0,0,1,171.568,516.918Zm3.131,1.919a1.8,1.8,0,0,0,1.427-.66v-2.53A1.863,1.863,0,0,0,174.7,515a1.924,1.924,0,0,0,0,3.838Z"/>
        <path class="f3d9eea9-171d-4f9c-990d-2c2f29103fd0" d="M181.563,519.917h-1.307v-7.029l-1.487.648v-1.163l1.967-.852h.827Z"/>
      </g>
    </g>
    <g>
      <rect class="f429868d-887e-49e2-9a6e-083d411e0e5f" x="267.25" y="480.675" width="215.5" height="55"/>
      <g>
        <path class="f3d9eea9-171d-4f9c-990d-2c2f29103fd0" d="M287.29,503.188a2.12,2.12,0,0,0,1.044-.264,2.827,2.827,0,0,0,.876-.779l1.356,1.284a4.024,4.024,0,0,1-1.464,1.163,4.244,4.244,0,0,1-1.884.445,4.575,4.575,0,0,1-1.752-.336,4.362,4.362,0,0,1-1.4-.912,4.38,4.38,0,0,1-.93-4.783,4.209,4.209,0,0,1,.936-1.374,4.431,4.431,0,0,1,1.4-.911,4.512,4.512,0,0,1,1.746-.337,4.409,4.409,0,0,1,1.932.445,3.9,3.9,0,0,1,1.476,1.188l-1.392,1.319a2.906,2.906,0,0,0-.918-.834,2.232,2.232,0,0,0-1.1-.281,2.167,2.167,0,0,0-.912.192,2.235,2.235,0,0,0-.726.522,2.377,2.377,0,0,0-.48.792,2.784,2.784,0,0,0-.174.989,2.661,2.661,0,0,0,.18.985,2.37,2.37,0,0,0,.5.785,2.259,2.259,0,0,0,.75.516A2.342,2.342,0,0,0,287.29,503.188Z"/>
        <path class="f3d9eea9-171d-4f9c-990d-2c2f29103fd0" d="M291.37,501.833a3.258,3.258,0,0,1,.245-1.272,3.078,3.078,0,0,1,.679-1.015,3.192,3.192,0,0,1,1.025-.671,3.3,3.3,0,0,1,1.279-.247,3.337,3.337,0,0,1,1.284.247,3.181,3.181,0,0,1,1.032.671,3.09,3.09,0,0,1,.678,1.015,3.259,3.259,0,0,1,.246,1.272,3.19,3.19,0,0,1-.252,1.271,3.156,3.156,0,0,1-.685,1.015,3.211,3.211,0,0,1-1.025.672,3.445,3.445,0,0,1-2.557,0,3.1,3.1,0,0,1-1.7-1.7A3.222,3.222,0,0,1,291.37,501.833Zm3.228,1.56a1.217,1.217,0,0,0,.965-.438,1.656,1.656,0,0,0,.378-1.122,1.7,1.7,0,0,0-.378-1.134,1.2,1.2,0,0,0-.965-.45,1.186,1.186,0,0,0-.96.45,1.719,1.719,0,0,0-.372,1.134,1.673,1.673,0,0,0,.372,1.122A1.2,1.2,0,0,0,294.6,503.393Z"/>
        <path class="f3d9eea9-171d-4f9c-990d-2c2f29103fd0" d="M299.073,504.917v-6.192h1.945v1.007a2.541,2.541,0,0,1,.857-.821,2.191,2.191,0,0,1,1.1-.283,1.966,1.966,0,0,1,1.475.6,2.09,2.09,0,0,1,.576,1.518v4.176h-1.944v-3.612a1.213,1.213,0,0,0-.281-.834.957.957,0,0,0-.75-.319,1.283,1.283,0,0,0-.571.126,1.326,1.326,0,0,0-.461.39v4.249Z"/>
        <path class="f3d9eea9-171d-4f9c-990d-2c2f29103fd0" d="M305.985,504.28l.852-1.3a6.893,6.893,0,0,0,1.1.487,3.009,3.009,0,0,0,.888.137,1.315,1.315,0,0,0,.649-.137.415.415,0,0,0,.24-.367.349.349,0,0,0-.139-.288.97.97,0,0,0-.437-.155l-1.189-.217a2.543,2.543,0,0,1-1.361-.624,1.573,1.573,0,0,1-.462-1.175,1.784,1.784,0,0,1,.689-1.488,3.008,3.008,0,0,1,1.9-.54,4.7,4.7,0,0,1,1.284.179,5.417,5.417,0,0,1,1.235.529l-.887,1.236a4.469,4.469,0,0,0-.907-.4,3,3,0,0,0-.87-.132,1.113,1.113,0,0,0-.546.113.354.354,0,0,0-.2.318.325.325,0,0,0,.139.288,1.3,1.3,0,0,0,.5.157l1.164.216a2.661,2.661,0,0,1,1.391.629,1.5,1.5,0,0,1,.468,1.159,1.822,1.822,0,0,1-.2.845,1.976,1.976,0,0,1-.558.673,2.781,2.781,0,0,1-.851.444,3.392,3.392,0,0,1-1.057.162,6.215,6.215,0,0,1-1.571-.192A4.014,4.014,0,0,1,305.985,504.28Z"/>
        <path class="f3d9eea9-171d-4f9c-990d-2c2f29103fd0" d="M314.518,498.725v3.611a1.208,1.208,0,0,0,.281.834.953.953,0,0,0,.75.318,1.281,1.281,0,0,0,.57-.126,1.326,1.326,0,0,0,.462-.389v-4.248h1.944v6.192h-1.944v-1.008a2.541,2.541,0,0,1-.857.821,2.194,2.194,0,0,1-1.1.283,1.967,1.967,0,0,1-1.476-.595,2.093,2.093,0,0,1-.576-1.518v-4.175Z"/>
        <path class="f3d9eea9-171d-4f9c-990d-2c2f29103fd0" d="M320.037,504.917v-6.192h1.944v.983a2.43,2.43,0,0,1,.8-.8,2.006,2.006,0,0,1,1.032-.276,1.825,1.825,0,0,1,1.056.312,1.927,1.927,0,0,1,.685.84,2.593,2.593,0,0,1,.876-.851,2.244,2.244,0,0,1,1.151-.3,1.79,1.79,0,0,1,1.4.613,2.247,2.247,0,0,1,.546,1.559v4.117h-1.944v-3.732a1.068,1.068,0,0,0-.258-.75.861.861,0,0,0-.666-.283,1.037,1.037,0,0,0-.486.115,1.233,1.233,0,0,0-.413.365v4.285h-1.945v-3.732a1.072,1.072,0,0,0-.257-.75.865.865,0,0,0-.666-.283,1.053,1.053,0,0,0-.493.12,1.374,1.374,0,0,0-.42.36v4.285Z"/>
        <path class="f3d9eea9-171d-4f9c-990d-2c2f29103fd0" d="M336.585,504.041a4.044,4.044,0,0,1-1.212.762,3.9,3.9,0,0,1-1.392.234,3.287,3.287,0,0,1-2.316-.925,3.11,3.11,0,0,1-.695-1.02,3.156,3.156,0,0,1-.252-1.259,3.33,3.33,0,0,1,.239-1.272,3.2,3.2,0,0,1,.654-1.02,2.971,2.971,0,0,1,.991-.679,3.122,3.122,0,0,1,1.235-.245,3.032,3.032,0,0,1,1.23.245,2.873,2.873,0,0,1,.96.679,3.112,3.112,0,0,1,.63,1.038,3.706,3.706,0,0,1,.229,1.325v.421h-4.261a1.561,1.561,0,0,0,.528.84,1.422,1.422,0,0,0,.924.323,1.8,1.8,0,0,0,.7-.132,1.3,1.3,0,0,0,.523-.383Zm-2.76-3.913a1.088,1.088,0,0,0-.767.289,1.526,1.526,0,0,0-.433.8h2.46a1.479,1.479,0,0,0-.456-.8A1.183,1.183,0,0,0,333.825,500.128Z"/>
        <path class="f3d9eea9-171d-4f9c-990d-2c2f29103fd0" d="M338.1,504.917v-6.192h1.944v1.4a3.013,3.013,0,0,1,.714-1.146,1.388,1.388,0,0,1,.966-.378,2.263,2.263,0,0,1,.336.042,1.682,1.682,0,0,1,.312.115v1.668a2.09,2.09,0,0,0-.42-.138,2.176,2.176,0,0,0-.492-.055,1.656,1.656,0,0,0-.811.21,1.693,1.693,0,0,0-.605.558v3.913Z"/>
        <path class="f3d9eea9-171d-4f9c-990d-2c2f29103fd0" d="M345.838,504.917V503.6l3.552-3.516a2.23,2.23,0,0,0,.425-.559,1.209,1.209,0,0,0,.138-.558.818.818,0,0,0-.353-.677,1.41,1.41,0,0,0-.882-.27,2.394,2.394,0,0,0-1.057.239,4.443,4.443,0,0,0-1.067.792l-1.032-1.259a5.211,5.211,0,0,1,1.536-1.033,4.237,4.237,0,0,1,1.679-.347,3.291,3.291,0,0,1,2.155.672,2.171,2.171,0,0,1,.822,1.764,2.4,2.4,0,0,1-.265,1.1,4.283,4.283,0,0,1-.828,1.068l-2.424,2.339,3.637-.011v1.572Z"/>
        <path class="f3d9eea9-171d-4f9c-990d-2c2f29103fd0" d="M283.09,513.908h1.354v.959a2.053,2.053,0,0,1,1.787-1.055A1.89,1.89,0,0,1,288,514.975a2.216,2.216,0,0,1,1.99-1.163A1.991,1.991,0,0,1,291.953,516v3.922H290.6v-3.634a1.217,1.217,0,0,0-1.212-1.38,1.432,1.432,0,0,0-1.211.708c.012.132.023.252.023.384v3.922h-1.354v-3.634a1.217,1.217,0,0,0-1.212-1.38,1.4,1.4,0,0,0-1.188.684v4.33H283.09Z"/>
        <path class="f3d9eea9-171d-4f9c-990d-2c2f29103fd0" d="M295.137,519.953l-2.267-6.045h1.511l1.523,4.461,1.679-4.461h1.476L296.2,520.9a2.031,2.031,0,0,1-2.135,1.583,2.86,2.86,0,0,1-.683-.084v-1.163a4.9,4.9,0,0,0,.527.048.959.959,0,0,0,.972-.7Z"/>
        <path class="f3d9eea9-171d-4f9c-990d-2c2f29103fd0" d="M301.509,519.149a.84.84,0,1,1-.84-.876A.866.866,0,0,1,301.509,519.149Z"/>
        <path class="f3d9eea9-171d-4f9c-990d-2c2f29103fd0" d="M302.686,518.189c0-1.079.875-1.763,2.29-1.763a3.708,3.708,0,0,1,1.619.372v-.659c0-.792-.455-1.2-1.379-1.2a4.152,4.152,0,0,0-1.751.468l-.48-.984a5.779,5.779,0,0,1,2.494-.611c1.56,0,2.459.792,2.459,2.183v3.922H306.6V519.3a2.511,2.511,0,0,1-1.787.707A1.894,1.894,0,0,1,302.686,518.189Zm2.494.876a2.14,2.14,0,0,0,1.415-.492v-.983a3.11,3.11,0,0,0-1.391-.288c-.767,0-1.248.336-1.248.864C303.956,518.717,304.437,519.065,305.18,519.065Z"/>
        <path class="f3d9eea9-171d-4f9c-990d-2c2f29103fd0" d="M309.585,513.908h1.354v.983a2.184,2.184,0,0,1,1.908-1.079,2.022,2.022,0,0,1,2.075,2.146v3.959h-1.356v-3.575a1.294,1.294,0,0,0-1.319-1.439,1.542,1.542,0,0,0-1.308.72v4.294h-1.354Z"/>
        <path class="f3d9eea9-171d-4f9c-990d-2c2f29103fd0" d="M318.1,519.953l-2.266-6.045h1.511l1.523,4.461,1.679-4.461h1.475l-2.854,6.992a2.032,2.032,0,0,1-2.135,1.583,2.86,2.86,0,0,1-.683-.084v-1.163a4.9,4.9,0,0,0,.527.048.959.959,0,0,0,.972-.7Z"/>
        <path class="f3d9eea9-171d-4f9c-990d-2c2f29103fd0" d="M327.306,518.177l.816.816a3.126,3.126,0,0,1-2.351,1.044,3.107,3.107,0,0,1,0-6.213,3.239,3.239,0,0,1,2.4,1.008l-.84.875a1.985,1.985,0,0,0-1.511-.708,1.928,1.928,0,0,0,.035,3.838A1.846,1.846,0,0,0,327.306,518.177Z"/>
        <path class="f3d9eea9-171d-4f9c-990d-2c2f29103fd0" d="M328.989,518.189c0-1.079.875-1.763,2.29-1.763a3.705,3.705,0,0,1,1.619.372v-.659c0-.792-.455-1.2-1.378-1.2a4.152,4.152,0,0,0-1.751.468l-.48-.984a5.773,5.773,0,0,1,2.494-.611c1.56,0,2.459.792,2.459,2.183v3.922H332.9V519.3a2.509,2.509,0,0,1-1.787.707A1.894,1.894,0,0,1,328.989,518.189Zm2.494.876a2.14,2.14,0,0,0,1.415-.492v-.983a3.1,3.1,0,0,0-1.39-.288c-.768,0-1.248.336-1.248.864C330.26,518.717,330.74,519.065,331.483,519.065Z"/>
        <path class="f3d9eea9-171d-4f9c-990d-2c2f29103fd0" d="M335.984,518.31a3.47,3.47,0,0,0,1.931.683c.72,0,1.212-.324,1.212-.8,0-.371-.252-.575-.828-.683l-1.068-.18c-1.163-.216-1.739-.756-1.739-1.655,0-1.128.924-1.859,2.327-1.859a4.234,4.234,0,0,1,2.363.719l-.636.888a3.28,3.28,0,0,0-1.811-.576c-.624,0-1.031.264-1.031.708,0,.384.216.552.852.659l1.055.192c1.2.228,1.775.78,1.775,1.68a2.2,2.2,0,0,1-2.447,1.955,4.028,4.028,0,0,1-2.59-.816Z"/>
        <path class="f3d9eea9-171d-4f9c-990d-2c2f29103fd0" d="M342.38,514.987h-1.211v-1.079h1.211v-1.655l1.355-.288v1.943h1.679v1.079h-1.679v3.047c0,.587.228.815.84.815a2.5,2.5,0,0,0,.816-.144v1.14a4.264,4.264,0,0,1-1.164.167c-1.211,0-1.847-.575-1.847-1.679Z"/>
        <path class="f3d9eea9-171d-4f9c-990d-2c2f29103fd0" d="M348.067,519.149a.84.84,0,1,1-1.678,0,.84.84,0,1,1,1.678,0Z"/>
        <path class="f3d9eea9-171d-4f9c-990d-2c2f29103fd0" d="M353.838,519.113a2.31,2.31,0,0,1-1.847.864,3.075,3.075,0,0,1,.084-6.117,2.289,2.289,0,0,1,1.751.791v-3.31l1.356-.228v8.8h-1.344Zm-1.439-.276a1.8,1.8,0,0,0,1.427-.66v-2.53A1.861,1.861,0,0,0,352.4,515a1.924,1.924,0,0,0,0,3.838Z"/>
        <path class="f3d9eea9-171d-4f9c-990d-2c2f29103fd0" d="M359.646,520.037a3.055,3.055,0,0,1-3.058-3.119,2.96,2.96,0,0,1,2.927-3.106,2.883,2.883,0,0,1,2.841,3.094v.336h-4.437a1.837,1.837,0,0,0,1.8,1.643,1.952,1.952,0,0,0,1.427-.564l.887.828A3.473,3.473,0,0,1,359.646,520.037Zm-1.7-3.622h3.13a1.644,1.644,0,0,0-1.57-1.5A1.616,1.616,0,0,0,357.943,516.415Z"/>
        <path class="f3d9eea9-171d-4f9c-990d-2c2f29103fd0" d="M363.836,518.31a3.465,3.465,0,0,0,1.931.683c.719,0,1.212-.324,1.212-.8,0-.371-.252-.575-.829-.683l-1.067-.18c-1.163-.216-1.739-.756-1.739-1.655,0-1.128.924-1.859,2.327-1.859a4.229,4.229,0,0,1,2.362.719l-.636.888a3.28,3.28,0,0,0-1.81-.576c-.624,0-1.031.264-1.031.708,0,.384.215.552.851.659l1.056.192c1.2.228,1.774.78,1.774,1.68a2.2,2.2,0,0,1-2.446,1.955,4.031,4.031,0,0,1-2.591-.816Z"/>
        <path class="f3d9eea9-171d-4f9c-990d-2c2f29103fd0" d="M370.231,514.987h-1.21v-1.079h1.21v-1.655l1.356-.288v1.943h1.679v1.079h-1.679v3.047c0,.587.227.815.84.815a2.49,2.49,0,0,0,.815-.144v1.14a4.259,4.259,0,0,1-1.164.167c-1.211,0-1.847-.575-1.847-1.679Z"/>
        <path class="f3d9eea9-171d-4f9c-990d-2c2f29103fd0" d="M374.288,511.857a.846.846,0,0,1,1.691,0,.846.846,0,0,1-1.691,0Zm1.523,8.06h-1.355v-6.009h1.355Z"/>
        <path class="f3d9eea9-171d-4f9c-990d-2c2f29103fd0" d="M377.479,513.908h1.355v.983a2.182,2.182,0,0,1,1.907-1.079,2.021,2.021,0,0,1,2.075,2.146v3.959h-1.355v-3.575a1.294,1.294,0,0,0-1.319-1.439,1.541,1.541,0,0,0-1.308.72v4.294h-1.355Z"/>
        <path class="f3d9eea9-171d-4f9c-990d-2c2f29103fd0" d="M384.164,518.189c0-1.079.875-1.763,2.29-1.763a3.705,3.705,0,0,1,1.619.372v-.659c0-.792-.455-1.2-1.379-1.2a4.156,4.156,0,0,0-1.751.468l-.479-.984a5.773,5.773,0,0,1,2.494-.611c1.56,0,2.459.792,2.459,2.183v3.922h-1.344V519.3a2.509,2.509,0,0,1-1.787.707A1.894,1.894,0,0,1,384.164,518.189Zm2.494.876a2.14,2.14,0,0,0,1.415-.492v-.983a3.1,3.1,0,0,0-1.39-.288c-.768,0-1.248.336-1.248.864C385.435,518.717,385.915,519.065,386.658,519.065Z"/>
        <path class="f3d9eea9-171d-4f9c-990d-2c2f29103fd0" d="M391.807,514.987H390.6v-1.079h1.211v-1.655l1.355-.288v1.943h1.679v1.079h-1.679v3.047c0,.587.228.815.84.815a2.49,2.49,0,0,0,.815-.144v1.14a4.253,4.253,0,0,1-1.164.167c-1.211,0-1.846-.575-1.846-1.679Z"/>
        <path class="f3d9eea9-171d-4f9c-990d-2c2f29103fd0" d="M395.863,511.857a.846.846,0,0,1,1.691,0,.846.846,0,0,1-1.691,0Zm1.523,8.06h-1.355v-6.009h1.355Z"/>
        <path class="f3d9eea9-171d-4f9c-990d-2c2f29103fd0" d="M401.8,513.812a3.114,3.114,0,1,1-3.023,3.106A3,3,0,0,1,401.8,513.812Zm1.678,3.118a1.7,1.7,0,1,0-3.357,0,1.7,1.7,0,1,0,3.357,0Z"/>
        <path class="f3d9eea9-171d-4f9c-990d-2c2f29103fd0" d="M406.231,513.908h1.355v.983a2.181,2.181,0,0,1,1.907-1.079,2.021,2.021,0,0,1,2.075,2.146v3.959h-1.355v-3.575a1.294,1.294,0,0,0-1.319-1.439,1.541,1.541,0,0,0-1.308.72v4.294h-1.355Z"/>
        <path class="f3d9eea9-171d-4f9c-990d-2c2f29103fd0" d="M414.678,514.651a.84.84,0,1,1-.84-.875A.858.858,0,0,1,414.678,514.651Zm0,4.5a.84.84,0,1,1-.84-.876A.866.866,0,0,1,414.678,519.149Z"/>
        <path class="f3d9eea9-171d-4f9c-990d-2c2f29103fd0" d="M417.618,514.651a.84.84,0,1,1-.84-.875A.858.858,0,0,1,417.618,514.651Zm0,4.5a.84.84,0,1,1-.84-.876A.866.866,0,0,1,417.618,519.149Z"/>
        <path class="f3d9eea9-171d-4f9c-990d-2c2f29103fd0" d="M418.818,516.918a2.911,2.911,0,0,1,2.807-3.058,2.261,2.261,0,0,1,1.763.815v-.767h1.343v8.551h-1.355v-3.334a2.333,2.333,0,0,1-1.835.852A2.885,2.885,0,0,1,418.818,516.918Zm3.131,1.919a1.8,1.8,0,0,0,1.427-.66v-2.53a1.863,1.863,0,0,0-1.427-.648,1.924,1.924,0,0,0,0,3.838Z"/>
        <path class="f3d9eea9-171d-4f9c-990d-2c2f29103fd0" d="M426.187,518.969l3.442-3.6a2.247,2.247,0,0,0,.815-1.583,1.368,1.368,0,0,0-1.535-1.235,3.025,3.025,0,0,0-2.171,1.031l-.743-.9a4.247,4.247,0,0,1,2.95-1.272c1.644,0,2.771.936,2.771,2.291a3.2,3.2,0,0,1-1.2,2.338l-2.687,2.771,4.042-.024v1.128h-5.685Z"/>
      </g>
    </g>
    <g>
      <g>
        <line class="a72b663a-4a7d-4d1e-b085-67b44f03bf27" x1="251.5" y1="74.794" x2="251.5" y2="153.76"/>
        <polygon class="f3d9eea9-171d-4f9c-990d-2c2f29103fd0" points="246.514 152.301 251.5 160.936 256.486 152.301 246.514 152.301"/>
      </g>
      <rect class="b4c42cb8-5410-4bea-9053-66d0732ab648" x="215.913" y="111.117" width="71.174" height="30.699"/>
      <g>
        <text class="b62a894e-439b-4959-8989-574cf7f70f90" transform="translate(224.757 135.049)">Message 1-N</text>
        <g>
          <polygon class="bc2e639e-bee8-4c70-9b25-d769e81d7c5c" points="263.25 119.996 239.75 119.996 239.75 93.789 245.625 87.965 263.25 87.965 263.25 119.996"/>
          <polygon class="a5a02778-f84c-48ba-90a1-b3511655b28e" points="245.625 93.789 239.75 93.789 245.625 87.965 245.625 93.789"/>
          <line class="a5a02778-f84c-48ba-90a1-b3511655b28e" x1="244.157" y1="98.157" x2="251.5" y2="98.157"/>
          <line class="a5a02778-f84c-48ba-90a1-b3511655b28e" x1="244.157" y1="102.525" x2="258.844" y2="102.525"/>
          <line class="a5a02778-f84c-48ba-90a1-b3511655b28e" x1="244.157" y1="106.893" x2="258.844" y2="106.893"/>
          <line class="a5a02778-f84c-48ba-90a1-b3511655b28e" x1="244.157" y1="111.26" x2="258.844" y2="111.26"/>
        </g>
      </g>
    </g>
    <rect class="f429868d-887e-49e2-9a6e-083d411e0e5f" y="163.533" width="503" height="248.5"/>
    <text class="b69373db-add7-40f1-8de7-d2c769ca716a" transform="translate(20 193.62)">Broker</text>
    <g>
      <rect class="e636f8c9-2842-41cf-aa7a-7892c71cbec8" x="143.75" y="183.482" width="215.5" height="60"/>
      <g>
        <path class="b4c42cb8-5410-4bea-9053-66d0732ab648" d="M158.774,207.724l3.276-8.4H164.4l3.228,8.4H165.4l-.7-2H161.63l-.708,2Zm3.42-3.6h1.956l-.972-2.783Z"/>
        <path class="b4c42cb8-5410-4bea-9053-66d0732ab648" d="M172.694,207.724v-.8a2.1,2.1,0,0,1-.786.612,2.452,2.452,0,0,1-2.1-.017,2.685,2.685,0,0,1-.87-.672,3.258,3.258,0,0,1-.582-1,3.44,3.44,0,0,1-.216-1.225,3.33,3.33,0,0,1,.221-1.218,3.088,3.088,0,0,1,.613-.99,2.931,2.931,0,0,1,.918-.666,2.632,2.632,0,0,1,1.128-.246,2.225,2.225,0,0,1,.912.193,2.1,2.1,0,0,1,.743.551v-3.095l1.944-.3v8.88Zm-2.652-3.1a1.5,1.5,0,0,0,.427,1.087,1.4,1.4,0,0,0,1.05.437,1.531,1.531,0,0,0,1.151-.492v-2.088a1.655,1.655,0,0,0-.522-.353,1.581,1.581,0,0,0-.629-.126,1.4,1.4,0,0,0-1.057.437A1.529,1.529,0,0,0,170.042,204.627Z"/>
        <path class="b4c42cb8-5410-4bea-9053-66d0732ab648" d="M180.41,207.724v-.8a2.1,2.1,0,0,1-.786.612,2.452,2.452,0,0,1-2.1-.017,2.7,2.7,0,0,1-.871-.672,3.3,3.3,0,0,1-.582-1,3.462,3.462,0,0,1-.215-1.225,3.33,3.33,0,0,1,.221-1.218,3.088,3.088,0,0,1,.613-.99,2.919,2.919,0,0,1,.918-.666,2.631,2.631,0,0,1,1.127-.246,2.23,2.23,0,0,1,.913.193,2.1,2.1,0,0,1,.743.551v-3.095l1.944-.3v8.88Zm-2.652-3.1a1.494,1.494,0,0,0,.427,1.087,1.4,1.4,0,0,0,1.049.437,1.531,1.531,0,0,0,1.152-.492v-2.088a1.667,1.667,0,0,0-.522-.353,1.582,1.582,0,0,0-.63-.126,1.4,1.4,0,0,0-1.056.437A1.525,1.525,0,0,0,177.758,204.627Z"/>
        <path class="b4c42cb8-5410-4bea-9053-66d0732ab648" d="M183.842,207.724v-6.193h1.944v1.405a3.01,3.01,0,0,1,.714-1.147,1.388,1.388,0,0,1,.966-.378,2.385,2.385,0,0,1,.336.042,1.744,1.744,0,0,1,.312.114v1.668a2.135,2.135,0,0,0-.42-.137,2.235,2.235,0,0,0-.492-.055,1.642,1.642,0,0,0-.81.21,1.7,1.7,0,0,0-.606.559v3.912Z"/>
        <path class="b4c42cb8-5410-4bea-9053-66d0732ab648" d="M194.737,206.848a4.027,4.027,0,0,1-1.212.761,3.853,3.853,0,0,1-1.391.235,3.315,3.315,0,0,1-1.279-.246,3.276,3.276,0,0,1-1.038-.679,3.11,3.11,0,0,1-.695-1.02,3.156,3.156,0,0,1-.252-1.259,3.342,3.342,0,0,1,.239-1.273,3.219,3.219,0,0,1,.655-1.019,2.971,2.971,0,0,1,.99-.679,3.129,3.129,0,0,1,1.235-.245,3.033,3.033,0,0,1,1.231.245,2.9,2.9,0,0,1,.96.679,3.135,3.135,0,0,1,.63,1.038,3.727,3.727,0,0,1,.228,1.325v.421h-4.261a1.553,1.553,0,0,0,.529.84,1.412,1.412,0,0,0,.923.323,1.8,1.8,0,0,0,.7-.132,1.306,1.306,0,0,0,.522-.384Zm-2.759-3.912a1.086,1.086,0,0,0-.768.288,1.531,1.531,0,0,0-.433.8h2.46a1.479,1.479,0,0,0-.456-.8A1.175,1.175,0,0,0,191.978,202.936Z"/>
        <path class="b4c42cb8-5410-4bea-9053-66d0732ab648" d="M195.745,207.087l.852-1.3a6.748,6.748,0,0,0,1.1.486,2.978,2.978,0,0,0,.888.138,1.3,1.3,0,0,0,.648-.138.413.413,0,0,0,.241-.366.348.348,0,0,0-.139-.288.97.97,0,0,0-.438-.155l-1.188-.217a2.539,2.539,0,0,1-1.361-.624,1.575,1.575,0,0,1-.462-1.176,1.781,1.781,0,0,1,.689-1.487,3.013,3.013,0,0,1,1.9-.54,4.668,4.668,0,0,1,1.285.18,5.344,5.344,0,0,1,1.235.528l-.888,1.235a4.487,4.487,0,0,0-.906-.395,3,3,0,0,0-.87-.132,1.11,1.11,0,0,0-.546.113.353.353,0,0,0-.2.318.331.331,0,0,0,.138.289,1.334,1.334,0,0,0,.5.156l1.165.216a2.653,2.653,0,0,1,1.391.63,1.5,1.5,0,0,1,.468,1.158,1.825,1.825,0,0,1-.2.845,1.985,1.985,0,0,1-.558.672,2.782,2.782,0,0,1-.851.445,3.4,3.4,0,0,1-1.057.162,6.164,6.164,0,0,1-1.571-.193A3.992,3.992,0,0,1,195.745,207.087Z"/>
        <path class="b4c42cb8-5410-4bea-9053-66d0732ab648" d="M201.877,207.087l.852-1.3a6.748,6.748,0,0,0,1.1.486,2.978,2.978,0,0,0,.888.138,1.3,1.3,0,0,0,.648-.138.412.412,0,0,0,.24-.366.35.35,0,0,0-.138-.288.975.975,0,0,0-.438-.155l-1.188-.217a2.546,2.546,0,0,1-1.362-.624,1.579,1.579,0,0,1-.462-1.176,1.782,1.782,0,0,1,.69-1.487,3.013,3.013,0,0,1,1.9-.54,4.656,4.656,0,0,1,1.284.18,5.351,5.351,0,0,1,1.236.528l-.888,1.235a4.487,4.487,0,0,0-.906-.395,3,3,0,0,0-.87-.132,1.11,1.11,0,0,0-.546.113.353.353,0,0,0-.2.318.331.331,0,0,0,.138.289,1.334,1.334,0,0,0,.5.156l1.164.216a2.653,2.653,0,0,1,1.392.63,1.5,1.5,0,0,1,.468,1.158,1.838,1.838,0,0,1-.2.845,1.985,1.985,0,0,1-.558.672,2.788,2.788,0,0,1-.852.445,3.385,3.385,0,0,1-1.056.162,6.177,6.177,0,0,1-1.572-.193A4,4,0,0,1,201.877,207.087Z"/>
        <path class="b4c42cb8-5410-4bea-9053-66d0732ab648" d="M159.59,216.715h1.354v.959a2.053,2.053,0,0,1,1.787-1.055,1.888,1.888,0,0,1,1.764,1.163,2.216,2.216,0,0,1,1.99-1.163,1.992,1.992,0,0,1,1.968,2.183v3.922H167.1V219.09a1.217,1.217,0,0,0-1.212-1.38,1.432,1.432,0,0,0-1.211.708c.012.132.023.252.023.384v3.922h-1.354V219.09a1.217,1.217,0,0,0-1.212-1.38,1.4,1.4,0,0,0-1.188.684v4.33H159.59Z"/>
        <path class="b4c42cb8-5410-4bea-9053-66d0732ab648" d="M171.637,222.76l-2.267-6.045h1.511l1.523,4.461,1.679-4.461h1.476l-2.855,6.992a2.031,2.031,0,0,1-2.135,1.583,2.86,2.86,0,0,1-.683-.084v-1.163a4.9,4.9,0,0,0,.527.048.959.959,0,0,0,.972-.7Z"/>
        <path class="b4c42cb8-5410-4bea-9053-66d0732ab648" d="M178.009,221.956a.84.84,0,1,1-.84-.876A.867.867,0,0,1,178.009,221.956Z"/>
        <path class="b4c42cb8-5410-4bea-9053-66d0732ab648" d="M179.186,221c0-1.079.875-1.763,2.29-1.763a3.722,3.722,0,0,1,1.619.372v-.66c0-.791-.455-1.2-1.379-1.2a4.152,4.152,0,0,0-1.751.468l-.48-.984a5.779,5.779,0,0,1,2.494-.611c1.56,0,2.459.791,2.459,2.183v3.922H183.1v-.613a2.5,2.5,0,0,1-1.787.708A1.894,1.894,0,0,1,179.186,221Zm2.494.876a2.14,2.14,0,0,0,1.415-.492V220.4a3.11,3.11,0,0,0-1.391-.288c-.767,0-1.248.336-1.248.865C180.456,221.524,180.937,221.872,181.68,221.872Z"/>
        <path class="b4c42cb8-5410-4bea-9053-66d0732ab648" d="M186.085,216.715h1.354v.983a2.182,2.182,0,0,1,1.908-1.079,2.022,2.022,0,0,1,2.075,2.147v3.958h-1.356v-3.575a1.293,1.293,0,0,0-1.319-1.439,1.542,1.542,0,0,0-1.308.72v4.294h-1.354Z"/>
        <path class="b4c42cb8-5410-4bea-9053-66d0732ab648" d="M194.6,222.76l-2.266-6.045h1.511l1.523,4.461,1.679-4.461h1.475l-2.854,6.992a2.032,2.032,0,0,1-2.135,1.583,2.86,2.86,0,0,1-.683-.084v-1.163a4.9,4.9,0,0,0,.527.048.96.96,0,0,0,.972-.7Z"/>
        <path class="b4c42cb8-5410-4bea-9053-66d0732ab648" d="M203.806,220.984l.816.816a3.13,3.13,0,0,1-2.351,1.044,3.107,3.107,0,0,1,0-6.213,3.236,3.236,0,0,1,2.4,1.008l-.84.875a1.985,1.985,0,0,0-1.511-.708,1.928,1.928,0,0,0,.035,3.838A1.846,1.846,0,0,0,203.806,220.984Z"/>
        <path class="b4c42cb8-5410-4bea-9053-66d0732ab648" d="M205.489,221c0-1.079.875-1.763,2.29-1.763a3.719,3.719,0,0,1,1.619.372v-.66c0-.791-.455-1.2-1.378-1.2a4.152,4.152,0,0,0-1.751.468l-.48-.984a5.773,5.773,0,0,1,2.494-.611c1.56,0,2.459.791,2.459,2.183v3.922H209.4v-.613a2.5,2.5,0,0,1-1.787.708A1.894,1.894,0,0,1,205.489,221Zm2.494.876a2.14,2.14,0,0,0,1.415-.492V220.4a3.1,3.1,0,0,0-1.39-.288c-.768,0-1.248.336-1.248.865C206.76,221.524,207.24,221.872,207.983,221.872Z"/>
        <path class="b4c42cb8-5410-4bea-9053-66d0732ab648" d="M212.484,221.116a3.464,3.464,0,0,0,1.931.684c.72,0,1.212-.323,1.212-.8,0-.371-.252-.575-.828-.684l-1.068-.179c-1.163-.216-1.739-.756-1.739-1.655,0-1.127.924-1.859,2.327-1.859a4.234,4.234,0,0,1,2.363.719l-.636.888a3.28,3.28,0,0,0-1.811-.576c-.624,0-1.031.264-1.031.707,0,.384.216.552.852.661l1.055.191c1.2.229,1.775.78,1.775,1.68a2.2,2.2,0,0,1-2.447,1.955,4.022,4.022,0,0,1-2.59-.817Z"/>
        <path class="b4c42cb8-5410-4bea-9053-66d0732ab648" d="M218.88,217.794h-1.211v-1.079h1.211V215.06l1.355-.289v1.944h1.679v1.079h-1.679v3.047c0,.587.228.815.84.815a2.5,2.5,0,0,0,.816-.144v1.139a4.227,4.227,0,0,1-1.164.168c-1.211,0-1.847-.575-1.847-1.678Z"/>
        <path class="b4c42cb8-5410-4bea-9053-66d0732ab648" d="M224.567,221.956a.84.84,0,1,1-1.678,0,.84.84,0,1,1,1.678,0Z"/>
        <path class="b4c42cb8-5410-4bea-9053-66d0732ab648" d="M230.338,221.92a2.309,2.309,0,0,1-1.847.863,3.074,3.074,0,0,1,.084-6.116,2.289,2.289,0,0,1,1.751.791v-3.31l1.356-.228v8.8h-1.344Zm-1.439-.276a1.8,1.8,0,0,0,1.427-.66v-2.53a1.861,1.861,0,0,0-1.427-.648,1.924,1.924,0,0,0,0,3.838Z"/>
        <path class="b4c42cb8-5410-4bea-9053-66d0732ab648" d="M236.146,222.844a3.055,3.055,0,0,1-3.058-3.119,2.96,2.96,0,0,1,2.927-3.106,2.883,2.883,0,0,1,2.841,3.094v.336h-4.437a1.837,1.837,0,0,0,1.8,1.643,1.952,1.952,0,0,0,1.427-.564l.887.828A3.477,3.477,0,0,1,236.146,222.844Zm-1.7-3.622h3.13a1.644,1.644,0,0,0-1.57-1.5A1.616,1.616,0,0,0,234.443,219.222Z"/>
        <path class="b4c42cb8-5410-4bea-9053-66d0732ab648" d="M240.336,221.116a3.46,3.46,0,0,0,1.931.684c.719,0,1.212-.323,1.212-.8,0-.371-.252-.575-.829-.684l-1.067-.179c-1.163-.216-1.739-.756-1.739-1.655,0-1.127.924-1.859,2.327-1.859a4.229,4.229,0,0,1,2.362.719l-.636.888a3.28,3.28,0,0,0-1.81-.576c-.624,0-1.031.264-1.031.707,0,.384.215.552.851.661l1.056.191c1.2.229,1.774.78,1.774,1.68a2.2,2.2,0,0,1-2.446,1.955,4.025,4.025,0,0,1-2.591-.817Z"/>
        <path class="b4c42cb8-5410-4bea-9053-66d0732ab648" d="M246.731,217.794h-1.21v-1.079h1.21V215.06l1.356-.289v1.944h1.679v1.079h-1.679v3.047c0,.587.227.815.84.815a2.49,2.49,0,0,0,.815-.144v1.139a4.222,4.222,0,0,1-1.164.168c-1.211,0-1.847-.575-1.847-1.678Z"/>
        <path class="b4c42cb8-5410-4bea-9053-66d0732ab648" d="M250.788,214.664a.846.846,0,0,1,1.691,0,.846.846,0,0,1-1.691,0Zm1.523,8.06h-1.355v-6.009h1.355Z"/>
        <path class="b4c42cb8-5410-4bea-9053-66d0732ab648" d="M253.979,216.715h1.355v.983a2.18,2.18,0,0,1,1.907-1.079,2.022,2.022,0,0,1,2.075,2.147v3.958h-1.355v-3.575a1.294,1.294,0,0,0-1.319-1.439,1.541,1.541,0,0,0-1.308.72v4.294h-1.355Z"/>
        <path class="b4c42cb8-5410-4bea-9053-66d0732ab648" d="M260.664,221c0-1.079.875-1.763,2.29-1.763a3.719,3.719,0,0,1,1.619.372v-.66c0-.791-.455-1.2-1.379-1.2a4.156,4.156,0,0,0-1.751.468l-.479-.984a5.773,5.773,0,0,1,2.494-.611c1.56,0,2.459.791,2.459,2.183v3.922h-1.344v-.613a2.5,2.5,0,0,1-1.787.708A1.894,1.894,0,0,1,260.664,221Zm2.494.876a2.14,2.14,0,0,0,1.415-.492V220.4a3.1,3.1,0,0,0-1.39-.288c-.768,0-1.248.336-1.248.865C261.935,221.524,262.415,221.872,263.158,221.872Z"/>
        <path class="b4c42cb8-5410-4bea-9053-66d0732ab648" d="M268.307,217.794H267.1v-1.079h1.211V215.06l1.355-.289v1.944h1.679v1.079h-1.679v3.047c0,.587.228.815.84.815a2.49,2.49,0,0,0,.815-.144v1.139a4.216,4.216,0,0,1-1.164.168c-1.211,0-1.846-.575-1.846-1.678Z"/>
        <path class="b4c42cb8-5410-4bea-9053-66d0732ab648" d="M272.363,214.664a.846.846,0,0,1,1.691,0,.846.846,0,0,1-1.691,0Zm1.523,8.06h-1.355v-6.009h1.355Z"/>
        <path class="b4c42cb8-5410-4bea-9053-66d0732ab648" d="M278.3,216.619a3.114,3.114,0,1,1-3.023,3.106A3,3,0,0,1,278.3,216.619Zm1.678,3.118a1.7,1.7,0,1,0-3.357,0,1.7,1.7,0,1,0,3.357,0Z"/>
        <path class="b4c42cb8-5410-4bea-9053-66d0732ab648" d="M282.731,216.715h1.355v.983a2.179,2.179,0,0,1,1.907-1.079,2.022,2.022,0,0,1,2.075,2.147v3.958h-1.355v-3.575a1.294,1.294,0,0,0-1.319-1.439,1.541,1.541,0,0,0-1.308.72v4.294h-1.355Z"/>
      </g>
    </g>
    <g>
      <polyline class="a72b663a-4a7d-4d1e-b085-67b44f03bf27" points="375 257.445 375 213.482 359.25 213.482"/>
      <polygon class="f3d9eea9-171d-4f9c-990d-2c2f29103fd0" points="379.986 255.986 375 264.621 370.014 255.986 379.986 255.986"/>
    </g>
    <g>
      <polyline class="a72b663a-4a7d-4d1e-b085-67b44f03bf27" points="127.75 257.445 127.75 213.482 143.847 213.482"/>
      <polygon class="f3d9eea9-171d-4f9c-990d-2c2f29103fd0" points="132.737 255.986 127.75 264.621 122.764 255.986 132.737 255.986"/>
    </g>
    <g>
      <rect class="b4c42cb8-5410-4bea-9053-66d0732ab648" x="267.25" y="267.315" width="215.5" height="125"/>
      <g>
        <path class="f3d9eea9-171d-4f9c-990d-2c2f29103fd0" d="M291.465,287.318a4.322,4.322,0,0,1-1.188,3l.732.876-1.476,1.008-.732-.876a3.983,3.983,0,0,1-.8.24,4.486,4.486,0,0,1-.87.084,4.361,4.361,0,0,1-1.71-.336,4.207,4.207,0,0,1-2.3-2.3,4.461,4.461,0,0,1,0-3.4,4.2,4.2,0,0,1,2.3-2.3,4.379,4.379,0,0,1,1.71-.336,4.326,4.326,0,0,1,3.078,1.254,4.284,4.284,0,0,1,.918,1.38A4.334,4.334,0,0,1,291.465,287.318Zm-3.192.588.684.828a2.573,2.573,0,0,0,.276-.654,3.031,3.031,0,0,0-.072-1.752,2.438,2.438,0,0,0-.462-.792,2.16,2.16,0,0,0-.7-.521,2.085,2.085,0,0,0-1.752,0,2.16,2.16,0,0,0-.7.521,2.438,2.438,0,0,0-.462.792,3,3,0,0,0,0,1.981,2.428,2.428,0,0,0,.462.792,2.174,2.174,0,0,0,.7.521,2.032,2.032,0,0,0,.876.192,1.689,1.689,0,0,0,.2-.011l.2-.025-.72-.864Z"/>
        <path class="f3d9eea9-171d-4f9c-990d-2c2f29103fd0" d="M294.657,285.326v3.612a1.213,1.213,0,0,0,.281.834.956.956,0,0,0,.75.318,1.286,1.286,0,0,0,.571-.126,1.318,1.318,0,0,0,.462-.39v-4.248h1.944v6.193h-1.944v-1.008a2.553,2.553,0,0,1-.858.821,2.179,2.179,0,0,1-1.1.282,1.969,1.969,0,0,1-1.476-.593,2.094,2.094,0,0,1-.576-1.519v-4.176Z"/>
        <path class="f3d9eea9-171d-4f9c-990d-2c2f29103fd0" d="M305.769,290.643a4.052,4.052,0,0,1-1.212.761,3.859,3.859,0,0,1-1.392.235,3.307,3.307,0,0,1-1.278-.246,3.265,3.265,0,0,1-1.038-.679,3.113,3.113,0,0,1-.7-1.02,3.156,3.156,0,0,1-.252-1.259,3.323,3.323,0,0,1,.24-1.273,3.217,3.217,0,0,1,.654-1.019,2.957,2.957,0,0,1,.99-.679,3.13,3.13,0,0,1,1.236-.245,3.032,3.032,0,0,1,1.23.245,2.883,2.883,0,0,1,.96.679,3.119,3.119,0,0,1,.63,1.038,3.727,3.727,0,0,1,.228,1.325v.421h-4.26a1.546,1.546,0,0,0,.528.84,1.42,1.42,0,0,0,.924.323,1.8,1.8,0,0,0,.7-.132,1.3,1.3,0,0,0,.522-.384Zm-2.76-3.913a1.086,1.086,0,0,0-.768.289,1.53,1.53,0,0,0-.432.8h2.46a1.487,1.487,0,0,0-.457-.8A1.176,1.176,0,0,0,303.009,286.73Z"/>
        <path class="f3d9eea9-171d-4f9c-990d-2c2f29103fd0" d="M309.177,285.326v3.612a1.213,1.213,0,0,0,.281.834.953.953,0,0,0,.75.318,1.281,1.281,0,0,0,.57-.126,1.318,1.318,0,0,0,.462-.39v-4.248h1.945v6.193H311.24v-1.008a2.541,2.541,0,0,1-.857.821,2.18,2.18,0,0,1-1.1.282,1.967,1.967,0,0,1-1.475-.593,2.1,2.1,0,0,1-.577-1.519v-4.176Z"/>
        <path class="f3d9eea9-171d-4f9c-990d-2c2f29103fd0" d="M320.288,290.643a4.039,4.039,0,0,1-1.212.761,3.853,3.853,0,0,1-1.391.235,3.315,3.315,0,0,1-1.279-.246,3.276,3.276,0,0,1-1.038-.679,3.11,3.11,0,0,1-.695-1.02,3.156,3.156,0,0,1-.252-1.259,3.342,3.342,0,0,1,.239-1.273,3.217,3.217,0,0,1,.654-1.019,2.971,2.971,0,0,1,.991-.679,3.126,3.126,0,0,1,1.235-.245,3.04,3.04,0,0,1,1.231.245,2.869,2.869,0,0,1,.959.679,3.1,3.1,0,0,1,.63,1.038,3.706,3.706,0,0,1,.229,1.325v.421h-4.261a1.558,1.558,0,0,0,.528.84,1.422,1.422,0,0,0,.924.323,1.792,1.792,0,0,0,.7-.132,1.309,1.309,0,0,0,.523-.384Zm-2.76-3.913a1.086,1.086,0,0,0-.767.289,1.531,1.531,0,0,0-.433.8h2.46a1.479,1.479,0,0,0-.456-.8A1.178,1.178,0,0,0,317.528,286.73Z"/>
        <path class="f3d9eea9-171d-4f9c-990d-2c2f29103fd0" d="M282.766,303.768a2.669,2.669,0,0,1,2.575-2.8,2.074,2.074,0,0,1,1.617.748v-.7h1.231v7.844h-1.243v-3.059a2.137,2.137,0,0,1-1.682.781A2.645,2.645,0,0,1,282.766,303.768Zm2.872,1.76a1.647,1.647,0,0,0,1.308-.605V302.6a1.707,1.707,0,0,0-1.308-.594,1.764,1.764,0,0,0,0,3.52Z"/>
        <path class="f3d9eea9-171d-4f9c-990d-2c2f29103fd0" d="M289.521,305.649l3.157-3.3a2.062,2.062,0,0,0,.748-1.453,1.255,1.255,0,0,0-1.408-1.132,2.772,2.772,0,0,0-1.992.946l-.682-.825a3.9,3.9,0,0,1,2.707-1.167c1.507,0,2.541.858,2.541,2.1a2.941,2.941,0,0,1-1.1,2.146l-2.464,2.541,3.707-.022v1.035h-5.213Z"/>
        <path class="f3d9eea9-171d-4f9c-990d-2c2f29103fd0" d="M302.1,298.7l.485.847a5.988,5.988,0,0,0-3.169,5.358,4.169,4.169,0,0,0,1.376,3.289l-.8.727a4.8,4.8,0,0,1-1.682-3.895A6.953,6.953,0,0,1,302.1,298.7Z"/>
        <path class="f3d9eea9-171d-4f9c-990d-2c2f29103fd0" d="M302.434,305.066c0-1.078.847-1.771,2.168-1.771a3.551,3.551,0,0,1,1.627.385l.1-.462c.188-.847-.209-1.265-1.177-1.265a4.16,4.16,0,0,0-1.5.341l-.3-.913a5.976,5.976,0,0,1,2.09-.451c1.607,0,2.4.858,2.1,2.244l-.738,3.345H305.6l.11-.5a2.406,2.406,0,0,1-1.508.561C303.127,306.584,302.434,305.99,302.434,305.066Zm2.212.649a2.022,2.022,0,0,0,1.22-.4l.209-.935a2.691,2.691,0,0,0-1.32-.286c-.715,0-1.177.341-1.177.858C303.578,305.44,303.963,305.715,304.646,305.715Z"/>
        <path class="f3d9eea9-171d-4f9c-990d-2c2f29103fd0" d="M309.474,301.007h1.231l-.176.825a2.271,2.271,0,0,1,1.761-.892,1.542,1.542,0,0,1,1.54,2.091l-.748,3.488H311.86l.694-3.2c.187-.824-.2-1.4-.957-1.4a1.63,1.63,0,0,0-1.222.594l-.869,4h-1.232Z"/>
        <path class="f3d9eea9-171d-4f9c-990d-2c2f29103fd0" d="M315.975,306.6l-.88-5.589h1.276l.55,4.181,2.409-4.181h1.342l-3.883,6.5a2.305,2.305,0,0,1-2.091,1.342,2.811,2.811,0,0,1-.769-.122l.219-1.055a2.538,2.538,0,0,0,.5.065,1.054,1.054,0,0,0,1-.572Z"/>
        <path class="f3d9eea9-171d-4f9c-990d-2c2f29103fd0" d="M324.61,305.044l.594.781a3.03,3.03,0,0,1-2.068.8,2.4,2.4,0,0,1-2.443-2.5,3.118,3.118,0,0,1,3-3.2,2.577,2.577,0,0,1,2.179,1.111l-.88.726a1.481,1.481,0,0,0-1.331-.738,1.906,1.906,0,0,0-1.75,2,1.406,1.406,0,0,0,1.42,1.507A1.862,1.862,0,0,0,324.61,305.044Z"/>
        <path class="f3d9eea9-171d-4f9c-990d-2c2f29103fd0" d="M326.083,305.066c0-1.078.848-1.771,2.168-1.771a3.555,3.555,0,0,1,1.628.385l.1-.462c.187-.847-.209-1.265-1.177-1.265a4.16,4.16,0,0,0-1.5.341l-.3-.913a5.976,5.976,0,0,1,2.09-.451c1.606,0,2.4.858,2.1,2.244l-.737,3.345h-1.21l.11-.5a2.406,2.406,0,0,1-1.508.561C326.776,306.584,326.083,305.99,326.083,305.066Zm2.212.649a2.025,2.025,0,0,0,1.221-.4l.209-.935a2.7,2.7,0,0,0-1.321-.286c-.715,0-1.176.341-1.176.858C327.228,305.44,327.612,305.715,328.3,305.715Z"/>
        <path class="f3d9eea9-171d-4f9c-990d-2c2f29103fd0" d="M332.419,304.923a2.676,2.676,0,0,0,1.782.76c.583,0,1.023-.33,1.023-.76,0-.286-.187-.462-.649-.583l-.935-.253c-.859-.232-1.287-.715-1.287-1.43,0-1.067.8-1.738,2.068-1.738a3.478,3.478,0,0,1,2.244.813l-.682.771a2.779,2.779,0,0,0-1.639-.649c-.561,0-.9.252-.9.649,0,.319.165.473.639.6l.935.254c.913.253,1.353.693,1.353,1.386a2.009,2.009,0,0,1-2.189,1.893,3.519,3.519,0,0,1-2.443-.925Z"/>
        <path class="f3d9eea9-171d-4f9c-990d-2c2f29103fd0" d="M338.756,302h-1.078l.219-.99h1.068l.318-1.519,1.287-.263-.384,1.782h1.506l-.219.99h-1.5l-.594,2.761c-.132.572.065.792.692.792a2.358,2.358,0,0,0,.628-.088l-.221,1.034a4.022,4.022,0,0,1-.934.11c-1.145,0-1.661-.583-1.431-1.627Z"/>
        <path class="f3d9eea9-171d-4f9c-990d-2c2f29103fd0" d="M341.472,308.917l-.484-.848a5.987,5.987,0,0,0,3.168-5.357,4.166,4.166,0,0,0-1.375-3.29l.8-.726a4.8,4.8,0,0,1,1.684,3.895A6.956,6.956,0,0,1,341.472,308.917Z"/>
      </g>
      <g>
        <g>
          <polyline class="a2656a7f-605f-459a-a4ae-d8e38cd53c05" points="319.28 354.716 319.28 356.216 317.78 356.216"/>
          <line class="b8be379a-eb53-4509-8bc8-9d079aef9ddc" x1="314.851" y1="356.216" x2="298.744" y2="356.216"/>
          <polyline class="a2656a7f-605f-459a-a4ae-d8e38cd53c05" points="297.28 356.216 295.78 356.216 295.78 354.716"/>
          <line class="be1962fd-f30f-4c54-8032-a98e21fce069" x1="295.78" y1="351.49" x2="295.78" y2="327.297"/>
          <polyline class="a2656a7f-605f-459a-a4ae-d8e38cd53c05" points="295.78 325.684 295.78 324.184 297.28 324.184"/>
          <line class="b8be379a-eb53-4509-8bc8-9d079aef9ddc" x1="300.209" y1="324.184" x2="316.316" y2="324.184"/>
          <polyline class="a2656a7f-605f-459a-a4ae-d8e38cd53c05" points="317.78 324.184 319.28 324.184 319.28 325.684"/>
          <line class="be1962fd-f30f-4c54-8032-a98e21fce069" x1="319.28" y1="328.91" x2="319.28" y2="353.103"/>
        </g>
        <text class="ba1f298f-c4b2-4185-859b-bc076f648909" transform="translate(303.723 342.97)">N</text>
      </g>
      <g>
        <text class="b62a894e-439b-4959-8989-574cf7f70f90" transform="translate(378.812 370.268)">Message<tspan x="15.759" y="10">4</tspan></text>
        <g>
          <polygon class="bc2e639e-bee8-4c70-9b25-d769e81d7c5c" points="409.25 356.216 385.75 356.216 385.75 330.008 391.625 324.184 409.25 324.184 409.25 356.216"/>
          <polygon class="a5a02778-f84c-48ba-90a1-b3511655b28e" points="391.625 330.008 385.75 330.008 391.625 324.184 391.625 330.008"/>
          <line class="a5a02778-f84c-48ba-90a1-b3511655b28e" x1="390.156" y1="334.376" x2="397.5" y2="334.376"/>
          <line class="a5a02778-f84c-48ba-90a1-b3511655b28e" x1="390.156" y1="338.744" x2="404.844" y2="338.744"/>
          <line class="a5a02778-f84c-48ba-90a1-b3511655b28e" x1="390.156" y1="343.112" x2="404.844" y2="343.112"/>
          <line class="a5a02778-f84c-48ba-90a1-b3511655b28e" x1="390.156" y1="347.48" x2="404.844" y2="347.48"/>
        </g>
      </g>
      <g>
        <g>
          <polyline class="a2656a7f-605f-459a-a4ae-d8e38cd53c05" points="454.22 354.716 454.22 356.216 452.72 356.216"/>
          <line class="b8be379a-eb53-4509-8bc8-9d079aef9ddc" x1="449.791" y1="356.216" x2="433.684" y2="356.216"/>
          <polyline class="a2656a7f-605f-459a-a4ae-d8e38cd53c05" points="432.22 356.216 430.72 356.216 430.72 354.716"/>
          <line class="be1962fd-f30f-4c54-8032-a98e21fce069" x1="430.72" y1="351.49" x2="430.72" y2="327.297"/>
          <polyline class="a2656a7f-605f-459a-a4ae-d8e38cd53c05" points="430.72 325.684 430.72 324.184 432.22 324.184"/>
          <line class="b8be379a-eb53-4509-8bc8-9d079aef9ddc" x1="435.149" y1="324.184" x2="451.256" y2="324.184"/>
          <polyline class="a2656a7f-605f-459a-a4ae-d8e38cd53c05" points="452.72 324.184 454.22 324.184 454.22 325.684"/>
          <line class="be1962fd-f30f-4c54-8032-a98e21fce069" x1="454.22" y1="328.91" x2="454.22" y2="353.103"/>
        </g>
        <text class="ba1f298f-c4b2-4185-859b-bc076f648909" transform="translate(439.62 342.97)">2</text>
      </g>
      <g>
        <text class="b62a894e-439b-4959-8989-574cf7f70f90" transform="translate(333.812 370.268)">Message<tspan x="15.835" y="10">6</tspan></text>
        <g>
          <polygon class="bc2e639e-bee8-4c70-9b25-d769e81d7c5c" points="364.25 356.216 340.75 356.216 340.75 330.008 346.625 324.184 364.25 324.184 364.25 356.216"/>
          <polygon class="a5a02778-f84c-48ba-90a1-b3511655b28e" points="346.625 330.008 340.75 330.008 346.625 324.184 346.625 330.008"/>
          <line class="a5a02778-f84c-48ba-90a1-b3511655b28e" x1="345.156" y1="334.376" x2="352.5" y2="334.376"/>
          <line class="a5a02778-f84c-48ba-90a1-b3511655b28e" x1="345.156" y1="338.744" x2="359.844" y2="338.744"/>
          <line class="a5a02778-f84c-48ba-90a1-b3511655b28e" x1="345.156" y1="343.112" x2="359.844" y2="343.112"/>
          <line class="a5a02778-f84c-48ba-90a1-b3511655b28e" x1="345.156" y1="347.48" x2="359.844" y2="347.48"/>
        </g>
      </g>
    </g>
    <g>
      <rect class="b4c42cb8-5410-4bea-9053-66d0732ab648" x="20" y="267.315" width="215.5" height="125"/>
      <g>
        <path class="f3d9eea9-171d-4f9c-990d-2c2f29103fd0" d="M44.215,287.318a4.322,4.322,0,0,1-1.188,3l.732.876L42.283,292.2l-.732-.876a3.983,3.983,0,0,1-.8.24,4.486,4.486,0,0,1-.87.084,4.361,4.361,0,0,1-1.71-.336,4.207,4.207,0,0,1-2.3-2.3,4.461,4.461,0,0,1,0-3.4,4.2,4.2,0,0,1,2.3-2.3,4.379,4.379,0,0,1,1.71-.336,4.326,4.326,0,0,1,3.078,1.254,4.284,4.284,0,0,1,.918,1.38A4.334,4.334,0,0,1,44.215,287.318Zm-3.192.588.684.828a2.573,2.573,0,0,0,.276-.654,3.031,3.031,0,0,0-.072-1.752,2.438,2.438,0,0,0-.462-.792,2.16,2.16,0,0,0-.7-.521,2.085,2.085,0,0,0-1.752,0,2.16,2.16,0,0,0-.7.521,2.438,2.438,0,0,0-.462.792,3,3,0,0,0,0,1.981,2.428,2.428,0,0,0,.462.792,2.174,2.174,0,0,0,.7.521,2.032,2.032,0,0,0,.876.192,1.689,1.689,0,0,0,.2-.011l.2-.025-.72-.864Z"/>
        <path class="f3d9eea9-171d-4f9c-990d-2c2f29103fd0" d="M47.407,285.326v3.612a1.213,1.213,0,0,0,.281.834.956.956,0,0,0,.75.318,1.286,1.286,0,0,0,.571-.126,1.318,1.318,0,0,0,.462-.39v-4.248h1.944v6.193H49.471v-1.008a2.553,2.553,0,0,1-.858.821,2.179,2.179,0,0,1-1.1.282,1.969,1.969,0,0,1-1.476-.593,2.094,2.094,0,0,1-.576-1.519v-4.176Z"/>
        <path class="f3d9eea9-171d-4f9c-990d-2c2f29103fd0" d="M58.519,290.643a4.052,4.052,0,0,1-1.212.761,3.859,3.859,0,0,1-1.392.235,3.307,3.307,0,0,1-1.278-.246,3.265,3.265,0,0,1-1.038-.679,3.113,3.113,0,0,1-.7-1.02,3.156,3.156,0,0,1-.252-1.259,3.323,3.323,0,0,1,.24-1.273,3.217,3.217,0,0,1,.654-1.019,2.957,2.957,0,0,1,.99-.679,3.13,3.13,0,0,1,1.236-.245,3.032,3.032,0,0,1,1.23.245,2.883,2.883,0,0,1,.96.679,3.119,3.119,0,0,1,.63,1.038,3.727,3.727,0,0,1,.228,1.325v.421h-4.26a1.546,1.546,0,0,0,.528.84,1.42,1.42,0,0,0,.924.323,1.8,1.8,0,0,0,.7-.132,1.3,1.3,0,0,0,.522-.384Zm-2.76-3.913a1.086,1.086,0,0,0-.768.289,1.53,1.53,0,0,0-.432.8h2.46a1.487,1.487,0,0,0-.457-.8A1.176,1.176,0,0,0,55.759,286.73Z"/>
        <path class="f3d9eea9-171d-4f9c-990d-2c2f29103fd0" d="M61.927,285.326v3.612a1.213,1.213,0,0,0,.281.834.953.953,0,0,0,.75.318,1.281,1.281,0,0,0,.57-.126,1.318,1.318,0,0,0,.462-.39v-4.248h1.945v6.193H63.99v-1.008a2.541,2.541,0,0,1-.857.821,2.18,2.18,0,0,1-1.1.282,1.967,1.967,0,0,1-1.475-.593,2.1,2.1,0,0,1-.577-1.519v-4.176Z"/>
        <path class="f3d9eea9-171d-4f9c-990d-2c2f29103fd0" d="M73.038,290.643a4.039,4.039,0,0,1-1.212.761,3.853,3.853,0,0,1-1.391.235,3.315,3.315,0,0,1-1.279-.246,3.276,3.276,0,0,1-1.038-.679,3.11,3.11,0,0,1-.695-1.02,3.156,3.156,0,0,1-.252-1.259,3.342,3.342,0,0,1,.239-1.273,3.217,3.217,0,0,1,.654-1.019,2.971,2.971,0,0,1,.991-.679,3.126,3.126,0,0,1,1.235-.245,3.04,3.04,0,0,1,1.231.245,2.869,2.869,0,0,1,.959.679,3.1,3.1,0,0,1,.63,1.038,3.706,3.706,0,0,1,.229,1.325v.421H69.078a1.558,1.558,0,0,0,.528.84,1.422,1.422,0,0,0,.924.323,1.792,1.792,0,0,0,.7-.132,1.309,1.309,0,0,0,.523-.384Zm-2.76-3.913a1.086,1.086,0,0,0-.767.289,1.531,1.531,0,0,0-.433.8h2.46a1.479,1.479,0,0,0-.456-.8A1.178,1.178,0,0,0,70.278,286.73Z"/>
        <path class="f3d9eea9-171d-4f9c-990d-2c2f29103fd0" d="M35.516,303.768a2.669,2.669,0,0,1,2.575-2.8,2.074,2.074,0,0,1,1.617.748v-.7h1.231v7.844H39.7v-3.059a2.137,2.137,0,0,1-1.682.781A2.645,2.645,0,0,1,35.516,303.768Zm2.872,1.76a1.647,1.647,0,0,0,1.308-.605V302.6a1.707,1.707,0,0,0-1.308-.594,1.764,1.764,0,0,0,0,3.52Z"/>
        <path class="f3d9eea9-171d-4f9c-990d-2c2f29103fd0" d="M44.68,306.519h-1.2v-6.448l-1.364.594V299.6l1.8-.782h.76Z"/>
        <path class="f3d9eea9-171d-4f9c-990d-2c2f29103fd0" d="M52.346,298.7l.484.847a5.988,5.988,0,0,0-3.169,5.358,4.169,4.169,0,0,0,1.376,3.289l-.8.727a4.8,4.8,0,0,1-1.682-3.895A6.952,6.952,0,0,1,52.346,298.7Z"/>
        <path class="f3d9eea9-171d-4f9c-990d-2c2f29103fd0" d="M52.675,305.066c0-1.078.847-1.771,2.168-1.771a3.555,3.555,0,0,1,1.628.385l.1-.462c.188-.847-.209-1.265-1.176-1.265a4.16,4.16,0,0,0-1.5.341l-.3-.913a5.971,5.971,0,0,1,2.089-.451c1.607,0,2.4.858,2.1,2.244l-.737,3.345h-1.21l.11-.5a2.406,2.406,0,0,1-1.508.561C53.368,306.584,52.675,305.99,52.675,305.066Zm2.212.649a2.02,2.02,0,0,0,1.22-.4l.209-.935A2.688,2.688,0,0,0,55,304.1c-.715,0-1.177.341-1.177.858C53.819,305.44,54.2,305.715,54.887,305.715Z"/>
        <path class="f3d9eea9-171d-4f9c-990d-2c2f29103fd0" d="M59.716,301.007h1.231l-.176.825a2.271,2.271,0,0,1,1.761-.892,1.541,1.541,0,0,1,1.54,2.091l-.748,3.488H62.1l.693-3.2c.187-.824-.2-1.4-.957-1.4a1.63,1.63,0,0,0-1.222.594l-.869,4H58.517Z"/>
        <path class="f3d9eea9-171d-4f9c-990d-2c2f29103fd0" d="M66.217,306.6l-.88-5.589h1.276l.55,4.181,2.409-4.181h1.342l-3.883,6.5a2.305,2.305,0,0,1-2.091,1.342,2.811,2.811,0,0,1-.769-.122l.22-1.055a2.539,2.539,0,0,0,.495.065,1.053,1.053,0,0,0,1-.572Z"/>
        <path class="f3d9eea9-171d-4f9c-990d-2c2f29103fd0" d="M74.853,305.044l.593.781a3.03,3.03,0,0,1-2.068.8,2.4,2.4,0,0,1-2.442-2.5,3.117,3.117,0,0,1,3-3.2,2.577,2.577,0,0,1,2.179,1.111l-.88.726a1.48,1.48,0,0,0-1.331-.738,1.906,1.906,0,0,0-1.75,2,1.406,1.406,0,0,0,1.42,1.507A1.866,1.866,0,0,0,74.853,305.044Z"/>
        <path class="f3d9eea9-171d-4f9c-990d-2c2f29103fd0" d="M76.325,305.066c0-1.078.848-1.771,2.168-1.771a3.555,3.555,0,0,1,1.628.385l.1-.462c.187-.847-.209-1.265-1.177-1.265a4.16,4.16,0,0,0-1.5.341l-.3-.913a5.976,5.976,0,0,1,2.09-.451c1.606,0,2.4.858,2.1,2.244l-.737,3.345h-1.21l.11-.5a2.4,2.4,0,0,1-1.507.561C77.019,306.584,76.325,305.99,76.325,305.066Zm2.212.649a2.023,2.023,0,0,0,1.221-.4l.209-.935a2.7,2.7,0,0,0-1.321-.286c-.714,0-1.176.341-1.176.858C77.47,305.44,77.854,305.715,78.537,305.715Z"/>
        <path class="f3d9eea9-171d-4f9c-990d-2c2f29103fd0" d="M82.661,304.923a2.676,2.676,0,0,0,1.782.76c.583,0,1.023-.33,1.023-.76,0-.286-.187-.462-.649-.583l-.935-.253c-.859-.232-1.287-.715-1.287-1.43,0-1.067.8-1.738,2.068-1.738a3.478,3.478,0,0,1,2.244.813l-.681.771a2.779,2.779,0,0,0-1.64-.649c-.561,0-.9.252-.9.649,0,.319.165.473.638.6l.935.254c.913.253,1.353.693,1.353,1.386a2.009,2.009,0,0,1-2.189,1.893,3.515,3.515,0,0,1-2.442-.925Z"/>
        <path class="f3d9eea9-171d-4f9c-990d-2c2f29103fd0" d="M89,302H87.92l.22-.99h1.067l.318-1.519,1.287-.263-.384,1.782h1.507l-.22.99h-1.5l-.594,2.761c-.132.572.065.792.692.792a2.358,2.358,0,0,0,.628-.088l-.22,1.034a4.038,4.038,0,0,1-.935.11c-1.144,0-1.661-.583-1.431-1.627Z"/>
        <path class="f3d9eea9-171d-4f9c-990d-2c2f29103fd0" d="M91.714,308.917l-.484-.848a5.985,5.985,0,0,0,3.168-5.357,4.166,4.166,0,0,0-1.375-3.29l.8-.726a4.8,4.8,0,0,1,1.684,3.895A6.956,6.956,0,0,1,91.714,308.917Z"/>
      </g>
      <g>
        <g>
          <polyline class="a2656a7f-605f-459a-a4ae-d8e38cd53c05" points="72.03 354.716 72.03 356.216 70.53 356.216"/>
          <line class="b8be379a-eb53-4509-8bc8-9d079aef9ddc" x1="67.601" y1="356.216" x2="51.494" y2="356.216"/>
          <polyline class="a2656a7f-605f-459a-a4ae-d8e38cd53c05" points="50.03 356.216 48.53 356.216 48.53 354.716"/>
          <line class="be1962fd-f30f-4c54-8032-a98e21fce069" x1="48.53" y1="351.49" x2="48.53" y2="327.297"/>
          <polyline class="a2656a7f-605f-459a-a4ae-d8e38cd53c05" points="48.53 325.684 48.53 324.184 50.03 324.184"/>
          <line class="b8be379a-eb53-4509-8bc8-9d079aef9ddc" x1="52.959" y1="324.184" x2="69.066" y2="324.184"/>
          <polyline class="a2656a7f-605f-459a-a4ae-d8e38cd53c05" points="70.53 324.184 72.03 324.184 72.03 325.684"/>
          <line class="be1962fd-f30f-4c54-8032-a98e21fce069" x1="72.03" y1="328.91" x2="72.03" y2="353.103"/>
        </g>
        <text class="ba1f298f-c4b2-4185-859b-bc076f648909" transform="translate(56.473 342.97)">N</text>
      </g>
      <g>
        <text class="b62a894e-439b-4959-8989-574cf7f70f90" transform="translate(131.562 370.268)">Message<tspan x="15.957" y="10">3</tspan></text>
        <g>
          <polygon class="bc2e639e-bee8-4c70-9b25-d769e81d7c5c" points="162 356.216 138.5 356.216 138.5 330.008 144.375 324.184 162 324.184 162 356.216"/>
          <polygon class="a5a02778-f84c-48ba-90a1-b3511655b28e" points="144.375 330.008 138.5 330.008 144.375 324.184 144.375 330.008"/>
          <line class="a5a02778-f84c-48ba-90a1-b3511655b28e" x1="142.906" y1="334.376" x2="150.25" y2="334.376"/>
          <line class="a5a02778-f84c-48ba-90a1-b3511655b28e" x1="142.906" y1="338.744" x2="157.594" y2="338.744"/>
          <line class="a5a02778-f84c-48ba-90a1-b3511655b28e" x1="142.906" y1="343.112" x2="157.594" y2="343.112"/>
          <line class="a5a02778-f84c-48ba-90a1-b3511655b28e" x1="142.906" y1="347.48" x2="157.594" y2="347.48"/>
        </g>
      </g>
      <g>
        <g>
          <polyline class="a2656a7f-605f-459a-a4ae-d8e38cd53c05" points="206.97 354.716 206.97 356.216 205.47 356.216"/>
          <line class="b8be379a-eb53-4509-8bc8-9d079aef9ddc" x1="202.541" y1="356.216" x2="186.434" y2="356.216"/>
          <polyline class="a2656a7f-605f-459a-a4ae-d8e38cd53c05" points="184.97 356.216 183.47 356.216 183.47 354.716"/>
          <line class="be1962fd-f30f-4c54-8032-a98e21fce069" x1="183.47" y1="351.49" x2="183.47" y2="327.297"/>
          <polyline class="a2656a7f-605f-459a-a4ae-d8e38cd53c05" points="183.47 325.684 183.47 324.184 184.97 324.184"/>
          <line class="b8be379a-eb53-4509-8bc8-9d079aef9ddc" x1="187.899" y1="324.184" x2="204.006" y2="324.184"/>
          <polyline class="a2656a7f-605f-459a-a4ae-d8e38cd53c05" points="205.47 324.184 206.97 324.184 206.97 325.684"/>
          <line class="be1962fd-f30f-4c54-8032-a98e21fce069" x1="206.97" y1="328.91" x2="206.97" y2="353.103"/>
        </g>
        <text class="ba1f298f-c4b2-4185-859b-bc076f648909" transform="translate(193.51 342.97)">1</text>
      </g>
      <g>
        <text class="b62a894e-439b-4959-8989-574cf7f70f90" transform="translate(86.562 370.268)">Message<tspan x="16.029" y="10">5</tspan></text>
        <g>
          <polygon class="bc2e639e-bee8-4c70-9b25-d769e81d7c5c" points="117 356.216 93.5 356.216 93.5 330.008 99.375 324.184 117 324.184 117 356.216"/>
          <polygon class="a5a02778-f84c-48ba-90a1-b3511655b28e" points="99.375 330.008 93.5 330.008 99.375 324.184 99.375 330.008"/>
          <line class="a5a02778-f84c-48ba-90a1-b3511655b28e" x1="97.906" y1="334.376" x2="105.25" y2="334.376"/>
          <line class="a5a02778-f84c-48ba-90a1-b3511655b28e" x1="97.906" y1="338.744" x2="112.594" y2="338.744"/>
          <line class="a5a02778-f84c-48ba-90a1-b3511655b28e" x1="97.906" y1="343.112" x2="112.594" y2="343.112"/>
          <line class="a5a02778-f84c-48ba-90a1-b3511655b28e" x1="97.906" y1="347.48" x2="112.594" y2="347.48"/>
        </g>
      </g>
    </g>
    <g>
      <g>
        <line class="a72b663a-4a7d-4d1e-b085-67b44f03bf27" x1="127.75" y1="392.033" x2="127.75" y2="470.999"/>
        <polygon class="f3d9eea9-171d-4f9c-990d-2c2f29103fd0" points="122.764 469.54 127.75 478.175 132.736 469.54 122.764 469.54"/>
      </g>
      <rect class="b4c42cb8-5410-4bea-9053-66d0732ab648" x="92.163" y="428.357" width="71.174" height="30.699"/>
      <g>
        <text class="b62a894e-439b-4959-8989-574cf7f70f90" transform="translate(106.51 452.289)">Message 1</text>
        <g>
          <polygon class="bc2e639e-bee8-4c70-9b25-d769e81d7c5c" points="139.5 437.236 116 437.236 116 411.028 121.875 405.204 139.5 405.204 139.5 437.236"/>
          <polygon class="a5a02778-f84c-48ba-90a1-b3511655b28e" points="121.875 411.028 116 411.028 121.875 405.204 121.875 411.028"/>
          <line class="a5a02778-f84c-48ba-90a1-b3511655b28e" x1="120.407" y1="415.396" x2="127.75" y2="415.396"/>
          <line class="a5a02778-f84c-48ba-90a1-b3511655b28e" x1="120.407" y1="419.764" x2="135.094" y2="419.764"/>
          <line class="a5a02778-f84c-48ba-90a1-b3511655b28e" x1="120.407" y1="424.132" x2="135.094" y2="424.132"/>
          <line class="a5a02778-f84c-48ba-90a1-b3511655b28e" x1="120.407" y1="428.5" x2="135.094" y2="428.5"/>
        </g>
      </g>
    </g>
    <g>
      <g>
        <line class="a72b663a-4a7d-4d1e-b085-67b44f03bf27" x1="375" y1="392.033" x2="375" y2="470.999"/>
        <polygon class="f3d9eea9-171d-4f9c-990d-2c2f29103fd0" points="370.014 469.54 375 478.175 379.986 469.54 370.014 469.54"/>
      </g>
      <rect class="b4c42cb8-5410-4bea-9053-66d0732ab648" x="339.413" y="428.357" width="71.174" height="30.699"/>
      <g>
        <text class="b62a894e-439b-4959-8989-574cf7f70f90" transform="translate(353.76 452.289)">Message 1</text>
        <g>
          <polygon class="bc2e639e-bee8-4c70-9b25-d769e81d7c5c" points="386.75 437.236 363.25 437.236 363.25 411.028 369.125 405.204 386.75 405.204 386.75 437.236"/>
          <polygon class="a5a02778-f84c-48ba-90a1-b3511655b28e" points="369.125 411.028 363.25 411.028 369.125 405.204 369.125 411.028"/>
          <line class="a5a02778-f84c-48ba-90a1-b3511655b28e" x1="367.657" y1="415.396" x2="375" y2="415.396"/>
          <line class="a5a02778-f84c-48ba-90a1-b3511655b28e" x1="367.657" y1="419.764" x2="382.344" y2="419.764"/>
          <line class="a5a02778-f84c-48ba-90a1-b3511655b28e" x1="367.657" y1="424.132" x2="382.344" y2="424.132"/>
          <line class="a5a02778-f84c-48ba-90a1-b3511655b28e" x1="367.657" y1="428.5" x2="382.344" y2="428.5"/>
        </g>
      </g>
    </g>
    <g>
      <text class="a53b44b0-85fa-4602-a4c1-001ac9f0b536" transform="translate(690.661 535.792)">120_AMQ_1020</text>
      <rect class="a9e960cf-1682-44e9-9ebd-4e50846c96e2" y="512.774" width="760" height="40"/>
    </g>
  </g>
</svg>
