<svg id="f7ce0aca-fd7a-468b-af70-364e5064a213" data-name="artwork" xmlns="http://www.w3.org/2000/svg" width="760" height="535.01"><defs><style>.be4af18f-aafa-481d-8c37-7f6cd26f0dcc{fill:#e8e8e8}.b26e292b-00f9-493f-91a1-d2604ba3926a{font-size:12px}.a90ffb34-95f3-4c29-8c9b-92ab42a8bcf2,.b26e292b-00f9-493f-91a1-d2604ba3926a,.ef75d894-3c33-4acc-81ea-5de1cc7be963{fill:#151515}.b26e292b-00f9-493f-91a1-d2604ba3926a{font-family:RedHatText,&quot;Red Hat Text&quot;,Overpass,&quot;Helvetica Neue&quot;,Arial,sans-serif;font-weight:700}.e71eae5e-0b02-47e1-8d5c-a6353a91d298,.efdede5e-a422-4374-a07b-1c6e42bfe370{fill:#fff}.ef75d894-3c33-4acc-81ea-5de1cc7be963{font-size:11px;font-family:RedHatText,&quot;Red Hat Text&quot;,Overpass,&quot;Helvetica Neue&quot;,Arial,sans-serif;font-weight:500}.a4f83486-cf33-4d86-85e6-0f19ba210ef3{fill:none;stroke:#151515;stroke-linecap:round;stroke-linejoin:round}.efdede5e-a422-4374-a07b-1c6e42bfe370{stroke-linecap:round;stroke-linejoin:round;stroke:#5b5b5b;stroke-width:1.5px}</style></defs><path class="be4af18f-aafa-481d-8c37-7f6cd26f0dcc" d="M20.053 203.233h450v295h-450zM20 70h175v100H20z"/><text class="b26e292b-00f9-493f-91a1-d2604ba3926a" transform="translate(35 93.911)">Image service</text><text transform="translate(20 50.911)" font-size="14" font-family="RedHatText,&quot;Red Hat Text&quot;,Overpass,&quot;Helvetica Neue&quot;,Arial,sans-serif" font-weight="700" fill="#151515">OpenStack</text><path class="be4af18f-aafa-481d-8c37-7f6cd26f0dcc" d="M293.917 70h175v103h-175z"/><text class="b26e292b-00f9-493f-91a1-d2604ba3926a" transform="translate(308.917 93.911)">Block Storage service</text><path class="e71eae5e-0b02-47e1-8d5c-a6353a91d298" d="M308.917 108.136h145v50h-145z"/><text class="ef75d894-3c33-4acc-81ea-5de1cc7be963" transform="translate(361.738 136.183)">Volume</text><path d="M489 20.5V517H1V20.5h488m1-1H0V518h490V19.5z" fill="#06c"/><path class="e71eae5e-0b02-47e1-8d5c-a6353a91d298" d="M172.553 333.233h145v50h-145z"/><text class="ef75d894-3c33-4acc-81ea-5de1cc7be963" transform="translate(223.163 361.28)">Instance</text><text class="b26e292b-00f9-493f-91a1-d2604ba3926a" transform="translate(35.053 479.573)">Compute service</text><path class="a4f83486-cf33-4d86-85e6-0f19ba210ef3" d="M245.053 392.983v15.228"/><path class="a90ffb34-95f3-4c29-8c9b-92ab42a8bcf2" d="M240.066 394.442l4.987-8.635 4.986 8.635h-9.973zM240.066 406.752l4.987 8.635 4.986-8.635h-9.973z"/><path class="a4f83486-cf33-4d86-85e6-0f19ba210ef3" d="M107.5 155.733v63.547"/><path class="a90ffb34-95f3-4c29-8c9b-92ab42a8bcf2" d="M102.514 217.821l4.986 8.635 4.986-8.635h-9.972z"/><path class="a4f83486-cf33-4d86-85e6-0f19ba210ef3" d="M245.053 299.766v23.791"/><path class="a90ffb34-95f3-4c29-8c9b-92ab42a8bcf2" d="M240.066 301.225l4.987-8.636 4.986 8.636h-9.973zM240.066 322.098l4.987 8.635 4.986-8.635h-9.973z"/><path class="a4f83486-cf33-4d86-85e6-0f19ba210ef3" d="M230.053 323.557v-10.968H107.5v-12.823"/><path class="a90ffb34-95f3-4c29-8c9b-92ab42a8bcf2" d="M235.039 322.098l-4.986 8.635-4.986-8.635h9.972zM112.486 301.225l-4.986-8.636-4.987 8.636h9.973z"/><path class="a4f83486-cf33-4d86-85e6-0f19ba210ef3" d="M260.053 323.557v-10.968h122.553v-12.823"/><path class="a90ffb34-95f3-4c29-8c9b-92ab42a8bcf2" d="M265.039 322.098l-4.986 8.635-4.987-8.635h9.973zM387.593 301.225l-4.987-8.636-4.986 8.636h9.973z"/><g><path class="a4f83486-cf33-4d86-85e6-0f19ba210ef3" d="M245.053 219.28v-31.047h136.364v-20.232"/><path class="a90ffb34-95f3-4c29-8c9b-92ab42a8bcf2" d="M250.039 217.821l-4.986 8.635-4.986-8.635h9.972zM386.403 169.46l-4.986-8.635-4.986 8.635h9.972z"/></g><g><text class="ef75d894-3c33-4acc-81ea-5de1cc7be963" transform="translate(61.977 274.422)">Image-based disk<tspan x="31.608" y="12">(vda)</tspan></text><path class="efdede5e-a422-4374-a07b-1c6e42bfe370" d="M89.05 239.149v8.442c0 5.629 8.26 10.192 18.449 10.192s18.449-4.563 18.449-10.192v-8.442"/><path class="efdede5e-a422-4374-a07b-1c6e42bfe370" d="M125.948 239.149c0 5.629-8.259 10.192-18.449 10.192s-18.449-4.563-18.449-10.192 8.26-9.693 18.449-9.693 18.449 4.064 18.449 9.693z"/></g><g><text class="ef75d894-3c33-4acc-81ea-5de1cc7be963" transform="translate(195.719 274.422)">Volume-based disk<tspan x="35.084" y="12">(vdb)</tspan></text><path class="efdede5e-a422-4374-a07b-1c6e42bfe370" d="M226.6 239.149v8.442c0 5.629 8.26 10.192 18.449 10.192s18.451-4.563 18.451-10.192v-8.442"/><path class="efdede5e-a422-4374-a07b-1c6e42bfe370" d="M263.5 239.149c0 5.629-8.26 10.192-18.449 10.192s-18.451-4.563-18.451-10.192 8.26-9.693 18.449-9.693 18.451 4.064 18.451 9.693z"/></g><g><text class="ef75d894-3c33-4acc-81ea-5de1cc7be963" transform="translate(213.319 463.442)">Config drive<tspan x="18.678" y="12">(sr0)</tspan></text><path class="efdede5e-a422-4374-a07b-1c6e42bfe370" d="M226.6 428.169v8.442c0 5.629 8.26 10.192 18.449 10.192s18.451-4.563 18.451-10.192v-8.442"/><path class="efdede5e-a422-4374-a07b-1c6e42bfe370" d="M263.5 428.169c0 5.629-8.26 10.192-18.449 10.192S226.6 433.8 226.6 428.169s8.26-9.693 18.449-9.693 18.451 4.064 18.451 9.693z"/></g><g><text class="ef75d894-3c33-4acc-81ea-5de1cc7be963" transform="translate(342.049 274.422)">Ephemeral disk<tspan x="25.602" y="12">(vdc)</tspan></text><path class="efdede5e-a422-4374-a07b-1c6e42bfe370" d="M362.967 239.149v8.442c0 5.629 8.26 10.192 18.449 10.192s18.449-4.563 18.449-10.192v-8.442"/><path class="efdede5e-a422-4374-a07b-1c6e42bfe370" d="M399.865 239.149c0 5.629-8.259 10.192-18.449 10.192s-18.449-4.563-18.449-10.192 8.26-9.693 18.449-9.693 18.449 4.064 18.449 9.693z"/></g><path class="e71eae5e-0b02-47e1-8d5c-a6353a91d298" d="M35 105.733h145v50H35z"/><text class="ef75d894-3c33-4acc-81ea-5de1cc7be963" transform="translate(91.633 133.78)">Image</text><g><text transform="translate(664.632 518.027)" font-size="10" fill="#f3f3f3" font-family="RedHatText,&quot;Red Hat Text&quot;,Overpass,&quot;Helvetica Neue&quot;,Arial,sans-serif">145_OpenStack_0321</text><path fill="none" d="M0 495.01h760v40H0z"/></g></svg>