<svg id="bd801b7a-cf54-4feb-a2de-fbd8bc76d924" data-name="artwork" xmlns="http://www.w3.org/2000/svg" width="760" height="384.99"><defs><style>.a2fc6b9c-5c5a-4c44-9a3f-3334e95567ab,.aaf84d20-aef3-465e-beba-8e7e2df3a57d,.ef898b61-2618-4456-a1f8-caf5559560ba{fill:none}.ef898b61-2618-4456-a1f8-caf5559560ba{stroke:#00b9e4}.a2fc6b9c-5c5a-4c44-9a3f-3334e95567ab,.aaf84d20-aef3-465e-beba-8e7e2df3a57d,.ef898b61-2618-4456-a1f8-caf5559560ba{stroke-linejoin:round;stroke-width:2px}.a2fc6b9c-5c5a-4c44-9a3f-3334e95567ab{stroke:#f7823c;stroke-linecap:round}.aaf84d20-aef3-465e-beba-8e7e2df3a57d,.ef898b61-2618-4456-a1f8-caf5559560ba{stroke-linecap:round}.ba7ff90b-464b-4b24-9b7b-250c782e0ca5{font-size:12px;fill:#151515;font-family:RedHatText,&quot;Red Hat Text&quot;,Overpass,&quot;Helvetica Neue&quot;,Arial,sans-serif;font-weight:500}.aaf84d20-aef3-465e-beba-8e7e2df3a57d{stroke:#5b5b5b}.aa8961e3-aecb-434d-960f-3ab1018ce849{fill:#e5f0fa}.ae746448-70e0-4e47-9fff-84be106afdfd{fill:#e8e8e8}</style></defs><text transform="translate(693.731 368.007)" font-size="10" fill="#f3f3f3" font-family="RedHatText,&quot;Red Hat Text&quot;,Overpass,&quot;Helvetica Neue&quot;,Arial,sans-serif">141_Ceph_0221</text><path fill="none" d="M0 344.99h760v40H0z"/><path stroke-width="2" stroke-linejoin="round" stroke="#00b9e4" fill="none" d="M0 111h760"/><path class="a2fc6b9c-5c5a-4c44-9a3f-3334e95567ab" d="M1 345.008h758"/><text class="ba7ff90b-464b-4b24-9b7b-250c782e0ca5" transform="translate(.001 364.112)">Private network (40 Gb/s)</text><text class="ba7ff90b-464b-4b24-9b7b-250c782e0ca5" transform="translate(.001 98.544)">Public network (10 Gb/s)</text><path class="ef898b61-2618-4456-a1f8-caf5559560ba" d="M64 140.513V111M254 111V81.487"/><text class="ba7ff90b-464b-4b24-9b7b-250c782e0ca5" transform="translate(222.141 75.117)">Ceph client</text><path stroke="#5b5b5b" fill="#fff" stroke-linecap="round" stroke-linejoin="round" d="M229.75 20.5h48.5v37.18h-48.5z"/><path class="aaf84d20-aef3-465e-beba-8e7e2df3a57d" d="M265.192 26.081"/><path stroke="#5b5b5b" stroke-linecap="round" stroke-linejoin="round" fill="none" d="M235.346 26.081h14.923"/><path class="aa8961e3-aecb-434d-960f-3ab1018ce849" d="M0 140.513h128v75H0z"/><text class="ba7ff90b-464b-4b24-9b7b-250c782e0ca5" transform="translate(18.574 173.337)">Ceph MDS node<tspan x="23.334" y="20">(active)</tspan></text><path class="ef898b61-2618-4456-a1f8-caf5559560ba" d="M212 140.513V111"/><path class="ae746448-70e0-4e47-9fff-84be106afdfd" d="M148 140.513h128v75H148z"/><text class="ba7ff90b-464b-4b24-9b7b-250c782e0ca5" transform="translate(167.673 168.337)">Ceph Monitor / <tspan x="15.113" y="13">Manager/ </tspan><tspan x="5.771" y="26">Grafana node</tspan></text><path class="ef898b61-2618-4456-a1f8-caf5559560ba" d="M696 140.513V111"/><path class="aa8961e3-aecb-434d-960f-3ab1018ce849" d="M632 140.513h128v75H632z"/><text class="ba7ff90b-464b-4b24-9b7b-250c782e0ca5" transform="translate(650.574 173.337)">Ceph MDS node<tspan x="17.761" y="20">(standby)</tspan></text><path class="ef898b61-2618-4456-a1f8-caf5559560ba" d="M548 140.513V111"/><path class="ae746448-70e0-4e47-9fff-84be106afdfd" d="M484 140.513h128v75H484z"/><text class="ba7ff90b-464b-4b24-9b7b-250c782e0ca5" transform="translate(503.673 168.337)">Ceph Monitor / <tspan x="15.113" y="13">Manager/ </tspan><tspan x="5.771" y="26">Grafana node</tspan></text><path class="ef898b61-2618-4456-a1f8-caf5559560ba" d="M380 140.513V111"/><path class="ae746448-70e0-4e47-9fff-84be106afdfd" d="M316 140.513h128v75H316z"/><text class="ba7ff90b-464b-4b24-9b7b-250c782e0ca5" transform="translate(335.673 168.337)">Ceph Monitor / <tspan x="15.113" y="13">Manager/ </tspan><tspan x="5.771" y="26">Grafana node</tspan></text><path class="ef898b61-2618-4456-a1f8-caf5559560ba" d="M464 240.513V111M296 240.513V111"/><path class="a2fc6b9c-5c5a-4c44-9a3f-3334e95567ab" d="M296 345.008v-29.513M464 345.008v-29.513"/><path class="ae746448-70e0-4e47-9fff-84be106afdfd" d="M232 240.513h128v75H232z"/><text class="ba7ff90b-464b-4b24-9b7b-250c782e0ca5" transform="translate(251.049 273.336)">Ceph OSD node<tspan x="33.138" y="20">(x3)</tspan></text><path class="ae746448-70e0-4e47-9fff-84be106afdfd" d="M400 240.513h128v75H400z"/><text class="ba7ff90b-464b-4b24-9b7b-250c782e0ca5" transform="translate(419.05 273.337)">Ceph OSD node<tspan x="33.138" y="20">(x3)</tspan></text></svg>