<svg id="a22dfcbb-f375-479a-930f-f9f3e738684a" data-name="artwork" xmlns="http://www.w3.org/2000/svg" width="760" height="823.92" viewBox="0 0 760 823.92">
  <defs>
    <style>
      .e8d6b7ea-fec5-407f-8178-7905b7ad6903 {
        fill: #e8e8e8;
      }

      .a0593aee-fec9-49b9-b4c9-bfcecaa138e3, .a4b10565-f37a-4e3f-a78a-3ba839ff21e9, .a592cdd8-179b-47dc-99f6-30232b6f73b8, .a649b122-9789-4102-a76d-d9fd4a6c181d, .a6f991c4-b4b4-4136-b850-eef7f3497dad, .ab0f91c3-770a-4073-b4b8-a1d6df008507, .bcbeb29c-9599-4024-90b1-a405798610c9, .e8cc92c4-08b8-40bf-b163-45b54b346480, .f4460f34-0829-4872-9b01-1698df00f7cf, .f6c6a68a-e88c-4bb4-9143-14412b16b3ed, .ff8b2d74-c384-47f3-b289-f7d36fca7f40 {
        fill: none;
      }

      .a0593aee-fec9-49b9-b4c9-bfcecaa138e3, .a592cdd8-179b-47dc-99f6-30232b6f73b8, .a649b122-9789-4102-a76d-d9fd4a6c181d, .a6f991c4-b4b4-4136-b850-eef7f3497dad, .bcbeb29c-9599-4024-90b1-a405798610c9, .e8cc92c4-08b8-40bf-b163-45b54b346480, .f4460f34-0829-4872-9b01-1698df00f7cf, .f6c6a68a-e88c-4bb4-9143-14412b16b3ed, .ff8b2d74-c384-47f3-b289-f7d36fca7f40 {
        stroke: #06c;
      }

      .a0593aee-fec9-49b9-b4c9-bfcecaa138e3, .a4b10565-f37a-4e3f-a78a-3ba839ff21e9, .a592cdd8-179b-47dc-99f6-30232b6f73b8, .a649b122-9789-4102-a76d-d9fd4a6c181d, .a6f991c4-b4b4-4136-b850-eef7f3497dad, .bcbeb29c-9599-4024-90b1-a405798610c9, .e8cc92c4-08b8-40bf-b163-45b54b346480, .f4460f34-0829-4872-9b01-1698df00f7cf, .f6c6a68a-e88c-4bb4-9143-14412b16b3ed, .ff8b2d74-c384-47f3-b289-f7d36fca7f40 {
        stroke-linecap: round;
        stroke-linejoin: round;
      }

      .a4b10565-f37a-4e3f-a78a-3ba839ff21e9, .e8cc92c4-08b8-40bf-b163-45b54b346480 {
        stroke-width: 2px;
      }

      .e813d623-1426-4483-a64a-5a0994ff5a2b {
        fill: #d9e8f7;
      }

      .beda81c8-aabd-440b-93a9-62b62285a2a7, .f22996c1-8aa8-4328-91b6-d608e5ea1a11 {
        fill: #06c;
      }

      .b40805ff-0382-4110-8243-c2c7d09dfe6c, .b4ec1513-a0e3-4096-b75f-75b0e88e7b50, .bb061796-27bb-4a56-9dd3-be0f9587a40c {
        font-size: 11px;
      }

      .b40805ff-0382-4110-8243-c2c7d09dfe6c, .bb061796-27bb-4a56-9dd3-be0f9587a40c {
        fill: #151515;
      }

      .b40805ff-0382-4110-8243-c2c7d09dfe6c, .b4ec1513-a0e3-4096-b75f-75b0e88e7b50, .f22996c1-8aa8-4328-91b6-d608e5ea1a11 {
        font-family: RedHatText-Bold, Red Hat Text;
        font-weight: 700;
      }

      .a11e6e3b-5fc3-42a9-80cd-0b55b043a92b {
        fill: #e5f0fa;
      }

      .b4ec1513-a0e3-4096-b75f-75b0e88e7b50, .be7e41b2-52eb-4136-96e1-0134d4d5ddf1, .f2bf8f68-c983-44a8-aead-b8c600c137b3 {
        fill: #fff;
      }

      .a4b10565-f37a-4e3f-a78a-3ba839ff21e9 {
        stroke: #151515;
      }

      .f6c6a68a-e88c-4bb4-9143-14412b16b3ed {
        stroke-dasharray: 3.01 3.01;
      }

      .f4460f34-0829-4872-9b01-1698df00f7cf {
        stroke-dasharray: 3.133 3.133;
      }

      .a649b122-9789-4102-a76d-d9fd4a6c181d {
        stroke-dasharray: 3 3;
      }

      .ff8b2d74-c384-47f3-b289-f7d36fca7f40 {
        stroke-dasharray: 3.067 3.067;
      }

      .f22996c1-8aa8-4328-91b6-d608e5ea1a11, .f2bf8f68-c983-44a8-aead-b8c600c137b3 {
        font-size: 12px;
      }

      .bb061796-27bb-4a56-9dd3-be0f9587a40c, .f2bf8f68-c983-44a8-aead-b8c600c137b3, .f553244f-1497-41a2-84a5-6c2f4f5f4fd0 {
        font-family: RedHatText-Medium, Red Hat Text;
        font-weight: 500;
      }

      .af0473f4-f7b4-4046-94a2-37ed5ea5545d, .f422de2f-f605-4737-817a-705273484fc4 {
        fill: #f3f3f3;
      }

      .b57c4fc5-d22b-4130-bd6e-f484bbe41bea {
        fill: #d0d0d0;
      }

      .a0593aee-fec9-49b9-b4c9-bfcecaa138e3 {
        stroke-dasharray: 3.4 3.4;
      }

      .a950b1b8-0dff-4c24-9e22-d92c105588d8 {
        fill: #3385d6;
      }

      .ef723cec-0853-418b-84d5-6ad37cdd6874 {
        fill: #5b5b5b;
      }

      .a592cdd8-179b-47dc-99f6-30232b6f73b8 {
        stroke-dasharray: 2.971 2.971;
      }

      .a6f991c4-b4b4-4136-b850-eef7f3497dad {
        stroke-dasharray: 2.978 2.978;
      }

      .f422de2f-f605-4737-817a-705273484fc4 {
        font-size: 10px;
        font-family: RedHatText-Regular, Red Hat Text;
      }
    </style>
  </defs>
  <path class="e8d6b7ea-fec5-407f-8178-7905b7ad6903" d="M758,191V473.5H607V191H758m2-2H605V475.5H760V189Z"/>
  <line class="e8cc92c4-08b8-40bf-b163-45b54b346480" x1="620" y1="437.82" x2="573" y2="437.82"/>
  <line class="e8cc92c4-08b8-40bf-b163-45b54b346480" x1="605" y1="629.163" x2="573" y2="629.163"/>
  <polyline class="e8cc92c4-08b8-40bf-b163-45b54b346480" points="589 296.504 589 60.004 573 60.004"/>
  <line class="e8cc92c4-08b8-40bf-b163-45b54b346480" x1="620" y1="296.504" x2="573" y2="296.504"/>
  <line class="e8cc92c4-08b8-40bf-b163-45b54b346480" x1="589" y1="84.004" x2="605" y2="84.004"/>
  <line class="e8cc92c4-08b8-40bf-b163-45b54b346480" x1="589" y1="144.504" x2="573" y2="144.504"/>
  <rect class="e813d623-1426-4483-a64a-5a0994ff5a2b" x="263" y="229.004" width="145" height="103.5"/>
  <rect class="beda81c8-aabd-440b-93a9-62b62285a2a7" x="263" y="327.504" width="145" height="50"/>
  <text class="b40805ff-0382-4110-8243-c2c7d09dfe6c" transform="translate(278 252.289)">Certified VNF</text>
  <rect class="a11e6e3b-5fc3-42a9-80cd-0b55b043a92b" x="278" y="263.004" width="115" height="22"/>
  <g>
    <rect class="beda81c8-aabd-440b-93a9-62b62285a2a7" x="278.5" y="285.504" width="114" height="26.25"/>
    <path class="a11e6e3b-5fc3-42a9-80cd-0b55b043a92b" d="M392,286v25.25H279V286H392m1-1H278v27.25H393V285Z"/>
  </g>
  <g>
    <path class="be7e41b2-52eb-4136-96e1-0134d4d5ddf1" d="M305.038,355.359h6.08v1.084h-4.843v2.475h3.182v1.06h-3.182v2.546h4.89v1.084h-6.127Z"/>
    <path class="be7e41b2-52eb-4136-96e1-0134d4d5ddf1" d="M312.3,357.61h1.179v.6a2.47,2.47,0,0,1,1.8-.719,2.239,2.239,0,0,1,2.345,2.345v3.771h-1.178v-3.571a1.4,1.4,0,0,0-1.485-1.52,1.694,1.694,0,0,0-1.484.778v4.313H312.3Z"/>
    <path class="be7e41b2-52eb-4136-96e1-0134d4d5ddf1" d="M319.519,358.6h-1.273v-.99h1.273v-1.532l1.167-.283v1.815h1.767v.99h-1.767v3.252c0,.613.247.836.883.836a2.313,2.313,0,0,0,.86-.141v.99a3.9,3.9,0,0,1-1.119.177c-1.167,0-1.791-.554-1.791-1.591Z"/>
    <path class="be7e41b2-52eb-4136-96e1-0134d4d5ddf1" d="M326.07,363.714a3.087,3.087,0,0,1-3.146-3.111,3.014,3.014,0,0,1,3-3.087,2.97,2.97,0,0,1,2.9,3.134v.342h-4.737a2.023,2.023,0,0,0,2.027,1.72,2.332,2.332,0,0,0,1.52-.53l.754.742A3.578,3.578,0,0,1,326.07,363.714Zm-1.967-3.606h3.558a1.789,1.789,0,0,0-3.558,0Z"/>
    <path class="be7e41b2-52eb-4136-96e1-0134d4d5ddf1" d="M329.947,357.61h1.178v.766a1.877,1.877,0,0,1,1.65-.9,1.493,1.493,0,0,1,.6.095v1.06a2.032,2.032,0,0,0-.695-.13,1.638,1.638,0,0,0-1.556,1.1v4.007h-1.178Z"/>
    <path class="be7e41b2-52eb-4136-96e1-0134d4d5ddf1" d="M334.318,357.61h1.167v.577a2.734,2.734,0,0,1,1.838-.671,3.093,3.093,0,1,1-1.827,5.6v2.934h-1.178Zm1.178,1.65v2.71a2.225,2.225,0,0,0,1.674.707,2.068,2.068,0,0,0,0-4.136A2.151,2.151,0,0,0,335.5,359.26Z"/>
    <path class="be7e41b2-52eb-4136-96e1-0134d4d5ddf1" d="M341.47,357.61h1.179v.766a1.875,1.875,0,0,1,1.649-.9,1.493,1.493,0,0,1,.6.095v1.06a2.028,2.028,0,0,0-.695-.13,1.637,1.637,0,0,0-1.555,1.1v4.007H341.47Z"/>
    <path class="be7e41b2-52eb-4136-96e1-0134d4d5ddf1" d="M345.712,355.913a.723.723,0,0,1,.719-.73.731.731,0,0,1,0,1.461A.724.724,0,0,1,345.712,355.913Zm1.308,7.695h-1.179v-6h1.179Z"/>
    <path class="be7e41b2-52eb-4136-96e1-0134d4d5ddf1" d="M348.481,362.052a3.14,3.14,0,0,0,1.956.754c.848,0,1.437-.365,1.437-.895,0-.424-.306-.672-.966-.766l-1.084-.153c-1.19-.177-1.791-.731-1.791-1.662,0-1.084.942-1.814,2.345-1.814a4.107,4.107,0,0,1,2.415.766l-.6.777a3.332,3.332,0,0,0-1.9-.624c-.719,0-1.2.33-1.2.813,0,.436.283.648.99.754l1.084.153c1.19.177,1.815.742,1.815,1.673,0,1.073-1.084,1.886-2.51,1.886a3.959,3.959,0,0,1-2.628-.884Z"/>
    <path class="be7e41b2-52eb-4136-96e1-0134d4d5ddf1" d="M356.823,363.714a3.086,3.086,0,0,1-3.146-3.111,3.013,3.013,0,0,1,3-3.087,2.97,2.97,0,0,1,2.9,3.134v.342h-4.737a2.023,2.023,0,0,0,2.027,1.72,2.332,2.332,0,0,0,1.52-.53l.754.742A3.578,3.578,0,0,1,356.823,363.714Zm-1.968-3.606h3.559a1.789,1.789,0,0,0-3.559,0Z"/>
    <path class="be7e41b2-52eb-4136-96e1-0134d4d5ddf1" d="M363.3,355.359h1.237v7.153h4.749v1.1H363.3Z"/>
    <path class="be7e41b2-52eb-4136-96e1-0134d4d5ddf1" d="M370.267,355.913a.723.723,0,0,1,.719-.73.731.731,0,0,1,0,1.461A.724.724,0,0,1,370.267,355.913Zm1.308,7.695H370.4v-6h1.179Z"/>
    <path class="be7e41b2-52eb-4136-96e1-0134d4d5ddf1" d="M372.965,357.61h1.178v.6a2.472,2.472,0,0,1,1.8-.719,2.239,2.239,0,0,1,2.345,2.345v3.771h-1.178v-3.571a1.4,1.4,0,0,0-1.485-1.52,1.7,1.7,0,0,0-1.485.778v4.313h-1.178Z"/>
    <path class="be7e41b2-52eb-4136-96e1-0134d4d5ddf1" d="M380.742,361.168a1.4,1.4,0,0,0,1.484,1.532,1.685,1.685,0,0,0,1.473-.789v-4.3h1.179v6H383.7v-.6a2.451,2.451,0,0,1-1.8.718,2.239,2.239,0,0,1-2.333-2.356V357.61h1.179Z"/>
    <path class="be7e41b2-52eb-4136-96e1-0134d4d5ddf1" d="M387.929,360.532l-2.239-2.922h1.379l1.543,2.062,1.544-2.062h1.332l-2.216,2.91,2.369,3.088H390.25l-1.649-2.216-1.674,2.216H385.6Z"/>
    <path class="be7e41b2-52eb-4136-96e1-0134d4d5ddf1" d="M293.745,348.364c1.416,0,3.468-.293,3.468-1.978a1.626,1.626,0,0,0-.035-.388l-.844-3.666c-.2-.806-.367-1.173-1.783-1.881a16.53,16.53,0,0,0-4.2-1.49c-.66,0-.855.855-1.636.855-.757,0-1.319-.635-2.027-.635-.684,0-1.124.464-1.466,1.417,0,0-.953,2.686-1.075,3.077a.716.716,0,0,0-.025.22c0,1.044,4.112,4.469,9.624,4.469m3.688-1.294a5.659,5.659,0,0,1,.195,1.148c0,1.587-1.783,2.466-4.127,2.466-5.3,0-9.941-3.1-9.941-5.153a2.077,2.077,0,0,1,.171-.83c-1.9.1-4.372.439-4.372,2.613,0,3.566,8.451,7.962,15.143,7.962,5.129,0,6.423-2.32,6.423-4.152,0-1.441-1.245-3.077-3.492-4.054"/>
    <path class="be7e41b2-52eb-4136-96e1-0134d4d5ddf1" d="M344.985,349.419c0,1.346.81,2,2.287,2a5.928,5.928,0,0,0,1.347-.191v-1.561a2.786,2.786,0,0,1-.87.131c-.608,0-.834-.19-.834-.762v-2.4h1.763v-1.609h-1.763V343l-1.93.417v1.62H343.71v1.609h1.275Zm-6,.036c0-.417.418-.62,1.049-.62a4.87,4.87,0,0,1,1.144.143v.81a2.435,2.435,0,0,1-1.2.3c-.619,0-.989-.238-.989-.631m.589,1.99a2.945,2.945,0,0,0,1.74-.489v.381h1.906V347.3c0-1.537-1.036-2.383-2.764-2.383a7.01,7.01,0,0,0-2.943.691l.691,1.418a5.149,5.149,0,0,1,1.907-.5c.8,0,1.2.309,1.2.941v.31a5.6,5.6,0,0,0-1.43-.179c-1.62,0-2.6.679-2.6,1.895a2.038,2.038,0,0,0,2.287,1.954m-10.473-.108h2.049v-3.264h3.432v3.264h2.049V343h-2.049v3.2h-3.432V343H329.1Zm-7.809-3.157a1.6,1.6,0,0,1,1.656-1.6,1.95,1.95,0,0,1,1.334.489v2.2a1.851,1.851,0,0,1-1.334.5,1.6,1.6,0,0,1-1.656-1.6m3.014,3.157h1.907V342.58l-1.931.417v2.371a3.248,3.248,0,1,0-1.668,6.053,2.844,2.844,0,0,0,1.692-.548Zm-8.745-4.837a1.393,1.393,0,0,1,1.322,1h-2.633a1.312,1.312,0,0,1,1.311-1m-3.253,1.692a3.309,3.309,0,0,0,3.431,3.265,3.781,3.781,0,0,0,2.634-.954l-1.275-1.132a1.707,1.707,0,0,1-1.263.477,1.628,1.628,0,0,1-1.549-1h4.492v-.477a3.238,3.238,0,1,0-6.47-.178m-3.324-3.444a.948.948,0,1,1,0,1.883h-2.026v-1.883Zm-4.075,6.589h2.049V348.3h1.561l1.573,3.038h2.287L310.545,348a2.523,2.523,0,0,0,1.573-2.347A2.708,2.708,0,0,0,309.175,343H304.91Z"/>
  </g>
  <rect class="e8d6b7ea-fec5-407f-8178-7905b7ad6903" y="20.004" width="573" height="80"/>
  <rect class="e8d6b7ea-fec5-407f-8178-7905b7ad6903" x="413" y="229.004" width="145" height="93.5"/>
  <rect class="e813d623-1426-4483-a64a-5a0994ff5a2b" x="144.028" y="229.004" width="114" height="148.5"/>
  <line class="a4b10565-f37a-4e3f-a78a-3ba839ff21e9" x1="286.5" y1="100.004" x2="286.5" y2="119.504"/>
  <line class="a4b10565-f37a-4e3f-a78a-3ba839ff21e9" x1="286.5" y1="169.504" x2="286.5" y2="189.004"/>
  <line class="a4b10565-f37a-4e3f-a78a-3ba839ff21e9" x1="201.028" y1="391.673" x2="201.028" y2="411.173"/>
  <line class="a4b10565-f37a-4e3f-a78a-3ba839ff21e9" x1="77" y1="391.673" x2="77" y2="411.173"/>
  <line class="a4b10565-f37a-4e3f-a78a-3ba839ff21e9" x1="335.5" y1="391.673" x2="335.5" y2="411.173"/>
  <line class="a4b10565-f37a-4e3f-a78a-3ba839ff21e9" x1="485.5" y1="391.673" x2="485.5" y2="411.173"/>
  <path class="e8d6b7ea-fec5-407f-8178-7905b7ad6903" d="M571,191V389.009L2,390.5V191H571m2-2H0V392.5L573,391V189Z"/>
  <g>
    <rect class="be7e41b2-52eb-4136-96e1-0134d4d5ddf1" x="263" y="35.004" width="295" height="50"/>
    <g>
      <polyline class="bcbeb29c-9599-4024-90b1-a405798610c9" points="263 83.504 263 85.004 264.5 85.004"/>
      <line class="f6c6a68a-e88c-4bb4-9143-14412b16b3ed" x1="267.51" y1="85.004" x2="554.995" y2="85.004"/>
      <polyline class="bcbeb29c-9599-4024-90b1-a405798610c9" points="556.5 85.004 558 85.004 558 83.504"/>
      <line class="f4460f34-0829-4872-9b01-1698df00f7cf" x1="558" y1="80.371" x2="558" y2="38.071"/>
      <polyline class="bcbeb29c-9599-4024-90b1-a405798610c9" points="558 36.504 558 35.004 556.5 35.004"/>
      <line class="f6c6a68a-e88c-4bb4-9143-14412b16b3ed" x1="553.49" y1="35.004" x2="266.005" y2="35.004"/>
      <polyline class="bcbeb29c-9599-4024-90b1-a405798610c9" points="264.5 35.004 263 35.004 263 36.504"/>
      <line class="f4460f34-0829-4872-9b01-1698df00f7cf" x1="263" y1="39.637" x2="263" y2="81.937"/>
    </g>
  </g>
  <rect class="beda81c8-aabd-440b-93a9-62b62285a2a7" x="15" y="452.614" width="543" height="50"/>
  <g>
    <rect class="be7e41b2-52eb-4136-96e1-0134d4d5ddf1" x="413.5" y="328.004" width="144" height="49"/>
    <g>
      <polyline class="bcbeb29c-9599-4024-90b1-a405798610c9" points="413.5 375.504 413.5 377.004 415 377.004"/>
      <line class="a649b122-9789-4102-a76d-d9fd4a6c181d" x1="418" y1="377.004" x2="554.5" y2="377.004"/>
      <polyline class="bcbeb29c-9599-4024-90b1-a405798610c9" points="556 377.004 557.5 377.004 557.5 375.504"/>
      <line class="ff8b2d74-c384-47f3-b289-f7d36fca7f40" x1="557.5" y1="372.437" x2="557.5" y2="331.037"/>
      <polyline class="bcbeb29c-9599-4024-90b1-a405798610c9" points="557.5 329.504 557.5 328.004 556 328.004"/>
      <line class="a649b122-9789-4102-a76d-d9fd4a6c181d" x1="553" y1="328.004" x2="416.5" y2="328.004"/>
      <polyline class="bcbeb29c-9599-4024-90b1-a405798610c9" points="415 328.004 413.5 328.004 413.5 329.504"/>
      <line class="ff8b2d74-c384-47f3-b289-f7d36fca7f40" x1="413.5" y1="332.571" x2="413.5" y2="373.971"/>
    </g>
  </g>
  <text class="f22996c1-8aa8-4328-91b6-d608e5ea1a11" transform="translate(15 214.108)">Virtual Network Functions (VNFs)</text>
  <text class="b40805ff-0382-4110-8243-c2c7d09dfe6c" transform="translate(428 252.289)">Container</text>
  <text class="b40805ff-0382-4110-8243-c2c7d09dfe6c" transform="translate(159.028 252.289)">Validated VNF</text>
  <rect class="e8d6b7ea-fec5-407f-8178-7905b7ad6903" x="15" y="229.004" width="124" height="148.5"/>
  <text class="b40805ff-0382-4110-8243-c2c7d09dfe6c" transform="translate(30 252.289)">Other VNF</text>
  <text class="b40805ff-0382-4110-8243-c2c7d09dfe6c" transform="translate(15 56.707)">Operations/Business<tspan x="0" y="12">Support Systems (OSS/BSS)</tspan></text>
  <rect class="e8d6b7ea-fec5-407f-8178-7905b7ad6903" y="119.504" width="573" height="50"/>
  <text class="b40805ff-0382-4110-8243-c2c7d09dfe6c" transform="translate(15 147.457)">Element Management Systems (EMS)</text>
  <text class="f22996c1-8aa8-4328-91b6-d608e5ea1a11" transform="translate(15 437.108)">NFV Infrastructure</text>
  <text class="bb061796-27bb-4a56-9dd3-be0f9587a40c" transform="translate(324.023 277.051)">VNF</text>
  <rect class="af0473f4-f7b4-4046-94a2-37ed5ea5545d" x="30" y="264.254" width="94" height="24.5"/>
  <text class="bb061796-27bb-4a56-9dd3-be0f9587a40c" transform="translate(65.494 280.661)">VNF</text>
  <rect class="a11e6e3b-5fc3-42a9-80cd-0b55b043a92b" x="159.028" y="264.254" width="84" height="24.5"/>
  <text class="bb061796-27bb-4a56-9dd3-be0f9587a40c" transform="translate(189.523 280.661)">VNF</text>
  <text class="f2bf8f68-c983-44a8-aead-b8c600c137b3" transform="translate(318.542 301.953)">DPDK</text>
  <rect class="af0473f4-f7b4-4046-94a2-37ed5ea5545d" x="428" y="263.004" width="55" height="22"/>
  <text class="bb061796-27bb-4a56-9dd3-be0f9587a40c" transform="translate(443.994 277.051)">VNF</text>
  <rect class="af0473f4-f7b4-4046-94a2-37ed5ea5545d" x="428" y="290.254" width="55" height="22"/>
  <text class="bb061796-27bb-4a56-9dd3-be0f9587a40c" transform="translate(443.994 304.843)">VNF</text>
  <rect class="af0473f4-f7b4-4046-94a2-37ed5ea5545d" x="488" y="263.004" width="55" height="22"/>
  <text class="bb061796-27bb-4a56-9dd3-be0f9587a40c" transform="translate(503.994 277.051)">VNF</text>
  <rect class="af0473f4-f7b4-4046-94a2-37ed5ea5545d" x="488" y="290.254" width="55" height="22"/>
  <text class="bb061796-27bb-4a56-9dd3-be0f9587a40c" transform="translate(503.994 304.843)">VNF</text>
  <path class="b57c4fc5-d22b-4130-bd6e-f484bbe41bea" d="M411.733,61.174v3.42h-2.466v-3.42h-3.294v-2.34h3.294v-3.42h2.466v3.42h3.294v2.34Z"/>
  <g>
    <text class="bb061796-27bb-4a56-9dd3-be0f9587a40c" transform="translate(25.17 776.966)">Red Hat NFVI component</text>
    <rect class="beda81c8-aabd-440b-93a9-62b62285a2a7" y="763.92" width="20" height="20"/>
  </g>
  <g>
    <text class="bb061796-27bb-4a56-9dd3-be0f9587a40c" transform="translate(216.119 776.966)">Optional Red Hat component</text>
    <g>
      <rect class="be7e41b2-52eb-4136-96e1-0134d4d5ddf1" x="190.949" y="763.92" width="20" height="20"/>
      <g>
        <polyline class="bcbeb29c-9599-4024-90b1-a405798610c9" points="210.949 782.42 210.949 783.92 209.449 783.92"/>
        <line class="a0593aee-fec9-49b9-b4c9-bfcecaa138e3" x1="206.049" y1="783.92" x2="194.149" y2="783.92"/>
        <polyline class="bcbeb29c-9599-4024-90b1-a405798610c9" points="192.449 783.92 190.949 783.92 190.949 782.42"/>
        <line class="a0593aee-fec9-49b9-b4c9-bfcecaa138e3" x1="190.949" y1="779.02" x2="190.949" y2="767.12"/>
        <polyline class="bcbeb29c-9599-4024-90b1-a405798610c9" points="190.949 765.42 190.949 763.92 192.449 763.92"/>
        <line class="a0593aee-fec9-49b9-b4c9-bfcecaa138e3" x1="195.849" y1="763.92" x2="207.749" y2="763.92"/>
        <polyline class="bcbeb29c-9599-4024-90b1-a405798610c9" points="209.449 763.92 210.949 763.92 210.949 765.42"/>
        <line class="a0593aee-fec9-49b9-b4c9-bfcecaa138e3" x1="210.949" y1="768.82" x2="210.949" y2="780.72"/>
      </g>
    </g>
  </g>
  <g>
    <text class="bb061796-27bb-4a56-9dd3-be0f9587a40c" transform="translate(425.779 776.966)">Red Hat partner component</text>
    <rect class="e813d623-1426-4483-a64a-5a0994ff5a2b" x="400.609" y="763.92" width="20" height="20"/>
  </g>
  <g>
    <text class="bb061796-27bb-4a56-9dd3-be0f9587a40c" transform="translate(629.344 776.966)">Other vendor component</text>
    <rect class="e8d6b7ea-fec5-407f-8178-7905b7ad6903" x="604.174" y="763.92" width="20" height="20"/>
  </g>
  <rect class="e813d623-1426-4483-a64a-5a0994ff5a2b" x="15.236" y="668.913" width="543" height="50"/>
  <text class="b40805ff-0382-4110-8243-c2c7d09dfe6c" transform="translate(30 696.867)">Certified Hardware</text>
  <g>
    <rect class="a11e6e3b-5fc3-42a9-80cd-0b55b043a92b" x="164" y="678.913" width="117" height="30"/>
    <text class="bb061796-27bb-4a56-9dd3-be0f9587a40c" transform="translate(177.092 696.961)">Physical compute</text>
  </g>
  <g>
    <rect class="a11e6e3b-5fc3-42a9-80cd-0b55b043a92b" x="297.375" y="678.913" width="117" height="30"/>
    <text class="bb061796-27bb-4a56-9dd3-be0f9587a40c" transform="translate(313.554 696.96)">Physical storage</text>
  </g>
  <g>
    <rect class="a11e6e3b-5fc3-42a9-80cd-0b55b043a92b" x="430.75" y="678.913" width="117" height="30"/>
    <text class="bb061796-27bb-4a56-9dd3-be0f9587a40c" transform="translate(445.708 696.96)">Physical network</text>
  </g>
  <rect class="beda81c8-aabd-440b-93a9-62b62285a2a7" x="149" y="613.913" width="409" height="50"/>
  <rect class="e813d623-1426-4483-a64a-5a0994ff5a2b" x="15" y="507.614" width="129" height="156.3"/>
  <text class="b40805ff-0382-4110-8243-c2c7d09dfe6c" transform="translate(30 531.876)">Certified plugins<tspan class="f553244f-1497-41a2-84a5-6c2f4f5f4fd0"><tspan x="0" y="19">Software-Defined</tspan><tspan x="0" y="31">Networking (SDN)</tspan><tspan x="0" y="55">Software-Defined</tspan><tspan x="0" y="67">Storage (SDS)</tspan></tspan></text>
  <path class="e8d6b7ea-fec5-407f-8178-7905b7ad6903" d="M571,412.509V730.917L2,731.91V414l569-1.49m2-2L0,412V733.913l573-1V410.5Z"/>
  <rect class="beda81c8-aabd-440b-93a9-62b62285a2a7" x="149" y="507.614" width="138" height="101.5"/>
  <text class="b4ec1513-a0e3-4096-b75f-75b0e88e7b50" transform="translate(164 529.899)">Virtual compute<tspan class="f553244f-1497-41a2-84a5-6c2f4f5f4fd0"><tspan x="0" y="20">Kernel-based Virtual</tspan><tspan x="0" y="33">Machine (KVM)</tspan></tspan></text>
  <rect class="a950b1b8-0dff-4c24-9e22-d92c105588d8" x="164" y="572.067" width="108" height="22"/>
  <text class="f2bf8f68-c983-44a8-aead-b8c600c137b3" transform="translate(175.377 586.391)">Real-time KVM</text>
  <rect class="beda81c8-aabd-440b-93a9-62b62285a2a7" x="430" y="507.614" width="128" height="101.5"/>
  <text class="b4ec1513-a0e3-4096-b75f-75b0e88e7b50" transform="translate(445 529.899)">Virtual Network<tspan class="f553244f-1497-41a2-84a5-6c2f4f5f4fd0"><tspan x="0" y="19">Open vSwitch</tspan><tspan x="0" y="31">(OVS)</tspan></tspan></text>
  <rect class="a950b1b8-0dff-4c24-9e22-d92c105588d8" x="445" y="572.067" width="98" height="22"/>
  <text class="f2bf8f68-c983-44a8-aead-b8c600c137b3" transform="translate(473.75 586.391)">+DPDK</text>
  <g>
    <path class="ef723cec-0853-418b-84d5-6ad37cdd6874" d="M319.219,65.558v6.716h-1.155V64.026h1.649l2.593,5.267,2.58-5.267h1.65v8.248h-1.167V65.546l-3.075,6.139Z"/>
    <path class="ef723cec-0853-418b-84d5-6ad37cdd6874" d="M327.938,64.58a.724.724,0,0,1,.718-.731.731.731,0,1,1,0,1.461A.724.724,0,0,1,327.938,64.58Zm1.307,7.694h-1.178v-6h1.178Z"/>
    <path class="ef723cec-0853-418b-84d5-6ad37cdd6874" d="M335.231,71.709a2.834,2.834,0,0,1-1.838.659,3.093,3.093,0,1,1,1.826-5.6V64.026l1.179-.259v8.507h-1.167Zm-1.673-.366a2.158,2.158,0,0,0,1.661-.719V67.9a2.189,2.189,0,0,0-1.661-.707,2.074,2.074,0,0,0,0,4.147Z"/>
    <path class="ef723cec-0853-418b-84d5-6ad37cdd6874" d="M342.383,71.709a2.832,2.832,0,0,1-1.838.659,3.093,3.093,0,1,1,1.826-5.6V64.026l1.179-.259v8.507h-1.167Zm-1.673-.366a2.158,2.158,0,0,0,1.661-.719V67.9a2.189,2.189,0,0,0-1.661-.707,2.074,2.074,0,0,0,0,4.147Z"/>
    <path class="ef723cec-0853-418b-84d5-6ad37cdd6874" d="M346.118,72.274H344.94V64.026l1.178-.259Z"/>
    <path class="ef723cec-0853-418b-84d5-6ad37cdd6874" d="M350.384,72.38a3.087,3.087,0,0,1-3.147-3.111,3.014,3.014,0,0,1,3-3.087,2.97,2.97,0,0,1,2.9,3.135v.341H348.4a2.023,2.023,0,0,0,2.027,1.721,2.333,2.333,0,0,0,1.52-.531l.754.743A3.577,3.577,0,0,1,350.384,72.38Zm-1.968-3.606h3.558a1.789,1.789,0,0,0-3.558,0Z"/>
    <path class="ef723cec-0853-418b-84d5-6ad37cdd6874" d="M355.262,72.274l-1.674-6h1.143l1.155,4.407,1.379-4.407h1.013l1.367,4.407,1.166-4.407h1.108l-1.685,6H359.1l-1.343-4.395L356.4,72.274Z"/>
    <path class="ef723cec-0853-418b-84d5-6ad37cdd6874" d="M362.4,70.554c0-1.132.919-1.827,2.427-1.827a4.236,4.236,0,0,1,1.638.33v-.636c0-.848-.507-1.273-1.461-1.273a4.27,4.27,0,0,0-1.862.507l-.436-.884a5.616,5.616,0,0,1,2.463-.612c1.555,0,2.451.765,2.451,2.144v3.971h-1.155v-.518a2.845,2.845,0,0,1-1.862.624C363.3,72.38,362.4,71.638,362.4,70.554Zm2.474.954a2.305,2.305,0,0,0,1.591-.565V69.906a3.112,3.112,0,0,0-1.544-.366c-.86,0-1.39.389-1.39.99C363.533,71.108,364.075,71.508,364.876,71.508Z"/>
    <path class="ef723cec-0853-418b-84d5-6ad37cdd6874" d="M368.977,66.276h1.178v.766a1.878,1.878,0,0,1,1.65-.895,1.486,1.486,0,0,1,.6.094V67.3a2,2,0,0,0-.695-.13,1.637,1.637,0,0,0-1.555,1.1v4.006h-1.178Z"/>
    <path class="ef723cec-0853-418b-84d5-6ad37cdd6874" d="M375.858,72.38a3.086,3.086,0,0,1-3.146-3.111,3.013,3.013,0,0,1,3-3.087,2.97,2.97,0,0,1,2.9,3.135v.341h-4.737a2.023,2.023,0,0,0,2.027,1.721,2.333,2.333,0,0,0,1.52-.531l.754.743A3.577,3.577,0,0,1,375.858,72.38Zm-1.968-3.606h3.559a1.789,1.789,0,0,0-3.559,0Z"/>
    <path class="ef723cec-0853-418b-84d5-6ad37cdd6874" d="M306.77,57.031c1.417,0,3.469-.293,3.469-1.979a1.573,1.573,0,0,0-.036-.387L309.359,51c-.195-.806-.366-1.172-1.783-1.881a16.557,16.557,0,0,0-4.2-1.489c-.66,0-.855.854-1.637.854-.757,0-1.319-.634-2.027-.634-.684,0-1.123.464-1.465,1.416,0,0-.953,2.687-1.075,3.077a.722.722,0,0,0-.025.22c0,1.044,4.112,4.47,9.623,4.47m3.688-1.3a5.644,5.644,0,0,1,.2,1.148c0,1.588-1.783,2.467-4.128,2.467-5.3,0-9.94-3.1-9.94-5.153a2.086,2.086,0,0,1,.171-.831c-1.905.1-4.372.44-4.372,2.613,0,3.566,8.451,7.962,15.142,7.962,5.13,0,6.424-2.32,6.424-4.151,0-1.442-1.246-3.078-3.493-4.055"/>
    <path class="ef723cec-0853-418b-84d5-6ad37cdd6874" d="M358.01,58.086c0,1.346.811,2,2.288,2a5.934,5.934,0,0,0,1.347-.19V58.336a2.816,2.816,0,0,1-.87.131c-.608,0-.834-.191-.834-.763v-2.4H361.7V53.7h-1.763V51.663l-1.931.417V53.7h-1.275v1.608h1.275Zm-6,.035c0-.417.417-.619,1.049-.619a4.818,4.818,0,0,1,1.144.143v.81a2.446,2.446,0,0,1-1.2.3c-.619,0-.989-.239-.989-.632m.589,1.99a2.956,2.956,0,0,0,1.74-.488V60h1.906V55.965c0-1.537-1.037-2.383-2.764-2.383a7.007,7.007,0,0,0-2.943.691l.691,1.418a5.149,5.149,0,0,1,1.906-.5c.8,0,1.2.31,1.2.941v.31a5.609,5.609,0,0,0-1.43-.178c-1.621,0-2.6.679-2.6,1.894a2.039,2.039,0,0,0,2.288,1.954M342.128,60h2.049V56.739h3.432V60h2.049V51.663h-2.049v3.205h-3.432V51.663h-2.049Zm-7.81-3.158a1.6,1.6,0,0,1,1.656-1.6,1.952,1.952,0,0,1,1.335.488v2.2a1.857,1.857,0,0,1-1.335.5,1.6,1.6,0,0,1-1.656-1.6M337.333,60h1.906V51.246l-1.93.417v2.371a3.248,3.248,0,1,0-1.668,6.053,2.841,2.841,0,0,0,1.692-.548Zm-8.746-4.838a1.4,1.4,0,0,1,1.323,1h-2.633a1.312,1.312,0,0,1,1.31-1m-3.253,1.692a3.31,3.31,0,0,0,3.432,3.265,3.783,3.783,0,0,0,2.633-.953l-1.275-1.132a1.705,1.705,0,0,1-1.263.476,1.63,1.63,0,0,1-1.549-1H331.8v-.477a3.238,3.238,0,1,0-6.47-.179m-3.324-3.443a.948.948,0,1,1,0,1.882h-2.025V53.415ZM317.935,60h2.05V56.966h1.561L323.118,60h2.288l-1.835-3.336a2.524,2.524,0,0,0,1.573-2.348,2.708,2.708,0,0,0-2.943-2.657h-4.266Z"/>
  </g>
  <g>
    <g>
      <path class="ef723cec-0853-418b-84d5-6ad37cdd6874" d="M474.774,72.4a4.254,4.254,0,1,1,4.3-4.254A4.231,4.231,0,0,1,474.774,72.4Zm0-7.365a3.112,3.112,0,1,0,3.04,3.111A3.018,3.018,0,0,0,474.774,65.039Z"/>
      <path class="ef723cec-0853-418b-84d5-6ad37cdd6874" d="M480.253,66.276h1.167v.578a2.735,2.735,0,0,1,1.838-.672,3.093,3.093,0,1,1-1.827,5.6v2.934h-1.178Zm1.178,1.65v2.71a2.224,2.224,0,0,0,1.673.707,2.068,2.068,0,0,0,0-4.136A2.154,2.154,0,0,0,481.431,67.926Z"/>
      <path class="ef723cec-0853-418b-84d5-6ad37cdd6874" d="M490.3,72.38a3.086,3.086,0,0,1-3.146-3.111,3.013,3.013,0,0,1,3-3.087,2.97,2.97,0,0,1,2.9,3.135v.341h-4.737a2.023,2.023,0,0,0,2.027,1.721,2.333,2.333,0,0,0,1.52-.531l.754.743A3.577,3.577,0,0,1,490.3,72.38Zm-1.968-3.606H491.9a1.789,1.789,0,0,0-3.559,0Z"/>
      <path class="ef723cec-0853-418b-84d5-6ad37cdd6874" d="M494.18,66.276h1.179v.6a2.469,2.469,0,0,1,1.8-.718,2.239,2.239,0,0,1,2.345,2.344v3.771h-1.178V68.7a1.4,1.4,0,0,0-1.485-1.52,1.7,1.7,0,0,0-1.484.777v4.313H494.18Z"/>
      <path class="ef723cec-0853-418b-84d5-6ad37cdd6874" d="M501.014,70.035a3.982,3.982,0,0,0,2.84,1.3c1.19,0,2-.565,2-1.378,0-.731-.471-1.1-1.673-1.3l-1.379-.224c-1.508-.248-2.25-.955-2.25-2.145,0-1.437,1.2-2.368,3.039-2.368a5.529,5.529,0,0,1,3.323,1.119l-.683.943a4.378,4.378,0,0,0-2.7-1.013c-1.073,0-1.791.494-1.791,1.225,0,.672.412.99,1.472,1.167l1.332.212c1.744.282,2.533,1,2.533,2.286,0,1.52-1.319,2.533-3.287,2.533a4.966,4.966,0,0,1-3.535-1.485Z"/>
      <path class="ef723cec-0853-418b-84d5-6ad37cdd6874" d="M508.084,64.026l1.178-.259v3.11a2.47,2.47,0,0,1,1.8-.718A2.239,2.239,0,0,1,513.41,68.5v3.771h-1.179V68.7a1.4,1.4,0,0,0-1.484-1.52,1.7,1.7,0,0,0-1.485.777v4.313h-1.178Z"/>
      <path class="ef723cec-0853-418b-84d5-6ad37cdd6874" d="M514.635,64.58a.724.724,0,0,1,.718-.731.731.731,0,1,1,0,1.461A.724.724,0,0,1,514.635,64.58Zm1.308,7.694h-1.179v-6h1.179Z"/>
      <path class="ef723cec-0853-418b-84d5-6ad37cdd6874" d="M518.228,66.276v-.907a1.789,1.789,0,0,1,2.039-1.932,3.078,3.078,0,0,1,.848.106v1.025a2.341,2.341,0,0,0-.742-.106c-.648,0-.966.294-.966.931v.883h1.708v.99h-1.708v5.008h-1.179V67.266h-1.39v-.99Z"/>
      <path class="ef723cec-0853-418b-84d5-6ad37cdd6874" d="M522.906,67.266h-1.273v-.99h1.273V64.745l1.166-.283v1.814h1.768v.99h-1.768v3.252c0,.613.248.837.884.837a2.313,2.313,0,0,0,.86-.141V72.2a3.9,3.9,0,0,1-1.119.177c-1.167,0-1.791-.554-1.791-1.591Z"/>
    </g>
    <g>
      <path class="ef723cec-0853-418b-84d5-6ad37cdd6874" d="M459.546,57.031c1.416,0,3.468-.293,3.468-1.979a1.622,1.622,0,0,0-.035-.387L462.135,51c-.2-.806-.367-1.172-1.783-1.881a16.562,16.562,0,0,0-4.2-1.489c-.66,0-.855.854-1.637.854-.757,0-1.318-.634-2.027-.634-.683,0-1.123.464-1.465,1.416,0,0-.953,2.687-1.075,3.077a.722.722,0,0,0-.025.22c0,1.044,4.112,4.47,9.624,4.47m3.688-1.3a5.67,5.67,0,0,1,.195,1.148c0,1.588-1.783,2.467-4.127,2.467-5.3,0-9.941-3.1-9.941-5.153a2.086,2.086,0,0,1,.171-.831c-1.9.1-4.372.44-4.372,2.613,0,3.566,8.451,7.962,15.143,7.962,5.129,0,6.423-2.32,6.423-4.151,0-1.442-1.246-3.078-3.492-4.055"/>
      <path class="ef723cec-0853-418b-84d5-6ad37cdd6874" d="M510.786,58.086c0,1.346.81,2,2.287,2a5.934,5.934,0,0,0,1.347-.19V58.336a2.816,2.816,0,0,1-.87.131c-.608,0-.834-.191-.834-.763v-2.4h1.763V53.7h-1.763V51.663l-1.93.417V53.7h-1.275v1.608h1.275Zm-6,.035c0-.417.417-.619,1.049-.619a4.818,4.818,0,0,1,1.144.143v.81a2.446,2.446,0,0,1-1.2.3c-.619,0-.989-.239-.989-.632m.589,1.99a2.954,2.954,0,0,0,1.74-.488V60h1.906V55.965c0-1.537-1.036-2.383-2.764-2.383a7.01,7.01,0,0,0-2.943.691l.691,1.418a5.149,5.149,0,0,1,1.906-.5c.8,0,1.2.31,1.2.941v.31a5.6,5.6,0,0,0-1.43-.178c-1.62,0-2.6.679-2.6,1.894a2.038,2.038,0,0,0,2.287,1.954M494.9,60h2.049V56.739h3.432V60h2.049V51.663h-2.049v3.205h-3.432V51.663H494.9Zm-7.81-3.158a1.6,1.6,0,0,1,1.657-1.6,1.95,1.95,0,0,1,1.334.488v2.2a1.855,1.855,0,0,1-1.334.5,1.6,1.6,0,0,1-1.657-1.6M490.108,60h1.906V51.246l-1.93.417v2.371a3.248,3.248,0,1,0-1.668,6.053,2.837,2.837,0,0,0,1.692-.548Zm-8.746-4.838a1.4,1.4,0,0,1,1.323,1h-2.633a1.312,1.312,0,0,1,1.31-1m-3.252,1.692a3.309,3.309,0,0,0,3.431,3.265,3.781,3.781,0,0,0,2.633-.953L482.9,58.038a1.707,1.707,0,0,1-1.263.476,1.629,1.629,0,0,1-1.549-1h4.492v-.477a3.238,3.238,0,1,0-6.47-.179m-3.325-3.443a.948.948,0,1,1,0,1.882H472.76V53.415ZM470.71,60h2.05V56.966h1.561L475.894,60h2.287l-1.835-3.336a2.524,2.524,0,0,0,1.573-2.348,2.708,2.708,0,0,0-2.943-2.657H470.71Z"/>
    </g>
  </g>
  <g>
    <g>
      <path class="ef723cec-0853-418b-84d5-6ad37cdd6874" d="M474.774,363.737a4.254,4.254,0,1,1,4.3-4.254A4.23,4.23,0,0,1,474.774,363.737Zm0-7.364a3.111,3.111,0,1,0,3.04,3.11A3.017,3.017,0,0,0,474.774,356.373Z"/>
      <path class="ef723cec-0853-418b-84d5-6ad37cdd6874" d="M480.253,357.61h1.167v.577a2.734,2.734,0,0,1,1.838-.671,3.093,3.093,0,1,1-1.827,5.6v2.934h-1.178Zm1.178,1.65v2.71a2.224,2.224,0,0,0,1.673.707,2.068,2.068,0,0,0,0-4.136A2.15,2.15,0,0,0,481.431,359.26Z"/>
      <path class="ef723cec-0853-418b-84d5-6ad37cdd6874" d="M490.3,363.714a3.086,3.086,0,0,1-3.146-3.111,3.013,3.013,0,0,1,3-3.087,2.97,2.97,0,0,1,2.9,3.134v.342h-4.737a2.023,2.023,0,0,0,2.027,1.72,2.332,2.332,0,0,0,1.52-.53l.754.742A3.578,3.578,0,0,1,490.3,363.714Zm-1.968-3.606H491.9a1.789,1.789,0,0,0-3.559,0Z"/>
      <path class="ef723cec-0853-418b-84d5-6ad37cdd6874" d="M494.18,357.61h1.179v.6a2.47,2.47,0,0,1,1.8-.719,2.239,2.239,0,0,1,2.345,2.345v3.771h-1.178v-3.571a1.4,1.4,0,0,0-1.485-1.52,1.694,1.694,0,0,0-1.484.778v4.313H494.18Z"/>
      <path class="ef723cec-0853-418b-84d5-6ad37cdd6874" d="M501.014,361.369a3.982,3.982,0,0,0,2.84,1.3c1.19,0,2-.566,2-1.379,0-.73-.471-1.1-1.673-1.3l-1.379-.224c-1.508-.247-2.251-.954-2.251-2.144,0-1.438,1.2-2.369,3.04-2.369a5.53,5.53,0,0,1,3.323,1.12l-.683.942a4.384,4.384,0,0,0-2.7-1.013c-1.073,0-1.791.5-1.791,1.225,0,.672.412.99,1.472,1.167l1.332.212c1.744.283,2.533,1,2.533,2.286,0,1.52-1.319,2.533-3.287,2.533a4.97,4.97,0,0,1-3.535-1.484Z"/>
      <path class="ef723cec-0853-418b-84d5-6ad37cdd6874" d="M508.084,355.359l1.178-.259v3.111a2.471,2.471,0,0,1,1.8-.719,2.24,2.24,0,0,1,2.345,2.345v3.771h-1.179v-3.571a1.4,1.4,0,0,0-1.484-1.52,1.694,1.694,0,0,0-1.485.778v4.313h-1.178Z"/>
      <path class="ef723cec-0853-418b-84d5-6ad37cdd6874" d="M514.635,355.913a.723.723,0,0,1,.718-.73.731.731,0,1,1,0,1.461A.724.724,0,0,1,514.635,355.913Zm1.308,7.695h-1.179v-6h1.179Z"/>
      <path class="ef723cec-0853-418b-84d5-6ad37cdd6874" d="M518.228,357.61V356.7a1.79,1.79,0,0,1,2.039-1.933,3.078,3.078,0,0,1,.848.106V355.9a2.37,2.37,0,0,0-.742-.106c-.648,0-.966.295-.966.931v.884h1.708v.99h-1.708v5.008h-1.179V358.6h-1.39v-.99Z"/>
      <path class="ef723cec-0853-418b-84d5-6ad37cdd6874" d="M522.906,358.6h-1.273v-.99h1.273v-1.532l1.166-.283v1.815h1.768v.99h-1.768v3.252c0,.613.248.836.884.836a2.313,2.313,0,0,0,.86-.141v.99a3.9,3.9,0,0,1-1.119.177c-1.167,0-1.791-.554-1.791-1.591Z"/>
    </g>
    <g>
      <path class="ef723cec-0853-418b-84d5-6ad37cdd6874" d="M459.546,348.364c1.416,0,3.468-.293,3.468-1.978a1.626,1.626,0,0,0-.035-.388l-.844-3.666c-.2-.806-.367-1.173-1.783-1.881a16.53,16.53,0,0,0-4.2-1.49c-.66,0-.855.855-1.637.855-.757,0-1.318-.635-2.027-.635-.683,0-1.123.464-1.465,1.417,0,0-.953,2.686-1.075,3.077a.716.716,0,0,0-.025.22c0,1.044,4.112,4.469,9.624,4.469m3.688-1.294a5.659,5.659,0,0,1,.195,1.148c0,1.587-1.783,2.466-4.127,2.466-5.3,0-9.941-3.1-9.941-5.153a2.077,2.077,0,0,1,.171-.83c-1.9.1-4.372.439-4.372,2.613,0,3.566,8.451,7.962,15.143,7.962,5.129,0,6.423-2.32,6.423-4.152,0-1.441-1.246-3.077-3.492-4.054"/>
      <path class="ef723cec-0853-418b-84d5-6ad37cdd6874" d="M510.786,349.419c0,1.346.81,2,2.287,2a5.936,5.936,0,0,0,1.347-.191v-1.561a2.786,2.786,0,0,1-.87.131c-.608,0-.834-.19-.834-.762v-2.4h1.763v-1.609h-1.763V343l-1.93.417v1.62h-1.275v1.609h1.275Zm-6,.036c0-.417.417-.62,1.049-.62a4.87,4.87,0,0,1,1.144.143v.81a2.435,2.435,0,0,1-1.2.3c-.619,0-.989-.238-.989-.631m.589,1.99a2.947,2.947,0,0,0,1.74-.489v.381h1.906V347.3c0-1.537-1.036-2.383-2.764-2.383a7.01,7.01,0,0,0-2.943.691l.691,1.418a5.145,5.145,0,0,1,1.906-.5c.8,0,1.2.309,1.2.941v.31a5.6,5.6,0,0,0-1.43-.179c-1.62,0-2.6.679-2.6,1.894a2.038,2.038,0,0,0,2.287,1.955m-10.473-.108h2.049v-3.264h3.432v3.264h2.049V343h-2.049v3.2h-3.432V343H494.9Zm-7.81-3.157a1.6,1.6,0,0,1,1.657-1.6,1.95,1.95,0,0,1,1.334.489v2.2a1.851,1.851,0,0,1-1.334.5,1.6,1.6,0,0,1-1.657-1.6m3.015,3.157h1.906V342.58l-1.93.417v2.371a3.248,3.248,0,1,0-1.668,6.053,2.844,2.844,0,0,0,1.692-.548Zm-8.746-4.837a1.394,1.394,0,0,1,1.323,1h-2.633a1.311,1.311,0,0,1,1.31-1m-3.252,1.692a3.308,3.308,0,0,0,3.431,3.264,3.776,3.776,0,0,0,2.633-.953l-1.275-1.132a1.7,1.7,0,0,1-1.263.477,1.628,1.628,0,0,1-1.548-1h4.492v-.477a3.238,3.238,0,1,0-6.47-.178m-3.325-3.444a.948.948,0,1,1,0,1.883H472.76v-1.883Zm-4.075,6.589h2.05V348.3h1.561l1.573,3.038h2.287L476.346,348a2.523,2.523,0,0,0,1.573-2.347A2.708,2.708,0,0,0,474.976,343H470.71Z"/>
    </g>
  </g>
  <g>
    <path class="be7e41b2-52eb-4136-96e1-0134d4d5ddf1" d="M248.974,488.847a4.254,4.254,0,1,1,4.3-4.254A4.231,4.231,0,0,1,248.974,488.847Zm0-7.365a3.112,3.112,0,1,0,3.04,3.111A3.018,3.018,0,0,0,248.974,481.482Z"/>
    <path class="be7e41b2-52eb-4136-96e1-0134d4d5ddf1" d="M254.453,482.72h1.167v.577a2.737,2.737,0,0,1,1.838-.672,3.094,3.094,0,1,1-1.826,5.6v2.935h-1.179Zm1.179,1.649v2.71a2.223,2.223,0,0,0,1.673.707,2.068,2.068,0,0,0,0-4.135A2.15,2.15,0,0,0,255.632,484.369Z"/>
    <path class="be7e41b2-52eb-4136-96e1-0134d4d5ddf1" d="M264.5,488.823a3.086,3.086,0,0,1-3.146-3.11,3.015,3.015,0,0,1,3-3.088,2.97,2.97,0,0,1,2.9,3.135v.341h-4.737a2.023,2.023,0,0,0,2.027,1.721,2.332,2.332,0,0,0,1.52-.53l.754.742A3.575,3.575,0,0,1,264.5,488.823Zm-1.968-3.6H266.1a1.789,1.789,0,0,0-3.559,0Z"/>
    <path class="be7e41b2-52eb-4136-96e1-0134d4d5ddf1" d="M268.38,482.72h1.179v.6a2.467,2.467,0,0,1,1.8-.719,2.239,2.239,0,0,1,2.344,2.345v3.77h-1.178v-3.57a1.4,1.4,0,0,0-1.485-1.52,1.694,1.694,0,0,0-1.484.778v4.312H268.38Z"/>
    <path class="be7e41b2-52eb-4136-96e1-0134d4d5ddf1" d="M275.214,486.479a3.982,3.982,0,0,0,2.84,1.3c1.19,0,2-.566,2-1.379,0-.731-.471-1.1-1.673-1.3l-1.379-.224c-1.508-.247-2.25-.954-2.25-2.145,0-1.437,1.2-2.368,3.04-2.368a5.54,5.54,0,0,1,3.323,1.119l-.684.943a4.382,4.382,0,0,0-2.7-1.013c-1.073,0-1.791.5-1.791,1.225,0,.672.412.99,1.473,1.167l1.331.212c1.744.283,2.533,1,2.533,2.286,0,1.52-1.319,2.533-3.287,2.533a4.97,4.97,0,0,1-3.535-1.484Z"/>
    <path class="be7e41b2-52eb-4136-96e1-0134d4d5ddf1" d="M282.826,483.71h-1.273v-.99h1.273v-1.532l1.167-.283v1.815h1.767v.99h-1.767v3.252c0,.612.247.836.883.836a2.313,2.313,0,0,0,.86-.141v.99a3.9,3.9,0,0,1-1.119.176c-1.167,0-1.791-.553-1.791-1.59Z"/>
    <path class="be7e41b2-52eb-4136-96e1-0134d4d5ddf1" d="M286.325,487c0-1.131.919-1.826,2.428-1.826a4.221,4.221,0,0,1,1.638.33v-.637c0-.848-.507-1.272-1.462-1.272a4.267,4.267,0,0,0-1.861.506l-.436-.883a5.6,5.6,0,0,1,2.462-.613c1.556,0,2.451.766,2.451,2.144v3.971h-1.154V488.2a2.849,2.849,0,0,1-1.862.624C287.221,488.823,286.325,488.081,286.325,487Zm2.475.955a2.309,2.309,0,0,0,1.591-.566v-1.037a3.112,3.112,0,0,0-1.544-.365c-.86,0-1.391.388-1.391.989C287.456,487.551,288,487.952,288.8,487.952Z"/>
    <path class="be7e41b2-52eb-4136-96e1-0134d4d5ddf1" d="M297.378,487.056l.707.766a3.319,3.319,0,0,1-2.369,1,3.111,3.111,0,0,1,0-6.221,3.408,3.408,0,0,1,2.416,1l-.743.8a2.226,2.226,0,0,0-1.649-.754,2.071,2.071,0,0,0,.023,4.135A2.186,2.186,0,0,0,297.378,487.056Z"/>
    <path class="be7e41b2-52eb-4136-96e1-0134d4d5ddf1" d="M299.039,480.469l1.178-.259v5.149l2.911-2.639h1.378l-3.087,2.816,3.252,3.181h-1.555l-2.9-2.828v2.828h-1.178Z"/>
    <path class="be7e41b2-52eb-4136-96e1-0134d4d5ddf1" d="M307.817,480.469h3.818a2.473,2.473,0,1,1,0,4.925h-2.581v3.323h-1.237Zm1.237,1.084v2.793h2.451a1.407,1.407,0,1,0,0-2.793Z"/>
    <path class="be7e41b2-52eb-4136-96e1-0134d4d5ddf1" d="M316.642,488.717h-1.178v-8.248l1.178-.259Z"/>
    <path class="be7e41b2-52eb-4136-96e1-0134d4d5ddf1" d="M317.726,487c0-1.131.919-1.826,2.427-1.826a4.214,4.214,0,0,1,1.638.33v-.637c0-.848-.506-1.272-1.461-1.272a4.271,4.271,0,0,0-1.862.506l-.436-.883a5.607,5.607,0,0,1,2.463-.613c1.556,0,2.451.766,2.451,2.144v3.971h-1.155V488.2a2.844,2.844,0,0,1-1.861.624C318.622,488.823,317.726,488.081,317.726,487Zm2.475.955a2.305,2.305,0,0,0,1.59-.566v-1.037a3.105,3.105,0,0,0-1.543-.365c-.86,0-1.391.388-1.391.989C318.857,487.551,319.4,487.952,320.2,487.952Z"/>
    <path class="be7e41b2-52eb-4136-96e1-0134d4d5ddf1" d="M324.843,483.71H323.57v-.99h1.273v-1.532l1.166-.283v1.815h1.768v.99h-1.768v3.252c0,.612.248.836.884.836a2.313,2.313,0,0,0,.86-.141v.99a3.9,3.9,0,0,1-1.119.176c-1.167,0-1.791-.553-1.791-1.59Z"/>
    <path class="be7e41b2-52eb-4136-96e1-0134d4d5ddf1" d="M329.662,482.72v-.908a1.789,1.789,0,0,1,2.039-1.932,3.083,3.083,0,0,1,.848.106v1.025a2.37,2.37,0,0,0-.742-.106c-.649,0-.967.3-.967.931v.884h1.709v.99H330.84v5.007h-1.178V483.71h-1.39v-.99Z"/>
    <path class="be7e41b2-52eb-4136-96e1-0134d4d5ddf1" d="M336.048,482.6a3.117,3.117,0,1,1-3.122,3.111A3.079,3.079,0,0,1,336.048,482.6ZM338,485.713a1.966,1.966,0,1,0-1.956,2.085A2,2,0,0,0,338,485.713Z"/>
    <path class="be7e41b2-52eb-4136-96e1-0134d4d5ddf1" d="M340.278,482.72h1.178v.766a1.878,1.878,0,0,1,1.65-.9,1.512,1.512,0,0,1,.6.094v1.061a2,2,0,0,0-.695-.13,1.639,1.639,0,0,0-1.556,1.1v4.006h-1.178Z"/>
    <path class="be7e41b2-52eb-4136-96e1-0134d4d5ddf1" d="M344.649,482.72h1.179v.565a2.3,2.3,0,0,1,1.685-.683,2.09,2.09,0,0,1,1.85,1,2.4,2.4,0,0,1,2.026-1,2.2,2.2,0,0,1,2.251,2.345v3.77h-1.178v-3.57a1.347,1.347,0,0,0-1.379-1.52,1.6,1.6,0,0,0-1.4.8,2.525,2.525,0,0,1,.047.519v3.77h-1.167v-3.57a1.347,1.347,0,0,0-1.378-1.52,1.569,1.569,0,0,0-1.355.731v4.359h-1.179Z"/>
    <path class="be7e41b2-52eb-4136-96e1-0134d4d5ddf1" d="M233.745,473.474c1.417,0,3.469-.293,3.469-1.978a1.626,1.626,0,0,0-.035-.388l-.844-3.667c-.2-.806-.367-1.172-1.783-1.88a16.544,16.544,0,0,0-4.2-1.49c-.66,0-.855.855-1.637.855-.757,0-1.318-.635-2.027-.635-.683,0-1.123.464-1.465,1.416,0,0-.953,2.687-1.075,3.077a.722.722,0,0,0-.025.22c0,1.045,4.112,4.47,9.623,4.47m3.688-1.294a5.642,5.642,0,0,1,.2,1.147c0,1.588-1.783,2.467-4.128,2.467-5.3,0-9.94-3.1-9.94-5.153a2.086,2.086,0,0,1,.171-.831c-1.905.1-4.372.44-4.372,2.614,0,3.565,8.451,7.962,15.143,7.962,5.129,0,6.423-2.32,6.423-4.152,0-1.441-1.246-3.077-3.493-4.054"/>
    <path class="be7e41b2-52eb-4136-96e1-0134d4d5ddf1" d="M284.986,474.529c0,1.346.81,2,2.287,2a5.936,5.936,0,0,0,1.347-.191v-1.561a2.816,2.816,0,0,1-.87.131c-.608,0-.834-.191-.834-.763v-2.394h1.763v-1.609h-1.763v-2.038l-1.93.418v1.62h-1.275v1.609h1.275Zm-6,.036c0-.418.417-.62,1.049-.62a4.87,4.87,0,0,1,1.144.143v.81a2.435,2.435,0,0,1-1.2.3c-.619,0-.989-.238-.989-.631m.589,1.989a2.956,2.956,0,0,0,1.74-.488v.381h1.906v-4.039c0-1.537-1.036-2.383-2.764-2.383a7.01,7.01,0,0,0-2.943.691l.691,1.418a5.149,5.149,0,0,1,1.906-.5c.8,0,1.2.31,1.2.942v.309a5.609,5.609,0,0,0-1.43-.178c-1.62,0-2.6.679-2.6,1.894a2.039,2.039,0,0,0,2.288,1.954m-10.473-.107h2.049v-3.265h3.432v3.265h2.049v-8.341h-2.049v3.206h-3.432v-3.206H269.1Zm-7.81-3.157a1.6,1.6,0,0,1,1.657-1.6,1.956,1.956,0,0,1,1.334.488v2.205a1.855,1.855,0,0,1-1.334.5,1.6,1.6,0,0,1-1.657-1.6m3.015,3.157h1.906v-8.758l-1.93.417v2.372a3.248,3.248,0,1,0-1.668,6.053,2.84,2.84,0,0,0,1.692-.549Zm-8.746-4.837a1.4,1.4,0,0,1,1.323,1h-2.633a1.312,1.312,0,0,1,1.31-1M252.31,473.3a3.309,3.309,0,0,0,3.431,3.264,3.781,3.781,0,0,0,2.633-.953l-1.275-1.132a1.7,1.7,0,0,1-1.263.477,1.629,1.629,0,0,1-1.549-1h4.492v-.477a3.238,3.238,0,1,0-6.469-.178m-3.325-3.444a.948.948,0,1,1,0,1.883H246.96v-1.883Zm-4.075,6.589h2.05v-3.038h1.561l1.572,3.038h2.288l-1.835-3.336a2.524,2.524,0,0,0,1.573-2.347,2.708,2.708,0,0,0-2.943-2.658H244.91Z"/>
  </g>
  <rect class="beda81c8-aabd-440b-93a9-62b62285a2a7" x="292" y="507.614" width="133" height="101.5"/>
  <text class="b4ec1513-a0e3-4096-b75f-75b0e88e7b50" transform="translate(307 529.899)">Virtual storage</text>
  <g>
    <g>
      <path class="be7e41b2-52eb-4136-96e1-0134d4d5ddf1" d="M339.136,567.534l.813.825a4.5,4.5,0,0,1-3.3,1.426,4.255,4.255,0,1,1,0-8.508,4.451,4.451,0,0,1,3.323,1.426l-.825.848a3.28,3.28,0,0,0-2.5-1.131,3.111,3.111,0,0,0,.035,6.222A3.2,3.2,0,0,0,339.136,567.534Z"/>
      <path class="be7e41b2-52eb-4136-96e1-0134d4d5ddf1" d="M343.519,563.563a2.97,2.97,0,0,1,2.9,3.134v.342h-4.737a2.023,2.023,0,0,0,2.027,1.72,2.332,2.332,0,0,0,1.52-.53l.754.743a3.539,3.539,0,0,1-2.321.789,3.087,3.087,0,0,1-3.147-3.111A3.014,3.014,0,0,1,343.519,563.563Zm-1.826,2.592h3.558a1.789,1.789,0,0,0-3.558,0Z"/>
      <path class="be7e41b2-52eb-4136-96e1-0134d4d5ddf1" d="M347.525,563.657h1.167v.566a2.833,2.833,0,0,1,1.838-.66,3.093,3.093,0,0,1-.035,6.186,2.971,2.971,0,0,1-1.792-.589v2.934h-1.178Zm1.178,1.638v2.734a2.234,2.234,0,0,0,1.662.7,2.068,2.068,0,0,0,0-4.136A2.14,2.14,0,0,0,348.7,565.295Z"/>
      <path class="be7e41b2-52eb-4136-96e1-0134d4d5ddf1" d="M358.813,566.085a1.4,1.4,0,0,0-1.5-1.52,1.689,1.689,0,0,0-1.473.777v4.313h-1.179v-8.248l1.179-.26v3.111a2.451,2.451,0,0,1,1.8-.719,2.237,2.237,0,0,1,2.334,2.345v3.771h-1.167Z"/>
      <path class="be7e41b2-52eb-4136-96e1-0134d4d5ddf1" d="M363.974,567.416a3.92,3.92,0,0,0,2.839,1.3c1.2,0,2-.565,2-1.378,0-.719-.448-1.1-1.674-1.3l-1.378-.224c-1.532-.26-2.251-.978-2.251-2.145,0-1.426,1.19-2.368,3.04-2.368a5.584,5.584,0,0,1,3.323,1.119l-.683.943a4.406,4.406,0,0,0-2.7-1.014c-1.072,0-1.791.5-1.791,1.226,0,.66.412.99,1.473,1.166l1.332.212c1.755.283,2.533,1.014,2.533,2.286,0,1.509-1.32,2.534-3.288,2.534a4.968,4.968,0,0,1-3.535-1.485Z"/>
      <path class="be7e41b2-52eb-4136-96e1-0134d4d5ddf1" d="M371.585,564.647h-1.272v-.99h1.272v-1.532l1.167-.282v1.814h1.767v.99h-1.767V567.9c0,.613.247.837.884.837a2.26,2.26,0,0,0,.86-.142v.99a4.041,4.041,0,0,1-1.12.177c-1.166,0-1.791-.554-1.791-1.591Z"/>
      <path class="be7e41b2-52eb-4136-96e1-0134d4d5ddf1" d="M378.113,563.539a3.117,3.117,0,1,1-3.122,3.111A3.079,3.079,0,0,1,378.113,563.539Zm0,1.037a2.083,2.083,0,1,0,1.968,2.074A2,2,0,0,0,378.113,564.576Z"/>
      <path class="be7e41b2-52eb-4136-96e1-0134d4d5ddf1" d="M382.331,563.657h1.179v.743a1.922,1.922,0,0,1,1.638-.872,1.709,1.709,0,0,1,.612.094v1.06a2.118,2.118,0,0,0-.707-.129,1.614,1.614,0,0,0-1.543,1.084v4.018h-1.179Z"/>
      <path class="be7e41b2-52eb-4136-96e1-0134d4d5ddf1" d="M386.173,567.935c0-1.2,1.025-1.827,2.427-1.827a4.151,4.151,0,0,1,1.638.33V565.8c0-.849-.507-1.273-1.461-1.273a4.344,4.344,0,0,0-1.862.507l-.436-.884a5.637,5.637,0,0,1,2.463-.613c1.543,0,2.45.755,2.45,2.145v3.971h-1.154v-.518a2.827,2.827,0,0,1-1.862.624C387.068,569.761,386.173,569.007,386.173,567.935Zm2.474.954a2.3,2.3,0,0,0,1.591-.566v-1.048a3.143,3.143,0,0,0-1.544-.354c-.825,0-1.39.366-1.39.99C387.3,568.5,387.857,568.889,388.647,568.889Z"/>
      <path class="be7e41b2-52eb-4136-96e1-0134d4d5ddf1" d="M392.488,566.627a3.025,3.025,0,0,1,3.04-3.076,2.891,2.891,0,0,1,1.779.6v-.5h1.167V569.7c0,1.579-.99,2.427-2.746,2.427a4.982,4.982,0,0,1-2.415-.589l.459-.919a4.06,4.06,0,0,0,1.921.519c1.049,0,1.6-.483,1.6-1.426v-.648a2.8,2.8,0,0,1-1.791.636A3.013,3.013,0,0,1,392.488,566.627Zm3.158,2.05a2.161,2.161,0,0,0,1.649-.7v-2.71a2.163,2.163,0,0,0-1.649-.7,2.051,2.051,0,0,0,0,4.1Z"/>
      <path class="be7e41b2-52eb-4136-96e1-0134d4d5ddf1" d="M402.586,563.563a2.969,2.969,0,0,1,2.9,3.134v.342h-4.736a2.022,2.022,0,0,0,2.026,1.72,2.332,2.332,0,0,0,1.52-.53l.755.743a3.54,3.54,0,0,1-2.322.789,3.087,3.087,0,0,1-3.146-3.111A3.014,3.014,0,0,1,402.586,563.563Zm-1.827,2.592h3.559a1.789,1.789,0,0,0-3.559,0Z"/>
    </g>
    <g>
      <path class="be7e41b2-52eb-4136-96e1-0134d4d5ddf1" d="M321.385,554.412c1.417,0,3.469-.294,3.469-1.979a1.622,1.622,0,0,0-.035-.387l-.844-3.667c-.2-.806-.367-1.172-1.783-1.881a16.575,16.575,0,0,0-4.2-1.489c-.66,0-.855.854-1.637.854-.757,0-1.318-.635-2.027-.635-.683,0-1.123.464-1.465,1.417,0,0-.953,2.687-1.075,3.077a.719.719,0,0,0-.025.22c0,1.044,4.112,4.47,9.623,4.47m3.688-1.3a5.644,5.644,0,0,1,.2,1.148c0,1.588-1.783,2.467-4.128,2.467-5.3,0-9.94-3.1-9.94-5.154a2.084,2.084,0,0,1,.171-.83c-1.905.1-4.372.44-4.372,2.613,0,3.566,8.451,7.962,15.143,7.962,5.129,0,6.423-2.32,6.423-4.151,0-1.442-1.246-3.078-3.493-4.055"/>
      <path class="be7e41b2-52eb-4136-96e1-0134d4d5ddf1" d="M372.626,555.466c0,1.347.81,2,2.287,2a5.934,5.934,0,0,0,1.347-.19v-1.561a2.816,2.816,0,0,1-.87.131c-.608,0-.834-.191-.834-.763V552.69h1.763v-1.608h-1.763v-2.038l-1.93.417v1.621h-1.275v1.608h1.275Zm-6,.036c0-.417.417-.619,1.049-.619a4.818,4.818,0,0,1,1.144.143v.81a2.446,2.446,0,0,1-1.2.3c-.619,0-.989-.239-.989-.632m.589,1.99a2.949,2.949,0,0,0,1.74-.489v.382h1.906v-4.039c0-1.538-1.036-2.384-2.764-2.384a7.012,7.012,0,0,0-2.943.692l.691,1.417a5.164,5.164,0,0,1,1.906-.5c.8,0,1.2.31,1.2.941v.31a5.609,5.609,0,0,0-1.43-.179c-1.62,0-2.6.68-2.6,1.895a2.038,2.038,0,0,0,2.287,1.954m-10.473-.107h2.049V554.12h3.432v3.265h2.049v-8.341h-2.049v3.205h-3.432v-3.205h-2.049Zm-7.81-3.158a1.6,1.6,0,0,1,1.657-1.6,1.951,1.951,0,0,1,1.334.488v2.2a1.851,1.851,0,0,1-1.334.5,1.6,1.6,0,0,1-1.657-1.6m3.015,3.158h1.906v-8.758l-1.93.417v2.371a3.248,3.248,0,1,0-1.668,6.053,2.839,2.839,0,0,0,1.692-.548Zm-8.746-4.838a1.394,1.394,0,0,1,1.323,1h-2.633a1.312,1.312,0,0,1,1.31-1m-3.252,1.692a3.309,3.309,0,0,0,3.431,3.265,3.781,3.781,0,0,0,2.633-.953l-1.275-1.132a1.7,1.7,0,0,1-1.263.476,1.63,1.63,0,0,1-1.549-1h4.492v-.476a3.238,3.238,0,1,0-6.469-.179m-3.325-3.443a.948.948,0,1,1,0,1.882H334.6V550.8Zm-4.075,6.589h2.05v-3.039h1.561l1.572,3.039h2.288l-1.835-3.336a2.524,2.524,0,0,0,1.573-2.348,2.708,2.708,0,0,0-2.943-2.657H332.55Z"/>
    </g>
  </g>
  <g>
    <path class="be7e41b2-52eb-4136-96e1-0134d4d5ddf1" d="M323.038,641.769h6.08v1.084h-4.843v2.474h3.182v1.061h-3.182v2.545h4.89v1.084h-6.127Z"/>
    <path class="be7e41b2-52eb-4136-96e1-0134d4d5ddf1" d="M330.3,644.019h1.179v.6a2.47,2.47,0,0,1,1.8-.719,2.239,2.239,0,0,1,2.345,2.345v3.771h-1.178v-3.57a1.4,1.4,0,0,0-1.485-1.52,1.7,1.7,0,0,0-1.484.777v4.313H330.3Z"/>
    <path class="be7e41b2-52eb-4136-96e1-0134d4d5ddf1" d="M337.519,645.009h-1.273v-.99h1.273v-1.532l1.167-.282v1.814h1.767v.99h-1.767v3.252c0,.613.247.837.883.837a2.313,2.313,0,0,0,.86-.142v.99a3.9,3.9,0,0,1-1.119.177c-1.167,0-1.791-.554-1.791-1.591Z"/>
    <path class="be7e41b2-52eb-4136-96e1-0134d4d5ddf1" d="M344.07,650.123a3.087,3.087,0,0,1-3.146-3.111,3.014,3.014,0,0,1,3-3.087,2.97,2.97,0,0,1,2.9,3.134v.342h-4.737a2.023,2.023,0,0,0,2.027,1.72,2.332,2.332,0,0,0,1.52-.53l.754.742A3.573,3.573,0,0,1,344.07,650.123Zm-1.967-3.606h3.558a1.789,1.789,0,0,0-3.558,0Z"/>
    <path class="be7e41b2-52eb-4136-96e1-0134d4d5ddf1" d="M347.947,644.019h1.178v.766a1.878,1.878,0,0,1,1.65-.895,1.494,1.494,0,0,1,.6.094v1.06a2.031,2.031,0,0,0-.695-.129,1.638,1.638,0,0,0-1.556,1.1v4.006h-1.178Z"/>
    <path class="be7e41b2-52eb-4136-96e1-0134d4d5ddf1" d="M352.318,644.019h1.167v.578a2.735,2.735,0,0,1,1.838-.672,3.093,3.093,0,1,1-1.827,5.6v2.934h-1.178Zm1.178,1.65v2.71a2.225,2.225,0,0,0,1.674.707,2.068,2.068,0,0,0,0-4.136A2.151,2.151,0,0,0,353.5,645.669Z"/>
    <path class="be7e41b2-52eb-4136-96e1-0134d4d5ddf1" d="M359.47,644.019h1.179v.766a1.876,1.876,0,0,1,1.649-.895,1.494,1.494,0,0,1,.6.094v1.06a2.027,2.027,0,0,0-.695-.129,1.637,1.637,0,0,0-1.555,1.1v4.006H359.47Z"/>
    <path class="be7e41b2-52eb-4136-96e1-0134d4d5ddf1" d="M363.712,642.322a.724.724,0,0,1,.719-.73.731.731,0,0,1,0,1.461A.724.724,0,0,1,363.712,642.322Zm1.308,7.7h-1.179v-6h1.179Z"/>
    <path class="be7e41b2-52eb-4136-96e1-0134d4d5ddf1" d="M366.481,648.462a3.146,3.146,0,0,0,1.956.754c.848,0,1.437-.366,1.437-.9,0-.424-.306-.672-.966-.766l-1.084-.153c-1.19-.177-1.791-.731-1.791-1.661,0-1.084.942-1.815,2.345-1.815a4.107,4.107,0,0,1,2.415.766l-.6.778a3.333,3.333,0,0,0-1.9-.625c-.719,0-1.2.33-1.2.813,0,.436.283.648.99.754l1.084.153c1.19.177,1.815.743,1.815,1.674,0,1.072-1.084,1.885-2.51,1.885a3.953,3.953,0,0,1-2.628-.884Z"/>
    <path class="be7e41b2-52eb-4136-96e1-0134d4d5ddf1" d="M374.823,650.123a3.086,3.086,0,0,1-3.146-3.111,3.013,3.013,0,0,1,3-3.087,2.97,2.97,0,0,1,2.9,3.134v.342h-4.737a2.023,2.023,0,0,0,2.027,1.72,2.332,2.332,0,0,0,1.52-.53l.754.742A3.572,3.572,0,0,1,374.823,650.123Zm-1.968-3.606h3.559a1.789,1.789,0,0,0-3.559,0Z"/>
    <path class="be7e41b2-52eb-4136-96e1-0134d4d5ddf1" d="M381.3,641.769h1.237v7.152h4.749v1.1H381.3Z"/>
    <path class="be7e41b2-52eb-4136-96e1-0134d4d5ddf1" d="M388.267,642.322a.724.724,0,0,1,.719-.73.731.731,0,0,1,0,1.461A.724.724,0,0,1,388.267,642.322Zm1.308,7.7H388.4v-6h1.179Z"/>
    <path class="be7e41b2-52eb-4136-96e1-0134d4d5ddf1" d="M390.965,644.019h1.178v.6a2.472,2.472,0,0,1,1.8-.719,2.239,2.239,0,0,1,2.345,2.345v3.771h-1.178v-3.57a1.4,1.4,0,0,0-1.485-1.52,1.7,1.7,0,0,0-1.485.777v4.313h-1.178Z"/>
    <path class="be7e41b2-52eb-4136-96e1-0134d4d5ddf1" d="M398.742,647.578a1.405,1.405,0,0,0,1.484,1.532,1.684,1.684,0,0,0,1.473-.79v-4.3h1.179v6H401.7v-.6a2.451,2.451,0,0,1-1.8.719,2.24,2.24,0,0,1-2.333-2.357v-3.759h1.179Z"/>
    <path class="be7e41b2-52eb-4136-96e1-0134d4d5ddf1" d="M405.929,646.941l-2.239-2.922h1.379l1.543,2.062,1.544-2.062h1.332l-2.216,2.911,2.369,3.087H408.25L406.6,647.8l-1.674,2.215H403.6Z"/>
    <path class="be7e41b2-52eb-4136-96e1-0134d4d5ddf1" d="M311.745,634.774c1.416,0,3.468-.294,3.468-1.979a1.635,1.635,0,0,0-.035-.388l-.844-3.666c-.2-.806-.367-1.172-1.783-1.881a16.562,16.562,0,0,0-4.2-1.489c-.66,0-.855.854-1.636.854-.757,0-1.319-.635-2.027-.635-.684,0-1.124.464-1.466,1.417,0,0-.953,2.686-1.075,3.077a.719.719,0,0,0-.025.22c0,1.044,4.112,4.47,9.624,4.47m3.688-1.295a5.67,5.67,0,0,1,.195,1.148c0,1.588-1.783,2.467-4.127,2.467-5.3,0-9.941-3.1-9.941-5.154a2.084,2.084,0,0,1,.171-.83c-1.9.1-4.372.44-4.372,2.613,0,3.566,8.451,7.962,15.143,7.962,5.129,0,6.423-2.32,6.423-4.151,0-1.442-1.245-3.078-3.492-4.055"/>
    <path class="be7e41b2-52eb-4136-96e1-0134d4d5ddf1" d="M362.985,635.828c0,1.347.81,2,2.287,2a5.873,5.873,0,0,0,1.347-.191v-1.56a2.816,2.816,0,0,1-.87.131c-.608,0-.834-.191-.834-.763v-2.395h1.763v-1.608h-1.763v-2.038l-1.93.417v1.621H361.71v1.608h1.275Zm-6,.036c0-.417.418-.619,1.049-.619a4.818,4.818,0,0,1,1.144.143v.81a2.446,2.446,0,0,1-1.2.3c-.619,0-.989-.239-.989-.632m.589,1.99a2.945,2.945,0,0,0,1.74-.489v.382h1.906v-4.04c0-1.537-1.036-2.383-2.764-2.383a7.012,7.012,0,0,0-2.943.692l.691,1.417a5.169,5.169,0,0,1,1.907-.5c.8,0,1.2.31,1.2.941v.31a5.6,5.6,0,0,0-1.43-.179c-1.62,0-2.6.68-2.6,1.895a2.038,2.038,0,0,0,2.287,1.954m-10.473-.107h2.049v-3.265h3.432v3.265h2.049v-8.341h-2.049v3.205h-3.432v-3.205H347.1Zm-7.809-3.158a1.6,1.6,0,0,1,1.656-1.6,1.95,1.95,0,0,1,1.334.488v2.2a1.851,1.851,0,0,1-1.334.5,1.6,1.6,0,0,1-1.656-1.6m3.014,3.158h1.907v-8.758l-1.931.417v2.371a3.248,3.248,0,1,0-1.668,6.053,2.844,2.844,0,0,0,1.692-.548Zm-8.745-4.838a1.393,1.393,0,0,1,1.322,1h-2.633a1.314,1.314,0,0,1,1.311-1m-3.253,1.692a3.309,3.309,0,0,0,3.431,3.265,3.785,3.785,0,0,0,2.634-.953l-1.275-1.132a1.707,1.707,0,0,1-1.263.476,1.628,1.628,0,0,1-1.549-1h4.492v-.476a3.238,3.238,0,1,0-6.47-.179m-3.324-3.443a.948.948,0,1,1,0,1.882h-2.026v-1.882Zm-4.075,6.589h2.049v-3.039h1.561l1.573,3.039h2.287l-1.835-3.337a2.522,2.522,0,0,0,1.573-2.347,2.708,2.708,0,0,0-2.943-2.657H322.91Z"/>
  </g>
  <line class="e8cc92c4-08b8-40bf-b163-45b54b346480" x1="682.5" y1="312.504" x2="682.5" y2="332.004"/>
  <line class="e8cc92c4-08b8-40bf-b163-45b54b346480" x1="682.5" y1="261.004" x2="682.5" y2="280.504"/>
  <rect class="beda81c8-aabd-440b-93a9-62b62285a2a7" x="620" y="331.844" width="125" height="128.5"/>
  <text class="b4ec1513-a0e3-4096-b75f-75b0e88e7b50" transform="translate(635 354.138)">Virtualized<tspan x="0" y="12">Infrastructure</tspan><tspan x="0" y="24">Manager(s)</tspan></text>
  <text class="f22996c1-8aa8-4328-91b6-d608e5ea1a11" transform="translate(620 214.108)">NFV MANO</text>
  <g>
    <path class="be7e41b2-52eb-4136-96e1-0134d4d5ddf1" d="M649.385,402.541c1.417,0,3.469-.293,3.469-1.978a1.576,1.576,0,0,0-.036-.388l-.843-3.666c-.2-.806-.367-1.173-1.783-1.881a16.544,16.544,0,0,0-4.2-1.49c-.66,0-.855.855-1.637.855-.757,0-1.318-.635-2.027-.635-.683,0-1.123.464-1.465,1.417,0,0-.953,2.686-1.075,3.077a.716.716,0,0,0-.025.22c0,1.044,4.112,4.469,9.623,4.469m3.688-1.294a5.633,5.633,0,0,1,.2,1.148c0,1.587-1.783,2.466-4.128,2.466-5.3,0-9.94-3.1-9.94-5.153a2.077,2.077,0,0,1,.171-.83c-1.9.1-4.372.439-4.372,2.613,0,3.566,8.451,7.962,15.143,7.962,5.129,0,6.423-2.32,6.423-4.152,0-1.441-1.246-3.077-3.493-4.054"/>
    <path class="be7e41b2-52eb-4136-96e1-0134d4d5ddf1" d="M664.614,417.914a4.254,4.254,0,1,1,4.3-4.254A4.23,4.23,0,0,1,664.614,417.914Zm0-7.365a3.112,3.112,0,1,0,3.04,3.111A3.018,3.018,0,0,0,664.614,410.549Z"/>
    <path class="be7e41b2-52eb-4136-96e1-0134d4d5ddf1" d="M670.093,411.787h1.166v.577a2.739,2.739,0,0,1,1.839-.672,3.093,3.093,0,1,1-1.827,5.6v2.934h-1.178Zm1.178,1.649v2.71a2.224,2.224,0,0,0,1.673.707,2.068,2.068,0,0,0,0-4.136A2.154,2.154,0,0,0,671.271,413.436Z"/>
    <path class="be7e41b2-52eb-4136-96e1-0134d4d5ddf1" d="M680.144,417.89A3.087,3.087,0,0,1,677,414.779a3.014,3.014,0,0,1,3-3.087,2.97,2.97,0,0,1,2.9,3.135v.341h-4.737a2.023,2.023,0,0,0,2.027,1.721,2.333,2.333,0,0,0,1.52-.531l.754.743A3.577,3.577,0,0,1,680.144,417.89Zm-1.968-3.6h3.558a1.789,1.789,0,0,0-3.558,0Z"/>
    <path class="be7e41b2-52eb-4136-96e1-0134d4d5ddf1" d="M684.02,411.787H685.2v.6a2.468,2.468,0,0,1,1.8-.719,2.239,2.239,0,0,1,2.345,2.345v3.77h-1.178v-3.57a1.4,1.4,0,0,0-1.485-1.52,1.7,1.7,0,0,0-1.485.778v4.312H684.02Z"/>
    <path class="be7e41b2-52eb-4136-96e1-0134d4d5ddf1" d="M690.854,415.545a3.979,3.979,0,0,0,2.84,1.3c1.19,0,2-.565,2-1.378,0-.731-.472-1.1-1.673-1.3l-1.379-.224c-1.508-.248-2.251-.955-2.251-2.145,0-1.437,1.2-2.368,3.04-2.368a5.538,5.538,0,0,1,3.323,1.119l-.683.943a4.378,4.378,0,0,0-2.7-1.013c-1.072,0-1.791.5-1.791,1.225,0,.672.413.99,1.473,1.167l1.332.212c1.744.282,2.533,1,2.533,2.286,0,1.52-1.32,2.533-3.287,2.533a4.965,4.965,0,0,1-3.535-1.485Z"/>
    <path class="be7e41b2-52eb-4136-96e1-0134d4d5ddf1" d="M698.466,412.776h-1.273v-.989h1.273v-1.532l1.166-.283v1.815H701.4v.989h-1.768v3.253c0,.612.248.836.884.836a2.313,2.313,0,0,0,.86-.141v.99a3.9,3.9,0,0,1-1.119.176c-1.167,0-1.791-.553-1.791-1.59Z"/>
    <path class="be7e41b2-52eb-4136-96e1-0134d4d5ddf1" d="M701.965,416.064c0-1.131.919-1.827,2.427-1.827a4.232,4.232,0,0,1,1.638.33v-.636c0-.848-.506-1.273-1.461-1.273a4.274,4.274,0,0,0-1.862.507l-.436-.884a5.619,5.619,0,0,1,2.463-.612c1.555,0,2.451.766,2.451,2.144v3.971H706.03v-.518a2.845,2.845,0,0,1-1.862.624C702.86,417.89,701.965,417.148,701.965,416.064Zm2.475.954a2.3,2.3,0,0,0,1.59-.565v-1.037a3.106,3.106,0,0,0-1.543-.366c-.861,0-1.391.389-1.391.99C703.1,416.618,703.638,417.018,704.44,417.018Z"/>
    <path class="be7e41b2-52eb-4136-96e1-0134d4d5ddf1" d="M713.017,416.123l.707.766a3.316,3.316,0,0,1-2.368,1,3.111,3.111,0,0,1,0-6.221,3.4,3.4,0,0,1,2.415,1l-.742.8a2.229,2.229,0,0,0-1.65-.755,2.071,2.071,0,0,0,.024,4.136A2.184,2.184,0,0,0,713.017,416.123Z"/>
    <path class="be7e41b2-52eb-4136-96e1-0134d4d5ddf1" d="M714.678,409.536l1.179-.259v5.149l2.91-2.639h1.379l-3.087,2.816,3.252,3.181h-1.555l-2.9-2.828v2.828h-1.179Z"/>
    <path class="be7e41b2-52eb-4136-96e1-0134d4d5ddf1" d="M660.678,421.772H664.5a2.473,2.473,0,1,1,0,4.925h-2.58v3.323h-1.238Zm1.238,1.084v2.793h2.451a1.407,1.407,0,1,0,0-2.793Z"/>
    <path class="be7e41b2-52eb-4136-96e1-0134d4d5ddf1" d="M669.5,430.02h-1.179v-8.248l1.179-.259Z"/>
    <path class="be7e41b2-52eb-4136-96e1-0134d4d5ddf1" d="M670.588,428.3c0-1.131.919-1.827,2.427-1.827a4.24,4.24,0,0,1,1.638.33v-.636c0-.848-.507-1.273-1.461-1.273a4.27,4.27,0,0,0-1.862.507l-.436-.884a5.612,5.612,0,0,1,2.463-.612c1.555,0,2.451.766,2.451,2.144v3.971h-1.155V429.5a2.845,2.845,0,0,1-1.862.624C671.483,430.126,670.588,429.384,670.588,428.3Zm2.474.954a2.307,2.307,0,0,0,1.591-.565v-1.037a3.112,3.112,0,0,0-1.544-.366c-.86,0-1.39.389-1.39.99C671.719,428.854,672.261,429.254,673.062,429.254Z"/>
    <path class="be7e41b2-52eb-4136-96e1-0134d4d5ddf1" d="M677.7,425.012h-1.272v-.989H677.7v-1.532l1.167-.283v1.815h1.768v.989h-1.768v3.252c0,.613.247.837.884.837a2.316,2.316,0,0,0,.86-.141v.99a3.9,3.9,0,0,1-1.119.176c-1.167,0-1.792-.554-1.792-1.59Z"/>
    <path class="be7e41b2-52eb-4136-96e1-0134d4d5ddf1" d="M682.524,424.023v-.908a1.788,1.788,0,0,1,2.038-1.932,3.078,3.078,0,0,1,.848.106v1.025a2.337,2.337,0,0,0-.742-.106c-.648,0-.966.295-.966.931v.884h1.708v.989H683.7v5.008h-1.178v-5.008h-1.391v-.989Z"/>
    <path class="be7e41b2-52eb-4136-96e1-0134d4d5ddf1" d="M688.91,423.905a3.117,3.117,0,1,1-3.123,3.11A3.078,3.078,0,0,1,688.91,423.905Zm1.956,3.11a1.966,1.966,0,1,0-1.956,2.086A2,2,0,0,0,690.866,427.015Z"/>
    <path class="be7e41b2-52eb-4136-96e1-0134d4d5ddf1" d="M693.14,424.023h1.178v.765a1.878,1.878,0,0,1,1.65-.9,1.512,1.512,0,0,1,.6.094v1.061a2.01,2.01,0,0,0-.7-.13,1.637,1.637,0,0,0-1.555,1.1v4.006H693.14Z"/>
    <path class="be7e41b2-52eb-4136-96e1-0134d4d5ddf1" d="M697.511,424.023h1.178v.565a2.3,2.3,0,0,1,1.685-.683,2.09,2.09,0,0,1,1.85,1,2.4,2.4,0,0,1,2.027-1,2.2,2.2,0,0,1,2.251,2.345v3.77h-1.179v-3.57a1.347,1.347,0,0,0-1.378-1.52,1.6,1.6,0,0,0-1.4.8,2.457,2.457,0,0,1,.048.519v3.77h-1.167v-3.57a1.347,1.347,0,0,0-1.379-1.52,1.572,1.572,0,0,0-1.355.73v4.36h-1.178Z"/>
    <path class="be7e41b2-52eb-4136-96e1-0134d4d5ddf1" d="M700.626,403.6c0,1.346.81,2,2.287,2a5.936,5.936,0,0,0,1.347-.191v-1.561a2.786,2.786,0,0,1-.87.131c-.608,0-.834-.19-.834-.762V400.82h1.763v-1.609h-1.763v-2.037l-1.93.417v1.62h-1.275v1.609h1.275Zm-6,.036c0-.417.417-.62,1.049-.62a4.87,4.87,0,0,1,1.144.143v.81a2.435,2.435,0,0,1-1.2.3c-.619,0-.989-.238-.989-.631m.589,1.99a2.949,2.949,0,0,0,1.74-.489v.381h1.906v-4.039c0-1.537-1.036-2.383-2.764-2.383a7.01,7.01,0,0,0-2.943.691l.691,1.418a5.145,5.145,0,0,1,1.906-.5c.8,0,1.2.309,1.2.941v.31a5.609,5.609,0,0,0-1.43-.179c-1.62,0-2.6.679-2.6,1.894a2.039,2.039,0,0,0,2.288,1.955m-10.473-.108h2.049V402.25h3.432v3.264h2.049v-8.34h-2.049v3.205h-3.432v-3.205h-2.049Zm-7.81-3.157a1.6,1.6,0,0,1,1.657-1.6,1.952,1.952,0,0,1,1.334.489v2.2a1.851,1.851,0,0,1-1.334.5,1.6,1.6,0,0,1-1.657-1.6m3.015,3.157h1.906v-8.757l-1.93.417v2.371a3.248,3.248,0,1,0-1.668,6.053,2.846,2.846,0,0,0,1.692-.548Zm-8.746-4.837a1.394,1.394,0,0,1,1.323,1h-2.633a1.311,1.311,0,0,1,1.31-1m-3.253,1.692a3.309,3.309,0,0,0,3.432,3.264,3.776,3.776,0,0,0,2.633-.953l-1.275-1.132a1.7,1.7,0,0,1-1.263.477,1.629,1.629,0,0,1-1.549-1h4.492v-.477a3.238,3.238,0,1,0-6.47-.178m-3.324-3.444a.948.948,0,1,1,0,1.883H662.6v-1.883Zm-4.075,6.589h2.05v-3.038h1.561l1.572,3.038h2.288l-1.835-3.336a2.523,2.523,0,0,0,1.573-2.347,2.708,2.708,0,0,0-2.943-2.657H660.55Z"/>
  </g>
  <g>
    <rect class="beda81c8-aabd-440b-93a9-62b62285a2a7" x="605" y="20.004" width="155" height="128"/>
    <text class="b4ec1513-a0e3-4096-b75f-75b0e88e7b50" transform="translate(620.75 42.298)">Enhanced <tspan x="0" y="12">Operations</tspan><tspan x="0" y="24">and Hybrid Cloud</tspan><tspan x="0" y="36">Management</tspan></text>
    <g>
      <g>
        <path class="be7e41b2-52eb-4136-96e1-0134d4d5ddf1" d="M652.886,115.823l.813.825a4.493,4.493,0,0,1-3.3,1.426,4.255,4.255,0,1,1,0-8.508,4.454,4.454,0,0,1,3.323,1.426l-.825.848a3.28,3.28,0,0,0-2.5-1.131,3.111,3.111,0,0,0,.035,6.222A3.2,3.2,0,0,0,652.886,115.823Z"/>
        <path class="be7e41b2-52eb-4136-96e1-0134d4d5ddf1" d="M655.937,117.944h-1.178V109.7l1.178-.259Z"/>
        <path class="be7e41b2-52eb-4136-96e1-0134d4d5ddf1" d="M660.167,111.829a3.117,3.117,0,1,1-3.122,3.11A3.078,3.078,0,0,1,660.167,111.829Zm0,1.037a2.083,2.083,0,1,0,1.968,2.073A2,2,0,0,0,660.167,112.866Z"/>
        <path class="be7e41b2-52eb-4136-96e1-0134d4d5ddf1" d="M665.552,115.517a1.4,1.4,0,0,0,1.5,1.52,1.688,1.688,0,0,0,1.473-.778v-4.312H669.7v6h-1.179v-.6a2.448,2.448,0,0,1-1.8.719,2.236,2.236,0,0,1-2.333-2.345v-3.77h1.167Z"/>
        <path class="be7e41b2-52eb-4136-96e1-0134d4d5ddf1" d="M675.673,117.379a2.832,2.832,0,0,1-1.838.659,3.093,3.093,0,1,1,1.827-5.6V109.7l1.178-.259v8.507h-1.167ZM674,117.013a2.151,2.151,0,0,0,1.662-.718v-2.722a2.239,2.239,0,0,0-1.662-.707,2.074,2.074,0,0,0,0,4.147Z"/>
        <path class="be7e41b2-52eb-4136-96e1-0134d4d5ddf1" d="M678.359,109.7h6.128v1.084H679.6v2.533h3.24v1.061H679.6v3.57h-1.238Z"/>
        <path class="be7e41b2-52eb-4136-96e1-0134d4d5ddf1" d="M687.42,111.829a3.117,3.117,0,1,1-3.122,3.11A3.078,3.078,0,0,1,687.42,111.829Zm0,1.037a2.083,2.083,0,1,0,1.968,2.073A2,2,0,0,0,687.42,112.866Z"/>
        <path class="be7e41b2-52eb-4136-96e1-0134d4d5ddf1" d="M691.639,111.947h1.178v.742a1.922,1.922,0,0,1,1.638-.872,1.719,1.719,0,0,1,.613.094v1.061a2.1,2.1,0,0,0-.707-.13,1.615,1.615,0,0,0-1.544,1.084v4.018h-1.178Z"/>
        <path class="be7e41b2-52eb-4136-96e1-0134d4d5ddf1" d="M696.022,111.947H697.2v.553a2.292,2.292,0,0,1,1.673-.671,2.141,2.141,0,0,1,1.862.989,2.407,2.407,0,0,1,2.027-.989A2.2,2.2,0,0,1,705,114.174v3.77h-1.167v-3.57a1.347,1.347,0,0,0-1.379-1.52,1.6,1.6,0,0,0-1.4.8,2.525,2.525,0,0,1,.047.519v3.77h-1.178v-3.57a1.345,1.345,0,0,0-1.367-1.52,1.558,1.558,0,0,0-1.355.719v4.371h-1.178Z"/>
        <path class="be7e41b2-52eb-4136-96e1-0134d4d5ddf1" d="M706.449,116.389a3.088,3.088,0,0,0,1.956.754c.943,0,1.438-.412,1.438-.9,0-.424-.295-.671-.966-.765l-1.084-.154c-1.179-.165-1.791-.73-1.791-1.661,0-1.1.966-1.815,2.345-1.815a4.122,4.122,0,0,1,2.415.766l-.6.778a3.29,3.29,0,0,0-1.9-.625c-.7,0-1.2.307-1.2.813,0,.448.283.648.99.755l1.084.153c1.214.176,1.815.754,1.815,1.673,0,1.084-1.084,1.885-2.51,1.885a4,4,0,0,1-2.628-.883Z"/>
      </g>
      <g>
        <path class="be7e41b2-52eb-4136-96e1-0134d4d5ddf1" d="M635.135,102.7c1.417,0,3.469-.293,3.469-1.978a1.576,1.576,0,0,0-.036-.388l-.843-3.667c-.2-.806-.367-1.172-1.783-1.88a16.544,16.544,0,0,0-4.2-1.49c-.66,0-.855.855-1.637.855-.757,0-1.318-.635-2.027-.635-.683,0-1.123.464-1.465,1.416,0,0-.953,2.687-1.075,3.077a.722.722,0,0,0-.025.22c0,1.045,4.112,4.47,9.623,4.47m3.688-1.295a5.644,5.644,0,0,1,.2,1.148c0,1.588-1.783,2.467-4.128,2.467-5.3,0-9.94-3.1-9.94-5.153a2.086,2.086,0,0,1,.171-.831c-1.9.1-4.372.44-4.372,2.614,0,3.565,8.451,7.962,15.143,7.962,5.129,0,6.423-2.321,6.423-4.152,0-1.441-1.246-3.078-3.493-4.055"/>
        <path class="be7e41b2-52eb-4136-96e1-0134d4d5ddf1" d="M686.375,103.756c0,1.346.811,2,2.288,2a5.934,5.934,0,0,0,1.347-.19v-1.561a2.816,2.816,0,0,1-.87.131c-.608,0-.834-.191-.834-.763v-2.395h1.763V99.371h-1.763V97.333l-1.931.417v1.621H685.1v1.608h1.274Zm-6,.035c0-.417.417-.619,1.049-.619a4.818,4.818,0,0,1,1.144.143v.81a2.435,2.435,0,0,1-1.2.3c-.619,0-.989-.238-.989-.632m.589,1.99a2.956,2.956,0,0,0,1.74-.488v.381h1.906v-4.039c0-1.537-1.036-2.383-2.764-2.383a7.01,7.01,0,0,0-2.943.691l.691,1.418a5.149,5.149,0,0,1,1.906-.5c.8,0,1.2.31,1.2.942v.309a5.609,5.609,0,0,0-1.43-.178c-1.621,0-2.6.679-2.6,1.894a2.039,2.039,0,0,0,2.288,1.954m-10.473-.107h2.049v-3.265h3.432v3.265h2.049V97.333h-2.049v3.206h-3.432V97.333h-2.049Zm-7.81-3.158a1.6,1.6,0,0,1,1.657-1.6,1.956,1.956,0,0,1,1.334.488v2.2a1.855,1.855,0,0,1-1.334.5,1.6,1.6,0,0,1-1.657-1.6m3.015,3.158H667.6V96.916l-1.93.417v2.372a3.248,3.248,0,1,0-1.668,6.052,2.839,2.839,0,0,0,1.692-.548Zm-8.746-4.838a1.4,1.4,0,0,1,1.323,1h-2.633a1.312,1.312,0,0,1,1.31-1m-3.253,1.692a3.31,3.31,0,0,0,3.432,3.265,3.783,3.783,0,0,0,2.633-.953l-1.275-1.132a1.706,1.706,0,0,1-1.263.477,1.631,1.631,0,0,1-1.549-1h4.492v-.477a3.238,3.238,0,1,0-6.47-.179m-3.324-3.443a.948.948,0,1,1,0,1.883H648.35V99.085Zm-4.075,6.589h2.05v-3.038h1.561l1.572,3.038h2.288l-1.835-3.336a2.524,2.524,0,0,0,1.573-2.348,2.708,2.708,0,0,0-2.943-2.657H646.3Z"/>
      </g>
    </g>
  </g>
  <g>
    <rect class="be7e41b2-52eb-4136-96e1-0134d4d5ddf1" x="605" y="524.913" width="154.5" height="208.5"/>
    <g>
      <polyline class="bcbeb29c-9599-4024-90b1-a405798610c9" points="605 731.913 605 733.413 606.5 733.413"/>
      <line class="a592cdd8-179b-47dc-99f6-30232b6f73b8" x1="609.471" y1="733.413" x2="756.515" y2="733.413"/>
      <polyline class="bcbeb29c-9599-4024-90b1-a405798610c9" points="758 733.413 759.5 733.413 759.5 731.913"/>
      <line class="a6f991c4-b4b4-4136-b850-eef7f3497dad" x1="759.5" y1="728.935" x2="759.5" y2="527.902"/>
      <polyline class="bcbeb29c-9599-4024-90b1-a405798610c9" points="759.5 526.413 759.5 524.913 758 524.913"/>
      <line class="a592cdd8-179b-47dc-99f6-30232b6f73b8" x1="755.029" y1="524.913" x2="607.985" y2="524.913"/>
      <polyline class="bcbeb29c-9599-4024-90b1-a405798610c9" points="606.5 524.913 605 524.913 605 526.413"/>
      <line class="a6f991c4-b4b4-4136-b850-eef7f3497dad" x1="605" y1="529.392" x2="605" y2="730.424"/>
    </g>
  </g>
  <path class="b57c4fc5-d22b-4130-bd6e-f484bbe41bea" d="M670.556,654.475v3.42H668.09v-3.42H664.8v-2.34h3.294v-3.42h2.466v3.42h3.294v2.34Z"/>
  <text class="b40805ff-0382-4110-8243-c2c7d09dfe6c" transform="translate(620 548.627)">Systems <tspan x="0" y="12">Administration,</tspan><tspan x="0" y="24">Automation, </tspan><tspan x="0" y="36">and Life-Cycle </tspan><tspan x="0" y="48">Management</tspan></text>
  <g>
    <path class="ef723cec-0853-418b-84d5-6ad37cdd6874" d="M646.441,634.034a3.979,3.979,0,0,0,2.839,1.3c1.19,0,2-.565,2-1.378,0-.731-.471-1.1-1.673-1.3l-1.378-.224c-1.509-.248-2.251-.955-2.251-2.145,0-1.437,1.2-2.368,3.04-2.368a5.533,5.533,0,0,1,3.323,1.119l-.684.943a4.376,4.376,0,0,0-2.7-1.013c-1.072,0-1.791.494-1.791,1.225,0,.672.413.99,1.473,1.166l1.332.213c1.743.282,2.533,1,2.533,2.286,0,1.52-1.32,2.533-3.288,2.533a4.968,4.968,0,0,1-3.535-1.485Z"/>
    <path class="ef723cec-0853-418b-84d5-6ad37cdd6874" d="M653.439,634.553c0-1.132.919-1.827,2.428-1.827a4.24,4.24,0,0,1,1.638.33v-.636c0-.848-.507-1.273-1.462-1.273a4.256,4.256,0,0,0-1.861.507l-.436-.884a5.612,5.612,0,0,1,2.462-.612c1.556,0,2.451.765,2.451,2.144v3.971h-1.154v-.518a2.849,2.849,0,0,1-1.862.624C654.335,636.379,653.439,635.637,653.439,634.553Zm2.475.954a2.309,2.309,0,0,0,1.591-.565v-1.037a3.112,3.112,0,0,0-1.544-.366c-.86,0-1.39.389-1.39.99C654.571,635.107,655.112,635.507,655.914,635.507Z"/>
    <path class="ef723cec-0853-418b-84d5-6ad37cdd6874" d="M660.556,631.265h-1.272v-.99h1.272v-1.531l1.167-.283v1.814h1.767v.99h-1.767v3.252c0,.613.247.837.884.837a2.316,2.316,0,0,0,.86-.141v.989a3.9,3.9,0,0,1-1.12.177c-1.166,0-1.791-.554-1.791-1.591Z"/>
    <path class="ef723cec-0853-418b-84d5-6ad37cdd6874" d="M667.108,636.379a3.086,3.086,0,0,1-3.146-3.111,3.013,3.013,0,0,1,3-3.087,2.97,2.97,0,0,1,2.9,3.134v.342h-4.737a2.023,2.023,0,0,0,2.027,1.721,2.333,2.333,0,0,0,1.52-.531l.754.743A3.577,3.577,0,0,1,667.108,636.379Zm-1.968-3.606H668.7a1.789,1.789,0,0,0-3.558,0Z"/>
    <path class="ef723cec-0853-418b-84d5-6ad37cdd6874" d="M672.162,636.273h-1.178v-8.248l1.178-.259Z"/>
    <path class="ef723cec-0853-418b-84d5-6ad37cdd6874" d="M674.731,636.273h-1.178v-8.248l1.178-.259Z"/>
    <path class="ef723cec-0853-418b-84d5-6ad37cdd6874" d="M675.991,628.579a.724.724,0,0,1,.719-.731.731.731,0,1,1,0,1.461A.724.724,0,0,1,675.991,628.579Zm1.308,7.694h-1.178v-6H677.3Z"/>
    <path class="ef723cec-0853-418b-84d5-6ad37cdd6874" d="M679.467,631.265H678.2v-.99h1.272v-1.531l1.167-.283v1.814H682.4v.99h-1.767v3.252c0,.613.247.837.884.837a2.316,2.316,0,0,0,.86-.141v.989a3.91,3.91,0,0,1-1.12.177c-1.166,0-1.791-.554-1.791-1.591Z"/>
    <path class="ef723cec-0853-418b-84d5-6ad37cdd6874" d="M686.019,636.379a3.087,3.087,0,0,1-3.147-3.111,3.014,3.014,0,0,1,3-3.087,2.97,2.97,0,0,1,2.9,3.134v.342h-4.737a2.023,2.023,0,0,0,2.027,1.721,2.333,2.333,0,0,0,1.52-.531l.754.743A3.577,3.577,0,0,1,686.019,636.379Zm-1.968-3.606h3.558a1.789,1.789,0,0,0-3.558,0Z"/>
    <path class="ef723cec-0853-418b-84d5-6ad37cdd6874" d="M635.135,621.03c1.417,0,3.469-.293,3.469-1.979a1.573,1.573,0,0,0-.036-.387L637.725,615c-.2-.806-.367-1.172-1.783-1.881a16.575,16.575,0,0,0-4.2-1.489c-.66,0-.855.854-1.637.854-.757,0-1.318-.634-2.027-.634-.683,0-1.123.464-1.465,1.416,0,0-.953,2.687-1.075,3.077a.722.722,0,0,0-.025.22c0,1.044,4.112,4.47,9.623,4.47m3.688-1.295a5.644,5.644,0,0,1,.2,1.148c0,1.588-1.783,2.467-4.128,2.467-5.3,0-9.94-3.1-9.94-5.153a2.086,2.086,0,0,1,.171-.831c-1.9.1-4.372.44-4.372,2.613,0,3.566,8.451,7.962,15.143,7.962,5.129,0,6.423-2.32,6.423-4.151,0-1.442-1.246-3.078-3.493-4.055"/>
    <path class="ef723cec-0853-418b-84d5-6ad37cdd6874" d="M686.375,622.085c0,1.346.811,2,2.288,2a5.934,5.934,0,0,0,1.347-.19v-1.561a2.816,2.816,0,0,1-.87.131c-.608,0-.834-.191-.834-.763v-2.395h1.763V617.7h-1.763v-2.038l-1.931.417V617.7H685.1v1.608h1.274Zm-6,.035c0-.417.417-.619,1.049-.619a4.818,4.818,0,0,1,1.144.143v.81a2.446,2.446,0,0,1-1.2.3c-.619,0-.989-.239-.989-.632m.589,1.99a2.956,2.956,0,0,0,1.74-.488V624h1.906v-4.039c0-1.537-1.036-2.383-2.764-2.383a7.01,7.01,0,0,0-2.943.691l.691,1.418a5.149,5.149,0,0,1,1.906-.5c.8,0,1.2.31,1.2.941v.31a5.609,5.609,0,0,0-1.43-.178c-1.621,0-2.6.679-2.6,1.894a2.039,2.039,0,0,0,2.288,1.954M670.493,624h2.049v-3.265h3.432V624h2.049v-8.341h-2.049v3.2h-3.432v-3.2h-2.049Zm-7.81-3.158a1.6,1.6,0,0,1,1.657-1.6,1.951,1.951,0,0,1,1.334.488v2.205a1.855,1.855,0,0,1-1.334.5,1.6,1.6,0,0,1-1.657-1.6M665.7,624H667.6v-8.758l-1.93.417v2.371a3.248,3.248,0,1,0-1.668,6.053,2.839,2.839,0,0,0,1.692-.548Zm-8.746-4.838a1.4,1.4,0,0,1,1.323,1h-2.633a1.312,1.312,0,0,1,1.31-1m-3.253,1.692a3.31,3.31,0,0,0,3.432,3.265,3.783,3.783,0,0,0,2.633-.953l-1.275-1.132a1.705,1.705,0,0,1-1.263.476,1.63,1.63,0,0,1-1.549-1h4.492v-.477a3.238,3.238,0,1,0-6.47-.179m-3.324-3.443a.948.948,0,1,1,0,1.882H648.35v-1.882ZM646.3,624h2.05v-3.038h1.561L651.483,624h2.288l-1.835-3.336a2.524,2.524,0,0,0,1.573-2.348,2.708,2.708,0,0,0-2.943-2.657H646.3Z"/>
  </g>
  <g>
    <path class="ef723cec-0853-418b-84d5-6ad37cdd6874" d="M649.038,683.221h1.452l3.375,8.262H652.52l-.957-2.419H647.87l-.968,2.419h-1.286Zm2.125,4.816-1.44-3.624-1.435,3.624Z"/>
    <path class="ef723cec-0853-418b-84d5-6ad37cdd6874" d="M654.561,685.475h1.18v.6a2.457,2.457,0,0,1,1.806-.72,2.239,2.239,0,0,1,2.336,2.349v3.777h-1.167v-3.577a1.4,1.4,0,0,0-1.5-1.522,1.692,1.692,0,0,0-1.476.779v4.32h-1.18Z"/>
    <path class="ef723cec-0853-418b-84d5-6ad37cdd6874" d="M661.338,689.925a3.094,3.094,0,0,0,1.96.754c.944,0,1.439-.411,1.439-.9,0-.424-.295-.673-.967-.767l-1.086-.153c-1.18-.166-1.794-.732-1.794-1.665,0-1.1.968-1.816,2.349-1.816a4.133,4.133,0,0,1,2.411.766l-.6.779a3.3,3.3,0,0,0-1.9-.625c-.7,0-1.2.306-1.2.814,0,.454.283.649.991.755l1.086.153c1.216.178,1.815.756,1.815,1.676,0,1.086-1.086,1.888-2.513,1.888a4.011,4.011,0,0,1-2.632-.885Z"/>
    <path class="ef723cec-0853-418b-84d5-6ad37cdd6874" d="M666.6,683.776a.732.732,0,1,1,.732.731A.735.735,0,0,1,666.6,683.776Zm1.322,7.707h-1.18v-6.008h1.18Z"/>
    <path class="ef723cec-0853-418b-84d5-6ad37cdd6874" d="M672.262,691.577a2.949,2.949,0,0,1-1.8-.6v.507h-1.168v-8.262l1.181-.259v3.064a2.782,2.782,0,0,1,1.829-.649,3.1,3.1,0,0,1-.037,6.2Zm-1.792-4.461v2.738a2.23,2.23,0,0,0,1.663.7,2.071,2.071,0,0,0,0-4.142A2.139,2.139,0,0,0,670.47,687.116Z"/>
    <path class="ef723cec-0853-418b-84d5-6ad37cdd6874" d="M677.621,691.483h-1.18v-8.262l1.18-.259Z"/>
    <path class="ef723cec-0853-418b-84d5-6ad37cdd6874" d="M681.739,685.381a2.975,2.975,0,0,1,2.9,3.139v.34H679.9a2.026,2.026,0,0,0,2.03,1.723,2.324,2.324,0,0,0,1.522-.531l.756.744a3.543,3.543,0,0,1-2.325.795,3.094,3.094,0,0,1-3.152-3.115A3.02,3.02,0,0,1,681.739,685.381Zm-1.829,2.6h3.564a1.792,1.792,0,0,0-3.564,0Z"/>
    <path class="ef723cec-0853-418b-84d5-6ad37cdd6874" d="M649.083,695.476h1.1l3.387,8.262h-.99l-1.04-2.6h-3.892l-1.05,2.6h-.944Zm2.136,4.886-1.614-4.036-1.641,4.036Z"/>
    <path class="ef723cec-0853-418b-84d5-6ad37cdd6874" d="M654.974,701.389a1.558,1.558,0,0,0,1.653,1.7,1.827,1.827,0,0,0,1.628-.907v-4.359h.874v5.913h-.874v-.681a2.346,2.346,0,0,1-1.853.8,2.179,2.179,0,0,1-2.29-2.29v-3.745h.862Z"/>
    <path class="ef723cec-0853-418b-84d5-6ad37cdd6874" d="M661.338,698.568H660.06v-.743h1.278v-1.5l.861-.227v1.723h1.783v.743H662.2v3.625c0,.638.26.886.908.886a2.189,2.189,0,0,0,.861-.154v.767a3.444,3.444,0,0,1-1.038.154c-1.039,0-1.589-.508-1.589-1.428Z"/>
    <path class="ef723cec-0853-418b-84d5-6ad37cdd6874" d="M667.472,697.707a3.073,3.073,0,1,1-3.021,3.064A3.012,3.012,0,0,1,667.472,697.707Zm0,.78a2.3,2.3,0,1,0,2.15,2.288A2.2,2.2,0,0,0,667.472,698.487Z"/>
    <path class="ef723cec-0853-418b-84d5-6ad37cdd6874" d="M671.685,697.825h.873v.638a2.223,2.223,0,0,1,1.735-.756,2.073,2.073,0,0,1,1.865,1.079,2.308,2.308,0,0,1,2.018-1.074,2.129,2.129,0,0,1,2.183,2.29v3.744h-.865v-3.572a1.507,1.507,0,0,0-1.534-1.7,1.757,1.757,0,0,0-1.569.968,2.789,2.789,0,0,1,.059.555v3.744h-.863v-3.565a1.507,1.507,0,0,0-1.534-1.7,1.708,1.708,0,0,0-1.5.85v4.414h-.873Z"/>
    <path class="ef723cec-0853-418b-84d5-6ad37cdd6874" d="M681.515,702.062c0-1.2,1.039-1.805,2.361-1.805a3.827,3.827,0,0,1,1.735.4v-.778c0-.957-.544-1.429-1.57-1.429a4.012,4.012,0,0,0-1.853.52l-.33-.673a5.06,5.06,0,0,1,2.27-.59c1.487,0,2.337.721,2.337,2.054v3.977h-.854v-.578a2.858,2.858,0,0,1-1.912.68C682.412,703.844,681.515,703.124,681.515,702.062Zm2.337,1.1a2.416,2.416,0,0,0,1.759-.681v-1.121a3,3,0,0,0-1.712-.461c-.907,0-1.546.437-1.546,1.145C682.353,702.723,682.991,703.16,683.852,703.16Z"/>
    <path class="ef723cec-0853-418b-84d5-6ad37cdd6874" d="M688.431,698.568h-1.275v-.743h1.275v-1.5l.862-.227v1.723h1.782v.743h-1.782v3.625c0,.638.259.886.908.886a2.189,2.189,0,0,0,.861-.154v.767a3.455,3.455,0,0,1-1.039.154c-1.039,0-1.589-.508-1.589-1.428Z"/>
    <path class="ef723cec-0853-418b-84d5-6ad37cdd6874" d="M691.842,696.1a.59.59,0,0,1,1.18,0h0a.59.59,0,1,1-1.18,0Zm1.027,7.636H692v-5.913h.874Z"/>
    <path class="ef723cec-0853-418b-84d5-6ad37cdd6874" d="M697.093,697.707a3.073,3.073,0,1,1-3.022,3.064A3.012,3.012,0,0,1,697.093,697.707Zm0,.78a2.3,2.3,0,1,0,2.146,2.288A2.2,2.2,0,0,0,697.093,698.487Z"/>
    <path class="ef723cec-0853-418b-84d5-6ad37cdd6874" d="M701.307,697.825h.872v.681a2.345,2.345,0,0,1,1.853-.8,2.178,2.178,0,0,1,2.29,2.29v3.744h-.862v-3.564a1.558,1.558,0,0,0-1.652-1.7,1.827,1.827,0,0,0-1.629.908v4.355h-.872Z"/>
    <path class="ef723cec-0853-418b-84d5-6ad37cdd6874" d="M686.452,677.271c0,1.349.811,2,2.291,2a5.915,5.915,0,0,0,1.349-.19v-1.564a2.833,2.833,0,0,1-.872.132c-.608,0-.835-.191-.835-.764v-2.4h1.766V672.88h-1.766v-2.043l-1.929.418v1.625h-1.281v1.611h1.277Zm-6.008.036c0-.417.418-.62,1.05-.62a4.868,4.868,0,0,1,1.146.143v.811a2.428,2.428,0,0,1-1.205.3c-.621,0-.991-.238-.991-.632m.59,1.993a2.952,2.952,0,0,0,1.742-.489v.382h1.91v-4.046c0-1.539-1.038-2.383-2.769-2.383a7.049,7.049,0,0,0-2.95.692l.692,1.42a5.171,5.171,0,0,1,1.91-.5c.8,0,1.205.31,1.205.943v.31a5.626,5.626,0,0,0-1.432-.179c-1.623,0-2.6.681-2.6,1.9a2.043,2.043,0,0,0,2.292,1.957m-10.491-.106h2.053v-3.274h3.439v3.27h2.053v-8.354h-2.053v3.209H672.6v-3.209h-2.053Zm-7.818-3.166a1.6,1.6,0,0,1,1.657-1.6,1.95,1.95,0,0,1,1.337.49v2.207a1.854,1.854,0,0,1-1.337.5,1.605,1.605,0,0,1-1.657-1.6m3.018,3.162h1.91v-8.776l-1.929.418v2.379a3.255,3.255,0,1,0-1.73,6.065h.055a2.835,2.835,0,0,0,1.694-.55Zm-8.759-4.845a1.4,1.4,0,0,1,1.324,1h-2.642a1.316,1.316,0,0,1,1.313-1m-3.253,1.694a3.315,3.315,0,0,0,3.437,3.271,3.791,3.791,0,0,0,2.637-.956l-1.276-1.131a1.709,1.709,0,0,1-1.266.477,1.631,1.631,0,0,1-1.551-1h4.5v-.48a3.242,3.242,0,1,0-6.477-.257v.078m-3.332-3.448a.949.949,0,1,1,0,1.884h-2.028v-1.884Zm-4.085,6.6h2.053V676.15h1.564l1.575,3.043h2.291l-1.834-3.341a2.531,2.531,0,0,0,1.575-2.352,2.713,2.713,0,0,0-2.95-2.661h-4.27Z"/>
    <path class="ef723cec-0853-418b-84d5-6ad37cdd6874" d="M632.677,674.363l3.381,2.662L633.82,671.5Zm1-8.144a8.648,8.648,0,1,0,8.648,8.648,8.648,8.648,0,0,0-8.648-8.648Zm3.548,12.952a.731.731,0,0,1-.478-.211l-4.463-3.607-1.5,3.745h-1.293l3.779-9.087a.567.567,0,0,1,.548-.365.55.55,0,0,1,.532.365l3.443,8.284a.765.765,0,0,1,.059.254.617.617,0,0,1-.612.622Z"/>
  </g>
  <line class="e8cc92c4-08b8-40bf-b163-45b54b346480" x1="620" y1="245.004" x2="589" y2="245.004"/>
  <g>
    <text class="f422de2f-f605-4737-817a-705273484fc4" transform="translate(664.403 806.937)">140_OpenStack_0221</text>
    <rect class="ab0f91c3-770a-4073-b4b8-a1d6df008507" x="0.292" y="783.92" width="760" height="40"/>
  </g>
  <rect class="e813d623-1426-4483-a64a-5a0994ff5a2b" x="620" y="229.004" width="125" height="32"/>
  <text class="b40805ff-0382-4110-8243-c2c7d09dfe6c" transform="translate(635 248.289)">NFV Orchestrator</text>
  <rect class="e813d623-1426-4483-a64a-5a0994ff5a2b" x="620" y="280.504" width="125" height="32"/>
  <text class="b40805ff-0382-4110-8243-c2c7d09dfe6c" transform="translate(635 299.871)">NFV Manager(s)</text>
</svg>
