<svg id="f1c4f1d2-d61a-4519-80f9-d02e5ef880ee" data-name="artwork" xmlns="http://www.w3.org/2000/svg" width="760" height="905"><defs><style>.ac7dfc02-6690-4e39-8e66-7cff60afbf2e{fill:#e8e8e8}.a886a975-4b6f-4ce0-a9ad-c2d8c2ac2e4e,.fa3beb7d-3c72-4f3b-9aa8-e55e9025b7e2{fill:none}.a886a975-4b6f-4ce0-a9ad-c2d8c2ac2e4e{stroke:#151515;stroke-miterlimit:10}.a2be7d9d-51f5-4831-a6e7-e2c23673d851,.b33e4558-6f90-46bb-a212-28831a38cce4,.b76c638d-c599-40bc-bea7-c0284e212031{fill:#151515}.e53db772-3bbb-4aa9-9ae0-69612b3f13f8{fill:#fff}.a2be7d9d-51f5-4831-a6e7-e2c23673d851,.a89fbac4-5e99-4110-ae29-89ea18b6ed94{font-size:12px}.a2be7d9d-51f5-4831-a6e7-e2c23673d851,.a89fbac4-5e99-4110-ae29-89ea18b6ed94,.b76c638d-c599-40bc-bea7-c0284e212031{font-family:RedHatText,&quot;Red Hat Text&quot;,Overpass,&quot;Helvetica Neue&quot;,Arial,sans-serif;font-weight:500}.a89fbac4-5e99-4110-ae29-89ea18b6ed94{fill:#262626;font-weight:700}.afeab615-75bb-46f2-ae0a-8449c590b2f6{letter-spacing:-.015em}.b00e4bb9-23df-421e-b8ff-e7c6debbd8f8{letter-spacing:-.01em}.a1a1c28e-2afc-4007-8d6d-7695efd6adb8{letter-spacing:-.015em}.bf86e0ae-c651-43dd-905f-3786d5cd92bc{letter-spacing:.005em}.a302006e-de1c-42f9-9e33-4001a4db3960,.bcef9e5f-9f95-4271-abf8-f959a826aa4c{letter-spacing:.01em}.bf641969-8845-4349-a432-609d6cebc005{letter-spacing:-.01em}.ac998915-dd4c-496f-87b9-0ede9c3d85b2{letter-spacing:0}.fa3beb7d-3c72-4f3b-9aa8-e55e9025b7e2{stroke:#06c;stroke-linecap:round;stroke-linejoin:round}.efabd182-1bfa-4c07-bc70-e2b738ce0238{fill:#06c}.b76c638d-c599-40bc-bea7-c0284e212031{font-size:11px}</style></defs><path class="ac7dfc02-6690-4e39-8e66-7cff60afbf2e" d="M117.5 20H760v200H117.5z"/><path class="a886a975-4b6f-4ce0-a9ad-c2d8c2ac2e4e" d="M502.5 145v10.324"/><path class="b33e4558-6f90-46bb-a212-28831a38cce4" d="M497.514 153.865l4.986 8.635 4.986-8.635h-9.972z"/><path class="a886a975-4b6f-4ce0-a9ad-c2d8c2ac2e4e" d="M502.5 220v10.324"/><path class="b33e4558-6f90-46bb-a212-28831a38cce4" d="M497.514 228.865l4.986 8.635 4.986-8.635h-9.972z"/><path class="a886a975-4b6f-4ce0-a9ad-c2d8c2ac2e4e" d="M502.5 75v10.324"/><path class="b33e4558-6f90-46bb-a212-28831a38cce4" d="M497.514 83.865L502.5 92.5l4.986-8.635h-9.972z"/><path class="e53db772-3bbb-4aa9-9ae0-69612b3f13f8" d="M265 40h475v35H265z"/><text class="a2be7d9d-51f5-4831-a6e7-e2c23673d851" transform="translate(356.595 62.047)">Register as Technology partner on Red Hat Connect</text><path class="e53db772-3bbb-4aa9-9ae0-69612b3f13f8" d="M265 95h475v50H265z"/><text class="a2be7d9d-51f5-4831-a6e7-e2c23673d851" transform="translate(396.086 116.824)">Create project in Red Hat Connect for<tspan x="-54.179" y="13">Technology partners requesting certification permissions</tspan></text><path class="e53db772-3bbb-4aa9-9ae0-69612b3f13f8" d="M265 165h475v35H265z"/><text class="a2be7d9d-51f5-4831-a6e7-e2c23673d851" transform="translate(341.984 187.047)">Approves SSO account and grants certification privileges</text><text class="a89fbac4-5e99-4110-ae29-89ea18b6ed94" transform="translate(137.5 50.104)">P<tspan class="afeab615-75bb-46f2-ae0a-8449c590b2f6" x="8.52" y="0">r</tspan><tspan x="13.644" y="0" letter-spacing=".005em">o</tspan><tspan x="21.131" y="0">g</tspan><tspan class="b00e4bb9-23df-421e-b8ff-e7c6debbd8f8" x="28.835" y="0">r</tspan><tspan x="34.02" y="0">am</tspan><tspan x="0" y="13">and p</tspan><tspan class="a1a1c28e-2afc-4007-8d6d-7695efd6adb8" x="32.388" y="13">r</tspan><tspan class="bf86e0ae-c651-43dd-905f-3786d5cd92bc" x="37.512" y="13">o</tspan><tspan x="44.999" y="13" letter-spacing="0">du</tspan><tspan class="a302006e-de1c-42f9-9e33-4001a4db3960" x="60.131" y="13">c</tspan><tspan x="66.719" y="13">t</tspan><tspan class="a1a1c28e-2afc-4007-8d6d-7695efd6adb8" x="0" y="26">r</tspan><tspan class="bf86e0ae-c651-43dd-905f-3786d5cd92bc" x="5.124" y="26">e</tspan><tspan x="12.288" y="26">qui</tspan><tspan class="afeab615-75bb-46f2-ae0a-8449c590b2f6" x="30.875" y="26">r</tspan><tspan x="35.999" y="26">eme</tspan><tspan class="afeab615-75bb-46f2-ae0a-8449c590b2f6" x="61.163" y="26">n</tspan><tspan class="bcef9e5f-9f95-4271-abf8-f959a826aa4c" x="68.399" y="26">t</tspan><tspan x="74.015" y="26">s</tspan></text><path class="ac7dfc02-6690-4e39-8e66-7cff60afbf2e" d="M117.5 790H760v75H117.5z"/><text class="a89fbac4-5e99-4110-ae29-89ea18b6ed94" transform="translate(137.5 820.104)"><tspan class="bf641969-8845-4349-a432-609d6cebc005">P</tspan><tspan x="8.4" y="0">ublish the</tspan><tspan class="a1a1c28e-2afc-4007-8d6d-7695efd6adb8" x="0" y="13">c</tspan><tspan class="ac998915-dd4c-496f-87b9-0ede9c3d85b2" x="6.288" y="13">e</tspan><tspan class="a302006e-de1c-42f9-9e33-4001a4db3960" x="13.392" y="13">r</tspan><tspan x="18.815" y="13">tific</tspan><tspan class="a1a1c28e-2afc-4007-8d6d-7695efd6adb8" x="43.211" y="13">a</tspan><tspan x="49.979" y="13">tion</tspan></text><path class="ac7dfc02-6690-4e39-8e66-7cff60afbf2e" d="M117.5 240H760v530H117.5z"/><path class="a886a975-4b6f-4ce0-a9ad-c2d8c2ac2e4e" d="M502.5 295v15M375 320.324V310h255v10.324"/><path class="b33e4558-6f90-46bb-a212-28831a38cce4" d="M379.986 318.865L375 327.5l-4.986-8.635h9.972zM625.014 318.865L630 327.5l4.986-8.635h-9.972z"/><path class="e53db772-3bbb-4aa9-9ae0-69612b3f13f8" d="M265 260h475v35H265z"/><text class="a2be7d9d-51f5-4831-a6e7-e2c23673d851" transform="translate(347.019 282.047)">Prepare test environment and install required packages</text><path class="e53db772-3bbb-4aa9-9ae0-69612b3f13f8" d="M265 810h475v35H265z"/><text class="a2be7d9d-51f5-4831-a6e7-e2c23673d851" transform="translate(370.214 832.047)">Certification appears in the Ecosystem Catalog</text><path class="a886a975-4b6f-4ce0-a9ad-c2d8c2ac2e4e" d="M502.5 640v10.324"/><path class="b33e4558-6f90-46bb-a212-28831a38cce4" d="M497.514 648.865l4.986 8.635 4.986-8.635h-9.972z"/><path class="a886a975-4b6f-4ce0-a9ad-c2d8c2ac2e4e" d="M502.5 585v10.324"/><path class="b33e4558-6f90-46bb-a212-28831a38cce4" d="M497.514 593.865l4.986 8.635 4.986-8.635h-9.972z"/><path class="e53db772-3bbb-4aa9-9ae0-69612b3f13f8" d="M265 550h475v35H265z"/><text class="a2be7d9d-51f5-4831-a6e7-e2c23673d851" transform="translate(362.66 572.047)">Run new OpenStack Bare Metal certification tests</text><path class="e53db772-3bbb-4aa9-9ae0-69612b3f13f8" d="M265 605h475v35H265z"/><text class="a2be7d9d-51f5-4831-a6e7-e2c23673d851" transform="translate(438.493 627.047)">Submit the test results</text><path class="a886a975-4b6f-4ce0-a9ad-c2d8c2ac2e4e" d="M502.5 695v10.324"/><path class="b33e4558-6f90-46bb-a212-28831a38cce4" d="M497.514 703.865l4.986 8.635 4.986-8.635h-9.972z"/><path class="fa3beb7d-3c72-4f3b-9aa8-e55e9025b7e2" d="M265.435 677.5h-1.75"/><path stroke-dasharray="3.8 3.8" stroke="#06c" stroke-linecap="round" stroke-linejoin="round" fill="none" d="M259.885 677.5h-13.3"/><path class="fa3beb7d-3c72-4f3b-9aa8-e55e9025b7e2" d="M244.685 677.5h-1.75v-1.75"/><path stroke-dasharray="3.435 3.435" stroke="#06c" stroke-linecap="round" stroke-linejoin="round" fill="none" d="M242.935 672.315V570.968"/><path class="fa3beb7d-3c72-4f3b-9aa8-e55e9025b7e2" d="M242.935 569.25v-1.75h1.75"/><path stroke-dasharray="2.963 2.963" stroke="#06c" stroke-linecap="round" stroke-linejoin="round" fill="none" d="M247.648 567.5h4.444"/><path class="fa3beb7d-3c72-4f3b-9aa8-e55e9025b7e2" d="M253.574 567.5h1.75"/><path class="efabd182-1bfa-4c07-bc70-e2b738ce0238" d="M253.865 572.486l8.635-4.986-8.635-4.986v9.972z"/><path class="e53db772-3bbb-4aa9-9ae0-69612b3f13f8" d="M265.5 660.5h474v34h-474z"/><path class="efabd182-1bfa-4c07-bc70-e2b738ce0238" d="M739 661v33H266v-33h473m1-1H265v35h475v-35z"/><text class="a2be7d9d-51f5-4831-a6e7-e2c23673d851" transform="translate(438.631 682.047)">Review the test results</text><path class="efabd182-1bfa-4c07-bc70-e2b738ce0238" d="M265 715h475v35H265z"/><text transform="translate(477.294 737.047)" font-family="RedHatText,&quot;Red Hat Text&quot;,Overpass,&quot;Helvetica Neue&quot;,Arial,sans-serif" font-weight="500" font-size="12" fill="#fff">Certified</text><path class="a886a975-4b6f-4ce0-a9ad-c2d8c2ac2e4e" d="M502.5 530v10.324"/><path class="b33e4558-6f90-46bb-a212-28831a38cce4" d="M497.514 538.865l4.986 8.635 4.986-8.635h-9.972z"/><g><path class="a886a975-4b6f-4ce0-a9ad-c2d8c2ac2e4e" d="M502.5 475v10.324"/><path class="b33e4558-6f90-46bb-a212-28831a38cce4" d="M497.514 483.865l4.986 8.635 4.986-8.635h-9.972z"/></g><path class="e53db772-3bbb-4aa9-9ae0-69612b3f13f8" d="M265 440h475v35H265z"/><text class="a2be7d9d-51f5-4831-a6e7-e2c23673d851" transform="translate(335.379 462.047)">Create new OpenStack Compute Node layered certification</text><path class="e53db772-3bbb-4aa9-9ae0-69612b3f13f8" d="M265 495h475v35H265z"/><text class="a2be7d9d-51f5-4831-a6e7-e2c23673d851" transform="translate(352.7 517.047)">Create new OpenStack Bare Metal layered certificate</text><path class="e53db772-3bbb-4aa9-9ae0-69612b3f13f8" d="M265 330h220v35H265z"/><text class="a2be7d9d-51f5-4831-a6e7-e2c23673d851" transform="translate(303.331 352.047)">Existing certified product</text><g><path class="a886a975-4b6f-4ce0-a9ad-c2d8c2ac2e4e" d="M630 365v10.324"/><path class="b33e4558-6f90-46bb-a212-28831a38cce4" d="M625.014 373.865L630 382.5l4.986-8.635h-9.972z"/></g><g><path class="a886a975-4b6f-4ce0-a9ad-c2d8c2ac2e4e" d="M375 365v65.324"/><path class="b33e4558-6f90-46bb-a212-28831a38cce4" d="M370.014 428.865L375 437.5l4.986-8.635h-9.972z"/></g><path class="e53db772-3bbb-4aa9-9ae0-69612b3f13f8" d="M520 330h220v35H520z"/><text class="a2be7d9d-51f5-4831-a6e7-e2c23673d851" transform="translate(593.839 352.047)">New product</text><g><path class="a886a975-4b6f-4ce0-a9ad-c2d8c2ac2e4e" d="M630 420v10.324"/><path class="b33e4558-6f90-46bb-a212-28831a38cce4" d="M625.014 428.865L630 437.5l4.986-8.635h-9.972z"/></g><path class="e53db772-3bbb-4aa9-9ae0-69612b3f13f8" d="M520 385h220v35H520z"/><text class="a2be7d9d-51f5-4831-a6e7-e2c23673d851" transform="translate(549.871 407.047)">Create new RHEL certificate</text><text class="a89fbac4-5e99-4110-ae29-89ea18b6ed94" transform="translate(137.5 270.104)"><tspan class="a1a1c28e-2afc-4007-8d6d-7695efd6adb8">C</tspan><tspan x="8.46" y="0">e</tspan><tspan class="bcef9e5f-9f95-4271-abf8-f959a826aa4c" x="15.564" y="0">r</tspan><tspan x="20.987" y="0">tific</tspan><tspan class="a1a1c28e-2afc-4007-8d6d-7695efd6adb8" x="45.383" y="0">a</tspan><tspan x="52.151" y="0">tion</tspan><tspan class="bf641969-8845-4349-a432-609d6cebc005" x="0" y="13">w</tspan><tspan x="9.276" y="13">or</tspan><tspan class="bf641969-8845-4349-a432-609d6cebc005" x="22.008" y="13">k</tspan><tspan class="ac998915-dd4c-496f-87b9-0ede9c3d85b2" x="29.136" y="13">fl</tspan><tspan class="b00e4bb9-23df-421e-b8ff-e7c6debbd8f8" x="38.111" y="13">o</tspan><tspan x="45.419" y="13">w</tspan></text><g><path class="a886a975-4b6f-4ce0-a9ad-c2d8c2ac2e4e" d="M502.5 770v10.324"/><path class="b33e4558-6f90-46bb-a212-28831a38cce4" d="M497.514 778.865l4.986 8.635 4.986-8.635h-9.972z"/></g><g><text class="b76c638d-c599-40bc-bea7-c0284e212031" transform="translate(22.761 106.899)">Partners</text><path d="M16 97v14H2V97h14m2-2H0v18h18V95z" fill="#e1e1e1"/><g><text class="b76c638d-c599-40bc-bea7-c0284e212031" transform="translate(22.761 133.399)">Red Hat</text><path class="e53db772-3bbb-4aa9-9ae0-69612b3f13f8" d="M.5 122h17v17H.5z"/><path class="efabd182-1bfa-4c07-bc70-e2b738ce0238" d="M17 122.5v16H1v-16h16m1-1H0v18h18v-18z"/></g></g><g><text transform="translate(664.342 888.017)" font-size="10" fill="#ececec" font-family="RedHatText,&quot;Red Hat Text&quot;,Overpass,&quot;Helvetica Neue&quot;,Arial,sans-serif">185_OpenStack_0921</text><path fill="none" d="M0 865h760v40H0z"/></g></svg>