<svg id="artwork" xmlns="http://www.w3.org/2000/svg" viewBox="0 0 760 504.46"><defs><style>.cls-2,.cls-3,.cls-4,.cls-5,.cls-6,.cls-7{fill:none}.cls-8{letter-spacing:.01em}.cls-2{stroke:#5b5b5b;stroke-width:1.5px}.cls-2,.cls-3,.cls-4,.cls-7{stroke-linecap:round;stroke-linejoin:round}.cls-3,.cls-4,.cls-5,.cls-7{stroke:#151515}.cls-9{letter-spacing:0}.cls-12,.cls-13{fill:#151515}.cls-13{font-family:RedHatText,&quot;Red Hat Text&quot;,Overpass,&quot;Helvetica Neue&quot;,Arial,sans-serif;font-weight:700;font-variation-settings:&apos;wght&apos; 700}.cls-14,.cls-17,.cls-19,.cls-23{letter-spacing:0}.cls-25{letter-spacing:.02em}.cls-26{fill:#06c}.cls-27{fill:#e6e6e6}.cls-28,.cls-29{fill:#fff}.cls-30{fill:#7f7f7f}.cls-31{fill:#a6a6a6}.cls-32{fill:#d9e8f7}.cls-33,.cls-36{letter-spacing:0}.cls-37{letter-spacing:-.02em}.cls-38,.cls-39{letter-spacing:-.01em}.cls-4{stroke-dasharray:0 0 3.02 3.02}.cls-45,.cls-46{letter-spacing:.02em}.cls-47,.cls-48{letter-spacing:0}.cls-52{letter-spacing:-.01em}.cls-53,.cls-57{letter-spacing:0}.cls-12,.cls-29{font-family:RedHatText,&quot;Red Hat Text&quot;,Overpass,&quot;Helvetica Neue&quot;,Arial,sans-serif;font-weight:500;font-variation-settings:&apos;wght&apos; 500}.cls-59,.cls-61,.cls-62,.cls-63,.cls-65,.cls-69,.cls-70,.cls-71,.cls-72,.cls-74{letter-spacing:0}.cls-75{letter-spacing:-.02em}.cls-77,.cls-78,.cls-79{letter-spacing:0}.cls-12,.cls-29{font-size:12px}.cls-82{letter-spacing:.03em}.cls-5,.cls-6{stroke-miterlimit:10}.cls-6{stroke:#bfbfbf}.cls-86{letter-spacing:-.03em}.cls-87{letter-spacing:0}.cls-90,.cls-92{letter-spacing:-.02em}.cls-100{letter-spacing:0}.cls-7{stroke-dasharray:0 0 3.02 3.02}.cls-13{font-size:14px}.cls-105,.cls-106,.cls-108,.cls-112,.cls-113{letter-spacing:0}.cls-114{letter-spacing:-.01em}.cls-116,.cls-117,.cls-120{letter-spacing:0}</style></defs><path class="cls-27" d="M0 20.46h760v444H0z"/><text transform="translate(24.69 58.6)" style="font-variation-settings:'wght' 700" font-family="RedHatText,&quot;Red Hat Text&quot;,Overpass,&quot;Helvetica Neue&quot;,Arial,sans-serif" font-weight="700" fill="#151515" font-size="16"><tspan x="0" y="0" letter-spacing=".01em">A</tspan><tspan x="12.06" y="0" letter-spacing="0">ma</tspan><tspan x="35.77" y="0" letter-spacing="-.03em">z</tspan><tspan x="43.44" y="0" letter-spacing="0">o</tspan><tspan x="53.35" y="0">n </tspan><tspan x="66.68" y="0" letter-spacing="-.03em">W</tspan><tspan class="cls-23" x="81.87" y="0">e</tspan><tspan x="91.3" y="0" letter-spacing="0">b </tspan><tspan x="105.05" y="0" letter-spacing="0">S</tspan><tspan class="cls-23" x="115.62" y="0">e</tspan><tspan x="125.05" y="0" letter-spacing=".04em">r</tspan><tspan x="132.68" y="0" letter-spacing="0">v</tspan><tspan x="142.26" y="0" letter-spacing="0">i</tspan><tspan x="146.83" y="0" letter-spacing="-.01em">c</tspan><tspan x="155.24" y="0" letter-spacing="0">e</tspan><tspan x="164.75" y="0">s</tspan></text><path class="cls-28" d="M40.19 85.02h271.5v338.59H40.19z"/><text class="cls-13" transform="translate(60.19 114.92)"><tspan class="cls-106" x="0" y="0">V</tspan><tspan class="cls-120" x="10.5" y="0">P</tspan><tspan x="20.38" y="0">C</tspan></text><path class="cls-32" d="M70.69 150.02h221v35h-221z"/><text class="cls-12" transform="translate(145.73 171.02)"><tspan class="cls-14" x="0" y="0">B</tspan><tspan class="cls-117" x="8.36" y="0">as</tspan><tspan x="20.83" y="0">e </tspan><tspan class="cls-25" x="30.4" y="0">s</tspan><tspan class="cls-71" x="36.34" y="0">y</tspan><tspan class="cls-45" x="42.88" y="0">s</tspan><tspan class="cls-92" x="48.85" y="0">t</tspan><tspan class="cls-72" x="53.55" y="0">e</tspan><tspan x="60.41" y="0">m</tspan></text><path class="cls-6" d="M60.69 265.02v35h221"/><path class="cls-6" d="M65.69 260.02v35h221"/><path class="cls-27" d="M70.69 255.02h221v35h-221z"/><text class="cls-12" transform="translate(136.9 276.02)"><tspan class="cls-8" x="0" y="0">R</tspan><tspan class="cls-36" x="8.21" y="0">H</tspan><tspan class="cls-33" x="17.25" y="0">E</tspan><tspan x="24.83" y="0">L </tspan><tspan class="cls-77" x="35.04" y="0">i</tspan><tspan class="cls-19" x="38.12" y="0">n</tspan><tspan class="cls-45" x="45.17" y="0">s</tspan><tspan class="cls-70" x="51.14" y="0">t</tspan><tspan class="cls-63" x="56.13" y="0">a</tspan><tspan x="62.79" y="0">n</tspan><tspan class="cls-38" x="69.77" y="0">c</tspan><tspan class="cls-69" x="75.91" y="0">e</tspan><tspan class="cls-61" x="82.83" y="0">s</tspan></text><path class="cls-5" d="M181.19 235.02v20"/><path class="cls-3" d="M326.69 437.02v1.5h-1.5"/><path class="cls-4" d="M322.18 438.52H28.2"/><path class="cls-3" d="M26.69 438.52h-1.5v-1.5"/><path class="cls-7" d="M25.19 433.99V133.03"/><path class="cls-3" d="M25.19 131.52v-1.5h1.5"/><path class="cls-4" d="M29.71 130.02h293.97"/><path class="cls-3" d="M325.19 130.02h1.5v1.5"/><path class="cls-7" d="M326.69 134.54v300.97"/><path class="cls-27" d="M125.19 433.14h101.5v10.75h-101.5z"/><text class="cls-12" transform="translate(130.14 442.22)"><tspan class="cls-75" x="0" y="0">A</tspan><tspan x="8.17" y="0">v</tspan><tspan class="cls-48" x="14.68" y="0">a</tspan><tspan class="cls-62" x="21.31" y="0">i</tspan><tspan x="24.39" y="0">l</tspan><tspan class="cls-65" x="27.41" y="0">a</tspan><tspan x="34.07" y="0">b</tspan><tspan class="cls-62" x="41.4" y="0">il</tspan><tspan class="cls-57" x="47.55" y="0">i</tspan><tspan class="cls-82" x="50.61" y="0">t</tspan><tspan class="cls-59" x="55.94" y="0">y </tspan><tspan class="cls-86" x="65.08" y="0">z</tspan><tspan class="cls-53" x="70.53" y="0">o</tspan><tspan class="cls-70" x="77.72" y="0">n</tspan><tspan x="84.73" y="0">e</tspan></text><path class="cls-5" d="M129.36 389.51H61.19v-51.99h9.5"/><path class="cls-31" d="M137.29 375.5h109.13v28.01H137.29c-10.58 0-10.58-28.01 0-28.01z"/><text class="cls-29" transform="translate(140 392.92)"><tspan class="cls-105" x="0" y="0">E</tspan><tspan x="7.64" y="0">l</tspan><tspan class="cls-116" x="10.67" y="0">a</tspan><tspan class="cls-46" x="17.32" y="0">s</tspan><tspan x="23.29" y="0">t</tspan><tspan class="cls-78" x="28.26" y="0">i</tspan><tspan class="cls-47" x="31.27" y="0">c </tspan><tspan class="cls-108" x="40.25" y="0">I</tspan><tspan x="43.67" y="0">P</tspan></text><path class="cls-30" d="M211.12 375.5h116.06v28.01H211.12c-10.58 0-10.58-28.01 0-28.01z"/><text class="cls-29" transform="translate(213.67 392.92)"><tspan class="cls-17" x="0" y="0">I</tspan><tspan class="cls-52" x="3.41" y="0">n</tspan><tspan class="cls-90" x="10.24" y="0">t</tspan><tspan class="cls-74" x="14.94" y="0">e</tspan><tspan class="cls-17" x="21.81" y="0">r</tspan><tspan class="cls-70" x="26.6" y="0">n</tspan><tspan class="cls-37" x="33.61" y="0">e</tspan><tspan x="40.3" y="0">t </tspan><tspan class="cls-39" x="47.96" y="0">G</tspan><tspan class="cls-112" x="57.45" y="0">a</tspan><tspan class="cls-90" x="63.95" y="0">t</tspan><tspan class="cls-9" x="68.65" y="0">e</tspan><tspan class="cls-87" x="75.42" y="0">w</tspan><tspan class="cls-100" x="84.18" y="0">a</tspan><tspan x="90.66" y="0">y</tspan></text><path class="cls-26" d="M70.69 185.02h221v50h-221z"/><text class="cls-29" transform="translate(137.71 213.52)"><tspan x="0" y="0" letter-spacing="0">S</tspan><tspan class="cls-112" x="7.75" y="0">a</tspan><tspan class="cls-90" x="14.25" y="0">t</tspan><tspan x="18.95" y="0">e</tspan><tspan x="25.82" y="0" letter-spacing="0">ll</tspan><tspan class="cls-57" x="31.97" y="0">i</tspan><tspan class="cls-90" x="35.03" y="0">t</tspan><tspan x="39.73" y="0">e </tspan><tspan x="49.3" y="0" letter-spacing="0">S</tspan><tspan class="cls-72" x="57.03" y="0">e</tspan><tspan x="63.9" y="0" letter-spacing=".04em">r</tspan><tspan x="69.05" y="0" letter-spacing="-.01em">v</tspan><tspan class="cls-74" x="75.39" y="0">e</tspan><tspan x="82.25" y="0">r</tspan></text><path class="cls-28" d="M448 85.02h271.5v338.59H448z"/><text class="cls-13" transform="translate(468 114.92)"><tspan class="cls-106" x="0" y="0">V</tspan><tspan class="cls-120" x="10.5" y="0">P</tspan><tspan x="20.38" y="0">C</tspan></text><path class="cls-32" d="M468 150.02h221v35H468z"/><text class="cls-12" transform="translate(543.04 171.02)"><tspan class="cls-14" x="0" y="0">B</tspan><tspan class="cls-117" x="8.36" y="0">as</tspan><tspan x="20.83" y="0">e </tspan><tspan class="cls-25" x="30.4" y="0">s</tspan><tspan class="cls-71" x="36.34" y="0">y</tspan><tspan class="cls-45" x="42.88" y="0">s</tspan><tspan class="cls-92" x="48.85" y="0">t</tspan><tspan class="cls-72" x="53.55" y="0">e</tspan><tspan x="60.41" y="0">m</tspan></text><path class="cls-6" d="M699 265.02v35H478"/><path class="cls-6" d="M694 260.02v35H473"/><path class="cls-27" d="M468 255.02h221v35H468z"/><text class="cls-12" transform="translate(534.21 276.02)"><tspan class="cls-8" x="0" y="0">R</tspan><tspan class="cls-36" x="8.21" y="0">H</tspan><tspan class="cls-33" x="17.25" y="0">E</tspan><tspan x="24.83" y="0">L </tspan><tspan class="cls-77" x="35.04" y="0">i</tspan><tspan class="cls-19" x="38.12" y="0">n</tspan><tspan class="cls-45" x="45.17" y="0">s</tspan><tspan class="cls-70" x="51.14" y="0">t</tspan><tspan class="cls-63" x="56.13" y="0">a</tspan><tspan x="62.79" y="0">n</tspan><tspan class="cls-38" x="69.77" y="0">c</tspan><tspan class="cls-69" x="75.91" y="0">e</tspan><tspan class="cls-61" x="82.83" y="0">s</tspan></text><path class="cls-28" d="M71.19 320.52h220v34h-220z"/><path class="cls-26" d="M290.69 321.02v33h-219v-33h219m1-1h-221v35h221v-35z"/><text class="cls-12" transform="translate(125.65 341.02)"><tspan class="cls-8" x="0" y="0">R</tspan><tspan class="cls-36" x="8.21" y="0">H</tspan><tspan class="cls-33" x="17.25" y="0">E</tspan><tspan x="24.83" y="0">L </tspan><tspan class="cls-79" x="35.04" y="0">V</tspan><tspan class="cls-114" x="43.51" y="0">P</tspan><tspan x="51.5" y="0">N </tspan><tspan class="cls-77" x="63.33" y="0">i</tspan><tspan class="cls-19" x="66.41" y="0">n</tspan><tspan class="cls-45" x="73.46" y="0">s</tspan><tspan class="cls-113" x="79.43" y="0">t</tspan><tspan class="cls-65" x="84.42" y="0">a</tspan><tspan x="91.07" y="0">n</tspan><tspan class="cls-38" x="98.06" y="0">c</tspan><tspan x="104.2" y="0">e</tspan></text><path class="cls-28" d="M468.5 320.52h220v34h-220z"/><path class="cls-26" d="M688 321.02v33H469v-33h219m1-1H468v35h221v-35z"/><text class="cls-12" transform="translate(522.96 341.02)"><tspan class="cls-8" x="0" y="0">R</tspan><tspan class="cls-36" x="8.21" y="0">H</tspan><tspan class="cls-33" x="17.25" y="0">E</tspan><tspan x="24.83" y="0">L </tspan><tspan class="cls-79" x="35.04" y="0">V</tspan><tspan class="cls-114" x="43.51" y="0">P</tspan><tspan x="51.5" y="0">N </tspan><tspan class="cls-77" x="63.33" y="0">i</tspan><tspan class="cls-19" x="66.41" y="0">n</tspan><tspan class="cls-45" x="73.46" y="0">s</tspan><tspan class="cls-113" x="79.43" y="0">t</tspan><tspan class="cls-65" x="84.42" y="0">a</tspan><tspan x="91.07" y="0">n</tspan><tspan class="cls-38" x="98.06" y="0">c</tspan><tspan x="104.2" y="0">e</tspan></text><path class="cls-5" d="M578.5 235.02v20"/><g><path class="cls-3" d="M433 437.02v1.5h1.5"/><path class="cls-4" d="M437.52 438.52h293.97"/><path class="cls-3" d="M733 438.52h1.5v-1.5"/><path class="cls-7" d="M734.5 433.99V133.03"/><path class="cls-3" d="M734.5 131.52v-1.5H733"/><path class="cls-4" d="M729.98 130.02H436.01"/><path class="cls-3" d="M434.5 130.02H433v1.5"/><path class="cls-7" d="M433 134.54v300.97"/></g><path class="cls-27" d="M532.64 433.14h102.21v10.75H532.64z"/><text class="cls-12" transform="translate(537.95 442.22)"><tspan class="cls-75" x="0" y="0">A</tspan><tspan x="8.17" y="0">v</tspan><tspan class="cls-48" x="14.68" y="0">a</tspan><tspan class="cls-62" x="21.31" y="0">i</tspan><tspan x="24.39" y="0">l</tspan><tspan class="cls-65" x="27.41" y="0">a</tspan><tspan x="34.07" y="0">b</tspan><tspan class="cls-62" x="41.4" y="0">il</tspan><tspan class="cls-57" x="47.55" y="0">i</tspan><tspan class="cls-82" x="50.61" y="0">t</tspan><tspan class="cls-59" x="55.94" y="0">y </tspan><tspan class="cls-86" x="65.08" y="0">z</tspan><tspan class="cls-53" x="70.53" y="0">o</tspan><tspan class="cls-70" x="77.72" y="0">n</tspan><tspan x="84.73" y="0">e</tspan></text><path class="cls-5" d="M630.1 389.51H699v-51.99h-10M327.19 389.51H432.5"/><g><path class="cls-31" d="M622.4 375.5H513.27v28.01H622.4c10.58 0 10.58-28.01 0-28.01z"/><text class="cls-29" transform="translate(567.86 392.92)"><tspan class="cls-105" x="0" y="0">E</tspan><tspan x="7.64" y="0">l</tspan><tspan class="cls-116" x="10.67" y="0">a</tspan><tspan class="cls-46" x="17.32" y="0">s</tspan><tspan x="23.29" y="0">t</tspan><tspan class="cls-78" x="28.26" y="0">i</tspan><tspan class="cls-47" x="31.27" y="0">c </tspan><tspan class="cls-108" x="40.25" y="0">I</tspan><tspan x="43.67" y="0">P</tspan></text><path class="cls-30" d="M548.57 375.5H432.51v28.01h116.06c10.58 0 10.58-28.01 0-28.01z"/><text class="cls-29" transform="translate(448.92 392.92)"><tspan class="cls-17" x="0" y="0">I</tspan><tspan class="cls-52" x="3.41" y="0">n</tspan><tspan class="cls-90" x="10.24" y="0">t</tspan><tspan class="cls-74" x="14.94" y="0">e</tspan><tspan class="cls-17" x="21.81" y="0">r</tspan><tspan class="cls-70" x="26.6" y="0">n</tspan><tspan class="cls-37" x="33.61" y="0">e</tspan><tspan x="40.3" y="0">t </tspan><tspan class="cls-39" x="47.96" y="0">G</tspan><tspan x="57.45" y="0" letter-spacing="0">a</tspan><tspan class="cls-90" x="63.95" y="0">t</tspan><tspan class="cls-9" x="68.65" y="0">e</tspan><tspan class="cls-87" x="75.42" y="0">w</tspan><tspan class="cls-100" x="84.18" y="0">a</tspan><tspan x="90.66" y="0">y</tspan></text></g><path class="cls-26" d="M468 185.02h221v50H468z"/><text class="cls-29" transform="translate(535.58 213.52)"><tspan x="0" y="0" letter-spacing="0">C</tspan><tspan class="cls-63" x="8.7" y="0">a</tspan><tspan x="15.36" y="0" letter-spacing="0">p</tspan><tspan x="22.71" y="0" letter-spacing="0">s</tspan><tspan x="28.51" y="0" letter-spacing="0">u</tspan><tspan x="35.54" y="0" letter-spacing="0">l</tspan><tspan x="38.61" y="0">e </tspan><tspan x="48.18" y="0" letter-spacing="0">S</tspan><tspan class="cls-74" x="55.91" y="0">e</tspan><tspan x="62.78" y="0" letter-spacing=".04em">r</tspan><tspan x="67.93" y="0" letter-spacing="-.01em">v</tspan><tspan class="cls-74" x="74.27" y="0">e</tspan><tspan class="cls-47" x="81.13" y="0">r</tspan></text><g><text transform="translate(368.22 423.05)" style="font-variation-settings:'wght' 500" font-family="RedHatText,&quot;Red Hat Text&quot;,Overpass,&quot;Helvetica Neue&quot;,Arial,sans-serif" font-weight="500" font-size="11" fill="#151515"><tspan x="0" y="0" letter-spacing=".01em">V</tspan><tspan x="7.81" y="0" letter-spacing="0">P</tspan><tspan x="15.19" y="0" letter-spacing="0">N</tspan><tspan x="-17.32" y="12" letter-spacing="0">c</tspan><tspan x="-11.65" y="12" letter-spacing="0">o</tspan><tspan x="-5" y="12" letter-spacing="0">n</tspan><tspan x="1.5" y="12" letter-spacing="0">n</tspan><tspan x="7.97" y="12" letter-spacing="0">e</tspan><tspan x="14.34" y="12" letter-spacing=".03em">c</tspan><tspan x="20.42" y="12" letter-spacing="0">t</tspan><tspan x="25.02" y="12" letter-spacing="0">i</tspan><tspan x="27.84" y="12" letter-spacing="0">o</tspan><tspan x="34.48" y="12">n</tspan></text><path class="cls-28" d="M394.73 374.25l-14.56-3.1a.97.97 0 00-.34 0l-14.56 3.1c-.38.08-.66.42-.66.81v16.76c0 8.49 6.9 15.39 15.39 15.39s15.39-6.9 15.39-15.39v-16.76c0-.39-.27-.73-.66-.81z"/><path class="cls-2" d="M375.28 389.31l2.84 2.81 6.54-6.5"/><path class="cls-2" d="M380 406.43c-8.06 0-14.61-6.55-14.61-14.61v-16.8l14.61-3.1 14.61 3.1v16.8c0 8.06-6.55 14.61-14.61 14.61z"/></g><g><text transform="translate(670.98 487.48)" style="font-variation-settings:'wght' 400" fill="#ececec" font-family="RedHatText,&quot;Red Hat Text&quot;,Overpass,&quot;Helvetica Neue&quot;,Arial,sans-serif" font-size="10"><tspan x="0" y="0" letter-spacing="0">2</tspan><tspan x="5.53" y="0" letter-spacing="0">7</tspan><tspan x="11.06" y="0" letter-spacing=".04em">8</tspan><tspan x="17.64" y="0" letter-spacing=".06em">_</tspan><tspan class="cls-46" x="22.8" y="0">S</tspan><tspan x="29.21" y="0" letter-spacing="0">a</tspan><tspan x="34.48" y="0" letter-spacing="-.01em">t</tspan><tspan x="38.14" y="0" letter-spacing="0">e</tspan><tspan x="43.81" y="0" letter-spacing=".01em">ll</tspan><tspan x="48.53" y="0" letter-spacing=".01em">i</tspan><tspan x="50.87" y="0" letter-spacing="-.01em">t</tspan><tspan x="54.53" y="0" letter-spacing=".02em">e</tspan><tspan x="60.29" y="0" letter-spacing=".02em">_</tspan><tspan x="65.07" y="0" letter-spacing=".01em">0</tspan><tspan x="71.77" y="0" letter-spacing="-.01em">9</tspan><tspan x="77.85" y="0" letter-spacing=".02em">2</tspan><tspan x="83.54" y="0" letter-spacing="0">2</tspan></text><path fill="none" d="M0 464.46h760v40H0z"/></g></svg>