<svg id="ac7102ea-bce8-4136-a757-24f0c338f0bf" data-name="artwork" xmlns="http://www.w3.org/2000/svg" width="760" height="371"><defs><style>.e2dce91d-b730-4557-8837-9f77f811afd3{fill:none}.b85832af-5f02-46d0-8a5c-9e0eaa229cf5{fill:#e8e8e8}.e2dce91d-b730-4557-8837-9f77f811afd3{stroke:#151515;stroke-linecap:round;stroke-linejoin:round}.a36a3e76-b576-4207-a28e-a22e5466ebcd,.a716e5c2-aed0-4b41-9ad3-291662e0b591,.aab465c4-e899-4ff5-a39f-8696f5f5d32f,.b52ab1ca-dc7e-487b-a5f4-209fa3a16f03{fill:#151515}.a0bfaa03-ee03-4268-b5f7-c2a20b41ea06,.b0343793-332d-46e8-b45b-20b462eeb500{fill:#fff}.b3b5bc6e-7278-4eb2-8c34-56a53d33ea5e{fill:#06c}.a0bfaa03-ee03-4268-b5f7-c2a20b41ea06,.a36a3e76-b576-4207-a28e-a22e5466ebcd,.a716e5c2-aed0-4b41-9ad3-291662e0b591{font-size:11px}.a0bfaa03-ee03-4268-b5f7-c2a20b41ea06,.a36a3e76-b576-4207-a28e-a22e5466ebcd{font-family:RedHatText,&quot;Red Hat Text&quot;,Overpass,&quot;Helvetica Neue&quot;,Arial,sans-serif;font-weight:500}.bb2c1f9e-85f2-491c-a380-425a8bbfa632{letter-spacing:.011em}.ec0e94be-b998-49b8-954a-059fbf4c8a7f{letter-spacing:.007em}.bed0e25d-da73-4269-971e-3fb093207157{letter-spacing:.008em}.a2d08665-77ff-44ad-a6d4-1d776388d672{letter-spacing:.004em}.fc022151-c048-400f-93c6-21708eed085c{letter-spacing:-.006em}.e30c284c-88d9-4707-951a-245ff36a105e{letter-spacing:.01em}.b49ac110-95b5-4dd3-8cee-7fd2d8bb2bb3{letter-spacing:-.005em}.f0f2ac19-32ca-440d-90a1-785badeeec5f{letter-spacing:.009em}.ab37f92a-0b12-4869-a481-877435ea552d{letter-spacing:.007em}.a716e5c2-aed0-4b41-9ad3-291662e0b591{font-family:RedHatText,&quot;Red Hat Text&quot;,Overpass,&quot;Helvetica Neue&quot;,Arial,sans-serif;font-style:italic}.e95f6001-187b-429e-ab76-9195c0b4ad81{letter-spacing:.006em}.f766fb53-4c08-4b1c-aea0-deba2682a740{letter-spacing:.034em}.ba26b8f6-38e8-4ef7-9229-3a0c492b24c6{letter-spacing:.004em}.feb762d8-490b-4ebc-a5fd-b7087a635424{letter-spacing:.014em}.a9bda511-2e9e-4fe2-b784-1231046a9cd0{letter-spacing:-.075em}.b0f04f31-bb38-4554-9c6f-50600e827e4a{letter-spacing:.027em}.f53448e4-3f89-4fda-be1a-cac9aebbb67a{letter-spacing:.012em}.bb107187-23ce-495b-9e02-6989406fdaaf{letter-spacing:-.041em}.e0237eef-eeeb-4cc2-8ba2-bba31aebeb80{letter-spacing:0}.bf7648c7-a5e8-4c09-9a8d-36727cce1406{letter-spacing:.008em}.ee5856ef-69f4-4008-8fdd-99c410445afd{letter-spacing:.01em}.a4e97b13-da1a-4700-9256-c09bc65e02ed{letter-spacing:.004em}.af428180-352d-4aca-a3e5-7b1b83d2ab57{letter-spacing:-.003em}.aab465c4-e899-4ff5-a39f-8696f5f5d32f{font-size:14px;font-family:RedHatText,&quot;Red Hat Text&quot;,Overpass,&quot;Helvetica Neue&quot;,Arial,sans-serif;font-weight:700}.b6f94860-c6c8-406c-ba60-51dcf334a650{letter-spacing:.012em}.bc700936-150d-4331-b207-ff28ed2e6129{letter-spacing:.003em}.ad66c463-3064-4943-93a2-ce80f1ef3202{letter-spacing:-.008em}.b676c511-b080-4e6f-999c-900f818f8829{letter-spacing:.005em}.f7fdd47c-6795-4b1d-aa61-980e2ffee4e5{letter-spacing:.014em}.a3b8276a-9b22-490d-be63-09b38c4f274f{letter-spacing:.004em}.a8aa498d-9824-4bdd-8624-e58a2b2ea351{letter-spacing:.009em}.b28e2f1b-1f24-4ebe-95dd-3bc6b03463f3{letter-spacing:.011em}.ee971d9d-274d-4c59-9c29-0cf509e7a09e{letter-spacing:.006em}.e2c7b583-121d-4c1d-93a6-a48fd79bea41{letter-spacing:.008em}.ab0c2878-a141-4049-9f9f-491b28438e7c{letter-spacing:.014em}.f005b3a4-46b1-4948-9cff-8142b42ac13e{letter-spacing:.001em}.b520c8a9-5270-4dde-8581-72119b1dd12b{letter-spacing:.01em}.be36504a-0086-433f-aeaa-2804429e7eb6{letter-spacing:.013em}.a19926db-8d09-43f2-aba8-723596668388{letter-spacing:.014em}.bf05e256-b452-4507-90f4-40c74573c8d8{letter-spacing:.011em}.afb72eac-0fcd-4b3e-a538-42bd5ec22185{letter-spacing:-.003em}.a6759ff7-ca4d-4ef0-92e7-6e27b19873e9{letter-spacing:.023em}.a8a82766-fefb-49d9-b95d-d1f26102e6eb{letter-spacing:0}.a6993db9-0bab-4843-be28-26632910ece9{letter-spacing:.026em}.a06d649b-a6bb-424a-8c9a-6437b8d0fe2d{letter-spacing:-.005em}.f18f8496-cd16-4f1b-971f-6dcb8fa7452c{letter-spacing:-.006em}</style></defs><text transform="translate(671.752 354.017)" font-size="10" fill="#f3f3f3" font-family="RedHatText,&quot;Red Hat Text&quot;,Overpass,&quot;Helvetica Neue&quot;,Arial,sans-serif">132_OpenShift_0121</text><path fill="none" d="M0 331h760v40H0z"/><path class="b85832af-5f02-46d0-8a5c-9e0eaa229cf5" d="M0 16h314v315H0z"/><path class="e2dce91d-b730-4557-8837-9f77f811afd3" d="M147 143.5h30.324"/><path class="b52ab1ca-dc7e-487b-a5f4-209fa3a16f03" d="M175.865 148.486l8.635-4.986-8.635-4.986v9.972z"/><path class="e2dce91d-b730-4557-8837-9f77f811afd3" d="M240.5 105.676V121"/><path class="b52ab1ca-dc7e-487b-a5f4-209fa3a16f03" d="M235.514 107.135L240.5 98.5l4.986 8.635h-9.972z"/><path class="e2dce91d-b730-4557-8837-9f77f811afd3" d="M147 223.5h30.324"/><path class="b52ab1ca-dc7e-487b-a5f4-209fa3a16f03" d="M175.865 228.486l8.635-4.986-8.635-4.986v9.972z"/><path class="e2dce91d-b730-4557-8837-9f77f811afd3" d="M147 208.5h17.5v-50h12.824"/><path class="b52ab1ca-dc7e-487b-a5f4-209fa3a16f03" d="M175.865 163.486l8.635-4.986-8.635-4.986v9.972z"/><path class="b0343793-332d-46e8-b45b-20b462eeb500" d="M20.5 121.5h126v59h-126z"/><path class="b3b5bc6e-7278-4eb2-8c34-56a53d33ea5e" d="M146 122v58H21v-58h125m1-1H20v60h127v-60z"/><text class="a36a3e76-b576-4207-a28e-a22e5466ebcd" transform="translate(53.425 148.047)"><tspan letter-spacing="-.014em">K</tspan><tspan class="bb2c1f9e-85f2-491c-a380-425a8bbfa632" x="7.194" y="0">u</tspan><tspan class="ec0e94be-b998-49b8-954a-059fbf4c8a7f" x="13.711" y="0">b</tspan><tspan class="bed0e25d-da73-4269-971e-3fb093207157" x="20.505" y="0">e</tspan><tspan class="a2d08665-77ff-44ad-a6d4-1d776388d672" x="26.897" y="0">r</tspan><tspan x="31.267" y="0" letter-spacing=".007em">n</tspan><tspan class="fc022151-c048-400f-93c6-21708eed085c" x="37.745" y="0">et</tspan><tspan x="48.484" y="0" letter-spacing=".009em">e</tspan><tspan x="54.88" y="0">s</tspan><tspan class="e30c284c-88d9-4707-951a-245ff36a105e" x="20.954" y="12">A</tspan><tspan class="b49ac110-95b5-4dd3-8cee-7fd2d8bb2bb3" x="28.734" y="12">P</tspan><tspan x="36.148" y="12">I</tspan></text><path class="b0343793-332d-46e8-b45b-20b462eeb500" d="M20.5 186.5h126v59h-126z"/><path class="b3b5bc6e-7278-4eb2-8c34-56a53d33ea5e" d="M146 187v58H21v-58h125m1-1H20v60h127v-60z"/><text class="a36a3e76-b576-4207-a28e-a22e5466ebcd" transform="translate(51.655 213.047)"><tspan letter-spacing="-.005em">P</tspan><tspan x="7.412" y="0" letter-spacing="-.002em">r</tspan><tspan class="f0f2ac19-32ca-440d-90a1-785badeeec5f" x="11.711" y="0">o</tspan><tspan x="18.385" y="0" letter-spacing=".008em">m</tspan><tspan x="28.107" y="0" letter-spacing="-.006em">e</tspan><tspan x="34.348" y="0" letter-spacing=".008em">t</tspan><tspan class="ab37f92a-0b12-4869-a481-877435ea552d" x="38.989" y="0">h</tspan><tspan x="45.467" y="0" letter-spacing=".006em">e</tspan><tspan x="51.835" y="0" letter-spacing=".017em">u</tspan><tspan x="58.421" y="0">s</tspan><tspan class="e30c284c-88d9-4707-951a-245ff36a105e" x="22.725" y="12">A</tspan><tspan class="b49ac110-95b5-4dd3-8cee-7fd2d8bb2bb3" x="30.505" y="12">P</tspan><tspan x="37.918" y="12">I</tspan></text><path class="e2dce91d-b730-4557-8837-9f77f811afd3" d="M436.324 216H314"/><path class="b52ab1ca-dc7e-487b-a5f4-209fa3a16f03" d="M434.865 211.014L443.5 216l-8.635 4.986v-9.972z"/><text class="a716e5c2-aed0-4b41-9ad3-291662e0b591" transform="translate(347.188 230.624)"><tspan class="e95f6001-187b-429e-ab76-9195c0b4ad81">H</tspan><tspan class="f766fb53-4c08-4b1c-aea0-deba2682a740" x="7.954" y="0">T</tspan><tspan class="ba26b8f6-38e8-4ef7-9229-3a0c492b24c6" x="14.979" y="0">T</tspan><tspan class="feb762d8-490b-4ebc-a5fd-b7087a635424" x="21.675" y="0">P</tspan><tspan x="28.88" y="0">S </tspan><tspan class="a9bda511-2e9e-4fe2-b784-1231046a9cd0" x="38.175" y="0">(</tspan><tspan class="b0f04f31-bb38-4554-9c6f-50600e827e4a" x="41.677" y="0">4</tspan><tspan class="f53448e4-3f89-4fda-be1a-cac9aebbb67a" x="48.638" y="0">4</tspan><tspan class="bb107187-23ce-495b-9e02-6989406fdaaf" x="55.435" y="0">3</tspan><tspan class="e0237eef-eeeb-4cc2-8ba2-bba31aebeb80" x="61.3" y="0">)</tspan></text><path class="e2dce91d-b730-4557-8837-9f77f811afd3" d="M436.324 151H323.676"/><path class="b52ab1ca-dc7e-487b-a5f4-209fa3a16f03" d="M434.865 146.014L443.5 151l-8.635 4.986v-9.972zM325.135 146.014L316.5 151l8.635 4.986v-9.972z"/><text class="a716e5c2-aed0-4b41-9ad3-291662e0b591" transform="translate(347.188 144.124)"><tspan class="e95f6001-187b-429e-ab76-9195c0b4ad81">H</tspan><tspan class="f766fb53-4c08-4b1c-aea0-deba2682a740" x="7.954" y="0">T</tspan><tspan class="ba26b8f6-38e8-4ef7-9229-3a0c492b24c6" x="14.979" y="0">T</tspan><tspan class="feb762d8-490b-4ebc-a5fd-b7087a635424" x="21.675" y="0">P</tspan><tspan x="28.88" y="0">S </tspan><tspan class="a9bda511-2e9e-4fe2-b784-1231046a9cd0" x="38.175" y="0">(</tspan><tspan class="b0f04f31-bb38-4554-9c6f-50600e827e4a" x="41.677" y="0">4</tspan><tspan class="f53448e4-3f89-4fda-be1a-cac9aebbb67a" x="48.638" y="0">4</tspan><tspan class="bb107187-23ce-495b-9e02-6989406fdaaf" x="55.435" y="0">3</tspan><tspan class="e0237eef-eeeb-4cc2-8ba2-bba31aebeb80" x="61.3" y="0">)</tspan></text><path class="b3b5bc6e-7278-4eb2-8c34-56a53d33ea5e" d="M187 121h127v60H187zM187 186h127v60H187z"/><text class="a0bfaa03-ee03-4268-b5f7-c2a20b41ea06" transform="translate(224.029 213.047)"><tspan letter-spacing="-.081em">T</tspan><tspan class="bf7648c7-a5e8-4c09-9a8d-36727cce1406" x="6.135" y="0">e</tspan><tspan x="12.527" y="0" letter-spacing=".007em">l</tspan><tspan class="bed0e25d-da73-4269-971e-3fb093207157" x="15.371" y="0">em</tspan><tspan class="fc022151-c048-400f-93c6-21708eed085c" x="31.488" y="0">et</tspan><tspan class="bf7648c7-a5e8-4c09-9a8d-36727cce1406" x="42.228" y="0">e</tspan><tspan x="48.62" y="0">r</tspan><tspan x="10.987" y="12">C</tspan><tspan class="ee5856ef-69f4-4008-8fdd-99c410445afd" x="18.94" y="12">l</tspan><tspan class="a4e97b13-da1a-4700-9256-c09bc65e02ed" x="21.827" y="12">i</tspan><tspan class="bf7648c7-a5e8-4c09-9a8d-36727cce1406" x="24.642" y="12">e</tspan><tspan class="af428180-352d-4aca-a3e5-7b1b83d2ab57" x="31.034" y="12">n</tspan><tspan x="37.402" y="12">t</tspan></text><text class="aab465c4-e899-4ff5-a39f-8696f5f5d32f" transform="translate(20.001 47.788)"><tspan class="b6f94860-c6c8-406c-ba60-51dcf334a650">O</tspan><tspan x="11.546" y="0" letter-spacing="-.001em">p</tspan><tspan x="20.552" y="0" letter-spacing=".005em">e</tspan><tspan x="28.912" y="0" letter-spacing=".011em">nS</tspan><tspan x="47.051" y="0" letter-spacing=".007em">h</tspan><tspan x="55.8" y="0" letter-spacing="-.007em">i</tspan><tspan x="59.736" y="0" letter-spacing=".009em">f</tspan><tspan x="66.301" y="0">t</tspan><tspan x="0" y="16" letter-spacing="-.005em">C</tspan><tspan class="bc700936-150d-4331-b207-ff28ed2e6129" x="10.01" y="16">o</tspan><tspan x="18.716" y="16" letter-spacing="-.007em">n</tspan><tspan x="27.268" y="16" letter-spacing=".011em">t</tspan><tspan x="33.828" y="16" letter-spacing=".006em">a</tspan><tspan x="42.014" y="16" letter-spacing=".007em">i</tspan><tspan x="46.138" y="16" letter-spacing=".002em">n</tspan><tspan x="54.824" y="16" letter-spacing=".005em">e</tspan><tspan x="63.186" y="16">r </tspan><tspan x="72.383" y="16" letter-spacing="-.011em">P</tspan><tspan x="82.162" y="16" letter-spacing=".004em">l</tspan><tspan class="ad66c463-3064-4943-93a2-ce80f1ef3202" x="86.246" y="16">a</tspan><tspan x="94.237" y="16" letter-spacing=".009em">t</tspan><tspan x="100.78" y="16" letter-spacing="-.009em">f</tspan><tspan class="bc700936-150d-4331-b207-ff28ed2e6129" x="107.092" y="16">o</tspan><tspan x="115.798" y="16" letter-spacing="-.005em">r</tspan><tspan x="121.92" y="16">m</tspan></text><path class="b85832af-5f02-46d0-8a5c-9e0eaa229cf5" d="M446 16h314v315H446z"/><path class="e2dce91d-b730-4557-8837-9f77f811afd3" d="M603.324 151H588"/><path class="b52ab1ca-dc7e-487b-a5f4-209fa3a16f03" d="M601.865 146.014L610.5 151l-8.635 4.986v-9.972z"/><path class="e2dce91d-b730-4557-8837-9f77f811afd3" d="M603.324 216H588"/><path class="b52ab1ca-dc7e-487b-a5f4-209fa3a16f03" d="M601.865 211.014L610.5 216l-8.635 4.986v-9.972z"/><path class="e2dce91d-b730-4557-8837-9f77f811afd3" d="M588 151h-15M588 216h-15M603.324 281H588V86h15.324"/><path class="b52ab1ca-dc7e-487b-a5f4-209fa3a16f03" d="M601.865 276.014L610.5 281l-8.635 4.986v-9.972zM601.865 90.986L610.5 86l-8.635-4.986v9.972z"/><path class="b0343793-332d-46e8-b45b-20b462eeb500" d="M613 121h127v60H613z"/><text class="a36a3e76-b576-4207-a28e-a22e5466ebcd" transform="translate(655.572 148.047)"><tspan letter-spacing="0">R</tspan><tspan class="b676c511-b080-4e6f-999c-900f818f8829" x="7.397" y="0">e</tspan><tspan x="13.759" y="0">d </tspan><tspan x="22.943" y="0" letter-spacing=".012em">H</tspan><tspan class="af428180-352d-4aca-a3e5-7b1b83d2ab57" x="31.286" y="0">a</tspan><tspan class="e0237eef-eeeb-4cc2-8ba2-bba31aebeb80" x="37.301" y="0">t</tspan><tspan class="f7fdd47c-6795-4b1d-aa61-980e2ffee4e5" x="-.61" y="12">S</tspan><tspan class="bb2c1f9e-85f2-491c-a380-425a8bbfa632" x="6.554" y="12">u</tspan><tspan class="f0f2ac19-32ca-440d-90a1-785badeeec5f" x="13.072" y="12">p</tspan><tspan class="a3b8276a-9b22-490d-be63-09b38c4f274f" x="19.888" y="12">p</tspan><tspan class="a8aa498d-9824-4bdd-8624-e58a2b2ea351" x="26.657" y="12">o</tspan><tspan x="33.33" y="12" letter-spacing=".024em">r</tspan><tspan x="37.912" y="12">t</tspan></text><path class="b0343793-332d-46e8-b45b-20b462eeb500" d="M613 186h127v60H613z"/><text class="a36a3e76-b576-4207-a28e-a22e5466ebcd" transform="translate(643.479 213.047)"><tspan class="f7fdd47c-6795-4b1d-aa61-980e2ffee4e5">S</tspan><tspan class="bb2c1f9e-85f2-491c-a380-425a8bbfa632" x="7.164" y="0">u</tspan><tspan x="13.682" y="0" letter-spacing=".008em">bsc</tspan><tspan class="a2d08665-77ff-44ad-a6d4-1d776388d672" x="31.672" y="0">r</tspan><tspan class="bb2c1f9e-85f2-491c-a380-425a8bbfa632" x="36.042" y="0">i</tspan><tspan x="38.93" y="0" letter-spacing="-.008em">p</tspan><tspan x="45.563" y="0" letter-spacing=".003em">t</tspan><tspan class="a4e97b13-da1a-4700-9256-c09bc65e02ed" x="50.151" y="0">i</tspan><tspan class="f0f2ac19-32ca-440d-90a1-785badeeec5f" x="52.966" y="0">o</tspan><tspan x="59.64" y="0">n</tspan><tspan x="-1.322" y="12" letter-spacing=".007em">m</tspan><tspan class="b28e2f1b-1f24-4ebe-95dd-3bc6b03463f3" x="8.391" y="12">a</tspan><tspan class="ee971d9d-274d-4c59-9c29-0cf509e7a09e" x="14.557" y="12">n</tspan><tspan class="ab37f92a-0b12-4869-a481-877435ea552d" x="21.025" y="12">a</tspan><tspan class="e2c7b583-121d-4c1d-93a6-a48fd79bea41" x="27.151" y="12">g</tspan><tspan class="bed0e25d-da73-4269-971e-3fb093207157" x="33.933" y="12">eme</tspan><tspan class="af428180-352d-4aca-a3e5-7b1b83d2ab57" x="56.442" y="12">n</tspan><tspan x="62.81" y="12">t</tspan></text><path class="b0343793-332d-46e8-b45b-20b462eeb500" d="M613 251h127v60H613z"/><text class="a36a3e76-b576-4207-a28e-a22e5466ebcd" transform="translate(649.217 278.047)"><tspan class="ab0c2878-a141-4049-9f9f-491b28438e7c">O<tspan class="ec0e94be-b998-49b8-954a-059fbf4c8a7f" x="9.079" y="0">p</tspan><tspan class="bed0e25d-da73-4269-971e-3fb093207157" x="15.873" y="0">e</tspan><tspan class="b6f94860-c6c8-406c-ba60-51dcf334a650" x="22.265" y="0">n</tspan><tspan x="28.795" y="0" letter-spacing=".015em">S</tspan><tspan class="f0f2ac19-32ca-440d-90a1-785badeeec5f" x="35.965" y="0">h</tspan><tspan class="f005b3a4-46b1-4948-9cff-8142b42ac13e" x="42.463" y="0">i</tspan><tspan x="45.244" y="0" letter-spacing=".022em">f</tspan><tspan class="e0237eef-eeeb-4cc2-8ba2-bba31aebeb80" x="50.012" y="0">t</tspan></tspan><tspan x="-16.039" y="12">C</tspan><tspan x="-8.086" y="12" letter-spacing=".01em">l</tspan><tspan x="-5.207" y="12" letter-spacing=".017em">u</tspan><tspan x="1.379" y="12" letter-spacing=".01em">s</tspan><tspan x="6.759" y="12" letter-spacing="-.005em">t</tspan><tspan class="bf7648c7-a5e8-4c09-9a8d-36727cce1406" x="11.257" y="12">e</tspan><tspan x="17.649" y="12">r </tspan><tspan class="b520c8a9-5270-4dde-8581-72119b1dd12b" x="24.447" y="12">M</tspan><tspan class="b28e2f1b-1f24-4ebe-95dd-3bc6b03463f3" x="34.347" y="12">a</tspan><tspan class="ee971d9d-274d-4c59-9c29-0cf509e7a09e" x="40.513" y="12">n</tspan><tspan class="ab37f92a-0b12-4869-a481-877435ea552d" x="46.981" y="12">a</tspan><tspan class="e2c7b583-121d-4c1d-93a6-a48fd79bea41" x="53.107" y="12">g</tspan><tspan class="bf7648c7-a5e8-4c09-9a8d-36727cce1406" x="59.889" y="12">e</tspan><tspan class="e0237eef-eeeb-4cc2-8ba2-bba31aebeb80" x="66.281" y="12">r</tspan></text><path class="b0343793-332d-46e8-b45b-20b462eeb500" d="M613 56h127v60H613z"/><text class="a36a3e76-b576-4207-a28e-a22e5466ebcd" transform="translate(655.891 83.047)"><tspan class="be36504a-0086-433f-aeaa-2804429e7eb6">I<tspan class="a19926db-8d09-43f2-aba8-723596668388" x="3.186" y="0">n</tspan><tspan class="bf05e256-b452-4507-90f4-40c74573c8d8" x="9.741" y="0">s</tspan><tspan class="ee971d9d-274d-4c59-9c29-0cf509e7a09e" x="15.129" y="0">i</tspan><tspan class="bb2c1f9e-85f2-491c-a380-425a8bbfa632" x="17.967" y="0">g</tspan><tspan class="afb72eac-0fcd-4b3e-a538-42bd5ec22185" x="24.781" y="0">h</tspan><tspan class="a6759ff7-ca4d-4ef0-92e7-6e27b19873e9" x="31.149" y="0">t</tspan><tspan class="a8a82766-fefb-49d9-b95d-d1f26102e6eb" x="35.951" y="0">s</tspan></tspan><tspan class="b28e2f1b-1f24-4ebe-95dd-3bc6b03463f3" x="-18.945" y="12">a</tspan><tspan class="ee971d9d-274d-4c59-9c29-0cf509e7a09e" x="-12.778" y="12">n</tspan><tspan class="b28e2f1b-1f24-4ebe-95dd-3bc6b03463f3" x="-6.311" y="12">a</tspan><tspan x="-.144" y="12" letter-spacing=".011em">l</tspan><tspan x="2.751" y="12" letter-spacing=".007em">y</tspan><tspan class="bf05e256-b452-4507-90f4-40c74573c8d8" x="8.737" y="12">s</tspan><tspan x="14.125" y="12" letter-spacing=".015em">i</tspan><tspan x="17.059" y="12">s </tspan><tspan class="bed0e25d-da73-4269-971e-3fb093207157" x="24.802" y="12">e</tspan><tspan class="ab37f92a-0b12-4869-a481-877435ea552d" x="31.194" y="12">n</tspan><tspan x="37.672" y="12" letter-spacing=".011em">g</tspan><tspan class="ee5856ef-69f4-4008-8fdd-99c410445afd" x="44.497" y="12">i</tspan><tspan class="ab37f92a-0b12-4869-a481-877435ea552d" x="47.384" y="12">n</tspan><tspan x="53.862" y="12">e</tspan></text><path class="b3b5bc6e-7278-4eb2-8c34-56a53d33ea5e" d="M446 121h127v60H446z"/><text class="a0bfaa03-ee03-4268-b5f7-c2a20b41ea06" transform="translate(464.003 154.047)"><tspan letter-spacing=".007em">c</tspan><tspan class="ec0e94be-b998-49b8-954a-059fbf4c8a7f" x="5.831" y="0">lo</tspan><tspan x="15.326" y="0" letter-spacing=".009em">u</tspan><tspan x="21.829" y="0" letter-spacing=".016em">d</tspan><tspan x="28.712" y="0" letter-spacing=".013em">.</tspan><tspan x="31.552" y="0" letter-spacing="-.002em">r</tspan><tspan class="b676c511-b080-4e6f-999c-900f818f8829" x="35.857" y="0">e</tspan><tspan class="b520c8a9-5270-4dde-8581-72119b1dd12b" x="42.218" y="0">d</tspan><tspan x="49.038" y="0" letter-spacing=".006em">h</tspan><tspan class="af428180-352d-4aca-a3e5-7b1b83d2ab57" x="55.506" y="0">a</tspan><tspan class="a6993db9-0bab-4843-be28-26632910ece9" x="61.522" y="0">t</tspan><tspan class="a06d649b-a6bb-424a-8c9a-6437b8d0fe2d" x="66.363" y="0">.</tspan><tspan class="f18f8496-cd16-4f1b-971f-6dcb8fa7452c" x="68.999" y="0">c</tspan><tspan class="a8aa498d-9824-4bdd-8624-e58a2b2ea351" x="74.686" y="0">o</tspan><tspan x="81.359" y="0">m</tspan></text><path class="b3b5bc6e-7278-4eb2-8c34-56a53d33ea5e" d="M446 186h127v60H446z"/><text transform="translate(462.58 219.047)" letter-spacing=".011em" font-family="RedHatText,&quot;Red Hat Text&quot;,Overpass,&quot;Helvetica Neue&quot;,Arial,sans-serif" font-weight="500" font-size="11" fill="#fff">a<tspan x="6.167" y="0" letter-spacing=".007em">p</tspan><tspan x="12.959" y="0" letter-spacing=".013em">i</tspan><tspan class="a06d649b-a6bb-424a-8c9a-6437b8d0fe2d" x="15.872" y="0">.</tspan><tspan class="a8aa498d-9824-4bdd-8624-e58a2b2ea351" x="18.507" y="0">o</tspan><tspan class="ec0e94be-b998-49b8-954a-059fbf4c8a7f" x="25.181" y="0">p</tspan><tspan class="bed0e25d-da73-4269-971e-3fb093207157" x="31.974" y="0">e</tspan><tspan class="feb762d8-490b-4ebc-a5fd-b7087a635424" x="38.366" y="0">n</tspan><tspan x="44.922" y="0" letter-spacing=".012em">s</tspan><tspan class="f0f2ac19-32ca-440d-90a1-785badeeec5f" x="50.321" y="0">h</tspan><tspan class="f005b3a4-46b1-4948-9cff-8142b42ac13e" x="56.818" y="0">i</tspan><tspan class="a6759ff7-ca4d-4ef0-92e7-6e27b19873e9" x="59.599" y="0">f</tspan><tspan class="a6993db9-0bab-4843-be28-26632910ece9" x="64.368" y="0">t</tspan><tspan class="a06d649b-a6bb-424a-8c9a-6437b8d0fe2d" x="69.208" y="0">.</tspan><tspan class="f18f8496-cd16-4f1b-971f-6dcb8fa7452c" x="71.844" y="0">c</tspan><tspan class="a8aa498d-9824-4bdd-8624-e58a2b2ea351" x="77.531" y="0">o</tspan><tspan class="e0237eef-eeeb-4cc2-8ba2-bba31aebeb80" x="84.205" y="0">m</tspan></text><text class="aab465c4-e899-4ff5-a39f-8696f5f5d32f" transform="translate(466.001 47.788)"><tspan letter-spacing=".001em">R</tspan><tspan x="9.857" y="0" letter-spacing=".002em">e</tspan><tspan x="18.178" y="0">d </tspan><tspan class="b6f94860-c6c8-406c-ba60-51dcf334a650" x="30.189" y="0">H</tspan><tspan class="ad66c463-3064-4943-93a2-ce80f1ef3202" x="41.035" y="0">a</tspan><tspan x="49.026" y="0" letter-spacing="0">t</tspan></text><path class="b0343793-332d-46e8-b45b-20b462eeb500" d="M187 36h107v60H187z"/><text transform="translate(228.886 63.047)" letter-spacing="-.017em" font-family="RedHatText,&quot;Red Hat Text&quot;,Overpass,&quot;Helvetica Neue&quot;,Arial,sans-serif" font-weight="500" font-size="11" fill="#151515">W<tspan class="bed0e25d-da73-4269-971e-3fb093207157" x="10.114" y="0">e</tspan><tspan class="e0237eef-eeeb-4cc2-8ba2-bba31aebeb80" x="16.506" y="0">b</tspan><tspan class="f18f8496-cd16-4f1b-971f-6dcb8fa7452c"><tspan x="-8.432" y="12">c</tspan><tspan class="a8aa498d-9824-4bdd-8624-e58a2b2ea351" x="-2.745" y="12">o</tspan><tspan class="feb762d8-490b-4ebc-a5fd-b7087a635424" x="3.929" y="12">n</tspan><tspan x="10.485" y="12" letter-spacing=".008em">s</tspan><tspan class="a8aa498d-9824-4bdd-8624-e58a2b2ea351" x="15.838" y="12">o</tspan><tspan class="ec0e94be-b998-49b8-954a-059fbf4c8a7f" x="22.512" y="12">l</tspan><tspan class="e0237eef-eeeb-4cc2-8ba2-bba31aebeb80" x="25.356" y="12">e</tspan></tspan></text><text class="a0bfaa03-ee03-4268-b5f7-c2a20b41ea06" transform="translate(229.89 148.047)"><tspan class="be36504a-0086-433f-aeaa-2804429e7eb6">I<tspan class="a19926db-8d09-43f2-aba8-723596668388" x="3.186" y="0">n</tspan><tspan class="bf05e256-b452-4507-90f4-40c74573c8d8" x="9.741" y="0">s</tspan><tspan class="ee971d9d-274d-4c59-9c29-0cf509e7a09e" x="15.129" y="0">i</tspan><tspan class="bb2c1f9e-85f2-491c-a380-425a8bbfa632" x="17.967" y="0">g</tspan><tspan class="afb72eac-0fcd-4b3e-a538-42bd5ec22185" x="24.781" y="0">h</tspan><tspan class="a6759ff7-ca4d-4ef0-92e7-6e27b19873e9" x="31.149" y="0">t</tspan><tspan class="a8a82766-fefb-49d9-b95d-d1f26102e6eb" x="35.951" y="0">s</tspan></tspan><tspan class="ab0c2878-a141-4049-9f9f-491b28438e7c" x="-3.465" y="12">O</tspan><tspan class="ec0e94be-b998-49b8-954a-059fbf4c8a7f" x="5.614" y="12">p</tspan><tspan class="bf7648c7-a5e8-4c09-9a8d-36727cce1406" x="12.407" y="12">e</tspan><tspan class="a3b8276a-9b22-490d-be63-09b38c4f274f" x="18.799" y="12">r</tspan><tspan class="af428180-352d-4aca-a3e5-7b1b83d2ab57" x="23.17" y="12">a</tspan><tspan x="29.186" y="12" letter-spacing="-.005em">t</tspan><tspan class="a8aa498d-9824-4bdd-8624-e58a2b2ea351" x="33.689" y="12">o</tspan><tspan x="40.362" y="12">r</tspan></text></svg>