<svg id="a5dfc5fc-970d-42fe-bdfe-0ebd1f2cee2c" data-name="artwork" xmlns="http://www.w3.org/2000/svg" width="760" height="456.101"><defs><style>.a2f33e9e-719a-4bf5-a3ff-f98f3f184053,.bef4833d-8349-4c0a-a9c6-4a5cd5a836fb{fill:none}.a2f33e9e-719a-4bf5-a3ff-f98f3f184053{stroke:#151515;stroke-linecap:round;stroke-linejoin:round}.bf925180-eb7f-4cce-b4fd-0d9df57e821a,.eb4d00d6-c261-42a2-85cf-7c528b533bf4,.fe31ff38-ae81-405d-abb4-4be849a1ead2{fill:#151515}.bdbf8af9-5bc3-47a2-b18a-b0fb17b8446c{fill:#e8e8e8}.bf925180-eb7f-4cce-b4fd-0d9df57e821a,.fe31ff38-ae81-405d-abb4-4be849a1ead2{font-size:11px}.fe31ff38-ae81-405d-abb4-4be849a1ead2{font-family:RedHatText,&quot;Red Hat Text&quot;,Overpass,&quot;Helvetica Neue&quot;,Arial,sans-serif;font-weight:500}.a77240ac-f358-4bd7-bc41-669d43b00762{fill:#fff}.bf925180-eb7f-4cce-b4fd-0d9df57e821a{font-family:RedHatText,&quot;Red Hat Text&quot;,Overpass,&quot;Helvetica Neue&quot;,Arial,sans-serif;font-style:italic}.bef4833d-8349-4c0a-a9c6-4a5cd5a836fb{stroke:#e8e8e8;stroke-miterlimit:10;stroke-width:1.5px}.b0a3761d-d9e2-4cba-971f-8a74efe50b8b{fill:#d9e8f7}</style></defs><text transform="translate(678.091 439.119)" font-size="10" fill="#f3f3f3" font-family="RedHatText,&quot;Red Hat Text&quot;,Overpass,&quot;Helvetica Neue&quot;,Arial,sans-serif">99_RHPAM_0920</text><path fill="none" d="M.01 416.101h760v40H.01z"/><path class="a2f33e9e-719a-4bf5-a3ff-f98f3f184053" d="M412.5 111.007V60.525"/><path class="eb4d00d6-c261-42a2-85cf-7c528b533bf4" d="M417.486 109.548l-4.986 8.635-4.986-8.635h9.972z"/><path class="bdbf8af9-5bc3-47a2-b18a-b0fb17b8446c" d="M260 20.683h305v40H260z"/><text class="fe31ff38-ae81-405d-abb4-4be849a1ead2" transform="translate(366.813 44.008)">Client application</text><path class="a77240ac-f358-4bd7-bc41-669d43b00762" d="M401 75.11h23v20.965h-23z"/><text class="bf925180-eb7f-4cce-b4fd-0d9df57e821a" transform="translate(392.591 88.716)">API calls</text><path class="a2f33e9e-719a-4bf5-a3ff-f98f3f184053" d="M335 306.387v82.982"/><path class="eb4d00d6-c261-42a2-85cf-7c528b533bf4" d="M330.014 387.91l4.986 8.635 4.986-8.635h-9.972z"/><path class="bdbf8af9-5bc3-47a2-b18a-b0fb17b8446c" d="M260 398.887h305v40H260z"/><text class="fe31ff38-ae81-405d-abb4-4be849a1ead2" transform="translate(391.243 422.211)">Storage</text><path class="a2f33e9e-719a-4bf5-a3ff-f98f3f184053" d="M335 211.711v-50.982"/><path class="eb4d00d6-c261-42a2-85cf-7c528b533bf4" d="M339.986 210.252L335 218.887l-4.986-8.635h9.972z"/><path class="a77240ac-f358-4bd7-bc41-669d43b00762" d="M323.5 175.313h23v20.965h-23z"/><text class="bf925180-eb7f-4cce-b4fd-0d9df57e821a" transform="translate(289.153 188.919)">Controller API calls</text><path class="a2f33e9e-719a-4bf5-a3ff-f98f3f184053" d="M490 211.711v-50.982"/><path class="eb4d00d6-c261-42a2-85cf-7c528b533bf4" d="M494.986 210.252L490 218.887l-4.986-8.635h9.972z"/><path class="a77240ac-f358-4bd7-bc41-669d43b00762" d="M478.5 175.313h23v20.965h-23z"/><text class="bf925180-eb7f-4cce-b4fd-0d9df57e821a" transform="translate(430.375 188.919)">Request service artifacts</text><path class="bef4833d-8349-4c0a-a9c6-4a5cd5a836fb" d="M155 271.387v40H5"/><path class="bef4833d-8349-4c0a-a9c6-4a5cd5a836fb" d="M160 276.387v40H10"/><path class="bdbf8af9-5bc3-47a2-b18a-b0fb17b8446c" d="M260 120.683h305v40H260z"/><text class="fe31ff38-ae81-405d-abb4-4be849a1ead2" transform="translate(386.298 143.73)">KIE server</text><path class="b0a3761d-d9e2-4cba-971f-8a74efe50b8b" d="M415 221.387h150v40H415z"/><text class="fe31ff38-ae81-405d-abb4-4be849a1ead2" transform="translate(444.845 244.711)">Maven repository</text><path class="bdbf8af9-5bc3-47a2-b18a-b0fb17b8446c" d="M415 311.387h150v40H415z"/><text class="fe31ff38-ae81-405d-abb4-4be849a1ead2" transform="translate(467.895 334.434)">Indexing</text><path class="b0a3761d-d9e2-4cba-971f-8a74efe50b8b" d="M260 221.387h150v40H260z"/><text class="fe31ff38-ae81-405d-abb4-4be849a1ead2" transform="translate(308.721 244.711)">Controller</text><path class="b0a3761d-d9e2-4cba-971f-8a74efe50b8b" d="M260 266.387h305v40H260z"/><text class="fe31ff38-ae81-405d-abb4-4be849a1ead2" transform="translate(369.414 289.711)">Business Central</text><path class="bdbf8af9-5bc3-47a2-b18a-b0fb17b8446c" d="M610 221.387h150v40H610z"/><text class="fe31ff38-ae81-405d-abb4-4be849a1ead2" transform="translate(659.76 238.434)">CI/CD for<tspan x="-11.813" y="12">KJAR projects</tspan></text><path class="a2f33e9e-719a-4bf5-a3ff-f98f3f184053" d="M250.324 286.387H150"/><path class="eb4d00d6-c261-42a2-85cf-7c528b533bf4" d="M248.865 281.4l8.635 4.987-8.635 4.986V281.4z"/><g><path class="a2f33e9e-719a-4bf5-a3ff-f98f3f184053" d="M600.324 241.387h-25.648"/><path class="eb4d00d6-c261-42a2-85cf-7c528b533bf4" d="M598.865 236.4l8.635 4.987-8.635 4.986V236.4zM576.135 236.4l-8.635 4.987 8.635 4.986V236.4z"/></g><path class="a77240ac-f358-4bd7-bc41-669d43b00762" d="M323.5 341.613h23v31.706h-23z"/><text class="bf925180-eb7f-4cce-b4fd-0d9df57e821a" transform="translate(300.774 354.59)">Access .niogit,<tspan x="-5.506" y="12">Maven repo files</tspan></text><path class="bdbf8af9-5bc3-47a2-b18a-b0fb17b8446c" d="M0 266.387h150v40H0z"/><text class="fe31ff38-ae81-405d-abb4-4be849a1ead2" transform="translate(60.408 289.433)">Users</text><path class="a77240ac-f358-4bd7-bc41-669d43b00762" d="M178.221 275.904h54.307v20.965h-54.307z"/><text class="bf925180-eb7f-4cce-b4fd-0d9df57e821a" transform="translate(182.721 289.511)">UI access</text></svg>