<svg id="bccb92c1-8503-435e-bffc-e46323129654" data-name="artwork" xmlns="http://www.w3.org/2000/svg" width="760" height="319.764"><defs><style>.b8e654de-75b8-4ebf-abd9-5c1533ab6b1f,.be03c43b-bafa-49a9-abc6-88a946b391ce,.ee759b85-c2fb-46ae-bdc0-8305b9619f02{fill:none}.b8e654de-75b8-4ebf-abd9-5c1533ab6b1f{stroke:#151515}.b8e654de-75b8-4ebf-abd9-5c1533ab6b1f,.be03c43b-bafa-49a9-abc6-88a946b391ce{stroke-linecap:round;stroke-linejoin:round}.b1361ae3-d5cf-4756-a6ff-6db8b55d0dab,.fac1de4d-c2dc-4edb-b32a-27b657697102,.ffbd2d25-fa8a-4234-9f1e-e6ec97a9af05{fill:#151515}.be03c43b-bafa-49a9-abc6-88a946b391ce{stroke:#fff;stroke-width:8px}.ef09b256-2b72-497a-8c33-0eac5ac170a1{fill:#e8e8e8}.fac1de4d-c2dc-4edb-b32a-27b657697102,.ffbd2d25-fa8a-4234-9f1e-e6ec97a9af05{font-size:11px}.fac1de4d-c2dc-4edb-b32a-27b657697102{font-family:RedHatText,&quot;Red Hat Text&quot;,Overpass,&quot;Helvetica Neue&quot;,Arial,sans-serif;font-weight:500}.a05dae73-3f39-4666-8dad-612d55b1d494{fill:#fff}.ffbd2d25-fa8a-4234-9f1e-e6ec97a9af05{font-family:RedHatText,&quot;Red Hat Text&quot;,Overpass,&quot;Helvetica Neue&quot;,Arial,sans-serif;font-style:italic}.ee759b85-c2fb-46ae-bdc0-8305b9619f02{stroke:#e8e8e8;stroke-miterlimit:10;stroke-width:1.5px}</style></defs><path fill="#d9e8f7" d="M200.01 20.683h440v136h-440z"/><path class="b8e654de-75b8-4ebf-abd9-5c1533ab6b1f" d="M267.51 252.923v-12.824h260v-97.5"/><path class="b1361ae3-d5cf-4756-a6ff-6db8b55d0dab" d="M272.497 251.464l-4.987 8.635-4.986-8.635h9.973z"/><path class="b8e654de-75b8-4ebf-abd9-5c1533ab6b1f" d="M292.51 240.099v-97.5"/><path class="be03c43b-bafa-49a9-abc6-88a946b391ce" d="M420.01 260.099v-72.5"/><path class="b8e654de-75b8-4ebf-abd9-5c1533ab6b1f" d="M420.01 252.923v-65.324h92.5v-45"/><path class="b1361ae3-d5cf-4756-a6ff-6db8b55d0dab" d="M424.997 251.464l-4.987 8.635-4.986-8.635h9.973z"/><path class="b8e654de-75b8-4ebf-abd9-5c1533ab6b1f" d="M307.51 142.599v45h112.5"/><path class="ef09b256-2b72-497a-8c33-0eac5ac170a1" d="M200.01 262.599h135v40h-135zM352.51 262.599h135v40h-135z"/><text class="fac1de4d-c2dc-4edb-b32a-27b657697102" transform="translate(395.79 285.923)">DataGrid</text><path class="be03c43b-bafa-49a9-abc6-88a946b391ce" d="M572.51 260.099v-87.5h-250"/><path class="ef09b256-2b72-497a-8c33-0eac5ac170a1" d="M505.01 262.599h135v40h-135z"/><text class="fac1de4d-c2dc-4edb-b32a-27b657697102" transform="translate(558.822 285.923)">AMQ</text><path class="b8e654de-75b8-4ebf-abd9-5c1533ab6b1f" d="M542.51 172.599v-20.324"/><path class="b1361ae3-d5cf-4756-a6ff-6db8b55d0dab" d="M547.497 153.734l-4.987-8.635-4.986 8.635h9.973z"/><path class="b8e654de-75b8-4ebf-abd9-5c1533ab6b1f" d="M572.51 252.923v-80.324h-250v-20.324"/><path class="b1361ae3-d5cf-4756-a6ff-6db8b55d0dab" d="M577.497 251.464l-4.987 8.635-4.986-8.635h9.973zM327.497 153.734l-4.987-8.635-4.986 8.635h9.973z"/><path class="a05dae73-3f39-4666-8dad-612d55b1d494" d="M215.01 57.599h195v40h-195z"/><text class="fac1de4d-c2dc-4edb-b32a-27b657697102" transform="translate(267.356 80.646)">Maven repository</text><path class="a05dae73-3f39-4666-8dad-612d55b1d494" d="M282.01 199.966h23v31.706h-23zM561.342 199.966h23v31.706h-23zM406.915 210.708h23v20.965h-23z"/><text class="ffbd2d25-fa8a-4234-9f1e-e6ec97a9af05" transform="translate(258.341 212.599)">Access .niogit,<tspan x="-5.506" y="12">Maven repo files</tspan></text><text class="ffbd2d25-fa8a-4234-9f1e-e6ec97a9af05" transform="translate(548.289 212.599)">CDI event<tspan x=".418" y="12">messages</tspan></text><text class="ffbd2d25-fa8a-4234-9f1e-e6ec97a9af05" transform="translate(399.611 224.599)">Indexing</text><text transform="translate(215.01 44.945)" font-family="RedHatText,&quot;Red Hat Text&quot;,Overpass,&quot;Helvetica Neue&quot;,Arial,sans-serif" font-weight="700" font-size="11" fill="#151515">EAP cluster</text><path class="a05dae73-3f39-4666-8dad-612d55b1d494" d="M215.01 102.599h195v40h-195z"/><text class="fac1de4d-c2dc-4edb-b32a-27b657697102" transform="translate(269.424 125.923)">Business Central</text><path class="a05dae73-3f39-4666-8dad-612d55b1d494" d="M430.01 102.599h195v40h-195z"/><text class="fac1de4d-c2dc-4edb-b32a-27b657697102" transform="translate(484.424 125.923)">Business Central</text><text class="fac1de4d-c2dc-4edb-b32a-27b657697102" transform="translate(227.389 285.923)">NFS/GlusterFS</text><g><path class="ee759b85-c2fb-46ae-bdc0-8305b9619f02" d="M100.01 107.599v40h-95"/><path class="ee759b85-c2fb-46ae-bdc0-8305b9619f02" d="M105.01 112.599v40h-95"/><path class="b8e654de-75b8-4ebf-abd9-5c1533ab6b1f" d="M190.334 122.599H95.01"/><path class="b1361ae3-d5cf-4756-a6ff-6db8b55d0dab" d="M188.875 117.613l8.635 4.986-8.635 4.986v-9.972z"/><path class="a05dae73-3f39-4666-8dad-612d55b1d494" d="M118.582 113.772h52.37v20.965h-52.37z"/><text class="ffbd2d25-fa8a-4234-9f1e-e6ec97a9af05" transform="translate(122.112 125.723)">UI access</text><path class="ef09b256-2b72-497a-8c33-0eac5ac170a1" d="M.01 102.599h95v40h-95z"/><text class="fac1de4d-c2dc-4edb-b32a-27b657697102" transform="translate(32.919 125.646)">Users</text></g><g><path class="b8e654de-75b8-4ebf-abd9-5c1533ab6b1f" d="M624.992 77.599h30.324"/><path class="b1361ae3-d5cf-4756-a6ff-6db8b55d0dab" d="M653.857 82.585l8.635-4.986-8.635-4.986v9.972z"/></g><path class="ef09b256-2b72-497a-8c33-0eac5ac170a1" d="M664.99 57.599h95v40h-95z"/><text class="fac1de4d-c2dc-4edb-b32a-27b657697102" transform="translate(687.25 74.646)">CI/CD for<tspan x="-11.813" y="12">KJAR projects</tspan></text><path class="a05dae73-3f39-4666-8dad-612d55b1d494" d="M430.01 57.599h195v40h-195z"/><text class="fac1de4d-c2dc-4edb-b32a-27b657697102" transform="translate(482.356 80.646)">Maven repository</text><g><text transform="translate(678.091 302.616)" font-size="10" fill="#f3f3f3" font-family="RedHatText,&quot;Red Hat Text&quot;,Overpass,&quot;Helvetica Neue&quot;,Arial,sans-serif">99_RHPAM_0920</text><path fill="none" d="M.01 279.599h760v40H.01z"/></g></svg>