<svg id="a58901f4-d19b-4312-aac3-9dbe95f6b5f4" data-name="artwork" xmlns="http://www.w3.org/2000/svg" width="760" height="474.224"><defs><style>.bb7b5d07-3d2a-45f6-85a8-0124d8fd7668{fill:#f3f3f3}.acfc1b9d-6dd6-4493-ba8d-bd73ababdc43{font-size:14px;fill:#151515}.ba0d96ed-b933-4265-a26b-53bb9fe894b3{fill:#151515}.acfc1b9d-6dd6-4493-ba8d-bd73ababdc43{font-family:RedHatText,&quot;Red Hat Text&quot;,Overpass,&quot;Helvetica Neue&quot;,Arial,sans-serif;font-weight:700}.fbdc1166-ef58-4255-b7ad-7da3d4c7be2f{fill:#dcdcdc}.ba0d96ed-b933-4265-a26b-53bb9fe894b3{font-size:12px;font-family:RedHatText,&quot;Red Hat Text&quot;,Overpass,&quot;Helvetica Neue&quot;,Arial,sans-serif;font-weight:500}.bd74de6d-2149-44c0-8e55-c8fd1fb06ad0{fill:none;stroke:#06c}.aa9507a5-909d-42c6-9d89-27a9761f87cf,.bd74de6d-2149-44c0-8e55-c8fd1fb06ad0{stroke-linecap:round;stroke-linejoin:round}.eeb39b31-4d3b-4c7a-a5d2-e1860f960f04{fill:#06c}.a78a6f53-becd-4158-ac67-c249e14b35c2,.aa9507a5-909d-42c6-9d89-27a9761f87cf{fill:#fff}.aa9507a5-909d-42c6-9d89-27a9761f87cf{stroke:#5b5b5b;stroke-width:1.5px}</style></defs><path class="bb7b5d07-3d2a-45f6-85a8-0124d8fd7668" d="M0 19.724h760v99H0z"/><text class="acfc1b9d-6dd6-4493-ba8d-bd73ababdc43" transform="translate(19.5 51.512)">Development</text><path class="bb7b5d07-3d2a-45f6-85a8-0124d8fd7668" d="M0 133.724h760v99H0z"/><text class="acfc1b9d-6dd6-4493-ba8d-bd73ababdc43" transform="translate(19.5 165.512)">Build</text><path class="bb7b5d07-3d2a-45f6-85a8-0124d8fd7668" d="M0 247.724h760v186.5H0z"/><text class="acfc1b9d-6dd6-4493-ba8d-bd73ababdc43" transform="translate(19.5 279.512)">Deployment</text><path class="fbdc1166-ef58-4255-b7ad-7da3d4c7be2f" d="M357.486 44.845h175v50h-175z"/><text class="ba0d96ed-b933-4265-a26b-53bb9fe894b3" transform="translate(405.741 73.169)">Git repository</text><path class="bd74de6d-2149-44c0-8e55-c8fd1fb06ad0" d="M347.65 69.845H193.637"/><path class="eeb39b31-4d3b-4c7a-a5d2-e1860f960f04" d="M346.191 64.858l8.635 4.987-8.635 4.986v-9.973z"/><text transform="translate(229.031 61.817)" font-family="RedHatText,&quot;Red Hat Text&quot;,Overpass,&quot;Helvetica Neue&quot;,Arial,sans-serif" font-style="italic" font-size="11" fill="#151515">Configure triggers</text><path class="bd74de6d-2149-44c0-8e55-c8fd1fb06ad0" d="M554.796 184.345h-22.31"/><path class="eeb39b31-4d3b-4c7a-a5d2-e1860f960f04" d="M553.337 179.358l8.635 4.987-8.635 4.986v-9.973z"/><path class="bd74de6d-2149-44c0-8e55-c8fd1fb06ad0" d="M532.486 69.845h121.986v79.823"/><path class="eeb39b31-4d3b-4c7a-a5d2-e1860f960f04" d="M649.486 148.209l4.986 8.636 4.986-8.636h-9.972z"/><path class="bd74de6d-2149-44c0-8e55-c8fd1fb06ad0" d="M542.162 341.845h112.31v-132.5"/><path class="eeb39b31-4d3b-4c7a-a5d2-e1860f960f04" d="M543.621 346.831l-8.635-4.986 8.635-4.987v9.973z"/><path class="bd74de6d-2149-44c0-8e55-c8fd1fb06ad0" d="M347.65 184.345h-22.31"/><path class="eeb39b31-4d3b-4c7a-a5d2-e1860f960f04" d="M346.191 179.358l8.635 4.987-8.635 4.986v-9.973z"/><path class="fbdc1166-ef58-4255-b7ad-7da3d4c7be2f" d="M150.5 274.345h175v135h-175z"/><path class="a78a6f53-becd-4158-ac67-c249e14b35c2" transform="rotate(-180 238 351.844)" d="M165.5 309.345h145v85h-145z"/><text transform="translate(165.5 299.449)" font-size="12" font-family="RedHatText,&quot;Red Hat Text&quot;,Overpass,&quot;Helvetica Neue&quot;,Arial,sans-serif" font-weight="700" fill="#151515">Node <tspan x="34.284" y="0" font-size="11" font-weight="500">(xN)</tspan></text><text class="ba0d96ed-b933-4265-a26b-53bb9fe894b3" transform="translate(175.5 329.449)">Pod <tspan x="25.343" y="0" letter-spacing="0" font-size="11">(xN)</tspan></text><path transform="rotate(-180 238 361.844)" fill="#e8e8e8" d="M175.5 339.345h125v45h-125z"/><text class="ba0d96ed-b933-4265-a26b-53bb9fe894b3" transform="translate(191.489 365.168)">Container image</text><path class="bd74de6d-2149-44c0-8e55-c8fd1fb06ad0" d="M357.326 341.845h-22.15"/><path class="eeb39b31-4d3b-4c7a-a5d2-e1860f960f04" d="M336.635 336.858L328 341.845l8.635 4.986v-9.973z"/><path class="fbdc1166-ef58-4255-b7ad-7da3d4c7be2f" d="M357.486 159.345h175v50h-175z"/><text class="ba0d96ed-b933-4265-a26b-53bb9fe894b3" transform="translate(406.329 187.013)">Builder image</text><path class="fbdc1166-ef58-4255-b7ad-7da3d4c7be2f" d="M150.5 159.345h175v50h-175z"/><text class="ba0d96ed-b933-4265-a26b-53bb9fe894b3" transform="translate(186.749 187.669)">Container registry</text><path class="a78a6f53-becd-4158-ac67-c249e14b35c2" d="M564.972 159.845h174v49h-174z"/><path class="eeb39b31-4d3b-4c7a-a5d2-e1860f960f04" d="M738.472 160.345v48h-173v-48h173m1-1h-175v50h175v-50z"/><text class="ba0d96ed-b933-4265-a26b-53bb9fe894b3" transform="translate(640.12 187.669)">Build</text><g><text transform="translate(150.5 96.17)" font-size="11" font-family="RedHatText,&quot;Red Hat Text&quot;,Overpass,&quot;Helvetica Neue&quot;,Arial,sans-serif" font-weight="500" fill="#151515">Developer</text><path class="aa9507a5-909d-42c6-9d89-27a9761f87cf" d="M196.281 79.6a19.068 19.068 0 10-38.135 0z"/><ellipse class="aa9507a5-909d-42c6-9d89-27a9761f87cf" cx="177.214" cy="50.751" rx="9.573" ry="9.649"/></g><path transform="rotate(-180 444.986 341.844)" stroke="#dcdcdc" stroke-miterlimit="10" fill="none" d="M357.486 274.345h175v135h-175z"/><path class="fbdc1166-ef58-4255-b7ad-7da3d4c7be2f" d="M372.486 289.345h145v50h-145z"/><text class="ba0d96ed-b933-4265-a26b-53bb9fe894b3" transform="translate(412.688 317.012)">Base image</text><path class="fbdc1166-ef58-4255-b7ad-7da3d4c7be2f" d="M372.486 344.345h145v50h-145z"/><text class="ba0d96ed-b933-4265-a26b-53bb9fe894b3" transform="translate(429.962 372.012)">Code</text><g><text transform="translate(664.872 456.584)" font-size="10" font-family="RedHatText,&quot;Red Hat Text&quot;,Overpass,&quot;Helvetica Neue&quot;,Arial,sans-serif" fill="#f3f3f3">107_OpenShift_0720</text><path fill="none" d="M0 434.224h760v40H0z"/></g></svg>