<svg id="aa306189-0059-47d6-9e49-6676c91ed0f5" data-name="artwork" xmlns="http://www.w3.org/2000/svg" width="760" height="566.022"><defs><style>.e0faec4c-b7e5-402e-9adb-af36a798c3a6{fill:#e8e8e8}.aedfc8cb-ff62-4e70-a4df-42de7e2f6525,.bac2f731-e9f5-4ff6-a85b-fd2038bfc650{font-size:12px}.aedfc8cb-ff62-4e70-a4df-42de7e2f6525,.b99a56a1-ff06-4201-ba67-51a7e5366cc1,.bac2f731-e9f5-4ff6-a85b-fd2038bfc650{fill:#151515}.bac2f731-e9f5-4ff6-a85b-fd2038bfc650{font-family:RedHatText,&quot;Red Hat Text&quot;,Overpass,&quot;Helvetica Neue&quot;,Arial,sans-serif;font-style:italic}.adc6b170-b316-49f8-ad4a-23d048b7c430{letter-spacing:.002em}.a9732f56-fca3-468f-88d8-0f41526c4bb7{letter-spacing:.001em}.f8533fd2-c142-46ed-b8ab-70917149a266{letter-spacing:.003em}.b8159210-583b-42c6-b96d-3326f7f9b40c{letter-spacing:-.002em}.b25c2503-5f1c-4462-b406-1b63080ba1ff{letter-spacing:.002em}.f434b8c7-ab32-47c6-9327-e5fcafa88bd2{letter-spacing:-.016em}.ea1337f0-ba7a-4c94-b616-817697404d7d{letter-spacing:.001em}.a074e6f0-9d41-4d4f-ae10-77f588bf8616{letter-spacing:-.003em}.ebe5f852-7569-41b8-81e6-b37dc1d56adb{letter-spacing:.003em}.a84ac310-7612-4c8d-afb1-bd6c3bbd2a8a{letter-spacing:-.013em}.a843cd88-6dd1-4ba0-bd3c-13f5e2f5bb66{letter-spacing:-.005em}.bf1efb5f-8fa3-4cfb-a486-86b4cd12c9ab{letter-spacing:.002em}.a2b8857b-80e7-4eff-b3d8-5abeab8368b8{letter-spacing:.012em}.ad955058-69b8-440e-8d6d-3099ee10dcdc{letter-spacing:-.008em}.e1da5cd6-1071-4c8d-b42d-18af65309bde{letter-spacing:.005em}.fbb6feda-d86e-411e-b6ae-450b0d649f4e{letter-spacing:.003em}.b4bb19ea-302a-4e0e-b078-77f53f5777ad{letter-spacing:.002em}.ee2d48c3-ade1-4df1-97fd-623fa1d3d7ca{fill:none;stroke:#151515;stroke-linecap:round;stroke-linejoin:round}.a72634eb-4cdc-4f1c-83b3-34c54bc34530{letter-spacing:-.016em}.f7183f20-2b23-4b60-8e67-1c34cd296d22{letter-spacing:-.006em}.af78255e-1abd-431d-87ac-8ec9b25cce3f{letter-spacing:.002em}.bd59e944-1cb0-44b6-a1ba-482370404853{letter-spacing:-.02em}.bc074795-2d3e-4a47-86db-4a3146dc89d1{letter-spacing:0}.fb21d224-8286-41e2-aafd-d5be83256a97{letter-spacing:.008em}.a0dbce95-5226-4539-9c79-3c4ceeace3fa{letter-spacing:-.001em}.e1b47c42-7384-4982-9f71-6f9bb28ce4a2{letter-spacing:.001em}.b69902d2-96ef-42af-a07f-10648b5486d5{letter-spacing:.006em}.adee7c8e-2534-41b3-aa1c-fb63a5cc1aa4{letter-spacing:.005em}.ab7fa4ba-7d4a-45eb-b17d-8f2fe761d8d8{letter-spacing:.009em}.b9877da6-19b9-4afc-bf08-58773379b6db{letter-spacing:.003em}.baa65587-9168-4da9-9b19-ae0017d643c3{letter-spacing:.007em}.b5b3498a-134f-4f3e-b9f5-50e3a34b83d1{letter-spacing:.001em}.fb719682-c53b-4396-875e-635e5705d668{letter-spacing:.014em}.aedfc8cb-ff62-4e70-a4df-42de7e2f6525{font-family:RedHatText,&quot;Red Hat Text&quot;,Overpass,&quot;Helvetica Neue&quot;,Arial,sans-serif;font-weight:500}.ee007d14-6758-49b4-93a8-848ab8bd6db1{letter-spacing:.006em}.f3c63e99-119d-48e0-94b2-dbfadc30f861{letter-spacing:.004em}.fb6f12e4-9860-4995-96a7-8fd944c427a0{letter-spacing:-.007em}.b1d358e4-55a9-49dd-97ec-5dc9aac96971{letter-spacing:.006em}.ab8d209a-277e-467d-8f8f-c20cfd1addf4{letter-spacing:.005em}.a0f725ed-06d0-4dee-abdd-f8896a0f441a{letter-spacing:.007em}.e5562e50-920f-400f-9253-0aee4265095c{letter-spacing:0}.b818c71b-7f1c-4890-869e-86e4e0c1dd45{fill:#fff}.e7770fbe-9927-42e5-b41a-a4f8992f8f70{letter-spacing:.009em}.a8839ad3-4ce0-40b5-844a-a5767652d2d8{letter-spacing:.002em}.f8921af0-1c92-4218-bc2d-11be05736eab{letter-spacing:.008em}.f20de6fe-4879-4a3e-940d-3e93a84d2156{letter-spacing:.005em}.f553be02-5dea-4bea-a055-de31a87f3171{letter-spacing:-.003em}.a0cd50b4-65cc-4905-8e86-ddf7ec442097{letter-spacing:-.08em}.afade791-b78a-4b28-a050-3302e26a1784{letter-spacing:-.025em}.f38b227e-51d3-4ab7-8a66-e19294b25651{letter-spacing:-.001em}.b69b0f2f-ab83-43b3-8762-27508888d9ac,.f52270d4-1874-46ae-b547-d45de3574e4b{letter-spacing:-.006em}.a9d407a0-1751-4f50-9076-01e0b231fc00{letter-spacing:.006em}.b77c5189-7fb3-45c0-9f45-ba85be239715{letter-spacing:.014em}.b15f9bbd-2532-4ec8-8e69-e1e76d95ef7b{letter-spacing:.006em}.a0b4d80b-13cf-4a5c-b297-7f2152ac6e97{letter-spacing:.031em}.a77c1a9c-89ed-4264-a9ae-f01dfd0061cf{letter-spacing:0}.fb7c5834-249a-44d6-b9ca-3d8819f6baf4{letter-spacing:.009em}.fd5e0930-c5c6-4a7b-9fbb-c0ac3c2b69eb{letter-spacing:.005em}.a0f2f8b1-6514-43d5-a145-69b58a56382b{letter-spacing:.008em}.b8861295-bdef-4e38-a4af-816852b65688{letter-spacing:.01em}.beb6378d-fff9-4c27-a64f-018f686ba236{letter-spacing:.009em}.e0fb0dc0-3574-4c30-982c-3003a87481e9{letter-spacing:.007em}.e1b874dd-fe2f-4b94-8e46-65536b126586{letter-spacing:.012em}.a303134b-8fe2-4f3d-b893-bc0c740f245e,.ff980ba1-a566-4034-ab68-63d3654ca399{letter-spacing:.005em}.f152cec2-4fbf-4faf-a5fb-96b2bb7bfded{letter-spacing:.003em}.a21671fc-5cb4-459a-b920-8d04402aac01{letter-spacing:.019em}.bd8c23e4-7ffa-486c-be59-f4d123d75e96{letter-spacing:.006em}.a1d8ccc8-3059-495a-aedd-b189126d0074{letter-spacing:-.01em}.fad83e43-8108-48c7-aff0-236cce1d7e9f{letter-spacing:.01em}.b8b4dbfc-d317-443e-99e7-2e271ba244af{letter-spacing:.002em}.a1a39e58-4760-4d48-9436-216869b96893{letter-spacing:-.016em}.f0980dd4-8288-43e3-87bc-4a2eca9f3735{letter-spacing:-.018em}.b2491861-2066-4d1d-b5d8-e1fbb65d90f6{letter-spacing:.004em}</style></defs><path class="e0faec4c-b7e5-402e-9adb-af36a798c3a6" d="M298.5 16H760v498H298.5z"/><text class="bac2f731-e9f5-4ff6-a85b-fd2038bfc650" transform="translate(203.927 339.698)"><tspan class="adc6b170-b316-49f8-ad4a-23d048b7c430">A</tspan><tspan class="a9732f56-fca3-468f-88d8-0f41526c4bb7" x="7.79" y="0">u</tspan><tspan class="f8533fd2-c142-46ed-b8ab-70917149a266" x="14.295" y="0">t</tspan><tspan class="b8159210-583b-42c6-b96d-3326f7f9b40c" x="18.789" y="0">h</tspan><tspan class="b25c2503-5f1c-4462-b406-1b63080ba1ff" x="25.266" y="0">e</tspan><tspan class="f434b8c7-ab32-47c6-9327-e5fcafa88bd2" x="31.834" y="0">n</tspan><tspan class="ea1337f0-ba7a-4c94-b616-817697404d7d" x="38.141" y="0">t</tspan><tspan class="a074e6f0-9d41-4d4f-ae10-77f588bf8616" x="42.605" y="0">i</tspan><tspan class="ebe5f852-7569-41b8-81e6-b37dc1d56adb" x="45.209" y="0">c</tspan><tspan class="a84ac310-7612-4c8d-afb1-bd6c3bbd2a8a" x="51.204" y="0">a</tspan><tspan class="a843cd88-6dd1-4ba0-bd3c-13f5e2f5bb66" x="57.241" y="0">t</tspan><tspan x="61.634" y="0">e</tspan></text><text transform="translate(318.5 47.788)" font-size="14" font-family="RedHatText,&quot;Red Hat Text&quot;,Overpass,&quot;Helvetica Neue&quot;,Arial,sans-serif" font-weight="700" fill="#151515"><tspan letter-spacing=".001em">R</tspan><tspan class="bf1efb5f-8fa3-4cfb-a486-86b4cd12c9ab" x="9.857" y="0">e</tspan><tspan x="18.178" y="0">d </tspan><tspan class="a2b8857b-80e7-4eff-b3d8-5abeab8368b8" x="30.189" y="0">H</tspan><tspan class="ad955058-69b8-440e-8d6d-3099ee10dcdc" x="41.035" y="0">a</tspan><tspan x="49.026" y="0" letter-spacing="0">t </tspan><tspan class="a2b8857b-80e7-4eff-b3d8-5abeab8368b8" x="58.447" y="0">O</tspan><tspan x="69.993" y="0" letter-spacing="-.001em">p</tspan><tspan x="79" y="0" letter-spacing=".005em">e</tspan><tspan x="87.36" y="0" letter-spacing=".011em">nS</tspan><tspan x="105.499" y="0" letter-spacing=".007em">h</tspan><tspan x="114.247" y="0" letter-spacing="-.007em">i</tspan><tspan x="118.184" y="0" letter-spacing=".009em">f</tspan><tspan x="124.748" y="0">t </tspan><tspan x="134.17" y="0" letter-spacing=".004em">D</tspan><tspan class="bf1efb5f-8fa3-4cfb-a486-86b4cd12c9ab" x="144.863" y="0">e</tspan><tspan x="153.184" y="0" letter-spacing=".008em">d</tspan><tspan x="162.292" y="0" letter-spacing=".001em">i</tspan><tspan class="e1da5cd6-1071-4c8d-b42d-18af65309bde" x="166.338" y="0">c</tspan><tspan class="ad955058-69b8-440e-8d6d-3099ee10dcdc" x="173.952" y="0">a</tspan><tspan class="fbb6feda-d86e-411e-b6ae-450b0d649f4e" x="181.943" y="0">te</tspan><tspan x="196.713" y="0">d </tspan><tspan x="208.725" y="0" letter-spacing="-.001em">C</tspan><tspan x="218.791" y="0" letter-spacing=".007em">l</tspan><tspan x="222.926" y="0" letter-spacing=".012em">u</tspan><tspan x="231.745" y="0" letter-spacing="-.003em">s</tspan><tspan class="fbb6feda-d86e-411e-b6ae-450b0d649f4e" x="238.862" y="0">t</tspan><tspan x="245.312" y="0" letter-spacing=".005em">e</tspan><tspan x="253.673" y="0">r</tspan><tspan font-weight="400"><tspan x="0" y="17" letter-spacing=".009em">O</tspan><tspan x="11.459" y="17" letter-spacing="-.001em">p</tspan><tspan x="19.609" y="17" letter-spacing=".002em">e</tspan><tspan x="27.432" y="17" letter-spacing=".004em">n</tspan><tspan x="35.218" y="17" letter-spacing=".01em">S</tspan><tspan x="44.08" y="17" letter-spacing=".002em">h</tspan><tspan x="51.834" y="17">i</tspan><tspan x="54.956" y="17" letter-spacing=".025em">f</tspan><tspan x="60.49" y="17">t </tspan><tspan x="69.044" y="17" letter-spacing=".007em">A</tspan><tspan x="78.378" y="17" letter-spacing="-.012em">P</tspan><tspan x="87.365" y="17">I </tspan><tspan x="94.155" y="17" letter-spacing=".001em">M</tspan><tspan x="106.229" y="17" letter-spacing=".004em">a</tspan><tspan x="113.646" y="17" letter-spacing="-.002em">n</tspan><tspan x="121.349" y="17" letter-spacing=".001em">a</tspan><tspan x="128.728" y="17" letter-spacing=".002em">ge</tspan><tspan x="144.724" y="17" letter-spacing="0">m</tspan><tspan class="b4bb19ea-302a-4e0e-b078-77f53f5777ad" x="156.561" y="17">e</tspan><tspan x="164.382" y="17" letter-spacing="-.013em">n</tspan><tspan x="171.924" y="17">t </tspan><tspan x="180.478" y="17" letter-spacing=".004em">s</tspan><tspan class="b4bb19ea-302a-4e0e-b078-77f53f5777ad" x="186.857" y="17">e</tspan><tspan x="194.679" y="17" letter-spacing=".033em">r</tspan><tspan x="200.073" y="17" letter-spacing=".007em">v</tspan><tspan x="207.188" y="17" letter-spacing="-.003em">i</tspan><tspan x="210.274" y="17" letter-spacing="-.012em">c</tspan><tspan x="217.227" y="17">e</tspan></tspan></text><path class="ee2d48c3-ade1-4df1-97fd-623fa1d3d7ca" d="M308.824 348H177"/><path class="b99a56a1-ff06-4201-ba67-51a7e5366cc1" d="M307.365 343.014L316 348l-8.635 4.986v-9.972z"/><text class="bac2f731-e9f5-4ff6-a85b-fd2038bfc650" transform="translate(135.732 455.698)"><tspan letter-spacing=".011em">I</tspan><tspan class="a72634eb-4cdc-4f1c-83b3-34c54bc34530" x="3.092" y="0">n</tspan><tspan class="f7183f20-2b23-4b60-8e67-1c34cd296d22" x="9.404" y="0">v</tspan><tspan class="af78255e-1abd-431d-87ac-8ec9b25cce3f" x="15.226" y="0">o</tspan><tspan class="bd59e944-1cb0-44b6-a1ba-482370404853" x="22.093" y="0">k</tspan><tspan class="bc074795-2d3e-4a47-86db-4a3146dc89d1" x="27.588" y="0">e </tspan><tspan class="fb21d224-8286-41e2-aafd-d5be83256a97" x="36.923" y="0">A</tspan><tspan x="44.783" y="0">PI </tspan><tspan class="a0dbce95-5226-4539-9c79-3c4ceeace3fa" x="58.235" y="0">o</tspan><tspan class="e1b47c42-7384-4982-9f71-6f9bb28ce4a2" x="65.059" y="0">p</tspan><tspan x="71.918" y="0" letter-spacing=".003em">e</tspan><tspan class="b69902d2-96ef-42af-a07f-10648b5486d5" x="78.5" y="0">r</tspan><tspan class="a84ac310-7612-4c8d-afb1-bd6c3bbd2a8a" x="82.699" y="0">a</tspan><tspan class="ea1337f0-ba7a-4c94-b616-817697404d7d" x="88.736" y="0">ti</tspan><tspan x="95.852" y="0" letter-spacing="-.001em">o</tspan><tspan class="adee7c8e-2534-41b3-aa1c-fb63a5cc1aa4" x="102.685" y="0">n</tspan><tspan x="109.248" y="0">s</tspan></text><path class="ee2d48c3-ade1-4df1-97fd-623fa1d3d7ca" d="M308.824 464H88.5v-86"/><path class="b99a56a1-ff06-4201-ba67-51a7e5366cc1" d="M307.365 459.014L316 464l-8.635 4.986v-9.972z"/><text transform="translate(507.186 454.893)" letter-spacing=".011em" font-family="RedHatText,&quot;Red Hat Text&quot;,Overpass,&quot;Helvetica Neue&quot;,Arial,sans-serif" font-style="italic" fill="#151515" font-size="12">I<tspan class="a72634eb-4cdc-4f1c-83b3-34c54bc34530" x="3.092" y="0">n</tspan><tspan class="f7183f20-2b23-4b60-8e67-1c34cd296d22" x="9.404" y="0">v</tspan><tspan class="af78255e-1abd-431d-87ac-8ec9b25cce3f" x="15.226" y="0">o</tspan><tspan class="bd59e944-1cb0-44b6-a1ba-482370404853" x="22.093" y="0">k</tspan><tspan class="bc074795-2d3e-4a47-86db-4a3146dc89d1" x="27.588" y="0">e</tspan></text><path class="ee2d48c3-ade1-4df1-97fd-623fa1d3d7ca" d="M550.824 464H495.5"/><path class="b99a56a1-ff06-4201-ba67-51a7e5366cc1" d="M549.365 459.014L558 464l-8.635 4.986v-9.972z"/><text class="bac2f731-e9f5-4ff6-a85b-fd2038bfc650" transform="translate(204.404 211.698)"><tspan class="ab7fa4ba-7d4a-45eb-b17d-8f2fe761d8d8">Su</tspan><tspan class="b9877da6-19b9-4afc-bf08-58773379b6db" x="14.054" y="0">b</tspan><tspan x="20.947" y="0" letter-spacing="-.001em">s</tspan><tspan class="ab7fa4ba-7d4a-45eb-b17d-8f2fe761d8d8" x="26.246" y="0">c</tspan><tspan class="baa65587-9168-4da9-9b19-ae0017d643c3" x="32.319" y="0">r</tspan><tspan x="36.525" y="0" letter-spacing=".008em">i</tspan><tspan class="e1b47c42-7384-4982-9f71-6f9bb28ce4a2" x="39.263" y="0">b</tspan><tspan x="46.123" y="0">e </tspan><tspan class="a843cd88-6dd1-4ba0-bd3c-13f5e2f5bb66" x="55.458" y="0">t</tspan><tspan x="59.852" y="0">o</tspan><tspan class="fb21d224-8286-41e2-aafd-d5be83256a97" x="1.806" y="13">A</tspan><tspan x="9.666" y="13">PI </tspan><tspan class="b5b3498a-134f-4f3e-b9f5-50e3a34b83d1" x="23.117" y="13">p</tspan><tspan class="e1b47c42-7384-4982-9f71-6f9bb28ce4a2" x="29.986" y="13">r</tspan><tspan x="34.121" y="13">o</tspan><tspan x="40.961" y="13" letter-spacing=".003em">d</tspan><tspan class="a074e6f0-9d41-4d4f-ae10-77f588bf8616" x="47.845" y="13">u</tspan><tspan class="fb719682-c53b-4396-875e-635e5705d668" x="54.301" y="13">c</tspan><tspan x="60.435" y="13">t</tspan></text><path class="ee2d48c3-ade1-4df1-97fd-623fa1d3d7ca" d="M308.824 233H177"/><path class="b99a56a1-ff06-4201-ba67-51a7e5366cc1" d="M307.365 228.014L316 233l-8.635 4.986v-9.972z"/><path class="ee2d48c3-ade1-4df1-97fd-623fa1d3d7ca" d="M88.5 307.824V263"/><path class="b99a56a1-ff06-4201-ba67-51a7e5366cc1" d="M93.486 306.365L88.5 315l-4.986-8.635h9.972z"/><path class="e0faec4c-b7e5-402e-9adb-af36a798c3a6" d="M0 318h177v60H0z"/><text class="aedfc8cb-ff62-4e70-a4df-42de7e2f6525" transform="translate(71.734 346.324)"><tspan letter-spacing="-.004em">C</tspan><tspan class="ee007d14-6758-49b4-93a8-848ab8bd6db1" x="8.625" y="0">l</tspan><tspan x="11.725" y="0">i</tspan><tspan class="f3c63e99-119d-48e0-94b2-dbfadc30f861" x="14.749" y="0">e</tspan><tspan class="fb6f12e4-9860-4995-96a7-8fd944c427a0" x="21.672" y="0">n</tspan><tspan x="28.566" y="0">t</tspan><tspan class="b1d358e4-55a9-49dd-97ec-5dc9aac96971" x="-14.551" y="13">a</tspan><tspan class="ab8d209a-277e-467d-8f8f-c20cfd1addf4" x="-7.874" y="13">pp</tspan><tspan class="ee007d14-6758-49b4-93a8-848ab8bd6db1" x="6.898" y="13">l</tspan><tspan x="9.998" y="13">i</tspan><tspan class="a0f725ed-06d0-4dee-abdd-f8896a0f441a" x="13.022" y="13">c</tspan><tspan x="19.382" y="13" letter-spacing="-.008em">a</tspan><tspan x="25.892" y="13" letter-spacing="-.001em">t</tspan><tspan class="e5562e50-920f-400f-9253-0aee4265095c" x="30.846" y="13">i</tspan><tspan x="33.871" y="13" letter-spacing=".004em">o</tspan><tspan x="41.1" y="13">n</tspan></text><path class="b818c71b-7f1c-4890-869e-86e4e0c1dd45" d="M318.5 318h177v60h-177z"/><text class="aedfc8cb-ff62-4e70-a4df-42de7e2f6525" transform="translate(379.082 346.324)"><tspan letter-spacing="-.006em">C</tspan><tspan x="8.602" y="0" letter-spacing=".013em">u</tspan><tspan class="b69902d2-96ef-42af-a07f-10648b5486d5" x="15.736" y="0">s</tspan><tspan x="21.556" y="0" letter-spacing="-.009em">t</tspan><tspan class="ab8d209a-277e-467d-8f8f-c20cfd1addf4" x="26.416" y="0">o</tspan><tspan x="33.646" y="0" letter-spacing=".004em">me</tspan><tspan x="51.121" y="0">r</tspan><tspan x="-39.044" y="13" letter-spacing="-.004em">R</tspan><tspan class="ea1337f0-ba7a-4c94-b616-817697404d7d" x="-31.027" y="13">e</tspan><tspan x="-24.139" y="13">d </tspan><tspan x="-14.12" y="13" letter-spacing=".008em">H</tspan><tspan class="fb6f12e4-9860-4995-96a7-8fd944c427a0" x="-5.068" y="13">a</tspan><tspan x="1.442" y="13">t </tspan><tspan class="e7770fbe-9927-42e5-b41a-a4f8992f8f70" x="9.109" y="13">S</tspan><tspan class="ee007d14-6758-49b4-93a8-848ab8bd6db1" x="16.86" y="13">i</tspan><tspan x="19.96" y="13" letter-spacing=".003em">n</tspan><tspan class="ee007d14-6758-49b4-93a8-848ab8bd6db1" x="26.975" y="13">g</tspan><tspan class="a8839ad3-4ce0-40b5-844a-a5767652d2d8" x="34.358" y="13">l</tspan><tspan x="37.411" y="13">e </tspan><tspan class="e7770fbe-9927-42e5-b41a-a4f8992f8f70" x="46.987" y="13">S</tspan><tspan x="54.738" y="13" letter-spacing=".002em">i</tspan><tspan class="ee007d14-6758-49b4-93a8-848ab8bd6db1" x="57.783" y="13">g</tspan><tspan x="65.167" y="13" letter-spacing=".008em">n</tspan><tspan x="72.246" y="13" letter-spacing=".021em">-</tspan><tspan x="78.042" y="13" letter-spacing=".01em">O</tspan><tspan class="bc074795-2d3e-4a47-86db-4a3146dc89d1" x="87.897" y="13">n</tspan></text><path class="ee2d48c3-ade1-4df1-97fd-623fa1d3d7ca" d="M407 147v46.324"/><path class="b99a56a1-ff06-4201-ba67-51a7e5366cc1" d="M402.014 191.865L407 200.5l4.986-8.635h-9.972z"/><path class="e0faec4c-b7e5-402e-9adb-af36a798c3a6" d="M324.823 161.972h174.354v16.055H324.823z"/><text class="bac2f731-e9f5-4ff6-a85b-fd2038bfc650" transform="translate(354.711 175.408)"><tspan letter-spacing="-.005em">P</tspan><tspan class="e7770fbe-9927-42e5-b41a-a4f8992f8f70" x="7.629" y="0">u</tspan><tspan x="14.228" y="0">b</tspan><tspan class="f8921af0-1c92-4218-bc2d-11be05736eab" x="21.08" y="0">l</tspan><tspan x="23.813" y="0" letter-spacing=".009em">i</tspan><tspan class="f20de6fe-4879-4a3e-940d-3e93a84d2156" x="26.565" y="0">s</tspan><tspan x="31.944" y="0">h </tspan><tspan class="fb21d224-8286-41e2-aafd-d5be83256a97" x="41.244" y="0">A</tspan><tspan x="49.104" y="0">PI </tspan><tspan class="b5b3498a-134f-4f3e-b9f5-50e3a34b83d1" x="62.556" y="0">p</tspan><tspan class="e1b47c42-7384-4982-9f71-6f9bb28ce4a2" x="69.424" y="0">r</tspan><tspan x="73.56" y="0">o</tspan><tspan x="80.399" y="0" letter-spacing=".003em">d</tspan><tspan class="f553be02-5dea-4bea-a055-de31a87f3171" x="87.284" y="0">u</tspan><tspan class="fb719682-c53b-4396-875e-635e5705d668" x="93.74" y="0">c</tspan><tspan x="99.873" y="0">t</tspan></text><path class="ee2d48c3-ade1-4df1-97fd-623fa1d3d7ca" d="M407 263v46.324"/><path class="b99a56a1-ff06-4201-ba67-51a7e5366cc1" d="M402.014 307.865L407 316.5l4.986-8.635h-9.972z"/><path class="e0faec4c-b7e5-402e-9adb-af36a798c3a6" d="M324.823 277.472h174.354v16.055H324.823z"/><text class="bac2f731-e9f5-4ff6-a85b-fd2038bfc650" transform="translate(343.583 288.787)"><tspan class="adc6b170-b316-49f8-ad4a-23d048b7c430">A</tspan><tspan class="a9732f56-fca3-468f-88d8-0f41526c4bb7" x="7.79" y="0">u</tspan><tspan class="f8533fd2-c142-46ed-b8ab-70917149a266" x="14.295" y="0">t</tspan><tspan class="b8159210-583b-42c6-b96d-3326f7f9b40c" x="18.789" y="0">h</tspan><tspan class="b25c2503-5f1c-4462-b406-1b63080ba1ff" x="25.266" y="0">e</tspan><tspan class="f434b8c7-ab32-47c6-9327-e5fcafa88bd2" x="31.834" y="0">n</tspan><tspan class="ea1337f0-ba7a-4c94-b616-817697404d7d" x="38.141" y="0">t</tspan><tspan class="a074e6f0-9d41-4d4f-ae10-77f588bf8616" x="42.605" y="0">i</tspan><tspan class="ebe5f852-7569-41b8-81e6-b37dc1d56adb" x="45.209" y="0">c</tspan><tspan class="a84ac310-7612-4c8d-afb1-bd6c3bbd2a8a" x="51.204" y="0">a</tspan><tspan class="a843cd88-6dd1-4ba0-bd3c-13f5e2f5bb66" x="57.241" y="0">t</tspan><tspan class="af78255e-1abd-431d-87ac-8ec9b25cce3f" x="61.634" y="0">e</tspan><tspan x="68.202" y="0">s </tspan><tspan class="a0cd50b4-65cc-4905-8e86-ddf7ec442097" x="76.313" y="0">(</tspan><tspan class="a0dbce95-5226-4539-9c79-3c4ceeace3fa" x="80.074" y="0">o</tspan><tspan class="afade791-b78a-4b28-a050-3302e26a1784" x="86.898" y="0">p</tspan><tspan class="ea1337f0-ba7a-4c94-b616-817697404d7d" x="93.456" y="0">ti</tspan><tspan class="f38b227e-51d3-4ab7-8a66-e19294b25651" x="100.571" y="0">o</tspan><tspan class="b69b0f2f-ab83-43b3-8762-27508888d9ac" x="107.404" y="0">n</tspan><tspan class="e1da5cd6-1071-4c8d-b42d-18af65309bde" x="113.831" y="0">a</tspan><tspan class="f52270d4-1874-46ae-b547-d45de3574e4b" x="120.082" y="0">l</tspan><tspan x="122.646" y="0">)</tspan></text><path class="ee2d48c3-ade1-4df1-97fd-623fa1d3d7ca" d="M407 387.676V434"/><path class="b99a56a1-ff06-4201-ba67-51a7e5366cc1" d="M402.014 389.135L407 380.5l4.986 8.635h-9.972z"/><path class="e0faec4c-b7e5-402e-9adb-af36a798c3a6" d="M324.823 402.972h174.354v16.055H324.823z"/><text class="bac2f731-e9f5-4ff6-a85b-fd2038bfc650" transform="translate(341.968 414.287)"><tspan letter-spacing="-.031em">V</tspan><tspan class="adee7c8e-2534-41b3-aa1c-fb63a5cc1aa4" x="7.388" y="0">a</tspan><tspan x="13.639" y="0" letter-spacing=".008em">l</tspan><tspan x="16.371" y="0" letter-spacing=".001em">i</tspan><tspan x="19.02" y="0" letter-spacing="-.005em">d</tspan><tspan class="a84ac310-7612-4c8d-afb1-bd6c3bbd2a8a" x="25.817" y="0">a</tspan><tspan class="a843cd88-6dd1-4ba0-bd3c-13f5e2f5bb66" x="31.854" y="0">t</tspan><tspan class="af78255e-1abd-431d-87ac-8ec9b25cce3f" x="36.248" y="0">e</tspan><tspan x="42.815" y="0">s </tspan><tspan x="50.927" y="0" letter-spacing=".002em">A</tspan><tspan x="58.717" y="0" letter-spacing=".001em">u</tspan><tspan class="f8533fd2-c142-46ed-b8ab-70917149a266" x="65.222" y="0">t</tspan><tspan x="69.716" y="0">h </tspan><tspan class="a0cd50b4-65cc-4905-8e86-ddf7ec442097" x="79.016" y="0">(</tspan><tspan class="a0dbce95-5226-4539-9c79-3c4ceeace3fa" x="82.776" y="0">o</tspan><tspan class="afade791-b78a-4b28-a050-3302e26a1784" x="89.601" y="0">p</tspan><tspan class="ea1337f0-ba7a-4c94-b616-817697404d7d" x="96.158" y="0">ti</tspan><tspan class="f38b227e-51d3-4ab7-8a66-e19294b25651" x="103.273" y="0">o</tspan><tspan class="b69b0f2f-ab83-43b3-8762-27508888d9ac" x="110.106" y="0">n</tspan><tspan class="e1da5cd6-1071-4c8d-b42d-18af65309bde" x="116.533" y="0">a</tspan><tspan class="f52270d4-1874-46ae-b547-d45de3574e4b" x="122.784" y="0">l</tspan><tspan x="125.348" y="0">)</tspan></text><path class="b818c71b-7f1c-4890-869e-86e4e0c1dd45" d="M54.033 276.593h68.935v15.814H54.033z"/><text class="bac2f731-e9f5-4ff6-a85b-fd2038bfc650" transform="translate(15.196 287.908)"><tspan letter-spacing=".007em">D</tspan><tspan x="8.685" y="0" letter-spacing="-.016em">e</tspan><tspan class="f7183f20-2b23-4b60-8e67-1c34cd296d22" x="15.038" y="0">v</tspan><tspan class="a8839ad3-4ce0-40b5-844a-a5767652d2d8" x="20.859" y="0">e</tspan><tspan x="27.428" y="0">l</tspan><tspan x="30.068" y="0" letter-spacing="-.001em">o</tspan><tspan class="b9877da6-19b9-4afc-bf08-58773379b6db" x="36.893" y="0">p</tspan><tspan x="43.785" y="0">s </tspan><tspan x="51.897" y="0" letter-spacing=".008em">cl</tspan><tspan x="60.695" y="0" letter-spacing=".001em">i</tspan><tspan class="a8839ad3-4ce0-40b5-844a-a5767652d2d8" x="63.343" y="0">e</tspan><tspan class="f434b8c7-ab32-47c6-9327-e5fcafa88bd2" x="69.912" y="0">n</tspan><tspan x="76.219" y="0">t </tspan><tspan x="83.467" y="0" letter-spacing=".004em">a</tspan><tspan x="89.709" y="0">pp</tspan><tspan class="f8921af0-1c92-4218-bc2d-11be05736eab" x="103.413" y="0">l</tspan><tspan class="f553be02-5dea-4bea-a055-de31a87f3171" x="106.146" y="0">i</tspan><tspan class="ebe5f852-7569-41b8-81e6-b37dc1d56adb" x="108.749" y="0">c</tspan><tspan class="a84ac310-7612-4c8d-afb1-bd6c3bbd2a8a" x="114.744" y="0">a</tspan><tspan class="ea1337f0-ba7a-4c94-b616-817697404d7d" x="120.781" y="0">ti</tspan><tspan class="f38b227e-51d3-4ab7-8a66-e19294b25651" x="127.897" y="0">o</tspan><tspan class="e1da5cd6-1071-4c8d-b42d-18af65309bde" x="134.73" y="0">n</tspan><tspan x="141.292" y="0">s</tspan></text><text transform="translate(-.5 549.04)" font-size="10" fill="#f3f3f3" font-family="RedHatText,&quot;Red Hat Text&quot;,Overpass,&quot;Helvetica Neue&quot;,Arial,sans-serif">131_OpenShift_1220</text><path fill="none" d="M-.5 526.022h760v40H-.5z"/><text transform="translate(442.908 535.01)" font-size="11" font-family="RedHatText,&quot;Red Hat Text&quot;,Overpass,&quot;Helvetica Neue&quot;,Arial,sans-serif" font-style="italic" fill="#151515"><tspan letter-spacing=".001em">A</tspan><tspan x="7.129" y="0" letter-spacing=".008em">d</tspan><tspan class="a9d407a0-1751-4f50-9076-01e0b231fc00" x="13.496" y="0">m</tspan><tspan x="22.673" y="0" letter-spacing=".013em">i</tspan><tspan class="a9d407a0-1751-4f50-9076-01e0b231fc00" x="25.231" y="0">n</tspan><tspan class="b77c5189-7fb3-45c0-9f45-ba85be239715" x="31.263" y="0">i</tspan><tspan x="33.833" y="0" letter-spacing=".009em">s</tspan><tspan class="b15f9bbd-2532-4ec8-8e69-e1e76d95ef7b" x="38.81" y="0">t</tspan><tspan x="42.961" y="0" letter-spacing=".01em">r</tspan><tspan x="46.859" y="0" letter-spacing="-.008em">a</tspan><tspan x="52.443" y="0">t</tspan><tspan class="e1da5cd6-1071-4c8d-b42d-18af65309bde" x="56.524" y="0">o</tspan><tspan class="a0b4d80b-13cf-4a5c-b297-7f2152ac6e97" x="62.848" y="0">r</tspan><tspan class="a77c1a9c-89ed-4264-a9ae-f01dfd0061cf" x="66.974" y="0">s </tspan><tspan x="74.409" y="0" letter-spacing="-.002em">m</tspan><tspan class="fb7c5834-249a-44d6-b9ca-3d8819f6baf4" x="83.49" y="0">a</tspan><tspan x="89.269" y="0" letter-spacing="-.002em">n</tspan><tspan x="95.21" y="0" letter-spacing=".002em">a</tspan><tspan x="100.912" y="0" letter-spacing=".004em">g</tspan><tspan x="107.174" y="0">e </tspan><tspan x="115.732" y="0" letter-spacing=".003em">a</tspan><tspan x="121.437" y="0" letter-spacing=".004em">c</tspan><tspan x="126.952" y="0" letter-spacing=".007em">c</tspan><tspan x="132.5" y="0" letter-spacing=".003em">o</tspan><tspan x="138.799" y="0" letter-spacing=".01em">u</tspan><tspan x="144.86" y="0" letter-spacing="-.012em">n</tspan><tspan x="150.692" y="0">t </tspan><tspan class="fd5e0930-c5c6-4a7b-9fbb-c0ac3c2b69eb" x="157.337" y="0">p</tspan><tspan class="a0f2f8b1-6514-43d5-a145-69b58a56382b" x="163.673" y="0">e</tspan><tspan x="169.753" y="0" letter-spacing=".011em">r</tspan><tspan class="a9d407a0-1751-4f50-9076-01e0b231fc00" x="173.656" y="0">m</tspan><tspan class="b77c5189-7fb3-45c0-9f45-ba85be239715" x="182.833" y="0">i</tspan><tspan x="185.403" y="0" letter-spacing=".022em">s</tspan><tspan class="b8861295-bdef-4e38-a4af-816852b65688" x="190.52" y="0">s</tspan><tspan class="fd5e0930-c5c6-4a7b-9fbb-c0ac3c2b69eb" x="195.498" y="0">i</tspan><tspan class="f3c63e99-119d-48e0-94b2-dbfadc30f861" x="197.973" y="0">o</tspan><tspan class="beb6378d-fff9-4c27-a64f-018f686ba236" x="204.285" y="0">n</tspan><tspan x="210.349" y="0">s </tspan><tspan class="beb6378d-fff9-4c27-a64f-018f686ba236" x="217.785" y="0">a</tspan><tspan x="223.563" y="0" letter-spacing=".002em">n</tspan><tspan x="229.549" y="0">d </tspan><tspan x="238.393" y="0" letter-spacing=".013em">A</tspan><tspan x="245.647" y="0" letter-spacing=".005em">P</tspan><tspan x="252.754" y="0" letter-spacing=".008em">I</tspan><tspan class="e0fb0dc0-3574-4c30-982c-3003a87481e9" x="255.555" y="0">c</tspan><tspan x="261.099" y="0" letter-spacing=".012em">a</tspan><tspan class="fb7c5834-249a-44d6-b9ca-3d8819f6baf4" x="266.909" y="0">s</tspan><tspan x="271.885" y="0">t </tspan><tspan class="fd5e0930-c5c6-4a7b-9fbb-c0ac3c2b69eb" x="278.529" y="0">p</tspan><tspan x="284.865" y="0" letter-spacing=".007em">o</tspan><tspan x="291.207" y="0" letter-spacing=".012em">l</tspan><tspan x="293.761" y="0" letter-spacing=".001em">i</tspan><tspan class="e1b874dd-fe2f-4b94-8e46-65536b126586" x="296.196" y="0">c</tspan><tspan class="fd5e0930-c5c6-4a7b-9fbb-c0ac3c2b69eb" x="301.8" y="0">i</tspan><tspan x="304.274" y="0" letter-spacing=".007em">e</tspan><tspan x="310.343" y="0" letter-spacing=".028em">s</tspan><tspan x="315.524" y="0">.</tspan><tspan class="e1b874dd-fe2f-4b94-8e46-65536b126586" x="0" y="14">A</tspan><tspan class="ff980ba1-a566-4034-ab68-63d3654ca399" x="7.254" y="14">P</tspan><tspan x="14.361" y="14">I </tspan><tspan x="19.642" y="14" letter-spacing=".006em">p</tspan><tspan class="fd5e0930-c5c6-4a7b-9fbb-c0ac3c2b69eb" x="25.986" y="14">r</tspan><tspan x="29.825" y="14" letter-spacing="-.014em">o</tspan><tspan x="35.943" y="14" letter-spacing=".012em">v</tspan><tspan class="fd5e0930-c5c6-4a7b-9fbb-c0ac3c2b69eb" x="41.48" y="14">i</tspan><tspan x="43.955" y="14" letter-spacing=".001em">d</tspan><tspan class="a0f2f8b1-6514-43d5-a145-69b58a56382b" x="50.243" y="14">e</tspan><tspan class="a0b4d80b-13cf-4a5c-b297-7f2152ac6e97" x="56.323" y="14">r</tspan><tspan x="60.449" y="14">s </tspan><tspan x="67.886" y="14" letter-spacing=".013em">c</tspan><tspan class="fd5e0930-c5c6-4a7b-9fbb-c0ac3c2b69eb" x="73.5" y="14">r</tspan><tspan x="77.339" y="14" letter-spacing=".006em">e</tspan><tspan x="83.399" y="14" letter-spacing="-.008em">a</tspan><tspan x="88.984" y="14">t</tspan><tspan x="93.065" y="14" letter-spacing=".006em">e</tspan><tspan x="99.127" y="14">, </tspan><tspan x="104.055" y="14" letter-spacing=".002em">s</tspan><tspan class="b15f9bbd-2532-4ec8-8e69-e1e76d95ef7b" x="108.955" y="14">e</tspan><tspan class="e0fb0dc0-3574-4c30-982c-3003a87481e9" x="115.021" y="14">c</tspan><tspan x="120.564" y="14" letter-spacing=".011em">u</tspan><tspan class="fd5e0930-c5c6-4a7b-9fbb-c0ac3c2b69eb" x="126.638" y="14">r</tspan><tspan x="130.477" y="14" letter-spacing=".006em">e</tspan><tspan class="a77c1a9c-89ed-4264-a9ae-f01dfd0061cf" x="136.539" y="14">, </tspan><tspan class="fb7c5834-249a-44d6-b9ca-3d8819f6baf4" x="141.467" y="14">a</tspan><tspan x="147.245" y="14" letter-spacing=".002em">n</tspan><tspan x="153.23" y="14">d </tspan><tspan x="162.074" y="14" letter-spacing=".004em">p</tspan><tspan x="168.396" y="14" letter-spacing=".013em">u</tspan><tspan x="174.491" y="14" letter-spacing=".005em">b</tspan><tspan x="180.825" y="14" letter-spacing=".012em">l</tspan><tspan class="b77c5189-7fb3-45c0-9f45-ba85be239715" x="183.378" y="14">i</tspan><tspan class="b8861295-bdef-4e38-a4af-816852b65688" x="185.948" y="14">s</tspan><tspan x="190.927" y="14">h </tspan><tspan class="e1b874dd-fe2f-4b94-8e46-65536b126586" x="199.452" y="14">A</tspan><tspan class="ff980ba1-a566-4034-ab68-63d3654ca399" x="206.706" y="14">P</tspan><tspan x="213.813" y="14" letter-spacing=".02em">I</tspan><tspan x="216.752" y="14" letter-spacing=".028em">s</tspan><tspan x="221.935" y="14">.</tspan></text><path class="ee2d48c3-ade1-4df1-97fd-623fa1d3d7ca" d="M422.22 504.167l15.767 25.79"/><path class="b818c71b-7f1c-4890-869e-86e4e0c1dd45" d="M318.5 87h177v60h-177z"/><text class="aedfc8cb-ff62-4e70-a4df-42de7e2f6525" transform="translate(388.951 115.324)"><tspan class="a303134b-8fe2-4f3d-b893-bc0c740f245e">3</tspan><tspan class="f152cec2-4fbf-4faf-a5fb-96b2bb7bfded" x="7.349" y="0">s</tspan><tspan class="a0f725ed-06d0-4dee-abdd-f8896a0f441a" x="13.133" y="0">c</tspan><tspan class="b1d358e4-55a9-49dd-97ec-5dc9aac96971" x="19.493" y="0">a</tspan><tspan class="a8839ad3-4ce0-40b5-844a-a5767652d2d8" x="26.17" y="0">l</tspan><tspan x="29.223" y="0">e</tspan><tspan x="-18.904" y="13" letter-spacing="-.003em">A</tspan><tspan x="-10.578" y="13" letter-spacing=".006em">dm</tspan><tspan x="7.394" y="13" letter-spacing=".006em">i</tspan><tspan x="10.493" y="13">n </tspan><tspan x="20.177" y="13" letter-spacing="-.022em">P</tspan><tspan class="ab8d209a-277e-467d-8f8f-c20cfd1addf4" x="28.064" y="13">o</tspan><tspan class="a21671fc-5cb4-459a-b920-8d04402aac01" x="35.294" y="13">r</tspan><tspan x="40.244" y="13" letter-spacing=".008em">t</tspan><tspan class="baa65587-9168-4da9-9b19-ae0017d643c3" x="45.302" y="13">a</tspan><tspan x="51.979" y="13">l</tspan></text><path class="b818c71b-7f1c-4890-869e-86e4e0c1dd45" d="M318.5 434h177v60h-177z"/><text class="aedfc8cb-ff62-4e70-a4df-42de7e2f6525" transform="translate(388.95 462.324)"><tspan class="a303134b-8fe2-4f3d-b893-bc0c740f245e">3</tspan><tspan class="f152cec2-4fbf-4faf-a5fb-96b2bb7bfded" x="7.349" y="0">s</tspan><tspan class="a0f725ed-06d0-4dee-abdd-f8896a0f441a" x="13.133" y="0">c</tspan><tspan class="b1d358e4-55a9-49dd-97ec-5dc9aac96971" x="19.493" y="0">a</tspan><tspan class="a8839ad3-4ce0-40b5-844a-a5767652d2d8" x="26.17" y="0">l</tspan><tspan x="29.223" y="0">e</tspan><tspan class="bd8c23e4-7ffa-486c-be59-f4d123d75e96" x="-41.134" y="13">A</tspan><tspan class="a1d8ccc8-3059-495a-aedd-b189126d0074" x="-32.697" y="13">P</tspan><tspan x="-24.663" y="13" letter-spacing=".007em">Ic</tspan><tspan class="fad83e43-8108-48c7-aff0-236cce1d7e9f" x="-14.897" y="13">a</tspan><tspan x="-8.18" y="13" letter-spacing=".006em">s</tspan><tspan x="-2.36" y="13">t </tspan><tspan class="bd8c23e4-7ffa-486c-be59-f4d123d75e96" x="5.308" y="13">A</tspan><tspan class="a1d8ccc8-3059-495a-aedd-b189126d0074" x="13.745" y="13">P</tspan><tspan class="e5562e50-920f-400f-9253-0aee4265095c" x="21.778" y="13">I </tspan><tspan x="27.802" y="13" letter-spacing="-.005em">G</tspan><tspan class="fb6f12e4-9860-4995-96a7-8fd944c427a0" x="37.367" y="13">a</tspan><tspan class="a1d8ccc8-3059-495a-aedd-b189126d0074" x="43.877" y="13">te</tspan><tspan x="55.493" y="13" letter-spacing="-.002em">w</tspan><tspan x="64.313" y="13" letter-spacing="-.01em">a</tspan><tspan x="70.789" y="13">y</tspan></text><path class="b818c71b-7f1c-4890-869e-86e4e0c1dd45" d="M563 434h177v60H563z"/><text class="aedfc8cb-ff62-4e70-a4df-42de7e2f6525" transform="translate(616.425 467.324)"><tspan class="bd8c23e4-7ffa-486c-be59-f4d123d75e96">A</tspan><tspan class="a1d8ccc8-3059-495a-aedd-b189126d0074" x="8.437" y="0">P</tspan><tspan class="e5562e50-920f-400f-9253-0aee4265095c" x="16.471" y="0">I </tspan><tspan class="f553be02-5dea-4bea-a055-de31a87f3171" x="22.495" y="0">b</tspan><tspan x="29.791" y="0" letter-spacing=".003em">ac</tspan><tspan x="42.729" y="0" letter-spacing="-.027em">k</tspan><tspan class="f3c63e99-119d-48e0-94b2-dbfadc30f861" x="48.893" y="0">e</tspan><tspan class="ebe5f852-7569-41b8-81e6-b37dc1d56adb" x="55.816" y="0">n</tspan><tspan x="62.831" y="0">d</tspan></text><path class="b818c71b-7f1c-4890-869e-86e4e0c1dd45" d="M318.5 203h177v60h-177z"/><text class="aedfc8cb-ff62-4e70-a4df-42de7e2f6525" transform="translate(388.951 231.324)"><tspan class="a303134b-8fe2-4f3d-b893-bc0c740f245e">3</tspan><tspan class="f152cec2-4fbf-4faf-a5fb-96b2bb7bfded" x="7.349" y="0">s</tspan><tspan class="a0f725ed-06d0-4dee-abdd-f8896a0f441a" x="13.133" y="0">c</tspan><tspan class="b1d358e4-55a9-49dd-97ec-5dc9aac96971" x="19.493" y="0">a</tspan><tspan class="a8839ad3-4ce0-40b5-844a-a5767652d2d8" x="26.17" y="0">l</tspan><tspan x="29.223" y="0">e</tspan><tspan class="b8b4dbfc-d317-443e-99e7-2e271ba244af" x="-29.768" y="13">D</tspan><tspan class="a1a39e58-4760-4d48-9436-216869b96893" x="-20.841" y="13">e</tspan><tspan class="f0980dd4-8288-43e3-87bc-4a2eca9f3735" x="-14.151" y="13">v</tspan><tspan class="b2491861-2066-4d1d-b5d8-e1fbb65d90f6" x="-7.863" y="13">e</tspan><tspan class="a8839ad3-4ce0-40b5-844a-a5767652d2d8" x="-.941" y="13">l</tspan><tspan class="ab8d209a-277e-467d-8f8f-c20cfd1addf4" x="2.112" y="13">o</tspan><tspan class="a8839ad3-4ce0-40b5-844a-a5767652d2d8" x="9.342" y="13">p</tspan><tspan class="f3c63e99-119d-48e0-94b2-dbfadc30f861" x="16.703" y="13">e</tspan><tspan x="23.625" y="13">r </tspan><tspan x="31.041" y="13" letter-spacing="-.022em">P</tspan><tspan class="ab8d209a-277e-467d-8f8f-c20cfd1addf4" x="38.929" y="13">o</tspan><tspan class="a21671fc-5cb4-459a-b920-8d04402aac01" x="46.159" y="13">r</tspan><tspan x="51.108" y="13" letter-spacing=".007em">t</tspan><tspan class="baa65587-9168-4da9-9b19-ae0017d643c3" x="56.166" y="13">a</tspan><tspan x="62.844" y="13">l</tspan></text><path class="e0faec4c-b7e5-402e-9adb-af36a798c3a6" d="M0 203h177v60H0z"/><text class="aedfc8cb-ff62-4e70-a4df-42de7e2f6525" transform="translate(59.445 231.323)"><tspan class="b8b4dbfc-d317-443e-99e7-2e271ba244af">D</tspan><tspan class="a1a39e58-4760-4d48-9436-216869b96893" x="8.927" y="0">e</tspan><tspan class="f0980dd4-8288-43e3-87bc-4a2eca9f3735" x="15.617" y="0">v</tspan><tspan class="b2491861-2066-4d1d-b5d8-e1fbb65d90f6" x="21.905" y="0">e</tspan><tspan class="a8839ad3-4ce0-40b5-844a-a5767652d2d8" x="28.827" y="0">l</tspan><tspan class="ab8d209a-277e-467d-8f8f-c20cfd1addf4" x="31.88" y="0">o</tspan><tspan class="a8839ad3-4ce0-40b5-844a-a5767652d2d8" x="39.11" y="0">p</tspan><tspan class="f3c63e99-119d-48e0-94b2-dbfadc30f861" x="46.471" y="0">e</tspan><tspan x="53.394" y="0">r</tspan><tspan x="-14.373" y="13" letter-spacing="-.042em">(</tspan><tspan class="bd8c23e4-7ffa-486c-be59-f4d123d75e96" x="-9.914" y="13">A</tspan><tspan x="-1.477" y="13" letter-spacing="-.009em">P</tspan><tspan x="6.557" y="13">I </tspan><tspan x="12.581" y="13" letter-spacing="-.01em">c</tspan><tspan class="ab8d209a-277e-467d-8f8f-c20cfd1addf4" x="18.73" y="13">o</tspan><tspan class="fad83e43-8108-48c7-aff0-236cce1d7e9f" x="25.96" y="13">n</tspan><tspan class="f20de6fe-4879-4a3e-940d-3e93a84d2156" x="33.062" y="13">s</tspan><tspan class="ee007d14-6758-49b4-93a8-848ab8bd6db1" x="38.874" y="13">u</tspan><tspan x="45.933" y="13" letter-spacing=".004em">me</tspan><tspan x="63.407" y="13" letter-spacing="-.051em">r</tspan><tspan x="67.515" y="13">)</tspan></text></svg>