<svg id="ff40cf8e-2382-4881-ac89-22396c542bcc" data-name="artwork" xmlns="http://www.w3.org/2000/svg" width="760" height="927.306"><defs><style>.a72957f3-a9c8-4ad9-b00c-21acd07c00e9{fill:none;stroke:#06c;stroke-miterlimit:10}.bc135a12-6e6c-49ac-9311-0077717322ad{fill:#06c}.b5a7b41d-ebbd-4b88-b6c8-dba442adeab5{fill:#d9e8f7}.f7fc7df0-7bf1-4fc4-b034-6a6ab5cd2dbf{font-size:11px;font-family:LiberationMono,&quot;Liberation Mono&quot;,Consolas,Monaco,&quot;Andale Mono&quot;,monospace}.a118ea49-2337-477b-8b92-cbf3eb5eb8be,.a28a1377-15c6-459c-89a6-ef068ca3698c,.ba9048a1-fe46-4b4d-9e2f-22333695af09,.f7fc7df0-7bf1-4fc4-b034-6a6ab5cd2dbf{fill:#151515}.a44e4d4a-178e-4c29-b02f-a6bb93e02b59{font-family:LiberationMono,&quot;Liberation Mono&quot;,Consolas,Monaco,&quot;Andale Mono&quot;,monospace;font-style:italic}.a98e28a6-eb78-4120-bab4-a6ec2338436b{fill:#99c2eb}.a92da07b-b5fc-4c49-a644-605a7b50bb09{fill:#e8e8e8}.a118ea49-2337-477b-8b92-cbf3eb5eb8be,.a28a1377-15c6-459c-89a6-ef068ca3698c,.a4452334-b06f-4dc6-9947-ba62b8540e8f{font-size:12px}.a28a1377-15c6-459c-89a6-ef068ca3698c,.a4452334-b06f-4dc6-9947-ba62b8540e8f{font-family:RedHatText,&quot;Red Hat Text&quot;,Overpass,&quot;Helvetica Neue&quot;,Arial,sans-serif;font-weight:500}.a4452334-b06f-4dc6-9947-ba62b8540e8f,.bf64d171-575e-4f7c-9fa5-941ff3380e80{fill:#fff}.aa69a38e-40d6-4ca5-8871-eabd1cd6b3b0{fill:#adadad}.a118ea49-2337-477b-8b92-cbf3eb5eb8be{font-family:RedHatText,&quot;Red Hat Text&quot;,Overpass,&quot;Helvetica Neue&quot;,Arial,sans-serif;font-weight:500;font-style:italic}</style></defs><text transform="translate(660.472 910.323)" font-size="10" fill="#f3f3f3" font-family="RedHatText,&quot;Red Hat Text&quot;,Overpass,&quot;Helvetica Neue&quot;,Arial,sans-serif">106_OpenStack_0720</text><path fill="none" d="M0 887.306h760v40H0z"/><path class="a72957f3-a9c8-4ad9-b00c-21acd07c00e9" d="M214.812 241.578H275"/><path class="bc135a12-6e6c-49ac-9311-0077717322ad" d="M216.271 246.564l-8.636-4.986 8.636-4.986v9.972z"/><path class="a72957f3-a9c8-4ad9-b00c-21acd07c00e9" d="M495 831.82h264.398V81H504.676"/><path class="bc135a12-6e6c-49ac-9311-0077717322ad" d="M506.135 76.014L497.5 81l8.635 4.986v-9.972z"/><path class="b5a7b41d-ebbd-4b88-b6c8-dba442adeab5" d="M0 204.078h205v75H0z"/><text class="f7fc7df0-7bf1-4fc4-b034-6a6ab5cd2dbf" transform="translate(15 224.182)">openstack overcloud <tspan x="0" y="13">external-upgrade run</tspan><tspan x="0" y="26">--tags ceph_systemd -e </tspan><tspan x="0" y="39">ceph_ansible_limit=</tspan><tspan class="a44e4d4a-178e-4c29-b02f-a6bb93e02b59" x="125.42" y="39">NODE</tspan></text><path class="a98e28a6-eb78-4120-bab4-a6ec2338436b" d="M275 329.177h220v65H275z"/><text class="f7fc7df0-7bf1-4fc4-b034-6a6ab5cd2dbf" transform="translate(290 351.587)">openstack overcloud upgrade <tspan x="0" y="13">run --stack </tspan><tspan class="a44e4d4a-178e-4c29-b02f-a6bb93e02b59" x="79.213" y="13">STACK NAME </tspan><tspan x="151.825" y="13">--tags </tspan><tspan x="0" y="26">system_upgrade --limit </tspan><tspan class="a44e4d4a-178e-4c29-b02f-a6bb93e02b59" x="151.825" y="26">NODE</tspan></text><path class="a92da07b-b5fc-4c49-a644-605a7b50bb09" d="M275 753.07h220v157.5H275z"/><text class="a28a1377-15c6-459c-89a6-ef068ca3698c" transform="translate(290 778.174)">Select the next node as per<tspan x="0" y="13">the following order:</tspan><tspan x="0" y="39">• Pacemaker-based</tspan><tspan x="7" y="52">controller nodes</tspan><tspan x="0" y="69">• Non-Pacemaker-based</tspan><tspan x="7" y="82">controller nodes</tspan><tspan x="0" y="99">• Ceph storage nodes</tspan><tspan x="0" y="116">• Compute nodes</tspan></text><path class="a92da07b-b5fc-4c49-a644-605a7b50bb09" d="M275 0h220v40H275z"/><text class="a28a1377-15c6-459c-89a6-ef068ca3698c" transform="translate(317.171 16.824)">Start with the bootstrap<tspan x="20.753" y="13">Pacemaker node</tspan></text><path class="a72957f3-a9c8-4ad9-b00c-21acd07c00e9" d="M385 152.479v54.423"/><path class="bc135a12-6e6c-49ac-9311-0077717322ad" d="M380.014 205.443l4.986 8.635 4.986-8.635h-9.972z"/><path class="a72957f3-a9c8-4ad9-b00c-21acd07c00e9" d="M385 39.999v16.304"/><path class="bc135a12-6e6c-49ac-9311-0077717322ad" d="M380.014 54.844L385 63.479l4.986-8.635h-9.972z"/><path class="a92da07b-b5fc-4c49-a644-605a7b50bb09" d="M275 66h220v30H275z"/><path class="bf64d171-575e-4f7c-9fa5-941ff3380e80" d="M290 151.979a14.5 14.5 0 110-29h190a14.5 14.5 0 010 29z"/><path class="aa69a38e-40d6-4ca5-8871-eabd1cd6b3b0" d="M480 123.479a14 14 0 010 28H290a14 14 0 110-28h190m0-1H290a15 15 0 100 30h190a15 15 0 000-30z"/><text class="a28a1377-15c6-459c-89a6-ef068ca3698c" transform="translate(330.107 84.324)">Start node upgrade</text><path class="a72957f3-a9c8-4ad9-b00c-21acd07c00e9" d="M385 95.999v16.304"/><path class="bc135a12-6e6c-49ac-9311-0077717322ad" d="M380.014 110.844l4.986 8.635 4.986-8.635h-9.972z"/><path class="a92da07b-b5fc-4c49-a644-605a7b50bb09" d="M275 697.092h220v30H275z"/><text class="a28a1377-15c6-459c-89a6-ef068ca3698c" transform="translate(333.557 715.416)">End node upgrade</text><path class="a72957f3-a9c8-4ad9-b00c-21acd07c00e9" d="M385 727.091v16.304"/><path class="bc135a12-6e6c-49ac-9311-0077717322ad" d="M380.014 741.936l4.986 8.635 4.986-8.635h-9.972z"/><circle class="ba9048a1-fe46-4b4d-9e2f-22333695af09" cx="385" cy="180.828" r="15"/><text class="a4452334-b06f-4dc6-9947-ba62b8540e8f" transform="translate(376.846 185.059)">No</text><path class="a72957f3-a9c8-4ad9-b00c-21acd07c00e9" d="M504.677 241.578H652.5v-89.79"/><path class="bc135a12-6e6c-49ac-9311-0077717322ad" d="M506.136 246.564l-8.636-4.986 8.636-4.986v9.972z"/><path class="a72957f3-a9c8-4ad9-b00c-21acd07c00e9" d="M265.324 361.677H102.5v-82.658"/><path class="bc135a12-6e6c-49ac-9311-0077717322ad" d="M263.865 356.691l8.635 4.986-8.635 4.986v-9.972z"/><circle class="ba9048a1-fe46-4b4d-9e2f-22333695af09" cx="240.07" cy="241.578" r="15"/><text class="a4452334-b06f-4dc6-9947-ba62b8540e8f" transform="translate(229.631 244.902)">Yes</text><path class="a72957f3-a9c8-4ad9-b00c-21acd07c00e9" d="M214.812 440.648H275"/><path class="bc135a12-6e6c-49ac-9311-0077717322ad" d="M216.271 445.634l-8.636-4.986 8.636-4.987v9.973z"/><path class="b5a7b41d-ebbd-4b88-b6c8-dba442adeab5" d="M0 403.148h205v75H0z"/><text class="f7fc7df0-7bf1-4fc4-b034-6a6ab5cd2dbf" transform="translate(15 424.058)">openstack overcloud<tspan x="0" y="13">external-upgrade run</tspan><tspan x="0" y="26">--tags system_upgrade_</tspan><tspan x="0" y="39">transfer_data</tspan></text><circle class="ba9048a1-fe46-4b4d-9e2f-22333695af09" cx="241.318" cy="440.648" r="15"/><text class="a4452334-b06f-4dc6-9947-ba62b8540e8f" transform="translate(230.878 443.971)">Yes</text><path class="a72957f3-a9c8-4ad9-b00c-21acd07c00e9" d="M555.188 137.479H495"/><path class="bc135a12-6e6c-49ac-9311-0077717322ad" d="M553.729 132.492l8.636 4.987-8.636 4.986v-9.973z"/><path class="a92da07b-b5fc-4c49-a644-605a7b50bb09" d="M565 122.479h175v30H565z"/><text class="a28a1377-15c6-459c-89a6-ef068ca3698c" transform="translate(600.517 140.803)">Migrate workloads</text><circle class="ba9048a1-fe46-4b4d-9e2f-22333695af09" cx="527.5" cy="137.479" r="15"/><text class="a4452334-b06f-4dc6-9947-ba62b8540e8f" transform="translate(517.06 140.709)">Yes</text><path class="a72957f3-a9c8-4ad9-b00c-21acd07c00e9" d="M555.188 652.79H495"/><path class="bc135a12-6e6c-49ac-9311-0077717322ad" d="M553.729 647.804l8.636 4.986-8.636 4.987v-9.973z"/><circle class="ba9048a1-fe46-4b4d-9e2f-22333695af09" cx="527.5" cy="652.79" r="15"/><text class="a4452334-b06f-4dc6-9947-ba62b8540e8f" transform="translate(517.06 656.021)">Yes</text><text class="a118ea49-2337-477b-8b92-cbf3eb5eb8be" transform="translate(320.075 142.078)">Is this a compute node?</text><path class="a72957f3-a9c8-4ad9-b00c-21acd07c00e9" d="M385 455.648v172.466"/><path class="bc135a12-6e6c-49ac-9311-0077717322ad" d="M380.014 626.655L385 635.29l4.986-8.635h-9.972z"/><path class="bf64d171-575e-4f7c-9fa5-941ff3380e80" d="M290 455.147a14.5 14.5 0 010-29h190a14.5 14.5 0 010 29z"/><path class="aa69a38e-40d6-4ca5-8871-eabd1cd6b3b0" d="M480 426.648a14 14 0 010 28H290a14 14 0 010-28h190m0-1H290a15 15 0 000 30h190a15 15 0 000-30z"/><path class="a72957f3-a9c8-4ad9-b00c-21acd07c00e9" d="M385 394.168v21.303"/><path class="bc135a12-6e6c-49ac-9311-0077717322ad" d="M380.014 414.012l4.986 8.636 4.986-8.636h-9.972z"/><path class="a72957f3-a9c8-4ad9-b00c-21acd07c00e9" d="M102.5 478.132v16.304"/><path class="bc135a12-6e6c-49ac-9311-0077717322ad" d="M97.514 492.977l4.986 8.635 4.986-8.635h-9.972z"/><path class="a98e28a6-eb78-4120-bab4-a6ec2338436b" d="M0 620.29h205v65H0z"/><text class="f7fc7df0-7bf1-4fc4-b034-6a6ab5cd2dbf" transform="translate(15 642.7)">openstack overcloud<tspan x="0" y="13">upgrade run --limit </tspan><tspan class="a44e4d4a-178e-4c29-b02f-a6bb93e02b59" x="132.021" y="13">NODE</tspan></text><path class="a98e28a6-eb78-4120-bab4-a6ec2338436b" d="M565 620.29h175v65H565z"/><text class="f7fc7df0-7bf1-4fc4-b034-6a6ab5cd2dbf" transform="translate(580 642.7)">openstack overcloud<tspan x="0" y="13">upgrade run --limit </tspan><tspan class="a44e4d4a-178e-4c29-b02f-a6bb93e02b59"><tspan x="0" y="26">NODE,PREVIOUSNODE,etc</tspan></tspan></text><g><path class="a72957f3-a9c8-4ad9-b00c-21acd07c00e9" d="M102.5 685.29v26.802h162.824"/><path class="bc135a12-6e6c-49ac-9311-0077717322ad" d="M263.865 717.078l8.635-4.986-8.635-4.986v9.972z"/></g><g><path class="a72957f3-a9c8-4ad9-b00c-21acd07c00e9" d="M652.5 685.29v26.802H504.676"/><path class="bc135a12-6e6c-49ac-9311-0077717322ad" d="M506.135 707.106l-8.635 4.986 8.635 4.986v-9.972z"/></g><path class="b5a7b41d-ebbd-4b88-b6c8-dba442adeab5" d="M0 504.112h205v90H0z"/><text class="f7fc7df0-7bf1-4fc4-b034-6a6ab5cd2dbf" transform="translate(15 526.022)">openstack overcloud<tspan x="0" y="13">external-upgrade run</tspan><tspan x="0" y="26">--playbook upgrade_steps_</tspan><tspan x="0" y="39">playbook.yaml --tags nova_</tspan><tspan x="0" y="52">hybrid_state--limit all</tspan></text><g><path class="a72957f3-a9c8-4ad9-b00c-21acd07c00e9" d="M102.5 594.112v16.303"/><path class="bc135a12-6e6c-49ac-9311-0077717322ad" d="M97.514 608.956l4.986 8.635 4.986-8.635h-9.972z"/></g><circle class="ba9048a1-fe46-4b4d-9e2f-22333695af09" cx="385" cy="554.961" r="15"/><text class="a4452334-b06f-4dc6-9947-ba62b8540e8f" transform="translate(376.846 558.285)">No</text><text class="a118ea49-2337-477b-8b92-cbf3eb5eb8be" transform="translate(317.153 443.972)">Is this a bootstrap node?</text><g><path class="a72957f3-a9c8-4ad9-b00c-21acd07c00e9" d="M214.812 652.79H275"/><path class="bc135a12-6e6c-49ac-9311-0077717322ad" d="M216.271 657.777l-8.636-4.987 8.636-4.986v9.973z"/></g><circle class="ba9048a1-fe46-4b4d-9e2f-22333695af09" cx="240.07" cy="652.79" r="15"/><text class="a4452334-b06f-4dc6-9947-ba62b8540e8f" transform="translate(231.917 656.114)">No</text><g><path class="bf64d171-575e-4f7c-9fa5-941ff3380e80" d="M290 667.29a14.5 14.5 0 010-29h190a14.5 14.5 0 010 29z"/><path class="aa69a38e-40d6-4ca5-8871-eabd1cd6b3b0" d="M480 638.79a14 14 0 010 28H290a14 14 0 010-28h190m0-1H290a15 15 0 000 30h190a15 15 0 000-30z"/></g><text class="a118ea49-2337-477b-8b92-cbf3eb5eb8be" transform="translate(294.803 656.114)">Is this a pacemaker-based node?</text><g><path class="a72957f3-a9c8-4ad9-b00c-21acd07c00e9" d="M385 266.578v52.923"/><path class="bc135a12-6e6c-49ac-9311-0077717322ad" d="M380.014 318.042l4.986 8.635 4.986-8.635h-9.972z"/></g><g><rect class="bf64d171-575e-4f7c-9fa5-941ff3380e80" x="275.5" y="217.078" width="219" height="49" rx="23.5"/><path class="aa69a38e-40d6-4ca5-8871-eabd1cd6b3b0" d="M471 217.578a23.026 23.026 0 0123 23v2a23.026 23.026 0 01-23 23H299a23.026 23.026 0 01-23-23v-2a23.026 23.026 0 0123-23h172m0-1H299a24.071 24.071 0 00-24 24v2a24.071 24.071 0 0024 24h172a24.071 24.071 0 0024-24v-2a24.071 24.071 0 00-24-24z"/></g><circle class="ba9048a1-fe46-4b4d-9e2f-22333695af09" cx="385" cy="294.927" r="15"/><text class="a4452334-b06f-4dc6-9947-ba62b8540e8f" transform="translate(376.846 299.158)">No</text><text class="a118ea49-2337-477b-8b92-cbf3eb5eb8be" transform="translate(302.549 238.402)">Ceph containers on the node?<tspan x="17.502" y="13">(OSD, MON, MGR, etc.)</tspan></text></svg>