<?xml version="1.0" encoding="UTF-8"?>
<svg id="artwork" xmlns="http://www.w3.org/2000/svg" viewBox="0 0 760 504.46">
  <defs>
    <style>
      .cls-1, .cls-2, .cls-3, .cls-4, .cls-5, .cls-6, .cls-7 {
        fill: none;
      }

      .cls-2 {
        stroke: #5b5b5b;
        stroke-width: 1.5px;
      }

      .cls-2, .cls-3, .cls-4, .cls-7 {
        stroke-linecap: round;
        stroke-linejoin: round;
      }

      .cls-3, .cls-4, .cls-5, .cls-7 {
        stroke: #151515;
      }

      .cls-8 {
        font-size: 16px;
      }

      .cls-8, .cls-9, .cls-10, .cls-11 {
        fill: #151515;
      }

      .cls-8, .cls-11 {
        font-family: RedHatTextRoman-Bold, 'Red Hat Text';
        font-variation-settings: 'wght' 700;
      }

      .cls-12 {
        fill: #06c;
      }

      .cls-13 {
        fill: #e6e6e6;
      }

      .cls-14, .cls-15 {
        fill: #fff;
      }

      .cls-16 {
        fill: #7f7f7f;
      }

      .cls-17 {
        fill: #a6a6a6;
      }

      .cls-18 {
        fill: #d9e8f7;
      }

      .cls-4 {
        stroke-dasharray: 0 0 3.02 3.02;
      }

      .cls-19 {
        fill: #ececec;
        font-family: RedHatTextRoman-Regular, 'Red Hat Text';
        font-size: 10px;
        font-variation-settings: 'wght' 400;
      }

      .cls-9 {
        font-size: 11px;
      }

      .cls-9, .cls-15, .cls-10 {
        font-family: RedHatTextRoman-Medium, 'Red Hat Text';
        font-variation-settings: 'wght' 500;
      }

      .cls-15, .cls-10 {
        font-size: 12px;
      }

      .cls-5, .cls-6 {
        stroke-miterlimit: 10;
      }

      .cls-6 {
        stroke: #bfbfbf;
      }

      .cls-7 {
        stroke-dasharray: 0 0 3.02 3.02;
      }

      .cls-11 {
        font-size: 14px;
      }
    </style>
  </defs>
  <rect class="cls-13" x="0" y="20.46" width="760" height="444"/>
  <text class="cls-8" transform="translate(24.69 58.6)"><tspan x="0" y="0">Amazon Web Services</tspan></text>
  <rect class="cls-14" x="40.19" y="85.02" width="271.5" height="338.59"/>
  <text class="cls-11" transform="translate(60.19 114.92)"><tspan x="0" y="0">VPC</tspan></text>
  <rect class="cls-18" x="70.69" y="150.02" width="221" height="35"/>
  <text class="cls-10" transform="translate(145.91 171.02)"><tspan x="0" y="0">Base system</tspan></text>
  <polyline class="cls-6" points="60.69 265.02 60.69 300.02 281.69 300.02"/>
  <polyline class="cls-6" points="65.69 260.02 65.69 295.02 286.69 295.02"/>
  <rect class="cls-13" x="70.69" y="255.02" width="221" height="35"/>
  <text class="cls-10" transform="translate(137.13 276.02)"><tspan x="0" y="0">RHEL instances</tspan></text>
  <line class="cls-5" x1="181.19" y1="235.02" x2="181.19" y2="255.02"/>
  <g>
    <polyline class="cls-3" points="326.69 437.02 326.69 438.52 325.19 438.52"/>
    <line class="cls-4" x1="322.18" y1="438.52" x2="28.2" y2="438.52"/>
    <polyline class="cls-3" points="26.69 438.52 25.19 438.52 25.19 437.02"/>
    <line class="cls-7" x1="25.19" y1="433.99" x2="25.19" y2="133.03"/>
    <polyline class="cls-3" points="25.19 131.52 25.19 130.02 26.69 130.02"/>
    <line class="cls-4" x1="29.71" y1="130.02" x2="323.68" y2="130.02"/>
    <polyline class="cls-3" points="325.19 130.02 326.69 130.02 326.69 131.52"/>
    <line class="cls-7" x1="326.69" y1="134.54" x2="326.69" y2="435.51"/>
  </g>
  <rect class="cls-13" x="125.19" y="433.14" width="101.5" height="10.75"/>
  <text class="cls-10" transform="translate(130.22 442.22)"><tspan x="0" y="0">Availability zone</tspan></text>
  <polyline class="cls-5" points="129.36 389.51 61.19 389.51 61.19 337.52 70.69 337.52"/>
  <g>
    <path class="cls-17" d="M137.29,375.5h0s109.13,0,109.13,0v28.01h-109.13s0,0,0,0c-10.58,0-10.58-28.01,0-28.01Z"/>
    <text class="cls-15" transform="translate(140 392.92)"><tspan x="0" y="0">Elastic IP</tspan></text>
    <path class="cls-16" d="M211.12,375.5h0s116.06,0,116.06,0v28.01h-116.06s0,0,0,0c-10.58,0-10.58-28.01,0-28.01Z"/>
    <text class="cls-15" transform="translate(213.67 392.92)"><tspan x="0" y="0">Internet Gateway</tspan></text>
  </g>
  <rect class="cls-12" x="70.69" y="185.02" width="221" height="50"/>
  <text class="cls-15" transform="translate(135.95 213.52)"><tspan x="0" y="0">Foreman Server</tspan></text>
  <rect class="cls-14" x="448" y="85.02" width="271.5" height="338.59"/>
  <text class="cls-11" transform="translate(468 114.92)"><tspan x="0" y="0">VPC</tspan></text>
  <rect class="cls-18" x="468" y="150.02" width="221" height="35"/>
  <text class="cls-10" transform="translate(543.22 171.02)"><tspan x="0" y="0">Base system</tspan></text>
  <polyline class="cls-6" points="699 265.02 699 300.02 478 300.02"/>
  <polyline class="cls-6" points="694 260.02 694 295.02 473 295.02"/>
  <rect class="cls-13" x="468" y="255.02" width="221" height="35"/>
  <text class="cls-10" transform="translate(534.44 276.02)"><tspan x="0" y="0">RHEL instances</tspan></text>
  <g>
    <rect class="cls-14" x="71.19" y="320.52" width="220" height="34"/>
    <path class="cls-12" d="M290.69,321.02v33H71.69v-33h219m1-1H70.69v35h221v-35h0Z"/>
  </g>
  <text class="cls-10" transform="translate(125.83 341.02)"><tspan x="0" y="0">RHEL VPN instance</tspan></text>
  <g>
    <rect class="cls-14" x="468.5" y="320.52" width="220" height="34"/>
    <path class="cls-12" d="M688,321.02v33h-219v-33h219m1-1h-221v35h221v-35h0Z"/>
  </g>
  <text class="cls-10" transform="translate(523.14 341.02)"><tspan x="0" y="0">RHEL VPN instance</tspan></text>
  <line class="cls-5" x1="578.5" y1="235.02" x2="578.5" y2="255.02"/>
  <g>
    <polyline class="cls-3" points="433 437.02 433 438.52 434.5 438.52"/>
    <line class="cls-4" x1="437.52" y1="438.52" x2="731.49" y2="438.52"/>
    <polyline class="cls-3" points="733 438.52 734.5 438.52 734.5 437.02"/>
    <line class="cls-7" x1="734.5" y1="433.99" x2="734.5" y2="133.03"/>
    <polyline class="cls-3" points="734.5 131.52 734.5 130.02 733 130.02"/>
    <line class="cls-4" x1="729.98" y1="130.02" x2="436.01" y2="130.02"/>
    <polyline class="cls-3" points="434.5 130.02 433 130.02 433 131.52"/>
    <line class="cls-7" x1="433" y1="134.54" x2="433" y2="435.51"/>
  </g>
  <rect class="cls-13" x="532.64" y="433.14" width="102.21" height="10.75"/>
  <text class="cls-10" transform="translate(538.03 442.22)"><tspan x="0" y="0">Availability zone</tspan></text>
  <polyline class="cls-5" points="630.1 389.51 699 389.51 699 337.52 689 337.52"/>
  <line class="cls-5" x1="327.19" y1="389.51" x2="432.5" y2="389.51"/>
  <g>
    <path class="cls-17" d="M622.4,375.5h0s-109.13,0-109.13,0v28.01h109.13s0,0,0,0c10.58,0,10.58-28.01,0-28.01Z"/>
    <text class="cls-15" transform="translate(568.17 392.92)"><tspan x="0" y="0">Elastic IP</tspan></text>
    <path class="cls-16" d="M548.57,375.5h0s-116.06,0-116.06,0v28.01h116.06s0,0,0,0c10.58,0,10.58-28.01,0-28.01Z"/>
    <text class="cls-15" transform="translate(447.67 392.92)"><tspan x="0" y="0">Internet Gateway</tspan></text>
  </g>
  <rect class="cls-12" x="468" y="185.02" width="221" height="50"/>
  <text class="cls-15" transform="translate(523.48 213.52)"><tspan x="0" y="0">Smart Proxy Server</tspan></text>
  <g>
    <text class="cls-9" transform="translate(368.25 423.05)"><tspan x="0" y="0">VPN</tspan><tspan x="-16.98" y="12">connection</tspan></text>
    <g>
      <path class="cls-14" d="M394.73,374.25l-14.56-3.1c-.11-.02-.23-.02-.34,0l-14.56,3.1c-.38,.08-.66,.42-.66,.81v16.76c0,8.49,6.9,15.39,15.39,15.39s15.39-6.9,15.39-15.39v-16.76c0-.39-.27-.73-.66-.81Z"/>
      <polyline class="cls-2" points="375.28 389.31 378.12 392.12 384.66 385.62"/>
      <path class="cls-2" d="M380,406.43c-8.06,0-14.61-6.55-14.61-14.61v-16.8l14.61-3.1,14.61,3.1v16.8c0,8.06-6.55,14.61-14.61,14.61Z"/>
    </g>
  </g>
  <g>
    <text class="cls-19" transform="translate(714.48 487.48)"><tspan x="0" y="0">278_0922</tspan></text>
    <rect class="cls-1" x="0" y="464.46" width="760" height="40"/>
  </g>
</svg>