<?xml version="1.0" encoding="UTF-8"?>
<svg id="artwork" xmlns="http://www.w3.org/2000/svg" viewBox="0 0 760 400.5">
  <defs>
    <style>
      .cls-1, .cls-2, .cls-3, .cls-4, .cls-5, .cls-6 {
        fill: none;
      }

      .cls-2, .cls-3, .cls-4, .cls-5 {
        stroke: #151515;
      }

      .cls-2, .cls-3, .cls-4, .cls-7 {
        stroke-linecap: round;
        stroke-linejoin: round;
      }

      .cls-8 {
        font-size: 16px;
      }

      .cls-8, .cls-9, .cls-10, .cls-11 {
        fill: #151515;
      }

      .cls-8, .cls-11 {
        font-family: RedHatTextRoman-Bold, 'Red Hat Text';
        font-variation-settings: 'wght' 700;
      }

      .cls-12 {
        fill: #06c;
      }

      .cls-13 {
        fill: #e6e6e6;
      }

      .cls-14, .cls-15, .cls-7 {
        fill: #fff;
      }

      .cls-16 {
        fill: #7f7f7f;
      }

      .cls-17 {
        fill: #d9e8f7;
      }

      .cls-3 {
        stroke-dasharray: 0 0 3.02 3.02;
      }

      .cls-4 {
        stroke-dasharray: 0 0 3.01 3.01;
      }

      .cls-18 {
        fill: #ececec;
        font-family: RedHatTextRoman-Regular, 'Red Hat Text';
        font-size: 10px;
        font-variation-settings: 'wght' 400;
      }

      .cls-9 {
        font-size: 11px;
      }

      .cls-9, .cls-15, .cls-10 {
        font-family: RedHatTextRoman-Medium, 'Red Hat Text';
        font-variation-settings: 'wght' 500;
      }

      .cls-15, .cls-10 {
        font-size: 12px;
      }

      .cls-5, .cls-6 {
        stroke-miterlimit: 10;
      }

      .cls-6 {
        stroke: #bfbfbf;
      }

      .cls-7 {
        stroke: #5b5b5b;
        stroke-width: 1.5px;
      }

      .cls-11 {
        font-size: 14px;
      }
    </style>
  </defs>
  <rect class="cls-13" x="0" y="20" width="351.5" height="340.5"/>
  <text class="cls-8" transform="translate(24.69 58.14)"><tspan x="0" y="0">Amazon Web Services</tspan></text>
  <rect class="cls-14" x="40.19" y="84.55" width="271.5" height="235.09"/>
  <text class="cls-11" transform="translate(60.19 114.45)"><tspan x="0" y="0">VPC</tspan></text>
  <rect class="cls-17" x="70.19" y="149.55" width="221.5" height="35"/>
  <text class="cls-10" transform="translate(145.66 170.56)"><tspan x="0" y="0">Base system</tspan></text>
  <polyline class="cls-6" points="60.19 264.55 60.19 299.55 281.69 299.55"/>
  <polyline class="cls-6" points="65.19 259.55 65.19 294.55 286.69 294.55"/>
  <rect class="cls-13" x="70.19" y="254.55" width="221.5" height="35"/>
  <text class="cls-10" transform="translate(136.88 275.56)"><tspan x="0" y="0">RHEL instances</tspan></text>
  <line class="cls-5" x1="180.94" y1="234.55" x2="180.94" y2="254.55"/>
  <g>
    <polyline class="cls-2" points="326.69 333.05 326.69 334.55 325.19 334.55"/>
    <line class="cls-3" x1="322.18" y1="334.55" x2="28.2" y2="334.55"/>
    <polyline class="cls-2" points="26.69 334.55 25.19 334.55 25.19 333.05"/>
    <line class="cls-4" x1="25.19" y1="330.04" x2="25.19" y2="132.56"/>
    <polyline class="cls-2" points="25.19 131.05 25.19 129.55 26.69 129.55"/>
    <line class="cls-3" x1="29.71" y1="129.55" x2="323.68" y2="129.55"/>
    <polyline class="cls-2" points="325.19 129.55 326.69 129.55 326.69 131.05"/>
    <line class="cls-4" x1="326.69" y1="134.07" x2="326.69" y2="331.55"/>
  </g>
  <rect class="cls-13" x="125.19" y="329.18" width="101.5" height="10.75"/>
  <text class="cls-10" transform="translate(130.22 338.26)"><tspan x="0" y="0">Availability zone</tspan></text>
  <g>
    <path class="cls-16" d="M235.43,39.58h0s116.06,0,116.06,0v28.01h-116.06s0,0,0,0c-10.58,0-10.58-28.01,0-28.01Z"/>
    <text class="cls-15" transform="translate(237.98 56.99)"><tspan x="0" y="0">Internet Gateway</tspan></text>
  </g>
  <rect class="cls-12" x="70.19" y="184.55" width="221.5" height="50"/>
  <text class="cls-15" transform="translate(135.7 213.06)"><tspan x="0" y="0">Foreman Server</tspan></text>
  <line class="cls-5" x1="351.5" y1="53.58" x2="398.25" y2="53.58"/>
  <g>
    <text class="cls-9" transform="translate(399.05 81.04)"><tspan x="0" y="0">Internet</tspan></text>
    <path class="cls-7" d="M435.06,51.19c0-7.33-5.99-13.27-13.38-13.27-5,0-9.36,2.73-11.65,6.76-.56-.1-1.14-.16-1.73-.16-5.55,0-10.05,4.46-10.05,9.97s4.5,9.97,10.05,9.97h26.76c3.69,0,6.69-2.97,6.69-6.64s-3-6.64-6.69-6.64Z"/>
  </g>
  <g>
    <text class="cls-18" transform="translate(714.48 383.52)"><tspan x="0" y="0">278_0922</tspan></text>
    <rect class="cls-1" x="0" y="360.5" width="760" height="40"/>
  </g>
</svg>