<?xml version="1.0" encoding="UTF-8"?>
<svg xmlns="http://www.w3.org/2000/svg" viewBox="0 0 760 560.34">
  <defs>
    <style>
      .cls-1, .cls-2, .cls-3, .cls-4, .cls-5, .cls-6, .cls-7, .cls-8, .cls-9, .cls-10, .cls-11, .cls-12, .cls-13, .cls-14, .cls-15 {
        fill: none;
      }

      .cls-2, .cls-3, .cls-4, .cls-5, .cls-6, .cls-7, .cls-8, .cls-9, .cls-10, .cls-11, .cls-12, .cls-13, .cls-14, .cls-15 {
        stroke-linejoin: round;
      }

      .cls-2, .cls-3, .cls-4, .cls-7, .cls-8, .cls-9, .cls-10, .cls-11, .cls-12, .cls-13, .cls-14, .cls-15 {
        stroke-linecap: round;
      }

      .cls-2, .cls-6 {
        stroke: #f7823c;
      }

      .cls-3, .cls-8, .cls-16, .cls-13, .cls-14 {
        stroke: #fff;
      }

      .cls-4, .cls-5, .cls-7, .cls-9, .cls-10, .cls-11, .cls-12, .cls-15 {
        stroke: #151515;
      }

      .cls-7 {
        stroke-dasharray: 0 0 2.94 2.94;
      }

      .cls-17 {
        font-size: 12px;
      }

      .cls-17, .cls-18, .cls-19, .cls-20 {
        fill: #151515;
      }

      .cls-17, .cls-20 {
        font-family: RedHatTextRoman-Bold, 'Red Hat Text';
        font-variation-settings: 'wght' 700;
      }

      .cls-21 {
        fill: #06c;
      }

      .cls-22, .cls-23 {
        fill: #f7823c;
      }

      .cls-24 {
        fill: #fff;
      }

      .cls-25 {
        fill: #e8e8e8;
      }

      .cls-26 {
        fill: #e5e5e5;
      }

      .cls-27, .cls-16 {
        fill: #cce0f5;
      }

      .cls-28 {
        fill: #fef6ed;
        mix-blend-mode: multiply;
      }

      .cls-29 {
        fill: #ececec;
        font-family: RedHatTextRoman-Regular, 'Red Hat Text';
        font-variation-settings: 'wght' 400;
      }

      .cls-29, .cls-19, .cls-23 {
        font-size: 10px;
      }

      .cls-8 {
        stroke-dasharray: 0 0 2.82 2.82;
      }

      .cls-9 {
        stroke-dasharray: 0 0 3.02 3.02;
      }

      .cls-16 {
        stroke-miterlimit: 10;
      }

      .cls-10 {
        stroke-dasharray: 0 0 3.01 3.01;
      }

      .cls-11 {
        stroke-dasharray: 0 0 2.76 2.76;
      }

      .cls-12 {
        stroke-dasharray: 0 0 3.12 3.12;
      }

      .cls-13 {
        stroke-width: 8px;
      }

      .cls-19, .cls-23 {
        font-family: RedHatTextRoman-Medium, 'Red Hat Text';
        font-variation-settings: 'wght' 500;
      }

      .cls-14 {
        stroke-dasharray: 0 0 3.03 3.03;
      }

      .cls-30 {
        isolation: isolate;
      }

      .cls-20 {
        font-size: 14px;
      }

      .cls-15 {
        stroke-dasharray: 0 0 3.27 3.27;
      }
    </style>
  </defs>
  <g class="cls-30">
    <g id="artwork">
      <line class="cls-4" x1="55" y1="384.54" x2="55" y2="460.29"/>
      <g>
        <text class="cls-29" transform="translate(714.48 543.35)"><tspan x="0" y="0">278_0922</tspan></text>
        <rect class="cls-1" x="0" y="520.34" width="760" height="40"/>
      </g>
      <rect class="cls-25" x="34.5" y="20" width="725.5" height="334.5"/>
      <g>
        <rect class="cls-24" x="50" y="198.5" width="609.5" height="140.5"/>
        <path class="cls-21" d="M659,199v139.5H50.5V199H659m1-1H49.5v141.5H660V198h0Z"/>
      </g>
      <text class="cls-17" transform="translate(64.5 324.4)"><tspan x="0" y="0">Internal Smart Proxy</tspan></text>
      <rect class="cls-24" x="309.93" y="61.02" width="115" height="55"/>
      <text class="cls-19" transform="translate(333.4 91.44)"><tspan x="0" y="0">Puppet Server</tspan></text>
      <g>
        <polyline class="cls-5" points="39.82 88.52 3.9 88.52 3.74 384.54 168.5 384.54"/>
        <polygon class="cls-18" points="38.36 83.53 47 88.52 38.36 93.5 38.36 83.53"/>
      </g>
      <text class="cls-20" transform="translate(49.5 45.9)"><tspan x="0" y="0">Foreman Server</tspan></text>
      <rect class="cls-24" x="49.5" y="61.02" width="255.5" height="55"/>
      <text class="cls-17" transform="translate(62.91 92.02)"><tspan x="0" y="0">Foreman</tspan></text>
      <rect class="cls-24" x="429.93" y="61.02" width="115" height="55"/>
      <text class="cls-19" transform="translate(463.75 91.44)"><tspan x="0" y="0">Candlepin</tspan></text>
      <rect class="cls-24" x="550" y="61.02" width="115" height="55"/>
      <text class="cls-19" transform="translate(596.07 91.44)"><tspan x="0" y="0">Qpid</tspan></text>
      <g>
        <line class="cls-4" x1="81.75" y1="203.32" x2="81.75" y2="201.82"/>
        <line class="cls-7" x1="81.75" y1="198.88" x2="81.75" y2="141.47"/>
        <polyline class="cls-4" points="81.75 140 81.75 138.5 83.25 138.5"/>
        <line class="cls-10" x1="86.26" y1="138.5" x2="596.99" y2="138.5"/>
        <polyline class="cls-4" points="598.5 138.5 600 138.5 600 137"/>
        <line class="cls-15" x1="600" y1="133.73" x2="600" y2="128.83"/>
        <line class="cls-4" x1="600" y1="127.19" x2="600" y2="125.69"/>
        <polygon class="cls-18" points="86.74 201.86 81.75 210.5 76.76 201.86 86.74 201.86"/>
        <polygon class="cls-18" points="604.99 127.15 600 118.52 595.01 127.15 604.99 127.15"/>
      </g>
      <g>
        <line class="cls-4" x1="126.25" y1="203.32" x2="126.25" y2="201.82"/>
        <line class="cls-12" x1="126.25" y1="198.7" x2="126.25" y2="156.56"/>
        <polyline class="cls-4" points="126.25 155 126.25 153.5 127.75 153.5"/>
        <line class="cls-9" x1="130.77" y1="153.5" x2="611.99" y2="153.5"/>
        <polyline class="cls-4" points="613.5 153.5 615 153.5 615 152"/>
        <line class="cls-11" x1="615" y1="149.24" x2="615" y2="128.57"/>
        <line class="cls-4" x1="615" y1="127.19" x2="615" y2="125.69"/>
        <polygon class="cls-18" points="131.24 201.86 126.25 210.5 121.26 201.86 131.24 201.86"/>
        <polygon class="cls-18" points="619.99 127.15 615 118.52 610.01 127.15 619.99 127.15"/>
      </g>
      <g>
        <rect class="cls-24" x="224.75" y="71.77" width="69.5" height="33.5"/>
        <path class="cls-26" d="M293.5,72.52v32h-68v-32h68m1.5-1.5h-71v35h71v-35h0Z"/>
      </g>
      <text class="cls-19" transform="translate(242.97 91.44)"><tspan x="0" y="0">Katello</tspan></text>
      <line class="cls-13" x1="99.75" y1="369.54" x2="99.75" y2="397.56"/>
      <g>
        <polyline class="cls-4" points="54.82 255.75 18.83 255.75 18.83 369.54 99.75 369.54 99.75 460.29"/>
        <polygon class="cls-18" points="53.36 250.76 62 255.75 53.36 260.74 53.36 250.76"/>
      </g>
      <rect class="cls-27" x="64.5" y="213" width="34.5" height="85.5"/>
      <text class="cls-19" transform="translate(71.13 258.67)"><tspan x="0" y="0">Pulp</tspan></text>
      <rect class="cls-27" x="104" y="213" width="59.5" height="85.5"/>
      <rect class="cls-27" x="168.5" y="213" width="44" height="85.5"/>
      <text class="cls-19" transform="translate(175.62 253.17)"><tspan x="0" y="0">MQTT</tspan><tspan x="-.66" y="11">broker</tspan></text>
      <text class="cls-19" transform="translate(122.33 247.67)"><tspan x="0" y="0">Qpid</tspan><tspan x="-9.34" y="11">Dispatch</tspan><tspan x="-4.73" y="22">Router</tspan></text>
      <rect class="cls-27" x="218" y="213" width="427" height="85.5"/>
      <text class="cls-17" transform="translate(232.5 236.3)"><tspan x="0" y="0">Foreman Proxy</tspan></text>
      <g>
        <line class="cls-2" x1="308" y1="293.15" x2="308" y2="460.25"/>
        <polygon class="cls-22" points="303.01 294.61 308 285.97 312.99 294.61 303.01 294.61"/>
      </g>
      <g>
        <line class="cls-2" x1="358" y1="293.15" x2="358" y2="460.25"/>
        <polygon class="cls-22" points="353.01 294.61 358 285.97 362.99 294.61 353.01 294.61"/>
      </g>
      <g>
        <line class="cls-2" x1="495.5" y1="293.15" x2="495.5" y2="460.29"/>
        <polygon class="cls-22" points="490.51 294.61 495.5 285.97 500.49 294.61 490.51 294.61"/>
      </g>
      <g>
        <line class="cls-4" x1="557.25" y1="293.15" x2="557.25" y2="460.29"/>
        <polygon class="cls-18" points="552.26 294.61 557.25 285.97 562.24 294.61 552.26 294.61"/>
      </g>
      <g>
        <line class="cls-4" x1="605.75" y1="283.47" x2="605.75" y2="450.62"/>
        <polygon class="cls-18" points="600.76 449.16 605.75 457.79 610.74 449.16 600.76 449.16"/>
      </g>
      <g>
        <polyline class="cls-4" points="675 460.29 675 183 190.5 183 190.5 203.32"/>
        <polygon class="cls-18" points="185.51 201.86 190.5 210.5 195.49 201.86 185.51 201.86"/>
      </g>
      <g>
        <polyline class="cls-4" points="710 460.29 710 168 141.25 168 141.25 203.32"/>
        <polygon class="cls-18" points="136.26 201.86 141.25 210.5 146.24 201.86 136.26 201.86"/>
      </g>
      <g>
        <polyline class="cls-4" points="745 460.29 745 38.52 745 38.52 367.43 38.52 367.43 51.34"/>
        <polygon class="cls-18" points="362.44 49.88 367.43 58.52 372.41 49.88 362.44 49.88"/>
      </g>
      <g>
        <line class="cls-2" x1="273.98" y1="283.47" x2="273.98" y2="450.58"/>
        <polygon class="cls-22" points="268.99 449.12 273.98 457.75 278.97 449.12 268.99 449.12"/>
      </g>
      <polyline class="cls-6" points="209.96 460.25 209.96 384.54 168.5 384.54"/>
      <g>
        <line class="cls-6" x1="243.98" y1="292.65" x2="243.98" y2="460.25"/>
        <polygon class="cls-22" points="238.99 294.11 243.98 285.47 248.97 294.11 238.99 294.11"/>
      </g>
      <g>
        <line class="cls-2" x1="438" y1="293.15" x2="438" y2="460.29"/>
        <polygon class="cls-22" points="433.01 294.61 438 285.97 442.99 294.61 433.01 294.61"/>
      </g>
      <g>
        <line class="cls-6" x1="403" y1="282.97" x2="403" y2="450.58"/>
        <polygon class="cls-22" points="398.01 449.12 403 457.75 407.99 449.12 398.01 449.12"/>
      </g>
      <rect class="cls-24" x="389.17" y="62.34" width="29.06" height="712.6" transform="translate(822.34 14.94) rotate(90)"/>
      <text class="cls-23" transform="translate(263.24 416.96)"><tspan x="0" y="0">UDP</tspan><tspan x="4.46" y="11">68</tspan></text>
      <text class="cls-23" transform="translate(233.24 416.96)"><tspan x="0" y="0">UDP</tspan><tspan x="4.66" y="11">67</tspan></text>
      <text class="cls-23" transform="translate(199.76 416.96)"><tspan x="0" y="0">TCP</tspan><tspan x="3.71" y="11">80</tspan></text>
      <text class="cls-23" transform="translate(347.25 416.96)"><tspan x="0" y="0">UDP</tspan><tspan x="4.42" y="11">69</tspan></text>
      <text class="cls-23" transform="translate(485.3 416.96)"><tspan x="0" y="0">TCP</tspan><tspan x="-3.04" y="11">8000</tspan></text>
      <text class="cls-19" transform="translate(547.05 416.96)"><tspan x="0" y="0">TCP</tspan><tspan x="-2.87" y="11">9090</tspan></text>
      <text class="cls-19" transform="translate(699.8 416.96)"><tspan x="0" y="0">TCP</tspan><tspan x="-2.1" y="11">5647</tspan></text>
      <text class="cls-19" transform="translate(734.8 416.96)"><tspan x="0" y="0">TCP</tspan><tspan x="-1.26" y="11">8140</tspan></text>
      <text class="cls-19" transform="translate(664.8 416.96)"><tspan x="0" y="0">TCP</tspan><tspan x="-.79" y="11">1883</tspan></text>
      <text class="cls-19" transform="translate(595.55 416.96)"><tspan x="0" y="0">TCP</tspan><tspan x="4.5" y="11">22</tspan></text>
      <text class="cls-19" transform="translate(44.8 416.96)"><tspan x="0" y="0">TCP</tspan><tspan x="-8.21" y="11">80, 443</tspan></text>
      <text class="cls-19" transform="translate(89.55 416.96)"><tspan x="0" y="0">TCP</tspan><tspan x="-2.86" y="11">5000</tspan></text>
      <text class="cls-23" transform="translate(392.8 416.96)"><tspan x="0" y="0">TCP</tspan><tspan x="-2.47" y="11">8443</tspan></text>
      <text class="cls-23" transform="translate(427.8 416.96)"><tspan x="0" y="0">TCP</tspan><tspan x="-2.87" y="11">9090</tspan></text>
      <text class="cls-23" transform="translate(297.25 416.96)"><tspan x="0" y="0">UDP</tspan><tspan x="4.75" y="11">53</tspan></text>
      <rect class="cls-28" x="168.5" y="359.75" width="365" height="95.5"/>
      <g>
        <rect class="cls-24" x="148.75" y="71.77" width="69.5" height="33.5"/>
        <path class="cls-26" d="M217.5,72.52v32h-68v-32h68m1.5-1.5h-71v35h71v-35h0Z"/>
      </g>
      <text class="cls-19" transform="translate(162.99 91.44)"><tspan x="0" y="0">bootdisk</tspan></text>
      <text class="cls-23" transform="translate(135 427.96)"><tspan x="0" y="0">provisioning</tspan></text>
      <rect class="cls-16" x="233" y="249.5" width="50" height="34"/>
      <rect class="cls-16" x="283" y="249.5" width="50" height="34"/>
      <g>
        <rect class="cls-27" x="533" y="249.5" width="48.5" height="34"/>
        <g>
          <polyline class="cls-3" points="533 282 533 283.5 534.5 283.5"/>
          <line class="cls-14" x1="537.53" y1="283.5" x2="578.48" y2="283.5"/>
          <polyline class="cls-3" points="580 283.5 581.5 283.5 581.5 282"/>
          <line class="cls-8" x1="581.5" y1="279.18" x2="581.5" y2="252.41"/>
          <polyline class="cls-3" points="581.5 251 581.5 249.5 580 249.5"/>
          <line class="cls-14" x1="576.97" y1="249.5" x2="536.02" y2="249.5"/>
          <polyline class="cls-3" points="534.5 249.5 533 249.5 533 251"/>
          <line class="cls-8" x1="533" y1="253.82" x2="533" y2="280.59"/>
        </g>
      </g>
      <g>
        <rect class="cls-27" x="581.5" y="249.5" width="48.5" height="34"/>
        <g>
          <polyline class="cls-3" points="581.5 282 581.5 283.5 583 283.5"/>
          <line class="cls-14" x1="586.03" y1="283.5" x2="626.98" y2="283.5"/>
          <polyline class="cls-3" points="628.5 283.5 630 283.5 630 282"/>
          <line class="cls-8" x1="630" y1="279.18" x2="630" y2="252.41"/>
          <polyline class="cls-3" points="630 251 630 249.5 628.5 249.5"/>
          <line class="cls-14" x1="625.47" y1="249.5" x2="584.52" y2="249.5"/>
          <polyline class="cls-3" points="583 249.5 581.5 249.5 581.5 251"/>
          <line class="cls-8" x1="581.5" y1="253.82" x2="581.5" y2="280.59"/>
        </g>
      </g>
      <rect class="cls-16" x="333" y="249.5" width="50" height="34"/>
      <rect class="cls-16" x="383" y="249.5" width="75" height="34"/>
      <rect class="cls-16" x="458" y="249.5" width="75" height="34"/>
      <text class="cls-19" transform="translate(297.3 270.75)"><tspan x="0" y="0">DNS</tspan></text>
      <text class="cls-19" transform="translate(345.06 270.75)"><tspan x="0" y="0">TFTP</tspan></text>
      <text class="cls-19" transform="translate(397.31 270.75)"><tspan x="0" y="0">Discovery</tspan></text>
      <text class="cls-19" transform="translate(470.67 269.81)"><tspan x="0" y="0">Templates</tspan></text>
      <text class="cls-19" transform="translate(543.57 270.75)"><tspan x="0" y="0">SCAP</tspan></text>
      <text class="cls-19" transform="translate(595.69 270.23)"><tspan x="0" y="0">REX</tspan></text>
      <text class="cls-19" transform="translate(243.55 270.75)"><tspan x="0" y="0">DHCP</tspan></text>
      <g>
        <rect class="cls-25" x="34.22" y="460.29" width="725.5" height="60"/>
        <text class="cls-20" transform="translate(49.22 485.19)"><tspan x="0" y="0">Direct Host</tspan></text>
      </g>
      <g>
        <rect class="cls-24" x="10.17" y="280.87" width="16.25" height="56.91"/>
        <text class="cls-19" transform="translate(21.9 333.72) rotate(-90)"><tspan x="0" y="0">TCP 5000</tspan></text>
      </g>
      <g>
        <rect class="cls-24" x=".42" y="106.65" width="7.1" height="68.97"/>
        <text class="cls-19" transform="translate(6.89 170.87) rotate(-90)"><tspan x="0" y="0">TCP 443, 80</tspan></text>
      </g>
      <g>
        <rect class="cls-25" x="180.44" y="142.05" width="16.25" height="51.89" transform="translate(356.56 -20.56) rotate(90)"/>
        <text class="cls-19" transform="translate(164.94 171.61)"><tspan x="0" y="0">TCP 5647</tspan></text>
      </g>
      <g>
        <rect class="cls-25" x="264.94" y="157.05" width="16.25" height="51.89" transform="translate(456.06 -90.06) rotate(90)"/>
        <text class="cls-19" transform="translate(250.75 186.61)"><tspan x="0" y="0">TCP 1883</tspan></text>
      </g>
      <rect class="cls-25" x="481.8" y="12.57" width="11.25" height="51.89" transform="translate(525.95 -448.91) rotate(90)"/>
      <text class="cls-19" transform="translate(464.64 42.02)"><tspan x="0" y="0">TCP 8140</tspan></text>
    </g>
  </g>
</svg>