<?xml version="1.0" encoding="UTF-8"?>
<svg xmlns="http://www.w3.org/2000/svg" viewBox="0 0 760 685">
  <defs>
    <style>
      .cls-1 {
        stroke-dasharray: 0 0 3 3;
      }

      .cls-1, .cls-2, .cls-3, .cls-4, .cls-5, .cls-6, .cls-7, .cls-8, .cls-9, .cls-10, .cls-11, .cls-12, .cls-13 {
        fill: none;
      }

      .cls-1, .cls-3, .cls-4, .cls-5, .cls-6, .cls-7, .cls-8, .cls-9, .cls-10, .cls-11, .cls-12, .cls-13 {
        stroke-linejoin: round;
      }

      .cls-1, .cls-3, .cls-4, .cls-5, .cls-6, .cls-9, .cls-10, .cls-11, .cls-12, .cls-13 {
        stroke-linecap: round;
      }

      .cls-1, .cls-5, .cls-13 {
        stroke: #c4c4c4;
      }

      .cls-3, .cls-7 {
        stroke: #151515;
      }

      .cls-4, .cls-6, .cls-9, .cls-10, .cls-11, .cls-12 {
        stroke: #8cbae8;
      }

      .cls-14 {
        font-family: RedHatTextRoman-Medium, 'Red Hat Text';
        font-variation-settings: 'wght' 500;
        font-weight: 500;
      }

      .cls-14, .cls-15, .cls-16, .cls-17, .cls-18, .cls-19 {
        fill: #151515;
      }

      .cls-14, .cls-15, .cls-17, .cls-18, .cls-19, .cls-20 {
        font-size: 14px;
      }

      .cls-21 {
        font-size: 9.5px;
      }

      .cls-21, .cls-22, .cls-18 {
        font-family: RedHatMonoRoman-Regular, 'Red Hat Mono';
      }

      .cls-21, .cls-22, .cls-18, .cls-23 {
        font-variation-settings: 'wght' 400;
      }

      .cls-6 {
        stroke-dasharray: 0 0 2.97 2.97;
      }

      .cls-15, .cls-20 {
        font-family: RedHatTextRoman-Bold, 'Red Hat Text';
        font-variation-settings: 'wght' 700;
        font-weight: 700;
      }

      .cls-24 {
        fill: #f3f3f3;
      }

      .cls-25 {
        fill: #06c;
      }

      .cls-26 {
        fill: #fff;
      }

      .cls-27 {
        fill: #e8e8e8;
      }

      .cls-28 {
        fill: #3bab39;
      }

      .cls-17, .cls-29 {
        font-family: RedHatMonoRoman-SemiBold, 'Red Hat Mono';
        font-variation-settings: 'wght' 600;
        font-weight: 600;
      }

      .cls-8 {
        stroke: #e8e8e8;
        stroke-width: 6px;
      }

      .cls-9 {
        stroke-dasharray: 0 0 3.06 3.06;
      }

      .cls-10 {
        stroke-dasharray: 0 0 3.03 3.03;
      }

      .cls-11 {
        stroke-dasharray: 0 0 3.02 3.02;
      }

      .cls-30 {
        mix-blend-mode: multiply;
      }

      .cls-12 {
        stroke-dasharray: 0 0 3.02 3.02;
      }

      .cls-23 {
        fill: #ececec;
        font-family: RedHatTextRoman-Regular, 'Red Hat Text';
        font-size: 10px;
      }

      .cls-31 {
        isolation: isolate;
      }

      .cls-13 {
        stroke-dasharray: 0 0 2.99 2.99;
      }
    </style>
  </defs>
  <g class="cls-31">
    <g id="artwork">
      <rect class="cls-27" x="20.5" y="313.56" width="720.5" height="311.5"/>
      <rect class="cls-27" x="20.5" y="40.56" width="720.5" height="81"/>
      <rect class="cls-27" x="20.5" y="131.56" width="720.5" height="81"/>
      <rect class="cls-27" x="20.5" y="222.56" width="720.5" height="81"/>
      <text class="cls-15" transform="translate(35.5 65.82)"><tspan x="0" y="0">systemd</tspan></text>
      <text class="cls-15" transform="translate(35.5 156.82)"><tspan x="0" y="0">Host OS processes</tspan></text>
      <text class="cls-15" transform="translate(35.5 247.82)"><tspan x="0" y="0">Kubelet</tspan></text>
      <text class="cls-15" transform="translate(35.5 338.82)"><tspan x="0" y="0">Container-runtime</tspan></text>
      <rect class="cls-24" x="35.5" y="422.06" width="224" height="188"/>
      <text class="cls-16" transform="translate(50.5 447.46)"><tspan class="cls-20"><tspan x="0" y="0">Container 1</tspan></tspan><tspan class="cls-21"><tspan x="0" y="12">(mountPropagation:Bidirectional)</tspan></tspan></text>
      <rect class="cls-24" x="269.5" y="422.06" width="224" height="188"/>
      <rect class="cls-24" x="503.5" y="422.06" width="222.5" height="188"/>
      <text class="cls-16" transform="translate(518 447.46)"><tspan class="cls-20"><tspan x="0" y="0">Container 3</tspan></tspan><tspan class="cls-21"><tspan x="0" y="12">(mountPropagation:None)</tspan></tspan></text>
      <text class="cls-14" transform="translate(552.48 80.07)"><tspan x="0" y="0">Default</tspan><tspan x="0" y="14">namespace</tspan></text>
      <g>
        <polyline class="cls-5" points="2 645 .5 645 .5 643.5"/>
        <line class="cls-1" x1=".5" y1="640.5" x2=".5" y2="23.5"/>
        <polyline class="cls-5" points=".5 22 .5 20.5 2 20.5"/>
        <line class="cls-13" x1="4.99" y1="20.5" x2="756.51" y2="20.5"/>
        <polyline class="cls-5" points="758 20.5 759.5 20.5 759.5 22"/>
        <line class="cls-1" x1="759.5" y1="25" x2="759.5" y2="642"/>
        <polyline class="cls-5" points="759.5 643.5 759.5 645 758 645"/>
        <line class="cls-13" x1="755.01" y1="645" x2="3.49" y2="645"/>
      </g>
      <g class="cls-30">
        <g>
          <line class="cls-4" x1="339.25" y1="217.56" x2="338.75" y2="218.98"/>
          <line class="cls-12" x1="337.74" y1="221.82" x2="245.5" y2="482.22"/>
          <line class="cls-4" x1="245" y1="483.65" x2="244.5" y2="485.06"/>
        </g>
        <g>
          <line class="cls-4" x1="339.25" y1="217.56" x2="338.44" y2="218.82"/>
          <line class="cls-11" x1="336.8" y1="221.36" x2="246.13" y2="362.03"/>
          <line class="cls-4" x1="245.31" y1="363.3" x2="244.5" y2="364.56"/>
        </g>
        <g>
          <line class="cls-4" x1="339.25" y1="217.56" x2="337.96" y2="218.33"/>
          <line class="cls-9" x1="335.33" y1="219.88" x2="247.11" y2="272.02"/>
          <line class="cls-4" x1="245.79" y1="272.8" x2="244.5" y2="273.56"/>
        </g>
        <g>
          <line class="cls-4" x1="339.25" y1="217.56" x2="337.84" y2="217.04"/>
          <line class="cls-6" x1="335.06" y1="216.01" x2="247.3" y2="183.6"/>
          <line class="cls-4" x1="245.91" y1="183.08" x2="244.5" y2="182.56"/>
        </g>
        <g>
          <line class="cls-4" x1="339.25" y1="217.56" x2="338.35" y2="216.36"/>
          <line class="cls-10" x1="336.53" y1="213.94" x2="246.31" y2="93.97"/>
          <line class="cls-4" x1="245.4" y1="92.76" x2="244.5" y2="91.56"/>
        </g>
      </g>
      <g>
        <line class="cls-7" x1="443.75" y1="412.39" x2="443.75" y2="332.31"/>
        <polygon class="cls-16" points="448.74 410.93 443.75 419.56 438.76 410.93 448.74 410.93"/>
      </g>
      <g>
        <g>
          <rect class="cls-26" x="339.75" y="103.31" width="208" height="228.5"/>
          <path class="cls-25" d="M547.25,103.81v227.5h-207V103.81h207m1-1h-209v229.5h209V102.81h0Z"/>
        </g>
        <text class="cls-18" transform="translate(354.25 126.9)"><tspan x="0" y="0">/run/systemd</tspan><tspan x="0" y="16">/run/host</tspan><tspan x="0" y="32">/run/kubelet</tspan><tspan x="0" y="48">/run/cri</tspan><tspan x="0" y="64">/run/a</tspan></text>
      </g>
      <g>
        <rect class="cls-26" x="36" y="168.06" width="208" height="29"/>
        <path class="cls-25" d="M243.5,168.56v28H36.5v-28H243.5m1-1H35.5v30H244.5v-30h0Z"/>
      </g>
      <g>
        <rect class="cls-26" x="36" y="77.06" width="208" height="29"/>
        <path class="cls-25" d="M243.5,77.56v28H36.5v-28H243.5m1-1H35.5v30H244.5v-30h0Z"/>
      </g>
      <g>
        <rect class="cls-26" x="36" y="259.06" width="208" height="29"/>
        <path class="cls-25" d="M243.5,259.56v28H36.5v-28H243.5m1-1H35.5v30H244.5v-30h0Z"/>
      </g>
      <g>
        <rect class="cls-26" x="36" y="350.06" width="208" height="29"/>
        <path class="cls-25" d="M243.5,350.56v28H36.5v-28H243.5m1-1H35.5v30H244.5v-30h0Z"/>
      </g>
      <text class="cls-18" transform="translate(45.5 95.65)"><tspan x="0" y="0">/run/systemd</tspan></text>
      <text class="cls-18" transform="translate(45.5 186.65)"><tspan x="0" y="0">/run/host</tspan></text>
      <text class="cls-18" transform="translate(45.5 277.65)"><tspan x="0" y="0">/run/kubelet</tspan></text>
      <text class="cls-18" transform="translate(45.5 368.65)"><tspan x="0" y="0">/run/cri</tspan></text>
      <g>
        <rect class="cls-26" x="51" y="470.56" width="193" height="29"/>
        <path class="cls-28" d="M243.5,471.06v28H51.5v-28H243.5m1-1H50.5v30H244.5v-30h0Z"/>
      </g>
      <g>
        <rect class="cls-26" x="285" y="470.56" width="193" height="29"/>
        <path class="cls-28" d="M477.5,471.06v28h-192v-28h192m1-1h-194v30h194v-30h0Z"/>
      </g>
      <g>
        <rect class="cls-26" x="518.5" y="470.56" width="193" height="29"/>
        <path class="cls-28" d="M711,471.06v28h-192v-28h192m1-1h-194v30h194v-30h0Z"/>
      </g>
      <text class="cls-19" transform="translate(60.5 489.15)"><tspan class="cls-29"><tspan x="0" y="0">/run/a</tspan></tspan><tspan class="cls-22"><tspan x="0" y="32">/run/systemd</tspan></tspan><tspan class="cls-22"><tspan x="0" y="48">/run/host</tspan></tspan><tspan class="cls-22"><tspan x="0" y="64">/run/kubelet</tspan></tspan><tspan class="cls-22"><tspan x="0" y="80">/run/cri</tspan></tspan></text>
      <text class="cls-16" transform="translate(284.5 447.46)"><tspan class="cls-20"><tspan x="0" y="0">Container 2</tspan></tspan><tspan class="cls-21"><tspan x="0" y="12">(mountPropagation:HostToContainer)</tspan></tspan></text>
      <line class="cls-3" x1="512.6" y1="113.12" x2="548" y2="77.06"/>
      <line class="cls-8" x1="236.63" y1="394.08" x2="287.12" y2="394.08"/>
      <text class="cls-19" transform="translate(294.5 489.15)"><tspan class="cls-29"><tspan x="0" y="0">/run/b</tspan></tspan><tspan class="cls-22"><tspan x="0" y="32">/run/systemd</tspan></tspan><tspan class="cls-22"><tspan x="0" y="48">/run/host</tspan></tspan><tspan class="cls-22"><tspan x="0" y="64">/run/kubelet</tspan></tspan><tspan class="cls-22"><tspan x="0" y="80">/run/cri</tspan></tspan><tspan class="cls-22"><tspan x="0" y="96">/run/a</tspan></tspan></text>
      <text class="cls-17" transform="translate(528 489.15)"><tspan x="0" y="0">/run/c</tspan></text>
      <g>
        <polyline class="cls-7" points="147.5 412.39 147.5 394.56 428.75 394.56 428.75 341.99"/>
        <polygon class="cls-16" points="152.49 410.93 147.5 419.56 142.51 410.93 152.49 410.93"/>
        <polygon class="cls-16" points="433.74 343.45 428.75 334.81 423.76 343.45 433.74 343.45"/>
      </g>
      <g>
        <text class="cls-23" transform="translate(669.02 668.02)"><tspan x="0" y="0">290_OpenShift_1122</tspan></text>
        <rect class="cls-2" x="0" y="645" width="760" height="40"/>
      </g>
    </g>
  </g>
</svg>