<svg id="bbb06d83-f6f2-43d5-bbfe-69e9a5425b2a" data-name="Layer 1" xmlns="http://www.w3.org/2000/svg" width="760" height="522.417"><defs><style>.be848eb5-89f2-4f08-830c-ce94563719a2,.f7110921-7bfd-4a9b-87b7-167ba228c066{fill:#151515}.be848eb5-89f2-4f08-830c-ce94563719a2,.eee0ccd3-5167-4e92-95d4-62ed35a9378d{font-family:RedHatText,&quot;Red Hat Text&quot;,Overpass,&quot;Helvetica Neue&quot;,Arial,sans-serif;font-weight:500}.e33a9a3b-5896-4261-8735-37245cf7b5c8{fill:#fff}.be848eb5-89f2-4f08-830c-ce94563719a2{font-size:11px}.fbcef703-e187-4b4a-9cd2-834988d01f3b{fill:none;stroke:#151515;stroke-linecap:round;stroke-linejoin:round}</style></defs><path fill="#e8e8e8" d="M0 19.963h429v485H0z"/><text transform="translate(15 44.225)" font-family="RedHatText,&quot;Red Hat Text&quot;,Overpass,&quot;Helvetica Neue&quot;,Arial,sans-serif" font-weight="700" fill="#151515" font-size="12">Shared filesystems <tspan class="eee0ccd3-5167-4e92-95d4-62ed35a9378d" x="116.002" y="0">(Manila)</tspan></text><path class="e33a9a3b-5896-4261-8735-37245cf7b5c8" d="M15 59.963h399v50H15z"/><text class="be848eb5-89f2-4f08-830c-ce94563719a2" transform="translate(161.426 88.01)">Container workloads</text><path class="e33a9a3b-5896-4261-8735-37245cf7b5c8" d="M15 114.963h399v50H15z"/><text class="be848eb5-89f2-4f08-830c-ce94563719a2" transform="translate(176.963 143.009)">RWX/RWO PV</text><path class="e33a9a3b-5896-4261-8735-37245cf7b5c8" d="M15 169.963h399v50H15z"/><text class="be848eb5-89f2-4f08-830c-ce94563719a2" transform="translate(187.341 198.287)">Manila CSI</text><path class="e33a9a3b-5896-4261-8735-37245cf7b5c8" d="M25 374.963h172v50H25z"/><text class="be848eb5-89f2-4f08-830c-ce94563719a2" transform="translate(63.888 397.01)">3rd party certified<tspan x="35.937" y="12">NFS</tspan></text><path class="e33a9a3b-5896-4261-8735-37245cf7b5c8" d="M232 374.963h172v50H232z"/><text class="be848eb5-89f2-4f08-830c-ce94563719a2" transform="translate(282.938 403.01)">Ganesha NFS</text><path class="e33a9a3b-5896-4261-8735-37245cf7b5c8" d="M25 429.963h172v50H25z"/><text class="be848eb5-89f2-4f08-830c-ce94563719a2" transform="translate(63.888 452.01)">3rd party certified<tspan x="4.042" y="12">storage backend</tspan></text><path class="e33a9a3b-5896-4261-8735-37245cf7b5c8" d="M232 429.963h172v50H232z"/><text class="be848eb5-89f2-4f08-830c-ce94563719a2" transform="translate(280.804 458.01)">RHCS CephFS</text><path d="M412 326.963v161H224v-161h188m2-2H222v165h192v-165z" fill="#06c"/><path d="M206 325.963v163H16v-163h190m1-1H15v165h192v-165z" fill="#adadad"/><text transform="translate(231 344.225)" font-size="11" font-family="RedHatText,&quot;Red Hat Text&quot;,Overpass,&quot;Helvetica Neue&quot;,Arial,sans-serif" font-weight="700" fill="#151515">Tech Preview<tspan class="eee0ccd3-5167-4e92-95d4-62ed35a9378d"><tspan x="0" y="14">(Available via support exception)</tspan></tspan></text><path class="fbcef703-e187-4b4a-9cd2-834988d01f3b" d="M318 315.287v-12.824H218"/><path class="f7110921-7bfd-4a9b-87b7-167ba228c066" d="M322.986 313.828L318 322.463l-4.987-8.635h9.973z"/><path class="fbcef703-e187-4b4a-9cd2-834988d01f3b" d="M111 315.287v-12.824h103.5v-27.5"/><path class="f7110921-7bfd-4a9b-87b7-167ba228c066" d="M115.986 313.828L111 322.463l-4.986-8.635h9.972z"/><path class="e33a9a3b-5896-4261-8735-37245cf7b5c8" d="M15 224.963h399v50H15z"/><text class="be848eb5-89f2-4f08-830c-ce94563719a2" transform="translate(197.582 253.01)">Manila</text><g><circle class="f7110921-7bfd-4a9b-87b7-167ba228c066" cx="214.5" cy="302.477" r="10"/><text transform="translate(208.415 305.262)" font-size="11" fill="#fff" font-family="RedHatText,&quot;Red Hat Text&quot;,Overpass,&quot;Helvetica Neue&quot;,Arial,sans-serif" font-weight="700">or</text></g><g><text transform="translate(671.212 504.776)" font-size="10" fill="#f3f3f3" font-family="RedHatText,&quot;Red Hat Text&quot;,Overpass,&quot;Helvetica Neue&quot;,Arial,sans-serif">151_OpenShift_0421</text><path fill="none" d="M0 482.417h760v40H0z"/></g></svg>