<svg id="a34494c0-c71f-4ac9-93b5-2bae4d615ace" data-name="Layer 1" xmlns="http://www.w3.org/2000/svg" width="760" height="642.963"><defs><style>.a2a610b4-00c5-4ccc-8b16-a5d9a786bdae{fill:none;stroke:#151515;stroke-linecap:round;stroke-linejoin:round}.eab8b212-b83e-4c22-ba1b-9a0d91b2dd10,.fd407967-fcde-4e4c-8d91-ca4d57a92732{fill:#151515}.b2853862-9cc6-43da-bc95-5fb537a58ecc{fill:#e8e8e8}.eab8b212-b83e-4c22-ba1b-9a0d91b2dd10{font-size:11px;font-family:RedHatText,&quot;Red Hat Text&quot;,Overpass,&quot;Helvetica Neue&quot;,Arial,sans-serif;font-weight:500}.bb821dbd-fdbb-4d93-88fd-ec728b745cf5{fill:#fff}.b2bf4e5d-1cd5-43f2-9121-dd2dbb546850{fill:#06c}.ac401783-6bc0-461e-b26b-0d43415578ec{fill:#d9e8f7}</style></defs><path class="a2a610b4-00c5-4ccc-8b16-a5d9a786bdae" d="M314.5 511.963v16.323"/><path class="fd407967-fcde-4e4c-8d91-ca4d57a92732" d="M309.514 526.827l4.986 8.636 4.986-8.636h-9.972z"/><path class="a2a610b4-00c5-4ccc-8b16-a5d9a786bdae" d="M314.5 420.963v16.323"/><path class="fd407967-fcde-4e4c-8d91-ca4d57a92732" d="M309.514 435.827l4.986 8.636 4.986-8.636h-9.972z"/><path class="a2a610b4-00c5-4ccc-8b16-a5d9a786bdae" d="M314.5 329.963v16.323"/><path class="fd407967-fcde-4e4c-8d91-ca4d57a92732" d="M309.514 344.827l4.986 8.636 4.986-8.636h-9.972z"/><path class="b2853862-9cc6-43da-bc95-5fb537a58ecc" d="M262 355.963h105v65H262z"/><text class="eab8b212-b83e-4c22-ba1b-9a0d91b2dd10" transform="translate(300.107 379.51)">Build <tspan x="-11.28" y="12">bootstrap</tspan><tspan x="-3.294" y="24">cluster</tspan></text><path class="b2853862-9cc6-43da-bc95-5fb537a58ecc" d="M262 446.963h105v65H262z"/><text class="eab8b212-b83e-4c22-ba1b-9a0d91b2dd10" transform="translate(274.928 476.51)">Build controller<tspan x="14.509" y="12">node (x3)</tspan></text><path class="a2a610b4-00c5-4ccc-8b16-a5d9a786bdae" d="M121.324 115.463H105"/><path class="fd407967-fcde-4e4c-8d91-ca4d57a92732" d="M119.865 110.476l8.635 4.987-8.635 4.986v-9.973z"/><path class="bb821dbd-fdbb-4d93-88fd-ec728b745cf5" d="M.5 83.463h104v64H.5z"/><path class="b2bf4e5d-1cd5-43f2-9121-dd2dbb546850" d="M104 83.963v63H1v-63h103m1-1H0v65h105v-65z"/><text class="eab8b212-b83e-4c22-ba1b-9a0d91b2dd10" transform="translate(34.664 112.51)">install-<tspan x="-12.056" y="12">config.yaml</tspan></text><path class="a2a610b4-00c5-4ccc-8b16-a5d9a786bdae" d="M252.324 115.463H236"/><path class="fd407967-fcde-4e4c-8d91-ca4d57a92732" d="M250.865 110.476l8.635 4.987-8.635 4.986v-9.973z"/><path class="a2a610b4-00c5-4ccc-8b16-a5d9a786bdae" d="M314.5 147.963v16.323"/><path class="fd407967-fcde-4e4c-8d91-ca4d57a92732" d="M309.514 162.827l4.986 8.636 4.986-8.636h-9.972z"/><path class="bb821dbd-fdbb-4d93-88fd-ec728b745cf5" d="M131.5 83.463h104v64h-104z"/><path class="b2bf4e5d-1cd5-43f2-9121-dd2dbb546850" d="M235 83.963v63H132v-63h103m1-1H131v65h105v-65z"/><text class="eab8b212-b83e-4c22-ba1b-9a0d91b2dd10" transform="translate(156.198 112.51)">openshift-<tspan x="12.006" y="12">install</tspan></text><path class="a2a610b4-00c5-4ccc-8b16-a5d9a786bdae" d="M524 388.463h-1.5"/><path stroke-dasharray="2.945 2.945" stroke="#151515" stroke-linecap="round" stroke-linejoin="round" fill="none" d="M519.555 388.463H379.649"/><path class="a2a610b4-00c5-4ccc-8b16-a5d9a786bdae" d="M378.176 388.463h-1.5"/><path class="fd407967-fcde-4e4c-8d91-ca4d57a92732" d="M378.135 383.476l-8.635 4.987 8.635 4.986v-9.973z"/><path class="a2a610b4-00c5-4ccc-8b16-a5d9a786bdae" d="M584 420.963v1.5"/><path stroke-dasharray="2.969 2.969" stroke="#151515" stroke-linecap="round" stroke-linejoin="round" fill="none" d="M584 425.432v99.461"/><path class="a2a610b4-00c5-4ccc-8b16-a5d9a786bdae" d="M584 526.378v1.5"/><path class="fd407967-fcde-4e4c-8d91-ca4d57a92732" d="M579.014 526.419l4.986 8.635 4.986-8.635h-9.972z"/><path class="a2a610b4-00c5-4ccc-8b16-a5d9a786bdae" d="M569 421.509v1.5"/><path stroke-dasharray="2.892 2.892" stroke="#151515" stroke-linecap="round" stroke-linejoin="round" fill="none" d="M569 425.902v50.615"/><path class="a2a610b4-00c5-4ccc-8b16-a5d9a786bdae" d="M569 477.963v1.5h-1.5"/><path stroke-dasharray="3.005 3.005" stroke="#151515" stroke-linecap="round" stroke-linejoin="round" fill="none" d="M564.495 479.463H379.679"/><path class="a2a610b4-00c5-4ccc-8b16-a5d9a786bdae" d="M378.176 479.463h-1.5"/><path class="fd407967-fcde-4e4c-8d91-ca4d57a92732" d="M378.135 474.476l-8.635 4.987 8.635 4.986v-9.973z"/><path class="bb821dbd-fdbb-4d93-88fd-ec728b745cf5" d="M524.5 356.463h104v64h-104z"/><path class="b2bf4e5d-1cd5-43f2-9121-dd2dbb546850" d="M628 356.963v63H525v-63h103m1-1H524v65h105v-65z"/><text class="eab8b212-b83e-4c22-ba1b-9a0d91b2dd10" transform="translate(550.832 379.51)">Container<tspan x="7.304" y="12">images</tspan><tspan x="2.266" y="24">(remote)</tspan></text><path class="b2853862-9cc6-43da-bc95-5fb537a58ecc" d="M262 82.963h105v65H262z"/><text class="eab8b212-b83e-4c22-ba1b-9a0d91b2dd10" transform="translate(294.761 112.51)">RHCOS<tspan x="-21.131" y="12">(Image Service)</tspan></text><path class="b2853862-9cc6-43da-bc95-5fb537a58ecc" d="M262 173.963h105v65H262z"/><text class="eab8b212-b83e-4c22-ba1b-9a0d91b2dd10" transform="translate(294.761 203.51)">RHCOS<tspan x=".126" y="12">Ignition</tspan></text><path class="a2a610b4-00c5-4ccc-8b16-a5d9a786bdae" d="M314.5 248.639v16.324"/><path class="fd407967-fcde-4e4c-8d91-ca4d57a92732" d="M309.514 250.098l4.986-8.635 4.986 8.635h-9.972z"/><path class="b2853862-9cc6-43da-bc95-5fb537a58ecc" d="M262 264.963h105v65H262z"/><text class="eab8b212-b83e-4c22-ba1b-9a0d91b2dd10" transform="translate(288.359 294.51)">Bootstrap<tspan x="13.145" y="12">node</tspan></text><path class="a2a610b4-00c5-4ccc-8b16-a5d9a786bdae" d="M383.324 570.463H367"/><path class="fd407967-fcde-4e4c-8d91-ca4d57a92732" d="M381.865 565.476l8.635 4.987-8.635 4.986v-9.973z"/><path class="a2a610b4-00c5-4ccc-8b16-a5d9a786bdae" d="M514.324 570.463H498"/><path class="fd407967-fcde-4e4c-8d91-ca4d57a92732" d="M512.865 565.476l8.635 4.987-8.635 4.986v-9.973z"/><path class="a2a610b4-00c5-4ccc-8b16-a5d9a786bdae" d="M645.324 570.463H629"/><path class="fd407967-fcde-4e4c-8d91-ca4d57a92732" d="M643.865 565.476l8.635 4.987-8.635 4.986v-9.973z"/><path class="ac401783-6bc0-461e-b26b-0d43415578ec" d="M655 537.963h105v65H655z"/><text class="eab8b212-b83e-4c22-ba1b-9a0d91b2dd10" transform="translate(678.73 567.51)">Production<tspan x="-4.801" y="12">cluster ready</tspan></text><path class="ac401783-6bc0-461e-b26b-0d43415578ec" d="M655 467.963h105v65H655z"/><text class="eab8b212-b83e-4c22-ba1b-9a0d91b2dd10" transform="translate(676.536 497.51)">Day 2 install<tspan x="3.19" y="12">operations</tspan></text><path class="ac401783-6bc0-461e-b26b-0d43415578ec" d="M655 397.963h105v65H655z"/><text class="eab8b212-b83e-4c22-ba1b-9a0d91b2dd10" transform="translate(666.894 421.509)">Administrative/<tspan x="22.918" y="12">cluster</tspan><tspan x="19.178" y="24">lifecycle</tspan></text><path class="ac401783-6bc0-461e-b26b-0d43415578ec" d="M655 327.963h105v65H655z"/><text class="eab8b212-b83e-4c22-ba1b-9a0d91b2dd10" transform="translate(695.543 357.51)">User<tspan x="-14.211" y="12">workloads</tspan></text><path class="ac401783-6bc0-461e-b26b-0d43415578ec" d="M655 257.963h105v65H655z"/><text class="eab8b212-b83e-4c22-ba1b-9a0d91b2dd10" transform="translate(683.553 287.51)">Scale out<tspan x="-10.714" y="12">worker nodes</tspan></text><path class="ac401783-6bc0-461e-b26b-0d43415578ec" d="M655 187.963h105v65H655z"/><text class="eab8b212-b83e-4c22-ba1b-9a0d91b2dd10" transform="translate(678.73 217.51)">Production<tspan x="2.602" y="12">workloads</tspan></text><g><text transform="translate(671.212 625.322)" font-size="10" fill="#f3f3f3" font-family="RedHatText,&quot;Red Hat Text&quot;,Overpass,&quot;Helvetica Neue&quot;,Arial,sans-serif">151_OpenShift_0421</text><path fill="none" d="M0 602.963h760v40H0z"/></g><text class="eab8b212-b83e-4c22-ba1b-9a0d91b2dd10" transform="translate(28.664 29.724)">External resources / config file created / <tspan x="0" y="12">installer run</tspan></text><g><path class="bb821dbd-fdbb-4d93-88fd-ec728b745cf5" d="M.5 21.677h21v21H.5z"/><path class="b2bf4e5d-1cd5-43f2-9121-dd2dbb546850" d="M21 22.177v20H1v-20h20m1-1H0v22h22v-22z"/></g><g><text class="eab8b212-b83e-4c22-ba1b-9a0d91b2dd10" transform="translate(320.364 29.724)">Infra resources created / Bootstrap cluster lifecycle /<tspan x="0" y="12">production cluster created</tspan></text><path class="b2853862-9cc6-43da-bc95-5fb537a58ecc" d="M291.7 21.177h22v22h-22z"/></g><g><text class="eab8b212-b83e-4c22-ba1b-9a0d91b2dd10" transform="translate(674.498 35.725)">Cluster available</text><path class="ac401783-6bc0-461e-b26b-0d43415578ec" d="M645.834 21.177h22v22h-22z"/></g><path stroke="#d5d5d5" stroke-miterlimit="10" fill="none" d="M0 62.868h760"/><path class="b2853862-9cc6-43da-bc95-5fb537a58ecc" d="M262 537.963h105v65H262z"/><text class="eab8b212-b83e-4c22-ba1b-9a0d91b2dd10" transform="translate(301.344 555.509)">Build<tspan x="-15.24" y="12">production</tspan><tspan x="-12.259" y="24">cluster on</tspan><tspan x="-7.546" y="36">masters</tspan></text><path class="b2853862-9cc6-43da-bc95-5fb537a58ecc" d="M393 537.963h105v65H393z"/><text class="eab8b212-b83e-4c22-ba1b-9a0d91b2dd10" transform="translate(424.413 561.509)">Remove<tspan x="-16.543" y="12">boostrap node</tspan><tspan x="-7.419" y="24">and cluster</tspan></text><path class="b2853862-9cc6-43da-bc95-5fb537a58ecc" d="M524 537.963h105v65H524z"/><text class="eab8b212-b83e-4c22-ba1b-9a0d91b2dd10" transform="translate(546.927 567.51)">Add worker<tspan x="4.51" y="12">node (x3)</tspan></text></svg>