<svg id="fae5c4a3-828e-4196-9d69-b50c0e781900" data-name="Layer 1" xmlns="http://www.w3.org/2000/svg" width="760" height="495.122"><defs><style>.e722de04-723d-4ad4-8d2e-c40551657fb9{fill:#c4c4c4}.b9d8dd15-373e-40d6-9323-3c769ccfdd18{font-size:14px}.b14b84cd-937f-4e76-9714-2884dabd4a81,.b5910796-4ca2-4f84-88b6-95d8d771bbca,.b9d8dd15-373e-40d6-9323-3c769ccfdd18{fill:#151515}.a8f8ecb0-6543-4419-8b56-d13934fdfa4a,.b14b84cd-937f-4e76-9714-2884dabd4a81,.b5910796-4ca2-4f84-88b6-95d8d771bbca,.b9d8dd15-373e-40d6-9323-3c769ccfdd18{font-family:RedHatText,&quot;Red Hat Text&quot;,Overpass,&quot;Helvetica Neue&quot;,Arial,sans-serif;font-weight:700}.a8f8ecb0-6543-4419-8b56-d13934fdfa4a,.b5910796-4ca2-4f84-88b6-95d8d771bbca{font-weight:500}.bdbaba1f-fd53-4811-9fb6-b200ee241a61{fill:#e8e8e8}.b14b84cd-937f-4e76-9714-2884dabd4a81,.b5910796-4ca2-4f84-88b6-95d8d771bbca{font-size:11px}.b8dcbdca-1d44-446b-a25f-f9a68e008d32{fill:#fff}.f96f7701-e86f-4c50-8a94-840c81cdbccd{fill:#06c}</style></defs><path class="e722de04-723d-4ad4-8d2e-c40551657fb9" d="M216 20.963v433.159H1V20.963h215m1-1H0v435.159h217V19.963z"/><text class="b9d8dd15-373e-40d6-9323-3c769ccfdd18" transform="translate(20.001 51.751)">Nova<tspan x="0" y="16">availability zone 1</tspan><tspan class="a8f8ecb0-6543-4419-8b56-d13934fdfa4a"><tspan x="0" y="32">(AZ 1)</tspan></tspan></text><path class="bdbaba1f-fd53-4811-9fb6-b200ee241a61" d="M20 99.963h177v335H20z"/><text class="b14b84cd-937f-4e76-9714-2884dabd4a81" transform="translate(35 124.225)">OpenStack<tspan x="0" y="12">compute node</tspan></text><path class="b8dcbdca-1d44-446b-a25f-f9a68e008d32" d="M35.5 150.463h146v49h-146z"/><path class="f96f7701-e86f-4c50-8a94-840c81cdbccd" d="M181 150.963v48H36v-48h145m1-1H35v50h147v-50z"/><text class="b5910796-4ca2-4f84-88b6-95d8d771bbca" transform="translate(81.699 171.786)">OpenShift<tspan x="-9.031" y="12">control node 1</tspan></text><path class="b8dcbdca-1d44-446b-a25f-f9a68e008d32" d="M35 204.963h147v50H35z"/><text class="b5910796-4ca2-4f84-88b6-95d8d771bbca" transform="translate(81.699 227.286)">OpenShift<tspan x="-18.309" y="12">worker node VM 1</tspan></text><path class="b8dcbdca-1d44-446b-a25f-f9a68e008d32" d="M35 259.963h147v50H35z"/><text class="b5910796-4ca2-4f84-88b6-95d8d771bbca" transform="translate(81.699 282.286)">OpenShift<tspan x="-20.008" y="12">worker node VM 4</tspan></text><path class="b8dcbdca-1d44-446b-a25f-f9a68e008d32" d="M35 314.963h147v50H35z"/><text class="b5910796-4ca2-4f84-88b6-95d8d771bbca" transform="translate(81.698 337.286)">OpenShift<tspan x="-19.646" y="12">worker node VM 7</tspan></text><path class="b8dcbdca-1d44-446b-a25f-f9a68e008d32" d="M35 369.963h147v50H35z"/><text class="b5910796-4ca2-4f84-88b6-95d8d771bbca" transform="translate(81.698 392.286)">OpenShift<tspan x="-22.016" y="12">worker node VM 10</tspan></text><path class="e722de04-723d-4ad4-8d2e-c40551657fb9" d="M458 20.963v433.159H243V20.963h215m1-1H242v435.159h217V19.963z"/><text class="b9d8dd15-373e-40d6-9323-3c769ccfdd18" transform="translate(262.001 51.751)">Nova<tspan x="0" y="16">availability zone 2</tspan><tspan class="a8f8ecb0-6543-4419-8b56-d13934fdfa4a"><tspan x="0" y="32">(AZ 2)</tspan></tspan></text><path class="bdbaba1f-fd53-4811-9fb6-b200ee241a61" d="M262 99.963h177v335H262z"/><text class="b14b84cd-937f-4e76-9714-2884dabd4a81" transform="translate(277 124.225)">OpenStack<tspan x="0" y="12">compute node</tspan></text><path class="b8dcbdca-1d44-446b-a25f-f9a68e008d32" d="M277.5 150.463h146v49h-146z"/><path class="f96f7701-e86f-4c50-8a94-840c81cdbccd" d="M423 150.963v48H278v-48h145m1-1H277v50h147v-50z"/><text class="b5910796-4ca2-4f84-88b6-95d8d771bbca" transform="translate(323.699 171.786)">OpenShift<tspan x="-10.285" y="12">control node 2</tspan></text><path class="b8dcbdca-1d44-446b-a25f-f9a68e008d32" d="M277 204.963h147v50H277z"/><text class="b5910796-4ca2-4f84-88b6-95d8d771bbca" transform="translate(323.699 227.286)">OpenShift<tspan x="-19.563" y="12">worker node VM 2</tspan></text><path class="b8dcbdca-1d44-446b-a25f-f9a68e008d32" d="M277 259.963h147v50H277z"/><text class="b5910796-4ca2-4f84-88b6-95d8d771bbca" transform="translate(323.699 282.286)">OpenShift<tspan x="-19.679" y="12">worker node VM 5</tspan></text><path class="b8dcbdca-1d44-446b-a25f-f9a68e008d32" d="M277 314.963h147v50H277z"/><text class="b5910796-4ca2-4f84-88b6-95d8d771bbca" transform="translate(323.698 337.286)">OpenShift<tspan x="-19.866" y="12">worker node VM 8</tspan></text><path class="e722de04-723d-4ad4-8d2e-c40551657fb9" d="M700 20.963v433.159H485V20.963h215m1-1H484v435.159h217V19.963z"/><text class="b9d8dd15-373e-40d6-9323-3c769ccfdd18" transform="translate(504 51.751)">Nova<tspan x="0" y="16">availability zone 3</tspan><tspan class="a8f8ecb0-6543-4419-8b56-d13934fdfa4a"><tspan x="0" y="32">(AZ 3)</tspan></tspan></text><path class="bdbaba1f-fd53-4811-9fb6-b200ee241a61" d="M504 99.963h177v335H504z"/><text class="b14b84cd-937f-4e76-9714-2884dabd4a81" transform="translate(519 124.225)">OpenStack<tspan x="0" y="12">compute node</tspan></text><path class="b8dcbdca-1d44-446b-a25f-f9a68e008d32" d="M519.5 150.463h146v49h-146z"/><path class="f96f7701-e86f-4c50-8a94-840c81cdbccd" d="M665 150.963v48H520v-48h145m1-1H519v50h147v-50z"/><text class="b5910796-4ca2-4f84-88b6-95d8d771bbca" transform="translate(565.699 171.786)">OpenShift<tspan x="-10.488" y="12">control node 3</tspan></text><path class="b8dcbdca-1d44-446b-a25f-f9a68e008d32" d="M519 204.963h147v50H519z"/><text class="b5910796-4ca2-4f84-88b6-95d8d771bbca" transform="translate(565.699 227.286)">OpenShift<tspan x="-19.767" y="12">worker node VM 3</tspan></text><path class="b8dcbdca-1d44-446b-a25f-f9a68e008d32" d="M519 259.963h147v50H519z"/><text class="b5910796-4ca2-4f84-88b6-95d8d771bbca" transform="translate(565.699 282.286)">OpenShift<tspan x="-19.915" y="12">worker node VM 6</tspan></text><path class="b8dcbdca-1d44-446b-a25f-f9a68e008d32" d="M519 314.963h147v50H519z"/><text class="b5910796-4ca2-4f84-88b6-95d8d771bbca" transform="translate(565.698 337.286)">OpenShift<tspan x="-19.898" y="12">worker node VM 9</tspan></text><g><text transform="translate(612.212 477.482)" font-size="10" fill="#f3f3f3" font-family="RedHatText,&quot;Red Hat Text&quot;,Overpass,&quot;Helvetica Neue&quot;,Arial,sans-serif">151_OpenShift_0421</text><path fill="none" d="M0 455.122h760v40H0z"/></g></svg>