<svg id="b94c53a9-c76d-49f1-87fc-90a098838ebc" data-name="Layer 1" xmlns="http://www.w3.org/2000/svg" width="760" height="839"><defs><style>.bbb1e9fb-c2a4-450d-8ba4-fdb8f82e44e1{fill:#e8e8e8}.a3e1fdf1-ab55-49b5-8aeb-ab9392181abf,.a44cdf48-a26d-4d87-8a10-7192b5a4c78f,.a6b9f34c-0794-4561-8f67-0255b0037d43,.b8fec973-d6ef-4471-aab6-e63a4df6794c,.ba327ab3-3010-495a-b0e3-5fcdaf9c88a8,.ea07dff7-a714-4064-92e8-c1ddb00fc108,.ea7a7c20-711d-4bb3-bcdb-fd1d018c30e5,.f00c1221-3af8-424c-8936-9193ffc63d00,.fb7ea10c-52e9-4745-9d54-bd8fc522d8b2,.ff33aff0-653b-4717-9cb3-11723b3badd8{fill:none}.f00c1221-3af8-424c-8936-9193ffc63d00{stroke:#151515}.a3e1fdf1-ab55-49b5-8aeb-ab9392181abf,.a44cdf48-a26d-4d87-8a10-7192b5a4c78f,.a6b9f34c-0794-4561-8f67-0255b0037d43,.ea07dff7-a714-4064-92e8-c1ddb00fc108,.f00c1221-3af8-424c-8936-9193ffc63d00,.fb7ea10c-52e9-4745-9d54-bd8fc522d8b2,.ff33aff0-653b-4717-9cb3-11723b3badd8{stroke-linecap:round;stroke-linejoin:round}.a3d3ca6b-4116-4c33-bdb1-f79dc9882711,.af05ff71-eb11-4cce-87f3-ee48297d363d,.ba3f42a3-73f9-4e1b-b8eb-74ea3eef8ca6,.e7b55efa-5b37-4f79-991d-5ed18d307b78{fill:#151515}.b8fec973-d6ef-4471-aab6-e63a4df6794c{stroke:#c4c4c4;stroke-miterlimit:10}.ba327ab3-3010-495a-b0e3-5fcdaf9c88a8,.ea7a7c20-711d-4bb3-bcdb-fd1d018c30e5{stroke-miterlimit:10}.b8fec973-d6ef-4471-aab6-e63a4df6794c{stroke-width:1.5px}.a3e1fdf1-ab55-49b5-8aeb-ab9392181abf,.a44cdf48-a26d-4d87-8a10-7192b5a4c78f,.a6b9f34c-0794-4561-8f67-0255b0037d43,.fb7ea10c-52e9-4745-9d54-bd8fc522d8b2,.ff33aff0-653b-4717-9cb3-11723b3badd8{stroke:#adadad}.ba3f42a3-73f9-4e1b-b8eb-74ea3eef8ca6{font-size:14px}.a3d3ca6b-4116-4c33-bdb1-f79dc9882711,.af05ff71-eb11-4cce-87f3-ee48297d363d,.b2935bd0-15c5-4618-9cc5-0d6ea4320746,.ba3f42a3-73f9-4e1b-b8eb-74ea3eef8ca6{font-family:RedHatText,&quot;Red Hat Text&quot;,Overpass,&quot;Helvetica Neue&quot;,Arial,sans-serif;font-weight:700}.af05ff71-eb11-4cce-87f3-ee48297d363d,.b2935bd0-15c5-4618-9cc5-0d6ea4320746{font-weight:500}.a48c8dad-166c-403e-b79b-204328e0e141{fill:#f3f3f3}.a3d3ca6b-4116-4c33-bdb1-f79dc9882711,.af05ff71-eb11-4cce-87f3-ee48297d363d{font-size:11px}.b5b21558-f1d6-4d98-b71f-24b2a0350dcb{fill:#fff}.ea7a7c20-711d-4bb3-bcdb-fd1d018c30e5{stroke-width:16px}.e2c4787f-d232-4540-9d3d-70a3918001ae{fill:#06c}.a6b9f34c-0794-4561-8f67-0255b0037d43{stroke-dasharray:2.963 2.963}.a3e1fdf1-ab55-49b5-8aeb-ab9392181abf{stroke-dasharray:2.952 2.952}.eddf1a41-efb9-4cff-aeaa-293030db7376{font-family:RedHatText,&quot;Red Hat Text&quot;,Overpass,&quot;Helvetica Neue&quot;,Arial,sans-serif;font-weight:400}.ff33aff0-653b-4717-9cb3-11723b3badd8{stroke-dasharray:3 3}.fb7ea10c-52e9-4745-9d54-bd8fc522d8b2{stroke-dasharray:2.846 2.846}.ea07dff7-a714-4064-92e8-c1ddb00fc108{stroke:#262626}.ba327ab3-3010-495a-b0e3-5fcdaf9c88a8,.ea7a7c20-711d-4bb3-bcdb-fd1d018c30e5{stroke:#e8e8e8}.ba327ab3-3010-495a-b0e3-5fcdaf9c88a8{stroke-width:8px}</style></defs><path class="bbb1e9fb-c2a4-450d-8ba4-fdb8f82e44e1" d="M0 278.341h760V799H0zM117 40.011h643V208.67H117z"/><path class="f00c1221-3af8-424c-8936-9193ffc63d00" d="M188.5 158.285v32.823h55v97.833"/><path class="e7b55efa-5b37-4f79-991d-5ed18d307b78" d="M183.514 159.744l4.986-8.636 4.986 8.636h-9.972zM238.514 287.482l4.986 8.635 4.986-8.635h-9.972z"/><path class="f00c1221-3af8-424c-8936-9193ffc63d00" d="M173.5 158.285v280.88"/><path class="e7b55efa-5b37-4f79-991d-5ed18d307b78" d="M168.514 159.744l4.986-8.636 4.986 8.636h-9.972zM168.514 437.706l4.986 8.635 4.986-8.635h-9.972z"/><path class="b8fec973-d6ef-4471-aab6-e63a4df6794c" d="M425 88.67v65H255"/><path class="b8fec973-d6ef-4471-aab6-e63a4df6794c" d="M430 93.67v65H260"/><path class="a44cdf48-a26d-4d87-8a10-7192b5a4c78f" d="M348.48 543.5h396.5V784h-396.5z"/><path class="f00c1221-3af8-424c-8936-9193ffc63d00" d="M399.48 678.517v20.647"/><path class="e7b55efa-5b37-4f79-991d-5ed18d307b78" d="M394.494 679.976l4.986-8.635 4.986 8.635h-9.972zM394.494 697.705l4.986 8.636 4.986-8.636h-9.972z"/><path class="f00c1221-3af8-424c-8936-9193ffc63d00" d="M585.48 678.517v20.647"/><path class="e7b55efa-5b37-4f79-991d-5ed18d307b78" d="M580.494 679.976l4.986-8.635 4.986 8.635h-9.972zM580.494 697.705l4.986 8.636 4.986-8.636h-9.972z"/><text class="ba3f42a3-73f9-4e1b-b8eb-74ea3eef8ca6" transform="translate(15 780.799)">OpenStack<tspan class="b2935bd0-15c5-4618-9cc5-0d6ea4320746" x="77.027" y="0"> (overcloud)</tspan></text><path class="a48c8dad-166c-403e-b79b-204328e0e141" d="M357.98 708.841h377v65h-377z"/><text class="a3d3ca6b-4116-4c33-bdb1-f79dc9882711" transform="translate(514.212 744.294)">Ceph Storage</text><path stroke="#c4c4c4" stroke-linecap="round" stroke-linejoin="round" fill="none" d="M.5 40.011h103v168.568H.5z"/><text class="a3d3ca6b-4116-4c33-bdb1-f79dc9882711" transform="translate(0 27.776)">Install</text><path class="bbb1e9fb-c2a4-450d-8ba4-fdb8f82e44e1" d="M10.5 133.67h83v65h-83z"/><text class="af05ff71-eb11-4cce-87f3-ee48297d363d" transform="translate(22.698 163.217)">OpenShift<tspan x="6.193" y="12">installer</tspan></text><path class="bbb1e9fb-c2a4-450d-8ba4-fdb8f82e44e1" d="M10.5 63.67h83v65h-83z"/><text class="af05ff71-eb11-4cce-87f3-ee48297d363d" transform="translate(28.842 93.217)">director<tspan x="-13.073" y="12">(undercloud)</tspan></text><path class="b5b21558-f1d6-4d98-b71f-24b2a0350dcb" d="M357.98 628.841h83v40h-83z"/><path class="f00c1221-3af8-424c-8936-9193ffc63d00" d="M243.5 348.256v15.647"/><path class="e7b55efa-5b37-4f79-991d-5ed18d307b78" d="M238.514 349.715l4.986-8.636 4.986 8.636h-9.972zM238.514 362.444l4.986 8.635 4.986-8.635h-9.972z"/><path class="b5b21558-f1d6-4d98-b71f-24b2a0350dcb" d="M199.5 298.617h88v40h-88zM543.98 628.841h83v40h-83z"/><text class="af05ff71-eb11-4cce-87f3-ee48297d363d" transform="translate(572.225 651.888)">RGW</text><text class="af05ff71-eb11-4cce-87f3-ee48297d363d" transform="translate(387.875 651.888)">RBD</text><path class="a48c8dad-166c-403e-b79b-204328e0e141" d="M14.98 448.841h314v65h-314z"/><path stroke-width="16" stroke="#fff" stroke-miterlimit="10" fill="none" d="M49.5 201.17v29.909"/><path class="f00c1221-3af8-424c-8936-9193ffc63d00" d="M49.5 208.347v15.556"/><path class="e7b55efa-5b37-4f79-991d-5ed18d307b78" d="M44.514 209.806l4.986-8.636 4.986 8.636h-9.972zM44.514 222.444l4.986 8.635 4.986-8.635h-9.972z"/><path class="e2c4787f-d232-4540-9d3d-70a3918001ae" d="M732.98 555.841v121h-99v-121h99m2-2h-103v125h103v-125z"/><text class="a3d3ca6b-4116-4c33-bdb1-f79dc9882711" transform="translate(640.98 573.103)">Tech Preview</text><path class="f00c1221-3af8-424c-8936-9193ffc63d00" d="M585.48 439.165V148.67"/><path class="e7b55efa-5b37-4f79-991d-5ed18d307b78" d="M590.466 437.705l-4.986 8.636-4.986-8.636h9.972z"/><path class="f00c1221-3af8-424c-8936-9193ffc63d00" d="M683.48 439.165V193.67"/><path class="e7b55efa-5b37-4f79-991d-5ed18d307b78" d="M688.466 437.705l-4.986 8.636-4.986-8.636h9.972z"/><path class="f00c1221-3af8-424c-8936-9193ffc63d00" d="M683.48 688.517v10.647"/><path class="e7b55efa-5b37-4f79-991d-5ed18d307b78" d="M678.494 689.976l4.986-8.635 4.987 8.635h-9.973zM678.494 697.705l4.986 8.636 4.987-8.636h-9.973z"/><path class="f00c1221-3af8-424c-8936-9193ffc63d00" d="M243.5 423.517v15.647"/><path class="e7b55efa-5b37-4f79-991d-5ed18d307b78" d="M238.514 424.976l4.986-8.635 4.986 8.635h-9.972zM238.514 437.705l4.986 8.636 4.986-8.636h-9.972z"/><path class="b5b21558-f1d6-4d98-b71f-24b2a0350dcb" d="M641.98 628.841h83v40h-83z"/><text class="af05ff71-eb11-4cce-87f3-ee48297d363d" transform="translate(662.8 651.888)">CephFS</text><path class="b5b21558-f1d6-4d98-b71f-24b2a0350dcb" d="M641.98 583.841h83v40h-83z"/><text class="af05ff71-eb11-4cce-87f3-ee48297d363d" transform="translate(660.832 606.888)">Ganesha</text><path class="f00c1221-3af8-424c-8936-9193ffc63d00" d="M262.98 523.517v10.647"/><path class="e7b55efa-5b37-4f79-991d-5ed18d307b78" d="M257.994 524.976l4.986-8.635 4.987 8.635h-9.973zM257.994 532.705l4.986 8.636 4.987-8.636h-9.973z"/><path class="f00c1221-3af8-424c-8936-9193ffc63d00" d="M159.98 523.517v10.647"/><path class="e7b55efa-5b37-4f79-991d-5ed18d307b78" d="M154.994 524.976l4.986-8.635 4.986 8.635h-9.972zM154.994 532.705l4.986 8.636 4.986-8.636h-9.972z"/><path class="f00c1221-3af8-424c-8936-9193ffc63d00" d="M56.98 523.517v10.647"/><path class="e7b55efa-5b37-4f79-991d-5ed18d307b78" d="M51.994 524.976l4.986-8.635 4.987 8.635h-9.973zM51.994 532.705l4.986 8.636 4.987-8.636h-9.973z"/><path class="e2c4787f-d232-4540-9d3d-70a3918001ae" d="M303.98 543.841h25v65h-25z"/><text transform="rotate(90 -125.866 439.3)" fill="#fff" font-size="11" font-family="RedHatText,&quot;Red Hat Text&quot;,Overpass,&quot;Helvetica Neue&quot;,Arial,sans-serif" font-weight="500">NFS</text><text class="ba3f42a3-73f9-4e1b-b8eb-74ea3eef8ca6" transform="translate(132 65.712)">OpenShift <tspan x="75.054" y="0" letter-spacing="0" font-family="RedHatText,&quot;Red Hat Text&quot;,Overpass,&quot;Helvetica Neue&quot;,Arial,sans-serif" font-weight="500">(per tenant)</tspan></text><path class="a48c8dad-166c-403e-b79b-204328e0e141" d="M132 83.67h83v65h-83z"/><text class="af05ff71-eb11-4cce-87f3-ee48297d363d" transform="translate(159.349 113.217)">Kuryr<tspan x="2.381" y="12">SDN</tspan></text><path class="b5b21558-f1d6-4d98-b71f-24b2a0350dcb" d="M250 83.67h170v65H250z"/><text class="a3d3ca6b-4116-4c33-bdb1-f79dc9882711" transform="translate(260.02 102.932)">Namespace</text><path class="bbb1e9fb-c2a4-450d-8ba4-fdb8f82e44e1" d="M261.671 113.67h47v25h-47z"/><text class="af05ff71-eb11-4cce-87f3-ee48297d363d" transform="translate(274.617 129.217)">App</text><path class="bbb1e9fb-c2a4-450d-8ba4-fdb8f82e44e1" d="M312.02 113.67h47v25h-47z"/><text class="af05ff71-eb11-4cce-87f3-ee48297d363d" transform="translate(324.965 129.217)">App</text><path class="bbb1e9fb-c2a4-450d-8ba4-fdb8f82e44e1" d="M364.02 113.67h47v25h-47z"/><text class="af05ff71-eb11-4cce-87f3-ee48297d363d" transform="translate(376.965 129.217)">App</text><path class="b5b21558-f1d6-4d98-b71f-24b2a0350dcb" d="M641.98 83.67h83v65h-83z"/><text class="af05ff71-eb11-4cce-87f3-ee48297d363d" transform="translate(656.872 107.217)">Persistent<tspan x="7.782" y="12">volume</tspan><tspan x="9.361" y="24">(RWX)</tspan></text><path class="b5b21558-f1d6-4d98-b71f-24b2a0350dcb" d="M641.98 153.67h83v40h-83z"/><text class="af05ff71-eb11-4cce-87f3-ee48297d363d" transform="translate(656.322 176.717)">Manila CSI</text><path class="f00c1221-3af8-424c-8936-9193ffc63d00" d="M492.48 439.165V193.67"/><path class="e7b55efa-5b37-4f79-991d-5ed18d307b78" d="M497.467 437.705l-4.987 8.636-4.986-8.636h9.973z"/><path class="b5b21558-f1d6-4d98-b71f-24b2a0350dcb" d="M450.98 83.67h83v65h-83z"/><text class="af05ff71-eb11-4cce-87f3-ee48297d363d" transform="translate(465.872 107.217)">Persistent<tspan x="7.782" y="12">volume</tspan><tspan x="8.75" y="24">(RWO)</tspan></text><path class="b5b21558-f1d6-4d98-b71f-24b2a0350dcb" d="M450.98 153.67h83v40h-83z"/><text class="af05ff71-eb11-4cce-87f3-ee48297d363d" transform="translate(472.708 170.717)">Cinder-<tspan x="-9.229" y="12">provisioner</tspan></text><path class="b5b21558-f1d6-4d98-b71f-24b2a0350dcb" d="M543.98 83.67h83v65h-83z"/><text class="af05ff71-eb11-4cce-87f3-ee48297d363d" transform="translate(565.554 113.217)">Internal<tspan x="-.148" y="12">registry</tspan></text><path class="bbb1e9fb-c2a4-450d-8ba4-fdb8f82e44e1" d="M0 233.579h760v25H0z"/><text class="af05ff71-eb11-4cce-87f3-ee48297d363d" transform="translate(338.206 249.126)">OpenStack APIs</text><path class="b5b21558-f1d6-4d98-b71f-24b2a0350dcb" d="M15.48 543.841h83v65h-83z"/><path class="a44cdf48-a26d-4d87-8a10-7192b5a4c78f" d="M98.48 607.341v1.5h-1.5"/><path class="a6b9f34c-0794-4561-8f67-0255b0037d43" d="M94.017 608.841H18.462"/><path class="a44cdf48-a26d-4d87-8a10-7192b5a4c78f" d="M16.98 608.841h-1.5v-1.5"/><path class="a3e1fdf1-ab55-49b5-8aeb-ab9392181abf" d="M15.48 604.388v-57.571"/><path class="a44cdf48-a26d-4d87-8a10-7192b5a4c78f" d="M15.48 545.341v-1.5h1.5"/><path class="a6b9f34c-0794-4561-8f67-0255b0037d43" d="M19.943 543.841h75.556"/><path class="a44cdf48-a26d-4d87-8a10-7192b5a4c78f" d="M96.98 543.841h1.5v1.5"/><path class="a3e1fdf1-ab55-49b5-8aeb-ab9392181abf" d="M98.48 548.293v57.572"/><path class="f00c1221-3af8-424c-8936-9193ffc63d00" d="M211.804 576.341H201.48"/><path class="e7b55efa-5b37-4f79-991d-5ed18d307b78" d="M210.345 571.354l8.635 4.987-8.635 4.986v-9.973z"/><path class="f00c1221-3af8-424c-8936-9193ffc63d00" d="M108.804 576.341H98.48"/><path class="e7b55efa-5b37-4f79-991d-5ed18d307b78" d="M107.345 571.354l8.635 4.987-8.635 4.986v-9.973z"/><path class="b5b21558-f1d6-4d98-b71f-24b2a0350dcb" d="M222.48 544.84h81v63h-81z"/><path class="e2c4787f-d232-4540-9d3d-70a3918001ae" d="M302.48 545.841v61h-79v-61h79m2-2h-83v65h83v-65z"/><text class="af05ff71-eb11-4cce-87f3-ee48297d363d" transform="translate(30.839 573.465)">Bootstrap<tspan class="eddf1a41-efb9-4cff-aeaa-293030db7376"><tspan x="-3.965" y="12">(temporary)</tspan></tspan></text><path class="b5b21558-f1d6-4d98-b71f-24b2a0350dcb" d="M118.48 543.841h83v65h-83z"/><text class="af05ff71-eb11-4cce-87f3-ee48297d363d" transform="translate(133.702 573.465)">Controller<tspan x="2.849" y="12">VMs (x3)</tspan></text><text class="af05ff71-eb11-4cce-87f3-ee48297d363d" transform="translate(244.094 573.465)">Worker<tspan x="-4.543" y="12">VMs (x3)</tspan></text><path class="f00c1221-3af8-424c-8936-9193ffc63d00" d="M357.23 413.579v12.762h35.5v10.324"/><path class="e7b55efa-5b37-4f79-991d-5ed18d307b78" d="M387.744 435.206l4.986 8.635 4.986-8.635h-9.972z"/><path class="b5b21558-f1d6-4d98-b71f-24b2a0350dcb" d="M318.23 373.579h78v40h-78z"/><path class="a44cdf48-a26d-4d87-8a10-7192b5a4c78f" d="M396.23 412.079v1.5h-1.5"/><path class="ff33aff0-653b-4717-9cb3-11723b3badd8" d="M391.73 413.579h-70.5"/><path class="a44cdf48-a26d-4d87-8a10-7192b5a4c78f" d="M319.73 413.579h-1.5v-1.5"/><path class="fb7ea10c-52e9-4745-9d54-bd8fc522d8b2" d="M318.23 409.233v-32.731"/><path class="a44cdf48-a26d-4d87-8a10-7192b5a4c78f" d="M318.23 375.079v-1.5h1.5"/><path class="ff33aff0-653b-4717-9cb3-11723b3badd8" d="M322.73 373.579h70.5"/><path class="a44cdf48-a26d-4d87-8a10-7192b5a4c78f" d="M394.73 373.579h1.5v1.5"/><path class="fb7ea10c-52e9-4745-9d54-bd8fc522d8b2" d="M396.23 377.926v32.73"/><text class="af05ff71-eb11-4cce-87f3-ee48297d363d" transform="translate(337.618 390.703)">Ignition<tspan class="eddf1a41-efb9-4cff-aeaa-293030db7376"><tspan x="-10.494" y="12">(temporary)</tspan></tspan></text><g><path class="f00c1221-3af8-424c-8936-9193ffc63d00" d="M442.23 413.579v12.762h-34.531v10.324"/><path class="e7b55efa-5b37-4f79-991d-5ed18d307b78" d="M402.713 435.206l4.986 8.635 4.986-8.635h-9.972z"/></g><path class="b5b21558-f1d6-4d98-b71f-24b2a0350dcb" d="M403.23 373.579h78v40h-78z"/><text class="af05ff71-eb11-4cce-87f3-ee48297d363d" transform="translate(422.491 396.626)">RHCOS</text><path class="b5b21558-f1d6-4d98-b71f-24b2a0350dcb" d="M199.5 373.579h88v40h-88z"/><text class="af05ff71-eb11-4cce-87f3-ee48297d363d" transform="translate(228.48 390.626)">OVN-<tspan x="-5.01" y="12">Octavia</tspan></text><text class="af05ff71-eb11-4cce-87f3-ee48297d363d" transform="translate(223.469 321.664)">Octavia</text><path class="ea07dff7-a714-4064-92e8-c1ddb00fc108" d="M37.159 24.075l13.947 15.936"/><text class="a3d3ca6b-4116-4c33-bdb1-f79dc9882711" transform="translate(473.646 818.308)">Storage</text><path class="ea07dff7-a714-4064-92e8-c1ddb00fc108" d="M442.252 784l26.251 29.994"/><g><path class="f00c1221-3af8-424c-8936-9193ffc63d00" d="M224.676 116.17h15.648"/><path class="e7b55efa-5b37-4f79-991d-5ed18d307b78" d="M226.135 121.157l-8.635-4.987 8.635-4.986v9.973zM238.865 121.157l8.635-4.987-8.635-4.986v9.973z"/></g><circle class="e7b55efa-5b37-4f79-991d-5ed18d307b78" cx="132.48" cy="594.841" r="6.5"/><path class="e7b55efa-5b37-4f79-991d-5ed18d307b78" d="M235.48 589.841a5 5 0 11-5 5 5.006 5.006 0 015-5m0-1.5a6.5 6.5 0 106.5 6.5 6.5 6.5 0 00-6.5-6.5z"/><path class="ba327ab3-3010-495a-b0e3-5fcdaf9c88a8" d="M585.48 528.886v29.909"/><path class="ea7a7c20-711d-4bb3-bcdb-fd1d018c30e5" d="M683.48 529.899v21.546"/><path class="ba327ab3-3010-495a-b0e3-5fcdaf9c88a8" d="M399.48 529.899v29.909"/><g><path class="f00c1221-3af8-424c-8936-9193ffc63d00" d="M585.48 513.997v105.121"/><path class="e7b55efa-5b37-4f79-991d-5ed18d307b78" d="M580.494 617.659l4.986 8.635 4.987-8.635h-9.973z"/></g><g><path class="f00c1221-3af8-424c-8936-9193ffc63d00" d="M399.48 513.997v105.121"/><path class="e7b55efa-5b37-4f79-991d-5ed18d307b78" d="M394.494 617.659l4.986 8.635 4.987-8.635h-9.973z"/></g><g><path class="f00c1221-3af8-424c-8936-9193ffc63d00" d="M683.48 513.997v30.167"/><path class="e7b55efa-5b37-4f79-991d-5ed18d307b78" d="M678.494 542.705l4.986 8.636 4.987-8.636h-9.973z"/></g><path class="b5b21558-f1d6-4d98-b71f-24b2a0350dcb" d="M357.98 448.841h83v65h-83zM543.98 448.841h83v65h-83z"/><text class="af05ff71-eb11-4cce-87f3-ee48297d363d" transform="translate(567.969 472.387)">Object<tspan x="-2.376" y="12">storage</tspan><tspan x=".347" y="24">(swift)</tspan></text><path class="b5b21558-f1d6-4d98-b71f-24b2a0350dcb" d="M641.98 448.841h83v65h-83z"/><text class="a3d3ca6b-4116-4c33-bdb1-f79dc9882711" transform="translate(127.894 477.387)">Networking<tspan class="b2935bd0-15c5-4618-9cc5-0d6ea4320746"><tspan x="7.051" y="14">(neutron)</tspan></tspan></text><text class="af05ff71-eb11-4cce-87f3-ee48297d363d" transform="translate(383.613 472.387)">Image<tspan x="-4.89" y="12">Storage</tspan><tspan x="-5.676" y="24">(glance)</tspan></text><g><path class="f00c1221-3af8-424c-8936-9193ffc63d00" d="M492.48 678.517v20.647"/><path class="e7b55efa-5b37-4f79-991d-5ed18d307b78" d="M487.494 679.976l4.986-8.635 4.986 8.635h-9.972zM487.494 697.705l4.986 8.636 4.986-8.636h-9.972z"/></g><path class="b5b21558-f1d6-4d98-b71f-24b2a0350dcb" d="M450.98 628.841h83v40h-83z"/><text class="af05ff71-eb11-4cce-87f3-ee48297d363d" transform="translate(480.875 651.888)">RBD</text><path class="ba327ab3-3010-495a-b0e3-5fcdaf9c88a8" d="M492.48 529.899v29.909"/><g><path class="f00c1221-3af8-424c-8936-9193ffc63d00" d="M492.48 513.997v105.121"/><path class="e7b55efa-5b37-4f79-991d-5ed18d307b78" d="M487.494 617.659l4.986 8.635 4.987-8.635h-9.973z"/></g><path class="b5b21558-f1d6-4d98-b71f-24b2a0350dcb" d="M450.98 448.841h83v65h-83z"/><text class="af05ff71-eb11-4cce-87f3-ee48297d363d" transform="translate(478.125 472.387)">Block<tspan x="-6.402" y="12">Storage</tspan><tspan x="-6.33" y="24">(cinder)</tspan></text><path class="b5b21558-f1d6-4d98-b71f-24b2a0350dcb" d="M233.98 458.841h83v45h-83z"/><text class="af05ff71-eb11-4cce-87f3-ee48297d363d" transform="translate(263.001 484.388)">OVN</text><text class="af05ff71-eb11-4cce-87f3-ee48297d363d" transform="translate(665.083 472.388)">Shared<tspan x="-10.89" y="12">filesystems</tspan><tspan x="-2.998" y="24">(manila)</tspan></text><g><text transform="translate(671.212 821.36)" font-size="10" font-family="RedHatText,&quot;Red Hat Text&quot;,Overpass,&quot;Helvetica Neue&quot;,Arial,sans-serif" fill="#f3f3f3">151_OpenShift_0421</text><path fill="none" d="M0 799h760v40H0z"/></g><path class="ea7a7c20-711d-4bb3-bcdb-fd1d018c30e5" d="M341.445 648.841h11.547"/><g><path class="f00c1221-3af8-424c-8936-9193ffc63d00" d="M348.304 648.841H328.98"/><path class="e7b55efa-5b37-4f79-991d-5ed18d307b78" d="M346.845 643.854l8.635 4.987-8.635 4.986v-9.973z"/></g><g><path class="b5b21558-f1d6-4d98-b71f-24b2a0350dcb" d="M14.98 613.841h314v65h-314z"/><text class="a3d3ca6b-4116-4c33-bdb1-f79dc9882711" transform="translate(24.98 633.103)">Nova <tspan class="b2935bd0-15c5-4618-9cc5-0d6ea4320746" x="30.723" y="0">(hypervisor)</tspan></text><path class="bbb1e9fb-c2a4-450d-8ba4-fdb8f82e44e1" d="M24.98 643.841h94.5v25h-94.5z"/><text class="af05ff71-eb11-4cce-87f3-ee48297d363d" transform="translate(34.98 659.388)">AZ 1</text><circle class="e7b55efa-5b37-4f79-991d-5ed18d307b78" cx="86.98" cy="656.341" r="6.5"/><path class="e7b55efa-5b37-4f79-991d-5ed18d307b78" d="M102.98 651.341a5 5 0 11-5 5 5.006 5.006 0 015-5m0-1.5a6.5 6.5 0 106.5 6.5 6.5 6.5 0 00-6.5-6.5z"/><path class="bbb1e9fb-c2a4-450d-8ba4-fdb8f82e44e1" d="M124.48 643.841h94.5v25h-94.5z"/><text class="af05ff71-eb11-4cce-87f3-ee48297d363d" transform="translate(134.48 659.388)">AZ 2</text><circle class="e7b55efa-5b37-4f79-991d-5ed18d307b78" cx="186.48" cy="656.341" r="6.5"/><path class="e7b55efa-5b37-4f79-991d-5ed18d307b78" d="M202.48 651.341a5 5 0 11-5 5 5.006 5.006 0 015-5m0-1.5a6.5 6.5 0 106.5 6.5 6.5 6.5 0 00-6.5-6.5z"/><path class="bbb1e9fb-c2a4-450d-8ba4-fdb8f82e44e1" d="M223.98 643.841h94v25h-94z"/><text class="af05ff71-eb11-4cce-87f3-ee48297d363d" transform="translate(233.98 659.388)">AZ 3</text><circle class="e7b55efa-5b37-4f79-991d-5ed18d307b78" cx="285.48" cy="656.341" r="6.5"/><path class="e7b55efa-5b37-4f79-991d-5ed18d307b78" d="M301.48 651.341a5 5 0 11-5 5 5.006 5.006 0 015-5m0-1.5a6.5 6.5 0 106.5 6.5 6.5 6.5 0 00-6.5-6.5z"/></g></svg>