<svg id="e6af9699-605c-46b8-b40d-f1e2ad1d3ad8" data-name="artwork" xmlns="http://www.w3.org/2000/svg" width="760" height="441"><defs><style>.b571bde0-f30e-4e7e-b626-fd64a65d717f{fill:#e8e8e8}.f2934540-1553-4801-9847-e31d7665588c{fill:#fff}.aec72092-8e23-4414-af96-48ae409de5d4{font-size:11px}.a4bf0041-744d-4be7-a232-38d9278da785,.aec72092-8e23-4414-af96-48ae409de5d4{fill:#151515}.aec72092-8e23-4414-af96-48ae409de5d4{font-family:RedHatText,&quot;Red Hat Text&quot;,Overpass,&quot;Helvetica Neue&quot;,Arial,sans-serif;font-weight:500}.ae3d7f79-cd76-4dd7-856c-a68ab6ee2e42,.ae7559d8-c04b-41fe-b6dd-f425184067f7,.b6bfe012-45c1-4bd2-aa30-f06aa1b5fb55,.b8ea24a9-1996-412f-b8cf-ab037fa28603,.e9043015-c81e-4a34-b459-a6a348fde908{fill:none}.e9043015-c81e-4a34-b459-a6a348fde908{stroke:#151515}.ae3d7f79-cd76-4dd7-856c-a68ab6ee2e42,.ae7559d8-c04b-41fe-b6dd-f425184067f7,.b8ea24a9-1996-412f-b8cf-ab037fa28603,.e9043015-c81e-4a34-b459-a6a348fde908{stroke-linecap:round;stroke-linejoin:round}.a5a6aa74-2ec2-4b22-9b8e-541b96dec1ab{font-family:RedHatText,&quot;Red Hat Text&quot;,Overpass,&quot;Helvetica Neue&quot;,Arial,sans-serif}.ae3d7f79-cd76-4dd7-856c-a68ab6ee2e42,.ae7559d8-c04b-41fe-b6dd-f425184067f7,.b8ea24a9-1996-412f-b8cf-ab037fa28603{stroke:#adadad}.ae7559d8-c04b-41fe-b6dd-f425184067f7{stroke-dasharray:3.057 3.057}.ae3d7f79-cd76-4dd7-856c-a68ab6ee2e42{stroke-dasharray:3.003 3.003}.b6bfe012-45c1-4bd2-aa30-f06aa1b5fb55{stroke:#e8e8e8;stroke-miterlimit:10;stroke-width:16px}.a5a6aa74-2ec2-4b22-9b8e-541b96dec1ab{font-weight:400}</style></defs><path class="b571bde0-f30e-4e7e-b626-fd64a65d717f" d="M0 101.5h760V421H0z"/><path class="f2934540-1553-4801-9847-e31d7665588c" d="M20 351h165v50H20z"/><text class="aec72092-8e23-4414-af96-48ae409de5d4" transform="translate(61.074 378.998)">Compute node 1</text><path class="f2934540-1553-4801-9847-e31d7665588c" d="M201.667 351h165v50h-165z"/><text class="aec72092-8e23-4414-af96-48ae409de5d4" transform="translate(241.488 378.998)">Compute node 2</text><path class="f2934540-1553-4801-9847-e31d7665588c" d="M383.333 351h165v50h-165z"/><text class="aec72092-8e23-4414-af96-48ae409de5d4" transform="translate(422.95 378.998)">Compute node 3</text><path class="e9043015-c81e-4a34-b459-a6a348fde908" d="M284.167 341.305v-29.81"/><path class="a4bf0041-744d-4be7-a232-38d9278da785" d="M289.153 339.846l-4.986 8.635-4.987-8.635h9.973z"/><path class="e9043015-c81e-4a34-b459-a6a348fde908" d="M102.5 341.305V326.38h171.667v-14.885"/><path class="a4bf0041-744d-4be7-a232-38d9278da785" d="M107.486 339.846l-4.986 8.635-4.986-8.635h9.972z"/><path class="e9043015-c81e-4a34-b459-a6a348fde908" d="M465.833 341.305V326.38H294.167v-14.885"/><path class="a4bf0041-744d-4be7-a232-38d9278da785" d="M470.819 339.846l-4.986 8.635-4.986-8.635h9.972z"/><text transform="translate(650.792 403.36)" font-family="RedHatText,&quot;Red Hat Text&quot;,Overpass,&quot;Helvetica Neue&quot;,Arial,sans-serif" font-size="10" fill="#dcdcdc">150_OpenShift_1021</text><path fill="none" d="M0 381h760v40H0z"/><path class="b8ea24a9-1996-412f-b8cf-ab037fa28603" d="M194.083 201.495h-1.5v1.5"/><path class="ae7559d8-c04b-41fe-b6dd-f425184067f7" d="M192.583 206.052v102.414"/><path class="b8ea24a9-1996-412f-b8cf-ab037fa28603" d="M192.583 309.995v1.5h1.5"/><path class="ae3d7f79-cd76-4dd7-856c-a68ab6ee2e42" d="M197.086 311.495h538.996"/><path class="b8ea24a9-1996-412f-b8cf-ab037fa28603" d="M737.583 311.495h1.5v-1.5"/><path class="ae7559d8-c04b-41fe-b6dd-f425184067f7" d="M739.083 306.938V204.523"/><path class="b8ea24a9-1996-412f-b8cf-ab037fa28603" d="M739.083 202.995v-1.5h-1.5"/><path class="ae3d7f79-cd76-4dd7-856c-a68ab6ee2e42" d="M734.581 201.495H195.585"/><text transform="translate(20 133.288)" font-size="14" font-family="RedHatText,&quot;Red Hat Text&quot;,Overpass,&quot;Helvetica Neue&quot;,Arial,sans-serif" font-weight="700" fill="#151515">Datacenter <tspan font-size="12" font-weight="500"><tspan x="0" y="14">(cloud/on-premise)</tspan></tspan></text><path class="b6bfe012-45c1-4bd2-aa30-f06aa1b5fb55" d="M465.833 208.995v-18.748M284.167 209.741v-18.748M647.5 208.995v-18.748"/><g><path class="e9043015-c81e-4a34-b459-a6a348fde908" d="M465.833 201.671v-30.319"/><path class="a4bf0041-744d-4be7-a232-38d9278da785" d="M470.82 200.212l-4.987 8.635-4.986-8.635h9.973z"/></g><g><path class="f2934540-1553-4801-9847-e31d7665588c" d="M383.333 211.495h165v90h-165z"/><text class="aec72092-8e23-4414-af96-48ae409de5d4" transform="translate(393.334 233.587)">Controller node 2<tspan class="a5a6aa74-2ec2-4b22-9b8e-541b96dec1ab"><tspan x="0" y="12">Control plane</tspan></tspan></text><path class="b571bde0-f30e-4e7e-b626-fd64a65d717f" d="M393.333 266.495h145v25h-145z"/><text class="aec72092-8e23-4414-af96-48ae409de5d4" transform="translate(452.906 282.042)">FCOS</text></g><g><path class="f2934540-1553-4801-9847-e31d7665588c" d="M201.667 211.495h165v90h-165z"/><text class="aec72092-8e23-4414-af96-48ae409de5d4" transform="translate(211.668 233.587)">Controller node 1<tspan class="a5a6aa74-2ec2-4b22-9b8e-541b96dec1ab"><tspan x="0" y="12">Control plane</tspan></tspan></text><path class="b571bde0-f30e-4e7e-b626-fd64a65d717f" d="M211.667 266.495h145v25h-145z"/><text class="aec72092-8e23-4414-af96-48ae409de5d4" transform="translate(266.239 282.042)">FCOS</text></g><path class="f2934540-1553-4801-9847-e31d7665588c" d="M565 211.495h165v90H565z"/><text class="aec72092-8e23-4414-af96-48ae409de5d4" transform="translate(575.001 233.587)">Controller node 3<tspan class="a5a6aa74-2ec2-4b22-9b8e-541b96dec1ab"><tspan x="0" y="12">Control plane</tspan></tspan></text><path class="b571bde0-f30e-4e7e-b626-fd64a65d717f" d="M575 266.495h145v25H575z"/><text class="aec72092-8e23-4414-af96-48ae409de5d4" transform="translate(634.572 282.042)">FCOS</text><g><path class="f2934540-1553-4801-9847-e31d7665588c" d="M383.833 122h164v49h-164z"/><path d="M547.333 122.5v48h-163v-48h163m1-1h-165v50h165v-50z" fill="#06c"/></g><path class="b571bde0-f30e-4e7e-b626-fd64a65d717f" d="M383.333 16h165v50h-165z"/><text class="aec72092-8e23-4414-af96-48ae409de5d4" transform="translate(425.459 149.547)">Bootstrap node</text><text transform="translate(470.846 88.743)" font-family="RedHatText,&quot;Red Hat Text&quot;,Overpass,&quot;Helvetica Neue&quot;,Arial,sans-serif" font-style="italic" fill="#151515" font-size="11">Create</text><g><path class="e9043015-c81e-4a34-b459-a6a348fde908" d="M465.833 111.824V65.987"/><path class="a4bf0041-744d-4be7-a232-38d9278da785" d="M470.82 110.365L465.833 119l-4.986-8.635h9.973z"/></g><text class="aec72092-8e23-4414-af96-48ae409de5d4" transform="translate(425.2 44.047)">Cluster installer</text><g><path class="e9043015-c81e-4a34-b459-a6a348fde908" d="M284.167 201.671v-14.925h171.666v-15.394"/><path class="a4bf0041-744d-4be7-a232-38d9278da785" d="M289.153 200.212l-4.986 8.635-4.987-8.635h9.973z"/></g><g><path class="e9043015-c81e-4a34-b459-a6a348fde908" d="M647.5 201.671v-14.925H475.833v-15.394"/><path class="a4bf0041-744d-4be7-a232-38d9278da785" d="M652.486 200.212l-4.986 8.635-4.987-8.635h9.973z"/></g></svg>