<svg id="fd5f9451-b839-4786-b58a-02899498fb18" data-name="artwork" xmlns="http://www.w3.org/2000/svg" width="760" height="505.659"><defs><style>.aa913a36-31c7-40df-9680-79a559605f01,.ac627bc6-0e49-43eb-aff4-a9da706c1923,.b70b5a11-303b-414f-b7b6-0a04b32aec6b,.e5edc1e8-b3c4-40e2-952d-2af8adf581c9,.fa544642-5e4f-4254-91dc-578aeed5ca41,.fe32b461-433d-43e1-9551-9cf3d50f2d30{fill:none}.aa913a36-31c7-40df-9680-79a559605f01,.ac627bc6-0e49-43eb-aff4-a9da706c1923,.b70b5a11-303b-414f-b7b6-0a04b32aec6b,.e5edc1e8-b3c4-40e2-952d-2af8adf581c9,.fa544642-5e4f-4254-91dc-578aeed5ca41{stroke:#c4c4c4}.aa913a36-31c7-40df-9680-79a559605f01,.ac627bc6-0e49-43eb-aff4-a9da706c1923,.b70b5a11-303b-414f-b7b6-0a04b32aec6b,.e5edc1e8-b3c4-40e2-952d-2af8adf581c9,.fa544642-5e4f-4254-91dc-578aeed5ca41,.fe32b461-433d-43e1-9551-9cf3d50f2d30{stroke-linecap:round;stroke-linejoin:round}.aa913a36-31c7-40df-9680-79a559605f01{stroke-dasharray:2.976 2.976}.ac627bc6-0e49-43eb-aff4-a9da706c1923{stroke-dasharray:2.979 2.979}.fa544642-5e4f-4254-91dc-578aeed5ca41{stroke-dasharray:2.92 2.92}.e5edc1e8-b3c4-40e2-952d-2af8adf581c9{stroke-dasharray:3.015 3.015}.a25d063d-b410-4e21-9984-afcf4c93ba5f{fill:#06c}.a23e47e6-8e84-40fb-a62f-9efa52f21701{font-size:11px;font-family:RedHatText,&quot;Red Hat Text&quot;,Overpass,&quot;Helvetica Neue&quot;,Arial,sans-serif;font-weight:500}.b86d62df-887e-4fb2-8e68-e5c3a11698d7{fill:#fff}.a23e47e6-8e84-40fb-a62f-9efa52f21701,.f4555d58-0db8-4a53-ab70-607d47be3cca{fill:#151515}.fe32b461-433d-43e1-9551-9cf3d50f2d30{stroke:#151515}.bc3a3d2a-e831-4baf-abdd-581901365d2f{fill:#e8e8e8}.a7ee6015-6de7-4f84-a344-ab47cfd61e24{font-family:RedHatText,&quot;Red Hat Text&quot;,Overpass,&quot;Helvetica Neue&quot;,Arial,sans-serif;font-weight:400}</style></defs><path class="b70b5a11-303b-414f-b7b6-0a04b32aec6b" d="M308.487 273.5V272h-1.5"/><path class="aa913a36-31c7-40df-9680-79a559605f01" d="M304.011 272H120.975"/><path class="b70b5a11-303b-414f-b7b6-0a04b32aec6b" d="M119.487 272h-1.5v1.5"/><path class="ac627bc6-0e49-43eb-aff4-a9da706c1923" d="M117.987 276.479V394.17"/><path class="b70b5a11-303b-414f-b7b6-0a04b32aec6b" d="M117.987 395.659v1.5h1.5"/><path class="aa913a36-31c7-40df-9680-79a559605f01" d="M122.464 397.159h183.035"/><path class="b70b5a11-303b-414f-b7b6-0a04b32aec6b" d="M306.987 397.159h1.5v-1.5"/><path class="ac627bc6-0e49-43eb-aff4-a9da706c1923" d="M308.487 392.68V274.99"/><path class="b70b5a11-303b-414f-b7b6-0a04b32aec6b" d="M308.487 419v-1.5h-1.5"/><path class="aa913a36-31c7-40df-9680-79a559605f01" d="M304.011 417.5H120.975"/><path class="b70b5a11-303b-414f-b7b6-0a04b32aec6b" d="M119.487 417.5h-1.5v1.5"/><path class="fa544642-5e4f-4254-91dc-578aeed5ca41" d="M117.987 421.92v62.779"/><path class="b70b5a11-303b-414f-b7b6-0a04b32aec6b" d="M117.987 486.159v1.5h1.5"/><path class="aa913a36-31c7-40df-9680-79a559605f01" d="M122.464 487.659h183.035"/><path class="b70b5a11-303b-414f-b7b6-0a04b32aec6b" d="M306.987 487.659h1.5v-1.5"/><path class="fa544642-5e4f-4254-91dc-578aeed5ca41" d="M308.487 483.239V420.46"/><path class="b70b5a11-303b-414f-b7b6-0a04b32aec6b" d="M308.487 18v-1.5h-1.5"/><path class="aa913a36-31c7-40df-9680-79a559605f01" d="M304.011 16.5H120.975"/><path class="b70b5a11-303b-414f-b7b6-0a04b32aec6b" d="M119.487 16.5h-1.5V18"/><path class="e5edc1e8-b3c4-40e2-952d-2af8adf581c9" d="M117.987 21.015v227.637"/><path class="b70b5a11-303b-414f-b7b6-0a04b32aec6b" d="M117.987 250.159v1.5h1.5"/><path class="aa913a36-31c7-40df-9680-79a559605f01" d="M122.464 251.659h183.035"/><path class="b70b5a11-303b-414f-b7b6-0a04b32aec6b" d="M306.987 251.659h1.5v-1.5"/><path class="e5edc1e8-b3c4-40e2-952d-2af8adf581c9" d="M308.487 247.144V19.508"/><path class="a25d063d-b410-4e21-9984-afcf4c93ba5f" d="M358.734 164.159h170.5v50h-170.5z"/><text transform="translate(396.256 192.206)" fill="#fff" font-size="11" font-family="RedHatText,&quot;Red Hat Text&quot;,Overpass,&quot;Helvetica Neue&quot;,Arial,sans-serif" font-weight="500">install-config.yaml</text><path class="b86d62df-887e-4fb2-8e68-e5c3a11698d7" d="M590 227.58h169.5v49H590z"/><path class="a25d063d-b410-4e21-9984-afcf4c93ba5f" d="M759 228.08v48H590.5v-48H759m1-1H589.5v50H760v-50z"/><text class="a23e47e6-8e84-40fb-a62f-9efa52f21701" transform="translate(634.375 255.127)">Bootstrap node</text><path class="b86d62df-887e-4fb2-8e68-e5c3a11698d7" d="M590 282.58h169.5v49H590z"/><path class="a25d063d-b410-4e21-9984-afcf4c93ba5f" d="M759 283.08v48H590.5v-48H759m1-1H589.5v50H760v-50z"/><text class="a23e47e6-8e84-40fb-a62f-9efa52f21701" transform="translate(639.809 310.127)">Control plane</text><path class="b86d62df-887e-4fb2-8e68-e5c3a11698d7" d="M590 337.58h169.5v49H590z"/><path class="a25d063d-b410-4e21-9984-afcf4c93ba5f" d="M759 338.08v48H590.5v-48H759m1-1H589.5v50H760v-50z"/><text class="a23e47e6-8e84-40fb-a62f-9efa52f21701" transform="translate(636.443 365.127)">Compute node</text><path class="fe32b461-433d-43e1-9551-9cf3d50f2d30" d="M323.639 189.159h25.678"/><path class="f4555d58-0db8-4a53-ab70-607d47be3cca" d="M347.858 194.146l8.636-4.987-8.636-4.986v9.973z"/><path class="fe32b461-433d-43e1-9551-9cf3d50f2d30" d="M529.494 307.159h50.33"/><path class="f4555d58-0db8-4a53-ab70-607d47be3cca" d="M578.365 312.146l8.635-4.987-8.635-4.986v9.973z"/><g><path class="fe32b461-433d-43e1-9551-9cf3d50f2d30" d="M444.244 214.159v58.244"/><path class="f4555d58-0db8-4a53-ab70-607d47be3cca" d="M439.257 270.944l4.987 8.636 4.986-8.636h-9.973z"/></g><path class="fe32b461-433d-43e1-9551-9cf3d50f2d30" d="M298.467 106.659h25.172M298.467 161.659h25.172M298.467 216.659h25.172M298.467 307.159h25.172M298.467 362.159h25.172M298.467 452.58h25.172V51.659h-25.172"/><g><path class="fe32b461-433d-43e1-9551-9cf3d50f2d30" d="M579.824 362.08h-15.496v-110h15.496"/><path class="f4555d58-0db8-4a53-ab70-607d47be3cca" d="M578.365 357.093L587 362.08l-8.635 4.986v-9.973zM578.365 257.066L587 252.08l-8.635-4.987v9.973z"/></g><path class="bc3a3d2a-e831-4baf-abdd-581901365d2f" d="M127.967 26.659h170.5v50h-170.5z"/><text class="a23e47e6-8e84-40fb-a62f-9efa52f21701" transform="translate(173.997 47.783)">Cluster name<tspan class="a7ee6015-6de7-4f84-a344-ab47cfd61e24"><tspan x="15.906" y="14">cluster1</tspan></tspan></text><path class="bc3a3d2a-e831-4baf-abdd-581901365d2f" d="M127.967 81.659h170.5v50h-170.5z"/><text class="a23e47e6-8e84-40fb-a62f-9efa52f21701" transform="translate(175.267 102.783)">Base domain<tspan class="a7ee6015-6de7-4f84-a344-ab47cfd61e24"><tspan x="-15.058" y="14">companyname.com</tspan></tspan></text><path class="bc3a3d2a-e831-4baf-abdd-581901365d2f" d="M127.967 136.659h170.5v50h-170.5z"/><text class="a23e47e6-8e84-40fb-a62f-9efa52f21701" transform="translate(181.02 157.783)">Pull secret<tspan class="a7ee6015-6de7-4f84-a344-ab47cfd61e24"><tspan x="-34.17" y="14">from console.redhat.com</tspan></tspan></text><path class="bc3a3d2a-e831-4baf-abdd-581901365d2f" d="M127.967 191.659h170.5v50h-170.5z"/><text class="a23e47e6-8e84-40fb-a62f-9efa52f21701" transform="translate(186.79 212.783)">SSH key<tspan class="a7ee6015-6de7-4f84-a344-ab47cfd61e24"><tspan x="-15.234" y="14">your public key</tspan></tspan></text><path class="bc3a3d2a-e831-4baf-abdd-581901365d2f" d="M127.967 282.159h170.5v50h-170.5z"/><text class="a23e47e6-8e84-40fb-a62f-9efa52f21701" transform="translate(185.266 303.283)">Platform<tspan class="a7ee6015-6de7-4f84-a344-ab47cfd61e24"><tspan x="-22.995" y="14">infrastructure type</tspan></tspan></text><path class="bc3a3d2a-e831-4baf-abdd-581901365d2f" d="M127.967 337.159h170.5v50h-170.5z"/><text class="a23e47e6-8e84-40fb-a62f-9efa52f21701" transform="translate(173.893 358.283)">Platform info<tspan class="a7ee6015-6de7-4f84-a344-ab47cfd61e24"><tspan x="-15.642" y="14">username/password</tspan></tspan></text><path class="bc3a3d2a-e831-4baf-abdd-581901365d2f" d="M127.967 427.659h170.5v50h-170.5z"/><text class="a23e47e6-8e84-40fb-a62f-9efa52f21701" transform="translate(163.097 448.783)">Node configuration<tspan class="a7ee6015-6de7-4f84-a344-ab47cfd61e24"><tspan x="-15.773" y="14">control plane and compute</tspan></tspan></text><g><text class="a23e47e6-8e84-40fb-a62f-9efa52f21701" transform="translate(12.265 280.761)">Specific to your<tspan x="8.943" y="14">infrastructure</tspan></text><path class="fe32b461-433d-43e1-9551-9cf3d50f2d30" d="M98.456 279.698l18.967 17.557"/></g><g><text class="a23e47e6-8e84-40fb-a62f-9efa52f21701" transform="translate(20.492 426.262)">Customize for<tspan x="-.088" y="14">your workload</tspan></text><path class="fe32b461-433d-43e1-9551-9cf3d50f2d30" d="M98.456 425.199l18.967 17.557"/></g><g><text class="a23e47e6-8e84-40fb-a62f-9efa52f21701" transform="translate(20.746 25.262)">Config data in<tspan x="-20.746" y="14">every delpoyment</tspan></text><path class="fe32b461-433d-43e1-9551-9cf3d50f2d30" d="M98.456 24.199l18.967 17.557"/></g><g><path class="b86d62df-887e-4fb2-8e68-e5c3a11698d7" d="M359.494 282.58h169.5v49h-169.5z"/><path class="a25d063d-b410-4e21-9984-afcf4c93ba5f" d="M528.494 283.08v48h-168.5v-48h168.5m1-1h-170.5v50h170.5v-50z"/><text class="a23e47e6-8e84-40fb-a62f-9efa52f21701" transform="translate(424.631 310.127)">Ignition</text></g><g><text transform="translate(667.672 488.019)" font-size="10" fill="#f3f3f3" font-family="RedHatText,&quot;Red Hat Text&quot;,Overpass,&quot;Helvetica Neue&quot;,Arial,sans-serif">150_OpenShift_0921</text><path fill="none" d="M0 465.659h760v40H0z"/></g></svg>