<svg id="a251467c-a5d0-4a84-87be-f1349c37b25a" data-name="artwork" xmlns="http://www.w3.org/2000/svg" width="760" height="441"><defs><style>.a1c36078-6eec-454e-90a1-6ac4ca07c7a0{fill:#e8e8e8}.a08ec2b8-f7ab-4f76-bcd7-218d8c7cddc0{fill:#fff}.e2d2f481-2dc9-4cc3-a15f-072d1f29e0bf{font-size:11px}.ab3bdb85-fc3d-4055-89fa-39b2d9c386e9,.e2d2f481-2dc9-4cc3-a15f-072d1f29e0bf{fill:#151515}.e2d2f481-2dc9-4cc3-a15f-072d1f29e0bf{font-family:RedHatText,&quot;Red Hat Text&quot;,Overpass,&quot;Helvetica Neue&quot;,Arial,sans-serif;font-weight:500}.a41354ff-1858-48e4-9bf1-18bd9be7e4c2,.ad9522ce-77cb-4dd4-aa82-de4f694c1342,.bc789231-edd7-411e-9d7c-7bbd34a79074,.f20a107e-db63-4fc0-92a3-54d26dfd5864,.f81f3611-53e9-46f7-8141-2e443ebcb417{fill:none}.ad9522ce-77cb-4dd4-aa82-de4f694c1342{stroke:#151515}.a41354ff-1858-48e4-9bf1-18bd9be7e4c2,.ad9522ce-77cb-4dd4-aa82-de4f694c1342,.bc789231-edd7-411e-9d7c-7bbd34a79074,.f20a107e-db63-4fc0-92a3-54d26dfd5864{stroke-linecap:round;stroke-linejoin:round}.bbd9197f-a90a-4817-83d2-fce1727289a3{font-family:RedHatText,&quot;Red Hat Text&quot;,Overpass,&quot;Helvetica Neue&quot;,Arial,sans-serif}.a41354ff-1858-48e4-9bf1-18bd9be7e4c2,.bc789231-edd7-411e-9d7c-7bbd34a79074,.f20a107e-db63-4fc0-92a3-54d26dfd5864{stroke:#adadad}.bc789231-edd7-411e-9d7c-7bbd34a79074{stroke-dasharray:3.057 3.057}.a41354ff-1858-48e4-9bf1-18bd9be7e4c2{stroke-dasharray:3.003 3.003}.f81f3611-53e9-46f7-8141-2e443ebcb417{stroke:#e8e8e8;stroke-miterlimit:10;stroke-width:16px}.bbd9197f-a90a-4817-83d2-fce1727289a3{font-weight:400}</style></defs><path class="a1c36078-6eec-454e-90a1-6ac4ca07c7a0" d="M0 101.5h760V421H0z"/><path class="a08ec2b8-f7ab-4f76-bcd7-218d8c7cddc0" d="M20 351h165v50H20z"/><text class="e2d2f481-2dc9-4cc3-a15f-072d1f29e0bf" transform="translate(61.074 378.998)">Compute node 1</text><path class="a08ec2b8-f7ab-4f76-bcd7-218d8c7cddc0" d="M201.667 351h165v50h-165z"/><text class="e2d2f481-2dc9-4cc3-a15f-072d1f29e0bf" transform="translate(241.488 378.998)">Compute node 2</text><path class="a08ec2b8-f7ab-4f76-bcd7-218d8c7cddc0" d="M383.333 351h165v50h-165z"/><text class="e2d2f481-2dc9-4cc3-a15f-072d1f29e0bf" transform="translate(422.95 378.998)">Compute node 3</text><path class="ad9522ce-77cb-4dd4-aa82-de4f694c1342" d="M284.167 341.305v-29.81"/><path class="ab3bdb85-fc3d-4055-89fa-39b2d9c386e9" d="M289.153 339.846l-4.986 8.635-4.987-8.635h9.973z"/><path class="ad9522ce-77cb-4dd4-aa82-de4f694c1342" d="M102.5 341.305V326.38h171.667v-14.885"/><path class="ab3bdb85-fc3d-4055-89fa-39b2d9c386e9" d="M107.486 339.846l-4.986 8.635-4.986-8.635h9.972z"/><path class="ad9522ce-77cb-4dd4-aa82-de4f694c1342" d="M465.833 341.305V326.38H294.167v-14.885"/><path class="ab3bdb85-fc3d-4055-89fa-39b2d9c386e9" d="M470.819 339.846l-4.986 8.635-4.986-8.635h9.972z"/><text transform="translate(647.672 403.36)" font-family="RedHatText,&quot;Red Hat Text&quot;,Overpass,&quot;Helvetica Neue&quot;,Arial,sans-serif" font-size="10" fill="#dcdcdc">150_OpenShift_0921</text><path fill="none" d="M0 381h760v40H0z"/><path class="f20a107e-db63-4fc0-92a3-54d26dfd5864" d="M194.083 201.495h-1.5v1.5"/><path class="bc789231-edd7-411e-9d7c-7bbd34a79074" d="M192.583 206.052v102.414"/><path class="f20a107e-db63-4fc0-92a3-54d26dfd5864" d="M192.583 309.995v1.5h1.5"/><path class="a41354ff-1858-48e4-9bf1-18bd9be7e4c2" d="M197.086 311.495h538.996"/><path class="f20a107e-db63-4fc0-92a3-54d26dfd5864" d="M737.583 311.495h1.5v-1.5"/><path class="bc789231-edd7-411e-9d7c-7bbd34a79074" d="M739.083 306.938V204.523"/><path class="f20a107e-db63-4fc0-92a3-54d26dfd5864" d="M739.083 202.995v-1.5h-1.5"/><path class="a41354ff-1858-48e4-9bf1-18bd9be7e4c2" d="M734.581 201.495H195.585"/><text transform="translate(20 133.288)" font-size="14" font-family="RedHatText,&quot;Red Hat Text&quot;,Overpass,&quot;Helvetica Neue&quot;,Arial,sans-serif" font-weight="700" fill="#151515">Datacenter <tspan font-size="12" font-weight="500"><tspan x="0" y="14">(cloud/on-premise)</tspan></tspan></text><path class="f81f3611-53e9-46f7-8141-2e443ebcb417" d="M465.833 208.995v-18.748M284.167 209.741v-18.748M647.5 208.995v-18.748"/><g><path class="ad9522ce-77cb-4dd4-aa82-de4f694c1342" d="M465.833 201.671v-30.319"/><path class="ab3bdb85-fc3d-4055-89fa-39b2d9c386e9" d="M470.82 200.212l-4.987 8.635-4.986-8.635h9.973z"/></g><g><path class="a08ec2b8-f7ab-4f76-bcd7-218d8c7cddc0" d="M383.333 211.495h165v90h-165z"/><text class="e2d2f481-2dc9-4cc3-a15f-072d1f29e0bf" transform="translate(393.334 233.587)">Controller node 2<tspan class="bbd9197f-a90a-4817-83d2-fce1727289a3"><tspan x="0" y="12">Control plane</tspan></tspan></text><path class="a1c36078-6eec-454e-90a1-6ac4ca07c7a0" d="M393.333 266.495h145v25h-145z"/><text class="e2d2f481-2dc9-4cc3-a15f-072d1f29e0bf" transform="translate(448.594 282.042)">RHCOS</text></g><g><path class="a08ec2b8-f7ab-4f76-bcd7-218d8c7cddc0" d="M201.667 211.495h165v90h-165z"/><text class="e2d2f481-2dc9-4cc3-a15f-072d1f29e0bf" transform="translate(211.668 233.587)">Controller node 1<tspan class="bbd9197f-a90a-4817-83d2-fce1727289a3"><tspan x="0" y="12">Control plane</tspan></tspan></text><path class="a1c36078-6eec-454e-90a1-6ac4ca07c7a0" d="M211.667 266.495h145v25h-145z"/><text class="e2d2f481-2dc9-4cc3-a15f-072d1f29e0bf" transform="translate(261.927 282.042)">RHCOS</text></g><path class="a08ec2b8-f7ab-4f76-bcd7-218d8c7cddc0" d="M565 211.495h165v90H565z"/><text class="e2d2f481-2dc9-4cc3-a15f-072d1f29e0bf" transform="translate(575.001 233.587)">Controller node 3<tspan class="bbd9197f-a90a-4817-83d2-fce1727289a3"><tspan x="0" y="12">Control plane</tspan></tspan></text><path class="a1c36078-6eec-454e-90a1-6ac4ca07c7a0" d="M575 266.495h145v25H575z"/><text class="e2d2f481-2dc9-4cc3-a15f-072d1f29e0bf" transform="translate(630.26 282.042)">RHCOS</text><g><path class="a08ec2b8-f7ab-4f76-bcd7-218d8c7cddc0" d="M383.833 122h164v49h-164z"/><path d="M547.333 122.5v48h-163v-48h163m1-1h-165v50h165v-50z" fill="#06c"/></g><path class="a1c36078-6eec-454e-90a1-6ac4ca07c7a0" d="M383.333 16h165v50h-165z"/><text class="e2d2f481-2dc9-4cc3-a15f-072d1f29e0bf" transform="translate(425.459 149.547)">Bootstrap node</text><text transform="translate(470.846 88.743)" font-family="RedHatText,&quot;Red Hat Text&quot;,Overpass,&quot;Helvetica Neue&quot;,Arial,sans-serif" font-style="italic" fill="#151515" font-size="11">Create</text><g><path class="ad9522ce-77cb-4dd4-aa82-de4f694c1342" d="M465.833 111.824V65.987"/><path class="ab3bdb85-fc3d-4055-89fa-39b2d9c386e9" d="M470.82 110.365L465.833 119l-4.986-8.635h9.973z"/></g><text class="e2d2f481-2dc9-4cc3-a15f-072d1f29e0bf" transform="translate(425.2 44.047)">Cluster installer</text><g><path class="ad9522ce-77cb-4dd4-aa82-de4f694c1342" d="M284.167 201.671v-14.925h171.666v-15.394"/><path class="ab3bdb85-fc3d-4055-89fa-39b2d9c386e9" d="M289.153 200.212l-4.986 8.635-4.987-8.635h9.973z"/></g><g><path class="ad9522ce-77cb-4dd4-aa82-de4f694c1342" d="M647.5 201.671v-14.925H475.833v-15.394"/><path class="ab3bdb85-fc3d-4055-89fa-39b2d9c386e9" d="M652.486 200.212l-4.986 8.635-4.987-8.635h9.973z"/></g></svg>