<svg id="bf34206b-ebcc-4099-8ea4-72a838816aa8" data-name="artwork" xmlns="http://www.w3.org/2000/svg" width="760" height="441"><defs><style>.b3c38f4a-b16c-41b9-ba67-31ae13b5c17a{fill:#e8e8e8}.adcad1c2-f80b-46d0-b436-11c335e84322{fill:#fff}.be5f6b2a-951f-46ae-9039-e0cafbcd72dc{font-size:11px}.b6017b15-31d4-4026-922c-0490094b5c84,.be5f6b2a-951f-46ae-9039-e0cafbcd72dc{fill:#151515}.be5f6b2a-951f-46ae-9039-e0cafbcd72dc{font-family:RedHatText,&quot;Red Hat Text&quot;,Overpass,&quot;Helvetica Neue&quot;,Arial,sans-serif;font-weight:500}.a4bf721a-6628-4128-a92e-26c4c8174105,.a6c52c0b-5821-4b27-b3bc-cef306e57a59,.bf247a42-272a-4097-9f39-e952d499b304,.f2492471-870e-4e17-92cc-78a7903089f1,.ff08f40f-3546-42ab-91e1-c0418ba32ac0{fill:none}.f2492471-870e-4e17-92cc-78a7903089f1{stroke:#151515}.a4bf721a-6628-4128-a92e-26c4c8174105,.a6c52c0b-5821-4b27-b3bc-cef306e57a59,.bf247a42-272a-4097-9f39-e952d499b304,.f2492471-870e-4e17-92cc-78a7903089f1{stroke-linecap:round;stroke-linejoin:round}.a8b4ce63-88f3-4776-9212-192e9c7069d4{font-family:RedHatText,&quot;Red Hat Text&quot;,Overpass,&quot;Helvetica Neue&quot;,Arial,sans-serif}.a4bf721a-6628-4128-a92e-26c4c8174105,.a6c52c0b-5821-4b27-b3bc-cef306e57a59,.bf247a42-272a-4097-9f39-e952d499b304{stroke:#adadad}.bf247a42-272a-4097-9f39-e952d499b304{stroke-dasharray:3.057 3.057}.a4bf721a-6628-4128-a92e-26c4c8174105{stroke-dasharray:3.003 3.003}.ff08f40f-3546-42ab-91e1-c0418ba32ac0{stroke:#e8e8e8;stroke-miterlimit:10;stroke-width:16px}.a8b4ce63-88f3-4776-9212-192e9c7069d4{font-weight:400}</style></defs><path class="b3c38f4a-b16c-41b9-ba67-31ae13b5c17a" d="M0 101.5h760V421H0z"/><path class="adcad1c2-f80b-46d0-b436-11c335e84322" d="M20 351h165v50H20z"/><text class="be5f6b2a-951f-46ae-9039-e0cafbcd72dc" transform="translate(65.276 378.998)">Worker Node 1</text><path class="adcad1c2-f80b-46d0-b436-11c335e84322" d="M201.667 351h165v50h-165z"/><text class="be5f6b2a-951f-46ae-9039-e0cafbcd72dc" transform="translate(245.689 378.998)">Worker Node 2</text><path class="adcad1c2-f80b-46d0-b436-11c335e84322" d="M383.333 351h165v50h-165z"/><text class="be5f6b2a-951f-46ae-9039-e0cafbcd72dc" transform="translate(427.152 378.998)">Worker Node 3</text><path class="f2492471-870e-4e17-92cc-78a7903089f1" d="M284.167 341.305v-29.81"/><path class="b6017b15-31d4-4026-922c-0490094b5c84" d="M289.153 339.846l-4.986 8.635-4.987-8.635h9.973z"/><path class="f2492471-870e-4e17-92cc-78a7903089f1" d="M102.5 341.305V326.38h171.667v-14.885"/><path class="b6017b15-31d4-4026-922c-0490094b5c84" d="M107.486 339.846l-4.986 8.635-4.986-8.635h9.972z"/><path class="f2492471-870e-4e17-92cc-78a7903089f1" d="M465.833 341.305V326.38H294.167v-14.885"/><path class="b6017b15-31d4-4026-922c-0490094b5c84" d="M470.819 339.846l-4.986 8.635-4.986-8.635h9.972z"/><text transform="translate(648.002 403.36)" font-family="RedHatText,&quot;Red Hat Text&quot;,Overpass,&quot;Helvetica Neue&quot;,Arial,sans-serif" font-size="10" fill="#dcdcdc">150_OpenShift_0321</text><path fill="none" d="M0 381h760v40H0z"/><path class="a6c52c0b-5821-4b27-b3bc-cef306e57a59" d="M194.083 201.495h-1.5v1.5"/><path class="bf247a42-272a-4097-9f39-e952d499b304" d="M192.583 206.052v102.414"/><path class="a6c52c0b-5821-4b27-b3bc-cef306e57a59" d="M192.583 309.995v1.5h1.5"/><path class="a4bf721a-6628-4128-a92e-26c4c8174105" d="M197.086 311.495h538.996"/><path class="a6c52c0b-5821-4b27-b3bc-cef306e57a59" d="M737.583 311.495h1.5v-1.5"/><path class="bf247a42-272a-4097-9f39-e952d499b304" d="M739.083 306.938V204.523"/><path class="a6c52c0b-5821-4b27-b3bc-cef306e57a59" d="M739.083 202.995v-1.5h-1.5"/><path class="a4bf721a-6628-4128-a92e-26c4c8174105" d="M734.581 201.495H195.585"/><text transform="translate(20 133.288)" font-size="14" font-family="RedHatText,&quot;Red Hat Text&quot;,Overpass,&quot;Helvetica Neue&quot;,Arial,sans-serif" font-weight="700" fill="#151515">Datacenter <tspan font-size="12" font-weight="500"><tspan x="0" y="14">(Cloud/On-premise)</tspan></tspan></text><path class="ff08f40f-3546-42ab-91e1-c0418ba32ac0" d="M465.833 208.995v-18.748M284.167 209.741v-18.748M647.5 208.995v-18.748"/><g><path class="f2492471-870e-4e17-92cc-78a7903089f1" d="M465.833 201.671v-30.319"/><path class="b6017b15-31d4-4026-922c-0490094b5c84" d="M470.82 200.212l-4.987 8.635-4.986-8.635h9.973z"/></g><g><path class="adcad1c2-f80b-46d0-b436-11c335e84322" d="M383.333 211.495h165v90h-165z"/><text class="be5f6b2a-951f-46ae-9039-e0cafbcd72dc" transform="translate(393.334 233.587)">Controller Node 2<tspan class="a8b4ce63-88f3-4776-9212-192e9c7069d4"><tspan x="0" y="12">Control Plane</tspan></tspan></text><path class="b3c38f4a-b16c-41b9-ba67-31ae13b5c17a" d="M393.333 266.495h145v25h-145z"/><text class="be5f6b2a-951f-46ae-9039-e0cafbcd72dc" transform="translate(448.594 282.042)">RHCOS</text></g><g><path class="adcad1c2-f80b-46d0-b436-11c335e84322" d="M201.667 211.495h165v90h-165z"/><text class="be5f6b2a-951f-46ae-9039-e0cafbcd72dc" transform="translate(211.668 233.587)">Controller Node 1<tspan class="a8b4ce63-88f3-4776-9212-192e9c7069d4"><tspan x="0" y="12">Control Plane</tspan></tspan></text><path class="b3c38f4a-b16c-41b9-ba67-31ae13b5c17a" d="M211.667 266.495h145v25h-145z"/><text class="be5f6b2a-951f-46ae-9039-e0cafbcd72dc" transform="translate(261.927 282.042)">RHCOS</text></g><path class="adcad1c2-f80b-46d0-b436-11c335e84322" d="M565 211.495h165v90H565z"/><text class="be5f6b2a-951f-46ae-9039-e0cafbcd72dc" transform="translate(575.001 233.587)">Controller Node 3<tspan class="a8b4ce63-88f3-4776-9212-192e9c7069d4"><tspan x="0" y="12">Control Plane</tspan></tspan></text><path class="b3c38f4a-b16c-41b9-ba67-31ae13b5c17a" d="M575 266.495h145v25H575z"/><text class="be5f6b2a-951f-46ae-9039-e0cafbcd72dc" transform="translate(630.26 282.042)">RHCOS</text><g><path class="adcad1c2-f80b-46d0-b436-11c335e84322" d="M383.833 122h164v49h-164z"/><path d="M547.333 122.5v48h-163v-48h163m1-1h-165v50h165v-50z" fill="#06c"/></g><path class="b3c38f4a-b16c-41b9-ba67-31ae13b5c17a" d="M383.333 16h165v50h-165z"/><text class="be5f6b2a-951f-46ae-9039-e0cafbcd72dc" transform="translate(424.474 149.547)">Bootstrap Node</text><text transform="translate(470.846 88.743)" font-family="RedHatText,&quot;Red Hat Text&quot;,Overpass,&quot;Helvetica Neue&quot;,Arial,sans-serif" font-style="italic" fill="#151515" font-size="11">Create</text><g><path class="f2492471-870e-4e17-92cc-78a7903089f1" d="M465.833 111.824V65.987"/><path class="b6017b15-31d4-4026-922c-0490094b5c84" d="M470.82 110.365L465.833 119l-4.986-8.635h9.973z"/></g><text class="be5f6b2a-951f-46ae-9039-e0cafbcd72dc" transform="translate(447.046 37.953)">Cluster<tspan x="-1.958" y="12">Installer</tspan></text><g><path class="f2492471-870e-4e17-92cc-78a7903089f1" d="M284.167 201.671v-14.925h171.666v-15.394"/><path class="b6017b15-31d4-4026-922c-0490094b5c84" d="M289.153 200.212l-4.986 8.635-4.987-8.635h9.973z"/></g><g><path class="f2492471-870e-4e17-92cc-78a7903089f1" d="M647.5 201.671v-14.925H475.833v-15.394"/><path class="b6017b15-31d4-4026-922c-0490094b5c84" d="M652.486 200.212l-4.986 8.635-4.987-8.635h9.973z"/></g></svg>