<svg id="a41be3fe-90e9-40bf-9ff5-77aac3477b99" data-name="artwork" xmlns="http://www.w3.org/2000/svg" width="760" height="305"><defs><style>.a8c631db-305e-457b-9ae2-153a0a89f747,.b879d3cb-22c2-4dbb-b815-6495a8dd419a{font-family:RedHatText,&quot;Red Hat Text&quot;,Overpass,&quot;Helvetica Neue&quot;,Arial,sans-serif}.bb70ecea-5989-4044-978c-de4bdde4287a{fill:#e8e8e8}.b374d59f-6df0-41ed-8d70-43063263901a{font-size:16px;font-family:RedHatText,&quot;Red Hat Text&quot;,Overpass,&quot;Helvetica Neue&quot;,Arial,sans-serif;font-weight:700}.a922a293-d530-4e97-8e9a-467f071a3f4c,.b374d59f-6df0-41ed-8d70-43063263901a{fill:#151515}.a8c631db-305e-457b-9ae2-153a0a89f747,.b879d3cb-22c2-4dbb-b815-6495a8dd419a{font-weight:400}.a8c631db-305e-457b-9ae2-153a0a89f747{letter-spacing:0}.a3767494-658e-4de9-b30d-6a900422ab9b{fill:#fff}.a922a293-d530-4e97-8e9a-467f071a3f4c,.ff9e5fb5-ebbf-455d-add3-647651899930{font-size:12px;font-family:RedHatText,&quot;Red Hat Text&quot;,Overpass,&quot;Helvetica Neue&quot;,Arial,sans-serif;font-weight:500}.a7cb7317-4de1-4a20-b865-d8533ddb665a{fill:#d9e8f7}.ff9e5fb5-ebbf-455d-add3-647651899930{fill:#adadad}</style></defs><text transform="translate(688.182 288.017)" font-family="RedHatText,&quot;Red Hat Text&quot;,Overpass,&quot;Helvetica Neue&quot;,Arial,sans-serif" font-size="10" fill="#f3f3f3">96_RHEL_0720</text><path fill="none" d="M0 265h760v40H0z"/><path class="bb70ecea-5989-4044-978c-de4bdde4287a" d="M0 19.5h200V288H0z"/><text class="b374d59f-6df0-41ed-8d70-43063263901a" transform="translate(25 57.972)">Disk <tspan class="a8c631db-305e-457b-9ae2-153a0a89f747" x="38.048" y="0">(before)</tspan></text><path class="a3767494-658e-4de9-b30d-6a900422ab9b" d="M25 82.824h150v120H25z"/><text class="a922a293-d530-4e97-8e9a-467f071a3f4c" transform="translate(52.175 111.148)">Primary partition<tspan class="b879d3cb-22c2-4dbb-b815-6495a8dd419a"><tspan x="30.048" y="15">(DOS)</tspan></tspan></text><path class="a7cb7317-4de1-4a20-b865-d8533ddb665a" d="M35 143h130v50H35z"/><text class="a922a293-d530-4e97-8e9a-467f071a3f4c" transform="translate(68.236 163.824)">File system<tspan class="b879d3cb-22c2-4dbb-b815-6495a8dd419a"><tspan x="-13.451" y="15">(Uncompressed)</tspan></tspan></text><path class="a3767494-658e-4de9-b30d-6a900422ab9b" d="M174 213.824v48H26v-48h148m1-1H25v50h150v-50z"/><text class="ff9e5fb5-ebbf-455d-add3-647651899930" transform="translate(69.197 241.148)">Free space</text><path class="bb70ecea-5989-4044-978c-de4bdde4287a" d="M240 19.5h200V288H240z"/><text class="b374d59f-6df0-41ed-8d70-43063263901a" transform="translate(265 57.972)">Disk <tspan class="a8c631db-305e-457b-9ae2-153a0a89f747" x="38.048" y="0">(after)</tspan></text><path class="a3767494-658e-4de9-b30d-6a900422ab9b" d="M265 82.824h150v120H265z"/><text class="a922a293-d530-4e97-8e9a-467f071a3f4c" transform="translate(292.175 111.148)">Primary partition<tspan class="b879d3cb-22c2-4dbb-b815-6495a8dd419a"><tspan x="30.048" y="15">(DOS)</tspan></tspan></text><path class="a7cb7317-4de1-4a20-b865-d8533ddb665a" d="M275 143h130v50H275z"/><text class="a922a293-d530-4e97-8e9a-467f071a3f4c" transform="translate(308.236 163.824)">File system<tspan class="b879d3cb-22c2-4dbb-b815-6495a8dd419a"><tspan x="-7.17" y="15">(Compressed)</tspan></tspan></text><path class="a3767494-658e-4de9-b30d-6a900422ab9b" d="M414 213.824v48H266v-48h148m1-1H265v50h150v-50z"/><text class="ff9e5fb5-ebbf-455d-add3-647651899930" transform="translate(309.196 241.148)">Free space</text></svg>