<svg id="b78170c1-78cb-4d5c-9b5a-166c50e1158a" data-name="artwork" xmlns="http://www.w3.org/2000/svg" width="760" height="269"><defs><style>.b5436a64-c436-433f-9b33-7c8e7ba5ac48{font-family:RedHatText,&quot;Red Hat Text&quot;,Overpass,&quot;Helvetica Neue&quot;,Arial,sans-serif}.a6221942-1f6a-42ea-9d65-7f8f358054c3{fill:#e8e8e8}.fb03541f-2059-4471-b2b1-a07e9545b29a{fill:#151515}.b5436a64-c436-433f-9b33-7c8e7ba5ac48{font-weight:400}.e635a102-dbec-473a-81bf-2f7302f50e39{fill:#fff}.f6101475-af08-4b05-9b32-2a4a9289f40e,.fb03541f-2059-4471-b2b1-a07e9545b29a{font-size:12px;font-family:RedHatText,&quot;Red Hat Text&quot;,Overpass,&quot;Helvetica Neue&quot;,Arial,sans-serif;font-weight:500}.f6101475-af08-4b05-9b32-2a4a9289f40e{fill:#b9b9b9}</style></defs><text transform="translate(628.182 252.017)" font-family="RedHatText,&quot;Red Hat Text&quot;,Overpass,&quot;Helvetica Neue&quot;,Arial,sans-serif" font-size="10" fill="#f3f3f3">96_RHEL_0720</text><path fill="none" d="M0 229h700v40H0z"/><path class="a6221942-1f6a-42ea-9d65-7f8f358054c3" d="M0 20.5h700V229H0z"/><text transform="translate(25 58.972)" fill="#151515" font-size="16" font-family="RedHatText,&quot;Red Hat Text&quot;,Overpass,&quot;Helvetica Neue&quot;,Arial,sans-serif" font-weight="700">Disk <tspan x="38.048" y="0" letter-spacing="0" font-weight="400">(MBR table)</tspan></text><path class="e635a102-dbec-473a-81bf-2f7302f50e39" d="M25 83.824h160v120H25z"/><text class="fb03541f-2059-4471-b2b1-a07e9545b29a" transform="translate(57.925 112.148)">Unused partition</text><path class="a6221942-1f6a-42ea-9d65-7f8f358054c3" d="M174 145v48H36v-48h138m1-1H35v50h140v-50z"/><text class="f6101475-af08-4b05-9b32-2a4a9289f40e" transform="translate(73.236 164.824)">File system<tspan class="b5436a64-c436-433f-9b33-7c8e7ba5ac48"><tspan x="6.51" y="15">(Unused)</tspan></tspan></text><path class="e635a102-dbec-473a-81bf-2f7302f50e39" d="M195 83.824h160v120H195z"/><text class="fb03541f-2059-4471-b2b1-a07e9545b29a" transform="translate(227.925 112.148)">Unused partition</text><path class="a6221942-1f6a-42ea-9d65-7f8f358054c3" d="M344 145v48H206v-48h138m1-1H205v50h140v-50z"/><text class="f6101475-af08-4b05-9b32-2a4a9289f40e" transform="translate(243.236 164.824)">File system<tspan class="b5436a64-c436-433f-9b33-7c8e7ba5ac48"><tspan x="6.51" y="15">(Unused)</tspan></tspan></text><path class="e635a102-dbec-473a-81bf-2f7302f50e39" d="M365 82.824h150v120H365z"/><text class="fb03541f-2059-4471-b2b1-a07e9545b29a" transform="translate(392.925 111.148)">Unused partition</text><path class="a6221942-1f6a-42ea-9d65-7f8f358054c3" d="M504 144v48H376v-48h128m1-1H375v50h130v-50z"/><text class="f6101475-af08-4b05-9b32-2a4a9289f40e" transform="translate(408.236 163.824)">File system<tspan class="b5436a64-c436-433f-9b33-7c8e7ba5ac48"><tspan x="6.51" y="15">(Unused)</tspan></tspan></text><path class="e635a102-dbec-473a-81bf-2f7302f50e39" d="M525 82.824h150v120H525z"/><text class="fb03541f-2059-4471-b2b1-a07e9545b29a" transform="translate(552.925 111.148)">Unused partition</text><path class="a6221942-1f6a-42ea-9d65-7f8f358054c3" d="M664 144v48H536v-48h128m1-1H535v50h130v-50z"/><text class="f6101475-af08-4b05-9b32-2a4a9289f40e" transform="translate(568.236 163.824)">File system<tspan class="b5436a64-c436-433f-9b33-7c8e7ba5ac48"><tspan x="6.51" y="15">(Unused)</tspan></tspan></text></svg>