<svg id="f20976a0-dd32-40a7-a31b-d1768153b341" data-name="artwork" xmlns="http://www.w3.org/2000/svg" width="760" height="500.5"><defs><style>.b090469c-7745-4b1c-b3c3-5c28014a12e0{fill:none}.afeac1cf-6c4c-457a-b7f5-db296569e071{fill:#e8e8e8}.becab1ca-5c1d-4077-8ae2-e60b0fa13ce9{font-size:12px}.a6f9c12b-6215-4b0c-8f36-c855c6a06221,.b21b5cd1-1d81-4388-96d6-802bb74965d6,.b4f5f7b8-3a28-4758-a051-5c684de68a7c,.bc3dcc09-2d4a-4fc0-993b-3becb11a6a20,.becab1ca-5c1d-4077-8ae2-e60b0fa13ce9{fill:#151515}.b21b5cd1-1d81-4388-96d6-802bb74965d6,.becab1ca-5c1d-4077-8ae2-e60b0fa13ce9{font-family:RedHatText,&quot;Red Hat Text&quot;,Overpass,&quot;Helvetica Neue&quot;,Arial,sans-serif;font-weight:500}.a6f9c12b-6215-4b0c-8f36-c855c6a06221,.b21b5cd1-1d81-4388-96d6-802bb74965d6{font-size:11px}.a6f9c12b-6215-4b0c-8f36-c855c6a06221{font-family:LiberationMono,&quot;Liberation Mono&quot;,Consolas,Monaco,&quot;Andale Mono&quot;,monospace}.be808332-9208-4599-9ed7-cf418bdeee61{fill:#fff;stroke:#5b5b5b;stroke-linecap:round;stroke-linejoin:round;stroke-width:1.5px}.b090469c-7745-4b1c-b3c3-5c28014a12e0{stroke:#151515;stroke-miterlimit:10}.bc3dcc09-2d4a-4fc0-993b-3becb11a6a20{font-size:14px;font-family:RedHatText,&quot;Red Hat Text&quot;,Overpass,&quot;Helvetica Neue&quot;,Arial,sans-serif;font-weight:700}</style></defs><text transform="translate(688.182 483.517)" font-size="10" fill="#f3f3f3" font-family="RedHatText,&quot;Red Hat Text&quot;,Overpass,&quot;Helvetica Neue&quot;,Arial,sans-serif">96_RHEL_0720</text><path fill="none" d="M0 460.5h760v40H0z"/><path class="afeac1cf-6c4c-457a-b7f5-db296569e071" d="M160 20.5h120v80H160zM759 126.5v228H1v-228h758m1-1H0v230h760v-230zM759 371.5v88H1v-88h758m1-1H0v90h760v-90z"/><path class="afeac1cf-6c4c-457a-b7f5-db296569e071" d="M160 390.5h120v50H160z"/><text class="becab1ca-5c1d-4077-8ae2-e60b0fa13ce9" transform="translate(195.413 418.824)">Program</text><path class="afeac1cf-6c4c-457a-b7f5-db296569e071" d="M542.654 390.5h120v50h-120z"/><text class="a6f9c12b-6215-4b0c-8f36-c855c6a06221" transform="translate(566.349 418.824)">cachefilesd</text><path class="afeac1cf-6c4c-457a-b7f5-db296569e071" d="M466.123 158h120v50h-120z"/><text class="a6f9c12b-6215-4b0c-8f36-c855c6a06221" transform="translate(493.119 186.324)">cachefiles</text><path class="afeac1cf-6c4c-457a-b7f5-db296569e071" d="M313.061 158h120v50h-120z"/><text class="becab1ca-5c1d-4077-8ae2-e60b0fa13ce9" transform="translate(344.958 186.324)">FS-Cache</text><text class="b21b5cd1-1d81-4388-96d6-802bb74965d6" transform="translate(202.958 74.464)">Server</text><path class="be808332-9208-4599-9ed7-cf418bdeee61" d="M192.5 44.119h55v13.75h-55z"/><path stroke-width="2" stroke="#5b5b5b" stroke-linecap="round" stroke-linejoin="round" fill="none" d="M241.621 50.015h0"/><path stroke-width="1.5" stroke="#5b5b5b" stroke-linecap="round" stroke-linejoin="round" fill="none" d="M199.236 51.976h8.25"/><path class="afeac1cf-6c4c-457a-b7f5-db296569e071" d="M160 145.5h120v80H160z"/><text class="b21b5cd1-1d81-4388-96d6-802bb74965d6" transform="translate(208.825 207.899)">NFS</text><path class="be808332-9208-4599-9ed7-cf418bdeee61" d="M201.551 170.876v10.192c0 5.629 8.26 10.192 18.449 10.192s18.449-4.563 18.449-10.192v-10.192"/><ellipse class="be808332-9208-4599-9ed7-cf418bdeee61" cx="220" cy="170.876" rx="18.449" ry="10.192"/><path class="afeac1cf-6c4c-457a-b7f5-db296569e071" d="M619.184 145.5h120v80h-120z"/><text class="b21b5cd1-1d81-4388-96d6-802bb74965d6" transform="translate(667.481 207.899)">ext3</text><path class="be808332-9208-4599-9ed7-cf418bdeee61" d="M660.735 170.876v10.192c0 5.629 8.26 10.192 18.449 10.192s18.449-4.563 18.449-10.192v-10.192"/><ellipse class="be808332-9208-4599-9ed7-cf418bdeee61" cx="679.184" cy="170.876" rx="18.449" ry="10.192"/><g><path class="b090469c-7745-4b1c-b3c3-5c28014a12e0" d="M280 183h23.385"/><path class="b4f5f7b8-3a28-4758-a051-5c684de68a7c" d="M301.926 187.986l8.635-4.986-8.635-4.986v9.972z"/></g><g><path class="b090469c-7745-4b1c-b3c3-5c28014a12e0" d="M433.061 183h23.386"/><path class="b4f5f7b8-3a28-4758-a051-5c684de68a7c" d="M454.988 187.986l8.635-4.986-8.635-4.986v9.972z"/></g><g><path class="b090469c-7745-4b1c-b3c3-5c28014a12e0" d="M586.123 183h23.385"/><path class="b4f5f7b8-3a28-4758-a051-5c684de68a7c" d="M608.049 187.986l8.635-4.986-8.635-4.986v9.972z"/></g><g><path class="b090469c-7745-4b1c-b3c3-5c28014a12e0" d="M220 225.5v20.324"/><path class="b4f5f7b8-3a28-4758-a051-5c684de68a7c" d="M215.014 244.365L220 253l4.986-8.635h-9.972z"/></g><text class="bc3dcc09-2d4a-4fc0-993b-3becb11a6a20" transform="translate(20 156.288)">Kernel space</text><text class="bc3dcc09-2d4a-4fc0-993b-3becb11a6a20" transform="translate(20 401.288)">User space</text><g><path class="b090469c-7745-4b1c-b3c3-5c28014a12e0" d="M220 335.5v45.324"/><path class="b4f5f7b8-3a28-4758-a051-5c684de68a7c" d="M215.014 379.365L220 388l4.986-8.635h-9.972z"/></g><g><path class="b090469c-7745-4b1c-b3c3-5c28014a12e0" d="M220 100.5v35.052"/><path class="b4f5f7b8-3a28-4758-a051-5c684de68a7c" d="M215.014 134.093l4.986 8.635 4.986-8.635h-9.972z"/></g><g><path class="b090469c-7745-4b1c-b3c3-5c28014a12e0" d="M612.654 380.824V245.5h66.531v-20"/><path class="b4f5f7b8-3a28-4758-a051-5c684de68a7c" d="M617.64 379.365L612.654 388l-4.987-8.635h9.973z"/></g><g><path class="b090469c-7745-4b1c-b3c3-5c28014a12e0" d="M592.654 380.824V245.5h-66.531V208"/><path class="b4f5f7b8-3a28-4758-a051-5c684de68a7c" d="M597.64 379.365L592.654 388l-4.987-8.635h9.973z"/></g><path class="afeac1cf-6c4c-457a-b7f5-db296569e071" d="M160 255.5h120v80H160z"/><g><text class="b21b5cd1-1d81-4388-96d6-802bb74965d6" transform="translate(209.177 317.899)">VFS</text><path class="be808332-9208-4599-9ed7-cf418bdeee61" d="M201.551 280.876v10.192c0 5.629 8.26 10.192 18.449 10.192s18.449-4.563 18.449-10.192v-10.192"/><ellipse class="be808332-9208-4599-9ed7-cf418bdeee61" cx="220" cy="280.876" rx="18.449" ry="10.192"/></g></svg>