<svg xmlns="http://www.w3.org/2000/svg" width="760" height="534.767"><defs><style>.a0975560-e325-4d18-9751-88dcc8c55ef1,.a09e6787-7c7e-41ab-9f13-c5a206f53774,.a64c7a50-b0a2-4788-8940-78864a62fbf9,.ae441135-e293-48d6-80f9-dce52745afc9,.b4c55fa5-95c6-417f-be5a-821a55df34d3,.b53c140a-c94a-49e7-b191-0d3922f09b87,.b6aeb3fa-ed4d-4c1b-a7f4-3352e6497587,.b9e94c20-60f8-4f53-a106-52574e7cb3ef,.bc18896d-1940-4169-a048-9b77b555c1d0,.ec921775-b99c-4148-9671-542a57996b00,.f0c04c1f-0da4-4eeb-9e5a-48b26ddfd508,.fa874d69-485b-4c08-90c0-1ce11d638086,.fd8c651b-1e0c-4f19-b433-01624901dc8a{fill:none}.a64c7a50-b0a2-4788-8940-78864a62fbf9{stroke:#151515}.a0975560-e325-4d18-9751-88dcc8c55ef1,.a09e6787-7c7e-41ab-9f13-c5a206f53774,.a64c7a50-b0a2-4788-8940-78864a62fbf9,.a8f7e362-ce97-479e-8660-0c91346422e9,.ae441135-e293-48d6-80f9-dce52745afc9,.b4c55fa5-95c6-417f-be5a-821a55df34d3,.b6aeb3fa-ed4d-4c1b-a7f4-3352e6497587,.bc18896d-1940-4169-a048-9b77b555c1d0,.ec921775-b99c-4148-9671-542a57996b00,.f0c04c1f-0da4-4eeb-9e5a-48b26ddfd508,.fa874d69-485b-4c08-90c0-1ce11d638086,.fd8c651b-1e0c-4f19-b433-01624901dc8a{stroke-linecap:round;stroke-linejoin:round}.ab8f5517-400e-4be7-96bc-b57abe2a56da,.b5c082ff-5934-4a65-9885-929bf8e3643d,.b821d374-a67a-43b8-bd2d-cf156803ace8,.f05c99d5-8a23-4120-b6f1-0bd837ea8f3d,.f86118df-a50c-4d2e-9dd4-546039111900{fill:#151515}.b53c140a-c94a-49e7-b191-0d3922f09b87{stroke:#c4c4c4;stroke-miterlimit:10}.b9e94c20-60f8-4f53-a106-52574e7cb3ef{stroke-miterlimit:10}.a0975560-e325-4d18-9751-88dcc8c55ef1,.b6aeb3fa-ed4d-4c1b-a7f4-3352e6497587,.bc18896d-1940-4169-a048-9b77b555c1d0,.ec921775-b99c-4148-9671-542a57996b00,.f0c04c1f-0da4-4eeb-9e5a-48b26ddfd508{stroke:#4cb6d6}.ae441135-e293-48d6-80f9-dce52745afc9,.ec921775-b99c-4148-9671-542a57996b00,.fd8c651b-1e0c-4f19-b433-01624901dc8a{stroke-width:2px}.f315a26f-eb8d-4861-bede-e61c4a69dded{fill:#e8e8e8}.ab8f5517-400e-4be7-96bc-b57abe2a56da,.b5c082ff-5934-4a65-9885-929bf8e3643d{font-size:10px}.b5c082ff-5934-4a65-9885-929bf8e3643d{font-weight:700}.b5c082ff-5934-4a65-9885-929bf8e3643d,.b821d374-a67a-43b8-bd2d-cf156803ace8,.fee19c30-e6b7-4bdd-b2da-2b668cbfc78a{font-family:RedHatText,&quot;Red Hat Text&quot;,Overpass,&quot;Helvetica Neue&quot;,Arial,sans-serif}.fee19c30-e6b7-4bdd-b2da-2b668cbfc78a{font-weight:400}.b6aeb3fa-ed4d-4c1b-a7f4-3352e6497587{stroke-dasharray:3 3}.a0975560-e325-4d18-9751-88dcc8c55ef1{stroke-dasharray:2.939 2.939}.bc18896d-1940-4169-a048-9b77b555c1d0{stroke-dasharray:2.956 2.956}.ae441135-e293-48d6-80f9-dce52745afc9{stroke:#06c}.ab8f5517-400e-4be7-96bc-b57abe2a56da,.f86118df-a50c-4d2e-9dd4-546039111900{font-family:RedHatText,&quot;Red Hat Text&quot;,Overpass,&quot;Helvetica Neue&quot;,Arial,sans-serif;font-weight:500}.a8f7e362-ce97-479e-8660-0c91346422e9,.acdd96c4-42be-4d3d-b124-1538005589f3{fill:#fff}.a8f7e362-ce97-479e-8660-0c91346422e9,.fa874d69-485b-4c08-90c0-1ce11d638086,.fd8c651b-1e0c-4f19-b433-01624901dc8a{stroke:#5b5b5b}.a8f7e362-ce97-479e-8660-0c91346422e9,.fa874d69-485b-4c08-90c0-1ce11d638086{stroke-width:1.5px}.b821d374-a67a-43b8-bd2d-cf156803ace8{font-size:8.5px}.b9e94c20-60f8-4f53-a106-52574e7cb3ef{stroke:#adadad;stroke-width:.75px}.a09e6787-7c7e-41ab-9f13-c5a206f53774{stroke:#e8e8e8;stroke-width:6px}.f86118df-a50c-4d2e-9dd4-546039111900{font-size:11px}.b4c55fa5-95c6-417f-be5a-821a55df34d3{stroke:#599cde}</style></defs><g style="isolation:isolate"><g id="bf2900f7-086a-4bd5-a18a-d9942b0d6544" data-name="artwork"><path class="a64c7a50-b0a2-4788-8940-78864a62fbf9" d="M201.288 153.42v87.807"/><path class="f05c99d5-8a23-4120-b6f1-0bd837ea8f3d" d="M196.301 239.768l4.987 8.635 4.986-8.635h-9.973z"/><path class="b53c140a-c94a-49e7-b191-0d3922f09b87" d="M709 393.436v50H603"/><path class="b53c140a-c94a-49e7-b191-0d3922f09b87" d="M704 388.436v50H598"/><path class="ec921775-b99c-4148-9671-542a57996b00" d="M21 333.436h718v140.331H21zM651 453.767v20M481.5 453.767v20M370.5 453.767v20M259.5 453.767v20"/><path class="f315a26f-eb8d-4861-bede-e61c4a69dded" d="M428.5 383.436h106v50h-106z"/><text class="b5c082ff-5934-4a65-9885-929bf8e3643d" transform="translate(450.53 406.23)">Master node<tspan class="fee19c30-e6b7-4bdd-b2da-2b668cbfc78a"><tspan x=".835" y="11">aro-master-2</tspan></tspan></text><path class="f0c04c1f-0da4-4eeb-9e5a-48b26ddfd508" d="M544.5 451.936v1.5H543"/><path class="b6aeb3fa-ed4d-4c1b-a7f4-3352e6497587" d="M540 453.436H199.5"/><path class="f0c04c1f-0da4-4eeb-9e5a-48b26ddfd508" d="M198 453.436h-1.5v-1.5"/><path class="a0975560-e325-4d18-9751-88dcc8c55ef1" d="M196.5 448.996v-92.591"/><path class="f0c04c1f-0da4-4eeb-9e5a-48b26ddfd508" d="M196.5 354.936v-1.5h1.5"/><path class="b6aeb3fa-ed4d-4c1b-a7f4-3352e6497587" d="M201 353.436h340.5"/><path class="f0c04c1f-0da4-4eeb-9e5a-48b26ddfd508" d="M543 353.436h1.5v1.5"/><path class="a0975560-e325-4d18-9751-88dcc8c55ef1" d="M544.5 357.875v92.591"/><path class="f0c04c1f-0da4-4eeb-9e5a-48b26ddfd508" d="M719 451.936v1.5h-1.5"/><path class="bc18896d-1940-4169-a048-9b77b555c1d0" d="M714.544 453.436H585.978"/><path class="f0c04c1f-0da4-4eeb-9e5a-48b26ddfd508" d="M584.5 453.436H583v-1.5"/><path class="a0975560-e325-4d18-9751-88dcc8c55ef1" d="M583 448.996v-92.591"/><path class="f0c04c1f-0da4-4eeb-9e5a-48b26ddfd508" d="M583 354.936v-1.5h1.5"/><path class="bc18896d-1940-4169-a048-9b77b555c1d0" d="M587.456 353.436h128.566"/><path class="f0c04c1f-0da4-4eeb-9e5a-48b26ddfd508" d="M717.5 353.436h1.5v1.5"/><path class="a0975560-e325-4d18-9751-88dcc8c55ef1" d="M719 357.875v92.591"/><path class="f315a26f-eb8d-4861-bede-e61c4a69dded" d="M206.5 383.436h106v50h-106z"/><text class="b5c082ff-5934-4a65-9885-929bf8e3643d" transform="translate(228.53 406.23)">Master node<tspan class="fee19c30-e6b7-4bdd-b2da-2b668cbfc78a"><tspan x=".275" y="11">aro-master-0</tspan></tspan></text><path class="f315a26f-eb8d-4861-bede-e61c4a69dded" d="M317.5 383.436h106v50h-106z"/><text class="b5c082ff-5934-4a65-9885-929bf8e3643d" transform="translate(339.53 406.23)">Master node<tspan class="fee19c30-e6b7-4bdd-b2da-2b668cbfc78a"><tspan x="2.04" y="11">aro-master-1</tspan></tspan></text><path class="ae441135-e293-48d6-80f9-dce52745afc9" d="M1 258.453h758v235.314H1z"/><path class="a64c7a50-b0a2-4788-8940-78864a62fbf9" d="M323.072 322.86v-14.907"/><path class="f05c99d5-8a23-4120-b6f1-0bd837ea8f3d" d="M328.059 321.401l-4.987 8.635-4.986-8.635h9.973z"/><path class="f315a26f-eb8d-4861-bede-e61c4a69dded" d="M593 383.436h106v50H593z"/><text class="b5c082ff-5934-4a65-9885-929bf8e3643d" transform="translate(611.601 406.231)">Worker nodes<tspan class="fee19c30-e6b7-4bdd-b2da-2b668cbfc78a"><tspan x="4.825" y="11">aro-worker N</tspan></tspan></text><path class="a64c7a50-b0a2-4788-8940-78864a62fbf9" d="M433.072 322.86v-14.907"/><path class="f05c99d5-8a23-4120-b6f1-0bd837ea8f3d" d="M438.058 321.401l-4.986 8.635-4.986-8.635h9.972z"/><path class="a64c7a50-b0a2-4788-8940-78864a62fbf9" d="M433.072 241.501v-13.13"/><path class="f05c99d5-8a23-4120-b6f1-0bd837ea8f3d" d="M438.058 240.042l-4.986 8.635-4.986-8.635h9.972zM438.058 229.83l-4.986-8.635-4.986 8.635h9.972z"/><path class="a64c7a50-b0a2-4788-8940-78864a62fbf9" d="M616 247.748v-15.145"/><path class="f05c99d5-8a23-4120-b6f1-0bd837ea8f3d" d="M620.986 246.289L616 254.924l-4.986-8.635h9.972z"/><text class="ab8f5517-400e-4be7-96bc-b57abe2a56da" transform="translate(304.958 282.298)">Internal<tspan x="-15.52" y="11">Load Balancer</tspan><tspan class="fee19c30-e6b7-4bdd-b2da-2b668cbfc78a"><tspan x="-8.27" y="22">aro-internal</tspan></tspan></text><path class="a8f7e362-ce97-479e-8660-0c91346422e9" d="M304.623 251.953h36.898v14.25h-36.898z"/><path class="fd8c651b-1e0c-4f19-b433-01624901dc8a" d="M335.635 258.935"/><path class="fa874d69-485b-4c08-90c0-1ce11d638086" d="M314.618 261.918v-5.841M310.391 261.918v-5.841M318.845 261.918v-5.841M323.072 261.918v-5.841"/><text class="ab8f5517-400e-4be7-96bc-b57abe2a56da" transform="translate(418.578 282.298)">Public<tspan x="-19.14" y="11">Load Balancer</tspan><tspan class="fee19c30-e6b7-4bdd-b2da-2b668cbfc78a"><tspan x="7.2" y="22">aro</tspan></tspan></text><path class="a8f7e362-ce97-479e-8660-0c91346422e9" d="M414.623 251.953h36.898v14.25h-36.898z"/><path class="fd8c651b-1e0c-4f19-b433-01624901dc8a" d="M445.634 258.935"/><path class="fa874d69-485b-4c08-90c0-1ce11d638086" d="M424.618 261.918v-5.841M420.39 261.918v-5.841M428.845 261.918v-5.841M433.072 261.918v-5.841"/><text class="ab8f5517-400e-4be7-96bc-b57abe2a56da" transform="translate(412.673 218.032)">Public IP</text><path class="a8f7e362-ce97-479e-8660-0c91346422e9" d="M414.623 187.687h36.898v14.25h-36.898z"/><path class="fd8c651b-1e0c-4f19-b433-01624901dc8a" d="M445.635 194.669"/><path class="fa874d69-485b-4c08-90c0-1ce11d638086" d="M424.618 197.652v-5.841M420.39 197.652v-5.841M428.845 197.652v-5.841M433.072 197.652v-5.841"/><text class="ab8f5517-400e-4be7-96bc-b57abe2a56da" transform="translate(579.091 218.032)">Virtual Network<tspan x="18.604" y="11">Peering</tspan></text><path class="a8f7e362-ce97-479e-8660-0c91346422e9" d="M597.552 187.687h36.898v14.25h-36.898z"/><path class="fd8c651b-1e0c-4f19-b433-01624901dc8a" d="M628.563 194.669"/><path class="fa874d69-485b-4c08-90c0-1ce11d638086" d="M607.546 197.652v-5.841M603.319 197.652v-5.841M611.773 197.652v-5.841M616.001 197.652v-5.841"/><text class="ab8f5517-400e-4be7-96bc-b57abe2a56da" transform="translate(703.365 218.032)">Azure<tspan x="-19.11" y="11">ExpressRoute</tspan></text><path class="a8f7e362-ce97-479e-8660-0c91346422e9" d="M698.551 187.687h36.898v14.25h-36.898z"/><path class="fd8c651b-1e0c-4f19-b433-01624901dc8a" d="M729.562 194.669"/><path class="fa874d69-485b-4c08-90c0-1ce11d638086" d="M708.545 197.652v-5.841M704.318 197.652v-5.841M712.773 197.652v-5.841M717 197.652v-5.841"/><path class="a64c7a50-b0a2-4788-8940-78864a62fbf9" d="M717 247.748v-15.542"/><path class="f05c99d5-8a23-4120-b6f1-0bd837ea8f3d" d="M721.986 246.289L717 254.924l-4.986-8.635h9.972z"/><path class="a64c7a50-b0a2-4788-8940-78864a62fbf9" d="M616 186.804v-24.708"/><path class="f05c99d5-8a23-4120-b6f1-0bd837ea8f3d" d="M620.986 163.555L616 154.92l-4.986 8.635h9.972z"/><path class="ae441135-e293-48d6-80f9-dce52745afc9" d="M574 103.42h84v48h-84z"/><text class="ab8f5517-400e-4be7-96bc-b57abe2a56da" transform="translate(600.301 124.69)">Virtual<tspan x="-4.386" y="11">Network</tspan></text><path class="a64c7a50-b0a2-4788-8940-78864a62fbf9" d="M717 187.687v-25.591"/><path class="f05c99d5-8a23-4120-b6f1-0bd837ea8f3d" d="M721.986 163.555L717 154.92l-4.986 8.635h9.972z"/><path d="M759 103.42v48h-84v-48h84m1-1h-86v50h86v-50z" fill="#c4c4c4"/><text class="ab8f5517-400e-4be7-96bc-b57abe2a56da" transform="translate(686.546 124.69)">On-premises<tspan x="-2.25" y="11">infrastructure</tspan></text><path class="f315a26f-eb8d-4861-bede-e61c4a69dded" d="M231.572 38.42h322v115h-322z"/><path class="acdd96c4-42be-4d3d-b124-1538005589f3" d="M312.072 84.92v23h-64v-23h64m1-1h-66v25h66v-25zM385.572 84.92v23h-64v-23h64m1-1h-66v25h66v-25zM464.572 84.92v23h-64v-23h64m1-1h-66v25h66v-25zM538.072 84.92v23h-64v-23h64m1-1h-66v25h66v-25z"/><g><path class="a64c7a50-b0a2-4788-8940-78864a62fbf9" d="M126 95.92h-10.324"/><path class="f05c99d5-8a23-4120-b6f1-0bd837ea8f3d" d="M117.135 90.934L108.5 95.92l8.635 4.986v-9.972z"/></g><path class="f315a26f-eb8d-4861-bede-e61c4a69dded" d="M0 118.42h106v35H0z"/><text class="ab8f5517-400e-4be7-96bc-b57abe2a56da" transform="translate(18.825 138.69)">Service Health</text><path class="f315a26f-eb8d-4861-bede-e61c4a69dded" d="M0 78.42h106v35H0z"/><text class="ab8f5517-400e-4be7-96bc-b57abe2a56da" transform="translate(39.365 93.967)">Azure<tspan x="-30.189" y="11">Resource Manager</tspan></text><path class="f315a26f-eb8d-4861-bede-e61c4a69dded" d="M0 38.42h106v35H0z"/><text class="ab8f5517-400e-4be7-96bc-b57abe2a56da" transform="translate(39.365 53.967)">Azure<tspan x="-30.47" y="11">Container Registry</tspan></text><text class="ab8f5517-400e-4be7-96bc-b57abe2a56da" transform="translate(258.788 99.467)">A record:</text><text class="b821d374-a67a-43b8-bd2d-cf156803ace8" transform="translate(247.111 63.077)">if ingress visibility<tspan x="15.844" y="9.5">is private</tspan></text><path class="b9e94c20-60f8-4f53-a106-52574e7cb3ef" d="M318.072 113.92v25h-66"/><path class="b9e94c20-60f8-4f53-a106-52574e7cb3ef" d="M315.572 111.42v25h-66"/><text class="ab8f5517-400e-4be7-96bc-b57abe2a56da" transform="translate(332.288 99.467)">A record:</text><text class="b821d374-a67a-43b8-bd2d-cf156803ace8" transform="translate(327.427 63.077)">if API visibility<tspan x="9.027" y="9.5">is private</tspan></text><text class="ab8f5517-400e-4be7-96bc-b57abe2a56da" transform="translate(411.288 99.467)">A record:</text><text class="b821d374-a67a-43b8-bd2d-cf156803ace8" transform="translate(399.611 63.077)">if ingress visibility<tspan x="17.743" y="9.5">is public</tspan></text><path class="b9e94c20-60f8-4f53-a106-52574e7cb3ef" d="M470.572 113.92v25h-66"/><path class="b9e94c20-60f8-4f53-a106-52574e7cb3ef" d="M468.072 111.42v25h-66"/><text class="ab8f5517-400e-4be7-96bc-b57abe2a56da" transform="translate(484.788 99.467)">A record:</text><text class="ab8f5517-400e-4be7-96bc-b57abe2a56da" transform="translate(476.743 28.42)">Azure DNS Zone</text><text class="b821d374-a67a-43b8-bd2d-cf156803ace8" transform="translate(479.927 63.077)">if API visibility<tspan x="10.927" y="9.5">is public</tspan></text><path fill="#06c" d="M126 38.42h86v115h-86z"/><path class="a09e6787-7c7e-41ab-9f13-c5a206f53774" d="M280.072 147.158v-13.191M432.572 147.158v-13.191"/><g><path class="a64c7a50-b0a2-4788-8940-78864a62fbf9" d="M323.072 241.501V162.92h-43v-28.953"/><path class="f05c99d5-8a23-4120-b6f1-0bd837ea8f3d" d="M328.059 240.042l-4.987 8.635-4.986-8.635h9.973z"/></g><g><path class="a64c7a50-b0a2-4788-8940-78864a62fbf9" d="M338.072 241.501V162.92h15.501v-28.953"/><path class="f05c99d5-8a23-4120-b6f1-0bd837ea8f3d" d="M343.058 240.042l-4.986 8.635-4.987-8.635h9.973z"/></g><g><path class="a64c7a50-b0a2-4788-8940-78864a62fbf9" d="M432.572 177.001v-43.034"/><path class="f05c99d5-8a23-4120-b6f1-0bd837ea8f3d" d="M437.559 175.542l-4.987 8.635-4.986-8.635h9.973z"/></g><g><path class="a64c7a50-b0a2-4788-8940-78864a62fbf9" d="M447.733 177.001V162.92h58.501v-28.953"/><path class="f05c99d5-8a23-4120-b6f1-0bd837ea8f3d" d="M452.72 175.542l-4.987 8.635-4.986-8.635h9.973z"/></g><path class="acdd96c4-42be-4d3d-b124-1538005589f3" d="M320.572 108.92h66v25h-66z"/><text class="ab8f5517-400e-4be7-96bc-b57abe2a56da" transform="translate(345.307 124.467)">API</text><path class="acdd96c4-42be-4d3d-b124-1538005589f3" d="M247.072 108.92h66v25h-66z"/><text class="ab8f5517-400e-4be7-96bc-b57abe2a56da" transform="translate(267.592 124.467)">.apps</text><path class="acdd96c4-42be-4d3d-b124-1538005589f3" d="M399.572 108.92h66v25h-66z"/><text class="ab8f5517-400e-4be7-96bc-b57abe2a56da" transform="translate(420.092 124.467)">.apps</text><path class="acdd96c4-42be-4d3d-b124-1538005589f3" d="M473.072 108.92h66v25h-66z"/><text class="ab8f5517-400e-4be7-96bc-b57abe2a56da" transform="translate(497.807 124.467)">API</text><path class="a64c7a50-b0a2-4788-8940-78864a62fbf9" d="M473.572 24.946L461.984 38.42"/><text class="f86118df-a50c-4d2e-9dd4-546039111900" transform="translate(10.25 276.964)">Virtual network</text><text class="f86118df-a50c-4d2e-9dd4-546039111900" transform="translate(30.25 351.947)">Network Security Group</text><text class="f86118df-a50c-4d2e-9dd4-546039111900" transform="translate(593 372.198)">Worker subnet</text><text class="f86118df-a50c-4d2e-9dd4-546039111900" transform="translate(206.5 372.197)">Master subnet</text><text transform="translate(154.48 82.105)" fill="#fff" font-family="RedHatText,&quot;Red Hat Text&quot;,Overpass,&quot;Helvetica Neue&quot;,Arial,sans-serif" font-weight="700" font-size="10">Azure<tspan x="-5.245" y="11">Red Hat</tspan><tspan x="-11.21" y="22">OpenShift</tspan><tspan x="-3.26" y="33">service</tspan></text><g><path class="a64c7a50-b0a2-4788-8940-78864a62fbf9" d="M211.288 251.953v-25h96.784v14.274"/><path class="f05c99d5-8a23-4120-b6f1-0bd837ea8f3d" d="M303.086 239.768l4.986 8.635 4.987-8.635h-9.973z"/></g><g><text class="ab8f5517-400e-4be7-96bc-b57abe2a56da" transform="translate(118.252 282.298)">Private<tspan x="-4.435" y="11">Endpoint</tspan></text><path class="a8f7e362-ce97-479e-8660-0c91346422e9" d="M116.75 251.953h36.898v14.25H116.75z"/><path class="fd8c651b-1e0c-4f19-b433-01624901dc8a" d="M147.761 258.935"/><path class="fa874d69-485b-4c08-90c0-1ce11d638086" d="M122.386 259.06h8.716"/></g><g><text class="ab8f5517-400e-4be7-96bc-b57abe2a56da" transform="translate(188.273 282.298)">Private<tspan x="-11.575" y="11">Link Service</tspan><tspan class="fee19c30-e6b7-4bdd-b2da-2b668cbfc78a"><tspan x="1.155" y="22">aro-pls</tspan></tspan></text><path class="a8f7e362-ce97-479e-8660-0c91346422e9" d="M186.771 251.953h36.898v14.25h-36.898z"/><path class="fd8c651b-1e0c-4f19-b433-01624901dc8a" d="M217.783 258.935"/><path class="fa874d69-485b-4c08-90c0-1ce11d638086" d="M192.408 259.06h8.716"/></g><g style="mix-blend-mode:multiply"><path class="b4c55fa5-95c6-417f-be5a-821a55df34d3" d="M126.5 95.92h1.5"/><path stroke-dasharray="1.922 1.922" stroke="#599cde" stroke-linecap="round" stroke-linejoin="round" fill="none" d="M129.922 95.92h2.884"/><path class="b4c55fa5-95c6-417f-be5a-821a55df34d3" d="M133.767 95.92h1.5v1.5"/><path stroke-dasharray="2.842 2.842" stroke="#599cde" stroke-linecap="round" stroke-linejoin="round" fill="none" d="M135.267 100.262v49.737"/><path class="b4c55fa5-95c6-417f-be5a-821a55df34d3" d="M135.267 151.42v1.5"/></g><g><path class="a64c7a50-b0a2-4788-8940-78864a62fbf9" d="M135.267 163.096v87.807"/><path class="f05c99d5-8a23-4120-b6f1-0bd837ea8f3d" d="M130.28 164.555l4.987-8.635 4.986 8.635h-9.973z"/></g><g><text transform="translate(667.181 517.784)" fill="#ececec" font-family="RedHatText,&quot;Red Hat Text&quot;,Overpass,&quot;Helvetica Neue&quot;,Arial,sans-serif" font-size="10">190_OpenShift_0921</text><path fill="none" d="M0 494.767h760v40H0z"/></g></g></g></svg>