<svg id="artwork" xmlns="http://www.w3.org/2000/svg" viewBox="0 0 760 539.5"><defs><style>.cls-2{fill:none;stroke:#06c;stroke-linecap:round;stroke-linejoin:round}.cls-3,.cls-4{letter-spacing:0}.cls-10{letter-spacing:-.02em}.cls-18{letter-spacing:-.01em}.cls-27{fill:#06c}.cls-29{fill:#e8e8e8}.cls-30,.cls-32{letter-spacing:-.02em}.cls-33{letter-spacing:0}.cls-36{letter-spacing:-.01em}.cls-37{letter-spacing:-.05em}.cls-41{letter-spacing:0}.cls-43{letter-spacing:-.01em}.cls-55{font-family:RedHatText,&quot;Red Hat Text&quot;,Overpass,&quot;Helvetica Neue&quot;,Arial,sans-serif;font-weight:500;font-size:11px;font-variation-settings:&apos;wght&apos; 500}.cls-55,.cls-56{fill:#151515}.cls-62{letter-spacing:0}.cls-63{letter-spacing:.04em}.cls-67,.cls-72,.cls-73,.cls-75,.cls-76{letter-spacing:0}.cls-77{letter-spacing:.02em}.cls-78{letter-spacing:.01em}.cls-81,.cls-86{letter-spacing:0}.cls-92{letter-spacing:-.01em}.cls-93,.cls-94,.cls-95{letter-spacing:0}.cls-102{letter-spacing:-.02em}.cls-106{letter-spacing:.03em}.cls-56{font-family:RedHatText,&quot;Red Hat Text&quot;,Overpass,&quot;Helvetica Neue&quot;,Arial,sans-serif;font-weight:700;font-size:14px;font-variation-settings:&apos;wght&apos; 700}.cls-109{letter-spacing:-.02em}.cls-117{letter-spacing:.01em}.cls-126{letter-spacing:0}.cls-127{letter-spacing:.03em}</style></defs><path class="cls-29" d="M0 20h143v479.5H0z"/><text class="cls-56" transform="translate(15 46.9)"><tspan x="0" y="0" letter-spacing="0">U</tspan><tspan x="10.5" y="0" letter-spacing="0">s</tspan><tspan class="cls-126" x="17.71" y="0">e</tspan><tspan x="25.97" y="0">r</tspan></text><path class="cls-29" d="M154.25 20h143v479.5h-143z"/><text class="cls-56" transform="translate(169.25 46.9)"><tspan x="0" y="0" letter-spacing="0">S</tspan><tspan x="9.28" y="0" letter-spacing="0">a</tspan><tspan x="17.26" y="0" letter-spacing="-.02em">t</tspan><tspan x="23.34" y="0" letter-spacing="0">e</tspan><tspan x="31.63" y="0" letter-spacing="0">l</tspan><tspan x="35.7" y="0" letter-spacing="0">l</tspan><tspan x="39.78" y="0" letter-spacing="0">i</tspan><tspan class="cls-32" x="43.84" y="0">t</tspan><tspan x="49.93" y="0" letter-spacing="0">e</tspan></text><path class="cls-29" d="M308.5 20h143v479.5h-143z"/><text class="cls-56" transform="translate(323.5 46.9)"><tspan x="0" y="0" letter-spacing="0">C</tspan><tspan x="10.1" y="0" letter-spacing="0">a</tspan><tspan x="18.26" y="0" letter-spacing="0">p</tspan><tspan x="27.29" y="0" letter-spacing="0">s</tspan><tspan x="34.49" y="0" letter-spacing="0">u</tspan><tspan x="43.19" y="0" letter-spacing="0">l</tspan><tspan x="47.26" y="0">e X</tspan></text><path class="cls-29" d="M462.75 20h143v479.5h-143z"/><text class="cls-56" transform="translate(477.75 46.9)"><tspan x="0" y="0" letter-spacing="0">V</tspan><tspan x="10.5" y="0">M</tspan></text><path class="cls-29" d="M617 20h143v479.5H617z"/><text class="cls-56" transform="translate(632 46.9)"><tspan x="0" y="0" letter-spacing=".01em">v</tspan><tspan x="8.44" y="0" letter-spacing="-.01em">C</tspan><tspan class="cls-126" x="18.33" y="0">e</tspan><tspan x="26.59" y="0" letter-spacing="-.01em">n</tspan><tspan class="cls-32" x="35.05" y="0">t</tspan><tspan class="cls-126" x="41.14" y="0">e</tspan><tspan x="49.4" y="0">r</tspan></text><path fill="#fff" d="M169.25 326.61h113v50h-113z"/><text class="cls-55" transform="translate(179.25 348.82)"><tspan x="0" y="0" letter-spacing="-.02em">R</tspan><tspan x="7.14" y="0" letter-spacing="-.01em">e</tspan><tspan x="13.29" y="0" letter-spacing="-.01em">d</tspan><tspan x="19.89" y="0" letter-spacing="-.01em">i</tspan><tspan x="22.54" y="0" letter-spacing="-.03em">r</tspan><tspan x="26.52" y="0" letter-spacing="-.01em">e</tspan><tspan x="32.67" y="0" letter-spacing="0">c</tspan><tspan class="cls-10" x="38.52" y="0">t </tspan><tspan x="45.11" y="0" letter-spacing="-.01em">U</tspan><tspan x="52.98" y="0" letter-spacing="-.01em">s</tspan><tspan x="58.13" y="0" letter-spacing="-.02em">e</tspan><tspan x="64.26" y="0" letter-spacing="-.03em">r</tspan><tspan x="68.22" y="0" letter-spacing="-.02em">d</tspan><tspan x="74.75" y="0" letter-spacing="-.02em">a</tspan><tspan x="80.54" y="0" letter-spacing="-.01em">t</tspan><tspan class="cls-10" x="84.95" y="0">a</tspan><tspan class="cls-30" x="0" y="12">t</tspan><tspan x="4.36" y="12">o </tspan><tspan class="cls-81" x="13.4" y="12">p</tspan><tspan class="cls-94" x="20.17" y="12">o</tspan><tspan class="cls-63" x="26.81" y="12">r</tspan><tspan x="31.53" y="12">t </tspan><tspan class="cls-106" x="38.56" y="12">4</tspan><tspan class="cls-36" x="46.04" y="12">4</tspan><tspan x="53.07" y="12">3</tspan></text><path class="cls-2" d="M161.8 98.39H15.5"/><path class="cls-27" d="M160.34 93.41l8.64 4.98-8.64 4.99v-9.97z"/><text class="cls-55" transform="translate(15 79.69)"><tspan x="0" y="0" letter-spacing="0">P</tspan><tspan class="cls-43" x="7.42" y="0">r</tspan><tspan x="11.61" y="0" letter-spacing="0">o</tspan><tspan x="18.08" y="0" letter-spacing=".01em">v</tspan><tspan class="cls-41" x="24.18" y="0">i</tspan><tspan x="27.05" y="0" letter-spacing=".01em">s</tspan><tspan x="32.44" y="0" letter-spacing="0">i</tspan><tspan x="35.25" y="0" letter-spacing="0">o</tspan><tspan x="41.9" y="0">n </tspan><tspan class="cls-117" x="50.77" y="0">V</tspan><tspan x="58.59" y="0">M</tspan><tspan x="0" y="12" letter-spacing="0">i</tspan><tspan x="2.87" y="12">n </tspan><tspan class="cls-3" x="11.75" y="12">n</tspan><tspan x="18.22" y="12" letter-spacing="-.01em">e</tspan><tspan x="24.41" y="12" letter-spacing=".03em">t</tspan><tspan x="29.27" y="12" letter-spacing="0">w</tspan><tspan class="cls-94" x="37.31" y="12">o</tspan><tspan x="43.96" y="12" letter-spacing=".01em">r</tspan><tspan x="48.4" y="12">k X</tspan></text><path class="cls-2" d="M624.92 148.39H169.75"/><path class="cls-27" d="M623.46 143.41l8.64 4.98-8.64 4.99v-9.97z"/><text class="cls-55" transform="translate(169.25 128.45)"><tspan class="cls-86" x="0" y="0">C</tspan><tspan class="cls-18" x="7.89" y="0">r</tspan><tspan x="12.09" y="0" letter-spacing="0">e</tspan><tspan class="cls-67" x="18.33" y="0">a</tspan><tspan x="24.34" y="0" letter-spacing="-.02em">t</tspan><tspan x="28.7" y="0">e a </tspan><tspan class="cls-117" x="46.01" y="0">V</tspan><tspan x="53.82" y="0">M </tspan><tspan class="cls-78" x="66.07" y="0">f</tspan><tspan class="cls-43" x="70.72" y="0">r</tspan><tspan class="cls-94" x="74.91" y="0">o</tspan><tspan x="81.56" y="0">m a</tspan><tspan class="cls-109" x="0" y="12">t</tspan><tspan class="cls-95" x="4.36" y="12">e</tspan><tspan x="10.7" y="12" letter-spacing="0">m</tspan><tspan x="20.44" y="12" letter-spacing="0">p</tspan><tspan class="cls-72" x="27.23" y="12">l</tspan><tspan class="cls-62" x="30.06" y="12">a</tspan><tspan class="cls-109" x="36.07" y="12">t</tspan><tspan class="cls-76" x="40.43" y="12">e </tspan><tspan class="cls-94" x="49.21" y="12">o</tspan><tspan x="55.85" y="12">n </tspan><tspan class="cls-81" x="64.73" y="12">p</tspan><tspan class="cls-94" x="71.5" y="12">o</tspan><tspan class="cls-63" x="78.14" y="12">r</tspan><tspan class="cls-93" x="82.86" y="12">t </tspan><tspan class="cls-106" x="89.89" y="12">4</tspan><tspan class="cls-36" x="97.37" y="12">4</tspan><tspan x="104.4" y="12">3</tspan></text><path class="cls-2" d="M597.43 196.31H744.5"/><path class="cls-27" d="M598.89 201.3l-8.64-4.99 8.64-4.98v9.97z"/><text class="cls-55" transform="translate(694.76 177.61)"><tspan class="cls-86" x="0" y="0">C</tspan><tspan x="7.89" y="0" letter-spacing="0">l</tspan><tspan class="cls-94" x="10.75" y="0">o</tspan><tspan class="cls-4" x="17.4" y="0">n</tspan><tspan class="cls-76" x="23.87" y="0">e </tspan><tspan class="cls-117" x="32.65" y="0">V</tspan><tspan x="40.46" y="0">M</tspan><tspan class="cls-78" x="-24.09" y="12">f</tspan><tspan class="cls-43" x="-19.44" y="12">r</tspan><tspan class="cls-94" x="-15.25" y="12">o</tspan><tspan x="-8.6" y="12">m </tspan><tspan class="cls-109" x="3.51" y="12">t</tspan><tspan x="7.87" y="12" letter-spacing="0">e</tspan><tspan class="cls-41" x="14.21" y="12">m</tspan><tspan x="23.94" y="12" letter-spacing="0">p</tspan><tspan class="cls-72" x="30.74" y="12">l</tspan><tspan class="cls-67" x="33.56" y="12">a</tspan><tspan class="cls-109" x="39.57" y="12">t</tspan><tspan x="43.93" y="12">e</tspan></text><path class="cls-2" d="M289.43 305.21H436"/><path class="cls-27" d="M290.89 310.2l-8.64-4.99 8.64-4.98v9.97z"/><text class="cls-55" transform="translate(343.76 286.51)"><tspan class="cls-37" x="0" y="0">F</tspan><tspan class="cls-94" x="6.38" y="0">o</tspan><tspan class="cls-127" x="13.02" y="0">r</tspan><tspan class="cls-33" x="17.71" y="0">w</tspan><tspan class="cls-75" x="25.8" y="0">a</tspan><tspan class="cls-92" x="31.95" y="0">r</tspan><tspan x="36.13" y="0">d </tspan><tspan x="45.32" y="0" letter-spacing="0">U</tspan><tspan x="53.41" y="0" letter-spacing="0">s</tspan><tspan class="cls-95" x="58.78" y="0">e</tspan><tspan x="65.12" y="0" letter-spacing="-.01em">r</tspan><tspan x="69.31" y="0" letter-spacing="0">d</tspan><tspan class="cls-62" x="76.06" y="0">a</tspan><tspan class="cls-4" x="82.07" y="0">t</tspan><tspan x="86.69" y="0">a</tspan><tspan class="cls-94" x="37.73" y="12">o</tspan><tspan x="44.37" y="12">n </tspan><tspan class="cls-81" x="53.25" y="12">p</tspan><tspan class="cls-94" x="60.02" y="12">o</tspan><tspan class="cls-63" x="66.67" y="12">r</tspan><tspan class="cls-93" x="71.38" y="12">t </tspan><tspan x="78.41" y="12" letter-spacing="0">8</tspan><tspan x="85.33" y="12">0</tspan></text><g><path class="cls-2" d="M590.25 256.71H443.3"/><path class="cls-27" d="M444.76 251.73l-8.63 4.98 8.63 4.99v-9.97z"/></g><text class="cls-55" transform="translate(530.69 226.09)"><tspan x="0" y="0">Call </tspan><tspan x="22.02" y="0" letter-spacing="0">b</tspan><tspan x="28.8" y="0">ack </tspan><tspan class="cls-73" x="49.03" y="0">t</tspan><tspan x="53.49" y="0">o</tspan><tspan class="cls-77" x="-16.16" y="12">S</tspan><tspan class="cls-102" x="-8.99" y="12">a</tspan><tspan class="cls-93" x="-3.1" y="12">t port </tspan><tspan x="28.57" y="12" letter-spacing="0">8</tspan><tspan x="35.39" y="12">0 via</tspan><tspan x="-23.12" y="24">Capsule X </tspan><tspan x="31" y="24" letter-spacing="0">8</tspan><tspan class="cls-76" x="37.82" y="24">000</tspan></text><g><path class="cls-2" d="M289.43 473.71H436"/><path class="cls-27" d="M290.89 478.7l-8.64-4.99 8.64-4.98v9.97z"/></g><text class="cls-55" transform="translate(373.59 443.01)"><tspan class="cls-37" x="0" y="0">F</tspan><tspan class="cls-94" x="6.38" y="0">o</tspan><tspan class="cls-127" x="13.02" y="0">r</tspan><tspan class="cls-33" x="17.71" y="0">w</tspan><tspan class="cls-75" x="25.8" y="0">a</tspan><tspan class="cls-92" x="31.95" y="0">r</tspan><tspan x="36.13" y="0">d </tspan><tspan class="cls-117" x="45.32" y="0">V</tspan><tspan x="53.13" y="0">M</tspan><tspan class="cls-18" x="1.68" y="12">r</tspan><tspan x="5.88" y="12" letter-spacing="0">e</tspan><tspan x="12.25" y="12" letter-spacing="0">g</tspan><tspan class="cls-41" x="19.05" y="12">i</tspan><tspan x="21.92" y="12" letter-spacing=".02em">s</tspan><tspan class="cls-81" x="27.44" y="12">t</tspan><tspan class="cls-3" x="32.04" y="12">r</tspan><tspan class="cls-62" x="36.44" y="12">a</tspan><tspan class="cls-81" x="42.45" y="12">t</tspan><tspan x="47.05" y="12" letter-spacing="0">i</tspan><tspan class="cls-94" x="49.86" y="12">o</tspan><tspan x="56.51" y="12">n</tspan><tspan class="cls-30" x="6.39" y="24">t</tspan><tspan x="10.74" y="24">o </tspan><tspan x="19.79" y="24" letter-spacing=".01em">S</tspan><tspan class="cls-67" x="26.94" y="24">a</tspan><tspan class="cls-109" x="32.95" y="24">t</tspan><tspan x="37.31" y="24" letter-spacing="0">e</tspan><tspan x="43.66" y="24" letter-spacing="0">ll</tspan><tspan x="49.39" y="24" letter-spacing="0">i</tspan><tspan class="cls-109" x="52.24" y="24">t</tspan><tspan x="56.61" y="24">e</tspan></text><g><path class="cls-2" d="M590.25 413.21h-147.5"/><path class="cls-27" d="M444.21 408.23l-8.63 4.98 8.63 4.99v-9.97z"/></g><text class="cls-55" transform="translate(518.76 394.59)"><tspan x="0" y="0" letter-spacing="-.02em">R</tspan><tspan x="7.12" y="0" letter-spacing="0">e</tspan><tspan class="cls-93" x="13.44" y="0">gi</tspan><tspan x="22.91" y="0" letter-spacing="-.01em">s</tspan><tspan class="cls-73" x="28.07" y="0">t</tspan><tspan x="32.54" y="0">er i</tspan><tspan x="48.41" y="0" letter-spacing="0">t</tspan><tspan x="53.07" y="0" letter-spacing="0">s</tspan><tspan class="cls-93" x="58.4" y="0">elf</tspan><tspan class="cls-73" x="15.58" y="12">t</tspan><tspan x="20.04" y="12">o </tspan><tspan class="cls-77" x="29.08" y="12">S</tspan><tspan class="cls-102" x="36.26" y="12">a</tspan><tspan class="cls-73" x="42.14" y="12">t</tspan><tspan class="cls-93" x="46.61" y="12">elli</tspan><tspan class="cls-73" x="61.23" y="12">t</tspan><tspan class="cls-76" x="65.69" y="12">e</tspan></text><g><text transform="translate(670.98 522.52)" style="font-variation-settings:'wght' 400" fill="#ececec" font-family="RedHatText,&quot;Red Hat Text&quot;,Overpass,&quot;Helvetica Neue&quot;,Arial,sans-serif" font-size="10"><tspan x="0" y="0" letter-spacing="0">2</tspan><tspan x="5.53" y="0" letter-spacing="0">7</tspan><tspan x="11.06" y="0" letter-spacing=".04em">8</tspan><tspan x="17.64" y="0" letter-spacing=".06em">_</tspan><tspan x="22.8" y="0" letter-spacing=".02em">S</tspan><tspan x="29.21" y="0" letter-spacing="0">a</tspan><tspan x="34.48" y="0" letter-spacing="-.01em">t</tspan><tspan x="38.14" y="0" letter-spacing="0">e</tspan><tspan x="43.81" y="0" letter-spacing=".01em">ll</tspan><tspan x="48.53" y="0" letter-spacing=".01em">i</tspan><tspan x="50.87" y="0" letter-spacing="-.01em">t</tspan><tspan x="54.53" y="0" letter-spacing=".02em">e</tspan><tspan x="60.29" y="0" letter-spacing=".02em">_</tspan><tspan x="65.07" y="0" letter-spacing=".01em">0</tspan><tspan x="71.77" y="0" letter-spacing="-.01em">9</tspan><tspan x="77.85" y="0" letter-spacing=".02em">2</tspan><tspan x="83.54" y="0" letter-spacing="0">2</tspan></text><path fill="none" d="M0 499.5h760v40H0z"/></g></svg>