<svg xmlns="http://www.w3.org/2000/svg" xmlns:xlink="http://www.w3.org/1999/xlink" width="760" height="443" viewBox="0 0 760 443">
  <defs>
    <style>
      .a3f2f32f-ad82-4932-8370-78c118f423f7, .a44736b6-9a84-457c-b53e-ae27fd17e0dc, .a86a21ed-5bb3-4e4d-8f60-2c22a9633d2a, .aefd2000-379c-4300-9b83-b1282499d7a7, .ba6530c5-4512-4e5a-9761-33371ee13e12, .babee0a8-5dac-4a3f-bf8d-145e6f825ebd, .f1083356-e30b-48f2-a92e-0325da97ec5c, .f2e0b72e-0d12-40e1-8f3d-663e6d81b450, .f50f351a-9a61-43c4-abdd-bb237d50355a, .f55fdfbf-eb09-483d-9883-484877245af8, .f9cf3a6f-42ce-473f-a572-7531cccf1873, .fd8e35f3-d287-45fd-81dc-d3767d193eb7 {
        fill: none;
      }

      .af927558-909e-499c-9004-53b4b2f14645, .b28a0f44-e6b4-4703-bc89-d219c76d01ee, .e12e354d-b8f6-473a-afb7-5f4003da8a3f, .f2898957-f84b-4c10-ba12-2f90592e959a {
        fill: #151515;
      }

      .a86a21ed-5bb3-4e4d-8f60-2c22a9633d2a, .aefd2000-379c-4300-9b83-b1282499d7a7, .ba6530c5-4512-4e5a-9761-33371ee13e12, .f2898957-f84b-4c10-ba12-2f90592e959a, .f55fdfbf-eb09-483d-9883-484877245af8 {
        stroke: #151515;
      }

      .f2898957-f84b-4c10-ba12-2f90592e959a {
        stroke-miterlimit: 10;
      }

      .a7ae67a0-d345-47e2-9274-d418d140fac2 {
        isolation: isolate;
      }

      .f50f351a-9a61-43c4-abdd-bb237d50355a {
        stroke: #5e40be;
      }

      .a3f2f32f-ad82-4932-8370-78c118f423f7, .a44736b6-9a84-457c-b53e-ae27fd17e0dc, .a86a21ed-5bb3-4e4d-8f60-2c22a9633d2a, .ae73c5cf-3cf8-4a78-94f0-3a3a8677bd26, .aefd2000-379c-4300-9b83-b1282499d7a7, .ba6530c5-4512-4e5a-9761-33371ee13e12, .babee0a8-5dac-4a3f-bf8d-145e6f825ebd, .ed2a521c-c067-451e-8e1e-c1d3b1c9b229, .f2e0b72e-0d12-40e1-8f3d-663e6d81b450, .f50f351a-9a61-43c4-abdd-bb237d50355a, .f55fdfbf-eb09-483d-9883-484877245af8, .f9cf3a6f-42ce-473f-a572-7531cccf1873, .fd8e35f3-d287-45fd-81dc-d3767d193eb7 {
        stroke-linecap: round;
        stroke-linejoin: round;
      }

      .a3f2f32f-ad82-4932-8370-78c118f423f7, .babee0a8-5dac-4a3f-bf8d-145e6f825ebd, .ed2a521c-c067-451e-8e1e-c1d3b1c9b229, .f2e0b72e-0d12-40e1-8f3d-663e6d81b450, .f50f351a-9a61-43c4-abdd-bb237d50355a, .fd8e35f3-d287-45fd-81dc-d3767d193eb7 {
        stroke-width: 2px;
      }

      .f7b85105-3beb-4208-b294-0aad0ae51d40 {
        fill: #e8e8e8;
      }

      .babee0a8-5dac-4a3f-bf8d-145e6f825ebd, .ed2a521c-c067-451e-8e1e-c1d3b1c9b229 {
        stroke: #06c;
      }

      .ae7092e3-f3fd-4982-be27-43e0e0728453, .e12e354d-b8f6-473a-afb7-5f4003da8a3f {
        font-size: 11px;
        font-family: RedHatText-Medium, Red Hat Text;
        font-weight: 500;
      }

      .a4e946aa-b13c-4dc6-a238-78af0b81ff8e {
        font-size: 10px;
        fill: #f3f3f3;
        font-family: RedHatText-Regular, Red Hat Text;
      }

      .fd8e35f3-d287-45fd-81dc-d3767d193eb7 {
        stroke: #4cb6d6;
      }

      .e2f41c9d-3591-4a28-a250-6488c40b424c {
        fill: #d0d0d0;
      }

      .ad89b6a3-4110-48a0-adce-ddf3e30d0bd7, .b28a0f44-e6b4-4703-bc89-d219c76d01ee {
        font-size: 12px;
        font-family: RedHatText-Bold, Red Hat Text;
        font-weight: 700;
      }

      .a86a21ed-5bb3-4e4d-8f60-2c22a9633d2a {
        stroke-dasharray: 2 2;
      }

      .ba6530c5-4512-4e5a-9761-33371ee13e12 {
        stroke-dasharray: 3.071 3.071;
      }

      .f55fdfbf-eb09-483d-9883-484877245af8 {
        stroke-dasharray: 2.941 2.941;
      }

      .a0e7e27e-1733-42ea-bfd5-bb7b189cbfd8, .ae7092e3-f3fd-4982-be27-43e0e0728453, .ae73c5cf-3cf8-4a78-94f0-3a3a8677bd26, .ed2a521c-c067-451e-8e1e-c1d3b1c9b229 {
        fill: #fff;
      }

      .f9cf3a6f-42ce-473f-a572-7531cccf1873 {
        stroke: #fff;
        stroke-width: 10px;
      }

      .a3f2f32f-ad82-4932-8370-78c118f423f7 {
        stroke: #c0d682;
      }

      .a44736b6-9a84-457c-b53e-ae27fd17e0dc, .ae73c5cf-3cf8-4a78-94f0-3a3a8677bd26, .f2e0b72e-0d12-40e1-8f3d-663e6d81b450 {
        stroke: #5b5b5b;
      }

      .a44736b6-9a84-457c-b53e-ae27fd17e0dc, .ae73c5cf-3cf8-4a78-94f0-3a3a8677bd26 {
        stroke-width: 1.5px;
      }

      .ad89b6a3-4110-48a0-adce-ddf3e30d0bd7 {
        fill: #dcdcdc;
      }

      .ac88cf2a-c591-479b-8569-da23bfc2a5ad {
        fill: #5e40be;
      }

      .bdcde537-2ea7-45a5-b716-70f7a488aec6 {
        opacity: 0.35;
        mix-blend-mode: multiply;
      }

      .b3c33557-6a95-4ce8-b29c-b379ae1c22d4 {
        fill: url(#ecb29a1f-4c93-4c7e-9e42-fd51fa0f01fb);
      }

      .af4164eb-360b-4ecb-b318-3774847e3adf {
        fill: #06c;
      }

      .a566c039-9bdd-4bf8-b0df-e53165d54a38 {
        fill: url(#b5f6a468-3099-41e7-9d23-7cda50d78f7c);
      }
    </style>
    <pattern id="ecb29a1f-4c93-4c7e-9e42-fd51fa0f01fb" data-name="diaginal hash (gray)" width="50" height="50" patternUnits="userSpaceOnUse" viewBox="0 0 50 50">
      <rect class="f1083356-e30b-48f2-a92e-0325da97ec5c" width="50" height="50"/>
      <g>
        <polygon class="f2898957-f84b-4c10-ba12-2f90592e959a" points="50 50 50 50.707 50.707 50 50 50"/>
        <polygon class="f2898957-f84b-4c10-ba12-2f90592e959a" points="54.849 50 50 54.849 50 56.263 56.263 50 54.849 50"/>
        <polygon class="f2898957-f84b-4c10-ba12-2f90592e959a" points="60.404 50 50 60.404 50 61.818 61.818 50 60.404 50"/>
        <polygon class="f2898957-f84b-4c10-ba12-2f90592e959a" points="65.96 50 50 65.96 50 67.374 67.374 50 65.96 50"/>
        <polygon class="f2898957-f84b-4c10-ba12-2f90592e959a" points="71.515 50 50 71.515 50 72.929 72.929 50 71.515 50"/>
        <polygon class="f2898957-f84b-4c10-ba12-2f90592e959a" points="77.071 50 50 77.071 50 78.485 78.485 50 77.071 50"/>
        <polygon class="f2898957-f84b-4c10-ba12-2f90592e959a" points="82.626 50 50 82.626 50 84.04 84.041 50 82.626 50"/>
        <polygon class="f2898957-f84b-4c10-ba12-2f90592e959a" points="88.182 50 50 88.182 50 89.596 89.596 50 88.182 50"/>
        <polygon class="f2898957-f84b-4c10-ba12-2f90592e959a" points="93.737 50 50 93.737 50 95.151 95.151 50 93.737 50"/>
        <polygon class="f2898957-f84b-4c10-ba12-2f90592e959a" points="100 50 99.293 50 50 99.293 50 100 50.707 100 100 50.707 100 50"/>
      </g>
      <g>
        <polygon class="f2898957-f84b-4c10-ba12-2f90592e959a" points="0 50 0 50.707 0.707 50 0 50"/>
        <polygon class="f2898957-f84b-4c10-ba12-2f90592e959a" points="4.849 50 0 54.849 0 56.263 6.263 50 4.849 50"/>
        <polygon class="f2898957-f84b-4c10-ba12-2f90592e959a" points="10.404 50 0 60.404 0 61.818 11.818 50 10.404 50"/>
        <polygon class="f2898957-f84b-4c10-ba12-2f90592e959a" points="15.96 50 0 65.96 0 67.374 17.374 50 15.96 50"/>
        <polygon class="f2898957-f84b-4c10-ba12-2f90592e959a" points="21.515 50 0 71.515 0 72.929 22.929 50 21.515 50"/>
        <polygon class="f2898957-f84b-4c10-ba12-2f90592e959a" points="27.071 50 0 77.071 0 78.485 28.485 50 27.071 50"/>
        <polygon class="f2898957-f84b-4c10-ba12-2f90592e959a" points="32.626 50 0 82.626 0 84.04 34.041 50 32.626 50"/>
        <polygon class="f2898957-f84b-4c10-ba12-2f90592e959a" points="38.182 50 0 88.182 0 89.596 39.596 50 38.182 50"/>
        <polygon class="f2898957-f84b-4c10-ba12-2f90592e959a" points="43.737 50 0 93.737 0 95.151 45.151 50 43.737 50"/>
        <polygon class="f2898957-f84b-4c10-ba12-2f90592e959a" points="50 50 49.293 50 0 99.293 0 100 0.707 100 50 50.707 50 50"/>
      </g>
      <polygon class="f2898957-f84b-4c10-ba12-2f90592e959a" points="0 50 -0.707 50 -50 99.293 -50 100 -49.293 100 0 50.707 0 50"/>
      <g>
        <polygon class="f2898957-f84b-4c10-ba12-2f90592e959a" points="50 0 50 0.707 50.707 0 50 0"/>
        <polygon class="f2898957-f84b-4c10-ba12-2f90592e959a" points="54.849 0 50 4.849 50 6.263 56.263 0 54.849 0"/>
        <polygon class="f2898957-f84b-4c10-ba12-2f90592e959a" points="60.404 0 50 10.404 50 11.818 61.818 0 60.404 0"/>
        <polygon class="f2898957-f84b-4c10-ba12-2f90592e959a" points="65.96 0 50 15.96 50 17.374 67.374 0 65.96 0"/>
        <polygon class="f2898957-f84b-4c10-ba12-2f90592e959a" points="71.515 0 50 21.515 50 22.929 72.929 0 71.515 0"/>
        <polygon class="f2898957-f84b-4c10-ba12-2f90592e959a" points="77.071 0 50 27.071 50 28.485 78.485 0 77.071 0"/>
        <polygon class="f2898957-f84b-4c10-ba12-2f90592e959a" points="82.626 0 50 32.626 50 34.04 84.041 0 82.626 0"/>
        <polygon class="f2898957-f84b-4c10-ba12-2f90592e959a" points="88.182 0 50 38.182 50 39.596 89.596 0 88.182 0"/>
        <polygon class="f2898957-f84b-4c10-ba12-2f90592e959a" points="93.737 0 50 43.737 50 45.151 95.151 0 93.737 0"/>
        <polygon class="f2898957-f84b-4c10-ba12-2f90592e959a" points="100 0 99.293 0 50 49.293 50 50 50.707 50 100 0.707 100 0"/>
      </g>
      <g>
        <polygon class="f2898957-f84b-4c10-ba12-2f90592e959a" points="0 0 0 0.707 0.707 0 0 0"/>
        <polygon class="f2898957-f84b-4c10-ba12-2f90592e959a" points="4.849 0 0 4.849 0 6.263 6.263 0 4.849 0"/>
        <polygon class="f2898957-f84b-4c10-ba12-2f90592e959a" points="10.404 0 0 10.404 0 11.818 11.818 0 10.404 0"/>
        <polygon class="f2898957-f84b-4c10-ba12-2f90592e959a" points="15.96 0 0 15.96 0 17.374 17.374 0 15.96 0"/>
        <polygon class="f2898957-f84b-4c10-ba12-2f90592e959a" points="21.515 0 0 21.515 0 22.929 22.929 0 21.515 0"/>
        <polygon class="f2898957-f84b-4c10-ba12-2f90592e959a" points="27.071 0 0 27.071 0 28.485 28.485 0 27.071 0"/>
        <polygon class="f2898957-f84b-4c10-ba12-2f90592e959a" points="32.626 0 0 32.626 0 34.04 34.041 0 32.626 0"/>
        <polygon class="f2898957-f84b-4c10-ba12-2f90592e959a" points="38.182 0 0 38.182 0 39.596 39.596 0 38.182 0"/>
        <polygon class="f2898957-f84b-4c10-ba12-2f90592e959a" points="43.737 0 0 43.737 0 45.151 45.151 0 43.737 0"/>
        <polygon class="f2898957-f84b-4c10-ba12-2f90592e959a" points="50 0 49.293 0 0 49.293 0 50 0.707 50 50 0.707 50 0"/>
        <polygon class="f2898957-f84b-4c10-ba12-2f90592e959a" points="6.263 50 50 6.262 50 4.848 4.849 50 6.263 50"/>
        <polygon class="f2898957-f84b-4c10-ba12-2f90592e959a" points="11.818 50 50 11.818 50 10.404 10.404 50 11.818 50"/>
        <polygon class="f2898957-f84b-4c10-ba12-2f90592e959a" points="17.374 50 50 17.374 50 15.96 15.96 50 17.374 50"/>
        <polygon class="f2898957-f84b-4c10-ba12-2f90592e959a" points="22.929 50 50 22.929 50 21.515 21.515 50 22.929 50"/>
        <polygon class="f2898957-f84b-4c10-ba12-2f90592e959a" points="28.485 50 50 28.485 50 27.071 27.071 50 28.485 50"/>
        <polygon class="f2898957-f84b-4c10-ba12-2f90592e959a" points="34.04 50 50 34.04 50 32.626 32.626 50 34.04 50"/>
        <polygon class="f2898957-f84b-4c10-ba12-2f90592e959a" points="39.596 50 50 39.596 50 38.182 38.182 50 39.596 50"/>
        <polygon class="f2898957-f84b-4c10-ba12-2f90592e959a" points="45.151 50 50 45.151 50 43.737 43.737 50 45.151 50"/>
        <polygon class="f2898957-f84b-4c10-ba12-2f90592e959a" points="50 50 50 49.293 49.293 50 50 50"/>
      </g>
      <g>
        <polygon class="f2898957-f84b-4c10-ba12-2f90592e959a" points="0 0 -0.707 0 -50 49.293 -50 50 -49.293 50 0 0.707 0 0"/>
        <polygon class="f2898957-f84b-4c10-ba12-2f90592e959a" points="-43.737 50 0 6.262 0 4.848 -45.151 50 -43.737 50"/>
        <polygon class="f2898957-f84b-4c10-ba12-2f90592e959a" points="-38.182 50 0 11.818 0 10.404 -39.596 50 -38.182 50"/>
        <polygon class="f2898957-f84b-4c10-ba12-2f90592e959a" points="-32.626 50 0 17.374 0 15.96 -34.04 50 -32.626 50"/>
        <polygon class="f2898957-f84b-4c10-ba12-2f90592e959a" points="-27.071 50 0 22.929 0 21.515 -28.485 50 -27.071 50"/>
        <polygon class="f2898957-f84b-4c10-ba12-2f90592e959a" points="-21.515 50 0 28.485 0 27.071 -22.929 50 -21.515 50"/>
        <polygon class="f2898957-f84b-4c10-ba12-2f90592e959a" points="-15.96 50 0 34.04 0 32.626 -17.374 50 -15.96 50"/>
        <polygon class="f2898957-f84b-4c10-ba12-2f90592e959a" points="-10.404 50 0 39.596 0 38.182 -11.818 50 -10.404 50"/>
        <polygon class="f2898957-f84b-4c10-ba12-2f90592e959a" points="-4.849 50 0 45.151 0 43.737 -6.263 50 -4.849 50"/>
        <polygon class="f2898957-f84b-4c10-ba12-2f90592e959a" points="0 50 0 49.293 -0.707 50 0 50"/>
      </g>
      <polygon class="f2898957-f84b-4c10-ba12-2f90592e959a" points="100 -50 99.293 -50 50 -0.707 50 0 50.707 0 100 -49.293 100 -50"/>
      <g>
        <polygon class="f2898957-f84b-4c10-ba12-2f90592e959a" points="50 -50 49.293 -50 0 -0.707 0 0 0.707 0 50 -49.293 50 -50"/>
        <polygon class="f2898957-f84b-4c10-ba12-2f90592e959a" points="6.263 0 50 -43.738 50 -45.152 4.849 0 6.263 0"/>
        <polygon class="f2898957-f84b-4c10-ba12-2f90592e959a" points="11.818 0 50 -38.182 50 -39.596 10.404 0 11.818 0"/>
        <polygon class="f2898957-f84b-4c10-ba12-2f90592e959a" points="17.374 0 50 -32.626 50 -34.04 15.96 0 17.374 0"/>
        <polygon class="f2898957-f84b-4c10-ba12-2f90592e959a" points="22.929 0 50 -27.071 50 -28.485 21.515 0 22.929 0"/>
        <polygon class="f2898957-f84b-4c10-ba12-2f90592e959a" points="28.485 0 50 -21.515 50 -22.929 27.071 0 28.485 0"/>
        <polygon class="f2898957-f84b-4c10-ba12-2f90592e959a" points="34.04 0 50 -15.96 50 -17.374 32.626 0 34.04 0"/>
        <polygon class="f2898957-f84b-4c10-ba12-2f90592e959a" points="39.596 0 50 -10.404 50 -11.818 38.182 0 39.596 0"/>
        <polygon class="f2898957-f84b-4c10-ba12-2f90592e959a" points="45.151 0 50 -4.849 50 -6.263 43.737 0 45.151 0"/>
        <polygon class="f2898957-f84b-4c10-ba12-2f90592e959a" points="50 0 50 -0.707 49.293 0 50 0"/>
      </g>
      <g>
        <polygon class="f2898957-f84b-4c10-ba12-2f90592e959a" points="0 -50 -0.707 -50 -50 -0.707 -50 0 -49.293 0 0 -49.293 0 -50"/>
        <polygon class="f2898957-f84b-4c10-ba12-2f90592e959a" points="-43.737 0 0 -43.738 0 -45.152 -45.151 0 -43.737 0"/>
        <polygon class="f2898957-f84b-4c10-ba12-2f90592e959a" points="-38.182 0 0 -38.182 0 -39.596 -39.596 0 -38.182 0"/>
        <polygon class="f2898957-f84b-4c10-ba12-2f90592e959a" points="-32.626 0 0 -32.626 0 -34.04 -34.04 0 -32.626 0"/>
        <polygon class="f2898957-f84b-4c10-ba12-2f90592e959a" points="-27.071 0 0 -27.071 0 -28.485 -28.485 0 -27.071 0"/>
        <polygon class="f2898957-f84b-4c10-ba12-2f90592e959a" points="-21.515 0 0 -21.515 0 -22.929 -22.929 0 -21.515 0"/>
        <polygon class="f2898957-f84b-4c10-ba12-2f90592e959a" points="-15.96 0 0 -15.96 0 -17.374 -17.374 0 -15.96 0"/>
        <polygon class="f2898957-f84b-4c10-ba12-2f90592e959a" points="-10.404 0 0 -10.404 0 -11.818 -11.818 0 -10.404 0"/>
        <polygon class="f2898957-f84b-4c10-ba12-2f90592e959a" points="-4.849 0 0 -4.849 0 -6.263 -6.263 0 -4.849 0"/>
        <polygon class="f2898957-f84b-4c10-ba12-2f90592e959a" points="0 0 0 -0.707 -0.707 0 0 0"/>
      </g>
    </pattern>
    <pattern id="b5f6a468-3099-41e7-9d23-7cda50d78f7c" data-name="diaginal hash (gray)" width="50" height="50" patternTransform="translate(-124.569 190.023)" patternUnits="userSpaceOnUse" viewBox="0 0 50 50">
      <rect class="f1083356-e30b-48f2-a92e-0325da97ec5c" width="50" height="50"/>
      <g>
        <polygon class="f2898957-f84b-4c10-ba12-2f90592e959a" points="50 50 50 50.707 50.707 50 50 50"/>
        <polygon class="f2898957-f84b-4c10-ba12-2f90592e959a" points="54.849 50 50 54.849 50 56.263 56.263 50 54.849 50"/>
        <polygon class="f2898957-f84b-4c10-ba12-2f90592e959a" points="60.404 50 50 60.404 50 61.818 61.818 50 60.404 50"/>
        <polygon class="f2898957-f84b-4c10-ba12-2f90592e959a" points="65.96 50 50 65.96 50 67.374 67.374 50 65.96 50"/>
        <polygon class="f2898957-f84b-4c10-ba12-2f90592e959a" points="71.515 50 50 71.515 50 72.929 72.929 50 71.515 50"/>
        <polygon class="f2898957-f84b-4c10-ba12-2f90592e959a" points="77.071 50 50 77.071 50 78.485 78.485 50 77.071 50"/>
        <polygon class="f2898957-f84b-4c10-ba12-2f90592e959a" points="82.626 50 50 82.626 50 84.04 84.041 50 82.626 50"/>
        <polygon class="f2898957-f84b-4c10-ba12-2f90592e959a" points="88.182 50 50 88.182 50 89.596 89.596 50 88.182 50"/>
        <polygon class="f2898957-f84b-4c10-ba12-2f90592e959a" points="93.737 50 50 93.737 50 95.151 95.151 50 93.737 50"/>
        <polygon class="f2898957-f84b-4c10-ba12-2f90592e959a" points="100 50 99.293 50 50 99.293 50 100 50.707 100 100 50.707 100 50"/>
      </g>
      <g>
        <polygon class="f2898957-f84b-4c10-ba12-2f90592e959a" points="0 50 0 50.707 0.707 50 0 50"/>
        <polygon class="f2898957-f84b-4c10-ba12-2f90592e959a" points="4.849 50 0 54.849 0 56.263 6.263 50 4.849 50"/>
        <polygon class="f2898957-f84b-4c10-ba12-2f90592e959a" points="10.404 50 0 60.404 0 61.818 11.818 50 10.404 50"/>
        <polygon class="f2898957-f84b-4c10-ba12-2f90592e959a" points="15.96 50 0 65.96 0 67.374 17.374 50 15.96 50"/>
        <polygon class="f2898957-f84b-4c10-ba12-2f90592e959a" points="21.515 50 0 71.515 0 72.929 22.929 50 21.515 50"/>
        <polygon class="f2898957-f84b-4c10-ba12-2f90592e959a" points="27.071 50 0 77.071 0 78.485 28.485 50 27.071 50"/>
        <polygon class="f2898957-f84b-4c10-ba12-2f90592e959a" points="32.626 50 0 82.626 0 84.04 34.041 50 32.626 50"/>
        <polygon class="f2898957-f84b-4c10-ba12-2f90592e959a" points="38.182 50 0 88.182 0 89.596 39.596 50 38.182 50"/>
        <polygon class="f2898957-f84b-4c10-ba12-2f90592e959a" points="43.737 50 0 93.737 0 95.151 45.151 50 43.737 50"/>
        <polygon class="f2898957-f84b-4c10-ba12-2f90592e959a" points="50 50 49.293 50 0 99.293 0 100 0.707 100 50 50.707 50 50"/>
      </g>
      <polygon class="f2898957-f84b-4c10-ba12-2f90592e959a" points="0 50 -0.707 50 -50 99.293 -50 100 -49.293 100 0 50.707 0 50"/>
      <g>
        <polygon class="f2898957-f84b-4c10-ba12-2f90592e959a" points="50 0 50 0.707 50.707 0 50 0"/>
        <polygon class="f2898957-f84b-4c10-ba12-2f90592e959a" points="54.849 0 50 4.849 50 6.263 56.263 0 54.849 0"/>
        <polygon class="f2898957-f84b-4c10-ba12-2f90592e959a" points="60.404 0 50 10.404 50 11.818 61.818 0 60.404 0"/>
        <polygon class="f2898957-f84b-4c10-ba12-2f90592e959a" points="65.96 0 50 15.96 50 17.374 67.374 0 65.96 0"/>
        <polygon class="f2898957-f84b-4c10-ba12-2f90592e959a" points="71.515 0 50 21.515 50 22.929 72.929 0 71.515 0"/>
        <polygon class="f2898957-f84b-4c10-ba12-2f90592e959a" points="77.071 0 50 27.071 50 28.485 78.485 0 77.071 0"/>
        <polygon class="f2898957-f84b-4c10-ba12-2f90592e959a" points="82.626 0 50 32.626 50 34.04 84.041 0 82.626 0"/>
        <polygon class="f2898957-f84b-4c10-ba12-2f90592e959a" points="88.182 0 50 38.182 50 39.596 89.596 0 88.182 0"/>
        <polygon class="f2898957-f84b-4c10-ba12-2f90592e959a" points="93.737 0 50 43.737 50 45.151 95.151 0 93.737 0"/>
        <polygon class="f2898957-f84b-4c10-ba12-2f90592e959a" points="100 0 99.293 0 50 49.293 50 50 50.707 50 100 0.707 100 0"/>
      </g>
      <g>
        <polygon class="f2898957-f84b-4c10-ba12-2f90592e959a" points="0 0 0 0.707 0.707 0 0 0"/>
        <polygon class="f2898957-f84b-4c10-ba12-2f90592e959a" points="4.849 0 0 4.849 0 6.263 6.263 0 4.849 0"/>
        <polygon class="f2898957-f84b-4c10-ba12-2f90592e959a" points="10.404 0 0 10.404 0 11.818 11.818 0 10.404 0"/>
        <polygon class="f2898957-f84b-4c10-ba12-2f90592e959a" points="15.96 0 0 15.96 0 17.374 17.374 0 15.96 0"/>
        <polygon class="f2898957-f84b-4c10-ba12-2f90592e959a" points="21.515 0 0 21.515 0 22.929 22.929 0 21.515 0"/>
        <polygon class="f2898957-f84b-4c10-ba12-2f90592e959a" points="27.071 0 0 27.071 0 28.485 28.485 0 27.071 0"/>
        <polygon class="f2898957-f84b-4c10-ba12-2f90592e959a" points="32.626 0 0 32.626 0 34.04 34.041 0 32.626 0"/>
        <polygon class="f2898957-f84b-4c10-ba12-2f90592e959a" points="38.182 0 0 38.182 0 39.596 39.596 0 38.182 0"/>
        <polygon class="f2898957-f84b-4c10-ba12-2f90592e959a" points="43.737 0 0 43.737 0 45.151 45.151 0 43.737 0"/>
        <polygon class="f2898957-f84b-4c10-ba12-2f90592e959a" points="50 0 49.293 0 0 49.293 0 50 0.707 50 50 0.707 50 0"/>
        <polygon class="f2898957-f84b-4c10-ba12-2f90592e959a" points="6.263 50 50 6.262 50 4.848 4.849 50 6.263 50"/>
        <polygon class="f2898957-f84b-4c10-ba12-2f90592e959a" points="11.818 50 50 11.818 50 10.404 10.404 50 11.818 50"/>
        <polygon class="f2898957-f84b-4c10-ba12-2f90592e959a" points="17.374 50 50 17.374 50 15.96 15.96 50 17.374 50"/>
        <polygon class="f2898957-f84b-4c10-ba12-2f90592e959a" points="22.929 50 50 22.929 50 21.515 21.515 50 22.929 50"/>
        <polygon class="f2898957-f84b-4c10-ba12-2f90592e959a" points="28.485 50 50 28.485 50 27.071 27.071 50 28.485 50"/>
        <polygon class="f2898957-f84b-4c10-ba12-2f90592e959a" points="34.04 50 50 34.04 50 32.626 32.626 50 34.04 50"/>
        <polygon class="f2898957-f84b-4c10-ba12-2f90592e959a" points="39.596 50 50 39.596 50 38.182 38.182 50 39.596 50"/>
        <polygon class="f2898957-f84b-4c10-ba12-2f90592e959a" points="45.151 50 50 45.151 50 43.737 43.737 50 45.151 50"/>
        <polygon class="f2898957-f84b-4c10-ba12-2f90592e959a" points="50 50 50 49.293 49.293 50 50 50"/>
      </g>
      <g>
        <polygon class="f2898957-f84b-4c10-ba12-2f90592e959a" points="0 0 -0.707 0 -50 49.293 -50 50 -49.293 50 0 0.707 0 0"/>
        <polygon class="f2898957-f84b-4c10-ba12-2f90592e959a" points="-43.737 50 0 6.262 0 4.848 -45.151 50 -43.737 50"/>
        <polygon class="f2898957-f84b-4c10-ba12-2f90592e959a" points="-38.182 50 0 11.818 0 10.404 -39.596 50 -38.182 50"/>
        <polygon class="f2898957-f84b-4c10-ba12-2f90592e959a" points="-32.626 50 0 17.374 0 15.96 -34.04 50 -32.626 50"/>
        <polygon class="f2898957-f84b-4c10-ba12-2f90592e959a" points="-27.071 50 0 22.929 0 21.515 -28.485 50 -27.071 50"/>
        <polygon class="f2898957-f84b-4c10-ba12-2f90592e959a" points="-21.515 50 0 28.485 0 27.071 -22.929 50 -21.515 50"/>
        <polygon class="f2898957-f84b-4c10-ba12-2f90592e959a" points="-15.96 50 0 34.04 0 32.626 -17.374 50 -15.96 50"/>
        <polygon class="f2898957-f84b-4c10-ba12-2f90592e959a" points="-10.404 50 0 39.596 0 38.182 -11.818 50 -10.404 50"/>
        <polygon class="f2898957-f84b-4c10-ba12-2f90592e959a" points="-4.849 50 0 45.151 0 43.737 -6.263 50 -4.849 50"/>
        <polygon class="f2898957-f84b-4c10-ba12-2f90592e959a" points="0 50 0 49.293 -0.707 50 0 50"/>
      </g>
      <polygon class="f2898957-f84b-4c10-ba12-2f90592e959a" points="100 -50 99.293 -50 50 -0.707 50 0 50.707 0 100 -49.293 100 -50"/>
      <g>
        <polygon class="f2898957-f84b-4c10-ba12-2f90592e959a" points="50 -50 49.293 -50 0 -0.707 0 0 0.707 0 50 -49.293 50 -50"/>
        <polygon class="f2898957-f84b-4c10-ba12-2f90592e959a" points="6.263 0 50 -43.738 50 -45.152 4.849 0 6.263 0"/>
        <polygon class="f2898957-f84b-4c10-ba12-2f90592e959a" points="11.818 0 50 -38.182 50 -39.596 10.404 0 11.818 0"/>
        <polygon class="f2898957-f84b-4c10-ba12-2f90592e959a" points="17.374 0 50 -32.626 50 -34.04 15.96 0 17.374 0"/>
        <polygon class="f2898957-f84b-4c10-ba12-2f90592e959a" points="22.929 0 50 -27.071 50 -28.485 21.515 0 22.929 0"/>
        <polygon class="f2898957-f84b-4c10-ba12-2f90592e959a" points="28.485 0 50 -21.515 50 -22.929 27.071 0 28.485 0"/>
        <polygon class="f2898957-f84b-4c10-ba12-2f90592e959a" points="34.04 0 50 -15.96 50 -17.374 32.626 0 34.04 0"/>
        <polygon class="f2898957-f84b-4c10-ba12-2f90592e959a" points="39.596 0 50 -10.404 50 -11.818 38.182 0 39.596 0"/>
        <polygon class="f2898957-f84b-4c10-ba12-2f90592e959a" points="45.151 0 50 -4.849 50 -6.263 43.737 0 45.151 0"/>
        <polygon class="f2898957-f84b-4c10-ba12-2f90592e959a" points="50 0 50 -0.707 49.293 0 50 0"/>
      </g>
      <g>
        <polygon class="f2898957-f84b-4c10-ba12-2f90592e959a" points="0 -50 -0.707 -50 -50 -0.707 -50 0 -49.293 0 0 -49.293 0 -50"/>
        <polygon class="f2898957-f84b-4c10-ba12-2f90592e959a" points="-43.737 0 0 -43.738 0 -45.152 -45.151 0 -43.737 0"/>
        <polygon class="f2898957-f84b-4c10-ba12-2f90592e959a" points="-38.182 0 0 -38.182 0 -39.596 -39.596 0 -38.182 0"/>
        <polygon class="f2898957-f84b-4c10-ba12-2f90592e959a" points="-32.626 0 0 -32.626 0 -34.04 -34.04 0 -32.626 0"/>
        <polygon class="f2898957-f84b-4c10-ba12-2f90592e959a" points="-27.071 0 0 -27.071 0 -28.485 -28.485 0 -27.071 0"/>
        <polygon class="f2898957-f84b-4c10-ba12-2f90592e959a" points="-21.515 0 0 -21.515 0 -22.929 -22.929 0 -21.515 0"/>
        <polygon class="f2898957-f84b-4c10-ba12-2f90592e959a" points="-15.96 0 0 -15.96 0 -17.374 -17.374 0 -15.96 0"/>
        <polygon class="f2898957-f84b-4c10-ba12-2f90592e959a" points="-10.404 0 0 -10.404 0 -11.818 -11.818 0 -10.404 0"/>
        <polygon class="f2898957-f84b-4c10-ba12-2f90592e959a" points="-4.849 0 0 -4.849 0 -6.263 -6.263 0 -4.849 0"/>
        <polygon class="f2898957-f84b-4c10-ba12-2f90592e959a" points="0 0 0 -0.707 -0.707 0 0 0"/>
      </g>
    </pattern>
  </defs>
  <g class="a7ae67a0-d345-47e2-9274-d418d140fac2">
    <g id="b7f7a9f2-af64-4782-b569-07f19ba8f2f0" data-name="artwork">
      <line class="f50f351a-9a61-43c4-abdd-bb237d50355a" x1="649" y1="378" x2="649" y2="403"/>
      <line class="f50f351a-9a61-43c4-abdd-bb237d50355a" x1="409.5" y1="378" x2="409.5" y2="403"/>
      <rect class="f7b85105-3beb-4208-b294-0aad0ae51d40" y="209.5" width="281" height="168.5"/>
      <line class="f50f351a-9a61-43c4-abdd-bb237d50355a" y1="403" x2="760" y2="403"/>
      <line class="babee0a8-5dac-4a3f-bf8d-145e6f825ebd" y1="114.017" x2="760" y2="114.017"/>
      <text class="e12e354d-b8f6-473a-afb7-5f4003da8a3f" transform="translate(0 104.017)">Baremetal network</text>
      <text class="e12e354d-b8f6-473a-afb7-5f4003da8a3f" transform="translate(1 419.817)">Provisioning network</text>
      <line class="f50f351a-9a61-43c4-abdd-bb237d50355a" x1="22.727" y1="403" x2="22.727" y2="352.75"/>
      <line class="babee0a8-5dac-4a3f-bf8d-145e6f825ebd" x1="22.727" y1="114.009" x2="22.727" y2="264.25"/>
      <g>
        <text class="a4e946aa-b13c-4dc6-a238-78af0b81ff8e" transform="translate(670.861 422.834)">71_OpenShift_0920</text>
        <rect class="f1083356-e30b-48f2-a92e-0325da97ec5c" y="399.817" width="760" height="40"/>
      </g>
      <line class="fd8e35f3-d287-45fd-81dc-d3767d193eb7" y1="38.672" x2="760" y2="38.672"/>
      <text class="e12e354d-b8f6-473a-afb7-5f4003da8a3f" transform="translate(0.5 28.671)">Internet access</text>
      <polyline class="f50f351a-9a61-43c4-abdd-bb237d50355a" points="183.217 327.5 183.217 352.75 165.924 352.75"/>
      <polyline class="babee0a8-5dac-4a3f-bf8d-145e6f825ebd" points="183.217 289.5 183.217 264.25 165.924 264.25"/>
      <path class="f7b85105-3beb-4208-b294-0aad0ae51d40" d="M41.209,219.5H0V240H41.209C46.87,240,46.87,219.5,41.209,219.5Z"/>
      <rect class="e2f41c9d-3591-4a28-a250-6488c40b424c" x="15" y="289.5" width="246" height="38"/>
      <text class="e12e354d-b8f6-473a-afb7-5f4003da8a3f" transform="translate(101.893 311.547)">Bootstrap VM</text>
      <text class="b28a0f44-e6b4-4703-bc89-d219c76d01ee" transform="translate(15 234.604)">Provisioning node</text>
      <g>
        <line class="aefd2000-379c-4300-9b83-b1282499d7a7" x1="191.972" y1="123.726" x2="191.972" y2="125.226"/>
        <line class="a86a21ed-5bb3-4e4d-8f60-2c22a9633d2a" x1="191.972" y1="127.226" x2="191.972" y2="130.226"/>
        <polyline class="aefd2000-379c-4300-9b83-b1282499d7a7" points="191.972 131.226 191.972 132.726 193.472 132.726"/>
        <line class="ba6530c5-4512-4e5a-9761-33371ee13e12" x1="196.543" y1="132.726" x2="219.578" y2="132.726"/>
        <polyline class="aefd2000-379c-4300-9b83-b1282499d7a7" points="221.114 132.726 222.614 132.726 222.614 134.226"/>
        <line class="f55fdfbf-eb09-483d-9883-484877245af8" x1="222.614" y1="137.167" x2="222.614" y2="276.853"/>
        <line class="aefd2000-379c-4300-9b83-b1282499d7a7" x1="222.614" y1="278.324" x2="222.614" y2="279.824"/>
        <polygon class="af927558-909e-499c-9004-53b4b2f14645" points="217.627 278.365 222.614 287 227.6 278.365 217.627 278.365"/>
      </g>
      <g>
        <line class="aefd2000-379c-4300-9b83-b1282499d7a7" x1="268.255" y1="123.726" x2="268.255" y2="125.226"/>
        <line class="a86a21ed-5bb3-4e4d-8f60-2c22a9633d2a" x1="268.255" y1="127.226" x2="268.255" y2="130.226"/>
        <polyline class="aefd2000-379c-4300-9b83-b1282499d7a7" points="268.255 131.226 268.255 132.726 266.755 132.726"/>
        <line class="ba6530c5-4512-4e5a-9761-33371ee13e12" x1="263.684" y1="132.726" x2="240.649" y2="132.726"/>
        <polyline class="aefd2000-379c-4300-9b83-b1282499d7a7" points="239.114 132.726 237.614 132.726 237.614 134.226"/>
        <line class="f55fdfbf-eb09-483d-9883-484877245af8" x1="237.614" y1="137.167" x2="237.614" y2="276.853"/>
        <line class="aefd2000-379c-4300-9b83-b1282499d7a7" x1="237.614" y1="278.324" x2="237.614" y2="279.824"/>
        <polygon class="af927558-909e-499c-9004-53b4b2f14645" points="232.627 278.365 237.614 287 242.6 278.365 232.627 278.365"/>
      </g>
      <circle class="ed2a521c-c067-451e-8e1e-c1d3b1c9b229" cx="268.255" cy="113.371" r="9.355"/>
      <text class="e12e354d-b8f6-473a-afb7-5f4003da8a3f" transform="translate(239.271 98.016)">Ingress VIP</text>
      <circle class="ed2a521c-c067-451e-8e1e-c1d3b1c9b229" cx="191.972" cy="113.371" r="9.355"/>
      <text class="e12e354d-b8f6-473a-afb7-5f4003da8a3f" transform="translate(172.552 98.016)">API VIP</text>
      <line class="babee0a8-5dac-4a3f-bf8d-145e6f825ebd" x1="639" y1="114.017" x2="639" y2="209.5"/>
      <line class="f9cf3a6f-42ce-473f-a572-7531cccf1873" x1="617.425" y1="189.5" x2="645.5" y2="189.5"/>
      <polyline class="a3f2f32f-ad82-4932-8370-78c118f423f7" points="760 189.5 419.832 189.5 419.832 209.5"/>
      <line class="a3f2f32f-ad82-4932-8370-78c118f423f7" x1="659" y1="189.5" x2="659" y2="209.5"/>
      <line class="babee0a8-5dac-4a3f-bf8d-145e6f825ebd" x1="399.5" y1="114.017" x2="399.5" y2="209.5"/>
      <text class="e12e354d-b8f6-473a-afb7-5f4003da8a3f" transform="translate(418.832 167.501)">Out-of-Band Management<tspan x="0" y="12">network (optional)</tspan></text>
      <line class="babee0a8-5dac-4a3f-bf8d-145e6f825ebd" x1="689.778" y1="114.069" x2="689.778" y2="134.069"/>
      <g>
        <text class="e12e354d-b8f6-473a-afb7-5f4003da8a3f" transform="translate(672.001 164.414)">Router</text>
        <g>
          <rect class="ae73c5cf-3cf8-4a78-94f0-3a3a8677bd26" x="662.278" y="134.069" width="55" height="13.75"/>
          <line class="f2e0b72e-0d12-40e1-8f3d-663e6d81b450" x1="711.398" y1="139.966" x2="711.398" y2="139.966"/>
          <line class="a44736b6-9a84-457c-b53e-ae27fd17e0dc" x1="668.17" y1="138.931" x2="668.17" y2="142.896"/>
          <line class="a44736b6-9a84-457c-b53e-ae27fd17e0dc" x1="674.063" y1="138.931" x2="674.063" y2="142.896"/>
          <line class="a44736b6-9a84-457c-b53e-ae27fd17e0dc" x1="679.956" y1="138.931" x2="679.956" y2="142.896"/>
          <line class="a44736b6-9a84-457c-b53e-ae27fd17e0dc" x1="685.849" y1="138.931" x2="685.849" y2="142.896"/>
          <line class="a44736b6-9a84-457c-b53e-ae27fd17e0dc" x1="691.742" y1="138.931" x2="691.742" y2="142.896"/>
          <line class="a44736b6-9a84-457c-b53e-ae27fd17e0dc" x1="697.635" y1="138.931" x2="697.635" y2="142.896"/>
        </g>
      </g>
      <line class="a3f2f32f-ad82-4932-8370-78c118f423f7" x1="689.778" y1="169.5" x2="689.778" y2="189.5"/>
      <g>
        <g>
          <rect class="a0e7e27e-1733-42ea-bfd5-bb7b189cbfd8" x="299.5" y="210" width="220" height="167.5"/>
          <path class="f7b85105-3beb-4208-b294-0aad0ae51d40" d="M519,210.5V377H300V210.5H519m1-1H299V378H520V209.5Z"/>
        </g>
        <text class="ad89b6a3-4110-48a0-adce-ddf3e30d0bd7" transform="translate(314 234.604)"><tspan xml:space="preserve">Master nodes  x3</tspan></text>
      </g>
      <g>
        <g>
          <rect class="a0e7e27e-1733-42ea-bfd5-bb7b189cbfd8" x="539" y="210" width="220" height="167.5"/>
          <path class="f7b85105-3beb-4208-b294-0aad0ae51d40" d="M758.5,210.5V377h-219V210.5h219m1-1h-221V378h221V209.5Z"/>
        </g>
        <text class="ad89b6a3-4110-48a0-adce-ddf3e30d0bd7" transform="translate(552.467 234.604)"><tspan xml:space="preserve">Worker nodes  xN</tspan></text>
      </g>
      <line class="babee0a8-5dac-4a3f-bf8d-145e6f825ebd" x1="436.439" y1="94.017" x2="436.439" y2="114.017"/>
      <line class="fd8e35f3-d287-45fd-81dc-d3767d193eb7" x1="436.439" y1="38.672" x2="436.439" y2="58.672"/>
      <g>
        <text class="e12e354d-b8f6-473a-afb7-5f4003da8a3f" transform="translate(418.663 89.017)">Router</text>
        <g>
          <rect class="ae73c5cf-3cf8-4a78-94f0-3a3a8677bd26" x="408.939" y="58.672" width="55" height="13.75"/>
          <line class="f2e0b72e-0d12-40e1-8f3d-663e6d81b450" x1="458.06" y1="64.569" x2="458.06" y2="64.569"/>
          <line class="a44736b6-9a84-457c-b53e-ae27fd17e0dc" x1="414.832" y1="63.535" x2="414.832" y2="67.499"/>
          <line class="a44736b6-9a84-457c-b53e-ae27fd17e0dc" x1="420.725" y1="63.535" x2="420.725" y2="67.499"/>
          <line class="a44736b6-9a84-457c-b53e-ae27fd17e0dc" x1="426.618" y1="63.535" x2="426.618" y2="67.499"/>
          <line class="a44736b6-9a84-457c-b53e-ae27fd17e0dc" x1="432.511" y1="63.535" x2="432.511" y2="67.499"/>
          <line class="a44736b6-9a84-457c-b53e-ae27fd17e0dc" x1="438.403" y1="63.535" x2="438.403" y2="67.499"/>
          <line class="a44736b6-9a84-457c-b53e-ae27fd17e0dc" x1="444.296" y1="63.535" x2="444.296" y2="67.499"/>
        </g>
      </g>
      <line class="babee0a8-5dac-4a3f-bf8d-145e6f825ebd" x1="518.252" y1="94.017" x2="518.252" y2="114.017"/>
      <g>
        <text class="e12e354d-b8f6-473a-afb7-5f4003da8a3f" transform="translate(484.878 89.838)">DHCP server</text>
        <g>
          <rect class="ae73c5cf-3cf8-4a78-94f0-3a3a8677bd26" x="490.684" y="59.493" width="55" height="13.75"/>
          <line class="f2e0b72e-0d12-40e1-8f3d-663e6d81b450" x1="539.805" y1="65.39" x2="539.805" y2="65.39"/>
          <line class="a44736b6-9a84-457c-b53e-ae27fd17e0dc" x1="497.42" y1="67.35" x2="505.67" y2="67.35"/>
        </g>
      </g>
      <line class="babee0a8-5dac-4a3f-bf8d-145e6f825ebd" x1="601.063" y1="94.017" x2="601.063" y2="114.017"/>
      <g>
        <text class="e12e354d-b8f6-473a-afb7-5f4003da8a3f" transform="translate(571.814 89.838)">DNS server</text>
        <g>
          <rect class="ae73c5cf-3cf8-4a78-94f0-3a3a8677bd26" x="573.495" y="59.493" width="55" height="13.75"/>
          <line class="f2e0b72e-0d12-40e1-8f3d-663e6d81b450" x1="622.616" y1="65.39" x2="622.616" y2="65.39"/>
          <line class="a44736b6-9a84-457c-b53e-ae27fd17e0dc" x1="580.23" y1="67.35" x2="588.48" y2="67.35"/>
        </g>
      </g>
      <g>
        <path class="ac88cf2a-c591-479b-8569-da23bfc2a5ad" d="M161.678,342.5H.455V363H161.678C167.339,363,167.339,342.5,161.678,342.5Z"/>
        <g class="bdcde537-2ea7-45a5-b716-70f7a488aec6">
          <path class="b3c33557-6a95-4ce8-b29c-b379ae1c22d4" d="M161.678,342.5H.455V363H161.678C167.339,363,167.339,342.5,161.678,342.5Z"/>
        </g>
        <text class="ae7092e3-f3fd-4982-be27-43e0e0728453" transform="translate(55.661 356.074)">Provisioning bridge</text>
        <g>
          <path class="ac88cf2a-c591-479b-8569-da23bfc2a5ad" d="M41.223,342.5H0V363H41.223C46.884,363,46.884,342.5,41.223,342.5Z"/>
          <text class="ae7092e3-f3fd-4982-be27-43e0e0728453" transform="translate(11.671 356.074)">eno1</text>
        </g>
      </g>
      <g>
        <g>
          <path class="af4164eb-360b-4ecb-b318-3774847e3adf" d="M161.664,254.5H.455V275H161.664C167.325,275,167.325,254.5,161.664,254.5Z"/>
          <g class="bdcde537-2ea7-45a5-b716-70f7a488aec6">
            <path class="a566c039-9bdd-4bf8-b0df-e53165d54a38" d="M161.664,254.5H.455V275H161.664C167.325,275,167.325,254.5,161.664,254.5Z"/>
          </g>
          <text class="ae7092e3-f3fd-4982-be27-43e0e0728453" transform="translate(55.677 269.349)">Baremetal bridge</text>
        </g>
        <g>
          <path class="af4164eb-360b-4ecb-b318-3774847e3adf" d="M41.209,254.5H0V275H41.209C46.87,275,46.87,254.5,41.209,254.5Z"/>
          <text class="ae7092e3-f3fd-4982-be27-43e0e0728453" transform="translate(11.671 269.349)">eno2</text>
        </g>
      </g>
    </g>
  </g>
</svg>
