<svg xmlns="http://www.w3.org/2000/svg" xmlns:xlink="http://www.w3.org/1999/xlink" width="760" height="443" viewBox="0 0 760 443">
  <defs>
    <style>
      .a4370618-cae6-4853-9893-efbcd4eae21f, .a82b0699-11f1-4ec4-8755-44d0dfcbd4e1, .a956bb17-ae53-4ed3-8a7f-94d43ad37da2, .adceaded-53db-476d-9036-db73830adcda, .ae2addde-7bd9-40f4-86f1-f7540a5f3593, .af37e773-23c5-4124-8eaf-3e3bdfe6eb30, .afd03d9b-6ad1-45e0-af48-45bd01ff7b35, .e1d2fba0-4151-4324-9d6a-32486a323227, .ee7b795d-4cd4-431a-9a69-1798c3ae1344, .f11e0fcb-6c5a-4082-853d-757604a41d8e, .f15000b4-0da8-480a-aafc-ee8b36d67207, .fac0212f-5015-4ed2-982d-a44366ec1813 {
        fill: none;
      }

      .a2eab79a-f6b5-4547-b89d-14c1ebb0fa0a, .ba69c1f7-3de0-46c8-95e3-510a671a17d8, .bc22a841-9bb8-4df5-89e6-6ead37c39ea5, .be22b9c9-4b6a-4f46-b69a-61e021ab8c82 {
        fill: #151515;
      }

      .a4370618-cae6-4853-9893-efbcd4eae21f, .a956bb17-ae53-4ed3-8a7f-94d43ad37da2, .ae2addde-7bd9-40f4-86f1-f7540a5f3593, .be22b9c9-4b6a-4f46-b69a-61e021ab8c82, .e1d2fba0-4151-4324-9d6a-32486a323227 {
        stroke: #151515;
      }

      .be22b9c9-4b6a-4f46-b69a-61e021ab8c82 {
        stroke-miterlimit: 10;
      }

      .a55a9b59-244f-4f57-b4ff-67bd9c34e5a7 {
        isolation: isolate;
      }

      .ee7b795d-4cd4-431a-9a69-1798c3ae1344 {
        stroke: #5e40be;
      }

      .a4370618-cae6-4853-9893-efbcd4eae21f, .a82b0699-11f1-4ec4-8755-44d0dfcbd4e1, .a89daeff-e234-4714-be92-b9b4e7db30d6, .a956bb17-ae53-4ed3-8a7f-94d43ad37da2, .ae2addde-7bd9-40f4-86f1-f7540a5f3593, .af37e773-23c5-4124-8eaf-3e3bdfe6eb30, .afd03d9b-6ad1-45e0-af48-45bd01ff7b35, .afd33c2b-24a5-417f-a1f4-08b21b5f46c9, .e1d2fba0-4151-4324-9d6a-32486a323227, .ee7b795d-4cd4-431a-9a69-1798c3ae1344, .f11e0fcb-6c5a-4082-853d-757604a41d8e, .f15000b4-0da8-480a-aafc-ee8b36d67207, .fac0212f-5015-4ed2-982d-a44366ec1813 {
        stroke-linecap: round;
        stroke-linejoin: round;
      }

      .a82b0699-11f1-4ec4-8755-44d0dfcbd4e1, .af37e773-23c5-4124-8eaf-3e3bdfe6eb30, .afd33c2b-24a5-417f-a1f4-08b21b5f46c9, .ee7b795d-4cd4-431a-9a69-1798c3ae1344, .f15000b4-0da8-480a-aafc-ee8b36d67207, .fac0212f-5015-4ed2-982d-a44366ec1813 {
        stroke-width: 2px;
      }

      .ba048f37-58c5-409b-bb64-36255ffff6a4 {
        fill: #e8e8e8;
      }

      .afd33c2b-24a5-417f-a1f4-08b21b5f46c9, .fac0212f-5015-4ed2-982d-a44366ec1813 {
        stroke: #06c;
      }

      .a2eab79a-f6b5-4547-b89d-14c1ebb0fa0a, .b9236be4-3ab2-4cb0-8152-e5e79ea3f28f {
        font-size: 11px;
        font-family: RedHatText-Medium, Red Hat Text;
        font-weight: 500;
      }

      .bd34f8c5-8a14-40d2-a16c-34a8feefa71f {
        font-size: 10px;
        fill: #f3f3f3;
        font-family: RedHatText-Regular, Red Hat Text;
      }

      .f15000b4-0da8-480a-aafc-ee8b36d67207 {
        stroke: #4cb6d6;
      }

      .a6b2901f-985e-4790-9b1a-b067bc488d31 {
        fill: #d0d0d0;
      }

      .a57ceeb7-d71d-452f-a5d4-841c0f7f4ac7, .bc22a841-9bb8-4df5-89e6-6ead37c39ea5 {
        font-size: 12px;
        font-family: RedHatText-Bold, Red Hat Text;
        font-weight: 700;
      }

      .a956bb17-ae53-4ed3-8a7f-94d43ad37da2 {
        stroke-dasharray: 2 2;
      }

      .ae2addde-7bd9-40f4-86f1-f7540a5f3593 {
        stroke-dasharray: 3.071 3.071;
      }

      .a4370618-cae6-4853-9893-efbcd4eae21f {
        stroke-dasharray: 2.941 2.941;
      }

      .a89daeff-e234-4714-be92-b9b4e7db30d6, .afd33c2b-24a5-417f-a1f4-08b21b5f46c9, .b9236be4-3ab2-4cb0-8152-e5e79ea3f28f, .babf7aa7-e5fa-4126-af31-89ad7537aa9f {
        fill: #fff;
      }

      .afd03d9b-6ad1-45e0-af48-45bd01ff7b35 {
        stroke: #fff;
        stroke-width: 10px;
      }

      .a82b0699-11f1-4ec4-8755-44d0dfcbd4e1 {
        stroke: #c0d682;
      }

      .a89daeff-e234-4714-be92-b9b4e7db30d6, .af37e773-23c5-4124-8eaf-3e3bdfe6eb30, .f11e0fcb-6c5a-4082-853d-757604a41d8e {
        stroke: #5b5b5b;
      }

      .a89daeff-e234-4714-be92-b9b4e7db30d6, .f11e0fcb-6c5a-4082-853d-757604a41d8e {
        stroke-width: 1.5px;
      }

      .a57ceeb7-d71d-452f-a5d4-841c0f7f4ac7 {
        fill: #dcdcdc;
      }

      .e0582b26-f2b6-442b-9822-d6af75066051 {
        fill: #5e40be;
      }

      .ac3193ec-d708-427e-a09b-93059aaa4c97 {
        opacity: 0.35;
        mix-blend-mode: multiply;
      }

      .ab6c34e9-8574-444d-bd10-539441da61ac {
        fill: url(#fc07334e-d75b-424c-bf67-836bf85ee63e);
      }

      .a8406c5d-ab37-4684-a008-e7a42d10a1ed {
        fill: #06c;
      }

      .b8dcaedc-d1f8-4401-8cce-a6bd2ae224d4 {
        fill: url(#aeb1ab7a-69a2-40bd-88e6-abd2d4ef4e73);
      }
    </style>
    <pattern id="fc07334e-d75b-424c-bf67-836bf85ee63e" data-name="diaginal hash (gray)" width="50" height="50" patternUnits="userSpaceOnUse" viewBox="0 0 50 50">
      <rect class="adceaded-53db-476d-9036-db73830adcda" width="50" height="50"/>
      <g>
        <polygon class="be22b9c9-4b6a-4f46-b69a-61e021ab8c82" points="50 50 50 50.707 50.707 50 50 50"/>
        <polygon class="be22b9c9-4b6a-4f46-b69a-61e021ab8c82" points="54.849 50 50 54.849 50 56.263 56.263 50 54.849 50"/>
        <polygon class="be22b9c9-4b6a-4f46-b69a-61e021ab8c82" points="60.404 50 50 60.404 50 61.818 61.818 50 60.404 50"/>
        <polygon class="be22b9c9-4b6a-4f46-b69a-61e021ab8c82" points="65.96 50 50 65.96 50 67.374 67.374 50 65.96 50"/>
        <polygon class="be22b9c9-4b6a-4f46-b69a-61e021ab8c82" points="71.515 50 50 71.515 50 72.929 72.929 50 71.515 50"/>
        <polygon class="be22b9c9-4b6a-4f46-b69a-61e021ab8c82" points="77.071 50 50 77.071 50 78.485 78.485 50 77.071 50"/>
        <polygon class="be22b9c9-4b6a-4f46-b69a-61e021ab8c82" points="82.626 50 50 82.626 50 84.04 84.041 50 82.626 50"/>
        <polygon class="be22b9c9-4b6a-4f46-b69a-61e021ab8c82" points="88.182 50 50 88.182 50 89.596 89.596 50 88.182 50"/>
        <polygon class="be22b9c9-4b6a-4f46-b69a-61e021ab8c82" points="93.737 50 50 93.737 50 95.151 95.151 50 93.737 50"/>
        <polygon class="be22b9c9-4b6a-4f46-b69a-61e021ab8c82" points="100 50 99.293 50 50 99.293 50 100 50.707 100 100 50.707 100 50"/>
      </g>
      <g>
        <polygon class="be22b9c9-4b6a-4f46-b69a-61e021ab8c82" points="0 50 0 50.707 0.707 50 0 50"/>
        <polygon class="be22b9c9-4b6a-4f46-b69a-61e021ab8c82" points="4.849 50 0 54.849 0 56.263 6.263 50 4.849 50"/>
        <polygon class="be22b9c9-4b6a-4f46-b69a-61e021ab8c82" points="10.404 50 0 60.404 0 61.818 11.818 50 10.404 50"/>
        <polygon class="be22b9c9-4b6a-4f46-b69a-61e021ab8c82" points="15.96 50 0 65.96 0 67.374 17.374 50 15.96 50"/>
        <polygon class="be22b9c9-4b6a-4f46-b69a-61e021ab8c82" points="21.515 50 0 71.515 0 72.929 22.929 50 21.515 50"/>
        <polygon class="be22b9c9-4b6a-4f46-b69a-61e021ab8c82" points="27.071 50 0 77.071 0 78.485 28.485 50 27.071 50"/>
        <polygon class="be22b9c9-4b6a-4f46-b69a-61e021ab8c82" points="32.626 50 0 82.626 0 84.04 34.041 50 32.626 50"/>
        <polygon class="be22b9c9-4b6a-4f46-b69a-61e021ab8c82" points="38.182 50 0 88.182 0 89.596 39.596 50 38.182 50"/>
        <polygon class="be22b9c9-4b6a-4f46-b69a-61e021ab8c82" points="43.737 50 0 93.737 0 95.151 45.151 50 43.737 50"/>
        <polygon class="be22b9c9-4b6a-4f46-b69a-61e021ab8c82" points="50 50 49.293 50 0 99.293 0 100 0.707 100 50 50.707 50 50"/>
      </g>
      <polygon class="be22b9c9-4b6a-4f46-b69a-61e021ab8c82" points="0 50 -0.707 50 -50 99.293 -50 100 -49.293 100 0 50.707 0 50"/>
      <g>
        <polygon class="be22b9c9-4b6a-4f46-b69a-61e021ab8c82" points="50 0 50 0.707 50.707 0 50 0"/>
        <polygon class="be22b9c9-4b6a-4f46-b69a-61e021ab8c82" points="54.849 0 50 4.849 50 6.263 56.263 0 54.849 0"/>
        <polygon class="be22b9c9-4b6a-4f46-b69a-61e021ab8c82" points="60.404 0 50 10.404 50 11.818 61.818 0 60.404 0"/>
        <polygon class="be22b9c9-4b6a-4f46-b69a-61e021ab8c82" points="65.96 0 50 15.96 50 17.374 67.374 0 65.96 0"/>
        <polygon class="be22b9c9-4b6a-4f46-b69a-61e021ab8c82" points="71.515 0 50 21.515 50 22.929 72.929 0 71.515 0"/>
        <polygon class="be22b9c9-4b6a-4f46-b69a-61e021ab8c82" points="77.071 0 50 27.071 50 28.485 78.485 0 77.071 0"/>
        <polygon class="be22b9c9-4b6a-4f46-b69a-61e021ab8c82" points="82.626 0 50 32.626 50 34.04 84.041 0 82.626 0"/>
        <polygon class="be22b9c9-4b6a-4f46-b69a-61e021ab8c82" points="88.182 0 50 38.182 50 39.596 89.596 0 88.182 0"/>
        <polygon class="be22b9c9-4b6a-4f46-b69a-61e021ab8c82" points="93.737 0 50 43.737 50 45.151 95.151 0 93.737 0"/>
        <polygon class="be22b9c9-4b6a-4f46-b69a-61e021ab8c82" points="100 0 99.293 0 50 49.293 50 50 50.707 50 100 0.707 100 0"/>
      </g>
      <g>
        <polygon class="be22b9c9-4b6a-4f46-b69a-61e021ab8c82" points="0 0 0 0.707 0.707 0 0 0"/>
        <polygon class="be22b9c9-4b6a-4f46-b69a-61e021ab8c82" points="4.849 0 0 4.849 0 6.263 6.263 0 4.849 0"/>
        <polygon class="be22b9c9-4b6a-4f46-b69a-61e021ab8c82" points="10.404 0 0 10.404 0 11.818 11.818 0 10.404 0"/>
        <polygon class="be22b9c9-4b6a-4f46-b69a-61e021ab8c82" points="15.96 0 0 15.96 0 17.374 17.374 0 15.96 0"/>
        <polygon class="be22b9c9-4b6a-4f46-b69a-61e021ab8c82" points="21.515 0 0 21.515 0 22.929 22.929 0 21.515 0"/>
        <polygon class="be22b9c9-4b6a-4f46-b69a-61e021ab8c82" points="27.071 0 0 27.071 0 28.485 28.485 0 27.071 0"/>
        <polygon class="be22b9c9-4b6a-4f46-b69a-61e021ab8c82" points="32.626 0 0 32.626 0 34.04 34.041 0 32.626 0"/>
        <polygon class="be22b9c9-4b6a-4f46-b69a-61e021ab8c82" points="38.182 0 0 38.182 0 39.596 39.596 0 38.182 0"/>
        <polygon class="be22b9c9-4b6a-4f46-b69a-61e021ab8c82" points="43.737 0 0 43.737 0 45.151 45.151 0 43.737 0"/>
        <polygon class="be22b9c9-4b6a-4f46-b69a-61e021ab8c82" points="50 0 49.293 0 0 49.293 0 50 0.707 50 50 0.707 50 0"/>
        <polygon class="be22b9c9-4b6a-4f46-b69a-61e021ab8c82" points="6.263 50 50 6.262 50 4.848 4.849 50 6.263 50"/>
        <polygon class="be22b9c9-4b6a-4f46-b69a-61e021ab8c82" points="11.818 50 50 11.818 50 10.404 10.404 50 11.818 50"/>
        <polygon class="be22b9c9-4b6a-4f46-b69a-61e021ab8c82" points="17.374 50 50 17.374 50 15.96 15.96 50 17.374 50"/>
        <polygon class="be22b9c9-4b6a-4f46-b69a-61e021ab8c82" points="22.929 50 50 22.929 50 21.515 21.515 50 22.929 50"/>
        <polygon class="be22b9c9-4b6a-4f46-b69a-61e021ab8c82" points="28.485 50 50 28.485 50 27.071 27.071 50 28.485 50"/>
        <polygon class="be22b9c9-4b6a-4f46-b69a-61e021ab8c82" points="34.04 50 50 34.04 50 32.626 32.626 50 34.04 50"/>
        <polygon class="be22b9c9-4b6a-4f46-b69a-61e021ab8c82" points="39.596 50 50 39.596 50 38.182 38.182 50 39.596 50"/>
        <polygon class="be22b9c9-4b6a-4f46-b69a-61e021ab8c82" points="45.151 50 50 45.151 50 43.737 43.737 50 45.151 50"/>
        <polygon class="be22b9c9-4b6a-4f46-b69a-61e021ab8c82" points="50 50 50 49.293 49.293 50 50 50"/>
      </g>
      <g>
        <polygon class="be22b9c9-4b6a-4f46-b69a-61e021ab8c82" points="0 0 -0.707 0 -50 49.293 -50 50 -49.293 50 0 0.707 0 0"/>
        <polygon class="be22b9c9-4b6a-4f46-b69a-61e021ab8c82" points="-43.737 50 0 6.262 0 4.848 -45.151 50 -43.737 50"/>
        <polygon class="be22b9c9-4b6a-4f46-b69a-61e021ab8c82" points="-38.182 50 0 11.818 0 10.404 -39.596 50 -38.182 50"/>
        <polygon class="be22b9c9-4b6a-4f46-b69a-61e021ab8c82" points="-32.626 50 0 17.374 0 15.96 -34.04 50 -32.626 50"/>
        <polygon class="be22b9c9-4b6a-4f46-b69a-61e021ab8c82" points="-27.071 50 0 22.929 0 21.515 -28.485 50 -27.071 50"/>
        <polygon class="be22b9c9-4b6a-4f46-b69a-61e021ab8c82" points="-21.515 50 0 28.485 0 27.071 -22.929 50 -21.515 50"/>
        <polygon class="be22b9c9-4b6a-4f46-b69a-61e021ab8c82" points="-15.96 50 0 34.04 0 32.626 -17.374 50 -15.96 50"/>
        <polygon class="be22b9c9-4b6a-4f46-b69a-61e021ab8c82" points="-10.404 50 0 39.596 0 38.182 -11.818 50 -10.404 50"/>
        <polygon class="be22b9c9-4b6a-4f46-b69a-61e021ab8c82" points="-4.849 50 0 45.151 0 43.737 -6.263 50 -4.849 50"/>
        <polygon class="be22b9c9-4b6a-4f46-b69a-61e021ab8c82" points="0 50 0 49.293 -0.707 50 0 50"/>
      </g>
      <polygon class="be22b9c9-4b6a-4f46-b69a-61e021ab8c82" points="100 -50 99.293 -50 50 -0.707 50 0 50.707 0 100 -49.293 100 -50"/>
      <g>
        <polygon class="be22b9c9-4b6a-4f46-b69a-61e021ab8c82" points="50 -50 49.293 -50 0 -0.707 0 0 0.707 0 50 -49.293 50 -50"/>
        <polygon class="be22b9c9-4b6a-4f46-b69a-61e021ab8c82" points="6.263 0 50 -43.738 50 -45.152 4.849 0 6.263 0"/>
        <polygon class="be22b9c9-4b6a-4f46-b69a-61e021ab8c82" points="11.818 0 50 -38.182 50 -39.596 10.404 0 11.818 0"/>
        <polygon class="be22b9c9-4b6a-4f46-b69a-61e021ab8c82" points="17.374 0 50 -32.626 50 -34.04 15.96 0 17.374 0"/>
        <polygon class="be22b9c9-4b6a-4f46-b69a-61e021ab8c82" points="22.929 0 50 -27.071 50 -28.485 21.515 0 22.929 0"/>
        <polygon class="be22b9c9-4b6a-4f46-b69a-61e021ab8c82" points="28.485 0 50 -21.515 50 -22.929 27.071 0 28.485 0"/>
        <polygon class="be22b9c9-4b6a-4f46-b69a-61e021ab8c82" points="34.04 0 50 -15.96 50 -17.374 32.626 0 34.04 0"/>
        <polygon class="be22b9c9-4b6a-4f46-b69a-61e021ab8c82" points="39.596 0 50 -10.404 50 -11.818 38.182 0 39.596 0"/>
        <polygon class="be22b9c9-4b6a-4f46-b69a-61e021ab8c82" points="45.151 0 50 -4.849 50 -6.263 43.737 0 45.151 0"/>
        <polygon class="be22b9c9-4b6a-4f46-b69a-61e021ab8c82" points="50 0 50 -0.707 49.293 0 50 0"/>
      </g>
      <g>
        <polygon class="be22b9c9-4b6a-4f46-b69a-61e021ab8c82" points="0 -50 -0.707 -50 -50 -0.707 -50 0 -49.293 0 0 -49.293 0 -50"/>
        <polygon class="be22b9c9-4b6a-4f46-b69a-61e021ab8c82" points="-43.737 0 0 -43.738 0 -45.152 -45.151 0 -43.737 0"/>
        <polygon class="be22b9c9-4b6a-4f46-b69a-61e021ab8c82" points="-38.182 0 0 -38.182 0 -39.596 -39.596 0 -38.182 0"/>
        <polygon class="be22b9c9-4b6a-4f46-b69a-61e021ab8c82" points="-32.626 0 0 -32.626 0 -34.04 -34.04 0 -32.626 0"/>
        <polygon class="be22b9c9-4b6a-4f46-b69a-61e021ab8c82" points="-27.071 0 0 -27.071 0 -28.485 -28.485 0 -27.071 0"/>
        <polygon class="be22b9c9-4b6a-4f46-b69a-61e021ab8c82" points="-21.515 0 0 -21.515 0 -22.929 -22.929 0 -21.515 0"/>
        <polygon class="be22b9c9-4b6a-4f46-b69a-61e021ab8c82" points="-15.96 0 0 -15.96 0 -17.374 -17.374 0 -15.96 0"/>
        <polygon class="be22b9c9-4b6a-4f46-b69a-61e021ab8c82" points="-10.404 0 0 -10.404 0 -11.818 -11.818 0 -10.404 0"/>
        <polygon class="be22b9c9-4b6a-4f46-b69a-61e021ab8c82" points="-4.849 0 0 -4.849 0 -6.263 -6.263 0 -4.849 0"/>
        <polygon class="be22b9c9-4b6a-4f46-b69a-61e021ab8c82" points="0 0 0 -0.707 -0.707 0 0 0"/>
      </g>
    </pattern>
    <pattern id="aeb1ab7a-69a2-40bd-88e6-abd2d4ef4e73" data-name="diaginal hash (gray)" width="50" height="50" patternTransform="translate(-124.569 190.023)" patternUnits="userSpaceOnUse" viewBox="0 0 50 50">
      <rect class="adceaded-53db-476d-9036-db73830adcda" width="50" height="50"/>
      <g>
        <polygon class="be22b9c9-4b6a-4f46-b69a-61e021ab8c82" points="50 50 50 50.707 50.707 50 50 50"/>
        <polygon class="be22b9c9-4b6a-4f46-b69a-61e021ab8c82" points="54.849 50 50 54.849 50 56.263 56.263 50 54.849 50"/>
        <polygon class="be22b9c9-4b6a-4f46-b69a-61e021ab8c82" points="60.404 50 50 60.404 50 61.818 61.818 50 60.404 50"/>
        <polygon class="be22b9c9-4b6a-4f46-b69a-61e021ab8c82" points="65.96 50 50 65.96 50 67.374 67.374 50 65.96 50"/>
        <polygon class="be22b9c9-4b6a-4f46-b69a-61e021ab8c82" points="71.515 50 50 71.515 50 72.929 72.929 50 71.515 50"/>
        <polygon class="be22b9c9-4b6a-4f46-b69a-61e021ab8c82" points="77.071 50 50 77.071 50 78.485 78.485 50 77.071 50"/>
        <polygon class="be22b9c9-4b6a-4f46-b69a-61e021ab8c82" points="82.626 50 50 82.626 50 84.04 84.041 50 82.626 50"/>
        <polygon class="be22b9c9-4b6a-4f46-b69a-61e021ab8c82" points="88.182 50 50 88.182 50 89.596 89.596 50 88.182 50"/>
        <polygon class="be22b9c9-4b6a-4f46-b69a-61e021ab8c82" points="93.737 50 50 93.737 50 95.151 95.151 50 93.737 50"/>
        <polygon class="be22b9c9-4b6a-4f46-b69a-61e021ab8c82" points="100 50 99.293 50 50 99.293 50 100 50.707 100 100 50.707 100 50"/>
      </g>
      <g>
        <polygon class="be22b9c9-4b6a-4f46-b69a-61e021ab8c82" points="0 50 0 50.707 0.707 50 0 50"/>
        <polygon class="be22b9c9-4b6a-4f46-b69a-61e021ab8c82" points="4.849 50 0 54.849 0 56.263 6.263 50 4.849 50"/>
        <polygon class="be22b9c9-4b6a-4f46-b69a-61e021ab8c82" points="10.404 50 0 60.404 0 61.818 11.818 50 10.404 50"/>
        <polygon class="be22b9c9-4b6a-4f46-b69a-61e021ab8c82" points="15.96 50 0 65.96 0 67.374 17.374 50 15.96 50"/>
        <polygon class="be22b9c9-4b6a-4f46-b69a-61e021ab8c82" points="21.515 50 0 71.515 0 72.929 22.929 50 21.515 50"/>
        <polygon class="be22b9c9-4b6a-4f46-b69a-61e021ab8c82" points="27.071 50 0 77.071 0 78.485 28.485 50 27.071 50"/>
        <polygon class="be22b9c9-4b6a-4f46-b69a-61e021ab8c82" points="32.626 50 0 82.626 0 84.04 34.041 50 32.626 50"/>
        <polygon class="be22b9c9-4b6a-4f46-b69a-61e021ab8c82" points="38.182 50 0 88.182 0 89.596 39.596 50 38.182 50"/>
        <polygon class="be22b9c9-4b6a-4f46-b69a-61e021ab8c82" points="43.737 50 0 93.737 0 95.151 45.151 50 43.737 50"/>
        <polygon class="be22b9c9-4b6a-4f46-b69a-61e021ab8c82" points="50 50 49.293 50 0 99.293 0 100 0.707 100 50 50.707 50 50"/>
      </g>
      <polygon class="be22b9c9-4b6a-4f46-b69a-61e021ab8c82" points="0 50 -0.707 50 -50 99.293 -50 100 -49.293 100 0 50.707 0 50"/>
      <g>
        <polygon class="be22b9c9-4b6a-4f46-b69a-61e021ab8c82" points="50 0 50 0.707 50.707 0 50 0"/>
        <polygon class="be22b9c9-4b6a-4f46-b69a-61e021ab8c82" points="54.849 0 50 4.849 50 6.263 56.263 0 54.849 0"/>
        <polygon class="be22b9c9-4b6a-4f46-b69a-61e021ab8c82" points="60.404 0 50 10.404 50 11.818 61.818 0 60.404 0"/>
        <polygon class="be22b9c9-4b6a-4f46-b69a-61e021ab8c82" points="65.96 0 50 15.96 50 17.374 67.374 0 65.96 0"/>
        <polygon class="be22b9c9-4b6a-4f46-b69a-61e021ab8c82" points="71.515 0 50 21.515 50 22.929 72.929 0 71.515 0"/>
        <polygon class="be22b9c9-4b6a-4f46-b69a-61e021ab8c82" points="77.071 0 50 27.071 50 28.485 78.485 0 77.071 0"/>
        <polygon class="be22b9c9-4b6a-4f46-b69a-61e021ab8c82" points="82.626 0 50 32.626 50 34.04 84.041 0 82.626 0"/>
        <polygon class="be22b9c9-4b6a-4f46-b69a-61e021ab8c82" points="88.182 0 50 38.182 50 39.596 89.596 0 88.182 0"/>
        <polygon class="be22b9c9-4b6a-4f46-b69a-61e021ab8c82" points="93.737 0 50 43.737 50 45.151 95.151 0 93.737 0"/>
        <polygon class="be22b9c9-4b6a-4f46-b69a-61e021ab8c82" points="100 0 99.293 0 50 49.293 50 50 50.707 50 100 0.707 100 0"/>
      </g>
      <g>
        <polygon class="be22b9c9-4b6a-4f46-b69a-61e021ab8c82" points="0 0 0 0.707 0.707 0 0 0"/>
        <polygon class="be22b9c9-4b6a-4f46-b69a-61e021ab8c82" points="4.849 0 0 4.849 0 6.263 6.263 0 4.849 0"/>
        <polygon class="be22b9c9-4b6a-4f46-b69a-61e021ab8c82" points="10.404 0 0 10.404 0 11.818 11.818 0 10.404 0"/>
        <polygon class="be22b9c9-4b6a-4f46-b69a-61e021ab8c82" points="15.96 0 0 15.96 0 17.374 17.374 0 15.96 0"/>
        <polygon class="be22b9c9-4b6a-4f46-b69a-61e021ab8c82" points="21.515 0 0 21.515 0 22.929 22.929 0 21.515 0"/>
        <polygon class="be22b9c9-4b6a-4f46-b69a-61e021ab8c82" points="27.071 0 0 27.071 0 28.485 28.485 0 27.071 0"/>
        <polygon class="be22b9c9-4b6a-4f46-b69a-61e021ab8c82" points="32.626 0 0 32.626 0 34.04 34.041 0 32.626 0"/>
        <polygon class="be22b9c9-4b6a-4f46-b69a-61e021ab8c82" points="38.182 0 0 38.182 0 39.596 39.596 0 38.182 0"/>
        <polygon class="be22b9c9-4b6a-4f46-b69a-61e021ab8c82" points="43.737 0 0 43.737 0 45.151 45.151 0 43.737 0"/>
        <polygon class="be22b9c9-4b6a-4f46-b69a-61e021ab8c82" points="50 0 49.293 0 0 49.293 0 50 0.707 50 50 0.707 50 0"/>
        <polygon class="be22b9c9-4b6a-4f46-b69a-61e021ab8c82" points="6.263 50 50 6.262 50 4.848 4.849 50 6.263 50"/>
        <polygon class="be22b9c9-4b6a-4f46-b69a-61e021ab8c82" points="11.818 50 50 11.818 50 10.404 10.404 50 11.818 50"/>
        <polygon class="be22b9c9-4b6a-4f46-b69a-61e021ab8c82" points="17.374 50 50 17.374 50 15.96 15.96 50 17.374 50"/>
        <polygon class="be22b9c9-4b6a-4f46-b69a-61e021ab8c82" points="22.929 50 50 22.929 50 21.515 21.515 50 22.929 50"/>
        <polygon class="be22b9c9-4b6a-4f46-b69a-61e021ab8c82" points="28.485 50 50 28.485 50 27.071 27.071 50 28.485 50"/>
        <polygon class="be22b9c9-4b6a-4f46-b69a-61e021ab8c82" points="34.04 50 50 34.04 50 32.626 32.626 50 34.04 50"/>
        <polygon class="be22b9c9-4b6a-4f46-b69a-61e021ab8c82" points="39.596 50 50 39.596 50 38.182 38.182 50 39.596 50"/>
        <polygon class="be22b9c9-4b6a-4f46-b69a-61e021ab8c82" points="45.151 50 50 45.151 50 43.737 43.737 50 45.151 50"/>
        <polygon class="be22b9c9-4b6a-4f46-b69a-61e021ab8c82" points="50 50 50 49.293 49.293 50 50 50"/>
      </g>
      <g>
        <polygon class="be22b9c9-4b6a-4f46-b69a-61e021ab8c82" points="0 0 -0.707 0 -50 49.293 -50 50 -49.293 50 0 0.707 0 0"/>
        <polygon class="be22b9c9-4b6a-4f46-b69a-61e021ab8c82" points="-43.737 50 0 6.262 0 4.848 -45.151 50 -43.737 50"/>
        <polygon class="be22b9c9-4b6a-4f46-b69a-61e021ab8c82" points="-38.182 50 0 11.818 0 10.404 -39.596 50 -38.182 50"/>
        <polygon class="be22b9c9-4b6a-4f46-b69a-61e021ab8c82" points="-32.626 50 0 17.374 0 15.96 -34.04 50 -32.626 50"/>
        <polygon class="be22b9c9-4b6a-4f46-b69a-61e021ab8c82" points="-27.071 50 0 22.929 0 21.515 -28.485 50 -27.071 50"/>
        <polygon class="be22b9c9-4b6a-4f46-b69a-61e021ab8c82" points="-21.515 50 0 28.485 0 27.071 -22.929 50 -21.515 50"/>
        <polygon class="be22b9c9-4b6a-4f46-b69a-61e021ab8c82" points="-15.96 50 0 34.04 0 32.626 -17.374 50 -15.96 50"/>
        <polygon class="be22b9c9-4b6a-4f46-b69a-61e021ab8c82" points="-10.404 50 0 39.596 0 38.182 -11.818 50 -10.404 50"/>
        <polygon class="be22b9c9-4b6a-4f46-b69a-61e021ab8c82" points="-4.849 50 0 45.151 0 43.737 -6.263 50 -4.849 50"/>
        <polygon class="be22b9c9-4b6a-4f46-b69a-61e021ab8c82" points="0 50 0 49.293 -0.707 50 0 50"/>
      </g>
      <polygon class="be22b9c9-4b6a-4f46-b69a-61e021ab8c82" points="100 -50 99.293 -50 50 -0.707 50 0 50.707 0 100 -49.293 100 -50"/>
      <g>
        <polygon class="be22b9c9-4b6a-4f46-b69a-61e021ab8c82" points="50 -50 49.293 -50 0 -0.707 0 0 0.707 0 50 -49.293 50 -50"/>
        <polygon class="be22b9c9-4b6a-4f46-b69a-61e021ab8c82" points="6.263 0 50 -43.738 50 -45.152 4.849 0 6.263 0"/>
        <polygon class="be22b9c9-4b6a-4f46-b69a-61e021ab8c82" points="11.818 0 50 -38.182 50 -39.596 10.404 0 11.818 0"/>
        <polygon class="be22b9c9-4b6a-4f46-b69a-61e021ab8c82" points="17.374 0 50 -32.626 50 -34.04 15.96 0 17.374 0"/>
        <polygon class="be22b9c9-4b6a-4f46-b69a-61e021ab8c82" points="22.929 0 50 -27.071 50 -28.485 21.515 0 22.929 0"/>
        <polygon class="be22b9c9-4b6a-4f46-b69a-61e021ab8c82" points="28.485 0 50 -21.515 50 -22.929 27.071 0 28.485 0"/>
        <polygon class="be22b9c9-4b6a-4f46-b69a-61e021ab8c82" points="34.04 0 50 -15.96 50 -17.374 32.626 0 34.04 0"/>
        <polygon class="be22b9c9-4b6a-4f46-b69a-61e021ab8c82" points="39.596 0 50 -10.404 50 -11.818 38.182 0 39.596 0"/>
        <polygon class="be22b9c9-4b6a-4f46-b69a-61e021ab8c82" points="45.151 0 50 -4.849 50 -6.263 43.737 0 45.151 0"/>
        <polygon class="be22b9c9-4b6a-4f46-b69a-61e021ab8c82" points="50 0 50 -0.707 49.293 0 50 0"/>
      </g>
      <g>
        <polygon class="be22b9c9-4b6a-4f46-b69a-61e021ab8c82" points="0 -50 -0.707 -50 -50 -0.707 -50 0 -49.293 0 0 -49.293 0 -50"/>
        <polygon class="be22b9c9-4b6a-4f46-b69a-61e021ab8c82" points="-43.737 0 0 -43.738 0 -45.152 -45.151 0 -43.737 0"/>
        <polygon class="be22b9c9-4b6a-4f46-b69a-61e021ab8c82" points="-38.182 0 0 -38.182 0 -39.596 -39.596 0 -38.182 0"/>
        <polygon class="be22b9c9-4b6a-4f46-b69a-61e021ab8c82" points="-32.626 0 0 -32.626 0 -34.04 -34.04 0 -32.626 0"/>
        <polygon class="be22b9c9-4b6a-4f46-b69a-61e021ab8c82" points="-27.071 0 0 -27.071 0 -28.485 -28.485 0 -27.071 0"/>
        <polygon class="be22b9c9-4b6a-4f46-b69a-61e021ab8c82" points="-21.515 0 0 -21.515 0 -22.929 -22.929 0 -21.515 0"/>
        <polygon class="be22b9c9-4b6a-4f46-b69a-61e021ab8c82" points="-15.96 0 0 -15.96 0 -17.374 -17.374 0 -15.96 0"/>
        <polygon class="be22b9c9-4b6a-4f46-b69a-61e021ab8c82" points="-10.404 0 0 -10.404 0 -11.818 -11.818 0 -10.404 0"/>
        <polygon class="be22b9c9-4b6a-4f46-b69a-61e021ab8c82" points="-4.849 0 0 -4.849 0 -6.263 -6.263 0 -4.849 0"/>
        <polygon class="be22b9c9-4b6a-4f46-b69a-61e021ab8c82" points="0 0 0 -0.707 -0.707 0 0 0"/>
      </g>
    </pattern>
  </defs>
  <g class="a55a9b59-244f-4f57-b4ff-67bd9c34e5a7">
    <g id="a80baa3a-c838-4eea-ae9a-f6ddd523a945" data-name="artwork">
      <line class="ee7b795d-4cd4-431a-9a69-1798c3ae1344" x1="649" y1="378" x2="649" y2="403"/>
      <line class="ee7b795d-4cd4-431a-9a69-1798c3ae1344" x1="409.5" y1="378" x2="409.5" y2="403"/>
      <rect class="ba048f37-58c5-409b-bb64-36255ffff6a4" y="209.5" width="281" height="168.5"/>
      <line class="ee7b795d-4cd4-431a-9a69-1798c3ae1344" y1="403" x2="760" y2="403"/>
      <line class="fac0212f-5015-4ed2-982d-a44366ec1813" y1="114.017" x2="760" y2="114.017"/>
      <text class="a2eab79a-f6b5-4547-b89d-14c1ebb0fa0a" transform="translate(0 104.017)">Baremetal network</text>
      <text class="a2eab79a-f6b5-4547-b89d-14c1ebb0fa0a" transform="translate(1 419.817)">Provisioning network</text>
      <line class="ee7b795d-4cd4-431a-9a69-1798c3ae1344" x1="22.727" y1="403" x2="22.727" y2="352.75"/>
      <line class="fac0212f-5015-4ed2-982d-a44366ec1813" x1="22.727" y1="114.009" x2="22.727" y2="264.25"/>
      <g>
        <text class="bd34f8c5-8a14-40d2-a16c-34a8feefa71f" transform="translate(673.981 422.834)">71_OpenShift_1020</text>
        <rect class="adceaded-53db-476d-9036-db73830adcda" y="399.817" width="760" height="40"/>
      </g>
      <line class="f15000b4-0da8-480a-aafc-ee8b36d67207" y1="38.672" x2="760" y2="38.672"/>
      <text class="a2eab79a-f6b5-4547-b89d-14c1ebb0fa0a" transform="translate(0.5 28.671)">Internet access</text>
      <polyline class="ee7b795d-4cd4-431a-9a69-1798c3ae1344" points="183.217 327.5 183.217 352.75 165.924 352.75"/>
      <polyline class="fac0212f-5015-4ed2-982d-a44366ec1813" points="183.217 289.5 183.217 264.25 165.924 264.25"/>
      <path class="ba048f37-58c5-409b-bb64-36255ffff6a4" d="M41.209,219.5H0V240H41.209C46.87,240,46.87,219.5,41.209,219.5Z"/>
      <rect class="a6b2901f-985e-4790-9b1a-b067bc488d31" x="15" y="289.5" width="246" height="38"/>
      <text class="a2eab79a-f6b5-4547-b89d-14c1ebb0fa0a" transform="translate(101.893 311.547)">Bootstrap VM</text>
      <text class="bc22a841-9bb8-4df5-89e6-6ead37c39ea5" transform="translate(15 234.604)">Provisioning node</text>
      <g>
        <line class="e1d2fba0-4151-4324-9d6a-32486a323227" x1="191.972" y1="123.726" x2="191.972" y2="125.226"/>
        <line class="a956bb17-ae53-4ed3-8a7f-94d43ad37da2" x1="191.972" y1="127.226" x2="191.972" y2="130.226"/>
        <polyline class="e1d2fba0-4151-4324-9d6a-32486a323227" points="191.972 131.226 191.972 132.726 193.472 132.726"/>
        <line class="ae2addde-7bd9-40f4-86f1-f7540a5f3593" x1="196.543" y1="132.726" x2="219.578" y2="132.726"/>
        <polyline class="e1d2fba0-4151-4324-9d6a-32486a323227" points="221.114 132.726 222.614 132.726 222.614 134.226"/>
        <line class="a4370618-cae6-4853-9893-efbcd4eae21f" x1="222.614" y1="137.167" x2="222.614" y2="276.853"/>
        <line class="e1d2fba0-4151-4324-9d6a-32486a323227" x1="222.614" y1="278.324" x2="222.614" y2="279.824"/>
        <polygon class="ba69c1f7-3de0-46c8-95e3-510a671a17d8" points="217.627 278.365 222.614 287 227.6 278.365 217.627 278.365"/>
      </g>
      <g>
        <line class="e1d2fba0-4151-4324-9d6a-32486a323227" x1="268.255" y1="123.726" x2="268.255" y2="125.226"/>
        <line class="a956bb17-ae53-4ed3-8a7f-94d43ad37da2" x1="268.255" y1="127.226" x2="268.255" y2="130.226"/>
        <polyline class="e1d2fba0-4151-4324-9d6a-32486a323227" points="268.255 131.226 268.255 132.726 266.755 132.726"/>
        <line class="ae2addde-7bd9-40f4-86f1-f7540a5f3593" x1="263.684" y1="132.726" x2="240.649" y2="132.726"/>
        <polyline class="e1d2fba0-4151-4324-9d6a-32486a323227" points="239.114 132.726 237.614 132.726 237.614 134.226"/>
        <line class="a4370618-cae6-4853-9893-efbcd4eae21f" x1="237.614" y1="137.167" x2="237.614" y2="276.853"/>
        <line class="e1d2fba0-4151-4324-9d6a-32486a323227" x1="237.614" y1="278.324" x2="237.614" y2="279.824"/>
        <polygon class="ba69c1f7-3de0-46c8-95e3-510a671a17d8" points="232.627 278.365 237.614 287 242.6 278.365 232.627 278.365"/>
      </g>
      <circle class="afd33c2b-24a5-417f-a1f4-08b21b5f46c9" cx="268.255" cy="113.371" r="9.355"/>
      <text class="a2eab79a-f6b5-4547-b89d-14c1ebb0fa0a" transform="translate(239.271 98.016)">Ingress VIP</text>
      <circle class="afd33c2b-24a5-417f-a1f4-08b21b5f46c9" cx="191.972" cy="113.371" r="9.355"/>
      <text class="a2eab79a-f6b5-4547-b89d-14c1ebb0fa0a" transform="translate(172.552 98.016)">API VIP</text>
      <line class="fac0212f-5015-4ed2-982d-a44366ec1813" x1="639" y1="114.017" x2="639" y2="209.5"/>
      <line class="afd03d9b-6ad1-45e0-af48-45bd01ff7b35" x1="617.425" y1="189.5" x2="645.5" y2="189.5"/>
      <polyline class="a82b0699-11f1-4ec4-8755-44d0dfcbd4e1" points="760 189.5 419.832 189.5 419.832 209.5"/>
      <line class="a82b0699-11f1-4ec4-8755-44d0dfcbd4e1" x1="659" y1="189.5" x2="659" y2="209.5"/>
      <line class="fac0212f-5015-4ed2-982d-a44366ec1813" x1="399.5" y1="114.017" x2="399.5" y2="209.5"/>
      <text class="a2eab79a-f6b5-4547-b89d-14c1ebb0fa0a" transform="translate(418.832 167.501)">Out-of-Band Management<tspan x="0" y="12">network (optional)</tspan></text>
      <line class="fac0212f-5015-4ed2-982d-a44366ec1813" x1="689.778" y1="114.069" x2="689.778" y2="134.069"/>
      <g>
        <text class="a2eab79a-f6b5-4547-b89d-14c1ebb0fa0a" transform="translate(672.001 164.414)">Router</text>
        <g>
          <rect class="a89daeff-e234-4714-be92-b9b4e7db30d6" x="662.278" y="134.069" width="55" height="13.75"/>
          <line class="af37e773-23c5-4124-8eaf-3e3bdfe6eb30" x1="711.398" y1="139.966" x2="711.398" y2="139.966"/>
          <line class="f11e0fcb-6c5a-4082-853d-757604a41d8e" x1="668.17" y1="138.931" x2="668.17" y2="142.896"/>
          <line class="f11e0fcb-6c5a-4082-853d-757604a41d8e" x1="674.063" y1="138.931" x2="674.063" y2="142.896"/>
          <line class="f11e0fcb-6c5a-4082-853d-757604a41d8e" x1="679.956" y1="138.931" x2="679.956" y2="142.896"/>
          <line class="f11e0fcb-6c5a-4082-853d-757604a41d8e" x1="685.849" y1="138.931" x2="685.849" y2="142.896"/>
          <line class="f11e0fcb-6c5a-4082-853d-757604a41d8e" x1="691.742" y1="138.931" x2="691.742" y2="142.896"/>
          <line class="f11e0fcb-6c5a-4082-853d-757604a41d8e" x1="697.635" y1="138.931" x2="697.635" y2="142.896"/>
        </g>
      </g>
      <line class="a82b0699-11f1-4ec4-8755-44d0dfcbd4e1" x1="689.778" y1="169.5" x2="689.778" y2="189.5"/>
      <g>
        <g>
          <rect class="babf7aa7-e5fa-4126-af31-89ad7537aa9f" x="299.5" y="210" width="220" height="167.5"/>
          <path class="ba048f37-58c5-409b-bb64-36255ffff6a4" d="M519,210.5V377H300V210.5H519m1-1H299V378H520V209.5Z"/>
        </g>
        <text class="a57ceeb7-d71d-452f-a5d4-841c0f7f4ac7" transform="translate(314 234.604)"><tspan xml:space="preserve">Control plane nodes  x3</tspan></text>
      </g>
      <g>
        <g>
          <rect class="babf7aa7-e5fa-4126-af31-89ad7537aa9f" x="539" y="210" width="220" height="167.5"/>
          <path class="ba048f37-58c5-409b-bb64-36255ffff6a4" d="M758.5,210.5V377h-219V210.5h219m1-1h-221V378h221V209.5Z"/>
        </g>
        <text class="a57ceeb7-d71d-452f-a5d4-841c0f7f4ac7" transform="translate(552.467 234.604)"><tspan xml:space="preserve">Worker nodes  xN</tspan></text>
      </g>
      <line class="fac0212f-5015-4ed2-982d-a44366ec1813" x1="436.439" y1="94.017" x2="436.439" y2="114.017"/>
      <line class="f15000b4-0da8-480a-aafc-ee8b36d67207" x1="436.439" y1="38.672" x2="436.439" y2="58.672"/>
      <g>
        <text class="a2eab79a-f6b5-4547-b89d-14c1ebb0fa0a" transform="translate(418.663 89.017)">Router</text>
        <g>
          <rect class="a89daeff-e234-4714-be92-b9b4e7db30d6" x="408.939" y="58.672" width="55" height="13.75"/>
          <line class="af37e773-23c5-4124-8eaf-3e3bdfe6eb30" x1="458.06" y1="64.569" x2="458.06" y2="64.569"/>
          <line class="f11e0fcb-6c5a-4082-853d-757604a41d8e" x1="414.832" y1="63.535" x2="414.832" y2="67.499"/>
          <line class="f11e0fcb-6c5a-4082-853d-757604a41d8e" x1="420.725" y1="63.535" x2="420.725" y2="67.499"/>
          <line class="f11e0fcb-6c5a-4082-853d-757604a41d8e" x1="426.618" y1="63.535" x2="426.618" y2="67.499"/>
          <line class="f11e0fcb-6c5a-4082-853d-757604a41d8e" x1="432.511" y1="63.535" x2="432.511" y2="67.499"/>
          <line class="f11e0fcb-6c5a-4082-853d-757604a41d8e" x1="438.403" y1="63.535" x2="438.403" y2="67.499"/>
          <line class="f11e0fcb-6c5a-4082-853d-757604a41d8e" x1="444.296" y1="63.535" x2="444.296" y2="67.499"/>
        </g>
      </g>
      <line class="fac0212f-5015-4ed2-982d-a44366ec1813" x1="518.252" y1="94.017" x2="518.252" y2="114.017"/>
      <g>
        <text class="a2eab79a-f6b5-4547-b89d-14c1ebb0fa0a" transform="translate(484.878 89.838)">DHCP server</text>
        <g>
          <rect class="a89daeff-e234-4714-be92-b9b4e7db30d6" x="490.684" y="59.493" width="55" height="13.75"/>
          <line class="af37e773-23c5-4124-8eaf-3e3bdfe6eb30" x1="539.805" y1="65.39" x2="539.805" y2="65.39"/>
          <line class="f11e0fcb-6c5a-4082-853d-757604a41d8e" x1="497.42" y1="67.35" x2="505.67" y2="67.35"/>
        </g>
      </g>
      <line class="fac0212f-5015-4ed2-982d-a44366ec1813" x1="601.063" y1="94.017" x2="601.063" y2="114.017"/>
      <g>
        <text class="a2eab79a-f6b5-4547-b89d-14c1ebb0fa0a" transform="translate(571.814 89.838)">DNS server</text>
        <g>
          <rect class="a89daeff-e234-4714-be92-b9b4e7db30d6" x="573.495" y="59.493" width="55" height="13.75"/>
          <line class="af37e773-23c5-4124-8eaf-3e3bdfe6eb30" x1="622.616" y1="65.39" x2="622.616" y2="65.39"/>
          <line class="f11e0fcb-6c5a-4082-853d-757604a41d8e" x1="580.23" y1="67.35" x2="588.48" y2="67.35"/>
        </g>
      </g>
      <g>
        <path class="e0582b26-f2b6-442b-9822-d6af75066051" d="M161.678,342.5H.455V363H161.678C167.339,363,167.339,342.5,161.678,342.5Z"/>
        <g class="ac3193ec-d708-427e-a09b-93059aaa4c97">
          <path class="ab6c34e9-8574-444d-bd10-539441da61ac" d="M161.678,342.5H.455V363H161.678C167.339,363,167.339,342.5,161.678,342.5Z"/>
        </g>
        <text class="b9236be4-3ab2-4cb0-8152-e5e79ea3f28f" transform="translate(55.661 356.074)">Provisioning bridge</text>
        <g>
          <path class="e0582b26-f2b6-442b-9822-d6af75066051" d="M41.223,342.5H0V363H41.223C46.884,363,46.884,342.5,41.223,342.5Z"/>
          <text class="b9236be4-3ab2-4cb0-8152-e5e79ea3f28f" transform="translate(11.671 356.074)">eno1</text>
        </g>
      </g>
      <g>
        <g>
          <path class="a8406c5d-ab37-4684-a008-e7a42d10a1ed" d="M161.664,254.5H.455V275H161.664C167.325,275,167.325,254.5,161.664,254.5Z"/>
          <g class="ac3193ec-d708-427e-a09b-93059aaa4c97">
            <path class="b8dcaedc-d1f8-4401-8cce-a6bd2ae224d4" d="M161.664,254.5H.455V275H161.664C167.325,275,167.325,254.5,161.664,254.5Z"/>
          </g>
          <text class="b9236be4-3ab2-4cb0-8152-e5e79ea3f28f" transform="translate(55.677 269.349)">Baremetal bridge</text>
        </g>
        <g>
          <path class="a8406c5d-ab37-4684-a008-e7a42d10a1ed" d="M41.209,254.5H0V275H41.209C46.87,275,46.87,254.5,41.209,254.5Z"/>
          <text class="b9236be4-3ab2-4cb0-8152-e5e79ea3f28f" transform="translate(11.671 269.349)">eno2</text>
        </g>
      </g>
    </g>
  </g>
</svg>
