<svg xmlns="http://www.w3.org/2000/svg" xmlns:xlink="http://www.w3.org/1999/xlink" width="760" height="443" viewBox="0 0 760 443">
  <defs>
    <style>
      .a1beff2b-e6d5-4f01-9f71-75c02fa3bda4, .a2fcf0a1-4c86-4322-9b1c-9496a99199bc, .a4c46972-0461-49aa-882d-51619a5f5e70, .a69362b6-9618-4625-86e6-f381c22bd142, .a6c90965-43cb-488b-9ebf-d280b27b9bfe, .a783729b-c958-4329-a0fe-a802508b2605, .a8e006ef-143d-4022-bcfd-9606ebaea282, .b6353768-dcc4-461a-a60d-f2470377d4f2, .b88a8fd4-b639-4e51-a4cc-58f54dc65cc4, .be889753-c23c-4f9a-b73e-d4e8efd16295, .bec8a4d5-5632-4c61-93fe-d2e8048dcfdc, .f3777c69-e6d5-498e-8e99-dbe5ec768c0a {
        fill: none;
      }

      .b7eabc67-b799-49ed-977c-f679a623499c, .e6cd7a4b-53a8-4aa1-b07a-a910c3b557e2, .f0a32f81-8ce8-4467-8728-e0d1d360e116, .f35e4e20-f74a-41b9-ad85-b7b89893c7c7 {
        fill: #151515;
      }

      .a6c90965-43cb-488b-9ebf-d280b27b9bfe, .b6353768-dcc4-461a-a60d-f2470377d4f2, .be889753-c23c-4f9a-b73e-d4e8efd16295, .bec8a4d5-5632-4c61-93fe-d2e8048dcfdc, .e6cd7a4b-53a8-4aa1-b07a-a910c3b557e2 {
        stroke: #151515;
      }

      .e6cd7a4b-53a8-4aa1-b07a-a910c3b557e2 {
        stroke-miterlimit: 10;
      }

      .b4ee58f9-207f-4b51-9804-8f568b9cf714 {
        isolation: isolate;
      }

      .a2fcf0a1-4c86-4322-9b1c-9496a99199bc {
        stroke: #5e40be;
      }

      .a1beff2b-e6d5-4f01-9f71-75c02fa3bda4, .a2fcf0a1-4c86-4322-9b1c-9496a99199bc, .a4c46972-0461-49aa-882d-51619a5f5e70, .a69362b6-9618-4625-86e6-f381c22bd142, .a6c90965-43cb-488b-9ebf-d280b27b9bfe, .a783729b-c958-4329-a0fe-a802508b2605, .a7fb9964-af5c-4c55-8332-83a550fb7896, .b6353768-dcc4-461a-a60d-f2470377d4f2, .b88a8fd4-b639-4e51-a4cc-58f54dc65cc4, .be889753-c23c-4f9a-b73e-d4e8efd16295, .bec8a4d5-5632-4c61-93fe-d2e8048dcfdc, .f3777c69-e6d5-498e-8e99-dbe5ec768c0a, .fc80b46f-18c5-437b-8882-c5f7ff893a47 {
        stroke-linecap: round;
        stroke-linejoin: round;
      }

      .a1beff2b-e6d5-4f01-9f71-75c02fa3bda4, .a2fcf0a1-4c86-4322-9b1c-9496a99199bc, .a783729b-c958-4329-a0fe-a802508b2605, .a7fb9964-af5c-4c55-8332-83a550fb7896, .b88a8fd4-b639-4e51-a4cc-58f54dc65cc4, .f3777c69-e6d5-498e-8e99-dbe5ec768c0a {
        stroke-width: 2px;
      }

      .e6fd3cc4-8a6a-40bd-967e-7148a6a8eee9 {
        fill: #e8e8e8;
      }

      .a783729b-c958-4329-a0fe-a802508b2605, .a7fb9964-af5c-4c55-8332-83a550fb7896 {
        stroke: #06c;
      }

      .ebc1b527-0be7-48a7-a976-ca9a71f881f8, .f35e4e20-f74a-41b9-ad85-b7b89893c7c7 {
        font-size: 11px;
        font-family: RedHatText-Medium, Red Hat Text;
        font-weight: 500;
      }

      .a5a81136-08cf-4542-a3f2-92b7f8be920c {
        font-size: 10px;
        fill: #f3f3f3;
        font-family: RedHatText-Regular, Red Hat Text;
      }

      .b88a8fd4-b639-4e51-a4cc-58f54dc65cc4 {
        stroke: #4cb6d6;
      }

      .f7e8543b-a357-48fe-b5c9-8885dfb4aad1 {
        fill: #d0d0d0;
      }

      .b80ee905-721c-4884-a556-bd15663ec860, .f0a32f81-8ce8-4467-8728-e0d1d360e116 {
        font-size: 12px;
        font-family: RedHatText-Bold, Red Hat Text;
        font-weight: 700;
      }

      .bec8a4d5-5632-4c61-93fe-d2e8048dcfdc {
        stroke-dasharray: 2 2;
      }

      .be889753-c23c-4f9a-b73e-d4e8efd16295 {
        stroke-dasharray: 3.071 3.071;
      }

      .b6353768-dcc4-461a-a60d-f2470377d4f2 {
        stroke-dasharray: 2.941 2.941;
      }

      .a7fb9964-af5c-4c55-8332-83a550fb7896, .b33e941a-ddc2-4b73-bcb8-03bc93d173fb, .ebc1b527-0be7-48a7-a976-ca9a71f881f8, .fc80b46f-18c5-437b-8882-c5f7ff893a47 {
        fill: #fff;
      }

      .a4c46972-0461-49aa-882d-51619a5f5e70 {
        stroke: #fff;
        stroke-width: 10px;
      }

      .f3777c69-e6d5-498e-8e99-dbe5ec768c0a {
        stroke: #c0d682;
      }

      .a1beff2b-e6d5-4f01-9f71-75c02fa3bda4, .a69362b6-9618-4625-86e6-f381c22bd142, .fc80b46f-18c5-437b-8882-c5f7ff893a47 {
        stroke: #5b5b5b;
      }

      .a69362b6-9618-4625-86e6-f381c22bd142, .fc80b46f-18c5-437b-8882-c5f7ff893a47 {
        stroke-width: 1.5px;
      }

      .b80ee905-721c-4884-a556-bd15663ec860 {
        fill: #dcdcdc;
      }

      .e3309599-5f13-4a03-9d9c-2beaa5f6105f {
        fill: #5e40be;
      }

      .acdaf3e5-e0b7-4ec7-b614-c4760e8fc979 {
        opacity: 0.35;
        mix-blend-mode: multiply;
      }

      .be87bb1e-b611-4011-98ea-2680729dae2f {
        fill: url(#a363671b-7210-4049-aad1-df85f0fa35e8);
      }

      .b7a7e62a-bfb6-40fa-bf95-da0926a4f7d9 {
        fill: #06c;
      }

      .a9a373fd-3a48-413e-b484-a4a1ad6f0204 {
        fill: url(#b2587d9a-894e-4576-a7bb-f9aa313d82b7);
      }
    </style>
    <pattern id="a363671b-7210-4049-aad1-df85f0fa35e8" data-name="diaginal hash (gray)" width="50" height="50" patternUnits="userSpaceOnUse" viewBox="0 0 50 50">
      <rect class="a8e006ef-143d-4022-bcfd-9606ebaea282" width="50" height="50"/>
      <g>
        <polygon class="e6cd7a4b-53a8-4aa1-b07a-a910c3b557e2" points="50 50 50 50.707 50.707 50 50 50"/>
        <polygon class="e6cd7a4b-53a8-4aa1-b07a-a910c3b557e2" points="54.849 50 50 54.849 50 56.263 56.263 50 54.849 50"/>
        <polygon class="e6cd7a4b-53a8-4aa1-b07a-a910c3b557e2" points="60.404 50 50 60.404 50 61.818 61.818 50 60.404 50"/>
        <polygon class="e6cd7a4b-53a8-4aa1-b07a-a910c3b557e2" points="65.96 50 50 65.96 50 67.374 67.374 50 65.96 50"/>
        <polygon class="e6cd7a4b-53a8-4aa1-b07a-a910c3b557e2" points="71.515 50 50 71.515 50 72.929 72.929 50 71.515 50"/>
        <polygon class="e6cd7a4b-53a8-4aa1-b07a-a910c3b557e2" points="77.071 50 50 77.071 50 78.485 78.485 50 77.071 50"/>
        <polygon class="e6cd7a4b-53a8-4aa1-b07a-a910c3b557e2" points="82.626 50 50 82.626 50 84.04 84.041 50 82.626 50"/>
        <polygon class="e6cd7a4b-53a8-4aa1-b07a-a910c3b557e2" points="88.182 50 50 88.182 50 89.596 89.596 50 88.182 50"/>
        <polygon class="e6cd7a4b-53a8-4aa1-b07a-a910c3b557e2" points="93.737 50 50 93.737 50 95.151 95.151 50 93.737 50"/>
        <polygon class="e6cd7a4b-53a8-4aa1-b07a-a910c3b557e2" points="100 50 99.293 50 50 99.293 50 100 50.707 100 100 50.707 100 50"/>
      </g>
      <g>
        <polygon class="e6cd7a4b-53a8-4aa1-b07a-a910c3b557e2" points="0 50 0 50.707 0.707 50 0 50"/>
        <polygon class="e6cd7a4b-53a8-4aa1-b07a-a910c3b557e2" points="4.849 50 0 54.849 0 56.263 6.263 50 4.849 50"/>
        <polygon class="e6cd7a4b-53a8-4aa1-b07a-a910c3b557e2" points="10.404 50 0 60.404 0 61.818 11.818 50 10.404 50"/>
        <polygon class="e6cd7a4b-53a8-4aa1-b07a-a910c3b557e2" points="15.96 50 0 65.96 0 67.374 17.374 50 15.96 50"/>
        <polygon class="e6cd7a4b-53a8-4aa1-b07a-a910c3b557e2" points="21.515 50 0 71.515 0 72.929 22.929 50 21.515 50"/>
        <polygon class="e6cd7a4b-53a8-4aa1-b07a-a910c3b557e2" points="27.071 50 0 77.071 0 78.485 28.485 50 27.071 50"/>
        <polygon class="e6cd7a4b-53a8-4aa1-b07a-a910c3b557e2" points="32.626 50 0 82.626 0 84.04 34.041 50 32.626 50"/>
        <polygon class="e6cd7a4b-53a8-4aa1-b07a-a910c3b557e2" points="38.182 50 0 88.182 0 89.596 39.596 50 38.182 50"/>
        <polygon class="e6cd7a4b-53a8-4aa1-b07a-a910c3b557e2" points="43.737 50 0 93.737 0 95.151 45.151 50 43.737 50"/>
        <polygon class="e6cd7a4b-53a8-4aa1-b07a-a910c3b557e2" points="50 50 49.293 50 0 99.293 0 100 0.707 100 50 50.707 50 50"/>
      </g>
      <polygon class="e6cd7a4b-53a8-4aa1-b07a-a910c3b557e2" points="0 50 -0.707 50 -50 99.293 -50 100 -49.293 100 0 50.707 0 50"/>
      <g>
        <polygon class="e6cd7a4b-53a8-4aa1-b07a-a910c3b557e2" points="50 0 50 0.707 50.707 0 50 0"/>
        <polygon class="e6cd7a4b-53a8-4aa1-b07a-a910c3b557e2" points="54.849 0 50 4.849 50 6.263 56.263 0 54.849 0"/>
        <polygon class="e6cd7a4b-53a8-4aa1-b07a-a910c3b557e2" points="60.404 0 50 10.404 50 11.818 61.818 0 60.404 0"/>
        <polygon class="e6cd7a4b-53a8-4aa1-b07a-a910c3b557e2" points="65.96 0 50 15.96 50 17.374 67.374 0 65.96 0"/>
        <polygon class="e6cd7a4b-53a8-4aa1-b07a-a910c3b557e2" points="71.515 0 50 21.515 50 22.929 72.929 0 71.515 0"/>
        <polygon class="e6cd7a4b-53a8-4aa1-b07a-a910c3b557e2" points="77.071 0 50 27.071 50 28.485 78.485 0 77.071 0"/>
        <polygon class="e6cd7a4b-53a8-4aa1-b07a-a910c3b557e2" points="82.626 0 50 32.626 50 34.04 84.041 0 82.626 0"/>
        <polygon class="e6cd7a4b-53a8-4aa1-b07a-a910c3b557e2" points="88.182 0 50 38.182 50 39.596 89.596 0 88.182 0"/>
        <polygon class="e6cd7a4b-53a8-4aa1-b07a-a910c3b557e2" points="93.737 0 50 43.737 50 45.151 95.151 0 93.737 0"/>
        <polygon class="e6cd7a4b-53a8-4aa1-b07a-a910c3b557e2" points="100 0 99.293 0 50 49.293 50 50 50.707 50 100 0.707 100 0"/>
      </g>
      <g>
        <polygon class="e6cd7a4b-53a8-4aa1-b07a-a910c3b557e2" points="0 0 0 0.707 0.707 0 0 0"/>
        <polygon class="e6cd7a4b-53a8-4aa1-b07a-a910c3b557e2" points="4.849 0 0 4.849 0 6.263 6.263 0 4.849 0"/>
        <polygon class="e6cd7a4b-53a8-4aa1-b07a-a910c3b557e2" points="10.404 0 0 10.404 0 11.818 11.818 0 10.404 0"/>
        <polygon class="e6cd7a4b-53a8-4aa1-b07a-a910c3b557e2" points="15.96 0 0 15.96 0 17.374 17.374 0 15.96 0"/>
        <polygon class="e6cd7a4b-53a8-4aa1-b07a-a910c3b557e2" points="21.515 0 0 21.515 0 22.929 22.929 0 21.515 0"/>
        <polygon class="e6cd7a4b-53a8-4aa1-b07a-a910c3b557e2" points="27.071 0 0 27.071 0 28.485 28.485 0 27.071 0"/>
        <polygon class="e6cd7a4b-53a8-4aa1-b07a-a910c3b557e2" points="32.626 0 0 32.626 0 34.04 34.041 0 32.626 0"/>
        <polygon class="e6cd7a4b-53a8-4aa1-b07a-a910c3b557e2" points="38.182 0 0 38.182 0 39.596 39.596 0 38.182 0"/>
        <polygon class="e6cd7a4b-53a8-4aa1-b07a-a910c3b557e2" points="43.737 0 0 43.737 0 45.151 45.151 0 43.737 0"/>
        <polygon class="e6cd7a4b-53a8-4aa1-b07a-a910c3b557e2" points="50 0 49.293 0 0 49.293 0 50 0.707 50 50 0.707 50 0"/>
        <polygon class="e6cd7a4b-53a8-4aa1-b07a-a910c3b557e2" points="6.263 50 50 6.262 50 4.848 4.849 50 6.263 50"/>
        <polygon class="e6cd7a4b-53a8-4aa1-b07a-a910c3b557e2" points="11.818 50 50 11.818 50 10.404 10.404 50 11.818 50"/>
        <polygon class="e6cd7a4b-53a8-4aa1-b07a-a910c3b557e2" points="17.374 50 50 17.374 50 15.96 15.96 50 17.374 50"/>
        <polygon class="e6cd7a4b-53a8-4aa1-b07a-a910c3b557e2" points="22.929 50 50 22.929 50 21.515 21.515 50 22.929 50"/>
        <polygon class="e6cd7a4b-53a8-4aa1-b07a-a910c3b557e2" points="28.485 50 50 28.485 50 27.071 27.071 50 28.485 50"/>
        <polygon class="e6cd7a4b-53a8-4aa1-b07a-a910c3b557e2" points="34.04 50 50 34.04 50 32.626 32.626 50 34.04 50"/>
        <polygon class="e6cd7a4b-53a8-4aa1-b07a-a910c3b557e2" points="39.596 50 50 39.596 50 38.182 38.182 50 39.596 50"/>
        <polygon class="e6cd7a4b-53a8-4aa1-b07a-a910c3b557e2" points="45.151 50 50 45.151 50 43.737 43.737 50 45.151 50"/>
        <polygon class="e6cd7a4b-53a8-4aa1-b07a-a910c3b557e2" points="50 50 50 49.293 49.293 50 50 50"/>
      </g>
      <g>
        <polygon class="e6cd7a4b-53a8-4aa1-b07a-a910c3b557e2" points="0 0 -0.707 0 -50 49.293 -50 50 -49.293 50 0 0.707 0 0"/>
        <polygon class="e6cd7a4b-53a8-4aa1-b07a-a910c3b557e2" points="-43.737 50 0 6.262 0 4.848 -45.151 50 -43.737 50"/>
        <polygon class="e6cd7a4b-53a8-4aa1-b07a-a910c3b557e2" points="-38.182 50 0 11.818 0 10.404 -39.596 50 -38.182 50"/>
        <polygon class="e6cd7a4b-53a8-4aa1-b07a-a910c3b557e2" points="-32.626 50 0 17.374 0 15.96 -34.04 50 -32.626 50"/>
        <polygon class="e6cd7a4b-53a8-4aa1-b07a-a910c3b557e2" points="-27.071 50 0 22.929 0 21.515 -28.485 50 -27.071 50"/>
        <polygon class="e6cd7a4b-53a8-4aa1-b07a-a910c3b557e2" points="-21.515 50 0 28.485 0 27.071 -22.929 50 -21.515 50"/>
        <polygon class="e6cd7a4b-53a8-4aa1-b07a-a910c3b557e2" points="-15.96 50 0 34.04 0 32.626 -17.374 50 -15.96 50"/>
        <polygon class="e6cd7a4b-53a8-4aa1-b07a-a910c3b557e2" points="-10.404 50 0 39.596 0 38.182 -11.818 50 -10.404 50"/>
        <polygon class="e6cd7a4b-53a8-4aa1-b07a-a910c3b557e2" points="-4.849 50 0 45.151 0 43.737 -6.263 50 -4.849 50"/>
        <polygon class="e6cd7a4b-53a8-4aa1-b07a-a910c3b557e2" points="0 50 0 49.293 -0.707 50 0 50"/>
      </g>
      <polygon class="e6cd7a4b-53a8-4aa1-b07a-a910c3b557e2" points="100 -50 99.293 -50 50 -0.707 50 0 50.707 0 100 -49.293 100 -50"/>
      <g>
        <polygon class="e6cd7a4b-53a8-4aa1-b07a-a910c3b557e2" points="50 -50 49.293 -50 0 -0.707 0 0 0.707 0 50 -49.293 50 -50"/>
        <polygon class="e6cd7a4b-53a8-4aa1-b07a-a910c3b557e2" points="6.263 0 50 -43.738 50 -45.152 4.849 0 6.263 0"/>
        <polygon class="e6cd7a4b-53a8-4aa1-b07a-a910c3b557e2" points="11.818 0 50 -38.182 50 -39.596 10.404 0 11.818 0"/>
        <polygon class="e6cd7a4b-53a8-4aa1-b07a-a910c3b557e2" points="17.374 0 50 -32.626 50 -34.04 15.96 0 17.374 0"/>
        <polygon class="e6cd7a4b-53a8-4aa1-b07a-a910c3b557e2" points="22.929 0 50 -27.071 50 -28.485 21.515 0 22.929 0"/>
        <polygon class="e6cd7a4b-53a8-4aa1-b07a-a910c3b557e2" points="28.485 0 50 -21.515 50 -22.929 27.071 0 28.485 0"/>
        <polygon class="e6cd7a4b-53a8-4aa1-b07a-a910c3b557e2" points="34.04 0 50 -15.96 50 -17.374 32.626 0 34.04 0"/>
        <polygon class="e6cd7a4b-53a8-4aa1-b07a-a910c3b557e2" points="39.596 0 50 -10.404 50 -11.818 38.182 0 39.596 0"/>
        <polygon class="e6cd7a4b-53a8-4aa1-b07a-a910c3b557e2" points="45.151 0 50 -4.849 50 -6.263 43.737 0 45.151 0"/>
        <polygon class="e6cd7a4b-53a8-4aa1-b07a-a910c3b557e2" points="50 0 50 -0.707 49.293 0 50 0"/>
      </g>
      <g>
        <polygon class="e6cd7a4b-53a8-4aa1-b07a-a910c3b557e2" points="0 -50 -0.707 -50 -50 -0.707 -50 0 -49.293 0 0 -49.293 0 -50"/>
        <polygon class="e6cd7a4b-53a8-4aa1-b07a-a910c3b557e2" points="-43.737 0 0 -43.738 0 -45.152 -45.151 0 -43.737 0"/>
        <polygon class="e6cd7a4b-53a8-4aa1-b07a-a910c3b557e2" points="-38.182 0 0 -38.182 0 -39.596 -39.596 0 -38.182 0"/>
        <polygon class="e6cd7a4b-53a8-4aa1-b07a-a910c3b557e2" points="-32.626 0 0 -32.626 0 -34.04 -34.04 0 -32.626 0"/>
        <polygon class="e6cd7a4b-53a8-4aa1-b07a-a910c3b557e2" points="-27.071 0 0 -27.071 0 -28.485 -28.485 0 -27.071 0"/>
        <polygon class="e6cd7a4b-53a8-4aa1-b07a-a910c3b557e2" points="-21.515 0 0 -21.515 0 -22.929 -22.929 0 -21.515 0"/>
        <polygon class="e6cd7a4b-53a8-4aa1-b07a-a910c3b557e2" points="-15.96 0 0 -15.96 0 -17.374 -17.374 0 -15.96 0"/>
        <polygon class="e6cd7a4b-53a8-4aa1-b07a-a910c3b557e2" points="-10.404 0 0 -10.404 0 -11.818 -11.818 0 -10.404 0"/>
        <polygon class="e6cd7a4b-53a8-4aa1-b07a-a910c3b557e2" points="-4.849 0 0 -4.849 0 -6.263 -6.263 0 -4.849 0"/>
        <polygon class="e6cd7a4b-53a8-4aa1-b07a-a910c3b557e2" points="0 0 0 -0.707 -0.707 0 0 0"/>
      </g>
    </pattern>
    <pattern id="b2587d9a-894e-4576-a7bb-f9aa313d82b7" data-name="diaginal hash (gray)" width="50" height="50" patternTransform="translate(-124.569 190.023)" patternUnits="userSpaceOnUse" viewBox="0 0 50 50">
      <rect class="a8e006ef-143d-4022-bcfd-9606ebaea282" width="50" height="50"/>
      <g>
        <polygon class="e6cd7a4b-53a8-4aa1-b07a-a910c3b557e2" points="50 50 50 50.707 50.707 50 50 50"/>
        <polygon class="e6cd7a4b-53a8-4aa1-b07a-a910c3b557e2" points="54.849 50 50 54.849 50 56.263 56.263 50 54.849 50"/>
        <polygon class="e6cd7a4b-53a8-4aa1-b07a-a910c3b557e2" points="60.404 50 50 60.404 50 61.818 61.818 50 60.404 50"/>
        <polygon class="e6cd7a4b-53a8-4aa1-b07a-a910c3b557e2" points="65.96 50 50 65.96 50 67.374 67.374 50 65.96 50"/>
        <polygon class="e6cd7a4b-53a8-4aa1-b07a-a910c3b557e2" points="71.515 50 50 71.515 50 72.929 72.929 50 71.515 50"/>
        <polygon class="e6cd7a4b-53a8-4aa1-b07a-a910c3b557e2" points="77.071 50 50 77.071 50 78.485 78.485 50 77.071 50"/>
        <polygon class="e6cd7a4b-53a8-4aa1-b07a-a910c3b557e2" points="82.626 50 50 82.626 50 84.04 84.041 50 82.626 50"/>
        <polygon class="e6cd7a4b-53a8-4aa1-b07a-a910c3b557e2" points="88.182 50 50 88.182 50 89.596 89.596 50 88.182 50"/>
        <polygon class="e6cd7a4b-53a8-4aa1-b07a-a910c3b557e2" points="93.737 50 50 93.737 50 95.151 95.151 50 93.737 50"/>
        <polygon class="e6cd7a4b-53a8-4aa1-b07a-a910c3b557e2" points="100 50 99.293 50 50 99.293 50 100 50.707 100 100 50.707 100 50"/>
      </g>
      <g>
        <polygon class="e6cd7a4b-53a8-4aa1-b07a-a910c3b557e2" points="0 50 0 50.707 0.707 50 0 50"/>
        <polygon class="e6cd7a4b-53a8-4aa1-b07a-a910c3b557e2" points="4.849 50 0 54.849 0 56.263 6.263 50 4.849 50"/>
        <polygon class="e6cd7a4b-53a8-4aa1-b07a-a910c3b557e2" points="10.404 50 0 60.404 0 61.818 11.818 50 10.404 50"/>
        <polygon class="e6cd7a4b-53a8-4aa1-b07a-a910c3b557e2" points="15.96 50 0 65.96 0 67.374 17.374 50 15.96 50"/>
        <polygon class="e6cd7a4b-53a8-4aa1-b07a-a910c3b557e2" points="21.515 50 0 71.515 0 72.929 22.929 50 21.515 50"/>
        <polygon class="e6cd7a4b-53a8-4aa1-b07a-a910c3b557e2" points="27.071 50 0 77.071 0 78.485 28.485 50 27.071 50"/>
        <polygon class="e6cd7a4b-53a8-4aa1-b07a-a910c3b557e2" points="32.626 50 0 82.626 0 84.04 34.041 50 32.626 50"/>
        <polygon class="e6cd7a4b-53a8-4aa1-b07a-a910c3b557e2" points="38.182 50 0 88.182 0 89.596 39.596 50 38.182 50"/>
        <polygon class="e6cd7a4b-53a8-4aa1-b07a-a910c3b557e2" points="43.737 50 0 93.737 0 95.151 45.151 50 43.737 50"/>
        <polygon class="e6cd7a4b-53a8-4aa1-b07a-a910c3b557e2" points="50 50 49.293 50 0 99.293 0 100 0.707 100 50 50.707 50 50"/>
      </g>
      <polygon class="e6cd7a4b-53a8-4aa1-b07a-a910c3b557e2" points="0 50 -0.707 50 -50 99.293 -50 100 -49.293 100 0 50.707 0 50"/>
      <g>
        <polygon class="e6cd7a4b-53a8-4aa1-b07a-a910c3b557e2" points="50 0 50 0.707 50.707 0 50 0"/>
        <polygon class="e6cd7a4b-53a8-4aa1-b07a-a910c3b557e2" points="54.849 0 50 4.849 50 6.263 56.263 0 54.849 0"/>
        <polygon class="e6cd7a4b-53a8-4aa1-b07a-a910c3b557e2" points="60.404 0 50 10.404 50 11.818 61.818 0 60.404 0"/>
        <polygon class="e6cd7a4b-53a8-4aa1-b07a-a910c3b557e2" points="65.96 0 50 15.96 50 17.374 67.374 0 65.96 0"/>
        <polygon class="e6cd7a4b-53a8-4aa1-b07a-a910c3b557e2" points="71.515 0 50 21.515 50 22.929 72.929 0 71.515 0"/>
        <polygon class="e6cd7a4b-53a8-4aa1-b07a-a910c3b557e2" points="77.071 0 50 27.071 50 28.485 78.485 0 77.071 0"/>
        <polygon class="e6cd7a4b-53a8-4aa1-b07a-a910c3b557e2" points="82.626 0 50 32.626 50 34.04 84.041 0 82.626 0"/>
        <polygon class="e6cd7a4b-53a8-4aa1-b07a-a910c3b557e2" points="88.182 0 50 38.182 50 39.596 89.596 0 88.182 0"/>
        <polygon class="e6cd7a4b-53a8-4aa1-b07a-a910c3b557e2" points="93.737 0 50 43.737 50 45.151 95.151 0 93.737 0"/>
        <polygon class="e6cd7a4b-53a8-4aa1-b07a-a910c3b557e2" points="100 0 99.293 0 50 49.293 50 50 50.707 50 100 0.707 100 0"/>
      </g>
      <g>
        <polygon class="e6cd7a4b-53a8-4aa1-b07a-a910c3b557e2" points="0 0 0 0.707 0.707 0 0 0"/>
        <polygon class="e6cd7a4b-53a8-4aa1-b07a-a910c3b557e2" points="4.849 0 0 4.849 0 6.263 6.263 0 4.849 0"/>
        <polygon class="e6cd7a4b-53a8-4aa1-b07a-a910c3b557e2" points="10.404 0 0 10.404 0 11.818 11.818 0 10.404 0"/>
        <polygon class="e6cd7a4b-53a8-4aa1-b07a-a910c3b557e2" points="15.96 0 0 15.96 0 17.374 17.374 0 15.96 0"/>
        <polygon class="e6cd7a4b-53a8-4aa1-b07a-a910c3b557e2" points="21.515 0 0 21.515 0 22.929 22.929 0 21.515 0"/>
        <polygon class="e6cd7a4b-53a8-4aa1-b07a-a910c3b557e2" points="27.071 0 0 27.071 0 28.485 28.485 0 27.071 0"/>
        <polygon class="e6cd7a4b-53a8-4aa1-b07a-a910c3b557e2" points="32.626 0 0 32.626 0 34.04 34.041 0 32.626 0"/>
        <polygon class="e6cd7a4b-53a8-4aa1-b07a-a910c3b557e2" points="38.182 0 0 38.182 0 39.596 39.596 0 38.182 0"/>
        <polygon class="e6cd7a4b-53a8-4aa1-b07a-a910c3b557e2" points="43.737 0 0 43.737 0 45.151 45.151 0 43.737 0"/>
        <polygon class="e6cd7a4b-53a8-4aa1-b07a-a910c3b557e2" points="50 0 49.293 0 0 49.293 0 50 0.707 50 50 0.707 50 0"/>
        <polygon class="e6cd7a4b-53a8-4aa1-b07a-a910c3b557e2" points="6.263 50 50 6.262 50 4.848 4.849 50 6.263 50"/>
        <polygon class="e6cd7a4b-53a8-4aa1-b07a-a910c3b557e2" points="11.818 50 50 11.818 50 10.404 10.404 50 11.818 50"/>
        <polygon class="e6cd7a4b-53a8-4aa1-b07a-a910c3b557e2" points="17.374 50 50 17.374 50 15.96 15.96 50 17.374 50"/>
        <polygon class="e6cd7a4b-53a8-4aa1-b07a-a910c3b557e2" points="22.929 50 50 22.929 50 21.515 21.515 50 22.929 50"/>
        <polygon class="e6cd7a4b-53a8-4aa1-b07a-a910c3b557e2" points="28.485 50 50 28.485 50 27.071 27.071 50 28.485 50"/>
        <polygon class="e6cd7a4b-53a8-4aa1-b07a-a910c3b557e2" points="34.04 50 50 34.04 50 32.626 32.626 50 34.04 50"/>
        <polygon class="e6cd7a4b-53a8-4aa1-b07a-a910c3b557e2" points="39.596 50 50 39.596 50 38.182 38.182 50 39.596 50"/>
        <polygon class="e6cd7a4b-53a8-4aa1-b07a-a910c3b557e2" points="45.151 50 50 45.151 50 43.737 43.737 50 45.151 50"/>
        <polygon class="e6cd7a4b-53a8-4aa1-b07a-a910c3b557e2" points="50 50 50 49.293 49.293 50 50 50"/>
      </g>
      <g>
        <polygon class="e6cd7a4b-53a8-4aa1-b07a-a910c3b557e2" points="0 0 -0.707 0 -50 49.293 -50 50 -49.293 50 0 0.707 0 0"/>
        <polygon class="e6cd7a4b-53a8-4aa1-b07a-a910c3b557e2" points="-43.737 50 0 6.262 0 4.848 -45.151 50 -43.737 50"/>
        <polygon class="e6cd7a4b-53a8-4aa1-b07a-a910c3b557e2" points="-38.182 50 0 11.818 0 10.404 -39.596 50 -38.182 50"/>
        <polygon class="e6cd7a4b-53a8-4aa1-b07a-a910c3b557e2" points="-32.626 50 0 17.374 0 15.96 -34.04 50 -32.626 50"/>
        <polygon class="e6cd7a4b-53a8-4aa1-b07a-a910c3b557e2" points="-27.071 50 0 22.929 0 21.515 -28.485 50 -27.071 50"/>
        <polygon class="e6cd7a4b-53a8-4aa1-b07a-a910c3b557e2" points="-21.515 50 0 28.485 0 27.071 -22.929 50 -21.515 50"/>
        <polygon class="e6cd7a4b-53a8-4aa1-b07a-a910c3b557e2" points="-15.96 50 0 34.04 0 32.626 -17.374 50 -15.96 50"/>
        <polygon class="e6cd7a4b-53a8-4aa1-b07a-a910c3b557e2" points="-10.404 50 0 39.596 0 38.182 -11.818 50 -10.404 50"/>
        <polygon class="e6cd7a4b-53a8-4aa1-b07a-a910c3b557e2" points="-4.849 50 0 45.151 0 43.737 -6.263 50 -4.849 50"/>
        <polygon class="e6cd7a4b-53a8-4aa1-b07a-a910c3b557e2" points="0 50 0 49.293 -0.707 50 0 50"/>
      </g>
      <polygon class="e6cd7a4b-53a8-4aa1-b07a-a910c3b557e2" points="100 -50 99.293 -50 50 -0.707 50 0 50.707 0 100 -49.293 100 -50"/>
      <g>
        <polygon class="e6cd7a4b-53a8-4aa1-b07a-a910c3b557e2" points="50 -50 49.293 -50 0 -0.707 0 0 0.707 0 50 -49.293 50 -50"/>
        <polygon class="e6cd7a4b-53a8-4aa1-b07a-a910c3b557e2" points="6.263 0 50 -43.738 50 -45.152 4.849 0 6.263 0"/>
        <polygon class="e6cd7a4b-53a8-4aa1-b07a-a910c3b557e2" points="11.818 0 50 -38.182 50 -39.596 10.404 0 11.818 0"/>
        <polygon class="e6cd7a4b-53a8-4aa1-b07a-a910c3b557e2" points="17.374 0 50 -32.626 50 -34.04 15.96 0 17.374 0"/>
        <polygon class="e6cd7a4b-53a8-4aa1-b07a-a910c3b557e2" points="22.929 0 50 -27.071 50 -28.485 21.515 0 22.929 0"/>
        <polygon class="e6cd7a4b-53a8-4aa1-b07a-a910c3b557e2" points="28.485 0 50 -21.515 50 -22.929 27.071 0 28.485 0"/>
        <polygon class="e6cd7a4b-53a8-4aa1-b07a-a910c3b557e2" points="34.04 0 50 -15.96 50 -17.374 32.626 0 34.04 0"/>
        <polygon class="e6cd7a4b-53a8-4aa1-b07a-a910c3b557e2" points="39.596 0 50 -10.404 50 -11.818 38.182 0 39.596 0"/>
        <polygon class="e6cd7a4b-53a8-4aa1-b07a-a910c3b557e2" points="45.151 0 50 -4.849 50 -6.263 43.737 0 45.151 0"/>
        <polygon class="e6cd7a4b-53a8-4aa1-b07a-a910c3b557e2" points="50 0 50 -0.707 49.293 0 50 0"/>
      </g>
      <g>
        <polygon class="e6cd7a4b-53a8-4aa1-b07a-a910c3b557e2" points="0 -50 -0.707 -50 -50 -0.707 -50 0 -49.293 0 0 -49.293 0 -50"/>
        <polygon class="e6cd7a4b-53a8-4aa1-b07a-a910c3b557e2" points="-43.737 0 0 -43.738 0 -45.152 -45.151 0 -43.737 0"/>
        <polygon class="e6cd7a4b-53a8-4aa1-b07a-a910c3b557e2" points="-38.182 0 0 -38.182 0 -39.596 -39.596 0 -38.182 0"/>
        <polygon class="e6cd7a4b-53a8-4aa1-b07a-a910c3b557e2" points="-32.626 0 0 -32.626 0 -34.04 -34.04 0 -32.626 0"/>
        <polygon class="e6cd7a4b-53a8-4aa1-b07a-a910c3b557e2" points="-27.071 0 0 -27.071 0 -28.485 -28.485 0 -27.071 0"/>
        <polygon class="e6cd7a4b-53a8-4aa1-b07a-a910c3b557e2" points="-21.515 0 0 -21.515 0 -22.929 -22.929 0 -21.515 0"/>
        <polygon class="e6cd7a4b-53a8-4aa1-b07a-a910c3b557e2" points="-15.96 0 0 -15.96 0 -17.374 -17.374 0 -15.96 0"/>
        <polygon class="e6cd7a4b-53a8-4aa1-b07a-a910c3b557e2" points="-10.404 0 0 -10.404 0 -11.818 -11.818 0 -10.404 0"/>
        <polygon class="e6cd7a4b-53a8-4aa1-b07a-a910c3b557e2" points="-4.849 0 0 -4.849 0 -6.263 -6.263 0 -4.849 0"/>
        <polygon class="e6cd7a4b-53a8-4aa1-b07a-a910c3b557e2" points="0 0 0 -0.707 -0.707 0 0 0"/>
      </g>
    </pattern>
  </defs>
  <g class="b4ee58f9-207f-4b51-9804-8f568b9cf714">
    <g id="e5521cc7-8eff-43d0-8b9b-ec4e7e5206e4" data-name="artwork">
      <line class="a2fcf0a1-4c86-4322-9b1c-9496a99199bc" x1="649" y1="378" x2="649" y2="403"/>
      <line class="a2fcf0a1-4c86-4322-9b1c-9496a99199bc" x1="409.5" y1="378" x2="409.5" y2="403"/>
      <rect class="e6fd3cc4-8a6a-40bd-967e-7148a6a8eee9" y="209.5" width="281" height="168.5"/>
      <line class="a2fcf0a1-4c86-4322-9b1c-9496a99199bc" y1="403" x2="760" y2="403"/>
      <line class="a783729b-c958-4329-a0fe-a802508b2605" y1="114.017" x2="760" y2="114.017"/>
      <text class="f35e4e20-f74a-41b9-ad85-b7b89893c7c7" transform="translate(0 104.017)">Baremetal network</text>
      <text class="f35e4e20-f74a-41b9-ad85-b7b89893c7c7" transform="translate(1 419.817)">Provisioning network</text>
      <line class="a2fcf0a1-4c86-4322-9b1c-9496a99199bc" x1="22.727" y1="403" x2="22.727" y2="352.75"/>
      <line class="a783729b-c958-4329-a0fe-a802508b2605" x1="22.727" y1="114.009" x2="22.727" y2="264.25"/>
      <g>
        <text class="a5a81136-08cf-4542-a3f2-92b7f8be920c" transform="translate(670.861 422.834)">71_OpenShift_0920</text>
        <rect class="a8e006ef-143d-4022-bcfd-9606ebaea282" y="399.817" width="760" height="40"/>
      </g>
      <line class="b88a8fd4-b639-4e51-a4cc-58f54dc65cc4" y1="38.672" x2="760" y2="38.672"/>
      <text class="f35e4e20-f74a-41b9-ad85-b7b89893c7c7" transform="translate(0.5 28.671)">Internet access</text>
      <polyline class="a2fcf0a1-4c86-4322-9b1c-9496a99199bc" points="183.217 327.5 183.217 352.75 165.924 352.75"/>
      <polyline class="a783729b-c958-4329-a0fe-a802508b2605" points="183.217 289.5 183.217 264.25 165.924 264.25"/>
      <path class="e6fd3cc4-8a6a-40bd-967e-7148a6a8eee9" d="M41.209,219.5H0V240H41.209C46.87,240,46.87,219.5,41.209,219.5Z"/>
      <rect class="f7e8543b-a357-48fe-b5c9-8885dfb4aad1" x="15" y="289.5" width="246" height="38"/>
      <text class="f35e4e20-f74a-41b9-ad85-b7b89893c7c7" transform="translate(101.893 311.547)">Bootstrap VM</text>
      <text class="f0a32f81-8ce8-4467-8728-e0d1d360e116" transform="translate(15 234.604)">Provisioning node</text>
      <g>
        <line class="a6c90965-43cb-488b-9ebf-d280b27b9bfe" x1="191.972" y1="123.726" x2="191.972" y2="125.226"/>
        <line class="bec8a4d5-5632-4c61-93fe-d2e8048dcfdc" x1="191.972" y1="127.226" x2="191.972" y2="130.226"/>
        <polyline class="a6c90965-43cb-488b-9ebf-d280b27b9bfe" points="191.972 131.226 191.972 132.726 193.472 132.726"/>
        <line class="be889753-c23c-4f9a-b73e-d4e8efd16295" x1="196.543" y1="132.726" x2="219.578" y2="132.726"/>
        <polyline class="a6c90965-43cb-488b-9ebf-d280b27b9bfe" points="221.114 132.726 222.614 132.726 222.614 134.226"/>
        <line class="b6353768-dcc4-461a-a60d-f2470377d4f2" x1="222.614" y1="137.167" x2="222.614" y2="276.853"/>
        <line class="a6c90965-43cb-488b-9ebf-d280b27b9bfe" x1="222.614" y1="278.324" x2="222.614" y2="279.824"/>
        <polygon class="b7eabc67-b799-49ed-977c-f679a623499c" points="217.627 278.365 222.614 287 227.6 278.365 217.627 278.365"/>
      </g>
      <g>
        <line class="a6c90965-43cb-488b-9ebf-d280b27b9bfe" x1="268.255" y1="123.726" x2="268.255" y2="125.226"/>
        <line class="bec8a4d5-5632-4c61-93fe-d2e8048dcfdc" x1="268.255" y1="127.226" x2="268.255" y2="130.226"/>
        <polyline class="a6c90965-43cb-488b-9ebf-d280b27b9bfe" points="268.255 131.226 268.255 132.726 266.755 132.726"/>
        <line class="be889753-c23c-4f9a-b73e-d4e8efd16295" x1="263.684" y1="132.726" x2="240.649" y2="132.726"/>
        <polyline class="a6c90965-43cb-488b-9ebf-d280b27b9bfe" points="239.114 132.726 237.614 132.726 237.614 134.226"/>
        <line class="b6353768-dcc4-461a-a60d-f2470377d4f2" x1="237.614" y1="137.167" x2="237.614" y2="276.853"/>
        <line class="a6c90965-43cb-488b-9ebf-d280b27b9bfe" x1="237.614" y1="278.324" x2="237.614" y2="279.824"/>
        <polygon class="b7eabc67-b799-49ed-977c-f679a623499c" points="232.627 278.365 237.614 287 242.6 278.365 232.627 278.365"/>
      </g>
      <circle class="a7fb9964-af5c-4c55-8332-83a550fb7896" cx="268.255" cy="113.371" r="9.355"/>
      <text class="f35e4e20-f74a-41b9-ad85-b7b89893c7c7" transform="translate(239.271 98.016)">Ingress VIP</text>
      <circle class="a7fb9964-af5c-4c55-8332-83a550fb7896" cx="191.972" cy="113.371" r="9.355"/>
      <text class="f35e4e20-f74a-41b9-ad85-b7b89893c7c7" transform="translate(172.552 98.016)">API VIP</text>
      <line class="a783729b-c958-4329-a0fe-a802508b2605" x1="639" y1="114.017" x2="639" y2="209.5"/>
      <line class="a4c46972-0461-49aa-882d-51619a5f5e70" x1="617.425" y1="189.5" x2="645.5" y2="189.5"/>
      <polyline class="f3777c69-e6d5-498e-8e99-dbe5ec768c0a" points="760 189.5 419.832 189.5 419.832 209.5"/>
      <line class="f3777c69-e6d5-498e-8e99-dbe5ec768c0a" x1="659" y1="189.5" x2="659" y2="209.5"/>
      <line class="a783729b-c958-4329-a0fe-a802508b2605" x1="399.5" y1="114.017" x2="399.5" y2="209.5"/>
      <text class="f35e4e20-f74a-41b9-ad85-b7b89893c7c7" transform="translate(418.832 167.501)">Out-of-Band <tspan x="0" y="12">Management network</tspan></text>
      <line class="a783729b-c958-4329-a0fe-a802508b2605" x1="689.778" y1="114.069" x2="689.778" y2="134.069"/>
      <g>
        <text class="f35e4e20-f74a-41b9-ad85-b7b89893c7c7" transform="translate(672.001 164.414)">Router</text>
        <g>
          <rect class="fc80b46f-18c5-437b-8882-c5f7ff893a47" x="662.278" y="134.069" width="55" height="13.75"/>
          <line class="a1beff2b-e6d5-4f01-9f71-75c02fa3bda4" x1="711.398" y1="139.966" x2="711.398" y2="139.966"/>
          <line class="a69362b6-9618-4625-86e6-f381c22bd142" x1="668.17" y1="138.931" x2="668.17" y2="142.896"/>
          <line class="a69362b6-9618-4625-86e6-f381c22bd142" x1="674.063" y1="138.931" x2="674.063" y2="142.896"/>
          <line class="a69362b6-9618-4625-86e6-f381c22bd142" x1="679.956" y1="138.931" x2="679.956" y2="142.896"/>
          <line class="a69362b6-9618-4625-86e6-f381c22bd142" x1="685.849" y1="138.931" x2="685.849" y2="142.896"/>
          <line class="a69362b6-9618-4625-86e6-f381c22bd142" x1="691.742" y1="138.931" x2="691.742" y2="142.896"/>
          <line class="a69362b6-9618-4625-86e6-f381c22bd142" x1="697.635" y1="138.931" x2="697.635" y2="142.896"/>
        </g>
      </g>
      <line class="f3777c69-e6d5-498e-8e99-dbe5ec768c0a" x1="689.778" y1="169.5" x2="689.778" y2="189.5"/>
      <g>
        <g>
          <rect class="b33e941a-ddc2-4b73-bcb8-03bc93d173fb" x="299.5" y="210" width="220" height="167.5"/>
          <path class="e6fd3cc4-8a6a-40bd-967e-7148a6a8eee9" d="M519,210.5V377H300V210.5H519m1-1H299V378H520V209.5Z"/>
        </g>
        <text class="b80ee905-721c-4884-a556-bd15663ec860" transform="translate(314 234.604)"><tspan xml:space="preserve">Master nodes  x3</tspan></text>
      </g>
      <g>
        <g>
          <rect class="b33e941a-ddc2-4b73-bcb8-03bc93d173fb" x="539" y="210" width="220" height="167.5"/>
          <path class="e6fd3cc4-8a6a-40bd-967e-7148a6a8eee9" d="M758.5,210.5V377h-219V210.5h219m1-1h-221V378h221V209.5Z"/>
        </g>
        <text class="b80ee905-721c-4884-a556-bd15663ec860" transform="translate(552.467 234.604)"><tspan xml:space="preserve">Worker nodes  xN</tspan></text>
      </g>
      <line class="a783729b-c958-4329-a0fe-a802508b2605" x1="436.439" y1="94.017" x2="436.439" y2="114.017"/>
      <line class="b88a8fd4-b639-4e51-a4cc-58f54dc65cc4" x1="436.439" y1="38.672" x2="436.439" y2="58.672"/>
      <g>
        <text class="f35e4e20-f74a-41b9-ad85-b7b89893c7c7" transform="translate(418.663 89.017)">Router</text>
        <g>
          <rect class="fc80b46f-18c5-437b-8882-c5f7ff893a47" x="408.939" y="58.672" width="55" height="13.75"/>
          <line class="a1beff2b-e6d5-4f01-9f71-75c02fa3bda4" x1="458.06" y1="64.569" x2="458.06" y2="64.569"/>
          <line class="a69362b6-9618-4625-86e6-f381c22bd142" x1="414.832" y1="63.535" x2="414.832" y2="67.499"/>
          <line class="a69362b6-9618-4625-86e6-f381c22bd142" x1="420.725" y1="63.535" x2="420.725" y2="67.499"/>
          <line class="a69362b6-9618-4625-86e6-f381c22bd142" x1="426.618" y1="63.535" x2="426.618" y2="67.499"/>
          <line class="a69362b6-9618-4625-86e6-f381c22bd142" x1="432.511" y1="63.535" x2="432.511" y2="67.499"/>
          <line class="a69362b6-9618-4625-86e6-f381c22bd142" x1="438.403" y1="63.535" x2="438.403" y2="67.499"/>
          <line class="a69362b6-9618-4625-86e6-f381c22bd142" x1="444.296" y1="63.535" x2="444.296" y2="67.499"/>
        </g>
      </g>
      <line class="a783729b-c958-4329-a0fe-a802508b2605" x1="518.252" y1="94.017" x2="518.252" y2="114.017"/>
      <g>
        <text class="f35e4e20-f74a-41b9-ad85-b7b89893c7c7" transform="translate(484.878 89.838)">DHCP server</text>
        <g>
          <rect class="fc80b46f-18c5-437b-8882-c5f7ff893a47" x="490.684" y="59.493" width="55" height="13.75"/>
          <line class="a1beff2b-e6d5-4f01-9f71-75c02fa3bda4" x1="539.805" y1="65.39" x2="539.805" y2="65.39"/>
          <line class="a69362b6-9618-4625-86e6-f381c22bd142" x1="497.42" y1="67.35" x2="505.67" y2="67.35"/>
        </g>
      </g>
      <line class="a783729b-c958-4329-a0fe-a802508b2605" x1="601.063" y1="94.017" x2="601.063" y2="114.017"/>
      <g>
        <text class="f35e4e20-f74a-41b9-ad85-b7b89893c7c7" transform="translate(571.814 89.838)">DNS server</text>
        <g>
          <rect class="fc80b46f-18c5-437b-8882-c5f7ff893a47" x="573.495" y="59.493" width="55" height="13.75"/>
          <line class="a1beff2b-e6d5-4f01-9f71-75c02fa3bda4" x1="622.616" y1="65.39" x2="622.616" y2="65.39"/>
          <line class="a69362b6-9618-4625-86e6-f381c22bd142" x1="580.23" y1="67.35" x2="588.48" y2="67.35"/>
        </g>
      </g>
      <g>
        <path class="e3309599-5f13-4a03-9d9c-2beaa5f6105f" d="M161.678,342.5H.455V363H161.678C167.339,363,167.339,342.5,161.678,342.5Z"/>
        <g class="acdaf3e5-e0b7-4ec7-b614-c4760e8fc979">
          <path class="be87bb1e-b611-4011-98ea-2680729dae2f" d="M161.678,342.5H.455V363H161.678C167.339,363,167.339,342.5,161.678,342.5Z"/>
        </g>
        <text class="ebc1b527-0be7-48a7-a976-ca9a71f881f8" transform="translate(55.661 356.074)">Provisioning bridge</text>
        <g>
          <path class="e3309599-5f13-4a03-9d9c-2beaa5f6105f" d="M41.223,342.5H0V363H41.223C46.884,363,46.884,342.5,41.223,342.5Z"/>
          <text class="ebc1b527-0be7-48a7-a976-ca9a71f881f8" transform="translate(11.671 356.074)">eno1</text>
        </g>
      </g>
      <g>
        <g>
          <path class="b7a7e62a-bfb6-40fa-bf95-da0926a4f7d9" d="M161.664,254.5H.455V275H161.664C167.325,275,167.325,254.5,161.664,254.5Z"/>
          <g class="acdaf3e5-e0b7-4ec7-b614-c4760e8fc979">
            <path class="a9a373fd-3a48-413e-b484-a4a1ad6f0204" d="M161.664,254.5H.455V275H161.664C167.325,275,167.325,254.5,161.664,254.5Z"/>
          </g>
          <text class="ebc1b527-0be7-48a7-a976-ca9a71f881f8" transform="translate(55.677 269.349)">Baremetal bridge</text>
        </g>
        <g>
          <path class="b7a7e62a-bfb6-40fa-bf95-da0926a4f7d9" d="M41.209,254.5H0V275H41.209C46.87,275,46.87,254.5,41.209,254.5Z"/>
          <text class="ebc1b527-0be7-48a7-a976-ca9a71f881f8" transform="translate(11.671 269.349)">eno2</text>
        </g>
      </g>
    </g>
  </g>
</svg>
