<svg id="b7d987fe-0713-4d6f-a482-a1560a351970" data-name="Layer 1" xmlns="http://www.w3.org/2000/svg" width="760" height="548.485" viewBox="0 0 760 548.485">
  <defs>
    <style>
      .a15576e8-ad4f-45d0-a2f2-6d027355a65e, .a97ebcc3-2acf-477c-9e89-24c9cde0ef15, .acda1817-78eb-4dee-9c13-c31d64b71a8a, .ae456f23-abdf-4d58-aec5-895cc7e4f241, .b05c9f34-df45-49a2-9b00-e385146cfc07, .b4c4767a-0ab5-41cd-ae63-bea41524037a, .b86fab55-8e18-427e-b48b-566fb5532571, .b8d4bd22-612a-4a77-a22b-25cafcfd57e1, .e5058857-3806-43ae-9e35-d6f0136a357c {
        fill: none;
      }

      .b05c9f34-df45-49a2-9b00-e385146cfc07 {
        stroke: #f3f3f3;
        stroke-miterlimit: 10;
      }

      .b05c9f34-df45-49a2-9b00-e385146cfc07, .f7c307a5-c98a-4f64-af09-e59a876df376 {
        stroke-width: 1.5px;
      }

      .a15576e8-ad4f-45d0-a2f2-6d027355a65e, .a97ebcc3-2acf-477c-9e89-24c9cde0ef15, .acda1817-78eb-4dee-9c13-c31d64b71a8a, .ae456f23-abdf-4d58-aec5-895cc7e4f241, .b86fab55-8e18-427e-b48b-566fb5532571, .b8d4bd22-612a-4a77-a22b-25cafcfd57e1, .e5058857-3806-43ae-9e35-d6f0136a357c {
        stroke: #151515;
      }

      .a15576e8-ad4f-45d0-a2f2-6d027355a65e, .a97ebcc3-2acf-477c-9e89-24c9cde0ef15, .acda1817-78eb-4dee-9c13-c31d64b71a8a, .ae456f23-abdf-4d58-aec5-895cc7e4f241, .b86fab55-8e18-427e-b48b-566fb5532571, .b8d4bd22-612a-4a77-a22b-25cafcfd57e1, .e5058857-3806-43ae-9e35-d6f0136a357c, .f7c307a5-c98a-4f64-af09-e59a876df376 {
        stroke-linecap: round;
        stroke-linejoin: round;
      }

      .acda1817-78eb-4dee-9c13-c31d64b71a8a {
        stroke-dasharray: 3.4 3.4;
      }

      .ae456f23-abdf-4d58-aec5-895cc7e4f241 {
        stroke-dasharray: 3.007 3.007;
      }

      .bf731dd3-fd72-42ce-8e61-48822f6ce8ab, .f2775af6-7df1-4683-a5a7-0215ca83b21d, .fc629aab-effd-4848-974d-933ee0050a10 {
        fill: #151515;
      }

      .b86fab55-8e18-427e-b48b-566fb5532571 {
        stroke-dasharray: 3;
      }

      .be4b5221-fc61-4d3d-bb9f-ed248b7f92d0 {
        fill: #e8e8e8;
      }

      .b1ef370e-8da5-41fa-ab1c-e4083bd49b36, .f2775af6-7df1-4683-a5a7-0215ca83b21d {
        font-size: 12px;
      }

      .b1ef370e-8da5-41fa-ab1c-e4083bd49b36, .f2775af6-7df1-4683-a5a7-0215ca83b21d, .fc629aab-effd-4848-974d-933ee0050a10 {
        font-family: RedHatText-Medium, Red Hat Text;
        font-weight: 500;
      }

      .bbca150d-c193-4a18-92b6-e614136a4efd, .fdb0e5be-2787-4974-ada1-81d5d89341c2 {
        font-size: 10px;
      }

      .b1ef370e-8da5-41fa-ab1c-e4083bd49b36, .bbca150d-c193-4a18-92b6-e614136a4efd, .f7c307a5-c98a-4f64-af09-e59a876df376 {
        fill: #fff;
      }

      .bbca150d-c193-4a18-92b6-e614136a4efd {
        font-family: RedHatText-Bold, Red Hat Text;
        font-weight: 700;
      }

      .fc629aab-effd-4848-974d-933ee0050a10 {
        font-size: 11px;
      }

      .f7c307a5-c98a-4f64-af09-e59a876df376 {
        stroke: #5b5b5b;
      }

      .e5058857-3806-43ae-9e35-d6f0136a357c {
        stroke-dasharray: 2.811 2.811;
      }

      .a15576e8-ad4f-45d0-a2f2-6d027355a65e {
        stroke-dasharray: 3.155 3.155;
      }

      .b8d4bd22-612a-4a77-a22b-25cafcfd57e1 {
        stroke-dasharray: 3.155 3.155;
      }

      .e296642b-e5e6-4b0c-bc63-6599f9a11597 {
        fill: #06c;
      }

      .fdb0e5be-2787-4974-ada1-81d5d89341c2 {
        fill: #f3f3f3;
        font-family: RedHatText-Regular, Red Hat Text;
      }
    </style>
  </defs>
  <g>
    <polyline class="b05c9f34-df45-49a2-9b00-e385146cfc07" points="744.531 161.485 744.531 241.485 644.531 241.485"/>
    <polyline class="b05c9f34-df45-49a2-9b00-e385146cfc07" points="739.531 156.485 739.531 236.485 639.531 236.485"/>
    <g>
      <line class="a97ebcc3-2acf-477c-9e89-24c9cde0ef15" x1="684.532" y1="231.485" x2="684.532" y2="232.985"/>
      <line class="acda1817-78eb-4dee-9c13-c31d64b71a8a" x1="684.532" y1="236.385" x2="684.532" y2="248.285"/>
      <polyline class="a97ebcc3-2acf-477c-9e89-24c9cde0ef15" points="684.532 249.985 684.532 251.485 683.032 251.485"/>
      <line class="ae456f23-abdf-4d58-aec5-895cc7e4f241" x1="680.024" y1="251.485" x2="68.003" y2="251.485"/>
      <polyline class="a97ebcc3-2acf-477c-9e89-24c9cde0ef15" points="66.499 251.485 64.999 251.485 64.999 249.985"/>
      <line class="acda1817-78eb-4dee-9c13-c31d64b71a8a" x1="64.999" y1="246.585" x2="64.999" y2="234.685"/>
      <line class="a97ebcc3-2acf-477c-9e89-24c9cde0ef15" x1="64.999" y1="232.985" x2="64.999" y2="231.485"/>
    </g>
    <g>
      <polyline class="a97ebcc3-2acf-477c-9e89-24c9cde0ef15" points="684.532 141.809 684.532 128.985 64.999 128.985 64.999 141.809"/>
      <polygon class="bf731dd3-fd72-42ce-8e61-48822f6ce8ab" points="689.518 140.35 684.532 148.985 679.546 140.35 689.518 140.35"/>
      <polygon class="bf731dd3-fd72-42ce-8e61-48822f6ce8ab" points="60.013 140.35 64.999 148.985 69.986 140.35 60.013 140.35"/>
    </g>
    <line class="a97ebcc3-2acf-477c-9e89-24c9cde0ef15" x1="374.688" y1="128.985" x2="374.688" y2="84.545"/>
    <line class="b86fab55-8e18-427e-b48b-566fb5532571" x1="220" y1="231.485" x2="220" y2="251.485"/>
    <line class="b86fab55-8e18-427e-b48b-566fb5532571" x1="374.688" y1="231.485" x2="374.688" y2="251.485"/>
    <line class="b86fab55-8e18-427e-b48b-566fb5532571" x1="529.531" y1="231.485" x2="529.531" y2="251.485"/>
    <g>
      <line class="a97ebcc3-2acf-477c-9e89-24c9cde0ef15" x1="220" y1="128.985" x2="220" y2="141.809"/>
      <polygon class="bf731dd3-fd72-42ce-8e61-48822f6ce8ab" points="215.014 140.35 220 148.985 224.987 140.35 215.014 140.35"/>
    </g>
    <g>
      <line class="a97ebcc3-2acf-477c-9e89-24c9cde0ef15" x1="374.688" y1="128.985" x2="374.688" y2="141.809"/>
      <polygon class="bf731dd3-fd72-42ce-8e61-48822f6ce8ab" points="369.701 140.35 374.688 148.985 379.674 140.35 369.701 140.35"/>
    </g>
    <g>
      <line class="a97ebcc3-2acf-477c-9e89-24c9cde0ef15" x1="529.531" y1="128.985" x2="529.531" y2="141.809"/>
      <polygon class="bf731dd3-fd72-42ce-8e61-48822f6ce8ab" points="524.544 140.35 529.531 148.985 534.517 140.35 524.544 140.35"/>
    </g>
    <rect class="be4b5221-fc61-4d3d-bb9f-ed248b7f92d0" x="15" y="151.485" width="100" height="80"/>
    <text class="f2775af6-7df1-4683-a5a7-0215ca83b21d" transform="translate(40.899 188.309)">Network<tspan x="-0.444" y="13">mapping</tspan></text>
    <g>
      <rect class="be4b5221-fc61-4d3d-bb9f-ed248b7f92d0" x="479.531" y="151.485" width="100" height="80"/>
      <text class="f2775af6-7df1-4683-a5a7-0215ca83b21d" transform="translate(510.464 188.309)">Target<tspan x="-4.764" y="13">provider</tspan></text>
    </g>
    <rect class="be4b5221-fc61-4d3d-bb9f-ed248b7f92d0" x="634.531" y="151.485" width="100" height="80"/>
    <text class="f2775af6-7df1-4683-a5a7-0215ca83b21d" transform="translate(665.692 188.309)">Virtual<tspan x="-7.662" y="13">machines</tspan></text>
    <g>
      <path class="bf731dd3-fd72-42ce-8e61-48822f6ce8ab" d="M383.688,104.266a9,9,0,1,1-9-9A9,9,0,0,1,383.688,104.266Z"/>
      <text class="bbca150d-c193-4a18-92b6-e614136a4efd" transform="translate(372.762 107.55)">1</text>
    </g>
    <g>
      <text class="fc629aab-effd-4848-974d-933ee0050a10" transform="translate(362.73 80.817)">User</text>
      <g>
        <path class="f7c307a5-c98a-4f64-af09-e59a876df376" d="M396.329,64.25a21.642,21.642,0,1,0-43.283,0Z"/>
        <ellipse class="f7c307a5-c98a-4f64-af09-e59a876df376" cx="374.688" cy="31.651" rx="10.865" ry="10.902"/>
      </g>
    </g>
    <g>
      <g>
        <line class="a97ebcc3-2acf-477c-9e89-24c9cde0ef15" x1="424.687" y1="351.425" x2="426.187" y2="351.425"/>
        <line class="e5058857-3806-43ae-9e35-d6f0136a357c" x1="428.998" y1="351.425" x2="466.95" y2="351.425"/>
        <line class="a97ebcc3-2acf-477c-9e89-24c9cde0ef15" x1="468.355" y1="351.425" x2="469.855" y2="351.425"/>
        <polygon class="bf731dd3-fd72-42ce-8e61-48822f6ce8ab" points="468.396 356.412 477.031 351.425 468.396 346.439 468.396 356.412"/>
      </g>
      <g>
        <line class="a97ebcc3-2acf-477c-9e89-24c9cde0ef15" x1="374.687" y1="251.485" x2="374.687" y2="252.985"/>
        <line class="a15576e8-ad4f-45d0-a2f2-6d027355a65e" x1="374.687" y1="256.14" x2="374.687" y2="298.732"/>
        <line class="a97ebcc3-2acf-477c-9e89-24c9cde0ef15" x1="374.687" y1="300.309" x2="374.687" y2="301.809"/>
        <polygon class="bf731dd3-fd72-42ce-8e61-48822f6ce8ab" points="369.7 300.35 374.687 308.985 379.673 300.35 369.7 300.35"/>
      </g>
      <g>
        <rect class="be4b5221-fc61-4d3d-bb9f-ed248b7f92d0" x="634.531" y="451.485" width="100" height="80"/>
        <text class="f2775af6-7df1-4683-a5a7-0215ca83b21d" transform="translate(662.92 481.809)">Virtual-<tspan x="-4.872" y="13">Machine-</tspan><tspan x="2.598" y="26">Import</tspan></text>
        <g>
          <line class="a97ebcc3-2acf-477c-9e89-24c9cde0ef15" x1="684.531" y1="391.425" x2="684.531" y2="392.925"/>
          <line class="b8d4bd22-612a-4a77-a22b-25cafcfd57e1" x1="684.531" y1="396.08" x2="684.531" y2="438.672"/>
          <line class="a97ebcc3-2acf-477c-9e89-24c9cde0ef15" x1="684.531" y1="440.249" x2="684.531" y2="441.749"/>
          <polygon class="bf731dd3-fd72-42ce-8e61-48822f6ce8ab" points="679.545 440.29 684.531 448.925 689.518 440.29 679.545 440.29"/>
        </g>
        <g>
          <path class="bf731dd3-fd72-42ce-8e61-48822f6ce8ab" d="M693.531,416.456a9,9,0,1,1-9-9A9,9,0,0,1,693.531,416.456Z"/>
          <text class="bbca150d-c193-4a18-92b6-e614136a4efd" transform="translate(681.081 419.741)">4</text>
        </g>
        <rect class="e296642b-e5e6-4b0c-bc63-6599f9a11597" x="634.531" y="311.425" width="100" height="80"/>
        <text class="b1ef370e-8da5-41fa-ab1c-e4083bd49b36" transform="translate(657.292 348.472)">Migration<tspan x="-1.428" y="13">Controller</tspan></text>
      </g>
      <rect class="be4b5221-fc61-4d3d-bb9f-ed248b7f92d0" x="324.687" y="311.425" width="100" height="80"/>
      <text class="f2775af6-7df1-4683-a5a7-0215ca83b21d" transform="translate(362.309 354.749)">Plan</text>
      <g>
        <path class="bf731dd3-fd72-42ce-8e61-48822f6ce8ab" d="M383.687,275.706a9,9,0,1,1-9-9A9,9,0,0,1,383.687,275.706Z"/>
        <text class="bbca150d-c193-4a18-92b6-e614136a4efd" transform="translate(371.701 278.991)">2</text>
      </g>
      <g>
        <line class="a97ebcc3-2acf-477c-9e89-24c9cde0ef15" x1="579.531" y1="351.425" x2="624.7" y2="351.425"/>
        <polygon class="bf731dd3-fd72-42ce-8e61-48822f6ce8ab" points="623.241 356.412 631.876 351.425 623.241 346.439 623.241 356.412"/>
      </g>
      <rect class="be4b5221-fc61-4d3d-bb9f-ed248b7f92d0" x="479.531" y="311.425" width="100" height="80"/>
      <text class="f2775af6-7df1-4683-a5a7-0215ca83b21d" transform="translate(502.292 354.749)">Migration</text>
      <g>
        <path class="bf731dd3-fd72-42ce-8e61-48822f6ce8ab" d="M456.109,351.426a9,9,0,1,1-9-9A9,9,0,0,1,456.109,351.426Z"/>
        <text class="bbca150d-c193-4a18-92b6-e614136a4efd" transform="translate(443.943 354.711)">3</text>
      </g>
    </g>
    <rect class="be4b5221-fc61-4d3d-bb9f-ed248b7f92d0" x="170" y="151.485" width="100" height="80"/>
    <text class="f2775af6-7df1-4683-a5a7-0215ca83b21d" transform="translate(197.357 188.309)">Storage<tspan x="-1.902" y="13">mapping</tspan></text>
    <rect class="be4b5221-fc61-4d3d-bb9f-ed248b7f92d0" x="324.688" y="151.485" width="100" height="80"/>
    <text class="f2775af6-7df1-4683-a5a7-0215ca83b21d" transform="translate(354.852 188.309)">Source<tspan x="-3.996" y="13">provider</tspan></text>
    <g>
      <text class="fdb0e5be-2787-4974-ada1-81d5d89341c2" transform="translate(0 531.502)">136_OpenShift_0121</text>
      <rect class="b4c4767a-0ab5-41cd-ae63-bea41524037a" y="508.485" width="760" height="40"/>
    </g>
  </g>
</svg>
