<svg id="e80b7418-8058-4b37-bc4c-82c224e07c31" data-name="artwork" xmlns="http://www.w3.org/2000/svg" width="760" height="436.212"><defs><style>.a04592a6-fb0c-4cc5-9ad4-e851d58370e4,.a61716b0-3547-43a0-9638-b779018b0199,.af48ce7c-3983-45e9-a584-462b19036526,.bbd2d455-5b58-45be-bc0c-10782b203b09,.bfa99d20-dd2e-485a-8c7b-df45b0ea2088{fill:none}.a04592a6-fb0c-4cc5-9ad4-e851d58370e4,.af48ce7c-3983-45e9-a584-462b19036526,.bfa99d20-dd2e-485a-8c7b-df45b0ea2088{stroke:#adadad}.a04592a6-fb0c-4cc5-9ad4-e851d58370e4,.a61716b0-3547-43a0-9638-b779018b0199,.af48ce7c-3983-45e9-a584-462b19036526,.bbd2d455-5b58-45be-bc0c-10782b203b09,.bfa99d20-dd2e-485a-8c7b-df45b0ea2088{stroke-linecap:round;stroke-linejoin:round}.bfa99d20-dd2e-485a-8c7b-df45b0ea2088{stroke-dasharray:3.02 3.02}.af48ce7c-3983-45e9-a584-462b19036526{stroke-dasharray:2.979 2.979}.ad909197-b6e5-4eae-ac7f-0ce0907d8c88{font-size:11px;font-family:RedHatText,&quot;Red Hat Text&quot;,Overpass,&quot;Helvetica Neue&quot;,Arial,sans-serif;font-weight:500;fill:#151515}.b1ec2975-24b2-4e08-8706-59b6ab2e3d7e{fill:#151515}.bbd2d455-5b58-45be-bc0c-10782b203b09{stroke:#151515}.a61716b0-3547-43a0-9638-b779018b0199{stroke:#5b5b5b;stroke-width:1.5px}.f42e5df9-6f37-4248-8407-81877948ca26{fill:#e8e8e8}.b9465aa5-b824-4157-bd26-225b90a36f8c{font-family:RedHatText,&quot;Red Hat Text&quot;,Overpass,&quot;Helvetica Neue&quot;,Arial,sans-serif;font-weight:400}.a4e32a2c-e7e4-45ac-8135-c555132d1554{fill:#f3f3f3}</style></defs><path class="a04592a6-fb0c-4cc5-9ad4-e851d58370e4" d="M373 393.896v1.5h1.5"/><path class="bfa99d20-dd2e-485a-8c7b-df45b0ea2088" d="M377.52 395.396h378.97"/><path class="a04592a6-fb0c-4cc5-9ad4-e851d58370e4" d="M758 395.396h1.5v-1.5"/><path class="af48ce7c-3983-45e9-a584-462b19036526" d="M759.5 390.916V106.385"/><path class="a04592a6-fb0c-4cc5-9ad4-e851d58370e4" d="M759.5 104.896v-1.5H758"/><path class="bfa99d20-dd2e-485a-8c7b-df45b0ea2088" d="M754.98 103.396H376.01"/><path class="a04592a6-fb0c-4cc5-9ad4-e851d58370e4" d="M374.5 103.396H373v1.5"/><path class="af48ce7c-3983-45e9-a584-462b19036526" d="M373 107.875v284.531"/><path transform="rotate(-180 566.25 103.262)" fill="#fff" d="M538.663 97.055h55.174v12.414h-55.174z"/><text class="ad909197-b6e5-4eae-ac7f-0ce0907d8c88" transform="translate(543.865 106.262)">Optional</text><path class="bbd2d455-5b58-45be-bc0c-10782b203b09" d="M607.053 245.908h-1.5"/><path stroke-dasharray="3.1 3.1" stroke="#151515" stroke-linecap="round" stroke-linejoin="round" fill="none" d="M602.453 245.908H566.8"/><path class="bbd2d455-5b58-45be-bc0c-10782b203b09" d="M565.25 245.908h-1.5"/><text class="ad909197-b6e5-4eae-ac7f-0ce0907d8c88" transform="translate(587.622 277.206)">Health Monitor</text><path class="a61716b0-3547-43a0-9638-b779018b0199" d="M631.047 232.482h14.135v23.55h-37.363v-23.55h14.134M615.253 247.959v-2.872M623.056 247.959v-7.72M619.154 247.959v-4.811M613.317 248.185h11.674M604.75 260.653h43.5"/><ellipse class="a61716b0-3547-43a0-9638-b779018b0199" cx="634.998" cy="244.236" rx="3.099" ry="3.116"/><path class="a61716b0-3547-43a0-9638-b779018b0199" d="M637.189 246.44l1.157 1.163M631.65 240.87l1.156 1.163M637.189 242.033l1.157-1.163M631.65 247.602l1.156-1.162M638.097 244.236h1.635M630.263 244.236h1.636M634.998 241.12v-1.644M634.998 248.997v-1.645"/><path class="bbd2d455-5b58-45be-bc0c-10782b203b09" d="M178.25 302.003v13.667"/><path class="b1ec2975-24b2-4e08-8706-59b6ab2e3d7e" d="M173.264 314.211l4.986 8.635 4.986-8.635h-9.972z"/><path class="bbd2d455-5b58-45be-bc0c-10782b203b09" d="M238.5 272.003v30M57.75 315.67v-13.667h241v13.667"/><path class="b1ec2975-24b2-4e08-8706-59b6ab2e3d7e" d="M62.736 314.211l-4.986 8.635-4.986-8.635h9.972zM293.764 314.211l4.986 8.635 4.987-8.635h-9.973z"/><path class="bbd2d455-5b58-45be-bc0c-10782b203b09" d="M566.25 302.003v13.667"/><path class="b1ec2975-24b2-4e08-8706-59b6ab2e3d7e" d="M561.264 314.211l4.986 8.635 4.987-8.635h-9.973z"/><path class="bbd2d455-5b58-45be-bc0c-10782b203b09" d="M506 272.003v30M686.75 315.67v-13.667h-241v13.667"/><path class="b1ec2975-24b2-4e08-8706-59b6ab2e3d7e" d="M691.737 314.211l-4.987 8.635-4.986-8.635h9.973zM440.764 314.211l4.986 8.635 4.986-8.635h-9.972z"/><path class="bbd2d455-5b58-45be-bc0c-10782b203b09" d="M178.25 94.999v13.668"/><path class="b1ec2975-24b2-4e08-8706-59b6ab2e3d7e" d="M173.264 107.208l4.986 8.635 4.986-8.635h-9.972z"/><path class="bbd2d455-5b58-45be-bc0c-10782b203b09" d="M238.5 74.999v20M57.75 108.667V94.999h241v13.668"/><path class="b1ec2975-24b2-4e08-8706-59b6ab2e3d7e" d="M62.736 107.208l-4.986 8.635-4.986-8.635h9.972zM293.764 107.208l4.986 8.635 4.987-8.635h-9.973z"/><path class="bbd2d455-5b58-45be-bc0c-10782b203b09" d="M178.25 194.353v-20.844"/><g><path class="bbd2d455-5b58-45be-bc0c-10782b203b09" d="M238.5 207.177v-12.824"/><path class="b1ec2975-24b2-4e08-8706-59b6ab2e3d7e" d="M243.486 205.718l-4.986 8.635-4.986-8.635h9.972z"/></g><g><path class="bbd2d455-5b58-45be-bc0c-10782b203b09" d="M506 207.177v-33.668"/><path class="b1ec2975-24b2-4e08-8706-59b6ab2e3d7e" d="M510.987 205.718L506 214.353l-4.986-8.635h9.973z"/></g><path class="bbd2d455-5b58-45be-bc0c-10782b203b09" d="M57.75 173.509v20.844h241v-20.844"/><g><path class="bbd2d455-5b58-45be-bc0c-10782b203b09" d="M180.75 245.908h-1.5"/><path stroke-dasharray="3.11 3.11" stroke="#151515" stroke-linecap="round" stroke-linejoin="round" fill="none" d="M176.14 245.908h-35.764"/><path class="bbd2d455-5b58-45be-bc0c-10782b203b09" d="M138.822 245.908h-1.5"/></g><g><path class="bbd2d455-5b58-45be-bc0c-10782b203b09" d="M629 145.547h-1.5"/><path stroke-dasharray="2.964 2.964" stroke="#151515" stroke-linecap="round" stroke-linejoin="round" fill="none" d="M624.536 145.547h-57.804"/><path class="bbd2d455-5b58-45be-bc0c-10782b203b09" d="M565.25 145.547h-1.5"/></g><g><path class="bbd2d455-5b58-45be-bc0c-10782b203b09" d="M438.574 144.802H356.5"/><path class="b1ec2975-24b2-4e08-8706-59b6ab2e3d7e" d="M437.115 139.816l8.635 4.986-8.635 4.986v-9.972z"/></g><g><path class="f42e5df9-6f37-4248-8407-81877948ca26" transform="rotate(-180 238.5 244.5)" d="M180.75 217h115.5v55h-115.5z"/><text class="ad909197-b6e5-4eae-ac7f-0ce0907d8c88" transform="translate(226.802 247.547)">Pool</text></g><path class="f42e5df9-6f37-4248-8407-81877948ca26" transform="rotate(-180 57.75 353)" d="M0 325.5h115.5v55H0z"/><path class="f42e5df9-6f37-4248-8407-81877948ca26" transform="rotate(-180 178.25 353)" d="M120.5 325.5H236v55H120.5z"/><path class="f42e5df9-6f37-4248-8407-81877948ca26" transform="rotate(-180 298.75 353)" d="M241 325.5h115.5v55H241z"/><text class="ad909197-b6e5-4eae-ac7f-0ce0907d8c88" transform="translate(34.344 349.124)">Member 1<tspan class="b9465aa5-b824-4157-bd26-225b90a36f8c"><tspan x="-19.068" y="14">198.51.100.5:8888</tspan></tspan></text><text class="ad909197-b6e5-4eae-ac7f-0ce0907d8c88" transform="translate(152.34 349.124)">Member 2<tspan class="b9465aa5-b824-4157-bd26-225b90a36f8c"><tspan x="-19.684" y="14">203.0.113.20:8080</tspan></tspan></text><text class="ad909197-b6e5-4eae-ac7f-0ce0907d8c88" transform="translate(271.789 349.124)">Member N<tspan class="b9465aa5-b824-4157-bd26-225b90a36f8c"><tspan x="-17.808" y="14">000.00.0.0:0000</tspan></tspan></text><path class="f42e5df9-6f37-4248-8407-81877948ca26" transform="rotate(-180 57.75 146)" d="M0 118.5h115.5v55H0z"/><path class="f42e5df9-6f37-4248-8407-81877948ca26" transform="rotate(-180 178.25 146)" d="M120.5 118.5H236v55H120.5z"/><text class="ad909197-b6e5-4eae-ac7f-0ce0907d8c88" transform="translate(34.481 145.547)">Listener 1<tspan class="b9465aa5-b824-4157-bd26-225b90a36f8c"><tspan x="4.213" y="12">Port: 80</tspan></tspan></text><text class="ad909197-b6e5-4eae-ac7f-0ce0907d8c88" transform="translate(152.478 145.547)">Listener 2<tspan class="b9465aa5-b824-4157-bd26-225b90a36f8c"><tspan x="2.453" y="12">Port: 443</tspan></tspan></text><path class="f42e5df9-6f37-4248-8407-81877948ca26" transform="rotate(-180 298.75 146)" d="M241 118.5h115.5v55H241z"/><text class="ad909197-b6e5-4eae-ac7f-0ce0907d8c88" transform="translate(271.927 145.547)">Listener N<tspan class="b9465aa5-b824-4157-bd26-225b90a36f8c"><tspan x="2.635" y="12">Port: 000</tspan></tspan></text><path class="a4e32a2c-e7e4-45ac-8135-c555132d1554" transform="rotate(-180 445.75 353)" d="M388 325.5h115.5v55H388z"/><path class="a4e32a2c-e7e4-45ac-8135-c555132d1554" transform="rotate(-180 566.25 353)" d="M508.5 325.5H624v55H508.5z"/><text class="ad909197-b6e5-4eae-ac7f-0ce0907d8c88" transform="translate(421.093 349.124)">Member 1<tspan class="b9465aa5-b824-4157-bd26-225b90a36f8c"><tspan x="-12.363" y="14">203.0.13.50:80</tspan></tspan></text><text class="ad909197-b6e5-4eae-ac7f-0ce0907d8c88" transform="translate(540.34 349.124)">Member 2<tspan class="b9465aa5-b824-4157-bd26-225b90a36f8c"><tspan x="-19.998" y="14">198.51.100.10:8888</tspan></tspan></text><path class="a4e32a2c-e7e4-45ac-8135-c555132d1554" transform="rotate(-180 686.75 353)" d="M629 325.5h115.5v55H629z"/><text class="ad909197-b6e5-4eae-ac7f-0ce0907d8c88" transform="translate(659.789 349.124)">Member N<tspan class="b9465aa5-b824-4157-bd26-225b90a36f8c"><tspan x="-17.808" y="14">000.00.0.0:0000</tspan></tspan></text><path class="a4e32a2c-e7e4-45ac-8135-c555132d1554" transform="rotate(-180 506 146)" d="M448.25 118.5h115.5v55h-115.5z"/><text class="ad909197-b6e5-4eae-ac7f-0ce0907d8c88" transform="translate(482.482 149.047)">L7 Policy</text><g><path class="a4e32a2c-e7e4-45ac-8135-c555132d1554" transform="rotate(-180 686.75 145.547)" d="M629 118.047h115.5v55H629z"/><text class="ad909197-b6e5-4eae-ac7f-0ce0907d8c88" transform="translate(667.423 148.594)">L7 Rule</text></g><path class="a4e32a2c-e7e4-45ac-8135-c555132d1554" transform="rotate(-180 506 244.5)" d="M448.25 217h115.5v55h-115.5z"/><text class="ad909197-b6e5-4eae-ac7f-0ce0907d8c88" transform="translate(494.302 247.547)">Pool</text><g><text class="ad909197-b6e5-4eae-ac7f-0ce0907d8c88" transform="translate(201.969 51.595)">Load balancer<tspan class="b9465aa5-b824-4157-bd26-225b90a36f8c"><tspan x="5.357" y="14">VIP: 192.0.2.1</tspan></tspan></text><path stroke-width="1.5" stroke="#5b5b5b" fill="#fff" stroke-linecap="round" stroke-linejoin="round" d="M220.051 20.75h36.898V35h-36.898z"/><path stroke-width="2" stroke="#5b5b5b" stroke-linecap="round" stroke-linejoin="round" fill="none" d="M251.062 27.732h0"/><path class="a61716b0-3547-43a0-9638-b779018b0199" d="M230.045 30.715v-5.841M225.818 30.715v-5.841M234.272 30.715v-5.841M238.5 30.715v-5.841"/></g><g><text class="ad909197-b6e5-4eae-ac7f-0ce0907d8c88" transform="translate(79.121 277.206)">Health Monitor</text><path class="a61716b0-3547-43a0-9638-b779018b0199" d="M122.546 232.482h14.135v23.55H99.319v-23.55h14.134M106.752 247.959v-2.872M114.556 247.959v-7.72M110.654 247.959v-4.811M104.817 248.185h11.674M96.25 260.653h43.5"/><ellipse class="a61716b0-3547-43a0-9638-b779018b0199" cx="126.497" cy="244.236" rx="3.099" ry="3.116"/><path class="a61716b0-3547-43a0-9638-b779018b0199" d="M128.689 246.44l1.156 1.163M123.15 240.87l1.156 1.163M128.689 242.033l1.156-1.163M123.15 247.602l1.156-1.162"/><g><path class="a61716b0-3547-43a0-9638-b779018b0199" d="M129.596 244.236h1.636M121.763 244.236h1.635"/></g><g><path class="a61716b0-3547-43a0-9638-b779018b0199" d="M126.497 241.12v-1.644M126.497 248.997v-1.645"/></g></g><g><text transform="translate(664.472 419.23)" font-size="10" fill="#f3f3f3" font-family="RedHatText,&quot;Red Hat Text&quot;,Overpass,&quot;Helvetica Neue&quot;,Arial,sans-serif">143_OpenStack_0321</text><path fill="none" d="M0 396.212h760v40H0z"/></g></svg>