<?xml version="1.0" encoding="utf-8"?>
<!-- Generator: Adobe Illustrator 24.1.0, SVG Export Plug-In . SVG Version: 6.00 Build 0)  -->
<svg version="1.1" id="bcd55aa7-8cc3-4bbe-b7d8-9615a851f9b7"
	 xmlns="http://www.w3.org/2000/svg" xmlns:xlink="http://www.w3.org/1999/xlink" x="0px" y="0px" viewBox="0 0 760 657"
	 style="enable-background:new 0 0 760 657;" xml:space="preserve">
<style type="text/css">
	.st0{fill:#F3F3F3;}
	.st1{fill:#151515;}
	.st2{font-family:'RedHatText-Bold';}
	.st3{font-size:11px;}
	.st4{fill:#DF3DC0;}
	.st5{font-family:'LiberationMono';}
	.st6{font-size:10px;}
	.st7{fill:#FFFFFF;}
	.st8{fill:#DFEAC0;}
	.st9{fill:none;stroke:#151515;stroke-linecap:round;stroke-linejoin:round;}
	.st10{fill:none;stroke:#151515;stroke-linecap:round;stroke-linejoin:round;stroke-dasharray:2.901,2.901;}
	.st11{fill:none;stroke:#F3F3F3;stroke-width:1.5;stroke-miterlimit:10;}
	.st12{font-size:12px;}
	.st13{fill:#C9DC95;}
	.st14{font-size:9.9px;}
	.st15{fill:none;stroke:#151515;stroke-linecap:round;stroke-linejoin:round;stroke-dasharray:2.99,2.99;}
	.st16{fill:none;stroke:#151515;stroke-linecap:round;stroke-linejoin:round;stroke-dasharray:2.9,2.9;}
	.st17{font-family:'RedHatText-Medium';}
	.st18{fill:none;stroke:#151515;stroke-linecap:round;stroke-linejoin:round;stroke-dasharray:3.465,3.465;}
	.st19{fill:#FFFFFF;stroke:#5B5B5B;stroke-width:1.5;stroke-linecap:round;stroke-linejoin:round;}
	.st20{font-family:'RedHatText-Regular';}
	.st21{fill:none;}
</style>
<rect x="590" y="56.7" class="st0" width="170" height="120"/>
<text transform="matrix(1 0 0 1 605 82.535)" class="st1 st2 st3">n</text>
<text transform="matrix(1 0 0 1 611.8831 82.535)" class="st1 st2 st3">a</text>
<text transform="matrix(1 0 0 1 618.3879 82.535)" class="st1 st2 st3">me</text>
<text transform="matrix(1 0 0 1 635.135 82.535)" class="st1 st2 st3">s</text>
<text transform="matrix(1 0 0 1 640.887 82.535)" class="st1 st2 st3">p</text>
<text transform="matrix(1 0 0 1 647.9929 82.535)" class="st1 st2 st3">a</text>
<text transform="matrix(1 0 0 1 654.4409 82.535)" class="st1 st2 st3">c</text>
<text transform="matrix(1 0 0 1 660.317 82.535)" class="st1 st2 st3">e</text>
<text transform="matrix(1 0 0 1 666.629 82.535)" class="st1 st2 st3">/</text>
<text transform="matrix(1 0 0 1 671.745 82.535)" class="st1 st2 st3">o</text>
<text transform="matrix(1 0 0 1 678.6379 82.535)" class="st1 st2 st3">p</text>
<text transform="matrix(1 0 0 1 685.767 82.535)" class="st1 st2 st3">e</text>
<text transform="matrix(1 0 0 1 692.386 82.535)" class="st1 st2 st3">n</text>
<text transform="matrix(1 0 0 1 699.345 82.535)" class="st1 st2 st3">s</text>
<text transform="matrix(1 0 0 1 705.098 82.535)" class="st1 st2 st3">h</text>
<text transform="matrix(1 0 0 1 712.021 82.535)" class="st1 st2 st3">i</text>
<text transform="matrix(1 0 0 1 715.167 82.535)" class="st1 st2 st3">f</text>
<text transform="matrix(1 0 0 1 720.374 82.535)" class="st1 st2 st3">t</text>
<text transform="matrix(1 0 0 1 725.426 82.535)" class="st1 st2 st3">-</text>
<text transform="matrix(1 0 0 1 605 94.535)" class="st1 st2 st3">a</text>
<text transform="matrix(1 0 0 1 611.496 94.535)" class="st1 st2 st3">u</text>
<text transform="matrix(1 0 0 1 618.3101 94.535)" class="st1 st2 st3">t</text>
<text transform="matrix(1 0 0 1 623.593 94.535)" class="st1 st2 st3">h</text>
<text transform="matrix(1 0 0 1 630.4709 94.535)" class="st1 st2 st3">e</text>
<text transform="matrix(1 0 0 1 637.089 94.535)" class="st1 st2 st3">n</text>
<text transform="matrix(1 0 0 1 643.8611 94.535)" class="st1 st2 st3">t</text>
<text transform="matrix(1 0 0 1 649.12 94.535)" class="st1 st2 st3">i</text>
<text transform="matrix(1 0 0 1 652.3521 94.535)" class="st1 st2 st3">c</text>
<text transform="matrix(1 0 0 1 658.385 94.535)" class="st1 st2 st3">a</text>
<text transform="matrix(1 0 0 1 664.717 94.535)" class="st1 st2 st3">t</text>
<text transform="matrix(1 0 0 1 669.9771 94.535)" class="st1 st2 st3">i</text>
<text transform="matrix(1 0 0 1 673.207 94.535)" class="st1 st2 st3">o</text>
<text transform="matrix(1 0 0 1 680.1 94.535)" class="st1 st2 st3">n</text>
<rect x="604.8" y="111.7" class="st4" width="140" height="50"/>
<text transform="matrix(1 0 0 1 614.74 135.856)" class="st1 st5 st6">secrets/v4-0-config-</text>
<text transform="matrix(1 0 0 1 617.741 147.856)" class="st1 st5 st6">system-router-certs</text>
<g>
	<circle class="st1" cx="674.8" cy="111.7" r="9"/>
	<text transform="matrix(1 0 0 1 669.099 115.496)" class="st7 st2 st3">12</text>
</g>
<rect x="590" y="491.6" class="st0" width="170" height="125"/>
<text transform="matrix(1 0 0 1 605 514.947)" class="st1 st2 st3">n</text>
<text transform="matrix(1 0 0 1 611.8831 514.947)" class="st1 st2 st3">a</text>
<text transform="matrix(1 0 0 1 618.3879 514.947)" class="st1 st2 st3">me</text>
<text transform="matrix(1 0 0 1 635.135 514.947)" class="st1 st2 st3">s</text>
<text transform="matrix(1 0 0 1 640.887 514.947)" class="st1 st2 st3">p</text>
<text transform="matrix(1 0 0 1 647.9929 514.947)" class="st1 st2 st3">a</text>
<text transform="matrix(1 0 0 1 654.4409 514.947)" class="st1 st2 st3">c</text>
<text transform="matrix(1 0 0 1 660.317 514.947)" class="st1 st2 st3">e</text>
<text transform="matrix(1 0 0 1 666.629 514.947)" class="st1 st2 st3">/</text>
<text transform="matrix(1 0 0 1 671.745 514.947)" class="st1 st2 st3">o</text>
<text transform="matrix(1 0 0 1 678.6379 514.947)" class="st1 st2 st3">p</text>
<text transform="matrix(1 0 0 1 685.767 514.947)" class="st1 st2 st3">e</text>
<text transform="matrix(1 0 0 1 692.386 514.947)" class="st1 st2 st3">n</text>
<text transform="matrix(1 0 0 1 699.345 514.947)" class="st1 st2 st3">s</text>
<text transform="matrix(1 0 0 1 705.098 514.947)" class="st1 st2 st3">h</text>
<text transform="matrix(1 0 0 1 712.021 514.947)" class="st1 st2 st3">i</text>
<text transform="matrix(1 0 0 1 715.167 514.947)" class="st1 st2 st3">f</text>
<text transform="matrix(1 0 0 1 720.374 514.947)" class="st1 st2 st3">t</text>
<text transform="matrix(1 0 0 1 725.426 514.947)" class="st1 st2 st3">-</text>
<text transform="matrix(1 0 0 1 605 526.947)" class="st1 st2 st3">c</text>
<text transform="matrix(1 0 0 1 610.876 526.947)" class="st1 st2 st3">o</text>
<text transform="matrix(1 0 0 1 617.769 526.947)" class="st1 st2 st3">n</text>
<text transform="matrix(1 0 0 1 624.729 526.947)" class="st1 st2 st3">s</text>
<text transform="matrix(1 0 0 1 630.4089 526.947)" class="st1 st2 st3">ol</text>
<text transform="matrix(1 0 0 1 640.554 526.947)" class="st1 st2 st3">e</text>
<rect x="605" y="551.6" class="st8" width="140" height="50"/>
<text transform="matrix(1 0 0 1 617.991 575.768)" class="st1 st5 st6">configmaps/default-</text>
<text transform="matrix(1 0 0 1 638.994 587.768)" class="st1 st5 st6">ingress-cert</text>
<g>
	<circle class="st1" cx="675" cy="551.6" r="9"/>
	<text transform="matrix(1 0 0 1 669.349 555.408)" class="st7 st2 st3">12</text>
</g>
<rect x="590" y="196.7" class="st0" width="170" height="120"/>
<rect x="604.8" y="251.6" class="st8" width="140" height="50"/>
<text transform="matrix(1 0 0 1 641.745 275.768)" class="st1 st5 st6">configmaps/</text>
<text transform="matrix(1 0 0 1 626.7419 287.768)" class="st1 st5 st6">serviceacount-ca</text>
<g>
	<circle class="st1" cx="674.8" cy="251.6" r="9"/>
	<text transform="matrix(1 0 0 1 669.099 255.408)" class="st7 st2 st3">12</text>
</g>
<text transform="matrix(1 0 0 1 605 222.379)" class="st1 st2 st3">n</text>
<text transform="matrix(1 0 0 1 611.8831 222.379)" class="st1 st2 st3">a</text>
<text transform="matrix(1 0 0 1 618.3879 222.379)" class="st1 st2 st3">me</text>
<text transform="matrix(1 0 0 1 635.135 222.379)" class="st1 st2 st3">s</text>
<text transform="matrix(1 0 0 1 640.887 222.379)" class="st1 st2 st3">p</text>
<text transform="matrix(1 0 0 1 647.9929 222.379)" class="st1 st2 st3">a</text>
<text transform="matrix(1 0 0 1 654.4409 222.379)" class="st1 st2 st3">c</text>
<text transform="matrix(1 0 0 1 660.317 222.379)" class="st1 st2 st3">e</text>
<text transform="matrix(1 0 0 1 666.629 222.379)" class="st1 st2 st3">/</text>
<text transform="matrix(1 0 0 1 671.745 222.379)" class="st1 st2 st3">o</text>
<text transform="matrix(1 0 0 1 678.6379 222.379)" class="st1 st2 st3">p</text>
<text transform="matrix(1 0 0 1 685.767 222.379)" class="st1 st2 st3">e</text>
<text transform="matrix(1 0 0 1 692.386 222.379)" class="st1 st2 st3">n</text>
<text transform="matrix(1 0 0 1 699.345 222.379)" class="st1 st2 st3">s</text>
<text transform="matrix(1 0 0 1 705.098 222.379)" class="st1 st2 st3">h</text>
<text transform="matrix(1 0 0 1 712.021 222.379)" class="st1 st2 st3">i</text>
<text transform="matrix(1 0 0 1 715.167 222.379)" class="st1 st2 st3">f</text>
<text transform="matrix(1 0 0 1 720.374 222.379)" class="st1 st2 st3">t</text>
<text transform="matrix(1 0 0 1 725.426 222.379)" class="st1 st2 st3">-</text>
<text transform="matrix(1 0 0 1 605 234.379)" class="st1 st2 st3">k</text>
<text transform="matrix(1 0 0 1 611.693 234.379)" class="st1 st2 st3">u</text>
<text transform="matrix(1 0 0 1 618.62 234.379)" class="st1 st2 st3">b</text>
<text transform="matrix(1 0 0 1 625.749 234.379)" class="st1 st2 st3">e</text>
<text transform="matrix(1 0 0 1 632.556 234.379)" class="st1 st2 st3">-</text>
<text transform="matrix(1 0 0 1 638.004 234.379)" class="st1 st2 st3">c</text>
<text transform="matrix(1 0 0 1 643.88 234.379)" class="st1 st2 st3">o</text>
<text transform="matrix(1 0 0 1 650.772 234.379)" class="st1 st2 st3">n</text>
<text transform="matrix(1 0 0 1 657.5449 234.379)" class="st1 st2 st3">t</text>
<text transform="matrix(1 0 0 1 662.828 234.379)" class="st1 st2 st3">r</text>
<text transform="matrix(1 0 0 1 667.718 234.379)" class="st1 st2 st3">o</text>
<text transform="matrix(1 0 0 1 674.61 234.379)" class="st1 st2 st3">l</text>
<text transform="matrix(1 0 0 1 677.896 234.379)" class="st1 st2 st3">l</text>
<text transform="matrix(1 0 0 1 681.1489 234.379)" class="st1 st2 st3">e</text>
<text transform="matrix(1 0 0 1 687.769 234.379)" class="st1 st2 st3">r</text>
<text transform="matrix(1 0 0 1 692.673 234.379)" class="st1 st2 st3">-</text>
<text transform="matrix(1 0 0 1 698.037 234.379)" class="st1 st2 st3">m</text>
<text transform="matrix(1 0 0 1 708.182 234.379)" class="st1 st2 st3">a</text>
<text transform="matrix(1 0 0 1 714.687 234.379)" class="st1 st2 st3">n</text>
<text transform="matrix(1 0 0 1 721.569 234.379)" class="st1 st2 st3">a</text>
<text transform="matrix(1 0 0 1 728.0181 234.379)" class="st1 st2 st3">ge</text>
<text transform="matrix(1 0 0 1 741.796 234.379)" class="st1 st2 st3">r</text>
<rect x="590" y="341.6" class="st0" width="170" height="125"/>
<rect x="605" y="401.8" class="st8" width="140" height="50"/>
<text transform="matrix(1 0 0 1 641.995 424.742)" class="st1 st5 st6">configmaps/</text>
<text transform="matrix(1 0 0 1 626.9919 436.742)" class="st1 st5 st6">serviceacount-ca</text>
<g>
	<circle class="st1" cx="675" cy="401.8" r="9"/>
	<text transform="matrix(1 0 0 1 669.349 405.605)" class="st7 st2 st3">12</text>
</g>
<text transform="matrix(1 0 0 1 605 366.791)" class="st1 st2 st3">n</text>
<text transform="matrix(1 0 0 1 611.8831 366.791)" class="st1 st2 st3">a</text>
<text transform="matrix(1 0 0 1 618.3879 366.791)" class="st1 st2 st3">me</text>
<text transform="matrix(1 0 0 1 635.135 366.791)" class="st1 st2 st3">s</text>
<text transform="matrix(1 0 0 1 640.887 366.791)" class="st1 st2 st3">p</text>
<text transform="matrix(1 0 0 1 647.9929 366.791)" class="st1 st2 st3">a</text>
<text transform="matrix(1 0 0 1 654.4409 366.791)" class="st1 st2 st3">c</text>
<text transform="matrix(1 0 0 1 660.317 366.791)" class="st1 st2 st3">e</text>
<text transform="matrix(1 0 0 1 666.629 366.791)" class="st1 st2 st3">/</text>
<text transform="matrix(1 0 0 1 671.745 366.791)" class="st1 st2 st3">o</text>
<text transform="matrix(1 0 0 1 678.6379 366.791)" class="st1 st2 st3">p</text>
<text transform="matrix(1 0 0 1 685.767 366.791)" class="st1 st2 st3">e</text>
<text transform="matrix(1 0 0 1 692.386 366.791)" class="st1 st2 st3">n</text>
<text transform="matrix(1 0 0 1 699.345 366.791)" class="st1 st2 st3">s</text>
<text transform="matrix(1 0 0 1 705.098 366.791)" class="st1 st2 st3">h</text>
<text transform="matrix(1 0 0 1 712.021 366.791)" class="st1 st2 st3">i</text>
<text transform="matrix(1 0 0 1 715.167 366.791)" class="st1 st2 st3">f</text>
<text transform="matrix(1 0 0 1 720.374 366.791)" class="st1 st2 st3">t</text>
<text transform="matrix(1 0 0 1 725.426 366.791)" class="st1 st2 st3">-</text>
<text transform="matrix(1 0 0 1 605 378.791)" class="st1 st2 st3">k</text>
<text transform="matrix(1 0 0 1 611.693 378.791)" class="st1 st2 st3">u</text>
<text transform="matrix(1 0 0 1 618.62 378.791)" class="st1 st2 st3">b</text>
<text transform="matrix(1 0 0 1 625.749 378.791)" class="st1 st2 st3">e</text>
<text transform="matrix(1 0 0 1 632.556 378.791)" class="st1 st2 st3">-</text>
<text transform="matrix(1 0 0 1 637.8979 378.791)" class="st1 st2 st3">s</text>
<text transform="matrix(1 0 0 1 643.5801 378.791)" class="st1 st2 st3">c</text>
<text transform="matrix(1 0 0 1 649.6 378.791)" class="st1 st2 st3">he</text>
<text transform="matrix(1 0 0 1 663.068 378.791)" class="st1 st2 st3">d</text>
<text transform="matrix(1 0 0 1 670.287 378.791)" class="st1 st2 st3">u</text>
<text transform="matrix(1 0 0 1 677.214 378.791)" class="st1 st2 st3">l</text>
<text transform="matrix(1 0 0 1 680.468 378.791)" class="st1 st2 st3">e</text>
<text transform="matrix(1 0 0 1 687.0869 378.791)" class="st1 st2 st3">r</text>
<rect x="195" y="491.6" class="st0" width="170" height="125"/>
<rect x="390" y="341.6" class="st0" width="170" height="125"/>
<rect x="405" y="402" class="st8" width="140" height="50"/>
<text transform="matrix(1 0 0 1 441.994 425.18)" class="st1 st5 st6">configmaps/</text>
<text transform="matrix(1 0 0 1 450.995 439.18)" class="st1 st5 st6">proxy-ca</text>
<g>
	<circle class="st1" cx="475" cy="401.5" r="9"/>
	<text transform="matrix(1 0 0 1 470.515 405.319)" class="st7 st2 st3">11</text>
</g>
<rect x="195" y="341.6" class="st0" width="170" height="125"/>
<rect x="210" y="401.5" class="st8" width="140" height="50"/>
<text transform="matrix(1 0 0 1 237.993 425.68)" class="st1 st5 st6">configmaps/my-</text>
<text transform="matrix(1 0 0 1 246.995 437.68)" class="st1 st5 st6">certificate</text>
<g>
	<line class="st9" x1="280" y1="461.2" x2="280" y2="462.7"/>
	<line class="st10" x1="280" y1="465.6" x2="280" y2="539.6"/>
	<line class="st9" x1="280" y1="541" x2="280" y2="542.5"/>
	<polygon class="st1" points="275,462.7 280,454 285,462.7 	"/>
</g>
<polyline class="st11" points="570,351.6 570,476.6 400,476.6 "/>
<polyline class="st11" points="565,346.6 565,471.6 395,471.6 "/>
<rect x="390" y="56.7" class="st0" width="170" height="260"/>
<rect x="195" y="56.7" class="st0" width="170" height="260"/>
<rect y="56.7" class="st0" width="170" height="260"/>
<text transform="matrix(1 0 0 1 210 80.035)" class="st1 st2 st12">n</text>
<text transform="matrix(1 0 0 1 217.462 80.035)" class="st1 st2 st12">a</text>
<text transform="matrix(1 0 0 1 224.513 80.035)" class="st1 st2 st12">me</text>
<text transform="matrix(1 0 0 1 242.688 80.035)" class="st1 st2 st12">s</text>
<text transform="matrix(1 0 0 1 248.918 80.035)" class="st1 st2 st12">p</text>
<text transform="matrix(1 0 0 1 256.622 80.035)" class="st1 st2 st12">a</text>
<text transform="matrix(1 0 0 1 263.609 80.035)" class="st1 st2 st12">c</text>
<text transform="matrix(1 0 0 1 269.971 80.035)" class="st1 st2 st12">e</text>
<text transform="matrix(1 0 0 1 276.801 80.035)" class="st1 st2 st12">/</text>
<text transform="matrix(1 0 0 1 282.318 80.035)" class="st1 st2 st12">o</text>
<text transform="matrix(1 0 0 1 289.791 80.035)" class="st1 st2 st12">p</text>
<text transform="matrix(1 0 0 1 297.519 80.035)" class="st1 st2 st12">e</text>
<text transform="matrix(1 0 0 1 304.693 80.035)" class="st1 st2 st12">n</text>
<text transform="matrix(1 0 0 1 312.24 80.035)" class="st1 st2 st12">s</text>
<text transform="matrix(1 0 0 1 318.471 80.035)" class="st1 st2 st12">h</text>
<text transform="matrix(1 0 0 1 325.979 80.035)" class="st1 st2 st12">i</text>
<text transform="matrix(1 0 0 1 329.362 80.035)" class="st1 st2 st12">f</text>
<text transform="matrix(1 0 0 1 334.998 80.035)" class="st1 st2 st12">t</text>
<text transform="matrix(1 0 0 1 340.458 80.035)" class="st1 st2 st12">-</text>
<text transform="matrix(1 0 0 1 210 92.035)" class="st1 st2 st12">i</text>
<text transform="matrix(1 0 0 1 213.545 92.035)" class="st1 st2 st12">n</text>
<text transform="matrix(1 0 0 1 221.023 92.035)" class="st1 st2 st12">g</text>
<text transform="matrix(1 0 0 1 228.828 92.035)" class="st1 st2 st12">r</text>
<text transform="matrix(1 0 0 1 234.115 92.035)" class="st1 st2 st12">e</text>
<text transform="matrix(1 0 0 1 241.276 92.035)" class="st1 st2 st12">s</text>
<text transform="matrix(1 0 0 1 247.481 92.035)" class="st1 st2 st12">s</text>
<text transform="matrix(1 0 0 1 15 80.035)" class="st1 st2 st12">n</text>
<text transform="matrix(1 0 0 1 22.462 80.035)" class="st1 st2 st12">a</text>
<text transform="matrix(1 0 0 1 29.513 80.035)" class="st1 st2 st12">me</text>
<text transform="matrix(1 0 0 1 47.688 80.035)" class="st1 st2 st12">s</text>
<text transform="matrix(1 0 0 1 53.918 80.035)" class="st1 st2 st12">p</text>
<text transform="matrix(1 0 0 1 61.622 80.035)" class="st1 st2 st12">a</text>
<text transform="matrix(1 0 0 1 68.609 80.035)" class="st1 st2 st12">c</text>
<text transform="matrix(1 0 0 1 74.971 80.035)" class="st1 st2 st12">e</text>
<text transform="matrix(1 0 0 1 81.801 80.035)" class="st1 st2 st12">/</text>
<text transform="matrix(1 0 0 1 87.318 80.035)" class="st1 st2 st12">o</text>
<text transform="matrix(1 0 0 1 94.791 80.035)" class="st1 st2 st12">p</text>
<text transform="matrix(1 0 0 1 102.519 80.035)" class="st1 st2 st12">e</text>
<text transform="matrix(1 0 0 1 109.693 80.035)" class="st1 st2 st12">n</text>
<text transform="matrix(1 0 0 1 117.24 80.035)" class="st1 st2 st12">s</text>
<text transform="matrix(1 0 0 1 123.471 80.035)" class="st1 st2 st12">h</text>
<text transform="matrix(1 0 0 1 130.979 80.035)" class="st1 st2 st12">i</text>
<text transform="matrix(1 0 0 1 134.362 80.035)" class="st1 st2 st12">f</text>
<text transform="matrix(1 0 0 1 139.998 80.035)" class="st1 st2 st12">t</text>
<text transform="matrix(1 0 0 1 145.458 80.035)" class="st1 st2 st12">-</text>
<text transform="matrix(1 0 0 1 15 92.035)" class="st1 st2 st12">i</text>
<text transform="matrix(1 0 0 1 18.545 92.035)" class="st1 st2 st12">n</text>
<text transform="matrix(1 0 0 1 26.023 92.035)" class="st1 st2 st12">g</text>
<text transform="matrix(1 0 0 1 33.828 92.035)" class="st1 st2 st12">r</text>
<text transform="matrix(1 0 0 1 39.115 92.035)" class="st1 st2 st12">e</text>
<text transform="matrix(1 0 0 1 46.276 92.035)" class="st1 st2 st12">s</text>
<text transform="matrix(1 0 0 1 52.481 92.035)" class="st1 st2 st12">s</text>
<text transform="matrix(1 0 0 1 58.653 92.035)" class="st1 st2 st12">-</text>
<text transform="matrix(1 0 0 1 64.552 92.035)" class="st1 st2 st12">o</text>
<text transform="matrix(1 0 0 1 72.024 92.035)" class="st1 st2 st12">p</text>
<text transform="matrix(1 0 0 1 79.752 92.035)" class="st1 st2 st12">e</text>
<text transform="matrix(1 0 0 1 86.927 92.035)" class="st1 st2 st12">r</text>
<text transform="matrix(1 0 0 1 92.22 92.035)" class="st1 st2 st12">a</text>
<text transform="matrix(1 0 0 1 99.079 92.035)" class="st1 st2 st12">to</text>
<text transform="matrix(1 0 0 1 112.087 92.035)" class="st1 st2 st12">r</text>
<text transform="matrix(1 0 0 1 405 80.035)" class="st1 st2 st12">n</text>
<text transform="matrix(1 0 0 1 412.462 80.035)" class="st1 st2 st12">a</text>
<text transform="matrix(1 0 0 1 419.513 80.035)" class="st1 st2 st12">me</text>
<text transform="matrix(1 0 0 1 437.688 80.035)" class="st1 st2 st12">s</text>
<text transform="matrix(1 0 0 1 443.918 80.035)" class="st1 st2 st12">p</text>
<text transform="matrix(1 0 0 1 451.6221 80.035)" class="st1 st2 st12">a</text>
<text transform="matrix(1 0 0 1 458.609 80.035)" class="st1 st2 st12">c</text>
<text transform="matrix(1 0 0 1 464.9709 80.035)" class="st1 st2 st12">e</text>
<text transform="matrix(1 0 0 1 471.801 80.035)" class="st1 st2 st12">/</text>
<text transform="matrix(1 0 0 1 477.318 80.035)" class="st1 st2 st12">o</text>
<text transform="matrix(1 0 0 1 484.791 80.035)" class="st1 st2 st12">p</text>
<text transform="matrix(1 0 0 1 492.519 80.035)" class="st1 st2 st12">e</text>
<text transform="matrix(1 0 0 1 499.693 80.035)" class="st1 st2 st12">n</text>
<text transform="matrix(1 0 0 1 507.24 80.035)" class="st1 st2 st12">s</text>
<text transform="matrix(1 0 0 1 513.4709 80.035)" class="st1 st2 st12">h</text>
<text transform="matrix(1 0 0 1 520.979 80.035)" class="st1 st2 st12">i</text>
<text transform="matrix(1 0 0 1 524.3621 80.035)" class="st1 st2 st12">f</text>
<text transform="matrix(1 0 0 1 529.998 80.035)" class="st1 st2 st12">t</text>
<text transform="matrix(1 0 0 1 535.458 80.035)" class="st1 st2 st12">-</text>
<text transform="matrix(1 0 0 1 405 92.035)" class="st1 st2 st12">c</text>
<text transform="matrix(1 0 0 1 411.361 92.035)" class="st1 st2 st12">o</text>
<text transform="matrix(1 0 0 1 418.833 92.035)" class="st1 st2 st12">n</text>
<text transform="matrix(1 0 0 1 426.166 92.035)" class="st1 st2 st12">f</text>
<text transform="matrix(1 0 0 1 431.67 92.035)" class="st1 st2 st12">i</text>
<text transform="matrix(1 0 0 1 435.147 92.035)" class="st1 st2 st12">g</text>
<text transform="matrix(1 0 0 1 443.028 92.035)" class="st1 st2 st12">-</text>
<text transform="matrix(1 0 0 1 448.834 92.035)" class="st1 st2 st12">m</text>
<text transform="matrix(1 0 0 1 459.854 92.035)" class="st1 st2 st12">a</text>
<text transform="matrix(1 0 0 1 466.9041 92.035)" class="st1 st2 st12">n</text>
<text transform="matrix(1 0 0 1 474.366 92.035)" class="st1 st2 st12">a</text>
<text transform="matrix(1 0 0 1 481.354 92.035)" class="st1 st2 st12">g</text>
<text transform="matrix(1 0 0 1 489.123 92.035)" class="st1 st2 st12">e</text>
<text transform="matrix(1 0 0 1 496.264 92.035)" class="st1 st2 st12">d</text>
<rect x="210" y="111.6" class="st8" width="140" height="110"/>
<text transform="matrix(1 0 0 1 220 132.797)" class="st1 st5 st6">deployments/router-</text>
<text transform="matrix(1 0 0 1 220 144.797)" class="st1 st5 st6">default</text>
<g>
	<circle class="st1" cx="280" cy="111.6" r="9"/>
	<text transform="matrix(1 0 0 1 276.268 115.408)" class="st7 st2 st3">3</text>
</g>
<g>
	<polyline class="st9" points="395.3,136.6 380,136.6 380,186.6 	"/>
	<polygon class="st1" points="393.9,131.6 402.5,136.6 393.9,141.6 	"/>
</g>
<g>
	<polyline class="st9" points="395.3,206.6 380,206.6 380,186.6 340,186.6 	"/>
	<polygon class="st1" points="393.9,201.6 402.5,206.6 393.9,211.6 	"/>
</g>
<rect x="220" y="161.6" class="st13" width="120" height="50"/>
<text transform="matrix(1 0 0 1 246.995 182.797)" class="st1 st5 st6">secrets/my-</text>
<text transform="matrix(1 0 0 1 246.995 194.797)" class="st1 st5 st6">certificate</text>
<g>
	<circle class="st1" cx="280" cy="161.6" r="9"/>
	<text transform="matrix(1 0 0 1 276.82 165.03)" class="st7 st2 st14">2</text>
</g>
<g>
	<polyline class="st9" points="279.8,405.6 279.8,276.6 395.3,276.6 	"/>
	<polygon class="st1" points="393.9,281.6 402.5,276.6 393.9,271.6 	"/>
</g>
<g>
	<line class="st9" x1="475" y1="382.9" x2="475" y2="301.6"/>
	<polygon class="st1" points="480,381.4 475,390 470,381.4 	"/>
</g>
<g>
	<polyline class="st9" points="210.3,194.1 84.8,194.1 84.8,332.6 	"/>
	<polygon class="st1" points="208.9,189.1 217.5,194.1 208.9,199.1 	"/>
</g>
<g>
	<line class="st9" x1="210.3" y1="179.1" x2="208.8" y2="179.1"/>
	<line class="st15" x1="205.8" y1="179.1" x2="87.7" y2="179.1"/>
	<polyline class="st9" points="86.2,179.1 84.8,179.1 84.8,177.6 	"/>
	<line class="st16" x1="84.8" y1="174.7" x2="84.8" y2="164.6"/>
	<line class="st9" x1="84.8" y1="163.1" x2="84.8" y2="161.6"/>
	<polygon class="st1" points="208.9,174.1 217.5,179.1 208.9,184.1 	"/>
</g>
<rect x="15" y="111.6" class="st8" width="140" height="50"/>
<text transform="matrix(1 0 0 1 27.991 135.768)" class="st1 st5 st6">ingresscontrollers/</text>
<text transform="matrix(1 0 0 1 63.997 147.768)" class="st1 st5 st6">default</text>
<g>
	<text transform="matrix(1 0 0 1 33.927 28.42)" class="st1 st17 st6">R</text>
	<text transform="matrix(1 0 0 1 40.397 28.42)" class="st1 st17 st6">e</text>
	<text transform="matrix(1 0 0 1 45.977 28.42)" class="st1 st17 st6">f</text>
	<text transform="matrix(1 0 0 1 49.917 28.42)" class="st1 st17 st6">e</text>
	<text transform="matrix(1 0 0 1 55.647 28.42)" class="st1 st17 st6">r</text>
	<text transform="matrix(1 0 0 1 59.337 28.42)" class="st1 st17 st6">en</text>
	<text transform="matrix(1 0 0 1 70.887 28.42)" class="st1 st17 st6">c</text>
	<text transform="matrix(1 0 0 1 75.967 28.42)" class="st1 st17 st6">e</text>
	<g>
		<line class="st9" x1="20.8" y1="25.1" x2="19.3" y2="25.1"/>
		<line class="st18" x1="15.9" y1="25.1" x2="3.7" y2="25.1"/>
		<line class="st9" x1="2" y1="25.1" x2="0.5" y2="25.1"/>
		<polygon class="st1" points="19.4,20.1 28,25.1 19.4,30.1 		"/>
	</g>
	<text transform="matrix(1 0 0 1 137.697 28.42)" class="st1 st17 st6">C</text>
	<text transform="matrix(1 0 0 1 144.777 28.42)" class="st1 st17 st6">o</text>
	<text transform="matrix(1 0 0 1 150.757 28.42)" class="st1 st17 st6">n</text>
	<text transform="matrix(1 0 0 1 156.426 28.42)" class="st1 st17 st6">t</text>
	<text transform="matrix(1 0 0 1 160.497 28.42)" class="st1 st17 st6">e</text>
	<text transform="matrix(1 0 0 1 166.227 28.42)" class="st1 st17 st6">n</text>
	<text transform="matrix(1 0 0 1 171.897 28.42)" class="st1 st17 st6">t</text>
	<text transform="matrix(1 0 0 1 176.136 28.42)" class="st1 st17 st6">s a</text>
	<text transform="matrix(1 0 0 1 188.676 28.42)" class="st1 st17 st6">r</text>
	<text transform="matrix(1 0 0 1 192.366 28.42)" class="st1 st17 st6">e </text>
	<text transform="matrix(1 0 0 1 200.346 28.42)" class="st1 st17 st6">c</text>
	<text transform="matrix(1 0 0 1 205.426 28.42)" class="st1 st17 st6">opi</text>
	<text transform="matrix(1 0 0 1 220.036 28.42)" class="st1 st17 st6">e</text>
	<text transform="matrix(1 0 0 1 225.796 28.42)" class="st1 st17 st6">d</text>
	<g>
		<line class="st9" x1="124.6" y1="25.1" x2="104.3" y2="25.1"/>
		<polygon class="st1" points="123.1,20.1 131.8,25.1 123.1,30.1 		"/>
	</g>
</g>
<g>
	<line class="st9" x1="595.3" y1="136.6" x2="544.9" y2="136.6"/>
	<polygon class="st1" points="593.9,131.6 602.5,136.6 593.9,141.6 	"/>
</g>
<g>
	<circle class="st1" cx="85" cy="111.6" r="9"/>
	<text transform="matrix(1 0 0 1 80.949 115.408)" class="st7 st2 st3">0</text>
</g>
<g>
	<line class="st9" x1="579.9" y1="279.1" x2="595.3" y2="279.1"/>
	<polygon class="st1" points="593.9,284.1 602.5,279.1 593.9,274.1 	"/>
</g>
<g>
	<line class="st9" x1="579.9" y1="424.3" x2="595.3" y2="424.3"/>
	<polygon class="st1" points="593.9,429.3 602.5,424.3 593.9,419.3 	"/>
</g>
<g>
	<line class="st9" x1="170" y1="426.5" x2="200.3" y2="426.5"/>
	<polygon class="st1" points="198.9,431.5 207.5,426.5 198.9,421.5 	"/>
</g>
<g>
	<polyline class="st9" points="595.3,576.6 580,576.6 580,206.6 545,206.6 	"/>
	<polygon class="st1" points="593.9,571.6 602.5,576.6 593.9,581.6 	"/>
</g>
<rect x="263.8" y="352.8" class="st0" width="31.9" height="18.4"/>
<rect x="457.3" y="352.8" class="st0" width="31.9" height="18.4"/>
<rect x="263.8" y="504.7" class="st0" width="31.9" height="18.2"/>
<text transform="matrix(1 0 0 1 210 364.947)" class="st1 st2 st3">n</text>
<text transform="matrix(1 0 0 1 216.883 364.947)" class="st1 st2 st3">a</text>
<text transform="matrix(1 0 0 1 223.388 364.947)" class="st1 st2 st3">me</text>
<text transform="matrix(1 0 0 1 240.135 364.947)" class="st1 st2 st3">s</text>
<text transform="matrix(1 0 0 1 245.887 364.947)" class="st1 st2 st3">p</text>
<text transform="matrix(1 0 0 1 252.993 364.947)" class="st1 st2 st3">a</text>
<text transform="matrix(1 0 0 1 259.441 364.947)" class="st1 st2 st3">c</text>
<text transform="matrix(1 0 0 1 265.317 364.947)" class="st1 st2 st3">e</text>
<text transform="matrix(1 0 0 1 271.629 364.947)" class="st1 st2 st3">/</text>
<text transform="matrix(1 0 0 1 276.745 364.947)" class="st1 st2 st3">o</text>
<text transform="matrix(1 0 0 1 283.638 364.947)" class="st1 st2 st3">p</text>
<text transform="matrix(1 0 0 1 290.767 364.947)" class="st1 st2 st3">e</text>
<text transform="matrix(1 0 0 1 297.386 364.947)" class="st1 st2 st3">n</text>
<text transform="matrix(1 0 0 1 304.345 364.947)" class="st1 st2 st3">s</text>
<text transform="matrix(1 0 0 1 310.098 364.947)" class="st1 st2 st3">h</text>
<text transform="matrix(1 0 0 1 317.021 364.947)" class="st1 st2 st3">i</text>
<text transform="matrix(1 0 0 1 320.167 364.947)" class="st1 st2 st3">f</text>
<text transform="matrix(1 0 0 1 325.374 364.947)" class="st1 st2 st3">t</text>
<text transform="matrix(1 0 0 1 330.426 364.947)" class="st1 st2 st3">-</text>
<text transform="matrix(1 0 0 1 210 376.947)" class="st1 st2 st3">c</text>
<text transform="matrix(1 0 0 1 215.876 376.947)" class="st1 st2 st3">o</text>
<text transform="matrix(1 0 0 1 222.769 376.947)" class="st1 st2 st3">n</text>
<text transform="matrix(1 0 0 1 229.536 376.947)" class="st1 st2 st3">f</text>
<text transform="matrix(1 0 0 1 234.624 376.947)" class="st1 st2 st3">i</text>
<text transform="matrix(1 0 0 1 237.854 376.947)" class="st1 st2 st3">g</text>
<g>
	<circle class="st1" cx="280" cy="401.5" r="9"/>
	<text transform="matrix(1 0 0 1 276.191 405.32)" class="st7 st2 st3">9</text>
</g>
<rect x="210" y="551.5" class="st8" width="140" height="50"/>
<text transform="matrix(1 0 0 1 234.992 581.679)" class="st1 st5 st6">proxies/cluster</text>
<g>
	<circle class="st1" cx="280" cy="551.5" r="9"/>
	<text transform="matrix(1 0 0 1 274.448 554.941)" class="st7 st2 st14">10</text>
</g>
<rect y="341.6" class="st0" width="170" height="125"/>
<g>
	<text transform="matrix(1 0 0 1 73.043 430.789)" class="st1 st17 st3">User</text>
	<g>
		<path class="st19" d="M104.8,414.2c-0.1-10.9-9-19.7-19.9-19.6c-10.8,0.1-19.4,8.8-19.6,19.6H104.8z"/>
		<ellipse class="st19" cx="85" cy="384.9" rx="9.9" ry="9.8"/>
	</g>
</g>
<g>
	<circle class="st1" cx="85" cy="341.6" r="9"/>
	<text transform="matrix(1 0 0 1 81.601 345.396)" class="st7 st2 st3">7</text>
</g>
<text transform="matrix(1 0 0 1 210 514.947)" class="st1 st2 st3">c</text>
<text transform="matrix(1 0 0 1 216.021 514.947)" class="st1 st2 st3">l</text>
<text transform="matrix(1 0 0 1 219.318 514.947)" class="st1 st2 st3">u</text>
<text transform="matrix(1 0 0 1 226.296 514.947)" class="st1 st2 st3">s</text>
<text transform="matrix(1 0 0 1 231.94 514.947)" class="st1 st2 st3">t</text>
<text transform="matrix(1 0 0 1 237.06 514.947)" class="st1 st2 st3">e</text>
<text transform="matrix(1 0 0 1 243.678 514.947)" class="st1 st2 st3">r</text>
<text transform="matrix(1 0 0 1 248.583 514.947)" class="st1 st2 st3">-</text>
<text transform="matrix(1 0 0 1 253.926 514.947)" class="st1 st2 st3">s</text>
<text transform="matrix(1 0 0 1 259.606 514.947)" class="st1 st2 st3">c</text>
<text transform="matrix(1 0 0 1 265.482 514.947)" class="st1 st2 st3">o</text>
<text transform="matrix(1 0 0 1 272.375 514.947)" class="st1 st2 st3">p</text>
<text transform="matrix(1 0 0 1 279.504 514.947)" class="st1 st2 st3">e</text>
<text transform="matrix(1 0 0 1 286.094 514.947)" class="st1 st2 st3">d</text>
<rect x="405" y="111.6" class="st8" width="140" height="50"/>
<text transform="matrix(1 0 0 1 429.993 135.768)" class="st1 st5 st6">secrets/router-</text>
<text transform="matrix(1 0 0 1 459.9971 147.768)" class="st1 st5 st6">certs</text>
<g>
	<circle class="st1" cx="475" cy="111.6" r="9"/>
	<text transform="matrix(1 0 0 1 470.955 115.408)" class="st7 st2 st3">4</text>
</g>
<rect x="405" y="181.6" class="st8" width="140" height="50"/>
<text transform="matrix(1 0 0 1 417.991 205.768)" class="st1 st5 st6">configmaps/default-</text>
<text transform="matrix(1 0 0 1 438.994 217.768)" class="st1 st5 st6">ingress-cert</text>
<g>
	<circle class="st1" cx="475" cy="181.6" r="9"/>
	<text transform="matrix(1 0 0 1 471.17 185.408)" class="st7 st2 st3">6</text>
</g>
<rect x="405" y="251.6" class="st8" width="140" height="50"/>
<text transform="matrix(1 0 0 1 417.991 275.768)" class="st1 st5 st6">configmaps/trusted-</text>
<text transform="matrix(1 0 0 1 447.995 287.768)" class="st1 st5 st6">ca-bundle</text>
<g>
	<circle class="st1" cx="475" cy="251.6" r="9"/>
	<text transform="matrix(1 0 0 1 471.241 255.408)" class="st7 st2 st3">8</text>
</g>
<text transform="matrix(1 0 0 1 405 364.947)" class="st1 st2 st3">R</text>
<text transform="matrix(1 0 0 1 412.798 364.947)" class="st1 st2 st3">e</text>
<text transform="matrix(1 0 0 1 419.387 364.947)" class="st1 st2 st3">q</text>
<text transform="matrix(1 0 0 1 426.605 364.947)" class="st1 st2 st3">ue</text>
<text transform="matrix(1 0 0 1 440.109 364.947)" class="st1 st2 st3">s</text>
<text transform="matrix(1 0 0 1 445.7529 364.947)" class="st1 st2 st3">t</text>
<text transform="matrix(1 0 0 1 451.0129 364.947)" class="st1 st2 st3">i</text>
<text transform="matrix(1 0 0 1 454.304 364.947)" class="st1 st2 st3">n</text>
<text transform="matrix(1 0 0 1 461.2 364.947)" class="st1 st2 st3">g </text>
<text transform="matrix(1 0 0 1 470.627 364.947)" class="st1 st2 st3">n</text>
<text transform="matrix(1 0 0 1 477.51 364.947)" class="st1 st2 st3">a</text>
<text transform="matrix(1 0 0 1 484.016 364.947)" class="st1 st2 st3">me</text>
<text transform="matrix(1 0 0 1 500.762 364.947)" class="st1 st2 st3">s</text>
<text transform="matrix(1 0 0 1 506.515 364.947)" class="st1 st2 st3">p</text>
<text transform="matrix(1 0 0 1 513.62 364.947)" class="st1 st2 st3">a</text>
<text transform="matrix(1 0 0 1 520.068 364.947)" class="st1 st2 st3">c</text>
<text transform="matrix(1 0 0 1 525.944 364.947)" class="st1 st2 st3">e</text>
<text transform="matrix(1 0 0 1 532.553 364.947)" class="st1 st2 st3">s</text>
<g>
	<text transform="matrix(1 0 0 1 668.7219 640.049)" class="st0 st20 st6">75_OpenShift_0520</text>
	<rect y="617" class="st21" width="760" height="40"/>
</g>
</svg>
