<svg id="b14b5af0-6a87-4b4f-9845-b7243b360c48" data-name="artwork" xmlns="http://www.w3.org/2000/svg" width="760" height="520.107"><defs><style>.b0bef269-1796-4615-99cb-4783202cfa9a{fill:#e8e8e8}.ae27f5c3-6d80-4894-a05b-b68f39abd414,.afe146c6-7fa3-4b73-b850-4475002cdc9e,.b44593f7-16b6-4a93-80ed-81740c41cf91,.ea2ef0de-9ef9-4eb0-a179-e665eff7a374{fill:none}.ea2ef0de-9ef9-4eb0-a179-e665eff7a374{stroke:#151515}.ae27f5c3-6d80-4894-a05b-b68f39abd414,.afe146c6-7fa3-4b73-b850-4475002cdc9e,.b44593f7-16b6-4a93-80ed-81740c41cf91,.ea2ef0de-9ef9-4eb0-a179-e665eff7a374,.f73825bf-3332-4c0a-a917-a7d8dbd47ac2{stroke-linecap:round;stroke-linejoin:round}.a2441b4c-b54d-410c-b6ec-6c7920ff3000,.a492a650-cffe-4fd7-b939-c6f739afa894,.a5c49360-24a3-4aa2-ba54-9d0e7e863a85,.abfb7cef-2e20-4d93-8c7a-2a7aabad64fb{fill:#151515}.a2441b4c-b54d-410c-b6ec-6c7920ff3000,.abfb7cef-2e20-4d93-8c7a-2a7aabad64fb{font-size:11px}.abfb7cef-2e20-4d93-8c7a-2a7aabad64fb{font-family:RedHatText,&quot;Red Hat Text&quot;,Overpass,&quot;Helvetica Neue&quot;,Arial,sans-serif;font-weight:500}.eb63c775-8059-44bd-859b-622049a8dda7,.f73825bf-3332-4c0a-a917-a7d8dbd47ac2{fill:#fff}.f73825bf-3332-4c0a-a917-a7d8dbd47ac2{stroke:#5b5b5b;stroke-width:1.5px}.fb392db5-7c11-447b-a3e6-0775b404aa51{fill:#06c}.a2441b4c-b54d-410c-b6ec-6c7920ff3000,.a492a650-cffe-4fd7-b939-c6f739afa894{font-family:RedHatText,&quot;Red Hat Text&quot;,Overpass,&quot;Helvetica Neue&quot;,Arial,sans-serif;font-weight:700}.f322d169-ab70-482b-8bf2-420ab8810c7b{fill:#d9e8f7}.a492a650-cffe-4fd7-b939-c6f739afa894{font-size:14px}.ae27f5c3-6d80-4894-a05b-b68f39abd414,.afe146c6-7fa3-4b73-b850-4475002cdc9e,.b44593f7-16b6-4a93-80ed-81740c41cf91{stroke:#06c}.ae27f5c3-6d80-4894-a05b-b68f39abd414{stroke-dasharray:3.003 3.003}.b44593f7-16b6-4a93-80ed-81740c41cf91{stroke-dasharray:3.018 3.018}</style></defs><path class="b0bef269-1796-4615-99cb-4783202cfa9a" d="M758 18.5V441H2V18.5h756m2-2H0V443h760V16.5z"/><path class="b0bef269-1796-4615-99cb-4783202cfa9a" d="M375.5 84h162v334h-162zM25 84h330.5v334H25zM557.5 84h162v334h-162z"/><path class="ea2ef0de-9ef9-4eb0-a179-e665eff7a374" d="M190.25 427.676v45.726H638.5v-45.726"/><path class="a5c49360-24a3-4aa2-ba54-9d0e7e863a85" d="M185.264 429.135l4.986-8.635 4.986 8.635h-9.972zM643.486 429.135L638.5 420.5l-4.987 8.635h9.973z"/><path class="ea2ef0de-9ef9-4eb0-a179-e665eff7a374" d="M456.5 473.402v-45.726"/><path class="a5c49360-24a3-4aa2-ba54-9d0e7e863a85" d="M461.486 429.135L456.5 420.5l-4.987 8.635h9.973z"/><text class="abfb7cef-2e20-4d93-8c7a-2a7aabad64fb" transform="translate(435.743 504.023)">Storage</text><path class="f73825bf-3332-4c0a-a917-a7d8dbd47ac2" d="M438.051 467v10.193c0 5.629 8.26 10.192 18.449 10.192s18.449-4.563 18.449-10.192V467"/><ellipse class="f73825bf-3332-4c0a-a917-a7d8dbd47ac2" cx="456.5" cy="467" rx="18.449" ry="10.192"/><path class="eb63c775-8059-44bd-859b-622049a8dda7" d="M391 99.562h131v86H391z"/><path class="fb392db5-7c11-447b-a3e6-0775b404aa51" d="M521.5 100.062v85h-130v-85h130m1-1h-132v87h132v-87z"/><text class="a2441b4c-b54d-410c-b6ec-6c7920ff3000" transform="translate(405.499 123.324)">Worker VM 1</text><path class="f322d169-ab70-482b-8bf2-420ab8810c7b" d="M405.5 136h102v35h-102z"/><text class="a492a650-cffe-4fd7-b939-c6f739afa894" transform="translate(390.5 402.799)">oVirt host</text><text class="a492a650-cffe-4fd7-b939-c6f739afa894" transform="translate(208.5 68.288)">OKD cluster</text><text class="a492a650-cffe-4fd7-b939-c6f739afa894" transform="translate(25 47.788)">oVirt cluster</text><text class="abfb7cef-2e20-4d93-8c7a-2a7aabad64fb" transform="translate(431.871 156.547)">Workload</text><path class="eb63c775-8059-44bd-859b-622049a8dda7" d="M391 201.562h131v156H391z"/><path class="fb392db5-7c11-447b-a3e6-0775b404aa51" d="M521.5 202.062v155h-130v-155h130m1-1h-132v157h132v-157z"/><text class="a2441b4c-b54d-410c-b6ec-6c7920ff3000" transform="translate(405.499 225.324)">Master VM 1</text><path class="f322d169-ab70-482b-8bf2-420ab8810c7b" d="M405.5 238h102v50h-102z"/><text class="abfb7cef-2e20-4d93-8c7a-2a7aabad64fb" transform="translate(421.559 260.324)">Control plane<tspan x="24.937" y="12">pod</tspan></text><path class="f322d169-ab70-482b-8bf2-420ab8810c7b" d="M405.5 293h102v50h-102z"/><text class="abfb7cef-2e20-4d93-8c7a-2a7aabad64fb" transform="translate(421.559 315.324)">Control plane<tspan x="24.937" y="12">pod</tspan></text><path class="eb63c775-8059-44bd-859b-622049a8dda7" d="M40 99.062h132v87H40z"/><text class="a2441b4c-b54d-410c-b6ec-6c7920ff3000" transform="translate(55 123.324)">Engine VM</text><text class="a492a650-cffe-4fd7-b939-c6f739afa894" transform="translate(40 402.799)">oVirt host</text><path fill="#f3f3f3" d="M40 201.062h132v157H40z"/><text class="a2441b4c-b54d-410c-b6ec-6c7920ff3000" transform="translate(55 225.324)">Bootstrap VM</text><path class="b0bef269-1796-4615-99cb-4783202cfa9a" d="M55 238h102v105H55z"/><text class="abfb7cef-2e20-4d93-8c7a-2a7aabad64fb" transform="translate(77.565 281.824)">Temporary<tspan x="-6.506" y="12">Control plane</tspan><tspan x="18.43" y="24">pod</tspan></text><path class="eb63c775-8059-44bd-859b-622049a8dda7" d="M209 99.562h131v86H209z"/><path class="fb392db5-7c11-447b-a3e6-0775b404aa51" d="M339.5 100.062v85h-130v-85h130m1-1h-132v87h132v-87z"/><text class="a2441b4c-b54d-410c-b6ec-6c7920ff3000" transform="translate(223.5 123.324)">Worker VM 0</text><path class="f322d169-ab70-482b-8bf2-420ab8810c7b" d="M223.5 136h102v35h-102z"/><text class="abfb7cef-2e20-4d93-8c7a-2a7aabad64fb" transform="translate(249.871 156.547)">Workload</text><path class="eb63c775-8059-44bd-859b-622049a8dda7" d="M209 201.562h131v156H209z"/><path class="fb392db5-7c11-447b-a3e6-0775b404aa51" d="M339.5 202.062v155h-130v-155h130m1-1h-132v157h132v-157z"/><text class="a2441b4c-b54d-410c-b6ec-6c7920ff3000" transform="translate(223.5 225.324)">Master VM 0</text><path class="f322d169-ab70-482b-8bf2-420ab8810c7b" d="M223.5 238h102v50h-102z"/><text class="abfb7cef-2e20-4d93-8c7a-2a7aabad64fb" transform="translate(239.559 260.324)">Control plane<tspan x="24.937" y="12">pod</tspan></text><path class="f322d169-ab70-482b-8bf2-420ab8810c7b" d="M223.5 293h102v50h-102z"/><text class="abfb7cef-2e20-4d93-8c7a-2a7aabad64fb" transform="translate(239.559 315.324)">Control plane<tspan x="24.937" y="12">pod</tspan></text><path class="eb63c775-8059-44bd-859b-622049a8dda7" d="M573 99.562h131v86H573z"/><path class="fb392db5-7c11-447b-a3e6-0775b404aa51" d="M703.5 100.062v85h-130v-85h130m1-1h-132v87h132v-87z"/><text class="a2441b4c-b54d-410c-b6ec-6c7920ff3000" transform="translate(587.499 123.324)">Worker VM 2</text><path class="f322d169-ab70-482b-8bf2-420ab8810c7b" d="M587.5 136h102v35h-102z"/><text class="a492a650-cffe-4fd7-b939-c6f739afa894" transform="translate(572.5 402.799)">oVirt host</text><text class="abfb7cef-2e20-4d93-8c7a-2a7aabad64fb" transform="translate(613.871 156.547)">Workload</text><g><path class="eb63c775-8059-44bd-859b-622049a8dda7" d="M573 201.562h131v156H573z"/><path class="fb392db5-7c11-447b-a3e6-0775b404aa51" d="M703.5 202.062v155h-130v-155h130m1-1h-132v157h132v-157z"/></g><text class="a2441b4c-b54d-410c-b6ec-6c7920ff3000" transform="translate(587.499 225.324)">Master VM 2</text><path class="f322d169-ab70-482b-8bf2-420ab8810c7b" d="M587.5 238h102v50h-102z"/><text class="abfb7cef-2e20-4d93-8c7a-2a7aabad64fb" transform="translate(603.559 260.324)">Control plane<tspan x="24.937" y="12">pod</tspan></text><g><path class="afe146c6-7fa3-4b73-b850-4475002cdc9e" d="M734.5 372v1.5H733"/><path class="ae27f5c3-6d80-4894-a05b-b68f39abd414" d="M729.997 373.5H197.001"/><path class="afe146c6-7fa3-4b73-b850-4475002cdc9e" d="M195.5 373.5H194V372"/><path class="b44593f7-16b6-4a93-80ed-81740c41cf91" d="M194 368.982V44.509"/><path class="afe146c6-7fa3-4b73-b850-4475002cdc9e" d="M194 43v-1.5h1.5"/><path class="ae27f5c3-6d80-4894-a05b-b68f39abd414" d="M198.503 41.5h532.995"/><path class="afe146c6-7fa3-4b73-b850-4475002cdc9e" d="M733 41.5h1.5V43"/><path class="b44593f7-16b6-4a93-80ed-81740c41cf91" d="M734.5 46.018v324.473"/></g><text transform="translate(722.091 502.467)" font-size="10" font-family="RedHatText,&quot;Red Hat Text&quot;,Overpass,&quot;Helvetica Neue&quot;,Arial,sans-serif" fill="#f3f3f3">193_1021</text><path fill="none" d="M0 480.107h760v40H0z"/></svg>