<svg id="e0b2b582-10d3-45f8-b9ea-4322336eb3b5" data-name="artwork" xmlns="http://www.w3.org/2000/svg" width="760" height="569.513"><defs><style>.bb82b41d-5590-4138-b941-65aaf9e82bfe{fill:#e8e8e8}.a16bcf64-eb55-4518-8012-4bd88208e618,.b888b898-9c9f-4549-885b-55e24b8d269c,.e8393593-12d2-4b05-bae2-8a12cd3841b2{fill:#fff}.b0a28115-4a80-405d-81e1-e1e3127a137c,.b6c51b66-f06d-4096-ba58-b732c387852f{fill:none}.b6c51b66-f06d-4096-ba58-b732c387852f{stroke:#151515}.b0a28115-4a80-405d-81e1-e1e3127a137c,.b6c51b66-f06d-4096-ba58-b732c387852f{stroke-linecap:round;stroke-linejoin:round}.a81a8d73-8778-493b-b190-3f01c0513afc,.a996be43-7337-40e8-a900-8c4787dfacad,.acd90c0e-eb2b-4747-af7e-6be9d1e207ae,.b5c28785-b155-46d1-8972-a52e2752252f,.b86f68d5-8fa4-492d-a189-a853784d07a2{fill:#151515}.a996be43-7337-40e8-a900-8c4787dfacad{font-size:14px}.a996be43-7337-40e8-a900-8c4787dfacad,.b5c28785-b155-46d1-8972-a52e2752252f,.e8393593-12d2-4b05-bae2-8a12cd3841b2{font-family:RedHatText,&quot;Red Hat Text&quot;,Overpass,&quot;Helvetica Neue&quot;,Arial,sans-serif;font-weight:700}.b64e6b83-373b-49c9-af5b-c46c52732b71{fill:#06c}.a16bcf64-eb55-4518-8012-4bd88208e618,.a81a8d73-8778-493b-b190-3f01c0513afc,.b5c28785-b155-46d1-8972-a52e2752252f{font-size:12px}.a16bcf64-eb55-4518-8012-4bd88208e618,.a81a8d73-8778-493b-b190-3f01c0513afc{font-family:RedHatText,&quot;Red Hat Text&quot;,Overpass,&quot;Helvetica Neue&quot;,Arial,sans-serif;font-weight:500}.e8393593-12d2-4b05-bae2-8a12cd3841b2{font-size:11px}.b86f68d5-8fa4-492d-a189-a853784d07a2{font-size:9px;font-family:LiberationMono,&quot;Liberation Mono&quot;,Consolas,Monaco,&quot;Andale Mono&quot;,monospace}.b0a28115-4a80-405d-81e1-e1e3127a137c{stroke:#5b5b5b;stroke-width:1.5px}</style></defs><path d="M549 27.013v47H1v-47h548m1-1H0v49h550v-49z" fill="#c4c4c4"/><path class="bb82b41d-5590-4138-b941-65aaf9e82bfe" d="M0 100.513h550v429H0z"/><path class="b888b898-9c9f-4549-885b-55e24b8d269c" d="M15 198.013h160v100H15z"/><path class="bb82b41d-5590-4138-b941-65aaf9e82bfe" d="M570 100.513h190v429H570z"/><path class="b6c51b66-f06d-4096-ba58-b732c387852f" d="M50 288.013v105.5h22.931"/><path class="acd90c0e-eb2b-4747-af7e-6be9d1e207ae" d="M71.472 398.5l8.635-4.987-8.635-4.986v9.973z"/><text class="a996be43-7337-40e8-a900-8c4787dfacad" transform="translate(584.999 127.802)">IdM server</text><path class="b888b898-9c9f-4549-885b-55e24b8d269c" d="M220 198.013h315v316.5H220z"/><path class="b6c51b66-f06d-4096-ba58-b732c387852f" d="M300 288.013v76.824"/><path class="acd90c0e-eb2b-4747-af7e-6be9d1e207ae" d="M295.014 363.378l4.986 8.635 4.986-8.635h-9.972z"/><path class="b888b898-9c9f-4549-885b-55e24b8d269c" d="M385.5 238.514h139v49h-139z"/><path class="b64e6b83-373b-49c9-af5b-c46c52732b71" d="M524 239.013v48H386v-48h138m1-1H385v50h140v-50z"/><text class="a81a8d73-8778-493b-b190-3f01c0513afc" transform="translate(424.766 266.337)">LDB cache</text><path class="b888b898-9c9f-4549-885b-55e24b8d269c" d="M25.5 465.014h139v49h-139z"/><path class="b64e6b83-373b-49c9-af5b-c46c52732b71" d="M164 465.513v48H26v-48h138m1-1H25v50h140v-50z"/><text class="a81a8d73-8778-493b-b190-3f01c0513afc" transform="translate(64.545 492.837)">memcache</text><circle class="acd90c0e-eb2b-4747-af7e-6be9d1e207ae" cx="50" cy="328.481" r="13"/><text class="e8393593-12d2-4b05-bae2-8a12cd3841b2" transform="translate(46.467 332.266)">2</text><path class="b6c51b66-f06d-4096-ba58-b732c387852f" d="M140 297.69v95.823h-28.354"/><path class="acd90c0e-eb2b-4747-af7e-6be9d1e207ae" d="M135.014 299.149l4.986-8.636 4.987 8.636h-9.973z"/><path class="b6c51b66-f06d-4096-ba58-b732c387852f" d="M665 297.69v25.647"/><path class="acd90c0e-eb2b-4747-af7e-6be9d1e207ae" d="M660.014 299.149l4.986-8.636 4.986 8.636h-9.972zM660.014 321.878l4.986 8.635 4.986-8.635h-9.972z"/><circle class="acd90c0e-eb2b-4747-af7e-6be9d1e207ae" cx="140" cy="328.481" r="13"/><text class="e8393593-12d2-4b05-bae2-8a12cd3841b2" transform="translate(136.269 332.266)">3</text><path class="b6c51b66-f06d-4096-ba58-b732c387852f" d="M370 399.513h85V297.69"/><path class="acd90c0e-eb2b-4747-af7e-6be9d1e207ae" d="M459.986 299.149L455 290.513l-4.986 8.636h9.972z"/><circle class="acd90c0e-eb2b-4747-af7e-6be9d1e207ae" cx="455" cy="328.481" r="13"/><text class="e8393593-12d2-4b05-bae2-8a12cd3841b2" transform="translate(448.832 332.266)">10</text><path class="b6c51b66-f06d-4096-ba58-b732c387852f" d="M292.5 434.19v55.323h381.25v-55"/><path class="acd90c0e-eb2b-4747-af7e-6be9d1e207ae" d="M287.514 435.649l4.986-8.636 4.986 8.636h-9.972z"/><path class="b6c51b66-f06d-4096-ba58-b732c387852f" d="M307.5 424.513v35h351.25V444.19"/><path class="acd90c0e-eb2b-4747-af7e-6be9d1e207ae" d="M663.736 445.649l-4.986-8.636-4.986 8.636h9.972z"/><circle class="acd90c0e-eb2b-4747-af7e-6be9d1e207ae" cx="455" cy="459.513" r="13"/><text class="e8393593-12d2-4b05-bae2-8a12cd3841b2" transform="translate(451.241 463.299)">8</text><circle class="acd90c0e-eb2b-4747-af7e-6be9d1e207ae" cx="455" cy="489.513" r="13"/><text class="e8393593-12d2-4b05-bae2-8a12cd3841b2" transform="translate(451.191 493.299)">9</text><path class="b6c51b66-f06d-4096-ba58-b732c387852f" d="M165 263.013h32.5v226.5h-22.824"/><path class="acd90c0e-eb2b-4747-af7e-6be9d1e207ae" d="M176.135 484.527l-8.635 4.986 8.635 4.987v-9.973z"/><circle class="acd90c0e-eb2b-4747-af7e-6be9d1e207ae" cx="197.5" cy="328.481" r="13"/><text class="e8393593-12d2-4b05-bae2-8a12cd3841b2" transform="translate(193.455 332.266)">4</text><circle class="acd90c0e-eb2b-4747-af7e-6be9d1e207ae" cx="300" cy="328.481" r="13"/><text class="e8393593-12d2-4b05-bae2-8a12cd3841b2" transform="translate(296.351 332.266)">7</text><path class="b6c51b66-f06d-4096-ba58-b732c387852f" d="M285 228.337v-92.824H110v102.5"/><path class="acd90c0e-eb2b-4747-af7e-6be9d1e207ae" d="M289.986 226.878L285 235.513l-4.986-8.635h9.972z"/><path class="b6c51b66-f06d-4096-ba58-b732c387852f" d="M470 228.337v-92.824H315v102.5"/><path class="acd90c0e-eb2b-4747-af7e-6be9d1e207ae" d="M474.986 226.878L470 235.513l-4.986-8.635h9.972z"/><path class="b6c51b66-f06d-4096-ba58-b732c387852f" d="M440 228.337v-77.824h-95v87.5"/><path class="acd90c0e-eb2b-4747-af7e-6be9d1e207ae" d="M444.986 226.878L440 235.513l-4.986-8.635h9.972z"/><circle class="acd90c0e-eb2b-4747-af7e-6be9d1e207ae" cx="470" cy="175.513" r="13"/><text class="e8393593-12d2-4b05-bae2-8a12cd3841b2" transform="translate(466.17 179.299)">6</text><path class="b6c51b66-f06d-4096-ba58-b732c387852f" d="M255 238.013v-87.5H140v77.824"/><path class="acd90c0e-eb2b-4747-af7e-6be9d1e207ae" d="M135.014 226.878l4.986 8.635 4.986-8.635h-9.972z"/><circle class="acd90c0e-eb2b-4747-af7e-6be9d1e207ae" cx="440" cy="175.513" r="13"/><text class="e8393593-12d2-4b05-bae2-8a12cd3841b2" transform="translate(435.515 179.299)">11</text><path class="b64e6b83-373b-49c9-af5b-c46c52732b71" d="M25 238.013h140v50H25z"/><text class="a16bcf64-eb55-4518-8012-4bd88208e618" transform="translate(74.355 266.337)">nss_sss</text><path class="b64e6b83-373b-49c9-af5b-c46c52732b71" d="M230 374.513h140v50H230z"/><text class="a16bcf64-eb55-4518-8012-4bd88208e618" transform="translate(277.83 402.837)">sssd_be</text><path class="b64e6b83-373b-49c9-af5b-c46c52732b71" d="M230 238.013h140v50H230z"/><text class="a16bcf64-eb55-4518-8012-4bd88208e618" transform="translate(275.695 266.337)">sssd_nss</text><path class="b888b898-9c9f-4549-885b-55e24b8d269c" d="M585 198.013h160v90H585z"/><text class="b5c28785-b155-46d1-8972-a52e2752252f" transform="translate(595 216.618)">SSSD</text><path class="b888b898-9c9f-4549-885b-55e24b8d269c" d="M585 333.013h160v101.5H585z"/><text class="b5c28785-b155-46d1-8972-a52e2752252f" transform="translate(595 351.618)">LDAP<tspan x="0" y="13">Directory Server</tspan></text><path class="b64e6b83-373b-49c9-af5b-c46c52732b71" d="M595 374.513h140v50H595z"/><text class="a16bcf64-eb55-4518-8012-4bd88208e618" transform="translate(644.714 390.837)">IdM DS<tspan x="-20.508" y="12">extdom_extop</tspan><tspan x="2.958" y="24">plugin</tspan></text><path stroke-width="8" stroke="#fff" stroke-linecap="round" stroke-linejoin="round" fill="none" d="M49.768 73.531v12.275"/><g><path stroke-width="2" stroke="#fff" stroke-linecap="round" stroke-linejoin="round" fill="none" d="M79.767 77.62v7.449"/><path class="b888b898-9c9f-4549-885b-55e24b8d269c" d="M69.795 80.538l9.972-17.271 9.973 17.271H69.795z"/></g><g><path class="b6c51b66-f06d-4096-ba58-b732c387852f" d="M50 70v158.337"/><path class="acd90c0e-eb2b-4747-af7e-6be9d1e207ae" d="M45.014 226.878L50 235.513l4.986-8.635h-9.972z"/></g><g><path class="b6c51b66-f06d-4096-ba58-b732c387852f" d="M80 238.013V79.176"/><path class="acd90c0e-eb2b-4747-af7e-6be9d1e207ae" d="M84.986 80.635L80 72l-4.986 8.635h9.972z"/></g><g><circle class="acd90c0e-eb2b-4747-af7e-6be9d1e207ae" cx="50" cy="175.513" r="13"/><text class="e8393593-12d2-4b05-bae2-8a12cd3841b2" transform="translate(47.633 179.299)">1</text></g><g><circle class="acd90c0e-eb2b-4747-af7e-6be9d1e207ae" cx="80" cy="175.513" r="13"/><text class="e8393593-12d2-4b05-bae2-8a12cd3841b2" transform="translate(74.151 179.299)">13</text></g><path class="bb82b41d-5590-4138-b941-65aaf9e82bfe" d="M35.226 114.013h53.548v18.099H35.226z"/><text class="a996be43-7337-40e8-a900-8c4787dfacad" transform="translate(15 127.802)">IdM client</text><path class="b888b898-9c9f-4549-885b-55e24b8d269c" d="M20 207.109h53.548v12.752H20zM226.453 205.44h51.025v14.421h-51.025z"/><text class="b5c28785-b155-46d1-8972-a52e2752252f" transform="translate(25 216.618)">libpam</text><g><text class="b86f68d5-8fa4-492d-a189-a853784d07a2" transform="translate(62.395 427.093)">nsswitch.conf</text><path stroke="#5b5b5b" stroke-width="1.5" stroke-linecap="round" stroke-linejoin="round" fill="#fff" d="M111.646 410.541H83.354V379.53l5.761-5.767h22.531v36.778z"/><path class="b0a28115-4a80-405d-81e1-e1e3127a137c" d="M89.115 379.53h-5.761l5.761-5.767v5.767zM88.993 386.498H97.5M88.993 392.133h17.014M88.993 397.768h17.014M88.993 403.404h17.014"/></g><g><circle class="acd90c0e-eb2b-4747-af7e-6be9d1e207ae" cx="255.25" cy="175.513" r="13"/><text class="e8393593-12d2-4b05-bae2-8a12cd3841b2" transform="translate(251.612 179.299)">5</text></g><g><circle class="acd90c0e-eb2b-4747-af7e-6be9d1e207ae" cx="285.25" cy="175.513" r="13"/><text class="e8393593-12d2-4b05-bae2-8a12cd3841b2" transform="translate(279.599 179.299)">12</text></g><text class="b5c28785-b155-46d1-8972-a52e2752252f" transform="translate(230 216.618)">SSSD</text><g><text transform="translate(667.792 552.531)" font-size="10" fill="#ececec" font-family="RedHatText,&quot;Red Hat Text&quot;,Overpass,&quot;Helvetica Neue&quot;,Arial,sans-serif">170_OpenShift_0621</text><path fill="none" d="M0 529.513h760v40H0z"/></g><path class="bb82b41d-5590-4138-b941-65aaf9e82bfe" transform="rotate(-180 275 50.513)" d="M5 31.013h540v39H5z"/><text class="b86f68d5-8fa4-492d-a189-a853784d07a2" transform="translate(15 53.837)">{user@client ~]$ getent passwd <tspan x="167.427" y="0" font-family="LiberationMono,&quot;Liberation Mono&quot;,Consolas,Monaco,&quot;Andale Mono&quot;,monospace" font-style="italic">&lt;idm_user_name&gt;</tspan></text></svg>