<svg id="f113f6b6-bb4e-4df8-972d-667f274b1148" data-name="artwork" xmlns="http://www.w3.org/2000/svg" width="760" height="546.513"><defs><style>.fb69183d-c104-4d9a-a3d5-8b11439ee455{fill:#e8e8e8}.a085817d-a89b-423d-a349-1c41661a5144,.e30b5345-9000-4f0a-9028-60c96b137a95{fill:#fff}.b7e5e09f-0b5e-4e49-b9f7-747c98f06514{font-size:14px;fill:#151515}.b99e7f7b-9575-4e27-b85e-f19097a39903,.f97b9949-d1da-43a9-977d-a9ef92384e93{fill:#151515}.b7e5e09f-0b5e-4e49-b9f7-747c98f06514,.e30b5345-9000-4f0a-9028-60c96b137a95,.f97b9949-d1da-43a9-977d-a9ef92384e93{font-family:RedHatText,&quot;Red Hat Text&quot;,Overpass,&quot;Helvetica Neue&quot;,Arial,sans-serif;font-weight:700}.f2323ea9-7de1-4a19-8637-ca6ead9a1b7d{fill:none;stroke:#151515;stroke-linecap:round;stroke-linejoin:round}.e30b5345-9000-4f0a-9028-60c96b137a95{font-size:11px}.f97b9949-d1da-43a9-977d-a9ef92384e93{font-size:12px}</style></defs><path d="M609 27.013v47H1v-47h608m1-1H0v49h610v-49z" fill="#c4c4c4"/><path class="fb69183d-c104-4d9a-a3d5-8b11439ee455" d="M210 100.513h190v406H210z"/><path class="a085817d-a89b-423d-a349-1c41661a5144" d="M225 378.013h160v113.5H225z"/><path class="fb69183d-c104-4d9a-a3d5-8b11439ee455" d="M0 100.513h190v406H0zM420 100.513h190v406H420z"/><text class="b7e5e09f-0b5e-4e49-b9f7-747c98f06514" transform="translate(434.999 127.802)">Active Directory <tspan x="0" y="15">domain controller</tspan></text><path class="f2323ea9-7de1-4a19-8637-ca6ead9a1b7d" d="M75 323.013v141h150.324"/><path class="b99e7f7b-9575-4e27-b85e-f19097a39903" d="M223.865 469l8.635-4.987-8.635-4.986V469z"/><circle class="b99e7f7b-9575-4e27-b85e-f19097a39903" cx="75" cy="353.481" r="13"/><text class="e30b5345-9000-4f0a-9028-60c96b137a95" transform="translate(71.467 357.266)">2</text><path class="f2323ea9-7de1-4a19-8637-ca6ead9a1b7d" d="M115 332.69v116.323h120"/><path class="b99e7f7b-9575-4e27-b85e-f19097a39903" d="M110.014 334.149l4.986-8.636 4.986 8.636h-9.972z"/><circle class="b99e7f7b-9575-4e27-b85e-f19097a39903" cx="115" cy="353.481" r="13"/><text class="e30b5345-9000-4f0a-9028-60c96b137a95" transform="translate(111.351 357.266)">7</text><text class="b7e5e09f-0b5e-4e49-b9f7-747c98f06514" transform="translate(224.999 127.802)">IdM server</text><path fill="#06c" d="M235 431.513h140v50H235z"/><text transform="translate(284.714 447.837)" font-family="RedHatText,&quot;Red Hat Text&quot;,Overpass,&quot;Helvetica Neue&quot;,Arial,sans-serif" font-weight="500" font-size="12" fill="#fff">IdM DS<tspan x="-20.508" y="12">extdom_extop</tspan><tspan x="2.958" y="24">plugin</tspan></text><path stroke-width="8" stroke="#fff" stroke-linecap="round" stroke-linejoin="round" fill="none" d="M69.768 73.531v12.275"/><path stroke-width="2" stroke="#fff" stroke-linecap="round" stroke-linejoin="round" fill="none" d="M119.767 77.62v7.449"/><path class="a085817d-a89b-423d-a349-1c41661a5144" d="M109.795 80.538l9.972-17.271 9.973 17.271h-19.945z"/><path class="f2323ea9-7de1-4a19-8637-ca6ead9a1b7d" d="M70 70v153.337"/><path class="b99e7f7b-9575-4e27-b85e-f19097a39903" d="M65.014 221.878L70 230.513l4.986-8.635h-9.972z"/><path class="f2323ea9-7de1-4a19-8637-ca6ead9a1b7d" d="M120 233.013V79.176"/><path class="b99e7f7b-9575-4e27-b85e-f19097a39903" d="M124.986 80.635L120 72l-4.986 8.635h9.972z"/><circle class="b99e7f7b-9575-4e27-b85e-f19097a39903" cx="70" cy="200.513" r="13"/><text class="e30b5345-9000-4f0a-9028-60c96b137a95" transform="translate(67.633 204.299)">1</text><circle class="b99e7f7b-9575-4e27-b85e-f19097a39903" cx="120" cy="200.513" r="13"/><text class="e30b5345-9000-4f0a-9028-60c96b137a95" transform="translate(116.241 204.299)">8</text><path class="fb69183d-c104-4d9a-a3d5-8b11439ee455" d="M35.226 114.013h53.548v18.099H35.226z"/><text class="b7e5e09f-0b5e-4e49-b9f7-747c98f06514" transform="translate(15 127.802)">IdM client</text><path class="a085817d-a89b-423d-a349-1c41661a5144" d="M20 242.109h53.548v12.752H20z"/><path class="a085817d-a89b-423d-a349-1c41661a5144" d="M15 233.013h160v90H15z"/><text class="f97b9949-d1da-43a9-977d-a9ef92384e93" transform="translate(25 251.618)">SSSD</text><path class="f2323ea9-7de1-4a19-8637-ca6ead9a1b7d" d="M522 223.337v-62.824H279.5v72.5"/><path class="b99e7f7b-9575-4e27-b85e-f19097a39903" d="M526.986 221.878L522 230.513l-4.986-8.635h9.972z"/><path class="f2323ea9-7de1-4a19-8637-ca6ead9a1b7d" d="M507 233.013v-57.5H329.5v47.824"/><path class="b99e7f7b-9575-4e27-b85e-f19097a39903" d="M324.514 221.878l4.986 8.635 4.986-8.635h-9.972z"/><circle class="b99e7f7b-9575-4e27-b85e-f19097a39903" cx="329.5" cy="200.513" r="13"/><text class="e30b5345-9000-4f0a-9028-60c96b137a95" transform="translate(325.862 204.299)">5</text><circle class="b99e7f7b-9575-4e27-b85e-f19097a39903" cx="279.75" cy="200.513" r="13"/><text class="e30b5345-9000-4f0a-9028-60c96b137a95" transform="translate(275.705 204.299)">4</text><g><path class="f2323ea9-7de1-4a19-8637-ca6ead9a1b7d" d="M279.5 332.69v98.823"/><path class="b99e7f7b-9575-4e27-b85e-f19097a39903" d="M274.514 334.149l4.986-8.636 4.986 8.636h-9.972z"/></g><g><path class="f2323ea9-7de1-4a19-8637-ca6ead9a1b7d" d="M329.5 323.013v98.824"/><path class="b99e7f7b-9575-4e27-b85e-f19097a39903" d="M324.514 420.378l4.986 8.635 4.986-8.635h-9.972z"/></g><g><circle class="b99e7f7b-9575-4e27-b85e-f19097a39903" cx="329.5" cy="353.481" r="13"/><text class="e30b5345-9000-4f0a-9028-60c96b137a95" transform="translate(325.67 357.266)">6</text></g><g><circle class="b99e7f7b-9575-4e27-b85e-f19097a39903" cx="279.75" cy="353.481" r="13"/><text class="e30b5345-9000-4f0a-9028-60c96b137a95" transform="translate(276.019 357.266)">3</text></g><path class="a085817d-a89b-423d-a349-1c41661a5144" d="M225 233.013h160v90H225z"/><text class="f97b9949-d1da-43a9-977d-a9ef92384e93" transform="translate(235 251.618)">SSSD</text><path class="a085817d-a89b-423d-a349-1c41661a5144" d="M435 233.013h160v90H435z"/><text class="f97b9949-d1da-43a9-977d-a9ef92384e93" transform="translate(445 251.618)">LDAP <tspan x="0" y="13">Directory Server</tspan></text><path class="a085817d-a89b-423d-a349-1c41661a5144" d="M230 400.11h110.472v12.752H230z"/><text class="f97b9949-d1da-43a9-977d-a9ef92384e93" transform="translate(235 396.618)">LDAP <tspan x="0" y="13">Directory Server</tspan></text><g><text transform="translate(667.792 529.531)" font-size="10" fill="#ececec" font-family="RedHatText,&quot;Red Hat Text&quot;,Overpass,&quot;Helvetica Neue&quot;,Arial,sans-serif">170_OpenShift_0621</text><path fill="none" d="M0 506.513h760v40H0z"/></g><path class="fb69183d-c104-4d9a-a3d5-8b11439ee455" transform="rotate(-180 305 50.513)" d="M5 31.013h600v39H5z"/><text transform="translate(15 53.837)" font-size="9" font-family="LiberationMono,&quot;Liberation Mono&quot;,Consolas,Monaco,&quot;Andale Mono&quot;,monospace" fill="#151515">{user@client ~]$ getent passwd <tspan x="167.427" y="0" font-style="italic">&lt;ad_user_name&gt;@ad.example.com</tspan></text></svg>