<svg id="ef42d193-3b4b-41d1-9559-452116d734d0" data-name="artwork" xmlns="http://www.w3.org/2000/svg" width="760" height="722.014"><defs><style>.abe5d37c-6dc5-4ddd-a0c6-8d5841da307d,.bc5db273-b1fc-4567-bd4d-437b43638cb4{fill:none}.a0918252-6fce-4570-b1d9-40f50f1ebf85{fill:#e8e8e8}.abe5d37c-6dc5-4ddd-a0c6-8d5841da307d{stroke:#151515}.abe5d37c-6dc5-4ddd-a0c6-8d5841da307d,.bc5db273-b1fc-4567-bd4d-437b43638cb4,.e9d1c7e3-bfa3-4f50-af1c-c6ea0e9fd8f3{stroke-linecap:round;stroke-linejoin:round}.a10fa43c-3519-4ac1-85f5-5f9645c848d6,.a50bd736-0ee7-429c-b808-d6aa951cb60f,.baa866eb-1736-443d-af7d-3fab4dd07d9f,.bfeb79b5-03eb-42a0-ab15-d8a504e87268,.f4e24527-3613-4a02-83b2-08412334c96c{fill:#151515}.baa866eb-1736-443d-af7d-3fab4dd07d9f{font-size:14px}.a10fa43c-3519-4ac1-85f5-5f9645c848d6,.b04ea9f8-20da-417c-82fe-6c9a30165785,.baa866eb-1736-443d-af7d-3fab4dd07d9f{font-family:RedHatText,&quot;Red Hat Text&quot;,Overpass,&quot;Helvetica Neue&quot;,Arial,sans-serif}.a10fa43c-3519-4ac1-85f5-5f9645c848d6,.b04ea9f8-20da-417c-82fe-6c9a30165785,.b87bc260-409a-41fb-8979-54b098ecbb76,.baa866eb-1736-443d-af7d-3fab4dd07d9f{font-weight:700}.a270d289-2b15-4694-a3e6-78261b165175,.b04ea9f8-20da-417c-82fe-6c9a30165785,.e9d1c7e3-bfa3-4f50-af1c-c6ea0e9fd8f3,.f3347bb4-e789-40fc-b8dd-b78f54fa312e{fill:#fff}.a10fa43c-3519-4ac1-85f5-5f9645c848d6,.a270d289-2b15-4694-a3e6-78261b165175,.a50bd736-0ee7-429c-b808-d6aa951cb60f{font-size:12px}.ac25d45f-758f-47da-bc17-1b63c678abde{fill:#e5f0fa}.a270d289-2b15-4694-a3e6-78261b165175,.a50bd736-0ee7-429c-b808-d6aa951cb60f{font-family:RedHatText,&quot;Red Hat Text&quot;,Overpass,&quot;Helvetica Neue&quot;,Arial,sans-serif;font-weight:500}.f4e24527-3613-4a02-83b2-08412334c96c{font-size:9px}.b87bc260-409a-41fb-8979-54b098ecbb76,.f4e24527-3613-4a02-83b2-08412334c96c{font-family:LiberationMono,&quot;Liberation Mono&quot;,Consolas,Monaco,&quot;Andale Mono&quot;,monospace}.bc5db273-b1fc-4567-bd4d-437b43638cb4,.e9d1c7e3-bfa3-4f50-af1c-c6ea0e9fd8f3{stroke:#5b5b5b;stroke-width:1.5px}.b093a3be-2c58-47c7-8dd1-7d409cae3000{fill:#06c}.b04ea9f8-20da-417c-82fe-6c9a30165785{font-size:11px}</style></defs><path d="M549 16.014v47H1v-47h548m1-1H0v49h550v-49z" fill="#c4c4c4"/><text transform="translate(667.792 705.031)" font-size="10" fill="#ececec" font-family="RedHatText,&quot;Red Hat Text&quot;,Overpass,&quot;Helvetica Neue&quot;,Arial,sans-serif">170_OpenShift_0621</text><path fill="none" d="M0 682.014h760v40H0z"/><path class="a0918252-6fce-4570-b1d9-40f50f1ebf85" d="M0 99.513h550v582.5H0zM590 99.513h170v582.5H590z"/><path class="abe5d37c-6dc5-4ddd-a0c6-8d5841da307d" d="M95 317.013v57.824"/><path class="bfeb79b5-03eb-42a0-ab15-d8a504e87268" d="M90.014 373.378L95 382.014l4.987-8.636h-9.973z"/><text class="baa866eb-1736-443d-af7d-3fab4dd07d9f" transform="translate(604.999 126.802)">IdM server or <tspan x="0" y="15">Active Directory </tspan><tspan x="0" y="30">domain controller</tspan></text><path class="f3347bb4-e789-40fc-b8dd-b78f54fa312e" d="M15 217.013h160v100H15zM220 217.013h315v450H220z"/><text class="a10fa43c-3519-4ac1-85f5-5f9645c848d6" transform="translate(230 235.618)">SSSD</text><path class="ac25d45f-758f-47da-bc17-1b63c678abde" transform="rotate(-180 480 282.013)" d="M435 257.013h90v50h-90z"/><text class="a50bd736-0ee7-429c-b808-d6aa951cb60f" transform="translate(456.132 285.337)">p11_child</text><text class="f4e24527-3613-4a02-83b2-08412334c96c" transform="translate(35.59 438.593)">/etc/pam.d/system-auth<tspan x="-10.802" y="12">auth sufficient </tspan><tspan class="b87bc260-409a-41fb-8979-54b098ecbb76" x="75.612" y="12">pam_sss_so</tspan></text><path class="e9d1c7e3-bfa3-4f50-af1c-c6ea0e9fd8f3" d="M109.146 422.041H80.854V391.03l5.761-5.767h22.531v36.778z"/><path class="bc5db273-b1fc-4567-bd4d-437b43638cb4" d="M86.615 391.03h-5.761l5.761-5.767v5.767zM86.493 397.998H95M86.493 403.633h17.014M86.493 409.268h17.014M86.493 414.904h17.014"/><path class="abe5d37c-6dc5-4ddd-a0c6-8d5841da307d" d="M300 316.69v67.824"/><path class="bfeb79b5-03eb-42a0-ab15-d8a504e87268" d="M295.014 318.149l4.986-8.636 4.986 8.636h-9.972z"/><path class="abe5d37c-6dc5-4ddd-a0c6-8d5841da307d" d="M330 307.013v67.824"/><path class="bfeb79b5-03eb-42a0-ab15-d8a504e87268" d="M325.014 373.378l4.986 8.636 4.986-8.636h-9.972z"/><path class="abe5d37c-6dc5-4ddd-a0c6-8d5841da307d" d="M360 307.013v67.824"/><path class="bfeb79b5-03eb-42a0-ab15-d8a504e87268" d="M355.014 373.378l4.986 8.636 4.986-8.636h-9.972z"/><path class="abe5d37c-6dc5-4ddd-a0c6-8d5841da307d" d="M415.5 282.013h9.324"/><path class="bfeb79b5-03eb-42a0-ab15-d8a504e87268" d="M423.365 287l8.635-4.987-8.635-4.986V287z"/><path class="abe5d37c-6dc5-4ddd-a0c6-8d5841da307d" d="M379.676 282.013h9.824"/><path class="bfeb79b5-03eb-42a0-ab15-d8a504e87268" d="M381.135 287l-8.635-4.987 8.635-4.986V287z"/><path class="abe5d37c-6dc5-4ddd-a0c6-8d5841da307d" d="M270 307.013v67.824"/><path class="bfeb79b5-03eb-42a0-ab15-d8a504e87268" d="M265.014 373.378l4.986 8.636 4.986-8.636h-9.972z"/><path class="abe5d37c-6dc5-4ddd-a0c6-8d5841da307d" d="M240 307.013v67.824"/><path class="bfeb79b5-03eb-42a0-ab15-d8a504e87268" d="M235.014 373.378l4.986 8.636 4.986-8.636h-9.972z"/><path class="f3347bb4-e789-40fc-b8dd-b78f54fa312e" d="M385.5 515.014h139v49h-139z"/><path class="b093a3be-2c58-47c7-8dd1-7d409cae3000" d="M524 515.514v48H386v-48h138m1-1H385v50h140v-50z"/><text class="a50bd736-0ee7-429c-b808-d6aa951cb60f" transform="translate(429.272 536.837)">Kerberos<tspan x="-20.459" y="12">credential cache</tspan></text><path class="f3347bb4-e789-40fc-b8dd-b78f54fa312e" d="M25.5 515.014h139v49h-139z"/><path class="b093a3be-2c58-47c7-8dd1-7d409cae3000" d="M164 515.514v48H26v-48h138m1-1H25v50h140v-50z"/><text class="a50bd736-0ee7-429c-b808-d6aa951cb60f" transform="translate(53.979 536.837)">Environmental<tspan x="18.684" y="12">variable</tspan></text><circle class="bfeb79b5-03eb-42a0-ab15-d8a504e87268" cx="240" cy="344.981" r="13"/><text class="b04ea9f8-20da-417c-82fe-6c9a30165785" transform="translate(236.362 348.766)">5</text><circle class="bfeb79b5-03eb-42a0-ab15-d8a504e87268" cx="95" cy="344.981" r="13"/><text class="b04ea9f8-20da-417c-82fe-6c9a30165785" transform="translate(91.467 348.766)">2</text><circle class="bfeb79b5-03eb-42a0-ab15-d8a504e87268" cx="402.5" cy="282.013" r="13"/><text class="b04ea9f8-20da-417c-82fe-6c9a30165785" transform="translate(398.455 285.799)">4</text><path class="abe5d37c-6dc5-4ddd-a0c6-8d5841da307d" d="M370 409.514h55.324"/><path class="bfeb79b5-03eb-42a0-ab15-d8a504e87268" d="M423.865 414.5l8.635-4.986-8.635-4.987v9.973z"/><path class="abe5d37c-6dc5-4ddd-a0c6-8d5841da307d" d="M480 434.514v25H330V444.19"/><path class="bfeb79b5-03eb-42a0-ab15-d8a504e87268" d="M334.986 445.649L330 437.014l-4.986 8.635h9.972z"/><path class="abe5d37c-6dc5-4ddd-a0c6-8d5841da307d" d="M480 460.014v44.823"/><path class="bfeb79b5-03eb-42a0-ab15-d8a504e87268" d="M475.013 503.378l4.987 8.636 4.986-8.636h-9.973z"/><circle class="bfeb79b5-03eb-42a0-ab15-d8a504e87268" cx="402.5" cy="409.514" r="13"/><text class="b04ea9f8-20da-417c-82fe-6c9a30165785" transform="translate(396.849 413.299)">12</text><path class="abe5d37c-6dc5-4ddd-a0c6-8d5841da307d" d="M535.12 409.514H605"/><path class="bfeb79b5-03eb-42a0-ab15-d8a504e87268" d="M536.579 414.5l-8.635-4.986 8.635-4.987v9.973z"/><circle class="bfeb79b5-03eb-42a0-ab15-d8a504e87268" cx="570" cy="409.514" r="13"/><text class="b04ea9f8-20da-417c-82fe-6c9a30165785" transform="translate(563.838 413.299)">14</text><path class="abe5d37c-6dc5-4ddd-a0c6-8d5841da307d" d="M675 374.837v-15.324H480v25.001"/><path class="bfeb79b5-03eb-42a0-ab15-d8a504e87268" d="M679.986 373.378L675 382.013l-4.987-8.635h9.973z"/><circle class="bfeb79b5-03eb-42a0-ab15-d8a504e87268" cx="570" cy="359.514" r="13"/><text class="b04ea9f8-20da-417c-82fe-6c9a30165785" transform="translate(564.151 363.299)">13</text><path class="abe5d37c-6dc5-4ddd-a0c6-8d5841da307d" d="M535.12 629.514H682.5v-195"/><path class="bfeb79b5-03eb-42a0-ab15-d8a504e87268" d="M536.579 634.5l-8.635-4.986 8.635-4.987v9.973z"/><circle class="bfeb79b5-03eb-42a0-ab15-d8a504e87268" cx="570" cy="629.514" r="13"/><text class="b04ea9f8-20da-417c-82fe-6c9a30165785" transform="translate(563.007 633.299)">9a</text><path class="abe5d37c-6dc5-4ddd-a0c6-8d5841da307d" d="M667.5 446.19v133.324H480v25"/><path class="bfeb79b5-03eb-42a0-ab15-d8a504e87268" d="M662.513 447.649l4.987-8.635 4.986 8.635h-9.973z"/><circle class="bfeb79b5-03eb-42a0-ab15-d8a504e87268" cx="570" cy="579.514" r="13"/><text class="b04ea9f8-20da-417c-82fe-6c9a30165785" transform="translate(566.241 583.299)">8</text><circle class="bfeb79b5-03eb-42a0-ab15-d8a504e87268" cx="402.5" cy="459.514" r="13"/><text class="b04ea9f8-20da-417c-82fe-6c9a30165785" transform="translate(393.202 463.299)">15b</text><path class="abe5d37c-6dc5-4ddd-a0c6-8d5841da307d" d="M425.324 637.014H270v-202.5"/><path class="bfeb79b5-03eb-42a0-ab15-d8a504e87268" d="M423.865 632.027l8.635 4.987-8.635 4.986v-9.973z"/><path class="abe5d37c-6dc5-4ddd-a0c6-8d5841da307d" d="M435 622.014H300V444.19"/><path class="bfeb79b5-03eb-42a0-ab15-d8a504e87268" d="M304.986 445.649L300 437.014l-4.986 8.635h9.972z"/><circle class="bfeb79b5-03eb-42a0-ab15-d8a504e87268" cx="269.75" cy="480.514" r="13"/><text class="b04ea9f8-20da-417c-82fe-6c9a30165785" transform="translate(266.101 484.299)">7</text><circle class="bfeb79b5-03eb-42a0-ab15-d8a504e87268" cx="299.75" cy="480.514" r="13"/><text class="b04ea9f8-20da-417c-82fe-6c9a30165785" transform="translate(292.399 484.299)">9b</text><circle class="bfeb79b5-03eb-42a0-ab15-d8a504e87268" cx="479.5" cy="480.514" r="13"/><text class="b04ea9f8-20da-417c-82fe-6c9a30165785" transform="translate(470.561 484.299)">15a</text><path class="abe5d37c-6dc5-4ddd-a0c6-8d5841da307d" d="M165 272.013h55.324"/><path class="bfeb79b5-03eb-42a0-ab15-d8a504e87268" d="M218.865 277l8.635-4.987-8.635-4.986V277z"/><g><circle class="bfeb79b5-03eb-42a0-ab15-d8a504e87268" cx="197.5" cy="272.013" r="13"/><text class="b04ea9f8-20da-417c-82fe-6c9a30165785" transform="translate(193.769 275.799)">3</text></g><g><path class="abe5d37c-6dc5-4ddd-a0c6-8d5841da307d" d="M165 292.013h32.5v247.501h-22.824"/><path class="bfeb79b5-03eb-42a0-ab15-d8a504e87268" d="M176.135 534.527l-8.635 4.987 8.635 4.986v-9.973z"/></g><g><circle class="bfeb79b5-03eb-42a0-ab15-d8a504e87268" cx="197.5" cy="344.981" r="13"/><text class="b04ea9f8-20da-417c-82fe-6c9a30165785" transform="translate(191.733 348.766)">17</text></g><g><circle class="bfeb79b5-03eb-42a0-ab15-d8a504e87268" cx="300" cy="344.981" r="13"/><text class="b04ea9f8-20da-417c-82fe-6c9a30165785" transform="translate(293.228 348.766)">9c</text></g><g><circle class="bfeb79b5-03eb-42a0-ab15-d8a504e87268" cx="360" cy="344.981" r="13"/><text class="b04ea9f8-20da-417c-82fe-6c9a30165785" transform="translate(350.867 348.766)">16a</text></g><g><circle class="bfeb79b5-03eb-42a0-ab15-d8a504e87268" cx="270" cy="344.981" r="13"/><text class="b04ea9f8-20da-417c-82fe-6c9a30165785" transform="translate(266.17 348.766)">6</text></g><g><circle class="bfeb79b5-03eb-42a0-ab15-d8a504e87268" cx="330" cy="344.981" r="13"/><text class="b04ea9f8-20da-417c-82fe-6c9a30165785" transform="translate(321.973 348.766)">11b</text></g><g><path class="abe5d37c-6dc5-4ddd-a0c6-8d5841da307d" d="M360 257.013v-117.5H95v107.824"/><path class="bfeb79b5-03eb-42a0-ab15-d8a504e87268" d="M90.014 245.878L95 254.513l4.986-8.635h-9.972z"/></g><g><path class="abe5d37c-6dc5-4ddd-a0c6-8d5841da307d" d="M330 247.337v-92.824H125v102.5"/><path class="bfeb79b5-03eb-42a0-ab15-d8a504e87268" d="M334.986 245.878L330 254.513l-4.986-8.635h9.972z"/></g><g><circle class="bfeb79b5-03eb-42a0-ab15-d8a504e87268" cx="330" cy="194.513" r="13"/><text class="b04ea9f8-20da-417c-82fe-6c9a30165785" transform="translate(322.331 198.299)">11a</text></g><g><path class="abe5d37c-6dc5-4ddd-a0c6-8d5841da307d" d="M300 257.013v-87.5H155v77.824"/><path class="bfeb79b5-03eb-42a0-ab15-d8a504e87268" d="M150.014 245.878l4.986 8.635 4.986-8.635h-9.972z"/></g><g><circle class="bfeb79b5-03eb-42a0-ab15-d8a504e87268" cx="300" cy="194.513" r="13"/><text class="b04ea9f8-20da-417c-82fe-6c9a30165785" transform="translate(292.655 198.299)">9d</text></g><path class="ac25d45f-758f-47da-bc17-1b63c678abde" transform="rotate(-180 480 409.513)" d="M435 384.513h90v50h-90z"/><text class="a50bd736-0ee7-429c-b808-d6aa951cb60f" transform="translate(451.086 412.837)">krb5_child</text><g><circle class="bfeb79b5-03eb-42a0-ab15-d8a504e87268" cx="360" cy="194.513" r="13"/><text class="b04ea9f8-20da-417c-82fe-6c9a30165785" transform="translate(350.51 198.299)">16b</text></g><path class="ac25d45f-758f-47da-bc17-1b63c678abde" transform="rotate(-180 480 629.514)" d="M435 604.513h90v50h-90z"/><text class="a50bd736-0ee7-429c-b808-d6aa951cb60f" transform="translate(451.086 632.837)">krb5_child</text><path class="b093a3be-2c58-47c7-8dd1-7d409cae3000" d="M25 257.013h140v50H25z"/><text class="a270d289-2b15-4694-a3e6-78261b165175" transform="translate(71.373 285.337)">pam_sss</text><g><path class="b093a3be-2c58-47c7-8dd1-7d409cae3000" d="M605 384.513h140v50H605z"/><text class="a270d289-2b15-4694-a3e6-78261b165175" transform="translate(635.124 412.838)">Kerberos KDC</text></g><path class="b093a3be-2c58-47c7-8dd1-7d409cae3000" d="M230 384.513h140v50H230z"/><text class="a270d289-2b15-4694-a3e6-78261b165175" transform="translate(277.83 412.837)">sssd_be</text><path class="b093a3be-2c58-47c7-8dd1-7d409cae3000" d="M230 257.013h140v50H230z"/><text class="a270d289-2b15-4694-a3e6-78261b165175" transform="translate(272.712 285.337)">sssd_pam</text><g><path class="abe5d37c-6dc5-4ddd-a0c6-8d5841da307d" d="M535.12 282.013h34.63V31.431l73.013-.286"/><path class="bfeb79b5-03eb-42a0-ab15-d8a504e87268" d="M536.579 287l-8.635-4.987 8.635-4.986V287zM641.323 36.137l8.616-5.02-8.655-4.952.039 9.972z"/></g><path stroke-width="8" stroke="#fff" stroke-linecap="round" stroke-linejoin="round" fill="none" d="M35 62.763v12.276"/><g><path stroke-width="2" stroke="#fff" stroke-linecap="round" stroke-linejoin="round" fill="none" d="M467.637 66.852l.06 6.215"/><path class="f3347bb4-e789-40fc-b8dd-b78f54fa312e" d="M457.693 69.865L467.5 52.5l10.137 17.174-19.944.191z"/></g><g><path class="abe5d37c-6dc5-4ddd-a0c6-8d5841da307d" d="M35 59v188.337"/><path class="bfeb79b5-03eb-42a0-ab15-d8a504e87268" d="M30.014 245.878L35 254.513l4.986-8.635h-9.972z"/></g><g><path class="abe5d37c-6dc5-4ddd-a0c6-8d5841da307d" d="M65 247.337V79.513h402.5V68.176"/><path class="bfeb79b5-03eb-42a0-ab15-d8a504e87268" d="M69.986 245.878L65 254.513l-4.986-8.635h9.972zM472.486 69.635L467.5 61l-4.986 8.635h9.972z"/></g><g><circle class="bfeb79b5-03eb-42a0-ab15-d8a504e87268" cx="35" cy="194.513" r="13"/><text class="b04ea9f8-20da-417c-82fe-6c9a30165785" transform="translate(32.633 198.299)">1</text></g><g><circle class="bfeb79b5-03eb-42a0-ab15-d8a504e87268" cx="65" cy="194.513" r="13"/><text class="b04ea9f8-20da-417c-82fe-6c9a30165785" transform="translate(58.832 198.299)">10</text></g><path class="a0918252-6fce-4570-b1d9-40f50f1ebf85" d="M25.226 113.013h53.548v18.099H25.226z"/><text class="baa866eb-1736-443d-af7d-3fab4dd07d9f" transform="translate(15 126.802)">IdM client</text><path class="f3347bb4-e789-40fc-b8dd-b78f54fa312e" d="M20 223.299h53.548v15.562H20z"/><text class="a10fa43c-3519-4ac1-85f5-5f9645c848d6" transform="translate(25 235.618)">libpam</text><g><text transform="translate(646.56 61.346)" font-size="11" font-family="RedHatText,&quot;Red Hat Text&quot;,Overpass,&quot;Helvetica Neue&quot;,Arial,sans-serif" font-weight="500" fill="#151515">Smart card<tspan x="11.434" y="12">reader</tspan></text><path class="e9d1c7e3-bfa3-4f50-af1c-c6ea0e9fd8f3" d="M653.25 17.762h43.5v26.926h-43.5z"/><path class="bc5db273-b1fc-4567-bd4d-437b43638cb4" d="M691.787 22.999h-10.46M686.826 39.512h-3.835M678.569 39.512h-3.835M670.312 39.512h-3.835M662.055 39.512h-3.835M658.298 22.797h8.644v8.644h-8.644z"/></g><path class="a0918252-6fce-4570-b1d9-40f50f1ebf85" transform="rotate(-180 197.5 39.513)" d="M5 20.013h385v39H5z"/><text class="f4e24527-3613-4a02-83b2-08412334c96c" transform="translate(15 42.837)">{root@client ~]# ssh -1 <tspan class="b87bc260-409a-41fb-8979-54b098ecbb76" x="129.621" y="0">idm_user@example.com</tspan><tspan x="237.639" y="0"> client.example.com</tspan></text><g><path class="a0918252-6fce-4570-b1d9-40f50f1ebf85" transform="rotate(-180 477.5 39.513)" d="M410 20.013h135v39H410z"/><text transform="translate(420 42.837)" font-family="LiberationMono,&quot;Liberation Mono&quot;,Consolas,Monaco,&quot;Andale Mono&quot;,monospace" font-size="9" font-weight="700" fill="#151515">Password:</text></g></svg>