<svg id="ae263a9c-ce39-4cff-96eb-cbed00b36b70" data-name="artwork" xmlns="http://www.w3.org/2000/svg" width="760" height="569.513"><defs><style>.ebb39226-6a20-4138-a1f0-3603ce3773a5{fill:#e8e8e8}.a92995d4-0897-476e-9e6d-5909bcd01a26,.ad734a93-ba3c-44a3-b3c6-4640a6221730,.f878d3d9-3474-4b91-a771-31b3bc58e7db{fill:#fff}.a3e8231c-cbe8-4a7b-8753-72220f11a224{font-size:14px;fill:#151515}.a6a61018-fd6a-406c-be0d-1713605e0e85,.ad8ddb05-3e10-4334-82ba-83e851be66cf,.bf1e84c3-5df8-4f47-8a65-46a56a071b62,.e84eb608-efa1-4e8a-ab50-cd2f1221e541{fill:#151515}.a3e8231c-cbe8-4a7b-8753-72220f11a224,.bf1e84c3-5df8-4f47-8a65-46a56a071b62,.f878d3d9-3474-4b91-a771-31b3bc58e7db{font-family:RedHatText,&quot;Red Hat Text&quot;,Overpass,&quot;Helvetica Neue&quot;,Arial,sans-serif;font-weight:700}.b7573f76-b9c5-4092-bffc-7b95a3341cbf,.eddda06a-6944-492d-97fd-463caf4bb981{fill:none}.b7573f76-b9c5-4092-bffc-7b95a3341cbf{stroke:#151515}.b7573f76-b9c5-4092-bffc-7b95a3341cbf,.eddda06a-6944-492d-97fd-463caf4bb981{stroke-linecap:round;stroke-linejoin:round}.fab66b34-ffe9-430e-b0ba-bc24b99568d3{fill:#06c}.ad734a93-ba3c-44a3-b3c6-4640a6221730,.bf1e84c3-5df8-4f47-8a65-46a56a071b62,.e84eb608-efa1-4e8a-ab50-cd2f1221e541{font-size:12px}.ad734a93-ba3c-44a3-b3c6-4640a6221730,.e84eb608-efa1-4e8a-ab50-cd2f1221e541{font-family:RedHatText,&quot;Red Hat Text&quot;,Overpass,&quot;Helvetica Neue&quot;,Arial,sans-serif;font-weight:500}.f878d3d9-3474-4b91-a771-31b3bc58e7db{font-size:11px}.a6a61018-fd6a-406c-be0d-1713605e0e85{font-size:9px;font-family:LiberationMono,&quot;Liberation Mono&quot;,Consolas,Monaco,&quot;Andale Mono&quot;,monospace}.eddda06a-6944-492d-97fd-463caf4bb981{stroke:#5b5b5b;stroke-width:1.5px}</style></defs><path d="M549 27.013v47H1v-47h548m1-1H0v49h550v-49z" fill="#c4c4c4"/><path class="ebb39226-6a20-4138-a1f0-3603ce3773a5" d="M0 100.513h550v419H0z"/><path class="a92995d4-0897-476e-9e6d-5909bcd01a26" d="M15 198.013h160v100H15z"/><path class="ebb39226-6a20-4138-a1f0-3603ce3773a5" d="M570 100.513h190v419H570z"/><text class="a3e8231c-cbe8-4a7b-8753-72220f11a224" transform="translate(584.999 127.802)">IdM server</text><path class="a92995d4-0897-476e-9e6d-5909bcd01a26" d="M220 198.013h315v306.5H220z"/><path class="b7573f76-b9c5-4092-bffc-7b95a3341cbf" d="M300 288.013v66.824"/><path class="ad8ddb05-3e10-4334-82ba-83e851be66cf" d="M295.014 353.378l4.986 8.635 4.986-8.635h-9.972z"/><path class="a92995d4-0897-476e-9e6d-5909bcd01a26" d="M385.5 238.514h139v49h-139z"/><path class="fab66b34-ffe9-430e-b0ba-bc24b99568d3" d="M524 239.013v48H386v-48h138m1-1H385v50h140v-50z"/><text class="e84eb608-efa1-4e8a-ab50-cd2f1221e541" transform="translate(424.766 266.337)">LDB cache</text><path class="a92995d4-0897-476e-9e6d-5909bcd01a26" d="M15.5 455.014h159v49h-159z"/><path class="fab66b34-ffe9-430e-b0ba-bc24b99568d3" d="M174 455.513v48H16v-48h158m1-1H15v50h160v-50z"/><text class="e84eb608-efa1-4e8a-ab50-cd2f1221e541" transform="translate(64.545 482.837)">memcache</text><path class="b7573f76-b9c5-4092-bffc-7b95a3341cbf" d="M665 297.69v15.647"/><path class="ad8ddb05-3e10-4334-82ba-83e851be66cf" d="M660.014 299.149l4.986-8.636 4.986 8.636h-9.972zM660.014 311.878l4.986 8.635 4.986-8.635h-9.972z"/><path class="b7573f76-b9c5-4092-bffc-7b95a3341cbf" d="M370 389.513h70V297.69"/><path class="ad8ddb05-3e10-4334-82ba-83e851be66cf" d="M444.986 299.149L440 290.513l-4.986 8.636h9.972z"/><circle class="ad8ddb05-3e10-4334-82ba-83e851be66cf" cx="440" cy="328.481" r="13"/><text class="f878d3d9-3474-4b91-a771-31b3bc58e7db" transform="translate(433.832 332.266)">10</text><path class="b7573f76-b9c5-4092-bffc-7b95a3341cbf" d="M292.5 424.19v55.323h381.25v-55"/><path class="ad8ddb05-3e10-4334-82ba-83e851be66cf" d="M287.514 425.649l4.986-8.636 4.986 8.636h-9.972z"/><path class="b7573f76-b9c5-4092-bffc-7b95a3341cbf" d="M307.5 414.513v35h351.25V434.19"/><path class="ad8ddb05-3e10-4334-82ba-83e851be66cf" d="M663.736 435.649l-4.986-8.636-4.986 8.636h9.972z"/><circle class="ad8ddb05-3e10-4334-82ba-83e851be66cf" cx="440" cy="449.513" r="13"/><text class="f878d3d9-3474-4b91-a771-31b3bc58e7db" transform="translate(436.241 453.299)">8</text><circle class="ad8ddb05-3e10-4334-82ba-83e851be66cf" cx="440" cy="479.513" r="13"/><text class="f878d3d9-3474-4b91-a771-31b3bc58e7db" transform="translate(436.191 483.299)">9</text><path class="b7573f76-b9c5-4092-bffc-7b95a3341cbf" d="M165 263.013h32.5v216.5h-12.824"/><path class="ad8ddb05-3e10-4334-82ba-83e851be66cf" d="M186.135 474.527l-8.635 4.986 8.635 4.987v-9.973z"/><circle class="ad8ddb05-3e10-4334-82ba-83e851be66cf" cx="197.5" cy="328.481" r="13"/><text class="f878d3d9-3474-4b91-a771-31b3bc58e7db" transform="translate(193.455 332.266)">4</text><circle class="ad8ddb05-3e10-4334-82ba-83e851be66cf" cx="300" cy="328.481" r="13"/><text class="f878d3d9-3474-4b91-a771-31b3bc58e7db" transform="translate(296.351 332.266)">7</text><path class="b7573f76-b9c5-4092-bffc-7b95a3341cbf" d="M285 238.013v-102.5H120v92.824"/><path class="ad8ddb05-3e10-4334-82ba-83e851be66cf" d="M115.014 226.878l4.986 8.635 4.986-8.635h-9.972z"/><path class="b7573f76-b9c5-4092-bffc-7b95a3341cbf" d="M470 228.337v-92.824H315v102.5"/><path class="ad8ddb05-3e10-4334-82ba-83e851be66cf" d="M474.986 226.878L470 235.513l-4.986-8.635h9.972z"/><path class="b7573f76-b9c5-4092-bffc-7b95a3341cbf" d="M440 228.337v-77.824h-95v87.5"/><path class="ad8ddb05-3e10-4334-82ba-83e851be66cf" d="M444.986 226.878L440 235.513l-4.986-8.635h9.972z"/><circle class="ad8ddb05-3e10-4334-82ba-83e851be66cf" cx="315" cy="175.513" r="13"/><text class="f878d3d9-3474-4b91-a771-31b3bc58e7db" transform="translate(311.17 179.299)">6</text><path class="b7573f76-b9c5-4092-bffc-7b95a3341cbf" d="M255 228.337v-77.824H150v87.5"/><path class="ad8ddb05-3e10-4334-82ba-83e851be66cf" d="M259.986 226.878L255 235.513l-4.986-8.635h9.972z"/><circle class="ad8ddb05-3e10-4334-82ba-83e851be66cf" cx="440" cy="175.513" r="13"/><text class="f878d3d9-3474-4b91-a771-31b3bc58e7db" transform="translate(435.515 179.299)">11</text><path class="fab66b34-ffe9-430e-b0ba-bc24b99568d3" d="M230 364.513h140v50H230z"/><text class="ad734a93-ba3c-44a3-b3c6-4640a6221730" transform="translate(277.83 392.837)">sssd_be</text><path class="fab66b34-ffe9-430e-b0ba-bc24b99568d3" d="M230 238.013h140v50H230z"/><text class="ad734a93-ba3c-44a3-b3c6-4640a6221730" transform="translate(275.695 266.337)">sssd_nss</text><path class="a92995d4-0897-476e-9e6d-5909bcd01a26" d="M585 198.013h160v90H585z"/><text class="bf1e84c3-5df8-4f47-8a65-46a56a071b62" transform="translate(595 216.618)">SSSD</text><path class="a92995d4-0897-476e-9e6d-5909bcd01a26" d="M585 323.013h160v101.5H585z"/><text class="bf1e84c3-5df8-4f47-8a65-46a56a071b62" transform="translate(595 341.618)">LDAP<tspan x="0" y="13">Directory Server</tspan></text><path stroke-width="8" stroke="#fff" stroke-linecap="round" stroke-linejoin="round" fill="none" d="M59.768 73.531v12.275"/><path stroke-width="2" stroke="#fff" stroke-linecap="round" stroke-linejoin="round" fill="none" d="M89.767 77.62v7.449"/><path class="a92995d4-0897-476e-9e6d-5909bcd01a26" d="M79.795 80.538l9.972-17.271 9.973 17.271H79.795z"/><g><path class="b7573f76-b9c5-4092-bffc-7b95a3341cbf" d="M60 70v158.337"/><path class="ad8ddb05-3e10-4334-82ba-83e851be66cf" d="M55.014 226.878L60 235.513l4.986-8.635h-9.972z"/></g><g><path class="b7573f76-b9c5-4092-bffc-7b95a3341cbf" d="M90 238.013V79.176"/><path class="ad8ddb05-3e10-4334-82ba-83e851be66cf" d="M94.986 80.635L90 72l-4.986 8.635h9.972z"/></g><g><circle class="ad8ddb05-3e10-4334-82ba-83e851be66cf" cx="60" cy="175.513" r="13"/><text class="f878d3d9-3474-4b91-a771-31b3bc58e7db" transform="translate(57.633 179.299)">1</text></g><g><circle class="ad8ddb05-3e10-4334-82ba-83e851be66cf" cx="90" cy="175.513" r="13"/><text class="f878d3d9-3474-4b91-a771-31b3bc58e7db" transform="translate(84.151 179.299)">13</text></g><path class="ebb39226-6a20-4138-a1f0-3603ce3773a5" d="M30.226 114.013h53.548v18.099H30.226z"/><text class="a3e8231c-cbe8-4a7b-8753-72220f11a224" transform="translate(15 127.802)">IdM client</text><path class="a92995d4-0897-476e-9e6d-5909bcd01a26" d="M226.453 205.44h51.025v14.421h-51.025z"/><text class="bf1e84c3-5df8-4f47-8a65-46a56a071b62" transform="translate(25 216.618)">libc</text><g><circle class="ad8ddb05-3e10-4334-82ba-83e851be66cf" cx="150" cy="175.513" r="13"/><text class="f878d3d9-3474-4b91-a771-31b3bc58e7db" transform="translate(146.363 179.299)">5</text></g><g><circle class="ad8ddb05-3e10-4334-82ba-83e851be66cf" cx="285.25" cy="175.513" r="13"/><text class="f878d3d9-3474-4b91-a771-31b3bc58e7db" transform="translate(279.599 179.299)">12</text></g><text class="bf1e84c3-5df8-4f47-8a65-46a56a071b62" transform="translate(230 216.618)">SSSD</text><g><text transform="translate(688.031 542.531)" font-size="10" fill="#ececec" font-family="RedHatText,&quot;Red Hat Text&quot;,Overpass,&quot;Helvetica Neue&quot;,Arial,sans-serif">169_RHEL_0621</text><path fill="none" d="M0 519.513h760v40H0z"/></g><path class="ebb39226-6a20-4138-a1f0-3603ce3773a5" transform="rotate(-180 275 50.513)" d="M5 31.013h540v39H5z"/><text class="a6a61018-fd6a-406c-be0d-1713605e0e85" transform="translate(15 53.837)">[user@client ~]$ getent passwd <tspan x="167.427" y="0" font-family="LiberationMono,&quot;Liberation Mono&quot;,Consolas,Monaco,&quot;Andale Mono&quot;,monospace" font-style="italic">&lt;idm_user_name&gt;</tspan></text><g><path class="b7573f76-b9c5-4092-bffc-7b95a3341cbf" d="M60 288.013v95.5h22.931"/><path class="ad8ddb05-3e10-4334-82ba-83e851be66cf" d="M81.472 388.5l8.635-4.987-8.635-4.986v9.973z"/></g><g><path class="b7573f76-b9c5-4092-bffc-7b95a3341cbf" d="M150 297.69v85.823h-28.354"/><path class="ad8ddb05-3e10-4334-82ba-83e851be66cf" d="M145.014 299.149l4.986-8.636 4.987 8.636h-9.973z"/></g><g><text class="a6a61018-fd6a-406c-be0d-1713605e0e85" transform="translate(72.395 418.593)">nsswitch.conf</text><path stroke="#5b5b5b" stroke-width="1.5" stroke-linecap="round" stroke-linejoin="round" fill="#fff" d="M121.646 402.041H93.354V371.03l5.761-5.767h22.531v36.778z"/><path class="eddda06a-6944-492d-97fd-463caf4bb981" d="M99.115 371.03h-5.761l5.761-5.767v5.767zM98.993 377.998h8.507M98.993 383.633h17.014M98.993 389.268h17.014M98.993 394.904h17.014"/></g><g><circle class="ad8ddb05-3e10-4334-82ba-83e851be66cf" cx="150" cy="328.481" r="13"/><text class="f878d3d9-3474-4b91-a771-31b3bc58e7db" transform="translate(146.269 332.266)">3</text></g><g><circle class="ad8ddb05-3e10-4334-82ba-83e851be66cf" cx="60" cy="328.481" r="13"/><text class="f878d3d9-3474-4b91-a771-31b3bc58e7db" transform="translate(56.467 332.266)">2</text></g><path class="fab66b34-ffe9-430e-b0ba-bc24b99568d3" d="M25 238.013h140v50H25z"/><text class="ad734a93-ba3c-44a3-b3c6-4640a6221730" transform="translate(74.355 266.337)">nss_sss</text></svg>