<svg id="b56ea49a-34fb-4668-84ca-9706e08afb6c" data-name="artwork" xmlns="http://www.w3.org/2000/svg" width="760" height="546.513"><defs><style>.b329541f-7c3a-469e-a627-3f7d8c47cca2{fill:#e8e8e8}.a76cb40d-8d1f-4d11-b569-ebfa80a93242,.eb15deb3-c43a-420b-a035-88e8adf5e92e{fill:#fff}.b4a037a7-3f88-4bd7-83df-6a2b71dcf917{font-size:14px;fill:#151515}.e0bf032a-9e42-42c0-b027-7c249e7cbcf9,.f13883e7-8e4d-4bed-9cfd-8fe03dfd7b0c{fill:#151515}.b4a037a7-3f88-4bd7-83df-6a2b71dcf917,.e0bf032a-9e42-42c0-b027-7c249e7cbcf9,.eb15deb3-c43a-420b-a035-88e8adf5e92e{font-family:RedHatText,&quot;Red Hat Text&quot;,Overpass,&quot;Helvetica Neue&quot;,Arial,sans-serif;font-weight:700}.a0ea5673-fb20-4c48-b9de-a64e613ea797{fill:none;stroke:#151515;stroke-linecap:round;stroke-linejoin:round}.eb15deb3-c43a-420b-a035-88e8adf5e92e{font-size:11px}.e0bf032a-9e42-42c0-b027-7c249e7cbcf9{font-size:12px}</style></defs><path d="M609 27.013v47H1v-47h608m1-1H0v49h610v-49z" fill="#c4c4c4"/><path class="b329541f-7c3a-469e-a627-3f7d8c47cca2" d="M210 100.513h190v416H210z"/><path class="a76cb40d-8d1f-4d11-b569-ebfa80a93242" d="M225 378.013h160v123.5H225z"/><path class="b329541f-7c3a-469e-a627-3f7d8c47cca2" d="M0 100.513h190v416H0zM420 100.513h190v416H420z"/><text class="b4a037a7-3f88-4bd7-83df-6a2b71dcf917" transform="translate(434.999 127.802)">Active Directory <tspan x="0" y="15">domain controller</tspan></text><path class="a0ea5673-fb20-4c48-b9de-a64e613ea797" d="M70 323.013v146h155.324"/><path class="f13883e7-8e4d-4bed-9cfd-8fe03dfd7b0c" d="M223.865 474l8.635-4.987-8.635-4.986V474z"/><circle class="f13883e7-8e4d-4bed-9cfd-8fe03dfd7b0c" cx="70" cy="353.481" r="13"/><text class="eb15deb3-c43a-420b-a035-88e8adf5e92e" transform="translate(66.467 357.266)">2</text><path class="a0ea5673-fb20-4c48-b9de-a64e613ea797" d="M120 332.69v121.323h115"/><path class="f13883e7-8e4d-4bed-9cfd-8fe03dfd7b0c" d="M115.014 334.149l4.986-8.636 4.986 8.636h-9.972z"/><circle class="f13883e7-8e4d-4bed-9cfd-8fe03dfd7b0c" cx="120" cy="353.481" r="13"/><text class="eb15deb3-c43a-420b-a035-88e8adf5e92e" transform="translate(116.351 357.266)">7</text><text class="b4a037a7-3f88-4bd7-83df-6a2b71dcf917" transform="translate(224.999 127.802)">IdM server</text><path stroke-width="8" stroke="#fff" stroke-linecap="round" stroke-linejoin="round" fill="none" d="M69.768 73.531v12.275"/><path stroke-width="2" stroke="#fff" stroke-linecap="round" stroke-linejoin="round" fill="none" d="M119.767 77.62v7.449"/><path class="a76cb40d-8d1f-4d11-b569-ebfa80a93242" d="M109.795 80.538l9.972-17.271 9.973 17.271h-19.945z"/><path class="a0ea5673-fb20-4c48-b9de-a64e613ea797" d="M70 70v153.337"/><path class="f13883e7-8e4d-4bed-9cfd-8fe03dfd7b0c" d="M65.014 221.878L70 230.513l4.986-8.635h-9.972z"/><path class="a0ea5673-fb20-4c48-b9de-a64e613ea797" d="M120 233.013V79.176"/><path class="f13883e7-8e4d-4bed-9cfd-8fe03dfd7b0c" d="M124.986 80.635L120 72l-4.986 8.635h9.972z"/><circle class="f13883e7-8e4d-4bed-9cfd-8fe03dfd7b0c" cx="70" cy="200.513" r="13"/><text class="eb15deb3-c43a-420b-a035-88e8adf5e92e" transform="translate(67.633 204.299)">1</text><circle class="f13883e7-8e4d-4bed-9cfd-8fe03dfd7b0c" cx="120" cy="200.513" r="13"/><text class="eb15deb3-c43a-420b-a035-88e8adf5e92e" transform="translate(116.241 204.299)">8</text><path class="b329541f-7c3a-469e-a627-3f7d8c47cca2" d="M35.226 114.013h53.548v18.099H35.226z"/><text class="b4a037a7-3f88-4bd7-83df-6a2b71dcf917" transform="translate(15 127.802)">IdM client</text><path class="a76cb40d-8d1f-4d11-b569-ebfa80a93242" d="M20 242.109h53.548v12.752H20z"/><path class="a76cb40d-8d1f-4d11-b569-ebfa80a93242" d="M15 233.013h160v90H15z"/><text class="e0bf032a-9e42-42c0-b027-7c249e7cbcf9" transform="translate(25 251.618)">SSSD</text><path class="a0ea5673-fb20-4c48-b9de-a64e613ea797" d="M522 223.337v-62.824H279.5v72.5"/><path class="f13883e7-8e4d-4bed-9cfd-8fe03dfd7b0c" d="M526.986 221.878L522 230.513l-4.986-8.635h9.972z"/><path class="a0ea5673-fb20-4c48-b9de-a64e613ea797" d="M507 233.013v-57.5H329.5v47.824"/><path class="f13883e7-8e4d-4bed-9cfd-8fe03dfd7b0c" d="M324.514 221.878l4.986 8.635 4.986-8.635h-9.972z"/><circle class="f13883e7-8e4d-4bed-9cfd-8fe03dfd7b0c" cx="329.5" cy="200.513" r="13"/><text class="eb15deb3-c43a-420b-a035-88e8adf5e92e" transform="translate(325.862 204.299)">5</text><circle class="f13883e7-8e4d-4bed-9cfd-8fe03dfd7b0c" cx="279.75" cy="200.513" r="13"/><text class="eb15deb3-c43a-420b-a035-88e8adf5e92e" transform="translate(275.705 204.299)">4</text><path class="a0ea5673-fb20-4c48-b9de-a64e613ea797" d="M279.5 332.69v98.823"/><path class="f13883e7-8e4d-4bed-9cfd-8fe03dfd7b0c" d="M274.514 334.149l4.986-8.636 4.986 8.636h-9.972z"/><g><path class="a0ea5673-fb20-4c48-b9de-a64e613ea797" d="M329.5 323.013v98.824"/><path class="f13883e7-8e4d-4bed-9cfd-8fe03dfd7b0c" d="M324.514 420.378l4.986 8.635 4.986-8.635h-9.972z"/></g><g><circle class="f13883e7-8e4d-4bed-9cfd-8fe03dfd7b0c" cx="329.5" cy="353.481" r="13"/><text class="eb15deb3-c43a-420b-a035-88e8adf5e92e" transform="translate(325.67 357.266)">6</text></g><g><circle class="f13883e7-8e4d-4bed-9cfd-8fe03dfd7b0c" cx="279.75" cy="353.481" r="13"/><text class="eb15deb3-c43a-420b-a035-88e8adf5e92e" transform="translate(276.019 357.266)">3</text></g><path class="a76cb40d-8d1f-4d11-b569-ebfa80a93242" d="M225 233.013h160v90H225z"/><text class="e0bf032a-9e42-42c0-b027-7c249e7cbcf9" transform="translate(235 251.618)">SSSD</text><path class="a76cb40d-8d1f-4d11-b569-ebfa80a93242" d="M435 233.013h160v90H435z"/><text class="e0bf032a-9e42-42c0-b027-7c249e7cbcf9" transform="translate(445 251.618)">LDAP <tspan x="0" y="13">Directory Server</tspan></text><path class="a76cb40d-8d1f-4d11-b569-ebfa80a93242" d="M230 400.11h110.472v12.752H230z"/><text class="e0bf032a-9e42-42c0-b027-7c249e7cbcf9" transform="translate(235 396.618)">LDAP <tspan x="0" y="13">Directory Server</tspan></text><g><text transform="translate(688.031 516.531)" font-size="10" fill="#ececec" font-family="RedHatText,&quot;Red Hat Text&quot;,Overpass,&quot;Helvetica Neue&quot;,Arial,sans-serif">169_RHEL_0621</text><path fill="none" d="M0 493.513h760v40H0z"/></g><path class="b329541f-7c3a-469e-a627-3f7d8c47cca2" transform="rotate(-180 305 50.513)" d="M5 31.013h600v39H5z"/><text transform="translate(15 53.837)" font-size="9" font-family="LiberationMono,&quot;Liberation Mono&quot;,Consolas,Monaco,&quot;Andale Mono&quot;,monospace" fill="#151515">[user@client ~]$ getent passwd <tspan x="167.427" y="0" font-style="italic">&lt;ad_user_name&gt;@ad.example.com</tspan></text><path fill="#06c" d="M235 431.513h140v60H235z"/><text transform="translate(284.714 452.837)" font-family="RedHatText,&quot;Red Hat Text&quot;,Overpass,&quot;Helvetica Neue&quot;,Arial,sans-serif" font-weight="500" font-size="12" fill="#fff">IdM DS<tspan x="-20.508" y="12">extdom_extop</tspan><tspan x="2.958" y="24">plugin</tspan></text></svg>