<svg id="f90cfe3b-40c6-465d-a55d-1c202847aac1" data-name="artwork" xmlns="http://www.w3.org/2000/svg" width="760" height="727.263"><defs><style>.a6a9b1c6-fe9b-4695-8a0e-b7fc4d3badcb,.e9300422-8944-49f1-bb2b-41e7a3442d79{fill:none}.f32873fd-9665-4a2e-870e-59d5f6737e19{fill:#e8e8e8}.a6a9b1c6-fe9b-4695-8a0e-b7fc4d3badcb{stroke:#151515}.a6a9b1c6-fe9b-4695-8a0e-b7fc4d3badcb,.a930c013-3c5b-4ebe-af90-108206bf6f2d,.e9300422-8944-49f1-bb2b-41e7a3442d79{stroke-linecap:round;stroke-linejoin:round}.a4169ff3-fec7-49db-9da3-4705ad3165a0,.ad897485-f421-400a-898d-e3126916fb1d,.ae261877-a96a-4d13-a6fa-404e66dea7ce,.b9fd0046-8c9f-421d-a9cc-62312277640a,.f9f36418-615e-4ef5-8c31-12cd98b48787{fill:#151515}.f9f36418-615e-4ef5-8c31-12cd98b48787{font-size:14px}.b9fd0046-8c9f-421d-a9cc-62312277640a,.f04241f2-b15d-4056-aba0-34811d61f3ae,.f9f36418-615e-4ef5-8c31-12cd98b48787{font-family:RedHatText,&quot;Red Hat Text&quot;,Overpass,&quot;Helvetica Neue&quot;,Arial,sans-serif;font-weight:700}.a930c013-3c5b-4ebe-af90-108206bf6f2d,.ad23991f-1605-405c-8a7f-1a46ab300317,.b4776765-f098-4ebd-bfa5-7f4f3acd6342,.f04241f2-b15d-4056-aba0-34811d61f3ae{fill:#fff}.a4169ff3-fec7-49db-9da3-4705ad3165a0,.ad23991f-1605-405c-8a7f-1a46ab300317,.b9fd0046-8c9f-421d-a9cc-62312277640a{font-size:12px}.a67e2b19-4667-4b05-a3ee-5925cebe217c{fill:#e5f0fa}.a4169ff3-fec7-49db-9da3-4705ad3165a0,.ad23991f-1605-405c-8a7f-1a46ab300317{font-family:RedHatText,&quot;Red Hat Text&quot;,Overpass,&quot;Helvetica Neue&quot;,Arial,sans-serif;font-weight:500}.ad897485-f421-400a-898d-e3126916fb1d{font-size:9px;font-family:LiberationMono,&quot;Liberation Mono&quot;,Consolas,Monaco,&quot;Andale Mono&quot;,monospace}.a930c013-3c5b-4ebe-af90-108206bf6f2d,.e9300422-8944-49f1-bb2b-41e7a3442d79{stroke:#5b5b5b;stroke-width:1.5px}.e1a3451f-0863-4a2d-897a-3c047e98db17{fill:#06c}.f04241f2-b15d-4056-aba0-34811d61f3ae{font-size:11px}</style></defs><path d="M549 21.263v47H1v-47h548m1-1H0v49h550v-49z" fill="#c4c4c4"/><text transform="translate(688.031 710.281)" font-size="10" fill="#ececec" font-family="RedHatText,&quot;Red Hat Text&quot;,Overpass,&quot;Helvetica Neue&quot;,Arial,sans-serif">169_RHEL_0621</text><path fill="none" d="M0 687.263h760v40H0z"/><path class="f32873fd-9665-4a2e-870e-59d5f6737e19" d="M0 104.763h550v582.5H0zM590 104.763h170v582.5H590z"/><path class="a6a9b1c6-fe9b-4695-8a0e-b7fc4d3badcb" d="M95 322.263v57.824"/><path class="ae261877-a96a-4d13-a6fa-404e66dea7ce" d="M90.014 378.628L95 387.263l4.987-8.635h-9.973z"/><text class="f9f36418-615e-4ef5-8c31-12cd98b48787" transform="translate(604.999 132.052)">IdM server or <tspan x="0" y="15">Active Directory </tspan><tspan x="0" y="30">domain controller</tspan></text><path class="b4776765-f098-4ebd-bfa5-7f4f3acd6342" d="M15 222.263h160v100H15zM220 222.263h315v450H220z"/><text class="b9fd0046-8c9f-421d-a9cc-62312277640a" transform="translate(230 240.868)">SSSD</text><path class="a67e2b19-4667-4b05-a3ee-5925cebe217c" transform="rotate(-180 480 287.263)" d="M435 262.263h90v50h-90z"/><text class="a4169ff3-fec7-49db-9da3-4705ad3165a0" transform="translate(456.132 290.587)">p11_child</text><text class="ad897485-f421-400a-898d-e3126916fb1d" transform="translate(65.295 443.843)">system-auth</text><path class="a930c013-3c5b-4ebe-af90-108206bf6f2d" d="M109.146 427.291H80.854V396.28l5.761-5.767h22.531v36.778z"/><path class="e9300422-8944-49f1-bb2b-41e7a3442d79" d="M86.615 396.28h-5.761l5.761-5.767v5.767zM86.493 403.248H95M86.493 408.883h17.014M86.493 414.518h17.014M86.493 420.154h17.014"/><path class="a6a9b1c6-fe9b-4695-8a0e-b7fc4d3badcb" d="M300 321.94v67.823"/><path class="ae261877-a96a-4d13-a6fa-404e66dea7ce" d="M295.014 323.399l4.986-8.636 4.986 8.636h-9.972z"/><path class="a6a9b1c6-fe9b-4695-8a0e-b7fc4d3badcb" d="M330 312.263v67.824"/><path class="ae261877-a96a-4d13-a6fa-404e66dea7ce" d="M325.014 378.628l4.986 8.635 4.986-8.635h-9.972z"/><path class="a6a9b1c6-fe9b-4695-8a0e-b7fc4d3badcb" d="M360 321.94v67.823"/><path class="ae261877-a96a-4d13-a6fa-404e66dea7ce" d="M355.014 323.399l4.986-8.636 4.986 8.636h-9.972z"/><path class="a6a9b1c6-fe9b-4695-8a0e-b7fc4d3badcb" d="M415.5 287.263h9.324"/><path class="ae261877-a96a-4d13-a6fa-404e66dea7ce" d="M423.365 292.25l8.635-4.987-8.635-4.986v9.973z"/><path class="a6a9b1c6-fe9b-4695-8a0e-b7fc4d3badcb" d="M379.676 287.263h9.824"/><path class="ae261877-a96a-4d13-a6fa-404e66dea7ce" d="M381.135 292.25l-8.635-4.987 8.635-4.986v9.973z"/><path class="a6a9b1c6-fe9b-4695-8a0e-b7fc4d3badcb" d="M270 312.263v67.824"/><path class="ae261877-a96a-4d13-a6fa-404e66dea7ce" d="M265.014 378.628l4.986 8.635 4.986-8.635h-9.972z"/><path class="a6a9b1c6-fe9b-4695-8a0e-b7fc4d3badcb" d="M240 312.263v67.824"/><path class="ae261877-a96a-4d13-a6fa-404e66dea7ce" d="M235.014 378.628l4.986 8.635 4.986-8.635h-9.972z"/><path class="b4776765-f098-4ebd-bfa5-7f4f3acd6342" d="M365.5 520.264h159v49h-159z"/><path class="e1a3451f-0863-4a2d-897a-3c047e98db17" d="M524 520.763v48H366v-48h158m1-1H365v50h160v-50z"/><text class="a4169ff3-fec7-49db-9da3-4705ad3165a0" transform="translate(419.272 542.087)">Kerberos<tspan x="-20.459" y="12">credential cache</tspan></text><path class="b4776765-f098-4ebd-bfa5-7f4f3acd6342" d="M15.5 520.264h159v49h-159z"/><path class="e1a3451f-0863-4a2d-897a-3c047e98db17" d="M174 520.763v48H16v-48h158m1-1H15v50h160v-50z"/><text class="a4169ff3-fec7-49db-9da3-4705ad3165a0" transform="translate(53.979 542.087)">Environmental<tspan x="18.684" y="12">variable</tspan></text><circle class="ae261877-a96a-4d13-a6fa-404e66dea7ce" cx="240" cy="350.231" r="13"/><text class="f04241f2-b15d-4056-aba0-34811d61f3ae" transform="translate(236.362 354.016)">5</text><circle class="ae261877-a96a-4d13-a6fa-404e66dea7ce" cx="95" cy="350.231" r="13"/><text class="f04241f2-b15d-4056-aba0-34811d61f3ae" transform="translate(91.467 354.016)">2</text><circle class="ae261877-a96a-4d13-a6fa-404e66dea7ce" cx="402.5" cy="287.263" r="13"/><text class="f04241f2-b15d-4056-aba0-34811d61f3ae" transform="translate(398.455 291.049)">4</text><path class="a6a9b1c6-fe9b-4695-8a0e-b7fc4d3badcb" d="M370 414.763h55.324"/><path class="ae261877-a96a-4d13-a6fa-404e66dea7ce" d="M423.865 419.75l8.635-4.987-8.635-4.986v9.973z"/><path class="a6a9b1c6-fe9b-4695-8a0e-b7fc4d3badcb" d="M480 439.763v25H330V449.44"/><path class="ae261877-a96a-4d13-a6fa-404e66dea7ce" d="M334.986 450.899L330 442.263l-4.986 8.636h9.972z"/><path class="a6a9b1c6-fe9b-4695-8a0e-b7fc4d3badcb" d="M480 465.263v44.824"/><path class="ae261877-a96a-4d13-a6fa-404e66dea7ce" d="M475.013 508.628l4.987 8.635 4.986-8.635h-9.973z"/><circle class="ae261877-a96a-4d13-a6fa-404e66dea7ce" cx="402.5" cy="414.763" r="13"/><text class="f04241f2-b15d-4056-aba0-34811d61f3ae" transform="translate(396.849 418.549)">12</text><path class="a6a9b1c6-fe9b-4695-8a0e-b7fc4d3badcb" d="M535.12 414.763H605"/><path class="ae261877-a96a-4d13-a6fa-404e66dea7ce" d="M536.579 419.75l-8.635-4.987 8.635-4.986v9.973z"/><circle class="ae261877-a96a-4d13-a6fa-404e66dea7ce" cx="570" cy="414.763" r="13"/><text class="f04241f2-b15d-4056-aba0-34811d61f3ae" transform="translate(563.838 418.549)">14</text><path class="a6a9b1c6-fe9b-4695-8a0e-b7fc4d3badcb" d="M675 380.087v-15.324H480v25"/><path class="ae261877-a96a-4d13-a6fa-404e66dea7ce" d="M679.986 378.628L675 387.263l-4.987-8.635h9.973z"/><circle class="ae261877-a96a-4d13-a6fa-404e66dea7ce" cx="570" cy="364.763" r="13"/><text class="f04241f2-b15d-4056-aba0-34811d61f3ae" transform="translate(564.151 368.549)">13</text><path class="a6a9b1c6-fe9b-4695-8a0e-b7fc4d3badcb" d="M525 634.763h157.5V449.44"/><path class="ae261877-a96a-4d13-a6fa-404e66dea7ce" d="M687.486 450.899l-4.986-8.636-4.986 8.636h9.972z"/><circle class="ae261877-a96a-4d13-a6fa-404e66dea7ce" cx="570" cy="634.763" r="13"/><text class="f04241f2-b15d-4056-aba0-34811d61f3ae" transform="translate(566.241 638.549)">8</text><path class="a6a9b1c6-fe9b-4695-8a0e-b7fc4d3badcb" d="M667.5 439.763v145H480v15.324"/><path class="ae261877-a96a-4d13-a6fa-404e66dea7ce" d="M475.014 598.628l4.986 8.635 4.986-8.635h-9.972z"/><circle class="ae261877-a96a-4d13-a6fa-404e66dea7ce" cx="570" cy="584.763" r="13"/><text class="f04241f2-b15d-4056-aba0-34811d61f3ae" transform="translate(563.007 588.549)">9a</text><circle class="ae261877-a96a-4d13-a6fa-404e66dea7ce" cx="402.5" cy="464.763" r="13"/><text class="f04241f2-b15d-4056-aba0-34811d61f3ae" transform="translate(393.202 468.549)">15b</text><path class="a6a9b1c6-fe9b-4695-8a0e-b7fc4d3badcb" d="M425.324 642.263H270v-202.5"/><path class="ae261877-a96a-4d13-a6fa-404e66dea7ce" d="M423.865 637.277l8.635 4.986-8.635 4.987v-9.973z"/><path class="a6a9b1c6-fe9b-4695-8a0e-b7fc4d3badcb" d="M435 627.263H300V449.44"/><path class="ae261877-a96a-4d13-a6fa-404e66dea7ce" d="M304.986 450.899L300 442.263l-4.986 8.636h9.972z"/><circle class="ae261877-a96a-4d13-a6fa-404e66dea7ce" cx="269.75" cy="485.763" r="13"/><text class="f04241f2-b15d-4056-aba0-34811d61f3ae" transform="translate(266.101 489.549)">7</text><circle class="ae261877-a96a-4d13-a6fa-404e66dea7ce" cx="299.75" cy="485.763" r="13"/><text class="f04241f2-b15d-4056-aba0-34811d61f3ae" transform="translate(292.399 489.549)">9b</text><circle class="ae261877-a96a-4d13-a6fa-404e66dea7ce" cx="479.5" cy="485.763" r="13"/><text class="f04241f2-b15d-4056-aba0-34811d61f3ae" transform="translate(470.561 489.549)">15a</text><path class="a6a9b1c6-fe9b-4695-8a0e-b7fc4d3badcb" d="M165 277.263h55.324"/><path class="ae261877-a96a-4d13-a6fa-404e66dea7ce" d="M218.865 282.25l8.635-4.987-8.635-4.986v9.973z"/><g><circle class="ae261877-a96a-4d13-a6fa-404e66dea7ce" cx="197.5" cy="277.263" r="13"/><text class="f04241f2-b15d-4056-aba0-34811d61f3ae" transform="translate(193.769 281.049)">3</text></g><g><path class="a6a9b1c6-fe9b-4695-8a0e-b7fc4d3badcb" d="M165 297.263h32.5v247.5h-12.824"/><path class="ae261877-a96a-4d13-a6fa-404e66dea7ce" d="M186.135 539.777l-8.635 4.986 8.635 4.987v-9.973z"/></g><g><circle class="ae261877-a96a-4d13-a6fa-404e66dea7ce" cx="197.5" cy="485.763" r="13"/><text class="f04241f2-b15d-4056-aba0-34811d61f3ae" transform="translate(191.733 489.549)">17</text></g><g><circle class="ae261877-a96a-4d13-a6fa-404e66dea7ce" cx="300" cy="350.231" r="13"/><text class="f04241f2-b15d-4056-aba0-34811d61f3ae" transform="translate(293.228 354.016)">9c</text></g><g><circle class="ae261877-a96a-4d13-a6fa-404e66dea7ce" cx="360" cy="350.231" r="13"/><text class="f04241f2-b15d-4056-aba0-34811d61f3ae" transform="translate(350.867 354.016)">16a</text></g><g><circle class="ae261877-a96a-4d13-a6fa-404e66dea7ce" cx="270" cy="350.231" r="13"/><text class="f04241f2-b15d-4056-aba0-34811d61f3ae" transform="translate(266.17 354.016)">6</text></g><g><circle class="ae261877-a96a-4d13-a6fa-404e66dea7ce" cx="330" cy="350.231" r="13"/><text class="f04241f2-b15d-4056-aba0-34811d61f3ae" transform="translate(321.973 354.016)">11b</text></g><g><path class="a6a9b1c6-fe9b-4695-8a0e-b7fc4d3badcb" d="M360 262.263v-117.5H95v107.824"/><path class="ae261877-a96a-4d13-a6fa-404e66dea7ce" d="M90.014 251.128L95 259.763l4.986-8.635h-9.972z"/></g><g><path class="a6a9b1c6-fe9b-4695-8a0e-b7fc4d3badcb" d="M330 252.587v-92.824H125v102.5"/><path class="ae261877-a96a-4d13-a6fa-404e66dea7ce" d="M334.986 251.128L330 259.763l-4.986-8.635h9.972z"/></g><g><circle class="ae261877-a96a-4d13-a6fa-404e66dea7ce" cx="125" cy="199.763" r="13"/><text class="f04241f2-b15d-4056-aba0-34811d61f3ae" transform="translate(117.331 203.549)">11a</text></g><g><path class="a6a9b1c6-fe9b-4695-8a0e-b7fc4d3badcb" d="M300 262.263v-87.5H155v77.824"/><path class="ae261877-a96a-4d13-a6fa-404e66dea7ce" d="M150.014 251.128l4.986 8.635 4.986-8.635h-9.972z"/></g><g><circle class="ae261877-a96a-4d13-a6fa-404e66dea7ce" cx="300" cy="199.763" r="13"/><text class="f04241f2-b15d-4056-aba0-34811d61f3ae" transform="translate(292.655 203.549)">9d</text></g><path class="a67e2b19-4667-4b05-a3ee-5925cebe217c" transform="rotate(-180 480 414.763)" d="M435 389.763h90v50h-90z"/><text class="a4169ff3-fec7-49db-9da3-4705ad3165a0" transform="translate(451.086 418.087)">krb5_child</text><g><circle class="ae261877-a96a-4d13-a6fa-404e66dea7ce" cx="360" cy="199.763" r="13"/><text class="f04241f2-b15d-4056-aba0-34811d61f3ae" transform="translate(350.51 203.549)">16b</text></g><path class="a67e2b19-4667-4b05-a3ee-5925cebe217c" transform="rotate(-180 480 634.764)" d="M435 609.763h90v50h-90z"/><text class="a4169ff3-fec7-49db-9da3-4705ad3165a0" transform="translate(451.086 638.087)">krb5_child</text><path class="e1a3451f-0863-4a2d-897a-3c047e98db17" d="M25 262.263h140v50H25z"/><text class="ad23991f-1605-405c-8a7f-1a46ab300317" transform="translate(71.373 290.587)">pam_sss</text><g><path class="e1a3451f-0863-4a2d-897a-3c047e98db17" d="M605 389.763h140v50H605z"/><text class="ad23991f-1605-405c-8a7f-1a46ab300317" transform="translate(635.124 418.088)">Kerberos KDC</text></g><path class="e1a3451f-0863-4a2d-897a-3c047e98db17" d="M230 389.763h140v50H230z"/><text class="ad23991f-1605-405c-8a7f-1a46ab300317" transform="translate(277.83 418.087)">sssd_be</text><path class="e1a3451f-0863-4a2d-897a-3c047e98db17" d="M230 262.263h140v50H230z"/><text class="ad23991f-1605-405c-8a7f-1a46ab300317" transform="translate(272.712 290.587)">sssd_pam</text><g><path class="a6a9b1c6-fe9b-4695-8a0e-b7fc4d3badcb" d="M535.12 287.263h34.63V36.681l73.013-.286"/><path class="ae261877-a96a-4d13-a6fa-404e66dea7ce" d="M536.579 292.25l-8.635-4.987 8.635-4.986v9.973zM641.323 41.387l8.616-5.02-8.655-4.952.039 9.972z"/></g><path stroke-width="8" stroke="#fff" stroke-linecap="round" stroke-linejoin="round" fill="none" d="M35 68.013v12.276"/><g><path stroke-width="2" stroke="#fff" stroke-linecap="round" stroke-linejoin="round" fill="none" d="M467.637 72.102l.06 6.215"/><path class="b4776765-f098-4ebd-bfa5-7f4f3acd6342" d="M457.693 75.115L467.5 57.75l10.137 17.174-19.944.191z"/></g><g><path class="a6a9b1c6-fe9b-4695-8a0e-b7fc4d3badcb" d="M35 64.25v188.337"/><path class="ae261877-a96a-4d13-a6fa-404e66dea7ce" d="M30.014 251.128L35 259.763l4.986-8.635h-9.972z"/></g><g><path class="a6a9b1c6-fe9b-4695-8a0e-b7fc4d3badcb" d="M65 252.587V84.763h402.5V73.426"/><path class="ae261877-a96a-4d13-a6fa-404e66dea7ce" d="M69.986 251.128L65 259.763l-4.986-8.635h9.972zM472.486 74.885L467.5 66.25l-4.986 8.635h9.972z"/></g><g><circle class="ae261877-a96a-4d13-a6fa-404e66dea7ce" cx="35" cy="199.763" r="13"/><text class="f04241f2-b15d-4056-aba0-34811d61f3ae" transform="translate(32.633 203.549)">1</text></g><g><circle class="ae261877-a96a-4d13-a6fa-404e66dea7ce" cx="65" cy="199.763" r="13"/><text class="f04241f2-b15d-4056-aba0-34811d61f3ae" transform="translate(58.832 203.549)">10</text></g><path class="f32873fd-9665-4a2e-870e-59d5f6737e19" d="M25.226 118.263h53.548v18.099H25.226z"/><text class="f9f36418-615e-4ef5-8c31-12cd98b48787" transform="translate(15 132.052)">IdM client</text><path class="b4776765-f098-4ebd-bfa5-7f4f3acd6342" d="M20 228.549h53.548v15.562H20z"/><text class="b9fd0046-8c9f-421d-a9cc-62312277640a" transform="translate(25 240.868)">libpam</text><g><text transform="translate(646.56 66.596)" font-size="11" font-family="RedHatText,&quot;Red Hat Text&quot;,Overpass,&quot;Helvetica Neue&quot;,Arial,sans-serif" font-weight="500" fill="#151515">Smart card<tspan x="11.434" y="12">reader</tspan></text><path class="a930c013-3c5b-4ebe-af90-108206bf6f2d" d="M653.25 23.012h43.5v26.926h-43.5z"/><path class="e9300422-8944-49f1-bb2b-41e7a3442d79" d="M691.787 28.249h-10.46M686.826 44.762h-3.835M678.569 44.762h-3.835M670.312 44.762h-3.835M662.055 44.762h-3.835M658.298 28.047h8.644v8.644h-8.644z"/></g><path class="f32873fd-9665-4a2e-870e-59d5f6737e19" transform="rotate(-180 197.5 44.763)" d="M5 25.263h385v39H5z"/><text class="ad897485-f421-400a-898d-e3126916fb1d" transform="translate(15 48.087)"><tspan>[root@client ~]# ssh -l </tspan><tspan x="135.022" y="0" font-family="LiberationMono,&quot;Liberation Mono&quot;,Consolas,Monaco,&quot;Andale Mono&quot;,monospace" font-weight="700">idm_user@example.com</tspan><tspan x="243.04" y="0"> client.example.com</tspan></text><g><path class="f32873fd-9665-4a2e-870e-59d5f6737e19" transform="rotate(-180 477.5 44.763)" d="M410 25.263h135v39H410z"/><text transform="translate(420 48.087)" font-family="LiberationMono,&quot;Liberation Mono&quot;,Consolas,Monaco,&quot;Andale Mono&quot;,monospace" font-size="9" font-weight="700" fill="#151515">Password:</text></g></svg>