<svg id="bd82f690-44ee-42a4-a6d7-9a0349d4e93f" data-name="artwork" xmlns="http://www.w3.org/2000/svg" width="760" height="317.603"><defs><style>.b7baf23e-394b-4aaa-bd39-6392f08f70cd,.e05001f3-1240-4b91-a532-bbadfcf1a314{fill:none}.a1e161a7-08d1-47f6-b276-47722cba07a1{fill:#e8e8e8}.ae1605d2-557b-465d-a747-63e0a6832fdb{font-size:14px;font-family:RedHatText,&quot;Red Hat Text&quot;,Overpass,&quot;Helvetica Neue&quot;,Arial,sans-serif;font-weight:700;fill:#151515}.f170193d-57b8-4ae9-9e2f-71b53858e25e{fill:#151515}.a5be04fb-8052-44b2-889a-5153fb505f84{fill:#adadad}.bf916020-ab53-4b34-be85-353e88a7e615,.f170193d-57b8-4ae9-9e2f-71b53858e25e{font-size:12px;font-family:RedHatText,&quot;Red Hat Text&quot;,Overpass,&quot;Helvetica Neue&quot;,Arial,sans-serif;font-weight:500}.a2c96376-e2ca-4f65-98f8-3adb9d84e37b,.bf916020-ab53-4b34-be85-353e88a7e615{fill:#fff}.e083b1b7-363e-4a1b-b875-bf754344fe95{fill:#06c}.a86fe6df-94e0-4861-b151-26c001713185{fill:#d9e8f7}.b7baf23e-394b-4aaa-bd39-6392f08f70cd,.e05001f3-1240-4b91-a532-bbadfcf1a314{stroke:#06c;stroke-linecap:round;stroke-linejoin:round}.e05001f3-1240-4b91-a532-bbadfcf1a314{stroke-dasharray:3.1 3.1}</style></defs><text transform="translate(688.331 300.62)" font-size="10" fill="#f3f3f3" font-family="RedHatText,&quot;Red Hat Text&quot;,Overpass,&quot;Helvetica Neue&quot;,Arial,sans-serif">126_RHEL_1020</text><path fill="none" d="M0 277.603h760v40H0z"/><g><path class="a1e161a7-08d1-47f6-b276-47722cba07a1" d="M0 19.724h300v225H0z"/><text class="ae1605d2-557b-465d-a747-63e0a6832fdb" transform="translate(15 46.512)">Node A</text><path class="a5be04fb-8052-44b2-889a-5153fb505f84" d="M198.692 189.474H299.9v20.5H198.692c-5.661 0-5.661-20.5 0-20.5z"/><text class="bf916020-ab53-4b34-be85-353e88a7e615" transform="translate(202.694 204.323)">Bearer service</text><path class="e083b1b7-363e-4a1b-b875-bf754344fe95" d="M198.777 134.474H300v20.5H198.777c-5.661 0-5.661-20.5 0-20.5z"/><text class="bf916020-ab53-4b34-be85-353e88a7e615" transform="translate(202.778 149.392)">TIPC address</text><path class="a2c96376-e2ca-4f65-98f8-3adb9d84e37b" d="M15 59.724h165v60H15z"/><text class="f170193d-57b8-4ae9-9e2f-71b53858e25e" transform="translate(50.573 93.049)">TIPC application</text><path class="a86fe6df-94e0-4861-b151-26c001713185" d="M15.5 125.224h164v39h-164z"/><path class="e083b1b7-363e-4a1b-b875-bf754344fe95" d="M179 125.724v38H16v-38h163m1-1H15v40h165v-40z"/><text class="f170193d-57b8-4ae9-9e2f-71b53858e25e" transform="translate(83.092 148.049)">TIPC</text><path class="a1e161a7-08d1-47f6-b276-47722cba07a1" d="M460 19.724h300v225H460z"/><text class="ae1605d2-557b-465d-a747-63e0a6832fdb" transform="translate(474.999 46.512)">Node B</text><path class="a5be04fb-8052-44b2-889a-5153fb505f84" d="M561.308 189.474H460.1v20.5h101.208c5.661 0 5.661-20.5 0-20.5z"/><text class="bf916020-ab53-4b34-be85-353e88a7e615" transform="translate(476.367 204.323)">Bearer service</text><path class="e083b1b7-363e-4a1b-b875-bf754344fe95" d="M561.223 134.474H460v20.5h101.223c5.661 0 5.661-20.5 0-20.5z"/><text class="bf916020-ab53-4b34-be85-353e88a7e615" transform="translate(482.463 149.392)">TIPC address</text><g><path class="a2c96376-e2ca-4f65-98f8-3adb9d84e37b" d="M580 59.724h165v60H580z"/><text class="f170193d-57b8-4ae9-9e2f-71b53858e25e" transform="translate(615.573 93.049)">TIPC application</text></g><g><path class="a86fe6df-94e0-4861-b151-26c001713185" d="M580.5 125.224h164v39h-164z"/><path class="e083b1b7-363e-4a1b-b875-bf754344fe95" d="M744 125.724v38H581v-38h163m1-1H580v40h165v-40z"/><text class="f170193d-57b8-4ae9-9e2f-71b53858e25e" transform="translate(648.091 148.049)">TIPC</text></g><g><path class="b7baf23e-394b-4aaa-bd39-6392f08f70cd" d="M97.5 239.4v1.5"/><path class="e05001f3-1240-4b91-a532-bbadfcf1a314" d="M97.5 244v29.45"/><path class="b7baf23e-394b-4aaa-bd39-6392f08f70cd" d="M97.5 275v1.5H99"/><path stroke-dasharray="3.005 3.005" stroke="#06c" stroke-linecap="round" stroke-linejoin="round" fill="none" d="M102.005 276.5h557.492"/><path class="b7baf23e-394b-4aaa-bd39-6392f08f70cd" d="M661 276.5h1.5V275"/><path class="e05001f3-1240-4b91-a532-bbadfcf1a314" d="M662.5 271.9v-29.45"/><path class="b7baf23e-394b-4aaa-bd39-6392f08f70cd" d="M662.5 240.9v-1.5"/><path class="e083b1b7-363e-4a1b-b875-bf754344fe95" d="M92.514 240.859l4.986-8.635 4.986 8.635h-9.972zM667.486 240.859l-4.986-8.635-4.986 8.635h9.972z"/></g><g><path class="a2c96376-e2ca-4f65-98f8-3adb9d84e37b" d="M15 169.724h165v60H15z"/><text class="f170193d-57b8-4ae9-9e2f-71b53858e25e" transform="translate(64.553 198.049)">Level 2 or 3<tspan x="-7.47" y="13">bearer service</tspan></text></g><g><path class="a2c96376-e2ca-4f65-98f8-3adb9d84e37b" d="M580 169.724h165v60H580z"/><text class="f170193d-57b8-4ae9-9e2f-71b53858e25e" transform="translate(629.552 198.049)">Level 2 or 3<tspan x="-7.47" y="13">bearer service</tspan></text></g><path class="a2c96376-e2ca-4f65-98f8-3adb9d84e37b" d="M328.93 266.785h102.14v21.635H328.93z"/><text class="f170193d-57b8-4ae9-9e2f-71b53858e25e" transform="translate(332.979 280.5)">Bearer transport</text></g></svg>