<?xml version="1.0" encoding="UTF-8"?>
<svg id="artwork" xmlns="http://www.w3.org/2000/svg" viewBox="0 0 760 449.46">
  <defs>
    <style>
      .cls-1, .cls-2, .cls-3, .cls-4, .cls-5, .cls-6 {
        fill: none;
      }

      .cls-7 {
        letter-spacing: .01em;
      }

      .cls-2, .cls-3, .cls-4, .cls-5 {
        stroke: #151515;
      }

      .cls-2, .cls-3, .cls-4, .cls-8 {
        stroke-linecap: round;
        stroke-linejoin: round;
      }

      .cls-9 {
        letter-spacing: 0em;
      }

      .cls-10 {
        font-size: 16px;
      }

      .cls-10, .cls-11, .cls-12, .cls-13 {
        fill: #151515;
      }

      .cls-10, .cls-13 {
        font-family: RedHatTextRoman-Bold, 'Red Hat Text';
        font-variation-settings: 'wght' 700;
      }

      .cls-14 {
        letter-spacing: 0em;
      }

      .cls-15 {
        letter-spacing: 0em;
      }

      .cls-16 {
        letter-spacing: 0em;
      }

      .cls-17 {
        letter-spacing: 0em;
      }

      .cls-18 {
        letter-spacing: 0em;
      }

      .cls-19 {
        letter-spacing: 0em;
      }

      .cls-20 {
        letter-spacing: 0em;
      }

      .cls-21 {
        letter-spacing: .04em;
      }

      .cls-22 {
        letter-spacing: 0em;
      }

      .cls-23 {
        letter-spacing: .02em;
      }

      .cls-24 {
        fill: #06c;
      }

      .cls-25 {
        fill: #e6e6e6;
      }

      .cls-26, .cls-27, .cls-8 {
        fill: #fff;
      }

      .cls-28 {
        fill: #7f7f7f;
      }

      .cls-29 {
        fill: #a6a6a6;
      }

      .cls-30 {
        fill: #d9e8f7;
      }

      .cls-31 {
        letter-spacing: 0em;
      }

      .cls-32 {
        letter-spacing: -.03em;
      }

      .cls-33 {
        letter-spacing: 0em;
      }

      .cls-34 {
        letter-spacing: -.02em;
      }

      .cls-35 {
        letter-spacing: -.01em;
      }

      .cls-36 {
        letter-spacing: -.01em;
      }

      .cls-3 {
        stroke-dasharray: 0 0 3.02 3.02;
      }

      .cls-37 {
        letter-spacing: .01em;
      }

      .cls-38 {
        letter-spacing: .01em;
      }

      .cls-39 {
        letter-spacing: -.01em;
      }

      .cls-40 {
        letter-spacing: .02em;
      }

      .cls-41 {
        letter-spacing: .01em;
      }

      .cls-42 {
        letter-spacing: 0em;
      }

      .cls-43 {
        letter-spacing: .02em;
      }

      .cls-44 {
        letter-spacing: .02em;
      }

      .cls-45 {
        letter-spacing: 0em;
      }

      .cls-46 {
        letter-spacing: 0em;
      }

      .cls-47 {
        letter-spacing: -.01em;
      }

      .cls-48 {
        letter-spacing: -.01em;
      }

      .cls-49 {
        letter-spacing: -.01em;
      }

      .cls-50 {
        letter-spacing: 0em;
      }

      .cls-51 {
        letter-spacing: .04em;
      }

      .cls-52 {
        fill: #ececec;
        font-family: RedHatTextRoman-Regular, 'Red Hat Text';
        font-size: 10px;
        font-variation-settings: 'wght' 400;
      }

      .cls-53 {
        letter-spacing: .01em;
      }

      .cls-54 {
        letter-spacing: 0em;
      }

      .cls-11 {
        font-size: 11px;
      }

      .cls-11, .cls-27, .cls-12 {
        font-family: RedHatTextRoman-Medium, 'Red Hat Text';
        font-variation-settings: 'wght' 500;
      }

      .cls-4 {
        stroke-dasharray: 0 0 3.02 3.02;
      }

      .cls-55 {
        letter-spacing: -.01em;
      }

      .cls-56 {
        letter-spacing: 0em;
      }

      .cls-57 {
        letter-spacing: 0em;
      }

      .cls-58 {
        letter-spacing: -.01em;
      }

      .cls-59 {
        letter-spacing: 0em;
      }

      .cls-60 {
        letter-spacing: 0em;
      }

      .cls-61 {
        letter-spacing: 0em;
      }

      .cls-62 {
        letter-spacing: 0em;
      }

      .cls-63 {
        letter-spacing: .04em;
      }

      .cls-64 {
        letter-spacing: 0em;
      }

      .cls-65 {
        letter-spacing: 0em;
      }

      .cls-66 {
        letter-spacing: 0em;
      }

      .cls-67 {
        letter-spacing: 0em;
      }

      .cls-68 {
        letter-spacing: 0em;
      }

      .cls-69 {
        letter-spacing: 0em;
      }

      .cls-70 {
        letter-spacing: 0em;
      }

      .cls-71 {
        letter-spacing: -.02em;
      }

      .cls-72 {
        letter-spacing: 0em;
      }

      .cls-73 {
        letter-spacing: 0em;
      }

      .cls-74 {
        letter-spacing: 0em;
      }

      .cls-75 {
        letter-spacing: 0em;
      }

      .cls-27, .cls-12 {
        font-size: 12px;
      }

      .cls-76 {
        letter-spacing: .03em;
      }

      .cls-5, .cls-6 {
        stroke-miterlimit: 10;
      }

      .cls-6 {
        stroke: #bfbfbf;
      }

      .cls-77 {
        letter-spacing: -.01em;
      }

      .cls-78 {
        letter-spacing: -.03em;
      }

      .cls-79 {
        letter-spacing: 0em;
      }

      .cls-80 {
        letter-spacing: 0em;
      }

      .cls-81 {
        letter-spacing: -.02em;
      }

      .cls-82 {
        letter-spacing: .01em;
      }

      .cls-83 {
        letter-spacing: -.02em;
      }

      .cls-84 {
        letter-spacing: .02em;
      }

      .cls-85 {
        letter-spacing: 0em;
      }

      .cls-86 {
        letter-spacing: 0em;
      }

      .cls-87 {
        letter-spacing: .06em;
      }

      .cls-88 {
        letter-spacing: 0em;
      }

      .cls-89 {
        letter-spacing: 0em;
      }

      .cls-90 {
        letter-spacing: 0em;
      }

      .cls-8 {
        stroke: #5b5b5b;
        stroke-width: 1.5px;
      }

      .cls-91 {
        letter-spacing: -.03em;
      }

      .cls-13 {
        font-size: 14px;
      }

      .cls-92 {
        letter-spacing: 0em;
      }

      .cls-93 {
        letter-spacing: 0em;
      }

      .cls-94 {
        letter-spacing: -.02em;
      }

      .cls-95 {
        letter-spacing: 0em;
      }

      .cls-96 {
        letter-spacing: 0em;
      }

      .cls-97 {
        letter-spacing: 0em;
      }

      .cls-98 {
        letter-spacing: .01em;
      }

      .cls-99 {
        letter-spacing: 0em;
      }

      .cls-100 {
        letter-spacing: 0em;
      }

      .cls-101 {
        letter-spacing: 0em;
      }

      .cls-102 {
        letter-spacing: 0em;
      }

      .cls-103 {
        letter-spacing: 0em;
      }

      .cls-104 {
        letter-spacing: 0em;
      }

      .cls-105 {
        letter-spacing: .02em;
      }
    </style>
  </defs>
  <rect class="cls-25" x=".35" y="20.46" width="760" height="389"/>
  <text class="cls-10" transform="translate(25.04 58.6)"><tspan class="cls-37" x="0" y="0">A</tspan><tspan class="cls-20" x="12.06" y="0">ma</tspan><tspan class="cls-32" x="35.77" y="0">z</tspan><tspan class="cls-56" x="43.44" y="0">o</tspan><tspan x="53.35" y="0">n </tspan><tspan class="cls-91" x="66.68" y="0">W</tspan><tspan class="cls-22" x="81.87" y="0">e</tspan><tspan class="cls-86" x="91.3" y="0">b </tspan><tspan class="cls-42" x="105.05" y="0">S</tspan><tspan class="cls-22" x="115.62" y="0">e</tspan><tspan class="cls-63" x="125.05" y="0">r</tspan><tspan class="cls-90" x="132.68" y="0">v</tspan><tspan class="cls-88" x="142.26" y="0">i</tspan><tspan class="cls-58" x="146.83" y="0">c</tspan><tspan class="cls-100" x="155.24" y="0">e</tspan><tspan x="164.75" y="0">s</tspan></text>
  <rect class="cls-26" x="40.54" y="85.02" width="271.5" height="283.59"/>
  <text class="cls-13" transform="translate(60.54 114.92)"><tspan class="cls-93" x="0" y="0">V</tspan><tspan class="cls-104" x="10.5" y="0">P</tspan><tspan x="20.38" y="0">C</tspan></text>
  <rect class="cls-30" x="86.04" y="150.02" width="206" height="35"/>
  <text class="cls-12" transform="translate(153.58 171.02)"><tspan class="cls-14" x="0" y="0">B</tspan><tspan class="cls-102" x="8.36" y="0">as</tspan><tspan x="20.83" y="0">e </tspan><tspan class="cls-23" x="30.4" y="0">s</tspan><tspan class="cls-68" x="36.34" y="0">y</tspan><tspan class="cls-43" x="42.88" y="0">s</tspan><tspan class="cls-83" x="48.85" y="0">t</tspan><tspan class="cls-69" x="53.55" y="0">e</tspan><tspan x="60.41" y="0">m</tspan></text>
  <polyline class="cls-6" points="76.04 265.02 76.04 300.02 282.04 300.02"/>
  <polyline class="cls-6" points="81.04 260.02 81.04 295.02 287.04 295.02"/>
  <rect class="cls-25" x="86.04" y="255.02" width="206" height="35"/>
  <text class="cls-12" transform="translate(144.75 276.02)"><tspan class="cls-7" x="0" y="0">R</tspan><tspan class="cls-33" x="8.21" y="0">H</tspan><tspan class="cls-31" x="17.25" y="0">E</tspan><tspan x="24.83" y="0">L </tspan><tspan class="cls-73" x="35.04" y="0">i</tspan><tspan class="cls-18" x="38.12" y="0">n</tspan><tspan class="cls-43" x="45.17" y="0">s</tspan><tspan class="cls-66" x="51.14" y="0">t</tspan><tspan class="cls-61" x="56.13" y="0">a</tspan><tspan x="62.79" y="0">n</tspan><tspan class="cls-35" x="69.77" y="0">c</tspan><tspan class="cls-65" x="75.91" y="0">e</tspan><tspan class="cls-59" x="82.83" y="0">s</tspan></text>
  <line class="cls-5" x1="189.04" y1="235.02" x2="189.04" y2="255.02"/>
  <g>
    <polyline class="cls-2" points="327.04 382.02 327.04 383.52 325.54 383.52"/>
    <line class="cls-3" x1="322.52" y1="383.52" x2="28.55" y2="383.52"/>
    <polyline class="cls-2" points="27.04 383.52 25.54 383.52 25.54 382.02"/>
    <line class="cls-4" x1="25.54" y1="379" x2="25.54" y2="133.03"/>
    <polyline class="cls-2" points="25.54 131.52 25.54 130.02 27.04 130.02"/>
    <line class="cls-3" x1="30.06" y1="130.02" x2="324.03" y2="130.02"/>
    <polyline class="cls-2" points="325.54 130.02 327.04 130.02 327.04 131.52"/>
    <line class="cls-4" x1="327.04" y1="134.54" x2="327.04" y2="380.51"/>
  </g>
  <rect class="cls-25" x="125.54" y="378.14" width="101.5" height="10.75"/>
  <text class="cls-12" transform="translate(130.49 387.22)"><tspan class="cls-71" x="0" y="0">A</tspan><tspan x="8.17" y="0">v</tspan><tspan class="cls-46" x="14.68" y="0">a</tspan><tspan class="cls-60" x="21.31" y="0">i</tspan><tspan x="24.39" y="0">l</tspan><tspan class="cls-62" x="27.41" y="0">a</tspan><tspan x="34.07" y="0">b</tspan><tspan class="cls-60" x="41.4" y="0">il</tspan><tspan class="cls-54" x="47.55" y="0">i</tspan><tspan class="cls-76" x="50.61" y="0">t</tspan><tspan class="cls-57" x="55.94" y="0">y </tspan><tspan class="cls-78" x="65.08" y="0">z</tspan><tspan class="cls-50" x="70.53" y="0">o</tspan><tspan class="cls-66" x="77.72" y="0">n</tspan><tspan x="84.73" y="0">e</tspan></text>
  <polyline class="cls-5" points="129.71 334.51 60.54 334.51 60.54 210.02 86.04 210.02"/>
  <g>
    <path class="cls-29" d="M137.64,320.5h0s109.13,0,109.13,0v28.01h-109.13s0,0,0,0c-10.58,0-10.58-28.01,0-28.01Z"/>
    <text class="cls-27" transform="translate(140.35 337.92)"><tspan class="cls-92" x="0" y="0">E</tspan><tspan x="7.64" y="0">l</tspan><tspan class="cls-101" x="10.67" y="0">a</tspan><tspan class="cls-44" x="17.32" y="0">s</tspan><tspan x="23.29" y="0">t</tspan><tspan class="cls-74" x="28.26" y="0">i</tspan><tspan class="cls-45" x="31.27" y="0">c </tspan><tspan class="cls-96" x="40.25" y="0">I</tspan><tspan x="43.67" y="0">P</tspan></text>
    <path class="cls-28" d="M211.47,320.5h0s116.06,0,116.06,0v28.01h-116.06s0,0,0,0c-10.58,0-10.58-28.01,0-28.01Z"/>
    <text class="cls-27" transform="translate(214.02 337.92)"><tspan class="cls-16" x="0" y="0">I</tspan><tspan class="cls-49" x="3.41" y="0">n</tspan><tspan class="cls-81" x="10.24" y="0">t</tspan><tspan class="cls-70" x="14.94" y="0">e</tspan><tspan class="cls-16" x="21.81" y="0">r</tspan><tspan class="cls-66" x="26.6" y="0">n</tspan><tspan class="cls-34" x="33.61" y="0">e</tspan><tspan x="40.3" y="0">t </tspan><tspan class="cls-36" x="47.96" y="0">G</tspan><tspan class="cls-99" x="57.45" y="0">a</tspan><tspan class="cls-81" x="63.95" y="0">t</tspan><tspan class="cls-9" x="68.65" y="0">e</tspan><tspan class="cls-79" x="75.42" y="0">w</tspan><tspan class="cls-89" x="84.18" y="0">a</tspan><tspan x="90.66" y="0">y</tspan></text>
  </g>
  <rect class="cls-24" x="86.04" y="185.02" width="206" height="50"/>
  <text class="cls-27" transform="translate(145.56 213.52)"><tspan class="cls-64" x="0" y="0">S</tspan><tspan class="cls-99" x="7.75" y="0">a</tspan><tspan class="cls-81" x="14.25" y="0">t</tspan><tspan x="18.95" y="0">e</tspan><tspan class="cls-95" x="25.82" y="0">ll</tspan><tspan class="cls-54" x="31.97" y="0">i</tspan><tspan class="cls-81" x="35.03" y="0">t</tspan><tspan x="39.73" y="0">e </tspan><tspan class="cls-75" x="49.3" y="0">S</tspan><tspan class="cls-69" x="57.03" y="0">e</tspan><tspan class="cls-51" x="63.9" y="0">r</tspan><tspan class="cls-39" x="69.05" y="0">v</tspan><tspan class="cls-70" x="75.39" y="0">e</tspan><tspan x="82.25" y="0">r</tspan></text>
  <rect class="cls-26" x="448.35" y="85.02" width="271.5" height="283.59"/>
  <text class="cls-13" transform="translate(468.35 114.92)"><tspan class="cls-93" x="0" y="0">V</tspan><tspan class="cls-104" x="10.5" y="0">P</tspan><tspan x="20.38" y="0">C</tspan></text>
  <rect class="cls-30" x="468.35" y="150.02" width="206" height="35"/>
  <text class="cls-12" transform="translate(535.89 171.02)"><tspan class="cls-14" x="0" y="0">B</tspan><tspan class="cls-102" x="8.36" y="0">as</tspan><tspan x="20.83" y="0">e </tspan><tspan class="cls-23" x="30.4" y="0">s</tspan><tspan class="cls-68" x="36.34" y="0">y</tspan><tspan class="cls-43" x="42.88" y="0">s</tspan><tspan class="cls-83" x="48.85" y="0">t</tspan><tspan class="cls-69" x="53.55" y="0">e</tspan><tspan x="60.41" y="0">m</tspan></text>
  <polyline class="cls-6" points="684.35 265.02 684.35 300.02 478.35 300.02"/>
  <polyline class="cls-6" points="679.35 260.02 679.35 295.02 473.35 295.02"/>
  <rect class="cls-25" x="468.35" y="255.02" width="206" height="35"/>
  <text class="cls-12" transform="translate(527.06 276.02)"><tspan class="cls-7" x="0" y="0">R</tspan><tspan class="cls-33" x="8.21" y="0">H</tspan><tspan class="cls-31" x="17.25" y="0">E</tspan><tspan x="24.83" y="0">L </tspan><tspan class="cls-73" x="35.04" y="0">i</tspan><tspan class="cls-18" x="38.12" y="0">n</tspan><tspan class="cls-43" x="45.17" y="0">s</tspan><tspan class="cls-66" x="51.14" y="0">t</tspan><tspan class="cls-61" x="56.13" y="0">a</tspan><tspan x="62.79" y="0">n</tspan><tspan class="cls-35" x="69.77" y="0">c</tspan><tspan class="cls-65" x="75.91" y="0">e</tspan><tspan class="cls-59" x="82.83" y="0">s</tspan></text>
  <line class="cls-5" x1="571.35" y1="235.02" x2="571.35" y2="255.02"/>
  <g>
    <polyline class="cls-2" points="433.35 382.02 433.35 383.52 434.85 383.52"/>
    <line class="cls-3" x1="437.86" y1="383.52" x2="731.84" y2="383.52"/>
    <polyline class="cls-2" points="733.35 383.52 734.85 383.52 734.85 382.02"/>
    <line class="cls-4" x1="734.85" y1="379" x2="734.85" y2="133.03"/>
    <polyline class="cls-2" points="734.85 131.52 734.85 130.02 733.35 130.02"/>
    <line class="cls-3" x1="730.33" y1="130.02" x2="436.36" y2="130.02"/>
    <polyline class="cls-2" points="434.85 130.02 433.35 130.02 433.35 131.52"/>
    <line class="cls-4" x1="433.35" y1="134.54" x2="433.35" y2="380.51"/>
  </g>
  <rect class="cls-25" x="532.99" y="378.14" width="102.21" height="10.75"/>
  <text class="cls-12" transform="translate(538.3 387.22)"><tspan class="cls-71" x="0" y="0">A</tspan><tspan x="8.17" y="0">v</tspan><tspan class="cls-46" x="14.68" y="0">a</tspan><tspan class="cls-60" x="21.31" y="0">i</tspan><tspan x="24.39" y="0">l</tspan><tspan class="cls-62" x="27.41" y="0">a</tspan><tspan x="34.07" y="0">b</tspan><tspan class="cls-60" x="41.4" y="0">il</tspan><tspan class="cls-54" x="47.55" y="0">i</tspan><tspan class="cls-76" x="50.61" y="0">t</tspan><tspan class="cls-57" x="55.94" y="0">y </tspan><tspan class="cls-78" x="65.08" y="0">z</tspan><tspan class="cls-50" x="70.53" y="0">o</tspan><tspan class="cls-66" x="77.72" y="0">n</tspan><tspan x="84.73" y="0">e</tspan></text>
  <polyline class="cls-5" points="630.45 334.51 699.85 334.51 699.85 210.02 674.35 210.02"/>
  <line class="cls-5" x1="327.54" y1="334.51" x2="432.85" y2="334.51"/>
  <g>
    <path class="cls-29" d="M622.75,320.5h0s-109.13,0-109.13,0v28.01h109.13s0,0,0,0c10.58,0,10.58-28.01,0-28.01Z"/>
    <text class="cls-27" transform="translate(568.21 337.92)"><tspan class="cls-92" x="0" y="0">E</tspan><tspan x="7.64" y="0">l</tspan><tspan class="cls-101" x="10.67" y="0">a</tspan><tspan class="cls-44" x="17.32" y="0">s</tspan><tspan x="23.29" y="0">t</tspan><tspan class="cls-74" x="28.26" y="0">i</tspan><tspan class="cls-45" x="31.27" y="0">c </tspan><tspan class="cls-96" x="40.25" y="0">I</tspan><tspan x="43.67" y="0">P</tspan></text>
    <path class="cls-28" d="M548.92,320.5h0s-116.06,0-116.06,0v28.01h116.06s0,0,0,0c10.58,0,10.58-28.01,0-28.01Z"/>
    <text class="cls-27" transform="translate(449.27 337.92)"><tspan class="cls-16" x="0" y="0">I</tspan><tspan class="cls-49" x="3.41" y="0">n</tspan><tspan class="cls-81" x="10.24" y="0">t</tspan><tspan class="cls-70" x="14.94" y="0">e</tspan><tspan class="cls-16" x="21.81" y="0">r</tspan><tspan class="cls-66" x="26.6" y="0">n</tspan><tspan class="cls-34" x="33.61" y="0">e</tspan><tspan x="40.3" y="0">t </tspan><tspan class="cls-36" x="47.96" y="0">G</tspan><tspan class="cls-97" x="57.45" y="0">a</tspan><tspan class="cls-81" x="63.95" y="0">t</tspan><tspan class="cls-9" x="68.65" y="0">e</tspan><tspan class="cls-79" x="75.42" y="0">w</tspan><tspan class="cls-89" x="84.18" y="0">a</tspan><tspan x="90.66" y="0">y</tspan></text>
  </g>
  <rect class="cls-24" x="468.35" y="185.02" width="206" height="50"/>
  <text class="cls-27" transform="translate(527.86 213.52)"><tspan class="cls-64" x="0" y="0">S</tspan><tspan class="cls-99" x="7.75" y="0">a</tspan><tspan class="cls-81" x="14.25" y="0">t</tspan><tspan x="18.95" y="0">e</tspan><tspan class="cls-95" x="25.82" y="0">ll</tspan><tspan class="cls-54" x="31.97" y="0">i</tspan><tspan class="cls-81" x="35.03" y="0">t</tspan><tspan x="39.73" y="0">e </tspan><tspan class="cls-75" x="49.3" y="0">S</tspan><tspan class="cls-69" x="57.03" y="0">e</tspan><tspan class="cls-51" x="63.9" y="0">r</tspan><tspan class="cls-39" x="69.05" y="0">v</tspan><tspan class="cls-70" x="75.39" y="0">e</tspan><tspan x="82.25" y="0">r</tspan></text>
  <g>
    <text class="cls-11" transform="translate(359.43 361.97)"><tspan class="cls-41" x="0" y="0">I</tspan><tspan class="cls-67" x="3.17" y="0">n</tspan><tspan class="cls-94" x="9.49" y="0">t</tspan><tspan class="cls-85" x="13.85" y="0">e</tspan><tspan class="cls-38" x="20.19" y="0">r</tspan><tspan class="cls-15" x="24.63" y="0">n</tspan><tspan class="cls-55" x="31.11" y="0">e</tspan><tspan x="37.29" y="0">t</tspan></text>
    <path class="cls-8" d="M395.41,332.12c0-7.33-5.99-13.27-13.38-13.27-5,0-9.36,2.73-11.65,6.76-.56-.1-1.14-.16-1.73-.16-5.55,0-10.05,4.46-10.05,9.97s4.5,9.97,10.05,9.97h26.76c3.69,0,6.69-2.97,6.69-6.64s-3-6.64-6.69-6.64Z"/>
  </g>
  <g>
    <text class="cls-52" transform="translate(670.98 432.48)"><tspan class="cls-17" x="0" y="0">2</tspan><tspan class="cls-80" x="5.53" y="0">7</tspan><tspan class="cls-21" x="11.06" y="0">8</tspan><tspan class="cls-87" x="17.64" y="0">_</tspan><tspan class="cls-44" x="22.8" y="0">S</tspan><tspan class="cls-72" x="29.21" y="0">a</tspan><tspan class="cls-47" x="34.48" y="0">t</tspan><tspan class="cls-103" x="38.14" y="0">e</tspan><tspan class="cls-98" x="43.81" y="0">ll</tspan><tspan class="cls-53" x="48.53" y="0">i</tspan><tspan class="cls-48" x="50.87" y="0">t</tspan><tspan class="cls-105" x="54.53" y="0">e</tspan><tspan class="cls-40" x="60.29" y="0">_</tspan><tspan class="cls-82" x="65.07" y="0">0</tspan><tspan class="cls-77" x="71.77" y="0">9</tspan><tspan class="cls-84" x="77.85" y="0">2</tspan><tspan class="cls-19" x="83.54" y="0">2</tspan></text>
    <rect class="cls-1" x="0" y="409.46" width="760" height="40"/>
  </g>
</svg>