<?xml version="1.0" encoding="UTF-8"?>
<svg id="artwork" xmlns="http://www.w3.org/2000/svg" viewBox="0 0 760 449">
  <defs>
    <style>
      .cls-1, .cls-2, .cls-3, .cls-4, .cls-5, .cls-6, .cls-7 {
        fill: none;
      }

      .cls-8 {
        letter-spacing: .01em;
      }

      .cls-2, .cls-3, .cls-4, .cls-5, .cls-9 {
        stroke-linecap: round;
        stroke-linejoin: round;
      }

      .cls-2, .cls-9 {
        stroke: #5b5b5b;
        stroke-width: 1.5px;
      }

      .cls-10 {
        letter-spacing: 0em;
      }

      .cls-3, .cls-4, .cls-5, .cls-6 {
        stroke: #151515;
      }

      .cls-11 {
        letter-spacing: 0em;
      }

      .cls-12 {
        font-size: 16px;
      }

      .cls-12, .cls-13, .cls-14, .cls-15 {
        fill: #151515;
      }

      .cls-12, .cls-15 {
        font-family: RedHatTextRoman-Bold, 'Red Hat Text';
        font-variation-settings: 'wght' 700;
      }

      .cls-16 {
        letter-spacing: 0em;
      }

      .cls-17 {
        letter-spacing: 0em;
      }

      .cls-18 {
        letter-spacing: 0em;
      }

      .cls-19 {
        letter-spacing: 0em;
      }

      .cls-20 {
        letter-spacing: 0em;
      }

      .cls-21 {
        letter-spacing: 0em;
      }

      .cls-22 {
        letter-spacing: 0em;
      }

      .cls-23 {
        letter-spacing: 0em;
      }

      .cls-24 {
        letter-spacing: 0em;
      }

      .cls-25 {
        letter-spacing: 0em;
      }

      .cls-26 {
        letter-spacing: .04em;
      }

      .cls-27 {
        letter-spacing: 0em;
      }

      .cls-28 {
        letter-spacing: 0em;
      }

      .cls-29 {
        letter-spacing: 0em;
      }

      .cls-30 {
        letter-spacing: .02em;
      }

      .cls-31 {
        fill: #06c;
      }

      .cls-32 {
        fill: #e6e6e6;
      }

      .cls-33, .cls-34, .cls-9 {
        fill: #fff;
      }

      .cls-35 {
        fill: #e5e5e5;
      }

      .cls-36 {
        fill: #7f7f7f;
      }

      .cls-37 {
        fill: #d9e8f7;
      }

      .cls-38 {
        letter-spacing: 0em;
      }

      .cls-39 {
        letter-spacing: 0em;
      }

      .cls-40 {
        letter-spacing: -.03em;
      }

      .cls-41 {
        letter-spacing: 0em;
      }

      .cls-42 {
        letter-spacing: -.02em;
      }

      .cls-43 {
        letter-spacing: -.01em;
      }

      .cls-44 {
        letter-spacing: -.01em;
      }

      .cls-45 {
        letter-spacing: -.02em;
      }

      .cls-4 {
        stroke-dasharray: 0 0 3.02 3.02;
      }

      .cls-46 {
        letter-spacing: .01em;
      }

      .cls-47 {
        letter-spacing: .01em;
      }

      .cls-48 {
        letter-spacing: -.01em;
      }

      .cls-49 {
        letter-spacing: 0em;
      }

      .cls-50 {
        letter-spacing: .02em;
      }

      .cls-51 {
        letter-spacing: .01em;
      }

      .cls-52 {
        letter-spacing: 0em;
      }

      .cls-53 {
        letter-spacing: .02em;
      }

      .cls-54 {
        letter-spacing: -.01em;
      }

      .cls-55 {
        letter-spacing: .02em;
      }

      .cls-56 {
        letter-spacing: 0em;
      }

      .cls-57 {
        letter-spacing: 0em;
      }

      .cls-58 {
        letter-spacing: 0em;
      }

      .cls-59 {
        letter-spacing: -.01em;
      }

      .cls-60 {
        letter-spacing: 0em;
      }

      .cls-61 {
        letter-spacing: -.01em;
      }

      .cls-62 {
        letter-spacing: -.01em;
      }

      .cls-63 {
        letter-spacing: 0em;
      }

      .cls-64 {
        letter-spacing: .04em;
      }

      .cls-65 {
        fill: #ececec;
        font-family: RedHatTextRoman-Regular, 'Red Hat Text';
        font-size: 10px;
        font-variation-settings: 'wght' 400;
      }

      .cls-66 {
        letter-spacing: .01em;
      }

      .cls-67 {
        letter-spacing: 0em;
      }

      .cls-13 {
        font-size: 11px;
      }

      .cls-13, .cls-34, .cls-14 {
        font-family: RedHatTextRoman-Medium, 'Red Hat Text';
        font-variation-settings: 'wght' 500;
      }

      .cls-5 {
        stroke-dasharray: 0 0 3.02 3.02;
      }

      .cls-68 {
        letter-spacing: -.01em;
      }

      .cls-69 {
        letter-spacing: 0em;
      }

      .cls-70 {
        letter-spacing: 0em;
      }

      .cls-71 {
        letter-spacing: -.01em;
      }

      .cls-72 {
        letter-spacing: -.01em;
      }

      .cls-73 {
        letter-spacing: 0em;
      }

      .cls-74 {
        letter-spacing: 0em;
      }

      .cls-75 {
        letter-spacing: 0em;
      }

      .cls-76 {
        letter-spacing: 0em;
      }

      .cls-77 {
        letter-spacing: 0em;
      }

      .cls-78 {
        letter-spacing: .04em;
      }

      .cls-79 {
        letter-spacing: 0em;
      }

      .cls-80 {
        letter-spacing: -.01em;
      }

      .cls-81 {
        letter-spacing: 0em;
      }

      .cls-82 {
        letter-spacing: 0em;
      }

      .cls-83 {
        letter-spacing: 0em;
      }

      .cls-84 {
        letter-spacing: 0em;
      }

      .cls-85 {
        letter-spacing: 0em;
      }

      .cls-86 {
        letter-spacing: 0em;
      }

      .cls-87 {
        letter-spacing: 0em;
      }

      .cls-88 {
        letter-spacing: -.02em;
      }

      .cls-89 {
        letter-spacing: 0em;
      }

      .cls-90 {
        letter-spacing: 0em;
      }

      .cls-91 {
        letter-spacing: 0em;
      }

      .cls-92 {
        letter-spacing: 0em;
      }

      .cls-93 {
        letter-spacing: 0em;
      }

      .cls-34, .cls-14 {
        font-size: 12px;
      }

      .cls-94 {
        letter-spacing: 0em;
      }

      .cls-95 {
        letter-spacing: .03em;
      }

      .cls-96 {
        letter-spacing: 0em;
      }

      .cls-6, .cls-7 {
        stroke-miterlimit: 10;
      }

      .cls-7 {
        stroke: #bfbfbf;
      }

      .cls-97 {
        letter-spacing: -.01em;
      }

      .cls-98 {
        letter-spacing: 0em;
      }

      .cls-99 {
        letter-spacing: -.03em;
      }

      .cls-100 {
        letter-spacing: 0em;
      }

      .cls-101 {
        letter-spacing: 0em;
      }

      .cls-102 {
        letter-spacing: 0em;
      }

      .cls-103 {
        letter-spacing: -.02em;
      }

      .cls-104 {
        letter-spacing: .01em;
      }

      .cls-105 {
        letter-spacing: -.02em;
      }

      .cls-106 {
        letter-spacing: 0em;
      }

      .cls-107 {
        letter-spacing: .02em;
      }

      .cls-108 {
        letter-spacing: 0em;
      }

      .cls-109 {
        letter-spacing: 0em;
      }

      .cls-110 {
        letter-spacing: 0em;
      }

      .cls-111 {
        letter-spacing: 0em;
      }

      .cls-112 {
        letter-spacing: .06em;
      }

      .cls-113 {
        letter-spacing: 0em;
      }

      .cls-114 {
        letter-spacing: .03em;
      }

      .cls-115 {
        letter-spacing: 0em;
      }

      .cls-116 {
        letter-spacing: 0em;
      }

      .cls-117 {
        letter-spacing: 0em;
      }

      .cls-118 {
        letter-spacing: 0em;
      }

      .cls-119 {
        letter-spacing: 0em;
      }

      .cls-120 {
        letter-spacing: -.03em;
      }

      .cls-15 {
        font-size: 14px;
      }

      .cls-121 {
        letter-spacing: 0em;
      }

      .cls-122 {
        letter-spacing: 0em;
      }

      .cls-123 {
        letter-spacing: -.02em;
      }

      .cls-124 {
        letter-spacing: 0em;
      }

      .cls-125 {
        letter-spacing: 0em;
      }

      .cls-126 {
        letter-spacing: .01em;
      }

      .cls-127 {
        letter-spacing: .01em;
      }

      .cls-128 {
        letter-spacing: -.02em;
      }

      .cls-129 {
        letter-spacing: 0em;
      }

      .cls-130 {
        letter-spacing: -.01em;
      }

      .cls-131 {
        letter-spacing: 0em;
      }

      .cls-132 {
        letter-spacing: 0em;
      }

      .cls-133 {
        letter-spacing: 0em;
      }

      .cls-134 {
        letter-spacing: .04em;
      }

      .cls-135 {
        letter-spacing: 0em;
      }

      .cls-136 {
        letter-spacing: 0em;
      }

      .cls-137 {
        letter-spacing: 0em;
      }

      .cls-138 {
        letter-spacing: .02em;
      }
    </style>
  </defs>
  <rect class="cls-32" x="0" y="20" width="351.5" height="389"/>
  <text class="cls-12" transform="translate(24.69 58.14)"><tspan class="cls-46" x="0" y="0">A</tspan><tspan class="cls-25" x="12.06" y="0">ma</tspan><tspan class="cls-40" x="35.77" y="0">z</tspan><tspan class="cls-69" x="43.44" y="0">o</tspan><tspan x="53.35" y="0">n </tspan><tspan class="cls-120" x="66.68" y="0">W</tspan><tspan class="cls-27" x="81.87" y="0">e</tspan><tspan class="cls-111" x="91.3" y="0">b </tspan><tspan class="cls-52" x="105.05" y="0">S</tspan><tspan class="cls-27" x="115.62" y="0">e</tspan><tspan class="cls-78" x="125.05" y="0">r</tspan><tspan class="cls-116" x="132.68" y="0">v</tspan><tspan class="cls-113" x="142.26" y="0">i</tspan><tspan class="cls-71" x="146.83" y="0">c</tspan><tspan class="cls-131" x="155.24" y="0">e</tspan><tspan x="164.75" y="0">s</tspan></text>
  <rect class="cls-33" x="40.19" y="84.55" width="271.5" height="283.59"/>
  <text class="cls-15" transform="translate(60.19 114.45)"><tspan class="cls-122" x="0" y="0">V</tspan><tspan class="cls-137" x="10.5" y="0">P</tspan><tspan x="20.38" y="0">C</tspan></text>
  <rect class="cls-37" x="85.69" y="149.55" width="206" height="35"/>
  <text class="cls-14" transform="translate(153.23 170.56)"><tspan class="cls-16" x="0" y="0">B</tspan><tspan class="cls-132" x="8.36" y="0">as</tspan><tspan x="20.83" y="0">e </tspan><tspan class="cls-30" x="30.4" y="0">s</tspan><tspan class="cls-84" x="36.34" y="0">y</tspan><tspan class="cls-53" x="42.88" y="0">s</tspan><tspan class="cls-105" x="48.85" y="0">t</tspan><tspan class="cls-85" x="53.55" y="0">e</tspan><tspan x="60.41" y="0">m</tspan></text>
  <polyline class="cls-7" points="75.69 264.55 75.69 299.55 281.69 299.55"/>
  <polyline class="cls-7" points="80.69 259.55 80.69 294.55 286.69 294.55"/>
  <rect class="cls-32" x="85.69" y="254.55" width="206" height="35"/>
  <text class="cls-14" transform="translate(144.4 275.56)"><tspan class="cls-8" x="0" y="0">R</tspan><tspan class="cls-41" x="8.21" y="0">H</tspan><tspan class="cls-38" x="17.25" y="0">E</tspan><tspan x="24.83" y="0">L </tspan><tspan class="cls-91" x="35.04" y="0">i</tspan><tspan class="cls-23" x="38.12" y="0">n</tspan><tspan class="cls-53" x="45.17" y="0">s</tspan><tspan class="cls-82" x="51.14" y="0">t</tspan><tspan class="cls-75" x="56.13" y="0">a</tspan><tspan x="62.79" y="0">n</tspan><tspan class="cls-43" x="69.77" y="0">c</tspan><tspan class="cls-81" x="75.91" y="0">e</tspan><tspan class="cls-73" x="82.83" y="0">s</tspan></text>
  <line class="cls-6" x1="188.69" y1="234.55" x2="188.69" y2="254.55"/>
  <g>
    <polyline class="cls-3" points="326.69 381.55 326.69 383.05 325.19 383.05"/>
    <line class="cls-4" x1="322.18" y1="383.05" x2="28.2" y2="383.05"/>
    <polyline class="cls-3" points="26.69 383.05 25.19 383.05 25.19 381.55"/>
    <line class="cls-5" x1="25.19" y1="378.54" x2="25.19" y2="132.56"/>
    <polyline class="cls-3" points="25.19 131.05 25.19 129.55 26.69 129.55"/>
    <line class="cls-4" x1="29.71" y1="129.55" x2="323.68" y2="129.55"/>
    <polyline class="cls-3" points="325.19 129.55 326.69 129.55 326.69 131.05"/>
    <line class="cls-5" x1="326.69" y1="134.07" x2="326.69" y2="380.04"/>
  </g>
  <rect class="cls-32" x="125.19" y="377.68" width="101.5" height="10.75"/>
  <text class="cls-14" transform="translate(130.14 386.76)"><tspan class="cls-88" x="0" y="0">A</tspan><tspan x="8.17" y="0">v</tspan><tspan class="cls-57" x="14.68" y="0">a</tspan><tspan class="cls-74" x="21.31" y="0">i</tspan><tspan x="24.39" y="0">l</tspan><tspan class="cls-77" x="27.41" y="0">a</tspan><tspan x="34.07" y="0">b</tspan><tspan class="cls-74" x="41.4" y="0">il</tspan><tspan class="cls-67" x="47.55" y="0">i</tspan><tspan class="cls-95" x="50.61" y="0">t</tspan><tspan class="cls-70" x="55.94" y="0">y </tspan><tspan class="cls-99" x="65.08" y="0">z</tspan><tspan class="cls-63" x="70.53" y="0">o</tspan><tspan class="cls-82" x="77.72" y="0">n</tspan><tspan x="84.73" y="0">e</tspan></text>
  <polyline class="cls-6" points="223.19 334.05 60.19 334.05 60.19 209.55 85.69 209.55"/>
  <path class="cls-36" d="M231.12,320.04h0s96.06,0,96.06,0v28.01h-96.06s0,0,0,0c-10.58,0-10.58-28.01,0-28.01Z"/>
  <text class="cls-34" transform="translate(233.67 337.45)"><tspan class="cls-92" x="0" y="0">V</tspan><tspan class="cls-130" x="8.47" y="0">P</tspan><tspan x="16.46" y="0">N </tspan><tspan class="cls-44" x="28.29" y="0">G</tspan><tspan class="cls-129" x="37.78" y="0">a</tspan><tspan class="cls-103" x="44.28" y="0">t</tspan><tspan class="cls-11" x="48.98" y="0">e</tspan><tspan class="cls-100" x="55.74" y="0">w</tspan><tspan class="cls-115" x="64.51" y="0">a</tspan><tspan x="70.99" y="0">y</tspan></text>
  <g>
    <path class="cls-36" d="M235.43,39.58h0s116.06,0,116.06,0v28.01h-116.06s0,0,0,0c-10.58,0-10.58-28.01,0-28.01Z"/>
    <text class="cls-34" transform="translate(237.98 56.99)"><tspan class="cls-21" x="0" y="0">I</tspan><tspan class="cls-62" x="3.41" y="0">n</tspan><tspan class="cls-103" x="10.24" y="0">t</tspan><tspan class="cls-87" x="14.94" y="0">e</tspan><tspan class="cls-21" x="21.81" y="0">r</tspan><tspan class="cls-82" x="26.6" y="0">n</tspan><tspan class="cls-42" x="33.61" y="0">e</tspan><tspan x="40.3" y="0">t </tspan><tspan class="cls-44" x="47.96" y="0">G</tspan><tspan class="cls-129" x="57.45" y="0">a</tspan><tspan class="cls-103" x="63.95" y="0">t</tspan><tspan class="cls-11" x="68.65" y="0">e</tspan><tspan class="cls-100" x="75.42" y="0">w</tspan><tspan class="cls-115" x="84.18" y="0">a</tspan><tspan x="90.66" y="0">y</tspan></text>
  </g>
  <rect class="cls-31" x="85.69" y="184.55" width="206" height="50"/>
  <text class="cls-34" transform="translate(145.77 213.06)"><tspan class="cls-76" x="0" y="0">C</tspan><tspan class="cls-75" x="8.7" y="0">a</tspan><tspan class="cls-118" x="15.36" y="0">p</tspan><tspan class="cls-28" x="22.71" y="0">s</tspan><tspan class="cls-49" x="28.51" y="0">u</tspan><tspan class="cls-17" x="35.54" y="0">l</tspan><tspan x="38.61" y="0">e </tspan><tspan class="cls-86" x="48.18" y="0">S</tspan><tspan class="cls-87" x="55.91" y="0">e</tspan><tspan class="cls-134" x="62.78" y="0">r</tspan><tspan class="cls-80" x="67.93" y="0">v</tspan><tspan class="cls-87" x="74.27" y="0">e</tspan><tspan class="cls-56" x="81.13" y="0">r</tspan></text>
  <line class="cls-6" x1="327.19" y1="334.05" x2="488.5" y2="334.05"/>
  <g>
    <rect class="cls-33" x="490" y="86.05" width="268.5" height="280.59"/>
    <path class="cls-35" d="M757,87.55V365.14H491.5V87.55h265.5m3-3H488.5V368.14h271.5V84.55h0Z"/>
  </g>
  <text class="cls-15" transform="translate(508.5 114.45)"><tspan class="cls-29" x="0" y="0">O</tspan><tspan class="cls-10" x="11.51" y="0">n-</tspan><tspan class="cls-119" x="26.91" y="0">p</tspan><tspan class="cls-128" x="35.96" y="0">r</tspan><tspan class="cls-136" x="41.9" y="0">e</tspan><tspan class="cls-90" x="50.16" y="0">m</tspan><tspan class="cls-124" x="62.98" y="0">i</tspan><tspan class="cls-135" x="67.06" y="0">s</tspan><tspan x="74.28" y="0">e </tspan><tspan class="cls-20" x="85.58" y="0">d</tspan><tspan class="cls-19" x="94.56" y="0">a</tspan><tspan class="cls-106" x="102.54" y="0">t</tspan><tspan class="cls-60" x="108.97" y="0">a</tspan><tspan class="cls-54" x="117.08" y="0">c</tspan><tspan class="cls-136" x="124.46" y="0">e</tspan><tspan class="cls-72" x="132.72" y="0">n</tspan><tspan class="cls-45" x="141.18" y="0">t</tspan><tspan class="cls-136" x="147.27" y="0">e</tspan><tspan class="cls-121" x="155.53" y="0">r</tspan></text>
  <polyline class="cls-6" points="562.5 334.05 740 334.05 740 209.55 714.5 209.55"/>
  <g>
    <path class="cls-36" d="M554.57,320.04h0s-66.06,0-66.06,0v28.01h66.06s0,0,0,0c10.58,0,10.58-28.01,0-28.01Z"/>
    <text class="cls-34" transform="translate(502.88 337.45)"><tspan class="cls-44" x="0" y="0">G</tspan><tspan class="cls-125" x="9.49" y="0">a</tspan><tspan class="cls-103" x="15.99" y="0">t</tspan><tspan class="cls-11" x="20.69" y="0">e</tspan><tspan class="cls-100" x="27.45" y="0">w</tspan><tspan class="cls-115" x="36.22" y="0">a</tspan><tspan x="42.7" y="0">y</tspan></text>
  </g>
  <rect class="cls-31" x="508.5" y="184.55" width="206" height="50"/>
  <text class="cls-34" transform="translate(568.02 213.06)"><tspan class="cls-79" x="0" y="0">S</tspan><tspan class="cls-129" x="7.75" y="0">a</tspan><tspan class="cls-103" x="14.25" y="0">t</tspan><tspan x="18.95" y="0">e</tspan><tspan class="cls-124" x="25.82" y="0">ll</tspan><tspan class="cls-67" x="31.97" y="0">i</tspan><tspan class="cls-103" x="35.03" y="0">t</tspan><tspan x="39.73" y="0">e </tspan><tspan class="cls-93" x="49.3" y="0">S</tspan><tspan class="cls-85" x="57.03" y="0">e</tspan><tspan class="cls-64" x="63.9" y="0">r</tspan><tspan class="cls-48" x="69.05" y="0">v</tspan><tspan class="cls-87" x="75.39" y="0">e</tspan><tspan x="82.25" y="0">r</tspan></text>
  <line class="cls-6" x1="351.5" y1="53.58" x2="398.25" y2="53.58"/>
  <g>
    <text class="cls-13" transform="translate(399.08 81.04)"><tspan class="cls-51" x="0" y="0">I</tspan><tspan class="cls-83" x="3.17" y="0">n</tspan><tspan class="cls-123" x="9.49" y="0">t</tspan><tspan class="cls-109" x="13.85" y="0">e</tspan><tspan class="cls-47" x="20.19" y="0">r</tspan><tspan class="cls-18" x="24.63" y="0">n</tspan><tspan class="cls-68" x="31.11" y="0">e</tspan><tspan x="37.29" y="0">t</tspan></text>
    <path class="cls-9" d="M435.06,51.19c0-7.33-5.99-13.27-13.38-13.27-5,0-9.36,2.73-11.65,6.76-.56-.1-1.14-.16-1.73-.16-5.55,0-10.05,4.46-10.05,9.97s4.5,9.97,10.05,9.97h26.76c3.69,0,6.69-2.97,6.69-6.64s-3-6.64-6.69-6.64Z"/>
  </g>
  <g>
    <text class="cls-13" transform="translate(408.22 367.54)"><tspan class="cls-127" x="0" y="0">V</tspan><tspan class="cls-94" x="7.81" y="0">P</tspan><tspan class="cls-96" x="15.19" y="0">N</tspan><tspan class="cls-39" x="-17.32" y="12">c</tspan><tspan class="cls-110" x="-11.65" y="12">o</tspan><tspan class="cls-58" x="-5" y="12">n</tspan><tspan class="cls-18" x="1.5" y="12">n</tspan><tspan class="cls-101" x="7.97" y="12">e</tspan><tspan class="cls-114" x="14.34" y="12">c</tspan><tspan class="cls-98" x="20.42" y="12">t</tspan><tspan class="cls-117" x="25.02" y="12">i</tspan><tspan class="cls-108" x="27.84" y="12">o</tspan><tspan x="34.48" y="12">n</tspan></text>
    <g>
      <path class="cls-33" d="M434.73,318.73l-14.56-3.1c-.11-.02-.23-.02-.34,0l-14.56,3.1c-.38,.08-.66,.42-.66,.81v16.76c0,8.49,6.9,15.39,15.39,15.39s15.39-6.9,15.39-15.39v-16.76c0-.39-.27-.73-.66-.81Z"/>
      <polyline class="cls-2" points="415.28 333.8 418.12 336.61 424.66 330.11"/>
      <path class="cls-2" d="M420,350.91c-8.06,0-14.61-6.55-14.61-14.61v-16.8l14.61-3.1,14.61,3.1v16.8c0,8.06-6.55,14.61-14.61,14.61Z"/>
    </g>
  </g>
  <g>
    <text class="cls-65" transform="translate(670.98 432.02)"><tspan class="cls-22" x="0" y="0">2</tspan><tspan class="cls-102" x="5.53" y="0">7</tspan><tspan class="cls-26" x="11.06" y="0">8</tspan><tspan class="cls-112" x="17.64" y="0">_</tspan><tspan class="cls-55" x="22.8" y="0">S</tspan><tspan class="cls-89" x="29.21" y="0">a</tspan><tspan class="cls-59" x="34.48" y="0">t</tspan><tspan class="cls-133" x="38.14" y="0">e</tspan><tspan class="cls-126" x="43.81" y="0">ll</tspan><tspan class="cls-66" x="48.53" y="0">i</tspan><tspan class="cls-61" x="50.87" y="0">t</tspan><tspan class="cls-138" x="54.53" y="0">e</tspan><tspan class="cls-50" x="60.29" y="0">_</tspan><tspan class="cls-104" x="65.07" y="0">0</tspan><tspan class="cls-97" x="71.77" y="0">9</tspan><tspan class="cls-107" x="77.85" y="0">2</tspan><tspan class="cls-24" x="83.54" y="0">2</tspan></text>
    <rect class="cls-1" x="0" y="409" width="760" height="40"/>
  </g>
</svg>