<?xml version="1.0" encoding="UTF-8"?>
<svg id="artwork" xmlns="http://www.w3.org/2000/svg" viewBox="0 0 760 435">
  <defs>
    <style>
      .cls-1, .cls-2 {
        fill: none;
      }

      .cls-3 {
        font-size: 16px;
      }

      .cls-3, .cls-4 {
        font-family: RedHatTextRoman-Bold, 'Red Hat Text';
        font-variation-settings: 'wght' 700;
      }

      .cls-3, .cls-4, .cls-5, .cls-6 {
        fill: #151515;
      }

      .cls-7 {
        letter-spacing: -.01em;
      }

      .cls-8 {
        letter-spacing: 0em;
      }

      .cls-9 {
        letter-spacing: 0em;
      }

      .cls-10 {
        letter-spacing: -.01em;
      }

      .cls-11 {
        letter-spacing: 0em;
      }

      .cls-12 {
        letter-spacing: 0em;
      }

      .cls-13 {
        letter-spacing: 0em;
      }

      .cls-14 {
        letter-spacing: 0em;
      }

      .cls-15 {
        letter-spacing: .04em;
      }

      .cls-16 {
        letter-spacing: 0em;
      }

      .cls-17 {
        letter-spacing: -.01em;
      }

      .cls-4, .cls-6 {
        font-size: 12px;
      }

      .cls-18 {
        fill: #e6e6e6;
      }

      .cls-19 {
        fill: #fff;
      }

      .cls-20 {
        fill: #d9e8f7;
      }

      .cls-21 {
        letter-spacing: 0em;
      }

      .cls-22 {
        letter-spacing: -.02em;
      }

      .cls-23 {
        letter-spacing: .02em;
      }

      .cls-24 {
        letter-spacing: .02em;
      }

      .cls-25 {
        letter-spacing: .02em;
      }

      .cls-26 {
        letter-spacing: 0em;
      }

      .cls-27 {
        letter-spacing: -.01em;
      }

      .cls-28 {
        letter-spacing: -.01em;
      }

      .cls-29 {
        fill: #ececec;
        font-family: RedHatTextRoman-Regular, 'Red Hat Text';
        font-size: 10px;
        font-variation-settings: 'wght' 400;
      }

      .cls-30 {
        letter-spacing: 0em;
      }

      .cls-31 {
        letter-spacing: .01em;
      }

      .cls-32 {
        letter-spacing: 0em;
      }

      .cls-33 {
        letter-spacing: 0em;
      }

      .cls-34 {
        letter-spacing: 0em;
      }

      .cls-35 {
        letter-spacing: 0em;
      }

      .cls-36 {
        letter-spacing: 0em;
      }

      .cls-37 {
        letter-spacing: 0em;
      }

      .cls-38 {
        letter-spacing: 0em;
      }

      .cls-39 {
        letter-spacing: 0em;
      }

      .cls-40 {
        letter-spacing: 0em;
      }

      .cls-41 {
        letter-spacing: 0em;
      }

      .cls-42 {
        letter-spacing: 0em;
      }

      .cls-43 {
        letter-spacing: 0em;
      }

      .cls-44 {
        letter-spacing: 0em;
      }

      .cls-45 {
        letter-spacing: 0em;
      }

      .cls-6 {
        font-family: RedHatTextRoman-Medium, 'Red Hat Text';
        font-variation-settings: 'wght' 500;
      }

      .cls-46 {
        letter-spacing: -.06em;
      }

      .cls-2 {
        stroke: #151515;
        stroke-miterlimit: 10;
      }

      .cls-47 {
        letter-spacing: -.01em;
      }

      .cls-48 {
        letter-spacing: 0em;
      }

      .cls-49 {
        letter-spacing: 0em;
      }

      .cls-50 {
        letter-spacing: 0em;
      }

      .cls-51 {
        letter-spacing: .01em;
      }

      .cls-52 {
        letter-spacing: -.01em;
      }

      .cls-53 {
        letter-spacing: 0em;
      }

      .cls-54 {
        letter-spacing: 0em;
      }

      .cls-55 {
        letter-spacing: .02em;
      }

      .cls-56 {
        letter-spacing: 0em;
      }

      .cls-57 {
        letter-spacing: .06em;
      }

      .cls-58 {
        letter-spacing: 0em;
      }

      .cls-59 {
        letter-spacing: -.02em;
      }

      .cls-60 {
        letter-spacing: .01em;
      }

      .cls-61 {
        letter-spacing: -.02em;
      }

      .cls-62 {
        letter-spacing: 0em;
      }

      .cls-63 {
        letter-spacing: 0em;
      }

      .cls-64 {
        letter-spacing: .02em;
      }
    </style>
  </defs>
  <rect class="cls-18" x="0" y="272" width="760" height="123"/>
  <rect class="cls-18" x="0" y="20" width="201" height="226"/>
  <g>
    <path class="cls-5" d="M21.09,48.9v-9.8h7.41v2.02h-5v1.86h3.53v1.96h-3.53v1.95h5.05v2.02h-7.46Z"/>
    <path class="cls-5" d="M29.87,48.9l2.7-3.68-2.62-3.54h2.62l1.34,1.95,1.34-1.95h2.52l-2.66,3.58,2.74,3.64h-2.63l-1.43-2.06-1.43,2.06h-2.51Z"/>
    <path class="cls-5" d="M40.99,49.01c-.49,0-.92-.09-1.29-.28s-.67-.44-.88-.77c-.21-.33-.31-.7-.31-1.13s.11-.83,.34-1.14c.22-.31,.55-.55,.97-.71s.92-.25,1.51-.25c.26,0,.53,.03,.8,.08,.27,.05,.56,.14,.88,.26v-.59c0-.35-.12-.62-.35-.79-.23-.17-.59-.26-1.08-.26-.27,0-.57,.04-.9,.12-.33,.08-.71,.21-1.13,.39l-.78-1.58c1.17-.52,2.27-.78,3.32-.78s1.78,.24,2.33,.71c.56,.48,.83,1.14,.83,2v4.62h-2.24v-.63c-.32,.26-.63,.45-.95,.57-.32,.12-.67,.18-1.05,.18Zm-.41-2.23c0,.23,.1,.41,.29,.54s.47,.19,.81,.19c.24,0,.47-.03,.69-.09s.42-.15,.62-.27v-.92c-.21-.05-.41-.08-.62-.11-.21-.03-.42-.04-.63-.04-.37,0-.66,.06-.86,.18-.2,.12-.3,.3-.3,.53Z"/>
    <path class="cls-5" d="M46.99,48.9v-7.22h2.27v1.15c.27-.41,.58-.72,.95-.94,.36-.21,.76-.32,1.2-.32,.47,0,.88,.12,1.23,.36,.36,.24,.62,.57,.8,.98,.28-.44,.62-.77,1.02-1s.85-.34,1.34-.34c.45,0,.84,.11,1.18,.32,.34,.21,.61,.51,.8,.9s.29,.82,.29,1.32v4.8h-2.27v-4.35c0-.36-.1-.66-.29-.88-.2-.22-.46-.33-.79-.33-.21,0-.39,.04-.57,.13s-.33,.23-.48,.41v5.01h-2.27v-4.35c0-.36-.1-.66-.29-.88-.2-.22-.46-.33-.78-.33-.42,0-.77,.19-1.06,.56v5h-2.27Z"/>
    <path class="cls-5" d="M59.83,51.83v-10.15h2.24v1.01c.24-.33,.55-.58,.93-.77,.38-.19,.78-.28,1.21-.28,.6,0,1.14,.17,1.62,.5,.48,.33,.86,.77,1.15,1.32,.29,.55,.43,1.17,.43,1.85s-.15,1.28-.45,1.83-.7,.99-1.21,1.32c-.51,.33-1.08,.49-1.7,.49-.39,0-.75-.07-1.09-.22-.33-.14-.62-.35-.86-.62v3.72h-2.27Zm3.63-4.75c.34,0,.63-.08,.89-.23,.26-.15,.46-.37,.61-.64,.15-.27,.22-.58,.22-.92s-.07-.65-.22-.92c-.15-.27-.35-.48-.62-.63s-.55-.23-.88-.23c-.28,0-.53,.05-.75,.15-.22,.1-.42,.25-.61,.44v2.41c.18,.18,.38,.32,.62,.42,.23,.1,.48,.15,.74,.15Z"/>
    <path class="cls-5" d="M68.86,48.9v-9.97l2.27-.35v10.32h-2.27Z"/>
    <path class="cls-5" d="M76.42,49.04c-.71,0-1.35-.17-1.92-.5-.57-.33-1.03-.78-1.37-1.34-.34-.56-.51-1.2-.51-1.9s.16-1.34,.48-1.9,.75-1.01,1.3-1.34,1.17-.5,1.86-.5,1.32,.16,1.85,.49c.53,.33,.95,.78,1.25,1.35s.46,1.23,.46,1.98v.49h-4.97c.07,.27,.19,.51,.35,.71,.16,.21,.35,.36,.59,.48,.23,.11,.48,.17,.76,.17,.3,0,.57-.05,.82-.15,.25-.1,.45-.25,.61-.45l1.5,1.25c-.47,.41-.94,.71-1.41,.89-.48,.18-1.02,.27-1.62,.27Zm-1.58-4.45h2.87c-.07-.26-.17-.49-.31-.67-.14-.19-.31-.33-.5-.43-.2-.1-.42-.15-.66-.15s-.45,.05-.64,.15c-.19,.1-.35,.24-.48,.43s-.22,.42-.29,.69Z"/>
    <path class="cls-5" d="M25.8,63.05c-.73,0-1.41-.13-2.03-.39-.62-.26-1.17-.61-1.64-1.07-.47-.46-.84-.99-1.1-1.61-.26-.62-.39-1.28-.39-1.99s.13-1.38,.39-1.99c.26-.61,.63-1.15,1.1-1.6,.47-.46,1.02-.81,1.64-1.07,.62-.26,1.3-.38,2.03-.38,.52,0,1.03,.08,1.53,.23,.5,.15,.96,.37,1.39,.66,.42,.29,.78,.62,1.06,1.02l-1.62,1.54c-.32-.44-.67-.77-1.06-.98s-.82-.32-1.29-.32c-.38,0-.74,.07-1.06,.22-.32,.14-.6,.35-.85,.62-.24,.27-.43,.57-.57,.92-.14,.35-.2,.73-.2,1.15s.07,.81,.2,1.16c.13,.35,.32,.66,.57,.92,.24,.27,.52,.47,.85,.62,.32,.14,.67,.22,1.06,.22,.47,0,.9-.11,1.29-.33,.39-.22,.75-.54,1.06-.97l1.62,1.54c-.28,.38-.63,.72-1.06,1.01-.42,.29-.89,.51-1.39,.67s-1.01,.23-1.53,.23Z"/>
    <path class="cls-5" d="M34.23,63.04c-.72,0-1.36-.16-1.93-.49-.57-.33-1.02-.77-1.35-1.34-.33-.57-.5-1.2-.5-1.91s.17-1.35,.5-1.91c.33-.56,.78-1.01,1.35-1.34,.57-.33,1.21-.49,1.92-.49s1.36,.16,1.92,.49c.56,.33,1.01,.77,1.34,1.34,.33,.56,.5,1.2,.5,1.91s-.17,1.35-.5,1.91c-.33,.56-.78,1.01-1.34,1.34-.57,.33-1.2,.49-1.91,.49Zm-.01-1.89c.31,0,.58-.08,.81-.24,.23-.16,.41-.38,.54-.66,.13-.28,.2-.6,.2-.95s-.07-.68-.2-.96-.31-.49-.54-.65c-.23-.16-.5-.24-.81-.24s-.57,.08-.8,.24c-.24,.16-.42,.38-.55,.65-.13,.28-.2,.59-.2,.96s.07,.67,.2,.95c.13,.28,.32,.5,.55,.66,.24,.16,.51,.24,.8,.24Z"/>
    <path class="cls-5" d="M39.45,62.9v-7.22h2.27v1.64c.23-.61,.51-1.05,.83-1.34s.7-.43,1.13-.43c.16,0,.29,.02,.39,.04,.1,.02,.22,.07,.36,.14v1.95c-.14-.07-.3-.13-.49-.17-.19-.04-.38-.06-.57-.06-.34,0-.65,.08-.94,.25s-.53,.38-.71,.65v4.56h-2.27Z"/>
    <path class="cls-5" d="M45.71,65.83v-10.15h2.24v1.01c.24-.33,.55-.58,.93-.77,.38-.19,.78-.28,1.21-.28,.6,0,1.14,.17,1.62,.5,.48,.33,.86,.77,1.15,1.32s.43,1.17,.43,1.85-.15,1.28-.45,1.83-.7,.99-1.21,1.32c-.51,.33-1.08,.49-1.7,.49-.39,0-.75-.07-1.08-.22s-.62-.35-.86-.62v3.72h-2.27Zm3.63-4.75c.34,0,.63-.08,.89-.23,.26-.15,.46-.37,.61-.64,.15-.27,.22-.58,.22-.92s-.08-.65-.22-.92c-.15-.27-.36-.48-.62-.63-.26-.15-.56-.23-.88-.23-.28,0-.53,.05-.75,.15-.22,.1-.42,.25-.61,.44v2.41c.18,.18,.38,.32,.62,.42,.23,.1,.48,.15,.74,.15Z"/>
    <path class="cls-5" d="M58.18,63.04c-.72,0-1.36-.16-1.93-.49-.57-.33-1.02-.77-1.35-1.34-.33-.57-.5-1.2-.5-1.91s.17-1.35,.5-1.91c.33-.56,.78-1.01,1.35-1.34,.57-.33,1.21-.49,1.92-.49s1.36,.16,1.92,.49c.56,.33,1.01,.77,1.34,1.34s.5,1.2,.5,1.91-.17,1.35-.5,1.91c-.33,.56-.78,1.01-1.34,1.34-.56,.33-1.2,.49-1.91,.49Zm-.01-1.89c.31,0,.58-.08,.81-.24,.23-.16,.42-.38,.55-.66,.13-.28,.2-.6,.2-.95s-.06-.68-.2-.96-.31-.49-.55-.65c-.23-.16-.5-.24-.81-.24s-.57,.08-.81,.24c-.24,.16-.42,.38-.55,.65-.13,.28-.2,.59-.2,.96s.07,.67,.2,.95c.13,.28,.32,.5,.55,.66,.24,.16,.51,.24,.81,.24Z"/>
    <path class="cls-5" d="M63.4,62.9v-7.22h2.27v1.64c.23-.61,.51-1.05,.83-1.34,.32-.29,.7-.43,1.13-.43,.16,0,.29,.02,.39,.04,.1,.02,.22,.07,.37,.14v1.95c-.14-.07-.3-.13-.49-.17-.19-.04-.38-.06-.57-.06-.34,0-.65,.08-.94,.25-.29,.16-.53,.38-.71,.65v4.56h-2.27Z"/>
    <path class="cls-5" d="M71.76,63.01c-.49,0-.92-.09-1.29-.28s-.67-.44-.88-.77c-.21-.33-.32-.7-.32-1.13s.11-.83,.34-1.14,.55-.55,.97-.71,.92-.25,1.51-.25c.26,0,.53,.03,.8,.08,.27,.05,.56,.14,.88,.26v-.59c0-.35-.12-.62-.35-.79-.23-.17-.59-.26-1.08-.26-.27,0-.57,.04-.9,.12-.33,.08-.71,.21-1.13,.39l-.78-1.58c1.17-.52,2.27-.78,3.32-.78s1.78,.24,2.33,.71c.55,.48,.83,1.14,.83,2v4.62h-2.24v-.63c-.32,.26-.63,.45-.95,.57-.32,.12-.67,.18-1.05,.18Zm-.41-2.23c0,.23,.1,.41,.29,.54,.2,.13,.47,.19,.81,.19,.24,0,.47-.03,.69-.09s.42-.15,.62-.27v-.92c-.21-.05-.41-.08-.62-.11s-.42-.04-.63-.04c-.37,0-.66,.06-.86,.18-.2,.12-.3,.3-.3,.53Z"/>
    <path class="cls-5" d="M81.12,63.04c-.85,0-1.49-.2-1.93-.59-.44-.39-.66-.97-.66-1.74v-3.29h-1.4v-1.75h1.4v-2l2.27-.46v2.46h1.93v1.75h-1.93v2.84c0,.32,.07,.54,.22,.67s.39,.2,.74,.2c.13,0,.26,0,.39-.03,.13-.02,.31-.06,.53-.13v1.83c-.21,.07-.46,.12-.76,.16s-.56,.06-.8,.06Z"/>
    <path class="cls-5" d="M85.12,54.57c-.35,0-.64-.13-.9-.38s-.38-.55-.38-.9,.13-.66,.38-.9,.55-.37,.9-.37,.66,.12,.9,.37c.25,.25,.37,.55,.37,.9s-.12,.64-.37,.9c-.25,.25-.55,.38-.9,.38Zm-1.13,8.33v-7.22h2.27v7.22h-2.27Z"/>
    <path class="cls-5" d="M91.45,63.04c-.72,0-1.36-.16-1.93-.49-.57-.33-1.02-.77-1.35-1.34-.33-.57-.5-1.2-.5-1.91s.17-1.35,.5-1.91,.78-1.01,1.35-1.34c.57-.33,1.21-.49,1.92-.49s1.36,.16,1.93,.49c.56,.33,1.01,.77,1.34,1.34,.33,.56,.5,1.2,.5,1.91s-.17,1.35-.5,1.91c-.33,.56-.78,1.01-1.34,1.34-.57,.33-1.2,.49-1.91,.49Zm-.01-1.89c.31,0,.58-.08,.81-.24,.23-.16,.42-.38,.55-.66,.13-.28,.2-.6,.2-.95s-.07-.68-.2-.96c-.13-.28-.31-.49-.55-.65-.23-.16-.5-.24-.81-.24s-.57,.08-.8,.24c-.24,.16-.42,.38-.55,.65s-.2,.59-.2,.96,.07,.67,.2,.95c.13,.28,.31,.5,.55,.66,.24,.16,.51,.24,.8,.24Z"/>
    <path class="cls-5" d="M96.67,62.9v-7.22h2.27v1.18c.28-.42,.61-.74,1-.96s.81-.33,1.28-.33,.88,.1,1.24,.31c.36,.21,.64,.5,.85,.87,.21,.37,.31,.8,.31,1.28v4.87h-2.27v-4.21c0-.41-.11-.74-.33-.98-.22-.24-.51-.36-.88-.36-.24,0-.46,.05-.67,.15s-.38,.25-.54,.46v4.96h-2.27Z"/>
    <path class="cls-5" d="M109.83,62.9v-7.56l-1.93,.8v-1.9l2.73-1.13h1.36v9.8h-2.16Z"/>
    <path class="cls-5" d="M24.07,82.02c-.68,0-1.28-.17-1.8-.52-.52-.34-.93-.82-1.22-1.44s-.44-1.33-.44-2.15c0-.91,.16-1.71,.49-2.39s.78-1.21,1.37-1.59c.59-.38,1.27-.56,2.05-.56,.41,0,.81,.06,1.21,.19,.4,.13,.74,.3,1.02,.53l-.71,.97c-.24-.18-.49-.31-.76-.39-.27-.08-.56-.13-.87-.13-.52,0-.97,.13-1.34,.4-.37,.26-.66,.65-.85,1.15-.2,.5-.3,1.1-.31,1.81,.3-.39,.65-.7,1.05-.91,.4-.22,.83-.32,1.28-.32,.54,0,1.03,.11,1.45,.34,.42,.22,.76,.53,1,.92,.24,.39,.36,.84,.36,1.33,0,.53-.13,1-.38,1.42-.26,.42-.61,.75-1.06,.99-.45,.24-.96,.36-1.54,.36Zm-.05-4.31c-.39,0-.77,.09-1.12,.26-.36,.18-.67,.42-.93,.74,.08,.43,.21,.81,.4,1.14,.18,.33,.42,.58,.71,.77,.29,.18,.6,.28,.95,.28s.63-.07,.89-.22c.26-.14,.46-.34,.61-.58,.15-.24,.23-.52,.23-.83s-.07-.57-.22-.81c-.15-.24-.35-.42-.61-.55s-.56-.2-.9-.2Z"/>
    <path class="cls-5" d="M31.65,82.02c-.68,0-1.28-.18-1.79-.55-.52-.36-.92-.87-1.21-1.52-.29-.65-.44-1.4-.44-2.26s.15-1.61,.44-2.26c.29-.65,.7-1.16,1.21-1.52,.52-.36,1.11-.55,1.79-.55s1.28,.18,1.79,.55c.52,.36,.92,.87,1.21,1.52,.29,.65,.44,1.41,.44,2.26s-.15,1.61-.44,2.26c-.29,.65-.7,1.15-1.21,1.52-.52,.36-1.11,.55-1.79,.55Zm0-1.16c.43,0,.81-.13,1.12-.39,.32-.26,.56-.63,.74-1.1,.18-.48,.26-1.03,.26-1.66s-.09-1.21-.26-1.68-.42-.84-.74-1.1c-.32-.26-.69-.39-1.12-.39s-.81,.13-1.13,.39c-.32,.26-.57,.63-.74,1.1s-.26,1.03-.26,1.68,.09,1.19,.26,1.66c.18,.48,.42,.84,.74,1.1,.32,.26,.7,.39,1.13,.39Z"/>
    <path class="cls-5" d="M41.27,82.02c-.51,0-.99-.07-1.43-.2-.44-.14-.83-.34-1.15-.61l.64-.9c.39,.24,.74,.41,1.03,.52,.3,.11,.6,.16,.9,.16,.37,0,.66-.08,.88-.23,.22-.15,.33-.35,.33-.59,0-.18-.06-.33-.19-.44-.13-.11-.34-.19-.65-.25l-1.06-.18c-.58-.11-1.02-.3-1.31-.58-.29-.27-.43-.64-.43-1.09,0-.37,.1-.69,.29-.97,.19-.28,.47-.49,.82-.65s.76-.23,1.22-.23c.42,0,.82,.06,1.21,.18,.39,.12,.78,.3,1.15,.54l-.64,.9c-.3-.2-.61-.35-.91-.44-.3-.09-.6-.14-.89-.14-.32,0-.57,.06-.76,.19-.19,.12-.28,.29-.28,.51,0,.19,.06,.34,.19,.44,.12,.1,.34,.17,.65,.22l1.07,.2c.61,.1,1.06,.29,1.34,.57,.29,.28,.43,.64,.43,1.1,0,.37-.11,.7-.32,1-.21,.3-.5,.53-.88,.7-.37,.17-.79,.26-1.27,.26Z"/>
    <path class="cls-5" d="M47.07,82c-.41,0-.77-.09-1.08-.28-.31-.18-.56-.44-.74-.76-.18-.32-.27-.69-.27-1.1v-3.97h1.37v3.58c0,.44,.12,.79,.35,1.05s.56,.39,.97,.39c.28,0,.53-.06,.74-.18,.21-.12,.4-.3,.56-.54v-4.3h1.36v6.01h-1.36v-.97c-.23,.35-.51,.62-.83,.8s-.68,.27-1.08,.27Z"/>
    <path class="cls-5" d="M52.05,81.9v-8.57l1.37-.23v3.59c.22-.27,.48-.48,.8-.63s.67-.22,1.05-.22c.51,0,.97,.14,1.38,.41,.41,.28,.73,.64,.97,1.1s.36,.97,.36,1.55-.12,1.08-.37,1.54-.58,.83-1,1.1c-.42,.28-.9,.41-1.43,.41-.34,0-.67-.07-.98-.22-.31-.14-.57-.35-.8-.61v.77h-1.34Zm2.81-1.08c.34,0,.65-.08,.92-.25,.27-.16,.48-.39,.63-.68,.16-.29,.23-.62,.23-.99s-.08-.7-.23-.98c-.16-.29-.37-.52-.64-.68s-.58-.25-.91-.25c-.3,0-.57,.06-.82,.17s-.46,.28-.62,.5v2.5c.18,.22,.39,.38,.64,.5s.52,.17,.8,.17Z"/>
    <path class="cls-5" d="M61.46,82.02c-.51,0-.99-.07-1.43-.2-.44-.14-.83-.34-1.15-.61l.64-.9c.39,.24,.74,.41,1.03,.52,.3,.11,.6,.16,.9,.16,.37,0,.66-.08,.88-.23,.22-.15,.33-.35,.33-.59,0-.18-.06-.33-.19-.44s-.34-.19-.65-.25l-1.06-.18c-.58-.11-1.02-.3-1.31-.58-.29-.27-.43-.64-.43-1.09,0-.37,.1-.69,.29-.97,.19-.28,.47-.49,.82-.65,.36-.16,.76-.23,1.22-.23,.42,0,.82,.06,1.21,.18s.78,.3,1.15,.54l-.64,.9c-.3-.2-.61-.35-.91-.44-.3-.09-.6-.14-.89-.14-.32,0-.57,.06-.76,.19s-.28,.29-.28,.51c0,.19,.06,.34,.19,.44,.12,.1,.34,.17,.65,.22l1.07,.2c.61,.1,1.06,.29,1.34,.57,.29,.28,.43,.64,.43,1.1,0,.37-.11,.7-.32,1s-.5,.53-.88,.7-.79,.26-1.27,.26Z"/>
    <path class="cls-5" d="M67.98,82.01c-.57,0-1.08-.14-1.54-.41-.46-.28-.82-.65-1.09-1.12s-.4-.99-.4-1.58,.13-1.11,.4-1.58,.63-.84,1.09-1.12c.46-.28,.97-.41,1.54-.41,.47,0,.92,.09,1.33,.27s.77,.43,1.07,.75l-.85,.88c-.2-.23-.43-.41-.68-.53s-.53-.18-.82-.18c-.32,0-.61,.09-.88,.26-.26,.17-.47,.4-.62,.69-.15,.29-.23,.61-.23,.97s.08,.7,.23,.98c.15,.29,.36,.52,.62,.68,.26,.17,.56,.25,.88,.25,.29,0,.56-.06,.82-.17s.48-.29,.68-.52l.85,.88c-.3,.32-.65,.57-1.07,.74s-.86,.26-1.33,.26Z"/>
    <path class="cls-5" d="M71.51,81.9v-6.01h1.37v1.3c.18-.46,.4-.8,.68-1.04,.28-.24,.6-.36,.96-.36,.13,0,.24,.02,.32,.03s.18,.04,.28,.09v1.2c-.11-.06-.23-.1-.36-.12-.13-.02-.26-.04-.38-.04-.33,0-.62,.09-.88,.26-.26,.18-.47,.42-.62,.74v3.95h-1.37Z"/>
    <path class="cls-5" d="M76.97,74.66c-.22,0-.42-.08-.58-.25-.16-.16-.25-.36-.25-.59s.08-.42,.25-.58,.37-.25,.61-.25c.22,0,.42,.08,.58,.25s.25,.36,.25,.59-.08,.42-.25,.58c-.16,.16-.37,.25-.61,.25Zm-.67,7.24v-6.01h1.36v6.01h-1.36Z"/>
    <path class="cls-5" d="M79.38,84.41v-8.52h1.34v.85c.22-.29,.5-.51,.82-.67s.67-.23,1.06-.23c.51,0,.97,.14,1.38,.41,.41,.28,.73,.64,.97,1.1s.36,.97,.36,1.55-.12,1.08-.37,1.54-.58,.83-1,1.1c-.42,.28-.9,.41-1.43,.41-.35,0-.68-.07-.97-.2-.3-.13-.56-.32-.78-.57v3.22h-1.37Zm2.81-3.59c.34,0,.65-.08,.92-.25,.27-.16,.48-.39,.63-.68,.16-.29,.23-.62,.23-.99s-.08-.7-.23-.98c-.16-.29-.37-.52-.64-.68s-.58-.25-.91-.25c-.3,0-.57,.06-.82,.17s-.46,.28-.62,.5v2.5c.18,.22,.39,.38,.64,.5s.52,.17,.8,.17Z"/>
    <path class="cls-5" d="M89.08,82.02c-.61,0-1.07-.14-1.38-.43-.31-.28-.47-.71-.47-1.27v-3.37h-1.2v-1.07h1.2v-1.64l1.36-.3v1.94h1.68v1.07h-1.68v3.08c0,.3,.06,.51,.19,.63,.13,.12,.34,.19,.65,.19,.14,0,.26,0,.38-.03,.12-.02,.26-.06,.44-.11v1.14c-.17,.06-.36,.1-.58,.13-.22,.03-.41,.04-.59,.04Z"/>
    <path class="cls-5" d="M92.12,74.66c-.22,0-.42-.08-.58-.25-.16-.16-.25-.36-.25-.59s.08-.42,.25-.58,.37-.25,.61-.25c.22,0,.42,.08,.58,.25s.25,.36,.25,.59-.08,.42-.25,.58c-.16,.16-.37,.25-.61,.25Zm-.67,7.24v-6.01h1.36v6.01h-1.36Z"/>
    <path class="cls-5" d="M97.22,82.01c-.58,0-1.09-.14-1.55-.41-.46-.27-.82-.64-1.08-1.12s-.4-1-.4-1.58,.13-1.12,.4-1.59,.62-.84,1.08-1.11c.46-.27,.97-.41,1.55-.41s1.09,.14,1.54,.41c.45,.27,.81,.64,1.07,1.11,.26,.47,.4,.99,.4,1.58s-.13,1.12-.4,1.6c-.26,.47-.62,.84-1.07,1.12-.45,.27-.97,.41-1.54,.41Zm0-1.15c.33,0,.62-.09,.87-.26s.45-.41,.59-.7,.22-.63,.22-1-.07-.71-.22-1-.34-.52-.59-.7c-.25-.17-.54-.26-.87-.26s-.62,.09-.88,.26c-.26,.17-.46,.4-.6,.7-.14,.29-.21,.63-.21,1s.07,.7,.21,1c.14,.3,.34,.53,.6,.7s.55,.26,.88,.26Z"/>
    <path class="cls-5" d="M101.66,81.9v-6.01h1.37v.97c.22-.34,.5-.61,.82-.79,.32-.18,.68-.28,1.07-.28,.42,0,.78,.09,1.09,.28,.31,.18,.56,.43,.73,.75,.18,.32,.26,.69,.26,1.11v3.97h-1.34v-3.58c0-.44-.12-.79-.36-1.05-.24-.26-.56-.39-.97-.39-.26,0-.51,.06-.74,.18-.23,.12-.42,.3-.57,.55v4.28h-1.37Z"/>
    <path class="cls-5" d="M110.76,82.02c-.51,0-.99-.07-1.43-.2-.44-.14-.83-.34-1.15-.61l.64-.9c.39,.24,.74,.41,1.03,.52,.3,.11,.6,.16,.9,.16,.37,0,.66-.08,.88-.23,.22-.15,.33-.35,.33-.59,0-.18-.06-.33-.19-.44-.13-.11-.34-.19-.65-.25l-1.06-.18c-.58-.11-1.02-.3-1.31-.58-.29-.27-.43-.64-.43-1.09,0-.37,.1-.69,.29-.97,.19-.28,.46-.49,.82-.65,.36-.16,.76-.23,1.22-.23,.42,0,.82,.06,1.21,.18,.39,.12,.78,.3,1.15,.54l-.64,.9c-.3-.2-.61-.35-.91-.44-.3-.09-.6-.14-.89-.14-.32,0-.57,.06-.76,.19-.19,.12-.28,.29-.28,.51,0,.19,.06,.34,.19,.44,.12,.1,.34,.17,.65,.22l1.07,.2c.61,.1,1.06,.29,1.34,.57,.29,.28,.43,.64,.43,1.1,0,.37-.11,.7-.32,1-.21,.3-.5,.53-.88,.7-.37,.17-.79,.26-1.27,.26Z"/>
  </g>
  <rect class="cls-19" x="20" y="103" width="161" height="123"/>
  <text class="cls-4" transform="translate(35 128.2)"><tspan class="cls-33" x="0" y="0">M</tspan><tspan class="cls-49" x="11.11" y="0">a</tspan><tspan class="cls-8" x="18.12" y="0">ni</tspan><tspan class="cls-17" x="29.07" y="0">f</tspan><tspan class="cls-38" x="34.41" y="0">e</tspan><tspan class="cls-24" x="41.56" y="0">s</tspan><tspan class="cls-35" x="47.91" y="0">t</tspan></text>
  <rect class="cls-18" x="217" y="20" width="543" height="226"/>
  <text class="cls-3" transform="translate(20 374.91)"><tspan class="cls-16" x="0" y="0">R</tspan><tspan x="11.1" y="0">ed </tspan><tspan class="cls-37" x="34.3" y="0">H</tspan><tspan class="cls-7" x="46.5" y="0">a</tspan><tspan class="cls-54" x="55.6" y="0">t </tspan><tspan class="cls-40" x="66.37" y="0">S</tspan><tspan class="cls-10" x="76.96" y="0">a</tspan><tspan class="cls-22" x="86.06" y="0">t</tspan><tspan class="cls-48" x="93.01" y="0">e</tspan><tspan class="cls-63" x="102.46" y="0">l</tspan><tspan class="cls-53" x="107.1" y="0">l</tspan><tspan class="cls-32" x="111.75" y="0">i</tspan><tspan class="cls-22" x="116.38" y="0">t</tspan><tspan class="cls-56" x="123.33" y="0">e</tspan></text>
  <g>
    <g>
      <rect class="cls-19" x="20" y="292" width="161" height="50"/>
      <text class="cls-4" transform="translate(35 317.96)"><tspan class="cls-36" x="0" y="0">O</tspan><tspan class="cls-61" x="9.87" y="0">r</tspan><tspan class="cls-35" x="14.97" y="0">g 1</tspan></text>
    </g>
    <g>
      <rect class="cls-19" x="579" y="292" width="161" height="50"/>
      <text class="cls-4" transform="translate(594 318.11)"><tspan class="cls-36" x="0" y="0">O</tspan><tspan class="cls-61" x="9.87" y="0">r</tspan><tspan class="cls-35" x="14.97" y="0">g 4</tspan></text>
    </g>
    <g>
      <rect class="cls-19" x="408" y="292" width="161" height="50"/>
      <text class="cls-4" transform="translate(423 318.11)"><tspan class="cls-36" x="0" y="0">O</tspan><tspan class="cls-61" x="9.87" y="0">r</tspan><tspan class="cls-35" x="14.97" y="0">g 3</tspan></text>
    </g>
    <g>
      <rect class="cls-19" x="237" y="292" width="161" height="50"/>
      <text class="cls-4" transform="translate(252 318.11)"><tspan class="cls-36" x="0" y="0">O</tspan><tspan class="cls-61" x="9.87" y="0">r</tspan><tspan class="cls-35" x="14.97" y="0">g 2</tspan></text>
    </g>
  </g>
  <g>
    <line class="cls-2" x1="100.5" y1="211.07" x2="100.5" y2="282.39"/>
    <polygon class="cls-5" points="95.51 280.94 100.5 289.57 105.49 280.94 95.51 280.94"/>
  </g>
  <g>
    <path class="cls-5" d="M238.09,48.9v-9.8h7.41v2.02h-5v1.86h3.53v1.96h-3.53v1.95h5.05v2.02h-7.46Z"/>
    <path class="cls-5" d="M246.87,48.9l2.7-3.68-2.62-3.54h2.62l1.34,1.95,1.34-1.95h2.52l-2.66,3.58,2.74,3.64h-2.63l-1.43-2.06-1.43,2.06h-2.51Z"/>
    <path class="cls-5" d="M257.99,49.01c-.49,0-.92-.09-1.29-.28s-.67-.44-.88-.77c-.21-.33-.31-.7-.31-1.13s.11-.83,.34-1.14c.22-.31,.55-.55,.97-.71s.92-.25,1.51-.25c.26,0,.53,.03,.8,.08,.27,.05,.56,.14,.88,.26v-.59c0-.35-.12-.62-.35-.79-.23-.17-.59-.26-1.08-.26-.27,0-.57,.04-.9,.12-.33,.08-.71,.21-1.13,.39l-.78-1.58c1.17-.52,2.27-.78,3.32-.78s1.78,.24,2.33,.71c.56,.48,.83,1.14,.83,2v4.62h-2.24v-.63c-.32,.26-.63,.45-.95,.57-.32,.12-.67,.18-1.05,.18Zm-.41-2.23c0,.23,.1,.41,.29,.54s.47,.19,.81,.19c.24,0,.47-.03,.69-.09s.42-.15,.62-.27v-.92c-.21-.05-.41-.08-.62-.11-.21-.03-.42-.04-.63-.04-.37,0-.66,.06-.86,.18-.2,.12-.3,.3-.3,.53Z"/>
    <path class="cls-5" d="M263.99,48.9v-7.22h2.27v1.15c.27-.41,.58-.72,.95-.94,.36-.21,.76-.32,1.2-.32,.47,0,.88,.12,1.23,.36,.36,.24,.62,.57,.8,.98,.28-.44,.62-.77,1.02-1s.85-.34,1.34-.34c.45,0,.84,.11,1.18,.32,.34,.21,.61,.51,.8,.9s.29,.82,.29,1.32v4.8h-2.27v-4.35c0-.36-.1-.66-.29-.88-.2-.22-.46-.33-.79-.33-.21,0-.39,.04-.57,.13s-.33,.23-.48,.41v5.01h-2.27v-4.35c0-.36-.1-.66-.29-.88-.2-.22-.46-.33-.78-.33-.42,0-.77,.19-1.06,.56v5h-2.27Z"/>
    <path class="cls-5" d="M276.83,51.83v-10.15h2.24v1.01c.24-.33,.55-.58,.93-.77,.38-.19,.78-.28,1.21-.28,.6,0,1.14,.17,1.62,.5,.48,.33,.86,.77,1.15,1.32,.29,.55,.43,1.17,.43,1.85s-.15,1.28-.45,1.83-.7,.99-1.21,1.32c-.51,.33-1.08,.49-1.7,.49-.39,0-.75-.07-1.09-.22-.33-.14-.62-.35-.86-.62v3.72h-2.27Zm3.63-4.75c.34,0,.63-.08,.89-.23,.26-.15,.46-.37,.61-.64,.15-.27,.22-.58,.22-.92s-.07-.65-.22-.92c-.15-.27-.35-.48-.62-.63s-.55-.23-.88-.23c-.28,0-.53,.05-.75,.15-.22,.1-.42,.25-.61,.44v2.41c.18,.18,.38,.32,.62,.42,.23,.1,.48,.15,.74,.15Z"/>
    <path class="cls-5" d="M285.86,48.9v-9.97l2.27-.35v10.32h-2.27Z"/>
    <path class="cls-5" d="M293.42,49.04c-.71,0-1.35-.17-1.92-.5-.57-.33-1.03-.78-1.37-1.34-.34-.56-.51-1.2-.51-1.9s.16-1.34,.48-1.9,.75-1.01,1.3-1.34,1.17-.5,1.86-.5,1.32,.16,1.85,.49c.53,.33,.95,.78,1.25,1.35s.46,1.23,.46,1.98v.49h-4.97c.07,.27,.19,.51,.35,.71,.16,.21,.35,.36,.59,.48,.23,.11,.48,.17,.76,.17,.3,0,.57-.05,.82-.15,.25-.1,.45-.25,.61-.45l1.5,1.25c-.47,.41-.94,.71-1.41,.89-.48,.18-1.02,.27-1.62,.27Zm-1.58-4.45h2.87c-.07-.26-.17-.49-.31-.67-.14-.19-.31-.33-.5-.43-.2-.1-.42-.15-.66-.15s-.45,.05-.64,.15c-.19,.1-.35,.24-.48,.43s-.22,.42-.29,.69Z"/>
    <path class="cls-5" d="M242.8,63.05c-.73,0-1.41-.13-2.03-.39-.62-.26-1.17-.61-1.64-1.07-.47-.46-.84-.99-1.1-1.61-.26-.62-.39-1.28-.39-1.99s.13-1.38,.39-1.99c.26-.61,.63-1.15,1.1-1.6,.47-.46,1.02-.81,1.64-1.07,.62-.26,1.3-.38,2.03-.38,.52,0,1.03,.08,1.53,.23,.5,.15,.96,.37,1.39,.66,.42,.29,.78,.62,1.06,1.02l-1.62,1.54c-.32-.44-.67-.77-1.06-.98s-.82-.32-1.29-.32c-.38,0-.74,.07-1.06,.22-.32,.14-.6,.35-.85,.62-.24,.27-.43,.57-.57,.92-.14,.35-.2,.73-.2,1.15s.07,.81,.2,1.16c.13,.35,.32,.66,.57,.92,.24,.27,.52,.47,.85,.62,.32,.14,.67,.22,1.06,.22,.47,0,.9-.11,1.29-.33,.39-.22,.75-.54,1.06-.97l1.62,1.54c-.28,.38-.63,.72-1.06,1.01-.42,.29-.89,.51-1.39,.67s-1.01,.23-1.53,.23Z"/>
    <path class="cls-5" d="M251.23,63.04c-.72,0-1.36-.16-1.93-.49-.57-.33-1.02-.77-1.35-1.34-.33-.57-.5-1.2-.5-1.91s.17-1.35,.5-1.91c.33-.56,.78-1.01,1.35-1.34,.57-.33,1.21-.49,1.92-.49s1.36,.16,1.92,.49c.56,.33,1.01,.77,1.34,1.34,.33,.56,.5,1.2,.5,1.91s-.17,1.35-.5,1.91c-.33,.56-.78,1.01-1.34,1.34-.57,.33-1.2,.49-1.91,.49Zm-.01-1.89c.31,0,.58-.08,.81-.24,.23-.16,.41-.38,.54-.66,.13-.28,.2-.6,.2-.95s-.07-.68-.2-.96-.31-.49-.54-.65c-.23-.16-.5-.24-.81-.24s-.57,.08-.8,.24c-.24,.16-.42,.38-.55,.65-.13,.28-.2,.59-.2,.96s.07,.67,.2,.95c.13,.28,.32,.5,.55,.66,.24,.16,.51,.24,.8,.24Z"/>
    <path class="cls-5" d="M256.45,62.9v-7.22h2.27v1.64c.23-.61,.51-1.05,.83-1.34s.7-.43,1.13-.43c.16,0,.29,.02,.39,.04,.1,.02,.22,.07,.36,.14v1.95c-.14-.07-.3-.13-.49-.17-.19-.04-.38-.06-.57-.06-.34,0-.65,.08-.94,.25s-.53,.38-.71,.65v4.56h-2.27Z"/>
    <path class="cls-5" d="M262.71,65.83v-10.15h2.24v1.01c.24-.33,.55-.58,.93-.77,.38-.19,.78-.28,1.21-.28,.6,0,1.14,.17,1.62,.5,.48,.33,.86,.77,1.15,1.32s.43,1.17,.43,1.85-.15,1.28-.45,1.83-.7,.99-1.21,1.32c-.51,.33-1.08,.49-1.7,.49-.39,0-.75-.07-1.08-.22s-.62-.35-.86-.62v3.72h-2.27Zm3.63-4.75c.34,0,.63-.08,.89-.23,.26-.15,.46-.37,.61-.64,.15-.27,.22-.58,.22-.92s-.08-.65-.22-.92c-.15-.27-.36-.48-.62-.63-.26-.15-.56-.23-.88-.23-.28,0-.53,.05-.75,.15-.22,.1-.42,.25-.61,.44v2.41c.18,.18,.38,.32,.62,.42,.23,.1,.48,.15,.74,.15Z"/>
    <path class="cls-5" d="M275.18,63.04c-.72,0-1.36-.16-1.93-.49-.57-.33-1.02-.77-1.35-1.34-.33-.57-.5-1.2-.5-1.91s.17-1.35,.5-1.91c.33-.56,.78-1.01,1.35-1.34,.57-.33,1.21-.49,1.92-.49s1.36,.16,1.92,.49c.56,.33,1.01,.77,1.34,1.34s.5,1.2,.5,1.91-.17,1.35-.5,1.91c-.33,.56-.78,1.01-1.34,1.34-.56,.33-1.2,.49-1.91,.49Zm-.01-1.89c.31,0,.58-.08,.81-.24,.23-.16,.42-.38,.55-.66,.13-.28,.2-.6,.2-.95s-.06-.68-.2-.96-.31-.49-.55-.65c-.23-.16-.5-.24-.81-.24s-.57,.08-.81,.24c-.24,.16-.42,.38-.55,.65-.13,.28-.2,.59-.2,.96s.07,.67,.2,.95c.13,.28,.32,.5,.55,.66,.24,.16,.51,.24,.81,.24Z"/>
    <path class="cls-5" d="M280.4,62.9v-7.22h2.27v1.64c.23-.61,.51-1.05,.83-1.34,.32-.29,.7-.43,1.13-.43,.16,0,.29,.02,.39,.04,.1,.02,.22,.07,.37,.14v1.95c-.14-.07-.3-.13-.49-.17-.19-.04-.38-.06-.57-.06-.34,0-.65,.08-.94,.25-.29,.16-.53,.38-.71,.65v4.56h-2.27Z"/>
    <path class="cls-5" d="M288.76,63.01c-.49,0-.92-.09-1.29-.28s-.67-.44-.88-.77c-.21-.33-.32-.7-.32-1.13s.11-.83,.34-1.14,.55-.55,.97-.71,.92-.25,1.51-.25c.26,0,.53,.03,.8,.08,.27,.05,.56,.14,.88,.26v-.59c0-.35-.12-.62-.35-.79-.23-.17-.59-.26-1.08-.26-.27,0-.57,.04-.9,.12-.33,.08-.71,.21-1.13,.39l-.78-1.58c1.17-.52,2.27-.78,3.32-.78s1.78,.24,2.33,.71c.55,.48,.83,1.14,.83,2v4.62h-2.24v-.63c-.32,.26-.63,.45-.95,.57-.32,.12-.67,.18-1.05,.18Zm-.41-2.23c0,.23,.1,.41,.29,.54,.2,.13,.47,.19,.81,.19,.24,0,.47-.03,.69-.09s.42-.15,.62-.27v-.92c-.21-.05-.41-.08-.62-.11s-.42-.04-.63-.04c-.37,0-.66,.06-.86,.18-.2,.12-.3,.3-.3,.53Z"/>
    <path class="cls-5" d="M298.12,63.04c-.85,0-1.49-.2-1.93-.59-.44-.39-.66-.97-.66-1.74v-3.29h-1.4v-1.75h1.4v-2l2.27-.46v2.46h1.93v1.75h-1.93v2.84c0,.32,.07,.54,.22,.67s.39,.2,.74,.2c.13,0,.26,0,.39-.03,.13-.02,.31-.06,.53-.13v1.83c-.21,.07-.46,.12-.76,.16s-.56,.06-.8,.06Z"/>
    <path class="cls-5" d="M302.12,54.57c-.35,0-.64-.13-.9-.38s-.38-.55-.38-.9,.13-.66,.38-.9,.55-.37,.9-.37,.66,.12,.9,.37c.25,.25,.37,.55,.37,.9s-.12,.64-.37,.9c-.25,.25-.55,.38-.9,.38Zm-1.13,8.33v-7.22h2.27v7.22h-2.27Z"/>
    <path class="cls-5" d="M308.45,63.04c-.72,0-1.36-.16-1.93-.49-.57-.33-1.02-.77-1.35-1.34-.33-.57-.5-1.2-.5-1.91s.17-1.35,.5-1.91,.78-1.01,1.35-1.34c.57-.33,1.21-.49,1.92-.49s1.36,.16,1.93,.49c.56,.33,1.01,.77,1.34,1.34,.33,.56,.5,1.2,.5,1.91s-.17,1.35-.5,1.91c-.33,.56-.78,1.01-1.34,1.34-.57,.33-1.2,.49-1.91,.49Zm-.01-1.89c.31,0,.58-.08,.81-.24,.23-.16,.42-.38,.55-.66,.13-.28,.2-.6,.2-.95s-.07-.68-.2-.96c-.13-.28-.31-.49-.55-.65-.23-.16-.5-.24-.81-.24s-.57,.08-.8,.24c-.24,.16-.42,.38-.55,.65s-.2,.59-.2,.96,.07,.67,.2,.95c.13,.28,.31,.5,.55,.66,.24,.16,.51,.24,.8,.24Z"/>
    <path class="cls-5" d="M313.67,62.9v-7.22h2.27v1.18c.28-.42,.61-.74,1-.96s.81-.33,1.28-.33,.88,.1,1.24,.31c.36,.21,.64,.5,.85,.87,.21,.37,.31,.8,.31,1.28v4.87h-2.27v-4.21c0-.41-.11-.74-.33-.98-.22-.24-.51-.36-.88-.36-.24,0-.46,.05-.67,.15s-.38,.25-.54,.46v4.96h-2.27Z"/>
    <path class="cls-5" d="M325.16,62.9v-1.54l4.14-4.1c.16-.15,.28-.3,.38-.44,.09-.14,.16-.29,.21-.44,.05-.15,.07-.3,.07-.45,0-.32-.14-.58-.41-.79s-.62-.32-1.03-.32c-.44,0-.85,.09-1.23,.27-.38,.18-.8,.49-1.25,.93l-1.21-1.47c.56-.53,1.16-.93,1.79-1.2,.63-.27,1.29-.41,1.97-.41s1.31,.12,1.83,.36c.52,.24,.92,.57,1.21,.99,.29,.42,.43,.92,.43,1.49,0,.31-.04,.6-.13,.89-.09,.28-.23,.56-.41,.83-.19,.27-.43,.55-.73,.84l-2.83,2.73h4.24s0,1.82,0,1.82h-7.04Z"/>
    <path class="cls-5" d="M238.93,81.9v-7.02l-1.49,.64v-1.16l1.97-.85h.83v8.4h-1.31Z"/>
    <path class="cls-5" d="M245.28,82.02c-.68,0-1.28-.18-1.79-.55-.52-.36-.92-.87-1.21-1.52-.29-.65-.44-1.4-.44-2.26s.15-1.61,.44-2.26c.29-.65,.7-1.16,1.21-1.52,.52-.36,1.11-.55,1.79-.55s1.28,.18,1.79,.55c.52,.36,.92,.87,1.21,1.52,.29,.65,.44,1.41,.44,2.26s-.15,1.61-.44,2.26c-.29,.65-.7,1.15-1.21,1.52-.52,.36-1.12,.55-1.79,.55Zm0-1.16c.43,0,.81-.13,1.12-.39,.32-.26,.56-.63,.74-1.1,.18-.48,.26-1.03,.26-1.66s-.09-1.21-.26-1.68c-.18-.47-.42-.84-.74-1.1-.32-.26-.69-.39-1.12-.39s-.81,.13-1.13,.39c-.32,.26-.57,.63-.74,1.1s-.26,1.03-.26,1.68,.09,1.19,.26,1.66c.18,.48,.42,.84,.74,1.1,.32,.26,.7,.39,1.13,.39Z"/>
    <path class="cls-5" d="M253.48,82.02c-.68,0-1.28-.18-1.79-.55s-.92-.87-1.21-1.52c-.29-.65-.44-1.4-.44-2.26s.15-1.61,.44-2.26,.7-1.16,1.21-1.52c.52-.36,1.11-.55,1.79-.55s1.28,.18,1.79,.55c.52,.36,.92,.87,1.21,1.52s.44,1.41,.44,2.26-.15,1.61-.44,2.26c-.29,.65-.7,1.15-1.21,1.52s-1.11,.55-1.79,.55Zm0-1.16c.43,0,.81-.13,1.12-.39,.32-.26,.56-.63,.74-1.1,.18-.48,.26-1.03,.26-1.66s-.09-1.21-.26-1.68c-.18-.47-.42-.84-.74-1.1-.32-.26-.69-.39-1.12-.39s-.81,.13-1.13,.39c-.32,.26-.57,.63-.74,1.1s-.26,1.03-.26,1.68,.09,1.19,.26,1.66c.18,.48,.42,.84,.74,1.1,.32,.26,.7,.39,1.13,.39Z"/>
    <path class="cls-5" d="M263.11,82.02c-.51,0-.99-.07-1.43-.2-.44-.14-.83-.34-1.15-.61l.64-.9c.39,.24,.74,.41,1.03,.52,.3,.11,.6,.16,.9,.16,.37,0,.66-.08,.88-.23,.22-.15,.33-.35,.33-.59,0-.18-.06-.33-.19-.44s-.34-.19-.65-.25l-1.06-.18c-.58-.11-1.02-.3-1.31-.58-.29-.27-.43-.64-.43-1.09,0-.37,.1-.69,.29-.97,.19-.28,.47-.49,.82-.65,.36-.16,.76-.23,1.22-.23,.42,0,.82,.06,1.21,.18s.78,.3,1.15,.54l-.64,.9c-.3-.2-.61-.35-.91-.44-.3-.09-.6-.14-.89-.14-.32,0-.57,.06-.76,.19s-.28,.29-.28,.51c0,.19,.06,.34,.19,.44,.12,.1,.34,.17,.65,.22l1.07,.2c.61,.1,1.06,.29,1.34,.57,.29,.28,.43,.64,.43,1.1,0,.37-.11,.7-.32,1s-.5,.53-.88,.7-.79,.26-1.27,.26Z"/>
    <path class="cls-5" d="M268.9,82c-.41,0-.77-.09-1.08-.28-.31-.18-.56-.44-.74-.76-.18-.32-.27-.69-.27-1.1v-3.97h1.37v3.58c0,.44,.12,.79,.35,1.05,.24,.26,.56,.39,.97,.39,.28,0,.53-.06,.74-.18,.22-.12,.4-.3,.56-.54v-4.3h1.36v6.01h-1.36v-.97c-.23,.35-.51,.62-.83,.8-.32,.18-.68,.27-1.08,.27Z"/>
    <path class="cls-5" d="M273.89,81.9v-8.57l1.37-.23v3.59c.22-.27,.48-.48,.8-.63s.67-.22,1.05-.22c.51,0,.97,.14,1.38,.41,.41,.28,.73,.64,.97,1.1s.36,.97,.36,1.55-.12,1.08-.37,1.54-.58,.83-1,1.1c-.42,.28-.9,.41-1.43,.41-.34,0-.67-.07-.98-.22-.31-.14-.57-.35-.8-.61v.77h-1.34Zm2.81-1.08c.34,0,.65-.08,.92-.25,.27-.16,.48-.39,.64-.68,.16-.29,.23-.62,.23-.99s-.08-.7-.23-.98c-.16-.29-.37-.52-.64-.68-.27-.17-.58-.25-.91-.25-.3,0-.57,.06-.82,.17s-.46,.28-.62,.5v2.5c.18,.22,.39,.38,.64,.5s.52,.17,.8,.17Z"/>
    <path class="cls-5" d="M283.29,82.02c-.51,0-.99-.07-1.43-.2-.44-.14-.83-.34-1.15-.61l.64-.9c.39,.24,.74,.41,1.03,.52,.3,.11,.6,.16,.9,.16,.37,0,.66-.08,.88-.23,.22-.15,.33-.35,.33-.59,0-.18-.06-.33-.19-.44-.13-.11-.34-.19-.65-.25l-1.06-.18c-.58-.11-1.02-.3-1.31-.58-.29-.27-.43-.64-.43-1.09,0-.37,.1-.69,.29-.97,.19-.28,.46-.49,.82-.65,.36-.16,.76-.23,1.22-.23,.42,0,.82,.06,1.21,.18,.39,.12,.78,.3,1.15,.54l-.64,.9c-.3-.2-.61-.35-.91-.44-.3-.09-.6-.14-.89-.14-.32,0-.57,.06-.76,.19-.19,.12-.28,.29-.28,.51,0,.19,.06,.34,.19,.44,.12,.1,.34,.17,.65,.22l1.07,.2c.61,.1,1.06,.29,1.34,.57,.29,.28,.43,.64,.43,1.1,0,.37-.11,.7-.32,1-.21,.3-.5,.53-.88,.7-.37,.17-.79,.26-1.27,.26Z"/>
    <path class="cls-5" d="M289.82,82.01c-.57,0-1.08-.14-1.54-.41-.46-.28-.82-.65-1.09-1.12-.27-.47-.4-.99-.4-1.58s.13-1.11,.4-1.58c.27-.47,.63-.84,1.09-1.12,.46-.28,.97-.41,1.54-.41,.47,0,.92,.09,1.33,.27,.42,.18,.77,.43,1.07,.75l-.85,.88c-.2-.23-.43-.41-.68-.53s-.53-.18-.82-.18c-.32,0-.61,.09-.88,.26s-.47,.4-.62,.69-.23,.61-.23,.97,.08,.7,.23,.98,.36,.52,.62,.68,.56,.25,.88,.25c.29,0,.56-.06,.82-.17s.48-.29,.68-.52l.85,.88c-.29,.32-.65,.57-1.07,.74-.42,.18-.86,.26-1.33,.26Z"/>
    <path class="cls-5" d="M293.35,81.9v-6.01h1.37v1.3c.18-.46,.4-.8,.68-1.04s.6-.36,.97-.36c.13,0,.24,.02,.32,.03,.09,.01,.18,.04,.28,.09v1.2c-.11-.06-.23-.1-.36-.12-.13-.02-.26-.04-.38-.04-.33,0-.62,.09-.88,.26-.26,.18-.47,.42-.62,.74v3.95h-1.37Z"/>
    <path class="cls-5" d="M298.81,74.66c-.22,0-.42-.08-.58-.25-.16-.16-.25-.36-.25-.59s.08-.42,.25-.58,.37-.25,.61-.25c.22,0,.42,.08,.58,.25s.25,.36,.25,.59-.08,.42-.25,.58c-.16,.16-.37,.25-.61,.25Zm-.67,7.24v-6.01h1.36v6.01h-1.36Z"/>
    <path class="cls-5" d="M301.22,84.41v-8.52h1.34v.85c.22-.29,.5-.51,.82-.67s.67-.23,1.06-.23c.51,0,.97,.14,1.38,.41,.41,.28,.73,.64,.97,1.1s.36,.97,.36,1.55-.12,1.08-.37,1.54-.58,.83-1,1.1c-.42,.28-.9,.41-1.43,.41-.35,0-.68-.07-.97-.2s-.56-.32-.78-.57v3.22h-1.37Zm2.81-3.59c.34,0,.65-.08,.92-.25,.27-.16,.48-.39,.64-.68,.16-.29,.23-.62,.23-.99s-.08-.7-.23-.98c-.16-.29-.37-.52-.64-.68-.27-.17-.58-.25-.91-.25-.3,0-.57,.06-.82,.17s-.46,.28-.62,.5v2.5c.18,.22,.39,.38,.64,.5s.52,.17,.8,.17Z"/>
    <path class="cls-5" d="M310.92,82.02c-.61,0-1.07-.14-1.38-.43s-.47-.71-.47-1.27v-3.37h-1.2v-1.07h1.2v-1.64l1.36-.3v1.94h1.68v1.07h-1.68v3.08c0,.3,.06,.51,.19,.63,.13,.12,.34,.19,.65,.19,.14,0,.26,0,.38-.03,.12-.02,.26-.06,.44-.11v1.14c-.17,.06-.36,.1-.58,.13-.21,.03-.41,.04-.59,.04Z"/>
    <path class="cls-5" d="M313.96,74.66c-.22,0-.42-.08-.58-.25-.16-.16-.25-.36-.25-.59s.08-.42,.25-.58,.37-.25,.61-.25c.22,0,.42,.08,.58,.25s.25,.36,.25,.59-.08,.42-.25,.58c-.16,.16-.37,.25-.61,.25Zm-.67,7.24v-6.01h1.36v6.01h-1.36Z"/>
    <path class="cls-5" d="M319.06,82.01c-.58,0-1.09-.14-1.55-.41-.46-.27-.82-.64-1.08-1.12-.26-.47-.4-1-.4-1.58s.13-1.12,.4-1.59c.26-.47,.62-.84,1.08-1.11,.46-.27,.97-.41,1.55-.41s1.09,.14,1.54,.41c.45,.27,.81,.64,1.07,1.11,.26,.47,.4,.99,.4,1.58s-.13,1.12-.4,1.6c-.26,.47-.62,.84-1.07,1.12-.45,.27-.97,.41-1.54,.41Zm0-1.15c.33,0,.62-.09,.87-.26s.45-.41,.59-.7c.14-.3,.22-.63,.22-1s-.07-.71-.22-1c-.14-.29-.34-.52-.59-.7-.25-.17-.54-.26-.87-.26s-.62,.09-.88,.26c-.26,.17-.46,.4-.6,.7s-.22,.63-.22,1,.07,.7,.22,1,.34,.53,.6,.7,.55,.26,.88,.26Z"/>
    <path class="cls-5" d="M323.49,81.9v-6.01h1.37v.97c.22-.34,.5-.61,.82-.79,.32-.18,.68-.28,1.07-.28,.42,0,.78,.09,1.09,.28,.31,.18,.56,.43,.73,.75,.18,.32,.26,.69,.26,1.11v3.97h-1.34v-3.58c0-.44-.12-.79-.36-1.05s-.56-.39-.97-.39c-.26,0-.51,.06-.74,.18s-.42,.3-.57,.55v4.28h-1.37Z"/>
    <path class="cls-5" d="M332.6,82.02c-.51,0-.99-.07-1.43-.2s-.83-.34-1.15-.61l.64-.9c.39,.24,.74,.41,1.03,.52,.29,.11,.6,.16,.9,.16,.37,0,.66-.08,.88-.23,.22-.15,.33-.35,.33-.59,0-.18-.06-.33-.19-.44-.13-.11-.34-.19-.65-.25l-1.06-.18c-.58-.11-1.02-.3-1.31-.58-.29-.27-.43-.64-.43-1.09,0-.37,.1-.69,.29-.97,.19-.28,.47-.49,.82-.65,.36-.16,.76-.23,1.22-.23,.42,0,.82,.06,1.21,.18s.78,.3,1.15,.54l-.64,.9c-.3-.2-.61-.35-.91-.44s-.6-.14-.89-.14c-.32,0-.57,.06-.76,.19s-.28,.29-.28,.51c0,.19,.06,.34,.19,.44,.12,.1,.34,.17,.65,.22l1.07,.2c.61,.1,1.06,.29,1.34,.57,.29,.28,.43,.64,.43,1.1,0,.37-.11,.7-.32,1s-.5,.53-.88,.7-.79,.26-1.27,.26Z"/>
  </g>
  <rect class="cls-19" x="237" y="103" width="161" height="123"/>
  <rect class="cls-19" x="408" y="103" width="161" height="123"/>
  <rect class="cls-19" x="579" y="103" width="161" height="123"/>
  <text class="cls-4" transform="translate(252 128.2)"><tspan class="cls-33" x="0" y="0">M</tspan><tspan class="cls-49" x="11.11" y="0">a</tspan><tspan class="cls-8" x="18.12" y="0">ni</tspan><tspan class="cls-17" x="29.07" y="0">f</tspan><tspan class="cls-38" x="34.41" y="0">e</tspan><tspan class="cls-24" x="41.56" y="0">s</tspan><tspan class="cls-35" x="47.91" y="0">t</tspan></text>
  <text class="cls-4" transform="translate(423 128.2)"><tspan class="cls-33" x="0" y="0">M</tspan><tspan class="cls-49" x="11.11" y="0">a</tspan><tspan class="cls-8" x="18.12" y="0">ni</tspan><tspan class="cls-17" x="29.07" y="0">f</tspan><tspan class="cls-38" x="34.41" y="0">e</tspan><tspan class="cls-24" x="41.56" y="0">s</tspan><tspan class="cls-35" x="47.91" y="0">t</tspan></text>
  <text class="cls-4" transform="translate(594 128.2)"><tspan class="cls-33" x="0" y="0">M</tspan><tspan class="cls-49" x="11.11" y="0">a</tspan><tspan class="cls-8" x="18.12" y="0">ni</tspan><tspan class="cls-17" x="29.07" y="0">f</tspan><tspan class="cls-38" x="34.41" y="0">e</tspan><tspan class="cls-24" x="41.56" y="0">s</tspan><tspan class="cls-35" x="47.91" y="0">t</tspan></text>
  <rect class="cls-20" x="252" y="141" width="131" height="70"/>
  <text class="cls-6" transform="translate(304.87 164.5)"><tspan class="cls-30" x="0" y="0">R</tspan><tspan class="cls-45" x="8.08" y="0">&amp;</tspan><tspan x="16.36" y="0">D</tspan><tspan class="cls-34" x="-25.96" y="13">S</tspan><tspan class="cls-49" x="-18.22" y="13">u</tspan><tspan class="cls-58" x="-11.18" y="13">b</tspan><tspan class="cls-21" x="-3.83" y="13">s</tspan><tspan class="cls-39" x="1.98" y="13">c</tspan><tspan class="cls-9" x="8.28" y="13">r</tspan><tspan class="cls-43" x="13.07" y="13">i</tspan><tspan class="cls-59" x="16.15" y="13">p</tspan><tspan x="23.25" y="13">t</tspan><tspan class="cls-44" x="28.21" y="13">i</tspan><tspan class="cls-26" x="31.23" y="13">o</tspan><tspan class="cls-13" x="38.43" y="13">n</tspan><tspan x="45.47" y="13">s</tspan><tspan class="cls-52" x=".39" y="30">(</tspan><tspan class="cls-41" x="5.22" y="30">3</tspan><tspan class="cls-46" x="12.49" y="30">0</tspan><tspan x="19.91" y="30">)</tspan></text>
  <g>
    <line class="cls-2" x1="317.5" y1="211.07" x2="317.5" y2="282.39"/>
    <polygon class="cls-5" points="312.51 280.94 317.5 289.57 322.49 280.94 312.51 280.94"/>
  </g>
  <g>
    <line class="cls-2" x1="488.5" y1="211.07" x2="488.5" y2="282.39"/>
    <polygon class="cls-5" points="483.51 280.94 488.5 289.57 493.49 280.94 483.51 280.94"/>
  </g>
  <g>
    <line class="cls-2" x1="663.75" y1="211.07" x2="663.75" y2="282.39"/>
    <polygon class="cls-5" points="658.76 280.94 663.75 289.57 668.74 280.94 658.76 280.94"/>
  </g>
  <g>
    <rect class="cls-20" x="35" y="141" width="131" height="70"/>
    <text class="cls-6" transform="translate(95.01 163.21)"><tspan class="cls-12" x="0" y="0">I</tspan><tspan x="3.33" y="0">T</tspan><tspan class="cls-34" x="-33.1" y="13">S</tspan><tspan class="cls-49" x="-25.36" y="13">u</tspan><tspan class="cls-58" x="-18.32" y="13">b</tspan><tspan class="cls-21" x="-10.97" y="13">s</tspan><tspan class="cls-39" x="-5.16" y="13">c</tspan><tspan class="cls-9" x="1.14" y="13">r</tspan><tspan class="cls-43" x="5.93" y="13">i</tspan><tspan class="cls-59" x="9.02" y="13">p</tspan><tspan x="16.11" y="13">t</tspan><tspan class="cls-44" x="21.08" y="13">i</tspan><tspan class="cls-26" x="24.09" y="13">o</tspan><tspan class="cls-13" x="31.29" y="13">n</tspan><tspan x="38.33" y="13">s</tspan><tspan class="cls-52" x="-6.75" y="30">(</tspan><tspan class="cls-41" x="-1.92" y="30">3</tspan><tspan class="cls-46" x="5.35" y="30">0</tspan><tspan x="12.77" y="30">)</tspan></text>
  </g>
  <rect class="cls-20" x="423" y="141" width="131" height="70"/>
  <g>
    <path class="cls-5" d="M461.73,164.64c-.58,0-1.14-.11-1.66-.33-.52-.22-.97-.53-1.36-.92-.39-.4-.69-.86-.91-1.38s-.32-1.09-.32-1.7,.11-1.17,.32-1.7,.52-.98,.91-1.38c.39-.4,.84-.7,1.36-.92,.52-.22,1.07-.33,1.66-.33s1.16,.11,1.68,.33c.52,.22,.97,.53,1.36,.92s.69,.86,.91,1.38c.22,.52,.32,1.09,.32,1.7s-.11,1.17-.32,1.7c-.22,.52-.52,.98-.91,1.38s-.84,.7-1.36,.92c-.52,.22-1.08,.33-1.68,.33Zm.01-1.3c.39,0,.76-.08,1.09-.23,.34-.15,.63-.37,.88-.64,.25-.28,.45-.6,.59-.97s.22-.77,.22-1.19-.07-.83-.22-1.2-.34-.69-.59-.97c-.25-.28-.55-.49-.88-.64s-.71-.23-1.1-.23-.75,.08-1.09,.23-.62,.37-.88,.64c-.25,.28-.45,.6-.59,.97-.14,.37-.21,.76-.21,1.19s.07,.83,.21,1.21c.14,.37,.34,.7,.59,.97,.25,.28,.54,.49,.88,.64,.33,.15,.7,.23,1.1,.23Z"/>
    <path class="cls-5" d="M467.55,167.01v-8.52h1.34v.85c.22-.29,.5-.51,.82-.67,.32-.16,.67-.23,1.06-.23,.51,0,.97,.14,1.38,.41,.41,.28,.73,.64,.97,1.1s.36,.97,.36,1.55-.12,1.08-.37,1.54-.58,.83-1,1.1-.9,.41-1.43,.41c-.35,0-.68-.07-.97-.2-.3-.13-.56-.32-.78-.57v3.22h-1.37Zm2.81-3.59c.34,0,.65-.08,.92-.25,.27-.16,.48-.39,.64-.68,.16-.29,.23-.62,.23-.99s-.08-.7-.23-.98c-.16-.29-.37-.52-.64-.68-.27-.17-.58-.25-.91-.25-.3,0-.57,.06-.82,.17-.25,.12-.46,.28-.62,.5v2.5c.18,.22,.39,.38,.64,.5s.52,.17,.8,.17Z"/>
    <path class="cls-5" d="M477.69,164.62c-.58,0-1.1-.14-1.56-.41-.46-.28-.83-.65-1.1-1.12-.27-.47-.41-1-.41-1.58s.13-1.12,.38-1.59c.26-.47,.61-.84,1.05-1.11,.44-.27,.94-.41,1.49-.41s1.03,.13,1.46,.4c.43,.27,.77,.64,1.02,1.1,.25,.47,.37,1,.37,1.6v.34h-4.45c.05,.32,.15,.61,.32,.86s.38,.45,.64,.59c.26,.14,.54,.21,.85,.21,.28,0,.55-.05,.8-.14,.25-.1,.47-.23,.64-.41l.88,.79c-.36,.3-.73,.53-1.12,.67s-.8,.22-1.26,.22Zm-1.73-3.62h3.14c-.04-.3-.14-.57-.29-.79-.15-.22-.34-.4-.56-.53-.22-.13-.46-.2-.73-.2s-.51,.06-.73,.19c-.22,.13-.4,.3-.54,.52-.14,.22-.24,.49-.3,.8Z"/>
    <path class="cls-5" d="M481.74,164.5v-6.01h1.37v1.3c.18-.46,.4-.8,.68-1.04,.28-.24,.6-.36,.97-.36,.13,0,.24,.02,.32,.03,.09,.01,.18,.04,.28,.09v1.2c-.11-.06-.23-.1-.36-.12s-.26-.04-.38-.04c-.33,0-.62,.09-.88,.26s-.47,.42-.62,.74v3.95h-1.37Z"/>
    <path class="cls-5" d="M488.32,164.6c-.42,0-.78-.08-1.1-.23-.32-.15-.57-.37-.76-.64-.18-.28-.28-.59-.28-.95s.1-.68,.29-.94c.19-.26,.46-.46,.8-.61,.34-.14,.75-.22,1.22-.22,.28,0,.56,.03,.83,.09,.27,.06,.54,.16,.79,.29v-.67c0-.4-.12-.7-.35-.9-.23-.2-.57-.3-1.02-.3-.26,0-.53,.04-.81,.11-.28,.08-.6,.19-.95,.35l-.48-.98c.88-.41,1.71-.61,2.48-.61s1.4,.19,1.83,.57c.43,.38,.64,.92,.64,1.61v3.92h-1.34v-.62c-.26,.25-.53,.43-.83,.55-.3,.12-.62,.17-.96,.17Zm-.86-1.85c0,.28,.11,.5,.33,.67s.52,.25,.91,.25c.27,0,.53-.04,.76-.13,.24-.09,.45-.22,.65-.38v-.97c-.21-.1-.43-.17-.65-.22-.23-.05-.47-.08-.74-.08-.39,0-.7,.08-.92,.24-.22,.16-.34,.37-.34,.64Z"/>
    <path class="cls-5" d="M495.59,164.62c-.61,0-1.07-.14-1.38-.43-.31-.28-.47-.71-.47-1.27v-3.37h-1.2v-1.07h1.2v-1.64l1.36-.3v1.94h1.68v1.07h-1.68v3.08c0,.3,.06,.51,.19,.63s.34,.19,.65,.19c.14,0,.26,0,.38-.03,.12-.02,.26-.06,.44-.11v1.14c-.17,.06-.36,.1-.58,.13-.22,.03-.41,.04-.59,.04Z"/>
    <path class="cls-5" d="M498.62,157.27c-.22,0-.42-.08-.58-.25s-.25-.36-.25-.59,.08-.42,.25-.58c.16-.16,.37-.25,.61-.25,.22,0,.42,.08,.58,.25,.16,.16,.25,.36,.25,.59s-.08,.42-.25,.58-.37,.25-.61,.25Zm-.67,7.24v-6.01h1.36v6.01h-1.36Z"/>
    <path class="cls-5" d="M503.72,164.61c-.58,0-1.09-.14-1.55-.41-.46-.27-.82-.64-1.08-1.12-.26-.47-.4-1-.4-1.58s.13-1.12,.4-1.59c.26-.47,.62-.84,1.08-1.11,.46-.27,.97-.41,1.55-.41s1.09,.14,1.54,.41c.45,.27,.81,.64,1.07,1.11,.26,.47,.4,.99,.4,1.58s-.13,1.12-.4,1.6c-.26,.47-.62,.84-1.07,1.12-.45,.27-.96,.41-1.54,.41Zm0-1.15c.33,0,.62-.09,.87-.26,.25-.17,.45-.41,.59-.7,.14-.3,.22-.63,.22-1s-.07-.71-.22-1c-.14-.29-.34-.52-.59-.7-.25-.17-.54-.26-.87-.26s-.62,.09-.88,.26c-.26,.17-.46,.4-.6,.7s-.22,.63-.22,1,.07,.7,.22,1,.34,.53,.6,.7c.26,.17,.55,.26,.88,.26Z"/>
    <path class="cls-5" d="M508.16,164.5v-6.01h1.37v.97c.22-.34,.5-.61,.82-.79s.68-.28,1.07-.28c.42,0,.78,.09,1.09,.28s.56,.43,.73,.75c.18,.32,.26,.69,.26,1.11v3.97h-1.34v-3.58c0-.44-.12-.79-.36-1.05-.24-.26-.56-.39-.97-.39-.26,0-.51,.06-.74,.18s-.42,.3-.57,.55v4.28h-1.37Z"/>
    <path class="cls-5" d="M517.26,164.62c-.51,0-.99-.07-1.43-.2-.44-.14-.83-.34-1.15-.61l.64-.9c.39,.24,.74,.41,1.03,.52,.3,.11,.6,.16,.9,.16,.37,0,.66-.08,.88-.23,.22-.15,.33-.35,.33-.59,0-.18-.06-.33-.19-.44s-.34-.19-.65-.25l-1.06-.18c-.58-.11-1.02-.3-1.31-.58-.29-.27-.43-.64-.43-1.09,0-.37,.1-.69,.29-.97s.47-.49,.82-.65c.36-.16,.76-.23,1.22-.23,.42,0,.82,.06,1.21,.18,.39,.12,.78,.3,1.15,.54l-.64,.9c-.3-.2-.61-.35-.91-.44-.3-.09-.6-.14-.89-.14-.32,0-.57,.06-.76,.19s-.28,.29-.28,.51c0,.19,.06,.34,.19,.44,.12,.1,.34,.17,.65,.22l1.07,.2c.61,.1,1.06,.29,1.34,.57,.29,.28,.43,.64,.43,1.1,0,.37-.11,.7-.32,1s-.5,.53-.88,.7c-.37,.17-.79,.26-1.27,.26Z"/>
    <path class="cls-5" d="M453.73,177.64c-.66,0-1.27-.11-1.85-.34-.58-.22-1.14-.56-1.67-1.02l.78-1.07c.54,.45,1.03,.76,1.46,.95,.43,.18,.88,.28,1.36,.28,.38,0,.7-.06,.98-.17,.28-.11,.5-.27,.66-.47,.16-.2,.24-.43,.24-.69,0-.34-.11-.6-.34-.78-.23-.18-.62-.32-1.18-.42l-1.55-.28c-.73-.12-1.27-.36-1.62-.73-.35-.36-.53-.83-.53-1.4,0-.51,.13-.96,.38-1.33s.61-.67,1.07-.88,1.01-.32,1.64-.32,1.23,.09,1.8,.28c.57,.18,1.09,.45,1.57,.8l-.73,1.08c-.42-.33-.86-.57-1.31-.73s-.91-.24-1.38-.24c-.34,0-.63,.05-.88,.16s-.45,.25-.59,.43-.21,.38-.21,.62c0,.3,.1,.53,.31,.7s.53,.29,.99,.36l1.5,.26c.85,.14,1.48,.39,1.88,.77,.41,.38,.61,.89,.61,1.53,0,.51-.14,.97-.43,1.37-.29,.4-.68,.71-1.19,.94-.5,.22-1.09,.34-1.76,.34Z"/>
    <path class="cls-5" d="M460.53,177.6c-.41,0-.77-.09-1.08-.28-.31-.18-.56-.44-.74-.76-.18-.32-.27-.69-.27-1.1v-3.97h1.37v3.58c0,.44,.12,.79,.35,1.05,.24,.26,.56,.39,.96,.39,.28,0,.53-.06,.74-.18,.22-.12,.4-.3,.56-.54v-4.3h1.36v6.01h-1.36v-.97c-.23,.35-.51,.62-.83,.8-.32,.18-.68,.27-1.08,.27Z"/>
    <path class="cls-5" d="M465.52,177.5v-8.57l1.37-.23v3.59c.22-.27,.48-.48,.8-.63,.32-.15,.67-.22,1.05-.22,.51,0,.97,.14,1.38,.41,.41,.28,.73,.64,.97,1.1s.36,.97,.36,1.55-.12,1.08-.37,1.54-.58,.83-1,1.1-.9,.41-1.43,.41c-.34,0-.67-.07-.98-.22-.31-.14-.57-.35-.8-.61v.77h-1.34Zm2.81-1.08c.34,0,.65-.08,.92-.25,.27-.16,.48-.39,.64-.68s.23-.62,.23-.99-.08-.7-.23-.98-.37-.52-.64-.68-.58-.25-.91-.25c-.3,0-.57,.06-.82,.17-.25,.12-.46,.28-.62,.5v2.5c.18,.22,.39,.38,.64,.5s.52,.17,.8,.17Z"/>
    <path class="cls-5" d="M474.92,177.62c-.51,0-.99-.07-1.43-.2s-.83-.34-1.15-.61l.64-.9c.39,.24,.74,.41,1.03,.52,.29,.11,.6,.16,.9,.16,.37,0,.66-.08,.88-.23,.22-.15,.33-.35,.33-.59,0-.18-.06-.33-.19-.44-.13-.11-.34-.19-.65-.25l-1.06-.18c-.58-.11-1.02-.3-1.31-.58-.29-.27-.43-.64-.43-1.09,0-.37,.1-.69,.29-.97s.47-.49,.82-.65c.36-.16,.76-.23,1.22-.23,.42,0,.82,.06,1.21,.18,.39,.12,.78,.3,1.15,.54l-.64,.9c-.3-.2-.61-.35-.91-.44-.3-.09-.6-.14-.89-.14-.32,0-.57,.06-.76,.19s-.28,.29-.28,.51c0,.19,.06,.34,.19,.44,.12,.1,.34,.17,.65,.22l1.07,.2c.61,.1,1.06,.29,1.34,.57,.29,.28,.43,.64,.43,1.1,0,.37-.11,.7-.32,1s-.5,.53-.88,.7c-.37,.17-.79,.26-1.27,.26Z"/>
    <path class="cls-5" d="M481.45,177.61c-.57,0-1.08-.14-1.54-.41-.46-.28-.82-.65-1.09-1.12-.27-.47-.4-.99-.4-1.58s.13-1.11,.4-1.58c.27-.47,.63-.84,1.09-1.12,.46-.28,.97-.41,1.54-.41,.47,0,.92,.09,1.33,.27,.42,.18,.77,.43,1.07,.75l-.85,.88c-.2-.23-.43-.41-.68-.53-.26-.12-.53-.18-.82-.18-.32,0-.61,.09-.88,.26-.26,.17-.47,.4-.62,.69-.15,.29-.23,.61-.23,.97s.08,.7,.23,.98c.15,.29,.36,.52,.62,.68,.26,.17,.56,.25,.88,.25,.29,0,.56-.06,.82-.17s.48-.29,.68-.52l.85,.88c-.3,.32-.65,.57-1.07,.74-.42,.18-.86,.26-1.33,.26Z"/>
    <path class="cls-5" d="M484.98,177.5v-6.01h1.37v1.3c.18-.46,.4-.8,.68-1.04,.28-.24,.6-.36,.97-.36,.13,0,.24,.02,.32,.03,.09,.01,.18,.04,.28,.09v1.2c-.11-.06-.23-.1-.36-.12-.13-.02-.26-.04-.38-.04-.33,0-.62,.09-.88,.26-.26,.18-.47,.42-.62,.74v3.95h-1.37Z"/>
    <path class="cls-5" d="M490.44,170.27c-.22,0-.42-.08-.58-.25s-.25-.36-.25-.59,.08-.42,.25-.58c.16-.16,.37-.25,.61-.25,.22,0,.42,.08,.58,.25,.16,.16,.25,.36,.25,.59s-.08,.42-.25,.58-.37,.25-.61,.25Zm-.67,7.24v-6.01h1.36v6.01h-1.36Z"/>
    <path class="cls-5" d="M492.85,180.01v-8.52h1.34v.85c.22-.29,.5-.51,.82-.67,.32-.16,.67-.23,1.06-.23,.51,0,.97,.14,1.38,.41,.41,.28,.73,.64,.97,1.1s.36,.97,.36,1.55-.12,1.08-.37,1.54-.58,.83-1,1.1-.9,.41-1.43,.41c-.35,0-.68-.07-.97-.2-.29-.13-.56-.32-.78-.57v3.22h-1.37Zm2.81-3.59c.34,0,.65-.08,.92-.25,.27-.16,.48-.39,.64-.68s.23-.62,.23-.99-.08-.7-.23-.98-.37-.52-.64-.68-.58-.25-.91-.25c-.3,0-.57,.06-.82,.17-.25,.12-.46,.28-.62,.5v2.5c.18,.22,.39,.38,.64,.5s.52,.17,.8,.17Z"/>
    <path class="cls-5" d="M502.55,177.62c-.61,0-1.07-.14-1.38-.43-.31-.28-.47-.71-.47-1.27v-3.37h-1.2v-1.07h1.2v-1.64l1.36-.3v1.94h1.68v1.07h-1.68v3.08c0,.3,.06,.51,.19,.63s.34,.19,.65,.19c.14,0,.26,0,.38-.03,.12-.02,.26-.06,.44-.11v1.14c-.17,.06-.36,.1-.58,.13-.21,.03-.41,.04-.59,.04Z"/>
    <path class="cls-5" d="M505.58,170.27c-.22,0-.42-.08-.58-.25s-.25-.36-.25-.59,.08-.42,.25-.58c.16-.16,.37-.25,.61-.25,.22,0,.42,.08,.58,.25,.16,.16,.25,.36,.25,.59s-.08,.42-.25,.58-.37,.25-.61,.25Zm-.67,7.24v-6.01h1.36v6.01h-1.36Z"/>
    <path class="cls-5" d="M510.68,177.61c-.58,0-1.09-.14-1.55-.41-.46-.27-.82-.64-1.08-1.12-.26-.47-.4-1-.4-1.58s.13-1.12,.4-1.59c.26-.47,.62-.84,1.08-1.11,.46-.27,.97-.41,1.55-.41s1.09,.14,1.54,.41c.45,.27,.81,.64,1.07,1.11,.26,.47,.4,.99,.4,1.58s-.13,1.12-.4,1.6c-.26,.47-.62,.84-1.07,1.12-.45,.27-.97,.41-1.54,.41Zm0-1.15c.33,0,.62-.09,.87-.26,.25-.17,.45-.41,.59-.7,.14-.3,.22-.63,.22-1s-.07-.71-.22-1c-.14-.29-.34-.52-.59-.7-.25-.17-.54-.26-.87-.26s-.62,.09-.88,.26c-.26,.17-.46,.4-.6,.7s-.22,.63-.22,1,.07,.7,.22,1,.34,.53,.6,.7c.26,.17,.55,.26,.88,.26Z"/>
    <path class="cls-5" d="M515.12,177.5v-6.01h1.37v.97c.22-.34,.5-.61,.82-.79,.32-.18,.68-.28,1.07-.28,.42,0,.78,.09,1.09,.28,.31,.18,.55,.43,.73,.75,.18,.32,.26,.69,.26,1.11v3.97h-1.34v-3.58c0-.44-.12-.79-.36-1.05-.24-.26-.56-.39-.97-.39-.26,0-.51,.06-.74,.18-.23,.12-.42,.3-.57,.55v4.28h-1.37Z"/>
    <path class="cls-5" d="M524.22,177.62c-.51,0-.99-.07-1.43-.2s-.83-.34-1.15-.61l.64-.9c.39,.24,.74,.41,1.03,.52,.29,.11,.6,.16,.9,.16,.37,0,.66-.08,.88-.23,.22-.15,.33-.35,.33-.59,0-.18-.06-.33-.19-.44-.13-.11-.34-.19-.65-.25l-1.06-.18c-.58-.11-1.02-.3-1.31-.58-.29-.27-.43-.64-.43-1.09,0-.37,.1-.69,.29-.97s.47-.49,.82-.65c.36-.16,.76-.23,1.22-.23,.42,0,.82,.06,1.21,.18,.39,.12,.78,.3,1.15,.54l-.64,.9c-.3-.2-.61-.35-.91-.44-.3-.09-.6-.14-.89-.14-.32,0-.57,.06-.76,.19s-.28,.29-.28,.51c0,.19,.06,.34,.19,.44,.12,.1,.34,.17,.65,.22l1.07,.2c.61,.1,1.06,.29,1.34,.57,.29,.28,.43,.64,.43,1.1,0,.37-.11,.7-.32,1s-.5,.53-.88,.7c-.37,.17-.79,.26-1.27,.26Z"/>
    <path class="cls-5" d="M480.07,197.17c-.62-.38-1.15-.86-1.59-1.42s-.77-1.19-.99-1.9c-.22-.7-.34-1.46-.34-2.28s.11-1.59,.34-2.3c.22-.71,.55-1.34,.99-1.9s.97-1.03,1.59-1.4l.72,.86c-.79,.5-1.38,1.15-1.79,1.96-.41,.81-.61,1.74-.61,2.78s.21,1.94,.62,2.76c.41,.82,1.01,1.47,1.78,1.96l-.72,.88Z"/>
    <path class="cls-5" d="M484.56,194.64c-1.14,0-2.12-.38-2.95-1.14l.79-.9c.36,.32,.71,.55,1.06,.7,.35,.14,.73,.22,1.15,.22,.36,0,.67-.07,.94-.2,.27-.14,.48-.33,.62-.58,.15-.25,.22-.54,.22-.86,0-.47-.17-.85-.5-1.15-.34-.29-.78-.44-1.32-.44-.28,0-.56,.04-.83,.11-.27,.07-.55,.18-.84,.34l-.91-.28,.19-4.34h5.1v1.13h-3.98l-.12,2.44c.29-.14,.58-.25,.86-.32,.29-.07,.59-.1,.9-.1,.56,0,1.05,.11,1.47,.32s.74,.51,.97,.89c.23,.38,.34,.83,.34,1.33,0,.56-.13,1.05-.4,1.48-.26,.43-.63,.76-1.11,1-.48,.24-1.03,.36-1.66,.36Z"/>
    <path class="cls-5" d="M492.33,194.62c-.68,0-1.28-.18-1.79-.55-.52-.36-.92-.87-1.21-1.52s-.44-1.4-.44-2.26,.15-1.61,.44-2.26,.7-1.16,1.21-1.52c.52-.36,1.11-.55,1.79-.55s1.28,.18,1.79,.55c.52,.36,.92,.87,1.21,1.52s.44,1.41,.44,2.26-.15,1.61-.44,2.26-.7,1.15-1.21,1.52c-.52,.36-1.11,.55-1.79,.55Zm0-1.16c.43,0,.81-.13,1.12-.39,.32-.26,.56-.63,.74-1.1,.18-.48,.26-1.03,.26-1.66s-.09-1.21-.26-1.68c-.18-.47-.42-.84-.74-1.1-.32-.26-.69-.39-1.12-.39s-.81,.13-1.13,.39c-.32,.26-.57,.63-.74,1.1s-.26,1.03-.26,1.68,.09,1.19,.26,1.66c.18,.48,.42,.84,.74,1.1,.32,.26,.7,.39,1.13,.39Z"/>
    <path class="cls-5" d="M496.93,185.97c.62,.38,1.15,.86,1.59,1.42,.44,.56,.77,1.19,.99,1.9,.22,.7,.34,1.46,.34,2.28s-.11,1.59-.34,2.3c-.22,.71-.55,1.34-.99,1.9s-.97,1.03-1.59,1.4l-.72-.86c.79-.5,1.38-1.15,1.79-1.96,.41-.81,.61-1.74,.61-2.78s-.21-1.94-.62-2.76c-.41-.82-1.01-1.47-1.78-1.96l.72-.88Z"/>
  </g>
  <rect class="cls-20" x="594" y="141" width="131" height="70"/>
  <g>
    <path class="cls-5" d="M626.48,164.5v-8.4h6.01v1.22h-4.57v2.34h3.19v1.19h-3.19v2.42h4.62v1.22h-6.06Z"/>
    <path class="cls-5" d="M633.94,164.5v-6.01h1.37v.97c.22-.34,.5-.61,.82-.79,.32-.18,.68-.28,1.07-.28,.42,0,.78,.09,1.09,.28s.56,.43,.73,.75,.26,.69,.26,1.11v3.97h-1.34v-3.58c0-.44-.12-.79-.36-1.05-.24-.26-.56-.39-.97-.39-.26,0-.51,.06-.74,.18s-.42,.3-.57,.55v4.28h-1.37Z"/>
    <path class="cls-5" d="M643.77,167.13c-.42,0-.84-.05-1.26-.15-.42-.1-.8-.24-1.15-.43l.47-1.01c.35,.18,.68,.3,.99,.38,.31,.08,.61,.12,.91,.12,.5,0,.87-.11,1.13-.34s.39-.56,.39-1v-1.03c-.21,.27-.48,.48-.8,.63s-.67,.22-1.04,.22c-.5,0-.95-.14-1.36-.41s-.74-.64-.98-1.1-.37-.97-.37-1.54,.12-1.07,.37-1.54c.25-.46,.59-.83,1.01-1.1,.43-.27,.9-.4,1.42-.4,.35,0,.68,.07,.98,.2,.3,.14,.56,.34,.78,.6v-.76h1.33v6.24c0,.77-.24,1.36-.72,1.78-.48,.42-1.18,.62-2.09,.62Zm.05-3.72c.29,0,.55-.06,.8-.17,.24-.12,.45-.28,.63-.49v-2.52c-.18-.21-.39-.37-.64-.48-.25-.11-.51-.17-.79-.17-.34,0-.65,.08-.92,.25s-.48,.39-.64,.67c-.16,.28-.24,.61-.24,.99s.08,.69,.23,.98c.16,.29,.37,.52,.64,.69,.27,.17,.58,.25,.92,.25Z"/>
    <path class="cls-5" d="M648.99,157.27c-.22,0-.42-.08-.58-.25s-.25-.36-.25-.59,.08-.42,.25-.58c.16-.16,.37-.25,.61-.25,.22,0,.42,.08,.58,.25,.16,.16,.25,.36,.25,.59s-.08,.42-.25,.58-.37,.25-.61,.25Zm-.67,7.24v-6.01h1.36v6.01h-1.36Z"/>
    <path class="cls-5" d="M651.4,164.5v-6.01h1.37v.97c.22-.34,.5-.61,.82-.79s.68-.28,1.07-.28c.42,0,.78,.09,1.09,.28s.56,.43,.73,.75c.18,.32,.26,.69,.26,1.11v3.97h-1.34v-3.58c0-.44-.12-.79-.36-1.05-.24-.26-.56-.39-.97-.39-.26,0-.51,.06-.74,.18s-.42,.3-.57,.55v4.28h-1.37Z"/>
    <path class="cls-5" d="M661.22,164.62c-.58,0-1.1-.14-1.56-.41s-.83-.65-1.1-1.12c-.27-.47-.41-1-.41-1.58s.13-1.12,.38-1.59c.26-.47,.61-.84,1.05-1.11,.44-.27,.94-.41,1.49-.41s1.03,.13,1.46,.4,.77,.64,1.02,1.1c.25,.47,.37,1,.37,1.6v.34h-4.45c.05,.32,.15,.61,.32,.86s.38,.45,.64,.59c.26,.14,.54,.21,.85,.21,.28,0,.55-.05,.8-.14,.25-.1,.47-.23,.64-.41l.88,.79c-.36,.3-.73,.53-1.12,.67-.38,.14-.8,.22-1.26,.22Zm-1.73-3.62h3.14c-.04-.3-.14-.57-.29-.79-.15-.22-.34-.4-.56-.53-.22-.13-.46-.2-.73-.2s-.51,.06-.73,.19c-.22,.13-.4,.3-.55,.52-.14,.22-.24,.49-.3,.8Z"/>
    <path class="cls-5" d="M668.11,164.62c-.58,0-1.1-.14-1.56-.41-.46-.28-.83-.65-1.1-1.12-.27-.47-.41-1-.41-1.58s.13-1.12,.38-1.59c.26-.47,.61-.84,1.05-1.11,.44-.27,.94-.41,1.49-.41s1.03,.13,1.46,.4c.43,.27,.77,.64,1.02,1.1,.25,.47,.37,1,.37,1.6v.34h-4.45c.05,.32,.15,.61,.32,.86s.38,.45,.64,.59c.26,.14,.54,.21,.85,.21,.28,0,.55-.05,.8-.14,.25-.1,.46-.23,.64-.41l.88,.79c-.36,.3-.73,.53-1.12,.67s-.8,.22-1.26,.22Zm-1.73-3.62h3.14c-.04-.3-.13-.57-.29-.79-.15-.22-.34-.4-.56-.53-.22-.13-.46-.2-.73-.2s-.51,.06-.73,.19c-.22,.13-.4,.3-.55,.52-.14,.22-.24,.49-.3,.8Z"/>
    <path class="cls-5" d="M672.17,164.5v-6.01h1.37v1.3c.18-.46,.4-.8,.68-1.04,.28-.24,.6-.36,.97-.36,.13,0,.24,.02,.32,.03,.09,.01,.18,.04,.28,.09v1.2c-.11-.06-.23-.1-.36-.12s-.26-.04-.38-.04c-.33,0-.62,.09-.88,.26-.26,.18-.47,.42-.62,.74v3.95h-1.37Z"/>
    <path class="cls-5" d="M677.63,157.27c-.22,0-.42-.08-.58-.25s-.25-.36-.25-.59,.08-.42,.25-.58c.16-.16,.37-.25,.61-.25,.22,0,.42,.08,.58,.25,.16,.16,.25,.36,.25,.59s-.08,.42-.25,.58-.37,.25-.61,.25Zm-.67,7.24v-6.01h1.36v6.01h-1.36Z"/>
    <path class="cls-5" d="M680.04,164.5v-6.01h1.37v.97c.22-.34,.5-.61,.82-.79s.68-.28,1.07-.28c.42,0,.78,.09,1.09,.28,.31,.18,.56,.43,.73,.75s.26,.69,.26,1.11v3.97h-1.34v-3.58c0-.44-.12-.79-.36-1.05-.24-.26-.56-.39-.97-.39-.26,0-.51,.06-.74,.18-.23,.12-.42,.3-.57,.55v4.28h-1.37Z"/>
    <path class="cls-5" d="M689.87,167.13c-.42,0-.84-.05-1.26-.15s-.8-.24-1.15-.43l.47-1.01c.35,.18,.68,.3,.99,.38,.31,.08,.61,.12,.91,.12,.5,0,.87-.11,1.13-.34s.39-.56,.39-1v-1.03c-.22,.27-.48,.48-.8,.63-.32,.15-.67,.22-1.04,.22-.5,0-.95-.14-1.36-.41s-.74-.64-.98-1.1c-.24-.46-.37-.97-.37-1.54s.12-1.07,.37-1.54c.25-.46,.59-.83,1.01-1.1,.43-.27,.9-.4,1.42-.4,.35,0,.68,.07,.98,.2,.3,.14,.56,.34,.78,.6v-.76h1.33v6.24c0,.77-.24,1.36-.73,1.78-.48,.42-1.18,.62-2.09,.62Zm.05-3.72c.29,0,.55-.06,.8-.17,.24-.12,.45-.28,.63-.49v-2.52c-.18-.21-.39-.37-.64-.48-.25-.11-.51-.17-.79-.17-.34,0-.65,.08-.92,.25-.27,.16-.48,.39-.64,.67-.16,.28-.24,.61-.24,.99s.08,.69,.23,.98c.16,.29,.37,.52,.64,.69,.27,.17,.58,.25,.92,.25Z"/>
    <path class="cls-5" d="M624.73,177.64c-.66,0-1.27-.11-1.85-.34-.58-.22-1.14-.56-1.67-1.02l.78-1.07c.54,.45,1.03,.76,1.46,.95,.43,.18,.88,.28,1.36,.28,.38,0,.7-.06,.98-.17,.28-.11,.5-.27,.66-.47,.16-.2,.24-.43,.24-.69,0-.34-.11-.6-.34-.78-.23-.18-.62-.32-1.18-.42l-1.55-.28c-.73-.12-1.27-.36-1.62-.73-.35-.36-.53-.83-.53-1.4,0-.51,.13-.96,.38-1.33s.61-.67,1.07-.88,1.01-.32,1.64-.32,1.23,.09,1.8,.28c.57,.18,1.09,.45,1.57,.8l-.73,1.08c-.42-.33-.86-.57-1.31-.73s-.91-.24-1.38-.24c-.34,0-.63,.05-.88,.16s-.45,.25-.59,.43-.21,.38-.21,.62c0,.3,.1,.53,.31,.7s.53,.29,.99,.36l1.5,.26c.85,.14,1.48,.39,1.88,.77,.41,.38,.61,.89,.61,1.53,0,.51-.14,.97-.43,1.37-.29,.4-.68,.71-1.19,.94-.5,.22-1.09,.34-1.76,.34Z"/>
    <path class="cls-5" d="M631.53,177.6c-.41,0-.77-.09-1.08-.28-.31-.18-.56-.44-.74-.76-.18-.32-.27-.69-.27-1.1v-3.97h1.37v3.58c0,.44,.12,.79,.35,1.05,.24,.26,.56,.39,.96,.39,.28,0,.53-.06,.74-.18,.22-.12,.4-.3,.56-.54v-4.3h1.36v6.01h-1.36v-.97c-.23,.35-.51,.62-.83,.8-.32,.18-.68,.27-1.08,.27Z"/>
    <path class="cls-5" d="M636.52,177.5v-8.57l1.37-.23v3.59c.22-.27,.48-.48,.8-.63,.32-.15,.67-.22,1.05-.22,.51,0,.97,.14,1.38,.41,.41,.28,.73,.64,.97,1.1s.36,.97,.36,1.55-.12,1.08-.37,1.54-.58,.83-1,1.1-.9,.41-1.43,.41c-.34,0-.67-.07-.98-.22-.31-.14-.57-.35-.8-.61v.77h-1.34Zm2.81-1.08c.34,0,.65-.08,.92-.25,.27-.16,.48-.39,.64-.68s.23-.62,.23-.99-.08-.7-.23-.98-.37-.52-.64-.68-.58-.25-.91-.25c-.3,0-.57,.06-.82,.17-.25,.12-.46,.28-.62,.5v2.5c.18,.22,.39,.38,.64,.5s.52,.17,.8,.17Z"/>
    <path class="cls-5" d="M645.92,177.62c-.51,0-.99-.07-1.43-.2s-.83-.34-1.15-.61l.64-.9c.39,.24,.74,.41,1.03,.52,.29,.11,.6,.16,.9,.16,.37,0,.66-.08,.88-.23,.22-.15,.33-.35,.33-.59,0-.18-.06-.33-.19-.44-.13-.11-.34-.19-.65-.25l-1.06-.18c-.58-.11-1.02-.3-1.31-.58-.29-.27-.43-.64-.43-1.09,0-.37,.1-.69,.29-.97s.47-.49,.82-.65c.36-.16,.76-.23,1.22-.23,.42,0,.82,.06,1.21,.18,.39,.12,.78,.3,1.15,.54l-.64,.9c-.3-.2-.61-.35-.91-.44-.3-.09-.6-.14-.89-.14-.32,0-.57,.06-.76,.19s-.28,.29-.28,.51c0,.19,.06,.34,.19,.44,.12,.1,.34,.17,.65,.22l1.07,.2c.61,.1,1.06,.29,1.34,.57,.29,.28,.43,.64,.43,1.1,0,.37-.11,.7-.32,1s-.5,.53-.88,.7c-.37,.17-.79,.26-1.27,.26Z"/>
    <path class="cls-5" d="M652.45,177.61c-.57,0-1.08-.14-1.54-.41-.46-.28-.82-.65-1.09-1.12-.27-.47-.4-.99-.4-1.58s.13-1.11,.4-1.58c.27-.47,.63-.84,1.09-1.12,.46-.28,.97-.41,1.54-.41,.47,0,.92,.09,1.33,.27,.42,.18,.77,.43,1.07,.75l-.85,.88c-.2-.23-.43-.41-.68-.53-.26-.12-.53-.18-.82-.18-.32,0-.61,.09-.88,.26-.26,.17-.47,.4-.62,.69-.15,.29-.23,.61-.23,.97s.08,.7,.23,.98c.15,.29,.36,.52,.62,.68,.26,.17,.56,.25,.88,.25,.29,0,.56-.06,.82-.17s.48-.29,.68-.52l.85,.88c-.3,.32-.65,.57-1.07,.74-.42,.18-.86,.26-1.33,.26Z"/>
    <path class="cls-5" d="M655.98,177.5v-6.01h1.37v1.3c.18-.46,.4-.8,.68-1.04,.28-.24,.6-.36,.97-.36,.13,0,.24,.02,.32,.03,.09,.01,.18,.04,.28,.09v1.2c-.11-.06-.23-.1-.36-.12-.13-.02-.26-.04-.38-.04-.33,0-.62,.09-.88,.26-.26,.18-.47,.42-.62,.74v3.95h-1.37Z"/>
    <path class="cls-5" d="M661.44,170.27c-.22,0-.42-.08-.58-.25s-.25-.36-.25-.59,.08-.42,.25-.58c.16-.16,.37-.25,.61-.25,.22,0,.42,.08,.58,.25,.16,.16,.25,.36,.25,.59s-.08,.42-.25,.58-.37,.25-.61,.25Zm-.67,7.24v-6.01h1.36v6.01h-1.36Z"/>
    <path class="cls-5" d="M663.85,180.01v-8.52h1.34v.85c.22-.29,.5-.51,.82-.67,.32-.16,.67-.23,1.06-.23,.51,0,.97,.14,1.38,.41,.41,.28,.73,.64,.97,1.1s.36,.97,.36,1.55-.12,1.08-.37,1.54-.58,.83-1,1.1-.9,.41-1.43,.41c-.35,0-.68-.07-.97-.2-.29-.13-.56-.32-.78-.57v3.22h-1.37Zm2.81-3.59c.34,0,.65-.08,.92-.25,.27-.16,.48-.39,.64-.68s.23-.62,.23-.99-.08-.7-.23-.98-.37-.52-.64-.68-.58-.25-.91-.25c-.3,0-.57,.06-.82,.17-.25,.12-.46,.28-.62,.5v2.5c.18,.22,.39,.38,.64,.5s.52,.17,.8,.17Z"/>
    <path class="cls-5" d="M673.55,177.62c-.61,0-1.07-.14-1.38-.43-.31-.28-.47-.71-.47-1.27v-3.37h-1.2v-1.07h1.2v-1.64l1.36-.3v1.94h1.68v1.07h-1.68v3.08c0,.3,.06,.51,.19,.63s.34,.19,.65,.19c.14,0,.26,0,.38-.03,.12-.02,.26-.06,.44-.11v1.14c-.17,.06-.36,.1-.58,.13-.21,.03-.41,.04-.59,.04Z"/>
    <path class="cls-5" d="M676.58,170.27c-.22,0-.42-.08-.58-.25s-.25-.36-.25-.59,.08-.42,.25-.58c.16-.16,.37-.25,.61-.25,.22,0,.42,.08,.58,.25,.16,.16,.25,.36,.25,.59s-.08,.42-.25,.58-.37,.25-.61,.25Zm-.67,7.24v-6.01h1.36v6.01h-1.36Z"/>
    <path class="cls-5" d="M681.68,177.61c-.58,0-1.09-.14-1.55-.41-.46-.27-.82-.64-1.08-1.12-.26-.47-.4-1-.4-1.58s.13-1.12,.4-1.59c.26-.47,.62-.84,1.08-1.11,.46-.27,.97-.41,1.55-.41s1.09,.14,1.54,.41c.45,.27,.81,.64,1.07,1.11,.26,.47,.4,.99,.4,1.58s-.13,1.12-.4,1.6c-.26,.47-.62,.84-1.07,1.12-.45,.27-.97,.41-1.54,.41Zm0-1.15c.33,0,.62-.09,.87-.26,.25-.17,.45-.41,.59-.7,.14-.3,.22-.63,.22-1s-.07-.71-.22-1c-.14-.29-.34-.52-.59-.7-.25-.17-.54-.26-.87-.26s-.62,.09-.88,.26c-.26,.17-.46,.4-.6,.7s-.22,.63-.22,1,.07,.7,.22,1,.34,.53,.6,.7c.26,.17,.55,.26,.88,.26Z"/>
    <path class="cls-5" d="M686.12,177.5v-6.01h1.37v.97c.22-.34,.5-.61,.82-.79,.32-.18,.68-.28,1.07-.28,.42,0,.78,.09,1.09,.28,.31,.18,.55,.43,.73,.75,.18,.32,.26,.69,.26,1.11v3.97h-1.34v-3.58c0-.44-.12-.79-.36-1.05-.24-.26-.56-.39-.97-.39-.26,0-.51,.06-.74,.18-.23,.12-.42,.3-.57,.55v4.28h-1.37Z"/>
    <path class="cls-5" d="M695.22,177.62c-.51,0-.99-.07-1.43-.2s-.83-.34-1.15-.61l.64-.9c.39,.24,.74,.41,1.03,.52,.29,.11,.6,.16,.9,.16,.37,0,.66-.08,.88-.23,.22-.15,.33-.35,.33-.59,0-.18-.06-.33-.19-.44-.13-.11-.34-.19-.65-.25l-1.06-.18c-.58-.11-1.02-.3-1.31-.58-.29-.27-.43-.64-.43-1.09,0-.37,.1-.69,.29-.97s.47-.49,.82-.65c.36-.16,.76-.23,1.22-.23,.42,0,.82,.06,1.21,.18,.39,.12,.78,.3,1.15,.54l-.64,.9c-.3-.2-.61-.35-.91-.44-.3-.09-.6-.14-.89-.14-.32,0-.57,.06-.76,.19s-.28,.29-.28,.51c0,.19,.06,.34,.19,.44,.12,.1,.34,.17,.65,.22l1.07,.2c.61,.1,1.06,.29,1.34,.57,.29,.28,.43,.64,.43,1.1,0,.37-.11,.7-.32,1s-.5,.53-.88,.7c-.37,.17-.79,.26-1.27,.26Z"/>
    <path class="cls-5" d="M651.27,197.17c-.62-.38-1.15-.86-1.59-1.42-.44-.56-.77-1.19-.99-1.9-.22-.7-.34-1.46-.34-2.28s.11-1.59,.34-2.3,.55-1.34,.99-1.9c.44-.56,.97-1.03,1.59-1.4l.72,.86c-.78,.5-1.38,1.15-1.79,1.96-.41,.81-.61,1.74-.61,2.78s.21,1.94,.62,2.76c.41,.82,1.01,1.47,1.78,1.96l-.72,.88Z"/>
    <path class="cls-5" d="M652.98,194.5v-.95l3.44-3.6c.2-.22,.36-.41,.48-.59,.12-.18,.21-.34,.26-.5,.05-.16,.08-.33,.08-.52,0-.35-.14-.65-.43-.88-.29-.24-.66-.35-1.1-.35-.38,0-.73,.08-1.07,.23-.34,.16-.71,.42-1.1,.8l-.73-.9c.46-.42,.93-.73,1.42-.95,.49-.22,1-.32,1.52-.32s1.03,.1,1.45,.29c.41,.2,.74,.47,.97,.81,.24,.34,.35,.74,.35,1.2,0,.27-.04,.53-.11,.77-.07,.24-.19,.49-.37,.74s-.41,.53-.71,.85l-2.68,2.77,4.02-.02v1.13h-5.69Z"/>
    <path class="cls-5" d="M663.13,194.62c-.68,0-1.28-.18-1.79-.55-.52-.36-.92-.87-1.21-1.52-.29-.65-.44-1.4-.44-2.26s.15-1.61,.44-2.26c.29-.65,.7-1.16,1.21-1.52,.52-.36,1.11-.55,1.79-.55s1.28,.18,1.79,.55c.52,.36,.92,.87,1.21,1.52,.29,.65,.44,1.41,.44,2.26s-.15,1.61-.44,2.26c-.29,.65-.7,1.15-1.21,1.52-.52,.36-1.11,.55-1.79,.55Zm0-1.16c.43,0,.81-.13,1.12-.39,.32-.26,.56-.63,.74-1.1,.18-.48,.26-1.03,.26-1.66s-.09-1.21-.26-1.68-.42-.84-.74-1.1c-.32-.26-.69-.39-1.12-.39s-.81,.13-1.13,.39c-.32,.26-.57,.63-.74,1.1s-.26,1.03-.26,1.68,.09,1.19,.26,1.66c.18,.48,.42,.84,.74,1.1,.32,.26,.7,.39,1.13,.39Z"/>
    <path class="cls-5" d="M667.73,185.97c.62,.38,1.15,.86,1.59,1.42,.44,.56,.77,1.19,.99,1.9,.22,.7,.34,1.46,.34,2.28s-.11,1.59-.34,2.3c-.22,.71-.55,1.34-.99,1.9-.44,.56-.97,1.03-1.59,1.4l-.72-.86c.78-.5,1.38-1.15,1.79-1.96,.41-.81,.61-1.74,.61-2.78s-.21-1.94-.62-2.76c-.41-.82-1.01-1.47-1.78-1.96l.72-.88Z"/>
  </g>
  <g>
    <text class="cls-29" transform="translate(670.98 418.02)"><tspan class="cls-11" x="0" y="0">2</tspan><tspan class="cls-50" x="5.53" y="0">7</tspan><tspan class="cls-15" x="11.06" y="0">8</tspan><tspan class="cls-57" x="17.64" y="0">_</tspan><tspan class="cls-25" x="22.8" y="0">S</tspan><tspan class="cls-42" x="29.21" y="0">a</tspan><tspan class="cls-27" x="34.48" y="0">t</tspan><tspan class="cls-62" x="38.14" y="0">e</tspan><tspan class="cls-60" x="43.81" y="0">ll</tspan><tspan class="cls-31" x="48.53" y="0">i</tspan><tspan class="cls-28" x="50.87" y="0">t</tspan><tspan class="cls-64" x="54.53" y="0">e</tspan><tspan class="cls-23" x="60.29" y="0">_</tspan><tspan class="cls-51" x="65.07" y="0">0</tspan><tspan class="cls-47" x="71.77" y="0">9</tspan><tspan class="cls-55" x="77.85" y="0">2</tspan><tspan class="cls-14" x="83.54" y="0">2</tspan></text>
    <rect class="cls-1" x="0" y="395" width="760" height="40"/>
  </g>
</svg>