<?xml version="1.0" encoding="UTF-8"?>
<svg id="artwork" xmlns="http://www.w3.org/2000/svg" viewBox="0 0 760 539.5">
  <defs>
    <style>
      .cls-1, .cls-2 {
        fill: none;
      }

      .cls-2 {
        stroke: #06c;
        stroke-linecap: round;
        stroke-linejoin: round;
      }

      .cls-3 {
        letter-spacing: 0em;
      }

      .cls-4 {
        letter-spacing: 0em;
      }

      .cls-5 {
        letter-spacing: 0em;
      }

      .cls-6 {
        letter-spacing: 0em;
      }

      .cls-7 {
        letter-spacing: 0em;
      }

      .cls-8 {
        letter-spacing: .01em;
      }

      .cls-9 {
        letter-spacing: -.02em;
      }

      .cls-10 {
        letter-spacing: -.02em;
      }

      .cls-11 {
        letter-spacing: -.01em;
      }

      .cls-12 {
        letter-spacing: 0em;
      }

      .cls-13 {
        letter-spacing: -.01em;
      }

      .cls-14 {
        letter-spacing: 0em;
      }

      .cls-15 {
        letter-spacing: -.01em;
      }

      .cls-16 {
        letter-spacing: 0em;
      }

      .cls-17 {
        letter-spacing: 0em;
      }

      .cls-18 {
        letter-spacing: -.01em;
      }

      .cls-19 {
        letter-spacing: -.01em;
      }

      .cls-20 {
        letter-spacing: 0em;
      }

      .cls-21 {
        letter-spacing: .04em;
      }

      .cls-22 {
        letter-spacing: .01em;
      }

      .cls-23 {
        letter-spacing: 0em;
      }

      .cls-24 {
        letter-spacing: 0em;
      }

      .cls-25 {
        letter-spacing: 0em;
      }

      .cls-26 {
        letter-spacing: .02em;
      }

      .cls-27 {
        fill: #06c;
      }

      .cls-28 {
        fill: #fff;
      }

      .cls-29 {
        fill: #e8e8e8;
      }

      .cls-30 {
        letter-spacing: -.02em;
      }

      .cls-31 {
        letter-spacing: 0em;
      }

      .cls-32 {
        letter-spacing: -.02em;
      }

      .cls-33 {
        letter-spacing: 0em;
      }

      .cls-34 {
        letter-spacing: -.02em;
      }

      .cls-35 {
        letter-spacing: -.02em;
      }

      .cls-36 {
        letter-spacing: -.01em;
      }

      .cls-37 {
        letter-spacing: -.05em;
      }

      .cls-38 {
        letter-spacing: .01em;
      }

      .cls-39 {
        letter-spacing: .02em;
      }

      .cls-40 {
        letter-spacing: .02em;
      }

      .cls-41 {
        letter-spacing: 0em;
      }

      .cls-42 {
        letter-spacing: -.01em;
      }

      .cls-43 {
        letter-spacing: -.01em;
      }

      .cls-44 {
        letter-spacing: -.02em;
      }

      .cls-45 {
        letter-spacing: -.01em;
      }

      .cls-46 {
        letter-spacing: 0em;
      }

      .cls-47 {
        letter-spacing: 0em;
      }

      .cls-48 {
        letter-spacing: .03em;
      }

      .cls-49 {
        letter-spacing: .01em;
      }

      .cls-50 {
        fill: #ececec;
        font-family: RedHatTextRoman-Regular, 'Red Hat Text';
        font-size: 10px;
        font-variation-settings: 'wght' 400;
      }

      .cls-51 {
        letter-spacing: 0em;
      }

      .cls-52 {
        letter-spacing: -.01em;
      }

      .cls-53 {
        letter-spacing: 0em;
      }

      .cls-54 {
        letter-spacing: .01em;
      }

      .cls-55 {
        font-family: RedHatTextRoman-Medium, 'Red Hat Text';
        font-size: 11px;
        font-variation-settings: 'wght' 500;
      }

      .cls-55, .cls-56 {
        fill: #151515;
      }

      .cls-57 {
        letter-spacing: 0em;
      }

      .cls-58 {
        letter-spacing: -.01em;
      }

      .cls-59 {
        letter-spacing: -.01em;
      }

      .cls-60 {
        letter-spacing: 0em;
      }

      .cls-61 {
        letter-spacing: 0em;
      }

      .cls-62 {
        letter-spacing: 0em;
      }

      .cls-63 {
        letter-spacing: .04em;
      }

      .cls-64 {
        letter-spacing: -.01em;
      }

      .cls-65 {
        letter-spacing: 0em;
      }

      .cls-66 {
        letter-spacing: -.02em;
      }

      .cls-67 {
        letter-spacing: 0em;
      }

      .cls-68 {
        letter-spacing: 0em;
      }

      .cls-69 {
        letter-spacing: 0em;
      }

      .cls-70 {
        letter-spacing: -.01em;
      }

      .cls-71 {
        letter-spacing: 0em;
      }

      .cls-72 {
        letter-spacing: 0em;
      }

      .cls-73 {
        letter-spacing: 0em;
      }

      .cls-74 {
        letter-spacing: 0em;
      }

      .cls-75 {
        letter-spacing: 0em;
      }

      .cls-76 {
        letter-spacing: 0em;
      }

      .cls-77 {
        letter-spacing: .02em;
      }

      .cls-78 {
        letter-spacing: .01em;
      }

      .cls-79 {
        letter-spacing: -.01em;
      }

      .cls-80 {
        letter-spacing: 0em;
      }

      .cls-81 {
        letter-spacing: 0em;
      }

      .cls-82 {
        letter-spacing: -.01em;
      }

      .cls-83 {
        letter-spacing: -.01em;
      }

      .cls-84 {
        letter-spacing: -.01em;
      }

      .cls-85 {
        letter-spacing: 0em;
      }

      .cls-86 {
        letter-spacing: 0em;
      }

      .cls-87 {
        letter-spacing: 0em;
      }

      .cls-88 {
        letter-spacing: 0em;
      }

      .cls-89 {
        letter-spacing: .01em;
      }

      .cls-90 {
        letter-spacing: .02em;
      }

      .cls-91 {
        letter-spacing: 0em;
      }

      .cls-92 {
        letter-spacing: -.01em;
      }

      .cls-93 {
        letter-spacing: 0em;
      }

      .cls-94 {
        letter-spacing: 0em;
      }

      .cls-95 {
        letter-spacing: 0em;
      }

      .cls-96 {
        letter-spacing: 0em;
      }

      .cls-97 {
        letter-spacing: 0em;
      }

      .cls-98 {
        letter-spacing: -.03em;
      }

      .cls-99 {
        letter-spacing: .06em;
      }

      .cls-100 {
        letter-spacing: 0em;
      }

      .cls-101 {
        letter-spacing: 0em;
      }

      .cls-102 {
        letter-spacing: -.02em;
      }

      .cls-103 {
        letter-spacing: 0em;
      }

      .cls-104 {
        letter-spacing: 0em;
      }

      .cls-105 {
        letter-spacing: -.02em;
      }

      .cls-106 {
        letter-spacing: .03em;
      }

      .cls-56 {
        font-family: RedHatTextRoman-Bold, 'Red Hat Text';
        font-size: 14px;
        font-variation-settings: 'wght' 700;
      }

      .cls-107 {
        letter-spacing: 0em;
      }

      .cls-108 {
        letter-spacing: 0em;
      }

      .cls-109 {
        letter-spacing: -.02em;
      }

      .cls-110 {
        letter-spacing: .01em;
      }

      .cls-111 {
        letter-spacing: -.03em;
      }

      .cls-112 {
        letter-spacing: 0em;
      }

      .cls-113 {
        letter-spacing: 0em;
      }

      .cls-114 {
        letter-spacing: .01em;
      }

      .cls-115 {
        letter-spacing: 0em;
      }

      .cls-116 {
        letter-spacing: -.02em;
      }

      .cls-117 {
        letter-spacing: .01em;
      }

      .cls-118 {
        letter-spacing: 0em;
      }

      .cls-119 {
        letter-spacing: 0em;
      }

      .cls-120 {
        letter-spacing: 0em;
      }

      .cls-121 {
        letter-spacing: 0em;
      }

      .cls-122 {
        letter-spacing: 0em;
      }

      .cls-123 {
        letter-spacing: 0em;
      }

      .cls-124 {
        letter-spacing: 0em;
      }

      .cls-125 {
        letter-spacing: 0em;
      }

      .cls-126 {
        letter-spacing: 0em;
      }

      .cls-127 {
        letter-spacing: .03em;
      }

      .cls-128 {
        letter-spacing: 0em;
      }

      .cls-129 {
        letter-spacing: .02em;
      }

      .cls-130 {
        letter-spacing: 0em;
      }
    </style>
  </defs>
  <g>
    <rect class="cls-29" x="0" y="20" width="143" height="479.5"/>
    <text class="cls-56" transform="translate(15 46.9)"><tspan class="cls-104" x="0" y="0">U</tspan><tspan class="cls-125" x="10.5" y="0">s</tspan><tspan class="cls-126" x="17.71" y="0">e</tspan><tspan x="25.97" y="0">r </tspan></text>
  </g>
  <g>
    <rect class="cls-29" x="154.25" y="20" width="143" height="479.5"/>
    <text class="cls-56" transform="translate(169.25 46.9)"><tspan class="cls-25" x="0" y="0">S</tspan><tspan class="cls-5" x="9.28" y="0">a</tspan><tspan class="cls-34" x="17.26" y="0">t</tspan><tspan class="cls-16" x="23.34" y="0">e</tspan><tspan class="cls-91" x="31.63" y="0">l</tspan><tspan class="cls-24" x="35.7" y="0">l</tspan><tspan class="cls-69" x="39.78" y="0">i</tspan><tspan class="cls-32" x="43.84" y="0">t</tspan><tspan class="cls-107" x="49.93" y="0">e</tspan></text>
  </g>
  <rect class="cls-29" x="308.5" y="20" width="143" height="479.5"/>
  <text class="cls-56" transform="translate(323.5 46.9)"><tspan class="cls-85" x="0" y="0">C</tspan><tspan class="cls-112" x="10.1" y="0">a</tspan><tspan class="cls-7" x="18.26" y="0">p</tspan><tspan class="cls-100" x="27.29" y="0">s</tspan><tspan class="cls-61" x="34.49" y="0">u</tspan><tspan class="cls-119" x="43.19" y="0">l</tspan><tspan x="47.26" y="0">e X</tspan></text>
  <g>
    <rect class="cls-29" x="462.75" y="20" width="143" height="479.5"/>
    <text class="cls-56" transform="translate(477.75 46.9)"><tspan class="cls-108" x="0" y="0">V</tspan><tspan x="10.5" y="0">M</tspan></text>
  </g>
  <g>
    <rect class="cls-29" x="617" y="20" width="143" height="479.5"/>
    <text class="cls-56" transform="translate(632 46.9)"><tspan class="cls-22" x="0" y="0">v</tspan><tspan class="cls-70" x="8.44" y="0">C</tspan><tspan class="cls-126" x="18.33" y="0">e</tspan><tspan class="cls-59" x="26.59" y="0">n</tspan><tspan class="cls-32" x="35.05" y="0">t</tspan><tspan class="cls-126" x="41.14" y="0">e</tspan><tspan x="49.4" y="0">r</tspan></text>
  </g>
  <rect class="cls-28" x="169.25" y="326.61" width="113" height="50"/>
  <text class="cls-55" transform="translate(179.25 348.82)"><tspan class="cls-35" x="0" y="0">R</tspan><tspan class="cls-82" x="7.14" y="0">e</tspan><tspan class="cls-19" x="13.29" y="0">d</tspan><tspan class="cls-52" x="19.89" y="0">i</tspan><tspan class="cls-98" x="22.54" y="0">r</tspan><tspan class="cls-64" x="26.52" y="0">e</tspan><tspan class="cls-124" x="32.67" y="0">c</tspan><tspan class="cls-10" x="38.52" y="0">t </tspan><tspan class="cls-84" x="45.11" y="0">U</tspan><tspan class="cls-15" x="52.98" y="0">s</tspan><tspan class="cls-105" x="58.13" y="0">e</tspan><tspan class="cls-111" x="64.26" y="0">r</tspan><tspan class="cls-66" x="68.22" y="0">d</tspan><tspan class="cls-9" x="74.75" y="0">a</tspan><tspan class="cls-58" x="80.54" y="0">t</tspan><tspan class="cls-10" x="84.95" y="0">a</tspan><tspan class="cls-30" x="0" y="12">t</tspan><tspan x="4.36" y="12">o </tspan><tspan class="cls-81" x="13.4" y="12">p</tspan><tspan class="cls-94" x="20.17" y="12">o</tspan><tspan class="cls-63" x="26.81" y="12">r</tspan><tspan x="31.53" y="12">t </tspan><tspan class="cls-106" x="38.56" y="12">4</tspan><tspan class="cls-36" x="46.04" y="12">4</tspan><tspan x="53.07" y="12">3</tspan></text>
  <g>
    <line class="cls-2" x1="161.8" y1="98.39" x2="15.5" y2="98.39"/>
    <polygon class="cls-27" points="160.34 93.41 168.98 98.39 160.34 103.38 160.34 93.41"/>
  </g>
  <text class="cls-55" transform="translate(15 79.69)"><tspan class="cls-74" x="0" y="0">P</tspan><tspan class="cls-43" x="7.42" y="0">r</tspan><tspan class="cls-6" x="11.61" y="0">o</tspan><tspan class="cls-8" x="18.08" y="0">v</tspan><tspan class="cls-41" x="24.18" y="0">i</tspan><tspan class="cls-49" x="27.05" y="0">s</tspan><tspan class="cls-65" x="32.44" y="0">i</tspan><tspan class="cls-96" x="35.25" y="0">o</tspan><tspan x="41.9" y="0">n </tspan><tspan class="cls-117" x="50.77" y="0">V</tspan><tspan x="58.59" y="0">M</tspan><tspan class="cls-46" x="0" y="12">i</tspan><tspan x="2.87" y="12">n </tspan><tspan class="cls-3" x="11.75" y="12">n</tspan><tspan class="cls-13" x="18.22" y="12">e</tspan><tspan class="cls-48" x="24.41" y="12">t</tspan><tspan class="cls-53" x="29.27" y="12">w</tspan><tspan class="cls-94" x="37.31" y="12">o</tspan><tspan class="cls-38" x="43.96" y="12">r</tspan><tspan x="48.4" y="12">k X</tspan></text>
  <g>
    <line class="cls-2" x1="624.92" y1="148.39" x2="169.75" y2="148.39"/>
    <polygon class="cls-27" points="623.46 143.41 632.1 148.39 623.46 153.38 623.46 143.41"/>
  </g>
  <text class="cls-55" transform="translate(169.25 128.45)"><tspan class="cls-86" x="0" y="0">C</tspan><tspan class="cls-18" x="7.89" y="0">r</tspan><tspan class="cls-88" x="12.09" y="0">e</tspan><tspan class="cls-67" x="18.33" y="0">a</tspan><tspan class="cls-116" x="24.34" y="0">t</tspan><tspan x="28.7" y="0">e a </tspan><tspan class="cls-117" x="46.01" y="0">V</tspan><tspan x="53.82" y="0">M </tspan><tspan class="cls-78" x="66.07" y="0">f</tspan><tspan class="cls-43" x="70.72" y="0">r</tspan><tspan class="cls-94" x="74.91" y="0">o</tspan><tspan x="81.56" y="0">m a</tspan><tspan class="cls-109" x="0" y="12">t</tspan><tspan class="cls-95" x="4.36" y="12">e</tspan><tspan class="cls-47" x="10.7" y="12">m</tspan><tspan class="cls-23" x="20.44" y="12">p</tspan><tspan class="cls-72" x="27.23" y="12">l</tspan><tspan class="cls-62" x="30.06" y="12">a</tspan><tspan class="cls-109" x="36.07" y="12">t</tspan><tspan class="cls-76" x="40.43" y="12">e </tspan><tspan class="cls-94" x="49.21" y="12">o</tspan><tspan x="55.85" y="12">n </tspan><tspan class="cls-81" x="64.73" y="12">p</tspan><tspan class="cls-94" x="71.5" y="12">o</tspan><tspan class="cls-63" x="78.14" y="12">r</tspan><tspan class="cls-93" x="82.86" y="12">t </tspan><tspan class="cls-106" x="89.89" y="12">4</tspan><tspan class="cls-36" x="97.37" y="12">4</tspan><tspan x="104.4" y="12">3</tspan></text>
  <g>
    <line class="cls-2" x1="597.43" y1="196.31" x2="744.5" y2="196.31"/>
    <polygon class="cls-27" points="598.89 201.3 590.25 196.31 598.89 191.33 598.89 201.3"/>
  </g>
  <text class="cls-55" transform="translate(694.76 177.61)"><tspan class="cls-86" x="0" y="0">C</tspan><tspan class="cls-115" x="7.89" y="0">l</tspan><tspan class="cls-94" x="10.75" y="0">o</tspan><tspan class="cls-4" x="17.4" y="0">n</tspan><tspan class="cls-76" x="23.87" y="0">e </tspan><tspan class="cls-117" x="32.65" y="0">V</tspan><tspan x="40.46" y="0">M</tspan><tspan class="cls-78" x="-24.09" y="12">f</tspan><tspan class="cls-43" x="-19.44" y="12">r</tspan><tspan class="cls-94" x="-15.25" y="12">o</tspan><tspan x="-8.6" y="12">m </tspan><tspan class="cls-109" x="3.51" y="12">t</tspan><tspan class="cls-97" x="7.87" y="12">e</tspan><tspan class="cls-41" x="14.21" y="12">m</tspan><tspan class="cls-14" x="23.94" y="12">p</tspan><tspan class="cls-72" x="30.74" y="12">l</tspan><tspan class="cls-67" x="33.56" y="12">a</tspan><tspan class="cls-109" x="39.57" y="12">t</tspan><tspan x="43.93" y="12">e</tspan></text>
  <g>
    <line class="cls-2" x1="289.43" y1="305.21" x2="436" y2="305.21"/>
    <polygon class="cls-27" points="290.89 310.2 282.25 305.21 290.89 300.23 290.89 310.2"/>
  </g>
  <text class="cls-55" transform="translate(343.76 286.51)"><tspan class="cls-37" x="0" y="0">F</tspan><tspan class="cls-94" x="6.38" y="0">o</tspan><tspan class="cls-127" x="13.02" y="0">r</tspan><tspan class="cls-33" x="17.71" y="0">w</tspan><tspan class="cls-75" x="25.8" y="0">a</tspan><tspan class="cls-92" x="31.95" y="0">r</tspan><tspan x="36.13" y="0">d </tspan><tspan class="cls-68" x="45.32" y="0">U</tspan><tspan class="cls-120" x="53.41" y="0">s</tspan><tspan class="cls-95" x="58.78" y="0">e</tspan><tspan class="cls-83" x="65.12" y="0">r</tspan><tspan class="cls-31" x="69.31" y="0">d</tspan><tspan class="cls-62" x="76.06" y="0">a</tspan><tspan class="cls-4" x="82.07" y="0">t</tspan><tspan x="86.69" y="0">a</tspan><tspan class="cls-94" x="37.73" y="12">o</tspan><tspan x="44.37" y="12">n </tspan><tspan class="cls-81" x="53.25" y="12">p</tspan><tspan class="cls-94" x="60.02" y="12">o</tspan><tspan class="cls-63" x="66.67" y="12">r</tspan><tspan class="cls-93" x="71.38" y="12">t </tspan><tspan class="cls-60" x="78.41" y="12">8</tspan><tspan x="85.33" y="12">0</tspan></text>
  <g>
    <line class="cls-2" x1="590.25" y1="256.71" x2="443.3" y2="256.71"/>
    <polygon class="cls-27" points="444.76 251.73 436.13 256.71 444.76 261.7 444.76 251.73"/>
  </g>
  <text class="cls-55" transform="translate(530.69 226.09)"><tspan x="0" y="0">Call </tspan><tspan class="cls-80" x="22.02" y="0">b</tspan><tspan x="28.8" y="0">ack </tspan><tspan class="cls-73" x="49.03" y="0">t</tspan><tspan x="53.49" y="0">o</tspan><tspan class="cls-77" x="-16.16" y="12">S</tspan><tspan class="cls-102" x="-8.99" y="12">a</tspan><tspan class="cls-93" x="-3.1" y="12">t port </tspan><tspan class="cls-20" x="28.57" y="12">8</tspan><tspan x="35.39" y="12">0 via</tspan><tspan x="-23.12" y="24">Capsule X </tspan><tspan class="cls-118" x="31" y="24">8</tspan><tspan class="cls-76" x="37.82" y="24">000</tspan></text>
  <g>
    <line class="cls-2" x1="289.43" y1="473.71" x2="436" y2="473.71"/>
    <polygon class="cls-27" points="290.89 478.7 282.25 473.71 290.89 468.73 290.89 478.7"/>
  </g>
  <text class="cls-55" transform="translate(373.59 443.01)"><tspan class="cls-37" x="0" y="0">F</tspan><tspan class="cls-94" x="6.38" y="0">o</tspan><tspan class="cls-127" x="13.02" y="0">r</tspan><tspan class="cls-33" x="17.71" y="0">w</tspan><tspan class="cls-75" x="25.8" y="0">a</tspan><tspan class="cls-92" x="31.95" y="0">r</tspan><tspan x="36.13" y="0">d </tspan><tspan class="cls-117" x="45.32" y="0">V</tspan><tspan x="53.13" y="0">M</tspan><tspan class="cls-18" x="1.68" y="12">r</tspan><tspan class="cls-51" x="5.88" y="12">e</tspan><tspan class="cls-121" x="12.25" y="12">g</tspan><tspan class="cls-41" x="19.05" y="12">i</tspan><tspan class="cls-26" x="21.92" y="12">s</tspan><tspan class="cls-81" x="27.44" y="12">t</tspan><tspan class="cls-3" x="32.04" y="12">r</tspan><tspan class="cls-62" x="36.44" y="12">a</tspan><tspan class="cls-81" x="42.45" y="12">t</tspan><tspan class="cls-101" x="47.05" y="12">i</tspan><tspan class="cls-94" x="49.86" y="12">o</tspan><tspan x="56.51" y="12">n</tspan><tspan class="cls-30" x="6.39" y="24">t</tspan><tspan x="10.74" y="24">o </tspan><tspan class="cls-110" x="19.79" y="24">S</tspan><tspan class="cls-67" x="26.94" y="24">a</tspan><tspan class="cls-109" x="32.95" y="24">t</tspan><tspan class="cls-130" x="37.31" y="24">e</tspan><tspan class="cls-128" x="43.66" y="24">ll</tspan><tspan class="cls-103" x="49.39" y="24">i</tspan><tspan class="cls-109" x="52.24" y="24">t</tspan><tspan x="56.61" y="24">e</tspan></text>
  <g>
    <line class="cls-2" x1="590.25" y1="413.21" x2="442.75" y2="413.21"/>
    <polygon class="cls-27" points="444.21 408.23 435.58 413.21 444.21 418.2 444.21 408.23"/>
  </g>
  <text class="cls-55" transform="translate(518.76 394.59)"><tspan class="cls-44" x="0" y="0">R</tspan><tspan class="cls-113" x="7.12" y="0">e</tspan><tspan class="cls-93" x="13.44" y="0">gi</tspan><tspan class="cls-11" x="22.91" y="0">s</tspan><tspan class="cls-73" x="28.07" y="0">t</tspan><tspan x="32.54" y="0">er i</tspan><tspan class="cls-57" x="48.41" y="0">t</tspan><tspan class="cls-123" x="53.07" y="0">s</tspan><tspan class="cls-93" x="58.4" y="0">elf</tspan><tspan class="cls-73" x="15.58" y="12">t</tspan><tspan x="20.04" y="12">o </tspan><tspan class="cls-77" x="29.08" y="12">S</tspan><tspan class="cls-102" x="36.26" y="12">a</tspan><tspan class="cls-73" x="42.14" y="12">t</tspan><tspan class="cls-93" x="46.61" y="12">elli</tspan><tspan class="cls-73" x="61.23" y="12">t</tspan><tspan class="cls-76" x="65.69" y="12">e</tspan></text>
  <g>
    <text class="cls-50" transform="translate(670.98 522.52)"><tspan class="cls-12" x="0" y="0">2</tspan><tspan class="cls-87" x="5.53" y="0">7</tspan><tspan class="cls-21" x="11.06" y="0">8</tspan><tspan class="cls-99" x="17.64" y="0">_</tspan><tspan class="cls-40" x="22.8" y="0">S</tspan><tspan class="cls-71" x="29.21" y="0">a</tspan><tspan class="cls-42" x="34.48" y="0">t</tspan><tspan class="cls-122" x="38.14" y="0">e</tspan><tspan class="cls-114" x="43.81" y="0">ll</tspan><tspan class="cls-54" x="48.53" y="0">i</tspan><tspan class="cls-45" x="50.87" y="0">t</tspan><tspan class="cls-129" x="54.53" y="0">e</tspan><tspan class="cls-39" x="60.29" y="0">_</tspan><tspan class="cls-89" x="65.07" y="0">0</tspan><tspan class="cls-79" x="71.77" y="0">9</tspan><tspan class="cls-90" x="77.85" y="0">2</tspan><tspan class="cls-17" x="83.54" y="0">2</tspan></text>
    <rect class="cls-1" x="0" y="499.5" width="760" height="40"/>
  </g>
</svg>