<svg id="e8e8a71e-2699-4c2d-860b-d37448e33e59" data-name="Layer 1" xmlns="http://www.w3.org/2000/svg" width="760" height="368.887"><defs><style>.a0dd8191-8177-488d-9bdb-3fabb6845ee5,.befffb8d-370d-40bb-9453-58de68509f88,.ecc6d810-1f80-4eef-9ca1-db5b829355c0{fill:none}.a0dd8191-8177-488d-9bdb-3fabb6845ee5{stroke:#e8e8e8}.a0dd8191-8177-488d-9bdb-3fabb6845ee5,.ecc6d810-1f80-4eef-9ca1-db5b829355c0{stroke-miterlimit:10;stroke-width:1.5px}.b786514d-867a-46a8-b197-4c38862fd4d4{fill:#fff}.f0d5b6b4-cef9-404f-81aa-313d367068a6{fill:#06c}.b8a95e22-ef7e-42c5-aafd-9129209c8075{font-size:11px;font-family:RedHatText,&quot;Red Hat Text&quot;,Overpass,&quot;Helvetica Neue&quot;,Arial,sans-serif;font-weight:500}.a97da51c-a7cc-4988-8b7f-37773d072950{letter-spacing:-.015em}.afb54dd2-103b-4f16-be73-1ecdcbd95523{letter-spacing:.01em}.e4806954-171d-4e6f-abea-b8807046cc21{fill:#e8e8e8}.ad56e58e-ac20-4270-9029-259868f936e9,.b27b8dc5-f825-46ee-acee-30ec76a4e250,.b8a95e22-ef7e-42c5-aafd-9129209c8075{fill:#151515}.ab455942-0363-4cea-9153-b1f93c064852{letter-spacing:.004em}.a557c2f9-e34b-47ca-aea7-64d8431b90ab{letter-spacing:-.024em}.b1bce5c9-8e08-40c4-bedb-d6b5d9146101{letter-spacing:-.015em}.a78fd8f4-8702-44e5-826e-c87178fd6457{letter-spacing:.003em}.befffb8d-370d-40bb-9453-58de68509f88{stroke:#151515;stroke-linecap:round;stroke-linejoin:round}.b27b8dc5-f825-46ee-acee-30ec76a4e250{font-size:10px;font-family:RedHatText,&quot;Red Hat Text&quot;,Overpass,&quot;Helvetica Neue&quot;,Arial,sans-serif}.ecc6d810-1f80-4eef-9ca1-db5b829355c0{stroke:#d5d5d5}</style></defs><path class="a0dd8191-8177-488d-9bdb-3fabb6845ee5" d="M10.467 156.516h119v-65"/><path class="a0dd8191-8177-488d-9bdb-3fabb6845ee5" d="M5.467 151.516h119v-65"/><path class="b786514d-867a-46a8-b197-4c38862fd4d4" d="M.967 82.016h118v64h-118z"/><path class="f0d5b6b4-cef9-404f-81aa-313d367068a6" d="M118.467 82.516v63h-117v-63h117m1-1h-119v65h119v-65z"/><text transform="translate(23.822 117.063)" font-size="11" font-family="RedHatText,&quot;Red Hat Text&quot;,Overpass,&quot;Helvetica Neue&quot;,Arial,sans-serif" font-weight="500" fill="#06c">AMQP Clie<tspan class="a97da51c-a7cc-4988-8b7f-37773d072950" x="56.121" y="0">n</tspan><tspan class="afb54dd2-103b-4f16-be73-1ecdcbd95523" x="62.358" y="0">t</tspan><tspan x="67.022" y="0">s</tspan></text><path class="e4806954-171d-4e6f-abea-b8807046cc21" d="M150 19.261h610v309.5H150z"/><text transform="translate(180 60.417)" font-family="RedHatText,&quot;Red Hat Text&quot;,Overpass,&quot;Helvetica Neue&quot;,Arial,sans-serif" font-weight="700" fill="#151515" font-size="16"><tspan letter-spacing=".011em">O</tspan><tspan x="13.186" y="0" letter-spacing="-.001em">p</tspan><tspan class="ab455942-0363-4cea-9153-b1f93c064852" x="23.467" y="0">e</tspan><tspan x="33.01" y="0" letter-spacing=".011em">nS</tspan><tspan x="53.723" y="0" letter-spacing=".006em">h</tspan><tspan x="63.71" y="0" letter-spacing="-.008em">i</tspan><tspan x="68.198" y="0" letter-spacing=".008em">f</tspan><tspan x="75.688" y="0">t </tspan><tspan x="86.457" y="0" letter-spacing="-.002em">C</tspan><tspan x="97.951" y="0" letter-spacing=".007em">l</tspan><tspan x="102.666" y="0" letter-spacing=".011em">u</tspan><tspan x="112.734" y="0" letter-spacing="-.003em">s</tspan><tspan x="120.856" y="0" letter-spacing=".002em">t</tspan><tspan class="ab455942-0363-4cea-9153-b1f93c064852" x="128.216" y="0">e</tspan><tspan x="137.759" y="0" letter-spacing="0">r</tspan></text><path class="b786514d-867a-46a8-b197-4c38862fd4d4" d="M375 79.261h355v219.5H375z"/><text transform="translate(395 109.437)" font-size="14" font-family="RedHatText,&quot;Red Hat Text&quot;,Overpass,&quot;Helvetica Neue&quot;,Arial,sans-serif" font-weight="700" fill="#151515"><tspan letter-spacing=".004em">A</tspan><tspan x="10.446" y="0" letter-spacing=".006em">M</tspan><tspan x="23.477" y="0">Q </tspan><tspan x="37.868" y="0" letter-spacing=".012em">O</tspan><tspan x="49.414" y="0" letter-spacing=".008em">n</tspan><tspan x="58.184" y="0" letter-spacing=".006em">l</tspan><tspan x="62.301" y="0" letter-spacing=".007em">i</tspan><tspan x="66.425" y="0" letter-spacing=".003em">n</tspan><tspan x="75.112" y="0" letter-spacing="0">e</tspan></text><path class="e4806954-171d-4e6f-abea-b8807046cc21" d="M395 128.761h120v60H395z"/><path class="a0dd8191-8177-488d-9bdb-3fabb6845ee5" d="M585.593 198.536h119v-60"/><path class="a0dd8191-8177-488d-9bdb-3fabb6845ee5" d="M580.593 193.536h119v-60"/><path class="e4806954-171d-4e6f-abea-b8807046cc21" d="M574.593 127.537h121v62h-121z"/><path class="b786514d-867a-46a8-b197-4c38862fd4d4" d="M694.593 128.536v60h-119v-60h119m2-2h-123v64h123v-64z"/><text class="b8a95e22-ef7e-42c5-aafd-9129209c8075" transform="translate(441.812 149.856)">AMQ<tspan x="-19.734" y="12">I</tspan><tspan class="a97da51c-a7cc-4988-8b7f-37773d072950" x="-16.688" y="12">n</tspan><tspan x="-10.45" y="12" letter-spacing="-.007em">t</tspan><tspan x="-5.974" y="12">e</tspan><tspan class="a557c2f9-e34b-47ca-aea7-64d8431b90ab" x=".329" y="12">r</tspan><tspan class="b1bce5c9-8e08-40c4-bedb-d6b5d9146101" x="4.389" y="12">c</tspan><tspan x="9.977" y="12">onn</tspan><tspan class="a78fd8f4-8702-44e5-826e-c87178fd6457" x="29.358" y="12">e</tspan><tspan class="afb54dd2-103b-4f16-be73-1ecdcbd95523" x="35.693" y="12">c</tspan><tspan x="41.557" y="12">t</tspan><tspan x="-8.822" y="24">N</tspan><tspan class="b1bce5c9-8e08-40c4-bedb-d6b5d9146101" x="-.451" y="24">e</tspan><tspan class="afb54dd2-103b-4f16-be73-1ecdcbd95523" x="5.687" y="24">t</tspan><tspan x="10.351" y="24" letter-spacing="-.01em">w</tspan><tspan x="18.348" y="24">ork</tspan></text><path class="e4806954-171d-4e6f-abea-b8807046cc21" d="M395 238.761h315.5v40H395z"/><text class="b8a95e22-ef7e-42c5-aafd-9129209c8075" transform="translate(511.896 263.156)"><tspan class="b1bce5c9-8e08-40c4-bedb-d6b5d9146101">C</tspan><tspan x="7.788" y="0">o</tspan><tspan class="b1bce5c9-8e08-40c4-bedb-d6b5d9146101" x="14.366" y="0">n</tspan><tspan x="20.603" y="0">t</tspan><tspan class="a557c2f9-e34b-47ca-aea7-64d8431b90ab" x="25.156" y="0">r</tspan><tspan x="29.216" y="0">ol P</tspan><tspan class="a557c2f9-e34b-47ca-aea7-64d8431b90ab" x="48.509" y="0">r</tspan><tspan class="a78fd8f4-8702-44e5-826e-c87178fd6457" x="52.568" y="0">o</tspan><tspan class="b1bce5c9-8e08-40c4-bedb-d6b5d9146101" x="59.179" y="0">c</tspan><tspan x="64.767" y="0" letter-spacing=".005em">e</tspan><tspan x="71.125" y="0" letter-spacing=".004em">s</tspan><tspan x="76.438" y="0" letter-spacing="0">s</tspan></text><text class="b8a95e22-ef7e-42c5-aafd-9129209c8075" transform="translate(596.226 162.857)">AMQ 7 B<tspan x="45.419" y="0" letter-spacing="-.024em">r</tspan><tspan x="49.478" y="0">o</tspan><tspan x="56.056" y="0" letter-spacing="-.033em">k</tspan><tspan x="61.644" y="0">e</tspan><tspan x="67.946" y="0" letter-spacing=".001em">r</tspan><tspan x="72.28" y="0">s</tspan></text><path class="befffb8d-370d-40bb-9453-58de68509f88" d="M524.676 158.313h40.648"/><path class="ad56e58e-ac20-4270-9029-259868f936e9" d="M526.135 163.299l-8.635-4.986 8.635-4.987v9.973zM563.865 163.299l8.635-4.986-8.635-4.987v9.973z"/><text class="b27b8dc5-f825-46ee-acee-30ec76a4e250" transform="translate(530.08 150.473)">AMQP</text><path class="befffb8d-370d-40bb-9453-58de68509f88" d="M455 229.084v-30.647"/><path class="ad56e58e-ac20-4270-9029-259868f936e9" d="M459.986 227.625L455 236.261l-4.986-8.636h9.972zM459.986 199.896L455 191.261l-4.986 8.635h9.972z"/><text class="b27b8dc5-f825-46ee-acee-30ec76a4e250" transform="translate(460.014 216.12)">AMQP</text><g><path class="befffb8d-370d-40bb-9453-58de68509f88" d="M635 229.084v-30.647"/><path class="ad56e58e-ac20-4270-9029-259868f936e9" d="M639.987 227.625L635 236.261l-4.986-8.636h9.973zM639.987 199.896L635 191.261l-4.986 8.635h9.973z"/></g><text class="b27b8dc5-f825-46ee-acee-30ec76a4e250" transform="translate(640.014 221.427)">AMQP</text><g><path class="ecc6d810-1f80-4eef-9ca1-db5b829355c0" d="M190.268 198.604h119v-60"/><path class="ecc6d810-1f80-4eef-9ca1-db5b829355c0" d="M185.268 193.604h119v-60"/><path class="f0d5b6b4-cef9-404f-81aa-313d367068a6" d="M180.268 128.604h119v60h-119z"/></g><text transform="translate(203.854 162.857)" font-size="11" font-family="RedHatText,&quot;Red Hat Text&quot;,Overpass,&quot;Helvetica Neue&quot;,Arial,sans-serif" font-weight="500" fill="#fff">AMQP Clie<tspan class="a97da51c-a7cc-4988-8b7f-37773d072950" x="56.121" y="0">n</tspan><tspan class="afb54dd2-103b-4f16-be73-1ecdcbd95523" x="62.358" y="0">t</tspan><tspan x="67.022" y="0">s</tspan></text><text class="b27b8dc5-f825-46ee-acee-30ec76a4e250" transform="translate(225.08 105.92)">AMQP</text><g><path class="befffb8d-370d-40bb-9453-58de68509f88" d="M385.324 151.261H345v-37.5H129.676"/><path class="ad56e58e-ac20-4270-9029-259868f936e9" d="M383.865 146.274l8.635 4.987-8.635 4.986v-9.973zM131.135 108.774l-8.635 4.987 8.635 4.986v-9.973z"/></g><g><path class="befffb8d-370d-40bb-9453-58de68509f88" d="M309.176 166.261h76.148"/><path class="ad56e58e-ac20-4270-9029-259868f936e9" d="M310.635 171.247L302 166.261l8.635-4.987v9.973zM383.865 171.247l8.635-4.986-8.635-4.987v9.973z"/><text class="b27b8dc5-f825-46ee-acee-30ec76a4e250" transform="translate(332.33 180.921)">AMQP</text></g><g><text transform="translate(690.671 351.778)" font-size="10" font-family="RedHatText,&quot;Red Hat Text&quot;,Overpass,&quot;Helvetica Neue&quot;,Arial,sans-serif" fill="#e8e8e8">119_AMQ_<tspan x="44.77" y="0" letter-spacing="-.008em">0</tspan><tspan x="51.289" y="0" letter-spacing="-.023em">9</tspan><tspan x="57.249" y="0">20</tspan></text><path fill="none" d="M0 328.761h760v40H0z"/></g></svg>