<svg id="e7e29ab3-8e1b-408d-929a-53b6d9147d3f" data-name="artwork" xmlns="http://www.w3.org/2000/svg" width="760" height="269"><defs><style>.e851f412-aaf5-41de-ae02-9ebfb0361c6d{font-family:RedHatText,&quot;Red Hat Text&quot;,Overpass,&quot;Helvetica Neue&quot;,Arial,sans-serif}.be930b43-8ea1-4059-bf50-76d4aabf8142{fill:#e8e8e8}.a2d9be55-ec19-44ef-9b6f-ee7b351de65d{fill:#151515}.e851f412-aaf5-41de-ae02-9ebfb0361c6d{font-weight:400}.f03cf86f-07b7-41f3-9bac-38eefb90e5fc{fill:#fff}.a2d9be55-ec19-44ef-9b6f-ee7b351de65d,.ed9a16e4-0b2d-4db5-b84f-bc73f9eee72b{font-size:12px;font-family:RedHatText,&quot;Red Hat Text&quot;,Overpass,&quot;Helvetica Neue&quot;,Arial,sans-serif;font-weight:500}.ed9a16e4-0b2d-4db5-b84f-bc73f9eee72b{fill:#b9b9b9}</style></defs><text transform="translate(628.182 252.017)" font-family="RedHatText,&quot;Red Hat Text&quot;,Overpass,&quot;Helvetica Neue&quot;,Arial,sans-serif" font-size="10" fill="#f3f3f3">96_RHEL_0720</text><path fill="none" d="M0 229h700v40H0z"/><path class="be930b43-8ea1-4059-bf50-76d4aabf8142" d="M0 20.5h700V229H0z"/><text transform="translate(25 58.972)" fill="#151515" font-size="16" font-family="RedHatText,&quot;Red Hat Text&quot;,Overpass,&quot;Helvetica Neue&quot;,Arial,sans-serif" font-weight="700">Disk <tspan x="38.048" y="0" letter-spacing="0" font-weight="400">(MBR table)</tspan></text><path class="f03cf86f-07b7-41f3-9bac-38eefb90e5fc" d="M25 83.824h160v120H25z"/><text class="a2d9be55-ec19-44ef-9b6f-ee7b351de65d" transform="translate(57.175 112.148)">Primary partition<tspan class="e851f412-aaf5-41de-ae02-9ebfb0361c6d"><tspan x="30.048" y="15">(DOS)</tspan></tspan></text><path fill="#d9e8f7" d="M35 144h140v50H35z"/><text class="a2d9be55-ec19-44ef-9b6f-ee7b351de65d" transform="translate(73.236 164.824)">File system<tspan class="e851f412-aaf5-41de-ae02-9ebfb0361c6d"><tspan x="8.826" y="15">(FAT32)</tspan></tspan></text><path class="f03cf86f-07b7-41f3-9bac-38eefb90e5fc" d="M195 83.824h160v120H195z"/><text class="a2d9be55-ec19-44ef-9b6f-ee7b351de65d" transform="translate(227.925 112.148)">Unused partition</text><path class="be930b43-8ea1-4059-bf50-76d4aabf8142" d="M344 145v48H206v-48h138m1-1H205v50h140v-50z"/><text class="ed9a16e4-0b2d-4db5-b84f-bc73f9eee72b" transform="translate(243.236 164.824)">File system<tspan class="e851f412-aaf5-41de-ae02-9ebfb0361c6d"><tspan x="6.51" y="15">(Unused)</tspan></tspan></text><path class="f03cf86f-07b7-41f3-9bac-38eefb90e5fc" d="M365 82.824h150v120H365z"/><text class="a2d9be55-ec19-44ef-9b6f-ee7b351de65d" transform="translate(392.925 111.148)">Unused partition</text><path class="be930b43-8ea1-4059-bf50-76d4aabf8142" d="M504 144v48H376v-48h128m1-1H375v50h130v-50z"/><text class="ed9a16e4-0b2d-4db5-b84f-bc73f9eee72b" transform="translate(408.236 163.824)">File system<tspan class="e851f412-aaf5-41de-ae02-9ebfb0361c6d"><tspan x="6.51" y="15">(Unused)</tspan></tspan></text><path class="f03cf86f-07b7-41f3-9bac-38eefb90e5fc" d="M525 82.824h150v120H525z"/><text class="a2d9be55-ec19-44ef-9b6f-ee7b351de65d" transform="translate(552.925 111.148)">Unused partition</text><path class="be930b43-8ea1-4059-bf50-76d4aabf8142" d="M664 144v48H536v-48h128m1-1H535v50h130v-50z"/><text class="ed9a16e4-0b2d-4db5-b84f-bc73f9eee72b" transform="translate(568.236 163.824)">File system<tspan class="e851f412-aaf5-41de-ae02-9ebfb0361c6d"><tspan x="6.51" y="15">(Unused)</tspan></tspan></text></svg>