<svg id="aceb52cb-a821-4207-a9cc-0c6a027632b9" data-name="artwork" xmlns="http://www.w3.org/2000/svg" width="760" height="328"><defs><style>.a9ef6b1a-693a-4998-9ed2-21a0a293dc20,.ee2c0417-10b1-4590-af10-cb99678677ae{font-family:RedHatText,&quot;Red Hat Text&quot;,Overpass,&quot;Helvetica Neue&quot;,Arial,sans-serif}.b2691aed-1546-4239-baf4-fb324c9b8ddd{fill:#e8e8e8}.a5732f23-d151-462d-8833-d484d24a8438{font-size:16px;font-family:RedHatText,&quot;Red Hat Text&quot;,Overpass,&quot;Helvetica Neue&quot;,Arial,sans-serif;font-weight:700}.a527c277-e239-4818-83f3-0a167b4ecb92,.a5732f23-d151-462d-8833-d484d24a8438{fill:#151515}.a9ef6b1a-693a-4998-9ed2-21a0a293dc20,.ee2c0417-10b1-4590-af10-cb99678677ae{font-weight:400}.ee2c0417-10b1-4590-af10-cb99678677ae{letter-spacing:0}.a718cd64-ed51-4608-b61c-671a9038bc03{fill:#fff}.a527c277-e239-4818-83f3-0a167b4ecb92,.ac7c5c7d-6a74-4846-8956-a6852c177c9a{font-size:12px;font-family:RedHatText,&quot;Red Hat Text&quot;,Overpass,&quot;Helvetica Neue&quot;,Arial,sans-serif;font-weight:500}.a3e67980-969d-49bb-8d9a-aad33a89eda8{fill:#d9e8f7}.ac7c5c7d-6a74-4846-8956-a6852c177c9a{fill:#adadad}</style></defs><text transform="translate(688.182 311.017)" font-family="RedHatText,&quot;Red Hat Text&quot;,Overpass,&quot;Helvetica Neue&quot;,Arial,sans-serif" font-size="10" fill="#f3f3f3">96_RHEL_0720</text><path fill="none" d="M0 288h760v40H0z"/><path class="b2691aed-1546-4239-baf4-fb324c9b8ddd" d="M0 19.5h360V288H0z"/><text class="a5732f23-d151-462d-8833-d484d24a8438" transform="translate(25 57.972)">Disk <tspan class="ee2c0417-10b1-4590-af10-cb99678677ae" x="38.048" y="0">(before)</tspan></text><path class="a718cd64-ed51-4608-b61c-671a9038bc03" d="M25 82.824h150v120H25z"/><text class="a527c277-e239-4818-83f3-0a167b4ecb92" transform="translate(52.175 111.148)">Primary partition<tspan class="a9ef6b1a-693a-4998-9ed2-21a0a293dc20"><tspan x="30.048" y="15">(DOS)</tspan></tspan></text><path class="a3e67980-969d-49bb-8d9a-aad33a89eda8" d="M35 143h130v50H35z"/><text class="a527c277-e239-4818-83f3-0a167b4ecb92" transform="translate(68.236 163.824)">File system<tspan class="a9ef6b1a-693a-4998-9ed2-21a0a293dc20"><tspan x="-7.17" y="15">(Compressed)</tspan></tspan></text><path class="a718cd64-ed51-4608-b61c-671a9038bc03" d="M185 82.824h150v120H185z"/><text class="a527c277-e239-4818-83f3-0a167b4ecb92" transform="translate(212.175 111.148)">Primary partition<tspan class="a9ef6b1a-693a-4998-9ed2-21a0a293dc20"><tspan x="30.048" y="15">(DOS)</tspan></tspan></text><path class="b2691aed-1546-4239-baf4-fb324c9b8ddd" d="M324 144v48H196v-48h128m1-1H195v50h130v-50z"/><text transform="translate(228.236 163.824)" fill="#b9b9b9" font-size="12" font-family="RedHatText,&quot;Red Hat Text&quot;,Overpass,&quot;Helvetica Neue&quot;,Arial,sans-serif" font-weight="500">File system<tspan class="a9ef6b1a-693a-4998-9ed2-21a0a293dc20"><tspan x="6.51" y="15">(Unused)</tspan></tspan></text><path class="a718cd64-ed51-4608-b61c-671a9038bc03" d="M334 213.824v48H26v-48h308m1-1H25v50h310v-50z"/><text class="ac7c5c7d-6a74-4846-8956-a6852c177c9a" transform="translate(149.196 241.148)">Free space</text><path class="b2691aed-1546-4239-baf4-fb324c9b8ddd" d="M400 19.5h360V288H400z"/><text class="a5732f23-d151-462d-8833-d484d24a8438" transform="translate(425 57.972)">Disk <tspan class="ee2c0417-10b1-4590-af10-cb99678677ae" x="38.048" y="0">(after)</tspan></text><path class="a718cd64-ed51-4608-b61c-671a9038bc03" d="M425 82.824h150v120H425z"/><text class="a527c277-e239-4818-83f3-0a167b4ecb92" transform="translate(452.175 111.148)">Primary partition<tspan class="a9ef6b1a-693a-4998-9ed2-21a0a293dc20"><tspan x="30.048" y="15">(DOS)</tspan></tspan></text><path class="a3e67980-969d-49bb-8d9a-aad33a89eda8" d="M435 143h130v50H435z"/><text class="a527c277-e239-4818-83f3-0a167b4ecb92" transform="translate(468.236 163.824)">File system<tspan class="a9ef6b1a-693a-4998-9ed2-21a0a293dc20"><tspan x="-7.17" y="15">(Compressed)</tspan></tspan></text><path class="a718cd64-ed51-4608-b61c-671a9038bc03" d="M585 82.824h150v120H585z"/><text class="a527c277-e239-4818-83f3-0a167b4ecb92" transform="translate(612.175 111.148)">Primary partition<tspan class="a9ef6b1a-693a-4998-9ed2-21a0a293dc20"><tspan x="10.668" y="15">(Linux native)</tspan></tspan></text><path class="a3e67980-969d-49bb-8d9a-aad33a89eda8" d="M595 143h130v50H595z"/><text class="a527c277-e239-4818-83f3-0a167b4ecb92" transform="translate(628.236 163.824)">File system<tspan class="a9ef6b1a-693a-4998-9ed2-21a0a293dc20"><tspan x="15.63" y="15">(XFS)</tspan></tspan></text><path class="a718cd64-ed51-4608-b61c-671a9038bc03" d="M734 213.824v48H426v-48h308m1-1H425v50h310v-50z"/><text class="ac7c5c7d-6a74-4846-8956-a6852c177c9a" transform="translate(549.196 241.148)">Free space</text></svg>