<svg id="f3caf0ec-b204-446b-9728-fa1710dd7085" data-name="artwork" xmlns="http://www.w3.org/2000/svg" width="760" height="518.861" viewBox="0 0 760 518.861">
  <defs>
    <style>
      .a75999f2-4e6f-4f79-b7ff-0f2ee66d79aa, .a8e35bd0-112c-4cf5-bd07-fbbf657ef37d, .a95d3e26-2c72-491d-a3ba-fb3e6e940d37, .b0b2c993-b00c-4c24-9cb2-de72f975776b, .b72c13da-0527-4186-a24e-dab972cf13f3, .bf1bc179-41f0-4b57-8fc8-0f4a154fabcc, .e878aed8-08e5-4f61-9915-03b72aea69e0, .ec473f95-a2a9-4c78-bfb9-a6e2e955ab34, .f47885c9-c600-496d-bc70-adeedba0679b {
        fill: none;
      }

      .a8e35bd0-112c-4cf5-bd07-fbbf657ef37d, .b0b2c993-b00c-4c24-9cb2-de72f975776b, .bf1bc179-41f0-4b57-8fc8-0f4a154fabcc, .e878aed8-08e5-4f61-9915-03b72aea69e0, .ec473f95-a2a9-4c78-bfb9-a6e2e955ab34, .f47885c9-c600-496d-bc70-adeedba0679b {
        stroke: #151515;
      }

      .a75999f2-4e6f-4f79-b7ff-0f2ee66d79aa, .a8e35bd0-112c-4cf5-bd07-fbbf657ef37d, .b0b2c993-b00c-4c24-9cb2-de72f975776b, .b72c13da-0527-4186-a24e-dab972cf13f3, .bf1bc179-41f0-4b57-8fc8-0f4a154fabcc, .e878aed8-08e5-4f61-9915-03b72aea69e0, .ec473f95-a2a9-4c78-bfb9-a6e2e955ab34, .f47885c9-c600-496d-bc70-adeedba0679b {
        stroke-linecap: round;
        stroke-linejoin: round;
      }

      .aa034079-9784-468a-b05f-a57d7cecc486 {
        fill: #e8e8e8;
      }

      .bf1bc179-41f0-4b57-8fc8-0f4a154fabcc {
        stroke-dasharray: 2.906 2.906;
      }

      .ec473f95-a2a9-4c78-bfb9-a6e2e955ab34 {
        stroke-dasharray: 2.968 2.968;
      }

      .a8b24648-76dc-44b5-9196-9758c1b7f1ea, .b96ada14-251b-4e0e-9740-b24dba0d7c27, .bf1496c0-251b-46c4-a8ad-ec4c6ab15d1e {
        fill: #151515;
      }

      .b0b2c993-b00c-4c24-9cb2-de72f975776b {
        stroke-dasharray: 3.049 3.049;
      }

      .f47885c9-c600-496d-bc70-adeedba0679b {
        stroke-dasharray: 2.967 2.967;
      }

      .a8b24648-76dc-44b5-9196-9758c1b7f1ea {
        font-size: 11px;
        font-family: RedHatText-Medium, Red Hat Text;
        font-weight: 500;
      }

      .e9647f65-0bd5-4fbc-b17b-7f2111d1cf8c {
        fill: #06c;
      }

      .a37b1cab-50e5-4fe6-97e1-11e9d385b2d5, .b711d606-6c70-4df2-852a-451ed84ae472, .bf1496c0-251b-46c4-a8ad-ec4c6ab15d1e {
        font-size: 10px;
      }

      .b711d606-6c70-4df2-852a-451ed84ae472 {
        fill: #fff;
        font-family: RedHatText-Bold, Red Hat Text;
        font-weight: 700;
      }

      .bf1496c0-251b-46c4-a8ad-ec4c6ab15d1e {
        font-family: RedHatText-Italic, Red Hat Text;
        font-style: italic;
      }

      .e878aed8-08e5-4f61-9915-03b72aea69e0 {
        stroke-dasharray: 3.002 3.002;
      }

      .a75999f2-4e6f-4f79-b7ff-0f2ee66d79aa {
        stroke: #06c;
      }

      .b72c13da-0527-4186-a24e-dab972cf13f3 {
        stroke: #fff;
        stroke-width: 8px;
      }

      .a37b1cab-50e5-4fe6-97e1-11e9d385b2d5 {
        fill: #f3f3f3;
        font-family: RedHatText-Regular, Red Hat Text;
      }
    </style>
  </defs>
  <polyline class="a8e35bd0-112c-4cf5-bd07-fbbf657ef37d" points="714.505 343.438 714.505 476.02 144.521 476.02 144.521 447.581"/>
  <rect class="aa034079-9784-468a-b05f-a57d7cecc486" x="669.504" y="231.438" width="90" height="112"/>
  <g>
    <line class="a8e35bd0-112c-4cf5-bd07-fbbf657ef37d" x1="90.718" y1="49.5" x2="89.218" y2="49.5"/>
    <line class="bf1bc179-41f0-4b57-8fc8-0f4a154fabcc" x1="86.312" y1="49.5" x2="35.454" y2="49.5"/>
    <polyline class="a8e35bd0-112c-4cf5-bd07-fbbf657ef37d" points="34.001 49.5 32.501 49.5 32.501 51"/>
    <line class="ec473f95-a2a9-4c78-bfb9-a6e2e955ab34" x1="32.501" y1="53.968" x2="32.501" y2="218.673"/>
    <line class="a8e35bd0-112c-4cf5-bd07-fbbf657ef37d" x1="32.501" y1="220.157" x2="32.501" y2="221.657"/>
    <polygon class="b96ada14-251b-4e0e-9740-b24dba0d7c27" points="89.259 44.514 97.894 49.5 89.259 54.486 89.259 44.514"/>
    <polygon class="b96ada14-251b-4e0e-9740-b24dba0d7c27" points="27.514 220.198 32.501 228.833 37.487 220.198 27.514 220.198"/>
  </g>
  <g>
    <line class="a8e35bd0-112c-4cf5-bd07-fbbf657ef37d" x1="90.136" y1="138.542" x2="88.636" y2="138.542"/>
    <line class="b0b2c993-b00c-4c24-9cb2-de72f975776b" x1="85.587" y1="138.542" x2="50.525" y2="138.542"/>
    <polyline class="a8e35bd0-112c-4cf5-bd07-fbbf657ef37d" points="49.001 138.542 47.501 138.542 47.501 140.042"/>
    <line class="f47885c9-c600-496d-bc70-adeedba0679b" x1="47.501" y1="143.01" x2="47.501" y2="218.673"/>
    <line class="a8e35bd0-112c-4cf5-bd07-fbbf657ef37d" x1="47.501" y1="220.157" x2="47.501" y2="221.657"/>
    <polygon class="b96ada14-251b-4e0e-9740-b24dba0d7c27" points="88.677 133.556 97.312 138.542 88.677 143.529 88.677 133.556"/>
    <polygon class="b96ada14-251b-4e0e-9740-b24dba0d7c27" points="42.514 220.198 47.501 228.833 52.487 220.198 42.514 220.198"/>
  </g>
  <polyline class="a8e35bd0-112c-4cf5-bd07-fbbf657ef37d" points="319.521 343.415 319.521 358.624 239.521 358.624 239.521 343.415"/>
  <polyline class="a8e35bd0-112c-4cf5-bd07-fbbf657ef37d" points="619.504 368.624 619.504 437.581 334.521 437.581 334.521 418.624"/>
  <polyline class="a8e35bd0-112c-4cf5-bd07-fbbf657ef37d" points="517.021 343.415 517.021 408.624 334.521 408.624 334.521 343.415"/>
  <polyline class="a8e35bd0-112c-4cf5-bd07-fbbf657ef37d" points="619.504 343.415 619.504 358.624 532.022 358.624 532.022 343.415"/>
  <polyline class="a8e35bd0-112c-4cf5-bd07-fbbf657ef37d" points="319.521 368.624 319.521 437.581 144.521 437.581 144.521 343.438"/>
  <line class="a8e35bd0-112c-4cf5-bd07-fbbf657ef37d" x1="334.521" y1="462.581" x2="334.521" y2="476.02"/>
  <line class="a8e35bd0-112c-4cf5-bd07-fbbf657ef37d" x1="429.521" y1="462.581" x2="429.521" y2="476.02"/>
  <line class="a8e35bd0-112c-4cf5-bd07-fbbf657ef37d" x1="239.521" y1="462.581" x2="239.521" y2="476.02"/>
  <line class="a8e35bd0-112c-4cf5-bd07-fbbf657ef37d" x1="524.521" y1="462.581" x2="524.521" y2="476.02"/>
  <line class="a8e35bd0-112c-4cf5-bd07-fbbf657ef37d" x1="619.503" y1="447.581" x2="619.503" y2="476.02"/>
  <rect class="aa034079-9784-468a-b05f-a57d7cecc486" x="100.103" y="16" width="659.401" height="67"/>
  <rect class="aa034079-9784-468a-b05f-a57d7cecc486" x="384.521" y="231.438" width="90" height="112"/>
  <text class="a8b24648-76dc-44b5-9196-9758c1b7f1ea" transform="translate(400.476 283.493)">Shared File<tspan x="7.073" y="12">Systems</tspan><tspan x="10.703" y="24">service</tspan></text>
  <g>
    <path class="e9647f65-0bd5-4fbc-b17b-7f2111d1cf8c" d="M439.021,258.715a9.5,9.5,0,1,1-9.5-9.5A9.5,9.5,0,0,1,439.021,258.715Z"/>
    <text class="b711d606-6c70-4df2-852a-451ed84ae472" transform="translate(426.267 261.999)">6</text>
  </g>
  <rect class="aa034079-9784-468a-b05f-a57d7cecc486" x="289.521" y="231.438" width="90" height="112"/>
  <text class="a8b24648-76dc-44b5-9196-9758c1b7f1ea" transform="translate(310.448 283.493)">Compute<tspan x="5.731" y="12">service</tspan></text>
  <rect class="aa034079-9784-468a-b05f-a57d7cecc486" x="99.521" y="231.438" width="90" height="112"/>
  <text class="a8b24648-76dc-44b5-9196-9758c1b7f1ea" transform="translate(115.691 283.493)">OpenStack<tspan x="-1.199" y="12">Networking</tspan><tspan x="10.488" y="24">service</tspan></text>
  <rect class="aa034079-9784-468a-b05f-a57d7cecc486" y="231.438" width="80" height="112"/>
  <rect class="aa034079-9784-468a-b05f-a57d7cecc486" x="479.521" y="231.438" width="90" height="112"/>
  <text class="a8b24648-76dc-44b5-9196-9758c1b7f1ea" transform="translate(508.654 283.493)">Image<tspan x="-4.89" y="12">Storage</tspan><tspan x="-2.475" y="24">service</tspan></text>
  <text class="a8b24648-76dc-44b5-9196-9758c1b7f1ea" transform="translate(19.877 283.493)">Identity<tspan x="1.782" y="12">service</tspan></text>
  <rect class="aa034079-9784-468a-b05f-a57d7cecc486" x="194.521" y="231.438" width="90" height="112"/>
  <text class="a8b24648-76dc-44b5-9196-9758c1b7f1ea" transform="translate(225.167 283.493)">Block<tspan x="-6.402" y="12">Storage</tspan><tspan x="-3.987" y="24">service</tspan></text>
  <text class="bf1496c0-251b-46c4-a8ad-ec4c6ab15d1e" transform="translate(264.992 371.464)">Stores<tspan x="-15.405" y="11">Block devices</tspan><tspan x="-2.79" y="22">for VMs</tspan></text>
  <text class="bf1496c0-251b-46c4-a8ad-ec4c6ab15d1e" transform="translate(343.603 41.615)">Graphical user interface</text>
  <text class="bf1496c0-251b-46c4-a8ad-ec4c6ab15d1e" transform="translate(398.346 421.463)">Stores images</text>
  <polyline class="a8e35bd0-112c-4cf5-bd07-fbbf657ef37d" points="429.521 343.415 429.521 358.624 349.521 358.624 349.521 343.415"/>
  <text class="bf1496c0-251b-46c4-a8ad-ec4c6ab15d1e" transform="translate(375.096 371.464)">Stores<tspan x="-9.665" y="11">File Shares</tspan><tspan x="-2.79" y="22">for VMs</tspan></text>
  <text class="bf1496c0-251b-46c4-a8ad-ec4c6ab15d1e" transform="translate(544.589 371.464)">Stores images<tspan x="9.13" y="11">as objects</tspan></text>
  <text class="bf1496c0-251b-46c4-a8ad-ec4c6ab15d1e" transform="translate(379.467 450.421)">Stores objects for VMs</text>
  <text class="bf1496c0-251b-46c4-a8ad-ec4c6ab15d1e" transform="translate(185.093 450.421)">Network connectivity</text>
  <text class="bf1496c0-251b-46c4-a8ad-ec4c6ab15d1e" transform="translate(376.772 488.861)">Collects usage statistics</text>
  <rect class="aa034079-9784-468a-b05f-a57d7cecc486" x="574.504" y="231.438" width="90" height="112"/>
  <g>
    <path class="b96ada14-251b-4e0e-9740-b24dba0d7c27" d="M606.459,283.614a3.972,3.972,0,1,1,3.9-3.971A3.9,3.9,0,0,1,606.459,283.614Zm.011-6.766a2.8,2.8,0,0,0,0,5.578,2.8,2.8,0,0,0,0-5.578Z"/>
    <path class="b96ada14-251b-4e0e-9740-b24dba0d7c27" d="M614.533,283.548a2.048,2.048,0,0,1-1.628-.771v.716h-1.221v-7.866l1.243-.209v3.3a2.144,2.144,0,0,1,1.694-.78,2.644,2.644,0,0,1,2.5,2.8A2.673,2.673,0,0,1,614.533,283.548Zm-1.606-3.949v2.3a1.69,1.69,0,0,0,1.32.6,1.765,1.765,0,0,0,0-3.521A1.616,1.616,0,0,0,612.927,279.6Z"/>
    <path class="b96ada14-251b-4e0e-9740-b24dba0d7c27" d="M617.348,285.8v-1a1.75,1.75,0,0,0,.44.044c.429,0,.616-.176.616-.594v-6.27h1.243v6.325a1.451,1.451,0,0,1-1.627,1.573A2.9,2.9,0,0,1,617.348,285.8Zm.9-9.7a.776.776,0,0,1,1.552,0,.776.776,0,0,1-1.552,0Z"/>
    <path class="b96ada14-251b-4e0e-9740-b24dba0d7c27" d="M623.729,283.6a2.8,2.8,0,0,1-2.806-2.861,2.714,2.714,0,0,1,2.685-2.848,2.645,2.645,0,0,1,2.607,2.838v.308h-4.07a1.683,1.683,0,0,0,1.65,1.507,1.791,1.791,0,0,0,1.309-.518l.814.76A3.187,3.187,0,0,1,623.729,283.6Zm-1.562-3.323h2.871A1.509,1.509,0,0,0,623.6,278.9,1.48,1.48,0,0,0,622.167,280.28Z"/>
    <path class="b96ada14-251b-4e0e-9740-b24dba0d7c27" d="M631.418,281.9l.748.748a2.866,2.866,0,0,1-2.156.957,2.85,2.85,0,0,1,0-5.7,2.97,2.97,0,0,1,2.2.924l-.77.8a1.819,1.819,0,0,0-1.386-.65,1.769,1.769,0,0,0,.033,3.521A1.693,1.693,0,0,0,631.418,281.9Z"/>
    <path class="b96ada14-251b-4e0e-9740-b24dba0d7c27" d="M633.915,278.972H632.8v-.99h1.112v-1.519l1.243-.264v1.783h1.54v.99h-1.54v2.794c0,.539.209.748.77.748a2.283,2.283,0,0,0,.748-.132v1.045a3.91,3.91,0,0,1-1.067.154c-1.111,0-1.694-.528-1.694-1.54Z"/>
    <path class="b96ada14-251b-4e0e-9740-b24dba0d7c27" d="M599.727,293.392a3.853,3.853,0,0,0,2.585,1.122c1.023,0,1.728-.517,1.728-1.221,0-.628-.375-.913-1.4-1.1l-1.419-.242c-1.331-.242-1.98-.9-1.98-1.958,0-1.386,1.111-2.31,2.838-2.31a5.142,5.142,0,0,1,3.091,1l-.671.99a3.994,3.994,0,0,0-2.464-.891c-.924,0-1.529.462-1.529,1.089,0,.55.341.836,1.188.968l1.364.242c1.551.265,2.277.946,2.277,2.112,0,1.409-1.254,2.41-3.091,2.41a4.846,4.846,0,0,1-3.234-1.244Z"/>
    <path class="b96ada14-251b-4e0e-9740-b24dba0d7c27" d="M607.207,290.972H606.1v-.99h1.112v-1.519l1.243-.264v1.783h1.54v.99h-1.54v2.794c0,.539.209.748.77.748a2.283,2.283,0,0,0,.748-.132v1.045a3.91,3.91,0,0,1-1.067.154c-1.111,0-1.694-.528-1.694-1.54Z"/>
    <path class="b96ada14-251b-4e0e-9740-b24dba0d7c27" d="M613.6,289.894a2.856,2.856,0,1,1-2.773,2.848A2.751,2.751,0,0,1,613.6,289.894Zm1.54,2.86a1.558,1.558,0,1,0-3.081,0,1.555,1.555,0,1,0,3.081,0Z"/>
    <path class="b96ada14-251b-4e0e-9740-b24dba0d7c27" d="M617.656,289.982H618.9v1.2a1.636,1.636,0,0,1,1.519-1.3,1.494,1.494,0,0,1,.539.11v1.089a1.753,1.753,0,0,0-.682-.132,1.515,1.515,0,0,0-1.376.913v3.631h-1.243Z"/>
    <path class="b96ada14-251b-4e0e-9740-b24dba0d7c27" d="M621.7,293.909c0-.99.8-1.618,2.1-1.618a3.4,3.4,0,0,1,1.486.342v-.606c0-.725-.418-1.1-1.266-1.1a3.813,3.813,0,0,0-1.606.429l-.44-.9a5.29,5.29,0,0,1,2.289-.56c1.43,0,2.255.725,2.255,2v3.6h-1.232v-.561a2.3,2.3,0,0,1-1.64.649A1.738,1.738,0,0,1,621.7,293.909Zm2.288.8a1.973,1.973,0,0,0,1.3-.451v-.9a2.867,2.867,0,0,0-1.277-.263c-.7,0-1.144.307-1.144.792C622.87,294.393,623.31,294.712,623.992,294.712Z"/>
    <path class="b96ada14-251b-4e0e-9740-b24dba0d7c27" d="M627.776,292.732a2.659,2.659,0,0,1,2.574-2.794,2.069,2.069,0,0,1,1.617.748v-.7H633.2v5.7c0,1.42-.925,2.2-2.6,2.2a4.8,4.8,0,0,1-2.212-.527l.44-.925a3.752,3.752,0,0,0,1.716.473c.924,0,1.409-.418,1.409-1.221v-.935a2.142,2.142,0,0,1-1.684.781A2.641,2.641,0,0,1,627.776,292.732Zm2.871,1.76a1.653,1.653,0,0,0,1.31-.605v-2.311a1.712,1.712,0,0,0-1.31-.594,1.645,1.645,0,0,0-1.639,1.75A1.667,1.667,0,0,0,630.647,294.492Z"/>
    <path class="b96ada14-251b-4e0e-9740-b24dba0d7c27" d="M637.28,295.6a2.8,2.8,0,0,1-2.8-2.861,2.714,2.714,0,0,1,2.685-2.848,2.645,2.645,0,0,1,2.607,2.838v.308H635.7a1.684,1.684,0,0,0,1.651,1.507,1.791,1.791,0,0,0,1.309-.518l.814.76A3.188,3.188,0,0,1,637.28,295.6Zm-1.562-3.323h2.872a1.51,1.51,0,0,0-1.442-1.375A1.48,1.48,0,0,0,635.718,292.28Z"/>
    <path class="b96ada14-251b-4e0e-9740-b24dba0d7c27" d="M602.02,306.019a3.176,3.176,0,0,0,1.772.627c.66,0,1.111-.3,1.111-.737,0-.342-.232-.528-.759-.628l-.979-.165c-1.068-.2-1.6-.692-1.6-1.517,0-1.034.848-1.7,2.135-1.7a3.885,3.885,0,0,1,2.167.659l-.583.814a3.013,3.013,0,0,0-1.662-.528c-.572,0-.946.242-.946.649,0,.353.2.506.781.606l.969.176c1.1.209,1.628.714,1.628,1.54a2.02,2.02,0,0,1-2.245,1.793,3.7,3.7,0,0,1-2.376-.748Z"/>
    <path class="b96ada14-251b-4e0e-9740-b24dba0d7c27" d="M609.753,307.6a2.8,2.8,0,0,1-2.805-2.861,2.714,2.714,0,0,1,2.685-2.848,2.645,2.645,0,0,1,2.607,2.838v.308h-4.071a1.685,1.685,0,0,0,1.651,1.507,1.791,1.791,0,0,0,1.309-.518l.814.76A3.188,3.188,0,0,1,609.753,307.6Zm-1.562-3.323h2.872a1.509,1.509,0,0,0-1.441-1.375A1.481,1.481,0,0,0,608.191,304.28Z"/>
    <path class="b96ada14-251b-4e0e-9740-b24dba0d7c27" d="M613.5,301.982h1.243v1.2a1.634,1.634,0,0,1,1.519-1.3,1.494,1.494,0,0,1,.539.11v1.089a1.756,1.756,0,0,0-.682-.132,1.513,1.513,0,0,0-1.376.913v3.631H613.5Z"/>
    <path class="b96ada14-251b-4e0e-9740-b24dba0d7c27" d="M617.178,301.982h1.353l1.529,4.026,1.529-4.026H622.9l-2.266,5.511h-1.2Z"/>
    <path class="b96ada14-251b-4e0e-9740-b24dba0d7c27" d="M623.635,300.1a.776.776,0,0,1,1.551,0,.776.776,0,0,1-1.551,0Zm1.4,7.393h-1.243v-5.511h1.243Z"/>
    <path class="b96ada14-251b-4e0e-9740-b24dba0d7c27" d="M630.5,305.9l.748.748a2.866,2.866,0,0,1-2.156.957,2.85,2.85,0,0,1,0-5.7,2.974,2.974,0,0,1,2.2.924l-.771.8a1.819,1.819,0,0,0-1.386-.65,1.769,1.769,0,0,0,.033,3.521A1.693,1.693,0,0,0,630.5,305.9Z"/>
    <path class="b96ada14-251b-4e0e-9740-b24dba0d7c27" d="M634.866,307.6a2.8,2.8,0,0,1-2.8-2.861,2.714,2.714,0,0,1,2.685-2.848,2.646,2.646,0,0,1,2.607,2.838v.308h-4.071a1.683,1.683,0,0,0,1.651,1.507,1.791,1.791,0,0,0,1.309-.518l.814.76A3.188,3.188,0,0,1,634.866,307.6ZM633.3,304.28h2.872a1.51,1.51,0,0,0-1.442-1.375A1.48,1.48,0,0,0,633.3,304.28Z"/>
  </g>
  <text class="a8b24648-76dc-44b5-9196-9758c1b7f1ea" transform="translate(687.939 283.493)">Telemetry<tspan x="8.222" y="12">service</tspan></text>
  <text class="a8b24648-76dc-44b5-9196-9758c1b7f1ea" transform="translate(141.258 52.785)">Dashboard service</text>
  <g>
    <path class="e9647f65-0bd5-4fbc-b17b-7f2111d1cf8c" d="M135.467,49.5a9.5,9.5,0,1,1-9.5-9.5A9.5,9.5,0,0,1,135.467,49.5Z"/>
    <text class="b711d606-6c70-4df2-852a-451ed84ae472" transform="translate(124.042 52.785)">1</text>
  </g>
  <g>
    <path class="e9647f65-0bd5-4fbc-b17b-7f2111d1cf8c" d="M154.021,258.715a9.5,9.5,0,1,1-9.5-9.5A9.5,9.5,0,0,1,154.021,258.715Z"/>
    <text class="b711d606-6c70-4df2-852a-451ed84ae472" transform="translate(141.356 261.999)">3</text>
  </g>
  <g>
    <path class="e9647f65-0bd5-4fbc-b17b-7f2111d1cf8c" d="M49.5,258.715a9.5,9.5,0,1,1-9.5-9.5A9.5,9.5,0,0,1,49.5,258.715Z"/>
    <text class="b711d606-6c70-4df2-852a-451ed84ae472" transform="translate(37.015 261.999)">2</text>
  </g>
  <g>
    <path class="e9647f65-0bd5-4fbc-b17b-7f2111d1cf8c" d="M249.021,258.715a9.5,9.5,0,1,1-9.5-9.5A9.5,9.5,0,0,1,249.021,258.715Z"/>
    <text class="b711d606-6c70-4df2-852a-451ed84ae472" transform="translate(236.071 261.999)">4</text>
  </g>
  <g>
    <path class="e9647f65-0bd5-4fbc-b17b-7f2111d1cf8c" d="M344.021,258.715a9.5,9.5,0,1,1-9.5-9.5A9.5,9.5,0,0,1,344.021,258.715Z"/>
    <text class="b711d606-6c70-4df2-852a-451ed84ae472" transform="translate(331.441 261.999)">5</text>
  </g>
  <g>
    <path class="e9647f65-0bd5-4fbc-b17b-7f2111d1cf8c" d="M534.021,258.715a9.5,9.5,0,1,1-9.5-9.5A9.5,9.5,0,0,1,534.021,258.715Z"/>
    <text class="b711d606-6c70-4df2-852a-451ed84ae472" transform="translate(521.432 261.999)">7</text>
  </g>
  <g>
    <path class="e9647f65-0bd5-4fbc-b17b-7f2111d1cf8c" d="M629,258.715a9.5,9.5,0,1,1-9.5-9.5A9.5,9.5,0,0,1,629,258.715Z"/>
    <text class="b711d606-6c70-4df2-852a-451ed84ae472" transform="translate(616.315 261.999)">8</text>
  </g>
  <g>
    <path class="e9647f65-0bd5-4fbc-b17b-7f2111d1cf8c" d="M724,258.715a9.5,9.5,0,1,1-9.5-9.5A9.5,9.5,0,0,1,724,258.715Z"/>
    <text class="b711d606-6c70-4df2-852a-451ed84ae472" transform="translate(711.269 261.999)">9</text>
  </g>
  <g>
    <line class="a8e35bd0-112c-4cf5-bd07-fbbf657ef37d" x1="89.676" y1="324.33" x2="91.176" y2="324.33"/>
    <line class="e878aed8-08e5-4f61-9915-03b72aea69e0" x1="94.178" y1="324.33" x2="735.113" y2="324.33"/>
    <line class="a8e35bd0-112c-4cf5-bd07-fbbf657ef37d" x1="736.614" y1="324.33" x2="738.114" y2="324.33"/>
    <polygon class="b96ada14-251b-4e0e-9740-b24dba0d7c27" points="91.135 329.316 82.5 324.33 91.135 319.344 91.135 329.316"/>
    <polygon class="b96ada14-251b-4e0e-9740-b24dba0d7c27" points="736.655 329.316 745.291 324.33 736.655 319.344 736.655 329.316"/>
  </g>
  <rect class="aa034079-9784-468a-b05f-a57d7cecc486" x="100.103" y="105.042" width="659.401" height="67"/>
  <text class="a8b24648-76dc-44b5-9196-9758c1b7f1ea" transform="translate(141.258 141.828)">Orchestration service</text>
  <g>
    <path class="e9647f65-0bd5-4fbc-b17b-7f2111d1cf8c" d="M135.467,138.543a9.5,9.5,0,1,1-9.5-9.5A9.5,9.5,0,0,1,135.467,138.543Z"/>
    <text class="b711d606-6c70-4df2-852a-451ed84ae472" transform="translate(120.588 141.828)">10</text>
  </g>
  <text class="bf1496c0-251b-46c4-a8ad-ec4c6ab15d1e" transform="translate(363.773 130.821)">Creates stacks</text>
  <g>
    <polyline class="a8e35bd0-112c-4cf5-bd07-fbbf657ef37d" points="152.021 221.657 152.021 206.5 707.004 206.5 707.004 221.657"/>
    <polygon class="b96ada14-251b-4e0e-9740-b24dba0d7c27" points="157.008 220.198 152.021 228.833 147.035 220.198 157.008 220.198"/>
    <polygon class="b96ada14-251b-4e0e-9740-b24dba0d7c27" points="702.018 220.198 707.004 228.833 711.99 220.198 702.018 220.198"/>
  </g>
  <g>
    <polyline class="a8e35bd0-112c-4cf5-bd07-fbbf657ef37d" points="532.021 221.657 532.021 137.981 259.604 137.981"/>
    <polygon class="b96ada14-251b-4e0e-9740-b24dba0d7c27" points="537.008 220.198 532.021 228.833 527.035 220.198 537.008 220.198"/>
  </g>
  <g>
    <line class="a75999f2-4e6f-4f79-b7ff-0f2ee66d79aa" x1="560.713" y1="49.751" x2="560.713" y2="95.305"/>
    <polygon class="e9647f65-0bd5-4fbc-b17b-7f2111d1cf8c" points="555.726 93.846 560.713 102.481 565.699 93.846 555.726 93.846"/>
  </g>
  <g>
    <g>
      <line class="a8e35bd0-112c-4cf5-bd07-fbbf657ef37d" x1="247.021" y1="206.5" x2="247.021" y2="221.657"/>
      <polygon class="b96ada14-251b-4e0e-9740-b24dba0d7c27" points="242.035 220.198 247.021 228.833 252.008 220.198 242.035 220.198"/>
    </g>
    <line class="b72c13da-0527-4186-a24e-dab972cf13f3" x1="232.021" y1="194.087" x2="232.021" y2="212.8"/>
    <g>
      <line class="a75999f2-4e6f-4f79-b7ff-0f2ee66d79aa" x1="232.021" y1="191.5" x2="232.021" y2="221.657"/>
      <polygon class="e9647f65-0bd5-4fbc-b17b-7f2111d1cf8c" points="227.035 220.198 232.021 228.833 237.008 220.198 227.035 220.198"/>
    </g>
  </g>
  <g>
    <g>
      <line class="a8e35bd0-112c-4cf5-bd07-fbbf657ef37d" x1="342.021" y1="206.5" x2="342.021" y2="221.657"/>
      <polygon class="b96ada14-251b-4e0e-9740-b24dba0d7c27" points="337.035 220.198 342.021 228.833 347.008 220.198 337.035 220.198"/>
    </g>
    <line class="b72c13da-0527-4186-a24e-dab972cf13f3" x1="327.021" y1="194.087" x2="327.021" y2="212.8"/>
    <g>
      <line class="a75999f2-4e6f-4f79-b7ff-0f2ee66d79aa" x1="327.021" y1="191.5" x2="327.021" y2="221.657"/>
      <polygon class="e9647f65-0bd5-4fbc-b17b-7f2111d1cf8c" points="322.035 220.198 327.021 228.833 332.008 220.198 322.035 220.198"/>
    </g>
  </g>
  <g>
    <g>
      <line class="a8e35bd0-112c-4cf5-bd07-fbbf657ef37d" x1="437.021" y1="206.5" x2="437.021" y2="221.657"/>
      <polygon class="b96ada14-251b-4e0e-9740-b24dba0d7c27" points="432.035 220.198 437.021 228.833 442.008 220.198 432.035 220.198"/>
    </g>
    <line class="b72c13da-0527-4186-a24e-dab972cf13f3" x1="422.021" y1="194.087" x2="422.021" y2="212.8"/>
    <g>
      <line class="a75999f2-4e6f-4f79-b7ff-0f2ee66d79aa" x1="422.021" y1="191.5" x2="422.021" y2="221.657"/>
      <polygon class="e9647f65-0bd5-4fbc-b17b-7f2111d1cf8c" points="417.035 220.198 422.021 228.833 427.007 220.198 417.035 220.198"/>
    </g>
  </g>
  <g>
    <g>
      <line class="a8e35bd0-112c-4cf5-bd07-fbbf657ef37d" x1="627.004" y1="206.5" x2="627.004" y2="221.657"/>
      <polygon class="b96ada14-251b-4e0e-9740-b24dba0d7c27" points="622.018 220.198 627.004 228.833 631.99 220.198 622.018 220.198"/>
    </g>
    <line class="b72c13da-0527-4186-a24e-dab972cf13f3" x1="612.004" y1="194.087" x2="612.004" y2="212.8"/>
  </g>
  <line class="b72c13da-0527-4186-a24e-dab972cf13f3" x1="517.021" y1="194.087" x2="517.021" y2="212.8"/>
  <line class="b72c13da-0527-4186-a24e-dab972cf13f3" x1="525.165" y1="191.5" x2="538.878" y2="191.5"/>
  <g>
    <line class="a75999f2-4e6f-4f79-b7ff-0f2ee66d79aa" x1="517.021" y1="191.5" x2="517.021" y2="221.657"/>
    <polygon class="e9647f65-0bd5-4fbc-b17b-7f2111d1cf8c" points="512.035 220.198 517.021 228.833 522.008 220.198 512.035 220.198"/>
  </g>
  <g>
    <polyline class="a75999f2-4e6f-4f79-b7ff-0f2ee66d79aa" points="137.021 221.657 137.021 191.5 722.004 191.5 722.004 221.657"/>
    <polygon class="e9647f65-0bd5-4fbc-b17b-7f2111d1cf8c" points="142.008 220.198 137.021 228.833 132.035 220.198 142.008 220.198"/>
    <polygon class="e9647f65-0bd5-4fbc-b17b-7f2111d1cf8c" points="717.018 220.198 722.004 228.833 726.99 220.198 717.018 220.198"/>
  </g>
  <g>
    <polyline class="a75999f2-4e6f-4f79-b7ff-0f2ee66d79aa" points="612.004 221.657 612.004 48.775 245.103 48.775"/>
    <polygon class="e9647f65-0bd5-4fbc-b17b-7f2111d1cf8c" points="616.99 220.198 612.004 228.833 607.018 220.198 616.99 220.198"/>
  </g>
  <rect class="aa034079-9784-468a-b05f-a57d7cecc486" x="594.266" y="105.042" width="165.237" height="67"/>
  <g>
    <text class="a37b1cab-50e5-4fe6-97e1-11e9d385b2d5" transform="translate(666.783 511.878)">134_OpenStack_0121</text>
    <rect class="a95d3e26-2c72-491d-a3ba-fb3e6e940d37" x="-0.479" y="488.861" width="760" height="40"/>
  </g>
</svg>
