<svg id="bcb37858-2559-4d16-a641-71698987cea7" data-name="artwork" xmlns="http://www.w3.org/2000/svg" width="760" height="571.5" viewBox="0 0 760 571.5">
  <defs>
    <style>
      .b7731893-6e87-471a-becd-306d6f002895 {
        fill: #e8e8e8;
      }

      .a6f3d7fc-ba98-4ed3-8f8d-974000f3dfee {
        fill: #151515;
      }

      .a4253cd7-4e46-412f-99a1-97084b5f1266, .a46bfe47-5814-442b-a92f-daf11e66e789, .a55d0c4d-5da7-4585-bfd4-578b66babb7f, .a7365a3a-73cc-4d76-9f85-90d09c836331, .ae82a509-038a-418a-983b-9bf0aeedd585, .aeeffcb3-9799-45c3-a612-239d4bafad17, .b15f197a-4680-46ca-a99f-8cf4ca80c5e4, .b5688ec4-0fa9-494f-b0c1-c516c6bef3ba, .b95743e8-eb70-450c-9bb6-c22f0802a27e, .bf383686-6861-41b8-b1c0-af686d235799, .e83acaa1-d193-49f1-b509-941a3b96a99c, .e84c19a8-6086-4ec3-aad7-a0c7f6969a70, .f6ec203b-bc88-4336-8c2d-da83ffd0519a, .f73ea9a5-fe0b-457c-8824-51f67391f7fb, .fa456af5-bcad-4cf6-851b-71ee04d42f0d, .fc594592-47c0-4205-9ffc-ee6ae7ba6e51 {
        fill: none;
      }

      .b95743e8-eb70-450c-9bb6-c22f0802a27e {
        stroke: #baccdf;
      }

      .b95743e8-eb70-450c-9bb6-c22f0802a27e, .f73ea9a5-fe0b-457c-8824-51f67391f7fb {
        stroke-miterlimit: 10;
      }

      .b95743e8-eb70-450c-9bb6-c22f0802a27e, .e7c51d80-52f9-4cca-b15c-0ff3419934c1, .e84c19a8-6086-4ec3-aad7-a0c7f6969a70, .f73ea9a5-fe0b-457c-8824-51f67391f7fb {
        stroke-width: 1.5px;
      }

      .a454653d-4959-4b86-b5bb-a2fdb84826b2, .e7c51d80-52f9-4cca-b15c-0ff3419934c1 {
        fill: #fff;
      }

      .fed2aa08-cdef-4f82-8cee-2310b70e5e58 {
        fill: #06c;
      }

      .a7365a3a-73cc-4d76-9f85-90d09c836331, .e83acaa1-d193-49f1-b509-941a3b96a99c, .fc594592-47c0-4205-9ffc-ee6ae7ba6e51 {
        stroke: #adadad;
      }

      .a4253cd7-4e46-412f-99a1-97084b5f1266, .a46bfe47-5814-442b-a92f-daf11e66e789, .a7365a3a-73cc-4d76-9f85-90d09c836331, .ae82a509-038a-418a-983b-9bf0aeedd585, .aeeffcb3-9799-45c3-a612-239d4bafad17, .b15f197a-4680-46ca-a99f-8cf4ca80c5e4, .b5688ec4-0fa9-494f-b0c1-c516c6bef3ba, .bf383686-6861-41b8-b1c0-af686d235799, .e7c51d80-52f9-4cca-b15c-0ff3419934c1, .e83acaa1-d193-49f1-b509-941a3b96a99c, .e84c19a8-6086-4ec3-aad7-a0c7f6969a70, .f6ec203b-bc88-4336-8c2d-da83ffd0519a, .fa456af5-bcad-4cf6-851b-71ee04d42f0d, .fc594592-47c0-4205-9ffc-ee6ae7ba6e51 {
        stroke-linecap: round;
        stroke-linejoin: round;
      }

      .e83acaa1-d193-49f1-b509-941a3b96a99c {
        stroke-dasharray: 2.968 2.968;
      }

      .fc594592-47c0-4205-9ffc-ee6ae7ba6e51 {
        stroke-dasharray: 3.037 3.037;
      }

      .f73ea9a5-fe0b-457c-8824-51f67391f7fb {
        stroke: #d0d0d0;
      }

      .a4253cd7-4e46-412f-99a1-97084b5f1266, .a46bfe47-5814-442b-a92f-daf11e66e789, .aeeffcb3-9799-45c3-a612-239d4bafad17, .b15f197a-4680-46ca-a99f-8cf4ca80c5e4, .bf383686-6861-41b8-b1c0-af686d235799, .f6ec203b-bc88-4336-8c2d-da83ffd0519a, .fa456af5-bcad-4cf6-851b-71ee04d42f0d {
        stroke: #06c;
      }

      .f6ec203b-bc88-4336-8c2d-da83ffd0519a {
        stroke-dasharray: 2.988 2.988;
      }

      .fa456af5-bcad-4cf6-851b-71ee04d42f0d {
        stroke-dasharray: 2.949 2.949;
      }

      .aeeffcb3-9799-45c3-a612-239d4bafad17 {
        stroke-dasharray: 2.976 2.976;
      }

      .a4253cd7-4e46-412f-99a1-97084b5f1266 {
        stroke-dasharray: 3.001 3.001;
      }

      .b15f197a-4680-46ca-a99f-8cf4ca80c5e4 {
        stroke-dasharray: 3.008 3.008;
      }

      .bf383686-6861-41b8-b1c0-af686d235799 {
        stroke-dasharray: 2.995 2.995;
      }

      .ae82a509-038a-418a-983b-9bf0aeedd585 {
        stroke: #151515;
      }

      .b5688ec4-0fa9-494f-b0c1-c516c6bef3ba, .e7c51d80-52f9-4cca-b15c-0ff3419934c1, .e84c19a8-6086-4ec3-aad7-a0c7f6969a70 {
        stroke: #5b5b5b;
      }

      .b5688ec4-0fa9-494f-b0c1-c516c6bef3ba {
        stroke-width: 2px;
      }

      .bbe863ac-40ea-4c26-b5c1-d5f02d5f394c {
        fill: #f3f3f3;
      }
    </style>
  </defs>
  <title>12</title>
  <rect class="b7731893-6e87-471a-becd-306d6f002895" x="20.147" y="20" width="720" height="245"/>
  <g>
    <path class="a6f3d7fc-ba98-4ed3-8f8d-974000f3dfee" d="M41.24,235.315h4.79a3.2,3.2,0,1,1,0,6.388H43.649v3.418H41.24Zm2.409,1.989v2.48H45.6c.98,0,1.456-.533,1.456-1.247s-.476-1.233-1.443-1.233Z"/>
    <path class="a6f3d7fc-ba98-4ed3-8f8d-974000f3dfee" d="M50.97,237.893h2.268v1.639c.463-1.205,1.108-1.78,1.961-1.78a1.552,1.552,0,0,1,.757.183v1.947a2.485,2.485,0,0,0-1.064-.224,2,2,0,0,0-1.654.9v4.567H50.97Z"/>
    <path class="a6f3d7fc-ba98-4ed3-8f8d-974000f3dfee" d="M57.018,235.511a1.282,1.282,0,0,1,2.563,0,1.282,1.282,0,0,1-2.563,0Zm2.409,9.61H57.158v-7.228h2.269Z"/>
    <path class="a6f3d7fc-ba98-4ed3-8f8d-974000f3dfee" d="M61.189,237.893h2.269v1.149a2.48,2.48,0,0,1,2.144-1.261,2.142,2.142,0,0,1,2.031,1.344A2.728,2.728,0,0,1,70,237.781a2.316,2.316,0,0,1,2.27,2.535v4.805H70v-4.357a1.082,1.082,0,0,0-1.079-1.2,1.239,1.239,0,0,0-1.05.56v5H65.6v-4.357a1.082,1.082,0,0,0-1.08-1.2,1.3,1.3,0,0,0-1.064.56v5H61.189Z"/>
    <path class="a6f3d7fc-ba98-4ed3-8f8d-974000f3dfee" d="M73.635,243.047c0-1.33,1.037-2.1,2.816-2.1a4.693,4.693,0,0,1,1.681.337v-.589c0-.7-.463-1.05-1.429-1.05a5.381,5.381,0,0,0-2.031.5l-.784-1.583a8,8,0,0,1,3.319-.784c2,0,3.166.994,3.166,2.717v4.623H78.132v-.631a2.884,2.884,0,0,1-2,.743A2.25,2.25,0,0,1,73.635,243.047Zm3.194.687a2.472,2.472,0,0,0,1.3-.364v-.925a5.435,5.435,0,0,0-1.247-.154c-.742,0-1.162.252-1.162.714S76.129,243.734,76.829,243.734Z"/>
    <path class="a6f3d7fc-ba98-4ed3-8f8d-974000f3dfee" d="M82.078,237.893h2.269v1.639c.463-1.205,1.106-1.78,1.961-1.78a1.549,1.549,0,0,1,.756.183v1.947A2.481,2.481,0,0,0,86,239.658a2,2,0,0,0-1.653.9v4.567H82.078Z"/>
    <path class="a6f3d7fc-ba98-4ed3-8f8d-974000f3dfee" d="M90.072,245.261l-2.661-7.368h2.507l1.443,4.664,1.653-4.664h2.451l-3.249,8.068c-.673,1.653-1.5,2.255-3.166,2.255a4.616,4.616,0,0,1-.939-.112V246.2a4.809,4.809,0,0,0,.672.056,1.107,1.107,0,0,0,1.177-.728Z"/>
    <path class="a6f3d7fc-ba98-4ed3-8f8d-974000f3dfee" d="M99.857,242.865a4.677,4.677,0,0,0,2.326.729c.643,0,1.036-.224,1.036-.589,0-.28-.21-.434-.672-.518l-1.387-.252c-1.4-.266-2.13-.981-2.13-2.1,0-1.485,1.135-2.367,3.027-2.367a5.815,5.815,0,0,1,2.941.826l-1.037,1.443a4.092,4.092,0,0,0-2.073-.617c-.546,0-.868.183-.868.5,0,.294.182.42.742.518l1.359.252c1.429.266,2.185,1,2.171,2.087.014,1.415-1.331,2.48-3.109,2.48a5.9,5.9,0,0,1-3.321-.883Z"/>
    <path class="a6f3d7fc-ba98-4ed3-8f8d-974000f3dfee" d="M106.465,235.511a1.282,1.282,0,0,1,2.563,0,1.282,1.282,0,0,1-2.563,0Zm2.409,9.61h-2.269v-7.228h2.269Z"/>
    <path class="a6f3d7fc-ba98-4ed3-8f8d-974000f3dfee" d="M111.589,239.644h-1.4v-1.751h1.4v-2l2.269-.463v2.466h1.933v1.751h-1.933v2.8c0,.644.252.868.953.868a3.031,3.031,0,0,0,.924-.153V245a6.317,6.317,0,0,1-1.554.224c-1.709,0-2.592-.785-2.592-2.325Z"/>
    <path class="a6f3d7fc-ba98-4ed3-8f8d-974000f3dfee" d="M120.536,245.261a3.737,3.737,0,0,1-3.809-3.74,3.626,3.626,0,0,1,3.641-3.754,3.552,3.552,0,0,1,3.558,3.837v.491h-4.973a1.736,1.736,0,0,0,1.695,1.359,1.788,1.788,0,0,0,1.429-.6l1.5,1.246A4.214,4.214,0,0,1,120.536,245.261Zm-1.583-4.455h2.872a1.5,1.5,0,0,0-1.471-1.274A1.436,1.436,0,0,0,118.953,240.806Z"/>
  </g>
  <g>
    <polyline class="b95743e8-eb70-450c-9bb6-c22f0802a27e" points="220.442 165.34 220.442 215.34 60.442 215.34"/>
    <polyline class="b95743e8-eb70-450c-9bb6-c22f0802a27e" points="215.442 160.34 215.442 210.34 55.442 210.34"/>
    <g>
      <rect class="a454653d-4959-4b86-b5bb-a2fdb84826b2" x="50.942" y="155.84" width="159" height="49"/>
      <path class="fed2aa08-cdef-4f82-8cee-2310b70e5e58" d="M209.442,156.34v48h-158v-48h158m1-1h-160v50h160v-50Z"/>
    </g>
    <g>
      <path class="a6f3d7fc-ba98-4ed3-8f8d-974000f3dfee" d="M67.685,173.177l.947.911a4.309,4.309,0,1,1,.036-5.684l-.972.959a2.954,2.954,0,1,0-2.255,4.906A2.849,2.849,0,0,0,67.685,173.177Z"/>
      <path class="a6f3d7fc-ba98-4ed3-8f8d-974000f3dfee" d="M72.7,169.339a3.114,3.114,0,1,1-3.022,3.106A3,3,0,0,1,72.7,169.339Zm1.679,3.119a1.7,1.7,0,1,0-3.358,0,1.7,1.7,0,1,0,3.358,0Z"/>
      <path class="a6f3d7fc-ba98-4ed3-8f8d-974000f3dfee" d="M77.132,169.435h1.354v.983a2.183,2.183,0,0,1,1.908-1.079,2.023,2.023,0,0,1,2.075,2.147v3.958H81.113V171.87a1.293,1.293,0,0,0-1.319-1.439,1.544,1.544,0,0,0-1.308.719v4.294H77.132Z"/>
      <path class="a6f3d7fc-ba98-4ed3-8f8d-974000f3dfee" d="M84.859,170.515H83.648v-1.08h1.211V167.78l1.356-.288v1.943h1.679v1.08H86.215v3.046c0,.587.227.815.84.815a2.49,2.49,0,0,0,.815-.144v1.14a4.265,4.265,0,0,1-1.164.168c-1.211,0-1.847-.576-1.847-1.679Z"/>
      <path class="a6f3d7fc-ba98-4ed3-8f8d-974000f3dfee" d="M89.084,169.435h1.354v1.308a1.785,1.785,0,0,1,1.656-1.416,1.607,1.607,0,0,1,.588.12v1.187a1.93,1.93,0,0,0-.744-.143,1.649,1.649,0,0,0-1.5.995v3.958H89.084Z"/>
      <path class="a6f3d7fc-ba98-4ed3-8f8d-974000f3dfee" d="M96.546,169.339a3.114,3.114,0,1,1-3.023,3.106A3,3,0,0,1,96.546,169.339Zm1.679,3.119a1.7,1.7,0,1,0-3.358,0,1.7,1.7,0,1,0,3.358,0Z"/>
      <path class="a6f3d7fc-ba98-4ed3-8f8d-974000f3dfee" d="M102.33,175.444h-1.354v-8.575l1.354-.228Z"/>
      <path class="a6f3d7fc-ba98-4ed3-8f8d-974000f3dfee" d="M105.354,175.444H104v-8.575l1.354-.228Z"/>
      <path class="a6f3d7fc-ba98-4ed3-8f8d-974000f3dfee" d="M109.806,175.564a3.055,3.055,0,0,1-3.059-3.119,2.96,2.96,0,0,1,2.927-3.106,2.884,2.884,0,0,1,2.842,3.095v.336h-4.438a1.837,1.837,0,0,0,1.8,1.643,1.956,1.956,0,0,0,1.427-.564l.887.827A3.472,3.472,0,0,1,109.806,175.564Zm-1.7-3.622h3.129a1.644,1.644,0,0,0-1.57-1.5A1.614,1.614,0,0,0,108.1,171.942Z"/>
      <path class="a6f3d7fc-ba98-4ed3-8f8d-974000f3dfee" d="M113.9,169.435h1.355v1.308a1.783,1.783,0,0,1,1.655-1.416,1.6,1.6,0,0,1,.588.12v1.187a1.925,1.925,0,0,0-.743-.143,1.649,1.649,0,0,0-1.5.995v3.958H113.9Z"/>
      <path class="a6f3d7fc-ba98-4ed3-8f8d-974000f3dfee" d="M121.315,169.435h1.355v.983a2.181,2.181,0,0,1,1.907-1.079,2.022,2.022,0,0,1,2.075,2.147v3.958H125.3V171.87a1.294,1.294,0,0,0-1.319-1.439,1.543,1.543,0,0,0-1.308.719v4.294h-1.355Z"/>
      <path class="a6f3d7fc-ba98-4ed3-8f8d-974000f3dfee" d="M131.045,169.339a3.114,3.114,0,1,1-3.023,3.106A3,3,0,0,1,131.045,169.339Zm1.679,3.119a1.7,1.7,0,1,0-3.358,0,1.7,1.7,0,1,0,3.358,0Z"/>
      <path class="a6f3d7fc-ba98-4ed3-8f8d-974000f3dfee" d="M139.768,174.64a2.31,2.31,0,0,1-1.847.864,3.074,3.074,0,0,1,.084-6.117,2.293,2.293,0,0,1,1.751.792v-3.31l1.355-.228v8.8h-1.343Zm-1.439-.276a1.8,1.8,0,0,0,1.427-.659v-2.531a1.866,1.866,0,0,0-1.427-.648,1.924,1.924,0,0,0,0,3.838Z"/>
      <path class="a6f3d7fc-ba98-4ed3-8f8d-974000f3dfee" d="M145.577,175.564a3.054,3.054,0,0,1-3.058-3.119,2.959,2.959,0,0,1,2.926-3.106,2.884,2.884,0,0,1,2.842,3.095v.336H143.85a1.836,1.836,0,0,0,1.8,1.643,1.955,1.955,0,0,0,1.427-.564l.888.827A3.474,3.474,0,0,1,145.577,175.564Zm-1.7-3.622H147a1.645,1.645,0,0,0-1.57-1.5A1.615,1.615,0,0,0,143.874,171.942Z"/>
      <path class="a6f3d7fc-ba98-4ed3-8f8d-974000f3dfee" d="M149.767,173.837a3.459,3.459,0,0,0,1.93.684c.72,0,1.212-.324,1.212-.8,0-.372-.252-.576-.828-.684l-1.067-.18c-1.163-.216-1.74-.755-1.74-1.655,0-1.127.924-1.859,2.328-1.859a4.227,4.227,0,0,1,2.362.72l-.636.887a3.278,3.278,0,0,0-1.81-.575c-.624,0-1.032.263-1.032.707,0,.384.216.552.852.66l1.056.192c1.2.228,1.774.779,1.774,1.679a2.2,2.2,0,0,1-2.446,1.955,4.031,4.031,0,0,1-2.591-.816Z"/>
    </g>
  </g>
  <g>
    <polyline class="a7365a3a-73cc-4d76-9f85-90d09c836331" points="475.442 223.84 475.442 225.34 473.942 225.34"/>
    <line class="e83acaa1-d193-49f1-b509-941a3b96a99c" x1="470.974" y1="225.34" x2="288.426" y2="225.34"/>
    <polyline class="a7365a3a-73cc-4d76-9f85-90d09c836331" points="286.942 225.34 285.442 225.34 285.442 223.84"/>
    <line class="fc594592-47c0-4205-9ffc-ee6ae7ba6e51" x1="285.442" y1="220.803" x2="285.442" y2="143.358"/>
    <polyline class="a7365a3a-73cc-4d76-9f85-90d09c836331" points="285.442 141.84 285.442 140.34 286.942 140.34"/>
    <line class="e83acaa1-d193-49f1-b509-941a3b96a99c" x1="289.91" y1="140.34" x2="472.458" y2="140.34"/>
    <polyline class="a7365a3a-73cc-4d76-9f85-90d09c836331" points="473.942 140.34 475.442 140.34 475.442 141.84"/>
    <line class="fc594592-47c0-4205-9ffc-ee6ae7ba6e51" x1="475.442" y1="144.877" x2="475.442" y2="222.321"/>
  </g>
  <polyline class="f73ea9a5-fe0b-457c-8824-51f67391f7fb" points="465.442 165.34 465.442 215.34 305.442 215.34"/>
  <polyline class="f73ea9a5-fe0b-457c-8824-51f67391f7fb" points="460.442 160.34 460.442 210.34 300.442 210.34"/>
  <rect class="a454653d-4959-4b86-b5bb-a2fdb84826b2" x="295.442" y="155.34" width="160" height="50"/>
  <g>
    <path class="a6f3d7fc-ba98-4ed3-8f8d-974000f3dfee" d="M312.685,173.177l.947.911a4.309,4.309,0,1,1,.036-5.684l-.972.959a2.954,2.954,0,1,0-2.255,4.906A2.849,2.849,0,0,0,312.685,173.177Z"/>
    <path class="a6f3d7fc-ba98-4ed3-8f8d-974000f3dfee" d="M317.7,169.339a3.114,3.114,0,1,1-3.022,3.106A3,3,0,0,1,317.7,169.339Zm1.679,3.119a1.7,1.7,0,1,0-3.358,0,1.7,1.7,0,1,0,3.358,0Z"/>
    <path class="a6f3d7fc-ba98-4ed3-8f8d-974000f3dfee" d="M322.132,169.435h1.354v.96a2.052,2.052,0,0,1,1.787-1.056,1.89,1.89,0,0,1,1.764,1.163,2.216,2.216,0,0,1,1.99-1.163A1.992,1.992,0,0,1,331,171.522v3.922H329.64V171.81a1.216,1.216,0,0,0-1.212-1.379,1.431,1.431,0,0,0-1.211.707c.012.132.023.252.023.384v3.922h-1.354V171.81a1.216,1.216,0,0,0-1.212-1.379,1.4,1.4,0,0,0-1.188.683v4.33h-1.354Z"/>
    <path class="a6f3d7fc-ba98-4ed3-8f8d-974000f3dfee" d="M332.644,169.435h1.331v.864a2.263,2.263,0,0,1,1.871-.912,3.074,3.074,0,0,1-.1,6.117,2.249,2.249,0,0,1-1.752-.78v3.262h-1.354ZM334,171.2v2.507a1.844,1.844,0,0,0,1.44.659,1.924,1.924,0,0,0,0-3.838A1.765,1.765,0,0,0,334,171.2Z"/>
    <path class="a6f3d7fc-ba98-4ed3-8f8d-974000f3dfee" d="M341.3,173.009a1.294,1.294,0,0,0,1.319,1.439,1.517,1.517,0,0,0,1.32-.743v-4.27h1.354v6.009h-1.354v-1a2.2,2.2,0,0,1-1.92,1.092,2.016,2.016,0,0,1-2.075-2.147v-3.958H341.3Z"/>
    <path class="a6f3d7fc-ba98-4ed3-8f8d-974000f3dfee" d="M347.7,170.515h-1.211v-1.08H347.7V167.78l1.356-.288v1.943h1.678v1.08h-1.678v3.046c0,.587.227.815.839.815a2.491,2.491,0,0,0,.816-.144v1.14a4.265,4.265,0,0,1-1.164.168c-1.211,0-1.847-.576-1.847-1.679Z"/>
    <path class="a6f3d7fc-ba98-4ed3-8f8d-974000f3dfee" d="M354.71,175.564a3.055,3.055,0,0,1-3.059-3.119,2.96,2.96,0,0,1,2.927-3.106,2.884,2.884,0,0,1,2.842,3.095v.336h-4.438a1.837,1.837,0,0,0,1.8,1.643,1.955,1.955,0,0,0,1.427-.564l.888.827A3.474,3.474,0,0,1,354.71,175.564Zm-1.7-3.622h3.13a1.646,1.646,0,0,0-1.571-1.5A1.615,1.615,0,0,0,353.007,171.942Z"/>
    <path class="a6f3d7fc-ba98-4ed3-8f8d-974000f3dfee" d="M361.5,169.435h1.354v.983a2.183,2.183,0,0,1,1.908-1.079,2.023,2.023,0,0,1,2.075,2.147v3.958h-1.356V171.87a1.293,1.293,0,0,0-1.319-1.439,1.544,1.544,0,0,0-1.308.719v4.294H361.5Z"/>
    <path class="a6f3d7fc-ba98-4ed3-8f8d-974000f3dfee" d="M371.233,169.339a3.114,3.114,0,1,1-3.022,3.106A3,3,0,0,1,371.233,169.339Zm1.679,3.119a1.7,1.7,0,1,0-3.357,0,1.695,1.695,0,1,0,3.357,0Z"/>
    <path class="a6f3d7fc-ba98-4ed3-8f8d-974000f3dfee" d="M379.956,174.64a2.31,2.31,0,0,1-1.847.864,3.075,3.075,0,0,1,.084-6.117,2.29,2.29,0,0,1,1.751.792v-3.31l1.356-.228v8.8h-1.344Zm-1.438-.276a1.794,1.794,0,0,0,1.426-.659v-2.531a1.864,1.864,0,0,0-1.426-.648,1.924,1.924,0,0,0,0,3.838Z"/>
    <path class="a6f3d7fc-ba98-4ed3-8f8d-974000f3dfee" d="M385.766,175.564a3.055,3.055,0,0,1-3.059-3.119,2.96,2.96,0,0,1,2.927-3.106,2.885,2.885,0,0,1,2.843,3.095v.336h-4.439a1.837,1.837,0,0,0,1.8,1.643,1.956,1.956,0,0,0,1.427-.564l.887.827A3.472,3.472,0,0,1,385.766,175.564Zm-1.7-3.622h3.13a1.644,1.644,0,0,0-1.57-1.5A1.616,1.616,0,0,0,384.062,171.942Z"/>
    <path class="a6f3d7fc-ba98-4ed3-8f8d-974000f3dfee" d="M389.955,173.837a3.46,3.46,0,0,0,1.931.684c.719,0,1.212-.324,1.212-.8,0-.372-.252-.576-.828-.684l-1.068-.18c-1.163-.216-1.739-.755-1.739-1.655,0-1.127.924-1.859,2.327-1.859a4.222,4.222,0,0,1,2.362.72l-.635.887a3.281,3.281,0,0,0-1.811-.575c-.624,0-1.031.263-1.031.707,0,.384.216.552.851.66l1.056.192c1.2.228,1.774.779,1.774,1.679a2.2,2.2,0,0,1-2.446,1.955,4.031,4.031,0,0,1-2.591-.816Z"/>
    <path class="a6f3d7fc-ba98-4ed3-8f8d-974000f3dfee" d="M309.183,180.905l.455.611a6.269,6.269,0,0,0,0,9.955l-.455.6a6.9,6.9,0,0,1,0-11.165Z"/>
    <path class="a6f3d7fc-ba98-4ed3-8f8d-974000f3dfee" d="M312.027,189.444h-.876v-8.575l.876-.181Z"/>
    <path class="a6f3d7fc-ba98-4ed3-8f8d-974000f3dfee" d="M316.406,183.5a3.041,3.041,0,1,1-2.843,3.023A2.873,2.873,0,0,1,316.406,183.5Zm1.99,3.034a2,2,0,1,0-3.969,0,2,2,0,1,0,3.969,0Z"/>
    <path class="a6f3d7fc-ba98-4ed3-8f8d-974000f3dfee" d="M325.105,188.064l.541.54a3.045,3.045,0,0,1-2.219.948,3.032,3.032,0,0,1,0-6.057,3.2,3.2,0,0,1,2.255.912l-.565.611a2.3,2.3,0,0,0-1.654-.731,2.244,2.244,0,0,0,.012,4.473A2.151,2.151,0,0,0,325.105,188.064Z"/>
    <path class="a6f3d7fc-ba98-4ed3-8f8d-974000f3dfee" d="M326.6,187.765c0-1.044.875-1.739,2.194-1.739a3.384,3.384,0,0,1,1.787.455v-.8a1.317,1.317,0,0,0-1.511-1.451,3.873,3.873,0,0,0-1.775.5l-.324-.671a5.016,5.016,0,0,1,2.207-.564c1.451,0,2.266.732,2.266,2.063v3.886h-.863v-.684a2.51,2.51,0,0,1-1.858.792A1.89,1.89,0,0,1,326.6,187.765Zm2.3,1.115a2.314,2.314,0,0,0,1.679-.672v-1.127a3.085,3.085,0,0,0-1.655-.419c-.9,0-1.487.431-1.487,1.079C327.435,188.424,328.022,188.88,328.9,188.88Z"/>
    <path class="a6f3d7fc-ba98-4ed3-8f8d-974000f3dfee" d="M334.1,189.444h-.876v-8.575l.876-.181Z"/>
    <path class="a6f3d7fc-ba98-4ed3-8f8d-974000f3dfee" d="M341.329,189.552a2.921,2.921,0,0,1-2.9-3.034,2.848,2.848,0,0,1,2.759-3.023,2.765,2.765,0,0,1,2.686,2.95v.264h-4.594a2.134,2.134,0,0,0,2.087,2.075,2.4,2.4,0,0,0,1.608-.6l.55.587A3.41,3.41,0,0,1,341.329,189.552Zm-2.027-3.467h3.706a1.933,1.933,0,0,0-1.835-1.835A1.955,1.955,0,0,0,339.3,186.085Z"/>
    <path class="a6f3d7fc-ba98-4ed3-8f8d-974000f3dfee" d="M345.375,183.591h.863v.84a2.312,2.312,0,0,1,1.9-.912,3.019,3.019,0,0,1-.048,6.009,2.371,2.371,0,0,1-1.835-.816v3.239h-.876Zm.876,1.5v2.867a2.058,2.058,0,0,0,1.667.815,2.251,2.251,0,0,0,0-4.485A2,2,0,0,0,346.251,185.09Z"/>
    <path class="a6f3d7fc-ba98-4ed3-8f8d-974000f3dfee" d="M352.371,180.869l.876-.181v3.851a2.107,2.107,0,0,1,1.858-1.044,2.038,2.038,0,0,1,2.124,2.159v3.79h-.876v-3.538a1.517,1.517,0,0,0-1.571-1.679,1.726,1.726,0,0,0-1.535.9v4.318h-.876Z"/>
    <path class="a6f3d7fc-ba98-4ed3-8f8d-974000f3dfee" d="M361.633,189.552a2.921,2.921,0,0,1-2.9-3.034,2.849,2.849,0,0,1,2.759-3.023,2.766,2.766,0,0,1,2.687,2.95v.264h-4.594a2.134,2.134,0,0,0,2.087,2.075,2.392,2.392,0,0,0,1.606-.6l.552.587A3.414,3.414,0,0,1,361.633,189.552Zm-2.028-3.467h3.707a1.933,1.933,0,0,0-1.835-1.835A1.957,1.957,0,0,0,359.605,186.085Z"/>
    <path class="a6f3d7fc-ba98-4ed3-8f8d-974000f3dfee" d="M365.679,183.591h.876v.911a2,2,0,0,1,1.738-1.007,1.925,1.925,0,0,1,1.8,1.139,2.16,2.16,0,0,1,1.954-1.139,1.992,1.992,0,0,1,1.991,2.171v3.778h-.875v-3.562c0-1.02-.552-1.655-1.439-1.655a1.625,1.625,0,0,0-1.463.923,2.5,2.5,0,0,1,.048.516v3.778h-.876v-3.562a1.454,1.454,0,0,0-1.452-1.655,1.6,1.6,0,0,0-1.426.863v4.354h-.876Z"/>
    <path class="a6f3d7fc-ba98-4ed3-8f8d-974000f3dfee" d="M378.457,189.552a2.921,2.921,0,0,1-2.9-3.034,2.848,2.848,0,0,1,2.758-3.023,2.765,2.765,0,0,1,2.687,2.95v.264h-4.594a2.134,2.134,0,0,0,2.087,2.075,2.4,2.4,0,0,0,1.607-.6l.551.587A3.414,3.414,0,0,1,378.457,189.552Zm-2.027-3.467h3.706a1.933,1.933,0,0,0-1.835-1.835A1.955,1.955,0,0,0,376.43,186.085Z"/>
    <path class="a6f3d7fc-ba98-4ed3-8f8d-974000f3dfee" d="M382.5,183.591h.876v1.187a1.748,1.748,0,0,1,1.631-1.295,1.663,1.663,0,0,1,.552.084v.792a2.2,2.2,0,0,0-.613-.109,1.669,1.669,0,0,0-1.57,1.188v4.006H382.5Z"/>
    <path class="a6f3d7fc-ba98-4ed3-8f8d-974000f3dfee" d="M386.414,187.765c0-1.044.875-1.739,2.194-1.739a3.39,3.39,0,0,1,1.788.455v-.8a1.318,1.318,0,0,0-1.511-1.451,3.876,3.876,0,0,0-1.776.5l-.324-.671a5.016,5.016,0,0,1,2.207-.564c1.451,0,2.267.732,2.267,2.063v3.886H390.4v-.684a2.513,2.513,0,0,1-1.859.792A1.89,1.89,0,0,1,386.414,187.765Zm2.3,1.115a2.317,2.317,0,0,0,1.679-.672v-1.127a3.091,3.091,0,0,0-1.656-.419c-.9,0-1.487.431-1.487,1.079C387.253,188.424,387.841,188.88,388.717,188.88Z"/>
    <path class="a6f3d7fc-ba98-4ed3-8f8d-974000f3dfee" d="M393.914,189.444h-.876v-8.575l.876-.181Z"/>
    <path class="a6f3d7fc-ba98-4ed3-8f8d-974000f3dfee" d="M395.882,192.083l-.456-.612a6.267,6.267,0,0,0,0-9.955l.456-.6a6.9,6.9,0,0,1,0,11.166Z"/>
  </g>
  <polyline class="f73ea9a5-fe0b-457c-8824-51f67391f7fb" points="704.147 160.34 704.147 210.34 544.147 210.34"/>
  <g>
    <polyline class="f73ea9a5-fe0b-457c-8824-51f67391f7fb" points="709.147 165.34 709.147 215.34 549.147 215.34"/>
    <rect class="a454653d-4959-4b86-b5bb-a2fdb84826b2" x="539.147" y="155.34" width="160" height="50"/>
  </g>
  <g>
    <path class="a6f3d7fc-ba98-4ed3-8f8d-974000f3dfee" d="M549.218,167.048h1.547l2.578,6.945,2.6-6.945h1.487l-3.286,8.4H552.48Z"/>
    <path class="a6f3d7fc-ba98-4ed3-8f8d-974000f3dfee" d="M561.1,169.339a3.114,3.114,0,1,1-3.022,3.106A3,3,0,0,1,561.1,169.339Zm1.679,3.119a1.7,1.7,0,1,0-3.358,0,1.7,1.7,0,1,0,3.358,0Z"/>
    <path class="a6f3d7fc-ba98-4ed3-8f8d-974000f3dfee" d="M566.88,175.444h-1.354v-8.575l1.354-.228Z"/>
    <path class="a6f3d7fc-ba98-4ed3-8f8d-974000f3dfee" d="M569.869,173.009a1.293,1.293,0,0,0,1.319,1.439,1.512,1.512,0,0,0,1.318-.743v-4.27h1.356v6.009h-1.356v-1a2.194,2.194,0,0,1-1.918,1.092,2.016,2.016,0,0,1-2.075-2.147v-3.958h1.356Z"/>
    <path class="a6f3d7fc-ba98-4ed3-8f8d-974000f3dfee" d="M575.534,169.435h1.354v.96a2.052,2.052,0,0,1,1.787-1.056,1.891,1.891,0,0,1,1.764,1.163,2.216,2.216,0,0,1,1.99-1.163,1.992,1.992,0,0,1,1.968,2.183v3.922h-1.355V171.81a1.216,1.216,0,0,0-1.212-1.379,1.43,1.43,0,0,0-1.211.707c.011.132.024.252.024.384v3.922h-1.355V171.81a1.216,1.216,0,0,0-1.212-1.379,1.4,1.4,0,0,0-1.188.683v4.33h-1.354Z"/>
    <path class="a6f3d7fc-ba98-4ed3-8f8d-974000f3dfee" d="M588.828,175.564a3.055,3.055,0,0,1-3.059-3.119,2.96,2.96,0,0,1,2.927-3.106,2.884,2.884,0,0,1,2.842,3.095v.336H587.1a1.837,1.837,0,0,0,1.8,1.643,1.956,1.956,0,0,0,1.427-.564l.887.827A3.472,3.472,0,0,1,588.828,175.564Zm-1.7-3.622h3.129a1.644,1.644,0,0,0-1.57-1.5A1.614,1.614,0,0,0,587.125,171.942Z"/>
    <path class="a6f3d7fc-ba98-4ed3-8f8d-974000f3dfee" d="M595.717,173.837a3.464,3.464,0,0,0,1.931.684c.72,0,1.212-.324,1.212-.8,0-.372-.252-.576-.828-.684l-1.068-.18c-1.163-.216-1.739-.755-1.739-1.655,0-1.127.924-1.859,2.327-1.859a4.228,4.228,0,0,1,2.363.72l-.636.887a3.279,3.279,0,0,0-1.811-.575c-.624,0-1.031.263-1.031.707,0,.384.216.552.852.66l1.055.192c1.2.228,1.775.779,1.775,1.679a2.2,2.2,0,0,1-2.447,1.955,4.026,4.026,0,0,1-2.59-.816Z"/>
    <path class="a6f3d7fc-ba98-4ed3-8f8d-974000f3dfee" d="M602.112,170.515H600.9v-1.08h1.211V167.78l1.355-.288v1.943h1.679v1.08h-1.679v3.046c0,.587.228.815.84.815a2.5,2.5,0,0,0,.816-.144v1.14a4.267,4.267,0,0,1-1.165.168c-1.21,0-1.846-.576-1.846-1.679Z"/>
    <path class="a6f3d7fc-ba98-4ed3-8f8d-974000f3dfee" d="M609.083,169.339a3.114,3.114,0,1,1-3.023,3.106A3,3,0,0,1,609.083,169.339Zm1.678,3.119a1.7,1.7,0,1,0-3.357,0,1.695,1.695,0,1,0,3.357,0Z"/>
    <path class="a6f3d7fc-ba98-4ed3-8f8d-974000f3dfee" d="M613.513,169.435h1.355v1.308a1.783,1.783,0,0,1,1.655-1.416,1.607,1.607,0,0,1,.588.12v1.187a1.925,1.925,0,0,0-.743-.143,1.648,1.648,0,0,0-1.5.995v3.958h-1.355Z"/>
    <path class="a6f3d7fc-ba98-4ed3-8f8d-974000f3dfee" d="M617.929,173.717c0-1.08.875-1.763,2.29-1.763a3.705,3.705,0,0,1,1.619.372v-.66c0-.791-.455-1.2-1.379-1.2a4.156,4.156,0,0,0-1.751.467l-.479-.983a5.76,5.76,0,0,1,2.494-.612c1.56,0,2.459.792,2.459,2.183v3.922h-1.344v-.612a2.506,2.506,0,0,1-1.787.708A1.894,1.894,0,0,1,617.929,173.717Zm2.494.875a2.139,2.139,0,0,0,1.415-.491v-.984a3.1,3.1,0,0,0-1.39-.288c-.768,0-1.248.336-1.248.864C619.2,174.245,619.68,174.592,620.423,174.592Z"/>
    <path class="a6f3d7fc-ba98-4ed3-8f8d-974000f3dfee" d="M624.552,172.434a2.9,2.9,0,0,1,2.807-3.047,2.262,2.262,0,0,1,1.763.816v-.768h1.343v6.213c0,1.547-1.007,2.4-2.83,2.4a5.23,5.23,0,0,1-2.411-.575l.48-1.008a4.089,4.089,0,0,0,1.871.516c1.008,0,1.535-.456,1.535-1.331v-1.02a2.333,2.333,0,0,1-1.835.852A2.879,2.879,0,0,1,624.552,172.434Zm3.131,1.919a1.8,1.8,0,0,0,1.427-.66v-2.519a1.866,1.866,0,0,0-1.427-.648,1.793,1.793,0,0,0-1.787,1.908A1.817,1.817,0,0,0,627.683,174.353Z"/>
    <path class="a6f3d7fc-ba98-4ed3-8f8d-974000f3dfee" d="M634.918,175.564a3.055,3.055,0,0,1-3.058-3.119,2.96,2.96,0,0,1,2.927-3.106,2.884,2.884,0,0,1,2.842,3.095v.336h-4.438a1.837,1.837,0,0,0,1.8,1.643,1.952,1.952,0,0,0,1.426-.564l.888.827A3.473,3.473,0,0,1,634.918,175.564Zm-1.7-3.622h3.13a1.644,1.644,0,0,0-1.57-1.5A1.616,1.616,0,0,0,633.215,171.942Z"/>
  </g>
  <rect class="b7731893-6e87-471a-becd-306d6f002895" x="20.147" y="361.555" width="230" height="150"/>
  <g>
    <polyline class="a7365a3a-73cc-4d76-9f85-90d09c836331" points="230.147 465.186 230.147 466.686 228.647 466.686"/>
    <line class="e83acaa1-d193-49f1-b509-941a3b96a99c" x1="225.679" y1="466.686" x2="43.131" y2="466.686"/>
    <polyline class="a7365a3a-73cc-4d76-9f85-90d09c836331" points="41.647 466.686 40.147 466.686 40.147 465.186"/>
    <line class="fc594592-47c0-4205-9ffc-ee6ae7ba6e51" x1="40.147" y1="462.148" x2="40.147" y2="384.704"/>
    <polyline class="a7365a3a-73cc-4d76-9f85-90d09c836331" points="40.147 383.186 40.147 381.686 41.647 381.686"/>
    <line class="e83acaa1-d193-49f1-b509-941a3b96a99c" x1="44.615" y1="381.686" x2="227.163" y2="381.686"/>
    <polyline class="a7365a3a-73cc-4d76-9f85-90d09c836331" points="228.647 381.686 230.147 381.686 230.147 383.186"/>
    <line class="fc594592-47c0-4205-9ffc-ee6ae7ba6e51" x1="230.147" y1="386.223" x2="230.147" y2="463.667"/>
  </g>
  <polyline class="b95743e8-eb70-450c-9bb6-c22f0802a27e" points="220.147 406.686 220.147 456.686 60.147 456.686"/>
  <polyline class="b95743e8-eb70-450c-9bb6-c22f0802a27e" points="215.147 401.686 215.147 451.686 55.147 451.686"/>
  <g>
    <rect class="a454653d-4959-4b86-b5bb-a2fdb84826b2" x="50.647" y="397.186" width="159" height="49"/>
    <path class="fed2aa08-cdef-4f82-8cee-2310b70e5e58" d="M209.147,397.686v48h-158v-48h158m1-1h-160v50h160v-50Z"/>
  </g>
  <g>
    <path class="a6f3d7fc-ba98-4ed3-8f8d-974000f3dfee" d="M67.392,414.523l.947.911a4.31,4.31,0,1,1,.036-5.684l-.972.959a2.953,2.953,0,1,0-2.255,4.9A2.851,2.851,0,0,0,67.392,414.523Z"/>
    <path class="a6f3d7fc-ba98-4ed3-8f8d-974000f3dfee" d="M72.409,410.685a3.114,3.114,0,1,1-3.022,3.106A3,3,0,0,1,72.409,410.685Zm1.679,3.118a1.7,1.7,0,1,0-3.358,0,1.7,1.7,0,1,0,3.358,0Z"/>
    <path class="a6f3d7fc-ba98-4ed3-8f8d-974000f3dfee" d="M76.839,410.781h1.354v.959a2.053,2.053,0,0,1,1.787-1.055,1.89,1.89,0,0,1,1.764,1.163,2.216,2.216,0,0,1,1.99-1.163,1.991,1.991,0,0,1,1.968,2.183v3.922H84.347v-3.634a1.217,1.217,0,0,0-1.212-1.38,1.432,1.432,0,0,0-1.211.708c.012.132.023.252.023.384v3.922H80.593v-3.634a1.217,1.217,0,0,0-1.212-1.38,1.4,1.4,0,0,0-1.188.684v4.33H76.839Z"/>
    <path class="a6f3d7fc-ba98-4ed3-8f8d-974000f3dfee" d="M87.351,410.781h1.331v.864a2.263,2.263,0,0,1,1.871-.912,2.883,2.883,0,0,1,2.722,3.058,2.913,2.913,0,0,1-2.818,3.059,2.249,2.249,0,0,1-1.752-.78v3.262H87.351Zm1.354,1.763v2.506a1.845,1.845,0,0,0,1.44.66,1.924,1.924,0,0,0,0-3.838A1.765,1.765,0,0,0,88.705,412.544Z"/>
    <path class="a6f3d7fc-ba98-4ed3-8f8d-974000f3dfee" d="M96,414.355a1.294,1.294,0,0,0,1.319,1.439,1.518,1.518,0,0,0,1.32-.744v-4.269H100v6.009H98.641v-1a2.2,2.2,0,0,1-1.92,1.091,2.015,2.015,0,0,1-2.075-2.146v-3.958H96Z"/>
    <path class="a6f3d7fc-ba98-4ed3-8f8d-974000f3dfee" d="M102.41,411.86H101.2v-1.079h1.211v-1.655l1.356-.288v1.943h1.678v1.079h-1.678v3.047c0,.587.227.815.839.815a2.491,2.491,0,0,0,.816-.144v1.14a4.264,4.264,0,0,1-1.164.167c-1.211,0-1.847-.575-1.847-1.678Z"/>
    <path class="a6f3d7fc-ba98-4ed3-8f8d-974000f3dfee" d="M109.417,416.91a3.056,3.056,0,0,1-3.059-3.119,2.96,2.96,0,0,1,2.927-3.106,2.884,2.884,0,0,1,2.842,3.094v.336h-4.438a1.837,1.837,0,0,0,1.8,1.643,1.951,1.951,0,0,0,1.427-.564l.888.828A3.474,3.474,0,0,1,109.417,416.91Zm-1.7-3.622h3.13a1.646,1.646,0,0,0-1.571-1.5A1.615,1.615,0,0,0,107.714,413.288Z"/>
    <path class="a6f3d7fc-ba98-4ed3-8f8d-974000f3dfee" d="M116.211,410.781h1.354v.983a2.183,2.183,0,0,1,1.908-1.079,2.022,2.022,0,0,1,2.075,2.147v3.958h-1.356v-3.575a1.294,1.294,0,0,0-1.319-1.439,1.542,1.542,0,0,0-1.308.72v4.294h-1.354Z"/>
    <path class="a6f3d7fc-ba98-4ed3-8f8d-974000f3dfee" d="M125.94,410.685a3.114,3.114,0,1,1-3.022,3.106A3,3,0,0,1,125.94,410.685Zm1.679,3.118a1.7,1.7,0,1,0-3.357,0,1.7,1.7,0,1,0,3.357,0Z"/>
    <path class="a6f3d7fc-ba98-4ed3-8f8d-974000f3dfee" d="M134.663,415.986a2.31,2.31,0,0,1-1.847.864,3.075,3.075,0,0,1,.084-6.117,2.293,2.293,0,0,1,1.751.791v-3.31l1.356-.228v8.8h-1.344Zm-1.438-.276a1.8,1.8,0,0,0,1.426-.66v-2.53a1.861,1.861,0,0,0-1.426-.648,1.924,1.924,0,0,0,0,3.838Z"/>
    <path class="a6f3d7fc-ba98-4ed3-8f8d-974000f3dfee" d="M140.473,416.91a3.056,3.056,0,0,1-3.059-3.119,2.96,2.96,0,0,1,2.927-3.106,2.885,2.885,0,0,1,2.843,3.094v.336h-4.439a1.837,1.837,0,0,0,1.8,1.643,1.952,1.952,0,0,0,1.427-.564l.887.828A3.472,3.472,0,0,1,140.473,416.91Zm-1.7-3.622H141.9a1.644,1.644,0,0,0-1.57-1.5A1.614,1.614,0,0,0,138.77,413.288Z"/>
    <path class="a6f3d7fc-ba98-4ed3-8f8d-974000f3dfee" d="M144.662,415.183a3.465,3.465,0,0,0,1.931.683c.719,0,1.212-.324,1.212-.8,0-.371-.252-.575-.828-.683l-1.068-.18c-1.163-.216-1.739-.756-1.739-1.655,0-1.127.924-1.859,2.327-1.859a4.229,4.229,0,0,1,2.362.719l-.635.888a3.283,3.283,0,0,0-1.811-.576c-.624,0-1.031.264-1.031.708,0,.384.216.552.851.659l1.056.192c1.2.228,1.774.78,1.774,1.68a2.2,2.2,0,0,1-2.446,1.955,4.031,4.031,0,0,1-2.591-.816Z"/>
    <path class="a6f3d7fc-ba98-4ed3-8f8d-974000f3dfee" d="M63.89,422.25l.455.612a6.268,6.268,0,0,0,0,9.954l-.455.6a6.9,6.9,0,0,1,0-11.166Z"/>
    <path class="a6f3d7fc-ba98-4ed3-8f8d-974000f3dfee" d="M66.734,430.79h-.876v-8.576l.876-.18Z"/>
    <path class="a6f3d7fc-ba98-4ed3-8f8d-974000f3dfee" d="M71.113,424.841a3.041,3.041,0,1,1-2.842,3.022A2.872,2.872,0,0,1,71.113,424.841Zm1.991,3.034a2,2,0,1,0-3.97,0,2,2,0,1,0,3.97,0Z"/>
    <path class="a6f3d7fc-ba98-4ed3-8f8d-974000f3dfee" d="M79.812,429.41l.541.54a3.044,3.044,0,0,1-2.219.947,3.031,3.031,0,0,1,0-6.056,3.2,3.2,0,0,1,2.255.911l-.565.612a2.3,2.3,0,0,0-1.654-.732,2.245,2.245,0,0,0,.012,4.474A2.154,2.154,0,0,0,79.812,429.41Z"/>
    <path class="a6f3d7fc-ba98-4ed3-8f8d-974000f3dfee" d="M81.3,429.11c0-1.043.875-1.738,2.194-1.738a3.384,3.384,0,0,1,1.787.455v-.8a1.318,1.318,0,0,0-1.511-1.451,3.875,3.875,0,0,0-1.775.5l-.324-.672a5.028,5.028,0,0,1,2.207-.563c1.451,0,2.266.731,2.266,2.063v3.886h-.863v-.684a2.509,2.509,0,0,1-1.858.791A1.889,1.889,0,0,1,81.3,429.11Zm2.3,1.116a2.314,2.314,0,0,0,1.679-.672v-1.127a3.085,3.085,0,0,0-1.655-.42c-.9,0-1.487.432-1.487,1.079C82.142,429.77,82.729,430.226,83.605,430.226Z"/>
    <path class="a6f3d7fc-ba98-4ed3-8f8d-974000f3dfee" d="M88.8,430.79h-.876v-8.576l.876-.18Z"/>
    <path class="a6f3d7fc-ba98-4ed3-8f8d-974000f3dfee" d="M96.036,430.9a2.921,2.921,0,0,1-2.9-3.034,2.848,2.848,0,0,1,2.759-3.022,2.764,2.764,0,0,1,2.686,2.95v.264H93.985a2.134,2.134,0,0,0,2.087,2.075,2.4,2.4,0,0,0,1.608-.6l.55.588A3.409,3.409,0,0,1,96.036,430.9Zm-2.027-3.466h3.706A1.933,1.933,0,0,0,95.88,425.6,1.955,1.955,0,0,0,94.009,427.431Z"/>
    <path class="a6f3d7fc-ba98-4ed3-8f8d-974000f3dfee" d="M100.082,424.937h.863v.839a2.311,2.311,0,0,1,1.9-.911,3.019,3.019,0,0,1-.048,6.009,2.374,2.374,0,0,1-1.835-.816V433.3h-.876Zm.876,1.5V429.3a2.056,2.056,0,0,0,1.667.816,2.252,2.252,0,0,0,0-4.486A2,2,0,0,0,100.958,426.436Z"/>
    <path class="a6f3d7fc-ba98-4ed3-8f8d-974000f3dfee" d="M107.078,422.214l.876-.18v3.85a2.106,2.106,0,0,1,1.858-1.043A2.037,2.037,0,0,1,111.936,427v3.79h-.876v-3.539a1.517,1.517,0,0,0-1.571-1.679,1.725,1.725,0,0,0-1.535.9v4.318h-.876Z"/>
    <path class="a6f3d7fc-ba98-4ed3-8f8d-974000f3dfee" d="M116.34,430.9a2.92,2.92,0,0,1-2.9-3.034,2.848,2.848,0,0,1,2.758-3.022,2.765,2.765,0,0,1,2.687,2.95v.264h-4.594a2.134,2.134,0,0,0,2.087,2.075,2.388,2.388,0,0,0,1.606-.6l.552.588A3.413,3.413,0,0,1,116.34,430.9Zm-2.028-3.466h3.707a1.933,1.933,0,0,0-1.835-1.835A1.957,1.957,0,0,0,114.312,427.431Z"/>
    <path class="a6f3d7fc-ba98-4ed3-8f8d-974000f3dfee" d="M120.386,424.937h.876v.911A2,2,0,0,1,123,424.841a1.925,1.925,0,0,1,1.8,1.139,2.16,2.16,0,0,1,1.954-1.139,1.992,1.992,0,0,1,1.991,2.171v3.778h-.875v-3.562c0-1.02-.552-1.656-1.439-1.656a1.626,1.626,0,0,0-1.463.924,2.5,2.5,0,0,1,.048.516v3.778h-.876v-3.562a1.455,1.455,0,0,0-1.452-1.656,1.6,1.6,0,0,0-1.426.864v4.354h-.876Z"/>
    <path class="a6f3d7fc-ba98-4ed3-8f8d-974000f3dfee" d="M133.164,430.9a2.921,2.921,0,0,1-2.9-3.034,2.848,2.848,0,0,1,2.759-3.022,2.764,2.764,0,0,1,2.686,2.95v.264h-4.594a2.134,2.134,0,0,0,2.087,2.075,2.39,2.39,0,0,0,1.607-.6l.551.588A3.411,3.411,0,0,1,133.164,430.9Zm-2.027-3.466h3.706a1.933,1.933,0,0,0-1.835-1.835A1.955,1.955,0,0,0,131.137,427.431Z"/>
    <path class="a6f3d7fc-ba98-4ed3-8f8d-974000f3dfee" d="M137.209,424.937h.876v1.187a1.748,1.748,0,0,1,1.631-1.3,1.663,1.663,0,0,1,.552.084v.792a2.2,2.2,0,0,0-.613-.109,1.669,1.669,0,0,0-1.57,1.188v4.006h-.876Z"/>
    <path class="a6f3d7fc-ba98-4ed3-8f8d-974000f3dfee" d="M141.121,429.11c0-1.043.875-1.738,2.194-1.738a3.39,3.39,0,0,1,1.788.455v-.8a1.318,1.318,0,0,0-1.511-1.451,3.879,3.879,0,0,0-1.776.5l-.324-.672a5.028,5.028,0,0,1,2.207-.563c1.451,0,2.267.731,2.267,2.063v3.886H145.1v-.684a2.512,2.512,0,0,1-1.859.791A1.889,1.889,0,0,1,141.121,429.11Zm2.3,1.116a2.317,2.317,0,0,0,1.679-.672v-1.127a3.091,3.091,0,0,0-1.656-.42c-.9,0-1.487.432-1.487,1.079C141.96,429.77,142.548,430.226,143.424,430.226Z"/>
    <path class="a6f3d7fc-ba98-4ed3-8f8d-974000f3dfee" d="M148.621,430.79h-.876v-8.576l.876-.18Z"/>
    <path class="a6f3d7fc-ba98-4ed3-8f8d-974000f3dfee" d="M150.589,433.428l-.456-.612a6.266,6.266,0,0,0,0-9.954l.456-.6a6.9,6.9,0,0,1,0,11.166Z"/>
  </g>
  <rect class="b7731893-6e87-471a-becd-306d6f002895" x="510.147" y="361.555" width="230" height="150"/>
  <g>
    <polyline class="a7365a3a-73cc-4d76-9f85-90d09c836331" points="720.147 465.186 720.147 466.686 718.647 466.686"/>
    <line class="e83acaa1-d193-49f1-b509-941a3b96a99c" x1="715.679" y1="466.686" x2="533.131" y2="466.686"/>
    <polyline class="a7365a3a-73cc-4d76-9f85-90d09c836331" points="531.647 466.686 530.147 466.686 530.147 465.186"/>
    <line class="fc594592-47c0-4205-9ffc-ee6ae7ba6e51" x1="530.147" y1="462.148" x2="530.147" y2="384.704"/>
    <polyline class="a7365a3a-73cc-4d76-9f85-90d09c836331" points="530.147 383.186 530.147 381.686 531.647 381.686"/>
    <line class="e83acaa1-d193-49f1-b509-941a3b96a99c" x1="534.615" y1="381.686" x2="717.163" y2="381.686"/>
    <polyline class="a7365a3a-73cc-4d76-9f85-90d09c836331" points="718.647 381.686 720.147 381.686 720.147 383.186"/>
    <line class="fc594592-47c0-4205-9ffc-ee6ae7ba6e51" x1="720.147" y1="386.223" x2="720.147" y2="463.667"/>
  </g>
  <polyline class="b95743e8-eb70-450c-9bb6-c22f0802a27e" points="710.147 406.686 710.147 456.686 550.147 456.686"/>
  <polyline class="b95743e8-eb70-450c-9bb6-c22f0802a27e" points="705.147 401.686 705.147 451.686 545.147 451.686"/>
  <g>
    <rect class="a454653d-4959-4b86-b5bb-a2fdb84826b2" x="540.647" y="397.186" width="159" height="49"/>
    <path class="fed2aa08-cdef-4f82-8cee-2310b70e5e58" d="M699.147,397.686v48h-158v-48h158m1-1h-160v50h160v-50Z"/>
  </g>
  <g>
    <path class="a6f3d7fc-ba98-4ed3-8f8d-974000f3dfee" d="M557.392,414.523l.947.911a4.31,4.31,0,1,1,.036-5.684l-.972.959a2.953,2.953,0,1,0-2.255,4.9A2.851,2.851,0,0,0,557.392,414.523Z"/>
    <path class="a6f3d7fc-ba98-4ed3-8f8d-974000f3dfee" d="M562.409,410.685a3.114,3.114,0,1,1-3.022,3.106A3,3,0,0,1,562.409,410.685Zm1.679,3.118a1.7,1.7,0,1,0-3.358,0,1.7,1.7,0,1,0,3.358,0Z"/>
    <path class="a6f3d7fc-ba98-4ed3-8f8d-974000f3dfee" d="M566.839,410.781h1.354v.959a2.053,2.053,0,0,1,1.787-1.055,1.89,1.89,0,0,1,1.764,1.163,2.216,2.216,0,0,1,1.99-1.163,1.991,1.991,0,0,1,1.968,2.183v3.922h-1.355v-3.634a1.217,1.217,0,0,0-1.212-1.38,1.432,1.432,0,0,0-1.211.708c.012.132.023.252.023.384v3.922h-1.354v-3.634a1.217,1.217,0,0,0-1.212-1.38,1.4,1.4,0,0,0-1.188.684v4.33h-1.354Z"/>
    <path class="a6f3d7fc-ba98-4ed3-8f8d-974000f3dfee" d="M577.351,410.781h1.331v.864a2.263,2.263,0,0,1,1.871-.912,2.883,2.883,0,0,1,2.722,3.058,2.913,2.913,0,0,1-2.818,3.059,2.249,2.249,0,0,1-1.752-.78v3.262h-1.354Zm1.354,1.763v2.506a1.845,1.845,0,0,0,1.44.66,1.924,1.924,0,0,0,0-3.838A1.765,1.765,0,0,0,578.705,412.544Z"/>
    <path class="a6f3d7fc-ba98-4ed3-8f8d-974000f3dfee" d="M586,414.355a1.294,1.294,0,0,0,1.319,1.439,1.518,1.518,0,0,0,1.32-.744v-4.269H590v6.009h-1.354v-1a2.2,2.2,0,0,1-1.92,1.091,2.015,2.015,0,0,1-2.075-2.146v-3.958H586Z"/>
    <path class="a6f3d7fc-ba98-4ed3-8f8d-974000f3dfee" d="M592.41,411.86H591.2v-1.079h1.211v-1.655l1.356-.288v1.943h1.678v1.079h-1.678v3.047c0,.587.227.815.839.815a2.491,2.491,0,0,0,.816-.144v1.14a4.264,4.264,0,0,1-1.164.167c-1.211,0-1.847-.575-1.847-1.678Z"/>
    <path class="a6f3d7fc-ba98-4ed3-8f8d-974000f3dfee" d="M599.417,416.91a3.056,3.056,0,0,1-3.059-3.119,2.96,2.96,0,0,1,2.927-3.106,2.884,2.884,0,0,1,2.842,3.094v.336h-4.438a1.837,1.837,0,0,0,1.8,1.643,1.951,1.951,0,0,0,1.427-.564l.888.828A3.474,3.474,0,0,1,599.417,416.91Zm-1.7-3.622h3.13a1.646,1.646,0,0,0-1.571-1.5A1.615,1.615,0,0,0,597.714,413.288Z"/>
    <path class="a6f3d7fc-ba98-4ed3-8f8d-974000f3dfee" d="M606.211,410.781h1.354v.983a2.183,2.183,0,0,1,1.908-1.079,2.022,2.022,0,0,1,2.075,2.147v3.958h-1.356v-3.575a1.294,1.294,0,0,0-1.319-1.439,1.542,1.542,0,0,0-1.308.72v4.294h-1.354Z"/>
    <path class="a6f3d7fc-ba98-4ed3-8f8d-974000f3dfee" d="M615.94,410.685a3.114,3.114,0,1,1-3.022,3.106A3,3,0,0,1,615.94,410.685Zm1.679,3.118a1.7,1.7,0,1,0-3.357,0,1.7,1.7,0,1,0,3.357,0Z"/>
    <path class="a6f3d7fc-ba98-4ed3-8f8d-974000f3dfee" d="M624.663,415.986a2.31,2.31,0,0,1-1.847.864,3.075,3.075,0,0,1,.084-6.117,2.293,2.293,0,0,1,1.751.791v-3.31l1.356-.228v8.8h-1.344Zm-1.438-.276a1.8,1.8,0,0,0,1.426-.66v-2.53a1.861,1.861,0,0,0-1.426-.648,1.924,1.924,0,0,0,0,3.838Z"/>
    <path class="a6f3d7fc-ba98-4ed3-8f8d-974000f3dfee" d="M630.473,416.91a3.056,3.056,0,0,1-3.059-3.119,2.96,2.96,0,0,1,2.927-3.106,2.885,2.885,0,0,1,2.843,3.094v.336h-4.439a1.837,1.837,0,0,0,1.8,1.643,1.952,1.952,0,0,0,1.427-.564l.887.828A3.472,3.472,0,0,1,630.473,416.91Zm-1.7-3.622H631.9a1.644,1.644,0,0,0-1.57-1.5A1.614,1.614,0,0,0,628.77,413.288Z"/>
    <path class="a6f3d7fc-ba98-4ed3-8f8d-974000f3dfee" d="M634.662,415.183a3.465,3.465,0,0,0,1.931.683c.719,0,1.212-.324,1.212-.8,0-.371-.252-.575-.828-.683l-1.068-.18c-1.163-.216-1.739-.756-1.739-1.655,0-1.127.924-1.859,2.327-1.859a4.229,4.229,0,0,1,2.362.719l-.635.888a3.283,3.283,0,0,0-1.811-.576c-.624,0-1.031.264-1.031.708,0,.384.216.552.851.659l1.056.192c1.2.228,1.774.78,1.774,1.68a2.2,2.2,0,0,1-2.446,1.955,4.031,4.031,0,0,1-2.591-.816Z"/>
    <path class="a6f3d7fc-ba98-4ed3-8f8d-974000f3dfee" d="M553.89,422.25l.455.612a6.268,6.268,0,0,0,0,9.954l-.455.6a6.9,6.9,0,0,1,0-11.166Z"/>
    <path class="a6f3d7fc-ba98-4ed3-8f8d-974000f3dfee" d="M556.734,430.79h-.876v-8.576l.876-.18Z"/>
    <path class="a6f3d7fc-ba98-4ed3-8f8d-974000f3dfee" d="M561.113,424.841a3.041,3.041,0,1,1-2.842,3.022A2.872,2.872,0,0,1,561.113,424.841Zm1.991,3.034a2,2,0,1,0-3.97,0,2,2,0,1,0,3.97,0Z"/>
    <path class="a6f3d7fc-ba98-4ed3-8f8d-974000f3dfee" d="M569.812,429.41l.541.54a3.044,3.044,0,0,1-2.219.947,3.031,3.031,0,0,1,0-6.056,3.2,3.2,0,0,1,2.255.911l-.565.612a2.3,2.3,0,0,0-1.654-.732,2.245,2.245,0,0,0,.012,4.474A2.154,2.154,0,0,0,569.812,429.41Z"/>
    <path class="a6f3d7fc-ba98-4ed3-8f8d-974000f3dfee" d="M571.3,429.11c0-1.043.875-1.738,2.194-1.738a3.384,3.384,0,0,1,1.787.455v-.8a1.318,1.318,0,0,0-1.511-1.451,3.875,3.875,0,0,0-1.775.5l-.324-.672a5.028,5.028,0,0,1,2.207-.563c1.451,0,2.266.731,2.266,2.063v3.886h-.863v-.684a2.509,2.509,0,0,1-1.858.791A1.889,1.889,0,0,1,571.3,429.11Zm2.3,1.116a2.314,2.314,0,0,0,1.679-.672v-1.127a3.085,3.085,0,0,0-1.655-.42c-.9,0-1.487.432-1.487,1.079C572.142,429.77,572.729,430.226,573.605,430.226Z"/>
    <path class="a6f3d7fc-ba98-4ed3-8f8d-974000f3dfee" d="M578.8,430.79h-.876v-8.576l.876-.18Z"/>
    <path class="a6f3d7fc-ba98-4ed3-8f8d-974000f3dfee" d="M586.036,430.9a2.921,2.921,0,0,1-2.9-3.034,2.848,2.848,0,0,1,2.759-3.022,2.764,2.764,0,0,1,2.686,2.95v.264h-4.594a2.134,2.134,0,0,0,2.087,2.075,2.4,2.4,0,0,0,1.608-.6l.55.588A3.409,3.409,0,0,1,586.036,430.9Zm-2.027-3.466h3.706a1.933,1.933,0,0,0-1.835-1.835A1.955,1.955,0,0,0,584.009,427.431Z"/>
    <path class="a6f3d7fc-ba98-4ed3-8f8d-974000f3dfee" d="M590.082,424.937h.863v.839a2.311,2.311,0,0,1,1.9-.911,3.019,3.019,0,0,1-.048,6.009,2.374,2.374,0,0,1-1.835-.816V433.3h-.876Zm.876,1.5V429.3a2.056,2.056,0,0,0,1.667.816,2.252,2.252,0,0,0,0-4.486A2,2,0,0,0,590.958,426.436Z"/>
    <path class="a6f3d7fc-ba98-4ed3-8f8d-974000f3dfee" d="M597.078,422.214l.876-.18v3.85a2.106,2.106,0,0,1,1.858-1.043A2.037,2.037,0,0,1,601.936,427v3.79h-.876v-3.539a1.517,1.517,0,0,0-1.571-1.679,1.725,1.725,0,0,0-1.535.9v4.318h-.876Z"/>
    <path class="a6f3d7fc-ba98-4ed3-8f8d-974000f3dfee" d="M606.34,430.9a2.92,2.92,0,0,1-2.9-3.034,2.848,2.848,0,0,1,2.758-3.022,2.765,2.765,0,0,1,2.687,2.95v.264h-4.594a2.134,2.134,0,0,0,2.087,2.075,2.388,2.388,0,0,0,1.606-.6l.552.588A3.413,3.413,0,0,1,606.34,430.9Zm-2.028-3.466h3.707a1.933,1.933,0,0,0-1.835-1.835A1.957,1.957,0,0,0,604.312,427.431Z"/>
    <path class="a6f3d7fc-ba98-4ed3-8f8d-974000f3dfee" d="M610.386,424.937h.876v.911A2,2,0,0,1,613,424.841a1.925,1.925,0,0,1,1.8,1.139,2.16,2.16,0,0,1,1.954-1.139,1.992,1.992,0,0,1,1.991,2.171v3.778h-.875v-3.562c0-1.02-.552-1.656-1.439-1.656a1.626,1.626,0,0,0-1.463.924,2.5,2.5,0,0,1,.048.516v3.778h-.876v-3.562a1.455,1.455,0,0,0-1.452-1.656,1.6,1.6,0,0,0-1.426.864v4.354h-.876Z"/>
    <path class="a6f3d7fc-ba98-4ed3-8f8d-974000f3dfee" d="M623.164,430.9a2.921,2.921,0,0,1-2.9-3.034,2.848,2.848,0,0,1,2.759-3.022,2.764,2.764,0,0,1,2.686,2.95v.264h-4.594a2.134,2.134,0,0,0,2.087,2.075,2.39,2.39,0,0,0,1.607-.6l.551.588A3.411,3.411,0,0,1,623.164,430.9Zm-2.027-3.466h3.706a1.933,1.933,0,0,0-1.835-1.835A1.955,1.955,0,0,0,621.137,427.431Z"/>
    <path class="a6f3d7fc-ba98-4ed3-8f8d-974000f3dfee" d="M627.209,424.937h.876v1.187a1.748,1.748,0,0,1,1.631-1.3,1.663,1.663,0,0,1,.552.084v.792a2.2,2.2,0,0,0-.613-.109,1.669,1.669,0,0,0-1.57,1.188v4.006h-.876Z"/>
    <path class="a6f3d7fc-ba98-4ed3-8f8d-974000f3dfee" d="M631.121,429.11c0-1.043.875-1.738,2.194-1.738a3.39,3.39,0,0,1,1.788.455v-.8a1.318,1.318,0,0,0-1.511-1.451,3.879,3.879,0,0,0-1.776.5l-.324-.672a5.028,5.028,0,0,1,2.207-.563c1.451,0,2.267.731,2.267,2.063v3.886H635.1v-.684a2.512,2.512,0,0,1-1.859.791A1.889,1.889,0,0,1,631.121,429.11Zm2.3,1.116a2.317,2.317,0,0,0,1.679-.672v-1.127a3.091,3.091,0,0,0-1.656-.42c-.9,0-1.487.432-1.487,1.079C631.96,429.77,632.548,430.226,633.424,430.226Z"/>
    <path class="a6f3d7fc-ba98-4ed3-8f8d-974000f3dfee" d="M638.621,430.79h-.876v-8.576l.876-.18Z"/>
    <path class="a6f3d7fc-ba98-4ed3-8f8d-974000f3dfee" d="M640.589,433.428l-.456-.612a6.266,6.266,0,0,0,0-9.954l.456-.6a6.9,6.9,0,0,1,0,11.166Z"/>
  </g>
  <g>
    <polyline class="a7365a3a-73cc-4d76-9f85-90d09c836331" points="719.147 223.84 719.147 225.34 717.647 225.34"/>
    <line class="e83acaa1-d193-49f1-b509-941a3b96a99c" x1="714.679" y1="225.34" x2="532.131" y2="225.34"/>
    <polyline class="a7365a3a-73cc-4d76-9f85-90d09c836331" points="530.647 225.34 529.147 225.34 529.147 223.84"/>
    <line class="fc594592-47c0-4205-9ffc-ee6ae7ba6e51" x1="529.147" y1="220.803" x2="529.147" y2="143.358"/>
    <polyline class="a7365a3a-73cc-4d76-9f85-90d09c836331" points="529.147 141.84 529.147 140.34 530.647 140.34"/>
    <line class="e83acaa1-d193-49f1-b509-941a3b96a99c" x1="533.615" y1="140.34" x2="716.163" y2="140.34"/>
    <polyline class="a7365a3a-73cc-4d76-9f85-90d09c836331" points="717.647 140.34 719.147 140.34 719.147 141.84"/>
    <line class="fc594592-47c0-4205-9ffc-ee6ae7ba6e51" x1="719.147" y1="144.877" x2="719.147" y2="222.321"/>
  </g>
  <g>
    <polyline class="a46bfe47-5814-442b-a92f-daf11e66e789" points="759 101.786 759 100.286 757.5 100.286"/>
    <line class="f6ec203b-bc88-4336-8c2d-da83ffd0519a" x1="754.512" y1="100.284" x2="253.994" y2="100.064"/>
    <polyline class="a46bfe47-5814-442b-a92f-daf11e66e789" points="252.5 100.063 251 100.063 251 101.563"/>
    <line class="fa456af5-bcad-4cf6-851b-71ee04d42f0d" x1="251" y1="104.512" x2="251" y2="132.53"/>
    <polyline class="a46bfe47-5814-442b-a92f-daf11e66e789" points="251 134.005 251 135.505 249.5 135.504"/>
    <line class="aeeffcb3-9799-45c3-a612-239d4bafad17" x1="246.524" y1="135.502" x2="3.988" y2="135.342"/>
    <polyline class="a46bfe47-5814-442b-a92f-daf11e66e789" points="2.5 135.341 1 135.34 1 136.84"/>
    <line class="a4253cd7-4e46-412f-99a1-97084b5f1266" x1="1" y1="139.841" x2="1" y2="528.499"/>
    <polyline class="a46bfe47-5814-442b-a92f-daf11e66e789" points="1 530 1 531.5 2.5 531.5"/>
    <line class="b15f197a-4680-46ca-a99f-8cf4ca80c5e4" x1="5.508" y1="531.5" x2="755.996" y2="531.5"/>
    <polyline class="a46bfe47-5814-442b-a92f-daf11e66e789" points="757.5 531.5 759 531.5 759 530"/>
    <line class="bf383686-6861-41b8-b1c0-af686d235799" x1="759" y1="527.005" x2="759" y2="103.283"/>
  </g>
  <g>
    <rect class="a454653d-4959-4b86-b5bb-a2fdb84826b2" x="50.442" y="80.34" width="160" height="35"/>
    <g>
      <path class="a6f3d7fc-ba98-4ed3-8f8d-974000f3dfee" d="M67.685,98.9l.947.911a4.31,4.31,0,1,1,.036-5.684l-.972.959a2.953,2.953,0,1,0-2.255,4.905A2.851,2.851,0,0,0,67.685,98.9Z"/>
      <path class="a6f3d7fc-ba98-4ed3-8f8d-974000f3dfee" d="M72.7,95.059a3.114,3.114,0,1,1-3.022,3.106A3,3,0,0,1,72.7,95.059Zm1.679,3.118a1.7,1.7,0,1,0-3.358,0,1.7,1.7,0,1,0,3.358,0Z"/>
      <path class="a6f3d7fc-ba98-4ed3-8f8d-974000f3dfee" d="M77.132,95.155h1.354v.983a2.183,2.183,0,0,1,1.908-1.079,2.022,2.022,0,0,1,2.075,2.147v3.958H81.113V97.589a1.294,1.294,0,0,0-1.319-1.439,1.542,1.542,0,0,0-1.308.72v4.294H77.132Z"/>
      <path class="a6f3d7fc-ba98-4ed3-8f8d-974000f3dfee" d="M84.859,96.234H83.648V95.155h1.211V93.5l1.356-.288v1.943h1.679v1.079H86.215v3.047c0,.587.227.815.84.815a2.49,2.49,0,0,0,.815-.144v1.14a4.264,4.264,0,0,1-1.164.167c-1.211,0-1.847-.575-1.847-1.678Z"/>
      <path class="a6f3d7fc-ba98-4ed3-8f8d-974000f3dfee" d="M88.784,99.437c0-1.08.875-1.764,2.29-1.764a3.705,3.705,0,0,1,1.619.372v-.659c0-.792-.455-1.2-1.379-1.2a4.156,4.156,0,0,0-1.751.467l-.479-.984a5.773,5.773,0,0,1,2.494-.611c1.56,0,2.459.792,2.459,2.183v3.922H92.693v-.612a2.509,2.509,0,0,1-1.787.707A1.893,1.893,0,0,1,88.784,99.437Zm2.494.875a2.14,2.14,0,0,0,1.415-.492v-.983a3.1,3.1,0,0,0-1.39-.288c-.768,0-1.248.336-1.248.864C90.055,99.964,90.535,100.312,91.278,100.312Z"/>
      <path class="a6f3d7fc-ba98-4ed3-8f8d-974000f3dfee" d="M95.516,93.1a.845.845,0,0,1,1.69,0,.845.845,0,0,1-1.69,0Zm1.522,8.06H95.684V95.155h1.354Z"/>
      <path class="a6f3d7fc-ba98-4ed3-8f8d-974000f3dfee" d="M98.708,95.155h1.354v.983a2.184,2.184,0,0,1,1.908-1.079,2.022,2.022,0,0,1,2.075,2.147v3.958h-1.356V97.589a1.294,1.294,0,0,0-1.319-1.439,1.542,1.542,0,0,0-1.308.72v4.294H98.708Z"/>
      <path class="a6f3d7fc-ba98-4ed3-8f8d-974000f3dfee" d="M108.474,101.284a3.055,3.055,0,0,1-3.059-3.119,2.96,2.96,0,0,1,2.927-3.106,2.884,2.884,0,0,1,2.842,3.094v.336h-4.438a1.836,1.836,0,0,0,1.8,1.643,1.952,1.952,0,0,0,1.427-.564l.887.828A3.472,3.472,0,0,1,108.474,101.284Zm-1.7-3.622H109.9a1.644,1.644,0,0,0-1.57-1.5A1.614,1.614,0,0,0,106.771,97.662Z"/>
      <path class="a6f3d7fc-ba98-4ed3-8f8d-974000f3dfee" d="M112.567,95.155h1.355v1.307a1.783,1.783,0,0,1,1.655-1.415,1.6,1.6,0,0,1,.588.12v1.187a1.907,1.907,0,0,0-.743-.144,1.65,1.65,0,0,0-1.5,1v3.958h-1.355Z"/>
      <path class="a6f3d7fc-ba98-4ed3-8f8d-974000f3dfee" d="M119.983,95.155h1.355v1.307a1.783,1.783,0,0,1,1.655-1.415,1.6,1.6,0,0,1,.588.12v1.187a1.907,1.907,0,0,0-.743-.144,1.65,1.65,0,0,0-1.5,1v3.958h-1.355Z"/>
      <path class="a6f3d7fc-ba98-4ed3-8f8d-974000f3dfee" d="M127.481,101.284a3.055,3.055,0,0,1-3.058-3.119,2.96,2.96,0,0,1,2.927-3.106,2.883,2.883,0,0,1,2.841,3.094v.336h-4.437a1.836,1.836,0,0,0,1.8,1.643,1.948,1.948,0,0,0,1.426-.564l.888.828A3.473,3.473,0,0,1,127.481,101.284Zm-1.7-3.622h3.13a1.644,1.644,0,0,0-1.57-1.5A1.616,1.616,0,0,0,125.778,97.662Z"/>
      <path class="a6f3d7fc-ba98-4ed3-8f8d-974000f3dfee" d="M131.3,98.153a2.9,2.9,0,0,1,2.806-3.046,2.261,2.261,0,0,1,1.763.815v-.767h1.344v6.213c0,1.547-1.008,2.4-2.831,2.4a5.217,5.217,0,0,1-2.41-.576l.479-1.007a4.092,4.092,0,0,0,1.871.516c1.008,0,1.535-.456,1.535-1.331v-1.02a2.331,2.331,0,0,1-1.835.852A2.88,2.88,0,0,1,131.3,98.153Zm3.131,1.919a1.8,1.8,0,0,0,1.426-.659V96.894a1.861,1.861,0,0,0-1.426-.648,1.792,1.792,0,0,0-1.787,1.907A1.816,1.816,0,0,0,134.43,100.072Z"/>
      <path class="a6f3d7fc-ba98-4ed3-8f8d-974000f3dfee" d="M138.715,93.1a.845.845,0,0,1,1.69,0,.845.845,0,0,1-1.69,0Zm1.522,8.06h-1.354V95.155h1.354Z"/>
      <path class="a6f3d7fc-ba98-4ed3-8f8d-974000f3dfee" d="M142,99.557a3.465,3.465,0,0,0,1.931.683c.719,0,1.212-.323,1.212-.8,0-.372-.252-.576-.829-.684l-1.067-.18c-1.163-.216-1.739-.756-1.739-1.655,0-1.127.924-1.859,2.327-1.859a4.229,4.229,0,0,1,2.362.719l-.636.888a3.28,3.28,0,0,0-1.81-.576c-.624,0-1.031.264-1.031.708,0,.384.215.552.851.66l1.056.191c1.2.228,1.774.78,1.774,1.68a2.2,2.2,0,0,1-2.446,1.955,4.031,4.031,0,0,1-2.591-.816Z"/>
      <path class="a6f3d7fc-ba98-4ed3-8f8d-974000f3dfee" d="M148.4,96.234h-1.21V95.155h1.21V93.5l1.356-.288v1.943h1.679v1.079h-1.679v3.047c0,.587.227.815.84.815a2.49,2.49,0,0,0,.815-.144v1.14a4.259,4.259,0,0,1-1.164.167c-1.211,0-1.847-.575-1.847-1.678Z"/>
      <path class="a6f3d7fc-ba98-4ed3-8f8d-974000f3dfee" d="M152.623,95.155h1.355v1.307a1.783,1.783,0,0,1,1.655-1.415,1.607,1.607,0,0,1,.588.12v1.187a1.911,1.911,0,0,0-.743-.144,1.648,1.648,0,0,0-1.5,1v3.958h-1.355Z"/>
      <path class="a6f3d7fc-ba98-4ed3-8f8d-974000f3dfee" d="M158.874,101.2l-2.267-6.045h1.511l1.524,4.461,1.678-4.461H162.8l-2.855,6.992a2.031,2.031,0,0,1-2.134,1.583,2.868,2.868,0,0,1-.684-.084v-1.163a4.9,4.9,0,0,0,.527.048.958.958,0,0,0,.972-.7Z"/>
    </g>
  </g>
  <rect class="a454653d-4959-4b86-b5bb-a2fdb84826b2" x="50.442" y="40.34" width="160" height="35"/>
  <g>
    <path class="a6f3d7fc-ba98-4ed3-8f8d-974000f3dfee" d="M64.806,60.563a3.372,3.372,0,0,1-3.526-3.717v-4.8h1.439v4.8a2.135,2.135,0,0,0,2.1,2.423c1.271,0,2.087-.949,2.087-2.423v-4.8h1.439v4.8A3.393,3.393,0,0,1,64.806,60.563Z"/>
    <path class="a6f3d7fc-ba98-4ed3-8f8d-974000f3dfee" d="M70.028,54.435h1.355v.983a2.181,2.181,0,0,1,1.907-1.079,2.022,2.022,0,0,1,2.075,2.146v3.958H74.01V56.869a1.294,1.294,0,0,0-1.32-1.438,1.541,1.541,0,0,0-1.307.719v4.293H70.028Z"/>
    <path class="a6f3d7fc-ba98-4ed3-8f8d-974000f3dfee" d="M81.305,59.64a2.31,2.31,0,0,1-1.847.864,3.074,3.074,0,0,1,.084-6.117,2.292,2.292,0,0,1,1.751.792V51.868l1.355-.227v8.8H81.305Zm-1.439-.276a1.794,1.794,0,0,0,1.427-.66v-2.53a1.866,1.866,0,0,0-1.427-.648,1.924,1.924,0,0,0,0,3.838Z"/>
    <path class="a6f3d7fc-ba98-4ed3-8f8d-974000f3dfee" d="M87.114,60.563a3.054,3.054,0,0,1-3.058-3.118,2.959,2.959,0,0,1,2.926-3.106,2.884,2.884,0,0,1,2.842,3.095v.336H85.387a1.836,1.836,0,0,0,1.8,1.642,1.953,1.953,0,0,0,1.426-.563l.888.827A3.472,3.472,0,0,1,87.114,60.563Zm-1.7-3.622h3.13a1.645,1.645,0,0,0-1.57-1.5A1.615,1.615,0,0,0,85.411,56.941Z"/>
    <path class="a6f3d7fc-ba98-4ed3-8f8d-974000f3dfee" d="M91.208,54.435h1.354v1.307a1.784,1.784,0,0,1,1.656-1.415,1.607,1.607,0,0,1,.588.12v1.187a1.912,1.912,0,0,0-.744-.144,1.652,1.652,0,0,0-1.5.995v3.958H91.208Z"/>
    <path class="a6f3d7fc-ba98-4ed3-8f8d-974000f3dfee" d="M100.217,58.7l.816.817a3.128,3.128,0,0,1-2.351,1.042,3.107,3.107,0,0,1,0-6.212,3.242,3.242,0,0,1,2.4,1.007l-.84.876a1.988,1.988,0,0,0-1.511-.708,1.928,1.928,0,0,0,.036,3.838A1.842,1.842,0,0,0,100.217,58.7Z"/>
    <path class="a6f3d7fc-ba98-4ed3-8f8d-974000f3dfee" d="M103.554,60.443H102.2V51.868l1.355-.227Z"/>
    <path class="a6f3d7fc-ba98-4ed3-8f8d-974000f3dfee" d="M107.97,54.339a3.113,3.113,0,1,1-3.023,3.106A3,3,0,0,1,107.97,54.339Zm1.678,3.118a1.7,1.7,0,1,0-3.357,0,1.7,1.7,0,1,0,3.357,0Z"/>
    <path class="a6f3d7fc-ba98-4ed3-8f8d-974000f3dfee" d="M113.719,58.009a1.293,1.293,0,0,0,1.319,1.439,1.515,1.515,0,0,0,1.319-.744V54.435h1.355v6.008h-1.355v-.995a2.2,2.2,0,0,1-1.919,1.091,2.015,2.015,0,0,1-2.075-2.146V54.435h1.356Z"/>
    <path class="a6f3d7fc-ba98-4ed3-8f8d-974000f3dfee" d="M123.676,59.64a2.31,2.31,0,0,1-1.847.864,3.074,3.074,0,0,1,.084-6.117,2.292,2.292,0,0,1,1.751.792V51.868l1.356-.227v8.8h-1.344Zm-1.439-.276a1.794,1.794,0,0,0,1.427-.66v-2.53a1.866,1.866,0,0,0-1.427-.648,1.924,1.924,0,0,0,0,3.838Z"/>
  </g>
  <line class="ae82a509-038a-418a-983b-9bf0aeedd585" x1="380.147" y1="265" x2="380.147" y2="283.67"/>
  <g>
    <line class="ae82a509-038a-418a-983b-9bf0aeedd585" x1="380.147" y1="322.886" x2="380.147" y2="351.879"/>
    <polygon class="a6f3d7fc-ba98-4ed3-8f8d-974000f3dfee" points="375.161 350.42 380.147 359.055 385.134 350.42 375.161 350.42"/>
  </g>
  <g>
    <polyline class="ae82a509-038a-418a-983b-9bf0aeedd585" points="625.147 351.879 625.147 337.22 135.147 337.22 135.147 351.879"/>
    <polygon class="a6f3d7fc-ba98-4ed3-8f8d-974000f3dfee" points="630.134 350.42 625.147 359.055 620.161 350.42 630.134 350.42"/>
    <polygon class="a6f3d7fc-ba98-4ed3-8f8d-974000f3dfee" points="130.161 350.42 135.147 359.055 140.134 350.42 130.161 350.42"/>
  </g>
  <g>
    <g>
      <path class="a6f3d7fc-ba98-4ed3-8f8d-974000f3dfee" d="M354.194,308.67h1.32v6.557h4.1v1.145h-5.424Z"/>
      <path class="a6f3d7fc-ba98-4ed3-8f8d-974000f3dfee" d="M363.357,316.482a3.869,3.869,0,0,1-2.849-1.155l.814-.76a2.521,2.521,0,0,0,2.024.858c.99,0,1.672-.516,1.672-1.276a1.216,1.216,0,0,0-1.364-1.155H362.7v-1h.858a1.116,1.116,0,0,0,1.221-1.156,1.329,1.329,0,0,0-1.463-1.22,2.38,2.38,0,0,0-1.914.913l-.815-.759a3.735,3.735,0,0,1,2.773-1.222c1.529,0,2.629.913,2.629,2.157a1.851,1.851,0,0,1-1.5,1.76,1.908,1.908,0,0,1,1.739,1.76C366.229,315.536,365.029,316.482,363.357,316.482Z"/>
      <path class="a6f3d7fc-ba98-4ed3-8f8d-974000f3dfee" d="M370.066,310.86h1.244v1.2a1.633,1.633,0,0,1,1.518-1.3,1.453,1.453,0,0,1,.539.11v1.088a1.771,1.771,0,0,0-.682-.131,1.512,1.512,0,0,0-1.375.913v3.631h-1.244Z"/>
      <path class="a6f3d7fc-ba98-4ed3-8f8d-974000f3dfee" d="M376.909,310.772a2.856,2.856,0,1,1-2.773,2.85A2.752,2.752,0,0,1,376.909,310.772Zm1.54,2.86a1.558,1.558,0,1,0-3.081,0,1.556,1.556,0,1,0,3.081,0Z"/>
      <path class="a6f3d7fc-ba98-4ed3-8f8d-974000f3dfee" d="M382.178,314.138a1.186,1.186,0,0,0,1.21,1.32,1.39,1.39,0,0,0,1.21-.682V310.86h1.243v5.512H384.6v-.914a2.013,2.013,0,0,1-1.76,1,1.847,1.847,0,0,1-1.9-1.968V310.86h1.243Z"/>
      <path class="a6f3d7fc-ba98-4ed3-8f8d-974000f3dfee" d="M388.051,311.85H386.94v-.99h1.111v-1.519l1.243-.263v1.782h1.541v.99h-1.541v2.794c0,.539.209.748.77.748a2.249,2.249,0,0,0,.748-.132v1.045a3.859,3.859,0,0,1-1.066.154c-1.112,0-1.695-.528-1.695-1.54Z"/>
      <path class="a6f3d7fc-ba98-4ed3-8f8d-974000f3dfee" d="M391.769,308.979a.776.776,0,0,1,1.551,0,.776.776,0,0,1-1.551,0Zm1.4,7.393h-1.243V310.86h1.243Z"/>
      <path class="a6f3d7fc-ba98-4ed3-8f8d-974000f3dfee" d="M394.7,310.86h1.243v.9a2,2,0,0,1,1.75-.99,1.854,1.854,0,0,1,1.9,1.969v3.631h-1.243v-3.279a1.187,1.187,0,0,0-1.211-1.32,1.413,1.413,0,0,0-1.2.66v3.939H394.7Z"/>
      <path class="a6f3d7fc-ba98-4ed3-8f8d-974000f3dfee" d="M400.844,313.61a2.66,2.66,0,0,1,2.574-2.794,2.074,2.074,0,0,1,1.617.748v-.7h1.233v5.7c0,1.419-.925,2.2-2.6,2.2a4.787,4.787,0,0,1-2.211-.528l.44-.924a3.764,3.764,0,0,0,1.716.473c.924,0,1.408-.418,1.408-1.221v-.935a2.139,2.139,0,0,1-1.683.781A2.642,2.642,0,0,1,400.844,313.61Zm2.871,1.761a1.647,1.647,0,0,0,1.309-.606v-2.31a1.71,1.71,0,0,0-1.309-.594,1.644,1.644,0,0,0-1.639,1.749A1.667,1.667,0,0,0,403.715,315.371Z"/>
    </g>
    <g>
      <rect class="e7c51d80-52f9-4cca-b15c-0ff3419934c1" x="348.397" y="283.67" width="63.5" height="16.107"/>
      <line class="b5688ec4-0fa9-494f-b0c1-c516c6bef3ba" x1="405.109" y1="290.577" x2="405.109" y2="290.577"/>
      <line class="e84c19a8-6086-4ec3-aad7-a0c7f6969a70" x1="355.201" y1="289.366" x2="355.201" y2="294.01"/>
      <line class="e84c19a8-6086-4ec3-aad7-a0c7f6969a70" x1="362.004" y1="289.366" x2="362.004" y2="294.01"/>
      <line class="e84c19a8-6086-4ec3-aad7-a0c7f6969a70" x1="368.808" y1="289.366" x2="368.808" y2="294.01"/>
      <line class="e84c19a8-6086-4ec3-aad7-a0c7f6969a70" x1="375.612" y1="289.366" x2="375.612" y2="294.01"/>
      <line class="e84c19a8-6086-4ec3-aad7-a0c7f6969a70" x1="382.415" y1="289.366" x2="382.415" y2="294.01"/>
      <line class="e84c19a8-6086-4ec3-aad7-a0c7f6969a70" x1="389.219" y1="289.366" x2="389.219" y2="294.01"/>
    </g>
  </g>
  <g>
    <path class="a6f3d7fc-ba98-4ed3-8f8d-974000f3dfee" d="M41.24,487.48h3.992a4.9,4.9,0,1,1,0,9.805H41.24Zm2.409,2.059v5.687h1.583a2.622,2.622,0,0,0,2.438-2.815,2.666,2.666,0,0,0-2.438-2.872Z"/>
    <path class="a6f3d7fc-ba98-4ed3-8f8d-974000f3dfee" d="M58.911,494.049l1.583,1.5a5.02,5.02,0,1,1,.07-6.317l-1.625,1.54a2.854,2.854,0,0,0-2.353-1.3,2.9,2.9,0,1,0,2.325,4.58Z"/>
    <path class="a6f3d7fc-ba98-4ed3-8f8d-974000f3dfee" d="M64.229,487.48l4.356,5.939-.042-5.939h2.269v9.805H68.684l-4.5-6.135.042,6.135H61.96V487.48Z"/>
    <path class="a6f3d7fc-ba98-4ed3-8f8d-974000f3dfee" d="M76.2,495.03a4.679,4.679,0,0,0,2.325.728c.645,0,1.037-.224,1.037-.588,0-.28-.21-.434-.672-.518L77.5,494.4c-1.4-.266-2.13-.98-2.13-2.1,0-1.485,1.135-2.367,3.026-2.367a5.809,5.809,0,0,1,2.942.827L80.3,492.2a4.093,4.093,0,0,0-2.073-.616c-.546,0-.869.182-.869.5,0,.294.183.421.743.518l1.359.253c1.429.266,2.184,1,2.171,2.087.013,1.415-1.331,2.479-3.11,2.479a5.911,5.911,0,0,1-3.32-.882Z"/>
    <path class="a6f3d7fc-ba98-4ed3-8f8d-974000f3dfee" d="M82.805,487.676a1.282,1.282,0,0,1,2.563,0,1.282,1.282,0,0,1-2.563,0Zm2.409,9.609H82.945v-7.228h2.269Z"/>
    <path class="a6f3d7fc-ba98-4ed3-8f8d-974000f3dfee" d="M87.93,491.808h-1.4v-1.751h1.4v-2l2.269-.462v2.465h1.933v1.751H90.2v2.8c0,.644.252.868.952.868a3.04,3.04,0,0,0,.925-.154v1.835a6.325,6.325,0,0,1-1.555.224c-1.709,0-2.591-.784-2.591-2.325Z"/>
    <path class="a6f3d7fc-ba98-4ed3-8f8d-974000f3dfee" d="M96.877,497.425a3.738,3.738,0,0,1-3.81-3.74,3.627,3.627,0,0,1,3.642-3.754,3.552,3.552,0,0,1,3.558,3.838v.491H95.294a1.735,1.735,0,0,0,1.7,1.358,1.788,1.788,0,0,0,1.429-.6l1.5,1.247A4.213,4.213,0,0,1,96.877,497.425Zm-1.583-4.454h2.872A1.506,1.506,0,0,0,96.7,491.7,1.435,1.435,0,0,0,95.294,492.971Z"/>
    <path class="a6f3d7fc-ba98-4ed3-8f8d-974000f3dfee" d="M108.343,497.285h-2.157v-7.564l-1.933.8v-1.906l2.731-1.134h1.359Z"/>
  </g>
  <rect class="b7731893-6e87-471a-becd-306d6f002895" x="265.147" y="361.555" width="230" height="150"/>
  <g>
    <polyline class="a7365a3a-73cc-4d76-9f85-90d09c836331" points="475.147 465.186 475.147 466.686 473.647 466.686"/>
    <line class="e83acaa1-d193-49f1-b509-941a3b96a99c" x1="470.679" y1="466.686" x2="288.131" y2="466.686"/>
    <polyline class="a7365a3a-73cc-4d76-9f85-90d09c836331" points="286.647 466.686 285.147 466.686 285.147 465.186"/>
    <line class="fc594592-47c0-4205-9ffc-ee6ae7ba6e51" x1="285.147" y1="462.148" x2="285.147" y2="384.704"/>
    <polyline class="a7365a3a-73cc-4d76-9f85-90d09c836331" points="285.147 383.186 285.147 381.686 286.647 381.686"/>
    <line class="e83acaa1-d193-49f1-b509-941a3b96a99c" x1="289.615" y1="381.686" x2="472.163" y2="381.686"/>
    <polyline class="a7365a3a-73cc-4d76-9f85-90d09c836331" points="473.647 381.686 475.147 381.686 475.147 383.186"/>
    <line class="fc594592-47c0-4205-9ffc-ee6ae7ba6e51" x1="475.147" y1="386.223" x2="475.147" y2="463.667"/>
  </g>
  <polyline class="b95743e8-eb70-450c-9bb6-c22f0802a27e" points="465.147 406.686 465.147 456.686 305.147 456.686"/>
  <polyline class="b95743e8-eb70-450c-9bb6-c22f0802a27e" points="460.147 401.686 460.147 451.686 300.147 451.686"/>
  <g>
    <rect class="a454653d-4959-4b86-b5bb-a2fdb84826b2" x="295.647" y="397.186" width="159" height="49"/>
    <path class="fed2aa08-cdef-4f82-8cee-2310b70e5e58" d="M454.147,397.686v48h-158v-48h158m1-1h-160v50h160v-50Z"/>
  </g>
  <g>
    <path class="a6f3d7fc-ba98-4ed3-8f8d-974000f3dfee" d="M312.392,414.523l.947.911a4.31,4.31,0,1,1,.036-5.684l-.972.959a2.953,2.953,0,1,0-2.255,4.9A2.851,2.851,0,0,0,312.392,414.523Z"/>
    <path class="a6f3d7fc-ba98-4ed3-8f8d-974000f3dfee" d="M317.409,410.685a3.114,3.114,0,1,1-3.022,3.106A3,3,0,0,1,317.409,410.685Zm1.679,3.118a1.7,1.7,0,1,0-3.358,0,1.7,1.7,0,1,0,3.358,0Z"/>
    <path class="a6f3d7fc-ba98-4ed3-8f8d-974000f3dfee" d="M321.839,410.781h1.354v.959a2.053,2.053,0,0,1,1.787-1.055,1.89,1.89,0,0,1,1.764,1.163,2.216,2.216,0,0,1,1.99-1.163,1.991,1.991,0,0,1,1.968,2.183v3.922h-1.355v-3.634a1.217,1.217,0,0,0-1.212-1.38,1.432,1.432,0,0,0-1.211.708c.012.132.023.252.023.384v3.922h-1.354v-3.634a1.217,1.217,0,0,0-1.212-1.38,1.4,1.4,0,0,0-1.188.684v4.33h-1.354Z"/>
    <path class="a6f3d7fc-ba98-4ed3-8f8d-974000f3dfee" d="M332.351,410.781h1.331v.864a2.263,2.263,0,0,1,1.871-.912,2.883,2.883,0,0,1,2.722,3.058,2.913,2.913,0,0,1-2.818,3.059,2.249,2.249,0,0,1-1.752-.78v3.262h-1.354Zm1.354,1.763v2.506a1.845,1.845,0,0,0,1.44.66,1.924,1.924,0,0,0,0-3.838A1.765,1.765,0,0,0,333.705,412.544Z"/>
    <path class="a6f3d7fc-ba98-4ed3-8f8d-974000f3dfee" d="M341,414.355a1.294,1.294,0,0,0,1.319,1.439,1.518,1.518,0,0,0,1.32-.744v-4.269H345v6.009h-1.354v-1a2.2,2.2,0,0,1-1.92,1.091,2.015,2.015,0,0,1-2.075-2.146v-3.958H341Z"/>
    <path class="a6f3d7fc-ba98-4ed3-8f8d-974000f3dfee" d="M347.41,411.86H346.2v-1.079h1.211v-1.655l1.356-.288v1.943h1.678v1.079h-1.678v3.047c0,.587.227.815.839.815a2.491,2.491,0,0,0,.816-.144v1.14a4.264,4.264,0,0,1-1.164.167c-1.211,0-1.847-.575-1.847-1.678Z"/>
    <path class="a6f3d7fc-ba98-4ed3-8f8d-974000f3dfee" d="M354.417,416.91a3.056,3.056,0,0,1-3.059-3.119,2.96,2.96,0,0,1,2.927-3.106,2.884,2.884,0,0,1,2.842,3.094v.336h-4.438a1.837,1.837,0,0,0,1.8,1.643,1.951,1.951,0,0,0,1.427-.564l.888.828A3.474,3.474,0,0,1,354.417,416.91Zm-1.7-3.622h3.13a1.646,1.646,0,0,0-1.571-1.5A1.615,1.615,0,0,0,352.714,413.288Z"/>
    <path class="a6f3d7fc-ba98-4ed3-8f8d-974000f3dfee" d="M361.211,410.781h1.354v.983a2.183,2.183,0,0,1,1.908-1.079,2.022,2.022,0,0,1,2.075,2.147v3.958h-1.356v-3.575a1.294,1.294,0,0,0-1.319-1.439,1.542,1.542,0,0,0-1.308.72v4.294h-1.354Z"/>
    <path class="a6f3d7fc-ba98-4ed3-8f8d-974000f3dfee" d="M370.94,410.685a3.114,3.114,0,1,1-3.022,3.106A3,3,0,0,1,370.94,410.685Zm1.679,3.118a1.7,1.7,0,1,0-3.357,0,1.7,1.7,0,1,0,3.357,0Z"/>
    <path class="a6f3d7fc-ba98-4ed3-8f8d-974000f3dfee" d="M379.663,415.986a2.31,2.31,0,0,1-1.847.864,3.075,3.075,0,0,1,.084-6.117,2.293,2.293,0,0,1,1.751.791v-3.31l1.356-.228v8.8h-1.344Zm-1.438-.276a1.8,1.8,0,0,0,1.426-.66v-2.53a1.861,1.861,0,0,0-1.426-.648,1.924,1.924,0,0,0,0,3.838Z"/>
    <path class="a6f3d7fc-ba98-4ed3-8f8d-974000f3dfee" d="M385.473,416.91a3.056,3.056,0,0,1-3.059-3.119,2.96,2.96,0,0,1,2.927-3.106,2.885,2.885,0,0,1,2.843,3.094v.336h-4.439a1.837,1.837,0,0,0,1.8,1.643,1.952,1.952,0,0,0,1.427-.564l.887.828A3.472,3.472,0,0,1,385.473,416.91Zm-1.7-3.622H386.9a1.644,1.644,0,0,0-1.57-1.5A1.614,1.614,0,0,0,383.77,413.288Z"/>
    <path class="a6f3d7fc-ba98-4ed3-8f8d-974000f3dfee" d="M389.662,415.183a3.465,3.465,0,0,0,1.931.683c.719,0,1.212-.324,1.212-.8,0-.371-.252-.575-.828-.683l-1.068-.18c-1.163-.216-1.739-.756-1.739-1.655,0-1.127.924-1.859,2.327-1.859a4.229,4.229,0,0,1,2.362.719l-.635.888a3.283,3.283,0,0,0-1.811-.576c-.624,0-1.031.264-1.031.708,0,.384.216.552.851.659l1.056.192c1.2.228,1.774.78,1.774,1.68a2.2,2.2,0,0,1-2.446,1.955,4.031,4.031,0,0,1-2.591-.816Z"/>
    <path class="a6f3d7fc-ba98-4ed3-8f8d-974000f3dfee" d="M308.89,422.25l.455.612a6.268,6.268,0,0,0,0,9.954l-.455.6a6.9,6.9,0,0,1,0-11.166Z"/>
    <path class="a6f3d7fc-ba98-4ed3-8f8d-974000f3dfee" d="M311.734,430.79h-.876v-8.576l.876-.18Z"/>
    <path class="a6f3d7fc-ba98-4ed3-8f8d-974000f3dfee" d="M316.113,424.841a3.041,3.041,0,1,1-2.842,3.022A2.872,2.872,0,0,1,316.113,424.841Zm1.991,3.034a2,2,0,1,0-3.97,0,2,2,0,1,0,3.97,0Z"/>
    <path class="a6f3d7fc-ba98-4ed3-8f8d-974000f3dfee" d="M324.812,429.41l.541.54a3.044,3.044,0,0,1-2.219.947,3.031,3.031,0,0,1,0-6.056,3.2,3.2,0,0,1,2.255.911l-.565.612a2.3,2.3,0,0,0-1.654-.732,2.245,2.245,0,0,0,.012,4.474A2.154,2.154,0,0,0,324.812,429.41Z"/>
    <path class="a6f3d7fc-ba98-4ed3-8f8d-974000f3dfee" d="M326.3,429.11c0-1.043.875-1.738,2.194-1.738a3.384,3.384,0,0,1,1.787.455v-.8a1.318,1.318,0,0,0-1.511-1.451,3.875,3.875,0,0,0-1.775.5l-.324-.672a5.028,5.028,0,0,1,2.207-.563c1.451,0,2.266.731,2.266,2.063v3.886h-.863v-.684a2.509,2.509,0,0,1-1.858.791A1.889,1.889,0,0,1,326.3,429.11Zm2.3,1.116a2.314,2.314,0,0,0,1.679-.672v-1.127a3.085,3.085,0,0,0-1.655-.42c-.9,0-1.487.432-1.487,1.079C327.142,429.77,327.729,430.226,328.605,430.226Z"/>
    <path class="a6f3d7fc-ba98-4ed3-8f8d-974000f3dfee" d="M333.8,430.79h-.876v-8.576l.876-.18Z"/>
    <path class="a6f3d7fc-ba98-4ed3-8f8d-974000f3dfee" d="M341.036,430.9a2.921,2.921,0,0,1-2.9-3.034,2.848,2.848,0,0,1,2.759-3.022,2.764,2.764,0,0,1,2.686,2.95v.264h-4.594a2.134,2.134,0,0,0,2.087,2.075,2.4,2.4,0,0,0,1.608-.6l.55.588A3.409,3.409,0,0,1,341.036,430.9Zm-2.027-3.466h3.706a1.933,1.933,0,0,0-1.835-1.835A1.955,1.955,0,0,0,339.009,427.431Z"/>
    <path class="a6f3d7fc-ba98-4ed3-8f8d-974000f3dfee" d="M345.082,424.937h.863v.839a2.311,2.311,0,0,1,1.9-.911,3.019,3.019,0,0,1-.048,6.009,2.374,2.374,0,0,1-1.835-.816V433.3h-.876Zm.876,1.5V429.3a2.056,2.056,0,0,0,1.667.816,2.252,2.252,0,0,0,0-4.486A2,2,0,0,0,345.958,426.436Z"/>
    <path class="a6f3d7fc-ba98-4ed3-8f8d-974000f3dfee" d="M352.078,422.214l.876-.18v3.85a2.106,2.106,0,0,1,1.858-1.043A2.037,2.037,0,0,1,356.936,427v3.79h-.876v-3.539a1.517,1.517,0,0,0-1.571-1.679,1.725,1.725,0,0,0-1.535.9v4.318h-.876Z"/>
    <path class="a6f3d7fc-ba98-4ed3-8f8d-974000f3dfee" d="M361.34,430.9a2.92,2.92,0,0,1-2.9-3.034,2.848,2.848,0,0,1,2.758-3.022,2.765,2.765,0,0,1,2.687,2.95v.264h-4.594a2.134,2.134,0,0,0,2.087,2.075,2.388,2.388,0,0,0,1.606-.6l.552.588A3.413,3.413,0,0,1,361.34,430.9Zm-2.028-3.466h3.707a1.933,1.933,0,0,0-1.835-1.835A1.957,1.957,0,0,0,359.312,427.431Z"/>
    <path class="a6f3d7fc-ba98-4ed3-8f8d-974000f3dfee" d="M365.386,424.937h.876v.911A2,2,0,0,1,368,424.841a1.925,1.925,0,0,1,1.8,1.139,2.16,2.16,0,0,1,1.954-1.139,1.992,1.992,0,0,1,1.991,2.171v3.778h-.875v-3.562c0-1.02-.552-1.656-1.439-1.656a1.626,1.626,0,0,0-1.463.924,2.5,2.5,0,0,1,.048.516v3.778h-.876v-3.562a1.455,1.455,0,0,0-1.452-1.656,1.6,1.6,0,0,0-1.426.864v4.354h-.876Z"/>
    <path class="a6f3d7fc-ba98-4ed3-8f8d-974000f3dfee" d="M378.164,430.9a2.921,2.921,0,0,1-2.9-3.034,2.848,2.848,0,0,1,2.759-3.022,2.764,2.764,0,0,1,2.686,2.95v.264h-4.594a2.134,2.134,0,0,0,2.087,2.075,2.39,2.39,0,0,0,1.607-.6l.551.588A3.411,3.411,0,0,1,378.164,430.9Zm-2.027-3.466h3.706a1.933,1.933,0,0,0-1.835-1.835A1.955,1.955,0,0,0,376.137,427.431Z"/>
    <path class="a6f3d7fc-ba98-4ed3-8f8d-974000f3dfee" d="M382.209,424.937h.876v1.187a1.748,1.748,0,0,1,1.631-1.3,1.663,1.663,0,0,1,.552.084v.792a2.2,2.2,0,0,0-.613-.109,1.669,1.669,0,0,0-1.57,1.188v4.006h-.876Z"/>
    <path class="a6f3d7fc-ba98-4ed3-8f8d-974000f3dfee" d="M386.121,429.11c0-1.043.875-1.738,2.194-1.738a3.39,3.39,0,0,1,1.788.455v-.8a1.318,1.318,0,0,0-1.511-1.451,3.879,3.879,0,0,0-1.776.5l-.324-.672a5.028,5.028,0,0,1,2.207-.563c1.451,0,2.267.731,2.267,2.063v3.886H390.1v-.684a2.512,2.512,0,0,1-1.859.791A1.889,1.889,0,0,1,386.121,429.11Zm2.3,1.116a2.317,2.317,0,0,0,1.679-.672v-1.127a3.091,3.091,0,0,0-1.656-.42c-.9,0-1.487.432-1.487,1.079C386.96,429.77,387.548,430.226,388.424,430.226Z"/>
    <path class="a6f3d7fc-ba98-4ed3-8f8d-974000f3dfee" d="M393.621,430.79h-.876v-8.576l.876-.18Z"/>
    <path class="a6f3d7fc-ba98-4ed3-8f8d-974000f3dfee" d="M395.589,433.428l-.456-.612a6.266,6.266,0,0,0,0-9.954l.456-.6a6.9,6.9,0,0,1,0,11.166Z"/>
  </g>
  <g>
    <path class="a6f3d7fc-ba98-4ed3-8f8d-974000f3dfee" d="M286.24,487.48h3.992a4.9,4.9,0,1,1,0,9.805H286.24Zm2.409,2.059v5.687h1.583a2.622,2.622,0,0,0,2.438-2.815,2.666,2.666,0,0,0-2.438-2.872Z"/>
    <path class="a6f3d7fc-ba98-4ed3-8f8d-974000f3dfee" d="M303.911,494.049l1.583,1.5a5.02,5.02,0,1,1,.07-6.317l-1.625,1.54a2.854,2.854,0,0,0-2.353-1.3,2.9,2.9,0,1,0,2.325,4.58Z"/>
    <path class="a6f3d7fc-ba98-4ed3-8f8d-974000f3dfee" d="M309.229,487.48l4.356,5.939-.042-5.939h2.269v9.805h-2.128l-4.5-6.135.042,6.135H306.96V487.48Z"/>
    <path class="a6f3d7fc-ba98-4ed3-8f8d-974000f3dfee" d="M321.2,495.03a4.679,4.679,0,0,0,2.325.728c.645,0,1.037-.224,1.037-.588,0-.28-.21-.434-.672-.518L322.5,494.4c-1.4-.266-2.13-.98-2.13-2.1,0-1.485,1.135-2.367,3.026-2.367a5.809,5.809,0,0,1,2.942.827L325.3,492.2a4.093,4.093,0,0,0-2.073-.616c-.546,0-.869.182-.869.5,0,.294.183.421.743.518l1.359.253c1.429.266,2.184,1,2.171,2.087.013,1.415-1.331,2.479-3.11,2.479a5.911,5.911,0,0,1-3.32-.882Z"/>
    <path class="a6f3d7fc-ba98-4ed3-8f8d-974000f3dfee" d="M327.805,487.676a1.282,1.282,0,0,1,2.563,0,1.282,1.282,0,0,1-2.563,0Zm2.409,9.609h-2.269v-7.228h2.269Z"/>
    <path class="a6f3d7fc-ba98-4ed3-8f8d-974000f3dfee" d="M332.93,491.808h-1.4v-1.751h1.4v-2l2.269-.462v2.465h1.933v1.751H335.2v2.8c0,.644.252.868.952.868a3.04,3.04,0,0,0,.925-.154v1.835a6.325,6.325,0,0,1-1.555.224c-1.709,0-2.591-.784-2.591-2.325Z"/>
    <path class="a6f3d7fc-ba98-4ed3-8f8d-974000f3dfee" d="M341.877,497.425a3.738,3.738,0,0,1-3.81-3.74,3.627,3.627,0,0,1,3.642-3.754,3.552,3.552,0,0,1,3.558,3.838v.491h-4.973a1.735,1.735,0,0,0,1.695,1.358,1.788,1.788,0,0,0,1.429-.6l1.5,1.247A4.213,4.213,0,0,1,341.877,497.425Zm-1.583-4.454h2.872A1.506,1.506,0,0,0,341.7,491.7,1.435,1.435,0,0,0,340.294,492.971Z"/>
    <path class="a6f3d7fc-ba98-4ed3-8f8d-974000f3dfee" d="M349.52,495.744l4.145-4.1a1.832,1.832,0,0,0,.658-1.3c0-.63-.616-1.106-1.442-1.106a3.379,3.379,0,0,0-2.48,1.2l-1.2-1.471a5.379,5.379,0,0,1,3.754-1.611c2.087,0,3.474,1.134,3.474,2.843a3.43,3.43,0,0,1-1.275,2.536l-2.83,2.731,4.244-.014v1.835H349.52Z"/>
  </g>
  <g>
    <path class="a6f3d7fc-ba98-4ed3-8f8d-974000f3dfee" d="M531.24,487.48h3.992a4.9,4.9,0,1,1,0,9.805H531.24Zm2.409,2.059v5.687h1.583a2.622,2.622,0,0,0,2.438-2.815,2.666,2.666,0,0,0-2.438-2.872Z"/>
    <path class="a6f3d7fc-ba98-4ed3-8f8d-974000f3dfee" d="M548.911,494.049l1.583,1.5a5.02,5.02,0,1,1,.07-6.317l-1.625,1.54a2.854,2.854,0,0,0-2.353-1.3,2.9,2.9,0,1,0,2.325,4.58Z"/>
    <path class="a6f3d7fc-ba98-4ed3-8f8d-974000f3dfee" d="M554.229,487.48l4.356,5.939-.042-5.939h2.269v9.805h-2.128l-4.5-6.135.042,6.135H551.96V487.48Z"/>
    <path class="a6f3d7fc-ba98-4ed3-8f8d-974000f3dfee" d="M566.2,495.03a4.679,4.679,0,0,0,2.325.728c.645,0,1.037-.224,1.037-.588,0-.28-.21-.434-.672-.518L567.5,494.4c-1.4-.266-2.13-.98-2.13-2.1,0-1.485,1.135-2.367,3.026-2.367a5.809,5.809,0,0,1,2.942.827L570.3,492.2a4.093,4.093,0,0,0-2.073-.616c-.546,0-.869.182-.869.5,0,.294.183.421.743.518l1.359.253c1.429.266,2.184,1,2.171,2.087.013,1.415-1.331,2.479-3.11,2.479a5.911,5.911,0,0,1-3.32-.882Z"/>
    <path class="a6f3d7fc-ba98-4ed3-8f8d-974000f3dfee" d="M572.8,487.676a1.282,1.282,0,0,1,2.563,0,1.282,1.282,0,0,1-2.563,0Zm2.409,9.609h-2.269v-7.228h2.269Z"/>
    <path class="a6f3d7fc-ba98-4ed3-8f8d-974000f3dfee" d="M577.93,491.808h-1.4v-1.751h1.4v-2l2.269-.462v2.465h1.933v1.751H580.2v2.8c0,.644.252.868.952.868a3.04,3.04,0,0,0,.925-.154v1.835a6.325,6.325,0,0,1-1.555.224c-1.709,0-2.591-.784-2.591-2.325Z"/>
    <path class="a6f3d7fc-ba98-4ed3-8f8d-974000f3dfee" d="M586.877,497.425a3.738,3.738,0,0,1-3.81-3.74,3.627,3.627,0,0,1,3.642-3.754,3.552,3.552,0,0,1,3.558,3.838v.491h-4.973a1.735,1.735,0,0,0,1.7,1.358,1.788,1.788,0,0,0,1.429-.6l1.5,1.247A4.213,4.213,0,0,1,586.877,497.425Zm-1.583-4.454h2.872A1.506,1.506,0,0,0,586.7,491.7,1.435,1.435,0,0,0,585.294,492.971Z"/>
    <path class="a6f3d7fc-ba98-4ed3-8f8d-974000f3dfee" d="M597.166,487.48l4.356,5.939-.042-5.939h2.27v9.805h-2.129l-4.5-6.135.042,6.135H594.9V487.48Z"/>
  </g>
  <rect class="b7731893-6e87-471a-becd-306d6f002895" x="55.147" y="376.555" width="34.877" height="12.33"/>
  <rect class="b7731893-6e87-471a-becd-306d6f002895" x="300.147" y="376.555" width="34.877" height="12.33"/>
  <rect class="b7731893-6e87-471a-becd-306d6f002895" x="300.709" y="134.174" width="94.51" height="12.33"/>
  <rect class="b7731893-6e87-471a-becd-306d6f002895" x="300.709" y="94.174" width="109.291" height="12.33"/>
  <rect class="b7731893-6e87-471a-becd-306d6f002895" x="545.147" y="376.555" width="34.877" height="12.33"/>
  <g>
    <path class="a6f3d7fc-ba98-4ed3-8f8d-974000f3dfee" d="M63.445,377.894H65.8l3.226,8.4h-2.23l-.7-2H63.025l-.707,2H60.172Zm2.1,4.8-.972-2.782-.983,2.782Z"/>
    <path class="a6f3d7fc-ba98-4ed3-8f8d-974000f3dfee" d="M69.4,384.946l4.163-5.361-4.138.036v-1.727H76.2v1.343L72.062,384.6l4.173-.037v1.728H69.4Z"/>
    <path class="a6f3d7fc-ba98-4ed3-8f8d-974000f3dfee" d="M82.993,386.29H81.146v-6.477l-1.655.684v-1.631l2.339-.972h1.163Z"/>
  </g>
  <g>
    <path class="a6f3d7fc-ba98-4ed3-8f8d-974000f3dfee" d="M308.445,377.894H310.8l3.226,8.4h-2.23l-.7-2h-3.071l-.707,2h-2.146Zm2.1,4.8-.972-2.782-.983,2.782Z"/>
    <path class="a6f3d7fc-ba98-4ed3-8f8d-974000f3dfee" d="M314.4,384.946l4.163-5.361-4.138.036v-1.727H321.2v1.343l-4.138,5.362,4.173-.037v1.728H314.4Z"/>
    <path class="a6f3d7fc-ba98-4ed3-8f8d-974000f3dfee" d="M324.719,384.97l3.551-3.514a1.57,1.57,0,0,0,.563-1.115c0-.54-.528-.947-1.235-.947a2.89,2.89,0,0,0-2.123,1.031l-1.032-1.259a4.607,4.607,0,0,1,3.214-1.38c1.787,0,2.975.972,2.975,2.435a2.935,2.935,0,0,1-1.092,2.171l-2.422,2.338,3.634-.012v1.572h-6.033Z"/>
  </g>
  <g>
    <path class="a6f3d7fc-ba98-4ed3-8f8d-974000f3dfee" d="M553.445,377.894H555.8l3.226,8.4h-2.23l-.7-2h-3.071l-.707,2h-2.146Zm2.1,4.8-.972-2.782-.983,2.782Z"/>
    <path class="a6f3d7fc-ba98-4ed3-8f8d-974000f3dfee" d="M559.4,384.946l4.163-5.361-4.138.036v-1.727H566.2v1.343l-4.138,5.362,4.173-.037v1.728H559.4Z"/>
    <path class="a6f3d7fc-ba98-4ed3-8f8d-974000f3dfee" d="M571.986,377.894l3.73,5.085-.036-5.085h1.943v8.4H575.8l-3.85-5.253.036,5.253h-1.943v-8.4Z"/>
  </g>
  <g>
    <path class="a6f3d7fc-ba98-4ed3-8f8d-974000f3dfee" d="M308.738,136.548h2.351l3.226,8.4h-2.23l-.7-2h-3.071l-.707,2h-2.146Zm2.1,4.8-.972-2.782-.983,2.782Z"/>
    <path class="a6f3d7fc-ba98-4ed3-8f8d-974000f3dfee" d="M314.692,143.6l4.162-5.361-4.137.036v-1.727h6.776v1.343l-4.138,5.361,4.173-.036v1.727h-6.836Z"/>
    <path class="a6f3d7fc-ba98-4ed3-8f8d-974000f3dfee" d="M324.916,140.734c0-2.591,1.451-4.318,3.634-4.318s3.622,1.727,3.622,4.318-1.44,4.329-3.622,4.329S324.916,143.348,324.916,140.734Zm5.421,0c0-1.655-.684-2.687-1.787-2.687s-1.8,1.044-1.8,2.687c0,1.667.684,2.7,1.8,2.7S330.337,142.413,330.337,140.734Z"/>
    <path class="a6f3d7fc-ba98-4ed3-8f8d-974000f3dfee" d="M339.23,136.4l.456.612a6.268,6.268,0,0,0,0,9.954l-.456.6a6.9,6.9,0,0,1,0-11.166Z"/>
    <path class="a6f3d7fc-ba98-4ed3-8f8d-974000f3dfee" d="M343.778,139a3.04,3.04,0,1,1-2.842,3.022A2.873,2.873,0,0,1,343.778,139Zm1.991,3.034a2,2,0,1,0-3.97,0,2,2,0,1,0,3.97,0Z"/>
    <path class="a6f3d7fc-ba98-4ed3-8f8d-974000f3dfee" d="M348.171,139.091h.863v.839a2.311,2.311,0,0,1,1.9-.911,3.019,3.019,0,0,1-.048,6.008,2.373,2.373,0,0,1-1.835-.815v3.238h-.876Zm.876,1.5v2.866a2.055,2.055,0,0,0,1.667.815,2.251,2.251,0,0,0,0-4.485A2,2,0,0,0,349.047,140.59Z"/>
    <path class="a6f3d7fc-ba98-4ed3-8f8d-974000f3dfee" d="M355.862,139.81h-1.211v-.719h1.211v-1.608l.876-.2v1.811h1.679v.719h-1.679V143.4c0,.624.241.875.852.875a2.093,2.093,0,0,0,.827-.155v.78a3.313,3.313,0,0,1-1.02.155c-1.006,0-1.535-.491-1.535-1.427Z"/>
    <path class="a6f3d7fc-ba98-4ed3-8f8d-974000f3dfee" d="M359.512,137.016a.63.63,0,0,1,1.259,0,.63.63,0,1,1-1.259,0Zm1.067,7.927H359.7v-5.852h.876Z"/>
    <path class="a6f3d7fc-ba98-4ed3-8f8d-974000f3dfee" d="M364.958,139a3.04,3.04,0,1,1-2.843,3.022A2.872,2.872,0,0,1,364.958,139Zm1.99,3.034a2,2,0,1,0-3.969,0,2,2,0,1,0,3.969,0Z"/>
    <path class="a6f3d7fc-ba98-4ed3-8f8d-974000f3dfee" d="M369.351,139.091h.876v.947A2.106,2.106,0,0,1,372.085,139a2.036,2.036,0,0,1,2.123,2.158v3.79h-.876v-3.538a1.516,1.516,0,0,0-1.57-1.679,1.723,1.723,0,0,0-1.535.9v4.317h-.876Z"/>
    <path class="a6f3d7fc-ba98-4ed3-8f8d-974000f3dfee" d="M375.663,143.264c0-1.043.875-1.739,2.194-1.739a3.391,3.391,0,0,1,1.788.456v-.8a1.318,1.318,0,0,0-1.511-1.451,3.867,3.867,0,0,0-1.776.5l-.323-.672a5.007,5.007,0,0,1,2.206-.563c1.451,0,2.267.731,2.267,2.063v3.885h-.863v-.683a2.512,2.512,0,0,1-1.859.791A1.889,1.889,0,0,1,375.663,143.264Zm2.3,1.116a2.317,2.317,0,0,0,1.679-.672v-1.127a3.091,3.091,0,0,0-1.656-.42c-.9,0-1.487.432-1.487,1.079C376.5,143.924,377.09,144.38,377.966,144.38Z"/>
    <path class="a6f3d7fc-ba98-4ed3-8f8d-974000f3dfee" d="M383.162,144.943h-.876v-8.575l.876-.18Z"/>
    <path class="a6f3d7fc-ba98-4ed3-8f8d-974000f3dfee" d="M385.13,147.582l-.456-.612a6.266,6.266,0,0,0,0-9.954l.456-.6a6.9,6.9,0,0,1,0,11.166Z"/>
  </g>
  <rect class="b7731893-6e87-471a-becd-306d6f002895" x="544.225" y="134.174" width="94.51" height="12.33"/>
  <g>
    <path class="a6f3d7fc-ba98-4ed3-8f8d-974000f3dfee" d="M552.443,136.548h2.351l3.227,8.4H555.79l-.7-2h-3.071l-.707,2H549.17Zm2.1,4.8-.972-2.782-.983,2.782Z"/>
    <path class="a6f3d7fc-ba98-4ed3-8f8d-974000f3dfee" d="M558.4,143.6l4.163-5.361-4.138.036v-1.727H565.2v1.343l-4.137,5.361,4.172-.036v1.727H558.4Z"/>
    <path class="a6f3d7fc-ba98-4ed3-8f8d-974000f3dfee" d="M568.621,140.734c0-2.591,1.451-4.318,3.634-4.318s3.622,1.727,3.622,4.318-1.439,4.329-3.622,4.329S568.621,143.348,568.621,140.734Zm5.421,0c0-1.655-.684-2.687-1.787-2.687s-1.8,1.044-1.8,2.687c0,1.667.684,2.7,1.8,2.7S574.042,142.413,574.042,140.734Z"/>
    <path class="a6f3d7fc-ba98-4ed3-8f8d-974000f3dfee" d="M582.936,136.4l.455.612a6.268,6.268,0,0,0,0,9.954l-.455.6a6.9,6.9,0,0,1,0-11.166Z"/>
    <path class="a6f3d7fc-ba98-4ed3-8f8d-974000f3dfee" d="M587.483,139a3.04,3.04,0,1,1-2.842,3.022A2.873,2.873,0,0,1,587.483,139Zm1.991,3.034a2,2,0,1,0-3.97,0,2,2,0,1,0,3.97,0Z"/>
    <path class="a6f3d7fc-ba98-4ed3-8f8d-974000f3dfee" d="M591.876,139.091h.863v.839a2.311,2.311,0,0,1,1.9-.911,3.019,3.019,0,0,1-.048,6.008,2.373,2.373,0,0,1-1.835-.815v3.238h-.876Zm.876,1.5v2.866a2.055,2.055,0,0,0,1.667.815,2.251,2.251,0,0,0,0-4.485A2,2,0,0,0,592.752,140.59Z"/>
    <path class="a6f3d7fc-ba98-4ed3-8f8d-974000f3dfee" d="M599.567,139.81h-1.211v-.719h1.211v-1.608l.876-.2v1.811h1.679v.719h-1.679V143.4c0,.624.241.875.852.875a2.093,2.093,0,0,0,.827-.155v.78a3.312,3.312,0,0,1-1.019.155c-1.007,0-1.536-.491-1.536-1.427Z"/>
    <path class="a6f3d7fc-ba98-4ed3-8f8d-974000f3dfee" d="M603.217,137.016a.63.63,0,0,1,1.259,0,.63.63,0,1,1-1.259,0Zm1.067,7.927h-.876v-5.852h.876Z"/>
    <path class="a6f3d7fc-ba98-4ed3-8f8d-974000f3dfee" d="M608.663,139a3.04,3.04,0,1,1-2.843,3.022A2.873,2.873,0,0,1,608.663,139Zm1.99,3.034a2,2,0,1,0-3.969,0,2,2,0,1,0,3.969,0Z"/>
    <path class="a6f3d7fc-ba98-4ed3-8f8d-974000f3dfee" d="M613.056,139.091h.876v.947A2.106,2.106,0,0,1,615.79,139a2.036,2.036,0,0,1,2.123,2.158v3.79h-.876v-3.538a1.516,1.516,0,0,0-1.57-1.679,1.723,1.723,0,0,0-1.535.9v4.317h-.876Z"/>
    <path class="a6f3d7fc-ba98-4ed3-8f8d-974000f3dfee" d="M619.368,143.264c0-1.043.875-1.739,2.194-1.739a3.391,3.391,0,0,1,1.788.456v-.8a1.318,1.318,0,0,0-1.511-1.451,3.867,3.867,0,0,0-1.776.5l-.323-.672a5.007,5.007,0,0,1,2.206-.563c1.451,0,2.267.731,2.267,2.063v3.885h-.863v-.683a2.512,2.512,0,0,1-1.859.791A1.889,1.889,0,0,1,619.368,143.264Zm2.3,1.116a2.317,2.317,0,0,0,1.679-.672v-1.127a3.091,3.091,0,0,0-1.656-.42c-.9,0-1.487.432-1.487,1.079C620.207,143.924,620.795,144.38,621.671,144.38Z"/>
    <path class="a6f3d7fc-ba98-4ed3-8f8d-974000f3dfee" d="M626.867,144.943h-.876v-8.575l.876-.18Z"/>
    <path class="a6f3d7fc-ba98-4ed3-8f8d-974000f3dfee" d="M628.835,147.582l-.456-.612a6.266,6.266,0,0,0,0-9.954l.456-.6a6.9,6.9,0,0,1,0,11.166Z"/>
  </g>
  <g>
    <path class="fed2aa08-cdef-4f82-8cee-2310b70e5e58" d="M310.321,103.978a4.33,4.33,0,1,1,4.33-4.33A4.293,4.293,0,0,1,310.321,103.978Zm-.011-6.824a2.513,2.513,0,1,0,2.207,2.494A2.308,2.308,0,0,0,310.31,97.154Z"/>
    <path class="fed2aa08-cdef-4f82-8cee-2310b70e5e58" d="M315.28,97.658h2.111l1.4,3.885,1.416-3.885h2l-2.531,6.188h-1.9Z"/>
    <path class="fed2aa08-cdef-4f82-8cee-2310b70e5e58" d="M326.042,103.966a3.2,3.2,0,0,1-3.263-3.2A3.105,3.105,0,0,1,325.9,97.55a3.041,3.041,0,0,1,3.047,3.286v.419h-4.257a1.484,1.484,0,0,0,1.451,1.164,1.531,1.531,0,0,0,1.223-.516l1.284,1.068A3.611,3.611,0,0,1,326.042,103.966Zm-1.355-3.814h2.459a1.289,1.289,0,0,0-1.26-1.091A1.228,1.228,0,0,0,324.687,100.152Z"/>
    <path class="fed2aa08-cdef-4f82-8cee-2310b70e5e58" d="M330.16,97.658H332.1v1.4c.4-1.032.948-1.523,1.679-1.523a1.34,1.34,0,0,1,.648.155v1.668a2.133,2.133,0,0,0-.912-.192,1.709,1.709,0,0,0-1.415.768v3.909H330.16Z"/>
    <path class="fed2aa08-cdef-4f82-8cee-2310b70e5e58" d="M339.757,101.675l1.151,1.14a3.254,3.254,0,0,1-2.518,1.151,3.2,3.2,0,0,1,0-6.4,3.35,3.35,0,0,1,2.579,1.139l-1.188,1.187a1.617,1.617,0,0,0-1.319-.671,1.546,1.546,0,0,0,.048,3.07A1.5,1.5,0,0,0,339.757,101.675Z"/>
    <path class="fed2aa08-cdef-4f82-8cee-2310b70e5e58" d="M343.874,103.846h-1.942V95.271l1.942-.3Z"/>
    <path class="fed2aa08-cdef-4f82-8cee-2310b70e5e58" d="M348.338,97.562a3.2,3.2,0,1,1-3.227,3.2A3.15,3.15,0,0,1,348.338,97.562Zm1.343,3.2a1.356,1.356,0,1,0-2.674,0,1.353,1.353,0,1,0,2.674,0Z"/>
    <path class="fed2aa08-cdef-4f82-8cee-2310b70e5e58" d="M354.71,101.268a1.03,1.03,0,0,0,1.031,1.151,1.251,1.251,0,0,0,1.032-.516V97.658h1.943v6.188h-1.943v-1.007a2.285,2.285,0,0,1-1.955,1.1,2,2,0,0,1-2.05-2.11V97.658h1.942Z"/>
    <path class="fed2aa08-cdef-4f82-8cee-2310b70e5e58" d="M364.513,103.042a2.335,2.335,0,0,1-1.824.84,2.949,2.949,0,0,1-2.734-3.142,2.984,2.984,0,0,1,2.879-3.118,2.166,2.166,0,0,1,1.655.743V95.271l1.943-.3v8.875h-1.919Zm-1.175-.767a1.5,1.5,0,0,0,1.151-.492V99.7a1.579,1.579,0,0,0-1.151-.479,1.53,1.53,0,0,0,0,3.058Z"/>
    <path class="fed2aa08-cdef-4f82-8cee-2310b70e5e58" d="M370.875,101.915a4.007,4.007,0,0,0,1.991.624c.552,0,.887-.192.887-.5,0-.24-.18-.371-.575-.444l-1.188-.216c-1.2-.228-1.823-.839-1.823-1.8,0-1.272.972-2.027,2.591-2.027a4.98,4.98,0,0,1,2.518.707l-.887,1.236a3.5,3.5,0,0,0-1.775-.528c-.468,0-.744.156-.744.431,0,.252.156.36.636.444l1.163.216c1.224.228,1.871.852,1.859,1.787.012,1.212-1.139,2.123-2.662,2.123a5.057,5.057,0,0,1-2.843-.756Z"/>
    <path class="fed2aa08-cdef-4f82-8cee-2310b70e5e58" d="M377.475,99.157h-1.2v-1.5h1.2V95.942l1.942-.395v2.111h1.655v1.5h-1.655v2.4c0,.551.216.743.816.743a2.6,2.6,0,0,0,.791-.132v1.571a5.394,5.394,0,0,1-1.331.192c-1.463,0-2.218-.672-2.218-1.991Z"/>
    <path class="fed2aa08-cdef-4f82-8cee-2310b70e5e58" d="M381.867,102.071c0-1.139.888-1.8,2.41-1.8a4.027,4.027,0,0,1,1.44.288v-.5c0-.6-.4-.9-1.223-.9a4.623,4.623,0,0,0-1.739.431l-.672-1.355a6.848,6.848,0,0,1,2.843-.671c1.715,0,2.71.851,2.71,2.326v3.958h-1.919v-.539a2.466,2.466,0,0,1-1.715.635A1.926,1.926,0,0,1,381.867,102.071Zm2.735.588a2.11,2.11,0,0,0,1.115-.312v-.791a4.641,4.641,0,0,0-1.068-.133c-.635,0-1,.216-1,.612S384,102.659,384.6,102.659Z"/>
    <path class="fed2aa08-cdef-4f82-8cee-2310b70e5e58" d="M393.4,101.675l1.151,1.14a3.256,3.256,0,0,1-2.519,1.151,3.2,3.2,0,0,1,0-6.4,3.348,3.348,0,0,1,2.579,1.139l-1.187,1.187a1.618,1.618,0,0,0-1.319-.671,1.546,1.546,0,0,0,.047,3.07A1.5,1.5,0,0,0,393.4,101.675Z"/>
    <path class="fed2aa08-cdef-4f82-8cee-2310b70e5e58" d="M395.57,95.271l1.943-.3v5.145l2.159-2.458h2.146l-2.518,2.77,2.7,3.418h-2.422l-2.063-2.734v2.734H395.57Z"/>
  </g>
  <g>
    <g>
      <path class="bbe863ac-40ea-4c26-b5c1-d5f02d5f394c" d="M667.411,554.6a2.5,2.5,0,0,1-1.1-.245,2.528,2.528,0,0,1-.866-.691,3.325,3.325,0,0,1-.564-1.059,4.229,4.229,0,0,1-.2-1.345,5.139,5.139,0,0,1,.224-1.566,3.647,3.647,0,0,1,.635-1.205,2.848,2.848,0,0,1,.99-.774,2.967,2.967,0,0,1,1.291-.275,3.134,3.134,0,0,1,.865.124,2.908,2.908,0,0,1,.774.345l-.359.561a2.893,2.893,0,0,0-.655-.28,2.437,2.437,0,0,0-.685-.1,2.034,2.034,0,0,0-1.7.83,3.733,3.733,0,0,0-.655,2.27,2.8,2.8,0,0,1,.934-.781,2.423,2.423,0,0,1,1.115-.279,2.61,2.61,0,0,1,.941.165,2.233,2.233,0,0,1,.739.455,2.048,2.048,0,0,1,.485.69,2.137,2.137,0,0,1,.175.87,2.322,2.322,0,0,1-.179.915,2.146,2.146,0,0,1-.5.724,2.349,2.349,0,0,1-.75.476A2.518,2.518,0,0,1,667.411,554.6Zm-.069-3.88a2.2,2.2,0,0,0-1.05.274,2.763,2.763,0,0,0-.881.756,2.815,2.815,0,0,0,.651,1.609,1.713,1.713,0,0,0,1.339.611,1.62,1.62,0,0,0,1.186-.47,1.583,1.583,0,0,0,.475-1.171,1.515,1.515,0,0,0-.486-1.154A1.727,1.727,0,0,0,667.342,550.718Z"/>
      <path class="bbe863ac-40ea-4c26-b5c1-d5f02d5f394c" d="M673.361,554.617a3.19,3.19,0,0,1-1-.149,2.568,2.568,0,0,1-.79-.415,1.9,1.9,0,0,1-.52-.63,1.738,1.738,0,0,1-.185-.795,1.616,1.616,0,0,1,.465-1.13,2.3,2.3,0,0,1,1.185-.671,2,2,0,0,1-1-.609,1.468,1.468,0,0,1-.385-.99,1.57,1.57,0,0,1,.17-.725,1.747,1.747,0,0,1,.465-.575,2.265,2.265,0,0,1,.705-.38,2.817,2.817,0,0,1,1.76,0,2.315,2.315,0,0,1,.71.38,1.725,1.725,0,0,1,.47.575,1.582,1.582,0,0,1,.17.725,1.463,1.463,0,0,1-.385.99,2,2,0,0,1-1,.609,2.289,2.289,0,0,1,1.18.665,1.624,1.624,0,0,1,.46,1.136,1.771,1.771,0,0,1-.185.8,1.842,1.842,0,0,1-.515.63,2.556,2.556,0,0,1-.79.41A3.235,3.235,0,0,1,673.361,554.617Zm0-.59a1.932,1.932,0,0,0,1.265-.42,1.28,1.28,0,0,0,.515-1.03,1.26,1.26,0,0,0-.515-1.015,2.135,2.135,0,0,0-2.53,0,1.263,1.263,0,0,0-.515,1.015,1.283,1.283,0,0,0,.515,1.03A1.93,1.93,0,0,0,673.361,554.027Zm0-3.5a1.653,1.653,0,0,0,1.085-.365,1.146,1.146,0,0,0,0-1.809,1.791,1.791,0,0,0-2.17,0,1.146,1.146,0,0,0,0,1.809A1.637,1.637,0,0,0,673.361,550.527Z"/>
      <path class="bbe863ac-40ea-4c26-b5c1-d5f02d5f394c" d="M681.012,555.317v.571h-4.59v-.571Z"/>
      <path class="bbe863ac-40ea-4c26-b5c1-d5f02d5f394c" d="M688.531,551.018a3.728,3.728,0,0,1-.27,1.415,3.558,3.558,0,0,1-.74,1.15,3.484,3.484,0,0,1-1.1.765,3.455,3.455,0,0,1-2.725,0,3.484,3.484,0,0,1-1.11-.765,3.558,3.558,0,0,1-.74-1.15,3.843,3.843,0,0,1,0-2.83,3.563,3.563,0,0,1,.74-1.151,3.465,3.465,0,0,1,1.11-.764,3.444,3.444,0,0,1,2.725,0,3.465,3.465,0,0,1,1.1.764,3.563,3.563,0,0,1,.74,1.151A3.724,3.724,0,0,1,688.531,551.018Zm-.78,0a3.1,3.1,0,0,0-.21-1.145,2.933,2.933,0,0,0-.57-.926,2.63,2.63,0,0,0-.855-.614,2.622,2.622,0,0,0-2.13,0,2.63,2.63,0,0,0-.855.614,2.933,2.933,0,0,0-.57.926,3.224,3.224,0,0,0,0,2.289,2.922,2.922,0,0,0,.57.926,2.616,2.616,0,0,0,.855.614,2.622,2.622,0,0,0,2.13,0,2.616,2.616,0,0,0,.855-.614,2.922,2.922,0,0,0,.57-.926A3.1,3.1,0,0,0,687.751,551.018Z"/>
      <path class="bbe863ac-40ea-4c26-b5c1-d5f02d5f394c" d="M689.852,556.607v-6.969h.719v.7a1.861,1.861,0,0,1,.686-.566,2.045,2.045,0,0,1,.894-.2,2.066,2.066,0,0,1,.885.2,2.205,2.205,0,0,1,.716.531,2.558,2.558,0,0,1,.475.795,2.741,2.741,0,0,1,.174.979,2.77,2.77,0,0,1-.174.99,2.428,2.428,0,0,1-.486.795,2.29,2.29,0,0,1-.729.531,2.131,2.131,0,0,1-.9.195,2.078,2.078,0,0,1-.854-.176,1.844,1.844,0,0,1-.675-.5v2.7Zm2.12-6.389a1.808,1.808,0,0,0-.795.175,1.529,1.529,0,0,0-.6.5v2.389a1.646,1.646,0,0,0,.605.5,1.748,1.748,0,0,0,.785.181,1.587,1.587,0,0,0,1.219-.535,2.06,2.06,0,0,0,0-2.67A1.583,1.583,0,0,0,691.972,550.218Z"/>
      <path class="bbe863ac-40ea-4c26-b5c1-d5f02d5f394c" d="M699.712,553.958a3.059,3.059,0,0,1-.87.489,2.836,2.836,0,0,1-.96.16,2.338,2.338,0,0,1-.955-.195,2.379,2.379,0,0,1-.771-.534,2.478,2.478,0,0,1-.51-.806,2.667,2.667,0,0,1-.184-1,2.794,2.794,0,0,1,.175-.994,2.4,2.4,0,0,1,.485-.8,2.308,2.308,0,0,1,.73-.529,2.133,2.133,0,0,1,.91-.2,2.08,2.08,0,0,1,.889.19,2.2,2.2,0,0,1,.71.515,2.328,2.328,0,0,1,.471.78,2.768,2.768,0,0,1,.17.975v.219h-3.83a1.854,1.854,0,0,0,.55,1.236,1.631,1.631,0,0,0,1.19.5,2.044,2.044,0,0,0,.734-.135,1.885,1.885,0,0,0,.606-.365Zm-1.96-3.77a1.406,1.406,0,0,0-1.03.429,1.909,1.909,0,0,0-.531,1.1h3.09a1.817,1.817,0,0,0-.5-1.095A1.38,1.38,0,0,0,697.752,550.188Z"/>
      <path class="bbe863ac-40ea-4c26-b5c1-d5f02d5f394c" d="M701.251,554.518v-4.88h.73v.79a1.949,1.949,0,0,1,.67-.651,1.765,1.765,0,0,1,.88-.219,1.718,1.718,0,0,1,1.275.5,1.766,1.766,0,0,1,.5,1.3v3.161h-.73v-2.951a1.435,1.435,0,0,0-.355-1.019,1.242,1.242,0,0,0-.955-.38,1.442,1.442,0,0,0-.73.189,1.535,1.535,0,0,0-.55.561v3.6Z"/>
      <path class="bbe863ac-40ea-4c26-b5c1-d5f02d5f394c" d="M706.3,553.428l.47-.561a4.5,4.5,0,0,0,1.184.841,2.985,2.985,0,0,0,1.235.25,2.149,2.149,0,0,0,1.34-.4,1.224,1.224,0,0,0,.531-1,.959.959,0,0,0-.356-.8,2.8,2.8,0,0,0-1.2-.431l-1.131-.189a2.739,2.739,0,0,1-1.4-.585,1.45,1.45,0,0,1-.445-1.115,1.8,1.8,0,0,1,.669-1.441,2.611,2.611,0,0,1,1.731-.559,4.7,4.7,0,0,1,1.449.215,4.856,4.856,0,0,1,1.32.674l-.4.6a4.455,4.455,0,0,0-1.144-.62,3.533,3.533,0,0,0-1.215-.221,1.9,1.9,0,0,0-1.2.365,1.107,1.107,0,0,0-.469.906.887.887,0,0,0,.309.719,2.1,2.1,0,0,0,1.01.371l1.12.19a3.352,3.352,0,0,1,1.62.649,1.557,1.557,0,0,1,.51,1.231,1.818,1.818,0,0,1-.2.84,2.041,2.041,0,0,1-.556.67,2.717,2.717,0,0,1-.845.44,3.411,3.411,0,0,1-1.059.159,3.882,3.882,0,0,1-1.525-.295A4.539,4.539,0,0,1,706.3,553.428Z"/>
      <path class="bbe863ac-40ea-4c26-b5c1-d5f02d5f394c" d="M713.581,553.418v-3.181h-1.01v-.6h1.01V548.3l.73-.17v1.51h1.4v.6h-1.4v2.991a.785.785,0,0,0,.165.559.734.734,0,0,0,.545.171,1.83,1.83,0,0,0,.34-.03,2.828,2.828,0,0,0,.35-.1v.651a2.126,2.126,0,0,1-.42.1,3.02,3.02,0,0,1-.43.03,1.347,1.347,0,0,1-.955-.3A1.153,1.153,0,0,1,713.581,553.418Z"/>
      <path class="bbe863ac-40ea-4c26-b5c1-d5f02d5f394c" d="M718.29,554.607a1.909,1.909,0,0,1-1.274-.415,1.335,1.335,0,0,1-.5-1.075,1.275,1.275,0,0,1,.5-1.05,2.078,2.078,0,0,1,1.326-.4,3.2,3.2,0,0,1,.795.1,2.575,2.575,0,0,1,.694.285v-.67a1.2,1.2,0,0,0-.319-.905,1.319,1.319,0,0,0-.941-.3,2.537,2.537,0,0,0-.694.1,4.2,4.2,0,0,0-.785.32l-.271-.561a5.1,5.1,0,0,1,.95-.354,3.57,3.57,0,0,1,.89-.115,2.011,2.011,0,0,1,1.4.445,1.622,1.622,0,0,1,.5,1.274v3.241h-.721v-.571a2.09,2.09,0,0,1-1.55.66Zm-1.069-1.509a.822.822,0,0,0,.34.689,1.4,1.4,0,0,0,.879.261,1.975,1.975,0,0,0,.755-.141,2.08,2.08,0,0,0,.645-.42v-.939a2.531,2.531,0,0,0-.64-.266,3,3,0,0,0-.74-.085,1.485,1.485,0,0,0-.9.25A.773.773,0,0,0,717.221,553.1Z"/>
      <path class="bbe863ac-40ea-4c26-b5c1-d5f02d5f394c" d="M724.271,553.947a1.941,1.941,0,0,0,.755-.149,1.671,1.671,0,0,0,.605-.431l.45.45a2.486,2.486,0,0,1-.835.58,2.528,2.528,0,0,1-1.015.21,2.354,2.354,0,0,1-1.71-.729,2.635,2.635,0,0,1-.7-1.8,2.636,2.636,0,0,1,.185-.989,2.492,2.492,0,0,1,.51-.8,2.375,2.375,0,0,1,.765-.534,2.317,2.317,0,0,1,.95-.2,2.685,2.685,0,0,1,1.03.2,2.54,2.54,0,0,1,.85.559l-.47.51a1.9,1.9,0,0,0-.63-.444,1.805,1.805,0,0,0-.75-.165,1.6,1.6,0,0,0-.675.144,1.643,1.643,0,0,0-.54.4,1.975,1.975,0,0,0-.5,1.319,1.884,1.884,0,0,0,.5,1.33A1.6,1.6,0,0,0,724.271,553.947Z"/>
      <path class="bbe863ac-40ea-4c26-b5c1-d5f02d5f394c" d="M727.131,554.518v-7.151l.73-.149v4.609l2.32-2.189h.88l-2.48,2.32,2.59,2.56h-.96l-2.35-2.33v2.33Z"/>
      <path class="bbe863ac-40ea-4c26-b5c1-d5f02d5f394c" d="M735.851,555.317v.571h-4.59v-.571Z"/>
      <path class="bbe863ac-40ea-4c26-b5c1-d5f02d5f394c" d="M739.14,554.617a2.347,2.347,0,0,1-1.105-.264,2.573,2.573,0,0,1-.865-.741,3.577,3.577,0,0,1-.561-1.139,5.422,5.422,0,0,1,0-2.911,3.522,3.522,0,0,1,.566-1.139,2.628,2.628,0,0,1,.865-.74,2.307,2.307,0,0,1,1.1-.265,2.339,2.339,0,0,1,1.105.265,2.566,2.566,0,0,1,.864.74,3.556,3.556,0,0,1,.561,1.139,5.4,5.4,0,0,1,0,2.911,3.556,3.556,0,0,1-.561,1.139,2.569,2.569,0,0,1-.864.741A2.35,2.35,0,0,1,739.14,554.617Zm0-.649a1.68,1.68,0,0,0,1.455-.806,4.474,4.474,0,0,0,0-4.289,1.708,1.708,0,0,0-2.9,0,4.463,4.463,0,0,0,0,4.289A1.686,1.686,0,0,0,739.14,553.968Z"/>
      <path class="bbe863ac-40ea-4c26-b5c1-d5f02d5f394c" d="M742.94,554.518v-.531l2.8-3.059a4.559,4.559,0,0,0,.67-.891,1.61,1.61,0,0,0,.181-.75,1.09,1.09,0,0,0-.42-.869,1.59,1.59,0,0,0-1.051-.351,2.169,2.169,0,0,0-.915.2,3.832,3.832,0,0,0-.934.655l-.42-.5a3.929,3.929,0,0,1,1.1-.745,2.934,2.934,0,0,1,1.176-.245,2.349,2.349,0,0,1,1.555.514,1.632,1.632,0,0,1,.615,1.306,2.129,2.129,0,0,1-.051.48,1.962,1.962,0,0,1-.17.455,3.5,3.5,0,0,1-.324.5c-.137.179-.313.386-.526.62l-2.389,2.589,3.609-.009v.63Z"/>
      <path class="bbe863ac-40ea-4c26-b5c1-d5f02d5f394c" d="M748.42,554.518v-.531l2.8-3.059a4.559,4.559,0,0,0,.67-.891,1.609,1.609,0,0,0,.18-.75,1.087,1.087,0,0,0-.42-.869,1.587,1.587,0,0,0-1.05-.351,2.166,2.166,0,0,0-.915.2,3.835,3.835,0,0,0-.935.655l-.42-.5a3.933,3.933,0,0,1,1.1-.745,2.929,2.929,0,0,1,1.175-.245,2.347,2.347,0,0,1,1.555.514,1.632,1.632,0,0,1,.615,1.306,2.073,2.073,0,0,1-.051.48,1.956,1.956,0,0,1-.169.455,3.606,3.606,0,0,1-.325.5c-.136.179-.312.386-.525.62l-2.39,2.589,3.61-.009v.63Z"/>
      <path class="bbe863ac-40ea-4c26-b5c1-d5f02d5f394c" d="M756.7,554.617a2.346,2.346,0,0,1-1.1-.264,2.585,2.585,0,0,1-.866-.741,3.575,3.575,0,0,1-.56-1.139,5.422,5.422,0,0,1,0-2.911,3.521,3.521,0,0,1,.565-1.139,2.641,2.641,0,0,1,.866-.74,2.306,2.306,0,0,1,1.1-.265,2.34,2.34,0,0,1,1.106.265,2.566,2.566,0,0,1,.864.74,3.555,3.555,0,0,1,.56,1.139,5.37,5.37,0,0,1,0,2.911,3.555,3.555,0,0,1-.56,1.139,2.569,2.569,0,0,1-.864.741A2.351,2.351,0,0,1,756.7,554.617Zm0-.649a1.678,1.678,0,0,0,1.455-.806,4.474,4.474,0,0,0,0-4.289,1.707,1.707,0,0,0-2.9,0,4.456,4.456,0,0,0,0,4.289A1.684,1.684,0,0,0,756.7,553.968Z"/>
    </g>
    <rect class="a55d0c4d-5da7-4585-bfd4-578b66babb7f" y="531.5" width="760" height="40"/>
  </g>
</svg>
