<svg id="e061b57e-f6b0-419b-bdbe-f71dcfaf20ae" data-name="artwork" xmlns="http://www.w3.org/2000/svg" width="760" height="363.864"><defs><style>.e675a3af-27fb-4219-8999-6cff8a07cb3b{fill:#e8e8e8}.fdc5acb1-e1c4-41e9-90e0-3bde58f7496c{font-size:14px}.adc454e1-4db8-4e39-83fa-63e8be6a41da,.b5ef31c4-3320-492c-b908-01e002be09f2,.bcf3b857-0d5f-4563-a76e-adb41c901179,.f04c23da-c060-4ce4-962b-1cdf76306779,.fdc5acb1-e1c4-41e9-90e0-3bde58f7496c{fill:#151515}.b5ef31c4-3320-492c-b908-01e002be09f2,.fdc5acb1-e1c4-41e9-90e0-3bde58f7496c{font-family:RedHatText,&quot;Red Hat Text&quot;,Overpass,&quot;Helvetica Neue&quot;,Arial,sans-serif;font-weight:700}.f36cb9eb-9cd5-4915-b22f-cec399fbab1a{fill:#fff}.b5ef31c4-3320-492c-b908-01e002be09f2,.bcf3b857-0d5f-4563-a76e-adb41c901179{font-size:12px}.adc454e1-4db8-4e39-83fa-63e8be6a41da{font-size:11px}.adc454e1-4db8-4e39-83fa-63e8be6a41da,.bcf3b857-0d5f-4563-a76e-adb41c901179{font-family:RedHatText,&quot;Red Hat Text&quot;,Overpass,&quot;Helvetica Neue&quot;,Arial,sans-serif;font-weight:500}.a45020a7-6812-4324-90ed-a987b9f9042f,.af5cc14e-56de-4c84-997e-a2eff8b8bf71,.b1b2371b-60d5-4c2b-ad36-63cc401a0fae,.b38f6814-ea10-458c-8b05-21abe50e0d3b,.b9611e6f-4e14-44b7-8864-f2ffc09c01e0,.bcf08b2e-d1f2-4245-a31b-f6b372381d03{fill:none}.a45020a7-6812-4324-90ed-a987b9f9042f,.b1b2371b-60d5-4c2b-ad36-63cc401a0fae,.bcf08b2e-d1f2-4245-a31b-f6b372381d03{stroke:#adadad}.a45020a7-6812-4324-90ed-a987b9f9042f,.af5cc14e-56de-4c84-997e-a2eff8b8bf71,.b1b2371b-60d5-4c2b-ad36-63cc401a0fae,.b38f6814-ea10-458c-8b05-21abe50e0d3b,.b9611e6f-4e14-44b7-8864-f2ffc09c01e0,.bcf08b2e-d1f2-4245-a31b-f6b372381d03{stroke-linecap:round;stroke-linejoin:round}.bcf08b2e-d1f2-4245-a31b-f6b372381d03{stroke-dasharray:3 3}.a45020a7-6812-4324-90ed-a987b9f9042f{stroke-dasharray:2.998 2.998}.b38f6814-ea10-458c-8b05-21abe50e0d3b{stroke:#151515}.b5aeca9d-f453-423b-86cd-e9bf2638b79a{fill:#06c}.af5cc14e-56de-4c84-997e-a2eff8b8bf71,.b9611e6f-4e14-44b7-8864-f2ffc09c01e0{stroke:#99c2eb}.b9611e6f-4e14-44b7-8864-f2ffc09c01e0{stroke-dasharray:3.2 3.2}</style></defs><path class="e675a3af-27fb-4219-8999-6cff8a07cb3b" d="M0 16h310v307.864H0z"/><text class="fdc5acb1-e1c4-41e9-90e0-3bde58f7496c" transform="translate(20 303.984)">Linux machine</text><path class="f36cb9eb-9cd5-4915-b22f-cec399fbab1a" transform="rotate(180 155 147.614)" d="M20 46.364h270v202.5H20z"/><text class="b5ef31c4-3320-492c-b908-01e002be09f2" transform="translate(35 233.704)">Gateway</text><path class="e675a3af-27fb-4219-8999-6cff8a07cb3b" d="M35 158.864h240v50H35z"/><text class="adc454e1-4db8-4e39-83fa-63e8be6a41da" transform="translate(119.641 186.911)">Local process</text><path class="e675a3af-27fb-4219-8999-6cff8a07cb3b" d="M346.5 16H760v307.864H346.5z"/><path class="b1b2371b-60d5-4c2b-ad36-63cc401a0fae" d="M366.5 262.364v1.5h1.5"/><path class="bcf08b2e-d1f2-4245-a31b-f6b372381d03" d="M371 263.864h172.5"/><path class="b1b2371b-60d5-4c2b-ad36-63cc401a0fae" d="M545 263.864h1.5v-1.5"/><path class="a45020a7-6812-4324-90ed-a987b9f9042f" d="M546.5 259.366V38.999"/><path class="b1b2371b-60d5-4c2b-ad36-63cc401a0fae" d="M546.5 37.5V36H545"/><path class="bcf08b2e-d1f2-4245-a31b-f6b372381d03" d="M542 36H369.5"/><path class="b1b2371b-60d5-4c2b-ad36-63cc401a0fae" d="M368 36h-1.5v1.5"/><path class="a45020a7-6812-4324-90ed-a987b9f9042f" d="M366.5 40.498v220.367"/><text class="fdc5acb1-e1c4-41e9-90e0-3bde58f7496c" transform="translate(366.5 303.984)">Kubernetes Cluster</text><path class="f36cb9eb-9cd5-4915-b22f-cec399fbab1a" transform="rotate(180 456.5 147.614)" d="M376.5 46.364h160v202.5h-160z"/><text class="b5ef31c4-3320-492c-b908-01e002be09f2" transform="translate(391.5 233.704)">Site A</text><path class="e675a3af-27fb-4219-8999-6cff8a07cb3b" d="M391.5 158.864h130v50h-130z"/><text class="adc454e1-4db8-4e39-83fa-63e8be6a41da" transform="translate(437.289 186.911)">Service</text><path class="b38f6814-ea10-458c-8b05-21abe50e0d3b" d="M456.5 149.188V123.54"/><path class="f04c23da-c060-4ce4-962b-1cdf76306779" d="M461.486 147.729l-4.986 8.635-4.986-8.635h9.972zM461.486 124.999l-4.986-8.635-4.986 8.635h9.972z"/><path class="f36cb9eb-9cd5-4915-b22f-cec399fbab1a" transform="rotate(180 650 147.614)" d="M570 46.364h160v202.5H570z"/><text class="b5ef31c4-3320-492c-b908-01e002be09f2" transform="translate(585 233.704)">Site B</text><path class="e675a3af-27fb-4219-8999-6cff8a07cb3b" d="M585 158.864h130v50H585z"/><text class="adc454e1-4db8-4e39-83fa-63e8be6a41da" transform="translate(630.789 186.911)">Service</text><path class="b38f6814-ea10-458c-8b05-21abe50e0d3b" d="M650 149.188V123.54"/><path class="f04c23da-c060-4ce4-962b-1cdf76306779" d="M654.986 147.729L650 156.364l-4.986-8.635h9.972zM654.986 124.999L650 116.364l-4.986 8.635h9.972z"/><path class="b1b2371b-60d5-4c2b-ad36-63cc401a0fae" d="M560 262.364v1.5h1.5"/><path class="bcf08b2e-d1f2-4245-a31b-f6b372381d03" d="M564.5 263.864H737"/><path class="b1b2371b-60d5-4c2b-ad36-63cc401a0fae" d="M738.5 263.864h1.5v-1.5"/><path class="a45020a7-6812-4324-90ed-a987b9f9042f" d="M740 259.366V38.999"/><path class="b1b2371b-60d5-4c2b-ad36-63cc401a0fae" d="M740 37.5V36h-1.5"/><path class="bcf08b2e-d1f2-4245-a31b-f6b372381d03" d="M735.5 36H563"/><path class="b1b2371b-60d5-4c2b-ad36-63cc401a0fae" d="M561.5 36H560v1.5"/><path class="a45020a7-6812-4324-90ed-a987b9f9042f" d="M560 40.498v220.367"/><path class="b5aeca9d-f453-423b-86cd-e9bf2638b79a" d="M35 61.364h679.5v52.5H35z"/><path class="e675a3af-27fb-4219-8999-6cff8a07cb3b" d="M411.889 258.817h89.223v15.094h-89.223z"/><text class="bcf3b857-0d5f-4563-a76e-adb41c901179" transform="translate(417.992 267.496)">Namespace A</text><path class="e675a3af-27fb-4219-8999-6cff8a07cb3b" d="M605.352 258.817h89.297v15.094h-89.297z"/><text class="bcf3b857-0d5f-4563-a76e-adb41c901179" transform="translate(611.498 267.496)">Namespace B</text><path class="f36cb9eb-9cd5-4915-b22f-cec399fbab1a" d="M130.001 128.982v-21.428l25-7.143 25 7.143v21.428h-50z"/><text class="adc454e1-4db8-4e39-83fa-63e8be6a41da" transform="translate(143.778 118.831)">TCP</text><g><path class="af5cc14e-56de-4c84-997e-a2eff8b8bf71" d="M155 98.411v-1.5"/><path stroke-dasharray="3.16 3.16" stroke="#99c2eb" stroke-linecap="round" stroke-linejoin="round" fill="none" d="M155 93.751V89.01"/><path class="af5cc14e-56de-4c84-997e-a2eff8b8bf71" d="M155 87.43v-1.5h1.5"/><path stroke-dasharray="3.015 3.015" stroke="#99c2eb" stroke-linecap="round" stroke-linejoin="round" fill="none" d="M159.515 85.93h293.978"/><path class="af5cc14e-56de-4c84-997e-a2eff8b8bf71" d="M455.001 85.93h1.5v1.5"/><path class="b9611e6f-4e14-44b7-8864-f2ffc09c01e0" d="M456.501 90.63v17.601"/><path class="af5cc14e-56de-4c84-997e-a2eff8b8bf71" d="M456.501 109.831v1.5"/></g><g><path class="af5cc14e-56de-4c84-997e-a2eff8b8bf71" d="M456.501 85.93h1.5"/><path stroke-dasharray="3.024 3.024" stroke="#99c2eb" stroke-linecap="round" stroke-linejoin="round" fill="none" d="M461.025 85.93h185.963"/><path class="af5cc14e-56de-4c84-997e-a2eff8b8bf71" d="M648.5 85.93h1.5v1.5"/><path class="b9611e6f-4e14-44b7-8864-f2ffc09c01e0" d="M650 90.63v17.601"/><path class="af5cc14e-56de-4c84-997e-a2eff8b8bf71" d="M650 109.831v1.5"/></g><g><path class="b38f6814-ea10-458c-8b05-21abe50e0d3b" d="M155 149.188V133.54"/><path class="f04c23da-c060-4ce4-962b-1cdf76306779" d="M159.986 147.729L155 156.364l-4.986-8.635h9.972zM159.986 134.999L155 126.364l-4.986 8.635h9.972z"/></g><path class="b5aeca9d-f453-423b-86cd-e9bf2638b79a" d="M261.046 72.008h119.95v25.211h-119.95z"/><text transform="translate(264.394 88.735)" font-size="11" fill="#fff" font-family="RedHatText,&quot;Red Hat Text&quot;,Overpass,&quot;Helvetica Neue&quot;,Arial,sans-serif" font-weight="700">Service interconnect</text><g><text transform="translate(690.491 346.881)" font-size="10" fill="#f3f3f3" font-family="RedHatText,&quot;Red Hat Text&quot;,Overpass,&quot;Helvetica Neue&quot;,Arial,sans-serif">130_AMQ_0821</text><path fill="none" d="M-.25 323.864h760v40h-760z"/></g></svg>