<svg id="b3f0068c-34d8-461e-92b5-dcdd9b6134fc" data-name="artwork" xmlns="http://www.w3.org/2000/svg" width="760" height="363.864"><defs><style>.beb93c36-0967-4e3b-88bd-2af5dbfcbca3{fill:#e8e8e8}.afcc51c5-c24c-498b-a754-f8a75f8ec9ac{font-size:14px}.ae12c8a8-1e41-4a3d-ad85-b7e2afa28085,.ae882727-f452-42bc-98ee-39914d3d3aca,.afcc51c5-c24c-498b-a754-f8a75f8ec9ac,.b43556f5-2e30-4f45-b703-232fd8317d2b,.bc8c8972-9f0f-403e-8a63-c6bbc3021ff8{fill:#151515}.ae882727-f452-42bc-98ee-39914d3d3aca,.afcc51c5-c24c-498b-a754-f8a75f8ec9ac{font-family:RedHatText,&quot;Red Hat Text&quot;,Overpass,&quot;Helvetica Neue&quot;,Arial,sans-serif;font-weight:700}.be6ec3f8-501f-4f64-a54d-4048aeda985f{fill:#fff}.ae12c8a8-1e41-4a3d-ad85-b7e2afa28085,.ae882727-f452-42bc-98ee-39914d3d3aca{font-size:12px}.b43556f5-2e30-4f45-b703-232fd8317d2b{font-size:11px}.ae12c8a8-1e41-4a3d-ad85-b7e2afa28085,.b43556f5-2e30-4f45-b703-232fd8317d2b{font-family:RedHatText,&quot;Red Hat Text&quot;,Overpass,&quot;Helvetica Neue&quot;,Arial,sans-serif;font-weight:500}.a4cd9931-2d37-40ad-8626-6bf927faa111,.a51a1042-1f7b-441e-a36c-709f89e321c2,.a97a2fd1-5224-4b3f-8ee5-5e14fed8a025,.b86290ba-5142-49b3-ab49-bc666e9c1f3c,.b8be943e-8754-49a9-b440-55ed3f723685,.ecb57844-cc57-4b63-bd28-129b09202968{fill:none}.a4cd9931-2d37-40ad-8626-6bf927faa111,.a51a1042-1f7b-441e-a36c-709f89e321c2,.b8be943e-8754-49a9-b440-55ed3f723685{stroke:#adadad}.a4cd9931-2d37-40ad-8626-6bf927faa111,.a51a1042-1f7b-441e-a36c-709f89e321c2,.a97a2fd1-5224-4b3f-8ee5-5e14fed8a025,.b86290ba-5142-49b3-ab49-bc666e9c1f3c,.b8be943e-8754-49a9-b440-55ed3f723685,.ecb57844-cc57-4b63-bd28-129b09202968{stroke-linecap:round;stroke-linejoin:round}.a4cd9931-2d37-40ad-8626-6bf927faa111{stroke-dasharray:3 3}.a51a1042-1f7b-441e-a36c-709f89e321c2{stroke-dasharray:2.998 2.998}.a97a2fd1-5224-4b3f-8ee5-5e14fed8a025{stroke:#151515}.a28bbed7-a7ae-407c-b28f-0b89ba84e26f{fill:#06c}.b86290ba-5142-49b3-ab49-bc666e9c1f3c,.ecb57844-cc57-4b63-bd28-129b09202968{stroke:#99c2eb}.b86290ba-5142-49b3-ab49-bc666e9c1f3c{stroke-dasharray:3.2 3.2}</style></defs><path class="beb93c36-0967-4e3b-88bd-2af5dbfcbca3" d="M0 16h310v307.864H0z"/><text class="afcc51c5-c24c-498b-a754-f8a75f8ec9ac" transform="translate(20 303.984)">Linux machine</text><path class="be6ec3f8-501f-4f64-a54d-4048aeda985f" transform="rotate(180 155 147.614)" d="M30 46.364h250v202.5H30z"/><text class="ae882727-f452-42bc-98ee-39914d3d3aca" transform="translate(45 233.704)">Gateway</text><path class="beb93c36-0967-4e3b-88bd-2af5dbfcbca3" d="M45 158.864h220v50H45z"/><text class="b43556f5-2e30-4f45-b703-232fd8317d2b" transform="translate(119.641 186.911)">Local process</text><path class="beb93c36-0967-4e3b-88bd-2af5dbfcbca3" d="M346.5 16H760v307.864H346.5z"/><path class="b8be943e-8754-49a9-b440-55ed3f723685" d="M366.5 262.364v1.5h1.5"/><path class="a4cd9931-2d37-40ad-8626-6bf927faa111" d="M371 263.864h172.5"/><path class="b8be943e-8754-49a9-b440-55ed3f723685" d="M545 263.864h1.5v-1.5"/><path class="a51a1042-1f7b-441e-a36c-709f89e321c2" d="M546.5 259.366V38.999"/><path class="b8be943e-8754-49a9-b440-55ed3f723685" d="M546.5 37.5V36H545"/><path class="a4cd9931-2d37-40ad-8626-6bf927faa111" d="M542 36H369.5"/><path class="b8be943e-8754-49a9-b440-55ed3f723685" d="M368 36h-1.5v1.5"/><path class="a51a1042-1f7b-441e-a36c-709f89e321c2" d="M366.5 40.498v220.367"/><text class="afcc51c5-c24c-498b-a754-f8a75f8ec9ac" transform="translate(366.5 303.984)">Kubernetes Cluster</text><path class="be6ec3f8-501f-4f64-a54d-4048aeda985f" transform="rotate(180 456.5 147.614)" d="M376.5 46.364h160v202.5h-160z"/><text class="ae882727-f452-42bc-98ee-39914d3d3aca" transform="translate(391.5 233.704)">Site A</text><path class="beb93c36-0967-4e3b-88bd-2af5dbfcbca3" d="M391.5 158.864h130v50h-130z"/><text class="b43556f5-2e30-4f45-b703-232fd8317d2b" transform="translate(437.289 186.911)">Service</text><path class="a97a2fd1-5224-4b3f-8ee5-5e14fed8a025" d="M456.5 149.188V123.54"/><path class="bc8c8972-9f0f-403e-8a63-c6bbc3021ff8" d="M461.486 147.729l-4.986 8.635-4.986-8.635h9.972zM461.486 124.999l-4.986-8.635-4.986 8.635h9.972z"/><path class="be6ec3f8-501f-4f64-a54d-4048aeda985f" transform="rotate(180 650 147.614)" d="M570 46.364h160v202.5H570z"/><text class="ae882727-f452-42bc-98ee-39914d3d3aca" transform="translate(585 233.704)">Site B</text><path class="beb93c36-0967-4e3b-88bd-2af5dbfcbca3" d="M585 158.864h130v50H585z"/><text class="b43556f5-2e30-4f45-b703-232fd8317d2b" transform="translate(630.789 186.911)">Service</text><path class="a97a2fd1-5224-4b3f-8ee5-5e14fed8a025" d="M650 149.188V123.54"/><path class="bc8c8972-9f0f-403e-8a63-c6bbc3021ff8" d="M654.986 147.729L650 156.364l-4.986-8.635h9.972zM654.986 124.999L650 116.364l-4.986 8.635h9.972z"/><path class="b8be943e-8754-49a9-b440-55ed3f723685" d="M560 262.364v1.5h1.5"/><path class="a4cd9931-2d37-40ad-8626-6bf927faa111" d="M564.5 263.864H737"/><path class="b8be943e-8754-49a9-b440-55ed3f723685" d="M738.5 263.864h1.5v-1.5"/><path class="a51a1042-1f7b-441e-a36c-709f89e321c2" d="M740 259.366V38.999"/><path class="b8be943e-8754-49a9-b440-55ed3f723685" d="M740 37.5V36h-1.5"/><path class="a4cd9931-2d37-40ad-8626-6bf927faa111" d="M735.5 36H563"/><path class="b8be943e-8754-49a9-b440-55ed3f723685" d="M561.5 36H560v1.5"/><path class="a51a1042-1f7b-441e-a36c-709f89e321c2" d="M560 40.498v220.367"/><path class="a28bbed7-a7ae-407c-b28f-0b89ba84e26f" d="M45 61.364h669.5v52.5H45z"/><path class="beb93c36-0967-4e3b-88bd-2af5dbfcbca3" d="M411.889 258.817h89.223v15.094h-89.223z"/><text class="ae12c8a8-1e41-4a3d-ad85-b7e2afa28085" transform="translate(417.992 267.496)">Namespace A</text><path class="beb93c36-0967-4e3b-88bd-2af5dbfcbca3" d="M605.352 258.817h89.297v15.094h-89.297z"/><text class="ae12c8a8-1e41-4a3d-ad85-b7e2afa28085" transform="translate(611.498 267.496)">Namespace B</text><path class="be6ec3f8-501f-4f64-a54d-4048aeda985f" d="M130.001 128.982v-21.428l25-7.143 25 7.143v21.428h-50z"/><text class="b43556f5-2e30-4f45-b703-232fd8317d2b" transform="translate(143.778 118.831)">TCP</text><g><path class="ecb57844-cc57-4b63-bd28-129b09202968" d="M155 98.411v-1.5"/><path stroke-dasharray="3.16 3.16" stroke="#99c2eb" stroke-linecap="round" stroke-linejoin="round" fill="none" d="M155 93.751V89.01"/><path class="ecb57844-cc57-4b63-bd28-129b09202968" d="M155 87.43v-1.5h1.5"/><path stroke-dasharray="3.015 3.015" stroke="#99c2eb" stroke-linecap="round" stroke-linejoin="round" fill="none" d="M159.515 85.93h293.978"/><path class="ecb57844-cc57-4b63-bd28-129b09202968" d="M455.001 85.93h1.5v1.5"/><path class="b86290ba-5142-49b3-ab49-bc666e9c1f3c" d="M456.501 90.63v17.601"/><path class="ecb57844-cc57-4b63-bd28-129b09202968" d="M456.501 109.831v1.5"/></g><g><path class="ecb57844-cc57-4b63-bd28-129b09202968" d="M456.501 85.93h1.5"/><path stroke-dasharray="3.024 3.024" stroke="#99c2eb" stroke-linecap="round" stroke-linejoin="round" fill="none" d="M461.025 85.93h185.963"/><path class="ecb57844-cc57-4b63-bd28-129b09202968" d="M648.5 85.93h1.5v1.5"/><path class="b86290ba-5142-49b3-ab49-bc666e9c1f3c" d="M650 90.63v17.601"/><path class="ecb57844-cc57-4b63-bd28-129b09202968" d="M650 109.831v1.5"/></g><g><path class="a97a2fd1-5224-4b3f-8ee5-5e14fed8a025" d="M155 149.188V133.54"/><path class="bc8c8972-9f0f-403e-8a63-c6bbc3021ff8" d="M159.986 147.729L155 156.364l-4.986-8.635h9.972zM159.986 134.999L155 126.364l-4.986 8.635h9.972z"/></g><path class="a28bbed7-a7ae-407c-b28f-0b89ba84e26f" d="M261.046 72.008h119.95v25.211h-119.95z"/><text transform="translate(264.394 88.735)" font-size="11" fill="#fff" font-family="RedHatText,&quot;Red Hat Text&quot;,Overpass,&quot;Helvetica Neue&quot;,Arial,sans-serif" font-weight="700">Service interconnect</text><g><text transform="translate(690.491 346.881)" font-size="10" fill="#f3f3f3" font-family="RedHatText,&quot;Red Hat Text&quot;,Overpass,&quot;Helvetica Neue&quot;,Arial,sans-serif">130_AMQ_0821</text><path fill="none" d="M-.25 323.864h760v40h-760z"/></g></svg>