<svg id="aa33e91d-3e4c-4c57-babe-fe0e67b3c468" data-name="artwork" xmlns="http://www.w3.org/2000/svg" width="760" height="338"><defs><style>.a5d2db89-92e7-42ca-b04a-480417fdeeac{font-family:RedHatText,&quot;Red Hat Text&quot;,Overpass,&quot;Helvetica Neue&quot;,Arial,sans-serif}.a1ad32de-a294-477e-8909-39efd91b5db9{fill:none;stroke:#151515;stroke-linecap:round;stroke-linejoin:round}.af44f101-deb3-4234-91b5-95400f2e0e26,.b3072f2d-6c44-4cd0-b8e2-5d8a37b6e006,.bf82c8ad-d314-4f42-9080-04a0593b3727{fill:#151515}.ae6e4b53-d60b-4472-bee2-1b63da1d030a{fill:#e8e8e8}.b3072f2d-6c44-4cd0-b8e2-5d8a37b6e006,.bf82c8ad-d314-4f42-9080-04a0593b3727{font-size:14px}.b3072f2d-6c44-4cd0-b8e2-5d8a37b6e006{font-family:RedHatText,&quot;Red Hat Text&quot;,Overpass,&quot;Helvetica Neue&quot;,Arial,sans-serif;font-weight:700}.a6e0019c-526c-4c5c-bfcb-5878577a7a7a{fill:#fff}.aa3ab497-7210-4a11-8f1f-94cb086b191b{fill:#06c}.bf82c8ad-d314-4f42-9080-04a0593b3727{font-family:RedHatText,&quot;Red Hat Text&quot;,Overpass,&quot;Helvetica Neue&quot;,Arial,sans-serif;font-weight:500}.a5d2db89-92e7-42ca-b04a-480417fdeeac{font-weight:400}</style></defs><text transform="translate(698.501 321.017)" font-family="RedHatText,&quot;Red Hat Text&quot;,Overpass,&quot;Helvetica Neue&quot;,Arial,sans-serif" fill="#f3f3f3" font-size="10">144_RHI_0221</text><path fill="none" d="M0 298h760v40H0z"/><path transform="rotate(-180 380 198.929)" fill="#f3f3f3" d="M0 99.929h760v198H0z"/><path class="a1ad32de-a294-477e-8909-39efd91b5db9" d="M629.784 89.676V120"/><path class="af44f101-deb3-4234-91b5-95400f2e0e26" d="M624.798 91.135l4.986-8.635 4.987 8.635h-9.973z"/><path class="ae6e4b53-d60b-4472-bee2-1b63da1d030a" d="M519.791 120h220v126h-220z"/><text class="b3072f2d-6c44-4cd0-b8e2-5d8a37b6e006" transform="translate(539.791 151.032)">Kafka Connect</text><path class="a6e0019c-526c-4c5c-bfcb-5878577a7a7a" d="M540.291 166.5h179v59h-179z"/><path class="aa3ab497-7210-4a11-8f1f-94cb086b191b" d="M718.791 167v58h-178v-58h178m1-1h-180v60h180v-60z"/><text class="bf82c8ad-d314-4f42-9080-04a0593b3727" transform="translate(588.358 192.379)">Camel Kafka<tspan x="-6.622" y="15">sink connector</tspan></text><path class="a1ad32de-a294-477e-8909-39efd91b5db9" d="M260.115 183h-25.324"/><path class="af44f101-deb3-4234-91b5-95400f2e0e26" d="M258.656 178.014l8.635 4.986-8.635 4.986v-9.972z"/><path class="a1ad32de-a294-477e-8909-39efd91b5db9" d="M129.791 80v30.324"/><path class="af44f101-deb3-4234-91b5-95400f2e0e26" d="M124.804 108.865l4.987 8.635 4.986-8.635h-9.973z"/><path class="a1ad32de-a294-477e-8909-39efd91b5db9" d="M511.115 183h-25.324"/><path class="af44f101-deb3-4234-91b5-95400f2e0e26" d="M509.656 178.014l8.635 4.986-8.635 4.986v-9.972z"/><path class="ae6e4b53-d60b-4472-bee2-1b63da1d030a" d="M269.791 120h220v126h-220z"/><path class="a6e0019c-526c-4c5c-bfcb-5878577a7a7a" d="M290.291 166.5h179v59h-179z"/><path class="aa3ab497-7210-4a11-8f1f-94cb086b191b" d="M468.791 167v58h-178v-58h178m1-1h-180v60h180v-60z"/><text class="b3072f2d-6c44-4cd0-b8e2-5d8a37b6e006" transform="translate(289.791 151.032)">Kafka cluster</text><text class="bf82c8ad-d314-4f42-9080-04a0593b3727" transform="translate(342.391 200.378)">Kafka topic</text><path class="ae6e4b53-d60b-4472-bee2-1b63da1d030a" d="M36.291 20h180v60h-180z"/><text class="bf82c8ad-d314-4f42-9080-04a0593b3727" transform="translate(73.638 46.476)">External system<tspan class="a5d2db89-92e7-42ca-b04a-480417fdeeac"><tspan x="26.019" y="15">(source)</tspan></tspan></text><path class="ae6e4b53-d60b-4472-bee2-1b63da1d030a" d="M539.784 20h180v60h-180z"/><text class="bf82c8ad-d314-4f42-9080-04a0593b3727" transform="translate(577.132 46.476)">External system<tspan class="a5d2db89-92e7-42ca-b04a-480417fdeeac"><tspan x="35.027" y="15">(sink)</tspan></tspan></text><path class="ae6e4b53-d60b-4472-bee2-1b63da1d030a" d="M19.791 120h220v126h-220z"/><g><path class="a6e0019c-526c-4c5c-bfcb-5878577a7a7a" d="M40.291 166.5h179v59h-179z"/><path class="aa3ab497-7210-4a11-8f1f-94cb086b191b" d="M218.791 167v58h-178v-58h178m1-1h-180v60h180v-60z"/></g><text class="bf82c8ad-d314-4f42-9080-04a0593b3727" transform="translate(88.358 192.378)">Camel Kafka<tspan x="-15.679" y="15">source connector</tspan></text><text class="b3072f2d-6c44-4cd0-b8e2-5d8a37b6e006" transform="translate(39.791 151.032)">Kafka Connect</text><text transform="translate(20.323 276.971)" font-size="16" font-family="RedHatText,&quot;Red Hat Text&quot;,Overpass,&quot;Helvetica Neue&quot;,Arial,sans-serif" font-weight="700" fill="#151515">AMQ Streams</text></svg>