<svg id="a70ffad0-8c04-4e0a-880b-60e3b93b6cfe" data-name="artwork" xmlns="http://www.w3.org/2000/svg" width="760" height="462.347"><defs><style>.b57f4a8b-62a0-4755-a1f1-ab3158cd19f9{fill:#d0d0d0}.a7196209-b487-439c-9746-776b8d7f0c7e{fill:#fff}.ba42c348-5fb3-483b-8f72-9fc790cd1edf{fill:#06c}.ba35a6ba-e10c-406f-ad4a-f4dffc39bfc3{fill:#e8e8e8}.a4411cc1-ef0d-4838-814f-cad8c17febeb,.b1a4b02a-e97c-472f-a3e3-303c855e93ab{font-size:11px}.a4411cc1-ef0d-4838-814f-cad8c17febeb,.b1a4b02a-e97c-472f-a3e3-303c855e93ab,.f757331a-d33e-4e40-9e8a-e5eb0b9d6956{fill:#151515}.a4411cc1-ef0d-4838-814f-cad8c17febeb{font-family:RedHatText,&quot;Red Hat Text&quot;,Overpass,&quot;Helvetica Neue&quot;,Arial,sans-serif;font-weight:500}.b1a4b02a-e97c-472f-a3e3-303c855e93ab{font-family:LiberationMono,&quot;Liberation Mono&quot;,Consolas,Monaco,&quot;Andale Mono&quot;,monospace;font-weight:700}.af5c7fee-524d-4f8a-b9a8-06230ddec139{fill:none;stroke:#151515;stroke-linecap:round;stroke-linejoin:round}.f4df28dd-b3c2-4ae1-94af-859d144ca643{letter-spacing:-.015em}</style></defs><path class="b57f4a8b-62a0-4755-a1f1-ab3158cd19f9" d="M759 288.6v133H1v-133h758m1-1H0v135h760v-135zM759 53.594v203H1v-203h758m1-1H0v205h760v-205z"/><path class="a7196209-b487-439c-9746-776b8d7f0c7e" d="M20.5 308.104h79v44h-79z"/><path class="ba42c348-5fb3-483b-8f72-9fc790cd1edf" d="M99 308.6v43H21v-43h78m1-1H20v45h80v-45z"/><path class="ba35a6ba-e10c-406f-ad4a-f4dffc39bfc3" d="M25 312.603h70v35H25z"/><text class="a4411cc1-ef0d-4838-814f-cad8c17febeb" transform="translate(39.37 333.15)">Object 1</text><path class="a7196209-b487-439c-9746-776b8d7f0c7e" d="M105.5 308.104h79v44h-79z"/><path class="ba42c348-5fb3-483b-8f72-9fc790cd1edf" d="M184 308.6v43h-78v-43h78m1-1h-80v45h80v-45z"/><path class="ba35a6ba-e10c-406f-ad4a-f4dffc39bfc3" d="M110 312.603h70v35h-70z"/><text class="a4411cc1-ef0d-4838-814f-cad8c17febeb" transform="translate(122.912 333.15)">Object 3</text><path class="a7196209-b487-439c-9746-776b8d7f0c7e" d="M20.5 358.104h79v44h-79z"/><path class="ba42c348-5fb3-483b-8f72-9fc790cd1edf" d="M99 358.6v43H21v-43h78m1-1H20v45h80v-45z"/><path class="ba35a6ba-e10c-406f-ad4a-f4dffc39bfc3" d="M25 362.603h70v35H25z"/><text class="a4411cc1-ef0d-4838-814f-cad8c17febeb" transform="translate(38.116 383.15)">Object 2</text><path class="a7196209-b487-439c-9746-776b8d7f0c7e" d="M105.5 358.104h79v44h-79z"/><path class="ba42c348-5fb3-483b-8f72-9fc790cd1edf" d="M184 358.6v43h-78v-43h78m1-1h-80v45h80v-45z"/><path class="ba35a6ba-e10c-406f-ad4a-f4dffc39bfc3" d="M110 362.603h70v35h-70z"/><text class="a4411cc1-ef0d-4838-814f-cad8c17febeb" transform="translate(122.065 383.15)">Object N</text><path class="a7196209-b487-439c-9746-776b8d7f0c7e" d="M63 73.099h79v164H63z"/><path class="ba42c348-5fb3-483b-8f72-9fc790cd1edf" d="M141.5 73.6v163h-78v-163h78m1-1h-80v165h80v-165z"/><path class="ba35a6ba-e10c-406f-ad4a-f4dffc39bfc3" d="M67.5 77.598h70v35h-70z"/><text class="a4411cc1-ef0d-4838-814f-cad8c17febeb" transform="translate(81.87 98.145)">Object 1</text><path class="ba35a6ba-e10c-406f-ad4a-f4dffc39bfc3" d="M67.5 117.598h70v35h-70z"/><text class="a4411cc1-ef0d-4838-814f-cad8c17febeb" transform="translate(80.616 138.145)">Object 2</text><g><path class="ba35a6ba-e10c-406f-ad4a-f4dffc39bfc3" d="M67.5 157.598h70v35h-70z"/><text class="a4411cc1-ef0d-4838-814f-cad8c17febeb" transform="translate(80.412 178.145)">Object 3</text></g><g><path class="ba35a6ba-e10c-406f-ad4a-f4dffc39bfc3" d="M67.5 197.598h70v35h-70z"/><text class="a4411cc1-ef0d-4838-814f-cad8c17febeb" transform="translate(79.565 218.145)">Object N</text></g><g><path class="a7196209-b487-439c-9746-776b8d7f0c7e" d="M248 73.099h79v164h-79z"/><path class="ba42c348-5fb3-483b-8f72-9fc790cd1edf" d="M326.5 73.6v163h-78v-163h78m1-1h-80v165h80v-165z"/><path class="ba35a6ba-e10c-406f-ad4a-f4dffc39bfc3" d="M252.5 77.598h70v35h-70z"/><text class="a4411cc1-ef0d-4838-814f-cad8c17febeb" transform="translate(266.87 98.145)">Object 1</text><path class="ba35a6ba-e10c-406f-ad4a-f4dffc39bfc3" d="M252.5 117.598h70v35h-70z"/><text class="a4411cc1-ef0d-4838-814f-cad8c17febeb" transform="translate(265.616 138.145)">Object 2</text><g><path class="ba35a6ba-e10c-406f-ad4a-f4dffc39bfc3" d="M252.5 157.598h70v35h-70z"/><text class="a4411cc1-ef0d-4838-814f-cad8c17febeb" transform="translate(265.412 178.145)">Object 3</text></g><g><path class="ba35a6ba-e10c-406f-ad4a-f4dffc39bfc3" d="M252.5 197.598h70v35h-70z"/><text class="a4411cc1-ef0d-4838-814f-cad8c17febeb" transform="translate(264.565 218.145)">Object N</text></g></g><g><path class="a7196209-b487-439c-9746-776b8d7f0c7e" d="M433 73.099h79v164h-79z"/><path class="ba42c348-5fb3-483b-8f72-9fc790cd1edf" d="M511.5 73.6v163h-78v-163h78m1-1h-80v165h80v-165z"/><path class="ba35a6ba-e10c-406f-ad4a-f4dffc39bfc3" d="M437.5 77.598h70v35h-70z"/><text class="a4411cc1-ef0d-4838-814f-cad8c17febeb" transform="translate(451.87 98.145)">Object 1</text><path class="ba35a6ba-e10c-406f-ad4a-f4dffc39bfc3" d="M437.5 117.598h70v35h-70z"/><text class="a4411cc1-ef0d-4838-814f-cad8c17febeb" transform="translate(450.616 138.145)">Object 2</text><g><path class="ba35a6ba-e10c-406f-ad4a-f4dffc39bfc3" d="M437.5 157.598h70v35h-70z"/><text class="a4411cc1-ef0d-4838-814f-cad8c17febeb" transform="translate(450.412 178.145)">Object 3</text></g><g><path class="ba35a6ba-e10c-406f-ad4a-f4dffc39bfc3" d="M437.5 197.598h70v35h-70z"/><text class="a4411cc1-ef0d-4838-814f-cad8c17febeb" transform="translate(449.565 218.145)">Object N</text></g></g><g><path class="a7196209-b487-439c-9746-776b8d7f0c7e" d="M618 73.099h79v164h-79z"/><path class="ba42c348-5fb3-483b-8f72-9fc790cd1edf" d="M696.5 73.6v163h-78v-163h78m1-1h-80v165h80v-165z"/><path class="ba35a6ba-e10c-406f-ad4a-f4dffc39bfc3" d="M622.5 77.598h70v35h-70z"/><text class="a4411cc1-ef0d-4838-814f-cad8c17febeb" transform="translate(636.869 98.145)">Object 1</text><path class="ba35a6ba-e10c-406f-ad4a-f4dffc39bfc3" d="M622.5 117.598h70v35h-70z"/><text class="a4411cc1-ef0d-4838-814f-cad8c17febeb" transform="translate(635.616 138.145)">Object 2</text><g><path class="ba35a6ba-e10c-406f-ad4a-f4dffc39bfc3" d="M622.5 157.598h70v35h-70z"/><text class="a4411cc1-ef0d-4838-814f-cad8c17febeb" transform="translate(635.412 178.145)">Object 3</text></g><g><path class="ba35a6ba-e10c-406f-ad4a-f4dffc39bfc3" d="M622.5 197.598h70v35h-70z"/><text class="a4411cc1-ef0d-4838-814f-cad8c17febeb" transform="translate(634.565 218.145)">Object N</text></g></g><g><path class="a7196209-b487-439c-9746-776b8d7f0c7e" d="M205.5 308.104h79v44h-79z"/><path class="ba42c348-5fb3-483b-8f72-9fc790cd1edf" d="M284 308.6v43h-78v-43h78m1-1h-80v45h80v-45z"/><path class="ba35a6ba-e10c-406f-ad4a-f4dffc39bfc3" d="M210 312.603h70v35h-70z"/><text class="a4411cc1-ef0d-4838-814f-cad8c17febeb" transform="translate(224.37 333.15)">Object 1</text><path class="a7196209-b487-439c-9746-776b8d7f0c7e" d="M290.5 308.104h79v44h-79z"/><path class="ba42c348-5fb3-483b-8f72-9fc790cd1edf" d="M369 308.6v43h-78v-43h78m1-1h-80v45h80v-45z"/><path class="ba35a6ba-e10c-406f-ad4a-f4dffc39bfc3" d="M295 312.603h70v35h-70z"/><text class="a4411cc1-ef0d-4838-814f-cad8c17febeb" transform="translate(307.912 333.15)">Object 3</text><path class="a7196209-b487-439c-9746-776b8d7f0c7e" d="M205.5 358.104h79v44h-79z"/><path class="ba42c348-5fb3-483b-8f72-9fc790cd1edf" d="M284 358.6v43h-78v-43h78m1-1h-80v45h80v-45z"/><path class="ba35a6ba-e10c-406f-ad4a-f4dffc39bfc3" d="M210 362.603h70v35h-70z"/><text class="a4411cc1-ef0d-4838-814f-cad8c17febeb" transform="translate(223.116 383.15)">Object 2</text><g><path class="a7196209-b487-439c-9746-776b8d7f0c7e" d="M290.5 358.104h79v44h-79z"/><path class="ba42c348-5fb3-483b-8f72-9fc790cd1edf" d="M369 358.6v43h-78v-43h78m1-1h-80v45h80v-45z"/></g><path class="ba35a6ba-e10c-406f-ad4a-f4dffc39bfc3" d="M295 362.603h70v35h-70z"/><text class="a4411cc1-ef0d-4838-814f-cad8c17febeb" transform="translate(307.065 383.15)">Object N</text></g><g><path class="a7196209-b487-439c-9746-776b8d7f0c7e" d="M390.5 308.104h79v44h-79z"/><path class="ba42c348-5fb3-483b-8f72-9fc790cd1edf" d="M469 308.6v43h-78v-43h78m1-1h-80v45h80v-45z"/><path class="ba35a6ba-e10c-406f-ad4a-f4dffc39bfc3" d="M395 312.603h70v35h-70z"/><text class="a4411cc1-ef0d-4838-814f-cad8c17febeb" transform="translate(409.37 333.15)">Object 1</text><path class="a7196209-b487-439c-9746-776b8d7f0c7e" d="M475.5 308.104h79v44h-79z"/><path class="ba42c348-5fb3-483b-8f72-9fc790cd1edf" d="M554 308.6v43h-78v-43h78m1-1h-80v45h80v-45z"/><path class="ba35a6ba-e10c-406f-ad4a-f4dffc39bfc3" d="M480 312.603h70v35h-70z"/><text class="a4411cc1-ef0d-4838-814f-cad8c17febeb" transform="translate(492.912 333.15)">Object 3</text><path class="a7196209-b487-439c-9746-776b8d7f0c7e" d="M390.5 358.104h79v44h-79z"/><path class="ba42c348-5fb3-483b-8f72-9fc790cd1edf" d="M469 358.6v43h-78v-43h78m1-1h-80v45h80v-45z"/><path class="ba35a6ba-e10c-406f-ad4a-f4dffc39bfc3" d="M395 362.603h70v35h-70z"/><text class="a4411cc1-ef0d-4838-814f-cad8c17febeb" transform="translate(408.116 383.15)">Object 2</text><g><path class="a7196209-b487-439c-9746-776b8d7f0c7e" d="M475.5 358.104h79v44h-79z"/><path class="ba42c348-5fb3-483b-8f72-9fc790cd1edf" d="M554 358.6v43h-78v-43h78m1-1h-80v45h80v-45z"/></g><path class="ba35a6ba-e10c-406f-ad4a-f4dffc39bfc3" d="M480 362.603h70v35h-70z"/><text class="a4411cc1-ef0d-4838-814f-cad8c17febeb" transform="translate(492.065 383.15)">Object N</text></g><g><path class="a7196209-b487-439c-9746-776b8d7f0c7e" d="M575.5 308.104h79v44h-79z"/><path class="ba42c348-5fb3-483b-8f72-9fc790cd1edf" d="M654 308.6v43h-78v-43h78m1-1h-80v45h80v-45z"/><path class="ba35a6ba-e10c-406f-ad4a-f4dffc39bfc3" d="M580 312.603h70v35h-70z"/><text class="a4411cc1-ef0d-4838-814f-cad8c17febeb" transform="translate(594.37 333.15)">Object 1</text><path class="a7196209-b487-439c-9746-776b8d7f0c7e" d="M660.5 308.104h79v44h-79z"/><path class="ba42c348-5fb3-483b-8f72-9fc790cd1edf" d="M739 308.6v43h-78v-43h78m1-1h-80v45h80v-45z"/><path class="ba35a6ba-e10c-406f-ad4a-f4dffc39bfc3" d="M665 312.603h70v35h-70z"/><text class="a4411cc1-ef0d-4838-814f-cad8c17febeb" transform="translate(677.912 333.15)">Object 3</text><path class="a7196209-b487-439c-9746-776b8d7f0c7e" d="M575.5 358.104h79v44h-79z"/><path class="ba42c348-5fb3-483b-8f72-9fc790cd1edf" d="M654 358.6v43h-78v-43h78m1-1h-80v45h80v-45z"/><path class="ba35a6ba-e10c-406f-ad4a-f4dffc39bfc3" d="M580 362.603h70v35h-70z"/><text class="a4411cc1-ef0d-4838-814f-cad8c17febeb" transform="translate(593.116 383.15)">Object 2</text><g><path class="a7196209-b487-439c-9746-776b8d7f0c7e" d="M660.5 358.104h79v44h-79z"/><path class="ba42c348-5fb3-483b-8f72-9fc790cd1edf" d="M739 358.6v43h-78v-43h78m1-1h-80v45h80v-45z"/></g><path class="ba35a6ba-e10c-406f-ad4a-f4dffc39bfc3" d="M665 362.603h70v35h-70z"/><text class="a4411cc1-ef0d-4838-814f-cad8c17febeb" transform="translate(677.066 383.15)">Object N</text></g><path class="a7196209-b487-439c-9746-776b8d7f0c7e" d="M340.95 47.525h78.1v13.156h-78.1z"/><text class="b1a4b02a-e97c-472f-a3e3-303c855e93ab" transform="translate(346.995 55.128)">pg_num = 4</text><path class="a7196209-b487-439c-9746-776b8d7f0c7e" d="M338.421 279.525h83.158v16.156h-83.158z"/><text class="b1a4b02a-e97c-472f-a3e3-303c855e93ab" transform="translate(343.694 290.128)">pg_num = 16</text><g><path class="af5c7fee-524d-4f8a-b9a8-06230ddec139" d="M657.499 237.037v60.89"/><path class="f757331a-d33e-4e40-9e8a-e5eb0b9d6956" d="M652.513 296.468l4.986 8.635 4.987-8.635h-9.973z"/></g><g><path class="af5c7fee-524d-4f8a-b9a8-06230ddec139" d="M472.5 237.037v60.89"/><path class="f757331a-d33e-4e40-9e8a-e5eb0b9d6956" d="M467.514 296.468l4.986 8.635 4.986-8.635h-9.972z"/></g><g><path class="af5c7fee-524d-4f8a-b9a8-06230ddec139" d="M287.5 237.037v60.89"/><path class="f757331a-d33e-4e40-9e8a-e5eb0b9d6956" d="M282.514 296.468l4.986 8.635 4.986-8.635h-9.972z"/></g><g><path class="af5c7fee-524d-4f8a-b9a8-06230ddec139" d="M102.5 237.037v60.89"/><path class="f757331a-d33e-4e40-9e8a-e5eb0b9d6956" d="M97.514 296.468l4.986 8.635 4.986-8.635h-9.972z"/></g><g><path class="a7196209-b487-439c-9746-776b8d7f0c7e" d="M.5 18.008h13.997v13.997H.5z"/><path class="ba42c348-5fb3-483b-8f72-9fc790cd1edf" d="M1 18.505l13 .006v12.994H1v-13m-1-1v15h14.994L15 17.512l-15-.007z"/><text transform="translate(20.927 28.29)" font-size="10" font-family="RedHatText,&quot;Red Hat Text&quot;,Overpass,&quot;Helvetica Neue&quot;,Arial,sans-serif" font-weight="500" fill="#151515">Pla<tspan class="f4df28dd-b3c2-4ae1-94af-859d144ca643" x="14.81" y="0">c</tspan><tspan x="19.89" y="0">eme</tspan><tspan class="f4df28dd-b3c2-4ae1-94af-859d144ca643" x="40.109" y="0">n</tspan><tspan x="45.779" y="0" letter-spacing="0">t G</tspan><tspan x="60.189" y="0" letter-spacing="-.024em">r</tspan><tspan x="63.879" y="0">oup</tspan></text></g><g><text transform="translate(690.231 445.616)" fill="#f3f3f3" font-family="RedHatText,&quot;Red Hat Text&quot;,Overpass,&quot;Helvetica Neue&quot;,Arial,sans-serif" font-size="10">149_Ceph_0321</text><path fill="none" d="M0 422.598h760v40H0z"/></g></svg>