<svg id="f5454786-ad46-4281-9b9c-8e91fa283402" data-name="Layer 1" xmlns="http://www.w3.org/2000/svg" width="760" height="134.5"><defs><style>.be1caac8-2fee-4ecd-af06-1d77dd0ca11c{fill:#e8e8e8}.a8615968-2796-45b8-af1e-1c8063392b73{fill:#f3f3f3}.efeb208c-b6dc-4a30-8fb3-a70a30987d4f{font-size:11px;font-family:RedHatText,&quot;Red Hat Text&quot;,Overpass,&quot;Helvetica Neue&quot;,Arial,sans-serif;font-style:italic}.a73cfef1-71b1-447f-bc0c-4b062b566fa9,.efeb208c-b6dc-4a30-8fb3-a70a30987d4f,.fd24e4e8-7995-4b52-993f-1732594fcd1d{fill:#151515}.e5e23086-d981-4791-97a6-e704bbabf743{fill:none;stroke:#06c;stroke-linecap:round;stroke-linejoin:round;stroke-dasharray:3 3}.ef4e1ff5-3465-45ae-8826-3a935fa2b29e{fill:#06c}.a73cfef1-71b1-447f-bc0c-4b062b566fa9{font-size:14px;font-family:RedHatText,&quot;Red Hat Text&quot;,Overpass,&quot;Helvetica Neue&quot;,Arial,sans-serif;font-weight:700}.fd24e4e8-7995-4b52-993f-1732594fcd1d{font-size:10px;font-family:LiberationMono,&quot;Liberation Mono&quot;,Consolas,Monaco,&quot;Andale Mono&quot;,monospace;letter-spacing:-.02em}</style></defs><path class="be1caac8-2fee-4ecd-af06-1d77dd0ca11c" d="M594.292 0h165.5v94.5h-165.5zM305.793 0h173v94.5h-173zM0 0h158v94.5H0z"/><path class="a8615968-2796-45b8-af1e-1c8063392b73" d="M15 56.631h128v23H15zM609.292 56.631h133v23h-133zM320.792 56.631h143v23h-143z"/><text class="efeb208c-b6dc-4a30-8fb3-a70a30987d4f" transform="translate(179.158 71.525)">Certificate replication<tspan x="23.699" y="12">agreements</tspan></text><text class="efeb208c-b6dc-4a30-8fb3-a70a30987d4f" transform="translate(193.37 17.222)">Data replication<tspan x="9.487" y="12">agreements</tspan></text><path class="e5e23086-d981-4791-97a6-e704bbabf743" d="M166.676 37.25H296.72"/><path class="ef4e1ff5-3465-45ae-8826-3a935fa2b29e" d="M168.135 42.236L159.5 37.25l8.635-4.986v9.972zM295.261 42.236l8.635-4.986-8.635-4.986v9.972z"/><path class="e5e23086-d981-4791-97a6-e704bbabf743" d="M166.676 57.25H296.72"/><path class="ef4e1ff5-3465-45ae-8826-3a935fa2b29e" d="M168.135 62.236L159.5 57.25l8.635-4.986v9.972zM295.261 62.236l8.635-4.986-8.635-4.986v9.972z"/><text class="efeb208c-b6dc-4a30-8fb3-a70a30987d4f" transform="translate(498.766 17.222)">Data replication<tspan x="9.487" y="12">agreements</tspan></text><path class="e5e23086-d981-4791-97a6-e704bbabf743" d="M489.573 37.25h95.043"/><path class="ef4e1ff5-3465-45ae-8826-3a935fa2b29e" d="M491.031 42.236l-8.635-4.986 8.635-4.987v9.973zM583.157 42.236l8.635-4.986-8.635-4.987v9.973z"/><text class="a73cfef1-71b1-447f-bc0c-4b062b566fa9" transform="translate(320.792 26.788)">IdM CA Replica<tspan x="0" y="15">Server</tspan></text><text class="a73cfef1-71b1-447f-bc0c-4b062b566fa9" transform="translate(14.999 26.788)">IdM Server</text><text class="fd24e4e8-7995-4b52-993f-1732594fcd1d" transform="translate(23.89 72.276)">server1.example.com</text><text class="fd24e4e8-7995-4b52-993f-1732594fcd1d" transform="translate(328.48 72.276)">caReplica2.example.com</text><text class="fd24e4e8-7995-4b52-993f-1732594fcd1d" transform="translate(617.782 72.276)">replica3.example.com</text><text class="a73cfef1-71b1-447f-bc0c-4b062b566fa9" transform="translate(609.292 26.788)">IdM Replica Server</text><g><text transform="translate(692.091 117.517)" font-family="RedHatText,&quot;Red Hat Text&quot;,Overpass,&quot;Helvetica Neue&quot;,Arial,sans-serif" font-size="10" fill="#f3f3f3">137_RHEL_0121</text><path fill="none" d="M0 94.5h760v40H0z"/></g></svg>