<svg id="b0a1ef24-630a-4de3-a544-b9d2bedff0fa" data-name="artwork" xmlns="http://www.w3.org/2000/svg" width="760" height="672.21" viewBox="0 0 760 672.21">
  <defs>
    <style>
      .afa01ad1-2a45-43f5-8969-81079d8c08ad, .b8893dee-d487-4eab-aa7f-81bb191a7c0f, .ef065a0f-c5a7-4dc8-bbed-970e3fba9eb6 {
        fill: none;
      }

      .afa01ad1-2a45-43f5-8969-81079d8c08ad {
        stroke: #d9e8f7;
        stroke-miterlimit: 10;
        stroke-width: 1.5px;
      }

      .b8893dee-d487-4eab-aa7f-81bb191a7c0f {
        stroke: #151515;
        stroke-linecap: round;
        stroke-linejoin: round;
      }

      .bfb282b1-09f0-45ed-a464-05e72e98363d, .e7aba5cd-32f3-4ce5-a839-90bc5df11d18, .f7debca3-bfe7-4e27-bf25-bfe1516ee013 {
        fill: #151515;
      }

      .ea240ad2-f3b0-4fe3-81e3-328bf185e47e {
        fill: #e8e8e8;
      }

      .a6ce5809-f8fb-48ab-93cc-10ce2bb473c5, .bfb282b1-09f0-45ed-a464-05e72e98363d, .f7debca3-bfe7-4e27-bf25-bfe1516ee013 {
        font-size: 12px;
      }

      .f7debca3-bfe7-4e27-bf25-bfe1516ee013 {
        font-family: RedHatText-Medium, Red Hat Text;
        font-weight: 500;
      }

      .f586dfac-6acd-4191-abbf-38391872defe {
        fill: #06c;
      }

      .a6ce5809-f8fb-48ab-93cc-10ce2bb473c5, .ac02b63c-4e13-44aa-9d29-f99e478a0907 {
        fill: #fff;
      }

      .a6ce5809-f8fb-48ab-93cc-10ce2bb473c5, .bfb282b1-09f0-45ed-a464-05e72e98363d {
        font-family: RedHatText-Bold, Red Hat Text;
        font-weight: 700;
      }

      .a461177e-289a-4a07-831a-4e378a0728cf {
        font-size: 10px;
        fill: #f3f3f3;
        font-family: RedHatText-Regular, Red Hat Text;
      }
    </style>
  </defs>
  <polyline class="afa01ad1-2a45-43f5-8969-81079d8c08ad" points="353.75 106 353.75 156 148.75 156"/>
  <polyline class="afa01ad1-2a45-43f5-8969-81079d8c08ad" points="348.75 101 348.75 151 143.75 151"/>
  <g>
    <polyline class="b8893dee-d487-4eab-aa7f-81bb191a7c0f" points="102.5 181.324 102.5 121 138.75 121"/>
    <polygon class="e7aba5cd-32f3-4ce5-a839-90bc5df11d18" points="107.486 179.865 102.5 188.5 97.514 179.865 107.486 179.865"/>
  </g>
  <g>
    <polyline class="b8893dee-d487-4eab-aa7f-81bb191a7c0f" points="380 181.324 380 121 337.5 121"/>
    <polygon class="e7aba5cd-32f3-4ce5-a839-90bc5df11d18" points="384.986 179.865 380 188.5 375.014 179.865 384.986 179.865"/>
  </g>
  <g>
    <line class="b8893dee-d487-4eab-aa7f-81bb191a7c0f" x1="380" y1="424.5" x2="380" y2="454.824"/>
    <polygon class="e7aba5cd-32f3-4ce5-a839-90bc5df11d18" points="375.014 453.365 380 462 384.986 453.365 375.014 453.365"/>
  </g>
  <g>
    <line class="b8893dee-d487-4eab-aa7f-81bb191a7c0f" x1="102.5" y1="241" x2="102.5" y2="454.824"/>
    <polygon class="e7aba5cd-32f3-4ce5-a839-90bc5df11d18" points="97.514 453.365 102.5 462 107.486 453.365 97.514 453.365"/>
  </g>
  <g>
    <g>
      <line class="b8893dee-d487-4eab-aa7f-81bb191a7c0f" x1="241.25" y1="66" x2="241.25" y2="86.324"/>
      <polygon class="e7aba5cd-32f3-4ce5-a839-90bc5df11d18" points="236.264 84.865 241.25 93.5 246.236 84.865 236.264 84.865"/>
    </g>
    <g>
      <rect class="ea240ad2-f3b0-4fe3-81e3-328bf185e47e" x="138.75" y="16" width="205" height="50"/>
      <text class="f7debca3-bfe7-4e27-bf25-bfe1516ee013" transform="translate(224.931 44.759)">Kafka</text>
    </g>
  </g>
  <rect class="f586dfac-6acd-4191-abbf-38391872defe" x="138.75" y="96" width="205" height="50"/>
  <text class="a6ce5809-f8fb-48ab-93cc-10ce2bb473c5" transform="translate(213.29 124.759)">Listeners</text>
  <g>
    <rect class="ea240ad2-f3b0-4fe3-81e3-328bf185e47e" x="278" y="191.5" width="204" height="232.5"/>
    <path class="f586dfac-6acd-4191-abbf-38391872defe" d="M481.5,192V423.5h-203V192h203m1-1h-205V424.5h205V191Z"/>
  </g>
  <text class="bfb282b1-09f0-45ed-a464-05e72e98363d" transform="translate(330.566 219.222)">External listener</text>
  <rect class="ac02b63c-4e13-44aa-9d29-f99e478a0907" x="292.5" y="234.5" width="175" height="40"/>
  <text class="f7debca3-bfe7-4e27-bf25-bfe1516ee013" transform="translate(327.411 257.824)">Route (OpenShift)</text>
  <rect class="ac02b63c-4e13-44aa-9d29-f99e478a0907" x="292.5" y="279.5" width="175" height="40"/>
  <text class="f7debca3-bfe7-4e27-bf25-bfe1516ee013" transform="translate(351.303 302.824)">Node port</text>
  <rect class="ac02b63c-4e13-44aa-9d29-f99e478a0907" x="292.5" y="324.5" width="175" height="40"/>
  <rect class="ac02b63c-4e13-44aa-9d29-f99e478a0907" x="292.5" y="369.5" width="175" height="40"/>
  <text class="f7debca3-bfe7-4e27-bf25-bfe1516ee013" transform="translate(341.499 392.824)">Loadbalancer</text>
  <text class="f7debca3-bfe7-4e27-bf25-bfe1516ee013" transform="translate(359.648 347.933)">Ingress</text>
  <g>
    <rect class="ea240ad2-f3b0-4fe3-81e3-328bf185e47e" x="0.5" y="191.5" width="204" height="49"/>
    <path class="f586dfac-6acd-4191-abbf-38391872defe" d="M204,192v48H1V192H204m1-1H0v50H205V191Z"/>
  </g>
  <text class="bfb282b1-09f0-45ed-a464-05e72e98363d" transform="translate(55.058 219.222)">Internal listener</text>
  <rect class="ea240ad2-f3b0-4fe3-81e3-328bf185e47e" y="464.5" width="482.5" height="191.5"/>
  <text class="bfb282b1-09f0-45ed-a464-05e72e98363d" transform="translate(172.46 492.722)">Authentication options</text>
  <rect class="ac02b63c-4e13-44aa-9d29-f99e478a0907" x="15" y="511" width="452.5" height="40"/>
  <text class="f7debca3-bfe7-4e27-bf25-bfe1516ee013" transform="translate(229.844 534.324)">TLS</text>
  <rect class="ac02b63c-4e13-44aa-9d29-f99e478a0907" x="15" y="556" width="452.5" height="40"/>
  <text class="f7debca3-bfe7-4e27-bf25-bfe1516ee013" transform="translate(192.495 579.324)">SCRAM-SHA-512</text>
  <rect class="ac02b63c-4e13-44aa-9d29-f99e478a0907" x="15" y="601" width="452.5" height="40"/>
  <text class="f7debca3-bfe7-4e27-bf25-bfe1516ee013" transform="translate(222.734 624.433)">OAuth</text>
  <g>
    <text class="a461177e-289a-4a07-831a-4e378a0728cf" transform="translate(690.972 655.679)">117_AMQ_0920</text>
    <rect class="ef065a0f-c5a7-4dc8-bbed-970e3fba9eb6" y="632.662" width="760" height="40"/>
  </g>
</svg>
