<svg id="bebc6f9a-171e-4440-b8d7-7a8c32f51cf2" data-name="artwork" xmlns="http://www.w3.org/2000/svg" width="760" height="510.5" viewBox="0 0 760 510.5">
  <defs>
    <style>
      .bae4dc33-bc27-4843-9bea-22c4d3655f2d {
        fill: #e8e8e8;
      }

      .a6171f4d-9a60-4735-9690-e5bb3b428ff3, .a843fb5d-c153-4551-b262-ea3aeda43549, .ac0cb6f2-c120-49a6-bf8e-259fc8b0faa3, .ad938d66-c8fc-4ae2-8d5e-b46bea23e5ad, .b23edbfc-d312-42b7-bcf4-dfd99ecc7b9c, .b81634a6-e008-43e8-b03c-80213206bcd7 {
        fill: none;
      }

      .a843fb5d-c153-4551-b262-ea3aeda43549 {
        stroke: #151515;
      }

      .a6171f4d-9a60-4735-9690-e5bb3b428ff3, .a843fb5d-c153-4551-b262-ea3aeda43549, .ad938d66-c8fc-4ae2-8d5e-b46bea23e5ad, .b23edbfc-d312-42b7-bcf4-dfd99ecc7b9c {
        stroke-linecap: round;
        stroke-linejoin: round;
      }

      .ac8b1134-dedc-4a29-abb9-efb49b57982c, .b1b67147-ef0c-4cd8-9eaa-3dda23a1e505, .b4dce855-82f9-4fe5-b14f-0def771a94fd, .bc6c81ec-5339-43e6-b329-7062db33c8c3, .fea06963-8a1c-4f89-8e6c-fb38caedf99a {
        fill: #151515;
      }

      .a16a83d2-f37f-475b-9a00-66e2c99b76a1 {
        font-size: 10px;
        fill: #f3f3f3;
        font-family: RedHatText-Regular, Red Hat Text;
      }

      .a77c76f9-918a-4bd8-9e25-a9e351ef8642, .b5346195-2e77-4e55-b6de-7531f105e40e {
        fill: #fff;
      }

      .a77c76f9-918a-4bd8-9e25-a9e351ef8642, .fea06963-8a1c-4f89-8e6c-fb38caedf99a {
        font-size: 12px;
      }

      .b4dce855-82f9-4fe5-b14f-0def771a94fd, .fea06963-8a1c-4f89-8e6c-fb38caedf99a {
        font-family: RedHatText-Bold, Red Hat Text;
        font-weight: 700;
      }

      .b4dce855-82f9-4fe5-b14f-0def771a94fd {
        font-size: 14px;
      }

      .ac0cb6f2-c120-49a6-bf8e-259fc8b0faa3 {
        stroke: #d5d5d5;
        stroke-miterlimit: 10;
        stroke-width: 1.5px;
      }

      .ac8b1134-dedc-4a29-abb9-efb49b57982c, .b1b67147-ef0c-4cd8-9eaa-3dda23a1e505 {
        font-size: 11px;
      }

      .a77c76f9-918a-4bd8-9e25-a9e351ef8642, .ac8b1134-dedc-4a29-abb9-efb49b57982c {
        font-family: RedHatText-Medium, Red Hat Text;
        font-weight: 500;
      }

      .a6171f4d-9a60-4735-9690-e5bb3b428ff3, .ad938d66-c8fc-4ae2-8d5e-b46bea23e5ad, .b23edbfc-d312-42b7-bcf4-dfd99ecc7b9c {
        stroke: #06c;
      }

      .b23edbfc-d312-42b7-bcf4-dfd99ecc7b9c {
        stroke-dasharray: 2.896 2.896;
      }

      .a2ff8267-7523-4f5b-865d-39907c10b92a {
        fill: #06c;
      }

      .ad938d66-c8fc-4ae2-8d5e-b46bea23e5ad {
        stroke-dasharray: 3.106 3.106;
      }

      .b1b67147-ef0c-4cd8-9eaa-3dda23a1e505 {
        font-family: RedHatText-Italic, Red Hat Text;
        font-style: italic;
      }
    </style>
  </defs>
  <rect class="bae4dc33-bc27-4843-9bea-22c4d3655f2d" x="250" y="250.5" width="510" height="220"/>
  <rect class="bae4dc33-bc27-4843-9bea-22c4d3655f2d" x="250" y="35.5" width="510" height="195"/>
  <g>
    <polyline class="a843fb5d-c153-4551-b262-ea3aeda43549" points="474.676 193 505 193 505 360.5 545 360.5"/>
    <polygon class="bc6c81ec-5339-43e6-b329-7062db33c8c3" points="476.135 197.986 467.5 193 476.135 188.014 476.135 197.986"/>
  </g>
  <g>
    <text class="a16a83d2-f37f-475b-9a00-66e2c99b76a1" transform="translate(669.021 493.517)">142_OpenShift_0221</text>
    <rect class="b81634a6-e008-43e8-b03c-80213206bcd7" y="470.5" width="760" height="40"/>
  </g>
  <rect class="b5346195-2e77-4e55-b6de-7531f105e40e" x="545" y="270.5" width="195" height="180"/>
  <text class="fea06963-8a1c-4f89-8e6c-fb38caedf99a" transform="translate(560 294.85)">Pod</text>
  <text class="b4dce855-82f9-4fe5-b14f-0def771a94fd" transform="translate(270 282.032)">OpenShift</text>
  <text class="b4dce855-82f9-4fe5-b14f-0def771a94fd" transform="translate(270 67.032)">AWS</text>
  <polyline class="ac0cb6f2-c120-49a6-bf8e-259fc8b0faa3" points="730 150.5 535 150.5 535 200.5"/>
  <polyline class="ac0cb6f2-c120-49a6-bf8e-259fc8b0faa3" points="735 155.5 540 155.5 540 205.5"/>
  <rect class="b5346195-2e77-4e55-b6de-7531f105e40e" x="545" y="160.5" width="195" height="50" transform="translate(1285 371) rotate(-180)"/>
  <text class="ac8b1134-dedc-4a29-abb9-efb49b57982c" transform="translate(607.814 188.546)">AWS services</text>
  <rect class="b5346195-2e77-4e55-b6de-7531f105e40e" x="545" y="85.5" width="195" height="50" transform="translate(1285 221) rotate(-180)"/>
  <text class="ac8b1134-dedc-4a29-abb9-efb49b57982c" transform="translate(616.593 107.546)">S3 bucket<tspan x="-36.415" y="12">with OIDC configuration</tspan></text>
  <rect class="b5346195-2e77-4e55-b6de-7531f105e40e" x="270" y="160.5" width="195" height="50" transform="translate(735 371) rotate(-180)"/>
  <text class="ac8b1134-dedc-4a29-abb9-efb49b57982c" transform="translate(324.312 188.546)">IAM Role for pod</text>
  <g>
    <line class="a843fb5d-c153-4551-b262-ea3aeda43549" x1="465" y1="110.5" x2="535.324" y2="110.5"/>
    <polygon class="bc6c81ec-5339-43e6-b329-7062db33c8c3" points="533.865 115.486 542.5 110.5 533.865 105.514 533.865 115.486"/>
  </g>
  <g>
    <line class="a843fb5d-c153-4551-b262-ea3aeda43549" x1="474.676" y1="178" x2="535.324" y2="178"/>
    <polygon class="bc6c81ec-5339-43e6-b329-7062db33c8c3" points="476.135 182.986 467.5 178 476.135 173.014 476.135 182.986"/>
    <polygon class="bc6c81ec-5339-43e6-b329-7062db33c8c3" points="533.865 182.986 542.5 178 533.865 173.014 533.865 182.986"/>
  </g>
  <rect class="b5346195-2e77-4e55-b6de-7531f105e40e" x="270" y="85.5" width="195" height="50" transform="translate(735 221) rotate(-180)"/>
  <rect class="bae4dc33-bc27-4843-9bea-22c4d3655f2d" x="478.488" y="85.5" width="43.025" height="50"/>
  <text class="ac8b1134-dedc-4a29-abb9-efb49b57982c" transform="translate(312.444 113.547)">IAM Identity Provider</text>
  <rect class="bae4dc33-bc27-4843-9bea-22c4d3655f2d" x="560" y="385.5" width="165" height="50"/>
  <text class="ac8b1134-dedc-4a29-abb9-efb49b57982c" transform="translate(617.131 407.442)">Projected<tspan x="-31.514" y="12">ServiceAccount token</tspan></text>
  <g>
    <line class="a843fb5d-c153-4551-b262-ea3aeda43549" x1="642.5" y1="360.497" x2="642.5" y2="375.824"/>
    <polygon class="bc6c81ec-5339-43e6-b329-7062db33c8c3" points="637.514 374.365 642.5 383 647.486 374.365 637.514 374.365"/>
  </g>
  <g>
    <line class="a843fb5d-c153-4551-b262-ea3aeda43549" x1="465" y1="410.5" x2="550.324" y2="410.5"/>
    <polygon class="bc6c81ec-5339-43e6-b329-7062db33c8c3" points="548.865 415.486 557.5 410.5 548.865 405.514 548.865 415.486"/>
  </g>
  <g>
    <polyline class="a843fb5d-c153-4551-b262-ea3aeda43549" points="260.324 410.5 92.5 410.5 92.5 265.5"/>
    <polygon class="bc6c81ec-5339-43e6-b329-7062db33c8c3" points="258.865 405.514 267.5 410.5 258.865 415.486 258.865 405.514"/>
  </g>
  <g>
    <polyline class="a843fb5d-c153-4551-b262-ea3aeda43549" points="92.5 215.5 92.5 20.5 642.514 20.5 642.514 75.824"/>
    <polygon class="bc6c81ec-5339-43e6-b329-7062db33c8c3" points="637.528 74.365 642.514 83 647.5 74.365 637.528 74.365"/>
  </g>
  <rect class="bae4dc33-bc27-4843-9bea-22c4d3655f2d" x="560" y="310.5" width="165" height="50"/>
  <text class="ac8b1134-dedc-4a29-abb9-efb49b57982c" transform="translate(603.008 338.547)">AWS config file</text>
  <rect class="b5346195-2e77-4e55-b6de-7531f105e40e" x="270" y="385.5" width="195" height="50" transform="translate(735 821) rotate(-180)"/>
  <text class="ac8b1134-dedc-4a29-abb9-efb49b57982c" transform="translate(331.624 413.546)">Token signing</text>
  <g>
    <line class="a6171f4d-9a60-4735-9690-e5bb3b428ff3" x1="635" y1="260.824" x2="635" y2="259.324"/>
    <line class="b23edbfc-d312-42b7-bcf4-dfd99ecc7b9c" x1="635" y1="256.428" x2="635" y2="223.124"/>
    <line class="a6171f4d-9a60-4735-9690-e5bb3b428ff3" x1="635" y1="221.676" x2="635" y2="220.176"/>
    <polygon class="a2ff8267-7523-4f5b-865d-39907c10b92a" points="639.986 259.365 635 268 630.014 259.365 639.986 259.365"/>
    <polygon class="a2ff8267-7523-4f5b-865d-39907c10b92a" points="639.986 221.635 635 213 630.014 221.635 639.986 221.635"/>
  </g>
  <g>
    <line class="a6171f4d-9a60-4735-9690-e5bb3b428ff3" x1="650" y1="300.824" x2="650" y2="299.324"/>
    <line class="ad938d66-c8fc-4ae2-8d5e-b46bea23e5ad" x1="650" y1="296.218" x2="650" y2="223.229"/>
    <line class="a6171f4d-9a60-4735-9690-e5bb3b428ff3" x1="650" y1="221.676" x2="650" y2="220.176"/>
    <polygon class="a2ff8267-7523-4f5b-865d-39907c10b92a" points="654.986 299.365 650 308 645.014 299.365 654.986 299.365"/>
    <polygon class="a2ff8267-7523-4f5b-865d-39907c10b92a" points="654.986 221.635 650 213 645.014 221.635 654.986 221.635"/>
  </g>
  <text class="b1b67147-ef0c-4cd8-9eaa-3dda23a1e505" transform="translate(487.202 101.624)">Trust<tspan x="-3.548" y="12">tokens</tspan><tspan x="-3.201" y="24">signed</tspan></text>
  <rect class="b5346195-2e77-4e55-b6de-7531f105e40e" y="138.452" width="185" height="19.096" transform="translate(185 296) rotate(-180)"/>
  <text class="b1b67147-ef0c-4cd8-9eaa-3dda23a1e505" transform="translate(67.904 151.54)">Public key</text>
  <rect class="b5346195-2e77-4e55-b6de-7531f105e40e" y="323.452" width="185" height="19.096" transform="translate(185 666) rotate(-180)"/>
  <text class="b1b67147-ef0c-4cd8-9eaa-3dda23a1e505" transform="translate(65.495 336.54)">Private key</text>
  <rect class="a2ff8267-7523-4f5b-865d-39907c10b92a" y="215.5" width="185" height="50"/>
  <text class="a77c76f9-918a-4bd8-9e25-a9e351ef8642" transform="translate(47.528 237.324)">ServiceAccount<tspan x="10.152" y="13">signing keys</tspan></text>
</svg>
