<svg id="bb2e8f5e-be9f-4204-b3fc-7f1dafdb6c3a" data-name="artwork" xmlns="http://www.w3.org/2000/svg" width="760" height="407.324" viewBox="0 0 760 407.324">
  <defs>
    <style>
      .b51fdc7b-f728-4f90-8f92-188eec672887 {
        fill: #e8e8e8;
      }

      .a40fa252-e272-4b55-ba99-15513cc25a4a, .a7b3d2f9-f99d-4a08-880b-55cab2e26786 {
        font-size: 12px;
      }

      .a40fa252-e272-4b55-ba99-15513cc25a4a, .a5ac8101-cd7e-4e6f-bbb9-746a03dad846, .a7b3d2f9-f99d-4a08-880b-55cab2e26786, .ffc0575f-7329-47e6-872c-902c99bef3ba {
        fill: #151515;
      }

      .a40fa252-e272-4b55-ba99-15513cc25a4a {
        font-family: RedHatText-Bold, Red Hat Text;
        font-weight: 700;
      }

      .a94b1cef-5095-4e41-bb7c-fb61442232cf, .b96e223a-8d0c-4989-83dd-ddf12115847a, .f34a0b04-365f-4bda-83ce-971c06080387 {
        fill: none;
      }

      .f34a0b04-365f-4bda-83ce-971c06080387 {
        stroke: #adadad;
        stroke-miterlimit: 10;
      }

      .acd129d7-4f1b-4ae5-8927-52a0ee66fc93, .b648aa24-d51b-4e5e-ab80-998916c23c4c {
        fill: #fff;
      }

      .a7b3d2f9-f99d-4a08-880b-55cab2e26786, .ffc0575f-7329-47e6-872c-902c99bef3ba {
        font-family: RedHatText-Medium, Red Hat Text;
        font-weight: 500;
      }

      .b45d6ef6-7fa3-4f19-b919-710fbd717075 {
        fill: #d9e8f7;
      }

      .ffc0575f-7329-47e6-872c-902c99bef3ba {
        font-size: 11px;
      }

      .b648aa24-d51b-4e5e-ab80-998916c23c4c {
        stroke: #5b5b5b;
        stroke-width: 1.5px;
      }

      .b648aa24-d51b-4e5e-ab80-998916c23c4c, .b96e223a-8d0c-4989-83dd-ddf12115847a {
        stroke-linecap: round;
        stroke-linejoin: round;
      }

      .b96e223a-8d0c-4989-83dd-ddf12115847a {
        stroke: #151515;
      }

      .a3b2019d-36f0-499b-9d06-4fdd345c233d {
        fill: #06c;
      }

      .e27a2ed4-9c37-44bf-9a2f-af9ffcd0ca93 {
        font-size: 10px;
        fill: #ececec;
        font-family: RedHatText-Regular, Red Hat Text;
      }
    </style>
  </defs>
  <rect class="b51fdc7b-f728-4f90-8f92-188eec672887" y="20" width="605" height="116"/>
  <text class="a40fa252-e272-4b55-ba99-15513cc25a4a" transform="translate(15 44.604)">Monitor host 1</text>
  <polyline class="f34a0b04-365f-4bda-83ce-971c06080387" points="25 117.324 100 117.324 100 67.324"/>
  <polyline class="f34a0b04-365f-4bda-83ce-971c06080387" points="20 112.324 95 112.324 95 62.324"/>
  <rect class="acd129d7-4f1b-4ae5-8927-52a0ee66fc93" x="15" y="57.324" width="75" height="50"/>
  <text class="a7b3d2f9-f99d-4a08-880b-55cab2e26786" transform="translate(31.578 85.647)">PMDAs</text>
  <rect class="b51fdc7b-f728-4f90-8f92-188eec672887" y="146" width="605" height="118.5"/>
  <text class="a40fa252-e272-4b55-ba99-15513cc25a4a" transform="translate(15 170.604)">Monitor host 2</text>
  <polyline class="f34a0b04-365f-4bda-83ce-971c06080387" points="25 243.324 100 243.324 100 193.324"/>
  <polyline class="f34a0b04-365f-4bda-83ce-971c06080387" points="20 238.324 95 238.324 95 188.324"/>
  <rect class="acd129d7-4f1b-4ae5-8927-52a0ee66fc93" x="15" y="183.324" width="75" height="50"/>
  <text class="a7b3d2f9-f99d-4a08-880b-55cab2e26786" transform="translate(31.578 211.647)">PMDAs</text>
  <rect class="b51fdc7b-f728-4f90-8f92-188eec672887" y="274.5" width="605" height="116"/>
  <text class="a40fa252-e272-4b55-ba99-15513cc25a4a" transform="translate(15 299.104)">Monitor host N</text>
  <polyline class="f34a0b04-365f-4bda-83ce-971c06080387" points="25 371.824 100 371.824 100 321.824"/>
  <polyline class="f34a0b04-365f-4bda-83ce-971c06080387" points="20 366.824 95 366.824 95 316.824"/>
  <rect class="acd129d7-4f1b-4ae5-8927-52a0ee66fc93" x="15" y="311.824" width="75" height="50"/>
  <text class="a7b3d2f9-f99d-4a08-880b-55cab2e26786" transform="translate(31.578 340.148)">PMDAs</text>
  <rect class="b45d6ef6-7fa3-4f19-b919-710fbd717075" x="655" y="146" width="105" height="118.5"/>
  <g>
    <text class="ffc0575f-7329-47e6-872c-902c99bef3ba" transform="translate(693.278 219.6)">Redis<tspan x="-7.529" y="12">instance</tspan></text>
    <path class="b648aa24-d51b-4e5e-ab80-998916c23c4c" d="M722.561,189.753a13.4,13.4,0,0,0-25.035-6.507,10.117,10.117,0,0,0-1.726-.157,9.968,9.968,0,1,0,0,19.935h26.761a6.636,6.636,0,1,0,0-13.271Z"/>
  </g>
  <g>
    <line class="b96e223a-8d0c-4989-83dd-ddf12115847a" x1="645.324" y1="208.324" x2="599.676" y2="208.324"/>
    <polygon class="a5ac8101-cd7e-4e6f-bbb9-746a03dad846" points="643.865 203.337 652.5 208.324 643.865 213.31 643.865 203.337"/>
    <polygon class="a5ac8101-cd7e-4e6f-bbb9-746a03dad846" points="601.135 203.337 592.5 208.324 601.135 213.31 601.135 203.337"/>
  </g>
  <g>
    <polyline class="b96e223a-8d0c-4989-83dd-ddf12115847a" points="645.324 193.324 620.187 193.324 620.187 82.324 599.676 82.324"/>
    <polygon class="a5ac8101-cd7e-4e6f-bbb9-746a03dad846" points="643.865 188.337 652.5 193.324 643.865 198.31 643.865 188.337"/>
    <polygon class="a5ac8101-cd7e-4e6f-bbb9-746a03dad846" points="601.135 77.337 592.5 82.324 601.135 87.31 601.135 77.337"/>
  </g>
  <g>
    <polyline class="b96e223a-8d0c-4989-83dd-ddf12115847a" points="645.324 223.324 620.187 223.324 620.187 336.824 599.676 336.824"/>
    <polygon class="a5ac8101-cd7e-4e6f-bbb9-746a03dad846" points="643.865 218.337 652.5 223.324 643.865 228.31 643.865 218.337"/>
    <polygon class="a5ac8101-cd7e-4e6f-bbb9-746a03dad846" points="601.135 331.837 592.5 336.824 601.135 341.81 601.135 331.837"/>
  </g>
  <g>
    <rect class="acd129d7-4f1b-4ae5-8927-52a0ee66fc93" x="486.279" y="57.824" width="104" height="49"/>
    <path class="a3b2019d-36f0-499b-9d06-4fdd345c233d" d="M589.779,58.324v48h-103v-48h103m1-1h-105v50h105v-50Z"/>
  </g>
  <text class="a7b3d2f9-f99d-4a08-880b-55cab2e26786" transform="translate(513.319 85.648)">pmproxy</text>
  <g>
    <line class="b96e223a-8d0c-4989-83dd-ddf12115847a" x1="381.901" y1="82.324" x2="335.78" y2="82.324"/>
    <polygon class="a5ac8101-cd7e-4e6f-bbb9-746a03dad846" points="380.442 77.337 389.077 82.324 380.442 87.31 380.442 77.337"/>
  </g>
  <g>
    <line class="b96e223a-8d0c-4989-83dd-ddf12115847a" x1="476.092" y1="82.324" x2="429.971" y2="82.324"/>
    <polygon class="a5ac8101-cd7e-4e6f-bbb9-746a03dad846" points="474.633 77.337 483.268 82.324 474.633 87.31 474.633 77.337"/>
  </g>
  <g>
    <line class="b96e223a-8d0c-4989-83dd-ddf12115847a" x1="221.104" y1="82.324" x2="184.983" y2="82.324"/>
    <polygon class="a5ac8101-cd7e-4e6f-bbb9-746a03dad846" points="219.645 77.337 228.28 82.324 219.645 87.31 219.645 77.337"/>
  </g>
  <g>
    <rect class="acd129d7-4f1b-4ae5-8927-52a0ee66fc93" x="486.279" y="183.824" width="104" height="49"/>
    <path class="a3b2019d-36f0-499b-9d06-4fdd345c233d" d="M589.779,184.324v48h-103v-48h103m1-1h-105v50h105v-50Z"/>
  </g>
  <text class="a7b3d2f9-f99d-4a08-880b-55cab2e26786" transform="translate(513.319 211.648)">pmproxy</text>
  <g>
    <line class="b96e223a-8d0c-4989-83dd-ddf12115847a" x1="381.901" y1="208.324" x2="335.78" y2="208.324"/>
    <polygon class="a5ac8101-cd7e-4e6f-bbb9-746a03dad846" points="380.442 203.337 389.077 208.324 380.442 213.31 380.442 203.337"/>
  </g>
  <g>
    <line class="b96e223a-8d0c-4989-83dd-ddf12115847a" x1="476.092" y1="208.324" x2="429.971" y2="208.324"/>
    <polygon class="a5ac8101-cd7e-4e6f-bbb9-746a03dad846" points="474.633 203.337 483.268 208.324 474.633 213.31 474.633 203.337"/>
  </g>
  <g>
    <line class="b96e223a-8d0c-4989-83dd-ddf12115847a" x1="221.104" y1="208.324" x2="184.983" y2="208.324"/>
    <polygon class="a5ac8101-cd7e-4e6f-bbb9-746a03dad846" points="219.645 203.337 228.28 208.324 219.645 213.31 219.645 203.337"/>
  </g>
  <g>
    <line class="b96e223a-8d0c-4989-83dd-ddf12115847a" x1="221.104" y1="336.824" x2="184.983" y2="336.824"/>
    <polygon class="a5ac8101-cd7e-4e6f-bbb9-746a03dad846" points="219.645 331.837 228.28 336.824 219.645 341.81 219.645 331.837"/>
  </g>
  <g>
    <rect class="acd129d7-4f1b-4ae5-8927-52a0ee66fc93" x="486.279" y="312.324" width="104" height="49"/>
    <path class="a3b2019d-36f0-499b-9d06-4fdd345c233d" d="M589.779,312.824v48h-103v-48h103m1-1h-105v50h105v-50Z"/>
  </g>
  <text class="a7b3d2f9-f99d-4a08-880b-55cab2e26786" transform="translate(513.319 340.148)">pmproxy</text>
  <g>
    <line class="b96e223a-8d0c-4989-83dd-ddf12115847a" x1="381.901" y1="336.824" x2="335.78" y2="336.824"/>
    <polygon class="a5ac8101-cd7e-4e6f-bbb9-746a03dad846" points="380.442 331.837 389.077 336.824 380.442 341.81 380.442 331.837"/>
  </g>
  <g>
    <line class="b96e223a-8d0c-4989-83dd-ddf12115847a" x1="476.092" y1="336.824" x2="429.971" y2="336.824"/>
    <polygon class="a5ac8101-cd7e-4e6f-bbb9-746a03dad846" points="474.633 331.837 483.268 336.824 474.633 341.81 474.633 331.837"/>
  </g>
  <g>
    <rect class="acd129d7-4f1b-4ae5-8927-52a0ee66fc93" x="110.5" y="57.824" width="74" height="49"/>
    <path class="a3b2019d-36f0-499b-9d06-4fdd345c233d" d="M184,58.324v48H111v-48h73m1-1H110v50h75v-50Z"/>
  </g>
  <text class="a7b3d2f9-f99d-4a08-880b-55cab2e26786" transform="translate(129.296 85.647)">PMCD</text>
  <g>
    <rect class="acd129d7-4f1b-4ae5-8927-52a0ee66fc93" x="110.5" y="183.824" width="74" height="49"/>
    <path class="a3b2019d-36f0-499b-9d06-4fdd345c233d" d="M184,184.324v48H111v-48h73m1-1H110v50h75v-50Z"/>
  </g>
  <text class="a7b3d2f9-f99d-4a08-880b-55cab2e26786" transform="translate(129.296 211.648)">PMCD</text>
  <g>
    <rect class="acd129d7-4f1b-4ae5-8927-52a0ee66fc93" x="110.5" y="312.324" width="74" height="49"/>
    <path class="a3b2019d-36f0-499b-9d06-4fdd345c233d" d="M184,312.824v48H111v-48h73m1-1H110v50h75v-50Z"/>
  </g>
  <text class="a7b3d2f9-f99d-4a08-880b-55cab2e26786" transform="translate(129.296 340.147)">PMCD</text>
  <g>
    <rect class="acd129d7-4f1b-4ae5-8927-52a0ee66fc93" x="231.28" y="312.324" width="104" height="49"/>
    <path class="a3b2019d-36f0-499b-9d06-4fdd345c233d" d="M334.78,312.824v48h-103v-48h103m1-1h-105v50h105v-50Z"/>
  </g>
  <text class="a7b3d2f9-f99d-4a08-880b-55cab2e26786" transform="translate(256.154 340.148)">pmlogger</text>
  <g>
    <rect class="acd129d7-4f1b-4ae5-8927-52a0ee66fc93" x="231.28" y="183.824" width="104" height="49"/>
    <path class="a3b2019d-36f0-499b-9d06-4fdd345c233d" d="M334.78,184.324v48h-103v-48h103m1-1h-105v50h105v-50Z"/>
  </g>
  <text class="a7b3d2f9-f99d-4a08-880b-55cab2e26786" transform="translate(256.154 211.648)">pmlogger</text>
  <g>
    <rect class="acd129d7-4f1b-4ae5-8927-52a0ee66fc93" x="231.28" y="57.824" width="104" height="49"/>
    <path class="a3b2019d-36f0-499b-9d06-4fdd345c233d" d="M334.78,58.324v48h-103v-48h103m1-1h-105v50h105v-50Z"/>
  </g>
  <text class="a7b3d2f9-f99d-4a08-880b-55cab2e26786" transform="translate(256.154 85.648)">pmlogger</text>
  <g>
    <text class="e27a2ed4-9c37-44bf-9a2f-af9ffcd0ca93" transform="translate(689.581 390.342)">173_RHEL_0721</text>
    <rect class="a94b1cef-5095-4e41-bb7c-fb61442232cf" y="367.324" width="760" height="40"/>
  </g>
  <g>
    <g>
      <path class="b648aa24-d51b-4e5e-ab80-998916c23c4c" d="M410.78,63.132c-10.19,0-18.45,4.063-18.45,9.692V89.767c0,5.629,8.26,10.192,18.45,10.192s18.449-4.563,18.449-10.192V72.824C429.229,67.195,420.969,63.132,410.78,63.132Z"/>
      <path class="b648aa24-d51b-4e5e-ab80-998916c23c4c" d="M429.229,84.074c0,5.629-8.26,10.193-18.449,10.193S392.331,89.7,392.331,84.074"/>
      <path class="b648aa24-d51b-4e5e-ab80-998916c23c4c" d="M429.229,78.324c0,5.629-8.26,10.193-18.449,10.193s-18.449-4.564-18.449-10.193"/>
      <path class="b648aa24-d51b-4e5e-ab80-998916c23c4c" d="M429.229,72.824c0,5.629-8.26,10.193-18.449,10.193s-18.449-4.564-18.449-10.193,8.259-9.692,18.449-9.692S429.229,67.195,429.229,72.824Z"/>
    </g>
    <text class="ffc0575f-7329-47e6-872c-902c99bef3ba" transform="translate(370.052 116.597)">PCP archive log</text>
  </g>
  <g>
    <g>
      <path class="b648aa24-d51b-4e5e-ab80-998916c23c4c" d="M410.78,189.132c-10.19,0-18.45,4.063-18.45,9.692v16.943c0,5.629,8.26,10.192,18.45,10.192s18.449-4.563,18.449-10.192V198.824C429.229,193.2,420.969,189.132,410.78,189.132Z"/>
      <path class="b648aa24-d51b-4e5e-ab80-998916c23c4c" d="M429.229,210.074c0,5.629-8.26,10.193-18.449,10.193s-18.449-4.564-18.449-10.193"/>
      <path class="b648aa24-d51b-4e5e-ab80-998916c23c4c" d="M429.229,204.324c0,5.629-8.26,10.193-18.449,10.193s-18.449-4.564-18.449-10.193"/>
      <path class="b648aa24-d51b-4e5e-ab80-998916c23c4c" d="M429.229,198.824c0,5.629-8.26,10.193-18.449,10.193s-18.449-4.564-18.449-10.193,8.259-9.692,18.449-9.692S429.229,193.2,429.229,198.824Z"/>
    </g>
    <text class="ffc0575f-7329-47e6-872c-902c99bef3ba" transform="translate(370.052 242.597)">PCP archive log</text>
  </g>
  <g>
    <g>
      <path class="b648aa24-d51b-4e5e-ab80-998916c23c4c" d="M410.78,317.632c-10.19,0-18.45,4.063-18.45,9.692v16.943c0,5.629,8.26,10.192,18.45,10.192s18.449-4.563,18.449-10.192V327.324C429.229,321.7,420.969,317.632,410.78,317.632Z"/>
      <path class="b648aa24-d51b-4e5e-ab80-998916c23c4c" d="M429.229,338.575c0,5.629-8.26,10.192-18.449,10.192s-18.449-4.563-18.449-10.192"/>
      <path class="b648aa24-d51b-4e5e-ab80-998916c23c4c" d="M429.229,332.825c0,5.629-8.26,10.192-18.449,10.192s-18.449-4.563-18.449-10.192"/>
      <path class="b648aa24-d51b-4e5e-ab80-998916c23c4c" d="M429.229,327.324c0,5.63-8.26,10.193-18.449,10.193s-18.449-4.563-18.449-10.193,8.259-9.692,18.449-9.692S429.229,321.7,429.229,327.324Z"/>
    </g>
    <text class="ffc0575f-7329-47e6-872c-902c99bef3ba" transform="translate(370.052 371.098)">PCP archive log</text>
  </g>
</svg>
