<svg id="f2c9b15c-588d-4345-b8f7-e17f8a8dd84b" data-name="Layer 1" xmlns="http://www.w3.org/2000/svg" width="760" height="744.161"><defs><style>.b732f31e-a8ea-4600-8ede-380c12ceb9a4{fill:#e8e8e8}.a4810391-24a7-44f9-bc1c-3ef4488b7800,.aca217d1-2a73-4a7c-ac84-c11e0fcc2e01,.e259723a-440f-4b3b-a296-4db5f22b4d5f,.e520ca04-a0b3-498b-82ae-3c45932cc86f,.f213653a-3cb1-4b66-9edd-22cb2ebdca89{fill:none}.aca217d1-2a73-4a7c-ac84-c11e0fcc2e01{stroke:#d5d5d5;stroke-miterlimit:10}.e520ca04-a0b3-498b-82ae-3c45932cc86f{stroke-miterlimit:10}.a4cd004b-9f7e-4985-a1dc-834a76eb7b85,.aca217d1-2a73-4a7c-ac84-c11e0fcc2e01,.f213653a-3cb1-4b66-9edd-22cb2ebdca89{stroke-width:1.5px}.a0419d7d-8ee7-4c5b-9e59-07523fbac4f1,.abee0001-d3fc-48de-8f57-312a8bd26aa9,.f669f44a-24bb-401a-a144-45584181282c{font-size:12px}.abee0001-d3fc-48de-8f57-312a8bd26aa9,.acf3aa8f-bbc8-4554-972e-6b6e472ea073,.f669f44a-24bb-401a-a144-45584181282c,.f73d4ff3-6fc6-4655-a3f0-5fab12e3f72a{fill:#151515}.f669f44a-24bb-401a-a144-45584181282c{font-family:RedHatText,&quot;Red Hat Text&quot;,Overpass,&quot;Helvetica Neue&quot;,Arial,sans-serif;font-weight:700}.a0419d7d-8ee7-4c5b-9e59-07523fbac4f1,.a4cd004b-9f7e-4985-a1dc-834a76eb7b85,.b232597e-4975-4c14-ac18-eb98640afc13{fill:#fff}.a4810391-24a7-44f9-bc1c-3ef4488b7800,.e520ca04-a0b3-498b-82ae-3c45932cc86f{stroke:#151515}.a4810391-24a7-44f9-bc1c-3ef4488b7800,.a4cd004b-9f7e-4985-a1dc-834a76eb7b85,.e259723a-440f-4b3b-a296-4db5f22b4d5f,.f213653a-3cb1-4b66-9edd-22cb2ebdca89{stroke-linecap:round;stroke-linejoin:round}.abee0001-d3fc-48de-8f57-312a8bd26aa9,.acf3aa8f-bbc8-4554-972e-6b6e472ea073{font-family:RedHatText,&quot;Red Hat Text&quot;,Overpass,&quot;Helvetica Neue&quot;,Arial,sans-serif;font-weight:500}.acf3aa8f-bbc8-4554-972e-6b6e472ea073{font-size:9px}.a4cd004b-9f7e-4985-a1dc-834a76eb7b85,.f213653a-3cb1-4b66-9edd-22cb2ebdca89{stroke:#5b5b5b}.fa016406-6ec5-4f56-a20d-ec2b0e2007e6{fill:#06c}.a0419d7d-8ee7-4c5b-9e59-07523fbac4f1{font-family:RedHatText,&quot;Red Hat Text&quot;,Overpass,&quot;Helvetica Neue&quot;,Arial,sans-serif;font-weight:500;font-style:italic}.e259723a-440f-4b3b-a296-4db5f22b4d5f{stroke:#06c}</style></defs><path class="b732f31e-a8ea-4600-8ede-380c12ceb9a4" d="M267.25 416.154h225.5v207h-225.5z"/><path class="aca217d1-2a73-4a7c-ac84-c11e0fcc2e01" d="M297.25 553.603h185.5v-85"/><path class="aca217d1-2a73-4a7c-ac84-c11e0fcc2e01" d="M292.25 548.603h185.5v-85"/><text class="f669f44a-24bb-401a-a144-45584181282c" transform="translate(287.25 441.241)">Broker C</text><path class="b232597e-4975-4c14-ac18-eb98640afc13" d="M287.25 458.603h185.5v85h-185.5z"/><text class="f669f44a-24bb-401a-a144-45584181282c" transform="translate(302.313 482.807)">Addresses</text><path class="b232597e-4975-4c14-ac18-eb98640afc13" d="M287.25 568.242h185.5v35h-185.5z"/><path class="a4810391-24a7-44f9-bc1c-3ef4488b7800" d="M380 558.566v-29.963"/><path class="f73d4ff3-6fc6-4655-a3f0-5fab12e3f72a" d="M384.986 557.107L380 565.742l-4.986-8.635h9.972z"/><text class="abee0001-d3fc-48de-8f57-312a8bd26aa9" transform="translate(356.282 589.027)">Queue 3</text><path class="b732f31e-a8ea-4600-8ede-380c12ceb9a4" d="M302.5 302.621h155v35h-155z"/><text class="f669f44a-24bb-401a-a144-45584181282c" transform="translate(347.282 323.445)">Producer 3</text><path class="b732f31e-a8ea-4600-8ede-380c12ceb9a4" d="M287.25 691.797h185.5v35h-185.5z"/><text class="f669f44a-24bb-401a-a144-45584181282c" transform="translate(344.715 712.621)">Consumer 3</text><path class="a4810391-24a7-44f9-bc1c-3ef4488b7800" d="M380 483.629V337.324"/><path class="f73d4ff3-6fc6-4655-a3f0-5fab12e3f72a" d="M384.986 482.17L380 490.805l-4.986-8.635h9.972z"/><path class="b232597e-4975-4c14-ac18-eb98640afc13" d="M344.413 373.445h71.174v30.699h-71.174z"/><text class="acf3aa8f-bbc8-4554-972e-6b6e472ea073" transform="translate(357.568 397.377)">Message 3</text><path class="a4cd004b-9f7e-4985-a1dc-834a76eb7b85" d="M391.75 382.324h-23.5v-26.207l5.875-5.824h17.625v32.031z"/><path class="f213653a-3cb1-4b66-9edd-22cb2ebdca89" d="M374.125 356.117h-5.875l5.875-5.824v5.824zM372.656 360.484H380M372.656 364.852h14.688M372.656 369.22h14.688M372.656 373.588h14.688"/><path class="e520ca04-a0b3-498b-82ae-3c45932cc86f" d="M380 603.242v78.967"/><path class="f73d4ff3-6fc6-4655-a3f0-5fab12e3f72a" d="M375.014 680.75l4.986 8.635 4.986-8.635h-9.972z"/><path class="b232597e-4975-4c14-ac18-eb98640afc13" d="M344.413 639.566h71.174v30.699h-71.174z"/><text class="acf3aa8f-bbc8-4554-972e-6b6e472ea073" transform="translate(353.95 663.498)">Message 1-3</text><path class="a4cd004b-9f7e-4985-a1dc-834a76eb7b85" d="M391.751 648.445h-23.5v-26.207l5.875-5.824h17.625v32.031z"/><path class="f213653a-3cb1-4b66-9edd-22cb2ebdca89" d="M374.126 622.238h-5.875l5.875-5.824v5.824zM372.657 626.606h7.344M372.657 630.974h14.687M372.657 635.341h14.687M372.657 639.709h14.687"/><text transform="translate(694.192 727.179)" fill="#f3f3f3" font-family="RedHatText,&quot;Red Hat Text&quot;,Overpass,&quot;Helvetica Neue&quot;,Arial,sans-serif" font-size="10">120_AMQ_1120</text><path fill="none" d="M0 704.161h760v40H0z"/><path class="b732f31e-a8ea-4600-8ede-380c12ceb9a4" d="M534.5 175.533H760v207H534.5z"/><path class="aca217d1-2a73-4a7c-ac84-c11e0fcc2e01" d="M564.5 312.982H750v-85"/><path class="aca217d1-2a73-4a7c-ac84-c11e0fcc2e01" d="M559.5 307.982H745v-85"/><path class="b232597e-4975-4c14-ac18-eb98640afc13" d="M554.5 217.982H740v85H554.5z"/><path class="b732f31e-a8ea-4600-8ede-380c12ceb9a4" d="M0 175.533h225.5v207H0z"/><path class="aca217d1-2a73-4a7c-ac84-c11e0fcc2e01" d="M30 312.982h185.5v-85"/><path class="aca217d1-2a73-4a7c-ac84-c11e0fcc2e01" d="M25 307.982h185.5v-85"/><text class="f669f44a-24bb-401a-a144-45584181282c" transform="translate(20 200.62)">Broker A</text><path class="b232597e-4975-4c14-ac18-eb98640afc13" d="M20 217.982h185.5v85H20z"/><path class="fa016406-6ec5-4f56-a20d-ec2b0e2007e6" transform="rotate(-180 112.75 270.482)" d="M35.25 252.982h155v35h-155z"/><text class="a0419d7d-8ee7-4c5b-9e59-07523fbac4f1" transform="translate(87.184 273.767)">multicast</text><text class="f669f44a-24bb-401a-a144-45584181282c" transform="translate(35.063 242.186)">Addresses</text><path class="a4810391-24a7-44f9-bc1c-3ef4488b7800" d="M112.75 317.945v-29.963"/><path class="f73d4ff3-6fc6-4655-a3f0-5fab12e3f72a" d="M117.736 316.486l-4.986 8.635-4.986-8.635h9.972z"/><path class="e259723a-440f-4b3b-a296-4db5f22b4d5f" d="M199.675 280.482h1.5"/><path stroke-dasharray="2.922 2.922" stroke="#06c" stroke-linecap="round" stroke-linejoin="round" fill="none" d="M204.096 280.482h39.443"/><path class="e259723a-440f-4b3b-a296-4db5f22b4d5f" d="M245 280.482h1.5v1.5"/><path stroke-dasharray="3.035 3.035" stroke="#06c" stroke-linecap="round" stroke-linejoin="round" fill="none" d="M246.5 285.017v223.069"/><path class="e259723a-440f-4b3b-a296-4db5f22b4d5f" d="M246.5 509.603v1.5h1.5"/><path stroke-dasharray="2.876 2.876" stroke="#06c" stroke-linecap="round" stroke-linejoin="round" fill="none" d="M250.876 511.103h38.822"/><path class="e259723a-440f-4b3b-a296-4db5f22b4d5f" d="M291.136 511.103h1.5"/><path class="fa016406-6ec5-4f56-a20d-ec2b0e2007e6" d="M201.134 285.468l-8.635-4.986 8.635-4.986v9.972zM291.177 516.089l8.636-4.986-8.636-4.986v9.972z"/><path class="e259723a-440f-4b3b-a296-4db5f22b4d5f" d="M560.075 280.347l-1.5-.028"/><path stroke-dasharray="2.956 2.956" stroke="#06c" stroke-linecap="round" stroke-linejoin="round" fill="none" d="M555.62 280.264l-39.893-.748"/><path class="e259723a-440f-4b3b-a296-4db5f22b4d5f" d="M514.25 279.488l-1.5-.028v1.5"/><path stroke-dasharray="2.969 2.969" stroke="#06c" stroke-linecap="round" stroke-linejoin="round" fill="none" d="M512.75 283.93v224.188"/><path class="e259723a-440f-4b3b-a296-4db5f22b4d5f" d="M512.75 509.603v1.5h-1.5"/><path stroke-dasharray="2.838 2.838" stroke="#06c" stroke-linecap="round" stroke-linejoin="round" fill="none" d="M508.412 511.103h-38.317"/><path class="e259723a-440f-4b3b-a296-4db5f22b4d5f" d="M468.676 511.103h-1.5"/><path class="fa016406-6ec5-4f56-a20d-ec2b0e2007e6" d="M558.71 275.335l8.54 5.147-8.727 4.824.187-9.971zM468.635 506.117L460 511.103l8.635 4.986v-9.972z"/><text class="f669f44a-24bb-401a-a144-45584181282c" transform="translate(554.5 200.62)">Broker B</text><text class="f669f44a-24bb-401a-a144-45584181282c" transform="translate(569.563 242.186)">Addresses</text><g><path class="a4810391-24a7-44f9-bc1c-3ef4488b7800" d="M647.25 317.945v-29.963"/><path class="f73d4ff3-6fc6-4655-a3f0-5fab12e3f72a" d="M652.236 316.486l-4.986 8.635-4.986-8.635h9.972z"/></g><g><path class="e259723a-440f-4b3b-a296-4db5f22b4d5f" d="M560.074 265.482h-1.5"/><path stroke-dasharray="3.003 3.003" stroke="#06c" stroke-linecap="round" stroke-linejoin="round" fill="none" d="M555.57 265.482H202.676"/><path class="e259723a-440f-4b3b-a296-4db5f22b4d5f" d="M201.175 265.482h-1.5"/><path class="fa016406-6ec5-4f56-a20d-ec2b0e2007e6" d="M558.615 260.496l8.635 4.986-8.635 4.986v-9.972zM201.134 260.496l-8.635 4.986 8.635 4.986v-9.972z"/></g><path class="b232597e-4975-4c14-ac18-eb98640afc13" transform="rotate(-180 112.75 345.121)" d="M20 327.621h185.5v35H20z"/><text class="abee0001-d3fc-48de-8f57-312a8bd26aa9" transform="translate(90.622 348.406)">Queue 1</text><path class="b232597e-4975-4c14-ac18-eb98640afc13" transform="rotate(-180 647.25 345.121)" d="M554.5 327.621H740v35H554.5z"/><text class="abee0001-d3fc-48de-8f57-312a8bd26aa9" transform="translate(623.754 348.406)">Queue 2</text><path class="b732f31e-a8ea-4600-8ede-380c12ceb9a4" d="M20 62h185.5v35H20z"/><text class="f669f44a-24bb-401a-a144-45584181282c" transform="translate(81.521 82.824)">Producer 1</text><g><path class="b732f31e-a8ea-4600-8ede-380c12ceb9a4" d="M20 451.175h185.5v35H20z"/><text class="f669f44a-24bb-401a-a144-45584181282c" transform="translate(78.952 471.999)">Consumer 1</text></g><g><path class="b732f31e-a8ea-4600-8ede-380c12ceb9a4" d="M554.5 451.175H740v35H554.5z"/><text class="f669f44a-24bb-401a-a144-45584181282c" transform="translate(612.181 471.999)">Consumer 2</text></g><path class="b732f31e-a8ea-4600-8ede-380c12ceb9a4" d="M554.5 62H740v35H554.5z"/><text class="f669f44a-24bb-401a-a144-45584181282c" transform="translate(614.749 82.824)">Producer 2</text><g><path class="a4810391-24a7-44f9-bc1c-3ef4488b7800" d="M112.75 243.306V97"/><path class="f73d4ff3-6fc6-4655-a3f0-5fab12e3f72a" d="M117.736 241.847l-4.986 8.635-4.986-8.635h9.972z"/></g><g><path class="a4810391-24a7-44f9-bc1c-3ef4488b7800" d="M647.25 243.306V97"/><path class="f73d4ff3-6fc6-4655-a3f0-5fab12e3f72a" d="M652.236 241.847l-4.986 8.635-4.986-8.635h9.972z"/></g><path class="b232597e-4975-4c14-ac18-eb98640afc13" d="M77.163 132.824h71.174v30.699H77.163z"/><g><text class="acf3aa8f-bbc8-4554-972e-6b6e472ea073" transform="translate(91.51 156.756)">Message 1</text><path class="a4cd004b-9f7e-4985-a1dc-834a76eb7b85" d="M124.5 141.703H101v-26.208l5.875-5.824H124.5v32.032z"/><path class="f213653a-3cb1-4b66-9edd-22cb2ebdca89" d="M106.875 115.495H101l5.875-5.824v5.824zM105.406 119.863h7.344M105.406 124.231h14.688M105.406 128.599h14.688M105.406 132.967h14.688"/></g><path class="b232597e-4975-4c14-ac18-eb98640afc13" d="M611.663 132.824h71.174v30.699h-71.174z"/><g><text class="acf3aa8f-bbc8-4554-972e-6b6e472ea073" transform="translate(624.984 156.756)">Message 2</text><path class="a4cd004b-9f7e-4985-a1dc-834a76eb7b85" d="M659 141.703h-23.5v-26.208l5.875-5.824H659v32.032z"/><path class="f213653a-3cb1-4b66-9edd-22cb2ebdca89" d="M641.375 115.495H635.5l5.875-5.824v5.824zM639.907 119.863h7.343M639.907 124.231h14.687M639.907 128.599h14.687M639.907 132.967h14.687"/></g><g><path class="e520ca04-a0b3-498b-82ae-3c45932cc86f" d="M647.25 362.608v78.967"/><path class="f73d4ff3-6fc6-4655-a3f0-5fab12e3f72a" d="M642.264 440.116l4.986 8.635 4.986-8.635h-9.972z"/><path class="b232597e-4975-4c14-ac18-eb98640afc13" d="M611.663 398.932h71.174v30.699h-71.174z"/><g><text class="acf3aa8f-bbc8-4554-972e-6b6e472ea073" transform="translate(621.2 422.864)">Message 1-3</text><path class="a4cd004b-9f7e-4985-a1dc-834a76eb7b85" d="M659 407.811h-23.5v-26.207l5.875-5.824H659v32.031z"/><path class="f213653a-3cb1-4b66-9edd-22cb2ebdca89" d="M641.375 381.604H635.5l5.875-5.824v5.824zM639.907 385.972h7.343M639.907 390.34h14.687M639.907 394.707h14.687M639.907 399.075h14.687"/></g></g><g><path class="e520ca04-a0b3-498b-82ae-3c45932cc86f" d="M112.75 362.608v78.967"/><path class="f73d4ff3-6fc6-4655-a3f0-5fab12e3f72a" d="M107.764 440.116l4.986 8.635 4.986-8.635h-9.972z"/><path class="b232597e-4975-4c14-ac18-eb98640afc13" d="M77.163 398.932h71.174v30.699H77.163z"/><g><text class="acf3aa8f-bbc8-4554-972e-6b6e472ea073" transform="translate(86.7 422.864)">Message 1-3</text><path class="a4cd004b-9f7e-4985-a1dc-834a76eb7b85" d="M124.501 407.811h-23.5v-26.207l5.875-5.824h17.625v32.031z"/><path class="f213653a-3cb1-4b66-9edd-22cb2ebdca89" d="M106.876 381.604h-5.875l5.875-5.824v5.824zM105.407 385.972h7.344M105.407 390.34h14.687M105.407 394.707h14.687M105.407 399.075h14.687"/></g></g><g><path class="e259723a-440f-4b3b-a296-4db5f22b4d5f" d="M30.134 24h-1.5"/><path stroke-dasharray="2.851 2.851" stroke="#06c" stroke-linecap="round" stroke-linejoin="round" fill="none" d="M25.783 24H10.102"/><path class="e259723a-440f-4b3b-a296-4db5f22b4d5f" d="M8.676 24h-1.5"/><path class="fa016406-6ec5-4f56-a20d-ec2b0e2007e6" d="M28.675 19.013L37.31 24l-8.635 4.986v-9.973zM8.635 19.013L0 24l8.635 4.986v-9.973z"/></g><text transform="translate(45 27.324)" font-size="10" font-weight="500" font-family="RedHatText,&quot;Red Hat Text&quot;,Overpass,&quot;Helvetica Neue&quot;,Arial,sans-serif" fill="#151515">Symmetric Address Federation</text><path stroke="#e8e8e8" stroke-miterlimit="10" fill="none" d="M0 44.943h760"/><path class="fa016406-6ec5-4f56-a20d-ec2b0e2007e6" transform="rotate(-180 380 511.103)" d="M302.5 493.603h155v35h-155z"/><text class="a0419d7d-8ee7-4c5b-9e59-07523fbac4f1" transform="translate(354.434 514.388)">multicast</text><path class="fa016406-6ec5-4f56-a20d-ec2b0e2007e6" transform="rotate(-180 647.25 270.482)" d="M569.75 252.982h155v35h-155z"/><text class="a0419d7d-8ee7-4c5b-9e59-07523fbac4f1" transform="translate(621.684 273.767)">multicast</text></svg>