<svg id="a17eccf8-01b2-4038-8001-42f279802885" data-name="Layer 1" xmlns="http://www.w3.org/2000/svg" width="760" height="461.233"><defs><style>.ae3b2edb-b086-4a76-ba00-acb08b0d5c86{fill:#e8e8e8}.a1d5728a-2c41-4ebc-9602-3980bada4ea9,.a8e3ad37-0105-48df-aff5-cdf3eef7fa8d,.f3969e8a-405a-4895-953d-3c342a2ee30d,.fdaa8fdf-93ac-4ba3-ab23-b29183e6b52f,.fea974f4-b935-464e-ab3a-61112a7114ee{fill:none}.fdaa8fdf-93ac-4ba3-ab23-b29183e6b52f{stroke:#d5d5d5;stroke-miterlimit:10}.fea974f4-b935-464e-ab3a-61112a7114ee{stroke-miterlimit:10}.a3c3891f-7153-48a7-9bb0-cd0621f072b9,.f3969e8a-405a-4895-953d-3c342a2ee30d,.fdaa8fdf-93ac-4ba3-ab23-b29183e6b52f{stroke-width:1.5px}.a6245778-2134-4e25-a2be-be2456a9733a,.b641dc71-81aa-44c4-a5a0-61fb3529978d,.b7e8f2fe-6105-463d-9d6e-0711bfffdb6f{font-size:12px}.a57bc0fc-4235-497e-bff8-2e645ba5696f,.b38f5a4d-9e0c-48e2-b1a9-f761cef1d441,.b641dc71-81aa-44c4-a5a0-61fb3529978d,.b7e8f2fe-6105-463d-9d6e-0711bfffdb6f{fill:#151515}.b7e8f2fe-6105-463d-9d6e-0711bfffdb6f{font-family:RedHatText,&quot;Red Hat Text&quot;,Overpass,&quot;Helvetica Neue&quot;,Arial,sans-serif;font-weight:700}.a3c3891f-7153-48a7-9bb0-cd0621f072b9,.a6245778-2134-4e25-a2be-be2456a9733a,.bd60ed42-caf8-4ce3-92c1-10925185704f{fill:#fff}.ff4813eb-cc92-467b-9a75-b7a7f3520dd8{fill:#06c}.a6245778-2134-4e25-a2be-be2456a9733a{font-family:RedHatText,&quot;Red Hat Text&quot;,Overpass,&quot;Helvetica Neue&quot;,Arial,sans-serif;font-style:italic;font-weight:500}.a1d5728a-2c41-4ebc-9602-3980bada4ea9,.fea974f4-b935-464e-ab3a-61112a7114ee{stroke:#151515}.a1d5728a-2c41-4ebc-9602-3980bada4ea9,.a3c3891f-7153-48a7-9bb0-cd0621f072b9,.a8e3ad37-0105-48df-aff5-cdf3eef7fa8d,.f3969e8a-405a-4895-953d-3c342a2ee30d{stroke-linecap:round;stroke-linejoin:round}.a8e3ad37-0105-48df-aff5-cdf3eef7fa8d{stroke:#06c}.a57bc0fc-4235-497e-bff8-2e645ba5696f,.b641dc71-81aa-44c4-a5a0-61fb3529978d{font-family:RedHatText,&quot;Red Hat Text&quot;,Overpass,&quot;Helvetica Neue&quot;,Arial,sans-serif;font-weight:500}.a57bc0fc-4235-497e-bff8-2e645ba5696f{font-size:9px}.a3c3891f-7153-48a7-9bb0-cd0621f072b9,.f3969e8a-405a-4895-953d-3c342a2ee30d{stroke:#5b5b5b}</style></defs><path class="ae3b2edb-b086-4a76-ba00-acb08b0d5c86" d="M0 133.533h275.5v207H0zM484.5 133.533H760v207H484.5z"/><path class="fdaa8fdf-93ac-4ba3-ab23-b29183e6b52f" d="M30 270.982h235.5v-85"/><path class="fdaa8fdf-93ac-4ba3-ab23-b29183e6b52f" d="M25 265.982h235.5v-85M514.5 270.982H750v-85"/><path class="fdaa8fdf-93ac-4ba3-ab23-b29183e6b52f" d="M509.5 265.982H745v-85"/><text class="b7e8f2fe-6105-463d-9d6e-0711bfffdb6f" transform="translate(20 158.62)">Broker A</text><path class="bd60ed42-caf8-4ce3-92c1-10925185704f" d="M20 175.982h235.5v85H20z"/><path class="ff4813eb-cc92-467b-9a75-b7a7f3520dd8" transform="rotate(-180 137.75 228.482)" d="M35.25 210.982h205v35h-205z"/><text class="a6245778-2134-4e25-a2be-be2456a9733a" transform="translate(112.184 231.766)">multicast</text><text class="b7e8f2fe-6105-463d-9d6e-0711bfffdb6f" transform="translate(35.063 200.185)">Addresses</text><path class="bd60ed42-caf8-4ce3-92c1-10925185704f" d="M20 285.621h235.5v35H20z"/><path class="a1d5728a-2c41-4ebc-9602-3980bada4ea9" d="M137.75 275.945v-29.963"/><path class="b38f5a4d-9e0c-48e2-b1a9-f761cef1d441" d="M142.736 274.486l-4.986 8.635-4.986-8.635h9.972z"/><text class="b7e8f2fe-6105-463d-9d6e-0711bfffdb6f" transform="translate(504.5 158.62)">Broker B</text><path class="bd60ed42-caf8-4ce3-92c1-10925185704f" d="M504.5 175.982H740v85H504.5z"/><path class="ff4813eb-cc92-467b-9a75-b7a7f3520dd8" transform="rotate(-180 622.25 228.482)" d="M519.75 210.982h205v35h-205z"/><text class="a6245778-2134-4e25-a2be-be2456a9733a" transform="translate(596.684 231.766)">multicast</text><text class="b7e8f2fe-6105-463d-9d6e-0711bfffdb6f" transform="translate(519.563 200.185)">Addresses</text><path class="bd60ed42-caf8-4ce3-92c1-10925185704f" d="M504.5 285.621H740v35H504.5z"/><path class="a1d5728a-2c41-4ebc-9602-3980bada4ea9" d="M622.25 275.945v-29.963"/><path class="b38f5a4d-9e0c-48e2-b1a9-f761cef1d441" d="M627.236 274.486l-4.986 8.635-4.986-8.635h9.972z"/><path class="a8e3ad37-0105-48df-aff5-cdf3eef7fa8d" d="M495.074 303.121h-1.5"/><path stroke-dasharray="3.032 3.032" stroke="#06c" stroke-linecap="round" stroke-linejoin="round" fill="none" d="M490.542 303.121H267.691"/><path class="a8e3ad37-0105-48df-aff5-cdf3eef7fa8d" d="M266.175 303.121h-1.5"/><path class="ff4813eb-cc92-467b-9a75-b7a7f3520dd8" d="M493.615 298.135l8.635 4.986-8.635 4.986v-9.972zM266.134 298.135l-8.635 4.986 8.635 4.986v-9.972z"/><text class="b641dc71-81aa-44c4-a5a0-61fb3529978d" transform="translate(115.622 306.406)">Queue 1</text><text class="b641dc71-81aa-44c4-a5a0-61fb3529978d" transform="translate(600.122 306.406)">Queue 1</text><text class="b641dc71-81aa-44c4-a5a0-61fb3529978d" transform="translate(297.015 296.445)">Symmetric Queue Federation</text><path class="ae3b2edb-b086-4a76-ba00-acb08b0d5c86" d="M20 409.175h235.5v35H20z"/><text class="b7e8f2fe-6105-463d-9d6e-0711bfffdb6f" transform="translate(107.553 429.999)">Consumer</text><path class="ae3b2edb-b086-4a76-ba00-acb08b0d5c86" d="M20 20h235.5v35H20z"/><text class="b7e8f2fe-6105-463d-9d6e-0711bfffdb6f" transform="translate(106.52 40.824)">Producer 1</text><path class="ae3b2edb-b086-4a76-ba00-acb08b0d5c86" d="M504.5 20H740v35H504.5z"/><text class="b7e8f2fe-6105-463d-9d6e-0711bfffdb6f" transform="translate(589.749 40.824)">Producer 2</text><path class="a1d5728a-2c41-4ebc-9602-3980bada4ea9" d="M137.75 201.306V55"/><path class="b38f5a4d-9e0c-48e2-b1a9-f761cef1d441" d="M142.736 199.847l-4.986 8.635-4.986-8.635h9.972z"/><g><path class="a1d5728a-2c41-4ebc-9602-3980bada4ea9" d="M622.25 201.306V55"/><path class="b38f5a4d-9e0c-48e2-b1a9-f761cef1d441" d="M627.236 199.847l-4.986 8.635-4.986-8.635h9.972z"/></g><path class="bd60ed42-caf8-4ce3-92c1-10925185704f" d="M102.163 90.824h71.174v30.699h-71.174z"/><g><text class="a57bc0fc-4235-497e-bff8-2e645ba5696f" transform="translate(116.51 114.756)">Message 1</text><path class="a3c3891f-7153-48a7-9bb0-cd0621f072b9" d="M149.5 99.703H126V73.495l5.875-5.824H149.5v32.032z"/><path class="f3969e8a-405a-4895-953d-3c342a2ee30d" d="M131.875 73.495H126l5.875-5.824v5.824zM130.406 77.863h7.344M130.406 82.231h14.688M130.406 86.599h14.688M130.406 90.967h14.688"/></g><path class="bd60ed42-caf8-4ce3-92c1-10925185704f" d="M586.663 90.824h71.174v30.699h-71.174z"/><g><text class="a57bc0fc-4235-497e-bff8-2e645ba5696f" transform="translate(599.984 114.756)">Message 2</text><path class="a3c3891f-7153-48a7-9bb0-cd0621f072b9" d="M634 99.703h-23.5V73.495l5.875-5.824H634v32.032z"/><path class="f3969e8a-405a-4895-953d-3c342a2ee30d" d="M616.375 73.495H610.5l5.875-5.824v5.824zM614.907 77.863h7.343M614.907 82.231h14.687M614.907 86.599h14.687M614.907 90.967h14.687"/></g><g><path class="fea974f4-b935-464e-ab3a-61112a7114ee" d="M75.25 320.613v78.967"/><path class="b38f5a4d-9e0c-48e2-b1a9-f761cef1d441" d="M70.264 398.121l4.986 8.635 4.986-8.635h-9.972z"/><path class="bd60ed42-caf8-4ce3-92c1-10925185704f" d="M39.663 356.937h71.174v30.699H39.663z"/><g><text class="a57bc0fc-4235-497e-bff8-2e645ba5696f" transform="translate(54.01 380.869)">Message 1</text><path class="a3c3891f-7153-48a7-9bb0-cd0621f072b9" d="M87 365.816H63.5v-26.207l5.875-5.824H87v32.031z"/><path class="f3969e8a-405a-4895-953d-3c342a2ee30d" d="M69.375 339.609H63.5l5.875-5.824v5.824zM67.907 343.977h7.343M67.907 348.345h14.687M67.907 352.712h14.687M67.907 357.08h14.687"/></g></g><g><path class="fea974f4-b935-464e-ab3a-61112a7114ee" d="M200.25 320.613v78.967"/><path class="b38f5a4d-9e0c-48e2-b1a9-f761cef1d441" d="M195.264 398.121l4.986 8.635 4.986-8.635h-9.972z"/><path class="bd60ed42-caf8-4ce3-92c1-10925185704f" d="M164.663 356.937h71.174v30.699h-71.174z"/><g><text class="a57bc0fc-4235-497e-bff8-2e645ba5696f" transform="translate(177.985 380.869)">Message 2</text><path class="a3c3891f-7153-48a7-9bb0-cd0621f072b9" d="M212 365.816h-23.5v-26.207l5.875-5.824H212v32.031z"/><path class="f3969e8a-405a-4895-953d-3c342a2ee30d" d="M194.375 339.609H188.5l5.875-5.824v5.824zM192.907 343.977h7.343M192.907 348.345h14.687M192.907 352.712h14.687M192.907 357.08h14.687"/></g></g><g><text transform="translate(690.661 444.251)" font-size="10" fill="#f3f3f3" font-family="RedHatText,&quot;Red Hat Text&quot;,Overpass,&quot;Helvetica Neue&quot;,Arial,sans-serif">120_AMQ_1020</text><path fill="none" d="M0 421.233h760v40H0z"/></g></svg>