<svg id="a2f406fc-0feb-4d76-bf1a-bea00dd8b3b3" data-name="Layer 1" xmlns="http://www.w3.org/2000/svg" width="760" height="575.175"><defs><style>.f4622b94-b95c-461c-8a62-04c0ea5d987c{fill:#e8e8e8}.b94ad13d-1ddb-4b6f-8b49-a9970bf2aff7,.eccc97ca-106e-43f6-808f-8ce629552d1c{fill:#151515}.b1ae88c4-303c-4b77-95d1-340c68e6c625,.ba30350d-b785-4db8-a46d-2a83ab17555d{fill:#fff}.a375708d-7898-421c-86a7-210c81b59a3f,.a3e4463f-5d9a-42a0-8104-dafd34c04c39,.eea3dce6-32a9-4c96-8c1e-ebe64519b763,.f36c2ac5-9d0f-4171-bc5a-40832604235a,.f46d3749-431c-4712-b2f9-b1aa6f5e9793{fill:none}.a375708d-7898-421c-86a7-210c81b59a3f{stroke:#151515;stroke-miterlimit:10}.b94ad13d-1ddb-4b6f-8b49-a9970bf2aff7{font-size:9px}.b94ad13d-1ddb-4b6f-8b49-a9970bf2aff7,.bdced67e-e906-400d-9029-bf5b1572bf75{font-family:RedHatText,&quot;Red Hat Text&quot;,Overpass,&quot;Helvetica Neue&quot;,Arial,sans-serif;font-weight:500}.ba30350d-b785-4db8-a46d-2a83ab17555d,.f46d3749-431c-4712-b2f9-b1aa6f5e9793{stroke:#5b5b5b}.a3e4463f-5d9a-42a0-8104-dafd34c04c39,.ba30350d-b785-4db8-a46d-2a83ab17555d,.eea3dce6-32a9-4c96-8c1e-ebe64519b763,.f36c2ac5-9d0f-4171-bc5a-40832604235a,.f46d3749-431c-4712-b2f9-b1aa6f5e9793{stroke-linecap:round;stroke-linejoin:round;stroke-width:1.5px}.bdced67e-e906-400d-9029-bf5b1572bf75{font-size:10px}.a3e4463f-5d9a-42a0-8104-dafd34c04c39,.eea3dce6-32a9-4c96-8c1e-ebe64519b763,.f36c2ac5-9d0f-4171-bc5a-40832604235a{stroke:#d0d0d0}.a3e4463f-5d9a-42a0-8104-dafd34c04c39{stroke-dasharray:2.929 2.929}.f36c2ac5-9d0f-4171-bc5a-40832604235a{stroke-dasharray:3.226 3.226}.bdced67e-e906-400d-9029-bf5b1572bf75{fill:#d0d0d0}</style></defs><path class="f4622b94-b95c-461c-8a62-04c0ea5d987c" d="M92.749 163.533h255.5v271h-255.5zM112.749 20h215.5v55h-215.5z"/><path class="eccc97ca-106e-43f6-808f-8ce629552d1c" d="M128.685 44.241v-8.4h4.1a3.348 3.348 0 011.218.21 2.823 2.823 0 01.936.576 2.463 2.463 0 01.6.876 2.886 2.886 0 01.21 1.109 2.71 2.71 0 01-.21 1.063 2.443 2.443 0 01-.6.857 2.9 2.9 0 01-.936.571 3.391 3.391 0 01-1.218.209h-2.04v2.928zm3.744-6.695h-1.68v2.124h1.668a1.287 1.287 0 00.936-.307 1.023 1.023 0 00.312-.761 1.01 1.01 0 00-.312-.75 1.264 1.264 0 00-.924-.306zM137.024 44.241V38.05h1.945v1.4a2.988 2.988 0 01.714-1.145 1.385 1.385 0 01.965-.378 2.01 2.01 0 01.336.042 1.485 1.485 0 01.313.114v1.668a2.027 2.027 0 00-.42-.139 2.234 2.234 0 00-.492-.053 1.655 1.655 0 00-.811.209 1.693 1.693 0 00-.605.558v3.912zM142.053 41.157a3.253 3.253 0 01.245-1.271 3.052 3.052 0 01.679-1.015A3.184 3.184 0 01144 38.2a3.307 3.307 0 011.278-.246 3.351 3.351 0 011.284.246 3.177 3.177 0 011.033.672 3.078 3.078 0 01.677 1.015 3.254 3.254 0 01.247 1.271 3.2 3.2 0 01-.252 1.273 3.113 3.113 0 01-1.71 1.685 3.445 3.445 0 01-2.557 0 3.087 3.087 0 01-1.7-1.7 3.231 3.231 0 01-.247-1.259zm3.227 1.561a1.22 1.22 0 00.966-.439 1.656 1.656 0 00.378-1.122 1.7 1.7 0 00-.378-1.134 1.209 1.209 0 00-.966-.45 1.193 1.193 0 00-.96.45 1.72 1.72 0 00-.372 1.134 1.673 1.673 0 00.372 1.122 1.2 1.2 0 00.96.439zM154.041 44.241v-.8a2.139 2.139 0 01-.786.612 2.463 2.463 0 01-2.106-.019 2.658 2.658 0 01-.87-.672 3.3 3.3 0 01-.582-1 3.452 3.452 0 01-.216-1.223 3.332 3.332 0 01.222-1.219 3.076 3.076 0 01.612-.989 2.926 2.926 0 01.918-.666 2.638 2.638 0 011.128-.246 2.22 2.22 0 01.912.191 2.119 2.119 0 01.744.553v-3.1l1.944-.3v8.88zm-2.652-3.095a1.5 1.5 0 00.426 1.085 1.408 1.408 0 001.05.439 1.554 1.554 0 00.636-.127 1.58 1.58 0 00.516-.365V40.09a1.667 1.667 0 00-.522-.355 1.582 1.582 0 00-.63-.126 1.4 1.4 0 00-1.056.439 1.523 1.523 0 00-.42 1.098zM159.369 38.05v3.611a1.213 1.213 0 00.281.834.956.956 0 00.75.318 1.3 1.3 0 00.571-.125 1.318 1.318 0 00.462-.39V38.05h1.944v6.191h-1.944v-1.008a2.559 2.559 0 01-.858.823 2.2 2.2 0 01-1.1.282 1.963 1.963 0 01-1.475-.595 2.086 2.086 0 01-.576-1.517V38.05zM167.937 42.682a1.562 1.562 0 00.7-.157 1.5 1.5 0 00.546-.456l1.152 1.14a3.079 3.079 0 01-1.11.847 3.341 3.341 0 01-1.411.3 3.226 3.226 0 01-1.259-.246 3.1 3.1 0 01-1.7-1.7 3.363 3.363 0 010-2.52 3.116 3.116 0 011.7-1.7 3.226 3.226 0 011.259-.246 3.584 3.584 0 011.435.294 3.085 3.085 0 011.145.847l-1.187 1.187a2.149 2.149 0 00-.612-.51 1.517 1.517 0 00-.708-.162 1.218 1.218 0 00-.96.445 1.627 1.627 0 00-.384 1.1 1.561 1.561 0 00.4 1.086 1.29 1.29 0 00.994.451zM176.948 43.365a4 4 0 01-1.212.763 3.9 3.9 0 01-1.391.233 3.315 3.315 0 01-1.279-.246 3.271 3.271 0 01-1.038-.677 3.125 3.125 0 01-.695-1.021 3.165 3.165 0 01-.252-1.26 3.324 3.324 0 01.239-1.271 3.189 3.189 0 01.655-1.021 2.966 2.966 0 01.99-.677 3.1 3.1 0 011.235-.247 3 3 0 011.231.247 2.892 2.892 0 01.96.677 3.155 3.155 0 01.63 1.038 3.741 3.741 0 01.228 1.326v.42h-4.261a1.553 1.553 0 00.529.84 1.413 1.413 0 00.923.324 1.819 1.819 0 00.7-.131 1.313 1.313 0 00.522-.384zm-2.76-3.912a1.094 1.094 0 00-.767.288 1.537 1.537 0 00-.433.8h2.46a1.475 1.475 0 00-.456-.8 1.181 1.181 0 00-.804-.288zM178.46 44.241V38.05h1.94v1.4a3.012 3.012 0 01.714-1.145 1.389 1.389 0 01.966-.378 2.01 2.01 0 01.336.042 1.479 1.479 0 01.312.114v1.668a2.008 2.008 0 00-.42-.139 2.234 2.234 0 00-.492-.053 1.651 1.651 0 00-.81.209 1.7 1.7 0 00-.606.558v3.912zM128.589 53.232h1.354v.96a2.053 2.053 0 011.787-1.055 1.89 1.89 0 011.764 1.163 2.214 2.214 0 011.99-1.163 1.991 1.991 0 011.968 2.182v3.922H136.1v-3.634a1.215 1.215 0 00-1.212-1.378 1.431 1.431 0 00-1.211.707c.012.131.023.252.023.383v3.922h-1.354v-3.634a1.215 1.215 0 00-1.212-1.378 1.4 1.4 0 00-1.188.683v4.329h-1.354zM140.636 59.277l-2.267-6.045h1.511l1.523 4.462 1.679-4.462h1.476l-2.858 6.993a2.031 2.031 0 01-2.135 1.583 2.86 2.86 0 01-.683-.084v-1.163a4.8 4.8 0 00.527.047.958.958 0 00.972-.7zM147.008 58.474a.84.84 0 11-.84-.875.858.858 0 01.84.875zM148.185 57.515c0-1.08.875-1.764 2.29-1.764a3.708 3.708 0 011.619.372v-.659c0-.792-.455-1.2-1.379-1.2a4.16 4.16 0 00-1.751.466l-.48-.983a5.78 5.78 0 012.5-.611c1.559 0 2.459.792 2.459 2.182v3.922h-1.344v-.61a2.511 2.511 0 01-1.787.707 1.893 1.893 0 01-2.127-1.822zm2.494.875a2.14 2.14 0 001.415-.492v-.983a3.11 3.11 0 00-1.391-.288c-.767 0-1.248.336-1.248.863 0 .552.481.9 1.224.9zM155.084 53.232h1.354v.984a2.184 2.184 0 011.908-1.079 2.022 2.022 0 012.075 2.146v3.958h-1.356v-3.574a1.293 1.293 0 00-1.319-1.438 1.542 1.542 0 00-1.308.719v4.293h-1.354zM163.6 59.277l-2.267-6.045h1.511l1.523 4.462 1.679-4.462h1.475l-2.854 6.993a2.032 2.032 0 01-2.135 1.583 2.86 2.86 0 01-.683-.084v-1.163a4.8 4.8 0 00.527.047.959.959 0 00.972-.7zM172.805 57.5l.816.816a3.126 3.126 0 01-2.351 1.043 3.107 3.107 0 010-6.213 3.243 3.243 0 012.4 1.008l-.84.876a1.985 1.985 0 00-1.511-.708 1.928 1.928 0 00.036 3.838 1.842 1.842 0 001.45-.66zM174.488 57.515c0-1.08.875-1.764 2.29-1.764a3.705 3.705 0 011.619.372v-.659c0-.792-.455-1.2-1.378-1.2a4.16 4.16 0 00-1.751.466l-.48-.983a5.779 5.779 0 012.494-.611c1.56 0 2.459.792 2.459 2.182v3.922H178.4v-.61a2.509 2.509 0 01-1.787.707 1.894 1.894 0 01-2.125-1.822zm2.494.875a2.14 2.14 0 001.418-.49v-.983a3.1 3.1 0 00-1.39-.288c-.768 0-1.248.336-1.248.863-.003.55.477.898 1.22.898zM181.483 57.635a3.47 3.47 0 001.931.683c.72 0 1.212-.324 1.212-.8 0-.372-.252-.577-.828-.684l-1.068-.181c-1.163-.215-1.739-.754-1.739-1.654 0-1.128.924-1.859 2.327-1.859a4.226 4.226 0 012.363.719l-.636.888a3.28 3.28 0 00-1.811-.576c-.624 0-1.031.264-1.031.708 0 .384.216.552.852.659l1.055.193c1.2.227 1.775.779 1.775 1.678a2.2 2.2 0 01-2.447 1.955 4.033 4.033 0 01-2.59-.815zM187.879 54.312h-1.211v-1.08h1.211v-1.654l1.355-.288v1.942h1.679v1.08h-1.679v3.046c0 .588.228.816.84.816a2.5 2.5 0 00.816-.144v1.14a4.3 4.3 0 01-1.164.167c-1.211 0-1.847-.575-1.847-1.679zM193.566 58.474a.84.84 0 11-.839-.875.858.858 0 01.839.875zM199.337 58.438a2.31 2.31 0 01-1.847.864 3.075 3.075 0 01.084-6.117 2.29 2.29 0 011.751.792v-3.311l1.356-.228v8.8h-1.344zm-1.439-.276a1.793 1.793 0 001.427-.66v-2.53a1.861 1.861 0 00-1.427-.648 1.924 1.924 0 000 3.838zM205.146 59.361a3.055 3.055 0 01-3.059-3.118 2.96 2.96 0 012.927-3.106 2.883 2.883 0 012.841 3.094v.336h-4.437a1.836 1.836 0 001.8 1.643 1.952 1.952 0 001.427-.564l.887.828a3.471 3.471 0 01-2.386.887zm-1.7-3.622h3.13a1.644 1.644 0 00-1.57-1.5 1.616 1.616 0 00-1.564 1.5zM209.335 57.635a3.465 3.465 0 001.931.683c.719 0 1.212-.324 1.212-.8 0-.372-.252-.577-.829-.684l-1.067-.181c-1.163-.215-1.739-.754-1.739-1.654 0-1.128.924-1.859 2.327-1.859a4.221 4.221 0 012.362.719l-.636.888a3.28 3.28 0 00-1.81-.576c-.624 0-1.031.264-1.031.708 0 .384.216.552.851.659l1.056.193c1.2.227 1.774.779 1.774 1.678a2.2 2.2 0 01-2.446 1.955 4.036 4.036 0 01-2.591-.815zM215.73 54.312h-1.21v-1.08h1.21v-1.654l1.356-.288v1.942h1.679v1.08h-1.679v3.046c0 .588.227.816.84.816a2.49 2.49 0 00.815-.144v1.14a4.292 4.292 0 01-1.164.167c-1.211 0-1.847-.575-1.847-1.679zM219.787 51.182a.846.846 0 011.691 0 .846.846 0 01-1.691 0zm1.523 8.059h-1.355v-6.009h1.355zM222.979 53.232h1.354v.984a2.182 2.182 0 011.907-1.079 2.021 2.021 0 012.075 2.146v3.958h-1.355v-3.574a1.293 1.293 0 00-1.319-1.438 1.54 1.54 0 00-1.308.719v4.293h-1.354zM229.663 57.515c0-1.08.875-1.764 2.29-1.764a3.705 3.705 0 011.619.372v-.659c0-.792-.455-1.2-1.379-1.2a4.164 4.164 0 00-1.751.466l-.479-.983a5.773 5.773 0 012.494-.611c1.56 0 2.459.792 2.459 2.182v3.922h-1.344v-.61a2.509 2.509 0 01-1.787.707 1.893 1.893 0 01-2.122-1.822zm2.494.875a2.14 2.14 0 001.415-.492v-.983a3.1 3.1 0 00-1.39-.288c-.768 0-1.248.336-1.248.863 0 .552.48.9 1.223.9zM237.306 54.312H236.1v-1.08h1.211v-1.654l1.355-.288v1.942h1.679v1.08h-1.679v3.046c0 .588.228.816.84.816a2.49 2.49 0 00.815-.144v1.14a4.292 4.292 0 01-1.164.167c-1.211 0-1.846-.575-1.846-1.679zM241.362 51.182a.846.846 0 011.691 0 .846.846 0 01-1.691 0zm1.523 8.059h-1.355v-6.009h1.355zM247.3 53.137a3.113 3.113 0 11-3.023 3.106 3 3 0 013.023-3.106zm1.678 3.118a1.7 1.7 0 10-3.357 0 1.7 1.7 0 103.357 0zM251.73 53.232h1.355v.984a2.181 2.181 0 011.907-1.079 2.021 2.021 0 012.075 2.146v3.958h-1.355v-3.574a1.293 1.293 0 00-1.319-1.438 1.54 1.54 0 00-1.308.719v4.293h-1.355z"/><g><path fill="#06c" d="M112.749 210.982h215.5v55h-215.5z"/><path class="b1ae88c4-303c-4b77-95d1-340c68e6c625" d="M127.773 235.224l3.276-8.4h2.351l3.228 8.4H134.4l-.7-2h-3.072l-.708 2zm3.42-3.6h1.956l-.972-2.783zM141.693 235.224v-.8a2.1 2.1 0 01-.786.612 2.452 2.452 0 01-2.105-.017 2.685 2.685 0 01-.87-.672 3.278 3.278 0 01-.582-1 3.44 3.44 0 01-.216-1.225 3.33 3.33 0 01.221-1.218 3.088 3.088 0 01.613-.99 2.931 2.931 0 01.918-.666 2.632 2.632 0 011.128-.246 2.225 2.225 0 01.912.193 2.1 2.1 0 01.743.551v-3.095l1.944-.3v8.88zm-2.652-3.1a1.5 1.5 0 00.427 1.087 1.4 1.4 0 001.05.437 1.531 1.531 0 001.151-.492v-2.088a1.655 1.655 0 00-.522-.353 1.581 1.581 0 00-.629-.126 1.4 1.4 0 00-1.057.437 1.529 1.529 0 00-.42 1.101zM149.409 235.224v-.8a2.1 2.1 0 01-.786.612 2.452 2.452 0 01-2.1-.017 2.7 2.7 0 01-.871-.672 3.3 3.3 0 01-.582-1 3.462 3.462 0 01-.215-1.225 3.33 3.33 0 01.221-1.218 3.088 3.088 0 01.613-.99 2.919 2.919 0 01.918-.666 2.631 2.631 0 011.127-.246 2.226 2.226 0 01.913.193 2.1 2.1 0 01.743.551v-3.095l1.944-.3v8.88zm-2.652-3.1a1.494 1.494 0 00.427 1.087 1.4 1.4 0 001.049.437 1.531 1.531 0 001.152-.492v-2.088a1.667 1.667 0 00-.522-.353 1.582 1.582 0 00-.63-.126 1.4 1.4 0 00-1.056.437 1.525 1.525 0 00-.42 1.101zM152.841 235.224v-6.193h1.944v1.405a3.01 3.01 0 01.714-1.147 1.388 1.388 0 01.966-.378 2.385 2.385 0 01.336.042 1.744 1.744 0 01.312.114v1.668a2.135 2.135 0 00-.42-.137 2.235 2.235 0 00-.492-.055 1.642 1.642 0 00-.81.21 1.7 1.7 0 00-.606.559v3.912zM163.736 234.348a4.027 4.027 0 01-1.212.761 3.853 3.853 0 01-1.391.235 3.315 3.315 0 01-1.279-.246 3.276 3.276 0 01-1.038-.679 3.164 3.164 0 01-.947-2.279 3.342 3.342 0 01.239-1.273 3.219 3.219 0 01.655-1.019 2.971 2.971 0 01.99-.679 3.129 3.129 0 011.235-.245 3.033 3.033 0 011.231.245 2.9 2.9 0 01.96.679 3.135 3.135 0 01.63 1.038 3.727 3.727 0 01.228 1.325v.421h-4.261a1.553 1.553 0 00.529.84 1.413 1.413 0 00.924.323 1.8 1.8 0 00.7-.132 1.306 1.306 0 00.522-.384zm-2.759-3.912a1.086 1.086 0 00-.768.288 1.531 1.531 0 00-.433.8h2.46a1.479 1.479 0 00-.456-.8 1.175 1.175 0 00-.803-.288zM164.744 234.587l.852-1.3a6.748 6.748 0 001.1.486 2.978 2.978 0 00.888.138 1.3 1.3 0 00.648-.138.413.413 0 00.241-.366.348.348 0 00-.139-.288.97.97 0 00-.438-.155l-1.188-.217a2.539 2.539 0 01-1.361-.624 1.575 1.575 0 01-.462-1.176 1.781 1.781 0 01.689-1.487 3.013 3.013 0 011.9-.54 4.668 4.668 0 011.285.18 5.344 5.344 0 011.235.528l-.888 1.235a4.487 4.487 0 00-.906-.395 3 3 0 00-.87-.132 1.11 1.11 0 00-.546.113.353.353 0 00-.2.318.331.331 0 00.138.289 1.334 1.334 0 00.5.156l1.164.216a2.653 2.653 0 011.391.63 1.5 1.5 0 01.468 1.158 1.825 1.825 0 01-.2.845 1.985 1.985 0 01-.558.672 2.782 2.782 0 01-.851.445 3.4 3.4 0 01-1.057.162 6.164 6.164 0 01-1.571-.193 3.992 3.992 0 01-1.264-.56zM170.876 234.587l.852-1.3a6.748 6.748 0 001.1.486 2.978 2.978 0 00.888.138 1.3 1.3 0 00.648-.138.412.412 0 00.24-.366.347.347 0 00-.138-.288.975.975 0 00-.438-.155l-1.188-.217a2.546 2.546 0 01-1.362-.624 1.578 1.578 0 01-.461-1.176 1.781 1.781 0 01.689-1.487 3.013 3.013 0 011.9-.54 4.656 4.656 0 011.284.18 5.351 5.351 0 011.236.528l-.888 1.235a4.487 4.487 0 00-.906-.395 3 3 0 00-.87-.132 1.11 1.11 0 00-.546.113.353.353 0 00-.2.318.331.331 0 00.138.289 1.334 1.334 0 00.5.156l1.164.216a2.653 2.653 0 011.392.63 1.5 1.5 0 01.468 1.158 1.838 1.838 0 01-.2.845 1.985 1.985 0 01-.558.672 2.777 2.777 0 01-.852.445 3.385 3.385 0 01-1.056.162 6.177 6.177 0 01-1.572-.193 4 4 0 01-1.264-.56zM128.589 244.215h1.354v.959a2.053 2.053 0 011.787-1.055 1.888 1.888 0 011.764 1.163 2.216 2.216 0 011.99-1.163 1.992 1.992 0 011.968 2.183v3.922H136.1v-3.634a1.217 1.217 0 00-1.212-1.38 1.432 1.432 0 00-1.211.708c.012.132.023.252.023.384v3.922h-1.354v-3.634a1.217 1.217 0 00-1.212-1.38 1.4 1.4 0 00-1.188.684v4.33h-1.354zM140.636 250.26l-2.267-6.045h1.511l1.523 4.461 1.679-4.461h1.476l-2.855 6.992a2.031 2.031 0 01-2.135 1.583 2.86 2.86 0 01-.683-.084v-1.163a4.9 4.9 0 00.527.048.959.959 0 00.972-.7zM147.008 249.456a.84.84 0 11-.84-.876.867.867 0 01.84.876zM148.185 248.5c0-1.079.875-1.763 2.29-1.763a3.722 3.722 0 011.619.372v-.66c0-.791-.455-1.2-1.379-1.2a4.152 4.152 0 00-1.751.468l-.48-.984a5.78 5.78 0 012.5-.611c1.559 0 2.459.791 2.459 2.183v3.922h-1.344v-.613a2.5 2.5 0 01-1.787.708 1.894 1.894 0 01-2.127-1.822zm2.494.876a2.14 2.14 0 001.415-.492v-.984a3.11 3.11 0 00-1.391-.288c-.767 0-1.248.336-1.248.865 0 .547.481.895 1.224.895zM155.084 244.215h1.354v.983a2.182 2.182 0 011.908-1.079 2.022 2.022 0 012.075 2.147v3.958h-1.356v-3.575a1.293 1.293 0 00-1.319-1.439 1.542 1.542 0 00-1.308.72v4.294h-1.354zM163.6 250.26l-2.267-6.045h1.511l1.523 4.461 1.679-4.461h1.475l-2.854 6.992a2.032 2.032 0 01-2.135 1.583 2.86 2.86 0 01-.683-.084v-1.163a4.9 4.9 0 00.527.048.96.96 0 00.972-.7zM172.805 248.484l.816.816a3.13 3.13 0 01-2.351 1.044 3.107 3.107 0 010-6.213 3.236 3.236 0 012.4 1.008l-.84.875a1.985 1.985 0 00-1.511-.708 1.928 1.928 0 00.036 3.838 1.845 1.845 0 001.45-.66zM174.488 248.5c0-1.079.875-1.763 2.29-1.763a3.719 3.719 0 011.619.372v-.66c0-.791-.455-1.2-1.378-1.2a4.152 4.152 0 00-1.751.468l-.48-.984a5.779 5.779 0 012.494-.611c1.56 0 2.459.791 2.459 2.183v3.922H178.4v-.613a2.5 2.5 0 01-1.787.708 1.894 1.894 0 01-2.125-1.822zm2.494.876a2.14 2.14 0 001.415-.492v-.984a3.1 3.1 0 00-1.39-.288c-.768 0-1.248.336-1.248.865 0 .547.48.895 1.223.895zM181.483 248.616a3.464 3.464 0 001.931.684c.72 0 1.212-.323 1.212-.8 0-.371-.252-.575-.828-.684l-1.068-.179c-1.163-.216-1.739-.756-1.739-1.655 0-1.127.924-1.859 2.327-1.859a4.234 4.234 0 012.363.719l-.636.888a3.28 3.28 0 00-1.811-.576c-.624 0-1.031.264-1.031.707 0 .384.216.552.852.661l1.055.191c1.2.229 1.775.78 1.775 1.68a2.2 2.2 0 01-2.447 1.955 4.022 4.022 0 01-2.59-.817zM187.879 245.294h-1.211v-1.079h1.211v-1.655l1.355-.289v1.944h1.679v1.079h-1.679v3.047c0 .587.228.815.84.815a2.5 2.5 0 00.816-.144v1.139a4.227 4.227 0 01-1.164.168c-1.211 0-1.847-.575-1.847-1.678zM193.566 249.456a.84.84 0 11-1.678 0 .84.84 0 111.678 0zM199.337 249.42a2.309 2.309 0 01-1.847.863 3.074 3.074 0 01.084-6.116 2.289 2.289 0 011.751.791v-3.31l1.356-.228v8.8h-1.344zm-1.439-.276a1.8 1.8 0 001.427-.66v-2.53a1.861 1.861 0 00-1.427-.648 1.924 1.924 0 000 3.838zM205.146 250.344a3.055 3.055 0 01-3.059-3.119 2.96 2.96 0 012.927-3.106 2.883 2.883 0 012.841 3.094v.336h-4.437a1.837 1.837 0 001.8 1.643 1.952 1.952 0 001.427-.564l.887.828a3.477 3.477 0 01-2.386.888zm-1.7-3.622h3.13a1.644 1.644 0 00-1.57-1.5 1.616 1.616 0 00-1.564 1.5zM209.335 248.616a3.46 3.46 0 001.931.684c.719 0 1.212-.323 1.212-.8 0-.371-.252-.575-.829-.684l-1.067-.179c-1.163-.216-1.739-.756-1.739-1.655 0-1.127.924-1.859 2.327-1.859a4.229 4.229 0 012.362.719l-.636.888a3.28 3.28 0 00-1.81-.576c-.624 0-1.031.264-1.031.707 0 .384.216.552.851.661l1.056.191c1.2.229 1.774.78 1.774 1.68a2.2 2.2 0 01-2.446 1.955 4.025 4.025 0 01-2.591-.817zM215.73 245.294h-1.21v-1.079h1.21v-1.655l1.356-.289v1.944h1.679v1.079h-1.679v3.047c0 .587.227.815.84.815a2.49 2.49 0 00.815-.144v1.139a4.216 4.216 0 01-1.164.168c-1.211 0-1.847-.575-1.847-1.678zM219.787 242.164a.846.846 0 011.691 0 .846.846 0 01-1.691 0zm1.523 8.06h-1.355v-6.009h1.355zM222.979 244.215h1.354v.983a2.18 2.18 0 011.907-1.079 2.022 2.022 0 012.075 2.147v3.958h-1.355v-3.575a1.294 1.294 0 00-1.319-1.439 1.541 1.541 0 00-1.308.72v4.294h-1.354zM229.663 248.5c0-1.079.875-1.763 2.29-1.763a3.719 3.719 0 011.619.372v-.66c0-.791-.455-1.2-1.379-1.2a4.156 4.156 0 00-1.751.468l-.479-.984a5.773 5.773 0 012.494-.611c1.56 0 2.459.791 2.459 2.183v3.922h-1.344v-.613a2.5 2.5 0 01-1.787.708 1.894 1.894 0 01-2.122-1.822zm2.494.876a2.14 2.14 0 001.415-.492v-.984a3.1 3.1 0 00-1.39-.288c-.768 0-1.248.336-1.248.865 0 .547.48.895 1.223.895zM237.306 245.294H236.1v-1.079h1.211v-1.655l1.355-.289v1.944h1.679v1.079h-1.679v3.047c0 .587.228.815.84.815a2.49 2.49 0 00.815-.144v1.139a4.216 4.216 0 01-1.164.168c-1.211 0-1.846-.575-1.846-1.678zM241.362 242.164a.846.846 0 011.691 0 .846.846 0 01-1.691 0zm1.523 8.06h-1.355v-6.009h1.355zM247.3 244.119a3.114 3.114 0 11-3.023 3.106 3 3 0 013.023-3.106zm1.678 3.118a1.7 1.7 0 10-3.357 0 1.7 1.7 0 103.357 0zM251.73 244.215h1.355v.983a2.179 2.179 0 011.907-1.079 2.022 2.022 0 012.075 2.147v3.958h-1.355v-3.575a1.294 1.294 0 00-1.319-1.439 1.541 1.541 0 00-1.308.72v4.294h-1.355z"/></g><text transform="translate(112.748 193.62)" font-size="14" font-family="RedHatText,&quot;Red Hat Text&quot;,Overpass,&quot;Helvetica Neue&quot;,Arial,sans-serif" font-weight="700" fill="#151515">Broker</text><path class="f4622b94-b95c-461c-8a62-04c0ea5d987c" d="M-.001 503.175h215.5v55H-.001z"/><g><path class="eccc97ca-106e-43f6-808f-8ce629552d1c" d="M20.039 525.688a2.123 2.123 0 001.044-.264 2.813 2.813 0 00.875-.779l1.357 1.284a4.028 4.028 0 01-1.465 1.163 4.238 4.238 0 01-1.884.445 4.575 4.575 0 01-1.752-.336 4.373 4.373 0 01-1.4-.912 4.278 4.278 0 01-1.271-3.073 4.315 4.315 0 01.341-1.71 4.212 4.212 0 01.937-1.374 4.415 4.415 0 011.4-.911 4.512 4.512 0 011.746-.337 4.413 4.413 0 011.933.445 3.915 3.915 0 011.476 1.188l-1.392 1.319a2.916 2.916 0 00-.918-.834 2.236 2.236 0 00-1.1-.281 2.167 2.167 0 00-.912.192 2.242 2.242 0 00-.725.522 2.379 2.379 0 00-.481.792 2.806 2.806 0 00-.174.989 2.662 2.662 0 00.181.985 2.352 2.352 0 00.5.785 2.279 2.279 0 00.75.516 2.346 2.346 0 00.934.186zM24.119 524.333a3.258 3.258 0 01.245-1.272 3.075 3.075 0 01.678-1.015 3.2 3.2 0 011.026-.671 3.289 3.289 0 011.278-.247 3.333 3.333 0 011.284.247 3.174 3.174 0 011.033.671 3.088 3.088 0 01.677 1.015 3.259 3.259 0 01.246 1.272 3.19 3.19 0 01-.252 1.271 3.137 3.137 0 01-.684 1.015 3.211 3.211 0 01-1.025.672 3.445 3.445 0 01-2.557 0 3.093 3.093 0 01-1.7-1.7 3.222 3.222 0 01-.249-1.258zm3.227 1.56a1.219 1.219 0 00.966-.438 1.656 1.656 0 00.378-1.122 1.7 1.7 0 00-.378-1.134 1.2 1.2 0 00-.966-.45 1.187 1.187 0 00-.96.45 1.719 1.719 0 00-.372 1.134 1.673 1.673 0 00.372 1.122 1.2 1.2 0 00.96.438zM31.822 527.417v-6.192h1.944v1.007a2.544 2.544 0 01.858-.821 2.19 2.19 0 011.1-.283 1.967 1.967 0 011.476.595 2.09 2.09 0 01.576 1.518v4.176H35.83V523.8a1.209 1.209 0 00-.282-.834.954.954 0 00-.75-.319 1.278 1.278 0 00-.57.126 1.329 1.329 0 00-.462.39v4.249zM38.734 526.78l.851-1.3a6.9 6.9 0 001.1.487 3.009 3.009 0 00.888.137 1.311 1.311 0 00.648-.137.415.415 0 00.24-.367.351.351 0 00-.138-.288.975.975 0 00-.438-.155l-1.188-.217a2.546 2.546 0 01-1.362-.624 1.577 1.577 0 01-.462-1.175 1.785 1.785 0 01.69-1.488 3.007 3.007 0 011.9-.54 4.693 4.693 0 011.284.179 5.443 5.443 0 011.236.529l-.888 1.236a4.438 4.438 0 00-.906-.4 3 3 0 00-.87-.132 1.11 1.11 0 00-.546.113.354.354 0 00-.2.318.324.324 0 00.138.288 1.312 1.312 0 00.5.157l1.164.216a2.66 2.66 0 011.392.629 1.5 1.5 0 01.468 1.159 1.823 1.823 0 01-.2.845 1.973 1.973 0 01-.557.673 2.786 2.786 0 01-.852.444 3.385 3.385 0 01-1.056.162 6.223 6.223 0 01-1.572-.192 4 4 0 01-1.264-.557zM47.266 521.225v3.611a1.213 1.213 0 00.281.834.956.956 0 00.75.318 1.286 1.286 0 00.571-.126 1.326 1.326 0 00.462-.389v-4.248h1.944v6.192H49.33v-1.008a2.553 2.553 0 01-.858.821 2.19 2.19 0 01-1.1.283 1.967 1.967 0 01-1.476-.6 2.089 2.089 0 01-.576-1.518v-4.175zM52.786 527.417v-6.192h1.944v.983a2.421 2.421 0 01.8-.8 2 2 0 011.032-.276 1.827 1.827 0 011.056.312 1.925 1.925 0 01.684.84 2.593 2.593 0 01.876-.851 2.25 2.25 0 011.151-.3 1.791 1.791 0 011.4.613 2.251 2.251 0 01.546 1.559v4.117h-1.942v-3.732a1.067 1.067 0 00-.257-.75.862.862 0 00-.666-.283 1.044 1.044 0 00-.487.115 1.243 1.243 0 00-.413.365v4.285h-1.944v-3.732a1.068 1.068 0 00-.258-.75.864.864 0 00-.666-.283 1.047 1.047 0 00-.492.12 1.374 1.374 0 00-.42.36v4.285zM69.333 526.541a4.04 4.04 0 01-1.211.762 3.9 3.9 0 01-1.392.234 3.307 3.307 0 01-1.278-.246 3.27 3.27 0 01-1.038-.679 3.113 3.113 0 01-.7-1.02 3.156 3.156 0 01-.252-1.259 3.311 3.311 0 01.24-1.272 3.182 3.182 0 01.654-1.02 2.957 2.957 0 01.99-.679 3.129 3.129 0 011.235-.245 3.033 3.033 0 011.231.245 2.883 2.883 0 01.96.679 3.145 3.145 0 01.63 1.038 3.727 3.727 0 01.228 1.325v.421h-4.26a1.55 1.55 0 00.528.84 1.42 1.42 0 00.924.323 1.8 1.8 0 00.7-.132 1.288 1.288 0 00.522-.383zm-2.759-3.913a1.091 1.091 0 00-.768.289 1.525 1.525 0 00-.432.8h2.459a1.479 1.479 0 00-.456-.8 1.18 1.18 0 00-.803-.289zM70.845 527.417v-6.192h1.945v1.4a3.012 3.012 0 01.713-1.146 1.389 1.389 0 01.966-.378 2.245 2.245 0 01.336.042 1.688 1.688 0 01.313.115v1.668a2.09 2.09 0 00-.42-.138 2.176 2.176 0 00-.492-.055 1.653 1.653 0 00-.811.21 1.684 1.684 0 00-.6.558v3.913zM81.862 519.017v8.4h-1.848v-6.48l-1.656.684v-1.633l2.34-.971zM15.838 536.408h1.355v.959a2.051 2.051 0 011.787-1.055 1.891 1.891 0 011.764 1.163 2.215 2.215 0 011.99-1.163A1.991 1.991 0 0124.7 538.5v3.922h-1.354v-3.634a1.217 1.217 0 00-1.212-1.38 1.433 1.433 0 00-1.211.708c.012.132.024.252.024.384v3.922h-1.355v-3.634a1.216 1.216 0 00-1.212-1.38 1.4 1.4 0 00-1.187.684v4.33h-1.355zM27.885 542.453l-2.266-6.045h1.51l1.524 4.461 1.679-4.461h1.475l-2.854 6.992a2.032 2.032 0 01-2.135 1.583 2.874 2.874 0 01-.684-.084v-1.163a4.934 4.934 0 00.528.048.958.958 0 00.971-.7zM34.257 541.649a.84.84 0 11-.84-.876.866.866 0 01.84.876zM35.434 540.689c0-1.079.875-1.763 2.29-1.763a3.705 3.705 0 011.619.372v-.659c0-.792-.455-1.2-1.379-1.2a4.156 4.156 0 00-1.751.468l-.479-.984a5.773 5.773 0 012.494-.611c1.56 0 2.459.792 2.459 2.183v3.922h-1.344v-.617a2.509 2.509 0 01-1.787.707 1.894 1.894 0 01-2.122-1.818zm2.494.876a2.14 2.14 0 001.415-.492v-.983a3.1 3.1 0 00-1.39-.288c-.768 0-1.248.336-1.248.864 0 .551.48.899 1.223.899zM42.333 536.408h1.355v.983a2.182 2.182 0 011.907-1.079 2.021 2.021 0 012.075 2.146v3.959h-1.355v-3.575A1.294 1.294 0 0045 537.4a1.541 1.541 0 00-1.308.72v4.294h-1.359zM50.853 542.453l-2.267-6.045H50.1l1.524 4.461 1.678-4.461h1.476L51.92 543.4a2.031 2.031 0 01-2.134 1.583 2.868 2.868 0 01-.684-.084v-1.163a4.9 4.9 0 00.527.048.958.958 0 00.972-.7zM60.054 540.677l.817.816a3.129 3.129 0 01-2.352 1.044 3.107 3.107 0 010-6.213 3.236 3.236 0 012.4 1.008l-.839.875a1.986 1.986 0 00-1.511-.708 1.928 1.928 0 00.035 3.838 1.844 1.844 0 001.45-.66zM61.738 540.689c0-1.079.875-1.763 2.29-1.763a3.708 3.708 0 011.619.372v-.659c0-.792-.455-1.2-1.379-1.2a4.152 4.152 0 00-1.751.468l-.479-.984a5.773 5.773 0 012.494-.611c1.559 0 2.459.792 2.459 2.183v3.922h-1.344v-.617a2.511 2.511 0 01-1.787.707 1.894 1.894 0 01-2.122-1.818zm2.494.876a2.14 2.14 0 001.415-.492v-.983a3.107 3.107 0 00-1.391-.288c-.767 0-1.248.336-1.248.864 0 .551.481.899 1.224.899zM68.733 540.81a3.465 3.465 0 001.931.683c.719 0 1.211-.324 1.211-.8 0-.371-.251-.575-.828-.683l-1.067-.18c-1.163-.216-1.739-.756-1.739-1.655 0-1.128.924-1.859 2.327-1.859a4.229 4.229 0 012.362.719l-.636.888a3.28 3.28 0 00-1.81-.576c-.624 0-1.031.264-1.031.708 0 .384.215.552.851.659l1.056.192c1.2.228 1.774.78 1.774 1.68a2.2 2.2 0 01-2.446 1.955 4.031 4.031 0 01-2.591-.816zM75.128 537.487h-1.211v-1.079h1.211v-1.655l1.356-.288v1.943h1.679v1.079h-1.679v3.047c0 .587.227.815.84.815a2.49 2.49 0 00.815-.144v1.14a4.259 4.259 0 01-1.164.167c-1.211 0-1.847-.575-1.847-1.679zM80.816 541.649a.84.84 0 11-.84-.876.866.866 0 01.84.876zM86.586 541.613a2.308 2.308 0 01-1.846.864 3.074 3.074 0 01.084-6.117 2.292 2.292 0 011.751.791v-3.31l1.355-.228v8.8h-1.344zm-1.438-.276a1.8 1.8 0 001.427-.66v-2.53a1.864 1.864 0 00-1.427-.648 1.924 1.924 0 000 3.838zM92.4 542.537a3.056 3.056 0 01-3.059-3.119 2.96 2.96 0 012.927-3.106 2.884 2.884 0 012.842 3.094v.336h-4.443a1.837 1.837 0 001.8 1.643 1.951 1.951 0 001.427-.564l.888.828a3.474 3.474 0 01-2.382.888zm-1.7-3.622h3.13a1.645 1.645 0 00-1.571-1.5 1.615 1.615 0 00-1.567 1.5zM96.584 540.81a3.47 3.47 0 001.931.683c.72 0 1.212-.324 1.212-.8 0-.371-.252-.575-.828-.683l-1.067-.18c-1.164-.216-1.74-.756-1.74-1.655 0-1.128.924-1.859 2.327-1.859a4.234 4.234 0 012.363.719l-.636.888a3.28 3.28 0 00-1.811-.576c-.624 0-1.031.264-1.031.708 0 .384.216.552.852.659l1.055.192c1.2.228 1.775.78 1.775 1.68a2.2 2.2 0 01-2.446 1.955 4.029 4.029 0 01-2.591-.816zM102.98 537.487h-1.211v-1.079h1.211v-1.655l1.355-.288v1.943h1.679v1.079h-1.679v3.047c0 .587.228.815.84.815a2.5 2.5 0 00.816-.144v1.14a4.264 4.264 0 01-1.164.167c-1.211 0-1.847-.575-1.847-1.679zM107.037 534.357a.845.845 0 011.69 0 .845.845 0 01-1.69 0zm1.522 8.06h-1.354v-6.009h1.354zM110.228 536.408h1.355v.983a2.181 2.181 0 011.907-1.079 2.022 2.022 0 012.075 2.146v3.959h-1.356v-3.575a1.294 1.294 0 00-1.319-1.439 1.54 1.54 0 00-1.307.72v4.294h-1.355zM116.913 540.689c0-1.079.875-1.763 2.29-1.763a3.708 3.708 0 011.619.372v-.659c0-.792-.455-1.2-1.379-1.2a4.152 4.152 0 00-1.751.468l-.48-.984a5.78 5.78 0 012.495-.611c1.559 0 2.459.792 2.459 2.183v3.922h-1.344v-.617a2.511 2.511 0 01-1.787.707 1.894 1.894 0 01-2.122-1.818zm2.494.876a2.14 2.14 0 001.415-.492v-.983a3.11 3.11 0 00-1.391-.288c-.767 0-1.248.336-1.248.864 0 .551.481.899 1.224.899zM124.555 537.487h-1.211v-1.079h1.211v-1.655l1.356-.288v1.943h1.678v1.079h-1.678v3.047c0 .587.227.815.839.815a2.491 2.491 0 00.816-.144v1.14a4.264 4.264 0 01-1.164.167c-1.211 0-1.847-.575-1.847-1.679zM128.612 534.357a.845.845 0 011.69 0 .845.845 0 01-1.69 0zm1.522 8.06h-1.354v-6.009h1.354zM134.55 536.312a3.114 3.114 0 11-3.022 3.106 3 3 0 013.022-3.106zm1.679 3.118a1.7 1.7 0 10-3.357 0 1.7 1.7 0 103.357 0zM138.98 536.408h1.354v.983a2.184 2.184 0 011.908-1.079 2.022 2.022 0 012.075 2.146v3.959h-1.356v-3.575a1.294 1.294 0 00-1.319-1.439 1.542 1.542 0 00-1.308.72v4.294h-1.354z"/></g><path class="f4622b94-b95c-461c-8a62-04c0ea5d987c" d="M225.499 503.175h215.5v55h-215.5z"/><g><path class="eccc97ca-106e-43f6-808f-8ce629552d1c" d="M245.539 525.688a2.123 2.123 0 001.044-.264 2.813 2.813 0 00.875-.779l1.357 1.284a4.028 4.028 0 01-1.465 1.163 4.238 4.238 0 01-1.884.445 4.575 4.575 0 01-1.752-.336 4.373 4.373 0 01-1.4-.912 4.278 4.278 0 01-1.271-3.073 4.315 4.315 0 01.341-1.71 4.212 4.212 0 01.937-1.374 4.415 4.415 0 011.4-.911 4.512 4.512 0 011.746-.337 4.413 4.413 0 011.933.445 3.915 3.915 0 011.476 1.188l-1.392 1.319a2.916 2.916 0 00-.918-.834 2.236 2.236 0 00-1.1-.281 2.167 2.167 0 00-.912.192 2.242 2.242 0 00-.725.522 2.379 2.379 0 00-.481.792 2.806 2.806 0 00-.174.989 2.662 2.662 0 00.181.985 2.352 2.352 0 00.5.785 2.279 2.279 0 00.75.516 2.346 2.346 0 00.934.186zM249.619 524.333a3.258 3.258 0 01.245-1.272 3.075 3.075 0 01.678-1.015 3.2 3.2 0 011.026-.671 3.289 3.289 0 011.278-.247 3.333 3.333 0 011.284.247 3.174 3.174 0 011.033.671 3.088 3.088 0 01.677 1.015 3.259 3.259 0 01.246 1.272 3.19 3.19 0 01-.252 1.271 3.137 3.137 0 01-.684 1.015 3.211 3.211 0 01-1.025.672 3.445 3.445 0 01-2.557 0 3.093 3.093 0 01-1.7-1.7 3.222 3.222 0 01-.249-1.258zm3.227 1.56a1.219 1.219 0 00.966-.438 1.656 1.656 0 00.378-1.122 1.7 1.7 0 00-.378-1.134 1.2 1.2 0 00-.966-.45 1.187 1.187 0 00-.96.45 1.719 1.719 0 00-.372 1.134 1.673 1.673 0 00.372 1.122 1.2 1.2 0 00.96.438zM257.322 527.417v-6.192h1.944v1.007a2.544 2.544 0 01.858-.821 2.19 2.19 0 011.1-.283 1.967 1.967 0 011.476.595 2.09 2.09 0 01.576 1.518v4.176h-1.946V523.8a1.209 1.209 0 00-.282-.834.954.954 0 00-.75-.319 1.278 1.278 0 00-.57.126 1.329 1.329 0 00-.462.39v4.249zM264.234 526.78l.851-1.3a6.9 6.9 0 001.105.487 3.009 3.009 0 00.888.137 1.311 1.311 0 00.648-.137.415.415 0 00.24-.367.351.351 0 00-.138-.288.975.975 0 00-.438-.155l-1.188-.217a2.546 2.546 0 01-1.362-.624 1.577 1.577 0 01-.462-1.175 1.785 1.785 0 01.69-1.488 3.007 3.007 0 011.9-.54 4.693 4.693 0 011.284.179 5.443 5.443 0 011.236.529l-.888 1.236a4.438 4.438 0 00-.906-.4 3 3 0 00-.87-.132 1.11 1.11 0 00-.546.113.354.354 0 00-.2.318.324.324 0 00.138.288 1.312 1.312 0 00.5.157l1.164.216a2.66 2.66 0 011.392.629 1.5 1.5 0 01.468 1.159 1.823 1.823 0 01-.2.845 1.973 1.973 0 01-.557.673 2.786 2.786 0 01-.852.444 3.385 3.385 0 01-1.056.162 6.223 6.223 0 01-1.572-.192 4 4 0 01-1.269-.557zM272.766 521.225v3.611a1.213 1.213 0 00.281.834.956.956 0 00.75.318 1.286 1.286 0 00.571-.126 1.326 1.326 0 00.462-.389v-4.248h1.944v6.192h-1.944v-1.008a2.553 2.553 0 01-.858.821 2.19 2.19 0 01-1.1.283 1.967 1.967 0 01-1.476-.6 2.089 2.089 0 01-.576-1.518v-4.175zM278.286 527.417v-6.192h1.944v.983a2.421 2.421 0 01.8-.8 2 2 0 011.032-.276 1.827 1.827 0 011.056.312 1.925 1.925 0 01.684.84 2.593 2.593 0 01.876-.851 2.25 2.25 0 011.151-.3 1.791 1.791 0 011.4.613 2.251 2.251 0 01.546 1.559v4.117h-1.945v-3.732a1.067 1.067 0 00-.257-.75.862.862 0 00-.666-.283 1.044 1.044 0 00-.487.115 1.243 1.243 0 00-.413.365v4.285h-1.944v-3.732a1.068 1.068 0 00-.258-.75.864.864 0 00-.666-.283 1.047 1.047 0 00-.492.12 1.374 1.374 0 00-.42.36v4.285zM294.833 526.541a4.04 4.04 0 01-1.211.762 3.9 3.9 0 01-1.392.234 3.307 3.307 0 01-1.278-.246 3.27 3.27 0 01-1.038-.679 3.113 3.113 0 01-.7-1.02 3.156 3.156 0 01-.252-1.259 3.311 3.311 0 01.24-1.272 3.182 3.182 0 01.654-1.02 2.957 2.957 0 01.99-.679 3.129 3.129 0 011.235-.245 3.033 3.033 0 011.231.245 2.883 2.883 0 01.96.679 3.145 3.145 0 01.63 1.038 3.727 3.727 0 01.228 1.325v.421h-4.26a1.55 1.55 0 00.528.84 1.42 1.42 0 00.924.323 1.8 1.8 0 00.7-.132 1.288 1.288 0 00.522-.383zm-2.759-3.913a1.091 1.091 0 00-.768.289 1.525 1.525 0 00-.432.8h2.459a1.479 1.479 0 00-.456-.8 1.18 1.18 0 00-.803-.289zM296.345 527.417v-6.192h1.945v1.4a3.012 3.012 0 01.713-1.146 1.389 1.389 0 01.966-.378 2.245 2.245 0 01.336.042 1.688 1.688 0 01.313.115v1.668a2.09 2.09 0 00-.42-.138 2.176 2.176 0 00-.492-.055 1.653 1.653 0 00-.811.21 1.684 1.684 0 00-.6.558v3.913zM304.086 527.417V526.1l3.552-3.516a2.237 2.237 0 00.426-.559 1.209 1.209 0 00.138-.558.819.819 0 00-.354-.677 1.406 1.406 0 00-.882-.27 2.389 2.389 0 00-1.056.239 4.446 4.446 0 00-1.068.792l-1.032-1.259a5.224 5.224 0 011.536-1.033 4.241 4.241 0 011.68-.347 3.288 3.288 0 012.154.672 2.168 2.168 0 01.822 1.764 2.4 2.4 0 01-.264 1.1 4.283 4.283 0 01-.828 1.068l-2.424 2.339 3.637-.011v1.572zM241.338 536.408h1.355v.959a2.051 2.051 0 011.787-1.055 1.891 1.891 0 011.764 1.163 2.215 2.215 0 011.99-1.163 1.991 1.991 0 011.966 2.188v3.922h-1.356v-3.634a1.217 1.217 0 00-1.212-1.38 1.433 1.433 0 00-1.211.708c.012.132.024.252.024.384v3.922h-1.355v-3.634a1.216 1.216 0 00-1.212-1.38 1.4 1.4 0 00-1.187.684v4.33h-1.355zM253.385 542.453l-2.266-6.045h1.51l1.524 4.461 1.679-4.461h1.475l-2.854 6.992a2.032 2.032 0 01-2.135 1.583 2.874 2.874 0 01-.684-.084v-1.163a4.934 4.934 0 00.528.048.958.958 0 00.971-.7zM259.757 541.649a.84.84 0 11-.84-.876.866.866 0 01.84.876zM260.934 540.689c0-1.079.875-1.763 2.29-1.763a3.705 3.705 0 011.619.372v-.659c0-.792-.455-1.2-1.379-1.2a4.156 4.156 0 00-1.751.468l-.479-.984a5.773 5.773 0 012.494-.611c1.56 0 2.459.792 2.459 2.183v3.922h-1.344v-.617a2.509 2.509 0 01-1.787.707 1.894 1.894 0 01-2.122-1.818zm2.494.876a2.14 2.14 0 001.415-.492v-.983a3.1 3.1 0 00-1.39-.288c-.768 0-1.248.336-1.248.864 0 .551.48.899 1.223.899zM267.833 536.408h1.355v.983a2.182 2.182 0 011.907-1.079 2.021 2.021 0 012.075 2.146v3.959h-1.355v-3.575a1.294 1.294 0 00-1.315-1.442 1.541 1.541 0 00-1.308.72v4.294h-1.355zM276.353 542.453l-2.267-6.045h1.514l1.524 4.461 1.678-4.461h1.476l-2.858 6.992a2.031 2.031 0 01-2.134 1.583 2.868 2.868 0 01-.684-.084v-1.163a4.9 4.9 0 00.527.048.958.958 0 00.972-.7zM285.554 540.677l.817.816a3.129 3.129 0 01-2.352 1.044 3.107 3.107 0 010-6.213 3.236 3.236 0 012.4 1.008l-.839.875a1.986 1.986 0 00-1.511-.708 1.928 1.928 0 00.035 3.838 1.844 1.844 0 001.45-.66zM287.238 540.689c0-1.079.875-1.763 2.29-1.763a3.708 3.708 0 011.619.372v-.659c0-.792-.455-1.2-1.379-1.2a4.152 4.152 0 00-1.751.468l-.479-.984a5.773 5.773 0 012.494-.611c1.559 0 2.459.792 2.459 2.183v3.922h-1.344v-.617a2.511 2.511 0 01-1.787.707 1.894 1.894 0 01-2.122-1.818zm2.494.876a2.14 2.14 0 001.415-.492v-.983a3.107 3.107 0 00-1.391-.288c-.767 0-1.248.336-1.248.864 0 .551.481.899 1.224.899zM294.233 540.81a3.465 3.465 0 001.931.683c.719 0 1.211-.324 1.211-.8 0-.371-.251-.575-.828-.683l-1.067-.18c-1.163-.216-1.739-.756-1.739-1.655 0-1.128.924-1.859 2.327-1.859a4.229 4.229 0 012.362.719l-.636.888a3.28 3.28 0 00-1.81-.576c-.624 0-1.031.264-1.031.708 0 .384.215.552.851.659l1.056.192c1.2.228 1.774.78 1.774 1.68a2.2 2.2 0 01-2.446 1.955 4.031 4.031 0 01-2.591-.816zM300.628 537.487h-1.211v-1.079h1.211v-1.655l1.356-.288v1.943h1.679v1.079h-1.679v3.047c0 .587.227.815.84.815a2.49 2.49 0 00.815-.144v1.14a4.259 4.259 0 01-1.164.167c-1.211 0-1.847-.575-1.847-1.679zM306.316 541.649a.84.84 0 11-.84-.876.866.866 0 01.84.876zM312.086 541.613a2.308 2.308 0 01-1.846.864 3.074 3.074 0 01.084-6.117 2.292 2.292 0 011.751.791v-3.31l1.355-.228v8.8h-1.344zm-1.438-.276a1.8 1.8 0 001.427-.66v-2.53a1.864 1.864 0 00-1.427-.648 1.924 1.924 0 000 3.838zM317.9 542.537a3.056 3.056 0 01-3.059-3.119 2.96 2.96 0 012.927-3.106 2.884 2.884 0 012.842 3.094v.336h-4.438a1.837 1.837 0 001.8 1.643 1.951 1.951 0 001.427-.564l.888.828a3.474 3.474 0 01-2.387.888zm-1.7-3.622h3.13a1.645 1.645 0 00-1.571-1.5 1.615 1.615 0 00-1.567 1.5zM322.084 540.81a3.47 3.47 0 001.931.683c.72 0 1.212-.324 1.212-.8 0-.371-.252-.575-.828-.683l-1.067-.18c-1.164-.216-1.74-.756-1.74-1.655 0-1.128.924-1.859 2.327-1.859a4.234 4.234 0 012.363.719l-.636.888a3.28 3.28 0 00-1.811-.576c-.624 0-1.031.264-1.031.708 0 .384.216.552.852.659l1.055.192c1.2.228 1.775.78 1.775 1.68a2.2 2.2 0 01-2.446 1.955 4.029 4.029 0 01-2.591-.816zM328.48 537.487h-1.211v-1.079h1.211v-1.655l1.355-.288v1.943h1.679v1.079h-1.679v3.047c0 .587.228.815.84.815a2.5 2.5 0 00.816-.144v1.14a4.264 4.264 0 01-1.164.167c-1.211 0-1.847-.575-1.847-1.679zM332.537 534.357a.845.845 0 011.69 0 .845.845 0 01-1.69 0zm1.522 8.06h-1.354v-6.009h1.354zM335.728 536.408h1.355v.983a2.181 2.181 0 011.907-1.079 2.022 2.022 0 012.075 2.146v3.959h-1.356v-3.575a1.294 1.294 0 00-1.319-1.439 1.54 1.54 0 00-1.307.72v4.294h-1.355zM342.413 540.689c0-1.079.875-1.763 2.29-1.763a3.708 3.708 0 011.619.372v-.659c0-.792-.455-1.2-1.379-1.2a4.152 4.152 0 00-1.751.468l-.48-.984a5.78 5.78 0 012.5-.611c1.559 0 2.459.792 2.459 2.183v3.922h-1.344v-.617a2.511 2.511 0 01-1.787.707 1.894 1.894 0 01-2.127-1.818zm2.494.876a2.14 2.14 0 001.415-.492v-.983a3.11 3.11 0 00-1.391-.288c-.767 0-1.248.336-1.248.864 0 .551.481.899 1.224.899zM350.055 537.487h-1.211v-1.079h1.211v-1.655l1.356-.288v1.943h1.678v1.079h-1.678v3.047c0 .587.227.815.839.815a2.491 2.491 0 00.816-.144v1.14a4.264 4.264 0 01-1.164.167c-1.211 0-1.847-.575-1.847-1.679zM354.112 534.357a.845.845 0 011.69 0 .845.845 0 01-1.69 0zm1.522 8.06h-1.354v-6.009h1.354zM360.05 536.312a3.114 3.114 0 11-3.022 3.106 3 3 0 013.022-3.106zm1.679 3.118a1.7 1.7 0 10-3.357 0 1.7 1.7 0 103.357 0zM364.48 536.408h1.354v.983a2.184 2.184 0 011.908-1.079 2.022 2.022 0 012.075 2.146v3.959h-1.356v-3.575a1.294 1.294 0 00-1.319-1.439 1.542 1.542 0 00-1.308.72v4.294h-1.354z"/></g><g><path class="a375708d-7898-421c-86a7-210c81b59a3f" d="M220.499 74.794v78.966"/><path class="eccc97ca-106e-43f6-808f-8ce629552d1c" d="M215.512 152.301l4.987 8.635 4.986-8.635h-9.973z"/><path class="b1ae88c4-303c-4b77-95d1-340c68e6c625" d="M184.912 111.117h71.174v30.699h-71.174z"/><g><text class="b94ad13d-1ddb-4b6f-8b49-a9970bf2aff7" transform="translate(193.756 135.049)">Message 1-N</text><path class="ba30350d-b785-4db8-a46d-2a83ab17555d" d="M232.249 119.996h-23.5V93.789l5.875-5.824h17.625v32.031z"/><path class="f46d3749-431c-4712-b2f9-b1aa6f5e9793" d="M214.624 93.789h-5.875l5.875-5.824v5.824zM213.155 98.157h7.344M213.155 102.525h14.688M213.155 106.893h14.688M213.155 111.26h14.688"/></g></g><g><path class="a375708d-7898-421c-86a7-210c81b59a3f" d="M153.029 414.533v78.966"/><path class="eccc97ca-106e-43f6-808f-8ce629552d1c" d="M148.042 492.04l4.987 8.635 4.986-8.635h-9.973z"/><path class="b1ae88c4-303c-4b77-95d1-340c68e6c625" d="M117.442 450.857h71.174v30.699h-71.174z"/><g><text class="b94ad13d-1ddb-4b6f-8b49-a9970bf2aff7" transform="translate(131.789 474.789)">Message 1</text><path class="ba30350d-b785-4db8-a46d-2a83ab17555d" d="M164.779 459.736h-23.5v-26.208l5.875-5.824h17.625v32.032z"/><path class="f46d3749-431c-4712-b2f9-b1aa6f5e9793" d="M147.154 433.528h-5.875l5.875-5.824v5.824zM145.686 437.896h7.343M145.686 442.264h14.687M145.686 446.632h14.687M145.686 451h14.687"/></g></g><g><path class="a375708d-7898-421c-86a7-210c81b59a3f" d="M287.969 414.533v78.966"/><path class="eccc97ca-106e-43f6-808f-8ce629552d1c" d="M282.982 492.04l4.987 8.635 4.986-8.635h-9.973z"/><path class="b1ae88c4-303c-4b77-95d1-340c68e6c625" d="M252.382 450.857h71.174v30.699h-71.174z"/><g><text class="b94ad13d-1ddb-4b6f-8b49-a9970bf2aff7" transform="translate(265.703 474.789)">Message 2</text><path class="ba30350d-b785-4db8-a46d-2a83ab17555d" d="M299.719 459.736h-23.5v-26.208l5.875-5.824h17.625v32.032z"/><path class="f46d3749-431c-4712-b2f9-b1aa6f5e9793" d="M282.094 433.528h-5.875l5.875-5.824v5.824zM280.625 437.896h7.344M280.625 442.264h14.688M280.625 446.632h14.688M280.625 451h14.688"/></g></g><g><path class="a375708d-7898-421c-86a7-210c81b59a3f" d="M220.499 265.982v13.963"/><path class="eccc97ca-106e-43f6-808f-8ce629552d1c" d="M215.512 278.486l4.987 8.635 4.986-8.635h-9.973z"/></g><g><text transform="translate(694.192 558.193)" fill="#f3f3f3" font-family="RedHatText,&quot;Red Hat Text&quot;,Overpass,&quot;Helvetica Neue&quot;,Arial,sans-serif" font-size="10">120_AMQ_1120</text><path fill="none" d="M0 535.175h760v40H0z"/></g><path class="b1ae88c4-303c-4b77-95d1-340c68e6c625" d="M112.749 289.621h215.5v125h-215.5z"/><g><path class="eccc97ca-106e-43f6-808f-8ce629552d1c" d="M136.964 309.625a4.327 4.327 0 01-1.188 3l.732.875-1.476 1.009-.732-.876a4.118 4.118 0 01-.8.24 4.486 4.486 0 01-.87.084 4.361 4.361 0 01-1.71-.336 4.2 4.2 0 01-2.3-2.3 4.458 4.458 0 010-3.4 4.2 4.2 0 012.3-2.3 4.362 4.362 0 011.71-.337 4.332 4.332 0 013.078 1.255 4.273 4.273 0 01.918 1.38 4.331 4.331 0 01.338 1.706zm-3.192.588l.684.828a2.573 2.573 0 00.276-.654 3.031 3.031 0 00-.072-1.752 2.417 2.417 0 00-.462-.792 2.163 2.163 0 00-.7-.522 2.094 2.094 0 00-1.752 0 2.163 2.163 0 00-.7.522 2.417 2.417 0 00-.462.792 3 3 0 000 1.98 2.417 2.417 0 00.462.792 2.163 2.163 0 00.7.522 2.032 2.032 0 00.876.192 1.7 1.7 0 00.2-.012l.2-.025-.72-.863zM140.156 307.633v3.612a1.21 1.21 0 00.282.834.952.952 0 00.75.317 1.294 1.294 0 00.57-.125 1.318 1.318 0 00.462-.39v-4.248h1.944v6.192h-1.944v-1.008a2.556 2.556 0 01-.858.822 2.19 2.19 0 01-1.1.282 1.966 1.966 0 01-1.476-.594 2.09 2.09 0 01-.576-1.518v-4.176zM151.268 312.949a4.036 4.036 0 01-1.212.762 3.881 3.881 0 01-1.392.234 3.307 3.307 0 01-1.278-.246 3.262 3.262 0 01-1.038-.678 3.117 3.117 0 01-.7-1.021 3.156 3.156 0 01-.252-1.259 3.315 3.315 0 01.24-1.272 3.21 3.21 0 01.654-1.02 2.969 2.969 0 01.99-.678 3.114 3.114 0 011.236-.246 3.016 3.016 0 011.23.246 2.9 2.9 0 01.96.678 3.112 3.112 0 01.63 1.038 3.735 3.735 0 01.228 1.325v.421h-4.26a1.552 1.552 0 00.528.84 1.415 1.415 0 00.924.323 1.814 1.814 0 00.7-.131 1.3 1.3 0 00.522-.384zm-2.76-3.912a1.09 1.09 0 00-.768.288 1.533 1.533 0 00-.432.8h2.46a1.478 1.478 0 00-.456-.8 1.18 1.18 0 00-.804-.288zM154.676 307.633v3.612a1.215 1.215 0 00.281.834.955.955 0 00.75.317 1.294 1.294 0 00.57-.125 1.31 1.31 0 00.462-.39v-4.248h1.945v6.192h-1.945v-1.008a2.544 2.544 0 01-.857.822 2.191 2.191 0 01-1.1.282 1.964 1.964 0 01-1.475-.594 2.091 2.091 0 01-.577-1.518v-4.176zM165.787 312.949a4.024 4.024 0 01-1.212.762 3.875 3.875 0 01-1.391.234 3.315 3.315 0 01-1.279-.246 3.273 3.273 0 01-1.038-.678 3.114 3.114 0 01-.695-1.021 3.156 3.156 0 01-.252-1.259 3.333 3.333 0 01.239-1.272 3.21 3.21 0 01.654-1.02 2.983 2.983 0 01.991-.678 3.112 3.112 0 011.235-.246 3.024 3.024 0 011.231.246 2.881 2.881 0 01.959.678 3.112 3.112 0 01.63 1.038 3.713 3.713 0 01.229 1.325v.421h-4.261a1.558 1.558 0 00.528.84 1.417 1.417 0 00.924.323 1.81 1.81 0 00.7-.131 1.309 1.309 0 00.523-.384zm-2.76-3.912a1.089 1.089 0 00-.767.288 1.534 1.534 0 00-.433.8h2.46a1.472 1.472 0 00-.456-.8 1.178 1.178 0 00-.804-.288zM128.588 322.816h1.354v.959a2.053 2.053 0 011.787-1.055 1.89 1.89 0 011.764 1.163 2.216 2.216 0 011.99-1.163 1.992 1.992 0 011.968 2.183v3.922H136.1v-3.634a1.216 1.216 0 00-1.212-1.379 1.431 1.431 0 00-1.211.707c.012.132.023.252.023.384v3.922h-1.354v-3.634a1.216 1.216 0 00-1.212-1.379 1.4 1.4 0 00-1.188.683v4.33h-1.354zM140.635 328.861l-2.267-6.045h1.511l1.523 4.461 1.679-4.461h1.476l-2.855 6.992a2.031 2.031 0 01-2.135 1.583 2.86 2.86 0 01-.683-.084v-1.163a4.9 4.9 0 00.527.048.959.959 0 00.972-.695zM147.007 328.057a.84.84 0 11-.84-.875.858.858 0 01.84.875zM148.184 327.1c0-1.08.875-1.764 2.29-1.764a3.709 3.709 0 011.619.373v-.66c0-.792-.455-1.2-1.379-1.2a4.149 4.149 0 00-1.751.467l-.48-.983a5.768 5.768 0 012.5-.612c1.559 0 2.459.792 2.459 2.183v3.922h-1.344v-.612a2.507 2.507 0 01-1.787.707 1.893 1.893 0 01-2.127-1.821zm2.494.875a2.14 2.14 0 001.415-.492v-.983a3.11 3.11 0 00-1.391-.288c-.767 0-1.248.336-1.248.864 0 .549.481.897 1.224.897zM155.083 322.816h1.355v.983a2.181 2.181 0 011.907-1.079 2.022 2.022 0 012.075 2.147v3.958h-1.356v-3.575a1.293 1.293 0 00-1.319-1.438 1.539 1.539 0 00-1.307.719v4.294h-1.355zM163.6 328.861l-2.267-6.045h1.511l1.523 4.461 1.679-4.461h1.475l-2.854 6.992a2.032 2.032 0 01-2.135 1.583 2.86 2.86 0 01-.683-.084v-1.163a4.9 4.9 0 00.527.048.96.96 0 00.972-.695zM172.8 327.085l.816.816a3.126 3.126 0 01-2.351 1.044 3.107 3.107 0 010-6.213 3.239 3.239 0 012.4 1.008l-.84.875a1.985 1.985 0 00-1.511-.708 1.928 1.928 0 00.036 3.838 1.842 1.842 0 001.45-.66zM174.487 327.1c0-1.08.875-1.764 2.29-1.764a3.706 3.706 0 011.619.373v-.66c0-.792-.455-1.2-1.378-1.2a4.149 4.149 0 00-1.751.467l-.48-.983a5.767 5.767 0 012.494-.612c1.56 0 2.459.792 2.459 2.183v3.922h-1.34v-.612a2.5 2.5 0 01-1.787.707 1.894 1.894 0 01-2.126-1.821zm2.494.875a2.14 2.14 0 001.415-.492v-.983a3.1 3.1 0 00-1.39-.288c-.768 0-1.248.336-1.248.864 0 .549.48.897 1.223.897zM181.482 327.218a3.47 3.47 0 001.931.683c.72 0 1.212-.323 1.212-.8 0-.372-.252-.576-.828-.684l-1.068-.18c-1.163-.216-1.739-.755-1.739-1.655 0-1.127.924-1.859 2.327-1.859a4.234 4.234 0 012.363.719l-.636.888a3.28 3.28 0 00-1.811-.576c-.624 0-1.031.264-1.031.708 0 .384.216.552.852.66l1.055.192c1.2.228 1.775.779 1.775 1.679a2.2 2.2 0 01-2.446 1.955 4.029 4.029 0 01-2.591-.816zM187.878 323.9h-1.211v-1.08h1.211v-1.655l1.355-.288v1.943h1.679v1.08h-1.679v3.046c0 .587.228.815.84.815a2.5 2.5 0 00.816-.144v1.14a4.264 4.264 0 01-1.164.167c-1.211 0-1.847-.575-1.847-1.678zM193.565 328.057a.84.84 0 11-.839-.875.858.858 0 01.839.875zM199.336 328.021a2.31 2.31 0 01-1.847.864 3.075 3.075 0 01.084-6.117 2.29 2.29 0 011.751.792v-3.31l1.356-.229v8.8h-1.344zm-1.439-.276a1.793 1.793 0 001.427-.66v-2.53a1.861 1.861 0 00-1.427-.648 1.924 1.924 0 000 3.838zM205.145 328.945a3.055 3.055 0 01-3.059-3.119 2.96 2.96 0 012.927-3.106 2.883 2.883 0 012.841 3.094v.336h-4.437a1.836 1.836 0 001.8 1.643 1.952 1.952 0 001.427-.564l.887.828a3.472 3.472 0 01-2.386.888zm-1.7-3.622h3.13a1.644 1.644 0 00-1.57-1.5 1.616 1.616 0 00-1.564 1.5zM209.334 327.218a3.465 3.465 0 001.931.683c.719 0 1.212-.323 1.212-.8 0-.372-.252-.576-.829-.684l-1.067-.18c-1.163-.216-1.739-.755-1.739-1.655 0-1.127.924-1.859 2.327-1.859a4.229 4.229 0 012.362.719l-.635.888a3.285 3.285 0 00-1.811-.576c-.624 0-1.031.264-1.031.708 0 .384.216.552.851.66l1.056.192c1.2.228 1.774.779 1.774 1.679a2.2 2.2 0 01-2.446 1.955 4.031 4.031 0 01-2.591-.816zM215.729 323.9h-1.21v-1.08h1.21v-1.655l1.356-.288v1.943h1.679v1.08h-1.679v3.046c0 .587.227.815.84.815a2.49 2.49 0 00.815-.144v1.14a4.253 4.253 0 01-1.164.167c-1.211 0-1.847-.575-1.847-1.678zM219.786 320.765a.846.846 0 011.691 0 .846.846 0 01-1.691 0zm1.523 8.06h-1.355v-6.009h1.355zM222.978 322.816h1.354v.983a2.182 2.182 0 011.907-1.079 2.022 2.022 0 012.075 2.147v3.958h-1.355v-3.575a1.293 1.293 0 00-1.319-1.438 1.54 1.54 0 00-1.308.719v4.294h-1.354zM229.662 327.1c0-1.08.875-1.764 2.29-1.764a3.706 3.706 0 011.619.373v-.66c0-.792-.455-1.2-1.379-1.2a4.152 4.152 0 00-1.751.467l-.479-.983a5.76 5.76 0 012.494-.612c1.56 0 2.459.792 2.459 2.183v3.922h-1.344v-.612a2.5 2.5 0 01-1.787.707 1.893 1.893 0 01-2.122-1.821zm2.494.875a2.14 2.14 0 001.415-.492v-.983a3.1 3.1 0 00-1.39-.288c-.768 0-1.248.336-1.248.864 0 .549.48.897 1.223.897zM237.305 323.9h-1.211v-1.08h1.211v-1.655l1.355-.288v1.943h1.679v1.08h-1.679v3.046c0 .587.228.815.84.815a2.49 2.49 0 00.815-.144v1.14a4.253 4.253 0 01-1.164.167c-1.211 0-1.846-.575-1.846-1.678zM241.361 320.765a.846.846 0 011.691 0 .846.846 0 01-1.691 0zm1.523 8.06h-1.355v-6.009h1.355zM247.3 322.72a3.114 3.114 0 11-3.023 3.106 3 3 0 013.023-3.106zm1.679 3.118a1.7 1.7 0 10-3.358 0 1.7 1.7 0 103.358 0zM251.729 322.816h1.355v.983a2.182 2.182 0 011.907-1.079 2.022 2.022 0 012.075 2.147v3.958h-1.355v-3.575a1.293 1.293 0 00-1.319-1.438 1.54 1.54 0 00-1.308.719v4.294h-1.355z"/></g><g><path class="eea3dce6-32a9-4c96-8c1e-ebe64519b763" d="M164.779 377.022v1.5h-1.5"/><path class="a3e4463f-5d9a-42a0-8104-dafd34c04c39" d="M160.35 378.522h-16.107"/><path class="eea3dce6-32a9-4c96-8c1e-ebe64519b763" d="M142.779 378.522h-1.5v-1.5"/><path class="f36c2ac5-9d0f-4171-bc5a-40832604235a" d="M141.279 373.796v-24.192"/><path class="eea3dce6-32a9-4c96-8c1e-ebe64519b763" d="M141.279 347.991v-1.5h1.5"/><path class="a3e4463f-5d9a-42a0-8104-dafd34c04c39" d="M145.707 346.491h16.107"/><path class="eea3dce6-32a9-4c96-8c1e-ebe64519b763" d="M163.279 346.491h1.5v1.5"/><path class="f36c2ac5-9d0f-4171-bc5a-40832604235a" d="M164.779 351.217v24.192"/><text class="bdced67e-e906-400d-9029-bf5b1572bf75" transform="translate(149.222 365.277)">N</text></g><g><path class="eea3dce6-32a9-4c96-8c1e-ebe64519b763" d="M299.719 377.022v1.5h-1.5"/><path class="a3e4463f-5d9a-42a0-8104-dafd34c04c39" d="M295.29 378.522h-16.107"/><path class="eea3dce6-32a9-4c96-8c1e-ebe64519b763" d="M277.719 378.522h-1.5v-1.5"/><path class="f36c2ac5-9d0f-4171-bc5a-40832604235a" d="M276.219 373.796v-24.192"/><path class="eea3dce6-32a9-4c96-8c1e-ebe64519b763" d="M276.219 347.991v-1.5h1.5"/><path class="a3e4463f-5d9a-42a0-8104-dafd34c04c39" d="M280.647 346.491h16.107"/><path class="eea3dce6-32a9-4c96-8c1e-ebe64519b763" d="M298.219 346.491h1.5v1.5"/><path class="f36c2ac5-9d0f-4171-bc5a-40832604235a" d="M299.719 351.217v24.192"/><text class="bdced67e-e906-400d-9029-bf5b1572bf75" transform="translate(286.258 365.277)">1</text></g><g><path class="eea3dce6-32a9-4c96-8c1e-ebe64519b763" d="M254.749 377.022v1.5h-1.5"/><path class="a3e4463f-5d9a-42a0-8104-dafd34c04c39" d="M250.32 378.522h-16.107"/><path class="eea3dce6-32a9-4c96-8c1e-ebe64519b763" d="M232.749 378.522h-1.5v-1.5"/><path class="f36c2ac5-9d0f-4171-bc5a-40832604235a" d="M231.249 373.796v-24.192"/><path class="eea3dce6-32a9-4c96-8c1e-ebe64519b763" d="M231.249 347.991v-1.5h1.5"/><path class="a3e4463f-5d9a-42a0-8104-dafd34c04c39" d="M235.677 346.491h16.108"/><path class="eea3dce6-32a9-4c96-8c1e-ebe64519b763" d="M253.249 346.491h1.5v1.5"/><path class="f36c2ac5-9d0f-4171-bc5a-40832604235a" d="M254.749 351.217v24.192"/><text class="bdced67e-e906-400d-9029-bf5b1572bf75" transform="translate(240.149 365.277)">2</text></g><g><text class="b94ad13d-1ddb-4b6f-8b49-a9970bf2aff7" transform="translate(179.31 392.575)">Message<tspan x="15.957" y="10">3</tspan></text><path class="ba30350d-b785-4db8-a46d-2a83ab17555d" d="M209.749 378.522h-23.5v-26.207l5.875-5.824h17.625v32.031z"/><path class="f46d3749-431c-4712-b2f9-b1aa6f5e9793" d="M192.124 352.315h-5.875l5.875-5.824v5.824zM190.655 356.683h7.344M190.655 361.051h14.687M190.655 365.418h14.687M190.655 369.786h14.687"/></g></svg>