<svg id="b7171e12-eb18-49e3-90f0-ef8158f2b9ba" data-name="Layer 1" xmlns="http://www.w3.org/2000/svg" width="760" height="583.758"><defs><style>.a9b96f88-e2d1-4d9b-ae6f-62fc3e875b9f{fill:#e8e8e8}.aa79099a-ed6e-436a-be84-48bca987146b,.b42a9bca-a4fc-4fd6-bd03-bc0409f2fb53,.b5a1dda4-8b5d-4e14-922f-7fcee53247e1,.bbf26d42-49a9-4111-ae69-a80acaee0ad7,.e14ff277-f3ac-4a0d-b6d5-6e114214155c,.ecda76f2-64f2-4563-a8b5-ddd3db6be671,.f63da5ff-3a10-4d49-b90a-d76399114239,.fafc6674-28a4-4f35-b34f-1731d8d8f7f0{fill:none}.b42a9bca-a4fc-4fd6-bd03-bc0409f2fb53{stroke:#d5d5d5;stroke-width:1.5px;stroke-miterlimit:10}.a5e1da1a-23c6-46dd-9145-ffa2e838c614,.e40e6d64-2f98-466d-9dbd-b7cf8655ae5e{font-size:12px}.a5e1da1a-23c6-46dd-9145-ffa2e838c614{fill:#151515;font-family:RedHatText,&quot;Red Hat Text&quot;,Overpass,&quot;Helvetica Neue&quot;,Arial,sans-serif;font-weight:700}.ba29656c-bdaa-4692-a4d1-dfae8a408c1a,.e40e6d64-2f98-466d-9dbd-b7cf8655ae5e{fill:#fff}.b5e1eb29-8604-46c1-b833-1f193be24664{fill:#06c}.e40e6d64-2f98-466d-9dbd-b7cf8655ae5e{font-family:RedHatText,&quot;Red Hat Text&quot;,Overpass,&quot;Helvetica Neue&quot;,Arial,sans-serif;font-style:italic;font-weight:500}.aa79099a-ed6e-436a-be84-48bca987146b,.b5a1dda4-8b5d-4e14-922f-7fcee53247e1,.bbf26d42-49a9-4111-ae69-a80acaee0ad7,.e14ff277-f3ac-4a0d-b6d5-6e114214155c,.ecda76f2-64f2-4563-a8b5-ddd3db6be671,.f63da5ff-3a10-4d49-b90a-d76399114239,.fafc6674-28a4-4f35-b34f-1731d8d8f7f0{stroke:#06c;stroke-linecap:round;stroke-linejoin:round}.e14ff277-f3ac-4a0d-b6d5-6e114214155c{stroke-dasharray:2.998 2.998}.ecda76f2-64f2-4563-a8b5-ddd3db6be671{stroke-dasharray:2.943 2.943}.f63da5ff-3a10-4d49-b90a-d76399114239{stroke-dasharray:2.965 2.965}.b5a1dda4-8b5d-4e14-922f-7fcee53247e1{stroke-dasharray:3.275 3.275}.aa79099a-ed6e-436a-be84-48bca987146b,.fafc6674-28a4-4f35-b34f-1731d8d8f7f0{stroke-dasharray:2.965 2.965}</style></defs><path class="a9b96f88-e2d1-4d9b-ae6f-62fc3e875b9f" d="M314.75 62h130.5v137h-130.5z"/><path class="b42a9bca-a4fc-4fd6-bd03-bc0409f2fb53" d="M339.75 184.449h95.5v-75"/><path class="b42a9bca-a4fc-4fd6-bd03-bc0409f2fb53" d="M334.75 179.449h95.5v-75"/><text class="a5e1da1a-23c6-46dd-9145-ffa2e838c614" transform="translate(329.75 87.104)">Broker A</text><path class="ba29656c-bdaa-4692-a4d1-dfae8a408c1a" d="M329.75 99.449h95.5v75h-95.5z"/><path class="b5e1eb29-8604-46c1-b833-1f193be24664" transform="rotate(-180 377.5 146.949)" d="M340 129.449h75v35h-75z"/><text class="e40e6d64-2f98-466d-9dbd-b7cf8655ae5e" transform="translate(351.934 150.234)">multicast</text><text class="a5e1da1a-23c6-46dd-9145-ffa2e838c614" transform="translate(339.813 118.653)">Addresses</text><path class="bbf26d42-49a9-4111-ae69-a80acaee0ad7" d="M380 224.412v-1.5"/><path class="e14ff277-f3ac-4a0d-b6d5-6e114214155c" d="M380 219.914v-52.466"/><path class="bbf26d42-49a9-4111-ae69-a80acaee0ad7" d="M380 165.949v-1.5"/><path class="b5e1eb29-8604-46c1-b833-1f193be24664" d="M384.987 222.953L380 231.588l-4.986-8.635h9.973z"/><path class="bbf26d42-49a9-4111-ae69-a80acaee0ad7" d="M395 164.449v1.5"/><path class="ecda76f2-64f2-4563-a8b5-ddd3db6be671" d="M395 168.892v39.725"/><path class="bbf26d42-49a9-4111-ae69-a80acaee0ad7" d="M395 210.088v1.5h1.5"/><path class="f63da5ff-3a10-4d49-b90a-d76399114239" d="M399.466 211.588h134.926"/><path class="bbf26d42-49a9-4111-ae69-a80acaee0ad7" d="M535.875 211.588h1.5v1.5"/><path class="b5a1dda4-8b5d-4e14-922f-7fcee53247e1" d="M537.375 216.363v4.912"/><path class="bbf26d42-49a9-4111-ae69-a80acaee0ad7" d="M537.375 222.912v1.5"/><path class="b5e1eb29-8604-46c1-b833-1f193be24664" d="M532.389 222.953l4.986 8.635 4.986-8.635h-9.972z"/><path class="bbf26d42-49a9-4111-ae69-a80acaee0ad7" d="M365 164.449v1.5"/><path class="ecda76f2-64f2-4563-a8b5-ddd3db6be671" d="M365 168.892v39.725"/><path class="bbf26d42-49a9-4111-ae69-a80acaee0ad7" d="M365 210.088v1.5h-1.5"/><path class="fafc6674-28a4-4f35-b34f-1731d8d8f7f0" d="M360.535 211.588H225.608"/><path class="bbf26d42-49a9-4111-ae69-a80acaee0ad7" d="M224.125 211.588h-1.5v1.5"/><path class="b5a1dda4-8b5d-4e14-922f-7fcee53247e1" d="M222.625 216.363v4.912"/><path class="bbf26d42-49a9-4111-ae69-a80acaee0ad7" d="M222.625 222.912v1.5"/><path class="b5e1eb29-8604-46c1-b833-1f193be24664" d="M217.639 222.953l4.986 8.635 4.986-8.635h-9.972z"/><path class="a9b96f88-e2d1-4d9b-ae6f-62fc3e875b9f" d="M157.375 234.379h130.5v137h-130.5z"/><path class="b42a9bca-a4fc-4fd6-bd03-bc0409f2fb53" d="M182.375 356.828h95.5v-75"/><path class="b42a9bca-a4fc-4fd6-bd03-bc0409f2fb53" d="M177.375 351.828h95.5v-75"/><text class="a5e1da1a-23c6-46dd-9145-ffa2e838c614" transform="translate(172.375 259.483)">Broker B</text><path class="ba29656c-bdaa-4692-a4d1-dfae8a408c1a" d="M172.375 271.828h95.5v75h-95.5z"/><path class="b5e1eb29-8604-46c1-b833-1f193be24664" transform="rotate(-180 220.125 319.328)" d="M182.625 301.828h75v35h-75z"/><text class="e40e6d64-2f98-466d-9dbd-b7cf8655ae5e" transform="translate(194.559 322.613)">multicast</text><text class="a5e1da1a-23c6-46dd-9145-ffa2e838c614" transform="translate(182.438 291.032)">Addresses</text><path class="a9b96f88-e2d1-4d9b-ae6f-62fc3e875b9f" d="M314.75 234.379h130.5v137h-130.5z"/><path class="b42a9bca-a4fc-4fd6-bd03-bc0409f2fb53" d="M339.75 356.828h95.5v-75"/><path class="b42a9bca-a4fc-4fd6-bd03-bc0409f2fb53" d="M334.75 351.828h95.5v-75"/><text class="a5e1da1a-23c6-46dd-9145-ffa2e838c614" transform="translate(329.75 259.483)">Broker C</text><path class="ba29656c-bdaa-4692-a4d1-dfae8a408c1a" d="M329.75 271.828h95.5v75h-95.5z"/><path class="b5e1eb29-8604-46c1-b833-1f193be24664" transform="rotate(-180 377.5 319.328)" d="M340 301.828h75v35h-75z"/><text class="e40e6d64-2f98-466d-9dbd-b7cf8655ae5e" transform="translate(351.934 322.613)">multicast</text><text class="a5e1da1a-23c6-46dd-9145-ffa2e838c614" transform="translate(339.813 291.032)">Addresses</text><path class="a9b96f88-e2d1-4d9b-ae6f-62fc3e875b9f" d="M472.125 234.379h130.5v137h-130.5z"/><path class="b42a9bca-a4fc-4fd6-bd03-bc0409f2fb53" d="M497.125 356.828h95.5v-75"/><path class="b42a9bca-a4fc-4fd6-bd03-bc0409f2fb53" d="M492.125 351.828h95.5v-75"/><text class="a5e1da1a-23c6-46dd-9145-ffa2e838c614" transform="translate(487.125 259.483)">Broker D</text><path class="ba29656c-bdaa-4692-a4d1-dfae8a408c1a" d="M487.125 271.828h95.5v75h-95.5z"/><path class="b5e1eb29-8604-46c1-b833-1f193be24664" transform="rotate(-180 534.875 319.328)" d="M497.375 301.828h75v35h-75z"/><text class="e40e6d64-2f98-466d-9dbd-b7cf8655ae5e" transform="translate(509.309 322.613)">multicast</text><text class="a5e1da1a-23c6-46dd-9145-ffa2e838c614" transform="translate(497.188 291.032)">Addresses</text><path class="a9b96f88-e2d1-4d9b-ae6f-62fc3e875b9f" d="M0 406.758h130.5v137H0z"/><path class="b42a9bca-a4fc-4fd6-bd03-bc0409f2fb53" d="M25 529.207h95.5v-75"/><path class="b42a9bca-a4fc-4fd6-bd03-bc0409f2fb53" d="M20 524.207h95.5v-75"/><text class="a5e1da1a-23c6-46dd-9145-ffa2e838c614" transform="translate(15 431.862)">Broker E</text><path class="ba29656c-bdaa-4692-a4d1-dfae8a408c1a" d="M15 444.207h95.5v75H15z"/><path class="b5e1eb29-8604-46c1-b833-1f193be24664" transform="rotate(-180 62.75 491.707)" d="M25.25 474.207h75v35h-75z"/><text class="e40e6d64-2f98-466d-9dbd-b7cf8655ae5e" transform="translate(37.184 494.992)">multicast</text><text class="a5e1da1a-23c6-46dd-9145-ffa2e838c614" transform="translate(25.063 463.411)">Addresses</text><path class="a9b96f88-e2d1-4d9b-ae6f-62fc3e875b9f" d="M157.375 406.758h130.5v137h-130.5z"/><path class="b42a9bca-a4fc-4fd6-bd03-bc0409f2fb53" d="M182.375 529.207h95.5v-75"/><path class="b42a9bca-a4fc-4fd6-bd03-bc0409f2fb53" d="M177.375 524.207h95.5v-75"/><text class="a5e1da1a-23c6-46dd-9145-ffa2e838c614" transform="translate(172.375 431.862)">Broker F</text><path class="ba29656c-bdaa-4692-a4d1-dfae8a408c1a" d="M172.375 444.207h95.5v75h-95.5z"/><path class="b5e1eb29-8604-46c1-b833-1f193be24664" transform="rotate(-180 220.125 491.707)" d="M182.625 474.207h75v35h-75z"/><text class="e40e6d64-2f98-466d-9dbd-b7cf8655ae5e" transform="translate(194.559 494.992)">multicast</text><text class="a5e1da1a-23c6-46dd-9145-ffa2e838c614" transform="translate(182.438 463.411)">Addresses</text><path class="a9b96f88-e2d1-4d9b-ae6f-62fc3e875b9f" d="M314.75 406.758h130.5v137h-130.5z"/><path class="b42a9bca-a4fc-4fd6-bd03-bc0409f2fb53" d="M339.75 529.207h95.5v-75"/><path class="b42a9bca-a4fc-4fd6-bd03-bc0409f2fb53" d="M334.75 524.207h95.5v-75"/><text class="a5e1da1a-23c6-46dd-9145-ffa2e838c614" transform="translate(329.75 431.862)">Broker G</text><path class="ba29656c-bdaa-4692-a4d1-dfae8a408c1a" d="M329.75 444.207h95.5v75h-95.5z"/><path class="b5e1eb29-8604-46c1-b833-1f193be24664" transform="rotate(-180 377.5 491.707)" d="M340 474.207h75v35h-75z"/><text class="e40e6d64-2f98-466d-9dbd-b7cf8655ae5e" transform="translate(351.934 494.992)">multicast</text><text class="a5e1da1a-23c6-46dd-9145-ffa2e838c614" transform="translate(339.813 463.411)">Addresses</text><path class="a9b96f88-e2d1-4d9b-ae6f-62fc3e875b9f" d="M472.125 406.758h130.5v137h-130.5z"/><path class="b42a9bca-a4fc-4fd6-bd03-bc0409f2fb53" d="M497.125 529.207h95.5v-75"/><path class="b42a9bca-a4fc-4fd6-bd03-bc0409f2fb53" d="M492.125 524.207h95.5v-75"/><text class="a5e1da1a-23c6-46dd-9145-ffa2e838c614" transform="translate(487.125 431.862)">Broker H</text><path class="ba29656c-bdaa-4692-a4d1-dfae8a408c1a" d="M487.125 444.207h95.5v75h-95.5z"/><path class="b5e1eb29-8604-46c1-b833-1f193be24664" transform="rotate(-180 534.875 491.707)" d="M497.375 474.207h75v35h-75z"/><text class="e40e6d64-2f98-466d-9dbd-b7cf8655ae5e" transform="translate(509.309 494.992)">multicast</text><text class="a5e1da1a-23c6-46dd-9145-ffa2e838c614" transform="translate(497.188 463.411)">Addresses</text><path class="a9b96f88-e2d1-4d9b-ae6f-62fc3e875b9f" d="M629.5 406.758H760v137H629.5z"/><path class="b42a9bca-a4fc-4fd6-bd03-bc0409f2fb53" d="M654.5 529.207H750v-75"/><path class="b42a9bca-a4fc-4fd6-bd03-bc0409f2fb53" d="M649.5 524.207H745v-75"/><text class="a5e1da1a-23c6-46dd-9145-ffa2e838c614" transform="translate(644.5 431.862)">Broker I</text><path class="ba29656c-bdaa-4692-a4d1-dfae8a408c1a" d="M644.5 444.207H740v75h-95.5z"/><path class="b5e1eb29-8604-46c1-b833-1f193be24664" transform="rotate(-180 692.25 491.707)" d="M654.75 474.207h75v35h-75z"/><text class="e40e6d64-2f98-466d-9dbd-b7cf8655ae5e" transform="translate(666.684 494.992)">multicast</text><text class="a5e1da1a-23c6-46dd-9145-ffa2e838c614" transform="translate(654.563 463.411)">Addresses</text><g><path class="bbf26d42-49a9-4111-ae69-a80acaee0ad7" d="M380 396.792v-1.5"/><path class="e14ff277-f3ac-4a0d-b6d5-6e114214155c" d="M380 392.294v-52.466"/><path class="bbf26d42-49a9-4111-ae69-a80acaee0ad7" d="M380 338.329v-1.5"/><path class="b5e1eb29-8604-46c1-b833-1f193be24664" d="M384.987 395.333L380 403.968l-4.986-8.635h9.973z"/></g><g><path class="bbf26d42-49a9-4111-ae69-a80acaee0ad7" d="M395 336.829v1.5"/><path class="ecda76f2-64f2-4563-a8b5-ddd3db6be671" d="M395 341.271v39.726"/><path class="bbf26d42-49a9-4111-ae69-a80acaee0ad7" d="M395 382.468v1.5h1.5"/><path class="f63da5ff-3a10-4d49-b90a-d76399114239" d="M399.466 383.968h134.926"/><path class="bbf26d42-49a9-4111-ae69-a80acaee0ad7" d="M535.875 383.968h1.5v1.5"/><path class="b5a1dda4-8b5d-4e14-922f-7fcee53247e1" d="M537.375 388.742v4.912"/><path class="bbf26d42-49a9-4111-ae69-a80acaee0ad7" d="M537.375 395.292v1.5"/><path class="b5e1eb29-8604-46c1-b833-1f193be24664" d="M532.389 395.333l4.986 8.635 4.986-8.635h-9.972z"/></g><g><path class="bbf26d42-49a9-4111-ae69-a80acaee0ad7" d="M552.375 336.829v1.5"/><path class="ecda76f2-64f2-4563-a8b5-ddd3db6be671" d="M552.375 341.271v39.726"/><path class="bbf26d42-49a9-4111-ae69-a80acaee0ad7" d="M552.375 382.468v1.5h1.5"/><path class="aa79099a-ed6e-436a-be84-48bca987146b" d="M556.84 383.968h134.897"/><path class="bbf26d42-49a9-4111-ae69-a80acaee0ad7" d="M693.22 383.968h1.5v1.5"/><path class="b5a1dda4-8b5d-4e14-922f-7fcee53247e1" d="M694.72 388.742v4.912"/><path class="bbf26d42-49a9-4111-ae69-a80acaee0ad7" d="M694.72 395.292v1.5"/><path class="b5e1eb29-8604-46c1-b833-1f193be24664" d="M689.733 395.333l4.987 8.635 4.986-8.635h-9.973z"/></g><g><path class="bbf26d42-49a9-4111-ae69-a80acaee0ad7" d="M207.625 336.829v1.5"/><path class="ecda76f2-64f2-4563-a8b5-ddd3db6be671" d="M207.625 341.271v39.726"/><path class="bbf26d42-49a9-4111-ae69-a80acaee0ad7" d="M207.625 382.468v1.5h-1.5"/><path class="aa79099a-ed6e-436a-be84-48bca987146b" d="M203.16 383.968H68.263"/><path class="bbf26d42-49a9-4111-ae69-a80acaee0ad7" d="M66.78 383.968h-1.5v1.5"/><path class="b5a1dda4-8b5d-4e14-922f-7fcee53247e1" d="M65.28 388.742v4.912"/><path class="bbf26d42-49a9-4111-ae69-a80acaee0ad7" d="M65.28 395.292v1.5"/><path class="b5e1eb29-8604-46c1-b833-1f193be24664" d="M60.294 395.333l4.986 8.635 4.987-8.635h-9.973z"/></g><g><path class="bbf26d42-49a9-4111-ae69-a80acaee0ad7" d="M365 336.829v1.5"/><path class="ecda76f2-64f2-4563-a8b5-ddd3db6be671" d="M365 341.271v39.726"/><path class="bbf26d42-49a9-4111-ae69-a80acaee0ad7" d="M365 382.468v1.5h-1.5"/><path class="fafc6674-28a4-4f35-b34f-1731d8d8f7f0" d="M360.535 383.968H225.608"/><path class="bbf26d42-49a9-4111-ae69-a80acaee0ad7" d="M224.125 383.968h-1.5v1.5"/><path class="b5a1dda4-8b5d-4e14-922f-7fcee53247e1" d="M222.625 388.742v4.912"/><path class="bbf26d42-49a9-4111-ae69-a80acaee0ad7" d="M222.625 395.292v1.5"/><path class="b5e1eb29-8604-46c1-b833-1f193be24664" d="M217.639 395.333l4.986 8.635 4.986-8.635h-9.972z"/></g><g><path class="bbf26d42-49a9-4111-ae69-a80acaee0ad7" d="M27.31 24h-1.5"/><path stroke-dasharray="3.427 3.427" stroke="#06c" stroke-linecap="round" stroke-linejoin="round" fill="none" d="M22.383 24H10.39"/><path class="bbf26d42-49a9-4111-ae69-a80acaee0ad7" d="M8.676 24h-1.5"/><path class="b5e1eb29-8604-46c1-b833-1f193be24664" d="M8.635 19.013L0 24l8.635 4.986v-9.973z"/><text transform="translate(35 27.324)" font-family="RedHatText,&quot;Red Hat Text&quot;,Overpass,&quot;Helvetica Neue&quot;,Arial,sans-serif" font-weight="500" font-size="10" fill="#151515">Address Federation</text></g><path stroke="#e8e8e8" stroke-miterlimit="10" fill="none" d="M0 44.943h760"/><g><text transform="translate(694.192 566.776)" fill="#f3f3f3" font-family="RedHatText,&quot;Red Hat Text&quot;,Overpass,&quot;Helvetica Neue&quot;,Arial,sans-serif" font-size="10">120_AMQ_1120</text><path fill="none" d="M0 543.758h760v40H0z"/></g></svg>