<svg id="bd96225c-bfbe-494c-99e6-d9d5ef6b315e" data-name="Layer 1" xmlns="http://www.w3.org/2000/svg" width="760" height="483.675"><defs><style>.a8c3a774-936c-4afe-8085-df737c57a599{fill:#e8e8e8}.af2292d3-437c-458b-995c-ed099b7bb731,.e2bb8690-f578-4f12-8bae-9454aeaa8545,.f2f395c8-7eb9-41d1-aa2f-9141e6a51386,.f5e93396-6537-4e7a-806b-40973f62fca1,.f914e062-cfee-4bb7-9c5e-a79ec5ad28c4{fill:none}.e2bb8690-f578-4f12-8bae-9454aeaa8545{stroke:#d5d5d5}.af2292d3-437c-458b-995c-ed099b7bb731,.e2bb8690-f578-4f12-8bae-9454aeaa8545{stroke-miterlimit:10}.ac450331-5545-4830-9b45-411a604fc92e,.e2bb8690-f578-4f12-8bae-9454aeaa8545,.f5e93396-6537-4e7a-806b-40973f62fca1{stroke-width:1.5px}.a9fb6d15-64ed-464a-8819-0300ada5b247,.ae5b43d4-30f0-4f6b-9ee1-5deb331746d4,.fdaf190c-7e0d-4a7e-b930-0e30f3fb0a90{font-size:12px}.a9fb6d15-64ed-464a-8819-0300ada5b247,.ae5b43d4-30f0-4f6b-9ee1-5deb331746d4,.b0f1121c-2f4d-4372-af40-6cd2c50fa8b3,.e1506d79-1f47-4a52-a373-6441b82aadf7{fill:#151515}.a9fb6d15-64ed-464a-8819-0300ada5b247{font-family:RedHatText,&quot;Red Hat Text&quot;,Overpass,&quot;Helvetica Neue&quot;,Arial,sans-serif;font-weight:700}.ac450331-5545-4830-9b45-411a604fc92e,.b01cee23-9898-4409-84af-17cfaf99117b,.fdaf190c-7e0d-4a7e-b930-0e30f3fb0a90{fill:#fff}.ba606053-2733-478c-ac46-265bf450d40f{fill:#06c}.fdaf190c-7e0d-4a7e-b930-0e30f3fb0a90{font-family:RedHatText,&quot;Red Hat Text&quot;,Overpass,&quot;Helvetica Neue&quot;,Arial,sans-serif;font-style:italic;font-weight:500}.af2292d3-437c-458b-995c-ed099b7bb731,.f914e062-cfee-4bb7-9c5e-a79ec5ad28c4{stroke:#151515}.ac450331-5545-4830-9b45-411a604fc92e,.f2f395c8-7eb9-41d1-aa2f-9141e6a51386,.f5e93396-6537-4e7a-806b-40973f62fca1,.f914e062-cfee-4bb7-9c5e-a79ec5ad28c4{stroke-linecap:round;stroke-linejoin:round}.f2f395c8-7eb9-41d1-aa2f-9141e6a51386{stroke:#06c}.ae5b43d4-30f0-4f6b-9ee1-5deb331746d4,.b0f1121c-2f4d-4372-af40-6cd2c50fa8b3{font-family:RedHatText,&quot;Red Hat Text&quot;,Overpass,&quot;Helvetica Neue&quot;,Arial,sans-serif;font-weight:500}.b0f1121c-2f4d-4372-af40-6cd2c50fa8b3{font-size:9px}.ac450331-5545-4830-9b45-411a604fc92e,.f5e93396-6537-4e7a-806b-40973f62fca1{stroke:#5b5b5b}</style></defs><path class="a8c3a774-936c-4afe-8085-df737c57a599" d="M0 133.533h275.5v207H0zM484.5 133.533H760v207H484.5z"/><path class="e2bb8690-f578-4f12-8bae-9454aeaa8545" d="M30 270.982h235.5v-85"/><path class="e2bb8690-f578-4f12-8bae-9454aeaa8545" d="M25 265.982h235.5v-85M514.5 270.982H750v-85"/><path class="e2bb8690-f578-4f12-8bae-9454aeaa8545" d="M509.5 265.982H745v-85"/><text class="a9fb6d15-64ed-464a-8819-0300ada5b247" transform="translate(20 158.62)">Broker A</text><path class="b01cee23-9898-4409-84af-17cfaf99117b" d="M20 175.982h235.5v85H20z"/><path class="ba606053-2733-478c-ac46-265bf450d40f" transform="rotate(-180 137.75 228.482)" d="M35.25 210.982h205v35h-205z"/><text class="fdaf190c-7e0d-4a7e-b930-0e30f3fb0a90" transform="translate(112.184 231.767)">multicast</text><path class="f914e062-cfee-4bb7-9c5e-a79ec5ad28c4" d="M137.75 275.945v-29.963"/><path class="e1506d79-1f47-4a52-a373-6441b82aadf7" d="M142.736 274.486l-4.986 8.635-4.986-8.635h9.972z"/><text class="a9fb6d15-64ed-464a-8819-0300ada5b247" transform="translate(504.5 158.62)">Broker B</text><path class="b01cee23-9898-4409-84af-17cfaf99117b" d="M504.5 175.982H740v85H504.5z"/><path class="ba606053-2733-478c-ac46-265bf450d40f" transform="rotate(-180 622.25 228.482)" d="M519.75 210.982h205v35h-205z"/><text class="fdaf190c-7e0d-4a7e-b930-0e30f3fb0a90" transform="translate(596.684 231.767)">multicast</text><path class="f914e062-cfee-4bb7-9c5e-a79ec5ad28c4" d="M622.25 275.945v-29.963"/><path class="e1506d79-1f47-4a52-a373-6441b82aadf7" d="M627.236 274.486l-4.986 8.635-4.986-8.635h9.972z"/><path class="f2f395c8-7eb9-41d1-aa2f-9141e6a51386" d="M510.074 228.482h-1.5"/><path stroke-dasharray="3.028 3.028" stroke="#06c" stroke-linecap="round" stroke-linejoin="round" fill="none" d="M505.546 228.482H252.689"/><path class="f2f395c8-7eb9-41d1-aa2f-9141e6a51386" d="M251.175 228.482h-1.5"/><path class="ba606053-2733-478c-ac46-265bf450d40f" d="M508.615 223.496l8.635 4.986-8.635 4.986v-9.972zM251.134 223.496l-8.635 4.986 8.635 4.986v-9.972z"/><path class="b01cee23-9898-4409-84af-17cfaf99117b" transform="rotate(-180 137.75 303.121)" d="M20.25 285.621h235v35h-235z"/><text class="ae5b43d4-30f0-4f6b-9ee1-5deb331746d4" transform="translate(115.622 306.406)">Queue 1</text><path class="b01cee23-9898-4409-84af-17cfaf99117b" transform="rotate(-180 622.25 303.121)" d="M504.75 285.621h235v35h-235z"/><text class="ae5b43d4-30f0-4f6b-9ee1-5deb331746d4" transform="translate(598.754 306.406)">Queue 2</text><text class="ae5b43d4-30f0-4f6b-9ee1-5deb331746d4" transform="translate(292.695 221.806)">Symmetric Address Federation</text><path class="a8c3a774-936c-4afe-8085-df737c57a599" d="M20 409.175h235.5v35H20z"/><text class="a9fb6d15-64ed-464a-8819-0300ada5b247" transform="translate(103.702 429.999)">Consumer 1</text><path class="a8c3a774-936c-4afe-8085-df737c57a599" d="M504.5 409.175H740v35H504.5z"/><text class="a9fb6d15-64ed-464a-8819-0300ada5b247" transform="translate(587.181 429.999)">Consumer 2</text><path class="f914e062-cfee-4bb7-9c5e-a79ec5ad28c4" d="M137.75 201.306V55"/><path class="e1506d79-1f47-4a52-a373-6441b82aadf7" d="M142.736 199.847l-4.986 8.635-4.986-8.635h9.972z"/><path class="a8c3a774-936c-4afe-8085-df737c57a599" d="M20 20h235.5v35H20z"/><text class="a9fb6d15-64ed-464a-8819-0300ada5b247" transform="translate(106.521 40.824)">Producer 1</text><path class="a8c3a774-936c-4afe-8085-df737c57a599" d="M504.5 20H740v35H504.5z"/><text class="a9fb6d15-64ed-464a-8819-0300ada5b247" transform="translate(589.749 40.824)">Producer 2</text><path class="f914e062-cfee-4bb7-9c5e-a79ec5ad28c4" d="M622.25 201.306V55"/><path class="e1506d79-1f47-4a52-a373-6441b82aadf7" d="M627.236 199.847l-4.986 8.635-4.986-8.635h9.972z"/><text class="a9fb6d15-64ed-464a-8819-0300ada5b247" transform="translate(35.25 200.185)">Addresses</text><text class="a9fb6d15-64ed-464a-8819-0300ada5b247" transform="translate(519.75 200.185)">Addresses</text><path class="b01cee23-9898-4409-84af-17cfaf99117b" d="M102.163 90.824h71.174v30.699h-71.174z"/><g><text class="b0f1121c-2f4d-4372-af40-6cd2c50fa8b3" transform="translate(116.51 114.756)">Message 1</text><path class="ac450331-5545-4830-9b45-411a604fc92e" d="M149.5 99.703H126V73.495l5.875-5.824H149.5v32.032z"/><path class="f5e93396-6537-4e7a-806b-40973f62fca1" d="M131.875 73.495H126l5.875-5.824v5.824zM130.406 77.863h7.344M130.406 82.231h14.688M130.406 86.599h14.688M130.406 90.967h14.688"/></g><path class="b01cee23-9898-4409-84af-17cfaf99117b" d="M586.663 90.824h71.174v30.699h-71.174z"/><g><text class="b0f1121c-2f4d-4372-af40-6cd2c50fa8b3" transform="translate(599.984 114.756)">Message 2</text><path class="ac450331-5545-4830-9b45-411a604fc92e" d="M634 99.703h-23.5V73.495l5.875-5.824H634v32.032z"/><path class="f5e93396-6537-4e7a-806b-40973f62fca1" d="M616.375 73.495H610.5l5.875-5.824v5.824zM614.907 77.863h7.343M614.907 82.231h14.687M614.907 86.599h14.687M614.907 90.967h14.687"/></g><g><path class="af2292d3-437c-458b-995c-ed099b7bb731" d="M75.25 320.613v78.967"/><path class="e1506d79-1f47-4a52-a373-6441b82aadf7" d="M70.264 398.121l4.986 8.635 4.986-8.635h-9.972z"/><path class="b01cee23-9898-4409-84af-17cfaf99117b" d="M39.663 356.937h71.174v30.699H39.663z"/><g><text class="b0f1121c-2f4d-4372-af40-6cd2c50fa8b3" transform="translate(54.011 380.869)">Message 1</text><path class="ac450331-5545-4830-9b45-411a604fc92e" d="M87 365.816H63.5v-26.207l5.875-5.824H87v32.031z"/><path class="f5e93396-6537-4e7a-806b-40973f62fca1" d="M69.375 339.609H63.5l5.875-5.824v5.824zM67.907 343.977h7.343M67.907 348.345h14.687M67.907 352.712h14.687M67.907 357.08h14.687"/></g></g><g><path class="af2292d3-437c-458b-995c-ed099b7bb731" d="M200.25 320.613v78.967"/><path class="e1506d79-1f47-4a52-a373-6441b82aadf7" d="M195.264 398.121l4.986 8.635 4.986-8.635h-9.972z"/><path class="b01cee23-9898-4409-84af-17cfaf99117b" d="M164.663 356.937h71.174v30.699h-71.174z"/><g><text class="b0f1121c-2f4d-4372-af40-6cd2c50fa8b3" transform="translate(177.985 380.869)">Message 2</text><path class="ac450331-5545-4830-9b45-411a604fc92e" d="M212 365.816h-23.5v-26.207l5.875-5.824H212v32.031z"/><path class="f5e93396-6537-4e7a-806b-40973f62fca1" d="M194.375 339.609H188.5l5.875-5.824v5.824zM192.907 343.977h7.343M192.907 348.345h14.687M192.907 352.712h14.687M192.907 357.08h14.687"/></g></g><g><path class="af2292d3-437c-458b-995c-ed099b7bb731" d="M559.75 320.613v78.967"/><path class="e1506d79-1f47-4a52-a373-6441b82aadf7" d="M554.764 398.121l4.986 8.635 4.986-8.635h-9.972z"/><path class="b01cee23-9898-4409-84af-17cfaf99117b" d="M524.163 356.937h71.174v30.699h-71.174z"/><g><text class="b0f1121c-2f4d-4372-af40-6cd2c50fa8b3" transform="translate(538.511 380.869)">Message 1</text><path class="ac450331-5545-4830-9b45-411a604fc92e" d="M571.5 365.816H548v-26.207l5.875-5.824H571.5v32.031z"/><path class="f5e93396-6537-4e7a-806b-40973f62fca1" d="M553.875 339.609H548l5.875-5.824v5.824zM552.407 343.977h7.343M552.407 348.345h14.687M552.407 352.712h14.687M552.407 357.08h14.687"/></g></g><g><path class="af2292d3-437c-458b-995c-ed099b7bb731" d="M684.75 320.613v78.967"/><path class="e1506d79-1f47-4a52-a373-6441b82aadf7" d="M679.764 398.121l4.986 8.635 4.986-8.635h-9.972z"/><path class="b01cee23-9898-4409-84af-17cfaf99117b" d="M649.163 356.937h71.174v30.699h-71.174z"/><g><text class="b0f1121c-2f4d-4372-af40-6cd2c50fa8b3" transform="translate(662.485 380.869)">Message 2</text><path class="ac450331-5545-4830-9b45-411a604fc92e" d="M696.5 365.816H673v-26.207l5.875-5.824H696.5v32.031z"/><path class="f5e93396-6537-4e7a-806b-40973f62fca1" d="M678.875 339.609H673l5.875-5.824v5.824zM677.407 343.977h7.343M677.407 348.345h14.687M677.407 352.712h14.687M677.407 357.08h14.687"/></g></g><g><text transform="translate(690.661 466.693)" font-size="10" fill="#f3f3f3" font-family="RedHatText,&quot;Red Hat Text&quot;,Overpass,&quot;Helvetica Neue&quot;,Arial,sans-serif">120_AMQ_1020</text><path fill="none" d="M0 443.675h760v40H0z"/></g></svg>