<svg id="aa1f8b80-b45c-493d-b387-a44ba4da6183" data-name="artwork" xmlns="http://www.w3.org/2000/svg" width="760" height="456.101" viewBox="0 0 760 456.101">
  <defs>
    <style>
      .afb4eeb2-6c84-42b3-97df-6f6eb775fdb9, .bca6adb0-0491-4d23-8793-bea3b90b9eba, .ff5a185c-31a4-4662-bb7a-c0ac9b76c394 {
        fill: none;
      }

      .bca6adb0-0491-4d23-8793-bea3b90b9eba {
        stroke: #151515;
        stroke-linecap: round;
        stroke-linejoin: round;
      }

      .b5144887-ea7b-4eac-b7d8-feaecfeca6a1, .e1fdf589-5055-4112-9d2f-f1ef277d222b, .ffb75daa-4c1b-4f50-a8e4-f04b7a8dcb7c {
        fill: #151515;
      }

      .b325d0ca-cea5-4ad7-955d-68b113119c8c {
        fill: #fff;
      }

      .b5144887-ea7b-4eac-b7d8-feaecfeca6a1, .e1fdf589-5055-4112-9d2f-f1ef277d222b {
        font-size: 11px;
      }

      .b5144887-ea7b-4eac-b7d8-feaecfeca6a1 {
        font-family: RedHatText-Italic, Red Hat Text;
        font-style: italic;
      }

      .aaa7779e-6b54-4b2c-bddf-a402c4c2c1f2 {
        font-size: 10px;
        fill: #f3f3f3;
        font-family: RedHatText-Regular, Red Hat Text;
      }

      .affd2bcf-853f-4016-9ebc-de67aef42154 {
        fill: #e8e8e8;
      }

      .e1fdf589-5055-4112-9d2f-f1ef277d222b {
        font-family: RedHatText-Medium, Red Hat Text;
        font-weight: 500;
      }

      .ff5a185c-31a4-4662-bb7a-c0ac9b76c394 {
        stroke: #e8e8e8;
        stroke-miterlimit: 10;
        stroke-width: 1.5px;
      }

      .f22a5c7a-19e6-4161-9a8e-cea48c749e36 {
        fill: #d9e8f7;
      }
    </style>
  </defs>
  <g>
    <line class="bca6adb0-0491-4d23-8793-bea3b90b9eba" x1="335" y1="211.711" x2="335" y2="170.405"/>
    <polygon class="ffb75daa-4c1b-4f50-a8e4-f04b7a8dcb7c" points="339.986 210.252 335 218.887 330.014 210.252 339.986 210.252"/>
    <polygon class="ffb75daa-4c1b-4f50-a8e4-f04b7a8dcb7c" points="339.986 171.864 335 163.229 330.014 171.864 339.986 171.864"/>
  </g>
  <rect class="b325d0ca-cea5-4ad7-955d-68b113119c8c" x="323.5" y="180.575" width="23" height="20.965"/>
  <text class="b5144887-ea7b-4eac-b7d8-feaecfeca6a1" transform="translate(289.153 194.182)">Controller API calls</text>
  <g>
    <line class="bca6adb0-0491-4d23-8793-bea3b90b9eba" x1="490" y1="211.711" x2="490" y2="160.729"/>
    <polygon class="ffb75daa-4c1b-4f50-a8e4-f04b7a8dcb7c" points="494.986 210.252 490 218.887 485.014 210.252 494.986 210.252"/>
  </g>
  <rect class="b325d0ca-cea5-4ad7-955d-68b113119c8c" x="478.5" y="180.575" width="23" height="20.965"/>
  <text class="b5144887-ea7b-4eac-b7d8-feaecfeca6a1" transform="translate(430.375 194.182)">Request service artifacts</text>
  <g>
    <text class="aaa7779e-6b54-4b2c-bddf-a402c4c2c1f2" transform="translate(678.091 439.119)">99_RHPAM_0920</text>
    <rect class="afb4eeb2-6c84-42b3-97df-6f6eb775fdb9" x="0.01" y="416.101" width="760" height="40"/>
  </g>
  <g>
    <line class="bca6adb0-0491-4d23-8793-bea3b90b9eba" x1="412.5" y1="111.007" x2="412.5" y2="60.525"/>
    <polygon class="ffb75daa-4c1b-4f50-a8e4-f04b7a8dcb7c" points="417.486 109.548 412.5 118.183 407.514 109.548 417.486 109.548"/>
  </g>
  <g>
    <rect class="affd2bcf-853f-4016-9ebc-de67aef42154" x="260" y="20.683" width="305" height="40"/>
    <text class="e1fdf589-5055-4112-9d2f-f1ef277d222b" transform="translate(366.813 44.008)">Client application</text>
  </g>
  <rect class="b325d0ca-cea5-4ad7-955d-68b113119c8c" x="401" y="75.11" width="23" height="20.965"/>
  <text class="b5144887-ea7b-4eac-b7d8-feaecfeca6a1" transform="translate(392.591 88.716)">API calls</text>
  <g>
    <line class="bca6adb0-0491-4d23-8793-bea3b90b9eba" x1="335" y1="306.387" x2="335" y2="389.369"/>
    <polygon class="ffb75daa-4c1b-4f50-a8e4-f04b7a8dcb7c" points="330.014 387.91 335 396.545 339.986 387.91 330.014 387.91"/>
  </g>
  <g>
    <rect class="affd2bcf-853f-4016-9ebc-de67aef42154" x="260" y="398.887" width="305" height="40"/>
    <text class="e1fdf589-5055-4112-9d2f-f1ef277d222b" transform="translate(391.243 422.211)">Storage</text>
  </g>
  <polyline class="ff5a185c-31a4-4662-bb7a-c0ac9b76c394" points="155 271.387 155 311.387 5 311.387"/>
  <polyline class="ff5a185c-31a4-4662-bb7a-c0ac9b76c394" points="160 276.387 160 316.387 10 316.387"/>
  <rect class="affd2bcf-853f-4016-9ebc-de67aef42154" x="260" y="120.683" width="305" height="40"/>
  <text class="e1fdf589-5055-4112-9d2f-f1ef277d222b" transform="translate(386.298 143.73)">KIE server</text>
  <rect class="f22a5c7a-19e6-4161-9a8e-cea48c749e36" x="415" y="221.387" width="150" height="40"/>
  <text class="e1fdf589-5055-4112-9d2f-f1ef277d222b" transform="translate(444.845 244.711)">Maven repository</text>
  <rect class="affd2bcf-853f-4016-9ebc-de67aef42154" x="415" y="311.387" width="150" height="40"/>
  <text class="e1fdf589-5055-4112-9d2f-f1ef277d222b" transform="translate(467.895 334.434)">Indexing</text>
  <rect class="f22a5c7a-19e6-4161-9a8e-cea48c749e36" x="260" y="221.387" width="150" height="40"/>
  <text class="e1fdf589-5055-4112-9d2f-f1ef277d222b" transform="translate(308.721 244.711)">Controller</text>
  <rect class="f22a5c7a-19e6-4161-9a8e-cea48c749e36" x="260" y="266.387" width="305" height="40"/>
  <text class="e1fdf589-5055-4112-9d2f-f1ef277d222b" transform="translate(369.414 289.711)">Business Central</text>
  <rect class="affd2bcf-853f-4016-9ebc-de67aef42154" x="610" y="221.387" width="150" height="40"/>
  <text class="e1fdf589-5055-4112-9d2f-f1ef277d222b" transform="translate(659.76 238.434)">CI/CD for<tspan x="-11.813" y="12">KJAR projects</tspan></text>
  <g>
    <line class="bca6adb0-0491-4d23-8793-bea3b90b9eba" x1="250.324" y1="286.387" x2="150" y2="286.387"/>
    <polygon class="ffb75daa-4c1b-4f50-a8e4-f04b7a8dcb7c" points="248.865 281.4 257.5 286.387 248.865 291.373 248.865 281.4"/>
  </g>
  <g>
    <line class="bca6adb0-0491-4d23-8793-bea3b90b9eba" x1="600.324" y1="241.387" x2="574.676" y2="241.387"/>
    <polygon class="ffb75daa-4c1b-4f50-a8e4-f04b7a8dcb7c" points="598.865 236.4 607.5 241.387 598.865 246.373 598.865 236.4"/>
    <polygon class="ffb75daa-4c1b-4f50-a8e4-f04b7a8dcb7c" points="576.135 236.4 567.5 241.387 576.135 246.373 576.135 236.4"/>
  </g>
  <rect class="b325d0ca-cea5-4ad7-955d-68b113119c8c" x="323.5" y="341.613" width="23" height="31.706"/>
  <text class="b5144887-ea7b-4eac-b7d8-feaecfeca6a1" transform="translate(300.774 354.59)">Access .niogit,<tspan x="-5.506" y="12">Maven repo files</tspan></text>
  <rect class="affd2bcf-853f-4016-9ebc-de67aef42154" y="266.387" width="150" height="40"/>
  <text class="e1fdf589-5055-4112-9d2f-f1ef277d222b" transform="translate(60.408 289.433)">Users</text>
  <rect class="b325d0ca-cea5-4ad7-955d-68b113119c8c" x="178.221" y="275.904" width="54.307" height="20.965"/>
  <text class="b5144887-ea7b-4eac-b7d8-feaecfeca6a1" transform="translate(182.721 289.511)">UI access</text>
</svg>
