<svg id="a5dfc5fc-970d-42fe-bdfe-0ebd1f2cee2c" data-name="artwork" xmlns="http://www.w3.org/2000/svg" width="760" height="456.101" viewBox="0 0 760 456.101">
  <defs>
    <style>
      .a7b44a7b-b836-40ad-8667-200596d93c3f {
        font-size: 10px;
        fill: #f3f3f3;
        font-family: RedHatText-Regular, Red Hat Text;
      }

      .a2f33e9e-719a-4bf5-a3ff-f98f3f184053, .b6180309-e5f0-4a1d-8835-421adfc746da, .bef4833d-8349-4c0a-a9c6-4a5cd5a836fb {
        fill: none;
      }

      .a2f33e9e-719a-4bf5-a3ff-f98f3f184053 {
        stroke: #151515;
        stroke-linecap: round;
        stroke-linejoin: round;
      }

      .bf925180-eb7f-4cce-b4fd-0d9df57e821a, .eb4d00d6-c261-42a2-85cf-7c528b533bf4, .fe31ff38-ae81-405d-abb4-4be849a1ead2 {
        fill: #151515;
      }

      .bdbf8af9-5bc3-47a2-b18a-b0fb17b8446c {
        fill: #e8e8e8;
      }

      .bf925180-eb7f-4cce-b4fd-0d9df57e821a, .fe31ff38-ae81-405d-abb4-4be849a1ead2 {
        font-size: 11px;
      }

      .fe31ff38-ae81-405d-abb4-4be849a1ead2 {
        font-family: RedHatText-Medium, Red Hat Text;
        font-weight: 500;
      }

      .a77240ac-f358-4bd7-bc41-669d43b00762 {
        fill: #fff;
      }

      .bf925180-eb7f-4cce-b4fd-0d9df57e821a {
        font-family: RedHatText-Italic, Red Hat Text;
        font-style: italic;
      }

      .bef4833d-8349-4c0a-a9c6-4a5cd5a836fb {
        stroke: #e8e8e8;
        stroke-miterlimit: 10;
        stroke-width: 1.5px;
      }

      .b0a3761d-d9e2-4cba-971f-8a74efe50b8b {
        fill: #d9e8f7;
      }
    </style>
  </defs>
  <g>
    <text class="a7b44a7b-b836-40ad-8667-200596d93c3f" transform="translate(678.091 439.119)">99_RHPAM_0920</text>
    <rect class="b6180309-e5f0-4a1d-8835-421adfc746da" x="0.01" y="416.101" width="760" height="40"/>
  </g>
  <g>
    <line class="a2f33e9e-719a-4bf5-a3ff-f98f3f184053" x1="412.5" y1="111.007" x2="412.5" y2="60.525"/>
    <polygon class="eb4d00d6-c261-42a2-85cf-7c528b533bf4" points="417.486 109.548 412.5 118.183 407.514 109.548 417.486 109.548"/>
  </g>
  <g>
    <rect class="bdbf8af9-5bc3-47a2-b18a-b0fb17b8446c" x="260" y="20.683" width="305" height="40"/>
    <text class="fe31ff38-ae81-405d-abb4-4be849a1ead2" transform="translate(366.813 44.008)">Client application</text>
  </g>
  <rect class="a77240ac-f358-4bd7-bc41-669d43b00762" x="401" y="75.11" width="23" height="20.965"/>
  <text class="bf925180-eb7f-4cce-b4fd-0d9df57e821a" transform="translate(392.591 88.716)">API calls</text>
  <g>
    <line class="a2f33e9e-719a-4bf5-a3ff-f98f3f184053" x1="335" y1="306.387" x2="335" y2="389.369"/>
    <polygon class="eb4d00d6-c261-42a2-85cf-7c528b533bf4" points="330.014 387.91 335 396.545 339.986 387.91 330.014 387.91"/>
  </g>
  <g>
    <rect class="bdbf8af9-5bc3-47a2-b18a-b0fb17b8446c" x="260" y="398.887" width="305" height="40"/>
    <text class="fe31ff38-ae81-405d-abb4-4be849a1ead2" transform="translate(391.243 422.211)">Storage</text>
  </g>
  <g>
    <line class="a2f33e9e-719a-4bf5-a3ff-f98f3f184053" x1="335" y1="211.711" x2="335" y2="160.729"/>
    <polygon class="eb4d00d6-c261-42a2-85cf-7c528b533bf4" points="339.986 210.252 335 218.887 330.014 210.252 339.986 210.252"/>
  </g>
  <rect class="a77240ac-f358-4bd7-bc41-669d43b00762" x="323.5" y="175.313" width="23" height="20.965"/>
  <text class="bf925180-eb7f-4cce-b4fd-0d9df57e821a" transform="translate(289.153 188.919)">Controller API calls</text>
  <g>
    <line class="a2f33e9e-719a-4bf5-a3ff-f98f3f184053" x1="490" y1="211.711" x2="490" y2="160.729"/>
    <polygon class="eb4d00d6-c261-42a2-85cf-7c528b533bf4" points="494.986 210.252 490 218.887 485.014 210.252 494.986 210.252"/>
  </g>
  <rect class="a77240ac-f358-4bd7-bc41-669d43b00762" x="478.5" y="175.313" width="23" height="20.965"/>
  <text class="bf925180-eb7f-4cce-b4fd-0d9df57e821a" transform="translate(430.375 188.919)">Request service artifacts</text>
  <polyline class="bef4833d-8349-4c0a-a9c6-4a5cd5a836fb" points="155 271.387 155 311.387 5 311.387"/>
  <polyline class="bef4833d-8349-4c0a-a9c6-4a5cd5a836fb" points="160 276.387 160 316.387 10 316.387"/>
  <rect class="bdbf8af9-5bc3-47a2-b18a-b0fb17b8446c" x="260" y="120.683" width="305" height="40"/>
  <text class="fe31ff38-ae81-405d-abb4-4be849a1ead2" transform="translate(386.298 143.73)">KIE server</text>
  <rect class="b0a3761d-d9e2-4cba-971f-8a74efe50b8b" x="415" y="221.387" width="150" height="40"/>
  <text class="fe31ff38-ae81-405d-abb4-4be849a1ead2" transform="translate(444.845 244.711)">Maven repository</text>
  <rect class="bdbf8af9-5bc3-47a2-b18a-b0fb17b8446c" x="415" y="311.387" width="150" height="40"/>
  <text class="fe31ff38-ae81-405d-abb4-4be849a1ead2" transform="translate(467.895 334.434)">Indexing</text>
  <rect class="b0a3761d-d9e2-4cba-971f-8a74efe50b8b" x="260" y="221.387" width="150" height="40"/>
  <text class="fe31ff38-ae81-405d-abb4-4be849a1ead2" transform="translate(308.721 244.711)">Controller</text>
  <rect class="b0a3761d-d9e2-4cba-971f-8a74efe50b8b" x="260" y="266.387" width="305" height="40"/>
  <text class="fe31ff38-ae81-405d-abb4-4be849a1ead2" transform="translate(369.414 289.711)">Business Central</text>
  <rect class="bdbf8af9-5bc3-47a2-b18a-b0fb17b8446c" x="610" y="221.387" width="150" height="40"/>
  <text class="fe31ff38-ae81-405d-abb4-4be849a1ead2" transform="translate(659.76 238.434)">CI/CD for<tspan x="-11.813" y="12">KJAR projects</tspan></text>
  <g>
    <line class="a2f33e9e-719a-4bf5-a3ff-f98f3f184053" x1="250.324" y1="286.387" x2="150" y2="286.387"/>
    <polygon class="eb4d00d6-c261-42a2-85cf-7c528b533bf4" points="248.865 281.4 257.5 286.387 248.865 291.373 248.865 281.4"/>
  </g>
  <g>
    <line class="a2f33e9e-719a-4bf5-a3ff-f98f3f184053" x1="600.324" y1="241.387" x2="574.676" y2="241.387"/>
    <polygon class="eb4d00d6-c261-42a2-85cf-7c528b533bf4" points="598.865 236.4 607.5 241.387 598.865 246.373 598.865 236.4"/>
    <polygon class="eb4d00d6-c261-42a2-85cf-7c528b533bf4" points="576.135 236.4 567.5 241.387 576.135 246.373 576.135 236.4"/>
  </g>
  <rect class="a77240ac-f358-4bd7-bc41-669d43b00762" x="323.5" y="341.613" width="23" height="31.706"/>
  <text class="bf925180-eb7f-4cce-b4fd-0d9df57e821a" transform="translate(300.774 354.59)">Access .niogit,<tspan x="-5.506" y="12">Maven repo files</tspan></text>
  <rect class="bdbf8af9-5bc3-47a2-b18a-b0fb17b8446c" y="266.387" width="150" height="40"/>
  <text class="fe31ff38-ae81-405d-abb4-4be849a1ead2" transform="translate(60.408 289.433)">Users</text>
  <rect class="a77240ac-f358-4bd7-bc41-669d43b00762" x="178.221" y="275.904" width="54.307" height="20.965"/>
  <text class="bf925180-eb7f-4cce-b4fd-0d9df57e821a" transform="translate(182.721 289.511)">UI access</text>
</svg>
