<svg id="b8d04a97-5d9a-465d-945e-1385e4f45e6f" data-name="artwork" xmlns="http://www.w3.org/2000/svg" width="760" height="354.436"><defs><style>.a8f9bcc3-567b-4319-afc5-a5680284831e{fill:none;stroke:#151515;stroke-linecap:round;stroke-linejoin:round}.ab10a391-d6bb-4986-ba0e-4f770e58986e,.b6555dac-9d99-4193-917b-ee13525a861c,.eec29761-325d-4f5c-8927-1d39ba6779ac{fill:#151515}.f8303b45-4404-478b-8bf6-48993c464c0c{fill:#e8e8e8}.b6555dac-9d99-4193-917b-ee13525a861c,.eec29761-325d-4f5c-8927-1d39ba6779ac{font-size:12px}.b6555dac-9d99-4193-917b-ee13525a861c{font-family:RedHatText,&quot;Red Hat Text&quot;,Overpass,&quot;Helvetica Neue&quot;,Arial,sans-serif;font-weight:500}.e07233a0-7778-4e4d-b6d9-396e15b76fed{fill:#06c}.eec29761-325d-4f5c-8927-1d39ba6779ac{font-family:RedHatText,&quot;Red Hat Text&quot;,Overpass,&quot;Helvetica Neue&quot;,Arial,sans-serif;font-weight:700}</style></defs><path class="a8f9bcc3-567b-4319-afc5-a5680284831e" d="M393 167.26v-20.648"/><path class="ab10a391-d6bb-4986-ba0e-4f770e58986e" d="M397.986 165.801L393 174.436l-4.986-8.635h9.972zM397.986 148.071L393 139.436l-4.986 8.635h9.972z"/><path class="a8f9bcc3-567b-4319-afc5-a5680284831e" d="M117.5 167.26v-20.648"/><path class="ab10a391-d6bb-4986-ba0e-4f770e58986e" d="M122.486 165.801l-4.986 8.635-4.987-8.635h9.973zM122.486 148.071l-4.986-8.635-4.987 8.635h9.973z"/><path class="a8f9bcc3-567b-4319-afc5-a5680284831e" d="M393 267.26v-20.648"/><path class="ab10a391-d6bb-4986-ba0e-4f770e58986e" d="M397.986 265.801L393 274.436l-4.986-8.635h9.972zM397.986 248.071L393 239.436l-4.986 8.635h9.972z"/><path class="a8f9bcc3-567b-4319-afc5-a5680284831e" d="M117.5 267.26v-20.648"/><path class="ab10a391-d6bb-4986-ba0e-4f770e58986e" d="M122.486 265.801l-4.986 8.635-4.987-8.635h9.973zM122.486 248.071l-4.986-8.635-4.987 8.635h9.973z"/><path class="f8303b45-4404-478b-8bf6-48993c464c0c" d="M290.5 176.495h205v60h-205z"/><text class="b6555dac-9d99-4193-917b-ee13525a861c" transform="translate(374.179 211.38)">Maven</text><path class="f8303b45-4404-478b-8bf6-48993c464c0c" d="M14.999 176.936h205v60h-205z"/><text class="b6555dac-9d99-4193-917b-ee13525a861c" transform="translate(108.691 211.821)">Git</text><path class="f8303b45-4404-478b-8bf6-48993c464c0c" d="M15 276.936h480.5v60H15z"/><text class="b6555dac-9d99-4193-917b-ee13525a861c" transform="translate(209.315 311.821)">CI/CD (Jenkins)</text><g><text transform="translate(679.172 336.796)" font-size="10" font-family="RedHatText,&quot;Red Hat Text&quot;,Overpass,&quot;Helvetica Neue&quot;,Arial,sans-serif" fill="#e8e8e8">123_RHPAM_1020</text><path fill="none" d="M-.001 314.436h760v40h-760z"/></g><g><path class="e07233a0-7778-4e4d-b6d9-396e15b76fed" d="M509.5 20.932v115h-233v-115h233m1-1h-235v117h235v-117z"/><text class="eec29761-325d-4f5c-8927-1d39ba6779ac" transform="translate(290.5 47.059)">KIE Server</text><path fill="#e5f0fa" d="M290.5 61.932h205v60h-205z"/><text class="b6555dac-9d99-4193-917b-ee13525a861c" transform="translate(338.155 96.817)">Red Hat JBoss EAP</text></g><path class="e07233a0-7778-4e4d-b6d9-396e15b76fed" d="M555 61.932h205v60H555z"/><text transform="translate(569.464 91.817)" fill="#fff" font-family="RedHatText,&quot;Red Hat Text&quot;,Overpass,&quot;Helvetica Neue&quot;,Arial,sans-serif" font-weight="700" font-size="12">Red Hat Business Automation<tspan x="59.825" y="13">Database</tspan></text><path class="e07233a0-7778-4e4d-b6d9-396e15b76fed" d="M234 20.932v115H1v-115h233m1-1H0v117h235v-117z"/><text class="eec29761-325d-4f5c-8927-1d39ba6779ac" transform="translate(15 47.059)">IDE</text><g><path class="a8f9bcc3-567b-4319-afc5-a5680284831e" d="M519.926 91.817h25.648"/><path class="ab10a391-d6bb-4986-ba0e-4f770e58986e" d="M521.385 96.803l-8.635-4.986 8.635-4.987v9.973zM544.114 96.803l8.636-4.986-8.636-4.987v9.973z"/></g></svg>