<svg id="abddc950-1055-4a48-97fe-e10d473473ba" data-name="artwork" xmlns="http://www.w3.org/2000/svg" width="760" height="426"><defs><style>.e85dc689-f471-40a1-9834-42554f4a691a{fill:#e8e8e8}.a3ebec5b-06b0-49c6-a586-ab6d2460e2bd,.b56e0df2-af6c-4c28-82e0-d357ef7dff98,.f3be8521-8147-4732-b784-889144e4c0af{fill:#151515}.f3be8521-8147-4732-b784-889144e4c0af{font-family:RedHatText,&quot;Red Hat Text&quot;,Overpass,&quot;Helvetica Neue&quot;,Arial,sans-serif;font-weight:700}.a6aa2f27-b53c-4cc2-9e6a-33d5087ed386{fill:none;stroke:#151515;stroke-linecap:round;stroke-linejoin:round}.bf7c0b72-b119-4c58-8705-b231804aa601{fill:#fff}.be982fec-54df-4fbd-bdbc-2adcf5ae97a1{fill:#06c}.a3ebec5b-06b0-49c6-a586-ab6d2460e2bd,.f3be8521-8147-4732-b784-889144e4c0af{font-size:12px}.ae73177e-cf25-41cb-8091-39bc519480c0{fill:#e5f0fa}.a3ebec5b-06b0-49c6-a586-ab6d2460e2bd{font-family:RedHatText,&quot;Red Hat Text&quot;,Overpass,&quot;Helvetica Neue&quot;,Arial,sans-serif;font-weight:500}</style></defs><path class="e85dc689-f471-40a1-9834-42554f4a691a" d="M0 19.932h760v396.223H0z"/><text transform="translate(29.999 56.831)" font-family="RedHatText,&quot;Red Hat Text&quot;,Overpass,&quot;Helvetica Neue&quot;,Arial,sans-serif" font-weight="700" fill="#151515" font-size="14">Red Hat OpenShift Container Platform</text><path class="a6aa2f27-b53c-4cc2-9e6a-33d5087ed386" d="M244.676 192.936h23.147"/><path class="b56e0df2-af6c-4c28-82e0-d357ef7dff98" d="M246.135 197.922l-8.635-4.986 8.635-4.986v9.972zM266.365 197.922l8.635-4.986-8.635-4.986v9.972z"/><path class="a6aa2f27-b53c-4cc2-9e6a-33d5087ed386" d="M492.176 192.936h23.147"/><path class="b56e0df2-af6c-4c28-82e0-d357ef7dff98" d="M493.635 197.922L485 192.936l8.635-4.986v9.972zM513.864 197.922l8.636-4.986-8.636-4.986v9.972z"/><path class="bf7c0b72-b119-4c58-8705-b231804aa601" d="M277.499 81.936h205v301h-205z"/><path class="be982fec-54df-4fbd-bdbc-2adcf5ae97a1" d="M466.5 121.936v245h-173v-245h173m1-1h-175v247h175v-247z"/><text class="f3be8521-8147-4732-b784-889144e4c0af" transform="translate(307.5 148.063)">KIE Server</text><text class="f3be8521-8147-4732-b784-889144e4c0af" transform="translate(292.499 104.537)">Container</text><path class="ae73177e-cf25-41cb-8091-39bc519480c0" d="M307.5 162.936h145v60h-145z"/><text class="a3ebec5b-06b0-49c6-a586-ab6d2460e2bd" transform="translate(325.154 197.821)">Red Hat JBoss EAP</text><path class="be982fec-54df-4fbd-bdbc-2adcf5ae97a1" d="M525 162.942h205v59.988H525z"/><text transform="translate(539.463 192.821)" font-size="12" fill="#fff" font-family="RedHatText,&quot;Red Hat Text&quot;,Overpass,&quot;Helvetica Neue&quot;,Arial,sans-serif" font-weight="700">Red Hat Business Automation<tspan x="59.825" y="13">Database</tspan></text><path class="bf7c0b72-b119-4c58-8705-b231804aa601" d="M30 81.936h205v301H30z"/><path class="be982fec-54df-4fbd-bdbc-2adcf5ae97a1" d="M219 121.936v245H46v-245h173m1-1H45v247h175v-247z"/><text class="f3be8521-8147-4732-b784-889144e4c0af" transform="translate(60 148.063)">Business Central</text><text class="f3be8521-8147-4732-b784-889144e4c0af" transform="translate(45 104.538)">Container</text><path class="e85dc689-f471-40a1-9834-42554f4a691a" d="M60 162.936h145v60H60z"/><text class="a3ebec5b-06b0-49c6-a586-ab6d2460e2bd" transform="translate(113.678 197.821)">Maven</text><path class="e85dc689-f471-40a1-9834-42554f4a691a" d="M60 227.936h145v60H60z"/><text class="a3ebec5b-06b0-49c6-a586-ab6d2460e2bd" transform="translate(123.692 262.821)">Git</text><path class="ae73177e-cf25-41cb-8091-39bc519480c0" d="M60 292.821h145v60H60z"/><text class="a3ebec5b-06b0-49c6-a586-ab6d2460e2bd" transform="translate(77.655 327.706)">Red Hat JBoss EAP</text><g><text transform="translate(658.796 399.172)" font-size="10" fill="#dcdcdc" font-family="RedHatText,&quot;Red Hat Text&quot;,Overpass,&quot;Helvetica Neue&quot;,Arial,sans-serif">123_RHPAM_1020</text><path fill="none" d="M0 376.155h760v40H0z"/></g></svg>