<svg id="aedd8c4d-37a2-4634-b8b3-f2093d8a0729" data-name="artwork" xmlns="http://www.w3.org/2000/svg" width="760" height="354.436"><defs><style>.acdf6b44-10fb-4f1a-a2e2-3359408158fb{fill:none;stroke:#151515;stroke-linecap:round;stroke-linejoin:round}.a3c655a0-05aa-4416-bdbc-185d5a9177b2,.b7a7b433-c803-4b7f-984e-681178faa30a,.f83063ab-3123-4ee0-8227-97cd75c1a750{fill:#151515}.bbcc88b6-1370-4100-9c95-799254a0234e{fill:#e8e8e8}.b7a7b433-c803-4b7f-984e-681178faa30a,.f83063ab-3123-4ee0-8227-97cd75c1a750{font-size:12px}.b7a7b433-c803-4b7f-984e-681178faa30a{font-family:RedHatText,&quot;Red Hat Text&quot;,Overpass,&quot;Helvetica Neue&quot;,Arial,sans-serif;font-weight:500}.ed933603-de54-4005-98b0-018247f97793{fill:#06c}.f83063ab-3123-4ee0-8227-97cd75c1a750{font-family:RedHatText,&quot;Red Hat Text&quot;,Overpass,&quot;Helvetica Neue&quot;,Arial,sans-serif;font-weight:700}</style></defs><path class="acdf6b44-10fb-4f1a-a2e2-3359408158fb" d="M393 167.26v-20.648"/><path class="a3c655a0-05aa-4416-bdbc-185d5a9177b2" d="M397.986 165.801L393 174.436l-4.986-8.635h9.972zM397.986 148.071L393 139.436l-4.986 8.635h9.972z"/><path class="acdf6b44-10fb-4f1a-a2e2-3359408158fb" d="M117.499 167.26v-20.648"/><path class="a3c655a0-05aa-4416-bdbc-185d5a9177b2" d="M122.485 165.801l-4.986 8.635-4.986-8.635h9.972zM122.485 148.071l-4.986-8.635-4.986 8.635h9.972z"/><path class="acdf6b44-10fb-4f1a-a2e2-3359408158fb" d="M393 267.26v-20.648"/><path class="a3c655a0-05aa-4416-bdbc-185d5a9177b2" d="M397.986 265.801L393 274.436l-4.986-8.635h9.972zM397.986 248.071L393 239.436l-4.986 8.635h9.972z"/><path class="acdf6b44-10fb-4f1a-a2e2-3359408158fb" d="M117.499 267.26v-20.648"/><path class="a3c655a0-05aa-4416-bdbc-185d5a9177b2" d="M122.485 265.801l-4.986 8.635-4.986-8.635h9.972zM122.485 248.071l-4.986-8.635-4.986 8.635h9.972z"/><path class="bbcc88b6-1370-4100-9c95-799254a0234e" d="M290.5 176.495h205v60h-205z"/><text class="b7a7b433-c803-4b7f-984e-681178faa30a" transform="translate(374.178 211.38)">Maven</text><path class="bbcc88b6-1370-4100-9c95-799254a0234e" d="M14.999 176.936h205v60h-205z"/><text class="b7a7b433-c803-4b7f-984e-681178faa30a" transform="translate(108.691 211.821)">Git</text><path class="bbcc88b6-1370-4100-9c95-799254a0234e" d="M14.999 276.936h480.5v60h-480.5z"/><text class="b7a7b433-c803-4b7f-984e-681178faa30a" transform="translate(209.314 311.821)">CI/CD (Jenkins)</text><g><text transform="translate(679.172 331.796)" font-size="10" font-family="RedHatText,&quot;Red Hat Text&quot;,Overpass,&quot;Helvetica Neue&quot;,Arial,sans-serif" fill="#e8e8e8">123_RHPAM_1020</text><path fill="none" d="M-.001 309.436h760v40h-760z"/></g><g><path class="ed933603-de54-4005-98b0-018247f97793" d="M509.5 20.932v115h-233v-115h233m1-1h-235v117h235v-117z"/><text class="f83063ab-3123-4ee0-8227-97cd75c1a750" transform="translate(290.5 47.059)">Custom Application</text><path fill="#e5f0fa" d="M290.5 61.932h205v60h-205z"/><text class="b7a7b433-c803-4b7f-984e-681178faa30a" transform="translate(309.451 91.817)">Red Hat Business Automation<tspan x="58.781" y="13">Libraries</tspan></text></g><path class="ed933603-de54-4005-98b0-018247f97793" d="M555 61.932h205v60H555z"/><text transform="translate(569.463 91.817)" fill="#fff" font-family="RedHatText,&quot;Red Hat Text&quot;,Overpass,&quot;Helvetica Neue&quot;,Arial,sans-serif" font-weight="700" font-size="12">Red Hat Business Automation<tspan x="59.825" y="13">Database</tspan></text><path class="ed933603-de54-4005-98b0-018247f97793" d="M234 20.932v115H1v-115h233m1-1H0v117h235v-117z"/><text class="f83063ab-3123-4ee0-8227-97cd75c1a750" transform="translate(14.999 47.059)">IDE</text><g><path class="acdf6b44-10fb-4f1a-a2e2-3359408158fb" d="M519.926 91.817h25.648"/><path class="a3c655a0-05aa-4416-bdbc-185d5a9177b2" d="M521.385 96.803l-8.635-4.986 8.635-4.987v9.973zM544.114 96.803l8.636-4.986-8.636-4.987v9.973z"/></g></svg>