<svg id="bdbd798e-878f-4792-bd96-6d7589336155" data-name="Layer 1" xmlns="http://www.w3.org/2000/svg" width="760" height="472.785"><defs><style>.a33bd741-c013-42b6-99da-44277f19de1c,.a936556c-9039-4e3d-86a0-189dd5ce489a,.be085ef8-2779-494c-9cc6-178611f2b94b,.e3dcfffc-b728-41d2-a5dc-111e35fa3a19,.e58fb66d-bc02-46b4-bca2-08d160faa729{fill:none}.a33bd741-c013-42b6-99da-44277f19de1c,.be085ef8-2779-494c-9cc6-178611f2b94b,.e58fb66d-bc02-46b4-bca2-08d160faa729{stroke:#adadad}.a33bd741-c013-42b6-99da-44277f19de1c,.a936556c-9039-4e3d-86a0-189dd5ce489a,.be085ef8-2779-494c-9cc6-178611f2b94b,.e3dcfffc-b728-41d2-a5dc-111e35fa3a19,.e58fb66d-bc02-46b4-bca2-08d160faa729{stroke-linecap:round;stroke-linejoin:round}.be085ef8-2779-494c-9cc6-178611f2b94b{stroke-dasharray:3.019 3.019}.e58fb66d-bc02-46b4-bca2-08d160faa729{stroke-dasharray:2.992 2.992}.fdacb085-c204-49d2-8c2a-1aa18c6c2d9f{fill:#e8e8e8}.a2447e2e-a0af-4785-b080-4bf300685c23,.bc2c4bae-2174-4bc2-8d1f-ecf212e48099{fill:#fff}.b0cdb549-4514-41f8-934c-648cb5f1ece9,.bc2c4bae-2174-4bc2-8d1f-ecf212e48099,.f64b3c63-7324-47db-9bcc-d5ee3d35c102{font-size:12px}.b0cdb549-4514-41f8-934c-648cb5f1ece9,.b48b9f2a-e049-460a-bcff-580b033fb8e7,.f64b3c63-7324-47db-9bcc-d5ee3d35c102{fill:#151515}.b0cdb549-4514-41f8-934c-648cb5f1ece9,.bc2c4bae-2174-4bc2-8d1f-ecf212e48099{font-family:RedHatText,&quot;Red Hat Text&quot;,Overpass,&quot;Helvetica Neue&quot;,Arial,sans-serif;font-weight:500}.b634c262-dd65-45a9-94b9-3bdb17ab81b7{letter-spacing:-.087em}.a5c65135-2d6c-433b-bafa-36f06221b099{letter-spacing:.004em}.aae405f4-702e-49cd-91c1-8c4b01983a24{letter-spacing:.002em}.eaf1d1f7-2b5c-4c97-a590-6d403c4e510f{fill:#d9e8f7}.aa0f47b7-aa0f-401d-82e4-48233afe27a6{fill:#06c}.a936556c-9039-4e3d-86a0-189dd5ce489a{stroke:#06c}.f86fa5f6-9ad0-4f23-b8b2-cae462b189cc{letter-spacing:-.021em}.b1b4d78b-b6fb-4dc1-a90d-751ee28dfea7{letter-spacing:.002em}.a7cf6eea-157b-44db-8986-d53a579a8502{letter-spacing:.006em}.affe880d-ba35-4c99-b49a-ef112127549b{letter-spacing:.003em}.a954f312-7f0e-4b5f-921f-e4adc03b531f{letter-spacing:.007em}.af62e74a-0a79-4b8c-b114-41cbdab98c4d{letter-spacing:-.004em}.b4dfec22-5ced-480c-9a00-cb93c71648bc{letter-spacing:.028em}.b10ae5b6-b3cb-4db5-b090-361e2bda1df7{letter-spacing:-.005em}.b9d7666d-60f9-4729-bc3d-7ca2418c0a51{letter-spacing:.003em}.f64b3c63-7324-47db-9bcc-d5ee3d35c102{font-family:RedHatText,&quot;Red Hat Text&quot;,Overpass,&quot;Helvetica Neue&quot;,Arial,sans-serif;font-weight:700}.b8ec20f6-c6d9-4fdd-80bb-20aef4296a77{letter-spacing:.008em}.b2825345-b1ff-4f4e-a80e-93938f6dcbb1{letter-spacing:-.001em}.b423093d-cff6-4b16-909c-7c5175e0b878{letter-spacing:.004em}.a65e7b99-77b6-433f-98fb-9d0d3e90d09d{letter-spacing:-.027em}.aedbe1b1-cd5e-4970-be89-bb7e3550b0ac{letter-spacing:.006em}.eae11e9e-168f-4dd8-a2eb-26178830d59c{font-family:RedHatText,&quot;Red Hat Text&quot;,Overpass,&quot;Helvetica Neue&quot;,Arial,sans-serif;font-weight:400}.ac10ae79-1900-40b0-a112-c439eafe5ffb{letter-spacing:-.012em}.f7a15e38-3455-4fc3-b5e4-d935da852535{letter-spacing:-.028em}.b3e80552-5e64-4637-b818-9508cafe495b{letter-spacing:.003em}.af1e08ea-8b3e-4757-841f-a32dd2f52963{letter-spacing:-.06em}.bddfaab2-c29c-4b01-b0d4-1b6c2ec15899{letter-spacing:.005em}.be8da5ca-91c8-4234-8e70-841b86273460{letter-spacing:.002em}.bca158e2-e4be-4aa8-9b23-13fff24f889f{letter-spacing:-.003em}.e313f442-5154-4055-ab80-fcf92923eed8{letter-spacing:-.024em}.b76bf931-edc0-4afe-950b-7d40e7952792{letter-spacing:.003em}.bf230c57-46b7-4532-9e25-eb1c465eb360{letter-spacing:.001em}.a6714f4c-f1b9-4c53-9839-d54f5a7bbe98{letter-spacing:-.001em}.a88ed7b1-c5cd-4dc1-84ef-5e14a7306a3c{letter-spacing:-.003em}.a1cd5fb8-6979-4cfb-8544-1a1fa1bc8328{letter-spacing:0}.b96e7af8-a5ea-490f-a634-dd945efa295b{letter-spacing:-.001em}.e3dcfffc-b728-41d2-a5dc-111e35fa3a19{stroke:#151515}</style></defs><path class="a33bd741-c013-42b6-99da-44277f19de1c" d="M505.25 422.455v1.5h-1.5"/><path class="be085ef8-2779-494c-9cc6-178611f2b94b" d="M500.731 423.955H272.76"/><path class="a33bd741-c013-42b6-99da-44277f19de1c" d="M271.25 423.955h-1.5v-1.5"/><path class="e58fb66d-bc02-46b4-bca2-08d160faa729" d="M269.75 419.463V49.951"/><path class="a33bd741-c013-42b6-99da-44277f19de1c" d="M269.75 48.455v-1.5h1.5"/><path class="be085ef8-2779-494c-9cc6-178611f2b94b" d="M274.269 46.955H502.24"/><path class="a33bd741-c013-42b6-99da-44277f19de1c" d="M503.75 46.955h1.5v1.5"/><path class="e58fb66d-bc02-46b4-bca2-08d160faa729" d="M505.25 51.447v369.512"/><path class="fdacb085-c204-49d2-8c2a-1aa18c6c2d9f" d="M284.75 146.955h205v167h-205z"/><path class="a2447e2e-a0af-4785-b080-4bf300685c23" d="M299.75 205.955h175v93h-175z"/><text class="b0cdb549-4514-41f8-934c-648cb5f1ece9" transform="translate(314.751 229.06)"><tspan class="b634c262-dd65-45a9-94b9-3bdb17ab81b7">T</tspan><tspan class="a5c65135-2d6c-433b-bafa-36f06221b099" x="6.623" y="0">o</tspan><tspan class="aae405f4-702e-49cd-91c1-8c4b01983a24" x="13.853" y="0">p</tspan><tspan x="21.212" y="0">ic 1</tspan></text><path class="eaf1d1f7-2b5c-4c97-a590-6d403c4e510f" d="M314.75 243.955h45v40h-45z"/><text class="b0cdb549-4514-41f8-934c-648cb5f1ece9" transform="translate(335.198 267.299)">1</text><path class="aa0f47b7-aa0f-401d-82e4-48233afe27a6" d="M364.75 243.974h45v40h-45z"/><text class="bc2c4bae-2174-4bc2-8d1f-ecf212e48099" transform="translate(383.83 267.298)">2</text><path class="eaf1d1f7-2b5c-4c97-a590-6d403c4e510f" d="M414.75 243.974h45v40h-45z"/><text class="b0cdb549-4514-41f8-934c-648cb5f1ece9" transform="translate(433.608 267.298)">3</text><path class="a936556c-9039-4e3d-86a0-189dd5ce489a" d="M387.25 121.955v112.343"/><path class="aa0f47b7-aa0f-401d-82e4-48233afe27a6" d="M382.264 232.839l4.986 8.635 4.986-8.635h-9.972z"/><path class="fdacb085-c204-49d2-8c2a-1aa18c6c2d9f" d="M364.75 175.215h45v17.5h-45z"/><path class="a2447e2e-a0af-4785-b080-4bf300685c23" d="M327.624 413.909h119.753v20.094H327.624z"/><text class="b0cdb549-4514-41f8-934c-648cb5f1ece9" transform="translate(335.212 427.587)"><tspan class="f86fa5f6-9ad0-4f23-b8b2-cae462b189cc">A</tspan><tspan class="b1b4d78b-b6fb-4dc1-a90d-751ee28dfea7" x="8.115" y="0">v</tspan><tspan class="a5c65135-2d6c-433b-bafa-36f06221b099" x="14.638" y="0">a</tspan><tspan class="a7cf6eea-157b-44db-8986-d53a579a8502" x="21.291" y="0">i</tspan><tspan class="affe880d-ba35-4c99-b49a-ef112127549b" x="24.391" y="0">l</tspan><tspan class="a954f312-7f0e-4b5f-921f-e4adc03b531f" x="27.456" y="0">a</tspan><tspan class="aae405f4-702e-49cd-91c1-8c4b01983a24" x="34.134" y="0">b</tspan><tspan class="a7cf6eea-157b-44db-8986-d53a579a8502" x="41.493" y="0">il</tspan><tspan class="af62e74a-0a79-4b8c-b114-41cbdab98c4d" x="47.692" y="0">i</tspan><tspan class="b4dfec22-5ced-480c-9a00-cb93c71648bc" x="50.668" y="0">t</tspan><tspan x="55.966" y="0">y </tspan><tspan class="b10ae5b6-b3cb-4db5-b090-361e2bda1df7" x="65.109" y="0">Z</tspan><tspan class="a5c65135-2d6c-433b-bafa-36f06221b099" x="72.403" y="0">o</tspan><tspan class="b9d7666d-60f9-4729-bc3d-7ca2418c0a51" x="79.633" y="0">n</tspan><tspan x="86.648" y="0">e B</tspan></text><path class="a33bd741-c013-42b6-99da-44277f19de1c" d="M759.5 422.455v1.5H758"/><path class="be085ef8-2779-494c-9cc6-178611f2b94b" d="M754.98 423.955H527.01"/><path class="a33bd741-c013-42b6-99da-44277f19de1c" d="M525.5 423.955H524v-1.5"/><path class="e58fb66d-bc02-46b4-bca2-08d160faa729" d="M524 419.463V49.951"/><path class="a33bd741-c013-42b6-99da-44277f19de1c" d="M524 48.455v-1.5h1.5"/><path class="be085ef8-2779-494c-9cc6-178611f2b94b" d="M528.519 46.955H756.49"/><path class="a33bd741-c013-42b6-99da-44277f19de1c" d="M758 46.955h1.5v1.5"/><path class="e58fb66d-bc02-46b4-bca2-08d160faa729" d="M759.5 51.447v369.512"/><path class="fdacb085-c204-49d2-8c2a-1aa18c6c2d9f" d="M539 146.955h205v167H539z"/><path class="a2447e2e-a0af-4785-b080-4bf300685c23" d="M554 205.955h175v93H554z"/><text class="f64b3c63-7324-47db-9bcc-d5ee3d35c102" transform="translate(553.5 172.298)"><tspan class="b8ec20f6-c6d9-4fdd-80bb-20aef4296a77">B</tspan><tspan class="b2825345-b1ff-4f4e-a80e-93938f6dcbb1" x="8.85" y="0">r</tspan><tspan class="b423093d-cff6-4b16-909c-7c5175e0b878" x="14.137" y="0">o</tspan><tspan class="a65e7b99-77b6-433f-98fb-9d0d3e90d09d" x="21.609" y="0">k</tspan><tspan class="aedbe1b1-cd5e-4970-be89-bb7e3550b0ac" x="28.529" y="0">e</tspan><tspan x="35.704" y="0">r 3</tspan><tspan class="eae11e9e-168f-4dd8-a2eb-26178830d59c"><tspan class="b9d7666d-60f9-4729-bc3d-7ca2418c0a51" x="0" y="15">b</tspan><tspan class="ac10ae79-1900-40b0-a112-c439eafe5ffb" x="7.028" y="15">r</tspan><tspan class="b9d7666d-60f9-4729-bc3d-7ca2418c0a51" x="11.108" y="15">o</tspan><tspan class="f7a15e38-3455-4fc3-b5e4-d935da852535" x="18.112" y="15">k</tspan><tspan class="b3e80552-5e64-4637-b818-9508cafe495b" x="23.643" y="15">e</tspan><tspan class="af1e08ea-8b3e-4757-841f-a32dd2f52963" x="30.356" y="15">r</tspan><tspan class="bddfaab2-c29c-4b01-b0d4-1b6c2ec15899" x="33.855" y="15">.</tspan><tspan class="b1b4d78b-b6fb-4dc1-a90d-751ee28dfea7" x="36.555" y="15">r</tspan><tspan x="40.797" y="15">a</tspan><tspan class="be8da5ca-91c8-4234-8e70-841b86273460" x="47.108" y="15">c</tspan><tspan class="a5c65135-2d6c-433b-bafa-36f06221b099" x="53.24" y="15">k</tspan><tspan class="bca158e2-e4be-4aa8-9b23-13fff24f889f" x="59.162" y="15">=</tspan><tspan class="e313f442-5154-4055-ab80-fcf92923eed8" x="65.522" y="15">z</tspan><tspan class="b76bf931-edc0-4afe-950b-7d40e7952792" x="70.748" y="15">o</tspan><tspan class="bf230c57-46b7-4532-9e25-eb1c465eb360" x="77.753" y="15">n</tspan><tspan class="a6714f4c-f1b9-4c53-9839-d54f5a7bbe98" x="84.386" y="15">e</tspan><tspan class="a88ed7b1-c5cd-4dc1-84ef-5e14a7306a3c" x="91.058" y="15">-</tspan><tspan class="a1cd5fb8-6979-4cfb-8544-1a1fa1bc8328" x="96.481" y="15">c</tspan></tspan></text><text class="b0cdb549-4514-41f8-934c-648cb5f1ece9" transform="translate(569.001 229.06)"><tspan class="b634c262-dd65-45a9-94b9-3bdb17ab81b7">T</tspan><tspan class="a5c65135-2d6c-433b-bafa-36f06221b099" x="6.623" y="0">o</tspan><tspan class="aae405f4-702e-49cd-91c1-8c4b01983a24" x="13.853" y="0">p</tspan><tspan x="21.212" y="0">ic 1</tspan></text><path class="eaf1d1f7-2b5c-4c97-a590-6d403c4e510f" d="M569 243.955h45v40h-45z"/><text class="b0cdb549-4514-41f8-934c-648cb5f1ece9" transform="translate(589.448 267.299)">1</text><path class="eaf1d1f7-2b5c-4c97-a590-6d403c4e510f" d="M619 243.974h45v40h-45z"/><text class="b0cdb549-4514-41f8-934c-648cb5f1ece9" transform="translate(638.08 267.298)">2</text><path class="aa0f47b7-aa0f-401d-82e4-48233afe27a6" d="M669 243.974h45v40h-45z"/><text class="bc2c4bae-2174-4bc2-8d1f-ecf212e48099" transform="translate(687.858 267.298)">3</text><path class="a2447e2e-a0af-4785-b080-4bf300685c23" d="M581.874 413.909h119.753v20.094H581.874z"/><text class="b0cdb549-4514-41f8-934c-648cb5f1ece9" transform="translate(589.3 427.587)"><tspan class="f86fa5f6-9ad0-4f23-b8b2-cae462b189cc">A</tspan><tspan class="b1b4d78b-b6fb-4dc1-a90d-751ee28dfea7" x="8.115" y="0">v</tspan><tspan class="a5c65135-2d6c-433b-bafa-36f06221b099" x="14.638" y="0">a</tspan><tspan class="a7cf6eea-157b-44db-8986-d53a579a8502" x="21.291" y="0">i</tspan><tspan class="affe880d-ba35-4c99-b49a-ef112127549b" x="24.391" y="0">l</tspan><tspan class="a954f312-7f0e-4b5f-921f-e4adc03b531f" x="27.456" y="0">a</tspan><tspan class="aae405f4-702e-49cd-91c1-8c4b01983a24" x="34.134" y="0">b</tspan><tspan class="a7cf6eea-157b-44db-8986-d53a579a8502" x="41.493" y="0">il</tspan><tspan class="af62e74a-0a79-4b8c-b114-41cbdab98c4d" x="47.692" y="0">i</tspan><tspan class="b4dfec22-5ced-480c-9a00-cb93c71648bc" x="50.668" y="0">t</tspan><tspan x="55.966" y="0">y </tspan><tspan class="b10ae5b6-b3cb-4db5-b090-361e2bda1df7" x="65.109" y="0">Z</tspan><tspan class="a5c65135-2d6c-433b-bafa-36f06221b099" x="72.403" y="0">o</tspan><tspan class="b9d7666d-60f9-4729-bc3d-7ca2418c0a51" x="79.633" y="0">n</tspan><tspan x="86.648" y="0">e C</tspan></text><path class="a33bd741-c013-42b6-99da-44277f19de1c" d="M251 422.455v1.5h-1.5"/><path class="be085ef8-2779-494c-9cc6-178611f2b94b" d="M246.481 423.955H18.51"/><path class="a33bd741-c013-42b6-99da-44277f19de1c" d="M17 423.955h-1.5v-1.5"/><path class="e58fb66d-bc02-46b4-bca2-08d160faa729" d="M15.5 419.463V49.951"/><path class="a33bd741-c013-42b6-99da-44277f19de1c" d="M15.5 48.455v-1.5H17"/><path class="be085ef8-2779-494c-9cc6-178611f2b94b" d="M20.019 46.955H247.99"/><path class="a33bd741-c013-42b6-99da-44277f19de1c" d="M249.5 46.955h1.5v1.5"/><path class="e58fb66d-bc02-46b4-bca2-08d160faa729" d="M251 51.447v369.512"/><path class="fdacb085-c204-49d2-8c2a-1aa18c6c2d9f" d="M539 338.955h205v60H539z"/><text class="b0cdb549-4514-41f8-934c-648cb5f1ece9" transform="translate(611.011 364.863)"><tspan letter-spacing="-.008em">C</tspan><tspan class="a5c65135-2d6c-433b-bafa-36f06221b099" x="8.584" y="0">o</tspan><tspan x="15.813" y="0" letter-spacing=".01em">n</tspan><tspan x="22.915" y="0" letter-spacing=".005em">s</tspan><tspan x="28.727" y="0" letter-spacing=".006em">u</tspan><tspan x="35.786" y="0" letter-spacing=".004em">me</tspan><tspan x="53.26" y="0">r</tspan><tspan class="eae11e9e-168f-4dd8-a2eb-26178830d59c"><tspan class="be8da5ca-91c8-4234-8e70-841b86273460" x="-20.056" y="15">c</tspan><tspan x="-13.924" y="15" letter-spacing=".004em">l</tspan><tspan x="-11.196" y="15" letter-spacing="-.002em">i</tspan><tspan class="b3e80552-5e64-4637-b818-9508cafe495b" x="-8.541" y="15">e</tspan><tspan x="-1.827" y="15" letter-spacing="-.013em">n</tspan><tspan x="4.646" y="15" letter-spacing=".01em">t</tspan><tspan x="9.297" y="15" letter-spacing=".005em">.</tspan><tspan x="11.997" y="15" letter-spacing=".001em">r</tspan><tspan class="a1cd5fb8-6979-4cfb-8544-1a1fa1bc8328" x="16.238" y="15">a</tspan><tspan class="be8da5ca-91c8-4234-8e70-841b86273460" x="22.551" y="15">c</tspan><tspan class="a5c65135-2d6c-433b-bafa-36f06221b099" x="28.683" y="15">k</tspan><tspan class="a88ed7b1-c5cd-4dc1-84ef-5e14a7306a3c" x="34.604" y="15">=</tspan><tspan x="40.964" y="15" letter-spacing="-.023em">z</tspan><tspan class="b9d7666d-60f9-4729-bc3d-7ca2418c0a51" x="46.19" y="15">o</tspan><tspan x="53.194" y="15" letter-spacing=".001em">n</tspan><tspan class="a6714f4c-f1b9-4c53-9839-d54f5a7bbe98" x="59.828" y="15">e</tspan><tspan class="a88ed7b1-c5cd-4dc1-84ef-5e14a7306a3c" x="66.5" y="15">-</tspan><tspan x="71.924" y="15">c</tspan></tspan></text><path class="fdacb085-c204-49d2-8c2a-1aa18c6c2d9f" d="M30.5 146.955h205v167h-205z"/><path class="a2447e2e-a0af-4785-b080-4bf300685c23" d="M45.5 205.955h175v93h-175z"/><text class="f64b3c63-7324-47db-9bcc-d5ee3d35c102" transform="translate(45 172.298)"><tspan class="b8ec20f6-c6d9-4fdd-80bb-20aef4296a77">B</tspan><tspan class="b2825345-b1ff-4f4e-a80e-93938f6dcbb1" x="8.85" y="0">r</tspan><tspan class="b423093d-cff6-4b16-909c-7c5175e0b878" x="14.137" y="0">o</tspan><tspan class="a65e7b99-77b6-433f-98fb-9d0d3e90d09d" x="21.609" y="0">k</tspan><tspan class="aedbe1b1-cd5e-4970-be89-bb7e3550b0ac" x="28.529" y="0">e</tspan><tspan x="35.704" y="0">r 1</tspan><tspan class="eae11e9e-168f-4dd8-a2eb-26178830d59c"><tspan class="b9d7666d-60f9-4729-bc3d-7ca2418c0a51" x="0" y="15">b</tspan><tspan class="ac10ae79-1900-40b0-a112-c439eafe5ffb" x="7.028" y="15">r</tspan><tspan class="b9d7666d-60f9-4729-bc3d-7ca2418c0a51" x="11.108" y="15">o</tspan><tspan class="f7a15e38-3455-4fc3-b5e4-d935da852535" x="18.112" y="15">k</tspan><tspan class="b3e80552-5e64-4637-b818-9508cafe495b" x="23.643" y="15">e</tspan><tspan class="af1e08ea-8b3e-4757-841f-a32dd2f52963" x="30.356" y="15">r</tspan><tspan class="bddfaab2-c29c-4b01-b0d4-1b6c2ec15899" x="33.855" y="15">.</tspan><tspan class="b1b4d78b-b6fb-4dc1-a90d-751ee28dfea7" x="36.555" y="15">r</tspan><tspan x="40.797" y="15">a</tspan><tspan class="be8da5ca-91c8-4234-8e70-841b86273460" x="47.108" y="15">c</tspan><tspan class="a5c65135-2d6c-433b-bafa-36f06221b099" x="53.24" y="15">k</tspan><tspan class="bca158e2-e4be-4aa8-9b23-13fff24f889f" x="59.162" y="15">=</tspan><tspan class="e313f442-5154-4055-ab80-fcf92923eed8" x="65.522" y="15">z</tspan><tspan class="b76bf931-edc0-4afe-950b-7d40e7952792" x="70.748" y="15">o</tspan><tspan class="bf230c57-46b7-4532-9e25-eb1c465eb360" x="77.753" y="15">n</tspan><tspan class="a6714f4c-f1b9-4c53-9839-d54f5a7bbe98" x="84.386" y="15">e</tspan><tspan x="91.058" y="15" letter-spacing="-.021em">-</tspan><tspan x="96.266" y="15">a</tspan></tspan></text><text class="b0cdb549-4514-41f8-934c-648cb5f1ece9" transform="translate(60.501 229.06)"><tspan class="b634c262-dd65-45a9-94b9-3bdb17ab81b7">T</tspan><tspan class="a5c65135-2d6c-433b-bafa-36f06221b099" x="6.623" y="0">o</tspan><tspan class="aae405f4-702e-49cd-91c1-8c4b01983a24" x="13.853" y="0">p</tspan><tspan x="21.212" y="0">ic 1</tspan></text><path class="aa0f47b7-aa0f-401d-82e4-48233afe27a6" d="M60.5 243.955h45v40h-45z"/><text class="bc2c4bae-2174-4bc2-8d1f-ecf212e48099" transform="translate(80.948 267.299)">1</text><path class="eaf1d1f7-2b5c-4c97-a590-6d403c4e510f" d="M110.5 243.974h45v40h-45z"/><text class="b0cdb549-4514-41f8-934c-648cb5f1ece9" transform="translate(129.58 267.298)">2</text><path class="eaf1d1f7-2b5c-4c97-a590-6d403c4e510f" d="M160.5 243.974h45v40h-45z"/><text class="b0cdb549-4514-41f8-934c-648cb5f1ece9" transform="translate(179.358 267.298)">3</text><path class="eaf1d1f7-2b5c-4c97-a590-6d403c4e510f" d="M71.5 14.721l-18-.008V32.71l.002.003h17.991l.007-17.992z"/><path class="aa0f47b7-aa0f-401d-82e4-48233afe27a6" d="M48.5 14.721l-18-.008V32.71l.002.003h17.991l.007-17.992z"/><text class="b0cdb549-4514-41f8-934c-648cb5f1ece9" transform="translate(77.201 27.036)"><tspan letter-spacing="-.01em">P</tspan><tspan x="8.031" y="0" letter-spacing=".007em">a</tspan><tspan x="14.709" y="0" letter-spacing=".019em">r</tspan><tspan class="b96e7af8-a5ea-490f-a634-dd945efa295b" x="19.659" y="0">t</tspan><tspan x="24.614" y="0" letter-spacing="-.004em">i</tspan><tspan class="b96e7af8-a5ea-490f-a634-dd945efa295b" x="27.59" y="0">t</tspan><tspan x="32.544" y="0">i</tspan><tspan x="35.568" y="0" letter-spacing=".005em">o</tspan><tspan x="42.798" y="0">n</tspan></text><g><path class="a936556c-9039-4e3d-86a0-189dd5ce489a" d="M284.105 91.955H.5v172.019h50.324"/><path class="aa0f47b7-aa0f-401d-82e4-48233afe27a6" d="M49.365 268.961L58 263.974l-8.635-4.986v9.973z"/></g><g><path class="a936556c-9039-4e3d-86a0-189dd5ce489a" d="M489.75 91.955H691.5v142.343"/><path class="aa0f47b7-aa0f-401d-82e4-48233afe27a6" d="M686.513 232.839l4.987 8.635 4.986-8.635h-9.973z"/></g><g><path class="e3dcfffc-b728-41d2-a5dc-111e35fa3a19" d="M591.5 283.974v45.305"/><path class="b48b9f2a-e049-460a-bcff-580b033fb8e7" d="M586.514 327.82l4.986 8.635 4.986-8.635h-9.972z"/></g><g><path class="e3dcfffc-b728-41d2-a5dc-111e35fa3a19" d="M641.5 283.974v45.305"/><path class="b48b9f2a-e049-460a-bcff-580b033fb8e7" d="M636.514 327.82l4.986 8.635 4.986-8.635h-9.972z"/></g><g><path class="e3dcfffc-b728-41d2-a5dc-111e35fa3a19" d="M691.5 283.974v45.305"/><path class="b48b9f2a-e049-460a-bcff-580b033fb8e7" d="M686.514 327.82l4.986 8.635 4.986-8.635h-9.972z"/></g><path class="a2447e2e-a0af-4785-b080-4bf300685c23" d="M73.374 413.909h119.753v20.094H73.374z"/><text class="b0cdb549-4514-41f8-934c-648cb5f1ece9" transform="translate(80.956 427.587)"><tspan class="f86fa5f6-9ad0-4f23-b8b2-cae462b189cc">A</tspan><tspan class="b1b4d78b-b6fb-4dc1-a90d-751ee28dfea7" x="8.115" y="0">v</tspan><tspan class="a5c65135-2d6c-433b-bafa-36f06221b099" x="14.638" y="0">a</tspan><tspan class="a7cf6eea-157b-44db-8986-d53a579a8502" x="21.291" y="0">i</tspan><tspan class="affe880d-ba35-4c99-b49a-ef112127549b" x="24.391" y="0">l</tspan><tspan class="a954f312-7f0e-4b5f-921f-e4adc03b531f" x="27.456" y="0">a</tspan><tspan class="aae405f4-702e-49cd-91c1-8c4b01983a24" x="34.134" y="0">b</tspan><tspan class="a7cf6eea-157b-44db-8986-d53a579a8502" x="41.493" y="0">il</tspan><tspan class="af62e74a-0a79-4b8c-b114-41cbdab98c4d" x="47.692" y="0">i</tspan><tspan class="b4dfec22-5ced-480c-9a00-cb93c71648bc" x="50.668" y="0">t</tspan><tspan x="55.966" y="0">y </tspan><tspan class="b10ae5b6-b3cb-4db5-b090-361e2bda1df7" x="65.109" y="0">Z</tspan><tspan class="a5c65135-2d6c-433b-bafa-36f06221b099" x="72.403" y="0">o</tspan><tspan class="b9d7666d-60f9-4729-bc3d-7ca2418c0a51" x="79.633" y="0">n</tspan><tspan x="86.648" y="0">e A</tspan></text><path class="fdacb085-c204-49d2-8c2a-1aa18c6c2d9f" d="M284.75 61.955h205v60h-205z"/><text class="b0cdb549-4514-41f8-934c-648cb5f1ece9" transform="translate(361.475 95.28)"><tspan letter-spacing="-.01em">P</tspan><tspan x="8.031" y="0" letter-spacing="-.007em">r</tspan><tspan x="12.669" y="0">o</tspan><tspan x="19.845" y="0" letter-spacing=".006em">d</tspan><tspan class="affe880d-ba35-4c99-b49a-ef112127549b" x="27.238" y="0">u</tspan><tspan x="34.263" y="0" letter-spacing="-.01em">c</tspan><tspan x="40.413" y="0" letter-spacing=".004em">e</tspan><tspan x="47.336" y="0">r</tspan></text><text class="f64b3c63-7324-47db-9bcc-d5ee3d35c102" transform="translate(299.25 172.298)"><tspan class="b8ec20f6-c6d9-4fdd-80bb-20aef4296a77">B</tspan><tspan class="b2825345-b1ff-4f4e-a80e-93938f6dcbb1" x="8.85" y="0">r</tspan><tspan class="b423093d-cff6-4b16-909c-7c5175e0b878" x="14.137" y="0">o</tspan><tspan class="a65e7b99-77b6-433f-98fb-9d0d3e90d09d" x="21.609" y="0">k</tspan><tspan class="aedbe1b1-cd5e-4970-be89-bb7e3550b0ac" x="28.529" y="0">e</tspan><tspan x="35.704" y="0">r 2</tspan><tspan class="eae11e9e-168f-4dd8-a2eb-26178830d59c"><tspan class="b9d7666d-60f9-4729-bc3d-7ca2418c0a51" x="0" y="15">b</tspan><tspan class="ac10ae79-1900-40b0-a112-c439eafe5ffb" x="7.028" y="15">r</tspan><tspan class="b9d7666d-60f9-4729-bc3d-7ca2418c0a51" x="11.108" y="15">o</tspan><tspan class="f7a15e38-3455-4fc3-b5e4-d935da852535" x="18.112" y="15">k</tspan><tspan class="b3e80552-5e64-4637-b818-9508cafe495b" x="23.643" y="15">e</tspan><tspan class="af1e08ea-8b3e-4757-841f-a32dd2f52963" x="30.356" y="15">r</tspan><tspan class="bddfaab2-c29c-4b01-b0d4-1b6c2ec15899" x="33.855" y="15">.</tspan><tspan class="b1b4d78b-b6fb-4dc1-a90d-751ee28dfea7" x="36.555" y="15">r</tspan><tspan x="40.797" y="15">a</tspan><tspan class="be8da5ca-91c8-4234-8e70-841b86273460" x="47.108" y="15">c</tspan><tspan class="a5c65135-2d6c-433b-bafa-36f06221b099" x="53.24" y="15">k</tspan><tspan class="bca158e2-e4be-4aa8-9b23-13fff24f889f" x="59.162" y="15">=</tspan><tspan class="e313f442-5154-4055-ab80-fcf92923eed8" x="65.522" y="15">z</tspan><tspan class="b76bf931-edc0-4afe-950b-7d40e7952792" x="70.748" y="15">o</tspan><tspan class="bf230c57-46b7-4532-9e25-eb1c465eb360" x="77.753" y="15">n</tspan><tspan class="a6714f4c-f1b9-4c53-9839-d54f5a7bbe98" x="84.386" y="15">e</tspan><tspan x="91.058" y="15" letter-spacing="-.008em">-</tspan><tspan x="96.422" y="15">b</tspan></tspan></text><g><text transform="translate(692.241 455.802)" font-size="10" fill="#f3f3f3" font-family="RedHatText,&quot;Red Hat Text&quot;,Overpass,&quot;Helvetica Neue&quot;,Arial,sans-serif">128_AMQ_1220</text><path fill="none" d="M0 432.785h760v40H0z"/></g></svg>