<svg id="a09b9d5e-b60f-4a33-9d6b-722309d3a9b0" data-name="artwork" xmlns="http://www.w3.org/2000/svg" width="760" height="609.123" viewBox="0 0 760 609.123">
  <defs>
    <style>
      .aa227134-56db-442c-9055-c7aec33e501d, .af4260a3-0ab4-4592-b0e4-2ae43d2cdbf7 {
        fill: #f3f3f3;
      }

      .bc806f14-d82d-4a3c-bca5-3de433ba80f8 {
        fill: #dedede;
      }

      .a4208f3a-203a-436e-a383-27501fc47bb8 {
        fill: #e8e8e8;
      }

      .f7e0d3cd-2bcb-4a6c-898e-d6f0ebcded07 {
        font-size: 12px;
        font-family: RedHatText-Bold, Red Hat Text;
        font-weight: 700;
      }

      .a6823188-ea3a-4166-a8e5-1b1e27a9c647, .f7e0d3cd-2bcb-4a6c-898e-d6f0ebcded07 {
        fill: #151515;
      }

      .a4f7a91a-3f9f-4d76-aaa0-e4ff85438a9b, .a6c4ea22-05db-4b42-9044-c928c3ed6541, .b842441e-2f8c-46bc-b5ec-803e13696a68, .b86139ca-2bdb-4711-9a6d-18574300012f, .f1d727a1-fe40-47a7-a316-a3e5e32da839 {
        fill: none;
      }

      .a4f7a91a-3f9f-4d76-aaa0-e4ff85438a9b {
        stroke: #06c;
      }

      .a4f7a91a-3f9f-4d76-aaa0-e4ff85438a9b, .a6c4ea22-05db-4b42-9044-c928c3ed6541, .b842441e-2f8c-46bc-b5ec-803e13696a68, .f1d727a1-fe40-47a7-a316-a3e5e32da839 {
        stroke-linecap: round;
        stroke-linejoin: round;
      }

      .a8433ddf-6d12-4f5e-909e-718d76d8057e {
        fill: #06c;
      }

      .a6823188-ea3a-4166-a8e5-1b1e27a9c647 {
        font-size: 11px;
        font-family: RedHatText-Medium, Red Hat Text;
        font-weight: 500;
      }

      .a3eed267-6634-4c5b-9968-fd4b0974f9b9 {
        fill: #d9e8f7;
      }

      .a6c4ea22-05db-4b42-9044-c928c3ed6541, .b842441e-2f8c-46bc-b5ec-803e13696a68, .f1d727a1-fe40-47a7-a316-a3e5e32da839 {
        stroke: #b9b9b9;
      }

      .b842441e-2f8c-46bc-b5ec-803e13696a68 {
        stroke-dasharray: 1.889 1.889;
      }

      .a6c4ea22-05db-4b42-9044-c928c3ed6541 {
        stroke-dasharray: 2.99 2.99;
      }

      .aa227134-56db-442c-9055-c7aec33e501d {
        font-size: 10px;
        font-family: RedHatText-Regular, Red Hat Text;
      }
    </style>
  </defs>
  <rect class="af4260a3-0ab4-4592-b0e4-2ae43d2cdbf7" y="16" width="119" height="553.45"/>
  <rect class="af4260a3-0ab4-4592-b0e4-2ae43d2cdbf7" x="129" y="16" width="119" height="553.45"/>
  <rect class="af4260a3-0ab4-4592-b0e4-2ae43d2cdbf7" x="258" y="16" width="119" height="553.45"/>
  <rect class="af4260a3-0ab4-4592-b0e4-2ae43d2cdbf7" x="387" y="16" width="119" height="553.45"/>
  <rect class="af4260a3-0ab4-4592-b0e4-2ae43d2cdbf7" x="516" y="16" width="119" height="553.45"/>
  <rect class="af4260a3-0ab4-4592-b0e4-2ae43d2cdbf7" x="645" y="16" width="115" height="553.45"/>
  <g>
    <rect class="bc806f14-d82d-4a3c-bca5-3de433ba80f8" x="10" y="137.804" width="109" height="30"/>
    <rect class="bc806f14-d82d-4a3c-bca5-3de433ba80f8" x="645" y="137.804" width="105" height="30"/>
    <rect class="a4208f3a-203a-436e-a383-27501fc47bb8" x="635" y="137.804" width="10" height="30"/>
    <rect class="a4208f3a-203a-436e-a383-27501fc47bb8" x="506" y="137.804" width="10" height="30"/>
    <rect class="a4208f3a-203a-436e-a383-27501fc47bb8" x="377" y="137.804" width="10" height="30"/>
    <rect class="a4208f3a-203a-436e-a383-27501fc47bb8" x="248" y="137.804" width="10" height="30"/>
    <rect class="a4208f3a-203a-436e-a383-27501fc47bb8" x="119" y="137.804" width="10" height="30"/>
    <rect class="bc806f14-d82d-4a3c-bca5-3de433ba80f8" x="129" y="137.804" width="119" height="30"/>
    <rect class="bc806f14-d82d-4a3c-bca5-3de433ba80f8" x="258" y="137.822" width="119" height="30"/>
    <rect class="bc806f14-d82d-4a3c-bca5-3de433ba80f8" x="387" y="137.822" width="119" height="30"/>
    <rect class="bc806f14-d82d-4a3c-bca5-3de433ba80f8" x="516" y="137.822" width="119" height="30"/>
  </g>
  <text class="f7e0d3cd-2bcb-4a6c-898e-d6f0ebcded07" transform="translate(10 40.788)">User</text>
  <text class="f7e0d3cd-2bcb-4a6c-898e-d6f0ebcded07" transform="translate(139.167 40.788)">Server</text>
  <text class="f7e0d3cd-2bcb-4a6c-898e-d6f0ebcded07" transform="translate(268.334 40.787)">Plug-in registry</text>
  <text class="f7e0d3cd-2bcb-4a6c-898e-d6f0ebcded07" transform="translate(397.5 40.788)">Workspace</text>
  <text class="f7e0d3cd-2bcb-4a6c-898e-d6f0ebcded07" transform="translate(526.5 40.788)">Plug-in</text>
  <text class="f7e0d3cd-2bcb-4a6c-898e-d6f0ebcded07" transform="translate(655.5 40.788)">Broker</text>
  <g>
    <line class="a4f7a91a-3f9f-4d76-aaa0-e4ff85438a9b" x1="568.324" y1="81.901" x2="10.5" y2="81.901"/>
    <polygon class="a8433ddf-6d12-4f5e-909e-718d76d8057e" points="566.865 76.914 575.5 81.901 566.865 86.887 566.865 76.914"/>
  </g>
  <text class="a6823188-ea3a-4166-a8e5-1b1e27a9c647" transform="translate(10 74.948)">Create plug-in</text>
  <g>
    <line class="a4f7a91a-3f9f-4d76-aaa0-e4ff85438a9b" x1="181.324" y1="243.351" x2="10.5" y2="243.351"/>
    <polygon class="a8433ddf-6d12-4f5e-909e-718d76d8057e" points="179.865 238.365 188.5 243.351 179.865 248.337 179.865 238.365"/>
  </g>
  <text class="a6823188-ea3a-4166-a8e5-1b1e27a9c647" transform="translate(10 236.398)">Start workspace</text>
  <g>
    <line class="a4f7a91a-3f9f-4d76-aaa0-e4ff85438a9b" x1="310.407" y1="278.351" x2="139.667" y2="278.351"/>
    <polygon class="a8433ddf-6d12-4f5e-909e-718d76d8057e" points="308.948 273.365 317.583 278.351 308.948 283.337 308.948 273.365"/>
  </g>
  <text class="a6823188-ea3a-4166-a8e5-1b1e27a9c647" transform="translate(139.167 271.398)">Find plug-in in registry</text>
  <g>
    <line class="a4f7a91a-3f9f-4d76-aaa0-e4ff85438a9b" x1="237.75" y1="544.463" x2="66.676" y2="544.463"/>
    <polygon class="a8433ddf-6d12-4f5e-909e-718d76d8057e" points="68.135 539.477 59.5 544.463 68.135 549.45 68.135 539.477"/>
  </g>
  <text class="a6823188-ea3a-4166-a8e5-1b1e27a9c647" transform="translate(130.254 537.511)">Workspace is started</text>
  <g>
    <line class="a4f7a91a-3f9f-4d76-aaa0-e4ff85438a9b" x1="439.324" y1="208.485" x2="10.5" y2="208.485"/>
    <polygon class="a8433ddf-6d12-4f5e-909e-718d76d8057e" points="437.865 203.499 446.5 208.485 437.865 213.471 437.865 203.499"/>
  </g>
  <text class="a6823188-ea3a-4166-a8e5-1b1e27a9c647" transform="translate(10 201.532)">Add plug-in to workspace</text>
  <text class="a6823188-ea3a-4166-a8e5-1b1e27a9c647" transform="translate(9.5 109.947)">Publish plug-in metadata</text>
  <g>
    <line class="a4f7a91a-3f9f-4d76-aaa0-e4ff85438a9b" x1="10" y1="116.901" x2="310.24" y2="116.901"/>
    <polygon class="a8433ddf-6d12-4f5e-909e-718d76d8057e" points="308.781 121.887 317.417 116.901 308.781 111.914 308.781 121.887"/>
  </g>
  <rect class="a3eed267-6634-4c5b-9968-fd4b0974f9b9" x="139.25" y="293.351" width="98.5" height="45"/>
  <text class="a6823188-ea3a-4166-a8e5-1b1e27a9c647" transform="translate(149.25 312.613)">Find broker<tspan x="0" y="12">for plug-in</tspan></text>
  <g>
    <line class="a4f7a91a-3f9f-4d76-aaa0-e4ff85438a9b" x1="694.824" y1="368.463" x2="139.917" y2="368.463"/>
    <polygon class="a8433ddf-6d12-4f5e-909e-718d76d8057e" points="693.365 363.477 702 368.463 693.365 373.45 693.365 363.477"/>
  </g>
  <text class="a6823188-ea3a-4166-a8e5-1b1e27a9c647" transform="translate(139.417 361.51)">Start broker and pass plug-in metadata</text>
  <text class="a6823188-ea3a-4166-a8e5-1b1e27a9c647" transform="translate(627.881 396.511)">Parse plug-in metadata</text>
  <g>
    <line class="a4f7a91a-3f9f-4d76-aaa0-e4ff85438a9b" x1="582.676" y1="403.463" x2="748.5" y2="403.463"/>
    <polygon class="a8433ddf-6d12-4f5e-909e-718d76d8057e" points="584.135 408.45 575.5 403.463 584.135 398.477 584.135 408.45"/>
  </g>
  <text class="a6823188-ea3a-4166-a8e5-1b1e27a9c647" transform="translate(622.557 431.511)">Download files if needed<tspan x="-15.125" y="18">Copy plug-in files if needed</tspan><tspan x="-62.083" y="36">Find or generate workspace changes</tspan></text>
  <text class="a6823188-ea3a-4166-a8e5-1b1e27a9c647" transform="translate(672.936 502.511)">Send response</text>
  <g>
    <line class="a4f7a91a-3f9f-4d76-aaa0-e4ff85438a9b" x1="195.676" y1="509.463" x2="748.5" y2="509.463"/>
    <polygon class="a8433ddf-6d12-4f5e-909e-718d76d8057e" points="197.135 514.45 188.5 509.463 197.135 504.477 197.135 514.45"/>
  </g>
  <g>
    <line class="a4f7a91a-3f9f-4d76-aaa0-e4ff85438a9b" x1="453.676" y1="474.463" x2="748.5" y2="474.463"/>
    <polygon class="a8433ddf-6d12-4f5e-909e-718d76d8057e" points="455.135 479.45 446.5 474.463 455.135 469.477 455.135 479.45"/>
  </g>
  <g>
    <line class="f1d727a1-fe40-47a7-a316-a3e5e32da839" x1="320.417" y1="116.901" x2="321.917" y2="116.901"/>
    <line class="b842441e-2f8c-46bc-b5ec-803e13696a68" x1="323.806" y1="116.901" x2="326.639" y2="116.901"/>
    <polyline class="f1d727a1-fe40-47a7-a316-a3e5e32da839" points="327.583 116.901 329.083 116.901 329.083 118.401"/>
    <line class="a6c4ea22-05db-4b42-9044-c928c3ed6541" x1="329.083" y1="121.39" x2="329.083" y2="275.356"/>
    <polyline class="f1d727a1-fe40-47a7-a316-a3e5e32da839" points="329.083 276.851 329.083 278.351 327.583 278.351"/>
    <line class="b842441e-2f8c-46bc-b5ec-803e13696a68" x1="325.695" y1="278.351" x2="322.861" y2="278.351"/>
    <line class="f1d727a1-fe40-47a7-a316-a3e5e32da839" x1="321.917" y1="278.351" x2="320.417" y2="278.351"/>
  </g>
  <rect class="bc806f14-d82d-4a3c-bca5-3de433ba80f8" x="272.985" y="144.068" width="69.514" height="17.507"/>
  <text class="a6823188-ea3a-4166-a8e5-1b1e27a9c647" transform="translate(294.939 157.128)">Plug-in creation process finished</text>
  <g>
    <text class="aa227134-56db-442c-9055-c7aec33e501d" transform="translate(668.302 592.141)">124_Codeready_1120</text>
    <rect class="b86139ca-2bdb-4711-9a6d-18574300012f" y="569.123" width="760" height="40"/>
  </g>
</svg>
