<svg id="e1e4f9a2-211f-4a79-b73d-deb28fc5c781" data-name="artwork" xmlns="http://www.w3.org/2000/svg" width="760" height="389.488"><defs><style>.a63f3b56-11f5-47ac-a21b-d4bcd69f6287,.acbaa456-3dcd-4885-9c16-58cf26cb9460,.acf3d697-669f-4876-8744-7275f7309f56,.e983427b-4393-4edf-aab9-883024b5f208,.fc953edc-8676-49cc-a5ef-af25894f1d08{fill:none}.a63f3b56-11f5-47ac-a21b-d4bcd69f6287,.acbaa456-3dcd-4885-9c16-58cf26cb9460,.e983427b-4393-4edf-aab9-883024b5f208{stroke:#06c}.a63f3b56-11f5-47ac-a21b-d4bcd69f6287,.acbaa456-3dcd-4885-9c16-58cf26cb9460,.acf3d697-669f-4876-8744-7275f7309f56,.e983427b-4393-4edf-aab9-883024b5f208,.fc953edc-8676-49cc-a5ef-af25894f1d08{stroke-linecap:round;stroke-linejoin:round}.acbaa456-3dcd-4885-9c16-58cf26cb9460{stroke-dasharray:2.992 2.992}.e983427b-4393-4edf-aab9-883024b5f208{stroke-dasharray:2.913 2.913}.a52f34c9-5936-451d-b1ed-2f3b2c524fdd{font-size:12px;fill:#151515}.acf09ce7-df2b-49f7-908b-44cf1a68006b{fill:#151515}.a52f34c9-5936-451d-b1ed-2f3b2c524fdd{font-family:RedHatText,&quot;Red Hat Text&quot;,Overpass,&quot;Helvetica Neue&quot;,Arial,sans-serif;font-weight:500}.b0592485-db40-43e4-9091-52cd69001bd1{fill:#e8e8e8}.fc953edc-8676-49cc-a5ef-af25894f1d08{stroke:#151515}.acf3d697-669f-4876-8744-7275f7309f56{stroke:#fff;stroke-width:2px}.a1178ed3-7995-413e-ab78-22ade7f8b6b9{fill:#fff}</style></defs><text transform="translate(671.012 372.505)" font-family="RedHatText,&quot;Red Hat Text&quot;,Overpass,&quot;Helvetica Neue&quot;,Arial,sans-serif" font-size="10" fill="#ececec">200_OpenShift_1121</text><path fill="none" d="M0 349.488h760v40H0z"/><path class="a63f3b56-11f5-47ac-a21b-d4bcd69f6287" d="M380.5 339.5v1.5H379"/><path class="acbaa456-3dcd-4885-9c16-58cf26cb9460" d="M376.008 341H18.496"/><path class="a63f3b56-11f5-47ac-a21b-d4bcd69f6287" d="M17 341h-1.5v-1.5"/><path class="e983427b-4393-4edf-aab9-883024b5f208" d="M15.5 336.587v-62.63"/><path class="a63f3b56-11f5-47ac-a21b-d4bcd69f6287" d="M15.5 272.5V271H17"/><path class="acbaa456-3dcd-4885-9c16-58cf26cb9460" d="M19.992 271h357.512"/><path class="a63f3b56-11f5-47ac-a21b-d4bcd69f6287" d="M379 271h1.5v1.5"/><path class="e983427b-4393-4edf-aab9-883024b5f208" d="M380.5 275.413v62.63"/><text class="a52f34c9-5936-451d-b1ed-2f3b2c524fdd" transform="translate(15 261)">OpenStack resources</text><path class="b0592485-db40-43e4-9091-52cd69001bd1" d="M15.5 16h365v205.5h-365z"/><text transform="translate(35.5 46.472)" font-size="14" font-family="RedHatText,&quot;Red Hat Text&quot;,Overpass,&quot;Helvetica Neue&quot;,Arial,sans-serif" font-weight="700" fill="#151515">Kubernetes cluster</text><path class="fc953edc-8676-49cc-a5ef-af25894f1d08" d="M280.5 126.176v15.648"/><path class="acf09ce7-df2b-49f7-908b-44cf1a68006b" d="M275.514 127.635L280.5 119l4.986 8.635h-9.972zM275.514 140.365L280.5 149l4.986-8.635h-9.972z"/><path class="acf3d697-669f-4876-8744-7275f7309f56" d="M393.5 306h-13.148"/><path class="a1178ed3-7995-413e-ab78-22ade7f8b6b9" d="M383.27 296.027L366 306l17.27 9.973v-19.946z"/><path class="acf3d697-669f-4876-8744-7275f7309f56" d="M7.5 306h8.148"/><path class="a1178ed3-7995-413e-ab78-22ade7f8b6b9" d="M12.73 315.973L30 306l-17.27-9.973v19.946z"/><path class="fc953edc-8676-49cc-a5ef-af25894f1d08" d="M370.176 91.5H395.5V306h-15.324"/><path class="acf09ce7-df2b-49f7-908b-44cf1a68006b" d="M371.635 96.486L363 91.5l8.635-4.986v9.972zM381.635 301.014L373 306l8.635 4.986v-9.972z"/><path class="fc953edc-8676-49cc-a5ef-af25894f1d08" d="M115.5 126.176v15.648"/><path class="acf09ce7-df2b-49f7-908b-44cf1a68006b" d="M110.514 127.635L115.5 119l4.986 8.635h-9.972zM110.514 140.365L115.5 149l4.986-8.635h-9.972z"/><path class="acf3d697-669f-4876-8744-7275f7309f56" d="M81.25 349v-8.148"/><path class="a1178ed3-7995-413e-ab78-22ade7f8b6b9" d="M91.223 343.77L81.25 326.5l-9.973 17.27h19.946z"/><path class="acf3d697-669f-4876-8744-7275f7309f56" d="M314.75 340.852V349"/><path class="a1178ed3-7995-413e-ab78-22ade7f8b6b9" d="M304.777 343.77l9.973-17.27 9.973 17.27h-19.946z"/><g><path class="acf3d697-669f-4876-8744-7275f7309f56" d="M198 340.852v9.376"/><path class="a1178ed3-7995-413e-ab78-22ade7f8b6b9" d="M188.027 343.77L198 326.5l9.973 17.27h-19.946z"/></g><g><path class="fc953edc-8676-49cc-a5ef-af25894f1d08" d="M314.75 340.676V356H81.25v-15.324"/><path class="acf09ce7-df2b-49f7-908b-44cf1a68006b" d="M309.764 342.135l4.986-8.635 4.986 8.635h-9.972zM86.236 342.135L81.25 333.5l-4.986 8.635h9.972z"/></g><g><path class="fc953edc-8676-49cc-a5ef-af25894f1d08" d="M198 340.676V356"/><path class="acf09ce7-df2b-49f7-908b-44cf1a68006b" d="M193.014 342.135L198 333.5l4.986 8.635h-9.972z"/></g><g><path class="fc953edc-8676-49cc-a5ef-af25894f1d08" d="M25.824 91.5H.5V306h15.324"/><path class="acf09ce7-df2b-49f7-908b-44cf1a68006b" d="M24.365 86.514L33 91.5l-8.635 4.986v-9.972zM14.365 310.986L23 306l-8.635-4.986v9.972z"/></g><path class="a1178ed3-7995-413e-ab78-22ade7f8b6b9" d="M35.5 66.5h325v50h-325z"/><text class="a52f34c9-5936-451d-b1ed-2f3b2c524fdd" transform="translate(177.042 94.825)">Service</text><path class="a1178ed3-7995-413e-ab78-22ade7f8b6b9" d="M35.5 151.5h160v50h-160z"/><text class="a52f34c9-5936-451d-b1ed-2f3b2c524fdd" transform="translate(100.776 179.825)">Pod 1</text><path class="a1178ed3-7995-413e-ab78-22ade7f8b6b9" d="M200.5 151.5h160v50h-160z"/><text class="a52f34c9-5936-451d-b1ed-2f3b2c524fdd" transform="translate(264.408 179.825)">Pod 2</text><path class="b0592485-db40-43e4-9091-52cd69001bd1" d="M25.5 281H137v50H25.5z"/><text class="a52f34c9-5936-451d-b1ed-2f3b2c524fdd" transform="translate(57.245 309.325)">Worker 1</text><path class="b0592485-db40-43e4-9091-52cd69001bd1" d="M142 281h112v50H142z"/><text class="a52f34c9-5936-451d-b1ed-2f3b2c524fdd" transform="translate(172.626 309.325)">Worker 2</text><text transform="translate(109.49 372.205)" fill="#151515" font-size="12" font-family="RedHatText,&quot;Red Hat Text&quot;,Overpass,&quot;Helvetica Neue&quot;,Arial,sans-serif">Exposed port in machines subnet</text><path class="b0592485-db40-43e4-9091-52cd69001bd1" d="M259 281h111.5v50H259z"/><text class="a52f34c9-5936-451d-b1ed-2f3b2c524fdd" transform="translate(289.154 309.325)">Worker 3</text><path class="fc953edc-8676-49cc-a5ef-af25894f1d08" d="M139.463 257.497L151.654 271"/></svg>