<svg id="e63e1678-295f-42db-9a8b-a3ce1aed7952" data-name="artwork" xmlns="http://www.w3.org/2000/svg" width="760" height="514.5"><defs><style>.bcc96f77-61ab-44e6-8ec3-6e2f00776866{font-size:12px;fill:#151515}.bfb09305-974a-47f0-ac21-cbc3f83f6b06{fill:#151515}.bcc96f77-61ab-44e6-8ec3-6e2f00776866{font-family:RedHatText,&quot;Red Hat Text&quot;,Overpass,&quot;Helvetica Neue&quot;,Arial,sans-serif;font-weight:500}.a5efa730-4f74-4c99-b7f6-df561e80ad2c,.ac45dae9-0808-46a7-9699-9692904a9584,.b15327d4-c6bb-4c60-a76b-61ffd4bb1caa,.b9ff242e-cea9-4730-8e7b-f087ddfe2dca,.e3e08270-5ece-4192-a88b-fb623bcb651f,.e89a5518-a494-4dc8-a898-5e9ddc404c32,.ebbd2f07-02cd-4e76-8d20-3868c804bdef{fill:none}.a5efa730-4f74-4c99-b7f6-df561e80ad2c{stroke:#4cb6d6}.a5efa730-4f74-4c99-b7f6-df561e80ad2c,.ac45dae9-0808-46a7-9699-9692904a9584,.b15327d4-c6bb-4c60-a76b-61ffd4bb1caa,.b9ff242e-cea9-4730-8e7b-f087ddfe2dca,.e3e08270-5ece-4192-a88b-fb623bcb651f,.e89a5518-a494-4dc8-a898-5e9ddc404c32,.ebbd2f07-02cd-4e76-8d20-3868c804bdef{stroke-linecap:round;stroke-linejoin:round}.a5efa730-4f74-4c99-b7f6-df561e80ad2c,.e89a5518-a494-4dc8-a898-5e9ddc404c32{stroke-width:2px}.b9ff242e-cea9-4730-8e7b-f087ddfe2dca,.e3e08270-5ece-4192-a88b-fb623bcb651f,.ebbd2f07-02cd-4e76-8d20-3868c804bdef{stroke:#06c}.e3e08270-5ece-4192-a88b-fb623bcb651f{stroke-dasharray:2.992 2.992}.b9ff242e-cea9-4730-8e7b-f087ddfe2dca{stroke-dasharray:2.913 2.913}.e89ce7f9-d445-44d1-a019-50f80f220004{fill:#e8e8e8}.be435eee-b32d-4b9f-971d-7cc66ef8bb89{fill:#fff}.ac45dae9-0808-46a7-9699-9692904a9584{stroke:#5b5b5b;stroke-width:1.5px}.b15327d4-c6bb-4c60-a76b-61ffd4bb1caa{stroke:#151515}.e89a5518-a494-4dc8-a898-5e9ddc404c32{stroke:#fff}</style></defs><text class="bcc96f77-61ab-44e6-8ec3-6e2f00776866" transform="translate(0 497.419)">Floating IP</text><path class="a5efa730-4f74-4c99-b7f6-df561e80ad2c" d="M1.041 483.315h393.401"/><path class="ebbd2f07-02cd-4e76-8d20-3868c804bdef" d="M381.041 339.5v1.5h-1.5"/><path class="e3e08270-5ece-4192-a88b-fb623bcb651f" d="M376.549 341H19.037"/><path class="ebbd2f07-02cd-4e76-8d20-3868c804bdef" d="M17.541 341h-1.5v-1.5"/><path class="b9ff242e-cea9-4730-8e7b-f087ddfe2dca" d="M16.041 336.587v-62.63"/><path class="ebbd2f07-02cd-4e76-8d20-3868c804bdef" d="M16.041 272.5V271h1.5"/><path class="e3e08270-5ece-4192-a88b-fb623bcb651f" d="M20.533 271h357.512"/><path class="ebbd2f07-02cd-4e76-8d20-3868c804bdef" d="M379.541 271h1.5v1.5"/><path class="b9ff242e-cea9-4730-8e7b-f087ddfe2dca" d="M381.041 275.413v62.63"/><text class="bcc96f77-61ab-44e6-8ec3-6e2f00776866" transform="translate(15.542 261)">OpenStack resources</text><path class="e89ce7f9-d445-44d1-a019-50f80f220004" d="M16.041 16h365v205.5h-365z"/><text transform="translate(142.794 458.246)" font-size="11" font-family="RedHatText,&quot;Red Hat Text&quot;,Overpass,&quot;Helvetica Neue&quot;,Arial,sans-serif" font-weight="500" fill="#151515">Octavia load balancer</text><path stroke-width="1.5" stroke="#5b5b5b" fill="#fff" stroke-linecap="round" stroke-linejoin="round" d="M180.092 427.401h36.898v14.25h-36.898z"/><path stroke="#5b5b5b" stroke-width="2" stroke-linecap="round" stroke-linejoin="round" fill="none" d="M211.103 434.383h0"/><path class="ac45dae9-0808-46a7-9699-9692904a9584" d="M190.086 437.366v-5.841M185.859 437.366v-5.841M194.314 437.366v-5.841M198.541 437.366v-5.841"/><text transform="translate(36.041 46.472)" font-size="14" font-family="RedHatText,&quot;Red Hat Text&quot;,Overpass,&quot;Helvetica Neue&quot;,Arial,sans-serif" font-weight="700" fill="#151515">Kubernetes cluster</text><path class="b15327d4-c6bb-4c60-a76b-61ffd4bb1caa" d="M281.041 126.176v15.648"/><path class="bfb09305-974a-47f0-ac21-cbc3f83f6b06" d="M276.055 127.635l4.986-8.635 4.986 8.635h-9.972zM276.055 140.365l4.986 8.635 4.986-8.635h-9.972z"/><path class="e89a5518-a494-4dc8-a898-5e9ddc404c32" d="M394.041 306h-13.148"/><path class="be435eee-b32d-4b9f-971d-7cc66ef8bb89" d="M383.811 296.027L366.541 306l17.27 9.973v-19.946z"/><path class="e89a5518-a494-4dc8-a898-5e9ddc404c32" d="M8.041 306h8.148"/><path class="be435eee-b32d-4b9f-971d-7cc66ef8bb89" d="M13.271 315.973L30.541 306l-17.27-9.973v19.946z"/><path class="b15327d4-c6bb-4c60-a76b-61ffd4bb1caa" d="M370.717 91.5h25.324V306h-15.324"/><path class="bfb09305-974a-47f0-ac21-cbc3f83f6b06" d="M372.176 96.486l-8.635-4.986 8.635-4.986v9.972zM382.176 301.014L373.541 306l8.635 4.986v-9.972z"/><path class="b15327d4-c6bb-4c60-a76b-61ffd4bb1caa" d="M116.041 126.176v15.648"/><path class="bfb09305-974a-47f0-ac21-cbc3f83f6b06" d="M111.055 127.635l4.986-8.635 4.986 8.635h-9.972zM111.055 140.365l4.986 8.635 4.986-8.635h-9.972z"/><path class="e89a5518-a494-4dc8-a898-5e9ddc404c32" d="M81.791 349v-8.148"/><path class="be435eee-b32d-4b9f-971d-7cc66ef8bb89" d="M91.764 343.77l-9.973-17.27-9.973 17.27h19.946z"/><path class="e89a5518-a494-4dc8-a898-5e9ddc404c32" d="M315.291 340.852V349"/><path class="be435eee-b32d-4b9f-971d-7cc66ef8bb89" d="M305.318 343.77l9.973-17.27 9.973 17.27h-19.946z"/><path class="e89a5518-a494-4dc8-a898-5e9ddc404c32" d="M198.541 340.852V406.5"/><path class="be435eee-b32d-4b9f-971d-7cc66ef8bb89" d="M188.568 343.77l9.973-17.27 9.973 17.27h-19.946z"/><path class="b15327d4-c6bb-4c60-a76b-61ffd4bb1caa" d="M315.291 340.676V356h-233.5v-15.324"/><path class="bfb09305-974a-47f0-ac21-cbc3f83f6b06" d="M310.305 342.135l4.986-8.635 4.986 8.635h-9.972zM86.777 342.135l-4.986-8.635-4.986 8.635h9.972z"/><g><path class="b15327d4-c6bb-4c60-a76b-61ffd4bb1caa" d="M198.541 340.676v75.648"/><path class="bfb09305-974a-47f0-ac21-cbc3f83f6b06" d="M193.555 342.135l4.986-8.635 4.986 8.635h-9.972zM193.555 414.865l4.986 8.635 4.986-8.635h-9.972z"/></g><path class="a5efa730-4f74-4c99-b7f6-df561e80ad2c" d="M198.541 463.315v20"/><g><path class="b15327d4-c6bb-4c60-a76b-61ffd4bb1caa" d="M26.365 91.5H1.041V306h15.324"/><path class="bfb09305-974a-47f0-ac21-cbc3f83f6b06" d="M24.906 86.514l8.635 4.986-8.635 4.986v-9.972zM14.906 310.986L23.541 306l-8.635-4.986v9.972z"/></g><path class="be435eee-b32d-4b9f-971d-7cc66ef8bb89" d="M36.041 66.5h325v50h-325z"/><text class="bcc96f77-61ab-44e6-8ec3-6e2f00776866" transform="translate(177.583 94.825)">Service</text><path class="be435eee-b32d-4b9f-971d-7cc66ef8bb89" d="M36.041 151.5h160v50h-160z"/><text class="bcc96f77-61ab-44e6-8ec3-6e2f00776866" transform="translate(101.317 179.825)">Pod 1</text><path class="be435eee-b32d-4b9f-971d-7cc66ef8bb89" d="M201.041 151.5h160v50h-160z"/><text class="bcc96f77-61ab-44e6-8ec3-6e2f00776866" transform="translate(264.949 179.825)">Pod 2</text><path class="e89ce7f9-d445-44d1-a019-50f80f220004" d="M26.041 281h111.5v50h-111.5z"/><text class="bcc96f77-61ab-44e6-8ec3-6e2f00776866" transform="translate(57.786 309.325)">Worker 1</text><path class="e89ce7f9-d445-44d1-a019-50f80f220004" d="M142.541 281h112v50h-112z"/><path class="be435eee-b32d-4b9f-971d-7cc66ef8bb89" d="M142.541 377.929h112v17.294h-112z"/><text class="bcc96f77-61ab-44e6-8ec3-6e2f00776866" transform="translate(173.167 309.325)">Worker 2</text><text transform="translate(110.031 389.984)" font-family="RedHatText,&quot;Red Hat Text&quot;,Overpass,&quot;Helvetica Neue&quot;,Arial,sans-serif" fill="#151515" font-size="12">Exposed port in machines subnet</text><path class="e89ce7f9-d445-44d1-a019-50f80f220004" d="M259.541 281h111.5v50h-111.5z"/><text class="bcc96f77-61ab-44e6-8ec3-6e2f00776866" transform="translate(289.695 309.325)">Worker 3</text><path class="b15327d4-c6bb-4c60-a76b-61ffd4bb1caa" d="M140.004 257.497L152.195 271"/><g><text transform="translate(671.012 497.517)" font-size="10" fill="#ececec" font-family="RedHatText,&quot;Red Hat Text&quot;,Overpass,&quot;Helvetica Neue&quot;,Arial,sans-serif">200_OpenShift_1121</text><path fill="none" d="M0 474.5h760v40H0z"/></g></svg>