<svg id="ab62b456-1c1c-4c16-8a92-3421083a9112" data-name="Layer 1" xmlns="http://www.w3.org/2000/svg" width="760" height="424.038"><defs><style>.f4bf3ae9-4b40-41f9-b5ef-dd11272fcd1b{fill:#e8e8e8}.a8075334-1052-4650-b214-ea0f16d1ef3b,.b426397d-d7d8-497c-b45c-2a260b9a5b98{fill:none}.a1260cdb-eacc-444b-a340-82fdcf95ca73{fill:#fff}.a1618ac6-ba0e-4590-a37f-f38ad2382262,.b75b5f8d-d441-43d2-bf5c-deb329174e2c{font-size:12px}.a1618ac6-ba0e-4590-a37f-f38ad2382262,.a7b77dae-45bf-44de-b1d0-56739ba674a9,.b75b5f8d-d441-43d2-bf5c-deb329174e2c{fill:#151515}.a1618ac6-ba0e-4590-a37f-f38ad2382262,.b75b5f8d-d441-43d2-bf5c-deb329174e2c{font-family:RedHatText,&quot;Red Hat Text&quot;,Overpass,&quot;Helvetica Neue&quot;,Arial,sans-serif;font-weight:700}.a1618ac6-ba0e-4590-a37f-f38ad2382262{font-weight:500}.aa1ec3ff-36c4-46d8-91a1-e29c4337c56a{fill:#d5d5d5}.f2ae8603-32a8-4c96-9e16-48b9d69084a2{fill:#06c}.a8075334-1052-4650-b214-ea0f16d1ef3b,.b426397d-d7d8-497c-b45c-2a260b9a5b98{stroke:#151515}.a8075334-1052-4650-b214-ea0f16d1ef3b{stroke-linecap:round;stroke-linejoin:round}.b426397d-d7d8-497c-b45c-2a260b9a5b98{stroke-miterlimit:10}</style></defs><text transform="translate(667.191 406.357)" fill="#e8e8e8" font-size="10" font-family="RedHatText,&quot;Red Hat Text&quot;,Overpass,&quot;Helvetica Neue&quot;,Arial,sans-serif">160_OpenShift_0421</text><path fill="none" d="M0 383.34h760v40H0z"/><path class="f4bf3ae9-4b40-41f9-b5ef-dd11272fcd1b" d="M203 20h340v363.5H203z"/><path class="a1260cdb-eacc-444b-a340-82fdcf95ca73" d="M218 59h310v309.5H218z"/><text class="b75b5f8d-d441-43d2-bf5c-deb329174e2c" transform="translate(217.5 45.343)">Broker</text><text class="a1618ac6-ba0e-4590-a37f-f38ad2382262" transform="translate(233.001 82.104)">Topic 1</text><path class="f4bf3ae9-4b40-41f9-b5ef-dd11272fcd1b" d="M233 97h279.5v79H233z"/><text class="a1618ac6-ba0e-4590-a37f-f38ad2382262" transform="translate(248 122.104)">Partition 0</text><path class="aa1ec3ff-36c4-46d8-91a1-e29c4337c56a" d="M248 132h29v29h-29z"/><text class="a1618ac6-ba0e-4590-a37f-f38ad2382262" transform="translate(258.456 149.824)">0</text><path class="aa1ec3ff-36c4-46d8-91a1-e29c4337c56a" d="M279.5 132h29v29h-29z"/><text class="a1618ac6-ba0e-4590-a37f-f38ad2382262" transform="translate(291.948 149.824)">1</text><path class="aa1ec3ff-36c4-46d8-91a1-e29c4337c56a" d="M311 132h29v29h-29z"/><text class="a1618ac6-ba0e-4590-a37f-f38ad2382262" transform="translate(322.08 149.824)">2</text><path class="aa1ec3ff-36c4-46d8-91a1-e29c4337c56a" d="M342.5 132h29v29h-29z"/><text class="a1618ac6-ba0e-4590-a37f-f38ad2382262" transform="translate(353.358 149.824)">3</text><path class="aa1ec3ff-36c4-46d8-91a1-e29c4337c56a" d="M374 132h29v29h-29z"/><text class="a1618ac6-ba0e-4590-a37f-f38ad2382262" transform="translate(384.593 149.824)">4</text><path class="f4bf3ae9-4b40-41f9-b5ef-dd11272fcd1b" d="M233 185.332h279.5v79H233z"/><text class="a1618ac6-ba0e-4590-a37f-f38ad2382262" transform="translate(248 210.436)">Partition 1</text><path class="aa1ec3ff-36c4-46d8-91a1-e29c4337c56a" d="M248 220.332h29v29h-29z"/><text class="a1618ac6-ba0e-4590-a37f-f38ad2382262" transform="translate(258.456 238.156)">0</text><path class="aa1ec3ff-36c4-46d8-91a1-e29c4337c56a" d="M279.5 220.332h29v29h-29z"/><text class="a1618ac6-ba0e-4590-a37f-f38ad2382262" transform="translate(291.948 238.156)">1</text><path class="aa1ec3ff-36c4-46d8-91a1-e29c4337c56a" d="M311 220.332h29v29h-29z"/><text class="a1618ac6-ba0e-4590-a37f-f38ad2382262" transform="translate(322.08 238.156)">2</text><path class="aa1ec3ff-36c4-46d8-91a1-e29c4337c56a" d="M342.5 220.332h29v29h-29z"/><text class="a1618ac6-ba0e-4590-a37f-f38ad2382262" transform="translate(353.358 238.156)">3</text><path class="aa1ec3ff-36c4-46d8-91a1-e29c4337c56a" d="M374 220.332h29v29h-29z"/><text class="a1618ac6-ba0e-4590-a37f-f38ad2382262" transform="translate(384.594 238.156)">4</text><path class="aa1ec3ff-36c4-46d8-91a1-e29c4337c56a" d="M405.5 220.332h29v29h-29z"/><text class="a1618ac6-ba0e-4590-a37f-f38ad2382262" transform="translate(416.454 238.156)">5</text><path class="aa1ec3ff-36c4-46d8-91a1-e29c4337c56a" d="M437 220.332h29v29h-29z"/><text class="a1618ac6-ba0e-4590-a37f-f38ad2382262" transform="translate(447.696 238.156)">6</text><path class="aa1ec3ff-36c4-46d8-91a1-e29c4337c56a" d="M468.5 220.332h29v29h-29z"/><text class="a1618ac6-ba0e-4590-a37f-f38ad2382262" transform="translate(479.49 238.156)">7</text><path class="f4bf3ae9-4b40-41f9-b5ef-dd11272fcd1b" d="M233 274.332h279.5v79H233z"/><text class="a1618ac6-ba0e-4590-a37f-f38ad2382262" transform="translate(248 299.435)">Partition 2</text><path class="aa1ec3ff-36c4-46d8-91a1-e29c4337c56a" d="M248 309.332h29v29h-29z"/><text class="a1618ac6-ba0e-4590-a37f-f38ad2382262" transform="translate(258.456 327.156)">0</text><path class="aa1ec3ff-36c4-46d8-91a1-e29c4337c56a" d="M279.5 309.332h29v29h-29z"/><text class="a1618ac6-ba0e-4590-a37f-f38ad2382262" transform="translate(291.948 327.156)">1</text><path class="aa1ec3ff-36c4-46d8-91a1-e29c4337c56a" d="M311 309.332h29v29h-29z"/><text class="a1618ac6-ba0e-4590-a37f-f38ad2382262" transform="translate(322.08 327.156)">2</text><path d="M759 21v361.5H587V21h172m1-1H586v363.5h174V20z" fill="#c4c4c4"/><text class="b75b5f8d-d441-43d2-bf5c-deb329174e2c" transform="translate(600.5 45.343)">Consumer Group 1</text><path class="a1260cdb-eacc-444b-a340-82fdcf95ca73" d="M601.5 122h143v49h-143z"/><path class="f2ae8603-32a8-4c96-9e16-48b9d69084a2" d="M744 122.5v48H602v-48h142m1-1H601v50h144v-50z"/><text class="a1618ac6-ba0e-4590-a37f-f38ad2382262" transform="translate(644.165 149.824)">Consumer</text><path class="a1260cdb-eacc-444b-a340-82fdcf95ca73" d="M601.5 210.332h143v49h-143z"/><path class="f2ae8603-32a8-4c96-9e16-48b9d69084a2" d="M744 210.832v48H602v-48h142m1-1H601v50h144v-50z"/><text class="a1618ac6-ba0e-4590-a37f-f38ad2382262" transform="translate(644.165 238.156)">Consumer</text><path class="a1260cdb-eacc-444b-a340-82fdcf95ca73" d="M601.5 299.332h143v49h-143z"/><path class="f2ae8603-32a8-4c96-9e16-48b9d69084a2" d="M744 299.832v48H602v-48h142m1-1H601v50h144v-50z"/><text class="a1618ac6-ba0e-4590-a37f-f38ad2382262" transform="translate(644.165 327.156)">Consumer</text><path class="a8075334-1052-4650-b214-ea0f16d1ef3b" d="M143.993 234.832h94.331"/><path class="a7b77dae-45bf-44de-b1d0-56739ba674a9" d="M236.865 239.818l8.635-4.986-8.635-4.987v9.973z"/><g><path class="a8075334-1052-4650-b214-ea0f16d1ef3b" d="M144 245.666h41.493v78.166h52.831"/><path class="a7b77dae-45bf-44de-b1d0-56739ba674a9" d="M236.865 328.818l8.635-4.986-8.635-4.987v9.973z"/></g><g><path class="a8075334-1052-4650-b214-ea0f16d1ef3b" d="M144 225.666h41.493V146.5h52.831"/><path class="a7b77dae-45bf-44de-b1d0-56739ba674a9" d="M236.865 151.486l8.635-4.986-8.635-4.986v9.972z"/></g><g><path class="b426397d-d7d8-497c-b45c-2a260b9a5b98" d="M591.831 234.832H497.5"/><path class="a7b77dae-45bf-44de-b1d0-56739ba674a9" d="M590.372 229.845l8.636 4.987-8.636 4.986v-9.973z"/></g><g><path class="b426397d-d7d8-497c-b45c-2a260b9a5b98" d="M591.831 323.832H340"/><path class="a7b77dae-45bf-44de-b1d0-56739ba674a9" d="M590.372 318.845l8.636 4.987-8.636 4.986v-9.973z"/></g><g><path class="b426397d-d7d8-497c-b45c-2a260b9a5b98" d="M591.831 146.5H403"/><path class="a7b77dae-45bf-44de-b1d0-56739ba674a9" d="M590.372 141.514l8.636 4.986-8.636 4.986v-9.972z"/></g><g><path class="a1260cdb-eacc-444b-a340-82fdcf95ca73" d="M.5 210.332h143v49H.5z"/><path class="f2ae8603-32a8-4c96-9e16-48b9d69084a2" d="M143 210.832v48H1v-48h142m1-1H0v50h144v-50z"/><text class="a1618ac6-ba0e-4590-a37f-f38ad2382262" transform="translate(45.895 238.156)">Producer</text></g></svg>