<svg id="bdd57798-1e72-4739-a5ec-98e74bbed4aa" data-name="Layer 1" xmlns="http://www.w3.org/2000/svg" width="760" height="438"><defs><style>.f4d3b1b9-dfc1-4ec2-b547-6289c998ecd0{fill:#e8e8e8}.afc812a4-4948-4019-8c15-cdb5b7709030,.b5e99da1-3f2f-4cec-ae5b-498aaba4dc42,.f801fae5-8bd8-4021-bd87-ca98c8908e2a{fill:#151515}.f801fae5-8bd8-4021-bd87-ca98c8908e2a{font-family:RedHatText,&quot;Red Hat Text&quot;,Overpass,&quot;Helvetica Neue&quot;,Arial,sans-serif;font-weight:700}.aeae931c-8c0f-451e-b936-e84983b5ffeb{fill:#fff}.afc812a4-4948-4019-8c15-cdb5b7709030,.f801fae5-8bd8-4021-bd87-ca98c8908e2a{font-size:12px}.afc812a4-4948-4019-8c15-cdb5b7709030,.b5e99da1-3f2f-4cec-ae5b-498aaba4dc42{font-family:RedHatText,&quot;Red Hat Text&quot;,Overpass,&quot;Helvetica Neue&quot;,Arial,sans-serif;font-weight:500}.bad7f98e-3cf9-4f4e-8d71-e580690c27e7{fill:#d0d0d0}.b5e99da1-3f2f-4cec-ae5b-498aaba4dc42{font-size:11px}.af67ffe0-9bdd-43a0-a61a-e978d6728d75{fill:#d9e8f7}.bff4e7d8-5993-4b69-a2d5-bfb1b3dee17b{fill:#06c}.e0f3aeee-c032-488b-a135-2a6e935ab5fd{fill:#b2d1f0}</style></defs><path class="f4d3b1b9-dfc1-4ec2-b547-6289c998ecd0" d="M758 50v346H2V50h756m2-2H0v350h760V48z"/><text transform="translate(20 79.971)" font-family="RedHatText,&quot;Red Hat Text&quot;,Overpass,&quot;Helvetica Neue&quot;,Arial,sans-serif" font-weight="700" fill="#151515" font-size="14">Kafka Cluster</text><path class="f4d3b1b9-dfc1-4ec2-b547-6289c998ecd0" d="M20 95h229.5v283H20z"/><path class="aeae931c-8c0f-451e-b936-e84983b5ffeb" d="M35 134h199.5v229H35z"/><text class="f801fae5-8bd8-4021-bd87-ca98c8908e2a" transform="translate(34.5 120.343)">Broker</text><text class="afc812a4-4948-4019-8c15-cdb5b7709030" transform="translate(45.001 157.104)">Topic 1</text><path class="f4d3b1b9-dfc1-4ec2-b547-6289c998ecd0" d="M45 232.081h179.5v58H45z"/><text class="afc812a4-4948-4019-8c15-cdb5b7709030" transform="translate(55 252.186)">Partition 1</text><path class="bad7f98e-3cf9-4f4e-8d71-e580690c27e7" d="M55 262.304h17.777v17.777H55z"/><text class="b5e99da1-3f2f-4cec-ae5b-498aaba4dc42" transform="translate(60.181 274.911)">0</text><path class="bad7f98e-3cf9-4f4e-8d71-e580690c27e7" d="M75.246 262.304h17.777v17.777H75.246z"/><text class="b5e99da1-3f2f-4cec-ae5b-498aaba4dc42" transform="translate(82.253 274.911)">1</text><path class="bad7f98e-3cf9-4f4e-8d71-e580690c27e7" d="M95.492 262.304h17.777v17.777H95.492z"/><text class="b5e99da1-3f2f-4cec-ae5b-498aaba4dc42" transform="translate(101.245 274.911)">2</text><path class="bad7f98e-3cf9-4f4e-8d71-e580690c27e7" d="M115.738 262.304h17.777v17.777h-17.777z"/><text class="b5e99da1-3f2f-4cec-ae5b-498aaba4dc42" transform="translate(121.288 274.911)">3</text><path class="bad7f98e-3cf9-4f4e-8d71-e580690c27e7" d="M135.985 262.304h17.777v17.777h-17.777zM156.231 262.304h17.777v17.777h-17.777z"/><text class="b5e99da1-3f2f-4cec-ae5b-498aaba4dc42" transform="translate(161.867 274.911)">5</text><path class="bad7f98e-3cf9-4f4e-8d71-e580690c27e7" d="M176.477 262.304h17.777v17.777h-17.777z"/><text class="b5e99da1-3f2f-4cec-ae5b-498aaba4dc42" transform="translate(181.878 274.911)">6</text><path class="bad7f98e-3cf9-4f4e-8d71-e580690c27e7" d="M196.723 262.304H214.5v17.777h-17.777z"/><text class="b5e99da1-3f2f-4cec-ae5b-498aaba4dc42" transform="translate(202.394 274.911)">7</text><text class="b5e99da1-3f2f-4cec-ae5b-498aaba4dc42" transform="translate(141.292 274.911)">4</text><g><path class="af67ffe0-9bdd-43a0-a61a-e978d6728d75" d="M45.5 169.5H224v57H45.5z"/><path class="bff4e7d8-5993-4b69-a2d5-bfb1b3dee17b" d="M223.5 170v56H46v-56h177.5m1-1H45v58h179.5v-58z"/><text class="afc812a4-4948-4019-8c15-cdb5b7709030" transform="translate(55 189.104)">Partition 0</text><g><path class="e0f3aeee-c032-488b-a135-2a6e935ab5fd" d="M55 199.223h17.777V217H55z"/><text class="b5e99da1-3f2f-4cec-ae5b-498aaba4dc42" transform="translate(60.181 211.829)">0</text><path class="e0f3aeee-c032-488b-a135-2a6e935ab5fd" d="M75.246 199.223h17.777V217H75.246z"/><text class="b5e99da1-3f2f-4cec-ae5b-498aaba4dc42" transform="translate(82.253 211.829)">1</text><path class="e0f3aeee-c032-488b-a135-2a6e935ab5fd" d="M95.492 199.223h17.777V217H95.492z"/><text class="b5e99da1-3f2f-4cec-ae5b-498aaba4dc42" transform="translate(101.245 211.829)">2</text><path class="e0f3aeee-c032-488b-a135-2a6e935ab5fd" d="M115.738 199.223h17.777V217h-17.777z"/><text class="b5e99da1-3f2f-4cec-ae5b-498aaba4dc42" transform="translate(121.288 211.829)">3</text><path class="e0f3aeee-c032-488b-a135-2a6e935ab5fd" d="M135.985 199.223h17.777V217h-17.777zM156.231 199.223h17.777V217h-17.777z"/><text class="b5e99da1-3f2f-4cec-ae5b-498aaba4dc42" transform="translate(161.867 211.829)">5</text><path class="e0f3aeee-c032-488b-a135-2a6e935ab5fd" d="M176.477 199.223h17.777V217h-17.777z"/><text class="b5e99da1-3f2f-4cec-ae5b-498aaba4dc42" transform="translate(181.878 211.829)">6</text><text class="b5e99da1-3f2f-4cec-ae5b-498aaba4dc42" transform="translate(141.292 211.829)">4</text></g></g><g><path class="f4d3b1b9-dfc1-4ec2-b547-6289c998ecd0" d="M45 295.081h179.5v58H45z"/><text class="afc812a4-4948-4019-8c15-cdb5b7709030" transform="translate(55 315.186)">Partition 2</text><path class="bad7f98e-3cf9-4f4e-8d71-e580690c27e7" d="M55 325.304h17.777v17.777H55z"/><text class="b5e99da1-3f2f-4cec-ae5b-498aaba4dc42" transform="translate(60.181 337.911)">0</text><path class="bad7f98e-3cf9-4f4e-8d71-e580690c27e7" d="M75.246 325.304h17.777v17.777H75.246z"/><text class="b5e99da1-3f2f-4cec-ae5b-498aaba4dc42" transform="translate(82.253 337.911)">1</text><path class="bad7f98e-3cf9-4f4e-8d71-e580690c27e7" d="M95.492 325.304h17.777v17.777H95.492z"/><text class="b5e99da1-3f2f-4cec-ae5b-498aaba4dc42" transform="translate(101.245 337.911)">2</text><path class="bad7f98e-3cf9-4f4e-8d71-e580690c27e7" d="M115.738 325.304h17.777v17.777h-17.777z"/><text class="b5e99da1-3f2f-4cec-ae5b-498aaba4dc42" transform="translate(121.288 337.911)">3</text></g><g><path class="f4d3b1b9-dfc1-4ec2-b547-6289c998ecd0" d="M510.5 95H740v283H510.5z"/><path class="aeae931c-8c0f-451e-b936-e84983b5ffeb" d="M525.5 134H725v229H525.5z"/><text class="f801fae5-8bd8-4021-bd87-ca98c8908e2a" transform="translate(525 120.343)">Broker</text><text class="afc812a4-4948-4019-8c15-cdb5b7709030" transform="translate(535.501 157.104)">Topic 1</text><path class="f4d3b1b9-dfc1-4ec2-b547-6289c998ecd0" d="M535.5 232.081H715v58H535.5z"/><text class="afc812a4-4948-4019-8c15-cdb5b7709030" transform="translate(545.5 252.186)">Partition 1</text><path class="bad7f98e-3cf9-4f4e-8d71-e580690c27e7" d="M545.5 262.304h17.777v17.777H545.5z"/><text class="b5e99da1-3f2f-4cec-ae5b-498aaba4dc42" transform="translate(550.681 274.911)">0</text><path class="bad7f98e-3cf9-4f4e-8d71-e580690c27e7" d="M565.746 262.304h17.777v17.777h-17.777z"/><text class="b5e99da1-3f2f-4cec-ae5b-498aaba4dc42" transform="translate(572.753 274.911)">1</text><path class="bad7f98e-3cf9-4f4e-8d71-e580690c27e7" d="M585.992 262.304h17.777v17.777h-17.777z"/><text class="b5e99da1-3f2f-4cec-ae5b-498aaba4dc42" transform="translate(591.745 274.911)">2</text><path class="bad7f98e-3cf9-4f4e-8d71-e580690c27e7" d="M606.238 262.304h17.777v17.777h-17.777z"/><text class="b5e99da1-3f2f-4cec-ae5b-498aaba4dc42" transform="translate(611.788 274.911)">3</text><path class="bad7f98e-3cf9-4f4e-8d71-e580690c27e7" d="M626.485 262.304h17.777v17.777h-17.777zM646.731 262.304h17.777v17.777h-17.777z"/><text class="b5e99da1-3f2f-4cec-ae5b-498aaba4dc42" transform="translate(652.367 274.911)">5</text><path class="bad7f98e-3cf9-4f4e-8d71-e580690c27e7" d="M666.977 262.304h17.777v17.777h-17.777z"/><text class="b5e99da1-3f2f-4cec-ae5b-498aaba4dc42" transform="translate(672.378 274.911)">6</text><path class="bad7f98e-3cf9-4f4e-8d71-e580690c27e7" d="M687.223 262.304H705v17.777h-17.777z"/><text class="b5e99da1-3f2f-4cec-ae5b-498aaba4dc42" transform="translate(692.894 274.911)">7</text><text class="b5e99da1-3f2f-4cec-ae5b-498aaba4dc42" transform="translate(631.792 274.911)">4</text><g><path class="f4d3b1b9-dfc1-4ec2-b547-6289c998ecd0" d="M535.5 169H715v58H535.5z"/><text class="afc812a4-4948-4019-8c15-cdb5b7709030" transform="translate(545.5 189.104)">Partition 0</text><path class="bad7f98e-3cf9-4f4e-8d71-e580690c27e7" d="M545.5 199.223h17.777V217H545.5z"/><text class="b5e99da1-3f2f-4cec-ae5b-498aaba4dc42" transform="translate(550.681 211.829)">0</text><path class="bad7f98e-3cf9-4f4e-8d71-e580690c27e7" d="M565.746 199.223h17.777V217h-17.777z"/><text class="b5e99da1-3f2f-4cec-ae5b-498aaba4dc42" transform="translate(572.753 211.829)">1</text><path class="bad7f98e-3cf9-4f4e-8d71-e580690c27e7" d="M585.992 199.223h17.777V217h-17.777z"/><text class="b5e99da1-3f2f-4cec-ae5b-498aaba4dc42" transform="translate(591.745 211.829)">2</text><path class="bad7f98e-3cf9-4f4e-8d71-e580690c27e7" d="M606.238 199.223h17.777V217h-17.777z"/><text class="b5e99da1-3f2f-4cec-ae5b-498aaba4dc42" transform="translate(611.788 211.829)">3</text><path class="bad7f98e-3cf9-4f4e-8d71-e580690c27e7" d="M626.485 199.223h17.777V217h-17.777zM646.731 199.223h17.777V217h-17.777z"/><text class="b5e99da1-3f2f-4cec-ae5b-498aaba4dc42" transform="translate(652.367 211.829)">5</text><path class="bad7f98e-3cf9-4f4e-8d71-e580690c27e7" d="M666.977 199.223h17.777V217h-17.777z"/><text class="b5e99da1-3f2f-4cec-ae5b-498aaba4dc42" transform="translate(672.378 211.829)">6</text><text class="b5e99da1-3f2f-4cec-ae5b-498aaba4dc42" transform="translate(631.792 211.829)">4</text></g><g><path class="af67ffe0-9bdd-43a0-a61a-e978d6728d75" d="M536 295.582h178.5v57H536z"/><path class="bff4e7d8-5993-4b69-a2d5-bfb1b3dee17b" d="M714 296.081v56H536.5v-56H714m1-1H535.5v58H715v-58z"/><text class="afc812a4-4948-4019-8c15-cdb5b7709030" transform="translate(545.5 315.186)">Partition 2</text><g><path class="e0f3aeee-c032-488b-a135-2a6e935ab5fd" d="M545.5 325.304h17.777v17.777H545.5z"/><text class="b5e99da1-3f2f-4cec-ae5b-498aaba4dc42" transform="translate(550.681 337.911)">0</text><path class="e0f3aeee-c032-488b-a135-2a6e935ab5fd" d="M565.746 325.304h17.777v17.777h-17.777z"/><text class="b5e99da1-3f2f-4cec-ae5b-498aaba4dc42" transform="translate(572.753 337.911)">1</text><path class="e0f3aeee-c032-488b-a135-2a6e935ab5fd" d="M585.992 325.304h17.777v17.777h-17.777z"/><text class="b5e99da1-3f2f-4cec-ae5b-498aaba4dc42" transform="translate(591.745 337.911)">2</text><path class="e0f3aeee-c032-488b-a135-2a6e935ab5fd" d="M606.238 325.304h17.777v17.777h-17.777z"/><text class="b5e99da1-3f2f-4cec-ae5b-498aaba4dc42" transform="translate(611.788 337.911)">3</text></g></g></g><g><path class="f4d3b1b9-dfc1-4ec2-b547-6289c998ecd0" d="M265.25 95h229.5v283h-229.5z"/><path class="aeae931c-8c0f-451e-b936-e84983b5ffeb" d="M280.25 134h199.5v229h-199.5z"/><text class="f801fae5-8bd8-4021-bd87-ca98c8908e2a" transform="translate(279.75 120.343)">Broker</text><text class="afc812a4-4948-4019-8c15-cdb5b7709030" transform="translate(290.251 157.104)">Topic 1</text><path class="af67ffe0-9bdd-43a0-a61a-e978d6728d75" d="M290.75 232.582h178.5v57h-178.5z"/><path class="bff4e7d8-5993-4b69-a2d5-bfb1b3dee17b" d="M468.75 233.081v56h-177.5v-56h177.5m1-1h-179.5v58h179.5v-58z"/><text class="afc812a4-4948-4019-8c15-cdb5b7709030" transform="translate(300.25 252.186)">Partition 1</text><g><path class="e0f3aeee-c032-488b-a135-2a6e935ab5fd" d="M300.25 262.304h17.777v17.777H300.25z"/><text class="b5e99da1-3f2f-4cec-ae5b-498aaba4dc42" transform="translate(305.431 274.911)">0</text><path class="e0f3aeee-c032-488b-a135-2a6e935ab5fd" d="M320.496 262.304h17.777v17.777h-17.777z"/><text class="b5e99da1-3f2f-4cec-ae5b-498aaba4dc42" transform="translate(327.503 274.911)">1</text><path class="e0f3aeee-c032-488b-a135-2a6e935ab5fd" d="M340.742 262.304h17.777v17.777h-17.777z"/><text class="b5e99da1-3f2f-4cec-ae5b-498aaba4dc42" transform="translate(346.495 274.911)">2</text><path class="e0f3aeee-c032-488b-a135-2a6e935ab5fd" d="M360.988 262.304h17.777v17.777h-17.777z"/><text class="b5e99da1-3f2f-4cec-ae5b-498aaba4dc42" transform="translate(366.538 274.911)">3</text><path class="e0f3aeee-c032-488b-a135-2a6e935ab5fd" d="M381.235 262.304h17.777v17.777h-17.777zM401.481 262.304h17.777v17.777h-17.777z"/><text class="b5e99da1-3f2f-4cec-ae5b-498aaba4dc42" transform="translate(407.117 274.911)">5</text><path class="e0f3aeee-c032-488b-a135-2a6e935ab5fd" d="M421.727 262.304h17.777v17.777h-17.777z"/><text class="b5e99da1-3f2f-4cec-ae5b-498aaba4dc42" transform="translate(427.128 274.911)">6</text><path class="e0f3aeee-c032-488b-a135-2a6e935ab5fd" d="M441.973 262.304h17.777v17.777h-17.777z"/><text class="b5e99da1-3f2f-4cec-ae5b-498aaba4dc42" transform="translate(447.644 274.911)">7</text><text class="b5e99da1-3f2f-4cec-ae5b-498aaba4dc42" transform="translate(386.542 274.911)">4</text></g><g><path class="f4d3b1b9-dfc1-4ec2-b547-6289c998ecd0" d="M290.25 169h179.5v58h-179.5z"/><text class="afc812a4-4948-4019-8c15-cdb5b7709030" transform="translate(300.25 189.104)">Partition 0</text><path class="bad7f98e-3cf9-4f4e-8d71-e580690c27e7" d="M300.25 199.223h17.777V217H300.25z"/><text class="b5e99da1-3f2f-4cec-ae5b-498aaba4dc42" transform="translate(305.431 211.829)">0</text><path class="bad7f98e-3cf9-4f4e-8d71-e580690c27e7" d="M320.496 199.223h17.777V217h-17.777z"/><text class="b5e99da1-3f2f-4cec-ae5b-498aaba4dc42" transform="translate(327.503 211.829)">1</text><path class="bad7f98e-3cf9-4f4e-8d71-e580690c27e7" d="M340.742 199.223h17.777V217h-17.777z"/><text class="b5e99da1-3f2f-4cec-ae5b-498aaba4dc42" transform="translate(346.495 211.829)">2</text><path class="bad7f98e-3cf9-4f4e-8d71-e580690c27e7" d="M360.988 199.223h17.777V217h-17.777z"/><text class="b5e99da1-3f2f-4cec-ae5b-498aaba4dc42" transform="translate(366.538 211.829)">3</text><path class="bad7f98e-3cf9-4f4e-8d71-e580690c27e7" d="M381.235 199.223h17.777V217h-17.777zM401.481 199.223h17.777V217h-17.777z"/><text class="b5e99da1-3f2f-4cec-ae5b-498aaba4dc42" transform="translate(407.117 211.829)">5</text><path class="bad7f98e-3cf9-4f4e-8d71-e580690c27e7" d="M421.727 199.223h17.777V217h-17.777z"/><text class="b5e99da1-3f2f-4cec-ae5b-498aaba4dc42" transform="translate(427.128 211.829)">6</text><text class="b5e99da1-3f2f-4cec-ae5b-498aaba4dc42" transform="translate(386.542 211.829)">4</text></g><g><path class="f4d3b1b9-dfc1-4ec2-b547-6289c998ecd0" d="M290.25 295.081h179.5v58h-179.5z"/><text class="afc812a4-4948-4019-8c15-cdb5b7709030" transform="translate(300.25 315.186)">Partition 2</text><path class="bad7f98e-3cf9-4f4e-8d71-e580690c27e7" d="M300.25 325.304h17.777v17.777H300.25z"/><text class="b5e99da1-3f2f-4cec-ae5b-498aaba4dc42" transform="translate(305.431 337.911)">0</text><path class="bad7f98e-3cf9-4f4e-8d71-e580690c27e7" d="M320.496 325.304h17.777v17.777h-17.777z"/><text class="b5e99da1-3f2f-4cec-ae5b-498aaba4dc42" transform="translate(327.503 337.911)">1</text><path class="bad7f98e-3cf9-4f4e-8d71-e580690c27e7" d="M340.742 325.304h17.777v17.777h-17.777z"/><text class="b5e99da1-3f2f-4cec-ae5b-498aaba4dc42" transform="translate(346.495 337.911)">2</text><path class="bad7f98e-3cf9-4f4e-8d71-e580690c27e7" d="M360.988 325.304h17.777v17.777h-17.777z"/><text class="b5e99da1-3f2f-4cec-ae5b-498aaba4dc42" transform="translate(366.538 337.911)">3</text></g></g><g><path class="af67ffe0-9bdd-43a0-a61a-e978d6728d75" d="M590.986 20.503h11.997V32.5h-11.997z"/><path class="bff4e7d8-5993-4b69-a2d5-bfb1b3dee17b" d="M591.486 21h11v11h-11V21m-1-1v13h12.993V20.006l-13-.006z"/><text class="b5e99da1-3f2f-4cec-ae5b-498aaba4dc42" transform="translate(609.413 29.786)">Leader</text><g><path class="f4d3b1b9-dfc1-4ec2-b547-6289c998ecd0" d="M685.689 20.006l-13-.006v12.998l.002.002h12.993l.005-12.994z"/><text class="b5e99da1-3f2f-4cec-ae5b-498aaba4dc42" transform="translate(691.616 29.786)">Follower</text></g></g><g><text transform="translate(667.191 421.017)" font-size="10" font-family="RedHatText,&quot;Red Hat Text&quot;,Overpass,&quot;Helvetica Neue&quot;,Arial,sans-serif" fill="#e8e8e8">160_OpenShift_0421</text><path fill="none" d="M0 398h760v40H0z"/></g></svg>