<svg id="f304c31a-c609-43ad-9daa-43bd6b27c42b" data-name="artwork" xmlns="http://www.w3.org/2000/svg" width="760" height="823.92"><defs><style>.bcb16d6f-4c2c-406c-bccd-336fa3c7a50b{fill:#e8e8e8}.a2eb3a69-238e-4523-b377-901d6a5d1368,.ab0ee0ab-f115-42d7-a55b-442906920b7e,.b2802fa0-9e5d-4e88-9b13-ad74e4842a35,.b40d4469-aabe-4edc-8d49-0afd3c8fc8c5,.b4ebbe48-5040-4e0c-90dc-e2cba6ba5a2e,.b523cd8d-f7a0-4e24-a86b-9c0e3d93ee6b,.b7215022-9a8c-4a25-96d5-6c4fe2ba2470,.bbfadaf6-fe15-4921-a990-10cfbd78fd10,.f5e85b9d-a0a4-4b35-bf70-d06c502429c6,.fc7c78e2-f417-4385-b4e8-d85f573b04a8{fill:none}.a2eb3a69-238e-4523-b377-901d6a5d1368,.ab0ee0ab-f115-42d7-a55b-442906920b7e,.b2802fa0-9e5d-4e88-9b13-ad74e4842a35,.b40d4469-aabe-4edc-8d49-0afd3c8fc8c5,.b4ebbe48-5040-4e0c-90dc-e2cba6ba5a2e,.b7215022-9a8c-4a25-96d5-6c4fe2ba2470,.bbfadaf6-fe15-4921-a990-10cfbd78fd10,.f5e85b9d-a0a4-4b35-bf70-d06c502429c6,.fc7c78e2-f417-4385-b4e8-d85f573b04a8{stroke:#06c}.a2eb3a69-238e-4523-b377-901d6a5d1368,.ab0ee0ab-f115-42d7-a55b-442906920b7e,.b2802fa0-9e5d-4e88-9b13-ad74e4842a35,.b40d4469-aabe-4edc-8d49-0afd3c8fc8c5,.b4ebbe48-5040-4e0c-90dc-e2cba6ba5a2e,.b523cd8d-f7a0-4e24-a86b-9c0e3d93ee6b,.b7215022-9a8c-4a25-96d5-6c4fe2ba2470,.bbfadaf6-fe15-4921-a990-10cfbd78fd10,.f5e85b9d-a0a4-4b35-bf70-d06c502429c6,.fc7c78e2-f417-4385-b4e8-d85f573b04a8{stroke-linecap:round;stroke-linejoin:round}.b523cd8d-f7a0-4e24-a86b-9c0e3d93ee6b,.b7215022-9a8c-4a25-96d5-6c4fe2ba2470{stroke-width:2px}.b42b6eae-762e-4e69-8f84-49d1a6da9f0c{fill:#d9e8f7}.b8cc25ff-f6ca-4a1e-b38d-7ddfc725d167,.b9ab85a5-c437-48f8-ae27-c49c183b296c{fill:#06c}.a73277cc-e049-457b-89fc-a12e1907c231,.e22be22c-98b5-4bd3-80a4-a6117377d2d0,.ecb5b81d-2f2c-43d4-a723-c483ce1f3ca1{font-size:11px}.e22be22c-98b5-4bd3-80a4-a6117377d2d0,.ecb5b81d-2f2c-43d4-a723-c483ce1f3ca1{fill:#151515}.a73277cc-e049-457b-89fc-a12e1907c231,.b8cc25ff-f6ca-4a1e-b38d-7ddfc725d167,.e22be22c-98b5-4bd3-80a4-a6117377d2d0{font-family:RedHatText,&quot;Red Hat Text&quot;,Overpass,&quot;Helvetica Neue&quot;,Arial,sans-serif;font-weight:700}.e5fdab27-ffa2-48a9-86a0-9dfd0cd33b00{fill:#e5f0fa}.a73277cc-e049-457b-89fc-a12e1907c231,.eccf6155-32e6-47a0-9f92-0fd3670a1d8e,.efa93846-fee7-4ee2-8402-1550d773ea37{fill:#fff}.b523cd8d-f7a0-4e24-a86b-9c0e3d93ee6b{stroke:#151515}.bbfadaf6-fe15-4921-a990-10cfbd78fd10{stroke-dasharray:3.01 3.01}.ab0ee0ab-f115-42d7-a55b-442906920b7e{stroke-dasharray:3.133 3.133}.b40d4469-aabe-4edc-8d49-0afd3c8fc8c5{stroke-dasharray:3 3}.fc7c78e2-f417-4385-b4e8-d85f573b04a8{stroke-dasharray:3.067 3.067}.b8cc25ff-f6ca-4a1e-b38d-7ddfc725d167,.eccf6155-32e6-47a0-9f92-0fd3670a1d8e{font-size:12px}.ea4662e7-c96b-45b3-b276-e281893e09b6,.ecb5b81d-2f2c-43d4-a723-c483ce1f3ca1,.eccf6155-32e6-47a0-9f92-0fd3670a1d8e{font-family:RedHatText,&quot;Red Hat Text&quot;,Overpass,&quot;Helvetica Neue&quot;,Arial,sans-serif;font-weight:500}.ad0dc634-5035-4d42-922d-2c3e020ff302{fill:#f3f3f3}.afe835a4-f3f1-4d00-8e6f-c658e0b0bfc5{fill:#d0d0d0}.a2eb3a69-238e-4523-b377-901d6a5d1368{stroke-dasharray:3.4 3.4}.a1a4658e-6237-4aed-a0aa-c86c4823fc49{fill:#3385d6}.b4849228-4ceb-4f80-ae1a-aac9f9abc4e8{fill:#5b5b5b}.b2802fa0-9e5d-4e88-9b13-ad74e4842a35{stroke-dasharray:2.971 2.971}.b4ebbe48-5040-4e0c-90dc-e2cba6ba5a2e{stroke-dasharray:2.978 2.978}</style></defs><path class="bcb16d6f-4c2c-406c-bccd-336fa3c7a50b" d="M758 191v282.5H607V191h151m2-2H605v286.5h155V189z"/><path class="b7215022-9a8c-4a25-96d5-6c4fe2ba2470" d="M620 437.82h-47M605 626.163h-32M589 296.504v-236.5h-16M620 296.504h-47M589 84.004h16M589 144.504h-16"/><path class="b42b6eae-762e-4e69-8f84-49d1a6da9f0c" d="M263 229.004h145v103.5H263z"/><path class="b9ab85a5-c437-48f8-ae27-c49c183b296c" d="M263 327.504h145v50H263z"/><text class="e22be22c-98b5-4bd3-80a4-a6117377d2d0" transform="translate(278 252.289)">Certified VNF</text><path class="e5fdab27-ffa2-48a9-86a0-9dfd0cd33b00" d="M278 263.004h115v22H278z"/><path class="b9ab85a5-c437-48f8-ae27-c49c183b296c" d="M278.5 285.504h114v26.25h-114z"/><path class="e5fdab27-ffa2-48a9-86a0-9dfd0cd33b00" d="M392 286v25.25H279V286h113m1-1H278v27.25h115V285z"/><path class="efa93846-fee7-4ee2-8402-1550d773ea37" d="M305.038 355.359h6.08v1.084h-4.843v2.475h3.182v1.06h-3.182v2.546h4.89v1.084h-6.127zM312.3 357.61h1.179v.6a2.47 2.47 0 011.8-.719 2.239 2.239 0 012.345 2.345v3.771h-1.178v-3.571a1.4 1.4 0 00-1.485-1.52 1.694 1.694 0 00-1.484.778v4.313H312.3zM319.519 358.6h-1.273v-.99h1.273v-1.532l1.167-.283v1.815h1.767v.99h-1.767v3.252c0 .613.247.836.883.836a2.313 2.313 0 00.86-.141v.99a3.9 3.9 0 01-1.119.177c-1.167 0-1.791-.554-1.791-1.591zM326.07 363.714a3.087 3.087 0 01-3.146-3.111 3.014 3.014 0 013-3.087 2.97 2.97 0 012.9 3.134v.342h-4.737a2.023 2.023 0 002.027 1.72 2.332 2.332 0 001.52-.53l.754.742a3.578 3.578 0 01-2.318.79zm-1.967-3.606h3.558a1.789 1.789 0 00-3.558 0zM329.947 357.61h1.178v.766a1.877 1.877 0 011.65-.9 1.493 1.493 0 01.6.095v1.06a2.032 2.032 0 00-.695-.13 1.638 1.638 0 00-1.556 1.1v4.007h-1.178zM334.318 357.61h1.167v.577a2.734 2.734 0 011.838-.671 3.093 3.093 0 11-1.827 5.6v2.934h-1.178zm1.178 1.65v2.71a2.225 2.225 0 001.674.707 2.068 2.068 0 000-4.136 2.151 2.151 0 00-1.67.719zM341.47 357.61h1.179v.766a1.875 1.875 0 011.649-.9 1.493 1.493 0 01.6.095v1.06a2.028 2.028 0 00-.695-.13 1.637 1.637 0 00-1.555 1.1v4.007h-1.178zM345.712 355.913a.723.723 0 01.719-.73.731.731 0 010 1.461.724.724 0 01-.719-.731zm1.308 7.695h-1.179v-6h1.179zM348.481 362.052a3.14 3.14 0 001.956.754c.848 0 1.437-.365 1.437-.895 0-.424-.306-.672-.966-.766l-1.084-.153c-1.19-.177-1.791-.731-1.791-1.662 0-1.084.942-1.814 2.345-1.814a4.107 4.107 0 012.415.766l-.6.777a3.332 3.332 0 00-1.9-.624c-.719 0-1.2.33-1.2.813 0 .436.283.648.99.754l1.084.153c1.19.177 1.815.742 1.815 1.673 0 1.073-1.084 1.886-2.51 1.886a3.959 3.959 0 01-2.628-.884zM356.823 363.714a3.086 3.086 0 01-3.146-3.111 3.013 3.013 0 013-3.087 2.97 2.97 0 012.9 3.134v.342h-4.737a2.023 2.023 0 002.027 1.72 2.332 2.332 0 001.52-.53l.754.742a3.578 3.578 0 01-2.318.79zm-1.968-3.606h3.559a1.789 1.789 0 00-3.559 0zM363.3 355.359h1.237v7.153h4.749v1.1H363.3zM370.267 355.913a.723.723 0 01.719-.73.731.731 0 010 1.461.724.724 0 01-.719-.731zm1.308 7.695H370.4v-6h1.179zM372.965 357.61h1.178v.6a2.472 2.472 0 011.8-.719 2.239 2.239 0 012.345 2.345v3.771h-1.178v-3.571a1.4 1.4 0 00-1.485-1.52 1.7 1.7 0 00-1.485.778v4.313h-1.178zM380.742 361.168a1.4 1.4 0 001.484 1.532 1.685 1.685 0 001.473-.789v-4.3h1.179v6H383.7v-.6a2.451 2.451 0 01-1.8.718 2.239 2.239 0 01-2.333-2.356v-3.763h1.179zM387.929 360.532l-2.239-2.922h1.379l1.543 2.062 1.544-2.062h1.332l-2.216 2.91 2.369 3.088h-1.391l-1.649-2.216-1.674 2.216H385.6zM293.745 348.364c1.416 0 3.468-.293 3.468-1.978a1.626 1.626 0 00-.035-.388l-.844-3.666c-.2-.806-.367-1.173-1.783-1.881a16.53 16.53 0 00-4.2-1.49c-.66 0-.855.855-1.636.855-.757 0-1.319-.635-2.027-.635-.684 0-1.124.464-1.466 1.417 0 0-.953 2.686-1.075 3.077a.716.716 0 00-.025.22c0 1.044 4.112 4.469 9.624 4.469m3.688-1.294a5.659 5.659 0 01.195 1.148c0 1.587-1.783 2.466-4.127 2.466-5.3 0-9.941-3.1-9.941-5.153a2.077 2.077 0 01.171-.83c-1.9.1-4.372.439-4.372 2.613 0 3.566 8.451 7.962 15.143 7.962 5.129 0 6.423-2.32 6.423-4.152 0-1.441-1.245-3.077-3.492-4.054M344.985 349.419c0 1.346.81 2 2.287 2a5.928 5.928 0 001.347-.191v-1.561a2.786 2.786 0 01-.87.131c-.608 0-.834-.19-.834-.762v-2.4h1.763v-1.609h-1.763V343l-1.93.417v1.62h-1.275v1.609h1.275zm-6 .036c0-.417.418-.62 1.049-.62a4.87 4.87 0 011.144.143v.81a2.435 2.435 0 01-1.2.3c-.619 0-.989-.238-.989-.631m.589 1.99a2.945 2.945 0 001.74-.489v.381h1.906V347.3c0-1.537-1.036-2.383-2.764-2.383a7.01 7.01 0 00-2.943.691l.691 1.418a5.149 5.149 0 011.907-.5c.8 0 1.2.309 1.2.941v.31a5.6 5.6 0 00-1.43-.179c-1.62 0-2.6.679-2.6 1.895a2.038 2.038 0 002.287 1.954m-10.473-.108h2.049v-3.264h3.432v3.264h2.049V343h-2.049v3.2h-3.432V343H329.1zm-7.809-3.157a1.6 1.6 0 011.656-1.6 1.95 1.95 0 011.334.489v2.2a1.851 1.851 0 01-1.334.5 1.6 1.6 0 01-1.656-1.6m3.014 3.157h1.907v-8.748l-1.931.417v2.371a3.248 3.248 0 10-1.668 6.053 2.844 2.844 0 001.692-.548zm-8.745-4.837a1.393 1.393 0 011.322 1h-2.633a1.312 1.312 0 011.311-1m-3.253 1.692a3.309 3.309 0 003.431 3.265 3.781 3.781 0 002.634-.954l-1.275-1.132a1.707 1.707 0 01-1.263.477 1.628 1.628 0 01-1.549-1h4.492v-.477a3.238 3.238 0 10-6.47-.178m-3.324-3.444a.948.948 0 110 1.883h-2.026v-1.883zm-4.075 6.589h2.049V348.3h1.561l1.573 3.038h2.287L310.545 348a2.523 2.523 0 001.573-2.347 2.708 2.708 0 00-2.943-2.653h-4.265z"/><path class="bcb16d6f-4c2c-406c-bccd-336fa3c7a50b" d="M0 20.004h573v80H0zM413 229.004h145v93.5H413z"/><path class="b42b6eae-762e-4e69-8f84-49d1a6da9f0c" d="M144.028 229.004h114v148.5h-114z"/><path class="b523cd8d-f7a0-4e24-a86b-9c0e3d93ee6b" d="M286.5 100.004v19.5M286.5 169.504v19.5M201.028 391.673v19.5M77 391.673v19.5M335.5 391.673v19.5M485.5 391.673v19.5"/><path class="bcb16d6f-4c2c-406c-bccd-336fa3c7a50b" d="M571 191v198.009L2 390.5V191h569m2-2H0v203.5l573-1.5V189z"/><path class="efa93846-fee7-4ee2-8402-1550d773ea37" d="M263 35.004h295v50H263z"/><path class="f5e85b9d-a0a4-4b35-bf70-d06c502429c6" d="M263 83.504v1.5h1.5"/><path class="bbfadaf6-fe15-4921-a990-10cfbd78fd10" d="M267.51 85.004h287.485"/><path class="f5e85b9d-a0a4-4b35-bf70-d06c502429c6" d="M556.5 85.004h1.5v-1.5"/><path class="ab0ee0ab-f115-42d7-a55b-442906920b7e" d="M558 80.371v-42.3"/><path class="f5e85b9d-a0a4-4b35-bf70-d06c502429c6" d="M558 36.504v-1.5h-1.5"/><path class="bbfadaf6-fe15-4921-a990-10cfbd78fd10" d="M553.49 35.004H266.005"/><path class="f5e85b9d-a0a4-4b35-bf70-d06c502429c6" d="M264.5 35.004H263v1.5"/><path class="ab0ee0ab-f115-42d7-a55b-442906920b7e" d="M263 39.637v42.3"/><path class="b9ab85a5-c437-48f8-ae27-c49c183b296c" d="M15 452.614h543v50H15z"/><path class="efa93846-fee7-4ee2-8402-1550d773ea37" d="M413.5 328.004h144v49h-144z"/><path class="f5e85b9d-a0a4-4b35-bf70-d06c502429c6" d="M413.5 375.504v1.5h1.5"/><path class="b40d4469-aabe-4edc-8d49-0afd3c8fc8c5" d="M418 377.004h136.5"/><path class="f5e85b9d-a0a4-4b35-bf70-d06c502429c6" d="M556 377.004h1.5v-1.5"/><path class="fc7c78e2-f417-4385-b4e8-d85f573b04a8" d="M557.5 372.437v-41.4"/><path class="f5e85b9d-a0a4-4b35-bf70-d06c502429c6" d="M557.5 329.504v-1.5H556"/><path class="b40d4469-aabe-4edc-8d49-0afd3c8fc8c5" d="M553 328.004H416.5"/><path class="f5e85b9d-a0a4-4b35-bf70-d06c502429c6" d="M415 328.004h-1.5v1.5"/><path class="fc7c78e2-f417-4385-b4e8-d85f573b04a8" d="M413.5 332.571v41.4"/><text class="b8cc25ff-f6ca-4a1e-b38d-7ddfc725d167" transform="translate(15 214.108)">Virtual Network Functions (VNFs)</text><text class="e22be22c-98b5-4bd3-80a4-a6117377d2d0" transform="translate(428 252.289)">Container</text><text class="e22be22c-98b5-4bd3-80a4-a6117377d2d0" transform="translate(159.028 252.289)">Validated VNF</text><path class="bcb16d6f-4c2c-406c-bccd-336fa3c7a50b" d="M15 229.004h124v148.5H15z"/><text class="e22be22c-98b5-4bd3-80a4-a6117377d2d0" transform="translate(30 252.289)">Other VNF</text><text class="e22be22c-98b5-4bd3-80a4-a6117377d2d0" transform="translate(15 56.707)">Operations/Business<tspan x="0" y="12">Support Systems (OSS/BSS)</tspan></text><path class="bcb16d6f-4c2c-406c-bccd-336fa3c7a50b" d="M0 119.504h573v50H0z"/><text class="e22be22c-98b5-4bd3-80a4-a6117377d2d0" transform="translate(15 147.457)">Element Management Systems (EMS)</text><text class="b8cc25ff-f6ca-4a1e-b38d-7ddfc725d167" transform="translate(15 437.108)">NFV Infrastructure</text><text class="ecb5b81d-2f2c-43d4-a723-c483ce1f3ca1" transform="translate(324.023 277.051)">VNF</text><path class="ad0dc634-5035-4d42-922d-2c3e020ff302" d="M30 264.254h94v24.5H30z"/><text class="ecb5b81d-2f2c-43d4-a723-c483ce1f3ca1" transform="translate(65.494 280.661)">VNF</text><path class="e5fdab27-ffa2-48a9-86a0-9dfd0cd33b00" d="M159.028 264.254h84v24.5h-84z"/><text class="ecb5b81d-2f2c-43d4-a723-c483ce1f3ca1" transform="translate(189.523 280.661)">VNF</text><text class="eccf6155-32e6-47a0-9f92-0fd3670a1d8e" transform="translate(318.542 301.953)">DPDK</text><path class="ad0dc634-5035-4d42-922d-2c3e020ff302" d="M428 263.004h55v22h-55z"/><text class="ecb5b81d-2f2c-43d4-a723-c483ce1f3ca1" transform="translate(443.994 277.051)">VNF</text><path class="ad0dc634-5035-4d42-922d-2c3e020ff302" d="M428 290.254h55v22h-55z"/><text class="ecb5b81d-2f2c-43d4-a723-c483ce1f3ca1" transform="translate(443.994 304.843)">VNF</text><path class="ad0dc634-5035-4d42-922d-2c3e020ff302" d="M488 263.004h55v22h-55z"/><text class="ecb5b81d-2f2c-43d4-a723-c483ce1f3ca1" transform="translate(503.994 277.051)">VNF</text><path class="ad0dc634-5035-4d42-922d-2c3e020ff302" d="M488 290.254h55v22h-55z"/><text class="ecb5b81d-2f2c-43d4-a723-c483ce1f3ca1" transform="translate(503.994 304.843)">VNF</text><path class="afe835a4-f3f1-4d00-8e6f-c658e0b0bfc5" d="M411.733 61.174v3.42h-2.466v-3.42h-3.294v-2.34h3.294v-3.42h2.466v3.42h3.294v2.34z"/><text class="ecb5b81d-2f2c-43d4-a723-c483ce1f3ca1" transform="translate(25.17 776.966)">Red Hat NFVI component</text><path class="b9ab85a5-c437-48f8-ae27-c49c183b296c" d="M0 763.92h20v20H0z"/><text class="ecb5b81d-2f2c-43d4-a723-c483ce1f3ca1" transform="translate(216.119 776.966)">Optional Red Hat component</text><path class="efa93846-fee7-4ee2-8402-1550d773ea37" d="M190.949 763.92h20v20h-20z"/><path class="f5e85b9d-a0a4-4b35-bf70-d06c502429c6" d="M210.949 782.42v1.5h-1.5"/><path class="a2eb3a69-238e-4523-b377-901d6a5d1368" d="M206.049 783.92h-11.9"/><path class="f5e85b9d-a0a4-4b35-bf70-d06c502429c6" d="M192.449 783.92h-1.5v-1.5"/><path class="a2eb3a69-238e-4523-b377-901d6a5d1368" d="M190.949 779.02v-11.9"/><path class="f5e85b9d-a0a4-4b35-bf70-d06c502429c6" d="M190.949 765.42v-1.5h1.5"/><path class="a2eb3a69-238e-4523-b377-901d6a5d1368" d="M195.849 763.92h11.9"/><path class="f5e85b9d-a0a4-4b35-bf70-d06c502429c6" d="M209.449 763.92h1.5v1.5"/><path class="a2eb3a69-238e-4523-b377-901d6a5d1368" d="M210.949 768.82v11.9"/><text class="ecb5b81d-2f2c-43d4-a723-c483ce1f3ca1" transform="translate(425.779 776.966)">Red Hat partner component</text><path class="b42b6eae-762e-4e69-8f84-49d1a6da9f0c" d="M400.609 763.92h20v20h-20z"/><g><text class="ecb5b81d-2f2c-43d4-a723-c483ce1f3ca1" transform="translate(629.344 776.966)">Other vendor component</text><path class="bcb16d6f-4c2c-406c-bccd-336fa3c7a50b" d="M604.174 763.92h20v20h-20z"/></g><path class="b42b6eae-762e-4e69-8f84-49d1a6da9f0c" d="M15.236 668.913h543v50h-543z"/><text class="e22be22c-98b5-4bd3-80a4-a6117377d2d0" transform="translate(30 696.867)">Certified Hardware</text><g><path class="e5fdab27-ffa2-48a9-86a0-9dfd0cd33b00" d="M164 678.913h117v30H164z"/><text class="ecb5b81d-2f2c-43d4-a723-c483ce1f3ca1" transform="translate(177.092 696.961)">Physical compute</text></g><g><path class="e5fdab27-ffa2-48a9-86a0-9dfd0cd33b00" d="M297.375 678.913h117v30h-117z"/><text class="ecb5b81d-2f2c-43d4-a723-c483ce1f3ca1" transform="translate(313.554 696.96)">Physical storage</text></g><g><path class="e5fdab27-ffa2-48a9-86a0-9dfd0cd33b00" d="M430.75 678.913h117v30h-117z"/><text class="ecb5b81d-2f2c-43d4-a723-c483ce1f3ca1" transform="translate(445.708 696.96)">Physical network</text></g><path class="b9ab85a5-c437-48f8-ae27-c49c183b296c" d="M149 613.913h409v50H149z"/><path class="b42b6eae-762e-4e69-8f84-49d1a6da9f0c" d="M15 507.614h129v156.3H15z"/><text class="e22be22c-98b5-4bd3-80a4-a6117377d2d0" transform="translate(30 531.876)">Certified plugins<tspan class="ea4662e7-c96b-45b3-b276-e281893e09b6"><tspan x="0" y="19">Software-Defined</tspan><tspan x="0" y="31">Networking (SDN)</tspan><tspan x="0" y="55">Software-Defined</tspan><tspan x="0" y="67">Storage (SDS)</tspan></tspan></text><path class="bcb16d6f-4c2c-406c-bccd-336fa3c7a50b" d="M571 412.509v318.408L2 731.91V414l569-1.49m2-2L0 412v321.913l573-1V410.5z"/><path class="b9ab85a5-c437-48f8-ae27-c49c183b296c" d="M149 507.614h138v101.5H149z"/><text class="a73277cc-e049-457b-89fc-a12e1907c231" transform="translate(164 529.899)">Virtual compute<tspan class="ea4662e7-c96b-45b3-b276-e281893e09b6"><tspan x="0" y="20">Kernel-based Virtual</tspan><tspan x="0" y="33">Machine (KVM)</tspan></tspan></text><path class="a1a4658e-6237-4aed-a0aa-c86c4823fc49" d="M164 572.067h108v22H164z"/><text class="eccf6155-32e6-47a0-9f92-0fd3670a1d8e" transform="translate(175.377 586.391)">Real-time KVM</text><path class="b9ab85a5-c437-48f8-ae27-c49c183b296c" d="M430 507.614h128v101.5H430z"/><text class="a73277cc-e049-457b-89fc-a12e1907c231" transform="translate(445 529.899)">Virtual Network<tspan class="ea4662e7-c96b-45b3-b276-e281893e09b6"><tspan x="0" y="19">Open vSwitch</tspan><tspan x="0" y="31">(OVS)</tspan></tspan></text><path class="a1a4658e-6237-4aed-a0aa-c86c4823fc49" d="M445 572.067h98v22h-98z"/><text class="eccf6155-32e6-47a0-9f92-0fd3670a1d8e" transform="translate(473.75 586.391)">+DPDK</text><g><path class="b4849228-4ceb-4f80-ae1a-aac9f9abc4e8" d="M319.219 65.558v6.716h-1.155v-8.248h1.649l2.593 5.267 2.58-5.267h1.65v8.248h-1.167v-6.728l-3.075 6.139zM327.938 64.58a.724.724 0 01.718-.731.731.731 0 110 1.461.724.724 0 01-.718-.73zm1.307 7.694h-1.178v-6h1.178zM335.231 71.709a2.834 2.834 0 01-1.838.659 3.093 3.093 0 111.826-5.6v-2.742l1.179-.259v8.507h-1.167zm-1.673-.366a2.158 2.158 0 001.661-.719V67.9a2.189 2.189 0 00-1.661-.707 2.074 2.074 0 000 4.147zM342.383 71.709a2.832 2.832 0 01-1.838.659 3.093 3.093 0 111.826-5.6v-2.742l1.179-.259v8.507h-1.167zm-1.673-.366a2.158 2.158 0 001.661-.719V67.9a2.189 2.189 0 00-1.661-.707 2.074 2.074 0 000 4.147zM346.118 72.274h-1.178v-8.248l1.178-.259zM350.384 72.38a3.087 3.087 0 01-3.147-3.111 3.014 3.014 0 013-3.087 2.97 2.97 0 012.9 3.135v.341H348.4a2.023 2.023 0 002.027 1.721 2.333 2.333 0 001.52-.531l.754.743a3.577 3.577 0 01-2.317.789zm-1.968-3.606h3.558a1.789 1.789 0 00-3.558 0zM355.262 72.274l-1.674-6h1.143l1.155 4.407 1.379-4.407h1.013l1.367 4.407 1.166-4.407h1.108l-1.685 6H359.1l-1.343-4.395-1.357 4.395zM362.4 70.554c0-1.132.919-1.827 2.427-1.827a4.236 4.236 0 011.638.33v-.636c0-.848-.507-1.273-1.461-1.273a4.27 4.27 0 00-1.862.507l-.436-.884a5.616 5.616 0 012.463-.612c1.555 0 2.451.765 2.451 2.144v3.971h-1.155v-.518a2.845 2.845 0 01-1.862.624c-1.303 0-2.203-.742-2.203-1.826zm2.474.954a2.305 2.305 0 001.591-.565v-1.037a3.112 3.112 0 00-1.544-.366c-.86 0-1.39.389-1.39.99.002.578.544.978 1.345.978zM368.977 66.276h1.178v.766a1.878 1.878 0 011.65-.895 1.486 1.486 0 01.6.094V67.3a2 2 0 00-.695-.13 1.637 1.637 0 00-1.555 1.1v4.006h-1.178zM375.858 72.38a3.086 3.086 0 01-3.146-3.111 3.013 3.013 0 013-3.087 2.97 2.97 0 012.9 3.135v.341h-4.737a2.023 2.023 0 002.027 1.721 2.333 2.333 0 001.52-.531l.754.743a3.577 3.577 0 01-2.318.789zm-1.968-3.606h3.559a1.789 1.789 0 00-3.559 0zM306.77 57.031c1.417 0 3.469-.293 3.469-1.979a1.573 1.573 0 00-.036-.387L309.359 51c-.195-.806-.366-1.172-1.783-1.881a16.557 16.557 0 00-4.2-1.489c-.66 0-.855.854-1.637.854-.757 0-1.319-.634-2.027-.634-.684 0-1.123.464-1.465 1.416 0 0-.953 2.687-1.075 3.077a.722.722 0 00-.025.22c0 1.044 4.112 4.47 9.623 4.47m3.688-1.3a5.644 5.644 0 01.2 1.148c0 1.588-1.783 2.467-4.128 2.467-5.3 0-9.94-3.1-9.94-5.153a2.086 2.086 0 01.171-.831c-1.905.1-4.372.44-4.372 2.613 0 3.566 8.451 7.962 15.142 7.962 5.13 0 6.424-2.32 6.424-4.151 0-1.442-1.246-3.078-3.493-4.055M358.01 58.086c0 1.346.811 2 2.288 2a5.934 5.934 0 001.347-.19v-1.56a2.816 2.816 0 01-.87.131c-.608 0-.834-.191-.834-.763v-2.4h1.759V53.7h-1.763v-2.037l-1.931.417v1.62h-1.275v1.608h1.275zm-6 .035c0-.417.417-.619 1.049-.619a4.818 4.818 0 011.144.143v.81a2.446 2.446 0 01-1.2.3c-.619 0-.989-.239-.989-.632m.589 1.99a2.956 2.956 0 001.74-.488V60h1.906v-4.035c0-1.537-1.037-2.383-2.764-2.383a7.007 7.007 0 00-2.943.691l.691 1.418a5.149 5.149 0 011.906-.5c.8 0 1.2.31 1.2.941v.31a5.609 5.609 0 00-1.43-.178c-1.621 0-2.6.679-2.6 1.894a2.039 2.039 0 002.288 1.954M342.128 60h2.049v-3.261h3.432V60h2.049v-8.337h-2.049v3.205h-3.432v-3.205h-2.049zm-7.81-3.158a1.6 1.6 0 011.656-1.6 1.952 1.952 0 011.335.488v2.2a1.857 1.857 0 01-1.335.5 1.6 1.6 0 01-1.656-1.6m3.015 3.17h1.906v-8.754l-1.93.417v2.371a3.248 3.248 0 10-1.668 6.053 2.841 2.841 0 001.692-.548zm-8.746-4.838a1.4 1.4 0 011.323 1h-2.633a1.312 1.312 0 011.31-1m-3.253 1.692a3.31 3.31 0 003.432 3.265 3.783 3.783 0 002.633-.953l-1.275-1.132a1.705 1.705 0 01-1.263.476 1.63 1.63 0 01-1.549-1h4.488v-.477a3.238 3.238 0 10-6.47-.179m-3.324-3.443a.948.948 0 110 1.882h-2.025v-1.878zM317.935 60h2.05v-3.034h1.561L323.118 60h2.288l-1.835-3.336a2.524 2.524 0 001.573-2.348 2.708 2.708 0 00-2.943-2.657h-4.266z"/></g><g><path class="b4849228-4ceb-4f80-ae1a-aac9f9abc4e8" d="M474.774 72.4a4.254 4.254 0 114.3-4.254 4.231 4.231 0 01-4.3 4.254zm0-7.365a3.112 3.112 0 103.04 3.111 3.018 3.018 0 00-3.04-3.107zM480.253 66.276h1.167v.578a2.735 2.735 0 011.838-.672 3.093 3.093 0 11-1.827 5.6v2.934h-1.178zm1.178 1.65v2.71a2.224 2.224 0 001.673.707 2.068 2.068 0 000-4.136 2.154 2.154 0 00-1.673.719zM490.3 72.38a3.086 3.086 0 01-3.146-3.111 3.013 3.013 0 013-3.087 2.97 2.97 0 012.9 3.135v.341h-4.737a2.023 2.023 0 002.027 1.721 2.333 2.333 0 001.52-.531l.754.743a3.577 3.577 0 01-2.318.789zm-1.968-3.606h3.568a1.789 1.789 0 00-3.559 0zM494.18 66.276h1.179v.6a2.469 2.469 0 011.8-.718 2.239 2.239 0 012.345 2.344v3.771h-1.178V68.7a1.4 1.4 0 00-1.485-1.52 1.7 1.7 0 00-1.484.777v4.313h-1.177zM501.014 70.035a3.982 3.982 0 002.84 1.3c1.19 0 2-.565 2-1.378 0-.731-.471-1.1-1.673-1.3l-1.379-.224c-1.508-.248-2.25-.955-2.25-2.145 0-1.437 1.2-2.368 3.039-2.368a5.529 5.529 0 013.323 1.119l-.683.943a4.378 4.378 0 00-2.7-1.013c-1.073 0-1.791.494-1.791 1.225 0 .672.412.99 1.472 1.167l1.332.212c1.744.282 2.533 1 2.533 2.286 0 1.52-1.319 2.533-3.287 2.533a4.966 4.966 0 01-3.535-1.485zM508.084 64.026l1.178-.259v3.11a2.47 2.47 0 011.8-.718 2.239 2.239 0 012.348 2.341v3.771h-1.179V68.7a1.4 1.4 0 00-1.484-1.52 1.7 1.7 0 00-1.485.777v4.313h-1.178zM514.635 64.58a.724.724 0 01.718-.731.731.731 0 110 1.461.724.724 0 01-.718-.73zm1.308 7.694h-1.179v-6h1.179zM518.228 66.276v-.907a1.789 1.789 0 012.039-1.932 3.078 3.078 0 01.848.106v1.025a2.341 2.341 0 00-.742-.106c-.648 0-.966.294-.966.931v.883h1.708v.99h-1.708v5.008h-1.179v-5.008h-1.39v-.99zM522.906 67.266h-1.273v-.99h1.273v-1.531l1.166-.283v1.814h1.768v.99h-1.768v3.252c0 .613.248.837.884.837a2.313 2.313 0 00.86-.141v.986a3.9 3.9 0 01-1.119.177c-1.167 0-1.791-.554-1.791-1.591z"/><g><path class="b4849228-4ceb-4f80-ae1a-aac9f9abc4e8" d="M459.546 57.031c1.416 0 3.468-.293 3.468-1.979a1.622 1.622 0 00-.035-.387L462.135 51c-.2-.806-.367-1.172-1.783-1.881a16.562 16.562 0 00-4.2-1.489c-.66 0-.855.854-1.637.854-.757 0-1.318-.634-2.027-.634-.683 0-1.123.464-1.465 1.416 0 0-.953 2.687-1.075 3.077a.722.722 0 00-.025.22c0 1.044 4.112 4.47 9.624 4.47m3.688-1.3a5.67 5.67 0 01.195 1.148c0 1.588-1.783 2.467-4.127 2.467-5.3 0-9.941-3.1-9.941-5.153a2.086 2.086 0 01.171-.831c-1.9.1-4.372.44-4.372 2.613 0 3.566 8.451 7.962 15.143 7.962 5.129 0 6.423-2.32 6.423-4.151 0-1.442-1.246-3.078-3.492-4.055M510.786 58.086c0 1.346.81 2 2.287 2a5.934 5.934 0 001.347-.19v-1.56a2.816 2.816 0 01-.87.131c-.608 0-.834-.191-.834-.763v-2.4h1.763V53.7h-1.763v-2.037l-1.93.417v1.62h-1.275v1.608h1.275zm-6 .035c0-.417.417-.619 1.049-.619a4.818 4.818 0 011.144.143v.81a2.446 2.446 0 01-1.2.3c-.619 0-.989-.239-.989-.632m.589 1.99a2.954 2.954 0 001.74-.488V60h1.906v-4.035c0-1.537-1.036-2.383-2.764-2.383a7.01 7.01 0 00-2.943.691l.691 1.418a5.149 5.149 0 011.906-.5c.8 0 1.2.31 1.2.941v.31a5.6 5.6 0 00-1.43-.178c-1.62 0-2.6.679-2.6 1.894a2.038 2.038 0 002.287 1.954M494.9 60h2.049v-3.261h3.432V60h2.049v-8.337h-2.049v3.205h-3.432v-3.205H494.9zm-7.81-3.158a1.6 1.6 0 011.657-1.6 1.95 1.95 0 011.334.488v2.2a1.855 1.855 0 01-1.334.5 1.6 1.6 0 01-1.657-1.6m3.018 3.17h1.906v-8.754l-1.93.417v2.371a3.248 3.248 0 10-1.668 6.053 2.837 2.837 0 001.692-.548zm-8.746-4.838a1.4 1.4 0 011.323 1h-2.633a1.312 1.312 0 011.31-1m-3.252 1.692a3.309 3.309 0 003.431 3.265 3.781 3.781 0 002.633-.953l-1.274-1.128a1.707 1.707 0 01-1.263.476 1.629 1.629 0 01-1.549-1h4.492v-.477a3.238 3.238 0 10-6.47-.179m-3.325-3.443a.948.948 0 110 1.882h-2.025v-1.882zM470.71 60h2.05v-3.034h1.561L475.894 60h2.287l-1.835-3.336a2.524 2.524 0 001.573-2.348 2.708 2.708 0 00-2.943-2.657h-4.266z"/></g></g><g><path class="b4849228-4ceb-4f80-ae1a-aac9f9abc4e8" d="M474.774 363.737a4.254 4.254 0 114.3-4.254 4.23 4.23 0 01-4.3 4.254zm0-7.364a3.111 3.111 0 103.04 3.11 3.017 3.017 0 00-3.04-3.11zM480.253 357.61h1.167v.577a2.734 2.734 0 011.838-.671 3.093 3.093 0 11-1.827 5.6v2.934h-1.178zm1.178 1.65v2.71a2.224 2.224 0 001.673.707 2.068 2.068 0 000-4.136 2.15 2.15 0 00-1.673.719zM490.3 363.714a3.086 3.086 0 01-3.146-3.111 3.013 3.013 0 013-3.087 2.97 2.97 0 012.9 3.134v.342h-4.737a2.023 2.023 0 002.027 1.72 2.332 2.332 0 001.52-.53l.754.742a3.578 3.578 0 01-2.318.79zm-1.968-3.606h3.568a1.789 1.789 0 00-3.559 0zM494.18 357.61h1.179v.6a2.47 2.47 0 011.8-.719 2.239 2.239 0 012.345 2.345v3.771h-1.178v-3.571a1.4 1.4 0 00-1.485-1.52 1.694 1.694 0 00-1.484.778v4.313h-1.177zM501.014 361.369a3.982 3.982 0 002.84 1.3c1.19 0 2-.566 2-1.379 0-.73-.471-1.1-1.673-1.3l-1.379-.224c-1.508-.247-2.251-.954-2.251-2.144 0-1.438 1.2-2.369 3.04-2.369a5.53 5.53 0 013.323 1.12l-.683.942a4.384 4.384 0 00-2.7-1.013c-1.073 0-1.791.5-1.791 1.225 0 .672.412.99 1.472 1.167l1.332.212c1.744.283 2.533 1 2.533 2.286 0 1.52-1.319 2.533-3.287 2.533a4.97 4.97 0 01-3.535-1.484zM508.084 355.359l1.178-.259v3.111a2.471 2.471 0 011.8-.719 2.24 2.24 0 012.345 2.345v3.771h-1.179v-3.571a1.4 1.4 0 00-1.484-1.52 1.694 1.694 0 00-1.485.778v4.313h-1.178zM514.635 355.913a.723.723 0 01.718-.73.731.731 0 110 1.461.724.724 0 01-.718-.731zm1.308 7.695h-1.179v-6h1.179zM518.228 357.61v-.91a1.79 1.79 0 012.039-1.933 3.078 3.078 0 01.848.106v1.027a2.37 2.37 0 00-.742-.106c-.648 0-.966.295-.966.931v.884h1.708v.99h-1.708v5.008h-1.179V358.6h-1.39v-.99zM522.906 358.6h-1.273v-.99h1.273v-1.532l1.166-.283v1.815h1.768v.99h-1.768v3.252c0 .613.248.836.884.836a2.313 2.313 0 00.86-.141v.99a3.9 3.9 0 01-1.119.177c-1.167 0-1.791-.554-1.791-1.591z"/><g><path class="b4849228-4ceb-4f80-ae1a-aac9f9abc4e8" d="M459.546 348.364c1.416 0 3.468-.293 3.468-1.978a1.626 1.626 0 00-.035-.388l-.844-3.666c-.2-.806-.367-1.173-1.783-1.881a16.53 16.53 0 00-4.2-1.49c-.66 0-.855.855-1.637.855-.757 0-1.318-.635-2.027-.635-.683 0-1.123.464-1.465 1.417 0 0-.953 2.686-1.075 3.077a.716.716 0 00-.025.22c0 1.044 4.112 4.469 9.624 4.469m3.688-1.294a5.659 5.659 0 01.195 1.148c0 1.587-1.783 2.466-4.127 2.466-5.3 0-9.941-3.1-9.941-5.153a2.077 2.077 0 01.171-.83c-1.9.1-4.372.439-4.372 2.613 0 3.566 8.451 7.962 15.143 7.962 5.129 0 6.423-2.32 6.423-4.152 0-1.441-1.246-3.077-3.492-4.054M510.786 349.419c0 1.346.81 2 2.287 2a5.936 5.936 0 001.347-.191v-1.561a2.786 2.786 0 01-.87.131c-.608 0-.834-.19-.834-.762v-2.4h1.763v-1.609h-1.763V343l-1.93.417v1.62h-1.275v1.609h1.275zm-6 .036c0-.417.417-.62 1.049-.62a4.87 4.87 0 011.144.143v.81a2.435 2.435 0 01-1.2.3c-.619 0-.989-.238-.989-.631m.589 1.99a2.947 2.947 0 001.74-.489v.381h1.906V347.3c0-1.537-1.036-2.383-2.764-2.383a7.01 7.01 0 00-2.943.691l.691 1.418a5.145 5.145 0 011.906-.5c.8 0 1.2.309 1.2.941v.31a5.6 5.6 0 00-1.43-.179c-1.62 0-2.6.679-2.6 1.894a2.038 2.038 0 002.287 1.955m-10.473-.108h2.049v-3.264h3.432v3.264h2.049V343h-2.049v3.2h-3.432V343H494.9zm-7.81-3.157a1.6 1.6 0 011.657-1.6 1.95 1.95 0 011.334.489v2.2a1.851 1.851 0 01-1.334.5 1.6 1.6 0 01-1.657-1.6m3.015 3.157h1.906v-8.748l-1.93.417v2.371a3.248 3.248 0 10-1.668 6.053 2.844 2.844 0 001.692-.548zm-8.746-4.837a1.394 1.394 0 011.323 1h-2.633a1.311 1.311 0 011.31-1m-3.252 1.692a3.308 3.308 0 003.431 3.264 3.776 3.776 0 002.633-.953l-1.275-1.132a1.7 1.7 0 01-1.263.477 1.628 1.628 0 01-1.548-1h4.492v-.477a3.238 3.238 0 10-6.47-.178m-3.325-3.444a.948.948 0 110 1.883h-2.021v-1.883zm-4.075 6.589h2.05V348.3h1.561l1.573 3.038h2.287L476.346 348a2.523 2.523 0 001.573-2.347 2.708 2.708 0 00-2.943-2.653h-4.266z"/></g></g><g><path class="efa93846-fee7-4ee2-8402-1550d773ea37" d="M248.974 488.847a4.254 4.254 0 114.3-4.254 4.231 4.231 0 01-4.3 4.254zm0-7.365a3.112 3.112 0 103.04 3.111 3.018 3.018 0 00-3.04-3.111zM254.453 482.72h1.167v.577a2.737 2.737 0 011.838-.672 3.094 3.094 0 11-1.826 5.6v2.935h-1.179zm1.179 1.649v2.71a2.223 2.223 0 001.673.707 2.068 2.068 0 000-4.135 2.15 2.15 0 00-1.673.718zM264.5 488.823a3.086 3.086 0 01-3.146-3.11 3.015 3.015 0 013-3.088 2.97 2.97 0 012.9 3.135v.341h-4.737a2.023 2.023 0 002.027 1.721 2.332 2.332 0 001.52-.53l.754.742a3.575 3.575 0 01-2.318.789zm-1.968-3.6h3.568a1.789 1.789 0 00-3.559 0zM268.38 482.72h1.179v.6a2.467 2.467 0 011.8-.719 2.239 2.239 0 012.344 2.345v3.77h-1.178v-3.57a1.4 1.4 0 00-1.485-1.52 1.694 1.694 0 00-1.484.778v4.312h-1.176zM275.214 486.479a3.982 3.982 0 002.84 1.3c1.19 0 2-.566 2-1.379 0-.731-.471-1.1-1.673-1.3l-1.379-.224c-1.508-.247-2.25-.954-2.25-2.145 0-1.437 1.2-2.368 3.04-2.368a5.54 5.54 0 013.323 1.119l-.684.943a4.382 4.382 0 00-2.7-1.013c-1.073 0-1.791.5-1.791 1.225 0 .672.412.99 1.473 1.167l1.331.212c1.744.283 2.533 1 2.533 2.286 0 1.52-1.319 2.533-3.287 2.533a4.97 4.97 0 01-3.535-1.484zM282.826 483.71h-1.273v-.99h1.273v-1.532l1.167-.283v1.815h1.767v.99h-1.767v3.252c0 .612.247.836.883.836a2.313 2.313 0 00.86-.141v.99a3.9 3.9 0 01-1.119.176c-1.167 0-1.791-.553-1.791-1.59zM286.325 487c0-1.131.919-1.826 2.428-1.826a4.221 4.221 0 011.638.33v-.637c0-.848-.507-1.272-1.462-1.272a4.267 4.267 0 00-1.861.506l-.436-.883a5.6 5.6 0 012.462-.613c1.556 0 2.451.766 2.451 2.144v3.971h-1.154v-.52a2.849 2.849 0 01-1.862.624c-1.308-.001-2.204-.743-2.204-1.824zm2.475.955a2.309 2.309 0 001.591-.566v-1.037a3.112 3.112 0 00-1.544-.365c-.86 0-1.391.388-1.391.989 0 .575.544.976 1.344.976zM297.378 487.056l.707.766a3.319 3.319 0 01-2.369 1 3.111 3.111 0 010-6.221 3.408 3.408 0 012.416 1l-.743.8a2.226 2.226 0 00-1.649-.754 2.071 2.071 0 00.023 4.135 2.186 2.186 0 001.615-.726zM299.039 480.469l1.178-.259v5.149l2.911-2.639h1.378l-3.087 2.816 3.252 3.181h-1.555l-2.9-2.828v2.828h-1.178zM307.817 480.469h3.818a2.473 2.473 0 110 4.925h-2.581v3.323h-1.237zm1.237 1.084v2.793h2.451a1.407 1.407 0 100-2.793zM316.642 488.717h-1.178v-8.248l1.178-.259zM317.726 487c0-1.131.919-1.826 2.427-1.826a4.214 4.214 0 011.638.33v-.637c0-.848-.506-1.272-1.461-1.272a4.271 4.271 0 00-1.862.506l-.436-.883a5.607 5.607 0 012.463-.613c1.556 0 2.451.766 2.451 2.144v3.971h-1.155v-.52a2.844 2.844 0 01-1.861.624c-1.308-.001-2.204-.743-2.204-1.824zm2.475.955a2.305 2.305 0 001.59-.566v-1.037a3.105 3.105 0 00-1.543-.365c-.86 0-1.391.388-1.391.989 0 .575.543.976 1.343.976zM324.843 483.71h-1.273v-.99h1.273v-1.532l1.166-.283v1.815h1.768v.99h-1.768v3.252c0 .612.248.836.884.836a2.313 2.313 0 00.86-.141v.99a3.9 3.9 0 01-1.119.176c-1.167 0-1.791-.553-1.791-1.59zM329.662 482.72v-.908a1.789 1.789 0 012.039-1.932 3.083 3.083 0 01.848.106v1.025a2.37 2.37 0 00-.742-.106c-.649 0-.967.3-.967.931v.884h1.709v.99h-1.709v5.007h-1.178v-5.007h-1.39v-.99zM336.048 482.6a3.117 3.117 0 11-3.122 3.111 3.079 3.079 0 013.122-3.111zm1.952 3.113a1.966 1.966 0 10-1.956 2.085 2 2 0 001.956-2.085zM340.278 482.72h1.178v.766a1.878 1.878 0 011.65-.9 1.512 1.512 0 01.6.094v1.061a2 2 0 00-.695-.13 1.639 1.639 0 00-1.556 1.1v4.006h-1.178zM344.649 482.72h1.179v.565a2.3 2.3 0 011.685-.683 2.09 2.09 0 011.85 1 2.4 2.4 0 012.026-1 2.2 2.2 0 012.251 2.345v3.77h-1.178v-3.57a1.347 1.347 0 00-1.379-1.52 1.6 1.6 0 00-1.4.8 2.525 2.525 0 01.047.519v3.77h-1.167v-3.57a1.347 1.347 0 00-1.378-1.52 1.569 1.569 0 00-1.355.731v4.359h-1.179zM233.745 473.474c1.417 0 3.469-.293 3.469-1.978a1.626 1.626 0 00-.035-.388l-.844-3.667c-.2-.806-.367-1.172-1.783-1.88a16.544 16.544 0 00-4.2-1.49c-.66 0-.855.855-1.637.855-.757 0-1.318-.635-2.027-.635-.683 0-1.123.464-1.465 1.416 0 0-.953 2.687-1.075 3.077a.722.722 0 00-.025.22c0 1.045 4.112 4.47 9.623 4.47m3.688-1.294a5.642 5.642 0 01.2 1.147c0 1.588-1.783 2.467-4.128 2.467-5.3 0-9.94-3.1-9.94-5.153a2.086 2.086 0 01.171-.831c-1.905.1-4.372.44-4.372 2.614 0 3.565 8.451 7.962 15.143 7.962 5.129 0 6.423-2.32 6.423-4.152 0-1.441-1.246-3.077-3.493-4.054M284.986 474.529c0 1.346.81 2 2.287 2a5.936 5.936 0 001.347-.191v-1.561a2.816 2.816 0 01-.87.131c-.608 0-.834-.191-.834-.763v-2.394h1.763v-1.609h-1.763v-2.038l-1.93.418v1.62h-1.275v1.609h1.275zm-6 .036c0-.418.417-.62 1.049-.62a4.87 4.87 0 011.144.143v.81a2.435 2.435 0 01-1.2.3c-.619 0-.989-.238-.989-.631m.589 1.989a2.956 2.956 0 001.74-.488v.381h1.906v-4.039c0-1.537-1.036-2.383-2.764-2.383a7.01 7.01 0 00-2.943.691l.691 1.418a5.149 5.149 0 011.906-.5c.8 0 1.2.31 1.2.942v.309a5.609 5.609 0 00-1.43-.178c-1.62 0-2.6.679-2.6 1.894a2.039 2.039 0 002.288 1.954m-10.473-.107h2.049v-3.265h3.432v3.265h2.049v-8.341h-2.049v3.206h-3.432v-3.206H269.1zm-7.81-3.157a1.6 1.6 0 011.657-1.6 1.956 1.956 0 011.334.488v2.205a1.855 1.855 0 01-1.334.5 1.6 1.6 0 01-1.657-1.6m3.015 3.157h1.906v-8.758l-1.93.417v2.372a3.248 3.248 0 10-1.668 6.053 2.84 2.84 0 001.692-.549zm-8.746-4.837a1.4 1.4 0 011.323 1h-2.633a1.312 1.312 0 011.31-1m-3.249 1.694a3.309 3.309 0 003.431 3.264 3.781 3.781 0 002.633-.953l-1.275-1.132a1.7 1.7 0 01-1.263.477 1.629 1.629 0 01-1.549-1h4.492v-.477a3.238 3.238 0 10-6.469-.178m-3.325-3.444a.948.948 0 110 1.883h-2.025v-1.883zm-4.075 6.589h2.05v-3.038h1.561l1.572 3.038h2.288l-1.835-3.336a2.524 2.524 0 001.573-2.347 2.708 2.708 0 00-2.943-2.658h-4.266z"/></g><path class="b9ab85a5-c437-48f8-ae27-c49c183b296c" d="M292 507.614h133v101.5H292z"/><text class="a73277cc-e049-457b-89fc-a12e1907c231" transform="translate(307 529.899)">Virtual storage</text><g><path class="efa93846-fee7-4ee2-8402-1550d773ea37" d="M339.136 567.534l.813.825a4.5 4.5 0 01-3.3 1.426 4.255 4.255 0 110-8.508 4.451 4.451 0 013.323 1.426l-.825.848a3.28 3.28 0 00-2.5-1.131 3.111 3.111 0 00.035 6.222 3.2 3.2 0 002.454-1.108zM343.519 563.563a2.97 2.97 0 012.9 3.134v.342h-4.737a2.023 2.023 0 002.027 1.72 2.332 2.332 0 001.52-.53l.754.743a3.539 3.539 0 01-2.321.789 3.087 3.087 0 01-3.147-3.111 3.014 3.014 0 013.004-3.087zm-1.826 2.592h3.558a1.789 1.789 0 00-3.558 0zM347.525 563.657h1.167v.566a2.833 2.833 0 011.838-.66 3.093 3.093 0 01-.035 6.186 2.971 2.971 0 01-1.792-.589v2.934h-1.178zm1.178 1.638v2.734a2.234 2.234 0 001.662.7 2.068 2.068 0 000-4.136 2.14 2.14 0 00-1.665.702zM358.813 566.085a1.4 1.4 0 00-1.5-1.52 1.689 1.689 0 00-1.473.777v4.313h-1.179v-8.248l1.179-.26v3.111a2.451 2.451 0 011.8-.719 2.237 2.237 0 012.334 2.345v3.771h-1.167zM363.974 567.416a3.92 3.92 0 002.839 1.3c1.2 0 2-.565 2-1.378 0-.719-.448-1.1-1.674-1.3l-1.378-.224c-1.532-.26-2.251-.978-2.251-2.145 0-1.426 1.19-2.368 3.04-2.368a5.584 5.584 0 013.323 1.119l-.683.943a4.406 4.406 0 00-2.7-1.014c-1.072 0-1.791.5-1.791 1.226 0 .66.412.99 1.473 1.166l1.332.212c1.755.283 2.533 1.014 2.533 2.286 0 1.509-1.32 2.534-3.288 2.534a4.968 4.968 0 01-3.535-1.485zM371.585 564.647h-1.272v-.99h1.272v-1.532l1.167-.282v1.814h1.767v.99h-1.767v3.253c0 .613.247.837.884.837a2.26 2.26 0 00.86-.142v.99a4.041 4.041 0 01-1.12.177c-1.166 0-1.791-.554-1.791-1.591zM378.113 563.539a3.117 3.117 0 11-3.122 3.111 3.079 3.079 0 013.122-3.111zm0 1.037a2.083 2.083 0 101.968 2.074 2 2 0 00-1.968-2.074zM382.331 563.657h1.179v.743a1.922 1.922 0 011.638-.872 1.709 1.709 0 01.612.094v1.06a2.118 2.118 0 00-.707-.129 1.614 1.614 0 00-1.543 1.084v4.018h-1.179zM386.173 567.935c0-1.2 1.025-1.827 2.427-1.827a4.151 4.151 0 011.638.33v-.638c0-.849-.507-1.273-1.461-1.273a4.344 4.344 0 00-1.862.507l-.436-.884a5.637 5.637 0 012.463-.613c1.543 0 2.45.755 2.45 2.145v3.971h-1.154v-.518a2.827 2.827 0 01-1.862.624c-1.308.002-2.203-.752-2.203-1.824zm2.474.954a2.3 2.3 0 001.591-.566v-1.048a3.143 3.143 0 00-1.544-.354c-.825 0-1.39.366-1.39.99-.004.589.553.978 1.343.978zM392.488 566.627a3.025 3.025 0 013.04-3.076 2.891 2.891 0 011.779.6v-.5h1.167v6.049c0 1.579-.99 2.427-2.746 2.427a4.982 4.982 0 01-2.415-.589l.459-.919a4.06 4.06 0 001.921.519c1.049 0 1.6-.483 1.6-1.426v-.648a2.8 2.8 0 01-1.791.636 3.013 3.013 0 01-3.014-3.073zm3.158 2.05a2.161 2.161 0 001.649-.7v-2.71a2.163 2.163 0 00-1.649-.7 2.051 2.051 0 000 4.1zM402.586 563.563a2.969 2.969 0 012.9 3.134v.342h-4.736a2.022 2.022 0 002.026 1.72 2.332 2.332 0 001.52-.53l.755.743a3.54 3.54 0 01-2.322.789 3.087 3.087 0 01-3.146-3.111 3.014 3.014 0 013.003-3.087zm-1.827 2.592h3.559a1.789 1.789 0 00-3.559 0z"/><g><path class="efa93846-fee7-4ee2-8402-1550d773ea37" d="M321.385 554.412c1.417 0 3.469-.294 3.469-1.979a1.622 1.622 0 00-.035-.387l-.844-3.667c-.2-.806-.367-1.172-1.783-1.881a16.575 16.575 0 00-4.2-1.489c-.66 0-.855.854-1.637.854-.757 0-1.318-.635-2.027-.635-.683 0-1.123.464-1.465 1.417 0 0-.953 2.687-1.075 3.077a.719.719 0 00-.025.22c0 1.044 4.112 4.47 9.623 4.47m3.688-1.3a5.644 5.644 0 01.2 1.148c0 1.588-1.783 2.467-4.128 2.467-5.3 0-9.94-3.1-9.94-5.154a2.084 2.084 0 01.171-.83c-1.905.1-4.372.44-4.372 2.613 0 3.566 8.451 7.962 15.143 7.962 5.129 0 6.423-2.32 6.423-4.151 0-1.442-1.246-3.078-3.493-4.055M372.626 555.466c0 1.347.81 2 2.287 2a5.934 5.934 0 001.347-.19v-1.561a2.816 2.816 0 01-.87.131c-.608 0-.834-.191-.834-.763v-2.393h1.763v-1.608h-1.763v-2.038l-1.93.417v1.621h-1.275v1.608h1.275zm-6 .036c0-.417.417-.619 1.049-.619a4.818 4.818 0 011.144.143v.81a2.446 2.446 0 01-1.2.3c-.619 0-.989-.239-.989-.632m.589 1.99a2.949 2.949 0 001.74-.489v.382h1.906v-4.039c0-1.538-1.036-2.384-2.764-2.384a7.012 7.012 0 00-2.943.692l.691 1.417a5.164 5.164 0 011.906-.5c.8 0 1.2.31 1.2.941v.31a5.609 5.609 0 00-1.43-.179c-1.62 0-2.6.68-2.6 1.895a2.038 2.038 0 002.287 1.954m-10.473-.107h2.049v-3.267h3.432v3.265h2.049v-8.341h-2.049v3.205h-3.432v-3.205h-2.049zm-7.81-3.158a1.6 1.6 0 011.657-1.6 1.951 1.951 0 011.334.488v2.2a1.851 1.851 0 01-1.334.5 1.6 1.6 0 01-1.657-1.6m3.015 3.158h1.906v-8.758l-1.93.417v2.371a3.248 3.248 0 10-1.668 6.053 2.839 2.839 0 001.692-.548zm-8.746-4.838a1.394 1.394 0 011.323 1h-2.633a1.312 1.312 0 011.31-1m-3.252 1.692a3.309 3.309 0 003.431 3.265 3.781 3.781 0 002.633-.953l-1.275-1.132a1.7 1.7 0 01-1.263.476 1.63 1.63 0 01-1.549-1h4.492v-.476a3.238 3.238 0 10-6.469-.179m-3.325-3.443a.948.948 0 110 1.882H334.6V550.8zm-4.075 6.589h2.05v-3.039h1.561l1.572 3.039h2.288l-1.835-3.336a2.524 2.524 0 001.573-2.348 2.708 2.708 0 00-2.943-2.657h-4.262z"/></g></g><g><path class="efa93846-fee7-4ee2-8402-1550d773ea37" d="M323.038 641.769h6.08v1.084h-4.843v2.474h3.182v1.061h-3.182v2.545h4.89v1.084h-6.127zM330.3 644.019h1.179v.6a2.47 2.47 0 011.8-.719 2.239 2.239 0 012.345 2.345v3.771h-1.178v-3.57a1.4 1.4 0 00-1.485-1.52 1.7 1.7 0 00-1.484.777v4.313H330.3zM337.519 645.009h-1.273v-.99h1.273v-1.532l1.167-.282v1.814h1.767v.99h-1.767v3.252c0 .613.247.837.883.837a2.313 2.313 0 00.86-.142v.99a3.9 3.9 0 01-1.119.177c-1.167 0-1.791-.554-1.791-1.591zM344.07 650.123a3.087 3.087 0 01-3.146-3.111 3.014 3.014 0 013-3.087 2.97 2.97 0 012.9 3.134v.342h-4.737a2.023 2.023 0 002.027 1.72 2.332 2.332 0 001.52-.53l.754.742a3.573 3.573 0 01-2.318.79zm-1.967-3.606h3.558a1.789 1.789 0 00-3.558 0zM347.947 644.019h1.178v.766a1.878 1.878 0 011.65-.895 1.494 1.494 0 01.6.094v1.06a2.031 2.031 0 00-.695-.129 1.638 1.638 0 00-1.556 1.1v4.006h-1.178zM352.318 644.019h1.167v.578a2.735 2.735 0 011.838-.672 3.093 3.093 0 11-1.827 5.6v2.934h-1.178zm1.178 1.65v2.71a2.225 2.225 0 001.674.707 2.068 2.068 0 000-4.136 2.151 2.151 0 00-1.67.719zM359.47 644.019h1.179v.766a1.876 1.876 0 011.649-.895 1.494 1.494 0 01.6.094v1.06a2.027 2.027 0 00-.695-.129 1.637 1.637 0 00-1.555 1.1v4.006h-1.178zM363.712 642.322a.724.724 0 01.719-.73.731.731 0 010 1.461.724.724 0 01-.719-.731zm1.308 7.7h-1.179v-6h1.179zM366.481 648.462a3.146 3.146 0 001.956.754c.848 0 1.437-.366 1.437-.9 0-.424-.306-.672-.966-.766l-1.084-.153c-1.19-.177-1.791-.731-1.791-1.661 0-1.084.942-1.815 2.345-1.815a4.107 4.107 0 012.415.766l-.6.778a3.333 3.333 0 00-1.9-.625c-.719 0-1.2.33-1.2.813 0 .436.283.648.99.754l1.084.153c1.19.177 1.815.743 1.815 1.674 0 1.072-1.084 1.885-2.51 1.885a3.953 3.953 0 01-2.628-.884zM374.823 650.123a3.086 3.086 0 01-3.146-3.111 3.013 3.013 0 013-3.087 2.97 2.97 0 012.9 3.134v.342h-4.737a2.023 2.023 0 002.027 1.72 2.332 2.332 0 001.52-.53l.754.742a3.572 3.572 0 01-2.318.79zm-1.968-3.606h3.559a1.789 1.789 0 00-3.559 0zM381.3 641.769h1.237v7.152h4.749v1.1H381.3zM388.267 642.322a.724.724 0 01.719-.73.731.731 0 010 1.461.724.724 0 01-.719-.731zm1.308 7.7H388.4v-6h1.179zM390.965 644.019h1.178v.6a2.472 2.472 0 011.8-.719 2.239 2.239 0 012.345 2.345v3.771h-1.178v-3.57a1.4 1.4 0 00-1.485-1.52 1.7 1.7 0 00-1.485.777v4.313h-1.178zM398.742 647.578a1.405 1.405 0 001.484 1.532 1.684 1.684 0 001.473-.79v-4.3h1.179v6H401.7v-.6a2.451 2.451 0 01-1.8.719 2.24 2.24 0 01-2.333-2.357v-3.759h1.179zM405.929 646.941l-2.239-2.922h1.379l1.543 2.062 1.544-2.062h1.332l-2.216 2.911 2.369 3.087h-1.391l-1.65-2.217-1.674 2.215H403.6zM311.745 634.774c1.416 0 3.468-.294 3.468-1.979a1.635 1.635 0 00-.035-.388l-.844-3.666c-.2-.806-.367-1.172-1.783-1.881a16.562 16.562 0 00-4.2-1.489c-.66 0-.855.854-1.636.854-.757 0-1.319-.635-2.027-.635-.684 0-1.124.464-1.466 1.417 0 0-.953 2.686-1.075 3.077a.719.719 0 00-.025.22c0 1.044 4.112 4.47 9.624 4.47m3.688-1.295a5.67 5.67 0 01.195 1.148c0 1.588-1.783 2.467-4.127 2.467-5.3 0-9.941-3.1-9.941-5.154a2.084 2.084 0 01.171-.83c-1.9.1-4.372.44-4.372 2.613 0 3.566 8.451 7.962 15.143 7.962 5.129 0 6.423-2.32 6.423-4.151 0-1.442-1.245-3.078-3.492-4.055M362.985 635.828c0 1.347.81 2 2.287 2a5.873 5.873 0 001.347-.191v-1.56a2.816 2.816 0 01-.87.131c-.608 0-.834-.191-.834-.763v-2.395h1.763v-1.608h-1.763v-2.038l-1.93.417v1.621h-1.275v1.608h1.275zm-6 .036c0-.417.418-.619 1.049-.619a4.818 4.818 0 011.144.143v.81a2.446 2.446 0 01-1.2.3c-.619 0-.989-.239-.989-.632m.589 1.99a2.945 2.945 0 001.74-.489v.382h1.906v-4.04c0-1.537-1.036-2.383-2.764-2.383a7.012 7.012 0 00-2.943.692l.691 1.417a5.169 5.169 0 011.907-.5c.8 0 1.2.31 1.2.941v.31a5.6 5.6 0 00-1.43-.179c-1.62 0-2.6.68-2.6 1.895a2.038 2.038 0 002.287 1.954m-10.473-.107h2.049v-3.265h3.432v3.265h2.049v-8.341h-2.049v3.205h-3.432v-3.205H347.1zm-7.809-3.158a1.6 1.6 0 011.656-1.6 1.95 1.95 0 011.334.488v2.2a1.851 1.851 0 01-1.334.5 1.6 1.6 0 01-1.656-1.6m3.014 3.158h1.907v-8.758l-1.931.417v2.371a3.248 3.248 0 10-1.668 6.053 2.844 2.844 0 001.692-.548zm-8.745-4.838a1.393 1.393 0 011.322 1h-2.633a1.314 1.314 0 011.311-1m-3.253 1.692a3.309 3.309 0 003.431 3.265 3.785 3.785 0 002.634-.953l-1.275-1.132a1.707 1.707 0 01-1.263.476 1.628 1.628 0 01-1.549-1h4.492v-.476a3.238 3.238 0 10-6.47-.179m-3.324-3.443a.948.948 0 110 1.882h-2.026v-1.882zm-4.075 6.589h2.049v-3.039h1.561l1.573 3.039h2.287l-1.835-3.337a2.522 2.522 0 001.573-2.347 2.708 2.708 0 00-2.943-2.657h-4.262z"/></g><path class="b7215022-9a8c-4a25-96d5-6c4fe2ba2470" d="M682.5 312.504v19.5M682.5 261.004v19.5"/><path class="b9ab85a5-c437-48f8-ae27-c49c183b296c" d="M620 331.844h125v128.5H620z"/><text class="a73277cc-e049-457b-89fc-a12e1907c231" transform="translate(635 354.138)">Virtualized<tspan x="0" y="12">Infrastructure</tspan><tspan x="0" y="24">Manager(s)</tspan></text><text class="b8cc25ff-f6ca-4a1e-b38d-7ddfc725d167" transform="translate(620 214.108)">NFV MANO</text><g><path class="efa93846-fee7-4ee2-8402-1550d773ea37" d="M649.385 402.541c1.417 0 3.469-.293 3.469-1.978a1.576 1.576 0 00-.036-.388l-.843-3.666c-.2-.806-.367-1.173-1.783-1.881a16.544 16.544 0 00-4.2-1.49c-.66 0-.855.855-1.637.855-.757 0-1.318-.635-2.027-.635-.683 0-1.123.464-1.465 1.417 0 0-.953 2.686-1.075 3.077a.716.716 0 00-.025.22c0 1.044 4.112 4.469 9.623 4.469m3.688-1.294a5.633 5.633 0 01.2 1.148c0 1.587-1.783 2.466-4.128 2.466-5.3 0-9.94-3.1-9.94-5.153a2.077 2.077 0 01.171-.83c-1.9.1-4.372.439-4.372 2.613 0 3.566 8.451 7.962 15.143 7.962 5.129 0 6.423-2.32 6.423-4.152 0-1.441-1.246-3.077-3.493-4.054M664.614 417.914a4.254 4.254 0 114.3-4.254 4.23 4.23 0 01-4.3 4.254zm0-7.365a3.112 3.112 0 103.04 3.111 3.018 3.018 0 00-3.04-3.111zM670.093 411.787h1.166v.577a2.739 2.739 0 011.839-.672 3.093 3.093 0 11-1.827 5.6v2.934h-1.178zm1.178 1.649v2.71a2.224 2.224 0 001.673.707 2.068 2.068 0 000-4.136 2.154 2.154 0 00-1.673.719zM680.144 417.89a3.087 3.087 0 01-3.144-3.111 3.014 3.014 0 013-3.087 2.97 2.97 0 012.9 3.135v.341h-4.737a2.023 2.023 0 002.027 1.721 2.333 2.333 0 001.52-.531l.754.743a3.577 3.577 0 01-2.32.789zm-1.968-3.6h3.558a1.789 1.789 0 00-3.558 0zM684.02 411.787h1.18v.6a2.468 2.468 0 011.8-.719 2.239 2.239 0 012.345 2.345v3.77h-1.178v-3.57a1.4 1.4 0 00-1.485-1.52 1.7 1.7 0 00-1.485.778v4.312h-1.177zM690.854 415.545a3.979 3.979 0 002.84 1.3c1.19 0 2-.565 2-1.378 0-.731-.472-1.1-1.673-1.3l-1.379-.224c-1.508-.248-2.251-.955-2.251-2.145 0-1.437 1.2-2.368 3.04-2.368a5.538 5.538 0 013.323 1.119l-.683.943a4.378 4.378 0 00-2.7-1.013c-1.072 0-1.791.5-1.791 1.225 0 .672.413.99 1.473 1.167l1.332.212c1.744.282 2.533 1 2.533 2.286 0 1.52-1.32 2.533-3.287 2.533a4.965 4.965 0 01-3.535-1.485zM698.466 412.776h-1.273v-.989h1.273v-1.532l1.166-.283v1.815h1.768v.989h-1.768v3.253c0 .612.248.836.884.836a2.313 2.313 0 00.86-.141v.99a3.9 3.9 0 01-1.119.176c-1.167 0-1.791-.553-1.791-1.59zM701.965 416.064c0-1.131.919-1.827 2.427-1.827a4.232 4.232 0 011.638.33v-.636c0-.848-.506-1.273-1.461-1.273a4.274 4.274 0 00-1.862.507l-.436-.884a5.619 5.619 0 012.463-.612c1.555 0 2.451.766 2.451 2.144v3.971h-1.155v-.518a2.845 2.845 0 01-1.862.624c-1.308 0-2.203-.742-2.203-1.826zm2.475.954a2.3 2.3 0 001.59-.565v-1.037a3.106 3.106 0 00-1.543-.366c-.861 0-1.391.389-1.391.99.004.578.542.978 1.344.978zM713.017 416.123l.707.766a3.316 3.316 0 01-2.368 1 3.111 3.111 0 010-6.221 3.4 3.4 0 012.415 1l-.742.8a2.229 2.229 0 00-1.65-.755 2.071 2.071 0 00.024 4.136 2.184 2.184 0 001.614-.726zM714.678 409.536l1.179-.259v5.149l2.91-2.639h1.379l-3.087 2.816 3.252 3.181h-1.555l-2.9-2.828v2.828h-1.179zM660.678 421.772h3.822a2.473 2.473 0 110 4.925h-2.58v3.323h-1.238zm1.238 1.084v2.793h2.451a1.407 1.407 0 100-2.793zM669.5 430.02h-1.179v-8.248l1.179-.259zM670.588 428.3c0-1.131.919-1.827 2.427-1.827a4.24 4.24 0 011.638.33v-.636c0-.848-.507-1.273-1.461-1.273a4.27 4.27 0 00-1.862.507l-.436-.884a5.612 5.612 0 012.463-.612c1.555 0 2.451.766 2.451 2.144v3.971h-1.155v-.52a2.845 2.845 0 01-1.862.624c-1.308.002-2.203-.74-2.203-1.824zm2.474.954a2.307 2.307 0 001.591-.565v-1.037a3.112 3.112 0 00-1.544-.366c-.86 0-1.39.389-1.39.99 0 .578.542.978 1.343.978zM677.7 425.012h-1.272v-.989h1.272v-1.532l1.167-.283v1.815h1.768v.989h-1.768v3.252c0 .613.247.837.884.837a2.316 2.316 0 00.86-.141v.99a3.9 3.9 0 01-1.119.176c-1.167 0-1.792-.554-1.792-1.59zM682.524 424.023v-.908a1.788 1.788 0 012.038-1.932 3.078 3.078 0 01.848.106v1.025a2.337 2.337 0 00-.742-.106c-.648 0-.966.295-.966.931v.884h1.708v.989h-1.71v5.008h-1.178v-5.008h-1.391v-.989zM688.91 423.905a3.117 3.117 0 11-3.123 3.11 3.078 3.078 0 013.123-3.11zm1.956 3.11a1.966 1.966 0 10-1.956 2.086 2 2 0 001.956-2.086zM693.14 424.023h1.178v.765a1.878 1.878 0 011.65-.9 1.512 1.512 0 01.6.094v1.061a2.01 2.01 0 00-.7-.13 1.637 1.637 0 00-1.555 1.1v4.006h-1.173zM697.511 424.023h1.178v.565a2.3 2.3 0 011.685-.683 2.09 2.09 0 011.85 1 2.4 2.4 0 012.027-1 2.2 2.2 0 012.251 2.345v3.77h-1.179v-3.57a1.347 1.347 0 00-1.378-1.52 1.6 1.6 0 00-1.4.8 2.457 2.457 0 01.048.519v3.77h-1.167v-3.57a1.347 1.347 0 00-1.379-1.52 1.572 1.572 0 00-1.355.73v4.36h-1.178zM700.626 403.6c0 1.346.81 2 2.287 2a5.936 5.936 0 001.347-.191v-1.561a2.786 2.786 0 01-.87.131c-.608 0-.834-.19-.834-.762v-2.397h1.763v-1.609h-1.763v-2.037l-1.93.417v1.62h-1.275v1.609h1.275zm-6 .036c0-.417.417-.62 1.049-.62a4.87 4.87 0 011.144.143v.81a2.435 2.435 0 01-1.2.3c-.619 0-.989-.238-.989-.631m.589 1.99a2.949 2.949 0 001.74-.489v.381h1.906v-4.039c0-1.537-1.036-2.383-2.764-2.383a7.01 7.01 0 00-2.943.691l.691 1.418a5.145 5.145 0 011.906-.5c.8 0 1.2.309 1.2.941v.31a5.609 5.609 0 00-1.43-.179c-1.62 0-2.6.679-2.6 1.894a2.039 2.039 0 002.288 1.955m-10.473-.108h2.049v-3.27h3.432v3.264h2.049v-8.34h-2.049v3.205h-3.432v-3.205h-2.049zm-7.81-3.157a1.6 1.6 0 011.657-1.6 1.952 1.952 0 011.334.489v2.2a1.851 1.851 0 01-1.334.5 1.6 1.6 0 01-1.657-1.6m3.015 3.157h1.906v-8.757l-1.93.417v2.371a3.248 3.248 0 10-1.668 6.053 2.846 2.846 0 001.692-.548zm-8.746-4.837a1.394 1.394 0 011.323 1h-2.633a1.311 1.311 0 011.31-1m-3.253 1.692a3.309 3.309 0 003.432 3.264 3.776 3.776 0 002.633-.953l-1.275-1.132a1.7 1.7 0 01-1.263.477 1.629 1.629 0 01-1.549-1h4.492v-.477a3.238 3.238 0 10-6.47-.178m-3.324-3.444a.948.948 0 110 1.883H662.6v-1.883zm-4.075 6.589h2.05v-3.038h1.561l1.572 3.038h2.288l-1.835-3.336a2.523 2.523 0 001.573-2.347 2.708 2.708 0 00-2.943-2.657h-4.263z"/></g><g><path class="b9ab85a5-c437-48f8-ae27-c49c183b296c" d="M605 20.004h155v128H605z"/><text class="a73277cc-e049-457b-89fc-a12e1907c231" transform="translate(620.75 42.298)">Enhanced <tspan x="0" y="12">Operations</tspan><tspan x="0" y="24">and Hybrid Cloud</tspan><tspan x="0" y="36">Management</tspan></text><path class="efa93846-fee7-4ee2-8402-1550d773ea37" d="M652.886 115.823l.813.825a4.493 4.493 0 01-3.3 1.426 4.255 4.255 0 110-8.508 4.454 4.454 0 013.323 1.426l-.825.848a3.28 3.28 0 00-2.5-1.131 3.111 3.111 0 00.035 6.222 3.2 3.2 0 002.454-1.108zM655.937 117.944h-1.178V109.7l1.178-.259zM660.167 111.829a3.117 3.117 0 11-3.122 3.11 3.078 3.078 0 013.122-3.11zm0 1.037a2.083 2.083 0 101.968 2.073 2 2 0 00-1.968-2.073zM665.552 115.517a1.4 1.4 0 001.5 1.52 1.688 1.688 0 001.473-.778v-4.312h1.175v6h-1.179v-.6a2.448 2.448 0 01-1.8.719 2.236 2.236 0 01-2.333-2.345v-3.77h1.167zM675.673 117.379a2.832 2.832 0 01-1.838.659 3.093 3.093 0 111.827-5.6V109.7l1.178-.259v8.507h-1.167zm-1.673-.366a2.151 2.151 0 001.662-.718v-2.722a2.239 2.239 0 00-1.662-.707 2.074 2.074 0 000 4.147zM678.359 109.7h6.128v1.084H679.6v2.533h3.24v1.061h-3.24v3.57h-1.238zM687.42 111.829a3.117 3.117 0 11-3.122 3.11 3.078 3.078 0 013.122-3.11zm0 1.037a2.083 2.083 0 101.968 2.073 2 2 0 00-1.968-2.073zM691.639 111.947h1.178v.742a1.922 1.922 0 011.638-.872 1.719 1.719 0 01.613.094v1.061a2.1 2.1 0 00-.707-.13 1.615 1.615 0 00-1.544 1.084v4.018h-1.178zM696.022 111.947h1.178v.553a2.292 2.292 0 011.673-.671 2.141 2.141 0 011.862.989 2.407 2.407 0 012.027-.989 2.2 2.2 0 012.238 2.345v3.77h-1.167v-3.57a1.347 1.347 0 00-1.379-1.52 1.6 1.6 0 00-1.4.8 2.525 2.525 0 01.047.519v3.77h-1.178v-3.57a1.345 1.345 0 00-1.367-1.52 1.558 1.558 0 00-1.355.719v4.371h-1.178zM706.449 116.389a3.088 3.088 0 001.956.754c.943 0 1.438-.412 1.438-.9 0-.424-.295-.671-.966-.765l-1.084-.154c-1.179-.165-1.791-.73-1.791-1.661 0-1.1.966-1.815 2.345-1.815a4.122 4.122 0 012.415.766l-.6.778a3.29 3.29 0 00-1.9-.625c-.7 0-1.2.307-1.2.813 0 .448.283.648.99.755l1.084.153c1.214.176 1.815.754 1.815 1.673 0 1.084-1.084 1.885-2.51 1.885a4 4 0 01-2.628-.883z"/><g><path class="efa93846-fee7-4ee2-8402-1550d773ea37" d="M635.135 102.7c1.417 0 3.469-.293 3.469-1.978a1.576 1.576 0 00-.036-.388l-.843-3.667c-.2-.806-.367-1.172-1.783-1.88a16.544 16.544 0 00-4.2-1.49c-.66 0-.855.855-1.637.855-.757 0-1.318-.635-2.027-.635-.683 0-1.123.464-1.465 1.416 0 0-.953 2.687-1.075 3.077a.722.722 0 00-.025.22c0 1.045 4.112 4.47 9.623 4.47m3.688-1.295a5.644 5.644 0 01.2 1.148c0 1.588-1.783 2.467-4.128 2.467-5.3 0-9.94-3.1-9.94-5.153a2.086 2.086 0 01.171-.831c-1.9.1-4.372.44-4.372 2.614 0 3.565 8.451 7.962 15.143 7.962 5.129 0 6.423-2.321 6.423-4.152 0-1.441-1.246-3.078-3.493-4.055M686.375 103.756c0 1.346.811 2 2.288 2a5.934 5.934 0 001.347-.19v-1.561a2.816 2.816 0 01-.87.131c-.608 0-.834-.191-.834-.763v-2.395h1.763v-1.607h-1.763v-2.038l-1.931.417v1.621H685.1v1.608h1.274zm-6 .035c0-.417.417-.619 1.049-.619a4.818 4.818 0 011.144.143v.81a2.435 2.435 0 01-1.2.3c-.619 0-.989-.238-.989-.632m.589 1.99a2.956 2.956 0 001.74-.488v.381h1.906v-4.039c0-1.537-1.036-2.383-2.764-2.383a7.01 7.01 0 00-2.943.691l.691 1.418a5.149 5.149 0 011.906-.5c.8 0 1.2.31 1.2.942v.309a5.609 5.609 0 00-1.43-.178c-1.621 0-2.6.679-2.6 1.894a2.039 2.039 0 002.288 1.954m-10.473-.107h2.049v-3.265h3.432v3.265h2.049v-8.344h-2.049v3.206h-3.432v-3.206h-2.049zm-7.81-3.158a1.6 1.6 0 011.657-1.6 1.956 1.956 0 011.334.488v2.2a1.855 1.855 0 01-1.334.5 1.6 1.6 0 01-1.657-1.6m3.015 3.158h1.906v-8.749l-1.93.417v2.372a3.248 3.248 0 10-1.668 6.052 2.839 2.839 0 001.692-.548zm-8.746-4.838a1.4 1.4 0 011.323 1h-2.633a1.312 1.312 0 011.31-1m-3.253 1.692a3.31 3.31 0 003.432 3.265 3.783 3.783 0 002.633-.953l-1.275-1.132a1.706 1.706 0 01-1.263.477 1.631 1.631 0 01-1.549-1h4.492v-.477a3.238 3.238 0 10-6.47-.179m-3.324-3.443a.948.948 0 110 1.883h-2.021v-1.875zm-4.075 6.589h2.05v-3.038h1.561l1.572 3.038h2.288l-1.835-3.336a2.524 2.524 0 001.573-2.348 2.708 2.708 0 00-2.943-2.657H646.3z"/></g></g><g><path class="efa93846-fee7-4ee2-8402-1550d773ea37" d="M605 524.913h154.5v208.5H605z"/><path class="f5e85b9d-a0a4-4b35-bf70-d06c502429c6" d="M605 731.913v1.5h1.5"/><path class="b2802fa0-9e5d-4e88-9b13-ad74e4842a35" d="M609.471 733.413h147.044"/><path class="f5e85b9d-a0a4-4b35-bf70-d06c502429c6" d="M758 733.413h1.5v-1.5"/><path class="b4ebbe48-5040-4e0c-90dc-e2cba6ba5a2e" d="M759.5 728.935V527.902"/><path class="f5e85b9d-a0a4-4b35-bf70-d06c502429c6" d="M759.5 526.413v-1.5H758"/><path class="b2802fa0-9e5d-4e88-9b13-ad74e4842a35" d="M755.029 524.913H607.985"/><path class="f5e85b9d-a0a4-4b35-bf70-d06c502429c6" d="M606.5 524.913H605v1.5"/><path class="b4ebbe48-5040-4e0c-90dc-e2cba6ba5a2e" d="M605 529.392v201.032"/></g><path class="afe835a4-f3f1-4d00-8e6f-c658e0b0bfc5" d="M670.556 654.475v3.42h-2.466v-3.42h-3.29v-2.34h3.294v-3.42h2.466v3.42h3.294v2.34z"/><text class="e22be22c-98b5-4bd3-80a4-a6117377d2d0" transform="translate(620 548.627)">Systems <tspan x="0" y="12">Administration,</tspan><tspan x="0" y="24">Automation, </tspan><tspan x="0" y="36">and Life-Cycle </tspan><tspan x="0" y="48">Management</tspan></text><g><path class="b4849228-4ceb-4f80-ae1a-aac9f9abc4e8" d="M646.441 634.034a3.979 3.979 0 002.839 1.3c1.19 0 2-.565 2-1.378 0-.731-.471-1.1-1.673-1.3l-1.378-.224c-1.509-.248-2.251-.955-2.251-2.145 0-1.437 1.2-2.368 3.04-2.368a5.533 5.533 0 013.323 1.119l-.684.943a4.376 4.376 0 00-2.7-1.013c-1.072 0-1.791.494-1.791 1.225 0 .672.413.99 1.473 1.166l1.332.213c1.743.282 2.533 1 2.533 2.286 0 1.52-1.32 2.533-3.288 2.533a4.968 4.968 0 01-3.535-1.485zM653.439 634.553c0-1.132.919-1.827 2.428-1.827a4.24 4.24 0 011.638.33v-.636c0-.848-.507-1.273-1.462-1.273a4.256 4.256 0 00-1.861.507l-.436-.884a5.612 5.612 0 012.462-.612c1.556 0 2.451.765 2.451 2.144v3.971h-1.154v-.518a2.849 2.849 0 01-1.862.624c-1.308 0-2.204-.742-2.204-1.826zm2.475.954a2.309 2.309 0 001.591-.565v-1.037a3.112 3.112 0 00-1.544-.366c-.86 0-1.39.389-1.39.99 0 .578.541.978 1.343.978zM660.556 631.265h-1.272v-.99h1.272v-1.531l1.167-.283v1.814h1.767v.99h-1.767v3.252c0 .613.247.837.884.837a2.316 2.316 0 00.86-.141v.989a3.9 3.9 0 01-1.12.177c-1.166 0-1.791-.554-1.791-1.591zM667.108 636.379a3.086 3.086 0 01-3.146-3.111 3.013 3.013 0 013-3.087 2.97 2.97 0 012.9 3.134v.342h-4.737a2.023 2.023 0 002.027 1.721 2.333 2.333 0 001.52-.531l.754.743a3.577 3.577 0 01-2.318.789zm-1.968-3.606h3.56a1.789 1.789 0 00-3.558 0zM672.162 636.273h-1.178v-8.248l1.178-.259zM674.731 636.273h-1.178v-8.248l1.178-.259zM675.991 628.579a.724.724 0 01.719-.731.731.731 0 110 1.461.724.724 0 01-.719-.73zm1.308 7.694h-1.178v-6h1.179zM679.467 631.265H678.2v-.99h1.272v-1.531l1.167-.283v1.814h1.761v.99h-1.767v3.252c0 .613.247.837.884.837a2.316 2.316 0 00.86-.141v.989a3.91 3.91 0 01-1.12.177c-1.166 0-1.791-.554-1.791-1.591zM686.019 636.379a3.087 3.087 0 01-3.147-3.111 3.014 3.014 0 013-3.087 2.97 2.97 0 012.9 3.134v.342h-4.737a2.023 2.023 0 002.027 1.721 2.333 2.333 0 001.52-.531l.754.743a3.577 3.577 0 01-2.317.789zm-1.968-3.606h3.558a1.789 1.789 0 00-3.558 0zM635.135 621.03c1.417 0 3.469-.293 3.469-1.979a1.573 1.573 0 00-.036-.387l-.843-3.664c-.2-.806-.367-1.172-1.783-1.881a16.575 16.575 0 00-4.2-1.489c-.66 0-.855.854-1.637.854-.757 0-1.318-.634-2.027-.634-.683 0-1.123.464-1.465 1.416 0 0-.953 2.687-1.075 3.077a.722.722 0 00-.025.22c0 1.044 4.112 4.47 9.623 4.47m3.688-1.295a5.644 5.644 0 01.2 1.148c0 1.588-1.783 2.467-4.128 2.467-5.3 0-9.94-3.1-9.94-5.153a2.086 2.086 0 01.171-.831c-1.9.1-4.372.44-4.372 2.613 0 3.566 8.451 7.962 15.143 7.962 5.129 0 6.423-2.32 6.423-4.151 0-1.442-1.246-3.078-3.493-4.055M686.375 622.085c0 1.346.811 2 2.288 2a5.934 5.934 0 001.347-.19v-1.561a2.816 2.816 0 01-.87.131c-.608 0-.834-.191-.834-.763v-2.395h1.763V617.7h-1.763v-2.038l-1.931.417v1.621H685.1v1.608h1.274zm-6 .035c0-.417.417-.619 1.049-.619a4.818 4.818 0 011.144.143v.81a2.446 2.446 0 01-1.2.3c-.619 0-.989-.239-.989-.632m.589 1.99a2.956 2.956 0 001.74-.488V624h1.906v-4.039c0-1.537-1.036-2.383-2.764-2.383a7.01 7.01 0 00-2.943.691l.691 1.418a5.149 5.149 0 011.906-.5c.8 0 1.2.31 1.2.941v.31a5.609 5.609 0 00-1.43-.178c-1.621 0-2.6.679-2.6 1.894a2.039 2.039 0 002.288 1.954M670.493 624h2.049v-3.265h3.432V624h2.049v-8.341h-2.049v3.2h-3.432v-3.2h-2.049zm-7.81-3.158a1.6 1.6 0 011.657-1.6 1.951 1.951 0 011.334.488v2.205a1.855 1.855 0 01-1.334.5 1.6 1.6 0 01-1.657-1.6M665.7 624h1.9v-8.758l-1.93.417v2.371a3.248 3.248 0 10-1.668 6.053 2.839 2.839 0 001.692-.548zm-8.746-4.838a1.4 1.4 0 011.323 1h-2.633a1.312 1.312 0 011.31-1m-3.253 1.692a3.31 3.31 0 003.432 3.265 3.783 3.783 0 002.633-.953l-1.275-1.132a1.705 1.705 0 01-1.263.476 1.63 1.63 0 01-1.549-1h4.492v-.477a3.238 3.238 0 10-6.47-.179m-3.324-3.443a.948.948 0 110 1.882h-2.027v-1.882zM646.3 624h2.05v-3.038h1.561l1.572 3.038h2.288l-1.835-3.336a2.524 2.524 0 001.573-2.348 2.708 2.708 0 00-2.943-2.657H646.3z"/></g><g><path class="b4849228-4ceb-4f80-ae1a-aac9f9abc4e8" d="M649.038 683.221h1.452l3.375 8.262h-1.345l-.957-2.419h-3.693l-.968 2.419h-1.286zm2.125 4.816l-1.44-3.624-1.435 3.624zM654.561 685.475h1.18v.6a2.457 2.457 0 011.806-.72 2.239 2.239 0 012.336 2.349v3.777h-1.167v-3.577a1.4 1.4 0 00-1.5-1.522 1.692 1.692 0 00-1.476.779v4.32h-1.18zM661.338 689.925a3.094 3.094 0 001.96.754c.944 0 1.439-.411 1.439-.9 0-.424-.295-.673-.967-.767l-1.086-.153c-1.18-.166-1.794-.732-1.794-1.665 0-1.1.968-1.816 2.349-1.816a4.133 4.133 0 012.411.766l-.6.779a3.3 3.3 0 00-1.9-.625c-.7 0-1.2.306-1.2.814 0 .454.283.649.991.755l1.086.153c1.216.178 1.815.756 1.815 1.676 0 1.086-1.086 1.888-2.513 1.888a4.011 4.011 0 01-2.632-.885zM666.6 683.776a.732.732 0 11.732.731.735.735 0 01-.732-.731zm1.322 7.707h-1.18v-6.008h1.18zM672.262 691.577a2.949 2.949 0 01-1.8-.6v.507h-1.168v-8.262l1.181-.259v3.064a2.782 2.782 0 011.829-.649 3.1 3.1 0 01-.037 6.2zm-1.792-4.461v2.738a2.23 2.23 0 001.663.7 2.071 2.071 0 000-4.142 2.139 2.139 0 00-1.663.704zM677.621 691.483h-1.18v-8.262l1.18-.259zM681.739 685.381a2.975 2.975 0 012.9 3.139v.34H679.9a2.026 2.026 0 002.03 1.723 2.324 2.324 0 001.522-.531l.756.744a3.543 3.543 0 01-2.325.795 3.094 3.094 0 01-3.152-3.115 3.02 3.02 0 013.008-3.095zm-1.829 2.6h3.564a1.792 1.792 0 00-3.564 0zM649.083 695.476h1.1l3.387 8.262h-.99l-1.04-2.6h-3.892l-1.05 2.6h-.944zm2.136 4.886l-1.614-4.036-1.641 4.036zM654.974 701.389a1.558 1.558 0 001.653 1.7 1.827 1.827 0 001.628-.907v-4.359h.874v5.913h-.874v-.681a2.346 2.346 0 01-1.853.8 2.179 2.179 0 01-2.29-2.29v-3.745h.862zM661.338 698.568h-1.278v-.743h1.278v-1.5l.861-.227v1.723h1.783v.743H662.2v3.625c0 .638.26.886.908.886a2.189 2.189 0 00.861-.154v.767a3.444 3.444 0 01-1.038.154c-1.039 0-1.589-.508-1.589-1.428zM667.472 697.707a3.073 3.073 0 11-3.021 3.064 3.012 3.012 0 013.021-3.064zm0 .78a2.3 2.3 0 102.15 2.288 2.2 2.2 0 00-2.15-2.288zM671.685 697.825h.873v.638a2.223 2.223 0 011.735-.756 2.073 2.073 0 011.865 1.079 2.308 2.308 0 012.018-1.074 2.129 2.129 0 012.183 2.29v3.744h-.865v-3.572a1.507 1.507 0 00-1.534-1.7 1.757 1.757 0 00-1.569.968 2.789 2.789 0 01.059.555v3.744h-.863v-3.565a1.507 1.507 0 00-1.534-1.7 1.708 1.708 0 00-1.5.85v4.414h-.873zM681.515 702.062c0-1.2 1.039-1.805 2.361-1.805a3.827 3.827 0 011.735.4v-.778c0-.957-.544-1.429-1.57-1.429a4.012 4.012 0 00-1.853.52l-.33-.673a5.06 5.06 0 012.27-.59c1.487 0 2.337.721 2.337 2.054v3.977h-.854v-.578a2.858 2.858 0 01-1.912.68c-1.287.004-2.184-.716-2.184-1.778zm2.337 1.1a2.416 2.416 0 001.759-.681v-1.121a3 3 0 00-1.712-.461c-.907 0-1.546.437-1.546 1.145 0 .679.638 1.116 1.499 1.116zM688.431 698.568h-1.275v-.743h1.275v-1.5l.862-.227v1.723h1.782v.743h-1.782v3.625c0 .638.259.886.908.886a2.189 2.189 0 00.861-.154v.767a3.455 3.455 0 01-1.039.154c-1.039 0-1.589-.508-1.589-1.428zM691.842 696.1a.59.59 0 011.18 0 .59.59 0 11-1.18 0zm1.027 7.636H692v-5.913h.874zM697.093 697.707a3.073 3.073 0 11-3.022 3.064 3.012 3.012 0 013.022-3.064zm0 .78a2.3 2.3 0 102.146 2.288 2.2 2.2 0 00-2.146-2.288zM701.307 697.825h.872v.681a2.345 2.345 0 011.853-.8 2.178 2.178 0 012.29 2.29v3.744h-.862v-3.564a1.558 1.558 0 00-1.652-1.7 1.827 1.827 0 00-1.629.908v4.355h-.872zM686.452 677.271c0 1.349.811 2 2.291 2a5.915 5.915 0 001.349-.19v-1.564a2.833 2.833 0 01-.872.132c-.608 0-.835-.191-.835-.764v-2.4h1.766v-1.605h-1.766v-2.043l-1.929.418v1.625h-1.281v1.611h1.277zm-6.008.036c0-.417.418-.62 1.05-.62a4.868 4.868 0 011.146.143v.811a2.428 2.428 0 01-1.205.3c-.621 0-.991-.238-.991-.632m.59 1.993a2.952 2.952 0 001.742-.489v.382h1.91v-4.046c0-1.539-1.038-2.383-2.769-2.383a7.049 7.049 0 00-2.95.692l.692 1.42a5.171 5.171 0 011.91-.5c.8 0 1.205.31 1.205.943v.31a5.626 5.626 0 00-1.432-.179c-1.623 0-2.6.681-2.6 1.9a2.043 2.043 0 002.292 1.957m-10.491-.106h2.053v-3.274h3.439v3.27h2.053v-8.354h-2.053v3.209H672.6v-3.209h-2.053zm-7.818-3.166a1.6 1.6 0 011.657-1.6 1.95 1.95 0 011.337.49v2.207a1.854 1.854 0 01-1.337.5 1.605 1.605 0 01-1.657-1.6m3.018 3.162h1.91v-8.776l-1.929.418v2.379a3.255 3.255 0 10-1.73 6.065h.055a2.835 2.835 0 001.694-.55zm-8.759-4.845a1.4 1.4 0 011.324 1h-2.642a1.316 1.316 0 011.313-1m-3.253 1.694a3.315 3.315 0 003.437 3.271 3.791 3.791 0 002.637-.956l-1.276-1.131a1.709 1.709 0 01-1.266.477 1.631 1.631 0 01-1.551-1h4.5v-.48a3.242 3.242 0 10-6.477-.257v.078m-3.332-3.448a.949.949 0 110 1.884h-2.028v-1.884zm-4.085 6.6h2.053v-3.049h1.564l1.575 3.043h2.291l-1.834-3.341a2.531 2.531 0 001.575-2.352 2.713 2.713 0 00-2.95-2.661h-4.27zM632.677 674.363l3.381 2.662-2.238-5.525zm1-8.144a8.648 8.648 0 108.648 8.648 8.648 8.648 0 00-8.648-8.648zm3.548 12.952a.731.731 0 01-.478-.211l-4.463-3.607-1.5 3.745h-1.293l3.779-9.087a.567.567 0 01.548-.365.55.55 0 01.532.365l3.443 8.284a.765.765 0 01.059.254.617.617 0 01-.612.622z"/></g><path class="b7215022-9a8c-4a25-96d5-6c4fe2ba2470" d="M620 245.004h-31"/><g><text transform="translate(665.104 806.937)" font-size="10" font-family="RedHatText,&quot;Red Hat Text&quot;,Overpass,&quot;Helvetica Neue&quot;,Arial,sans-serif" fill="#f3f3f3">122_OpenStack_1020</text><path fill="none" d="M.292 783.92h760v40h-760z"/></g><path class="b42b6eae-762e-4e69-8f84-49d1a6da9f0c" d="M620 229.004h125v32H620z"/><text class="e22be22c-98b5-4bd3-80a4-a6117377d2d0" transform="translate(635 248.289)">NFV Orchestrator</text><path class="b42b6eae-762e-4e69-8f84-49d1a6da9f0c" d="M620 280.504h125v32H620z"/><text class="e22be22c-98b5-4bd3-80a4-a6117377d2d0" transform="translate(635 299.871)">NFV Manager(s)</text></svg>