<svg id="f113f6b6-bb4e-4df8-972d-667f274b1148" data-name="artwork" xmlns="http://www.w3.org/2000/svg" width="760" height="546.513" viewBox="0 0 760 546.513">
  <defs>
    <style>
      .a9f1a081-532f-47dc-86c8-d80bc53d4234 {
        fill: #c4c4c4;
      }

      .fb69183d-c104-4d9a-a3d5-8b11439ee455 {
        fill: #e8e8e8;
      }

      .a085817d-a89b-423d-a349-1c41661a5144, .a2d91493-4b8b-40d0-ad66-5df4b4dd14ab, .e30b5345-9000-4f0a-9028-60c96b137a95 {
        fill: #fff;
      }

      .b7e5e09f-0b5e-4e49-b9f7-747c98f06514 {
        font-size: 14px;
      }

      .a2d83ff3-795e-4754-8f3a-996dbcbde3a8, .b7e5e09f-0b5e-4e49-b9f7-747c98f06514, .b99e7f7b-9575-4e27-b85e-f19097a39903, .f97b9949-d1da-43a9-977d-a9ef92384e93 {
        fill: #151515;
      }

      .b7e5e09f-0b5e-4e49-b9f7-747c98f06514, .e30b5345-9000-4f0a-9028-60c96b137a95, .f97b9949-d1da-43a9-977d-a9ef92384e93 {
        font-family: RedHatText-Bold, Red Hat Text;
        font-weight: 700;
      }

      .a938530f-3236-446a-a2f1-d5bd0c0e3e88, .e34ea899-956d-4dbb-aaed-bfef33b106e2, .f0503776-2963-4feb-92b8-d218857a4ede, .f2323ea9-7de1-4a19-8637-ca6ead9a1b7d {
        fill: none;
      }

      .f2323ea9-7de1-4a19-8637-ca6ead9a1b7d {
        stroke: #151515;
      }

      .a938530f-3236-446a-a2f1-d5bd0c0e3e88, .f0503776-2963-4feb-92b8-d218857a4ede, .f2323ea9-7de1-4a19-8637-ca6ead9a1b7d {
        stroke-linecap: round;
        stroke-linejoin: round;
      }

      .e30b5345-9000-4f0a-9028-60c96b137a95 {
        font-size: 11px;
      }

      .a31baf5b-31b0-46e1-944d-04e249097cd3 {
        fill: #06c;
      }

      .a2d91493-4b8b-40d0-ad66-5df4b4dd14ab, .f97b9949-d1da-43a9-977d-a9ef92384e93 {
        font-size: 12px;
      }

      .a2d91493-4b8b-40d0-ad66-5df4b4dd14ab {
        font-family: RedHatText-Medium, Red Hat Text;
        font-weight: 500;
      }

      .a938530f-3236-446a-a2f1-d5bd0c0e3e88, .f0503776-2963-4feb-92b8-d218857a4ede {
        stroke: #fff;
      }

      .f0503776-2963-4feb-92b8-d218857a4ede {
        stroke-width: 8px;
      }

      .a938530f-3236-446a-a2f1-d5bd0c0e3e88 {
        stroke-width: 2px;
      }

      .f81527b0-6672-4821-ae1e-633085c3a989 {
        font-size: 10px;
        fill: #ececec;
        font-family: RedHatText-Regular, Red Hat Text;
      }

      .a2d83ff3-795e-4754-8f3a-996dbcbde3a8 {
        font-size: 9px;
        font-family: LiberationMono, Liberation Mono;
      }

      .fa093b8d-6527-49ba-bfc6-5b33c3bdfbe5 {
        font-family: LiberationMono-Italic, Liberation Mono;
        font-style: italic;
      }
    </style>
  </defs>
  <path class="a9f1a081-532f-47dc-86c8-d80bc53d4234" d="M609,27.013v47H1v-47H609m1-1H0v49H610v-49Z"/>
  <rect class="fb69183d-c104-4d9a-a3d5-8b11439ee455" x="210" y="100.513" width="190" height="406"/>
  <rect class="a085817d-a89b-423d-a349-1c41661a5144" x="225" y="378.013" width="160" height="113.5"/>
  <rect class="fb69183d-c104-4d9a-a3d5-8b11439ee455" y="100.513" width="190" height="406"/>
  <rect class="fb69183d-c104-4d9a-a3d5-8b11439ee455" x="420" y="100.513" width="190" height="406"/>
  <text class="b7e5e09f-0b5e-4e49-b9f7-747c98f06514" transform="translate(434.999 127.802)">Active Directory <tspan x="0" y="15">domain controller</tspan></text>
  <g>
    <polyline class="f2323ea9-7de1-4a19-8637-ca6ead9a1b7d" points="75 323.013 75 464.013 225.324 464.013"/>
    <polygon class="b99e7f7b-9575-4e27-b85e-f19097a39903" points="223.865 469 232.5 464.013 223.865 459.027 223.865 469"/>
  </g>
  <g>
    <circle class="b99e7f7b-9575-4e27-b85e-f19097a39903" cx="75" cy="353.481" r="13"/>
    <text class="e30b5345-9000-4f0a-9028-60c96b137a95" transform="translate(71.467 357.266)">2</text>
  </g>
  <g>
    <polyline class="f2323ea9-7de1-4a19-8637-ca6ead9a1b7d" points="115 332.69 115 449.013 235 449.013"/>
    <polygon class="b99e7f7b-9575-4e27-b85e-f19097a39903" points="110.014 334.149 115 325.513 119.986 334.149 110.014 334.149"/>
  </g>
  <g>
    <circle class="b99e7f7b-9575-4e27-b85e-f19097a39903" cx="115" cy="353.481" r="13"/>
    <text class="e30b5345-9000-4f0a-9028-60c96b137a95" transform="translate(111.351 357.266)">7</text>
  </g>
  <text class="b7e5e09f-0b5e-4e49-b9f7-747c98f06514" transform="translate(224.999 127.802)">IdM server</text>
  <rect class="a31baf5b-31b0-46e1-944d-04e249097cd3" x="235" y="431.513" width="140" height="50"/>
  <text class="a2d91493-4b8b-40d0-ad66-5df4b4dd14ab" transform="translate(284.714 447.837)">IdM DS<tspan x="-20.508" y="12">extdom_extop</tspan><tspan x="2.958" y="24">plugin</tspan></text>
  <line class="f0503776-2963-4feb-92b8-d218857a4ede" x1="69.768" y1="73.531" x2="69.768" y2="85.806"/>
  <g>
    <line class="a938530f-3236-446a-a2f1-d5bd0c0e3e88" x1="119.767" y1="77.62" x2="119.767" y2="85.069"/>
    <polygon class="a085817d-a89b-423d-a349-1c41661a5144" points="109.795 80.538 119.767 63.267 129.74 80.538 109.795 80.538"/>
  </g>
  <g>
    <line class="f2323ea9-7de1-4a19-8637-ca6ead9a1b7d" x1="70" y1="70" x2="70" y2="223.337"/>
    <polygon class="b99e7f7b-9575-4e27-b85e-f19097a39903" points="65.014 221.878 70 230.513 74.986 221.878 65.014 221.878"/>
  </g>
  <g>
    <line class="f2323ea9-7de1-4a19-8637-ca6ead9a1b7d" x1="120" y1="233.013" x2="120" y2="79.176"/>
    <polygon class="b99e7f7b-9575-4e27-b85e-f19097a39903" points="124.986 80.635 120 72 115.014 80.635 124.986 80.635"/>
  </g>
  <g>
    <circle class="b99e7f7b-9575-4e27-b85e-f19097a39903" cx="70" cy="200.513" r="13"/>
    <text class="e30b5345-9000-4f0a-9028-60c96b137a95" transform="translate(67.633 204.299)">1</text>
  </g>
  <g>
    <circle class="b99e7f7b-9575-4e27-b85e-f19097a39903" cx="120" cy="200.513" r="13"/>
    <text class="e30b5345-9000-4f0a-9028-60c96b137a95" transform="translate(116.241 204.299)">8</text>
  </g>
  <rect class="fb69183d-c104-4d9a-a3d5-8b11439ee455" x="35.226" y="114.013" width="53.548" height="18.099"/>
  <text class="b7e5e09f-0b5e-4e49-b9f7-747c98f06514" transform="translate(15 127.802)">IdM client</text>
  <rect class="a085817d-a89b-423d-a349-1c41661a5144" x="20" y="242.109" width="53.548" height="12.752"/>
  <rect class="a085817d-a89b-423d-a349-1c41661a5144" x="15" y="233.013" width="160" height="90"/>
  <text class="f97b9949-d1da-43a9-977d-a9ef92384e93" transform="translate(25 251.618)">SSSD</text>
  <g>
    <polyline class="f2323ea9-7de1-4a19-8637-ca6ead9a1b7d" points="522 223.337 522 160.513 279.5 160.513 279.5 233.013"/>
    <polygon class="b99e7f7b-9575-4e27-b85e-f19097a39903" points="526.986 221.878 522 230.513 517.014 221.878 526.986 221.878"/>
  </g>
  <g>
    <polyline class="f2323ea9-7de1-4a19-8637-ca6ead9a1b7d" points="507 233.013 507 175.513 329.5 175.513 329.5 223.337"/>
    <polygon class="b99e7f7b-9575-4e27-b85e-f19097a39903" points="324.514 221.878 329.5 230.513 334.486 221.878 324.514 221.878"/>
  </g>
  <g>
    <circle class="b99e7f7b-9575-4e27-b85e-f19097a39903" cx="329.5" cy="200.513" r="13"/>
    <text class="e30b5345-9000-4f0a-9028-60c96b137a95" transform="translate(325.862 204.299)">5</text>
  </g>
  <g>
    <circle class="b99e7f7b-9575-4e27-b85e-f19097a39903" cx="279.75" cy="200.513" r="13"/>
    <text class="e30b5345-9000-4f0a-9028-60c96b137a95" transform="translate(275.705 204.299)">4</text>
  </g>
  <g>
    <line class="f2323ea9-7de1-4a19-8637-ca6ead9a1b7d" x1="279.5" y1="332.69" x2="279.5" y2="431.513"/>
    <polygon class="b99e7f7b-9575-4e27-b85e-f19097a39903" points="274.514 334.149 279.5 325.513 284.486 334.149 274.514 334.149"/>
  </g>
  <g>
    <line class="f2323ea9-7de1-4a19-8637-ca6ead9a1b7d" x1="329.5" y1="323.013" x2="329.5" y2="421.837"/>
    <polygon class="b99e7f7b-9575-4e27-b85e-f19097a39903" points="324.514 420.378 329.5 429.013 334.486 420.378 324.514 420.378"/>
  </g>
  <g>
    <circle class="b99e7f7b-9575-4e27-b85e-f19097a39903" cx="329.5" cy="353.481" r="13"/>
    <text class="e30b5345-9000-4f0a-9028-60c96b137a95" transform="translate(325.67 357.266)">6</text>
  </g>
  <g>
    <circle class="b99e7f7b-9575-4e27-b85e-f19097a39903" cx="279.75" cy="353.481" r="13"/>
    <text class="e30b5345-9000-4f0a-9028-60c96b137a95" transform="translate(276.019 357.266)">3</text>
  </g>
  <rect class="a085817d-a89b-423d-a349-1c41661a5144" x="225" y="233.013" width="160" height="90"/>
  <text class="f97b9949-d1da-43a9-977d-a9ef92384e93" transform="translate(235 251.618)">SSSD</text>
  <rect class="a085817d-a89b-423d-a349-1c41661a5144" x="435" y="233.013" width="160" height="90"/>
  <text class="f97b9949-d1da-43a9-977d-a9ef92384e93" transform="translate(445 251.618)">LDAP <tspan x="0" y="13">Directory Server</tspan></text>
  <rect class="a085817d-a89b-423d-a349-1c41661a5144" x="230" y="400.11" width="110.472" height="12.752"/>
  <text class="f97b9949-d1da-43a9-977d-a9ef92384e93" transform="translate(235 396.618)">LDAP <tspan x="0" y="13">Directory Server</tspan></text>
  <g>
    <text class="f81527b0-6672-4821-ae1e-633085c3a989" transform="translate(667.792 529.531)">170_OpenShift_0621</text>
    <rect class="e34ea899-956d-4dbb-aaed-bfef33b106e2" y="506.513" width="760" height="40"/>
  </g>
  <rect class="fb69183d-c104-4d9a-a3d5-8b11439ee455" x="5" y="31.013" width="600" height="39" transform="translate(610 101.027) rotate(-180)"/>
  <text class="a2d83ff3-795e-4754-8f3a-996dbcbde3a8" transform="translate(15 53.837)">{user@client ~]$ getent passwd <tspan class="fa093b8d-6527-49ba-bfc6-5b33c3bdfbe5" x="167.427" y="0">&lt;ad_user_name&gt;@ad.example.com</tspan></text>
</svg>
