<svg id="e0b2b582-10d3-45f8-b9ea-4322336eb3b5" data-name="artwork" xmlns="http://www.w3.org/2000/svg" width="760" height="569.513" viewBox="0 0 760 569.513">
  <defs>
    <style>
      .f8adf675-e641-478f-9b5f-8169d5bebfcf {
        fill: #c4c4c4;
      }

      .bb82b41d-5590-4138-b941-65aaf9e82bfe {
        fill: #e8e8e8;
      }

      .a16bcf64-eb55-4518-8012-4bd88208e618, .b2751829-e217-45a5-9851-13de3d4ea830, .b888b898-9c9f-4549-885b-55e24b8d269c, .e8393593-12d2-4b05-bae2-8a12cd3841b2 {
        fill: #fff;
      }

      .b0a28115-4a80-405d-81e1-e1e3127a137c, .b6c51b66-f06d-4096-ba58-b732c387852f, .bd64bdde-1ea2-48d0-b31a-c1968002adf4, .ea30b990-c18f-44a3-962d-eb9baf273dfe, .fe027559-a1e9-41e3-99fb-d0df69436f3a {
        fill: none;
      }

      .b6c51b66-f06d-4096-ba58-b732c387852f {
        stroke: #151515;
      }

      .b0a28115-4a80-405d-81e1-e1e3127a137c, .b2751829-e217-45a5-9851-13de3d4ea830, .b6c51b66-f06d-4096-ba58-b732c387852f, .ea30b990-c18f-44a3-962d-eb9baf273dfe, .fe027559-a1e9-41e3-99fb-d0df69436f3a {
        stroke-linecap: round;
        stroke-linejoin: round;
      }

      .a81a8d73-8778-493b-b190-3f01c0513afc, .a996be43-7337-40e8-a900-8c4787dfacad, .acd90c0e-eb2b-4747-af7e-6be9d1e207ae, .b5c28785-b155-46d1-8972-a52e2752252f, .b86f68d5-8fa4-492d-a189-a853784d07a2 {
        fill: #151515;
      }

      .a996be43-7337-40e8-a900-8c4787dfacad {
        font-size: 14px;
      }

      .a996be43-7337-40e8-a900-8c4787dfacad, .b5c28785-b155-46d1-8972-a52e2752252f, .e8393593-12d2-4b05-bae2-8a12cd3841b2 {
        font-family: RedHatText-Bold, Red Hat Text;
        font-weight: 700;
      }

      .b64e6b83-373b-49c9-af5b-c46c52732b71 {
        fill: #06c;
      }

      .a16bcf64-eb55-4518-8012-4bd88208e618, .a81a8d73-8778-493b-b190-3f01c0513afc, .b5c28785-b155-46d1-8972-a52e2752252f {
        font-size: 12px;
      }

      .a16bcf64-eb55-4518-8012-4bd88208e618, .a81a8d73-8778-493b-b190-3f01c0513afc {
        font-family: RedHatText-Medium, Red Hat Text;
        font-weight: 500;
      }

      .e8393593-12d2-4b05-bae2-8a12cd3841b2 {
        font-size: 11px;
      }

      .ea30b990-c18f-44a3-962d-eb9baf273dfe, .fe027559-a1e9-41e3-99fb-d0df69436f3a {
        stroke: #fff;
      }

      .fe027559-a1e9-41e3-99fb-d0df69436f3a {
        stroke-width: 8px;
      }

      .ea30b990-c18f-44a3-962d-eb9baf273dfe {
        stroke-width: 2px;
      }

      .b86f68d5-8fa4-492d-a189-a853784d07a2 {
        font-size: 9px;
        font-family: LiberationMono, Liberation Mono;
      }

      .b0a28115-4a80-405d-81e1-e1e3127a137c, .b2751829-e217-45a5-9851-13de3d4ea830 {
        stroke: #5b5b5b;
        stroke-width: 1.5px;
      }

      .b1fe0550-b802-485b-8b71-f2a41687fb42 {
        font-size: 10px;
        fill: #ececec;
        font-family: RedHatText-Regular, Red Hat Text;
      }

      .a2d4e301-bbf7-415d-93df-222ea5948c98 {
        font-family: LiberationMono-Italic, Liberation Mono;
        font-style: italic;
      }
    </style>
  </defs>
  <path class="f8adf675-e641-478f-9b5f-8169d5bebfcf" d="M549,27.013v47H1v-47H549m1-1H0v49H550v-49Z"/>
  <rect class="bb82b41d-5590-4138-b941-65aaf9e82bfe" y="100.513" width="550" height="429"/>
  <rect class="b888b898-9c9f-4549-885b-55e24b8d269c" x="15" y="198.013" width="160" height="100"/>
  <rect class="bb82b41d-5590-4138-b941-65aaf9e82bfe" x="570" y="100.513" width="190" height="429"/>
  <g>
    <polyline class="b6c51b66-f06d-4096-ba58-b732c387852f" points="50 288.013 50 393.513 72.931 393.513"/>
    <polygon class="acd90c0e-eb2b-4747-af7e-6be9d1e207ae" points="71.472 398.5 80.107 393.513 71.472 388.527 71.472 398.5"/>
  </g>
  <text class="a996be43-7337-40e8-a900-8c4787dfacad" transform="translate(584.999 127.802)">IdM server</text>
  <rect class="b888b898-9c9f-4549-885b-55e24b8d269c" x="220" y="198.013" width="315" height="316.5"/>
  <g>
    <line class="b6c51b66-f06d-4096-ba58-b732c387852f" x1="300" y1="288.013" x2="300" y2="364.837"/>
    <polygon class="acd90c0e-eb2b-4747-af7e-6be9d1e207ae" points="295.014 363.378 300 372.013 304.986 363.378 295.014 363.378"/>
  </g>
  <g>
    <g>
      <rect class="b888b898-9c9f-4549-885b-55e24b8d269c" x="385.5" y="238.514" width="139" height="49"/>
      <path class="b64e6b83-373b-49c9-af5b-c46c52732b71" d="M524,239.013v48H386v-48H524m1-1H385v50H525v-50Z"/>
    </g>
    <text class="a81a8d73-8778-493b-b190-3f01c0513afc" transform="translate(424.766 266.337)">LDB cache</text>
  </g>
  <g>
    <rect class="b888b898-9c9f-4549-885b-55e24b8d269c" x="25.5" y="465.014" width="139" height="49"/>
    <path class="b64e6b83-373b-49c9-af5b-c46c52732b71" d="M164,465.513v48H26v-48H164m1-1H25v50H165v-50Z"/>
  </g>
  <text class="a81a8d73-8778-493b-b190-3f01c0513afc" transform="translate(64.545 492.837)">memcache</text>
  <g>
    <circle class="acd90c0e-eb2b-4747-af7e-6be9d1e207ae" cx="50" cy="328.481" r="13"/>
    <text class="e8393593-12d2-4b05-bae2-8a12cd3841b2" transform="translate(46.467 332.266)">2</text>
  </g>
  <g>
    <polyline class="b6c51b66-f06d-4096-ba58-b732c387852f" points="140 297.69 140 393.513 111.646 393.513"/>
    <polygon class="acd90c0e-eb2b-4747-af7e-6be9d1e207ae" points="135.014 299.149 140 290.513 144.987 299.149 135.014 299.149"/>
  </g>
  <g>
    <line class="b6c51b66-f06d-4096-ba58-b732c387852f" x1="665" y1="297.69" x2="665" y2="323.337"/>
    <polygon class="acd90c0e-eb2b-4747-af7e-6be9d1e207ae" points="660.014 299.149 665 290.513 669.986 299.149 660.014 299.149"/>
    <polygon class="acd90c0e-eb2b-4747-af7e-6be9d1e207ae" points="660.014 321.878 665 330.513 669.986 321.878 660.014 321.878"/>
  </g>
  <g>
    <circle class="acd90c0e-eb2b-4747-af7e-6be9d1e207ae" cx="140" cy="328.481" r="13"/>
    <text class="e8393593-12d2-4b05-bae2-8a12cd3841b2" transform="translate(136.269 332.266)">3</text>
  </g>
  <g>
    <polyline class="b6c51b66-f06d-4096-ba58-b732c387852f" points="370 399.513 455 399.513 455 297.69"/>
    <polygon class="acd90c0e-eb2b-4747-af7e-6be9d1e207ae" points="459.986 299.149 455 290.513 450.014 299.149 459.986 299.149"/>
  </g>
  <g>
    <circle class="acd90c0e-eb2b-4747-af7e-6be9d1e207ae" cx="455" cy="328.481" r="13"/>
    <text class="e8393593-12d2-4b05-bae2-8a12cd3841b2" transform="translate(448.832 332.266)">10</text>
  </g>
  <g>
    <polyline class="b6c51b66-f06d-4096-ba58-b732c387852f" points="292.5 434.19 292.5 489.513 673.75 489.513 673.75 434.513"/>
    <polygon class="acd90c0e-eb2b-4747-af7e-6be9d1e207ae" points="287.514 435.649 292.5 427.013 297.486 435.649 287.514 435.649"/>
  </g>
  <g>
    <polyline class="b6c51b66-f06d-4096-ba58-b732c387852f" points="307.5 424.513 307.5 459.513 658.75 459.513 658.75 444.19"/>
    <polygon class="acd90c0e-eb2b-4747-af7e-6be9d1e207ae" points="663.736 445.649 658.75 437.013 653.764 445.649 663.736 445.649"/>
  </g>
  <g>
    <circle class="acd90c0e-eb2b-4747-af7e-6be9d1e207ae" cx="455" cy="459.513" r="13"/>
    <text class="e8393593-12d2-4b05-bae2-8a12cd3841b2" transform="translate(451.241 463.299)">8</text>
  </g>
  <g>
    <circle class="acd90c0e-eb2b-4747-af7e-6be9d1e207ae" cx="455" cy="489.513" r="13"/>
    <text class="e8393593-12d2-4b05-bae2-8a12cd3841b2" transform="translate(451.191 493.299)">9</text>
  </g>
  <g>
    <polyline class="b6c51b66-f06d-4096-ba58-b732c387852f" points="165 263.013 197.5 263.013 197.5 489.513 174.676 489.513"/>
    <polygon class="acd90c0e-eb2b-4747-af7e-6be9d1e207ae" points="176.135 484.527 167.5 489.513 176.135 494.5 176.135 484.527"/>
  </g>
  <g>
    <circle class="acd90c0e-eb2b-4747-af7e-6be9d1e207ae" cx="197.5" cy="328.481" r="13"/>
    <text class="e8393593-12d2-4b05-bae2-8a12cd3841b2" transform="translate(193.455 332.266)">4</text>
  </g>
  <g>
    <circle class="acd90c0e-eb2b-4747-af7e-6be9d1e207ae" cx="300" cy="328.481" r="13"/>
    <text class="e8393593-12d2-4b05-bae2-8a12cd3841b2" transform="translate(296.351 332.266)">7</text>
  </g>
  <g>
    <polyline class="b6c51b66-f06d-4096-ba58-b732c387852f" points="285 228.337 285 135.513 110 135.513 110 238.013"/>
    <polygon class="acd90c0e-eb2b-4747-af7e-6be9d1e207ae" points="289.986 226.878 285 235.513 280.014 226.878 289.986 226.878"/>
  </g>
  <g>
    <polyline class="b6c51b66-f06d-4096-ba58-b732c387852f" points="470 228.337 470 135.513 315 135.513 315 238.013"/>
    <polygon class="acd90c0e-eb2b-4747-af7e-6be9d1e207ae" points="474.986 226.878 470 235.513 465.014 226.878 474.986 226.878"/>
  </g>
  <g>
    <polyline class="b6c51b66-f06d-4096-ba58-b732c387852f" points="440 228.337 440 150.513 345 150.513 345 238.013"/>
    <polygon class="acd90c0e-eb2b-4747-af7e-6be9d1e207ae" points="444.986 226.878 440 235.513 435.014 226.878 444.986 226.878"/>
  </g>
  <g>
    <circle class="acd90c0e-eb2b-4747-af7e-6be9d1e207ae" cx="470" cy="175.513" r="13"/>
    <text class="e8393593-12d2-4b05-bae2-8a12cd3841b2" transform="translate(466.17 179.299)">6</text>
  </g>
  <g>
    <polyline class="b6c51b66-f06d-4096-ba58-b732c387852f" points="255 238.013 255 150.513 140 150.513 140 228.337"/>
    <polygon class="acd90c0e-eb2b-4747-af7e-6be9d1e207ae" points="135.014 226.878 140 235.513 144.986 226.878 135.014 226.878"/>
  </g>
  <g>
    <circle class="acd90c0e-eb2b-4747-af7e-6be9d1e207ae" cx="440" cy="175.513" r="13"/>
    <text class="e8393593-12d2-4b05-bae2-8a12cd3841b2" transform="translate(435.515 179.299)">11</text>
  </g>
  <rect class="b64e6b83-373b-49c9-af5b-c46c52732b71" x="25" y="238.013" width="140" height="50"/>
  <text class="a16bcf64-eb55-4518-8012-4bd88208e618" transform="translate(74.355 266.337)">nss_sss</text>
  <rect class="b64e6b83-373b-49c9-af5b-c46c52732b71" x="230" y="374.513" width="140" height="50"/>
  <text class="a16bcf64-eb55-4518-8012-4bd88208e618" transform="translate(277.83 402.837)">sssd_be</text>
  <rect class="b64e6b83-373b-49c9-af5b-c46c52732b71" x="230" y="238.013" width="140" height="50"/>
  <text class="a16bcf64-eb55-4518-8012-4bd88208e618" transform="translate(275.695 266.337)">sssd_nss</text>
  <rect class="b888b898-9c9f-4549-885b-55e24b8d269c" x="585" y="198.013" width="160" height="90"/>
  <text class="b5c28785-b155-46d1-8972-a52e2752252f" transform="translate(595 216.618)">SSSD</text>
  <rect class="b888b898-9c9f-4549-885b-55e24b8d269c" x="585" y="333.013" width="160" height="101.5"/>
  <text class="b5c28785-b155-46d1-8972-a52e2752252f" transform="translate(595 351.618)">LDAP<tspan x="0" y="13">Directory Server</tspan></text>
  <rect class="b64e6b83-373b-49c9-af5b-c46c52732b71" x="595" y="374.513" width="140" height="50"/>
  <text class="a16bcf64-eb55-4518-8012-4bd88208e618" transform="translate(644.714 390.837)">IdM DS<tspan x="-20.508" y="12">extdom_extop</tspan><tspan x="2.958" y="24">plugin</tspan></text>
  <line class="fe027559-a1e9-41e3-99fb-d0df69436f3a" x1="49.768" y1="73.531" x2="49.768" y2="85.806"/>
  <g>
    <line class="ea30b990-c18f-44a3-962d-eb9baf273dfe" x1="79.767" y1="77.62" x2="79.767" y2="85.069"/>
    <polygon class="b888b898-9c9f-4549-885b-55e24b8d269c" points="69.795 80.538 79.767 63.267 89.74 80.538 69.795 80.538"/>
  </g>
  <g>
    <line class="b6c51b66-f06d-4096-ba58-b732c387852f" x1="50" y1="70" x2="50" y2="228.337"/>
    <polygon class="acd90c0e-eb2b-4747-af7e-6be9d1e207ae" points="45.014 226.878 50 235.513 54.986 226.878 45.014 226.878"/>
  </g>
  <g>
    <line class="b6c51b66-f06d-4096-ba58-b732c387852f" x1="80" y1="238.013" x2="80" y2="79.176"/>
    <polygon class="acd90c0e-eb2b-4747-af7e-6be9d1e207ae" points="84.986 80.635 80 72 75.014 80.635 84.986 80.635"/>
  </g>
  <g>
    <circle class="acd90c0e-eb2b-4747-af7e-6be9d1e207ae" cx="50" cy="175.513" r="13"/>
    <text class="e8393593-12d2-4b05-bae2-8a12cd3841b2" transform="translate(47.633 179.299)">1</text>
  </g>
  <g>
    <circle class="acd90c0e-eb2b-4747-af7e-6be9d1e207ae" cx="80" cy="175.513" r="13"/>
    <text class="e8393593-12d2-4b05-bae2-8a12cd3841b2" transform="translate(74.151 179.299)">13</text>
  </g>
  <rect class="bb82b41d-5590-4138-b941-65aaf9e82bfe" x="35.226" y="114.013" width="53.548" height="18.099"/>
  <text class="a996be43-7337-40e8-a900-8c4787dfacad" transform="translate(15 127.802)">IdM client</text>
  <rect class="b888b898-9c9f-4549-885b-55e24b8d269c" x="20" y="207.109" width="53.548" height="12.752"/>
  <rect class="b888b898-9c9f-4549-885b-55e24b8d269c" x="226.453" y="205.44" width="51.025" height="14.421"/>
  <text class="b5c28785-b155-46d1-8972-a52e2752252f" transform="translate(25 216.618)">libpam</text>
  <g>
    <text class="b86f68d5-8fa4-492d-a189-a853784d07a2" transform="translate(62.395 427.093)">nsswitch.conf</text>
    <g>
      <polygon class="b2751829-e217-45a5-9851-13de3d4ea830" points="111.646 410.541 83.354 410.541 83.354 379.53 89.115 373.763 111.646 373.763 111.646 410.541"/>
      <polygon class="b0a28115-4a80-405d-81e1-e1e3127a137c" points="89.115 379.53 83.354 379.53 89.115 373.763 89.115 379.53"/>
      <line class="b0a28115-4a80-405d-81e1-e1e3127a137c" x1="88.993" y1="386.498" x2="97.5" y2="386.498"/>
      <line class="b0a28115-4a80-405d-81e1-e1e3127a137c" x1="88.993" y1="392.133" x2="106.007" y2="392.133"/>
      <line class="b0a28115-4a80-405d-81e1-e1e3127a137c" x1="88.993" y1="397.768" x2="106.007" y2="397.768"/>
      <line class="b0a28115-4a80-405d-81e1-e1e3127a137c" x1="88.993" y1="403.404" x2="106.007" y2="403.404"/>
    </g>
  </g>
  <g>
    <circle class="acd90c0e-eb2b-4747-af7e-6be9d1e207ae" cx="255.25" cy="175.513" r="13"/>
    <text class="e8393593-12d2-4b05-bae2-8a12cd3841b2" transform="translate(251.612 179.299)">5</text>
  </g>
  <g>
    <circle class="acd90c0e-eb2b-4747-af7e-6be9d1e207ae" cx="285.25" cy="175.513" r="13"/>
    <text class="e8393593-12d2-4b05-bae2-8a12cd3841b2" transform="translate(279.599 179.299)">12</text>
  </g>
  <text class="b5c28785-b155-46d1-8972-a52e2752252f" transform="translate(230 216.618)">SSSD</text>
  <g>
    <text class="b1fe0550-b802-485b-8b71-f2a41687fb42" transform="translate(667.792 552.531)">170_OpenShift_0621</text>
    <rect class="bd64bdde-1ea2-48d0-b31a-c1968002adf4" y="529.513" width="760" height="40"/>
  </g>
  <rect class="bb82b41d-5590-4138-b941-65aaf9e82bfe" x="5" y="31.013" width="540" height="39" transform="translate(550 101.027) rotate(-180)"/>
  <text class="b86f68d5-8fa4-492d-a189-a853784d07a2" transform="translate(15 53.837)">{user@client ~]$ getent passwd <tspan class="a2d4e301-bbf7-415d-93df-222ea5948c98" x="167.427" y="0">&lt;idm_user_name&gt;</tspan></text>
</svg>
