<svg id="fb309f6e-c6f0-46f0-b772-2ed5c64c344e" data-name="artwork" xmlns="http://www.w3.org/2000/svg" width="760" height="298.011"><defs><style>.aa6762ec-5057-40a5-a767-f7604f0c8fa6{font-family:RedHatText,&quot;Red Hat Text&quot;,Overpass,&quot;Helvetica Neue&quot;,Arial,sans-serif}.fec0d201-ed1f-4ef8-b031-335b4678855f{fill:none;stroke-linecap:round;stroke-linejoin:round;stroke:#151515}.a0165bb6-f916-4bcb-b573-22e0b7272ebc,.ec73ffa0-0c7d-442d-abd8-da3d0c83f8b1,.fe0e7ce8-6e2c-4166-862e-f29abee6fada{fill:#151515}.eac691c5-230f-46b2-8d83-5be9b86c25db{fill:#e8e8e8}.a0165bb6-f916-4bcb-b573-22e0b7272ebc,.bb919317-a899-4225-8fc7-dab97677c7d2,.ec73ffa0-0c7d-442d-abd8-da3d0c83f8b1{font-size:11px}.bb919317-a899-4225-8fc7-dab97677c7d2,.ec73ffa0-0c7d-442d-abd8-da3d0c83f8b1{font-family:RedHatText,&quot;Red Hat Text&quot;,Overpass,&quot;Helvetica Neue&quot;,Arial,sans-serif;font-weight:500}.b9da1a3a-eb8c-4001-baef-39d4dea37675{fill:#06c}.bb919317-a899-4225-8fc7-dab97677c7d2{fill:#fff}.b9779057-dcb5-4950-a661-c6dc32b685fa{fill:#f2f7fc}.a0165bb6-f916-4bcb-b573-22e0b7272ebc{font-family:RedHatText,&quot;Red Hat Text&quot;,Overpass,&quot;Helvetica Neue&quot;,Arial,sans-serif;font-weight:700}.f4a25425-3da4-4ec2-a72f-fd4e1826cfe5{fill:#cce0f5}.aa6762ec-5057-40a5-a767-f7604f0c8fa6{font-weight:400}</style></defs><text transform="translate(667.512 281.029)" font-family="RedHatText,&quot;Red Hat Text&quot;,Overpass,&quot;Helvetica Neue&quot;,Arial,sans-serif" font-size="10" fill="#f3f3f3">113_OpenShift_0920</text><path fill="none" d="M0 258.011h760v40H0z"/><path stroke-linecap="round" stroke-linejoin="round" stroke="#e8e8e8" fill="none" d="M757.221 53.5H.5"/><path class="fec0d201-ed1f-4ef8-b031-335b4678855f" d="M407.837 103H305v60"/><path class="fe0e7ce8-6e2c-4166-862e-f29abee6fada" d="M406.378 98.014l8.636 4.986-8.636 4.986v-9.972z"/><path class="eac691c5-230f-46b2-8d83-5be9b86c25db" transform="rotate(-180 57.5 103)" d="M0 78h115v50H0z"/><text class="ec73ffa0-0c7d-442d-abd8-da3d0c83f8b1" transform="translate(36.213 106.324)">Source 1</text><path class="eac691c5-230f-46b2-8d83-5be9b86c25db" transform="rotate(-180 57.5 233)" d="M0 208h115v50H0z"/><text class="ec73ffa0-0c7d-442d-abd8-da3d0c83f8b1" transform="translate(34.959 236.324)">Source 2</text><path class="b9da1a3a-eb8c-4001-baef-39d4dea37675" transform="rotate(-180 702.5 103)" d="M645 78h115v50H645z"/><text class="bb919317-a899-4225-8fc7-dab97677c7d2" transform="translate(691.448 106.324)">Sink</text><path class="fec0d201-ed1f-4ef8-b031-335b4678855f" d="M57.155 208v-80M237.824 168H57.872"/><path class="fe0e7ce8-6e2c-4166-862e-f29abee6fada" d="M236.365 163.014L245 168l-8.635 4.986v-9.972z"/><path class="fec0d201-ed1f-4ef8-b031-335b4678855f" d="M635.328 103H532.371"/><path class="fe0e7ce8-6e2c-4166-862e-f29abee6fada" d="M633.869 98.014l8.636 4.986-8.636 4.986v-9.972z"/><path class="b9779057-dcb5-4950-a661-c6dc32b685fa" d="M570 115a12 12 0 1112-12 12.014 12.014 0 01-12 12z"/><path class="b9da1a3a-eb8c-4001-baef-39d4dea37675" d="M570 91.5a11.5 11.5 0 11-11.5 11.5A11.514 11.514 0 01570 91.5m0-1a12.5 12.5 0 1012.5 12.5A12.5 12.5 0 00570 90.5z"/><text class="a0165bb6-f916-4bcb-b573-22e0b7272ebc" transform="translate(566.721 105.953)">2</text><path class="b9779057-dcb5-4950-a661-c6dc32b685fa" d="M605 115a12 12 0 1112-12 12.014 12.014 0 01-12 12z"/><path class="b9da1a3a-eb8c-4001-baef-39d4dea37675" d="M605 91.5a11.5 11.5 0 11-11.5 11.5A11.514 11.514 0 01605 91.5m0-1a12.5 12.5 0 1012.5 12.5A12.5 12.5 0 00605 90.5z"/><text class="a0165bb6-f916-4bcb-b573-22e0b7272ebc" transform="translate(601.721 105.953)">2</text><path class="eac691c5-230f-46b2-8d83-5be9b86c25db" d="M130.078 168a12.5 12.5 0 11-12.5-12.5 12.5 12.5 0 0112.5 12.5z"/><text class="a0165bb6-f916-4bcb-b573-22e0b7272ebc" transform="translate(114.294 170.953)">2</text><path class="eac691c5-230f-46b2-8d83-5be9b86c25db" d="M165.078 168a12.5 12.5 0 11-12.5-12.5 12.5 12.5 0 0112.5 12.5z"/><text class="a0165bb6-f916-4bcb-b573-22e0b7272ebc" transform="translate(150.46 170.953)">1</text><path class="eac691c5-230f-46b2-8d83-5be9b86c25db" d="M200.078 168a12.5 12.5 0 11-12.5-12.5 12.5 12.5 0 0112.5 12.5z"/><text class="a0165bb6-f916-4bcb-b573-22e0b7272ebc" transform="translate(184.294 170.953)">2</text><g><path class="fec0d201-ed1f-4ef8-b031-335b4678855f" d="M407.837 233H305v-60"/><path class="fe0e7ce8-6e2c-4166-862e-f29abee6fada" d="M406.378 228.014l8.636 4.986-8.636 4.986v-9.972z"/></g><g><path class="b9da1a3a-eb8c-4001-baef-39d4dea37675" transform="rotate(-180 702.5 233)" d="M645 208h115v50H645z"/><text class="bb919317-a899-4225-8fc7-dab97677c7d2" transform="translate(691.448 236.325)">Sink</text></g><g><path class="fec0d201-ed1f-4ef8-b031-335b4678855f" d="M635.328 233H532.371"/><path class="fe0e7ce8-6e2c-4166-862e-f29abee6fada" d="M633.869 228.014l8.636 4.986-8.636 4.986v-9.972z"/></g><g><path class="f4a25425-3da4-4ec2-a72f-fd4e1826cfe5" d="M600.005 233a12.5 12.5 0 11-12.5-12.5 12.5 12.5 0 0112.5 12.5z"/><text class="a0165bb6-f916-4bcb-b573-22e0b7272ebc" transform="translate(585.387 235.953)">1</text></g><path class="eac691c5-230f-46b2-8d83-5be9b86c25db" transform="rotate(-180 305 168)" d="M247.5 143h115v50h-115z"/><text class="ec73ffa0-0c7d-442d-abd8-da3d0c83f8b1" transform="translate(287.433 171.047)">Broker</text><g><path class="f4a25425-3da4-4ec2-a72f-fd4e1826cfe5" d="M.147 29a9 9 0 109-9 9 9 0 00-9 9z"/><path class="b9779057-dcb5-4950-a661-c6dc32b685fa" d="M30.748 37.5a8.5 8.5 0 118.5-8.5 8.509 8.509 0 01-8.5 8.5z"/><path class="b9da1a3a-eb8c-4001-baef-39d4dea37675" d="M30.747 21a8 8 0 11-8 8 8.009 8.009 0 018-8m0-1a9 9 0 109 9 9 9 0 00-9-9z"/><path class="eac691c5-230f-46b2-8d83-5be9b86c25db" d="M43.347 29a9 9 0 109-9 9 9 0 00-9 9z"/><text class="ec73ffa0-0c7d-442d-abd8-da3d0c83f8b1" transform="translate(69.515 33.403)">Events</text></g><g><path class="b9779057-dcb5-4950-a661-c6dc32b685fa" d="M418.014 78.5h114v49h-114z"/><path class="b9da1a3a-eb8c-4001-baef-39d4dea37675" d="M531.514 79v48h-113V79h113m1-1h-115v50h115V78z"/></g><text class="ec73ffa0-0c7d-442d-abd8-da3d0c83f8b1" transform="translate(454.717 98.624)">Trigger <tspan class="aa6762ec-5057-40a5-a767-f7604f0c8fa6"><tspan x="-14.971" y="15">(filter applied)</tspan></tspan></text><path class="f4a25425-3da4-4ec2-a72f-fd4e1826cfe5" transform="rotate(-180 475.014 233)" d="M417.514 208h115v50h-115z"/><text class="ec73ffa0-0c7d-442d-abd8-da3d0c83f8b1" transform="translate(454.717 228.624)">Trigger <tspan class="aa6762ec-5057-40a5-a767-f7604f0c8fa6"><tspan x="-14.971" y="15">(filter applied)</tspan></tspan></text></svg>