<svg id="b1a60f31-1c42-4743-af9f-d200deec3d62" data-name="artwork" xmlns="http://www.w3.org/2000/svg" width="760" height="298.011"><defs><style>.e0628660-09d5-4aba-92ca-75a1c8ca33f5{fill:none;stroke:#151515;stroke-linecap:round;stroke-linejoin:round}.a86f4d03-f062-4c47-b11f-62c1957b34e3,.b4bc058e-0c8d-4972-8ce3-f4ac9cb893b2,.fe0304fe-a56a-4413-a2df-9484b5de8362{fill:#151515}.b53d6831-1a21-4c75-ae2d-8ce9b553197e{fill:#06c}.a86f4d03-f062-4c47-b11f-62c1957b34e3,.b4bc058e-0c8d-4972-8ce3-f4ac9cb893b2,.b4d035e7-4f86-452e-9c62-71855f8dd1d4{font-size:11px}.b4d035e7-4f86-452e-9c62-71855f8dd1d4{fill:#fff}.a86f4d03-f062-4c47-b11f-62c1957b34e3,.b4d035e7-4f86-452e-9c62-71855f8dd1d4{font-family:RedHatText,&quot;Red Hat Text&quot;,Overpass,&quot;Helvetica Neue&quot;,Arial,sans-serif;font-weight:500}.f3c50c81-582d-4eb3-979c-88216b289dda{fill:#e8e8e8}.b4bc058e-0c8d-4972-8ce3-f4ac9cb893b2{font-family:RedHatText,&quot;Red Hat Text&quot;,Overpass,&quot;Helvetica Neue&quot;,Arial,sans-serif;font-weight:700}.af3b2164-ca0b-4610-a52c-cc868e3efd98{fill:#d9e8f7}</style></defs><text transform="translate(667.512 281.029)" font-size="10" fill="#f3f3f3" font-family="RedHatText,&quot;Red Hat Text&quot;,Overpass,&quot;Helvetica Neue&quot;,Arial,sans-serif">113_OpenShift_0920</text><path fill="none" d="M0 258.011h760v40H0z"/><path class="e0628660-09d5-4aba-92ca-75a1c8ca33f5" d="M367.837 103H255v60"/><path class="fe0304fe-a56a-4413-a2df-9484b5de8362" d="M366.378 98.014l8.636 4.986-8.636 4.986v-9.972z"/><path class="b53d6831-1a21-4c75-ae2d-8ce9b553197e" transform="rotate(-180 702.5 103)" d="M645 78h115v50H645z"/><text class="b4d035e7-4f86-452e-9c62-71855f8dd1d4" transform="translate(691.448 106.324)">Sink</text><path class="e0628660-09d5-4aba-92ca-75a1c8ca33f5" d="M187.824 183H57.514v25"/><path class="fe0304fe-a56a-4413-a2df-9484b5de8362" d="M186.365 178.014L195 183l-8.635 4.986v-9.972z"/><path class="e0628660-09d5-4aba-92ca-75a1c8ca33f5" d="M187.824 153H57.514v-25"/><path class="fe0304fe-a56a-4413-a2df-9484b5de8362" d="M186.365 148.014L195 153l-8.635 4.986v-9.972z"/><path class="e0628660-09d5-4aba-92ca-75a1c8ca33f5" d="M635.328 103H492.371"/><path class="fe0304fe-a56a-4413-a2df-9484b5de8362" d="M633.869 98.014l8.636 4.986-8.636 4.986v-9.972z"/><path class="e0628660-09d5-4aba-92ca-75a1c8ca33f5" d="M367.837 233H255v-60"/><path class="fe0304fe-a56a-4413-a2df-9484b5de8362" d="M366.378 228.014l8.636 4.986-8.636 4.986v-9.972z"/><path class="b53d6831-1a21-4c75-ae2d-8ce9b553197e" transform="rotate(-180 702.5 233)" d="M645 208h115v50H645z"/><text class="b4d035e7-4f86-452e-9c62-71855f8dd1d4" transform="translate(691.448 236.325)">Sink</text><path class="e0628660-09d5-4aba-92ca-75a1c8ca33f5" d="M635.328 233H492.371"/><path class="fe0304fe-a56a-4413-a2df-9484b5de8362" d="M633.869 228.014l8.636 4.986-8.636 4.986v-9.972z"/><path class="f3c50c81-582d-4eb3-979c-88216b289dda" transform="rotate(-180 255 168)" d="M197.5 143h115v50h-115z"/><text class="a86f4d03-f062-4c47-b11f-62c1957b34e3" transform="translate(233.858 171.047)">Channel</text><path class="f3c50c81-582d-4eb3-979c-88216b289dda" transform="rotate(-180 57.5 103)" d="M0 78h115v50H0z"/><text class="a86f4d03-f062-4c47-b11f-62c1957b34e3" transform="translate(36.213 106.324)">Source 1</text><path class="f3c50c81-582d-4eb3-979c-88216b289dda" transform="rotate(-180 57.5 233)" d="M0 208h115v50H0z"/><text class="a86f4d03-f062-4c47-b11f-62c1957b34e3" transform="translate(34.959 236.324)">Source 2</text><path stroke="#e8e8e8" stroke-linecap="round" stroke-linejoin="round" fill="none" d="M757.221 53.5H.5"/><path class="f3c50c81-582d-4eb3-979c-88216b289dda" d="M.147 29a9 9 0 109-9 9 9 0 00-9 9z"/><text class="a86f4d03-f062-4c47-b11f-62c1957b34e3" transform="translate(26.315 33.403)">Events</text><g><path class="f3c50c81-582d-4eb3-979c-88216b289dda" d="M165.078 153a12.5 12.5 0 11-12.5-12.5 12.5 12.5 0 0112.5 12.5z"/><text class="b4bc058e-0c8d-4972-8ce3-f4ac9cb893b2" transform="translate(149.096 155.953)">3</text></g><path class="f3c50c81-582d-4eb3-979c-88216b289dda" d="M130.078 153a12.5 12.5 0 11-12.5-12.5 12.5 12.5 0 0112.5 12.5z"/><text class="b4bc058e-0c8d-4972-8ce3-f4ac9cb893b2" transform="translate(115.461 155.953)">1</text><g><path class="f3c50c81-582d-4eb3-979c-88216b289dda" d="M130.078 183a12.5 12.5 0 11-12.5-12.5 12.5 12.5 0 0112.5 12.5z"/><text class="b4bc058e-0c8d-4972-8ce3-f4ac9cb893b2" transform="translate(114.295 185.953)">2</text></g><g><path class="f3c50c81-582d-4eb3-979c-88216b289dda" d="M542.236 103a12.5 12.5 0 11-12.5-12.5 12.5 12.5 0 0112.5 12.5z"/><text class="b4bc058e-0c8d-4972-8ce3-f4ac9cb893b2" transform="translate(527.619 105.953)">1</text><path class="f3c50c81-582d-4eb3-979c-88216b289dda" d="M577.236 103a12.5 12.5 0 11-12.5-12.5 12.5 12.5 0 0112.5 12.5z"/><text class="b4bc058e-0c8d-4972-8ce3-f4ac9cb893b2" transform="translate(561.453 105.953)">2</text><g><path class="f3c50c81-582d-4eb3-979c-88216b289dda" d="M612.236 103a12.5 12.5 0 11-12.5-12.5 12.5 12.5 0 0112.5 12.5z"/><text class="b4bc058e-0c8d-4972-8ce3-f4ac9cb893b2" transform="translate(596.254 105.953)">3</text></g></g><g><path class="f3c50c81-582d-4eb3-979c-88216b289dda" d="M542.236 233a12.5 12.5 0 11-12.5-12.5 12.5 12.5 0 0112.5 12.5z"/><text class="b4bc058e-0c8d-4972-8ce3-f4ac9cb893b2" transform="translate(527.619 235.953)">1</text><path class="f3c50c81-582d-4eb3-979c-88216b289dda" d="M577.236 233a12.5 12.5 0 11-12.5-12.5 12.5 12.5 0 0112.5 12.5z"/><text class="b4bc058e-0c8d-4972-8ce3-f4ac9cb893b2" transform="translate(561.453 235.953)">2</text><g><path class="f3c50c81-582d-4eb3-979c-88216b289dda" d="M612.236 233a12.5 12.5 0 11-12.5-12.5 12.5 12.5 0 0112.5 12.5z"/><text class="b4bc058e-0c8d-4972-8ce3-f4ac9cb893b2" transform="translate(596.254 235.953)">3</text></g></g><path class="af3b2164-ca0b-4610-a52c-cc868e3efd98" transform="rotate(-180 435.014 103)" d="M377.514 78h115v50h-115z"/><text class="a86f4d03-f062-4c47-b11f-62c1957b34e3" transform="translate(402.391 106.047)">Subscription</text><path class="af3b2164-ca0b-4610-a52c-cc868e3efd98" transform="rotate(-180 435.014 233)" d="M377.514 208h115v50h-115z"/><text class="a86f4d03-f062-4c47-b11f-62c1957b34e3" transform="translate(402.391 236.046)">Subscription</text></svg>