<svg id="fde3bb86-291a-4908-9991-a8faf47ae4b0" data-name="Layer 1" xmlns="http://www.w3.org/2000/svg" width="760" height="180"><defs><style>.ba663b8f-c6d7-493a-adf1-6f58f6512b99{fill:#e8e8e8}.b410bf6d-9c55-4e08-8da8-6510df78f9f7{fill:none}.a743e29f-ed82-492f-8440-56985b5d5219,.b7fa954c-f111-497e-992e-32086b06c34a,.ba594aab-2645-43c7-8b8f-311f3710a4e9{font-size:12px}.a743e29f-ed82-492f-8440-56985b5d5219,.ba594aab-2645-43c7-8b8f-311f3710a4e9{fill:#151515}.b7fa954c-f111-497e-992e-32086b06c34a,.ba594aab-2645-43c7-8b8f-311f3710a4e9{font-family:RedHatText,&quot;Red Hat Text&quot;,Overpass,&quot;Helvetica Neue&quot;,Arial,sans-serif;font-weight:500}.ad806863-6e33-44c4-b79d-10f5ad93bb89{fill:#d5d5d5}.a9961ecb-5ee9-4f7f-a530-665a1c96b315{fill:#06c}.b7fa954c-f111-497e-992e-32086b06c34a{fill:#fff}.b410bf6d-9c55-4e08-8da8-6510df78f9f7{stroke:#151515;stroke-linecap:round;stroke-linejoin:round}.a743e29f-ed82-492f-8440-56985b5d5219{font-family:RedHatText,&quot;Red Hat Text&quot;,Overpass,&quot;Helvetica Neue&quot;,Arial,sans-serif;font-style:italic}</style></defs><text transform="translate(667.191 163.017)" fill="#e8e8e8" font-size="10" font-family="RedHatText,&quot;Red Hat Text&quot;,Overpass,&quot;Helvetica Neue&quot;,Arial,sans-serif">160_OpenShift_0421</text><path fill="none" d="M0 140h760v40H0z"/><path class="ba663b8f-c6d7-493a-adf1-6f58f6512b99" d="M240.25 49.396h279.5v79h-279.5z"/><text class="ba594aab-2645-43c7-8b8f-311f3710a4e9" transform="translate(255.25 74.5)">Partition offsets</text><path class="ad806863-6e33-44c4-b79d-10f5ad93bb89" d="M255.25 84.396h29v29h-29z"/><text class="ba594aab-2645-43c7-8b8f-311f3710a4e9" transform="translate(265.706 102.22)">0</text><path class="ad806863-6e33-44c4-b79d-10f5ad93bb89" d="M286.75 84.396h29v29h-29z"/><text class="ba594aab-2645-43c7-8b8f-311f3710a4e9" transform="translate(299.198 102.22)">1</text><path class="ad806863-6e33-44c4-b79d-10f5ad93bb89" d="M318.25 84.396h29v29h-29z"/><text class="ba594aab-2645-43c7-8b8f-311f3710a4e9" transform="translate(329.33 102.22)">2</text><path class="ad806863-6e33-44c4-b79d-10f5ad93bb89" d="M349.75 84.396h29v29h-29z"/><text class="ba594aab-2645-43c7-8b8f-311f3710a4e9" transform="translate(360.608 102.22)">3</text><path class="ad806863-6e33-44c4-b79d-10f5ad93bb89" d="M381.75 84.896h28v28h-28z"/><path class="a9961ecb-5ee9-4f7f-a530-665a1c96b315" d="M409.25 85.4v27h-27v-27h27m1-1h-29v29h29v-29z"/><text class="ba594aab-2645-43c7-8b8f-311f3710a4e9" transform="translate(391.844 102.22)">4</text><path class="a9961ecb-5ee9-4f7f-a530-665a1c96b315" d="M412.75 84.396h29v29h-29z"/><text class="b7fa954c-f111-497e-992e-32086b06c34a" transform="translate(423.704 102.22)">5</text><path class="a9961ecb-5ee9-4f7f-a530-665a1c96b315" d="M444.25 84.396h29v29h-29z"/><text class="b7fa954c-f111-497e-992e-32086b06c34a" transform="translate(454.946 102.22)">6</text><path class="a9961ecb-5ee9-4f7f-a530-665a1c96b315" d="M475.75 84.396h29v29h-29z"/><text class="b7fa954c-f111-497e-992e-32086b06c34a" transform="translate(486.74 102.22)">7</text><path class="b410bf6d-9c55-4e08-8da8-6510df78f9f7" d="M490.25 123.072v25.324H72v-24.5"/><path fill="#151515" d="M485.264 124.531l4.986-8.635 4.986 8.635h-9.972z"/><text class="a743e29f-ed82-492f-8440-56985b5d5219" transform="translate(270.385 161.779)">write</text><path stroke="#06c" stroke-linecap="round" stroke-linejoin="round" fill="none" d="M688 73.896V34.404H395.75v40.324"/><path class="a9961ecb-5ee9-4f7f-a530-665a1c96b315" d="M390.764 73.269l4.986 8.635 4.986-8.635h-9.972z"/><text class="a743e29f-ed82-492f-8440-56985b5d5219" transform="translate(556.02 27.904)">read</text><g><path class="ba663b8f-c6d7-493a-adf1-6f58f6512b99" d="M616 73.896h144v50H616z"/><text class="ba594aab-2645-43c7-8b8f-311f3710a4e9" transform="translate(659.165 102.22)">Consumer</text></g><g><path class="ba663b8f-c6d7-493a-adf1-6f58f6512b99" d="M0 73.896h144v50H0z"/><text class="ba594aab-2645-43c7-8b8f-311f3710a4e9" transform="translate(45.895 102.22)">Producer</text></g><path class="b410bf6d-9c55-4e08-8da8-6510df78f9f7" d="M490.25 84.396v-9.992h-63v9.992"/><text class="a743e29f-ed82-492f-8440-56985b5d5219" transform="translate(450.944 67.904)">lag</text></svg>