<svg id="aabbf5ef-6875-4eab-a194-b7c034b12cb1" data-name="Layer 1" xmlns="http://www.w3.org/2000/svg" width="760" height="180"><defs><style>.b490b24e-fa9b-4c84-82e2-7e6b2e81551f{fill:#e8e8e8}.a5639fab-c9c0-41fd-ae0e-d9fc3f75ffdd,.f262cc9c-0ad9-4368-91dd-7f8da95ac72a{font-size:12px;fill:#151515}.f262cc9c-0ad9-4368-91dd-7f8da95ac72a{font-family:RedHatText,&quot;Red Hat Text&quot;,Overpass,&quot;Helvetica Neue&quot;,Arial,sans-serif;font-weight:500}.bd8326d5-6213-43de-bbd5-08724ddcea8d{fill:#d5d5d5}.bb0061a7-131b-424b-ab32-5575fa41688f{fill:#06c}.a5639fab-c9c0-41fd-ae0e-d9fc3f75ffdd{font-family:RedHatText,&quot;Red Hat Text&quot;,Overpass,&quot;Helvetica Neue&quot;,Arial,sans-serif;font-style:italic}</style></defs><text transform="translate(667.191 163.017)" fill="#e8e8e8" font-size="10" font-family="RedHatText,&quot;Red Hat Text&quot;,Overpass,&quot;Helvetica Neue&quot;,Arial,sans-serif">160_OpenShift_0421</text><path fill="none" d="M0 140h760v40H0z"/><path class="b490b24e-fa9b-4c84-82e2-7e6b2e81551f" d="M240.25 49.396h279.5v79h-279.5z"/><text class="f262cc9c-0ad9-4368-91dd-7f8da95ac72a" transform="translate(255.25 74.5)">Partition 1</text><path class="bd8326d5-6213-43de-bbd5-08724ddcea8d" d="M255.25 84.396h29v29h-29z"/><text class="f262cc9c-0ad9-4368-91dd-7f8da95ac72a" transform="translate(265.706 102.22)">0</text><path class="bd8326d5-6213-43de-bbd5-08724ddcea8d" d="M286.75 84.396h29v29h-29z"/><text class="f262cc9c-0ad9-4368-91dd-7f8da95ac72a" transform="translate(299.198 102.22)">1</text><path class="bd8326d5-6213-43de-bbd5-08724ddcea8d" d="M318.25 84.396h29v29h-29z"/><text class="f262cc9c-0ad9-4368-91dd-7f8da95ac72a" transform="translate(329.33 102.22)">2</text><path class="bd8326d5-6213-43de-bbd5-08724ddcea8d" d="M349.75 84.396h29v29h-29z"/><text class="f262cc9c-0ad9-4368-91dd-7f8da95ac72a" transform="translate(360.608 102.22)">3</text><path class="bd8326d5-6213-43de-bbd5-08724ddcea8d" d="M381.25 84.396h29v29h-29z"/><text class="f262cc9c-0ad9-4368-91dd-7f8da95ac72a" transform="translate(391.844 102.22)">4</text><path class="bd8326d5-6213-43de-bbd5-08724ddcea8d" d="M413.25 84.896h28v28h-28z"/><path class="bb0061a7-131b-424b-ab32-5575fa41688f" d="M440.75 85.4v27h-27v-27h27m1-1h-29v29h29v-29z"/><text class="f262cc9c-0ad9-4368-91dd-7f8da95ac72a" transform="translate(423.704 102.22)">5</text><path class="bd8326d5-6213-43de-bbd5-08724ddcea8d" d="M444.25 84.396h29v29h-29z"/><text class="f262cc9c-0ad9-4368-91dd-7f8da95ac72a" transform="translate(454.946 102.22)">6</text><path class="bd8326d5-6213-43de-bbd5-08724ddcea8d" d="M475.75 84.396h29v29h-29z"/><text class="f262cc9c-0ad9-4368-91dd-7f8da95ac72a" transform="translate(486.74 102.22)">7</text><path stroke-linecap="round" stroke-linejoin="round" stroke="#151515" fill="none" d="M490.25 120.572v27.824H72v-24.5"/><path fill="#151515" d="M485.264 122.031l4.986-8.635 4.986 8.635h-9.972z"/><text class="a5639fab-c9c0-41fd-ae0e-d9fc3f75ffdd" transform="translate(270.385 161.779)">write</text><path stroke="#06c" stroke-linecap="round" stroke-linejoin="round" fill="none" d="M688 73.896V34.404H427.25v40.324"/><path class="bb0061a7-131b-424b-ab32-5575fa41688f" d="M422.264 73.269l4.986 8.635 4.986-8.635h-9.972z"/><text class="a5639fab-c9c0-41fd-ae0e-d9fc3f75ffdd" transform="translate(556.02 27.904)">read</text><g><path class="b490b24e-fa9b-4c84-82e2-7e6b2e81551f" d="M616 73.896h144v50H616z"/><text class="f262cc9c-0ad9-4368-91dd-7f8da95ac72a" transform="translate(659.165 102.22)">Consumer</text></g><g><path class="b490b24e-fa9b-4c84-82e2-7e6b2e81551f" d="M0 73.896h144v50H0z"/><text class="f262cc9c-0ad9-4368-91dd-7f8da95ac72a" transform="translate(45.895 102.22)">Producer</text></g></svg>