<svg id="e6845d39-7adf-42a4-9a09-4ba16e05d080" data-name="Layer 1" xmlns="http://www.w3.org/2000/svg" width="760" height="284"><defs><style>.a28eeb74-347a-49f7-a31c-5f5551baa76d{fill:#e8e8e8}.ad7939fa-d760-4199-a405-d1c6e817dbdf,.bdb07a4d-98ef-4bf5-98ca-5224326bd759,.e5c8002f-1a17-4520-9f43-3e5781cccc94,.f8fedebd-aa98-46bb-8fa8-3d43759ca8a3,.fca24c32-febc-4c54-b969-b291e65ff561{fill:none}.ad7939fa-d760-4199-a405-d1c6e817dbdf,.bdb07a4d-98ef-4bf5-98ca-5224326bd759,.e5c8002f-1a17-4520-9f43-3e5781cccc94{stroke:#c4c4c4}.ad7939fa-d760-4199-a405-d1c6e817dbdf,.bdb07a4d-98ef-4bf5-98ca-5224326bd759,.e5c8002f-1a17-4520-9f43-3e5781cccc94,.fca24c32-febc-4c54-b969-b291e65ff561{stroke-linecap:round;stroke-linejoin:round}.ad7939fa-d760-4199-a405-d1c6e817dbdf{stroke-dasharray:2.966 2.966}.bdb07a4d-98ef-4bf5-98ca-5224326bd759{stroke-dasharray:2.968 2.968}.a2854722-257a-4285-8485-6016e5b0d502{fill:#fff}.ea2134ad-113d-4e73-ad4a-5ed4f4ddd7f8{fill:#06c}.b4ecaaa6-8874-46c7-bef0-2a4a7952147d{font-size:12px}.ab121ff3-8732-418e-82ef-f5c639009660,.b4ecaaa6-8874-46c7-bef0-2a4a7952147d,.fa8ed103-a9e6-4699-9104-0a58510037b2{fill:#151515}.ab121ff3-8732-418e-82ef-f5c639009660,.b4ecaaa6-8874-46c7-bef0-2a4a7952147d{font-family:RedHatText,&quot;Red Hat Text&quot;,Overpass,&quot;Helvetica Neue&quot;,Arial,sans-serif;font-weight:500}.ab121ff3-8732-418e-82ef-f5c639009660{font-size:11px}.f8fedebd-aa98-46bb-8fa8-3d43759ca8a3,.fca24c32-febc-4c54-b969-b291e65ff561{stroke:#151515}.f8fedebd-aa98-46bb-8fa8-3d43759ca8a3{stroke-miterlimit:10}</style></defs><text transform="translate(667.191 267.017)" fill="#e8e8e8" font-size="10" font-family="RedHatText,&quot;Red Hat Text&quot;,Overpass,&quot;Helvetica Neue&quot;,Arial,sans-serif">160_OpenShift_0421</text><path fill="none" d="M0 244h760v40H0z"/><path class="e5c8002f-1a17-4520-9f43-3e5781cccc94" d="M178.5 242.5v1.5H177"/><path class="ad7939fa-d760-4199-a405-d1c6e817dbdf" d="M174.034 244H3.483"/><path class="e5c8002f-1a17-4520-9f43-3e5781cccc94" d="M2 244H.5v-1.5"/><path class="bdb07a4d-98ef-4bf5-98ca-5224326bd759" d="M.5 239.532V56.984"/><path class="e5c8002f-1a17-4520-9f43-3e5781cccc94" d="M.5 55.5V54H2"/><path class="ad7939fa-d760-4199-a405-d1c6e817dbdf" d="M4.966 54h170.551"/><path class="e5c8002f-1a17-4520-9f43-3e5781cccc94" d="M177 54h1.5v1.5"/><path class="bdb07a4d-98ef-4bf5-98ca-5224326bd759" d="M178.5 58.468v182.548"/><path class="a2854722-257a-4285-8485-6016e5b0d502" d="M16 69.5h147v49H16z"/><path class="ea2134ad-113d-4e73-ad4a-5ed4f4ddd7f8" d="M162.5 70v48h-146V70h146m1-1h-148v50h148V69z"/><text class="b4ecaaa6-8874-46c7-bef0-2a4a7952147d" transform="translate(53.8 97.324)">Web console</text><path class="a2854722-257a-4285-8485-6016e5b0d502" d="M16 124.5h147v49H16z"/><path class="ea2134ad-113d-4e73-ad4a-5ed4f4ddd7f8" d="M162.5 125v48h-146v-48h146m1-1h-148v50h148v-50z"/><text class="b4ecaaa6-8874-46c7-bef0-2a4a7952147d" transform="translate(67.228 152.324)">CLI tool</text><path class="a2854722-257a-4285-8485-6016e5b0d502" d="M16 179.5h147v49H16z"/><path class="ea2134ad-113d-4e73-ad4a-5ed4f4ddd7f8" d="M162.5 180v48h-146v-48h146m1-1h-148v50h148v-50z"/><text class="b4ecaaa6-8874-46c7-bef0-2a4a7952147d" transform="translate(59.824 207.324)">REST APIs</text><path class="a28eeb74-347a-49f7-a31c-5f5551baa76d" d="M291 54h178v190H291z"/><text transform="translate(306 77.843)" font-family="RedHatText,&quot;Red Hat Text&quot;,Overpass,&quot;Helvetica Neue&quot;,Arial,sans-serif" font-weight="700" fill="#151515" font-size="12">OpenShift</text><path class="a2854722-257a-4285-8485-6016e5b0d502" d="M306 124h148v50H306z"/><text class="b4ecaaa6-8874-46c7-bef0-2a4a7952147d" transform="translate(338.6 152.324)">Kafka instance</text><g><path class="e5c8002f-1a17-4520-9f43-3e5781cccc94" d="M759.5 242.5v1.5H758"/><path class="ad7939fa-d760-4199-a405-d1c6e817dbdf" d="M755.034 244H584.483"/><path class="e5c8002f-1a17-4520-9f43-3e5781cccc94" d="M583 244h-1.5v-1.5"/><path class="bdb07a4d-98ef-4bf5-98ca-5224326bd759" d="M581.5 239.532V56.984"/><path class="e5c8002f-1a17-4520-9f43-3e5781cccc94" d="M581.5 55.5V54h1.5"/><path class="ad7939fa-d760-4199-a405-d1c6e817dbdf" d="M585.966 54h170.551"/><path class="e5c8002f-1a17-4520-9f43-3e5781cccc94" d="M758 54h1.5v1.5"/><path class="bdb07a4d-98ef-4bf5-98ca-5224326bd759" d="M759.5 58.468v182.548"/></g><path class="a28eeb74-347a-49f7-a31c-5f5551baa76d" d="M596.5 69h148v50h-148z"/><text class="b4ecaaa6-8874-46c7-bef0-2a4a7952147d" transform="translate(636.054 90.824)">Kafka Client<tspan x="3.275" y="13">application</tspan></text><path class="a28eeb74-347a-49f7-a31c-5f5551baa76d" d="M597 179h148v50H597z"/><text class="b4ecaaa6-8874-46c7-bef0-2a4a7952147d" transform="translate(632.01 207.324)">Kafka utilities</text><g><text class="ab121ff3-8732-418e-82ef-f5c639009660" transform="translate(96.436 42.805)">Managing Kafka</text><path class="fca24c32-febc-4c54-b969-b291e65ff561" d="M91.693 39.324L71.4 54"/></g><g><text class="ab121ff3-8732-418e-82ef-f5c639009660" transform="translate(646.79 29.604)">Producing/consuming<tspan x="0" y="13.2">messages from Kafka</tspan></text><path class="fca24c32-febc-4c54-b969-b291e65ff561" d="M641.884 34.287l-27.171 19.65"/></g><g><path class="f8fedebd-aa98-46bb-8fa8-3d43759ca8a3" d="M173.176 149h123.148"/><path class="fa8ed103-a9e6-4699-9104-0a58510037b2" d="M174.635 153.986L166 149l8.635-4.986v9.972zM294.865 153.986L303.5 149l-8.635-4.986v9.972z"/></g><g><path class="f8fedebd-aa98-46bb-8fa8-3d43759ca8a3" d="M173.176 94H199v110h-25.824"/><path class="fa8ed103-a9e6-4699-9104-0a58510037b2" d="M174.635 98.986L166 94l8.635-4.986v9.972zM174.635 199.014L166 204l8.635 4.986v-9.972z"/></g><g><path class="f8fedebd-aa98-46bb-8fa8-3d43759ca8a3" d="M561 149h-97.324"/><path class="fa8ed103-a9e6-4699-9104-0a58510037b2" d="M465.135 144.014L456.5 149l8.635 4.986v-9.972z"/><g><path class="f8fedebd-aa98-46bb-8fa8-3d43759ca8a3" d="M586.824 94H561v110h25.824"/><path class="fa8ed103-a9e6-4699-9104-0a58510037b2" d="M585.365 89.014L594 94l-8.635 4.986v-9.972zM585.365 208.986L594 204l-8.635-4.986v9.972z"/></g></g></svg>