<svg id="a387e084-0d6d-4a46-8ab7-d3861b8dd97e" data-name="artwork" xmlns="http://www.w3.org/2000/svg" width="760" height="524.218" viewBox="0 0 760 524.218">
  <defs>
    <style>
      .b9a9c9d9-87d7-479a-8c95-add05141c48b {
        font-size: 12px;
        font-family: RedHatText-Medium, Red Hat Text;
        font-weight: 500;
      }

      .b9a9c9d9-87d7-479a-8c95-add05141c48b, .f8d4deb5-4e10-4966-8a86-78fcc8f92a11 {
        fill: #151515;
      }

      .a22a300a-9fdb-46b3-9360-45bf7c684a8b, .a454918e-a97d-4b98-b945-36cf89951c80, .ace578d8-736c-4fb3-853a-92610b2808a9, .b79d2283-ded3-4d24-bb53-8966d4079980, .bba3932f-a563-497e-9615-6d1b4263b6c8, .e83d103e-c079-4fb7-b12f-ca4b10d4447d, .f53d879d-5702-4282-9056-0acfee13fcfd, .f8e0a708-049c-4cdd-8eb8-a732ae0c50f6, .ff271b8b-3d6a-4173-9f7c-e0199d93d7ce {
        fill: none;
      }

      .ace578d8-736c-4fb3-853a-92610b2808a9, .bba3932f-a563-497e-9615-6d1b4263b6c8, .e83d103e-c079-4fb7-b12f-ca4b10d4447d, .f53d879d-5702-4282-9056-0acfee13fcfd, .f8e0a708-049c-4cdd-8eb8-a732ae0c50f6, .ff271b8b-3d6a-4173-9f7c-e0199d93d7ce {
        stroke: #06c;
      }

      .a22a300a-9fdb-46b3-9360-45bf7c684a8b, .a454918e-a97d-4b98-b945-36cf89951c80, .ace578d8-736c-4fb3-853a-92610b2808a9, .bba3932f-a563-497e-9615-6d1b4263b6c8, .e83d103e-c079-4fb7-b12f-ca4b10d4447d, .f53d879d-5702-4282-9056-0acfee13fcfd, .f8e0a708-049c-4cdd-8eb8-a732ae0c50f6, .ff271b8b-3d6a-4173-9f7c-e0199d93d7ce {
        stroke-linecap: round;
        stroke-linejoin: round;
      }

      .a22a300a-9fdb-46b3-9360-45bf7c684a8b, .f8e0a708-049c-4cdd-8eb8-a732ae0c50f6 {
        stroke-width: 2px;
      }

      .a22a300a-9fdb-46b3-9360-45bf7c684a8b {
        stroke: #4cb6d6;
      }

      .b8d8d85a-ac21-40f1-a68f-b2e629d14b91 {
        fill: #e8e8e8;
      }

      .f8d4deb5-4e10-4966-8a86-78fcc8f92a11 {
        font-size: 14px;
        font-family: RedHatText-Bold, Red Hat Text;
        font-weight: 700;
      }

      .a454918e-a97d-4b98-b945-36cf89951c80 {
        stroke: #fff;
        stroke-width: 8px;
      }

      .a37556e0-3880-4916-a4e5-67c5020bd1b5 {
        fill: #4cb6d6;
      }

      .f8f548e3-dc15-47be-a3bc-05af63cb91e4 {
        fill: #fff;
      }

      .b6330101-eae3-4bc9-8996-f18569100a75 {
        fill: #d5d5d5;
      }

      .e83d103e-c079-4fb7-b12f-ca4b10d4447d {
        stroke-dasharray: 3.4 3.4;
      }

      .f53d879d-5702-4282-9056-0acfee13fcfd {
        stroke-dasharray: 2.8 2.8;
      }

      .ace578d8-736c-4fb3-853a-92610b2808a9 {
        stroke-dasharray: 3.3 3.3;
      }

      .b06f50e5-17a7-4b56-b9ec-4a8cf5a90893 {
        font-size: 11px;
        font-family: LiberationMono, Liberation Mono;
        font-weight: 400;
      }

      .bba3932f-a563-497e-9615-6d1b4263b6c8 {
        stroke-dasharray: 2.846 2.846;
      }

      .b01496fa-6031-4e39-b7b3-8fb52e10c9fd {
        font-size: 10px;
        fill: #f3f3f3;
        font-family: RedHatText-Regular, Red Hat Text;
      }
    </style>
  </defs>
  <text class="b9a9c9d9-87d7-479a-8c95-add05141c48b" transform="translate(467.089 152.904)">Pod network<tspan x="0" y="15">10.128.0.0/14</tspan></text>
  <polyline class="f8e0a708-049c-4cdd-8eb8-a732ae0c50f6" points="424.774 117.5 459.591 117.5 459.591 439.218 425.093 439.218"/>
  <text class="b9a9c9d9-87d7-479a-8c95-add05141c48b" transform="translate(597.089 152.904)">Infrastructure network<tspan x="0" y="15">192.168.126.0/18</tspan></text>
  <polyline class="a22a300a-9fdb-46b3-9360-45bf7c684a8b" points="424.614 97.501 589.591 97.501 589.591 459.218 424.933 459.218"/>
  <rect class="b8d8d85a-ac21-40f1-a68f-b2e629d14b91" x="633.07" y="220" width="127" height="95"/>
  <text class="f8d4deb5-4e10-4966-8a86-78fcc8f92a11" transform="translate(653.07 251.788)">External<tspan x="0" y="15">service</tspan></text>
  <line class="f8e0a708-049c-4cdd-8eb8-a732ae0c50f6" x1="459.591" y1="260" x2="425.07" y2="260"/>
  <line class="a454918e-a97d-4b98-b945-36cf89951c80" x1="469.591" y1="240" x2="425.07" y2="240"/>
  <line class="a22a300a-9fdb-46b3-9360-45bf7c684a8b" x1="589.591" y1="240" x2="425.07" y2="240"/>
  <g>
    <line class="a22a300a-9fdb-46b3-9360-45bf7c684a8b" x1="589.591" y1="267.5" x2="623.394" y2="267.5"/>
    <polygon class="a37556e0-3880-4916-a4e5-67c5020bd1b5" points="621.935 272.486 630.57 267.5 621.935 262.514 621.935 272.486"/>
  </g>
  <rect class="f8f548e3-dc15-47be-a3bc-05af63cb91e4" x="464.185" y="87.706" width="83.558" height="20.426"/>
  <text class="b9a9c9d9-87d7-479a-8c95-add05141c48b" transform="translate(467.089 101.647)">192.168.126.10</text>
  <rect class="f8f548e3-dc15-47be-a3bc-05af63cb91e4" x="464.185" y="449.005" width="91.058" height="20.426"/>
  <text class="b9a9c9d9-87d7-479a-8c95-add05141c48b" transform="translate(467.089 462.946)">192.168.126.102</text>
  <rect class="b8d8d85a-ac21-40f1-a68f-b2e629d14b91" x="0.07" y="55" width="425" height="135"/>
  <rect class="b8d8d85a-ac21-40f1-a68f-b2e629d14b91" x="0.07" y="374.218" width="425" height="130"/>
  <rect class="b8d8d85a-ac21-40f1-a68f-b2e629d14b91" x="0.07" y="220" width="425" height="95"/>
  <polygon class="b6330101-eae3-4bc9-8996-f18569100a75" points="394.996 444.218 265.07 444.218 265.145 374.218 395.07 374.218 394.996 444.218"/>
  <polygon class="b8d8d85a-ac21-40f1-a68f-b2e629d14b91" points="394.996 339.218 265.07 339.218 265.145 374.218 395.07 374.218 394.996 339.218"/>
  <rect class="b6330101-eae3-4bc9-8996-f18569100a75" x="265.107" y="55" width="129.925" height="135"/>
  <polygon class="b6330101-eae3-4bc9-8996-f18569100a75" points="394.996 290 265.07 290 265.145 220 395.07 220 394.996 290"/>
  <polygon class="b8d8d85a-ac21-40f1-a68f-b2e629d14b91" points="394.996 20 265.07 20 265.145 55 395.07 55 394.996 20"/>
  <polygon class="b8d8d85a-ac21-40f1-a68f-b2e629d14b91" points="394.996 190 265.07 190 265.145 220 395.07 220 394.996 190"/>
  <g>
    <line class="ff271b8b-3d6a-4173-9f7c-e0199d93d7ce" x1="385.07" y1="140" x2="386.57" y2="140"/>
    <line class="e83d103e-c079-4fb7-b12f-ca4b10d4447d" x1="389.97" y1="140" x2="401.87" y2="140"/>
    <polyline class="ff271b8b-3d6a-4173-9f7c-e0199d93d7ce" points="403.57 140 405.07 140 405.07 138.5"/>
    <line class="f53d879d-5702-4282-9056-0acfee13fcfd" x1="405.07" y1="135.7" x2="405.07" y2="97.9"/>
    <polyline class="ff271b8b-3d6a-4173-9f7c-e0199d93d7ce" points="405.07 96.5 405.07 95 403.57 95"/>
    <line class="e83d103e-c079-4fb7-b12f-ca4b10d4447d" x1="400.17" y1="95" x2="388.27" y2="95"/>
    <line class="ff271b8b-3d6a-4173-9f7c-e0199d93d7ce" x1="386.57" y1="95" x2="385.07" y2="95"/>
  </g>
  <g>
    <line class="ff271b8b-3d6a-4173-9f7c-e0199d93d7ce" x1="425.07" y1="117.5" x2="423.57" y2="117.5"/>
    <line class="ace578d8-736c-4fb3-853a-92610b2808a9" x1="420.27" y1="117.5" x2="408.72" y2="117.5"/>
    <line class="ff271b8b-3d6a-4173-9f7c-e0199d93d7ce" x1="407.07" y1="117.5" x2="405.57" y2="117.5"/>
  </g>
  <rect class="f8f548e3-dc15-47be-a3bc-05af63cb91e4" x="275.07" y="394.218" width="110" height="40"/>
  <text class="b9a9c9d9-87d7-479a-8c95-add05141c48b" transform="translate(315.251 417.542)">pod4</text>
  <text class="f8d4deb5-4e10-4966-8a86-78fcc8f92a11" transform="translate(20.07 406.006)">Node 3<tspan class="b06f50e5-17a7-4b56-b9ec-4a8cf5a90893"><tspan x="0" y="26">meta:</tspan><tspan x="0" y="39" xml:space="preserve"> name: node3</tspan><tspan x="0" y="52" xml:space="preserve"> labels:</tspan><tspan x="0" y="65" xml:space="preserve">  k8s.ovn.org/egress-assignable: &quot;&quot;</tspan></tspan></text>
  <rect class="f8f548e3-dc15-47be-a3bc-05af63cb91e4" x="275.07" y="120" width="110" height="40"/>
  <text class="b9a9c9d9-87d7-479a-8c95-add05141c48b" transform="translate(315.736 143.323)">pod2</text>
  <rect class="f8f548e3-dc15-47be-a3bc-05af63cb91e4" x="275.07" y="75" width="110" height="40"/>
  <text class="b9a9c9d9-87d7-479a-8c95-add05141c48b" transform="translate(317.104 98.323)">pod1</text>
  <text class="f8d4deb5-4e10-4966-8a86-78fcc8f92a11" transform="translate(20.07 86.788)">Node 1<tspan class="b06f50e5-17a7-4b56-b9ec-4a8cf5a90893"><tspan x="0" y="26">meta:</tspan><tspan x="0" y="39" xml:space="preserve"> name: node1</tspan><tspan x="0" y="52" xml:space="preserve"> labels:</tspan><tspan x="0" y="65" xml:space="preserve">  k8s.ovn.org/egress-assignable: &quot;&quot;</tspan></tspan></text>
  <text class="f8d4deb5-4e10-4966-8a86-78fcc8f92a11" transform="translate(20.07 251.788)">Node 2<tspan class="b06f50e5-17a7-4b56-b9ec-4a8cf5a90893"><tspan x="0" y="26">meta:</tspan><tspan x="0" y="39" xml:space="preserve"> name: node2</tspan></tspan></text>
  <g>
    <line class="ff271b8b-3d6a-4173-9f7c-e0199d93d7ce" x1="425.07" y1="260" x2="423.57" y2="260"/>
    <line class="bba3932f-a563-497e-9615-6d1b4263b6c8" x1="420.724" y1="260" x2="387.993" y2="260"/>
    <line class="ff271b8b-3d6a-4173-9f7c-e0199d93d7ce" x1="386.57" y1="260" x2="385.07" y2="260"/>
  </g>
  <rect class="f8f548e3-dc15-47be-a3bc-05af63cb91e4" x="275.07" y="240" width="110" height="40"/>
  <text class="b9a9c9d9-87d7-479a-8c95-add05141c48b" transform="translate(315.514 263.323)">pod3</text>
  <text class="b9a9c9d9-87d7-479a-8c95-add05141c48b" transform="translate(296.117 43.531)">namespace1</text>
  <text class="b9a9c9d9-87d7-479a-8c95-add05141c48b" transform="translate(294.749 362.742)">namespace2</text>
  <g>
    <text class="b01496fa-6031-4e39-b7b3-8fb52e10c9fd" transform="translate(671.012 507.235)">121_OpenShift_1020</text>
    <rect class="b79d2283-ded3-4d24-bb53-8966d4079980" y="484.218" width="760" height="40"/>
  </g>
</svg>
