<svg id="b7171e12-eb18-49e3-90f0-ef8158f2b9ba" data-name="Layer 1" xmlns="http://www.w3.org/2000/svg" width="760" height="583.758" viewBox="0 0 760 583.758">
  <defs>
    <style>
      .a9b96f88-e2d1-4d9b-ae6f-62fc3e875b9f {
        fill: #e8e8e8;
      }

      .a8fbf413-cd43-4444-8f89-2fca668cb776, .aa79099a-ed6e-436a-be84-48bca987146b, .b42a9bca-a4fc-4fd6-bd03-bc0409f2fb53, .b5a1dda4-8b5d-4e14-922f-7fcee53247e1, .b8f7bdef-d553-41ac-93ef-83c8eda33511, .bbf26d42-49a9-4111-ae69-a80acaee0ad7, .bec15bd3-8d57-4626-b1ff-9246255371bc, .e14ff277-f3ac-4a0d-b6d5-6e114214155c, .ecda76f2-64f2-4563-a8b5-ddd3db6be671, .f63da5ff-3a10-4d49-b90a-d76399114239, .fafc6674-28a4-4f35-b34f-1731d8d8f7f0 {
        fill: none;
      }

      .b42a9bca-a4fc-4fd6-bd03-bc0409f2fb53 {
        stroke: #d5d5d5;
        stroke-width: 1.5px;
      }

      .b42a9bca-a4fc-4fd6-bd03-bc0409f2fb53, .b8f7bdef-d553-41ac-93ef-83c8eda33511 {
        stroke-miterlimit: 10;
      }

      .a5e1da1a-23c6-46dd-9145-ffa2e838c614, .e40e6d64-2f98-466d-9dbd-b7cf8655ae5e {
        font-size: 12px;
      }

      .a5e1da1a-23c6-46dd-9145-ffa2e838c614, .b33908a2-c805-4a74-af67-3a618ad256f9 {
        fill: #151515;
      }

      .a5e1da1a-23c6-46dd-9145-ffa2e838c614 {
        font-family: RedHatText-Bold, Red Hat Text;
        font-weight: 700;
      }

      .ba29656c-bdaa-4692-a4d1-dfae8a408c1a, .e40e6d64-2f98-466d-9dbd-b7cf8655ae5e {
        fill: #fff;
      }

      .b5e1eb29-8604-46c1-b833-1f193be24664 {
        fill: #06c;
      }

      .e40e6d64-2f98-466d-9dbd-b7cf8655ae5e {
        font-family: RedHatText-MediumItalic, Red Hat Text;
        font-style: italic;
      }

      .b33908a2-c805-4a74-af67-3a618ad256f9, .e40e6d64-2f98-466d-9dbd-b7cf8655ae5e {
        font-weight: 500;
      }

      .aa79099a-ed6e-436a-be84-48bca987146b, .b5a1dda4-8b5d-4e14-922f-7fcee53247e1, .bbf26d42-49a9-4111-ae69-a80acaee0ad7, .bec15bd3-8d57-4626-b1ff-9246255371bc, .e14ff277-f3ac-4a0d-b6d5-6e114214155c, .ecda76f2-64f2-4563-a8b5-ddd3db6be671, .f63da5ff-3a10-4d49-b90a-d76399114239, .fafc6674-28a4-4f35-b34f-1731d8d8f7f0 {
        stroke: #06c;
        stroke-linecap: round;
        stroke-linejoin: round;
      }

      .e14ff277-f3ac-4a0d-b6d5-6e114214155c {
        stroke-dasharray: 2.998 2.998;
      }

      .ecda76f2-64f2-4563-a8b5-ddd3db6be671 {
        stroke-dasharray: 2.943 2.943;
      }

      .f63da5ff-3a10-4d49-b90a-d76399114239 {
        stroke-dasharray: 2.965 2.965;
      }

      .b5a1dda4-8b5d-4e14-922f-7fcee53247e1 {
        stroke-dasharray: 3.275 3.275;
      }

      .fafc6674-28a4-4f35-b34f-1731d8d8f7f0 {
        stroke-dasharray: 2.965 2.965;
      }

      .aa79099a-ed6e-436a-be84-48bca987146b {
        stroke-dasharray: 2.965 2.965;
      }

      .bec15bd3-8d57-4626-b1ff-9246255371bc {
        stroke-dasharray: 3.427 3.427;
      }

      .aaefb630-cc5d-4f46-be37-249c89cc2025, .b33908a2-c805-4a74-af67-3a618ad256f9 {
        font-size: 10px;
      }

      .b33908a2-c805-4a74-af67-3a618ad256f9 {
        font-family: RedHatText-Medium, Red Hat Text;
      }

      .b8f7bdef-d553-41ac-93ef-83c8eda33511 {
        stroke: #e8e8e8;
      }

      .aaefb630-cc5d-4f46-be37-249c89cc2025 {
        fill: #f3f3f3;
        font-family: RedHatText-Regular, Red Hat Text;
      }
    </style>
  </defs>
  <rect class="a9b96f88-e2d1-4d9b-ae6f-62fc3e875b9f" x="314.75" y="62" width="130.5" height="137"/>
  <polyline class="b42a9bca-a4fc-4fd6-bd03-bc0409f2fb53" points="339.75 184.449 435.25 184.449 435.25 109.449"/>
  <polyline class="b42a9bca-a4fc-4fd6-bd03-bc0409f2fb53" points="334.75 179.449 430.25 179.449 430.25 104.449"/>
  <text class="a5e1da1a-23c6-46dd-9145-ffa2e838c614" transform="translate(329.75 87.104)">Broker A</text>
  <rect class="ba29656c-bdaa-4692-a4d1-dfae8a408c1a" x="329.75" y="99.449" width="95.5" height="75"/>
  <rect class="b5e1eb29-8604-46c1-b833-1f193be24664" x="340" y="129.449" width="75" height="35" transform="translate(755 293.898) rotate(-180)"/>
  <text class="e40e6d64-2f98-466d-9dbd-b7cf8655ae5e" transform="translate(351.934 150.234)">multicast</text>
  <text class="a5e1da1a-23c6-46dd-9145-ffa2e838c614" transform="translate(339.813 118.653)">Addresses</text>
  <g>
    <g>
      <line class="bbf26d42-49a9-4111-ae69-a80acaee0ad7" x1="380" y1="224.412" x2="380" y2="222.912"/>
      <line class="e14ff277-f3ac-4a0d-b6d5-6e114214155c" x1="380" y1="219.914" x2="380" y2="167.448"/>
      <line class="bbf26d42-49a9-4111-ae69-a80acaee0ad7" x1="380" y1="165.949" x2="380" y2="164.449"/>
      <polygon class="b5e1eb29-8604-46c1-b833-1f193be24664" points="384.987 222.953 380 231.588 375.014 222.953 384.987 222.953"/>
    </g>
    <g>
      <line class="bbf26d42-49a9-4111-ae69-a80acaee0ad7" x1="395" y1="164.449" x2="395" y2="165.949"/>
      <line class="ecda76f2-64f2-4563-a8b5-ddd3db6be671" x1="395" y1="168.892" x2="395" y2="208.617"/>
      <polyline class="bbf26d42-49a9-4111-ae69-a80acaee0ad7" points="395 210.088 395 211.588 396.5 211.588"/>
      <line class="f63da5ff-3a10-4d49-b90a-d76399114239" x1="399.466" y1="211.588" x2="534.392" y2="211.588"/>
      <polyline class="bbf26d42-49a9-4111-ae69-a80acaee0ad7" points="535.875 211.588 537.375 211.588 537.375 213.088"/>
      <line class="b5a1dda4-8b5d-4e14-922f-7fcee53247e1" x1="537.375" y1="216.363" x2="537.375" y2="221.275"/>
      <line class="bbf26d42-49a9-4111-ae69-a80acaee0ad7" x1="537.375" y1="222.912" x2="537.375" y2="224.412"/>
      <polygon class="b5e1eb29-8604-46c1-b833-1f193be24664" points="532.389 222.953 537.375 231.588 542.361 222.953 532.389 222.953"/>
    </g>
    <g>
      <line class="bbf26d42-49a9-4111-ae69-a80acaee0ad7" x1="365" y1="164.449" x2="365" y2="165.949"/>
      <line class="ecda76f2-64f2-4563-a8b5-ddd3db6be671" x1="365" y1="168.892" x2="365" y2="208.617"/>
      <polyline class="bbf26d42-49a9-4111-ae69-a80acaee0ad7" points="365 210.088 365 211.588 363.5 211.588"/>
      <line class="fafc6674-28a4-4f35-b34f-1731d8d8f7f0" x1="360.535" y1="211.588" x2="225.608" y2="211.588"/>
      <polyline class="bbf26d42-49a9-4111-ae69-a80acaee0ad7" points="224.125 211.588 222.625 211.588 222.625 213.088"/>
      <line class="b5a1dda4-8b5d-4e14-922f-7fcee53247e1" x1="222.625" y1="216.363" x2="222.625" y2="221.275"/>
      <line class="bbf26d42-49a9-4111-ae69-a80acaee0ad7" x1="222.625" y1="222.912" x2="222.625" y2="224.412"/>
      <polygon class="b5e1eb29-8604-46c1-b833-1f193be24664" points="217.639 222.953 222.625 231.588 227.611 222.953 217.639 222.953"/>
    </g>
  </g>
  <rect class="a9b96f88-e2d1-4d9b-ae6f-62fc3e875b9f" x="157.375" y="234.379" width="130.5" height="137"/>
  <polyline class="b42a9bca-a4fc-4fd6-bd03-bc0409f2fb53" points="182.375 356.828 277.875 356.828 277.875 281.828"/>
  <polyline class="b42a9bca-a4fc-4fd6-bd03-bc0409f2fb53" points="177.375 351.828 272.875 351.828 272.875 276.828"/>
  <text class="a5e1da1a-23c6-46dd-9145-ffa2e838c614" transform="translate(172.375 259.483)">Broker B</text>
  <rect class="ba29656c-bdaa-4692-a4d1-dfae8a408c1a" x="172.375" y="271.828" width="95.5" height="75"/>
  <rect class="b5e1eb29-8604-46c1-b833-1f193be24664" x="182.625" y="301.828" width="75" height="35" transform="translate(440.25 638.656) rotate(-180)"/>
  <text class="e40e6d64-2f98-466d-9dbd-b7cf8655ae5e" transform="translate(194.559 322.613)">multicast</text>
  <text class="a5e1da1a-23c6-46dd-9145-ffa2e838c614" transform="translate(182.438 291.032)">Addresses</text>
  <rect class="a9b96f88-e2d1-4d9b-ae6f-62fc3e875b9f" x="314.75" y="234.379" width="130.5" height="137"/>
  <polyline class="b42a9bca-a4fc-4fd6-bd03-bc0409f2fb53" points="339.75 356.828 435.25 356.828 435.25 281.828"/>
  <polyline class="b42a9bca-a4fc-4fd6-bd03-bc0409f2fb53" points="334.75 351.828 430.25 351.828 430.25 276.828"/>
  <text class="a5e1da1a-23c6-46dd-9145-ffa2e838c614" transform="translate(329.75 259.483)">Broker C</text>
  <rect class="ba29656c-bdaa-4692-a4d1-dfae8a408c1a" x="329.75" y="271.828" width="95.5" height="75"/>
  <rect class="b5e1eb29-8604-46c1-b833-1f193be24664" x="340" y="301.828" width="75" height="35" transform="translate(755 638.656) rotate(-180)"/>
  <text class="e40e6d64-2f98-466d-9dbd-b7cf8655ae5e" transform="translate(351.934 322.613)">multicast</text>
  <text class="a5e1da1a-23c6-46dd-9145-ffa2e838c614" transform="translate(339.813 291.032)">Addresses</text>
  <rect class="a9b96f88-e2d1-4d9b-ae6f-62fc3e875b9f" x="472.125" y="234.379" width="130.5" height="137"/>
  <polyline class="b42a9bca-a4fc-4fd6-bd03-bc0409f2fb53" points="497.125 356.828 592.625 356.828 592.625 281.828"/>
  <polyline class="b42a9bca-a4fc-4fd6-bd03-bc0409f2fb53" points="492.125 351.828 587.625 351.828 587.625 276.828"/>
  <text class="a5e1da1a-23c6-46dd-9145-ffa2e838c614" transform="translate(487.125 259.483)">Broker D</text>
  <rect class="ba29656c-bdaa-4692-a4d1-dfae8a408c1a" x="487.125" y="271.828" width="95.5" height="75"/>
  <rect class="b5e1eb29-8604-46c1-b833-1f193be24664" x="497.375" y="301.828" width="75" height="35" transform="translate(1069.75 638.656) rotate(-180)"/>
  <text class="e40e6d64-2f98-466d-9dbd-b7cf8655ae5e" transform="translate(509.309 322.613)">multicast</text>
  <text class="a5e1da1a-23c6-46dd-9145-ffa2e838c614" transform="translate(497.188 291.032)">Addresses</text>
  <rect class="a9b96f88-e2d1-4d9b-ae6f-62fc3e875b9f" y="406.758" width="130.5" height="137"/>
  <polyline class="b42a9bca-a4fc-4fd6-bd03-bc0409f2fb53" points="25 529.207 120.5 529.207 120.5 454.207"/>
  <polyline class="b42a9bca-a4fc-4fd6-bd03-bc0409f2fb53" points="20 524.207 115.5 524.207 115.5 449.207"/>
  <text class="a5e1da1a-23c6-46dd-9145-ffa2e838c614" transform="translate(15 431.862)">Broker E</text>
  <rect class="ba29656c-bdaa-4692-a4d1-dfae8a408c1a" x="15" y="444.207" width="95.5" height="75"/>
  <rect class="b5e1eb29-8604-46c1-b833-1f193be24664" x="25.25" y="474.207" width="75" height="35" transform="translate(125.5 983.415) rotate(-180)"/>
  <text class="e40e6d64-2f98-466d-9dbd-b7cf8655ae5e" transform="translate(37.184 494.992)">multicast</text>
  <text class="a5e1da1a-23c6-46dd-9145-ffa2e838c614" transform="translate(25.063 463.411)">Addresses</text>
  <rect class="a9b96f88-e2d1-4d9b-ae6f-62fc3e875b9f" x="157.375" y="406.758" width="130.5" height="137"/>
  <polyline class="b42a9bca-a4fc-4fd6-bd03-bc0409f2fb53" points="182.375 529.207 277.875 529.207 277.875 454.207"/>
  <polyline class="b42a9bca-a4fc-4fd6-bd03-bc0409f2fb53" points="177.375 524.207 272.875 524.207 272.875 449.207"/>
  <text class="a5e1da1a-23c6-46dd-9145-ffa2e838c614" transform="translate(172.375 431.862)">Broker F</text>
  <rect class="ba29656c-bdaa-4692-a4d1-dfae8a408c1a" x="172.375" y="444.207" width="95.5" height="75"/>
  <rect class="b5e1eb29-8604-46c1-b833-1f193be24664" x="182.625" y="474.207" width="75" height="35" transform="translate(440.25 983.415) rotate(-180)"/>
  <text class="e40e6d64-2f98-466d-9dbd-b7cf8655ae5e" transform="translate(194.559 494.992)">multicast</text>
  <text class="a5e1da1a-23c6-46dd-9145-ffa2e838c614" transform="translate(182.438 463.411)">Addresses</text>
  <rect class="a9b96f88-e2d1-4d9b-ae6f-62fc3e875b9f" x="314.75" y="406.758" width="130.5" height="137"/>
  <polyline class="b42a9bca-a4fc-4fd6-bd03-bc0409f2fb53" points="339.75 529.207 435.25 529.207 435.25 454.207"/>
  <polyline class="b42a9bca-a4fc-4fd6-bd03-bc0409f2fb53" points="334.75 524.207 430.25 524.207 430.25 449.207"/>
  <text class="a5e1da1a-23c6-46dd-9145-ffa2e838c614" transform="translate(329.75 431.862)">Broker G</text>
  <rect class="ba29656c-bdaa-4692-a4d1-dfae8a408c1a" x="329.75" y="444.207" width="95.5" height="75"/>
  <rect class="b5e1eb29-8604-46c1-b833-1f193be24664" x="340" y="474.207" width="75" height="35" transform="translate(755 983.415) rotate(-180)"/>
  <text class="e40e6d64-2f98-466d-9dbd-b7cf8655ae5e" transform="translate(351.934 494.992)">multicast</text>
  <text class="a5e1da1a-23c6-46dd-9145-ffa2e838c614" transform="translate(339.813 463.411)">Addresses</text>
  <rect class="a9b96f88-e2d1-4d9b-ae6f-62fc3e875b9f" x="472.125" y="406.758" width="130.5" height="137"/>
  <polyline class="b42a9bca-a4fc-4fd6-bd03-bc0409f2fb53" points="497.125 529.207 592.625 529.207 592.625 454.207"/>
  <polyline class="b42a9bca-a4fc-4fd6-bd03-bc0409f2fb53" points="492.125 524.207 587.625 524.207 587.625 449.207"/>
  <text class="a5e1da1a-23c6-46dd-9145-ffa2e838c614" transform="translate(487.125 431.862)">Broker H</text>
  <rect class="ba29656c-bdaa-4692-a4d1-dfae8a408c1a" x="487.125" y="444.207" width="95.5" height="75"/>
  <rect class="b5e1eb29-8604-46c1-b833-1f193be24664" x="497.375" y="474.207" width="75" height="35" transform="translate(1069.75 983.415) rotate(-180)"/>
  <text class="e40e6d64-2f98-466d-9dbd-b7cf8655ae5e" transform="translate(509.309 494.992)">multicast</text>
  <text class="a5e1da1a-23c6-46dd-9145-ffa2e838c614" transform="translate(497.188 463.411)">Addresses</text>
  <rect class="a9b96f88-e2d1-4d9b-ae6f-62fc3e875b9f" x="629.5" y="406.758" width="130.5" height="137"/>
  <polyline class="b42a9bca-a4fc-4fd6-bd03-bc0409f2fb53" points="654.5 529.207 750 529.207 750 454.207"/>
  <polyline class="b42a9bca-a4fc-4fd6-bd03-bc0409f2fb53" points="649.5 524.207 745 524.207 745 449.207"/>
  <text class="a5e1da1a-23c6-46dd-9145-ffa2e838c614" transform="translate(644.5 431.862)">Broker I</text>
  <rect class="ba29656c-bdaa-4692-a4d1-dfae8a408c1a" x="644.5" y="444.207" width="95.5" height="75"/>
  <rect class="b5e1eb29-8604-46c1-b833-1f193be24664" x="654.75" y="474.207" width="75" height="35" transform="translate(1384.5 983.415) rotate(-180)"/>
  <text class="e40e6d64-2f98-466d-9dbd-b7cf8655ae5e" transform="translate(666.684 494.992)">multicast</text>
  <text class="a5e1da1a-23c6-46dd-9145-ffa2e838c614" transform="translate(654.563 463.411)">Addresses</text>
  <g>
    <line class="bbf26d42-49a9-4111-ae69-a80acaee0ad7" x1="380" y1="396.792" x2="380" y2="395.292"/>
    <line class="e14ff277-f3ac-4a0d-b6d5-6e114214155c" x1="380" y1="392.294" x2="380" y2="339.828"/>
    <line class="bbf26d42-49a9-4111-ae69-a80acaee0ad7" x1="380" y1="338.329" x2="380" y2="336.829"/>
    <polygon class="b5e1eb29-8604-46c1-b833-1f193be24664" points="384.987 395.333 380 403.968 375.014 395.333 384.987 395.333"/>
  </g>
  <g>
    <line class="bbf26d42-49a9-4111-ae69-a80acaee0ad7" x1="395" y1="336.829" x2="395" y2="338.329"/>
    <line class="ecda76f2-64f2-4563-a8b5-ddd3db6be671" x1="395" y1="341.271" x2="395" y2="380.997"/>
    <polyline class="bbf26d42-49a9-4111-ae69-a80acaee0ad7" points="395 382.468 395 383.968 396.5 383.968"/>
    <line class="f63da5ff-3a10-4d49-b90a-d76399114239" x1="399.466" y1="383.968" x2="534.392" y2="383.968"/>
    <polyline class="bbf26d42-49a9-4111-ae69-a80acaee0ad7" points="535.875 383.968 537.375 383.968 537.375 385.468"/>
    <line class="b5a1dda4-8b5d-4e14-922f-7fcee53247e1" x1="537.375" y1="388.742" x2="537.375" y2="393.654"/>
    <line class="bbf26d42-49a9-4111-ae69-a80acaee0ad7" x1="537.375" y1="395.292" x2="537.375" y2="396.792"/>
    <polygon class="b5e1eb29-8604-46c1-b833-1f193be24664" points="532.389 395.333 537.375 403.968 542.361 395.333 532.389 395.333"/>
  </g>
  <g>
    <line class="bbf26d42-49a9-4111-ae69-a80acaee0ad7" x1="552.375" y1="336.829" x2="552.375" y2="338.329"/>
    <line class="ecda76f2-64f2-4563-a8b5-ddd3db6be671" x1="552.375" y1="341.271" x2="552.375" y2="380.997"/>
    <polyline class="bbf26d42-49a9-4111-ae69-a80acaee0ad7" points="552.375 382.468 552.375 383.968 553.875 383.968"/>
    <line class="aa79099a-ed6e-436a-be84-48bca987146b" x1="556.84" y1="383.968" x2="691.737" y2="383.968"/>
    <polyline class="bbf26d42-49a9-4111-ae69-a80acaee0ad7" points="693.22 383.968 694.72 383.968 694.72 385.468"/>
    <line class="b5a1dda4-8b5d-4e14-922f-7fcee53247e1" x1="694.72" y1="388.742" x2="694.72" y2="393.654"/>
    <line class="bbf26d42-49a9-4111-ae69-a80acaee0ad7" x1="694.72" y1="395.292" x2="694.72" y2="396.792"/>
    <polygon class="b5e1eb29-8604-46c1-b833-1f193be24664" points="689.733 395.333 694.72 403.968 699.706 395.333 689.733 395.333"/>
  </g>
  <g>
    <line class="bbf26d42-49a9-4111-ae69-a80acaee0ad7" x1="207.625" y1="336.829" x2="207.625" y2="338.329"/>
    <line class="ecda76f2-64f2-4563-a8b5-ddd3db6be671" x1="207.625" y1="341.271" x2="207.625" y2="380.997"/>
    <polyline class="bbf26d42-49a9-4111-ae69-a80acaee0ad7" points="207.625 382.468 207.625 383.968 206.125 383.968"/>
    <line class="aa79099a-ed6e-436a-be84-48bca987146b" x1="203.16" y1="383.968" x2="68.263" y2="383.968"/>
    <polyline class="bbf26d42-49a9-4111-ae69-a80acaee0ad7" points="66.78 383.968 65.28 383.968 65.28 385.468"/>
    <line class="b5a1dda4-8b5d-4e14-922f-7fcee53247e1" x1="65.28" y1="388.742" x2="65.28" y2="393.654"/>
    <line class="bbf26d42-49a9-4111-ae69-a80acaee0ad7" x1="65.28" y1="395.292" x2="65.28" y2="396.792"/>
    <polygon class="b5e1eb29-8604-46c1-b833-1f193be24664" points="60.294 395.333 65.28 403.968 70.267 395.333 60.294 395.333"/>
  </g>
  <g>
    <line class="bbf26d42-49a9-4111-ae69-a80acaee0ad7" x1="365" y1="336.829" x2="365" y2="338.329"/>
    <line class="ecda76f2-64f2-4563-a8b5-ddd3db6be671" x1="365" y1="341.271" x2="365" y2="380.997"/>
    <polyline class="bbf26d42-49a9-4111-ae69-a80acaee0ad7" points="365 382.468 365 383.968 363.5 383.968"/>
    <line class="fafc6674-28a4-4f35-b34f-1731d8d8f7f0" x1="360.535" y1="383.968" x2="225.608" y2="383.968"/>
    <polyline class="bbf26d42-49a9-4111-ae69-a80acaee0ad7" points="224.125 383.968 222.625 383.968 222.625 385.468"/>
    <line class="b5a1dda4-8b5d-4e14-922f-7fcee53247e1" x1="222.625" y1="388.742" x2="222.625" y2="393.654"/>
    <line class="bbf26d42-49a9-4111-ae69-a80acaee0ad7" x1="222.625" y1="395.292" x2="222.625" y2="396.792"/>
    <polygon class="b5e1eb29-8604-46c1-b833-1f193be24664" points="217.639 395.333 222.625 403.968 227.611 395.333 217.639 395.333"/>
  </g>
  <g>
    <g>
      <line class="bbf26d42-49a9-4111-ae69-a80acaee0ad7" x1="27.31" y1="24" x2="25.81" y2="24"/>
      <line class="bec15bd3-8d57-4626-b1ff-9246255371bc" x1="22.383" y1="24" x2="10.39" y2="24"/>
      <line class="bbf26d42-49a9-4111-ae69-a80acaee0ad7" x1="8.676" y1="24" x2="7.176" y2="24"/>
      <polygon class="b5e1eb29-8604-46c1-b833-1f193be24664" points="8.635 19.013 0 24 8.635 28.986 8.635 19.013"/>
    </g>
    <text class="b33908a2-c805-4a74-af67-3a618ad256f9" transform="translate(35 27.324)">Address Federation</text>
  </g>
  <line class="b8f7bdef-d553-41ac-93ef-83c8eda33511" y1="44.943" x2="760" y2="44.943"/>
  <g>
    <text class="aaefb630-cc5d-4f46-be37-249c89cc2025" transform="translate(694.192 566.776)">120_AMQ_1120</text>
    <rect class="a8fbf413-cd43-4444-8f89-2fca668cb776" y="543.758" width="760" height="40"/>
  </g>
</svg>
