<svg id="artwork" xmlns="http://www.w3.org/2000/svg" viewBox="0 0 760 455.5"><defs><style>.cls-2,.cls-3,.cls-6{fill:none}.cls-2,.cls-3,.cls-6,.cls-9{stroke-linecap:round;stroke-linejoin:round}.cls-2,.cls-9{stroke:#5b5b5b;stroke-width:1.5px}.cls-3,.cls-6{stroke:#151515}.cls-13,.cls-14,.cls-15,.cls-16{fill:#151515}.cls-13,.cls-14,.cls-18{font-family:RedHatText,&quot;Red Hat Text&quot;,Overpass,&quot;Helvetica Neue&quot;,Arial,sans-serif;font-weight:700;font-variation-settings:&apos;wght&apos; 700}.cls-19{letter-spacing:-.01em}.cls-20,.cls-22{letter-spacing:0}.cls-24{letter-spacing:.01em}.cls-28{letter-spacing:0}.cls-13{font-size:9px}.cls-30{letter-spacing:.01em}.cls-14{font-size:12px}.cls-33{fill:#06c}.cls-18,.cls-34,.cls-9{fill:#fff}.cls-36{fill:#e8e8e8}.cls-37,.cls-38{letter-spacing:0}.cls-43{letter-spacing:.02em}.cls-45{letter-spacing:0}.cls-46{letter-spacing:-.02em}.cls-47{letter-spacing:-.05em}.cls-52{letter-spacing:0}.cls-55{letter-spacing:.03em}.cls-16{font-family:RedHatText,&quot;Red Hat Text&quot;,Overpass,&quot;Helvetica Neue&quot;,Arial,sans-serif;font-weight:500;font-size:11px;font-variation-settings:&apos;wght&apos; 500}.cls-36{stroke:#adadad;stroke-miterlimit:10}.cls-6{stroke-dasharray:0 0 3.06 3.06}.cls-62{letter-spacing:-.03em}.cls-63{letter-spacing:.02em}.cls-65,.cls-67,.cls-69,.cls-70,.cls-73,.cls-78,.cls-80{letter-spacing:0}.cls-81{letter-spacing:.01em}.cls-82,.cls-86,.cls-87,.cls-88{letter-spacing:0}.cls-18{font-size:14px}.cls-90{letter-spacing:.01em}.cls-92{letter-spacing:-.02em}.cls-94{letter-spacing:.01em}</style></defs><text transform="translate(670.98 438.52)" style="font-variation-settings:'wght' 400" fill="#ececec" font-family="RedHatText,&quot;Red Hat Text&quot;,Overpass,&quot;Helvetica Neue&quot;,Arial,sans-serif" font-size="10"><tspan x="0" y="0" letter-spacing="0">2</tspan><tspan x="5.53" y="0" letter-spacing="0">7</tspan><tspan x="11.06" y="0" letter-spacing=".04em">8</tspan><tspan x="17.64" y="0" letter-spacing=".06em">_</tspan><tspan x="22.8" y="0" letter-spacing=".02em">S</tspan><tspan x="29.21" y="0" letter-spacing="0">a</tspan><tspan x="34.48" y="0" letter-spacing="-.01em">t</tspan><tspan x="38.14" y="0" letter-spacing="0">e</tspan><tspan x="43.81" y="0" letter-spacing=".01em">ll</tspan><tspan x="48.53" y="0" letter-spacing=".01em">i</tspan><tspan x="50.87" y="0" letter-spacing="-.01em">t</tspan><tspan x="54.53" y="0" letter-spacing=".02em">e</tspan><tspan x="60.29" y="0" letter-spacing=".02em">_</tspan><tspan x="65.07" y="0" letter-spacing=".01em">0</tspan><tspan x="71.77" y="0" letter-spacing="-.01em">9</tspan><tspan x="77.85" y="0" letter-spacing=".02em">2</tspan><tspan x="83.54" y="0" letter-spacing="0">2</tspan></text><path fill="none" d="M0 415.5h760v40H0z"/><g><path fill="#e8e8e8" d="M100 77.5h635v313H100z"/><path class="cls-33" d="M758 22v391.5H77V22h681m2-2H75v395.5h685V20z"/><path class="cls-36" d="M120 191.06h94.5v139.5H120z"/><text class="cls-13" transform="translate(147.4 204.55)"><tspan class="cls-62" x="0" y="0">V</tspan><tspan class="cls-94" x="6.39" y="0">e</tspan><tspan class="cls-55" x="11.84" y="0">r</tspan><tspan class="cls-43" x="16.06" y="0">s</tspan><tspan class="cls-90" x="20.85" y="0">i</tspan><tspan class="cls-63" x="23.56" y="0">o</tspan><tspan x="29.27" y="0">n 1</tspan></text><path class="cls-36" d="M130 211.06h94.5v139.5H130z"/><text class="cls-13" transform="translate(156.37 224.55)"><tspan class="cls-62" x="0" y="0">V</tspan><tspan class="cls-94" x="6.39" y="0">e</tspan><tspan class="cls-55" x="11.84" y="0">r</tspan><tspan class="cls-43" x="16.06" y="0">s</tspan><tspan class="cls-90" x="20.85" y="0">i</tspan><tspan class="cls-63" x="23.56" y="0">o</tspan><tspan x="29.27" y="0">n 2</tspan></text><path class="cls-34" d="M140 231.06h94.5v139.5H140z"/><text class="cls-14" transform="translate(158.95 257.11)"><tspan class="cls-47" x="0" y="0">V</tspan><tspan class="cls-65" x="8.32" y="0">e</tspan><tspan class="cls-81" x="15.41" y="0">r</tspan><tspan class="cls-28" x="20.88" y="0">s</tspan><tspan class="cls-38" x="27.1" y="0">i</tspan><tspan class="cls-45" x="30.54" y="0">o</tspan><tspan x="37.99" y="0">n N</tspan></text><text class="cls-16" transform="translate(166.05 330.46)"><tspan class="cls-69" x="0" y="0">C</tspan><tspan class="cls-82" x="7.87" y="0">o</tspan><tspan class="cls-67" x="14.51" y="0">n</tspan><tspan class="cls-92" x="20.83" y="0">t</tspan><tspan class="cls-80" x="25.19" y="0">e</tspan><tspan class="cls-67" x="31.53" y="0">n</tspan><tspan x="37.85" y="0">t</tspan><tspan class="cls-24" x="6.45" y="12">v</tspan><tspan class="cls-86" x="12.55" y="12">i</tspan><tspan class="cls-88" x="15.37" y="12">e</tspan><tspan class="cls-78" x="21.62" y="12">w 1</tspan></text><path class="cls-9" d="M201.4 313.91h-28.3V282.9l5.76-5.77h22.54v36.78z"/><path class="cls-2" d="M178.86 282.9h-5.76l5.76-5.77v5.77zM178.74 289.86h8.51M178.74 295.5h17.02M178.74 301.13h17.02M178.74 306.77h17.02"/><text transform="translate(100 57.29)" style="font-variation-settings:'wght' 700" font-family="RedHatText,&quot;Red Hat Text&quot;,Overpass,&quot;Helvetica Neue&quot;,Arial,sans-serif" font-weight="700" fill="#151515" font-size="16"><tspan x="0" y="0" letter-spacing="0">R</tspan><tspan x="11.1" y="0" letter-spacing="0">ed </tspan><tspan x="34.3" y="0" letter-spacing="0">H</tspan><tspan class="cls-19" x="46.5" y="0">a</tspan><tspan x="55.6" y="0">t </tspan><tspan x="66.37" y="0" letter-spacing="0">S</tspan><tspan class="cls-19" x="76.96" y="0">a</tspan><tspan class="cls-46" x="86.06" y="0">t</tspan><tspan x="93.01" y="0" letter-spacing="0">e</tspan><tspan x="102.46" y="0" letter-spacing="0">l</tspan><tspan x="107.1" y="0" letter-spacing="0">l</tspan><tspan x="111.75" y="0" letter-spacing="0">i</tspan><tspan class="cls-46" x="116.38" y="0">t</tspan><tspan x="123.33" y="0">e</tspan></text><text transform="translate(120 108.4)" style="font-variation-settings:'wght' 700" font-size="14" font-family="RedHatText,&quot;Red Hat Text&quot;,Overpass,&quot;Helvetica Neue&quot;,Arial,sans-serif" font-weight="700" fill="#151515"><tspan x="0" y="0" letter-spacing="0">O</tspan><tspan x="11.51" y="0" letter-spacing="-.02em">r</tspan><tspan x="17.44" y="0" letter-spacing="0">g</tspan><tspan x="26.41" y="0" letter-spacing="0">a</tspan><tspan x="34.57" y="0" letter-spacing="0">n</tspan><tspan x="43.25" y="0" letter-spacing="0">i</tspan><tspan x="47.21" y="0" letter-spacing="0">z</tspan><tspan x="54.29" y="0" letter-spacing="0">a</tspan><tspan class="cls-22" x="62.26" y="0">t</tspan><tspan x="68.67" y="0" letter-spacing="0">i</tspan><tspan x="72.67" y="0" letter-spacing="0">o</tspan><tspan x="81.35" y="0">n 1</tspan></text><path class="cls-34" d="M518.5 231.06H613v139.5h-94.5z"/><text class="cls-14" transform="translate(538.4 257.11)"><tspan class="cls-47" x="0" y="0">V</tspan><tspan class="cls-65" x="8.32" y="0">e</tspan><tspan class="cls-81" x="15.41" y="0">r</tspan><tspan class="cls-28" x="20.88" y="0">s</tspan><tspan class="cls-38" x="27.1" y="0">i</tspan><tspan class="cls-45" x="30.54" y="0">o</tspan><tspan x="37.99" y="0">n 2</tspan></text><path class="cls-34" d="M416.5 231.06H511v139.5h-94.5z"/><text class="cls-14" transform="translate(435.45 257.11)"><tspan class="cls-47" x="0" y="0">V</tspan><tspan class="cls-65" x="8.32" y="0">e</tspan><tspan class="cls-81" x="15.41" y="0">r</tspan><tspan class="cls-28" x="20.88" y="0">s</tspan><tspan class="cls-38" x="27.1" y="0">i</tspan><tspan class="cls-45" x="30.54" y="0">o</tspan><tspan x="37.99" y="0">n N</tspan></text><path class="cls-34" d="M620.5 231.06H715v139.5h-94.5z"/><text class="cls-14" transform="translate(641.77 257.11)"><tspan class="cls-47" x="0" y="0">V</tspan><tspan class="cls-65" x="8.32" y="0">e</tspan><tspan class="cls-81" x="15.41" y="0">r</tspan><tspan class="cls-28" x="20.88" y="0">s</tspan><tspan class="cls-38" x="27.1" y="0">i</tspan><tspan class="cls-45" x="30.54" y="0">o</tspan><tspan x="37.99" y="0">n 1</tspan></text><text class="cls-16" transform="translate(435.47 330.44)"><tspan class="cls-69" x="0" y="0">C</tspan><tspan class="cls-82" x="7.87" y="0">o</tspan><tspan class="cls-52" x="14.51" y="0">m</tspan><tspan class="cls-73" x="24.25" y="0">p</tspan><tspan class="cls-20" x="31.02" y="0">o</tspan><tspan class="cls-30" x="37.66" y="0">s</tspan><tspan class="cls-87" x="43.05" y="0">i</tspan><tspan class="cls-92" x="45.9" y="0">t</tspan><tspan class="cls-70" x="50.26" y="0">e</tspan><tspan class="cls-37" x="8.18" y="12">c</tspan><tspan class="cls-82" x="13.85" y="12">o</tspan><tspan class="cls-67" x="20.5" y="12">n</tspan><tspan class="cls-92" x="26.81" y="12">t</tspan><tspan class="cls-80" x="31.17" y="12">e</tspan><tspan class="cls-67" x="37.52" y="12">n</tspan><tspan x="43.83" y="12">t</tspan><tspan class="cls-24" x="12.28" y="24">v</tspan><tspan class="cls-86" x="18.38" y="24">i</tspan><tspan class="cls-88" x="21.19" y="24">e</tspan><tspan class="cls-78" x="27.44" y="24">w 2</tspan></text><path class="cls-9" d="M474.89 309.08h-26.66v-29.16l5.43-5.42h21.23v34.58z"/><path class="cls-9" d="M453.66 279.92h-5.43l5.43-5.42v5.42z"/><path class="cls-2" d="M454.42 287.48h7.14M454.42 292.15h14.28M454.42 296.7h14.28M454.42 301.37h14.28M479.27 279.32v34.57h-26.66"/><text class="cls-16" transform="translate(537.47 330.44)"><tspan class="cls-69" x="0" y="0">C</tspan><tspan class="cls-82" x="7.87" y="0">o</tspan><tspan class="cls-52" x="14.51" y="0">m</tspan><tspan class="cls-73" x="24.25" y="0">p</tspan><tspan class="cls-20" x="31.02" y="0">o</tspan><tspan class="cls-30" x="37.66" y="0">s</tspan><tspan class="cls-87" x="43.05" y="0">i</tspan><tspan class="cls-92" x="45.9" y="0">t</tspan><tspan class="cls-70" x="50.26" y="0">e</tspan><tspan class="cls-37" x="8.18" y="12">c</tspan><tspan class="cls-82" x="13.85" y="12">o</tspan><tspan class="cls-67" x="20.5" y="12">n</tspan><tspan class="cls-92" x="26.81" y="12">t</tspan><tspan class="cls-80" x="31.17" y="12">e</tspan><tspan class="cls-67" x="37.52" y="12">n</tspan><tspan x="43.83" y="12">t</tspan><tspan class="cls-24" x="12.28" y="24">v</tspan><tspan class="cls-86" x="18.38" y="24">i</tspan><tspan class="cls-88" x="21.19" y="24">e</tspan><tspan class="cls-78" x="27.44" y="24">w 2</tspan></text><path class="cls-9" d="M576.89 309.08h-26.66v-29.16l5.43-5.42h21.23v34.58z"/><path class="cls-9" d="M555.66 279.92h-5.43l5.43-5.42v5.42z"/><path class="cls-2" d="M556.42 287.48h7.14M556.42 292.15h14.28M556.42 296.7h14.28M556.42 301.37h14.28M581.27 279.32v34.57h-26.66"/><g><text class="cls-16" transform="translate(639.47 330.44)"><tspan class="cls-69" x="0" y="0">C</tspan><tspan class="cls-82" x="7.87" y="0">o</tspan><tspan class="cls-52" x="14.51" y="0">m</tspan><tspan class="cls-73" x="24.25" y="0">p</tspan><tspan class="cls-20" x="31.02" y="0">o</tspan><tspan class="cls-30" x="37.66" y="0">s</tspan><tspan class="cls-87" x="43.05" y="0">i</tspan><tspan class="cls-92" x="45.9" y="0">t</tspan><tspan class="cls-70" x="50.26" y="0">e</tspan><tspan class="cls-37" x="8.18" y="12">c</tspan><tspan class="cls-82" x="13.85" y="12">o</tspan><tspan class="cls-67" x="20.5" y="12">n</tspan><tspan class="cls-92" x="26.81" y="12">t</tspan><tspan class="cls-80" x="31.17" y="12">e</tspan><tspan class="cls-67" x="37.52" y="12">n</tspan><tspan x="43.83" y="12">t</tspan><tspan class="cls-24" x="12.28" y="24">v</tspan><tspan class="cls-86" x="18.38" y="24">i</tspan><tspan class="cls-88" x="21.19" y="24">e</tspan><tspan class="cls-78" x="27.44" y="24">w 2</tspan></text><path class="cls-9" d="M678.89 309.08h-26.66v-29.16l5.43-5.42h21.23v34.58z"/><path class="cls-9" d="M657.66 279.92h-5.43l5.43-5.42v5.42z"/><path class="cls-2" d="M658.42 287.48h7.14M658.42 292.15h14.28M658.42 296.7h14.28M658.42 301.37h14.28M683.27 279.32v34.57h-26.66"/></g><path stroke="#fff" stroke-width="8" stroke-linecap="round" stroke-linejoin="round" fill="none" d="M67.36 153.56h17.9"/><g><path class="cls-3" d="M37.37 153.56h183.95"/><path class="cls-15" d="M219.86 158.55l8.64-4.99-8.64-4.98v9.97z"/></g><path stroke="#06c" stroke-linecap="round" stroke-linejoin="round" fill="none" d="M265.18 153.56h378.29"/><g><text class="cls-16" transform="translate(-.07 183.12)"><tspan x="0" y="0" letter-spacing=".01em">O</tspan><tspan class="cls-73" x="9.08" y="0">p</tspan><tspan x="15.85" y="0" letter-spacing="0">e</tspan><tspan class="cls-20" x="22.19" y="0">r</tspan><tspan x="26.59" y="0" letter-spacing="0">a</tspan><tspan x="32.59" y="0" letter-spacing="-.02em">t</tspan><tspan x="36.95" y="0" letter-spacing="0">o</tspan><tspan x="43.59" y="0">r</tspan></text><path class="cls-9" d="M42.34 166.55c0-10.06-8.26-18.22-18.45-18.22s-18.45 8.16-18.45 18.22h36.9z"/><ellipse class="cls-9" cx="23.89" cy="139.2" rx="9.26" ry="9.15"/></g><g><path class="cls-3" d="M267.82 252.89h-1.5"/><path stroke-dasharray="0 0 2.95 2.95" stroke="#151515" stroke-linecap="round" stroke-linejoin="round" fill="none" d="M263.37 252.89h-16.22"/><path class="cls-3" d="M245.68 252.89h-1.5"/><path class="cls-15" d="M266.36 247.9l8.64 4.99-8.64 4.99v-9.98zM245.64 247.9l-8.64 4.99 8.64 4.99v-9.98z"/></g><g><path class="cls-3" d="M667.75 221.39v-1.5"/><path class="cls-6" d="M667.75 216.82v-35.23"/><path class="cls-3" d="M667.75 180.06v-1.5"/><path class="cls-15" d="M672.74 219.93l-4.99 8.63-4.99-8.63h9.98z"/></g><g><path class="cls-3" d="M565.75 221.39v-1.5"/><path class="cls-6" d="M565.75 216.82v-35.23"/><path class="cls-3" d="M565.75 180.06v-1.5"/><path class="cls-15" d="M570.74 219.93l-4.99 8.63-4.99-8.63h9.98z"/></g><g><path class="cls-3" d="M463.75 221.39v-1.5"/><path class="cls-6" d="M463.75 216.82v-35.23"/><path class="cls-3" d="M463.75 180.06v-1.5"/><path class="cls-15" d="M468.74 219.93l-4.99 8.63-4.99-8.63h9.98z"/></g><g><path class="cls-3" d="M256 252.89v-1.5"/><path stroke-dasharray="0 0 3.1 3.1" stroke="#151515" stroke-linecap="round" stroke-linejoin="round" fill="none" d="M256 248.29v-66.68"/><path class="cls-3" d="M256 180.06v-1.5"/></g><g><circle class="cls-33" cx="256" cy="153.56" r="25"/><text class="cls-18" transform="translate(244.94 157.65)"><tspan x="0" y="0" letter-spacing="0">L</tspan><tspan x="9.01" y="0" letter-spacing="0">i</tspan><tspan x="13.1" y="0">b</tspan></text></g><g><circle class="cls-33" cx="463.75" cy="153.56" r="25"/><text class="cls-18" transform="translate(450.22 157.65)"><tspan x="0" y="0" letter-spacing="0">D</tspan><tspan x="10.65" y="0" letter-spacing="-.01em">e</tspan><tspan x="18.77" y="0">v</tspan></text></g><g><circle class="cls-33" cx="565.75" cy="153.56" r="25"/><text class="cls-18" transform="translate(555.33 157.65)"><tspan x="0" y="0" letter-spacing="0">Q</tspan><tspan x="11.48" y="0">E</tspan></text></g><g><circle class="cls-33" cx="667.75" cy="153.56" r="25"/><text class="cls-18" transform="translate(651.06 157.65)"><tspan x="0" y="0" letter-spacing="0">P</tspan><tspan x="9.81" y="0" letter-spacing="-.02em">r</tspan><tspan class="cls-22" x="15.74" y="0">o</tspan><tspan x="24.39" y="0">d</tspan></text></g><path class="cls-36" d="M297.5 191.06H392v139.5h-94.5z"/><text class="cls-13" transform="translate(324.9 204.55)"><tspan class="cls-62" x="0" y="0">V</tspan><tspan class="cls-94" x="6.39" y="0">e</tspan><tspan class="cls-55" x="11.84" y="0">r</tspan><tspan class="cls-43" x="16.06" y="0">s</tspan><tspan class="cls-90" x="20.85" y="0">i</tspan><tspan class="cls-63" x="23.56" y="0">o</tspan><tspan x="29.27" y="0">n 1</tspan></text><path class="cls-36" d="M287.5 211.06H382v139.5h-94.5z"/><text class="cls-13" transform="translate(313.87 224.55)"><tspan class="cls-62" x="0" y="0">V</tspan><tspan class="cls-94" x="6.39" y="0">e</tspan><tspan class="cls-55" x="11.84" y="0">r</tspan><tspan class="cls-43" x="16.06" y="0">s</tspan><tspan class="cls-90" x="20.85" y="0">i</tspan><tspan class="cls-63" x="23.56" y="0">o</tspan><tspan x="29.27" y="0">n 2</tspan></text><path class="cls-34" d="M277.5 231.06H372v139.5h-94.5z"/><text class="cls-14" transform="translate(296.45 257.11)"><tspan class="cls-47" x="0" y="0">V</tspan><tspan class="cls-65" x="8.32" y="0">e</tspan><tspan class="cls-81" x="15.41" y="0">r</tspan><tspan class="cls-28" x="20.88" y="0">s</tspan><tspan class="cls-38" x="27.1" y="0">i</tspan><tspan class="cls-45" x="30.54" y="0">o</tspan><tspan x="37.99" y="0">n N</tspan></text><g><text class="cls-16" transform="translate(296.47 330.44)"><tspan class="cls-69" x="0" y="0">C</tspan><tspan class="cls-82" x="7.87" y="0">o</tspan><tspan class="cls-52" x="14.51" y="0">m</tspan><tspan class="cls-73" x="24.25" y="0">p</tspan><tspan class="cls-20" x="31.02" y="0">o</tspan><tspan class="cls-30" x="37.66" y="0">s</tspan><tspan class="cls-87" x="43.05" y="0">i</tspan><tspan class="cls-92" x="45.9" y="0">t</tspan><tspan class="cls-70" x="50.26" y="0">e</tspan><tspan class="cls-37" x="8.18" y="12">c</tspan><tspan class="cls-82" x="13.85" y="12">o</tspan><tspan class="cls-67" x="20.5" y="12">n</tspan><tspan class="cls-92" x="26.81" y="12">t</tspan><tspan class="cls-80" x="31.17" y="12">e</tspan><tspan class="cls-67" x="37.52" y="12">n</tspan><tspan x="43.83" y="12">t</tspan><tspan class="cls-24" x="12.28" y="24">v</tspan><tspan class="cls-86" x="18.38" y="24">i</tspan><tspan class="cls-88" x="21.19" y="24">e</tspan><tspan class="cls-78" x="27.44" y="24">w 2</tspan></text><path class="cls-9" d="M335.89 309.08h-26.66v-29.16l5.43-5.42h21.23v34.58z"/><path class="cls-9" d="M314.66 279.92h-5.43l5.43-5.42v5.42z"/><path class="cls-2" d="M315.42 287.48h7.14M315.42 292.15h14.28M315.42 296.7h14.28M315.42 301.37h14.28M340.27 279.32v34.57h-26.66"/></g></g></svg>