<svg id="artwork" xmlns="http://www.w3.org/2000/svg" viewBox="0 0 760 449"><defs><style>.cls-2,.cls-3,.cls-4,.cls-5,.cls-6,.cls-7{fill:none}.cls-2,.cls-3,.cls-4,.cls-5{stroke-linecap:round;stroke-linejoin:round}.cls-2{stroke:#5b5b5b;stroke-width:1.5px}.cls-3,.cls-4,.cls-5,.cls-6{stroke:#151515}.cls-11{letter-spacing:0}.cls-13,.cls-14,.cls-15{fill:#151515}.cls-15{font-family:RedHatText,&quot;Red Hat Text&quot;,Overpass,&quot;Helvetica Neue&quot;,Arial,sans-serif;font-weight:700;font-variation-settings:&apos;wght&apos; 700}.cls-18,.cls-21,.cls-27{letter-spacing:0}.cls-31{fill:#06c}.cls-32{fill:#e6e6e6}.cls-33,.cls-34{fill:#fff}.cls-36{fill:#7f7f7f}.cls-44{letter-spacing:-.01em}.cls-4{stroke-dasharray:0 0 3.02 3.02}.cls-53{letter-spacing:.02em}.cls-67{letter-spacing:0}.cls-13{font-size:11px}.cls-13,.cls-14,.cls-34{font-family:RedHatText,&quot;Red Hat Text&quot;,Overpass,&quot;Helvetica Neue&quot;,Arial,sans-serif;font-weight:500;font-variation-settings:&apos;wght&apos; 500}.cls-5{stroke-dasharray:0 0 3.02 3.02}.cls-74,.cls-75,.cls-82,.cls-85,.cls-87{letter-spacing:0}.cls-14,.cls-34{font-size:12px}.cls-6,.cls-7{stroke-miterlimit:10}.cls-7{stroke:#bfbfbf}.cls-100{letter-spacing:0}.cls-103{letter-spacing:-.02em}.cls-115{letter-spacing:0}.cls-15{font-size:14px}.cls-124,.cls-129,.cls-136{letter-spacing:0}</style></defs><path class="cls-32" d="M0 20h351.5v389H0z"/><text transform="translate(24.69 58.14)" style="font-variation-settings:'wght' 700" font-family="RedHatText,&quot;Red Hat Text&quot;,Overpass,&quot;Helvetica Neue&quot;,Arial,sans-serif" font-weight="700" fill="#151515" font-size="16"><tspan x="0" y="0" letter-spacing=".01em">A</tspan><tspan x="12.06" y="0" letter-spacing="0">ma</tspan><tspan x="35.77" y="0" letter-spacing="-.03em">z</tspan><tspan x="43.44" y="0" letter-spacing="0">o</tspan><tspan x="53.35" y="0">n </tspan><tspan x="66.68" y="0" letter-spacing="-.03em">W</tspan><tspan class="cls-27" x="81.87" y="0">e</tspan><tspan x="91.3" y="0" letter-spacing="0">b </tspan><tspan x="105.05" y="0" letter-spacing="0">S</tspan><tspan class="cls-27" x="115.62" y="0">e</tspan><tspan x="125.05" y="0" letter-spacing=".04em">r</tspan><tspan x="132.68" y="0" letter-spacing="0">v</tspan><tspan x="142.26" y="0" letter-spacing="0">i</tspan><tspan x="146.83" y="0" letter-spacing="-.01em">c</tspan><tspan x="155.24" y="0" letter-spacing="0">e</tspan><tspan x="164.75" y="0">s</tspan></text><path class="cls-33" d="M40.19 84.55h271.5v283.59H40.19z"/><text class="cls-15" transform="translate(60.19 114.45)"><tspan x="0" y="0" letter-spacing="0">V</tspan><tspan x="10.5" y="0" letter-spacing="0">P</tspan><tspan x="20.38" y="0">C</tspan></text><path fill="#d9e8f7" d="M85.69 149.55h206v35h-206z"/><text class="cls-14" transform="translate(153.23 170.56)"><tspan x="0" y="0" letter-spacing="0">B</tspan><tspan x="8.36" y="0" letter-spacing="0">as</tspan><tspan x="20.83" y="0">e </tspan><tspan x="30.4" y="0" letter-spacing=".02em">s</tspan><tspan x="36.34" y="0" letter-spacing="0">y</tspan><tspan class="cls-53" x="42.88" y="0">s</tspan><tspan x="48.85" y="0" letter-spacing="-.02em">t</tspan><tspan class="cls-85" x="53.55" y="0">e</tspan><tspan x="60.41" y="0">m</tspan></text><path class="cls-7" d="M75.69 264.55v35h206"/><path class="cls-7" d="M80.69 259.55v35h206"/><path class="cls-32" d="M85.69 254.55h206v35h-206z"/><text class="cls-14" transform="translate(144.4 275.56)"><tspan x="0" y="0" letter-spacing=".01em">R</tspan><tspan x="8.21" y="0" letter-spacing="0">H</tspan><tspan x="17.25" y="0" letter-spacing="0">E</tspan><tspan x="24.83" y="0">L </tspan><tspan x="35.04" y="0" letter-spacing="0">i</tspan><tspan x="38.12" y="0" letter-spacing="0">n</tspan><tspan class="cls-53" x="45.17" y="0">s</tspan><tspan class="cls-82" x="51.14" y="0">t</tspan><tspan class="cls-75" x="56.13" y="0">a</tspan><tspan x="62.79" y="0">n</tspan><tspan x="69.77" y="0" letter-spacing="-.01em">c</tspan><tspan x="75.91" y="0" letter-spacing="0">e</tspan><tspan x="82.83" y="0" letter-spacing="0">s</tspan></text><path class="cls-6" d="M188.69 234.55v20"/><path class="cls-3" d="M326.69 381.55v1.5h-1.5"/><path class="cls-4" d="M322.18 383.05H28.2"/><path class="cls-3" d="M26.69 383.05h-1.5v-1.5"/><path class="cls-5" d="M25.19 378.54V132.56"/><path class="cls-3" d="M25.19 131.05v-1.5h1.5"/><path class="cls-4" d="M29.71 129.55h293.97"/><path class="cls-3" d="M325.19 129.55h1.5v1.5"/><path class="cls-5" d="M326.69 134.07v245.97"/><path class="cls-32" d="M125.19 377.68h101.5v10.75h-101.5z"/><text class="cls-14" transform="translate(130.14 386.76)"><tspan x="0" y="0" letter-spacing="-.02em">A</tspan><tspan x="8.17" y="0">v</tspan><tspan x="14.68" y="0" letter-spacing="0">a</tspan><tspan class="cls-74" x="21.31" y="0">i</tspan><tspan x="24.39" y="0">l</tspan><tspan x="27.41" y="0" letter-spacing="0">a</tspan><tspan x="34.07" y="0">b</tspan><tspan class="cls-74" x="41.4" y="0">il</tspan><tspan class="cls-67" x="47.55" y="0">i</tspan><tspan x="50.61" y="0" letter-spacing=".03em">t</tspan><tspan x="55.94" y="0" letter-spacing="0">y </tspan><tspan x="65.08" y="0" letter-spacing="-.03em">z</tspan><tspan x="70.53" y="0" letter-spacing="0">o</tspan><tspan class="cls-82" x="77.72" y="0">n</tspan><tspan x="84.73" y="0">e</tspan></text><path class="cls-6" d="M223.19 334.05h-163v-124.5h25.5"/><path class="cls-36" d="M231.12 320.04h96.06v28.01h-96.06c-10.58 0-10.58-28.01 0-28.01z"/><text class="cls-34" transform="translate(233.67 337.45)"><tspan x="0" y="0" letter-spacing="0">V</tspan><tspan x="8.47" y="0" letter-spacing="-.01em">P</tspan><tspan x="16.46" y="0">N </tspan><tspan class="cls-44" x="28.29" y="0">G</tspan><tspan class="cls-129" x="37.78" y="0">a</tspan><tspan class="cls-103" x="44.28" y="0">t</tspan><tspan class="cls-11" x="48.98" y="0">e</tspan><tspan class="cls-100" x="55.74" y="0">w</tspan><tspan class="cls-115" x="64.51" y="0">a</tspan><tspan x="70.99" y="0">y</tspan></text><path class="cls-36" d="M235.43 39.58h116.06v28.01H235.43c-10.58 0-10.58-28.01 0-28.01z"/><text class="cls-34" transform="translate(237.98 56.99)"><tspan class="cls-21" x="0" y="0">I</tspan><tspan x="3.41" y="0" letter-spacing="-.01em">n</tspan><tspan class="cls-103" x="10.24" y="0">t</tspan><tspan class="cls-87" x="14.94" y="0">e</tspan><tspan class="cls-21" x="21.81" y="0">r</tspan><tspan class="cls-82" x="26.6" y="0">n</tspan><tspan x="33.61" y="0" letter-spacing="-.02em">e</tspan><tspan x="40.3" y="0">t </tspan><tspan class="cls-44" x="47.96" y="0">G</tspan><tspan class="cls-129" x="57.45" y="0">a</tspan><tspan class="cls-103" x="63.95" y="0">t</tspan><tspan class="cls-11" x="68.65" y="0">e</tspan><tspan class="cls-100" x="75.42" y="0">w</tspan><tspan class="cls-115" x="84.18" y="0">a</tspan><tspan x="90.66" y="0">y</tspan></text><path class="cls-31" d="M85.69 184.55h206v50h-206z"/><text class="cls-34" transform="translate(145.77 213.06)"><tspan x="0" y="0" letter-spacing="0">C</tspan><tspan class="cls-75" x="8.7" y="0">a</tspan><tspan x="15.36" y="0" letter-spacing="0">p</tspan><tspan x="22.71" y="0" letter-spacing="0">s</tspan><tspan x="28.51" y="0" letter-spacing="0">u</tspan><tspan x="35.54" y="0" letter-spacing="0">l</tspan><tspan x="38.61" y="0">e </tspan><tspan x="48.18" y="0" letter-spacing="0">S</tspan><tspan class="cls-87" x="55.91" y="0">e</tspan><tspan x="62.78" y="0" letter-spacing=".04em">r</tspan><tspan x="67.93" y="0" letter-spacing="-.01em">v</tspan><tspan class="cls-87" x="74.27" y="0">e</tspan><tspan x="81.13" y="0" letter-spacing="0">r</tspan></text><path class="cls-6" d="M327.19 334.05H488.5"/><path class="cls-33" d="M490 86.05h268.5v280.59H490z"/><path d="M757 87.55v277.59H491.5V87.55H757m3-3H488.5v283.59H760V84.55z" fill="#e5e5e5"/><text class="cls-15" transform="translate(508.5 114.45)"><tspan x="0" y="0" letter-spacing="0">O</tspan><tspan x="11.51" y="0" letter-spacing="0">n-</tspan><tspan x="26.91" y="0" letter-spacing="0">p</tspan><tspan x="35.96" y="0" letter-spacing="-.02em">r</tspan><tspan class="cls-136" x="41.9" y="0">e</tspan><tspan x="50.16" y="0" letter-spacing="0">m</tspan><tspan class="cls-124" x="62.98" y="0">i</tspan><tspan x="67.06" y="0" letter-spacing="0">s</tspan><tspan x="74.28" y="0">e </tspan><tspan x="85.58" y="0" letter-spacing="0">d</tspan><tspan x="94.56" y="0" letter-spacing="0">a</tspan><tspan x="102.54" y="0" letter-spacing="0">t</tspan><tspan x="108.97" y="0" letter-spacing="0">a</tspan><tspan x="117.08" y="0" letter-spacing="-.01em">c</tspan><tspan class="cls-136" x="124.46" y="0">e</tspan><tspan x="132.72" y="0" letter-spacing="-.01em">n</tspan><tspan x="141.18" y="0" letter-spacing="-.02em">t</tspan><tspan class="cls-136" x="147.27" y="0">e</tspan><tspan x="155.53" y="0" letter-spacing="0">r</tspan></text><path class="cls-6" d="M562.5 334.05H740v-124.5h-25.5"/><g><path class="cls-36" d="M554.57 320.04h-66.06v28.01h66.06c10.58 0 10.58-28.01 0-28.01z"/><text class="cls-34" transform="translate(502.88 337.45)"><tspan class="cls-44" x="0" y="0">G</tspan><tspan x="9.49" y="0" letter-spacing="0">a</tspan><tspan class="cls-103" x="15.99" y="0">t</tspan><tspan class="cls-11" x="20.69" y="0">e</tspan><tspan class="cls-100" x="27.45" y="0">w</tspan><tspan class="cls-115" x="36.22" y="0">a</tspan><tspan x="42.7" y="0">y</tspan></text></g><path class="cls-31" d="M508.5 184.55h206v50h-206z"/><text class="cls-34" transform="translate(568.02 213.06)"><tspan x="0" y="0" letter-spacing="0">S</tspan><tspan class="cls-129" x="7.75" y="0">a</tspan><tspan class="cls-103" x="14.25" y="0">t</tspan><tspan x="18.95" y="0">e</tspan><tspan class="cls-124" x="25.82" y="0">ll</tspan><tspan class="cls-67" x="31.97" y="0">i</tspan><tspan class="cls-103" x="35.03" y="0">t</tspan><tspan x="39.73" y="0">e </tspan><tspan x="49.3" y="0" letter-spacing="0">S</tspan><tspan class="cls-85" x="57.03" y="0">e</tspan><tspan x="63.9" y="0" letter-spacing=".04em">r</tspan><tspan x="69.05" y="0" letter-spacing="-.01em">v</tspan><tspan class="cls-87" x="75.39" y="0">e</tspan><tspan x="82.25" y="0">r</tspan></text><path class="cls-6" d="M351.5 53.58h46.75"/><g><text class="cls-13" transform="translate(399.08 81.04)"><tspan x="0" y="0" letter-spacing=".01em">I</tspan><tspan x="3.17" y="0" letter-spacing="0">n</tspan><tspan x="9.49" y="0" letter-spacing="-.02em">t</tspan><tspan x="13.85" y="0" letter-spacing="0">e</tspan><tspan x="20.19" y="0" letter-spacing=".01em">r</tspan><tspan class="cls-18" x="24.63" y="0">n</tspan><tspan x="31.11" y="0" letter-spacing="-.01em">e</tspan><tspan x="37.29" y="0">t</tspan></text><path d="M435.06 51.19c0-7.33-5.99-13.27-13.38-13.27-5 0-9.36 2.73-11.65 6.76a9.85 9.85 0 00-1.73-.16c-5.55 0-10.05 4.46-10.05 9.97s4.5 9.97 10.05 9.97h26.76c3.69 0 6.69-2.97 6.69-6.64s-3-6.64-6.69-6.64z" fill="#fff" stroke="#5b5b5b" stroke-width="1.5" stroke-linecap="round" stroke-linejoin="round"/></g><g><text class="cls-13" transform="translate(408.22 367.54)"><tspan x="0" y="0" letter-spacing=".01em">V</tspan><tspan x="7.81" y="0" letter-spacing="0">P</tspan><tspan x="15.19" y="0" letter-spacing="0">N</tspan><tspan x="-17.32" y="12" letter-spacing="0">c</tspan><tspan x="-11.65" y="12" letter-spacing="0">o</tspan><tspan x="-5" y="12" letter-spacing="0">n</tspan><tspan class="cls-18" x="1.5" y="12">n</tspan><tspan x="7.97" y="12" letter-spacing="0">e</tspan><tspan x="14.34" y="12" letter-spacing=".03em">c</tspan><tspan x="20.42" y="12" letter-spacing="0">t</tspan><tspan x="25.02" y="12" letter-spacing="0">i</tspan><tspan x="27.84" y="12" letter-spacing="0">o</tspan><tspan x="34.48" y="12">n</tspan></text><path class="cls-33" d="M434.73 318.73l-14.56-3.1a.97.97 0 00-.34 0l-14.56 3.1c-.38.08-.66.42-.66.81v16.76c0 8.49 6.9 15.39 15.39 15.39s15.39-6.9 15.39-15.39v-16.76c0-.39-.27-.73-.66-.81z"/><path class="cls-2" d="M415.28 333.8l2.84 2.81 6.54-6.5"/><path class="cls-2" d="M420 350.91c-8.06 0-14.61-6.55-14.61-14.61v-16.8l14.61-3.1 14.61 3.1v16.8c0 8.06-6.55 14.61-14.61 14.61z"/></g><g><text transform="translate(670.98 432.02)" style="font-variation-settings:'wght' 400" fill="#ececec" font-family="RedHatText,&quot;Red Hat Text&quot;,Overpass,&quot;Helvetica Neue&quot;,Arial,sans-serif" font-size="10"><tspan x="0" y="0" letter-spacing="0">2</tspan><tspan x="5.53" y="0" letter-spacing="0">7</tspan><tspan x="11.06" y="0" letter-spacing=".04em">8</tspan><tspan x="17.64" y="0" letter-spacing=".06em">_</tspan><tspan x="22.8" y="0" letter-spacing=".02em">S</tspan><tspan x="29.21" y="0" letter-spacing="0">a</tspan><tspan x="34.48" y="0" letter-spacing="-.01em">t</tspan><tspan x="38.14" y="0" letter-spacing="0">e</tspan><tspan x="43.81" y="0" letter-spacing=".01em">ll</tspan><tspan x="48.53" y="0" letter-spacing=".01em">i</tspan><tspan x="50.87" y="0" letter-spacing="-.01em">t</tspan><tspan x="54.53" y="0" letter-spacing=".02em">e</tspan><tspan x="60.29" y="0" letter-spacing=".02em">_</tspan><tspan x="65.07" y="0" letter-spacing=".01em">0</tspan><tspan x="71.77" y="0" letter-spacing="-.01em">9</tspan><tspan x="77.85" y="0" letter-spacing=".02em">2</tspan><tspan x="83.54" y="0" letter-spacing="0">2</tspan></text><path fill="none" d="M0 409h760v40H0z"/></g></svg>