<svg id="artwork" xmlns="http://www.w3.org/2000/svg" viewBox="0 0 760 400.5"><defs><style>.cls-2,.cls-3,.cls-4,.cls-5,.cls-6{fill:none}.cls-2,.cls-3,.cls-4,.cls-5{stroke:#151515}.cls-2,.cls-3,.cls-4{stroke-linecap:round;stroke-linejoin:round}.cls-12{fill:#151515}.cls-16,.cls-22{letter-spacing:0}.cls-25{fill:#e6e6e6}.cls-27{fill:#fff}.cls-3{stroke-dasharray:0 0 3.02 3.02}.cls-4{stroke-dasharray:0 0 3.01 3.01}.cls-42{letter-spacing:.02em}.cls-52{letter-spacing:0}.cls-12,.cls-27{font-family:RedHatText,&quot;Red Hat Text&quot;,Overpass,&quot;Helvetica Neue&quot;,Arial,sans-serif;font-weight:500;font-variation-settings:&apos;wght&apos; 500}.cls-58,.cls-64,.cls-67,.cls-68{letter-spacing:0}.cls-12,.cls-27{font-size:12px}.cls-5,.cls-6{stroke-miterlimit:10}.cls-6{stroke:#bfbfbf}.cls-78{letter-spacing:-.02em}.cls-93{letter-spacing:0}</style></defs><path class="cls-25" d="M0 20h351.5v340.5H0z"/><text transform="translate(24.69 58.14)" style="font-variation-settings:'wght' 700" font-family="RedHatText,&quot;Red Hat Text&quot;,Overpass,&quot;Helvetica Neue&quot;,Arial,sans-serif" font-weight="700" fill="#151515" font-size="16"><tspan x="0" y="0" letter-spacing=".01em">A</tspan><tspan x="12.06" y="0" letter-spacing="0">ma</tspan><tspan x="35.77" y="0" letter-spacing="-.03em">z</tspan><tspan x="43.44" y="0" letter-spacing="0">o</tspan><tspan x="53.35" y="0">n </tspan><tspan x="66.68" y="0" letter-spacing="-.03em">W</tspan><tspan class="cls-22" x="81.87" y="0">e</tspan><tspan x="91.3" y="0" letter-spacing="0">b </tspan><tspan x="105.05" y="0" letter-spacing="0">S</tspan><tspan class="cls-22" x="115.62" y="0">e</tspan><tspan x="125.05" y="0" letter-spacing=".04em">r</tspan><tspan x="132.68" y="0" letter-spacing="0">v</tspan><tspan x="142.26" y="0" letter-spacing="0">i</tspan><tspan x="146.83" y="0" letter-spacing="-.01em">c</tspan><tspan x="155.24" y="0" letter-spacing="0">e</tspan><tspan x="164.75" y="0">s</tspan></text><path fill="#fff" d="M40.19 84.55h271.5v235.09H40.19z"/><text transform="translate(60.19 114.45)" style="font-variation-settings:'wght' 700" font-size="14" font-family="RedHatText,&quot;Red Hat Text&quot;,Overpass,&quot;Helvetica Neue&quot;,Arial,sans-serif" font-weight="700" fill="#151515"><tspan x="0" y="0" letter-spacing="0">V</tspan><tspan x="10.5" y="0" letter-spacing="0">P</tspan><tspan x="20.38" y="0">C</tspan></text><path fill="#d9e8f7" d="M70.19 149.55h221.5v35H70.19z"/><text class="cls-12" transform="translate(145.48 170.56)"><tspan x="0" y="0" letter-spacing="0">B</tspan><tspan x="8.36" y="0" letter-spacing="0">as</tspan><tspan x="20.83" y="0">e </tspan><tspan x="30.4" y="0" letter-spacing=".02em">s</tspan><tspan x="36.34" y="0" letter-spacing="0">y</tspan><tspan class="cls-42" x="42.88" y="0">s</tspan><tspan x="48.85" y="0" letter-spacing="-.02em">t</tspan><tspan class="cls-67" x="53.55" y="0">e</tspan><tspan x="60.41" y="0">m</tspan></text><path class="cls-6" d="M60.19 264.55v35h221.5"/><path class="cls-6" d="M65.19 259.55v35h221.5"/><path class="cls-25" d="M70.19 254.55h221.5v35H70.19z"/><text class="cls-12" transform="translate(136.65 275.56)"><tspan x="0" y="0" letter-spacing=".01em">R</tspan><tspan x="8.21" y="0" letter-spacing="0">H</tspan><tspan x="17.25" y="0" letter-spacing="0">E</tspan><tspan x="24.83" y="0">L </tspan><tspan x="35.04" y="0" letter-spacing="0">i</tspan><tspan x="38.12" y="0" letter-spacing="0">n</tspan><tspan class="cls-42" x="45.17" y="0">s</tspan><tspan class="cls-64" x="51.14" y="0">t</tspan><tspan x="56.13" y="0" letter-spacing="0">a</tspan><tspan x="62.79" y="0">n</tspan><tspan x="69.77" y="0" letter-spacing="-.01em">c</tspan><tspan x="75.91" y="0" letter-spacing="0">e</tspan><tspan x="82.83" y="0" letter-spacing="0">s</tspan></text><path class="cls-5" d="M180.94 234.55v20"/><path class="cls-2" d="M326.69 333.05v1.5h-1.5"/><path class="cls-3" d="M322.18 334.55H28.2"/><path class="cls-2" d="M26.69 334.55h-1.5v-1.5"/><path class="cls-4" d="M25.19 330.04V132.56"/><path class="cls-2" d="M25.19 131.05v-1.5h1.5"/><path class="cls-3" d="M29.71 129.55h293.97"/><path class="cls-2" d="M325.19 129.55h1.5v1.5"/><path class="cls-4" d="M326.69 134.07v197.48"/><path class="cls-25" d="M125.19 329.18h101.5v10.75h-101.5z"/><text class="cls-12" transform="translate(130.14 338.26)"><tspan x="0" y="0" letter-spacing="-.02em">A</tspan><tspan x="8.17" y="0">v</tspan><tspan x="14.68" y="0" letter-spacing="0">a</tspan><tspan class="cls-58" x="21.31" y="0">i</tspan><tspan x="24.39" y="0">l</tspan><tspan x="27.41" y="0" letter-spacing="0">a</tspan><tspan x="34.07" y="0">b</tspan><tspan class="cls-58" x="41.4" y="0">il</tspan><tspan class="cls-52" x="47.55" y="0">i</tspan><tspan x="50.61" y="0" letter-spacing=".03em">t</tspan><tspan x="55.94" y="0" letter-spacing="0">y </tspan><tspan x="65.08" y="0" letter-spacing="-.03em">z</tspan><tspan x="70.53" y="0" letter-spacing="0">o</tspan><tspan class="cls-64" x="77.72" y="0">n</tspan><tspan x="84.73" y="0">e</tspan></text><g><path d="M235.43 39.58h116.06v28.01H235.43c-10.58 0-10.58-28.01 0-28.01z" fill="#7f7f7f"/><text class="cls-27" transform="translate(237.98 56.99)"><tspan class="cls-16" x="0" y="0">I</tspan><tspan x="3.41" y="0" letter-spacing="-.01em">n</tspan><tspan class="cls-78" x="10.24" y="0">t</tspan><tspan class="cls-68" x="14.94" y="0">e</tspan><tspan class="cls-16" x="21.81" y="0">r</tspan><tspan class="cls-64" x="26.6" y="0">n</tspan><tspan x="33.61" y="0" letter-spacing="-.02em">e</tspan><tspan x="40.3" y="0">t </tspan><tspan x="47.96" y="0" letter-spacing="-.01em">G</tspan><tspan class="cls-93" x="57.45" y="0">a</tspan><tspan class="cls-78" x="63.95" y="0">t</tspan><tspan x="68.65" y="0" letter-spacing="0">e</tspan><tspan x="75.42" y="0" letter-spacing="0">w</tspan><tspan x="84.18" y="0" letter-spacing="0">a</tspan><tspan x="90.66" y="0">y</tspan></text></g><path fill="#06c" d="M70.19 184.55h221.5v50H70.19z"/><text class="cls-27" transform="translate(137.46 213.06)"><tspan x="0" y="0" letter-spacing="0">S</tspan><tspan class="cls-93" x="7.75" y="0">a</tspan><tspan class="cls-78" x="14.25" y="0">t</tspan><tspan x="18.95" y="0">e</tspan><tspan x="25.82" y="0" letter-spacing="0">ll</tspan><tspan class="cls-52" x="31.97" y="0">i</tspan><tspan class="cls-78" x="35.03" y="0">t</tspan><tspan x="39.73" y="0">e </tspan><tspan x="49.3" y="0" letter-spacing="0">S</tspan><tspan class="cls-67" x="57.03" y="0">e</tspan><tspan x="63.9" y="0" letter-spacing=".04em">r</tspan><tspan x="69.05" y="0" letter-spacing="-.01em">v</tspan><tspan class="cls-68" x="75.39" y="0">e</tspan><tspan x="82.25" y="0">r</tspan></text><path class="cls-5" d="M351.5 53.58h46.75"/><g><text transform="translate(399.08 81.04)" style="font-variation-settings:'wght' 500" font-family="RedHatText,&quot;Red Hat Text&quot;,Overpass,&quot;Helvetica Neue&quot;,Arial,sans-serif" font-weight="500" font-size="11" fill="#151515"><tspan x="0" y="0" letter-spacing=".01em">I</tspan><tspan x="3.17" y="0" letter-spacing="0">n</tspan><tspan x="9.49" y="0" letter-spacing="-.02em">t</tspan><tspan x="13.85" y="0" letter-spacing="0">e</tspan><tspan x="20.19" y="0" letter-spacing=".01em">r</tspan><tspan x="24.63" y="0" letter-spacing="0">n</tspan><tspan x="31.11" y="0" letter-spacing="-.01em">e</tspan><tspan x="37.29" y="0">t</tspan></text><path d="M435.06 51.19c0-7.33-5.99-13.27-13.38-13.27-5 0-9.36 2.73-11.65 6.76a9.85 9.85 0 00-1.73-.16c-5.55 0-10.05 4.46-10.05 9.97s4.5 9.97 10.05 9.97h26.76c3.69 0 6.69-2.97 6.69-6.64s-3-6.64-6.69-6.64z" stroke="#5b5b5b" stroke-width="1.5" fill="#fff" stroke-linecap="round" stroke-linejoin="round"/></g><g><text transform="translate(670.98 383.52)" style="font-variation-settings:'wght' 400" fill="#ececec" font-family="RedHatText,&quot;Red Hat Text&quot;,Overpass,&quot;Helvetica Neue&quot;,Arial,sans-serif" font-size="10"><tspan x="0" y="0" letter-spacing="0">2</tspan><tspan x="5.53" y="0" letter-spacing="0">7</tspan><tspan x="11.06" y="0" letter-spacing=".04em">8</tspan><tspan x="17.64" y="0" letter-spacing=".06em">_</tspan><tspan x="22.8" y="0" letter-spacing=".02em">S</tspan><tspan x="29.21" y="0" letter-spacing="0">a</tspan><tspan x="34.48" y="0" letter-spacing="-.01em">t</tspan><tspan x="38.14" y="0" letter-spacing="0">e</tspan><tspan x="43.81" y="0" letter-spacing=".01em">ll</tspan><tspan x="48.53" y="0" letter-spacing=".01em">i</tspan><tspan x="50.87" y="0" letter-spacing="-.01em">t</tspan><tspan x="54.53" y="0" letter-spacing=".02em">e</tspan><tspan x="60.29" y="0" letter-spacing=".02em">_</tspan><tspan x="65.07" y="0" letter-spacing=".01em">0</tspan><tspan x="71.77" y="0" letter-spacing="-.01em">9</tspan><tspan x="77.85" y="0" letter-spacing=".02em">2</tspan><tspan x="83.54" y="0" letter-spacing="0">2</tspan></text><path fill="none" d="M0 360.5h760v40H0z"/></g></svg>