<svg id="artwork" xmlns="http://www.w3.org/2000/svg" viewBox="0 0 760 449.46"><defs><style>.cls-2,.cls-3,.cls-4,.cls-5,.cls-6{fill:none}.cls-7{letter-spacing:.01em}.cls-2,.cls-3,.cls-4,.cls-5{stroke:#151515}.cls-2,.cls-3,.cls-4{stroke-linecap:round;stroke-linejoin:round}.cls-9{letter-spacing:0}.cls-12,.cls-13{fill:#151515}.cls-13{font-family:RedHatText,&quot;Red Hat Text&quot;,Overpass,&quot;Helvetica Neue&quot;,Arial,sans-serif;font-weight:700;font-variation-settings:&apos;wght&apos; 700}.cls-14,.cls-16,.cls-18,.cls-22{letter-spacing:0}.cls-23{letter-spacing:.02em}.cls-24{fill:#06c}.cls-25{fill:#e6e6e6}.cls-26,.cls-27{fill:#fff}.cls-28{fill:#7f7f7f}.cls-29{fill:#a6a6a6}.cls-30{fill:#d9e8f7}.cls-31,.cls-33{letter-spacing:0}.cls-34{letter-spacing:-.02em}.cls-35,.cls-36{letter-spacing:-.01em}.cls-3{stroke-dasharray:0 0 3.02 3.02}.cls-39{letter-spacing:-.01em}.cls-43,.cls-44{letter-spacing:.02em}.cls-45,.cls-46{letter-spacing:0}.cls-49{letter-spacing:-.01em}.cls-50{letter-spacing:0}.cls-51{letter-spacing:.04em}.cls-54{letter-spacing:0}.cls-12,.cls-27{font-family:RedHatText,&quot;Red Hat Text&quot;,Overpass,&quot;Helvetica Neue&quot;,Arial,sans-serif;font-weight:500;font-variation-settings:&apos;wght&apos; 500}.cls-4{stroke-dasharray:0 0 3.02 3.02}.cls-57,.cls-59,.cls-60,.cls-61,.cls-62,.cls-64,.cls-65,.cls-66,.cls-68,.cls-69,.cls-70{letter-spacing:0}.cls-71{letter-spacing:-.02em}.cls-73,.cls-74,.cls-75{letter-spacing:0}.cls-12,.cls-27{font-size:12px}.cls-76{letter-spacing:.03em}.cls-5,.cls-6{stroke-miterlimit:10}.cls-6{stroke:#bfbfbf}.cls-78{letter-spacing:-.03em}.cls-79{letter-spacing:0}.cls-81,.cls-83{letter-spacing:-.02em}.cls-89{letter-spacing:0}.cls-13{font-size:14px}.cls-101,.cls-102,.cls-104,.cls-92,.cls-93,.cls-95,.cls-96,.cls-99{letter-spacing:0}</style></defs><path class="cls-25" d="M.35 20.46h760v389H.35z"/><text transform="translate(25.04 58.6)" style="font-variation-settings:'wght' 700" font-family="RedHatText,&quot;Red Hat Text&quot;,Overpass,&quot;Helvetica Neue&quot;,Arial,sans-serif" font-weight="700" fill="#151515" font-size="16"><tspan x="0" y="0" letter-spacing=".01em">A</tspan><tspan x="12.06" y="0" letter-spacing="0">ma</tspan><tspan x="35.77" y="0" letter-spacing="-.03em">z</tspan><tspan x="43.44" y="0" letter-spacing="0">o</tspan><tspan x="53.35" y="0">n </tspan><tspan x="66.68" y="0" letter-spacing="-.03em">W</tspan><tspan class="cls-22" x="81.87" y="0">e</tspan><tspan x="91.3" y="0" letter-spacing="0">b </tspan><tspan x="105.05" y="0" letter-spacing="0">S</tspan><tspan class="cls-22" x="115.62" y="0">e</tspan><tspan x="125.05" y="0" letter-spacing=".04em">r</tspan><tspan x="132.68" y="0" letter-spacing="0">v</tspan><tspan x="142.26" y="0" letter-spacing="0">i</tspan><tspan x="146.83" y="0" letter-spacing="-.01em">c</tspan><tspan x="155.24" y="0" letter-spacing="0">e</tspan><tspan x="164.75" y="0">s</tspan></text><path class="cls-26" d="M40.54 85.02h271.5v283.59H40.54z"/><text class="cls-13" transform="translate(60.54 114.92)"><tspan class="cls-93" x="0" y="0">V</tspan><tspan class="cls-104" x="10.5" y="0">P</tspan><tspan x="20.38" y="0">C</tspan></text><path class="cls-30" d="M86.04 150.02h206v35h-206z"/><text class="cls-12" transform="translate(153.58 171.02)"><tspan class="cls-14" x="0" y="0">B</tspan><tspan class="cls-102" x="8.36" y="0">as</tspan><tspan x="20.83" y="0">e </tspan><tspan class="cls-23" x="30.4" y="0">s</tspan><tspan class="cls-68" x="36.34" y="0">y</tspan><tspan class="cls-43" x="42.88" y="0">s</tspan><tspan class="cls-83" x="48.85" y="0">t</tspan><tspan class="cls-69" x="53.55" y="0">e</tspan><tspan x="60.41" y="0">m</tspan></text><path class="cls-6" d="M76.04 265.02v35h206"/><path class="cls-6" d="M81.04 260.02v35h206"/><path class="cls-25" d="M86.04 255.02h206v35h-206z"/><text class="cls-12" transform="translate(144.75 276.02)"><tspan class="cls-7" x="0" y="0">R</tspan><tspan class="cls-33" x="8.21" y="0">H</tspan><tspan class="cls-31" x="17.25" y="0">E</tspan><tspan x="24.83" y="0">L </tspan><tspan class="cls-73" x="35.04" y="0">i</tspan><tspan class="cls-18" x="38.12" y="0">n</tspan><tspan class="cls-43" x="45.17" y="0">s</tspan><tspan class="cls-66" x="51.14" y="0">t</tspan><tspan class="cls-61" x="56.13" y="0">a</tspan><tspan x="62.79" y="0">n</tspan><tspan class="cls-35" x="69.77" y="0">c</tspan><tspan class="cls-65" x="75.91" y="0">e</tspan><tspan class="cls-59" x="82.83" y="0">s</tspan></text><path class="cls-5" d="M189.04 235.02v20"/><path class="cls-2" d="M327.04 382.02v1.5h-1.5"/><path class="cls-3" d="M322.52 383.52H28.55"/><path class="cls-2" d="M27.04 383.52h-1.5v-1.5"/><path class="cls-4" d="M25.54 379V133.03"/><path class="cls-2" d="M25.54 131.52v-1.5h1.5"/><path class="cls-3" d="M30.06 130.02h293.97"/><path class="cls-2" d="M325.54 130.02h1.5v1.5"/><path class="cls-4" d="M327.04 134.54v245.97"/><path class="cls-25" d="M125.54 378.14h101.5v10.75h-101.5z"/><text class="cls-12" transform="translate(130.49 387.22)"><tspan class="cls-71" x="0" y="0">A</tspan><tspan x="8.17" y="0">v</tspan><tspan class="cls-46" x="14.68" y="0">a</tspan><tspan class="cls-60" x="21.31" y="0">i</tspan><tspan x="24.39" y="0">l</tspan><tspan class="cls-62" x="27.41" y="0">a</tspan><tspan x="34.07" y="0">b</tspan><tspan class="cls-60" x="41.4" y="0">il</tspan><tspan class="cls-54" x="47.55" y="0">i</tspan><tspan class="cls-76" x="50.61" y="0">t</tspan><tspan class="cls-57" x="55.94" y="0">y </tspan><tspan class="cls-78" x="65.08" y="0">z</tspan><tspan class="cls-50" x="70.53" y="0">o</tspan><tspan class="cls-66" x="77.72" y="0">n</tspan><tspan x="84.73" y="0">e</tspan></text><path class="cls-5" d="M129.71 334.51H60.54V210.02h25.5"/><path class="cls-29" d="M137.64 320.5h109.13v28.01H137.64c-10.58 0-10.58-28.01 0-28.01z"/><text class="cls-27" transform="translate(140.35 337.92)"><tspan class="cls-92" x="0" y="0">E</tspan><tspan x="7.64" y="0">l</tspan><tspan class="cls-101" x="10.67" y="0">a</tspan><tspan class="cls-44" x="17.32" y="0">s</tspan><tspan x="23.29" y="0">t</tspan><tspan class="cls-74" x="28.26" y="0">i</tspan><tspan class="cls-45" x="31.27" y="0">c </tspan><tspan class="cls-96" x="40.25" y="0">I</tspan><tspan x="43.67" y="0">P</tspan></text><path class="cls-28" d="M211.47 320.5h116.06v28.01H211.47c-10.58 0-10.58-28.01 0-28.01z"/><text class="cls-27" transform="translate(214.02 337.92)"><tspan class="cls-16" x="0" y="0">I</tspan><tspan class="cls-49" x="3.41" y="0">n</tspan><tspan class="cls-81" x="10.24" y="0">t</tspan><tspan class="cls-70" x="14.94" y="0">e</tspan><tspan class="cls-16" x="21.81" y="0">r</tspan><tspan class="cls-66" x="26.6" y="0">n</tspan><tspan class="cls-34" x="33.61" y="0">e</tspan><tspan x="40.3" y="0">t </tspan><tspan class="cls-36" x="47.96" y="0">G</tspan><tspan class="cls-99" x="57.45" y="0">a</tspan><tspan class="cls-81" x="63.95" y="0">t</tspan><tspan class="cls-9" x="68.65" y="0">e</tspan><tspan class="cls-79" x="75.42" y="0">w</tspan><tspan class="cls-89" x="84.18" y="0">a</tspan><tspan x="90.66" y="0">y</tspan></text><path class="cls-24" d="M86.04 185.02h206v50h-206z"/><text class="cls-27" transform="translate(145.56 213.52)"><tspan class="cls-64" x="0" y="0">S</tspan><tspan class="cls-99" x="7.75" y="0">a</tspan><tspan class="cls-81" x="14.25" y="0">t</tspan><tspan x="18.95" y="0">e</tspan><tspan class="cls-95" x="25.82" y="0">ll</tspan><tspan class="cls-54" x="31.97" y="0">i</tspan><tspan class="cls-81" x="35.03" y="0">t</tspan><tspan x="39.73" y="0">e </tspan><tspan class="cls-75" x="49.3" y="0">S</tspan><tspan class="cls-69" x="57.03" y="0">e</tspan><tspan class="cls-51" x="63.9" y="0">r</tspan><tspan class="cls-39" x="69.05" y="0">v</tspan><tspan class="cls-70" x="75.39" y="0">e</tspan><tspan x="82.25" y="0">r</tspan></text><path class="cls-26" d="M448.35 85.02h271.5v283.59h-271.5z"/><text class="cls-13" transform="translate(468.35 114.92)"><tspan class="cls-93" x="0" y="0">V</tspan><tspan class="cls-104" x="10.5" y="0">P</tspan><tspan x="20.38" y="0">C</tspan></text><path class="cls-30" d="M468.35 150.02h206v35h-206z"/><text class="cls-12" transform="translate(535.89 171.02)"><tspan class="cls-14" x="0" y="0">B</tspan><tspan class="cls-102" x="8.36" y="0">as</tspan><tspan x="20.83" y="0">e </tspan><tspan class="cls-23" x="30.4" y="0">s</tspan><tspan class="cls-68" x="36.34" y="0">y</tspan><tspan class="cls-43" x="42.88" y="0">s</tspan><tspan class="cls-83" x="48.85" y="0">t</tspan><tspan class="cls-69" x="53.55" y="0">e</tspan><tspan x="60.41" y="0">m</tspan></text><path class="cls-6" d="M684.35 265.02v35h-206"/><path class="cls-6" d="M679.35 260.02v35h-206"/><path class="cls-25" d="M468.35 255.02h206v35h-206z"/><text class="cls-12" transform="translate(527.06 276.02)"><tspan class="cls-7" x="0" y="0">R</tspan><tspan class="cls-33" x="8.21" y="0">H</tspan><tspan class="cls-31" x="17.25" y="0">E</tspan><tspan x="24.83" y="0">L </tspan><tspan class="cls-73" x="35.04" y="0">i</tspan><tspan class="cls-18" x="38.12" y="0">n</tspan><tspan class="cls-43" x="45.17" y="0">s</tspan><tspan class="cls-66" x="51.14" y="0">t</tspan><tspan class="cls-61" x="56.13" y="0">a</tspan><tspan x="62.79" y="0">n</tspan><tspan class="cls-35" x="69.77" y="0">c</tspan><tspan class="cls-65" x="75.91" y="0">e</tspan><tspan class="cls-59" x="82.83" y="0">s</tspan></text><path class="cls-5" d="M571.35 235.02v20"/><g><path class="cls-2" d="M433.35 382.02v1.5h1.5"/><path class="cls-3" d="M437.86 383.52h293.98"/><path class="cls-2" d="M733.35 383.52h1.5v-1.5"/><path class="cls-4" d="M734.85 379V133.03"/><path class="cls-2" d="M734.85 131.52v-1.5h-1.5"/><path class="cls-3" d="M730.33 130.02H436.36"/><path class="cls-2" d="M434.85 130.02h-1.5v1.5"/><path class="cls-4" d="M433.35 134.54v245.97"/></g><path class="cls-25" d="M532.99 378.14H635.2v10.75H532.99z"/><text class="cls-12" transform="translate(538.3 387.22)"><tspan class="cls-71" x="0" y="0">A</tspan><tspan x="8.17" y="0">v</tspan><tspan class="cls-46" x="14.68" y="0">a</tspan><tspan class="cls-60" x="21.31" y="0">i</tspan><tspan x="24.39" y="0">l</tspan><tspan class="cls-62" x="27.41" y="0">a</tspan><tspan x="34.07" y="0">b</tspan><tspan class="cls-60" x="41.4" y="0">il</tspan><tspan class="cls-54" x="47.55" y="0">i</tspan><tspan class="cls-76" x="50.61" y="0">t</tspan><tspan class="cls-57" x="55.94" y="0">y </tspan><tspan class="cls-78" x="65.08" y="0">z</tspan><tspan class="cls-50" x="70.53" y="0">o</tspan><tspan class="cls-66" x="77.72" y="0">n</tspan><tspan x="84.73" y="0">e</tspan></text><path class="cls-5" d="M630.45 334.51h69.4V210.02h-25.5M327.54 334.51h105.31"/><g><path class="cls-29" d="M622.75 320.5H513.62v28.01h109.13c10.58 0 10.58-28.01 0-28.01z"/><text class="cls-27" transform="translate(568.21 337.92)"><tspan class="cls-92" x="0" y="0">E</tspan><tspan x="7.64" y="0">l</tspan><tspan class="cls-101" x="10.67" y="0">a</tspan><tspan class="cls-44" x="17.32" y="0">s</tspan><tspan x="23.29" y="0">t</tspan><tspan class="cls-74" x="28.26" y="0">i</tspan><tspan class="cls-45" x="31.27" y="0">c </tspan><tspan class="cls-96" x="40.25" y="0">I</tspan><tspan x="43.67" y="0">P</tspan></text><path class="cls-28" d="M548.92 320.5H432.86v28.01h116.06c10.58 0 10.58-28.01 0-28.01z"/><text class="cls-27" transform="translate(449.27 337.92)"><tspan class="cls-16" x="0" y="0">I</tspan><tspan class="cls-49" x="3.41" y="0">n</tspan><tspan class="cls-81" x="10.24" y="0">t</tspan><tspan class="cls-70" x="14.94" y="0">e</tspan><tspan class="cls-16" x="21.81" y="0">r</tspan><tspan class="cls-66" x="26.6" y="0">n</tspan><tspan class="cls-34" x="33.61" y="0">e</tspan><tspan x="40.3" y="0">t </tspan><tspan class="cls-36" x="47.96" y="0">G</tspan><tspan x="57.45" y="0" letter-spacing="0">a</tspan><tspan class="cls-81" x="63.95" y="0">t</tspan><tspan class="cls-9" x="68.65" y="0">e</tspan><tspan class="cls-79" x="75.42" y="0">w</tspan><tspan class="cls-89" x="84.18" y="0">a</tspan><tspan x="90.66" y="0">y</tspan></text></g><path class="cls-24" d="M468.35 185.02h206v50h-206z"/><text class="cls-27" transform="translate(527.86 213.52)"><tspan class="cls-64" x="0" y="0">S</tspan><tspan class="cls-99" x="7.75" y="0">a</tspan><tspan class="cls-81" x="14.25" y="0">t</tspan><tspan x="18.95" y="0">e</tspan><tspan class="cls-95" x="25.82" y="0">ll</tspan><tspan class="cls-54" x="31.97" y="0">i</tspan><tspan class="cls-81" x="35.03" y="0">t</tspan><tspan x="39.73" y="0">e </tspan><tspan class="cls-75" x="49.3" y="0">S</tspan><tspan class="cls-69" x="57.03" y="0">e</tspan><tspan class="cls-51" x="63.9" y="0">r</tspan><tspan class="cls-39" x="69.05" y="0">v</tspan><tspan class="cls-70" x="75.39" y="0">e</tspan><tspan x="82.25" y="0">r</tspan></text><g><text transform="translate(359.43 361.97)" style="font-variation-settings:'wght' 500" font-family="RedHatText,&quot;Red Hat Text&quot;,Overpass,&quot;Helvetica Neue&quot;,Arial,sans-serif" font-weight="500" font-size="11" fill="#151515"><tspan x="0" y="0" letter-spacing=".01em">I</tspan><tspan x="3.17" y="0" letter-spacing="0">n</tspan><tspan x="9.49" y="0" letter-spacing="-.02em">t</tspan><tspan x="13.85" y="0" letter-spacing="0">e</tspan><tspan x="20.19" y="0" letter-spacing=".01em">r</tspan><tspan x="24.63" y="0" letter-spacing="0">n</tspan><tspan x="31.11" y="0" letter-spacing="-.01em">e</tspan><tspan x="37.29" y="0">t</tspan></text><path d="M395.41 332.12c0-7.33-5.99-13.27-13.38-13.27-5 0-9.36 2.73-11.65 6.76a9.85 9.85 0 00-1.73-.16c-5.55 0-10.05 4.46-10.05 9.97s4.5 9.97 10.05 9.97h26.76c3.69 0 6.69-2.97 6.69-6.64s-3-6.64-6.69-6.64z" stroke="#5b5b5b" stroke-width="1.5" fill="#fff" stroke-linecap="round" stroke-linejoin="round"/></g><g><text transform="translate(670.98 432.48)" style="font-variation-settings:'wght' 400" fill="#ececec" font-family="RedHatText,&quot;Red Hat Text&quot;,Overpass,&quot;Helvetica Neue&quot;,Arial,sans-serif" font-size="10"><tspan x="0" y="0" letter-spacing="0">2</tspan><tspan x="5.53" y="0" letter-spacing="0">7</tspan><tspan x="11.06" y="0" letter-spacing=".04em">8</tspan><tspan x="17.64" y="0" letter-spacing=".06em">_</tspan><tspan class="cls-44" x="22.8" y="0">S</tspan><tspan x="29.21" y="0" letter-spacing="0">a</tspan><tspan x="34.48" y="0" letter-spacing="-.01em">t</tspan><tspan x="38.14" y="0" letter-spacing="0">e</tspan><tspan x="43.81" y="0" letter-spacing=".01em">ll</tspan><tspan x="48.53" y="0" letter-spacing=".01em">i</tspan><tspan x="50.87" y="0" letter-spacing="-.01em">t</tspan><tspan x="54.53" y="0" letter-spacing=".02em">e</tspan><tspan x="60.29" y="0" letter-spacing=".02em">_</tspan><tspan x="65.07" y="0" letter-spacing=".01em">0</tspan><tspan x="71.77" y="0" letter-spacing="-.01em">9</tspan><tspan x="77.85" y="0" letter-spacing=".02em">2</tspan><tspan x="83.54" y="0" letter-spacing="0">2</tspan></text><path fill="none" d="M0 409.46h760v40H0z"/></g></svg>