<svg id="artwork" xmlns="http://www.w3.org/2000/svg" viewBox="0 0 760 382"><defs><style>.cls-3,.cls-4{fill:none}.cls-10,.cls-12,.cls-15,.cls-5,.cls-6{letter-spacing:0}.cls-17{fill:#06c}.cls-19{fill:#e6e6e6}.cls-22,.cls-23{fill:#151515}.cls-28,.cls-39,.cls-45{letter-spacing:0}.cls-46{letter-spacing:-.01em}.cls-48,.cls-49{letter-spacing:0}.cls-23{font-family:RedHatText,&quot;Red Hat Text&quot;,Overpass,&quot;Helvetica Neue&quot;,Arial,sans-serif;font-weight:500;font-size:12px;font-variation-settings:&apos;wght&apos; 500}.cls-52{letter-spacing:0}.cls-3,.cls-4{stroke:#151515;stroke-miterlimit:10}.cls-4{stroke:#06c}.cls-62,.cls-64{letter-spacing:0}.cls-67{letter-spacing:.04em}</style></defs><path class="cls-19" d="M0 110h240v50H0zM259.65 110h240v50h-240zM259.65 205h240v50h-240zM520 110h240v50H520z"/><path class="cls-3" d="M379.65 70v40M359.65 70v20H120v20M399.65 70v20H640v20M379.65 205v-35.32"/><path class="cls-22" d="M384.64 171.14l-4.99-8.64-4.99 8.64h9.98z"/><path class="cls-4" d="M359.65 315v-50.32"/><path class="cls-17" d="M364.64 266.14l-4.99-8.64-4.99 8.64h9.98z"/><path class="cls-3" d="M399.65 205v-20H640v-15.32"/><path class="cls-22" d="M644.99 171.14L640 162.5l-4.99 8.64h9.98z"/><path class="cls-4" d="M359.65 205v-20H120v-15.32"/><path class="cls-17" d="M124.99 171.14L120 162.5l-4.99 8.64h9.98zM259.65 20h240v50h-240z"/><path class="cls-3" d="M399.65 315v-50.32"/><path class="cls-22" d="M404.64 266.14l-4.99-8.64-4.99 8.64h9.98z"/><path class="cls-3" d="M319.65 315v-50.32"/><path class="cls-22" d="M324.64 266.14l-4.99-8.64-4.99 8.64h9.98z"/><path class="cls-3" d="M439.65 315v-50.32"/><path class="cls-22" d="M444.64 266.14l-4.99-8.64-4.99 8.64h9.98z"/><path class="cls-19" d="M259.65 315h240v50h-240z"/><path fill="#fff" d="M263 280.65h233.3v16.69H263z"/><text transform="translate(312.16 48.5)" style="font-variation-settings:'wght' 500" font-family="RedHatText,&quot;Red Hat Text&quot;,Overpass,&quot;Helvetica Neue&quot;,Arial,sans-serif" font-weight="500" font-size="12" fill="#fff"><tspan x="0" y="0" letter-spacing="0">R</tspan><tspan class="cls-10" x="7.97" y="0">e</tspan><tspan x="14.87" y="0">d </tspan><tspan x="24.89" y="0" letter-spacing="0">H</tspan><tspan class="cls-62" x="33.85" y="0">a</tspan><tspan x="40.35" y="0">t </tspan><tspan x="48.01" y="0" letter-spacing="0">S</tspan><tspan class="cls-62" x="55.76" y="0">a</tspan><tspan x="62.26" y="0" letter-spacing="-.02em">t</tspan><tspan x="66.96" y="0">e</tspan><tspan x="73.84" y="0" letter-spacing="0">ll</tspan><tspan x="79.98" y="0" letter-spacing="0">i</tspan><tspan x="83.04" y="0" letter-spacing="-.02em">t</tspan><tspan x="87.74" y="0">e </tspan><tspan class="cls-49" x="97.32" y="0">S</tspan><tspan class="cls-64" x="105.05" y="0">e</tspan><tspan class="cls-67" x="111.91" y="0">r</tspan><tspan class="cls-46" x="117.07" y="0">v</tspan><tspan class="cls-48" x="123.4" y="0">e</tspan><tspan x="130.27" y="0">r</tspan></text><text class="cls-23" transform="translate(362.99 344.46)"><tspan x="0" y="0" letter-spacing="-.01em">C</tspan><tspan x="8.55" y="0" letter-spacing="0">l</tspan><tspan x="11.63" y="0" letter-spacing="0">ie</tspan><tspan x="21.51" y="0" letter-spacing="-.01em">n</tspan><tspan x="28.34" y="0">t</tspan></text><text class="cls-23" transform="matrix(1.03 0 0 1 305.52 293.2)"><tspan class="cls-6" x="0" y="0">8</tspan><tspan class="cls-5" x="7.39" y="0">1</tspan><tspan x="11.46" y="0" letter-spacing="0">4</tspan><tspan x="19.39" y="0">0</tspan></text><text class="cls-23" transform="matrix(1.03 0 0 1 384.5 293.2)"><tspan x="0" y="0" letter-spacing="0">5</tspan><tspan x="7.11" y="0" letter-spacing=".01em">6</tspan><tspan x="14.88" y="0" letter-spacing="-.02em">4</tspan><tspan x="22.44" y="0" letter-spacing="0">7</tspan></text><text class="cls-23" transform="matrix(1.03 0 0 1 428.25 293.2)"><tspan x="0" y="0" letter-spacing="-.02em">4</tspan><tspan x="7.6" y="0" letter-spacing="0">3</tspan><tspan x="14.88" y="0">3</tspan></text><text transform="matrix(1.03 0 0 1 347.74 293.2)" style="font-variation-settings:'wght' 500" font-family="RedHatText,&quot;Red Hat Text&quot;,Overpass,&quot;Helvetica Neue&quot;,Arial,sans-serif" font-weight="500" font-size="12" fill="#06c"><tspan class="cls-6" x="0" y="0">8</tspan><tspan class="cls-5" x="7.39" y="0">1</tspan><tspan x="11.46" y="0" letter-spacing="-.02em">4</tspan><tspan x="19.05" y="0" letter-spacing="0">1</tspan></text><text class="cls-23" transform="translate(328.84 234.46)"><tspan x="0" y="0" letter-spacing="-.05em">T</tspan><tspan x="7.06" y="0" letter-spacing="-.01em">C</tspan><tspan class="cls-39" x="15.58" y="0">P </tspan><tspan class="cls-12" x="26.43" y="0">l</tspan><tspan x="29.5" y="0" letter-spacing="0">o</tspan><tspan class="cls-10" x="36.64" y="0">a</tspan><tspan class="cls-39" x="43.26" y="0">d </tspan><tspan x="53.28" y="0" letter-spacing="0">b</tspan><tspan class="cls-28" x="60.59" y="0">a</tspan><tspan x="67.25" y="0">l</tspan><tspan class="cls-45" x="70.27" y="0">a</tspan><tspan x="76.92" y="0">n</tspan><tspan x="83.91" y="0" letter-spacing="-.01em">c</tspan><tspan class="cls-64" x="90.05" y="0">e</tspan><tspan x="96.91" y="0">r</tspan></text><text class="cls-23" transform="translate(331.95 139.46)"><tspan class="cls-52" x="0" y="0">C</tspan><tspan class="cls-45" x="8.7" y="0">a</tspan><tspan class="cls-10" x="15.36" y="0">p</tspan><tspan class="cls-15" x="22.71" y="0">s</tspan><tspan class="cls-28" x="28.51" y="0">u</tspan><tspan class="cls-12" x="35.54" y="0">l</tspan><tspan x="38.61" y="0">e </tspan><tspan class="cls-49" x="48.18" y="0">S</tspan><tspan class="cls-48" x="55.91" y="0">e</tspan><tspan class="cls-67" x="62.78" y="0">r</tspan><tspan class="cls-46" x="67.93" y="0">v</tspan><tspan class="cls-48" x="74.27" y="0">e</tspan><tspan x="81.13" y="0">r 2</tspan></text><text class="cls-23" transform="translate(592.1 139.46)"><tspan class="cls-52" x="0" y="0">C</tspan><tspan class="cls-45" x="8.7" y="0">a</tspan><tspan class="cls-10" x="15.36" y="0">p</tspan><tspan class="cls-15" x="22.71" y="0">s</tspan><tspan class="cls-28" x="28.51" y="0">u</tspan><tspan class="cls-12" x="35.54" y="0">l</tspan><tspan x="38.61" y="0">e </tspan><tspan class="cls-49" x="48.18" y="0">S</tspan><tspan class="cls-48" x="55.91" y="0">e</tspan><tspan class="cls-67" x="62.78" y="0">r</tspan><tspan class="cls-46" x="67.93" y="0">v</tspan><tspan class="cls-48" x="74.27" y="0">e</tspan><tspan x="81.13" y="0">r 3</tspan></text><text class="cls-23" transform="translate(73.8 139.46)"><tspan class="cls-52" x="0" y="0">C</tspan><tspan class="cls-45" x="8.7" y="0">a</tspan><tspan class="cls-10" x="15.36" y="0">p</tspan><tspan class="cls-15" x="22.71" y="0">s</tspan><tspan class="cls-28" x="28.51" y="0">u</tspan><tspan class="cls-12" x="35.54" y="0">l</tspan><tspan x="38.61" y="0">e </tspan><tspan class="cls-49" x="48.18" y="0">S</tspan><tspan class="cls-48" x="55.91" y="0">e</tspan><tspan class="cls-67" x="62.78" y="0">r</tspan><tspan class="cls-46" x="67.93" y="0">v</tspan><tspan class="cls-48" x="74.27" y="0">e</tspan><tspan x="81.13" y="0">r 1</tspan></text><g><text transform="translate(670.98 365.02)" style="font-variation-settings:'wght' 400" fill="#ececec" font-family="RedHatText,&quot;Red Hat Text&quot;,Overpass,&quot;Helvetica Neue&quot;,Arial,sans-serif" font-size="10"><tspan x="0" y="0" letter-spacing="0">2</tspan><tspan x="5.53" y="0" letter-spacing="0">7</tspan><tspan x="11.06" y="0" letter-spacing=".04em">8</tspan><tspan x="17.64" y="0" letter-spacing=".06em">_</tspan><tspan x="22.8" y="0" letter-spacing=".02em">S</tspan><tspan x="29.21" y="0" letter-spacing="0">a</tspan><tspan x="34.48" y="0" letter-spacing="-.01em">t</tspan><tspan x="38.14" y="0" letter-spacing="0">e</tspan><tspan x="43.81" y="0" letter-spacing=".01em">ll</tspan><tspan x="48.53" y="0" letter-spacing=".01em">i</tspan><tspan x="50.87" y="0" letter-spacing="-.01em">t</tspan><tspan x="54.53" y="0" letter-spacing=".02em">e</tspan><tspan x="60.29" y="0" letter-spacing=".02em">_</tspan><tspan x="65.07" y="0" letter-spacing=".01em">0</tspan><tspan x="71.77" y="0" letter-spacing="-.01em">9</tspan><tspan x="77.85" y="0" letter-spacing=".02em">2</tspan><tspan x="83.54" y="0" letter-spacing="0">2</tspan></text><path fill="none" d="M0 342h760v40H0z"/></g></svg>