<svg id="artwork" xmlns="http://www.w3.org/2000/svg" viewBox="0 0 760 510"><defs><style>.cls-10,.cls-11,.cls-3,.cls-4,.cls-5,.cls-6,.cls-7,.cls-8{fill:none}.cls-10,.cls-11,.cls-12,.cls-3,.cls-4,.cls-5,.cls-6,.cls-7,.cls-8{stroke-linecap:round;stroke-linejoin:round}.cls-10,.cls-12,.cls-3,.cls-7,.cls-8{stroke:#5b5b5b}.cls-12,.cls-3{stroke-width:1.5px}.cls-4{stroke:#151515}.cls-5,.cls-6{stroke:#bfbfbf}.cls-6{stroke-dasharray:0 0 3.16 3.16}.cls-22{font-family:RedHatText,&quot;Red Hat Text&quot;,Overpass,&quot;Helvetica Neue&quot;,Arial,sans-serif;font-weight:700;font-variation-settings:&apos;wght&apos; 700}.cls-12,.cls-22,.cls-23{fill:#fff}.cls-22{font-size:12px}.cls-25{fill:#06c}.cls-28,.cls-29{fill:#151515}.cls-32{letter-spacing:.04em}.cls-7{stroke-dasharray:0 0 0 4.04}.cls-10,.cls-7,.cls-8{stroke-width:2px}.cls-29{font-size:11px;font-family:RedHatText,&quot;Red Hat Text&quot;,Overpass,&quot;Helvetica Neue&quot;,Arial,sans-serif;font-weight:500;font-variation-settings:&apos;wght&apos; 500}.cls-11{stroke:#e8e8e8;stroke-width:3px}.cls-10{stroke-dasharray:0 0 0 4.24}.cls-61{letter-spacing:.01em}.cls-67,.cls-69{letter-spacing:0}.cls-74{letter-spacing:-.02em}</style></defs><text transform="translate(670.98 493.02)" style="font-variation-settings:'wght' 400" fill="#ececec" font-family="RedHatText,&quot;Red Hat Text&quot;,Overpass,&quot;Helvetica Neue&quot;,Arial,sans-serif" font-size="10"><tspan x="0" y="0" letter-spacing="0">2</tspan><tspan x="5.53" y="0" letter-spacing="0">7</tspan><tspan x="11.06" y="0" letter-spacing=".04em">8</tspan><tspan x="17.64" y="0" letter-spacing=".06em">_</tspan><tspan x="22.8" y="0" letter-spacing=".02em">S</tspan><tspan x="29.21" y="0" letter-spacing="0">a</tspan><tspan x="34.48" y="0" letter-spacing="-.01em">t</tspan><tspan x="38.14" y="0" letter-spacing="0">e</tspan><tspan x="43.81" y="0" letter-spacing=".01em">ll</tspan><tspan x="48.53" y="0" letter-spacing=".01em">i</tspan><tspan x="50.87" y="0" letter-spacing="-.01em">t</tspan><tspan x="54.53" y="0" letter-spacing=".02em">e</tspan><tspan x="60.29" y="0" letter-spacing=".02em">_</tspan><tspan x="65.07" y="0" letter-spacing=".01em">0</tspan><tspan x="71.77" y="0" letter-spacing="-.01em">9</tspan><tspan x="77.85" y="0" letter-spacing=".02em">2</tspan><tspan x="83.54" y="0" letter-spacing="0">2</tspan></text><path fill="none" d="M0 470h760v40H0z"/><path fill="#e8e8e8" d="M0 20h760v450H0z"/><path class="cls-4" d="M210.77 84H72v210.96h148.44"/><path class="cls-28" d="M209.31 79.01l8.63 4.99-8.63 4.99v-9.98z"/><path class="cls-4" d="M607.35 266.5V385H450.12"/><path class="cls-28" d="M451.58 380.01l-8.64 4.99 8.64 4.99v-9.98z"/><circle class="cls-25" cx="72" cy="197.14" r="12"/><text class="cls-22" transform="translate(68.42 201.05)"><tspan x="0" y="0">2</tspan></text><path class="cls-4" d="M220.44 104H107v170.96h103.77"/><path class="cls-28" d="M209.31 279.95l8.63-4.99-8.63-4.98v9.97z"/><circle class="cls-25" cx="107" cy="197.14" r="12"/><text class="cls-22" transform="translate(103.2 201.05)"><tspan x="0" y="0">3</tspan></text><circle class="cls-25" cx="607.35" cy="328.67" r="12"/><text class="cls-22" transform="translate(603.2 332.58)"><tspan x="0" y="0">4</tspan></text><path class="cls-4" d="M642.35 276.18V405H440.44"/><path class="cls-28" d="M637.36 277.64l4.99-8.64 4.98 8.64h-9.97z"/><circle class="cls-25" cx="642.52" cy="328.67" r="12"/><text class="cls-22" transform="translate(638.82 332.58)"><tspan x="0" y="0">5</tspan></text><path class="cls-4" d="M219.94 64H37v250.96h173.77"/><path class="cls-28" d="M209.31 319.95l8.63-4.99-8.63-4.98v9.97z"/><circle class="cls-25" cx="37" cy="197.14" r="12"/><text class="cls-22" transform="translate(34.69 201.05)"><tspan x="0" y="0">1</tspan></text><path class="cls-23" d="M220.44 45h220v143h-220z"/><path class="cls-4" d="M625 166.5V84H450.12"/><path class="cls-28" d="M451.58 79.01L442.94 84l8.64 4.99v-9.98z"/><path class="cls-23" d="M515 166.5h220v100H515z"/><path class="cls-4" d="M330.44 173v61.88"/><path class="cls-28" d="M325.46 233.42l4.98 8.63 4.99-8.63h-9.97z"/><g><circle class="cls-25" cx="551.47" cy="84" r="12"/><text class="cls-22" transform="translate(547.56 87.91)"><tspan x="0" y="0">6</tspan></text></g><g><circle class="cls-25" cx="330.44" cy="208.74" r="12"/><text class="cls-22" transform="translate(326.74 212.66)"><tspan x="0" y="0">7</tspan></text></g><g><path class="cls-5" d="M223.73 84h1.5"/><path class="cls-6" d="M228.39 84h4.84c5.5 0 10 4.5 10 10s-4.5 10-10 10h-6.42"/><path class="cls-5" d="M225.23 104h-1.5"/></g><g><text class="cls-29" transform="translate(285.54 98.33)"><tspan x="0" y="0" letter-spacing=".01em">S</tspan><tspan x="7.15" y="0" letter-spacing="0">a</tspan><tspan class="cls-74" x="13.16" y="0">t</tspan><tspan x="17.52" y="0" letter-spacing="0">e</tspan><tspan x="23.88" y="0" letter-spacing="0">ll</tspan><tspan x="29.6" y="0" letter-spacing="0">i</tspan><tspan class="cls-74" x="32.46" y="0">t</tspan><tspan x="36.82" y="0" letter-spacing="0">e 6 </tspan><tspan class="cls-61" x="55.04" y="0">S</tspan><tspan class="cls-69" x="62.17" y="0">e</tspan><tspan class="cls-32" x="68.51" y="0">r</tspan><tspan x="73.28" y="0" letter-spacing="0">v</tspan><tspan x="79.14" y="0" letter-spacing="0">e</tspan><tspan class="cls-67" x="85.48" y="0">r</tspan></text><path class="cls-12" d="M311.93 67.49h36.9v14.25h-36.9z"/><path class="cls-8" d="M342.94 74.47"/><path class="cls-3" d="M317.56 74.6h8.72"/></g><g><text class="cls-29" transform="translate(601.9 230.83)"><tspan x="0" y="0" letter-spacing=".03em">V</tspan><tspan x="7.95" y="0" letter-spacing="0">i</tspan><tspan x="10.82" y="0" letter-spacing=".04em">r</tspan><tspan x="15.53" y="0" letter-spacing="-.02em">t</tspan><tspan x="19.85" y="0" letter-spacing="0">-</tspan><tspan x="25.01" y="0" letter-spacing="0">wh</tspan><tspan x="39.64" y="0">o</tspan></text><path class="cls-12" d="M606.48 199.99h36.9v14.25h-36.9z"/><path class="cls-8" d="M637.49 206.97"/><path class="cls-3" d="M612.12 207.1h8.72"/></g><path class="cls-23" d="M220.44 245h220v100h-220zM220.44 345h220v100h-220z"/><g><path class="cls-11" d="M220.44 345h3"/><path stroke="#e8e8e8" stroke-width="3" stroke-dasharray="0 0 6.11 6.11" stroke-linecap="round" stroke-linejoin="round" fill="none" d="M229.56 345h204.83"/><path class="cls-11" d="M437.44 345h3"/></g><g><path class="cls-5" d="M223.73 294.96h1.5"/><path class="cls-6" d="M228.39 294.96h4.84c5.5 0 10 4.5 10 10s-4.5 10-10 10h-6.42"/><path class="cls-5" d="M225.23 314.96h-1.5"/></g><g><path class="cls-5" d="M437.16 385h-1.5"/><path class="cls-6" d="M432.5 385h-4.84c-5.5 0-10 4.5-10 10s4.5 10 10 10h6.42"/><path class="cls-5" d="M435.66 405h1.5"/></g><g><text class="cls-29" transform="translate(299.44 309.33)"><tspan x="0" y="0" letter-spacing=".02em">R</tspan><tspan class="cls-61" x="7.57" y="0">H</tspan><tspan x="15.91" y="0" letter-spacing="0">E</tspan><tspan x="22.92" y="0">L </tspan><tspan x="32.28" y="0" letter-spacing="0">g</tspan><tspan x="39.07" y="0" letter-spacing="0">u</tspan><tspan x="45.55" y="0" letter-spacing="0">e</tspan><tspan x="51.95" y="0" letter-spacing=".02em">s</tspan><tspan x="57.46" y="0">t</tspan></text><path class="cls-12" d="M311.93 278.49h36.9v14.25h-36.9z"/><path class="cls-8" d="M342.94 285.47"/><path class="cls-3" d="M317.57 285.6h8.71"/></g><g><text class="cls-29" transform="translate(301.68 419.91)"><tspan x="0" y="0" letter-spacing="0">H</tspan><tspan x="8.29" y="0" letter-spacing=".01em">y</tspan><tspan x="14.33" y="0" letter-spacing="0">p</tspan><tspan class="cls-69" x="21.1" y="0">e</tspan><tspan class="cls-32" x="27.44" y="0">r</tspan><tspan x="32.21" y="0" letter-spacing=".01em">v</tspan><tspan x="38.31" y="0" letter-spacing="0">i</tspan><tspan x="41.18" y="0" letter-spacing="0">s</tspan><tspan x="46.56" y="0" letter-spacing="0">o</tspan><tspan class="cls-67" x="53.21" y="0">r</tspan></text><path class="cls-8" d="M312.18 384.93"/><path class="cls-10" d="M312.18 380.69v-6.36"/><path class="cls-8" d="M312.18 372.21"/><path class="cls-7" d="M316.22 372.21h30.33"/><path class="cls-8" d="M348.58 372.21"/><path class="cls-10" d="M348.58 376.45v6.36"/><path class="cls-8" d="M348.58 384.93"/><path class="cls-7" d="M344.53 384.93H314.2"/><g><path class="cls-12" d="M311.93 389.1h36.9v14.25h-36.9z"/><path class="cls-8" d="M342.94 396.08"/><path class="cls-3" d="M317.56 396.21h8.72"/></g></g><g><path fill="#d9e8f7" d="M235.44 123h190v50h-190z"/><text transform="translate(278.15 151.5)" style="font-variation-settings:'wght' 500" font-family="RedHatText,&quot;Red Hat Text&quot;,Overpass,&quot;Helvetica Neue&quot;,Arial,sans-serif" font-weight="500" fill="#151515" font-size="12"><tspan x="0" y="0" letter-spacing="0">S</tspan><tspan x="7.74" y="0" letter-spacing="0">u</tspan><tspan x="14.78" y="0" letter-spacing="0">b</tspan><tspan x="22.13" y="0" letter-spacing="0">s</tspan><tspan x="27.94" y="0" letter-spacing="0">c</tspan><tspan x="34.24" y="0" letter-spacing="0">r</tspan><tspan x="39.03" y="0" letter-spacing="0">i</tspan><tspan x="42.11" y="0" letter-spacing="-.02em">p</tspan><tspan x="49.21" y="0">t</tspan><tspan x="54.17" y="0" letter-spacing="0">i</tspan><tspan x="57.19" y="0" letter-spacing="0">o</tspan><tspan x="64.38" y="0" letter-spacing="0">n</tspan><tspan x="71.43" y="0">s po</tspan><tspan x="94.38" y="0" letter-spacing="0">o</tspan><tspan x="101.57" y="0">l</tspan></text></g></svg>