<svg id="e64de2d7-2bae-4611-be4b-31b1a27aaa8f" data-name="artwork" xmlns="http://www.w3.org/2000/svg" width="760" height="614.323"><defs><style>.a6b34f11-2f78-4988-8019-f3cea0cdce00,.b167b344-fa94-499c-8ad3-572564654958,.b19bd1b3-e465-4799-b554-893c1ebf68f5,.b1c054f1-810d-4ef7-a484-765207d7d221,.b38a1792-e3bd-48ab-9b50-397d06e504dc,.b6a41852-e9e5-49f2-936c-ae3d5e8e90c1,.ba914704-ed96-468b-94dc-a454879a92c1{fill:none}.f1131e2d-1d2b-4c48-8b03-0eda7b6949a3{fill:#e8e8e8}.a3e5b7e3-4d92-407e-9b1c-4237c38df314,.f30da0ff-f535-4a0f-a613-1227854c12cd{font-size:11px}.a3e5b7e3-4d92-407e-9b1c-4237c38df314,.a7e7dbc3-070c-4dff-905d-2da96daea9b4,.f30da0ff-f535-4a0f-a613-1227854c12cd{fill:#151515}.a3e5b7e3-4d92-407e-9b1c-4237c38df314{font-family:RedHatText,&quot;Red Hat Text&quot;,Overpass,&quot;Helvetica Neue&quot;,Arial,sans-serif;font-weight:500}.b1c054f1-810d-4ef7-a484-765207d7d221{stroke:#151515}.a6b34f11-2f78-4988-8019-f3cea0cdce00,.b19bd1b3-e465-4799-b554-893c1ebf68f5,.b1c054f1-810d-4ef7-a484-765207d7d221,.b38a1792-e3bd-48ab-9b50-397d06e504dc,.b6a41852-e9e5-49f2-936c-ae3d5e8e90c1,.f2b88e6b-3cf7-4b0c-900c-1848743ac1d6{stroke-linecap:round;stroke-linejoin:round}.a6bf004c-5279-4b98-b1fc-08c707dd68eb,.f2b88e6b-3cf7-4b0c-900c-1848743ac1d6{fill:#fff}.f30da0ff-f535-4a0f-a613-1227854c12cd{font-family:RedHatText,&quot;Red Hat Text&quot;,Overpass,&quot;Helvetica Neue&quot;,Arial,sans-serif;font-weight:700}.ba914704-ed96-468b-94dc-a454879a92c1{stroke:#f3f3f3}.b167b344-fa94-499c-8ad3-572564654958,.ba914704-ed96-468b-94dc-a454879a92c1{stroke-miterlimit:10}.b6a41852-e9e5-49f2-936c-ae3d5e8e90c1,.ba914704-ed96-468b-94dc-a454879a92c1,.f2b88e6b-3cf7-4b0c-900c-1848743ac1d6{stroke-width:1.5px}.a1b8e851-8d80-4069-8ec3-2acfe600332d{fill:#06c}.e48e1f0e-4d61-4d94-a5b4-533475f7e459{fill:#d9e8f7}.b19bd1b3-e465-4799-b554-893c1ebf68f5,.b38a1792-e3bd-48ab-9b50-397d06e504dc{stroke:#06c}.b38a1792-e3bd-48ab-9b50-397d06e504dc{stroke-dasharray:2.97 2.97}.a6b34f11-2f78-4988-8019-f3cea0cdce00,.b167b344-fa94-499c-8ad3-572564654958{stroke:#fff}.a6b34f11-2f78-4988-8019-f3cea0cdce00{stroke-width:2px}.b167b344-fa94-499c-8ad3-572564654958{stroke-width:8px}.b6a41852-e9e5-49f2-936c-ae3d5e8e90c1,.f2b88e6b-3cf7-4b0c-900c-1848743ac1d6{stroke:#5b5b5b}</style></defs><text transform="translate(664.472 597.34)" font-size="10" fill="#f3f3f3" font-family="RedHatText,&quot;Red Hat Text&quot;,Overpass,&quot;Helvetica Neue&quot;,Arial,sans-serif">143_OpenStack_0321</text><path fill="none" d="M0 574.323h760v40H0z"/><path class="f1131e2d-1d2b-4c48-8b03-0eda7b6949a3" transform="rotate(-180 50 174.698)" d="M0 109.698h100v130H0z"/><text class="a3e5b7e3-4d92-407e-9b1c-4237c38df314" transform="translate(10 128.959)">Container</text><path class="f1131e2d-1d2b-4c48-8b03-0eda7b6949a3" transform="rotate(-180 175 174.698)" d="M115 109.698h120v130H115z"/><path class="b1c054f1-810d-4ef7-a484-765207d7d221" d="M50 229.698v67.658h210.361"/><path class="a7e7dbc3-070c-4dff-905d-2da96daea9b4" d="M258.902 302.342l8.635-4.986-8.635-4.987v9.973z"/><path class="b1c054f1-810d-4ef7-a484-765207d7d221" d="M175 239.374v42.953h85.361"/><path class="a7e7dbc3-070c-4dff-905d-2da96daea9b4" d="M170.014 240.833l4.986-8.635 4.986 8.635h-9.972zM258.902 287.313l8.635-4.986-8.635-4.986v9.972z"/><text class="a3e5b7e3-4d92-407e-9b1c-4237c38df314" transform="translate(125 128.959)">Container</text><path class="a6bf004c-5279-4b98-b1fc-08c707dd68eb" transform="rotate(-180 175 184.698)" d="M125 139.698h100v90H125z"/><text class="f30da0ff-f535-4a0f-a613-1227854c12cd" transform="translate(135 159.802)">Octavia API</text><path class="b1c054f1-810d-4ef7-a484-765207d7d221" d="M215 194.698h49.783"/><path class="a7e7dbc3-070c-4dff-905d-2da96daea9b4" d="M263.324 199.684l8.636-4.986-8.636-4.986v9.972z"/><path class="f1131e2d-1d2b-4c48-8b03-0eda7b6949a3" transform="rotate(-180 175 194.698)" d="M135 169.698h80v50h-80z"/><text class="a3e5b7e3-4d92-407e-9b1c-4237c38df314" transform="translate(151.312 191.745)">Amphora<tspan x="8.492" y="12">driver</tspan></text><path class="ba914704-ed96-468b-94dc-a454879a92c1" d="M354.25 99.698h120v130"/><path class="ba914704-ed96-468b-94dc-a454879a92c1" d="M349.25 104.698h120v130"/><path class="f1131e2d-1d2b-4c48-8b03-0eda7b6949a3" transform="rotate(-180 403.75 174.698)" d="M343.75 109.698h120v130h-120z"/><text class="a3e5b7e3-4d92-407e-9b1c-4237c38df314" transform="translate(353.75 128.959)">Container</text><path class="a6bf004c-5279-4b98-b1fc-08c707dd68eb" transform="rotate(-180 403.75 184.698)" d="M353.75 139.698h100v90h-100z"/><text class="f30da0ff-f535-4a0f-a613-1227854c12cd" transform="translate(363.75 159.802)">Controller<tspan x="0" y="12">Worker</tspan></text><path class="a6bf004c-5279-4b98-b1fc-08c707dd68eb" d="M364.75 190.698h78v28h-78z"/><path class="a1b8e851-8d80-4069-8ec3-2acfe600332d" d="M441.75 191.7v26h-76v-26h76m2-2h-80v30h80v-30z"/><path class="e48e1f0e-4d61-4d94-a5b4-533475f7e459" transform="rotate(-180 403.75 204.698)" d="M368.75 194.698h70v20h-70z"/><path class="ba914704-ed96-468b-94dc-a454879a92c1" d="M496.75 99.698h120v130"/><path class="ba914704-ed96-468b-94dc-a454879a92c1" d="M491.75 104.698h120v130"/><path class="f1131e2d-1d2b-4c48-8b03-0eda7b6949a3" transform="rotate(-180 546.25 174.698)" d="M486.25 109.698h120v130h-120z"/><text class="a3e5b7e3-4d92-407e-9b1c-4237c38df314" transform="translate(496.25 128.959)">Container</text><path class="a6bf004c-5279-4b98-b1fc-08c707dd68eb" transform="rotate(-180 546.25 184.698)" d="M496.25 139.698h100v90h-100z"/><text class="f30da0ff-f535-4a0f-a613-1227854c12cd" transform="translate(506.25 159.802)">Health<tspan x="0" y="12">Manager</tspan></text><path class="a6bf004c-5279-4b98-b1fc-08c707dd68eb" d="M507.25 190.698h78v28h-78z"/><path class="a1b8e851-8d80-4069-8ec3-2acfe600332d" d="M584.25 191.7v26h-76v-26h76m2-2h-80v30h80v-30z"/><path class="ba914704-ed96-468b-94dc-a454879a92c1" d="M639.25 99.698h120v130"/><path class="ba914704-ed96-468b-94dc-a454879a92c1" d="M634.25 104.698h120v130"/><path class="f1131e2d-1d2b-4c48-8b03-0eda7b6949a3" transform="rotate(-180 688.75 174.698)" d="M628.75 109.698h120v130h-120z"/><text class="a3e5b7e3-4d92-407e-9b1c-4237c38df314" transform="translate(638.75 128.959)">Container</text><path class="a6bf004c-5279-4b98-b1fc-08c707dd68eb" transform="rotate(-180 688.75 184.698)" d="M638.75 139.698h100v90h-100z"/><text class="f30da0ff-f535-4a0f-a613-1227854c12cd" transform="translate(648.75 159.802)">Housekeeping<tspan x="0" y="12">Manager</tspan></text><path class="a6bf004c-5279-4b98-b1fc-08c707dd68eb" d="M649.75 190.698h78v28h-78z"/><path class="a1b8e851-8d80-4069-8ec3-2acfe600332d" d="M726.75 191.7v26h-76v-26h76m2-2h-80v30h80v-30z"/><path class="a6bf004c-5279-4b98-b1fc-08c707dd68eb" d="M344.25 254.714l162.5-35.516"/><path class="b19bd1b3-e465-4799-b554-893c1ebf68f5" d="M344.25 254.714l1.465-.32"/><path class="b38a1792-e3bd-48ab-9b50-397d06e504dc" d="M348.617 253.76l155.217-33.925"/><path class="b19bd1b3-e465-4799-b554-893c1ebf68f5" d="M505.285 219.518l1.465-.32"/><path class="a6bf004c-5279-4b98-b1fc-08c707dd68eb" d="M585.75 219.198l162.5 35.516"/><path class="b19bd1b3-e465-4799-b554-893c1ebf68f5" d="M585.75 219.198l1.465.32"/><path class="b38a1792-e3bd-48ab-9b50-397d06e504dc" d="M590.117 220.152l155.217 33.925"/><path class="b19bd1b3-e465-4799-b554-893c1ebf68f5" d="M746.785 254.394l1.465.32"/><path class="e48e1f0e-4d61-4d94-a5b4-533475f7e459" transform="rotate(-180 546.25 204.698)" d="M511.25 194.698h70v20h-70z"/><path class="e48e1f0e-4d61-4d94-a5b4-533475f7e459" transform="rotate(-180 688.75 204.698)" d="M653.75 194.698h70v20h-70z"/><path class="b1c054f1-810d-4ef7-a484-765207d7d221" d="M302.875 194.698h41.199"/><path class="a7e7dbc3-070c-4dff-905d-2da96daea9b4" d="M342.615 199.684l8.635-4.986-8.635-4.986v9.972z"/><path class="a6bf004c-5279-4b98-b1fc-08c707dd68eb" d="M344.75 255.698h403v123h-403z"/><path class="a1b8e851-8d80-4069-8ec3-2acfe600332d" d="M746.75 256.7v121h-401v-121h401m2-2h-405v125h405v-125z"/><path class="f1131e2d-1d2b-4c48-8b03-0eda7b6949a3" transform="rotate(-180 497.5 432.198)" d="M451.25 399.698h92.5v65h-92.5z"/><path class="f1131e2d-1d2b-4c48-8b03-0eda7b6949a3" transform="rotate(-180 595 432.198)" d="M548.75 399.698h92.5v65h-92.5z"/><path class="f1131e2d-1d2b-4c48-8b03-0eda7b6949a3" transform="rotate(-180 692.5 432.198)" d="M646.25 399.698h92.5v65h-92.5z"/><text class="a3e5b7e3-4d92-407e-9b1c-4237c38df314" transform="translate(486.483 423.245)">Key <tspan x="-11.792" y="12">Manager</tspan><tspan x="-7.326" y="24">service</tspan></text><text class="a3e5b7e3-4d92-407e-9b1c-4237c38df314" transform="translate(570.927 429.245)">Compute<tspan x="5.731" y="12">service</tspan></text><text class="a3e5b7e3-4d92-407e-9b1c-4237c38df314" transform="translate(663.669 423.245)">OpenStack<tspan x="-1.199" y="12">Networking</tspan><tspan x="10.488" y="24">service</tspan></text><path class="a6b34f11-2f78-4988-8019-f3cea0cdce00" d="M341.298 289.699h3.1"/><path class="a6bf004c-5279-4b98-b1fc-08c707dd68eb" d="M341.479 299.672l17.271-9.973-17.271-9.972v19.945z"/><path class="b1c054f1-810d-4ef7-a484-765207d7d221" d="M318.18 289.698h25.894"/><path class="a7e7dbc3-070c-4dff-905d-2da96daea9b4" d="M319.639 294.684l-8.636-4.986 8.636-4.986v9.972zM342.615 294.684l8.635-4.986-8.635-4.986v9.972z"/><path class="e48e1f0e-4d61-4d94-a5b4-533475f7e459" transform="rotate(-180 546.25 289.698)" d="M353.75 264.698h385v50h-385z"/><text class="a3e5b7e3-4d92-407e-9b1c-4237c38df314" transform="translate(461.391 292.745)">Controller Worker driver</text><path class="b167b344-fa94-499c-8ad3-572564654958" d="M497.5 397.198v-27.5M595 397.198v-27.5M692.5 397.198v-27.5"/><path class="b1c054f1-810d-4ef7-a484-765207d7d221" d="M497.5 390.022v-20.324"/><path class="a7e7dbc3-070c-4dff-905d-2da96daea9b4" d="M502.486 388.563l-4.986 8.635-4.986-8.635h9.972z"/><path class="b1c054f1-810d-4ef7-a484-765207d7d221" d="M595 390.022v-20.324"/><path class="a7e7dbc3-070c-4dff-905d-2da96daea9b4" d="M599.986 388.563L595 397.198l-4.986-8.635h9.972z"/><g><path class="b1c054f1-810d-4ef7-a484-765207d7d221" d="M692.5 390.022v-20.324"/><path class="a7e7dbc3-070c-4dff-905d-2da96daea9b4" d="M697.486 388.563l-4.986 8.635-4.986-8.635h9.972z"/></g><path class="e48e1f0e-4d61-4d94-a5b4-533475f7e459" transform="rotate(-180 497.5 344.698)" d="M451.25 319.698h92.5v50h-92.5z"/><path class="e48e1f0e-4d61-4d94-a5b4-533475f7e459" transform="rotate(-180 595 344.698)" d="M548.75 319.698h92.5v50h-92.5z"/><path class="e48e1f0e-4d61-4d94-a5b4-533475f7e459" transform="rotate(-180 692.5 344.698)" d="M646.25 319.698h92.5v50h-92.5z"/><text class="a3e5b7e3-4d92-407e-9b1c-4237c38df314" transform="translate(469.571 341.745)">Certificate<tspan x="12.732" y="12">driver</tspan></text><text class="a3e5b7e3-4d92-407e-9b1c-4237c38df314" transform="translate(570.927 341.745)">Compute<tspan x="8.877" y="12">driver</tspan></text><text class="a3e5b7e3-4d92-407e-9b1c-4237c38df314" transform="translate(670.406 341.745)">Network<tspan x="6.897" y="12">driver</tspan></text><path stroke-width="8" stroke="#fff" stroke-linecap="round" stroke-linejoin="round" fill="none" d="M390.006 396.152v-29.408"/><g><path class="b1c054f1-810d-4ef7-a484-765207d7d221" d="M390 507.022V369.698"/><path class="a7e7dbc3-070c-4dff-905d-2da96daea9b4" d="M394.986 505.563L390 514.198l-4.986-8.635h9.972z"/></g><g><path class="a6b34f11-2f78-4988-8019-f3cea0cdce00" d="M410 387.15v-8.099"/><path class="a6bf004c-5279-4b98-b1fc-08c707dd68eb" d="M419.973 381.969L410 364.698l-9.973 17.271h19.946z"/></g><g><path class="b1c054f1-810d-4ef7-a484-765207d7d221" d="M410 516.698V379.374"/><path class="a7e7dbc3-070c-4dff-905d-2da96daea9b4" d="M414.986 380.833L410 372.198l-4.986 8.635h9.972z"/></g><text class="a3e5b7e3-4d92-407e-9b1c-4237c38df314" transform="translate(1.499 505.86)">Load-balancing management network</text><path stroke="#c0d682" stroke-width="3" stroke-linecap="round" stroke-linejoin="round" fill="none" d="M1.5 490.157h757"/><path class="a6bf004c-5279-4b98-b1fc-08c707dd68eb" transform="rotate(-180 50 184.698)" d="M10 139.698h80v90H10z"/><text class="f30da0ff-f535-4a0f-a613-1227854c12cd" transform="translate(20 159.802)">Driver<tspan x="0" y="12">agent</tspan></text><path class="e48e1f0e-4d61-4d94-a5b4-533475f7e459" transform="rotate(-180 400 344.698)" d="M353.75 319.698h92.5v50h-92.5z"/><text class="a3e5b7e3-4d92-407e-9b1c-4237c38df314" transform="translate(376.312 341.745)">Amphora<tspan x="8.492" y="12">driver</tspan></text><g><path class="b1c054f1-810d-4ef7-a484-765207d7d221" d="M175 100.022V79.986"/><path class="a7e7dbc3-070c-4dff-905d-2da96daea9b4" d="M179.986 98.563L175 107.198l-4.986-8.635h9.972z"/></g><path class="f1131e2d-1d2b-4c48-8b03-0eda7b6949a3" d="M552.25 518.2v67h-207v-67h207m1.5-1.5h-210v70h210v-70z"/><path class="f1131e2d-1d2b-4c48-8b03-0eda7b6949a3" transform="rotate(-180 400 551.698)" d="M353.75 526.698h92.5v50h-92.5z"/><text class="a3e5b7e3-4d92-407e-9b1c-4237c38df314" transform="translate(376.312 554.745)">Amphora</text><path class="f1131e2d-1d2b-4c48-8b03-0eda7b6949a3" transform="rotate(-180 497.5 551.698)" d="M451.25 526.698h92.5v50h-92.5z"/><text class="a3e5b7e3-4d92-407e-9b1c-4237c38df314" transform="translate(473.812 554.745)">Amphora</text><path class="ba914704-ed96-468b-94dc-a454879a92c1" d="M353.75 596.698h210v-70"/><path class="ba914704-ed96-468b-94dc-a454879a92c1" d="M348.75 591.698h210v-70"/><g><text class="a3e5b7e3-4d92-407e-9b1c-4237c38df314" transform="translate(261.748 226.828)">Messaging<tspan x="-3.388" y="12">(RabbitMQ)</tspan></text><path class="f2b88e6b-3cf7-4b0c-900c-1848743ac1d6" d="M303.52 210.275h-28.292v-31.011l5.761-5.766h22.531v36.777z"/><path class="b6a41852-e9e5-49f2-936c-ae3d5e8e90c1" d="M280.989 179.264h-5.761l5.761-5.766v5.766zM280.867 186.233h8.507M280.867 191.868h17.014M280.867 197.503h17.014M280.867 203.138h17.014"/></g><g><text class="a3e5b7e3-4d92-407e-9b1c-4237c38df314" transform="translate(151.114 73.82)">Operator</text><path class="f2b88e6b-3cf7-4b0c-900c-1848743ac1d6" d="M193.449 57.252a18.451 18.451 0 00-36.9 0z"/><ellipse class="f2b88e6b-3cf7-4b0c-900c-1848743ac1d6" cx="175" cy="29.898" rx="9.262" ry="9.148"/></g><g><path class="f2b88e6b-3cf7-4b0c-900c-1848743ac1d6" d="M289.375 272.091c-10.189 0-18.449 4.063-18.449 9.692v16.942c0 5.629 8.26 10.193 18.449 10.193s18.449-4.564 18.449-10.193v-16.942c0-5.629-8.26-9.692-18.449-9.692z"/><path class="f2b88e6b-3cf7-4b0c-900c-1848743ac1d6" d="M307.824 293.033c0 5.629-8.26 10.192-18.449 10.192s-18.449-4.563-18.449-10.192"/><path class="f2b88e6b-3cf7-4b0c-900c-1848743ac1d6" d="M307.824 287.283c0 5.629-8.26 10.192-18.449 10.192s-18.449-4.563-18.449-10.192"/><path class="f2b88e6b-3cf7-4b0c-900c-1848743ac1d6" d="M307.824 281.783c0 5.629-8.26 10.192-18.449 10.192s-18.449-4.563-18.449-10.192 8.26-9.692 18.449-9.692 18.449 4.063 18.449 9.692z"/><text class="a3e5b7e3-4d92-407e-9b1c-4237c38df314" transform="translate(264.796 325.556)">Database<tspan x="-2.376" y="12">(MariaDB)</tspan></text></g></svg>