<svg id="a9d18d8b-6829-42ad-aa24-cd8f38d19eed" data-name="artwork" xmlns="http://www.w3.org/2000/svg" width="760" height="563.861" viewBox="0 0 760 563.861">
  <defs>
    <style>
      .b51e9564-e83e-4df3-8425-57ac7c4cf972 {
        fill: #c4c4c4;
      }

      .a2dbef2c-a139-46fc-b01c-76c6c1583d34, .a30da355-1e3a-481e-a840-774f7c01dea6, .a45f9966-f230-4e5d-87db-420907dce7b9, .a56992d4-8a80-41fe-8d23-146da06a0049, .a6863814-f888-44a2-810e-3e411392b809, .a99d9ef9-70cf-4495-ae5b-b1c306aef1ab, .b00d1323-0198-4c02-b597-b1d9c55da488, .b054ea24-eb83-4281-9ade-bc1e081c84ba, .b113ec5f-7eb8-4bd3-b10c-a98e9956faa6, .bbfca77c-9fc3-4360-ad9a-bacd0c335abd, .bcef34d6-2953-49a8-b39c-cb3242195d8b, .ec172535-5650-4a70-aa96-28425ed9e365 {
        fill: none;
      }

      .a56992d4-8a80-41fe-8d23-146da06a0049 {
        stroke: #151515;
      }

      .a2dbef2c-a139-46fc-b01c-76c6c1583d34, .a30da355-1e3a-481e-a840-774f7c01dea6, .a45f9966-f230-4e5d-87db-420907dce7b9, .a56992d4-8a80-41fe-8d23-146da06a0049, .a6863814-f888-44a2-810e-3e411392b809, .a99d9ef9-70cf-4495-ae5b-b1c306aef1ab, .b00d1323-0198-4c02-b597-b1d9c55da488, .b054ea24-eb83-4281-9ade-bc1e081c84ba, .b113ec5f-7eb8-4bd3-b10c-a98e9956faa6, .bcef34d6-2953-49a8-b39c-cb3242195d8b, .ec172535-5650-4a70-aa96-28425ed9e365, .fc06b4f4-7e13-4d66-b42e-40feb001449a {
        stroke-linecap: round;
        stroke-linejoin: round;
      }

      .a6cc0236-323d-4107-9b22-5a1206db3cbb, .aab53121-134f-48b0-8bc6-e7bb28e3c1ea, .aadc8989-97ea-4bbd-832e-7f51cb8e7b59, .b7340b64-d5ac-43a7-95db-ab471322bbcc {
        fill: #151515;
      }

      .a2dbef2c-a139-46fc-b01c-76c6c1583d34, .b00d1323-0198-4c02-b597-b1d9c55da488, .b113ec5f-7eb8-4bd3-b10c-a98e9956faa6 {
        stroke: #c4c4c4;
      }

      .b00d1323-0198-4c02-b597-b1d9c55da488 {
        stroke-dasharray: 2.981 2.981;
      }

      .a2dbef2c-a139-46fc-b01c-76c6c1583d34 {
        stroke-dasharray: 3 3;
      }

      .bee22d16-12d5-4e48-b70f-c5a1cd1839ac {
        fill: #e8e8e8;
      }

      .a6cc0236-323d-4107-9b22-5a1206db3cbb, .b7340b64-d5ac-43a7-95db-ab471322bbcc {
        font-size: 11px;
      }

      .a6cc0236-323d-4107-9b22-5a1206db3cbb, .aab53121-134f-48b0-8bc6-e7bb28e3c1ea {
        font-family: RedHatText-Bold, Red Hat Text;
        font-weight: 700;
      }

      .f14fe95f-07d6-4a8e-9eae-ff527333848e, .fc06b4f4-7e13-4d66-b42e-40feb001449a {
        fill: #fff;
      }

      .b7340b64-d5ac-43a7-95db-ab471322bbcc {
        font-family: RedHatText-Medium, Red Hat Text;
        font-weight: 500;
      }

      .a99d9ef9-70cf-4495-ae5b-b1c306aef1ab, .bcef34d6-2953-49a8-b39c-cb3242195d8b {
        stroke: #06c;
      }

      .a30da355-1e3a-481e-a840-774f7c01dea6, .a99d9ef9-70cf-4495-ae5b-b1c306aef1ab {
        stroke-width: 2.07px;
      }

      .a30da355-1e3a-481e-a840-774f7c01dea6, .ec172535-5650-4a70-aa96-28425ed9e365 {
        stroke: #4cb6d6;
      }

      .a6863814-f888-44a2-810e-3e411392b809, .b054ea24-eb83-4281-9ade-bc1e081c84ba, .fc06b4f4-7e13-4d66-b42e-40feb001449a {
        stroke: #5b5b5b;
      }

      .a6863814-f888-44a2-810e-3e411392b809, .fc06b4f4-7e13-4d66-b42e-40feb001449a {
        stroke-width: 1.5px;
      }

      .b054ea24-eb83-4281-9ade-bc1e081c84ba, .bcef34d6-2953-49a8-b39c-cb3242195d8b, .ec172535-5650-4a70-aa96-28425ed9e365 {
        stroke-width: 2px;
      }

      .ad4cc1db-cf90-420c-b315-48d663bf97a2 {
        fill: #4cb6d6;
      }

      .fdeeb3be-4053-4be2-832b-5cd399dffef3 {
        fill: #06c;
      }

      .a45f9966-f230-4e5d-87db-420907dce7b9 {
        stroke: #fff;
        stroke-width: 8px;
      }

      .aab53121-134f-48b0-8bc6-e7bb28e3c1ea {
        font-size: 12px;
      }

      .fbeb3aaa-c4bf-4693-aa96-f9e5a3e88a88 {
        font-size: 10px;
        fill: #ececec;
        font-family: RedHatText-Regular, Red Hat Text;
      }
    </style>
  </defs>
  <path class="b51e9564-e83e-4df3-8425-57ac7c4cf972" d="M759,120.086V522.861H227.5V120.086H759m1-1H226.5V523.861H760V119.086Z"/>
  <g>
    <polyline class="a56992d4-8a80-41fe-8d23-146da06a0049" points="485.25 316.189 485.25 264.831 445.426 264.831"/>
    <polygon class="aadc8989-97ea-4bbd-832e-7f51cb8e7b59" points="446.885 259.845 438.25 264.831 446.885 269.817 446.885 259.845"/>
  </g>
  <g>
    <polyline class="a56992d4-8a80-41fe-8d23-146da06a0049" points="664 316.189 664 264.831 500.25 264.831 500.25 306.512"/>
    <polygon class="aadc8989-97ea-4bbd-832e-7f51cb8e7b59" points="495.263 305.053 500.25 313.689 505.236 305.053 495.263 305.053"/>
  </g>
  <g>
    <polyline class="a56992d4-8a80-41fe-8d23-146da06a0049" points="321.5 306.512 321.5 264.831 385.125 264.831"/>
    <polygon class="aadc8989-97ea-4bbd-832e-7f51cb8e7b59" points="326.486 305.053 321.5 313.689 316.513 305.053 326.486 305.053"/>
  </g>
  <g>
    <polyline class="b113ec5f-7eb8-4bd3-b10c-a98e9956faa6" points="402.5 494.689 402.5 496.189 401 496.189"/>
    <line class="b00d1323-0198-4c02-b597-b1d9c55da488" x1="398.019" y1="496.189" x2="244.491" y2="496.189"/>
    <polyline class="b113ec5f-7eb8-4bd3-b10c-a98e9956faa6" points="243 496.189 241.5 496.189 241.5 494.689"/>
    <line class="a2dbef2c-a139-46fc-b01c-76c6c1583d34" x1="241.5" y1="491.689" x2="241.5" y2="319.189"/>
    <polyline class="b113ec5f-7eb8-4bd3-b10c-a98e9956faa6" points="241.5 317.689 241.5 316.189 243 316.189"/>
    <line class="b00d1323-0198-4c02-b597-b1d9c55da488" x1="245.981" y1="316.189" x2="399.509" y2="316.189"/>
    <polyline class="b113ec5f-7eb8-4bd3-b10c-a98e9956faa6" points="401 316.189 402.5 316.189 402.5 317.689"/>
    <line class="a2dbef2c-a139-46fc-b01c-76c6c1583d34" x1="402.5" y1="320.689" x2="402.5" y2="493.189"/>
  </g>
  <rect class="bee22d16-12d5-4e48-b70f-c5a1cd1839ac" x="251.5" y="326.189" width="141" height="155"/>
  <text class="a6cc0236-323d-4107-9b22-5a1206db3cbb" transform="translate(261.5 346.293)">Control plane nodes <tspan x="0" y="12">(x3)</tspan></text>
  <rect class="f14fe95f-07d6-4a8e-9eae-ff527333848e" x="261.5" y="371.189" width="120" height="30"/>
  <text class="b7340b64-d5ac-43a7-95db-ab471322bbcc" transform="translate(297.487 389.236)">apiserver</text>
  <rect class="f14fe95f-07d6-4a8e-9eae-ff527333848e" x="261.5" y="406.189" width="120" height="30"/>
  <text class="b7340b64-d5ac-43a7-95db-ab471322bbcc" transform="translate(309.839 424.236)">etcd</text>
  <rect class="f14fe95f-07d6-4a8e-9eae-ff527333848e" x="261.5" y="441.189" width="120" height="30"/>
  <text class="b7340b64-d5ac-43a7-95db-ab471322bbcc" transform="translate(296.321 459.236)">controller</text>
  <g>
    <polyline class="b113ec5f-7eb8-4bd3-b10c-a98e9956faa6" points="573.75 494.689 573.75 496.189 572.25 496.189"/>
    <line class="b00d1323-0198-4c02-b597-b1d9c55da488" x1="569.269" y1="496.189" x2="415.741" y2="496.189"/>
    <polyline class="b113ec5f-7eb8-4bd3-b10c-a98e9956faa6" points="414.25 496.189 412.75 496.189 412.75 494.689"/>
    <line class="a2dbef2c-a139-46fc-b01c-76c6c1583d34" x1="412.75" y1="491.689" x2="412.75" y2="319.189"/>
    <polyline class="b113ec5f-7eb8-4bd3-b10c-a98e9956faa6" points="412.75 317.689 412.75 316.189 414.25 316.189"/>
    <line class="b00d1323-0198-4c02-b597-b1d9c55da488" x1="417.231" y1="316.189" x2="570.759" y2="316.189"/>
    <polyline class="b113ec5f-7eb8-4bd3-b10c-a98e9956faa6" points="572.25 316.189 573.75 316.189 573.75 317.689"/>
    <line class="a2dbef2c-a139-46fc-b01c-76c6c1583d34" x1="573.75" y1="320.689" x2="573.75" y2="493.189"/>
  </g>
  <rect class="bee22d16-12d5-4e48-b70f-c5a1cd1839ac" x="422.75" y="326.189" width="141" height="155"/>
  <text class="a6cc0236-323d-4107-9b22-5a1206db3cbb" transform="translate(432.75 346.293)">Worker nodes <tspan x="0" y="12">(xN)</tspan></text>
  <rect class="f14fe95f-07d6-4a8e-9eae-ff527333848e" x="432.75" y="371.189" width="120" height="30"/>
  <text class="b7340b64-d5ac-43a7-95db-ab471322bbcc" transform="translate(455.762 389.236)">Compute (xN)</text>
  <rect class="f14fe95f-07d6-4a8e-9eae-ff527333848e" x="432.75" y="406.189" width="120" height="30"/>
  <text class="b7340b64-d5ac-43a7-95db-ab471322bbcc" transform="translate(445.016 424.236)">Persistent storage</text>
  <line class="a99d9ef9-70cf-4495-ae5b-b1c306aef1ab" x1="1" y1="238.206" x2="745" y2="238.206"/>
  <line class="a30da355-1e3a-481e-a840-774f7c01dea6" x1="745" y1="133.852" x2="1" y2="133.852"/>
  <text class="b7340b64-d5ac-43a7-95db-ab471322bbcc" transform="translate(0 114.684)">Public<tspan x="0" y="12">network</tspan></text>
  <text class="b7340b64-d5ac-43a7-95db-ab471322bbcc" transform="translate(0 251.468)">Private network</text>
  <g>
    <text class="b7340b64-d5ac-43a7-95db-ab471322bbcc" transform="translate(387.698 288.299)">Internal<tspan x="-6.407" y="12">(API) NLB</tspan></text>
    <g>
      <rect class="fc06b4f4-7e13-4d66-b42e-40feb001449a" x="380.125" y="257.956" width="55" height="13.75"/>
      <line class="b054ea24-eb83-4281-9ade-bc1e081c84ba" x1="429.246" y1="263.853" x2="429.246" y2="263.853"/>
      <line class="a6863814-f888-44a2-810e-3e411392b809" x1="386.018" y1="262.819" x2="386.018" y2="266.783"/>
      <line class="a6863814-f888-44a2-810e-3e411392b809" x1="391.911" y1="262.819" x2="391.911" y2="266.783"/>
      <line class="a6863814-f888-44a2-810e-3e411392b809" x1="397.804" y1="262.819" x2="397.804" y2="266.783"/>
      <line class="a6863814-f888-44a2-810e-3e411392b809" x1="403.696" y1="262.819" x2="403.696" y2="266.783"/>
      <line class="a6863814-f888-44a2-810e-3e411392b809" x1="409.589" y1="262.819" x2="409.589" y2="266.783"/>
      <line class="a6863814-f888-44a2-810e-3e411392b809" x1="415.482" y1="262.819" x2="415.482" y2="266.783"/>
    </g>
  </g>
  <g>
    <line class="ec172535-5650-4a70-aa96-28425ed9e365" x1="622.534" y1="133.861" x2="622.534" y2="158.185"/>
    <polygon class="ad4cc1db-cf90-420c-b315-48d663bf97a2" points="617.548 156.726 622.534 165.361 627.52 156.726 617.548 156.726"/>
  </g>
  <g>
    <line class="ec172535-5650-4a70-aa96-28425ed9e365" x1="705.534" y1="133.861" x2="705.534" y2="158.185"/>
    <polygon class="ad4cc1db-cf90-420c-b315-48d663bf97a2" points="700.548 156.726 705.534 165.361 710.52 156.726 700.548 156.726"/>
  </g>
  <g>
    <text class="b7340b64-d5ac-43a7-95db-ab471322bbcc" transform="translate(684.689 199.027)">Red Hat<tspan x="-16.665" y="12">(Console) ELB</tspan></text>
    <g>
      <rect class="fc06b4f4-7e13-4d66-b42e-40feb001449a" x="678.034" y="168.682" width="55" height="13.75"/>
      <line class="b054ea24-eb83-4281-9ade-bc1e081c84ba" x1="727.155" y1="174.578" x2="727.155" y2="174.578"/>
      <line class="a6863814-f888-44a2-810e-3e411392b809" x1="683.927" y1="173.544" x2="683.927" y2="177.508"/>
      <line class="a6863814-f888-44a2-810e-3e411392b809" x1="689.82" y1="173.544" x2="689.82" y2="177.508"/>
      <line class="a6863814-f888-44a2-810e-3e411392b809" x1="695.713" y1="173.544" x2="695.713" y2="177.508"/>
      <line class="a6863814-f888-44a2-810e-3e411392b809" x1="701.605" y1="173.544" x2="701.605" y2="177.508"/>
      <line class="a6863814-f888-44a2-810e-3e411392b809" x1="707.498" y1="173.544" x2="707.498" y2="177.508"/>
      <line class="a6863814-f888-44a2-810e-3e411392b809" x1="713.391" y1="173.544" x2="713.391" y2="177.508"/>
    </g>
  </g>
  <g>
    <text class="b7340b64-d5ac-43a7-95db-ab471322bbcc" transform="translate(573.348 199.027)">External/internal<tspan x="21.603" y="12">App ELB</tspan></text>
    <g>
      <rect class="fc06b4f4-7e13-4d66-b42e-40feb001449a" x="594.966" y="168.682" width="55" height="13.75"/>
      <line class="b054ea24-eb83-4281-9ade-bc1e081c84ba" x1="644.087" y1="174.578" x2="644.087" y2="174.578"/>
      <line class="a6863814-f888-44a2-810e-3e411392b809" x1="601.701" y1="176.539" x2="609.951" y2="176.539"/>
    </g>
  </g>
  <g>
    <g>
      <line class="bcef34d6-2953-49a8-b39c-cb3242195d8b" x1="610.034" y1="224.882" x2="610.034" y2="238.206"/>
      <polygon class="fdeeb3be-4053-4be2-832b-5cd399dffef3" points="605.048 226.341 610.034 217.706 615.02 226.341 605.048 226.341"/>
    </g>
    <line class="a45f9966-f230-4e5d-87db-420907dce7b9" x1="625.034" y1="217.706" x2="625.034" y2="279.689"/>
    <g>
      <line class="ec172535-5650-4a70-aa96-28425ed9e365" x1="625.034" y1="217.706" x2="625.034" y2="306.512"/>
      <polygon class="ad4cc1db-cf90-420c-b315-48d663bf97a2" points="620.048 305.053 625.034 313.689 630.02 305.053 620.048 305.053"/>
    </g>
  </g>
  <g>
    <g>
      <line class="bcef34d6-2953-49a8-b39c-cb3242195d8b" x1="273.034" y1="224.882" x2="273.034" y2="238.206"/>
      <polygon class="fdeeb3be-4053-4be2-832b-5cd399dffef3" points="268.048 226.341 273.034 217.706 278.02 226.341 268.048 226.341"/>
    </g>
    <g>
      <line class="bcef34d6-2953-49a8-b39c-cb3242195d8b" x1="288.034" y1="217.706" x2="288.034" y2="306.512"/>
      <polygon class="fdeeb3be-4053-4be2-832b-5cd399dffef3" points="283.048 305.053 288.034 313.689 293.02 305.053 283.048 305.053"/>
    </g>
  </g>
  <line class="a45f9966-f230-4e5d-87db-420907dce7b9" x1="705.534" y1="217.706" x2="705.534" y2="279.689"/>
  <line class="a45f9966-f230-4e5d-87db-420907dce7b9" x1="363.534" y1="260.129" x2="363.534" y2="296.516"/>
  <g>
    <line class="ec172535-5650-4a70-aa96-28425ed9e365" x1="705.534" y1="217.706" x2="705.534" y2="306.512"/>
    <polygon class="ad4cc1db-cf90-420c-b315-48d663bf97a2" points="700.548 305.053 705.534 313.689 710.52 305.053 700.548 305.053"/>
  </g>
  <g>
    <line class="ec172535-5650-4a70-aa96-28425ed9e365" x1="280.534" y1="133.861" x2="280.534" y2="158.185"/>
    <polygon class="ad4cc1db-cf90-420c-b315-48d663bf97a2" points="275.548 156.726 280.534 165.361 285.52 156.726 275.548 156.726"/>
  </g>
  <g>
    <line class="ec172535-5650-4a70-aa96-28425ed9e365" x1="363.534" y1="133.861" x2="363.534" y2="158.185"/>
    <polygon class="ad4cc1db-cf90-420c-b315-48d663bf97a2" points="358.548 156.726 363.534 165.361 368.52 156.726 358.548 156.726"/>
  </g>
  <g>
    <text class="b7340b64-d5ac-43a7-95db-ab471322bbcc" transform="translate(342.689 199.027)">Red Hat<tspan x="-4.829" y="12">(API) ELB</tspan></text>
    <g>
      <rect class="fc06b4f4-7e13-4d66-b42e-40feb001449a" x="336.034" y="168.682" width="55" height="13.75"/>
      <line class="b054ea24-eb83-4281-9ade-bc1e081c84ba" x1="385.155" y1="174.578" x2="385.155" y2="174.578"/>
      <line class="a6863814-f888-44a2-810e-3e411392b809" x1="341.927" y1="173.544" x2="341.927" y2="177.508"/>
      <line class="a6863814-f888-44a2-810e-3e411392b809" x1="347.82" y1="173.544" x2="347.82" y2="177.508"/>
      <line class="a6863814-f888-44a2-810e-3e411392b809" x1="353.713" y1="173.544" x2="353.713" y2="177.508"/>
      <line class="a6863814-f888-44a2-810e-3e411392b809" x1="359.605" y1="173.544" x2="359.605" y2="177.508"/>
      <line class="a6863814-f888-44a2-810e-3e411392b809" x1="365.498" y1="173.544" x2="365.498" y2="177.508"/>
      <line class="a6863814-f888-44a2-810e-3e411392b809" x1="371.391" y1="173.544" x2="371.391" y2="177.508"/>
    </g>
  </g>
  <g>
    <text class="b7340b64-d5ac-43a7-95db-ab471322bbcc" transform="translate(236.348 199.027)">External/internal<tspan x="17.853" y="12">(API) NLB</tspan></text>
    <g>
      <rect class="fc06b4f4-7e13-4d66-b42e-40feb001449a" x="252.966" y="168.682" width="55" height="13.75"/>
      <line class="b054ea24-eb83-4281-9ade-bc1e081c84ba" x1="302.087" y1="174.578" x2="302.087" y2="174.578"/>
      <line class="a6863814-f888-44a2-810e-3e411392b809" x1="259.701" y1="176.539" x2="267.951" y2="176.539"/>
    </g>
  </g>
  <g>
    <line class="bcef34d6-2953-49a8-b39c-cb3242195d8b" x1="363.534" y1="217.706" x2="363.534" y2="306.512"/>
    <polygon class="fdeeb3be-4053-4be2-832b-5cd399dffef3" points="358.548 305.053 363.534 313.689 368.52 305.053 358.548 305.053"/>
  </g>
  <g>
    <line class="bcef34d6-2953-49a8-b39c-cb3242195d8b" x1="184.258" y1="215.724" x2="184.258" y2="227.547"/>
    <polygon class="fdeeb3be-4053-4be2-832b-5cd399dffef3" points="179.272 226.088 184.258 234.724 189.245 226.088 179.272 226.088"/>
  </g>
  <g>
    <line class="ec172535-5650-4a70-aa96-28425ed9e365" x1="184.258" y1="144.537" x2="184.258" y2="168.861"/>
    <polygon class="ad4cc1db-cf90-420c-b315-48d663bf97a2" points="179.272 145.996 184.258 137.361 189.245 145.996 179.272 145.996"/>
  </g>
  <g>
    <text class="b7340b64-d5ac-43a7-95db-ab471322bbcc" transform="translate(162.055 199.026)">Route53<tspan x="10.433" y="12">DNS</tspan></text>
    <g>
      <rect class="fc06b4f4-7e13-4d66-b42e-40feb001449a" x="154.258" y="168.681" width="60" height="13.75"/>
      <line class="b054ea24-eb83-4281-9ade-bc1e081c84ba" x1="208.379" y1="174.578" x2="208.379" y2="174.578"/>
      <line class="a6863814-f888-44a2-810e-3e411392b809" x1="160.151" y1="173.544" x2="160.151" y2="177.508"/>
      <line class="a6863814-f888-44a2-810e-3e411392b809" x1="171.044" y1="173.544" x2="171.044" y2="177.508"/>
      <line class="a6863814-f888-44a2-810e-3e411392b809" x1="176.937" y1="173.544" x2="176.937" y2="177.508"/>
      <line class="a6863814-f888-44a2-810e-3e411392b809" x1="182.83" y1="173.544" x2="182.83" y2="177.508"/>
      <line class="a6863814-f888-44a2-810e-3e411392b809" x1="188.723" y1="173.544" x2="188.723" y2="177.508"/>
      <line class="a6863814-f888-44a2-810e-3e411392b809" x1="194.615" y1="173.544" x2="194.615" y2="177.508"/>
    </g>
  </g>
  <g>
    <polyline class="b113ec5f-7eb8-4bd3-b10c-a98e9956faa6" points="745 494.689 745 496.189 743.5 496.189"/>
    <line class="b00d1323-0198-4c02-b597-b1d9c55da488" x1="740.519" y1="496.189" x2="586.991" y2="496.189"/>
    <polyline class="b113ec5f-7eb8-4bd3-b10c-a98e9956faa6" points="585.5 496.189 584 496.189 584 494.689"/>
    <line class="a2dbef2c-a139-46fc-b01c-76c6c1583d34" x1="584" y1="491.689" x2="584" y2="319.189"/>
    <polyline class="b113ec5f-7eb8-4bd3-b10c-a98e9956faa6" points="584 317.689 584 316.189 585.5 316.189"/>
    <line class="b00d1323-0198-4c02-b597-b1d9c55da488" x1="588.481" y1="316.189" x2="742.009" y2="316.189"/>
    <polyline class="b113ec5f-7eb8-4bd3-b10c-a98e9956faa6" points="743.5 316.189 745 316.189 745 317.689"/>
    <line class="a2dbef2c-a139-46fc-b01c-76c6c1583d34" x1="745" y1="320.689" x2="745" y2="493.189"/>
  </g>
  <rect class="bee22d16-12d5-4e48-b70f-c5a1cd1839ac" x="594" y="326.189" width="141" height="155"/>
  <text class="a6cc0236-323d-4107-9b22-5a1206db3cbb" transform="translate(604 346.293)">Infra nodes <tspan x="0" y="12">(x2, x3)</tspan></text>
  <rect class="f14fe95f-07d6-4a8e-9eae-ff527333848e" x="604" y="371.189" width="120" height="30"/>
  <text class="b7340b64-d5ac-43a7-95db-ab471322bbcc" transform="translate(643.925 389.236)">registry</text>
  <rect class="f14fe95f-07d6-4a8e-9eae-ff527333848e" x="604" y="406.189" width="120" height="30"/>
  <text class="b7340b64-d5ac-43a7-95db-ab471322bbcc" transform="translate(647.758 424.236)">router</text>
  <rect class="f14fe95f-07d6-4a8e-9eae-ff527333848e" x="604" y="441.189" width="120" height="30"/>
  <text class="b7340b64-d5ac-43a7-95db-ab471322bbcc" transform="translate(635.642 459.236)">monitoring</text>
  <g>
    <text class="aab53121-134f-48b0-8bc6-e7bb28e3c1ea" transform="translate(702.797 104.086)">AWS VPC</text>
    <line class="a56992d4-8a80-41fe-8d23-146da06a0049" x1="699.599" y1="99.558" x2="676.734" y2="119.086"/>
  </g>
  <rect class="f14fe95f-07d6-4a8e-9eae-ff527333848e" x="274.429" y="488.432" width="95.143" height="14.513"/>
  <rect class="f14fe95f-07d6-4a8e-9eae-ff527333848e" x="445.679" y="488.432" width="95.143" height="14.513"/>
  <rect class="f14fe95f-07d6-4a8e-9eae-ff527333848e" x="616.929" y="488.432" width="95.143" height="14.513"/>
  <text class="b7340b64-d5ac-43a7-95db-ab471322bbcc" transform="translate(280.085 498.736)">Availability zone<tspan x="23.683" y="12">(x1, x3)</tspan></text>
  <text class="b7340b64-d5ac-43a7-95db-ab471322bbcc" transform="translate(451.336 498.736)">Availability zone<tspan x="23.683" y="12">(x1, x3)</tspan></text>
  <text class="b7340b64-d5ac-43a7-95db-ab471322bbcc" transform="translate(622.585 498.736)">Availability zone<tspan x="23.683" y="12">(x1, x3)</tspan></text>
  <g>
    <polyline class="a56992d4-8a80-41fe-8d23-146da06a0049" points="98.403 108.328 98.403 95.787 74.594 95.787 74.594 69.41"/>
    <polygon class="aadc8989-97ea-4bbd-832e-7f51cb8e7b59" points="103.39 106.869 98.403 115.504 93.417 106.869 103.39 106.869"/>
  </g>
  <line class="a45f9966-f230-4e5d-87db-420907dce7b9" x1="64.595" y1="142.502" x2="64.595" y2="120.968"/>
  <g>
    <line class="a56992d4-8a80-41fe-8d23-146da06a0049" x1="64.594" y1="227.547" x2="64.594" y2="69.41"/>
    <polygon class="aadc8989-97ea-4bbd-832e-7f51cb8e7b59" points="69.581 226.088 64.594 234.724 59.608 226.088 69.581 226.088"/>
  </g>
  <g>
    <text class="b7340b64-d5ac-43a7-95db-ab471322bbcc" transform="translate(84.96 161.907)">Internet</text>
    <path class="fc06b4f4-7e13-4d66-b42e-40feb001449a" d="M120.963,132.06a13.4,13.4,0,0,0-25.034-6.507A10.127,10.127,0,0,0,94.2,125.4a9.968,9.968,0,1,0,0,19.935h26.76a6.636,6.636,0,1,0,0-13.271Z"/>
  </g>
  <g>
    <text class="b7340b64-d5ac-43a7-95db-ab471322bbcc" transform="translate(128.749 64.097)">Red Hat<tspan x="-13.25" y="12">Management</tspan></text>
    <g>
      <path class="fc06b4f4-7e13-4d66-b42e-40feb001449a" d="M168.043,47.529a18.451,18.451,0,0,0-36.9,0Z"/>
      <ellipse class="fc06b4f4-7e13-4d66-b42e-40feb001449a" cx="149.594" cy="20.175" rx="9.262" ry="9.148"/>
    </g>
  </g>
  <g>
    <polyline class="a56992d4-8a80-41fe-8d23-146da06a0049" points="113.403 108.328 113.403 95.787 149.594 95.787 149.594 82.54"/>
    <polygon class="aadc8989-97ea-4bbd-832e-7f51cb8e7b59" points="118.39 106.869 113.403 115.504 108.417 106.869 118.39 106.869"/>
  </g>
  <g>
    <text class="b7340b64-d5ac-43a7-95db-ab471322bbcc" transform="translate(42.881 64.097)">Developer</text>
    <g>
      <path class="fc06b4f4-7e13-4d66-b42e-40feb001449a" d="M88.043,47.529a18.451,18.451,0,0,0-36.9,0Z"/>
      <ellipse class="fc06b4f4-7e13-4d66-b42e-40feb001449a" cx="69.594" cy="20.175" rx="9.262" ry="9.148"/>
    </g>
  </g>
  <g>
    <text class="fbeb3aaa-c4bf-4693-aa96-f9e5a3e88a88" transform="translate(668.082 546.878)">156_OpenShift_0621</text>
    <rect class="bbfca77c-9fc3-4360-ad9a-bacd0c335abd" y="523.861" width="760" height="40"/>
  </g>
</svg>
