<svg id="a24e26ae-bc38-4555-a021-17e5e8d0e12d" data-name="artwork" xmlns="http://www.w3.org/2000/svg" width="760" height="483.999"><defs><style>.a4b23025-4025-4fbd-8d88-e20c56858cc3{fill:#e8e8e8}.a23f72f0-26d9-4cdc-9adc-8fcda22686ba{font-size:14px;fill:#151515}.b8456720-106a-44ef-a796-b57b94069c83,.bb32819f-9755-4495-95ec-ac25d45a2c06,.f660e625-73a7-487d-8db0-afeaab6974fb{fill:#151515}.a23f72f0-26d9-4cdc-9adc-8fcda22686ba,.bddbb00d-761d-4020-bc2e-788b100d3bd5{font-family:RedHatText,&quot;Red Hat Text&quot;,Overpass,&quot;Helvetica Neue&quot;,Arial,sans-serif;font-weight:700}.aebdf118-8837-49f9-baa1-69df5d496130,.ed363ad3-ebf7-4234-9368-e5139bd1e9c6,.f660e625-73a7-487d-8db0-afeaab6974fb{font-family:RedHatText,&quot;Red Hat Text&quot;,Overpass,&quot;Helvetica Neue&quot;,Arial,sans-serif;font-weight:500}.aab82d39-c0a9-4330-ad75-19158507f109,.bddbb00d-761d-4020-bc2e-788b100d3bd5,.ed363ad3-ebf7-4234-9368-e5139bd1e9c6{fill:#fff}.aaa21b3b-7b56-411b-abf8-fb675a4e6d25{fill:#06c}.ed363ad3-ebf7-4234-9368-e5139bd1e9c6,.f660e625-73a7-487d-8db0-afeaab6974fb{font-size:12px}.a08430b0-53d2-427e-b169-27081b9058c0,.afb26bd8-5616-4eb2-b2c6-be30965462f7{fill:none;stroke:#151515}.afb26bd8-5616-4eb2-b2c6-be30965462f7{stroke-miterlimit:10}.bb32819f-9755-4495-95ec-ac25d45a2c06{font-size:10px;font-family:LiberationMono,&quot;Liberation Mono&quot;,Consolas,Monaco,&quot;Andale Mono&quot;,monospace}.a08430b0-53d2-427e-b169-27081b9058c0{stroke-linecap:round;stroke-linejoin:round}.bddbb00d-761d-4020-bc2e-788b100d3bd5{font-size:11px}</style></defs><path class="a4b23025-4025-4fbd-8d88-e20c56858cc3" d="M15.5 19.724h276v367h-276z"/><text class="a23f72f0-26d9-4cdc-9adc-8fcda22686ba" transform="translate(35.5 51.512)">Application logic<tspan class="aebdf118-8837-49f9-baa1-69df5d496130"><tspan x="0" y="17">Namespace 1</tspan></tspan></text><path class="aab82d39-c0a9-4330-ad75-19158507f109" d="M36 87.224h235v49H36z"/><path class="aaa21b3b-7b56-411b-abf8-fb675a4e6d25" d="M270.5 87.724v48h-234v-48h234m1-1h-236v50h236v-50z"/><text class="f660e625-73a7-487d-8db0-afeaab6974fb" transform="translate(93.297 115.048)">Application container</text><path class="aaa21b3b-7b56-411b-abf8-fb675a4e6d25" d="M35.5 206.724h236v50h-236z"/><text class="ed363ad3-ebf7-4234-9368-e5139bd1e9c6" transform="translate(114.885 235.048)">Sidecar proxy</text><path class="afb26bd8-5616-4eb2-b2c6-be30965462f7" d="M153.5 136.724v60.324"/><path class="b8456720-106a-44ef-a796-b57b94069c83" d="M148.514 195.589l4.986 8.635 4.986-8.635h-9.972z"/><text class="bb32819f-9755-4495-95ec-ac25d45a2c06" transform="translate(302.3 201.002)">lb, policy <tspan x="0" y="13">tracing/</tspan><tspan x="0" y="26">tap mTLS</tspan></text><path class="a08430b0-53d2-427e-b169-27081b9058c0" d="M297.3 211.724l-17.575 15.956"/><text class="bb32819f-9755-4495-95ec-ac25d45a2c06" transform="translate(168.5 166.132)">plaintext<tspan x="0" y="13">http, h2, tcp</tspan></text><circle class="b8456720-106a-44ef-a796-b57b94069c83" cx="153.5" cy="169.224" r="10"/><text class="bddbb00d-761d-4020-bc2e-788b100d3bd5" transform="translate(151.133 173.009)">1</text><path class="a4b23025-4025-4fbd-8d88-e20c56858cc3" d="M283.651 416.935h116v50h-116z"/><text class="f660e625-73a7-487d-8db0-afeaab6974fb" transform="translate(328.037 445.259)">OVN</text><path class="afb26bd8-5616-4eb2-b2c6-be30965462f7" d="M153.5 256.724v50.324"/><path class="b8456720-106a-44ef-a796-b57b94069c83" d="M148.514 305.589l4.986 8.635 4.986-8.635h-9.972z"/><circle class="b8456720-106a-44ef-a796-b57b94069c83" cx="271.5" cy="231.724" r="10"/><text class="bddbb00d-761d-4020-bc2e-788b100d3bd5" transform="translate(267.967 235.51)">2</text><path class="a4b23025-4025-4fbd-8d88-e20c56858cc3" d="M391.801 19.724h276v367h-276z"/><text class="a23f72f0-26d9-4cdc-9adc-8fcda22686ba" transform="translate(411.801 51.512)">Application userdb<tspan class="aebdf118-8837-49f9-baa1-69df5d496130"><tspan x="0" y="17">Namespace 2</tspan></tspan></text><path class="aab82d39-c0a9-4330-ad75-19158507f109" d="M412.302 87.224h235v49h-235z"/><path class="aaa21b3b-7b56-411b-abf8-fb675a4e6d25" d="M646.8 87.724v48h-234v-48h234m1-1h-236v50h236v-50z"/><text class="f660e625-73a7-487d-8db0-afeaab6974fb" transform="translate(469.599 115.048)">Application container</text><path class="aaa21b3b-7b56-411b-abf8-fb675a4e6d25" d="M411.801 206.724h236v50h-236z"/><text class="ed363ad3-ebf7-4234-9368-e5139bd1e9c6" transform="translate(491.186 235.048)">Sidecar proxy</text><path class="afb26bd8-5616-4eb2-b2c6-be30965462f7" d="M529.802 146.4v60.324"/><path class="b8456720-106a-44ef-a796-b57b94069c83" d="M524.815 147.859l4.987-8.635 4.986 8.635h-9.973z"/><text class="bb32819f-9755-4495-95ec-ac25d45a2c06" transform="translate(678.602 201.002)">tracing/<tspan x="0" y="13">tap auth </tspan><tspan x="0" y="26">policy mTLS</tspan></text><path class="a08430b0-53d2-427e-b169-27081b9058c0" d="M673.602 211.724l-17.575 15.956"/><text class="bb32819f-9755-4495-95ec-ac25d45a2c06" transform="translate(544.802 171.132)">plaintext<tspan x="0" y="13">http, h2, tcp</tspan></text><circle class="b8456720-106a-44ef-a796-b57b94069c83" cx="529.801" cy="174.224" r="10"/><text class="bddbb00d-761d-4020-bc2e-788b100d3bd5" transform="translate(526.042 178.009)">8</text><path class="aab82d39-c0a9-4330-ad75-19158507f109" d="M411.802 316.724h236v50h-236z"/><text class="f660e625-73a7-487d-8db0-afeaab6974fb" transform="translate(490.424 345.048)">Pod Eth (CNI)</text><path class="afb26bd8-5616-4eb2-b2c6-be30965462f7" d="M529.802 266.4v50.324"/><path class="b8456720-106a-44ef-a796-b57b94069c83" d="M524.815 267.859l4.987-8.635 4.986 8.635h-9.973z"/><g><path class="a08430b0-53d2-427e-b169-27081b9058c0" d="M153.5 366.724v72.5h120.474"/><path class="b8456720-106a-44ef-a796-b57b94069c83" d="M272.515 444.211l8.636-4.987-8.636-4.986v9.973z"/></g><g><path class="a08430b0-53d2-427e-b169-27081b9058c0" d="M529.802 376.4v65.324H399.651"/><path class="b8456720-106a-44ef-a796-b57b94069c83" d="M524.815 377.859l4.987-8.635 4.986 8.635h-9.973z"/></g><g><text class="bb32819f-9755-4495-95ec-ac25d45a2c06" transform="translate(168.5 290.132)">https, h2/s, tls</text><circle class="b8456720-106a-44ef-a796-b57b94069c83" cx="153.5" cy="286.724" r="10"/><text class="bddbb00d-761d-4020-bc2e-788b100d3bd5" transform="translate(149.768 290.51)">3</text></g><g><text class="bb32819f-9755-4495-95ec-ac25d45a2c06" transform="translate(544.802 290.132)">https, h2/s, tls</text><circle class="b8456720-106a-44ef-a796-b57b94069c83" cx="529.801" cy="286.724" r="10"/><text class="bddbb00d-761d-4020-bc2e-788b100d3bd5" transform="translate(525.971 290.51)">6</text></g><g><circle class="b8456720-106a-44ef-a796-b57b94069c83" cx="529.801" cy="412.974" r="10"/><text class="bddbb00d-761d-4020-bc2e-788b100d3bd5" transform="translate(526.163 416.76)">5</text></g><g><circle class="b8456720-106a-44ef-a796-b57b94069c83" cx="647.801" cy="231.724" r="10"/><text class="bddbb00d-761d-4020-bc2e-788b100d3bd5" transform="translate(644.152 235.51)">7</text></g><g><circle class="b8456720-106a-44ef-a796-b57b94069c83" cx="153.25" cy="412.974" r="10"/><text class="bddbb00d-761d-4020-bc2e-788b100d3bd5" transform="translate(149.205 416.76)">4</text></g><path class="aab82d39-c0a9-4330-ad75-19158507f109" d="M35.5 316.724h236v50h-236z"/><text class="f660e625-73a7-487d-8db0-afeaab6974fb" transform="translate(114.124 345.048)">Pod Eth (CNI)</text><g><text transform="translate(668.691 467.016)" fill="#ececec" font-family="RedHatText,&quot;Red Hat Text&quot;,Overpass,&quot;Helvetica Neue&quot;,Arial,sans-serif" font-size="10">165_OpenShift_0721</text><path fill="none" d="M0 443.999h760v40H0z"/></g></svg>