<svg id="ed691419-ba37-4f81-838f-febb8e211982" data-name="artwork" xmlns="http://www.w3.org/2000/svg" width="760" height="709.202"><defs><style>.af3d4099-7ea0-4330-9a21-f3f3726175f5,.f0593ebd-5fe8-418d-a9f8-ac9ff788e2ed,.ff18722d-44da-41cd-9150-98cbcfd2d63a{fill:none}.af3d4099-7ea0-4330-9a21-f3f3726175f5{stroke:#c4c4c4;stroke-miterlimit:10}.f0593ebd-5fe8-418d-a9f8-ac9ff788e2ed{stroke-miterlimit:10;stroke:#151515}.ff18722d-44da-41cd-9150-98cbcfd2d63a{stroke:#151515}.a743f154-25d8-412a-bce2-6fc8ee2dd4d9,.ff18722d-44da-41cd-9150-98cbcfd2d63a{stroke-linecap:round;stroke-linejoin:round}.a25c8b92-013b-426a-925a-d2bbd2a23acb,.be65ca50-c64e-4160-9a0e-6e8f0a25b4eb,.eece406a-3e6d-4106-bce1-3caa01d693b2,.fca65bc0-2f72-4f43-9031-284b6f2e984d{fill:#151515}.be65ca50-c64e-4160-9a0e-6e8f0a25b4eb{font-size:11px}.a62bb7ae-1c59-496d-9422-e5dc8b8360d6,.be65ca50-c64e-4160-9a0e-6e8f0a25b4eb,.eece406a-3e6d-4106-bce1-3caa01d693b2{font-family:RedHatText,&quot;Red Hat Text&quot;,Overpass,&quot;Helvetica Neue&quot;,Arial,sans-serif;font-weight:500}.a62bb7ae-1c59-496d-9422-e5dc8b8360d6,.a743f154-25d8-412a-bce2-6fc8ee2dd4d9,.f24cd39f-6ba1-46fb-8e3a-aab4db39df1e{fill:#fff}.a743f154-25d8-412a-bce2-6fc8ee2dd4d9{stroke:#5b5b5b;stroke-width:1.5px}.ab3d2a13-7746-4486-93f3-a92df69fefa0{fill:#e8e8e8}.a25c8b92-013b-426a-925a-d2bbd2a23acb{font-size:14px;font-family:RedHatText,&quot;Red Hat Text&quot;,Overpass,&quot;Helvetica Neue&quot;,Arial,sans-serif;font-weight:700}.e5d8d34c-9beb-4e64-8e10-2f29ed2f6a5a{fill:#06c}.a62bb7ae-1c59-496d-9422-e5dc8b8360d6,.eece406a-3e6d-4106-bce1-3caa01d693b2{font-size:12px}</style></defs><path class="af3d4099-7ea0-4330-9a21-f3f3726175f5" d="M494.534 542.435v50h-116"/><path class="af3d4099-7ea0-4330-9a21-f3f3726175f5" d="M499.534 547.435v50h-116M142 547.435v50H26"/><path class="af3d4099-7ea0-4330-9a21-f3f3726175f5" d="M137 542.435v50H21"/><path class="ff18722d-44da-41cd-9150-98cbcfd2d63a" d="M349.651 459.935v30h81.884v37.901"/><path class="fca65bc0-2f72-4f43-9031-284b6f2e984d" d="M426.548 526.377l4.987 8.635 4.986-8.635h-9.973z"/><path class="ff18722d-44da-41cd-9150-98cbcfd2d63a" d="M252.767 587.435v22.091"/><path class="fca65bc0-2f72-4f43-9031-284b6f2e984d" d="M247.781 608.067l4.986 8.635 4.986-8.635h-9.972z"/><path class="ff18722d-44da-41cd-9150-98cbcfd2d63a" d="M74 587.435v22.091"/><path class="fca65bc0-2f72-4f43-9031-284b6f2e984d" d="M69.014 608.067L74 616.702l4.986-8.635h-9.972z"/><path class="ff18722d-44da-41cd-9150-98cbcfd2d63a" d="M610.302 597.034v22.091"/><path class="fca65bc0-2f72-4f43-9031-284b6f2e984d" d="M605.315 598.493l4.987-8.636 4.986 8.636h-9.973z"/><path class="ff18722d-44da-41cd-9150-98cbcfd2d63a" d="M431.534 587.435v22.091"/><path class="fca65bc0-2f72-4f43-9031-284b6f2e984d" d="M426.548 608.067l4.986 8.635 4.987-8.635h-9.973z"/><path class="ff18722d-44da-41cd-9150-98cbcfd2d63a" d="M364.651 459.935v15h245.651v52.901"/><path class="fca65bc0-2f72-4f43-9031-284b6f2e984d" d="M605.315 526.377l4.987 8.635 4.986-8.635h-9.973z"/><path class="ff18722d-44da-41cd-9150-98cbcfd2d63a" d="M334.651 459.935v30h-81.885v37.901"/><path class="fca65bc0-2f72-4f43-9031-284b6f2e984d" d="M247.78 526.377l4.986 8.635 4.987-8.635h-9.973z"/><path class="ff18722d-44da-41cd-9150-98cbcfd2d63a" d="M319.651 459.935v15H74v52.824"/><path class="fca65bc0-2f72-4f43-9031-284b6f2e984d" d="M69.013 526.3L74 534.935l4.986-8.635h-9.973z"/><text class="be65ca50-c64e-4160-9a0e-6e8f0a25b4eb" transform="translate(225.07 664.918)">Database 1</text><path class="a743f154-25d8-412a-bce2-6fc8ee2dd4d9" d="M234.317 629.645v8.442c0 5.629 8.26 10.192 18.449 10.192s18.449-4.563 18.449-10.192v-8.442"/><path class="a743f154-25d8-412a-bce2-6fc8ee2dd4d9" d="M271.215 629.645c0 5.629-8.259 10.192-18.449 10.192s-18.449-4.563-18.449-10.192 8.26-9.693 18.449-9.693 18.449 4.064 18.449 9.693z"/><text class="be65ca50-c64e-4160-9a0e-6e8f0a25b4eb" transform="translate(402.583 664.918)">Database 2</text><path class="a743f154-25d8-412a-bce2-6fc8ee2dd4d9" d="M413.085 629.645v8.442c0 5.629 8.259 10.192 18.449 10.192s18.449-4.563 18.449-10.192v-8.442"/><path class="a743f154-25d8-412a-bce2-6fc8ee2dd4d9" d="M449.983 629.645c0 5.629-8.26 10.192-18.449 10.192s-18.449-4.563-18.449-10.192 8.259-9.693 18.449-9.693 18.449 4.064 18.449 9.693z"/><path class="ab3d2a13-7746-4486-93f3-a92df69fefa0" d="M16 19.724h276v360H16z"/><text class="a25c8b92-013b-426a-925a-d2bbd2a23acb" transform="translate(36 51.512)">Engress flow</text><path class="f24cd39f-6ba1-46fb-8e3a-aab4db39df1e" d="M36.5 70.224h235v49h-235z"/><path class="e5d8d34c-9beb-4e64-8e10-2f29ed2f6a5a" d="M271 70.724v48H37v-48h234m1-1H36v50h236v-50z"/><text class="eece406a-3e6d-4106-bce1-3caa01d693b2" transform="translate(93.797 98.048)">Application container</text><path class="e5d8d34c-9beb-4e64-8e10-2f29ed2f6a5a" d="M36 219.724h236v50H36z"/><text class="a62bb7ae-1c59-496d-9422-e5dc8b8360d6" transform="translate(115.385 248.048)">Sidecar proxy</text><path class="ab3d2a13-7746-4486-93f3-a92df69fefa0" d="M16 537.435h116v50H16zM552.301 537.435h116v50h-116z"/><text class="eece406a-3e6d-4106-bce1-3caa01d693b2" transform="translate(60.831 565.759)">Pilot</text><path class="ab3d2a13-7746-4486-93f3-a92df69fefa0" d="M373.534 537.435h116v50h-116z"/><text class="eece406a-3e6d-4106-bce1-3caa01d693b2" transform="translate(389.361 565.759)">Trace collector</text><path class="ab3d2a13-7746-4486-93f3-a92df69fefa0" d="M194.767 537.435h116v50h-116z"/><text class="eece406a-3e6d-4106-bce1-3caa01d693b2" transform="translate(218.274 565.759)">Prometheus</text><text class="eece406a-3e6d-4106-bce1-3caa01d693b2" transform="translate(590.058 565.759)">Citadel</text><path class="ab3d2a13-7746-4486-93f3-a92df69fefa0" d="M16 619.202h116v50H16zM552.301 619.202h116v50h-116z"/><text class="eece406a-3e6d-4106-bce1-3caa01d693b2" transform="translate(48.909 647.526)">kube-api</text><text class="eece406a-3e6d-4106-bce1-3caa01d693b2" transform="translate(573.78 641.026)">Intermediate<tspan x="-1.458" y="13">CA cert &amp; key</tspan></text><path class="f0593ebd-5fe8-418d-a9f8-ac9ff788e2ed" d="M154 119.724v90.324"/><path class="fca65bc0-2f72-4f43-9031-284b6f2e984d" d="M149.014 208.589l4.986 8.635 4.986-8.635h-9.972z"/><path class="f24cd39f-6ba1-46fb-8e3a-aab4db39df1e" d="M36 309.724h116v50H36z"/><text class="eece406a-3e6d-4106-bce1-3caa01d693b2" transform="translate(62.573 331.548)">Other NICs<tspan x="5.124" y="13">(SR-IOV)</tspan></text><path class="ab3d2a13-7746-4486-93f3-a92df69fefa0" d="M284.151 409.935h116v50h-116z"/><text class="eece406a-3e6d-4106-bce1-3caa01d693b2" transform="translate(328.537 438.259)">OVN</text><path class="f0593ebd-5fe8-418d-a9f8-ac9ff788e2ed" d="M214 269.724v30.324"/><path class="fca65bc0-2f72-4f43-9031-284b6f2e984d" d="M209.014 298.589l4.986 8.635 4.986-8.635h-9.972z"/><path class="ab3d2a13-7746-4486-93f3-a92df69fefa0" d="M392.301 19.724h276v360h-276z"/><text class="a25c8b92-013b-426a-925a-d2bbd2a23acb" transform="translate(412.301 51.512)">Ingress flow</text><path class="f24cd39f-6ba1-46fb-8e3a-aab4db39df1e" d="M412.802 70.224h235v49h-235z"/><path class="e5d8d34c-9beb-4e64-8e10-2f29ed2f6a5a" d="M647.3 70.724v48h-234v-48h234m1-1h-236v50h236v-50z"/><text class="eece406a-3e6d-4106-bce1-3caa01d693b2" transform="translate(470.099 98.048)">Application container</text><path class="e5d8d34c-9beb-4e64-8e10-2f29ed2f6a5a" d="M412.301 144.724h236v50h-236z"/><text class="a62bb7ae-1c59-496d-9422-e5dc8b8360d6" transform="translate(481.687 173.048)">Sidecar proxy</text><path class="f0593ebd-5fe8-418d-a9f8-ac9ff788e2ed" d="M530.302 129.4v15.324"/><path class="fca65bc0-2f72-4f43-9031-284b6f2e984d" d="M525.315 130.859l4.987-8.635 4.986 8.635h-9.973z"/><path class="f0593ebd-5fe8-418d-a9f8-ac9ff788e2ed" d="M530.302 205.451v84.273h-60.001v20"/><path class="fca65bc0-2f72-4f43-9031-284b6f2e984d" d="M525.315 206.909l4.987-8.635 4.986 8.635h-9.973z"/><path class="ff18722d-44da-41cd-9150-98cbcfd2d63a" d="M214 359.724v72.5h60.474"/><path class="fca65bc0-2f72-4f43-9031-284b6f2e984d" d="M273.015 437.211l8.636-4.987-8.636-4.986v9.973z"/><path class="ff18722d-44da-41cd-9150-98cbcfd2d63a" d="M470.301 369.4v65.324h-70.15"/><path class="fca65bc0-2f72-4f43-9031-284b6f2e984d" d="M465.315 370.859l4.986-8.635 4.987 8.635h-9.973z"/><path class="ff18722d-44da-41cd-9150-98cbcfd2d63a" d="M36 94.724H.5v240h25.824"/><path class="fca65bc0-2f72-4f43-9031-284b6f2e984d" d="M24.865 339.711l8.635-4.987-8.635-4.986v9.973z"/><g><path class="ff18722d-44da-41cd-9150-98cbcfd2d63a" d="M272 169.724h35.5v165h-25.824"/><path class="fca65bc0-2f72-4f43-9031-284b6f2e984d" d="M283.135 329.738l-8.635 4.986 8.635 4.987v-9.973z"/></g><g><path class="ff18722d-44da-41cd-9150-98cbcfd2d63a" d="M648.302 94.724h35.5v240h-25.824"/><path class="fca65bc0-2f72-4f43-9031-284b6f2e984d" d="M659.437 329.738l-8.635 4.986 8.635 4.987v-9.973z"/></g><g><path class="ff18722d-44da-41cd-9150-98cbcfd2d63a" d="M412.306 244.724h-35.5v-150h25.823"/><path class="fca65bc0-2f72-4f43-9031-284b6f2e984d" d="M401.17 99.711l8.636-4.987-8.636-4.986v9.973z"/></g><path class="f24cd39f-6ba1-46fb-8e3a-aab4db39df1e" d="M532.301 309.724h116v50h-116z"/><text class="eece406a-3e6d-4106-bce1-3caa01d693b2" transform="translate(558.874 331.548)">Other NICs<tspan x="5.124" y="13">(SR-IOV)</tspan></text><path class="f24cd39f-6ba1-46fb-8e3a-aab4db39df1e" d="M412.301 309.724h116v50h-116z"/><text class="eece406a-3e6d-4106-bce1-3caa01d693b2" transform="translate(447.809 331.548)">Pod Eth<tspan x="6.96" y="13">(CNI)</tspan></text><g><path class="f24cd39f-6ba1-46fb-8e3a-aab4db39df1e" d="M412.301 219.724h236v50h-236z"/><text class="eece406a-3e6d-4106-bce1-3caa01d693b2" transform="translate(521.86 248.048)">nft</text></g><path class="f24cd39f-6ba1-46fb-8e3a-aab4db39df1e" d="M156 309.724h116v50H156zM156 388.141h106v17.253H156z"/><text class="eece406a-3e6d-4106-bce1-3caa01d693b2" transform="translate(191.507 331.548)">Pod Eth<tspan x="6.96" y="13">(CNI)</tspan></text><text class="eece406a-3e6d-4106-bce1-3caa01d693b2" transform="translate(189.389 401.092)">10.10.1.41</text><path class="f24cd39f-6ba1-46fb-8e3a-aab4db39df1e" d="M383.534 499.048h96v17.253h-96z"/><text class="eece406a-3e6d-4106-bce1-3caa01d693b2" transform="translate(400.077 511.999)">10.10.129.15</text><path class="f24cd39f-6ba1-46fb-8e3a-aab4db39df1e" d="M204.767 499.048h96v17.253h-96z"/><text class="eece406a-3e6d-4106-bce1-3caa01d693b2" transform="translate(219.702 511.999)">10.10.129.29</text><path class="f24cd39f-6ba1-46fb-8e3a-aab4db39df1e" d="M26 499.048h96v17.253H26z"/><text class="eece406a-3e6d-4106-bce1-3caa01d693b2" transform="translate(44.235 511.999)">10.10.129.4</text><path class="f24cd39f-6ba1-46fb-8e3a-aab4db39df1e" d="M562.302 499.048h96v17.253h-96z"/><text class="eece406a-3e6d-4106-bce1-3caa01d693b2" transform="translate(578.97 511.999)">10.10.129.21</text><path class="f24cd39f-6ba1-46fb-8e3a-aab4db39df1e" d="M422.301 388.141h96v17.253h-96z"/><text class="eece406a-3e6d-4106-bce1-3caa01d693b2" transform="translate(442.725 401.092)">10.10.7.20</text><path class="f24cd39f-6ba1-46fb-8e3a-aab4db39df1e" d="M36 144.724h236v50H36z"/><text class="eece406a-3e6d-4106-bce1-3caa01d693b2" transform="translate(145.558 173.048)">nft</text><g><text transform="translate(668.691 692.22)" font-size="10" fill="#ececec" font-family="RedHatText,&quot;Red Hat Text&quot;,Overpass,&quot;Helvetica Neue&quot;,Arial,sans-serif">165_OpenShift_0721</text><path fill="none" d="M0 669.202h760v40H0z"/></g></svg>