<svg id="b6a1a8b0-ba9d-4aa6-b91c-c390449aee75" data-name="artwork" xmlns="http://www.w3.org/2000/svg" width="760" height="683.57"><defs><style>.a238352c-7ccb-4de7-b366-5e9528fe55fb,.a4c4b076-4199-4ab5-9d9f-9a478c06533d,.ac3b3920-3b12-4ee7-be55-83e76b893c81,.ad630e57-2814-4dd2-8231-ad8c14ac47da,.adddaa34-bb04-4ea6-9eee-023731d2d219,.afaa7626-b9c5-4d18-867f-5c8229d12e6d,.b64861bd-c145-43bd-8684-358e2d8fddb0,.b680be51-de95-45ee-a64e-1ffbb4d35166,.b738fc39-0faa-4033-8797-0c41e962d622,.b77d1eeb-306d-4c1b-9247-437ef6f027bf,.be5e126b-5128-437c-9dce-2d4a054bfb33,.f4229363-1ac5-417c-a1a3-9c1421eadee6,.fd0bcf04-c0ec-48f3-bc71-68614c46d2f7{fill:none}.b738fc39-0faa-4033-8797-0c41e962d622{stroke:#4cb6d6}.a238352c-7ccb-4de7-b366-5e9528fe55fb,.a4c4b076-4199-4ab5-9d9f-9a478c06533d,.ac3b3920-3b12-4ee7-be55-83e76b893c81,.ad630e57-2814-4dd2-8231-ad8c14ac47da,.adddaa34-bb04-4ea6-9eee-023731d2d219,.afaa7626-b9c5-4d18-867f-5c8229d12e6d,.b64861bd-c145-43bd-8684-358e2d8fddb0,.b680be51-de95-45ee-a64e-1ffbb4d35166,.b738fc39-0faa-4033-8797-0c41e962d622,.b77d1eeb-306d-4c1b-9247-437ef6f027bf,.bc20a6db-6da8-4ebc-8019-2eaec9f16156,.be5e126b-5128-437c-9dce-2d4a054bfb33,.f4229363-1ac5-417c-a1a3-9c1421eadee6,.fd0bcf04-c0ec-48f3-bc71-68614c46d2f7{stroke-linecap:round;stroke-linejoin:round}.a238352c-7ccb-4de7-b366-5e9528fe55fb,.ac3b3920-3b12-4ee7-be55-83e76b893c81,.ad630e57-2814-4dd2-8231-ad8c14ac47da,.adddaa34-bb04-4ea6-9eee-023731d2d219,.b64861bd-c145-43bd-8684-358e2d8fddb0,.b680be51-de95-45ee-a64e-1ffbb4d35166,.b738fc39-0faa-4033-8797-0c41e962d622,.b77d1eeb-306d-4c1b-9247-437ef6f027bf,.be5e126b-5128-437c-9dce-2d4a054bfb33,.f4229363-1ac5-417c-a1a3-9c1421eadee6,.fd0bcf04-c0ec-48f3-bc71-68614c46d2f7{stroke-width:2px}.adddaa34-bb04-4ea6-9eee-023731d2d219{stroke:#151515}.a4c4b076-4199-4ab5-9d9f-9a478c06533d{stroke:#fff;stroke-width:8px}.aeb63945-b963-40e9-a36a-f26ed5efafe0{fill:#e8e8e8}.b64861bd-c145-43bd-8684-358e2d8fddb0,.b680be51-de95-45ee-a64e-1ffbb4d35166{stroke:#f7823c}.f5b39c58-7d6c-4c45-b105-cd6651ed97c2{fill:#f7823c}.b5f34835-52f7-4e6d-9752-9e1d31e5e355,.bc20a6db-6da8-4ebc-8019-2eaec9f16156{fill:#fff}.b2d34abf-749f-45ee-b840-6360d2aa3b5f{fill:#06c}.f94a8047-fc52-4b2c-b6ed-e6cf30c2e094{font-size:12px}.a18b8529-0912-4f2a-8614-faeee74080ae,.e67ccacb-566a-4e38-873c-f36069321974,.f94a8047-fc52-4b2c-b6ed-e6cf30c2e094{fill:#151515}.a18b8529-0912-4f2a-8614-faeee74080ae,.f94a8047-fc52-4b2c-b6ed-e6cf30c2e094{font-family:RedHatText,&quot;Red Hat Text&quot;,Overpass,&quot;Helvetica Neue&quot;,Arial,sans-serif;font-weight:500}.f116dc2c-cd69-40b6-9b7e-92676b46e7bb{fill:#c4c4c4}.a238352c-7ccb-4de7-b366-5e9528fe55fb,.ac3b3920-3b12-4ee7-be55-83e76b893c81,.ad630e57-2814-4dd2-8231-ad8c14ac47da,.b77d1eeb-306d-4c1b-9247-437ef6f027bf,.be5e126b-5128-437c-9dce-2d4a054bfb33,.f4229363-1ac5-417c-a1a3-9c1421eadee6,.fd0bcf04-c0ec-48f3-bc71-68614c46d2f7{stroke:#06c}.be5e126b-5128-437c-9dce-2d4a054bfb33{stroke-dasharray:3.598 3.598}.a18b8529-0912-4f2a-8614-faeee74080ae{font-size:11px}.afaa7626-b9c5-4d18-867f-5c8229d12e6d,.bc20a6db-6da8-4ebc-8019-2eaec9f16156{stroke:#5b5b5b;stroke-width:1.5px}.e67ccacb-566a-4e38-873c-f36069321974{font-size:14px;font-family:RedHatText,&quot;Red Hat Text&quot;,Overpass,&quot;Helvetica Neue&quot;,Arial,sans-serif;font-weight:700}.b77d1eeb-306d-4c1b-9247-437ef6f027bf{stroke-dasharray:3.2 3.2}.ac3b3920-3b12-4ee7-be55-83e76b893c81{stroke-dasharray:3.842 3.842}.ad630e57-2814-4dd2-8231-ad8c14ac47da{stroke-dasharray:3.761 3.761}.a238352c-7ccb-4de7-b366-5e9528fe55fb{stroke-dasharray:3.883 3.883}.fd0bcf04-c0ec-48f3-bc71-68614c46d2f7{stroke-dasharray:3.714 3.714}.b680be51-de95-45ee-a64e-1ffbb4d35166{stroke-dasharray:3.424 3.424}</style></defs><path class="b738fc39-0faa-4033-8797-0c41e962d622" d="M318.5 311.616v69.608M669.75 381.224v74.949"/><path class="adddaa34-bb04-4ea6-9eee-023731d2d219" d="M669.75 607.724v20M546.5 607.724v20M423.25 607.724v20M300 607.724v20M176.75 607.724v20M53.5 607.724v20M318.25 232.599h425v395.125H0"/><path class="a4c4b076-4199-4ab5-9d9f-9a478c06533d" d="M646.75 619.735v14.784"/><path class="aeb63945-b963-40e9-a36a-f26ed5efafe0" d="M616.25 456.224h107v151.5h-107z"/><path class="b64861bd-c145-43bd-8684-358e2d8fddb0" d="M348.295 193.974v2"/><path stroke-dasharray="3.925 3.925" stroke="#f7823c" stroke-width="2" stroke-linecap="round" stroke-linejoin="round" fill="none" d="M348.295 199.899v13.738"/><path class="b64861bd-c145-43bd-8684-358e2d8fddb0" d="M348.295 215.599v2h2"/><path stroke-dasharray="4.019 4.019" stroke="#f7823c" stroke-width="2" stroke-linecap="round" stroke-linejoin="round" fill="none" d="M354.315 217.599H754.24"/><path class="b64861bd-c145-43bd-8684-358e2d8fddb0" d="M756.25 217.599h2v2"/><path stroke-dasharray="4.011 4.011" stroke="#f7823c" stroke-width="2" stroke-linecap="round" stroke-linejoin="round" fill="none" d="M758.25 223.61v415.109"/><path class="b64861bd-c145-43bd-8684-358e2d8fddb0" d="M758.25 640.724v2h-2"/><path stroke-dasharray="3.981 3.981" stroke="#f7823c" stroke-width="2" stroke-linecap="round" stroke-linejoin="round" fill="none" d="M752.269 642.724H650.741"/><path class="b64861bd-c145-43bd-8684-358e2d8fddb0" d="M648.75 642.724h-2v-2"/><path stroke-dasharray="3.93 3.93" stroke="#f7823c" stroke-width="2" stroke-linecap="round" stroke-linejoin="round" fill="none" d="M646.75 636.794V520.865"/><path class="b64861bd-c145-43bd-8684-358e2d8fddb0" d="M646.75 518.9v-2"/><path class="f5b39c58-7d6c-4c45-b105-cd6651ed97c2" d="M651.736 518.359l-4.986-8.635-4.986 8.635h9.972z"/><path class="b5f34835-52f7-4e6d-9752-9e1d31e5e355" d="M626.75 466.724h40v40h-40z"/><path class="b2d34abf-749f-45ee-b840-6360d2aa3b5f" d="M666.25 467.224v39h-39v-39h39m1-1h-41v41h41v-41z"/><text class="f94a8047-fc52-4b2c-b6ed-e6cf30c2e094" transform="translate(642.568 490.048)">A</text><path class="b5f34835-52f7-4e6d-9752-9e1d31e5e355" d="M672.75 466.724h40v40h-40z"/><path class="b2d34abf-749f-45ee-b840-6360d2aa3b5f" d="M712.25 467.224v39h-39v-39h39m1-1h-41v41h41v-41z"/><text class="f94a8047-fc52-4b2c-b6ed-e6cf30c2e094" transform="translate(688.574 490.048)">B</text><path class="adddaa34-bb04-4ea6-9eee-023731d2d219" d="M318.295 100.724v150.5"/><path class="b5f34835-52f7-4e6d-9752-9e1d31e5e355" d="M215.5 246.724h206v69h-206z"/><path class="f116dc2c-cd69-40b6-9b7e-92676b46e7bb" d="M421 247.224v68H216v-68h205m1-1H215v70h207v-70z"/><path class="f4229363-1ac5-417c-a1a3-9c1421eadee6" d="M303.295 100.724v2"/><path class="be5e126b-5128-437c-9dce-2d4a054bfb33" d="M303.295 106.322v12.593"/><path class="f4229363-1ac5-417c-a1a3-9c1421eadee6" d="M303.295 120.714v2"/><path class="b64861bd-c145-43bd-8684-358e2d8fddb0" d="M348.295 110.4v2"/><path stroke-dasharray="2.771 2.771" stroke="#f7823c" stroke-width="2" stroke-linecap="round" stroke-linejoin="round" fill="none" d="M348.295 115.172v4.156"/><path class="b64861bd-c145-43bd-8684-358e2d8fddb0" d="M348.295 120.714v2"/><path class="f5b39c58-7d6c-4c45-b105-cd6651ed97c2" d="M343.309 111.859l4.986-8.635 4.987 8.635h-9.973z"/><path class="b5f34835-52f7-4e6d-9752-9e1d31e5e355" d="M220.5 20.224h196v80h-196z"/><path class="f116dc2c-cd69-40b6-9b7e-92676b46e7bb" d="M416 20.724v79H221v-79h195m1-1H220v81h197v-81z"/><text class="a18b8529-0912-4f2a-8614-faeee74080ae" transform="translate(274.49 79.574)">External network</text><path class="bc20a6db-6da8-4ebc-8019-2eaec9f16156" d="M333.56 49.727a13.4 13.4 0 00-25.034-6.507 10.127 10.127 0 00-1.726-.157 9.968 9.968 0 100 19.937h26.76a6.636 6.636 0 100-13.271z"/><path class="b738fc39-0faa-4033-8797-0c41e962d622" d="M15.5 381.224v74.949M176.75 381.224v74.949M300 381.224v74.949M423.25 381.224v74.949M546.5 381.224v74.949M723.25 381.224H0"/><path class="aeb63945-b963-40e9-a36a-f26ed5efafe0" d="M0 456.224h107v151.5H0z"/><text class="e67ccacb-566a-4e38-873c-f36069321974" transform="translate(10 577.954)">Worker<tspan x="0" y="15">node 1</tspan></text><path class="b5f34835-52f7-4e6d-9752-9e1d31e5e355" d="M10.5 466.724h40v40h-40z"/><path class="b2d34abf-749f-45ee-b840-6360d2aa3b5f" d="M50 467.224v39H11v-39h39m1-1H10v41h41v-41z"/><text class="f94a8047-fc52-4b2c-b6ed-e6cf30c2e094" transform="translate(26.318 490.048)">A</text><path class="b5f34835-52f7-4e6d-9752-9e1d31e5e355" d="M56.5 466.724h40v40h-40z"/><path class="b2d34abf-749f-45ee-b840-6360d2aa3b5f" d="M96 467.224v39H57v-39h39m1-1H56v41h41v-41z"/><text class="f94a8047-fc52-4b2c-b6ed-e6cf30c2e094" transform="translate(72.324 490.048)">B</text><path class="aeb63945-b963-40e9-a36a-f26ed5efafe0" d="M123.25 456.224h107v151.5h-107z"/><text class="e67ccacb-566a-4e38-873c-f36069321974" transform="translate(133.25 577.954)">Worker<tspan x="0" y="15">node 2</tspan></text><path class="b5f34835-52f7-4e6d-9752-9e1d31e5e355" d="M133.75 466.724h40v40h-40z"/><path class="b2d34abf-749f-45ee-b840-6360d2aa3b5f" d="M173.25 467.224v39h-39v-39h39m1-1h-41v41h41v-41z"/><text class="f94a8047-fc52-4b2c-b6ed-e6cf30c2e094" transform="translate(149.568 490.048)">A</text><path class="b5f34835-52f7-4e6d-9752-9e1d31e5e355" d="M179.75 466.724h40v40h-40z"/><path class="b2d34abf-749f-45ee-b840-6360d2aa3b5f" d="M219.25 467.224v39h-39v-39h39m1-1h-41v41h41v-41z"/><text class="f94a8047-fc52-4b2c-b6ed-e6cf30c2e094" transform="translate(195.574 490.048)">B</text><path class="aeb63945-b963-40e9-a36a-f26ed5efafe0" d="M246.5 456.224h107v151.5h-107z"/><text class="e67ccacb-566a-4e38-873c-f36069321974" transform="translate(256.5 577.954)">Worker<tspan x="0" y="15">node 3</tspan></text><path class="b5f34835-52f7-4e6d-9752-9e1d31e5e355" d="M257 466.724h40v40h-40z"/><path class="b2d34abf-749f-45ee-b840-6360d2aa3b5f" d="M296.5 467.224v39h-39v-39h39m1-1h-41v41h41v-41z"/><text class="f94a8047-fc52-4b2c-b6ed-e6cf30c2e094" transform="translate(272.818 490.048)">A</text><path class="b5f34835-52f7-4e6d-9752-9e1d31e5e355" d="M303 466.724h40v40h-40z"/><path class="b2d34abf-749f-45ee-b840-6360d2aa3b5f" d="M342.5 467.224v39h-39v-39h39m1-1h-41v41h41v-41z"/><text class="f94a8047-fc52-4b2c-b6ed-e6cf30c2e094" transform="translate(318.824 490.048)">B</text><path class="aeb63945-b963-40e9-a36a-f26ed5efafe0" d="M369.75 456.224h107v151.5h-107z"/><text class="e67ccacb-566a-4e38-873c-f36069321974" transform="translate(379.75 577.954)">Worker<tspan x="0" y="15">node 4</tspan></text><path class="b5f34835-52f7-4e6d-9752-9e1d31e5e355" d="M380.25 466.724h40v40h-40z"/><path class="b2d34abf-749f-45ee-b840-6360d2aa3b5f" d="M419.75 467.224v39h-39v-39h39m1-1h-41v41h41v-41z"/><text class="f94a8047-fc52-4b2c-b6ed-e6cf30c2e094" transform="translate(396.068 490.048)">A</text><path class="b5f34835-52f7-4e6d-9752-9e1d31e5e355" d="M426.25 466.724h40v40h-40z"/><path class="b2d34abf-749f-45ee-b840-6360d2aa3b5f" d="M465.75 467.224v39h-39v-39h39m1-1h-41v41h41v-41z"/><text class="f94a8047-fc52-4b2c-b6ed-e6cf30c2e094" transform="translate(442.074 490.048)">B</text><path class="aeb63945-b963-40e9-a36a-f26ed5efafe0" d="M493 456.224h107v151.5H493z"/><text class="e67ccacb-566a-4e38-873c-f36069321974" transform="translate(503 577.954)">Worker<tspan x="0" y="15">node 5</tspan></text><path class="b5f34835-52f7-4e6d-9752-9e1d31e5e355" d="M503.5 466.724h40v40h-40z"/><path class="b2d34abf-749f-45ee-b840-6360d2aa3b5f" d="M543 467.224v39h-39v-39h39m1-1h-41v41h41v-41z"/><text class="f94a8047-fc52-4b2c-b6ed-e6cf30c2e094" transform="translate(519.318 490.048)">A</text><path class="b5f34835-52f7-4e6d-9752-9e1d31e5e355" d="M549.5 466.724h40v40h-40z"/><path class="b2d34abf-749f-45ee-b840-6360d2aa3b5f" d="M589 467.224v39h-39v-39h39m1-1h-41v41h41v-41z"/><text class="f94a8047-fc52-4b2c-b6ed-e6cf30c2e094" transform="translate(565.324 490.048)">B</text><path class="b5f34835-52f7-4e6d-9752-9e1d31e5e355" d="M10.5 512.725h40v40h-40z"/><path class="b2d34abf-749f-45ee-b840-6360d2aa3b5f" d="M50 513.224v39H11v-39h39m1-1H10v41h41v-41z"/><text class="f94a8047-fc52-4b2c-b6ed-e6cf30c2e094" transform="translate(26.324 536.048)">B</text><g><path class="b5f34835-52f7-4e6d-9752-9e1d31e5e355" d="M503.5 512.725h40v40h-40z"/><path class="b2d34abf-749f-45ee-b840-6360d2aa3b5f" d="M543 513.224v39h-39v-39h39m1-1h-41v41h41v-41z"/></g><text class="f94a8047-fc52-4b2c-b6ed-e6cf30c2e094" transform="translate(519.324 536.048)">B</text><g><path class="b5f34835-52f7-4e6d-9752-9e1d31e5e355" d="M549.5 512.725h40v40h-40z"/><path class="b2d34abf-749f-45ee-b840-6360d2aa3b5f" d="M589 513.224v39h-39v-39h39m1-1h-41v41h41v-41z"/></g><text class="f94a8047-fc52-4b2c-b6ed-e6cf30c2e094" transform="translate(565.324 536.048)">B</text><g><path class="f4229363-1ac5-417c-a1a3-9c1421eadee6" d="M92.125 406.224v2"/><path class="b77d1eeb-306d-4c1b-9247-437ef6f027bf" d="M92.125 411.424v11.2"/><path class="f4229363-1ac5-417c-a1a3-9c1421eadee6" d="M92.125 424.224v2h-2"/><path class="ac3b3920-3b12-4ee7-be55-83e76b893c81" d="M86.283 426.224H34.421"/><path class="f4229363-1ac5-417c-a1a3-9c1421eadee6" d="M32.5 426.224h-2v2"/><path class="ad630e57-2814-4dd2-8231-ad8c14ac47da" d="M30.5 431.985v20.683"/><path class="f4229363-1ac5-417c-a1a3-9c1421eadee6" d="M30.5 454.548v2"/><path class="b2d34abf-749f-45ee-b840-6360d2aa3b5f" d="M25.514 455.089l4.986 8.635 4.986-8.635h-9.972z"/><g><path class="f4229363-1ac5-417c-a1a3-9c1421eadee6" d="M153.75 456.548v-2"/><path class="ad630e57-2814-4dd2-8231-ad8c14ac47da" d="M153.75 450.787v-20.682"/><path class="f4229363-1ac5-417c-a1a3-9c1421eadee6" d="M153.75 428.224v-2h-2"/><path class="ac3b3920-3b12-4ee7-be55-83e76b893c81" d="M147.908 426.224H96.046"/><path class="f4229363-1ac5-417c-a1a3-9c1421eadee6" d="M94.125 426.224h-2"/><path class="b2d34abf-749f-45ee-b840-6360d2aa3b5f" d="M158.736 455.089l-4.986 8.635-4.986-8.635h9.972z"/></g></g><path class="a4c4b076-4199-4ab5-9d9f-9a478c06533d" d="M400.25 441.224H199.5"/><g><path class="f4229363-1ac5-417c-a1a3-9c1421eadee6" d="M400.25 456.548v-15.324H199.5v15.324"/><path class="b2d34abf-749f-45ee-b840-6360d2aa3b5f" d="M405.236 455.089l-4.986 8.635-4.986-8.635h9.972zM194.514 455.089l4.986 8.635 4.986-8.635h-9.972z"/></g><g><path class="f4229363-1ac5-417c-a1a3-9c1421eadee6" d="M314.5 456.548v-15.324"/><path class="b2d34abf-749f-45ee-b840-6360d2aa3b5f" d="M319.486 455.089l-4.986 8.635-4.986-8.635h9.972z"/></g><path class="a4c4b076-4199-4ab5-9d9f-9a478c06533d" d="M329.5 448.224l-.625-22h237.5"/><g><path class="f4229363-1ac5-417c-a1a3-9c1421eadee6" d="M484.875 426.224h2"/><path stroke-dasharray="3.839 3.839" stroke="#06c" stroke-width="2" stroke-linecap="round" stroke-linejoin="round" fill="none" d="M490.714 426.224h74.866"/><path class="f4229363-1ac5-417c-a1a3-9c1421eadee6" d="M567.5 426.224h2v2"/><path class="ad630e57-2814-4dd2-8231-ad8c14ac47da" d="M569.5 431.985v20.683"/><path class="f4229363-1ac5-417c-a1a3-9c1421eadee6" d="M569.5 454.548v2"/><path class="b2d34abf-749f-45ee-b840-6360d2aa3b5f" d="M564.514 455.089l4.986 8.635 4.986-8.635h-9.972z"/></g><g><path class="f4229363-1ac5-417c-a1a3-9c1421eadee6" d="M333.295 100.724v2"/><path class="be5e126b-5128-437c-9dce-2d4a054bfb33" d="M333.295 106.322v12.593"/><path class="f4229363-1ac5-417c-a1a3-9c1421eadee6" d="M333.295 120.714v2"/></g><path class="a4c4b076-4199-4ab5-9d9f-9a478c06533d" d="M333.295 226.266v101.232M303.295 236.266v97.598"/><g><path class="f4229363-1ac5-417c-a1a3-9c1421eadee6" d="M333.295 193.974v2"/><path class="a238352c-7ccb-4de7-b366-5e9528fe55fb" d="M333.295 199.858v52.425"/><path class="f4229363-1ac5-417c-a1a3-9c1421eadee6" d="M333.295 254.224v2"/></g><path class="aeb63945-b963-40e9-a36a-f26ed5efafe0" d="M620.67 560.728h83.358v38.01H620.67z"/><text class="e67ccacb-566a-4e38-873c-f36069321974" transform="translate(626.25 577.954)">Worker<tspan x="0" y="15">node N</tspan></text><g><path class="f4229363-1ac5-417c-a1a3-9c1421eadee6" d="M484.875 406.224v2"/><path class="b77d1eeb-306d-4c1b-9247-437ef6f027bf" d="M484.875 411.424v11.2"/><path class="f4229363-1ac5-417c-a1a3-9c1421eadee6" d="M484.875 424.224v2h-2"/><path stroke-dasharray="4.091 4.091" stroke="#06c" stroke-width="2" stroke-linecap="round" stroke-linejoin="round" fill="none" d="M478.784 426.224H333.546"/><path class="f4229363-1ac5-417c-a1a3-9c1421eadee6" d="M331.5 426.224h-2v2"/><path class="ad630e57-2814-4dd2-8231-ad8c14ac47da" d="M329.5 431.985v20.683"/><path class="f4229363-1ac5-417c-a1a3-9c1421eadee6" d="M329.5 454.548v2"/><path class="b2d34abf-749f-45ee-b840-6360d2aa3b5f" d="M324.514 455.089l4.986 8.635 4.986-8.635h-9.972z"/></g><g><path class="f4229363-1ac5-417c-a1a3-9c1421eadee6" d="M92.125 356.224v-2"/><path class="b77d1eeb-306d-4c1b-9247-437ef6f027bf" d="M92.125 351.024v-11.2"/><path class="f4229363-1ac5-417c-a1a3-9c1421eadee6" d="M92.125 338.224v-2h2"/><path stroke-dasharray="4.062 4.062" stroke="#06c" stroke-width="2" stroke-linecap="round" stroke-linejoin="round" fill="none" d="M98.187 336.224h201.077"/><path class="f4229363-1ac5-417c-a1a3-9c1421eadee6" d="M301.295 336.224h2v-2"/><path class="fd0bcf04-c0ec-48f3-bc71-68614c46d2f7" d="M303.295 330.51v-20.429"/><path class="f4229363-1ac5-417c-a1a3-9c1421eadee6" d="M303.295 308.224v-2"/></g><g><path class="aeb63945-b963-40e9-a36a-f26ed5efafe0" d="M46.625 356.224h91v50h-91z"/><text class="f94a8047-fc52-4b2c-b6ed-e6cf30c2e094" transform="translate(60.073 378.048)">Application<tspan x="6.51" y="13">service A</tspan></text></g><path class="f4229363-1ac5-417c-a1a3-9c1421eadee6" d="M238.375 406.224v35"/><g><path class="aeb63945-b963-40e9-a36a-f26ed5efafe0" d="M192.875 356.224h91v50h-91z"/><text class="f94a8047-fc52-4b2c-b6ed-e6cf30c2e094" transform="translate(206.323 378.048)">Application<tspan x="4.464" y="13">service B1</tspan></text></g><g><path class="f4229363-1ac5-417c-a1a3-9c1421eadee6" d="M303.295 193.974v2"/><path class="a238352c-7ccb-4de7-b366-5e9528fe55fb" d="M303.295 199.858v52.425"/><path class="f4229363-1ac5-417c-a1a3-9c1421eadee6" d="M303.295 254.224v2"/></g><g><path class="aeb63945-b963-40e9-a36a-f26ed5efafe0" d="M226 256.224h91v50h-91z"/><text class="f94a8047-fc52-4b2c-b6ed-e6cf30c2e094" transform="translate(240.78 278.048)">External IP<tspan x="5.178" y="13">service A</tspan></text></g><g><path class="b5f34835-52f7-4e6d-9752-9e1d31e5e355" d="M220.5 123.474h196v70h-196z"/><path class="f116dc2c-cd69-40b6-9b7e-92676b46e7bb" d="M416 123.974v69H221v-69h195m1-1H220v71h197v-71z"/></g><g><text class="a18b8529-0912-4f2a-8614-faeee74080ae" transform="translate(300.724 172.688)">Router</text><path class="bc20a6db-6da8-4ebc-8019-2eaec9f16156" d="M300.051 141.843h36.898v14.25h-36.898z"/><path stroke="#5b5b5b" stroke-width="2" stroke-linecap="round" stroke-linejoin="round" fill="none" d="M331.062 148.825h0"/><path class="afaa7626-b9c5-4d18-867f-5c8229d12e6d" d="M310.045 151.808v-5.841M305.818 151.808v-5.841M314.273 151.808v-5.841M318.5 151.808v-5.841"/></g><g><path class="f4229363-1ac5-417c-a1a3-9c1421eadee6" d="M484.875 356.224v-2"/><path class="b77d1eeb-306d-4c1b-9247-437ef6f027bf" d="M484.875 351.024v-11.2"/><path class="f4229363-1ac5-417c-a1a3-9c1421eadee6" d="M484.875 338.224v-2h-2"/><path stroke-dasharray="3.989 3.989" stroke="#06c" stroke-width="2" stroke-linecap="round" stroke-linejoin="round" fill="none" d="M478.886 336.224H337.29"/><path class="f4229363-1ac5-417c-a1a3-9c1421eadee6" d="M335.295 336.224h-2v-2"/><path class="fd0bcf04-c0ec-48f3-bc71-68614c46d2f7" d="M333.295 330.51v-20.429"/><path class="f4229363-1ac5-417c-a1a3-9c1421eadee6" d="M333.295 308.224v-2"/></g><g><path class="aeb63945-b963-40e9-a36a-f26ed5efafe0" d="M321 256.224h91v50h-91z"/><text class="f94a8047-fc52-4b2c-b6ed-e6cf30c2e094" transform="translate(335.78 278.048)">External IP<tspan x="5.184" y="13">service B</tspan></text></g><g><path class="aeb63945-b963-40e9-a36a-f26ed5efafe0" d="M439.375 356.224h91v50h-91z"/><text class="f94a8047-fc52-4b2c-b6ed-e6cf30c2e094" transform="translate(452.823 378.048)">Application<tspan x="3.096" y="13">service B2</tspan></text></g><g><path class="b5f34835-52f7-4e6d-9752-9e1d31e5e355" d="M568.16 131.418h17v17h-17z"/><path class="b2d34abf-749f-45ee-b840-6360d2aa3b5f" d="M584.66 131.918v16h-16v-16h16m1-1h-18v18h18v-18z"/><text class="f94a8047-fc52-4b2c-b6ed-e6cf30c2e094" transform="translate(594.253 29.828)">Internal cluster traffic</text><path class="f4229363-1ac5-417c-a1a3-9c1421eadee6" d="M570.388 26.196h14.272"/><path class="b2d34abf-749f-45ee-b840-6360d2aa3b5f" d="M571.847 31.183l-8.635-4.987 8.635-4.986v9.973z"/><text class="f94a8047-fc52-4b2c-b6ed-e6cf30c2e094" transform="translate(594.253 54.89)">External traffic</text><path class="f4229363-1ac5-417c-a1a3-9c1421eadee6" d="M570.388 51.258h2"/><path stroke-dasharray="3.424 3.424" stroke="#06c" stroke-width="2" stroke-linecap="round" stroke-linejoin="round" fill="none" d="M575.812 51.258h5.136"/><path class="f4229363-1ac5-417c-a1a3-9c1421eadee6" d="M582.66 51.258h2"/><path class="b2d34abf-749f-45ee-b840-6360d2aa3b5f" d="M571.847 56.244l-8.635-4.986 8.635-4.986v9.972z"/><text class="f94a8047-fc52-4b2c-b6ed-e6cf30c2e094" transform="translate(594.253 79.952)">Multus</text><g><path class="b64861bd-c145-43bd-8684-358e2d8fddb0" d="M570.388 76.32h2"/><path class="b680be51-de95-45ee-a64e-1ffbb4d35166" d="M575.812 76.32h5.136"/><path class="b64861bd-c145-43bd-8684-358e2d8fddb0" d="M582.66 76.32h2"/><path class="f5b39c58-7d6c-4c45-b105-cd6651ed97c2" d="M571.847 81.306l-8.635-4.986 8.635-4.987v9.973z"/></g><g><path class="b64861bd-c145-43bd-8684-358e2d8fddb0" d="M570.388 76.32h2"/><path class="b680be51-de95-45ee-a64e-1ffbb4d35166" d="M575.812 76.32h5.136"/><path class="b64861bd-c145-43bd-8684-358e2d8fddb0" d="M582.66 76.32h2"/><path class="f5b39c58-7d6c-4c45-b105-cd6651ed97c2" d="M571.847 81.306l-8.635-4.986 8.635-4.987v9.973z"/></g><text class="f94a8047-fc52-4b2c-b6ed-e6cf30c2e094" transform="translate(594.253 143.242)">Application Pods</text><text class="f94a8047-fc52-4b2c-b6ed-e6cf30c2e094" transform="translate(594.253 105.013)">Container Network Interface,<tspan x="0" y="13">pod network, service network</tspan></text><path class="b738fc39-0faa-4033-8797-0c41e962d622" d="M565.212 101.381h19.448"/></g><g><text transform="translate(668.691 666.587)" font-size="10" fill="#ececec" font-family="RedHatText,&quot;Red Hat Text&quot;,Overpass,&quot;Helvetica Neue&quot;,Arial,sans-serif">165_OpenShift_0721</text><path fill="none" d="M0 643.57h760v40H0z"/></g></svg>