<svg xmlns="http://www.w3.org/2000/svg" viewBox="0 0 24 24"><path d="M17.656 14.828a.961.961 0 0 1 .297.703c0 .281-.099.521-.297.719l-1.406 1.406a.98.98 0 0 1-.719.297.961.961 0 0 1-.703-.297L12 14.828l-2.828 2.828a.961.961 0 0 1-.703.297.98.98 0 0 1-.719-.297L6.344 16.25a.978.978 0 0 1-.297-.719c0-.27.099-.505.297-.703L9.172 12 6.344 9.172a.96.96 0 0 1-.297-.703.98.98 0 0 1 .297-.72L7.75 6.345a.979.979 0 0 1 .719-.297c.27 0 .505.099.703.297L12 9.172l2.828-2.828a.96.96 0 0 1 .703-.297c.282 0 .522.099.72.297l1.405 1.406a.98.98 0 0 1 .297.719c0 .27-.099.505-.297.703L14.828 12l2.828 2.828zm4.735-8.852a11.95 11.95 0 0 0-4.367-4.367C16.185.536 14.178 0 12 0 9.823 0 7.815.536 5.977 1.61A11.946 11.946 0 0 0 1.61 5.975C.536 7.816 0 9.823 0 12s.537 4.185 1.61 6.023a11.95 11.95 0 0 0 4.367 4.368C7.815 23.464 9.823 24 12 24c2.177 0 4.185-.536 6.024-1.61a11.946 11.946 0 0 0 4.367-4.367C23.464 16.185 24 14.177 24 12c0-2.177-.536-4.185-1.609-6.024z" fill="currentColor" fill-rule="evenodd"/></svg>