<svg id="bf73dbcd-85fd-4901-bdda-99b8d5b91dfa" data-name="artwork" xmlns="http://www.w3.org/2000/svg" width="760" height="463.845"><defs><style>.aa285977-c49f-4867-87a2-dff40b604c10{fill:#f3f3f3}.aa2ba89c-10b0-423b-8b42-e05e2c8929b2,.ea033e1d-ebaa-47b4-9f26-5fcc77b975bf{font-size:11px}.adbf7962-f6fd-4da2-9f08-084342925f64,.b7e6864d-3a53-43db-b69b-4e1dbe7083d8,.e2d56450-3bde-4a16-97c0-341ccc11165a,.ea033e1d-ebaa-47b4-9f26-5fcc77b975bf,.f75f021d-bb2f-40a6-9ffc-66678f232534{fill:#151515}.aa2ba89c-10b0-423b-8b42-e05e2c8929b2,.ea033e1d-ebaa-47b4-9f26-5fcc77b975bf,.f75f021d-bb2f-40a6-9ffc-66678f232534{font-family:RedHatText-Bold,Red Hat Text;font-weight:700}.b442b657-0c2b-46f2-9c64-bb16bb0dba41{letter-spacing:.008em}.be35494c-f4fb-4031-ae5e-d1c0e646935c{letter-spacing:.012em}.a12d5c84-9d83-43de-b1ec-eb5d1266273c{letter-spacing:.009em}.b20cfeb8-faa2-49b9-8160-6f8895ff3614{letter-spacing:.012em}.b9ef3473-53e4-42a1-8266-a0ca9fe828d8{letter-spacing:.002em}.ab3bd6ea-c1f0-4be7-9267-10b7abeaab2b{letter-spacing:.007em}.bfbc2055-8b57-41e3-b1b6-6b793f38b14e{letter-spacing:-.005em}.aa4e217c-6200-4a73-954d-2616a62dda2d{letter-spacing:-.018em}.b2b4ba86-9243-492a-959d-a02f9035bcc0{letter-spacing:-.069em}.f6d2a449-0659-4184-b185-e1e506a230ef{letter-spacing:.008em}.e13e9634-5422-4c56-bdd6-bfdda5e970fc{letter-spacing:.004em}.bfd35d22-e97c-41b4-a1ff-ba2d7b56e3e8{letter-spacing:.01em}.b733b662-9766-48f7-83f9-dc4c223ebeb0{letter-spacing:.015em}.e49c8763-9656-4ff1-8d62-6c27a339c6a1{letter-spacing:.012em}.a700a71e-94dd-4afa-8600-8954eeaf2f02{letter-spacing:.011em}.e260a974-141a-4d3e-b4b0-f26fb753c4cd{letter-spacing:-.002em}.feab918d-3e4a-444a-bb09-86187bc706fa{letter-spacing:.013em}.b2e161c5-87bb-4485-9246-7cf388b39455{letter-spacing:.001em}.ecd883ad-956b-4368-91b4-31e505d35975{letter-spacing:.022em}.bea4d8ec-caac-4f55-9f49-d94ec28bd31e{letter-spacing:.007em}.a701fbcf-a814-4c04-97a9-39e811cd9055{letter-spacing:-.002em}.b89b4d82-df22-4f5e-b937-0a70567e5a64{fill:#d9e8f7}.adbf7962-f6fd-4da2-9f08-084342925f64,.e2d56450-3bde-4a16-97c0-341ccc11165a{font-size:10px}.e2d56450-3bde-4a16-97c0-341ccc11165a{font-family:LiberationMono,Liberation Mono}.aa2ba89c-10b0-423b-8b42-e05e2c8929b2{fill:#fff}.b4723f27-2df2-44b2-87b0-60b6a963db95{letter-spacing:.005em}.bf7481be-6d6d-42b8-bcd3-b2d018aff2e5{letter-spacing:.012em}.a0b13bff-e2dd-454f-842f-4982b096513b{letter-spacing:.027em}.e6f70867-9f19-4dd0-80a5-e8e5c2582132{letter-spacing:.008em}.f75f021d-bb2f-40a6-9ffc-66678f232534{font-size:12px}.f2cd8c40-c2e2-4216-9c17-f7acd34f7a80{letter-spacing:.004em}.bfe9eb7c-6fb5-4637-8422-2654fc768a5e{letter-spacing:.009em}.fd0e6e93-bc7e-4491-b3e7-785ac23aa763{letter-spacing:.005em}.e88eadfa-a6fb-4baf-80fa-46f7718fd92a{letter-spacing:.008em}.bec5f27d-d148-4307-80d4-80ba708f16f6{letter-spacing:-.002em}.b9ac29c4-f863-435b-bfbd-3b95e4a23b26{letter-spacing:.003em}.aca4d34f-7961-44d9-bee4-c1e02aa3f291{letter-spacing:-.009em}.a5428c4d-c451-4a58-ab54-54c7dfca2cab{letter-spacing:-.023em}.b6db2dfc-8b72-494e-968d-a0fa1ac516dc{letter-spacing:-.074em}.a66023e8-7a45-4ef7-9d64-9370308ecff0{letter-spacing:.004em}.f733d232-1bcc-4684-a5bc-b4e998655ebc{letter-spacing:.006em}.a162dad4-d349-4649-86d4-3fe028fa6f34{letter-spacing:.011em}.f320305b-d7fc-4e56-bda3-8b3aac6d3452{letter-spacing:.008em}.b6c887ea-407b-4861-85a5-1107f2379bb0{letter-spacing:-.006em}.a904e792-ee29-400a-8d8e-9e1765dd0972{letter-spacing:.01em}.a894d10d-314d-4157-9352-b345b4f88acc{letter-spacing:-.003em}.f1963c8a-6caa-40d7-8c72-86de45579e2e{letter-spacing:.007em}.adc66a6e-f2c5-4d17-8e7f-306cc4a4606c{letter-spacing:.005em}.a0751314-d4b0-4967-9b46-f875fc0e6f87{letter-spacing:.008em}.bd429180-efe5-4500-a841-4ae2f48dd14f{letter-spacing:-.001em}.bfe0bbf7-e451-4d79-8002-598c5441fd67{letter-spacing:.006em}.ab1f071a-78ba-49af-a72e-3fa0b11fa60d{fill:none;stroke:#151515;stroke-linecap:round;stroke-linejoin:round}.adbf7962-f6fd-4da2-9f08-084342925f64{font-family:RedHatText-Medium,Red Hat Text;font-weight:500}.bf2f52a8-ab88-49f4-b7c1-13d0244d45a8{letter-spacing:-.015em}.ad5421e1-2830-4145-9ac5-ee39f8306248{letter-spacing:0}.b4624388-0df3-45bc-a413-506406b503ab{letter-spacing:-.024em}.f2458ee4-440e-4315-824f-2e1f8046de10{letter-spacing:-.015em}</style></defs><path class="aa285977-c49f-4867-87a2-dff40b604c10" d="M585 56.711h175v120H585z"/><text class="ea033e1d-ebaa-47b4-9f26-5fcc77b975bf" transform="translate(600 82.535)"><tspan class="b442b657-0c2b-46f2-9c64-bb16bb0dba41">n</tspan><tspan class="be35494c-f4fb-4031-ae5e-d1c0e646935c" x="6.883" y="0">a</tspan><tspan class="a12d5c84-9d83-43de-b1ec-eb5d1266273c" x="13.388" y="0">me</tspan><tspan class="b20cfeb8-faa2-49b9-8160-6f8895ff3614" x="30.135" y="0">s</tspan><tspan class="b9ef3473-53e4-42a1-8266-a0ca9fe828d8" x="35.887" y="0">p</tspan><tspan class="ab3bd6ea-c1f0-4be7-9267-10b7abeaab2b" x="42.993" y="0">a</tspan><tspan class="bfbc2055-8b57-41e3-b1b6-6b793f38b14e" x="49.441" y="0">c</tspan><tspan class="aa4e217c-6200-4a73-954d-2616a62dda2d" x="55.317" y="0">e</tspan><tspan class="b2b4ba86-9243-492a-959d-a02f9035bcc0" x="61.629" y="0">/</tspan><tspan class="f6d2a449-0659-4184-b185-e1e506a230ef" x="66.745" y="0">o</tspan><tspan class="e13e9634-5422-4c56-bdd6-bfdda5e970fc" x="73.638" y="0">p</tspan><tspan class="bfd35d22-e97c-41b4-a1ff-ba2d7b56e3e8" x="80.767" y="0">e</tspan><tspan class="b733b662-9766-48f7-83f9-dc4c223ebeb0" x="87.386" y="0">n</tspan><tspan class="e49c8763-9656-4ff1-8d62-6c27a339c6a1" x="94.345" y="0">s</tspan><tspan class="a700a71e-94dd-4afa-8600-8954eeaf2f02" x="100.098" y="0">h</tspan><tspan class="e260a974-141a-4d3e-b4b0-f26fb753c4cd" x="107.021" y="0">i</tspan><tspan class="feab918d-3e4a-444a-bb09-86187bc706fa" x="110.167" y="0">f</tspan><tspan class="b2e161c5-87bb-4485-9246-7cf388b39455" x="115.374" y="0">t</tspan><tspan x="120.426" y="0">-</tspan><tspan x="0" y="12" letter-spacing=".012em">a</tspan><tspan x="6.496" y="12" letter-spacing=".001em">u</tspan><tspan class="ecd883ad-956b-4368-91b4-31e505d35975" x="13.31" y="12">t</tspan><tspan class="bea4d8ec-caac-4f55-9f49-d94ec28bd31e" x="18.593" y="12">h</tspan><tspan x="25.471" y="12" letter-spacing=".01em">e</tspan><tspan class="a701fbcf-a814-4c04-97a9-39e811cd9055" x="32.089" y="12">n</tspan><tspan x="38.861" y="12" letter-spacing=".02em">t</tspan><tspan x="44.12" y="12" letter-spacing=".006em">i</tspan><tspan x="47.352" y="12" letter-spacing=".009em">c</tspan><tspan x="53.385" y="12" letter-spacing="-.003em">a</tspan><tspan x="59.717" y="12" letter-spacing=".02em">t</tspan><tspan x="64.977" y="12" letter-spacing=".006em">i</tspan><tspan class="f6d2a449-0659-4184-b185-e1e506a230ef" x="68.207" y="12">o</tspan><tspan x="75.1" y="12">n</tspan></text><path class="b89b4d82-df22-4f5e-b937-0a70567e5a64" d="M599.75 111.711h145v50h-145z"/><text class="e2d56450-3bde-4a16-97c0-341ccc11165a" transform="translate(612.24 135.768)">secrets/v4-0-config-<tspan x="3.001" y="12">system-router-certs</tspan></text><circle class="b7e6864d-3a53-43db-b69b-4e1dbe7083d8" cx="672.25" cy="111.711" r="9"/><text class="aa2ba89c-10b0-423b-8b42-e05e2c8929b2" transform="translate(666.599 115.496)">12</text><path class="aa285977-c49f-4867-87a2-dff40b604c10" d="M390 301.622h170v125H390z"/><path class="b89b4d82-df22-4f5e-b937-0a70567e5a64" d="M405 361.622h140v50H405z"/><text class="e2d56450-3bde-4a16-97c0-341ccc11165a" transform="translate(417.991 385.768)">configmaps/detault-<tspan x="21.003" y="12">ingress-cert</tspan></text><circle class="b7e6864d-3a53-43db-b69b-4e1dbe7083d8" cx="475" cy="361.622" r="9"/><text class="aa2ba89c-10b0-423b-8b42-e05e2c8929b2" transform="translate(469.349 365.408)">12</text><path class="aa285977-c49f-4867-87a2-dff40b604c10" d="M0 301.622h170v125H0z"/><path class="b89b4d82-df22-4f5e-b937-0a70567e5a64" d="M14.75 361.534h140v50h-140z"/><text class="e2d56450-3bde-4a16-97c0-341ccc11165a" transform="translate(51.745 385.768)">configmaps/<tspan x="-15.003" y="12">serviceacount-ca</tspan></text><circle class="b7e6864d-3a53-43db-b69b-4e1dbe7083d8" cx="84.75" cy="361.534" r="9"/><text class="aa2ba89c-10b0-423b-8b42-e05e2c8929b2" transform="translate(79.099 365.32)">12</text><text class="ea033e1d-ebaa-47b4-9f26-5fcc77b975bf" transform="translate(15 327.291)"><tspan class="b442b657-0c2b-46f2-9c64-bb16bb0dba41">n</tspan><tspan class="be35494c-f4fb-4031-ae5e-d1c0e646935c" x="6.883" y="0">a</tspan><tspan class="a12d5c84-9d83-43de-b1ec-eb5d1266273c" x="13.388" y="0">me</tspan><tspan class="b20cfeb8-faa2-49b9-8160-6f8895ff3614" x="30.135" y="0">s</tspan><tspan class="b9ef3473-53e4-42a1-8266-a0ca9fe828d8" x="35.887" y="0">p</tspan><tspan class="ab3bd6ea-c1f0-4be7-9267-10b7abeaab2b" x="42.993" y="0">a</tspan><tspan class="bfbc2055-8b57-41e3-b1b6-6b793f38b14e" x="49.441" y="0">c</tspan><tspan class="aa4e217c-6200-4a73-954d-2616a62dda2d" x="55.317" y="0">e</tspan><tspan class="b2b4ba86-9243-492a-959d-a02f9035bcc0" x="61.629" y="0">/</tspan><tspan class="f6d2a449-0659-4184-b185-e1e506a230ef" x="66.745" y="0">o</tspan><tspan class="e13e9634-5422-4c56-bdd6-bfdda5e970fc" x="73.638" y="0">p</tspan><tspan class="bfd35d22-e97c-41b4-a1ff-ba2d7b56e3e8" x="80.767" y="0">e</tspan><tspan class="b733b662-9766-48f7-83f9-dc4c223ebeb0" x="87.386" y="0">n</tspan><tspan class="e49c8763-9656-4ff1-8d62-6c27a339c6a1" x="94.345" y="0">s</tspan><tspan class="a700a71e-94dd-4afa-8600-8954eeaf2f02" x="100.098" y="0">h</tspan><tspan class="e260a974-141a-4d3e-b4b0-f26fb753c4cd" x="107.021" y="0">i</tspan><tspan class="feab918d-3e4a-444a-bb09-86187bc706fa" x="110.167" y="0">f</tspan><tspan class="b2e161c5-87bb-4485-9246-7cf388b39455" x="115.374" y="0">t</tspan><tspan x="120.426" y="0">-</tspan><tspan class="b4723f27-2df2-44b2-87b0-60b6a963db95" x="0" y="12">k</tspan><tspan class="bf7481be-6d6d-42b8-bcd3-b2d018aff2e5" x="6.693" y="12">u</tspan><tspan class="e13e9634-5422-4c56-bdd6-bfdda5e970fc" x="13.62" y="12">b</tspan><tspan class="a0b13bff-e2dd-454f-842f-4982b096513b" x="20.749" y="12">e</tspan><tspan x="27.556" y="12" letter-spacing=".025em">-</tspan><tspan class="bfbc2055-8b57-41e3-b1b6-6b793f38b14e" x="33.004" y="12">c</tspan><tspan class="f6d2a449-0659-4184-b185-e1e506a230ef" x="38.88" y="12">o</tspan><tspan class="a701fbcf-a814-4c04-97a9-39e811cd9055" x="45.772" y="12">n</tspan><tspan class="ecd883ad-956b-4368-91b4-31e505d35975" x="52.545" y="12">t</tspan><tspan x="57.828" y="12" letter-spacing=".002em">r</tspan><tspan class="f6d2a449-0659-4184-b185-e1e506a230ef" x="62.718" y="12">o</tspan><tspan x="69.61" y="12" letter-spacing=".011em">l</tspan><tspan class="e6f70867-9f19-4dd0-80a5-e8e5c2582132" x="72.896" y="12">l</tspan><tspan class="bfd35d22-e97c-41b4-a1ff-ba2d7b56e3e8" x="76.149" y="12">e</tspan><tspan x="82.769" y="12" letter-spacing=".004em">r</tspan><tspan x="87.673" y="12" letter-spacing=".018em">-</tspan><tspan x="93.037" y="12" letter-spacing=".009em">m</tspan><tspan class="be35494c-f4fb-4031-ae5e-d1c0e646935c" x="103.182" y="12">a</tspan><tspan class="b442b657-0c2b-46f2-9c64-bb16bb0dba41" x="109.687" y="12">n</tspan><tspan class="ab3bd6ea-c1f0-4be7-9267-10b7abeaab2b" x="116.569" y="12">a</tspan><tspan x="123.018" y="12" letter-spacing=".009em">ge</tspan><tspan x="136.796" y="12">r</tspan></text><path class="aa285977-c49f-4867-87a2-dff40b604c10" d="M195 301.622h170v125H195z"/><path class="b89b4d82-df22-4f5e-b937-0a70567e5a64" d="M210 361.82h140v50H210z"/><text class="e2d56450-3bde-4a16-97c0-341ccc11165a" transform="translate(246.995 385.768)">configmaps/<tspan x="-15.003" y="12">serviceacount-ca</tspan></text><circle class="b7e6864d-3a53-43db-b69b-4e1dbe7083d8" cx="280" cy="361.82" r="9"/><text class="aa2ba89c-10b0-423b-8b42-e05e2c8929b2" transform="translate(274.349 365.605)">12</text><text class="ea033e1d-ebaa-47b4-9f26-5fcc77b975bf" transform="translate(210 326.791)"><tspan class="b442b657-0c2b-46f2-9c64-bb16bb0dba41">n</tspan><tspan class="be35494c-f4fb-4031-ae5e-d1c0e646935c" x="6.883" y="0">a</tspan><tspan class="a12d5c84-9d83-43de-b1ec-eb5d1266273c" x="13.388" y="0">me</tspan><tspan class="b20cfeb8-faa2-49b9-8160-6f8895ff3614" x="30.135" y="0">s</tspan><tspan class="b9ef3473-53e4-42a1-8266-a0ca9fe828d8" x="35.887" y="0">p</tspan><tspan class="ab3bd6ea-c1f0-4be7-9267-10b7abeaab2b" x="42.993" y="0">a</tspan><tspan class="bfbc2055-8b57-41e3-b1b6-6b793f38b14e" x="49.441" y="0">c</tspan><tspan class="aa4e217c-6200-4a73-954d-2616a62dda2d" x="55.317" y="0">e</tspan><tspan class="b2b4ba86-9243-492a-959d-a02f9035bcc0" x="61.629" y="0">/</tspan><tspan class="f6d2a449-0659-4184-b185-e1e506a230ef" x="66.745" y="0">o</tspan><tspan class="e13e9634-5422-4c56-bdd6-bfdda5e970fc" x="73.638" y="0">p</tspan><tspan class="bfd35d22-e97c-41b4-a1ff-ba2d7b56e3e8" x="80.767" y="0">e</tspan><tspan class="b733b662-9766-48f7-83f9-dc4c223ebeb0" x="87.386" y="0">n</tspan><tspan class="e49c8763-9656-4ff1-8d62-6c27a339c6a1" x="94.345" y="0">s</tspan><tspan class="a700a71e-94dd-4afa-8600-8954eeaf2f02" x="100.098" y="0">h</tspan><tspan class="e260a974-141a-4d3e-b4b0-f26fb753c4cd" x="107.021" y="0">i</tspan><tspan class="feab918d-3e4a-444a-bb09-86187bc706fa" x="110.167" y="0">f</tspan><tspan class="b2e161c5-87bb-4485-9246-7cf388b39455" x="115.374" y="0">t</tspan><tspan x="120.426" y="0">-</tspan><tspan class="b4723f27-2df2-44b2-87b0-60b6a963db95"><tspan x="0" y="12">k</tspan><tspan class="bf7481be-6d6d-42b8-bcd3-b2d018aff2e5" x="6.693" y="12">u</tspan><tspan class="e13e9634-5422-4c56-bdd6-bfdda5e970fc" x="13.62" y="12">b</tspan><tspan class="a0b13bff-e2dd-454f-842f-4982b096513b" x="20.749" y="12">e</tspan><tspan x="27.556" y="12" letter-spacing=".016em">-</tspan><tspan x="32.898" y="12" letter-spacing=".006em">s</tspan><tspan x="38.58" y="12" letter-spacing=".008em">c</tspan><tspan class="bea4d8ec-caac-4f55-9f49-d94ec28bd31e" x="44.6" y="12">he</tspan><tspan x="58.068" y="12" letter-spacing=".013em">d</tspan><tspan class="bf7481be-6d6d-42b8-bcd3-b2d018aff2e5" x="65.287" y="12">u</tspan><tspan class="e6f70867-9f19-4dd0-80a5-e8e5c2582132" x="72.214" y="12">l</tspan><tspan class="bfd35d22-e97c-41b4-a1ff-ba2d7b56e3e8" x="75.468" y="12">e</tspan><tspan x="82.087" y="12" letter-spacing="0">r</tspan></tspan></text><path class="aa285977-c49f-4867-87a2-dff40b604c10" d="M390 56.711h170v220H390zM195 56.711h170v220H195zM0 56.711h170v220H0z"/><text class="f75f021d-bb2f-40a6-9ffc-66678f232534" transform="translate(210 80.035)"><tspan class="f2cd8c40-c2e2-4216-9c17-f7acd34f7a80">n</tspan><tspan class="bfe9eb7c-6fb5-4637-8422-2654fc768a5e" x="7.462" y="0">a</tspan><tspan class="fd0e6e93-bc7e-4491-b3e7-785ac23aa763" x="14.513" y="0">me</tspan><tspan class="e88eadfa-a6fb-4baf-80fa-46f7718fd92a" x="32.688" y="0">s</tspan><tspan class="bec5f27d-d148-4307-80d4-80ba708f16f6" x="38.918" y="0">p</tspan><tspan class="b9ac29c4-f863-435b-bfbd-3b95e4a23b26" x="46.622" y="0">a</tspan><tspan class="aca4d34f-7961-44d9-bee4-c1e02aa3f291" x="53.609" y="0">c</tspan><tspan class="a5428c4d-c451-4a58-ab54-54c7dfca2cab" x="59.971" y="0">e</tspan><tspan class="b6db2dfc-8b72-494e-968d-a0fa1ac516dc" x="66.801" y="0">/</tspan><tspan class="a66023e8-7a45-4ef7-9d64-9370308ecff0" x="72.318" y="0">o</tspan><tspan x="79.791" y="0">p</tspan><tspan class="f733d232-1bcc-4684-a5bc-b4e998655ebc" x="87.519" y="0">e</tspan><tspan class="a162dad4-d349-4649-86d4-3fe028fa6f34" x="94.693" y="0">n</tspan><tspan class="e88eadfa-a6fb-4baf-80fa-46f7718fd92a" x="102.24" y="0">s</tspan><tspan class="f320305b-d7fc-4e56-bda3-8b3aac6d3452" x="108.471" y="0">h</tspan><tspan class="b6c887ea-407b-4861-85a5-1107f2379bb0" x="115.979" y="0">i</tspan><tspan class="a904e792-ee29-400a-8d8e-9e1765dd0972" x="119.362" y="0">f</tspan><tspan class="a894d10d-314d-4157-9352-b345b4f88acc" x="124.998" y="0">t</tspan><tspan x="130.458" y="0">-</tspan><tspan class="f1963c8a-6caa-40d7-8c72-86de45579e2e" x="0" y="12">i</tspan><tspan class="adc66a6e-f2c5-4d17-8e7f-306cc4a4606c" x="3.545" y="12">n</tspan><tspan class="a0751314-d4b0-4967-9b46-f875fc0e6f87" x="11.023" y="12">g</tspan><tspan class="bd429180-efe5-4500-a841-4ae2f48dd14f" x="18.828" y="12">r</tspan><tspan class="fd0e6e93-bc7e-4491-b3e7-785ac23aa763" x="24.115" y="12">e</tspan><tspan class="bfe0bbf7-e451-4d79-8002-598c5441fd67" x="31.276" y="12">s</tspan><tspan x="37.481" y="12">s</tspan></text><text class="f75f021d-bb2f-40a6-9ffc-66678f232534" transform="translate(15 80.035)"><tspan class="f2cd8c40-c2e2-4216-9c17-f7acd34f7a80">n</tspan><tspan class="bfe9eb7c-6fb5-4637-8422-2654fc768a5e" x="7.462" y="0">a</tspan><tspan class="fd0e6e93-bc7e-4491-b3e7-785ac23aa763" x="14.513" y="0">me</tspan><tspan class="e88eadfa-a6fb-4baf-80fa-46f7718fd92a" x="32.688" y="0">s</tspan><tspan class="bec5f27d-d148-4307-80d4-80ba708f16f6" x="38.918" y="0">p</tspan><tspan class="b9ac29c4-f863-435b-bfbd-3b95e4a23b26" x="46.622" y="0">a</tspan><tspan class="aca4d34f-7961-44d9-bee4-c1e02aa3f291" x="53.609" y="0">c</tspan><tspan class="a5428c4d-c451-4a58-ab54-54c7dfca2cab" x="59.971" y="0">e</tspan><tspan class="b6db2dfc-8b72-494e-968d-a0fa1ac516dc" x="66.801" y="0">/</tspan><tspan class="a66023e8-7a45-4ef7-9d64-9370308ecff0" x="72.318" y="0">o</tspan><tspan x="79.791" y="0">p</tspan><tspan class="f733d232-1bcc-4684-a5bc-b4e998655ebc" x="87.519" y="0">e</tspan><tspan class="a162dad4-d349-4649-86d4-3fe028fa6f34" x="94.693" y="0">n</tspan><tspan class="e88eadfa-a6fb-4baf-80fa-46f7718fd92a" x="102.24" y="0">s</tspan><tspan class="f320305b-d7fc-4e56-bda3-8b3aac6d3452" x="108.471" y="0">h</tspan><tspan class="b6c887ea-407b-4861-85a5-1107f2379bb0" x="115.979" y="0">i</tspan><tspan class="a904e792-ee29-400a-8d8e-9e1765dd0972" x="119.362" y="0">f</tspan><tspan class="a894d10d-314d-4157-9352-b345b4f88acc" x="124.998" y="0">t</tspan><tspan x="130.458" y="0">-</tspan><tspan class="f1963c8a-6caa-40d7-8c72-86de45579e2e" x="0" y="12">i</tspan><tspan class="adc66a6e-f2c5-4d17-8e7f-306cc4a4606c" x="3.545" y="12">n</tspan><tspan class="a0751314-d4b0-4967-9b46-f875fc0e6f87" x="11.023" y="12">g</tspan><tspan class="bd429180-efe5-4500-a841-4ae2f48dd14f" x="18.828" y="12">r</tspan><tspan class="fd0e6e93-bc7e-4491-b3e7-785ac23aa763" x="24.115" y="12">e</tspan><tspan class="bfe0bbf7-e451-4d79-8002-598c5441fd67" x="31.276" y="12">s</tspan><tspan x="37.481" y="12" letter-spacing=".003em">s</tspan><tspan x="43.653" y="12" letter-spacing=".022em">-</tspan><tspan class="a66023e8-7a45-4ef7-9d64-9370308ecff0" x="49.552" y="12">o</tspan><tspan x="57.024" y="12">p</tspan><tspan class="f733d232-1bcc-4684-a5bc-b4e998655ebc" x="64.752" y="12">e</tspan><tspan x="71.927" y="12" letter-spacing="-.001em">r</tspan><tspan x="77.22" y="12" letter-spacing="-.007em">a</tspan><tspan x="84.079" y="12" letter-spacing=".003em">to</tspan><tspan x="97.087" y="12">r</tspan></text><text class="f75f021d-bb2f-40a6-9ffc-66678f232534" transform="translate(405 80.035)"><tspan class="f2cd8c40-c2e2-4216-9c17-f7acd34f7a80">n</tspan><tspan class="bfe9eb7c-6fb5-4637-8422-2654fc768a5e" x="7.462" y="0">a</tspan><tspan class="fd0e6e93-bc7e-4491-b3e7-785ac23aa763" x="14.513" y="0">me</tspan><tspan class="e88eadfa-a6fb-4baf-80fa-46f7718fd92a" x="32.688" y="0">s</tspan><tspan class="bec5f27d-d148-4307-80d4-80ba708f16f6" x="38.918" y="0">p</tspan><tspan class="b9ac29c4-f863-435b-bfbd-3b95e4a23b26" x="46.622" y="0">a</tspan><tspan class="aca4d34f-7961-44d9-bee4-c1e02aa3f291" x="53.609" y="0">c</tspan><tspan class="a5428c4d-c451-4a58-ab54-54c7dfca2cab" x="59.971" y="0">e</tspan><tspan class="b6db2dfc-8b72-494e-968d-a0fa1ac516dc" x="66.801" y="0">/</tspan><tspan class="a66023e8-7a45-4ef7-9d64-9370308ecff0" x="72.318" y="0">o</tspan><tspan x="79.791" y="0">p</tspan><tspan class="f733d232-1bcc-4684-a5bc-b4e998655ebc" x="87.519" y="0">e</tspan><tspan class="a162dad4-d349-4649-86d4-3fe028fa6f34" x="94.693" y="0">n</tspan><tspan class="e88eadfa-a6fb-4baf-80fa-46f7718fd92a" x="102.24" y="0">s</tspan><tspan class="f320305b-d7fc-4e56-bda3-8b3aac6d3452" x="108.471" y="0">h</tspan><tspan class="b6c887ea-407b-4861-85a5-1107f2379bb0" x="115.979" y="0">i</tspan><tspan class="a904e792-ee29-400a-8d8e-9e1765dd0972" x="119.362" y="0">f</tspan><tspan class="a894d10d-314d-4157-9352-b345b4f88acc" x="124.998" y="0">t</tspan><tspan x="130.458" y="0">-</tspan><tspan class="aca4d34f-7961-44d9-bee4-c1e02aa3f291" x="0" y="12">c</tspan><tspan x="6.361" y="12" letter-spacing=".004em">o</tspan><tspan x="13.833" y="12" letter-spacing="-.007em">n</tspan><tspan x="21.166" y="12" letter-spacing="-.001em">f</tspan><tspan x="26.67" y="12" letter-spacing=".002em">i</tspan><tspan x="30.147" y="12" letter-spacing=".015em">g</tspan><tspan x="38.028" y="12" letter-spacing=".014em">-</tspan><tspan x="43.834" y="12" letter-spacing=".005em">m</tspan><tspan class="bfe9eb7c-6fb5-4637-8422-2654fc768a5e" x="54.854" y="12">a</tspan><tspan class="f2cd8c40-c2e2-4216-9c17-f7acd34f7a80" x="61.904" y="12">n</tspan><tspan class="b9ac29c4-f863-435b-bfbd-3b95e4a23b26" x="69.366" y="12">a</tspan><tspan x="76.354" y="12" letter-spacing=".005em">g</tspan><tspan x="84.123" y="12" letter-spacing=".003em">e</tspan><tspan x="91.264" y="12">d</tspan></text><path class="b89b4d82-df22-4f5e-b937-0a70567e5a64" d="M210 111.622h140v110H210z"/><text class="e2d56450-3bde-4a16-97c0-341ccc11165a" transform="translate(220 132.797)">deployments/router-<tspan x="0" y="12">default</tspan></text><circle class="b7e6864d-3a53-43db-b69b-4e1dbe7083d8" cx="280" cy="111.622" r="9"/><text class="aa2ba89c-10b0-423b-8b42-e05e2c8929b2" transform="translate(276.268 115.408)">3</text><path class="ab1f071a-78ba-49af-a72e-3fa0b11fa60d" d="M395.324 136.622H380v50"/><path class="b7e6864d-3a53-43db-b69b-4e1dbe7083d8" d="M393.865 131.636l8.635 4.986-8.635 4.987v-9.973z"/><path class="ab1f071a-78ba-49af-a72e-3fa0b11fa60d" d="M395.324 206.622H380v-20h-40"/><path class="b7e6864d-3a53-43db-b69b-4e1dbe7083d8" d="M393.865 201.636l8.635 4.986-8.635 4.987v-9.973z"/><path fill="#bfd9f2" d="M220 161.622h120v50H220z"/><text class="e2d56450-3bde-4a16-97c0-341ccc11165a" transform="translate(234.993 185.297)">secrets/router-<tspan x="6" y="12">certs-default</tspan></text><circle class="b7e6864d-3a53-43db-b69b-4e1dbe7083d8" cx="280" cy="161.622" r="9"/><text transform="translate(276.82 165.03)" font-size="9.9" fill="#fff" font-family="RedHatText-Bold,Red Hat Text" font-weight="700">2</text><path class="ab1f071a-78ba-49af-a72e-3fa0b11fa60d" d="M210.324 186.622h-1.5"/><path stroke-dasharray="2.99 2.99" stroke="#151515" stroke-linecap="round" stroke-linejoin="round" fill="none" d="M205.834 186.622H87.745"/><path class="ab1f071a-78ba-49af-a72e-3fa0b11fa60d" d="M86.25 186.622h-1.5v-1.5"/><path stroke-dasharray="3.143 3.143" stroke="#151515" stroke-linecap="round" stroke-linejoin="round" fill="none" d="M84.75 181.98v-17.286"/><path class="ab1f071a-78ba-49af-a72e-3fa0b11fa60d" d="M84.75 163.122v-1.5"/><path class="b7e6864d-3a53-43db-b69b-4e1dbe7083d8" d="M208.865 181.636l8.635 4.986-8.635 4.987v-9.973z"/><path class="b89b4d82-df22-4f5e-b937-0a70567e5a64" d="M15 111.622h140v50H15z"/><text class="e2d56450-3bde-4a16-97c0-341ccc11165a" transform="translate(27.991 135.768)">ingresscontrollers/<tspan x="36.006" y="12">default</tspan></text><text class="adbf7962-f6fd-4da2-9f08-084342925f64" transform="translate(33.927 28.42)"><tspan letter-spacing="-.025em">R</tspan><tspan class="bf2f52a8-ab88-49f4-b7c1-13d0244d45a8" x="6.47" y="0">e</tspan><tspan x="12.05" y="0" letter-spacing="-.017em">f</tspan><tspan class="ad5421e1-2830-4145-9ac5-ee39f8306248" x="15.99" y="0">e</tspan><tspan class="b4624388-0df3-45bc-a413-506406b503ab" x="21.72" y="0">r</tspan><tspan x="25.41" y="0">en</tspan><tspan class="bf2f52a8-ab88-49f4-b7c1-13d0244d45a8" x="36.96" y="0">c</tspan><tspan class="ad5421e1-2830-4145-9ac5-ee39f8306248" x="42.04" y="0">e</tspan></text><path class="ab1f071a-78ba-49af-a72e-3fa0b11fa60d" d="M20.824 25.134h-1.5"/><path stroke-dasharray="3.465 3.465" stroke="#151515" stroke-linecap="round" stroke-linejoin="round" fill="none" d="M15.859 25.134H3.732"/><path class="ab1f071a-78ba-49af-a72e-3fa0b11fa60d" d="M2 25.134H.5"/><path class="b7e6864d-3a53-43db-b69b-4e1dbe7083d8" d="M19.365 20.148L28 25.134l-8.635 4.987v-9.973z"/><text class="adbf7962-f6fd-4da2-9f08-084342925f64" transform="translate(137.697 28.42)"><tspan class="f2458ee4-440e-4315-824f-2e1f8046de10">C</tspan><tspan x="7.08" y="0">o</tspan><tspan class="bf2f52a8-ab88-49f4-b7c1-13d0244d45a8" x="13.06" y="0">n</tspan><tspan x="18.729" y="0" letter-spacing="-.007em">t</tspan><tspan x="22.8" y="0">e</tspan><tspan class="f2458ee4-440e-4315-824f-2e1f8046de10" x="28.53" y="0">n</tspan><tspan x="34.2" y="0" letter-spacing=".01em">t</tspan><tspan x="38.439" y="0" letter-spacing="0">s a</tspan><tspan class="b4624388-0df3-45bc-a413-506406b503ab" x="50.979" y="0">r</tspan><tspan x="54.669" y="0">e </tspan><tspan class="f2458ee4-440e-4315-824f-2e1f8046de10" x="62.649" y="0">c</tspan><tspan x="67.729" y="0">opi</tspan><tspan x="82.339" y="0" letter-spacing=".003em">e</tspan><tspan x="88.099" y="0">d</tspan></text><g><path class="ab1f071a-78ba-49af-a72e-3fa0b11fa60d" d="M124.594 25.134H104.27"/><path class="b7e6864d-3a53-43db-b69b-4e1dbe7083d8" d="M123.135 20.148l8.635 4.986-8.635 4.987v-9.973z"/></g><g><path class="ab1f071a-78ba-49af-a72e-3fa0b11fa60d" d="M590.327 136.622H544.94"/><path class="b7e6864d-3a53-43db-b69b-4e1dbe7083d8" d="M588.868 131.636l8.635 4.986-8.635 4.987v-9.973z"/></g><g><circle class="b7e6864d-3a53-43db-b69b-4e1dbe7083d8" cx="85" cy="111.622" r="9"/><text class="aa2ba89c-10b0-423b-8b42-e05e2c8929b2" transform="translate(80.949 115.408)">0</text></g><g><path class="ab1f071a-78ba-49af-a72e-3fa0b11fa60d" d="M475 446.684v-25.385"/><path class="b7e6864d-3a53-43db-b69b-4e1dbe7083d8" d="M479.986 422.758L475 414.122l-4.987 8.636h9.973z"/></g><g><path class="ab1f071a-78ba-49af-a72e-3fa0b11fa60d" d="M280 446.684v-25.385"/><path class="b7e6864d-3a53-43db-b69b-4e1dbe7083d8" d="M284.986 422.758L280 414.122l-4.986 8.636h9.972z"/></g><g><path class="ab1f071a-78ba-49af-a72e-3fa0b11fa60d" d="M545 205.768h34.991v240.916H85v-25.385"/><path class="b7e6864d-3a53-43db-b69b-4e1dbe7083d8" d="M89.986 422.758L85 414.122l-4.986 8.636h9.972z"/></g><path class="b89b4d82-df22-4f5e-b937-0a70567e5a64" d="M405 111.622h140v50H405z"/><text class="e2d56450-3bde-4a16-97c0-341ccc11165a" transform="translate(429.993 135.768)">secrets/router-<tspan x="30.004" y="12">certs</tspan></text><g><circle class="b7e6864d-3a53-43db-b69b-4e1dbe7083d8" cx="475" cy="111.622" r="9"/><text class="aa2ba89c-10b0-423b-8b42-e05e2c8929b2" transform="translate(470.955 115.408)">4</text></g><path class="b89b4d82-df22-4f5e-b937-0a70567e5a64" d="M405 181.622h140v50H405z"/><text class="e2d56450-3bde-4a16-97c0-341ccc11165a" transform="translate(417.991 205.768)">configmaps/default-<tspan x="21.003" y="12">ingress-cert</tspan></text><g><circle class="b7e6864d-3a53-43db-b69b-4e1dbe7083d8" cx="475" cy="181.622" r="9"/><text class="aa2ba89c-10b0-423b-8b42-e05e2c8929b2" transform="translate(471.17 185.408)">6</text></g><path class="b89b4d82-df22-4f5e-b937-0a70567e5a64" d="M15 211.622h140v50H15z"/><text class="e2d56450-3bde-4a16-97c0-341ccc11165a" transform="translate(33.991 241.768)">secrets/router-ca</text><g><circle class="b7e6864d-3a53-43db-b69b-4e1dbe7083d8" cx="85" cy="211.622" r="9"/><text class="aa2ba89c-10b0-423b-8b42-e05e2c8929b2" transform="translate(82.632 215.408)">1</text></g><text class="ea033e1d-ebaa-47b4-9f26-5fcc77b975bf" transform="translate(405 324.947)"><tspan class="b442b657-0c2b-46f2-9c64-bb16bb0dba41">n</tspan><tspan class="be35494c-f4fb-4031-ae5e-d1c0e646935c" x="6.883" y="0">a</tspan><tspan class="a12d5c84-9d83-43de-b1ec-eb5d1266273c" x="13.388" y="0">me</tspan><tspan class="b20cfeb8-faa2-49b9-8160-6f8895ff3614" x="30.135" y="0">s</tspan><tspan class="b9ef3473-53e4-42a1-8266-a0ca9fe828d8" x="35.887" y="0">p</tspan><tspan class="ab3bd6ea-c1f0-4be7-9267-10b7abeaab2b" x="42.993" y="0">a</tspan><tspan class="bfbc2055-8b57-41e3-b1b6-6b793f38b14e" x="49.441" y="0">c</tspan><tspan class="aa4e217c-6200-4a73-954d-2616a62dda2d" x="55.317" y="0">e</tspan><tspan class="b2b4ba86-9243-492a-959d-a02f9035bcc0" x="61.629" y="0">/</tspan><tspan class="f6d2a449-0659-4184-b185-e1e506a230ef" x="66.745" y="0">o</tspan><tspan class="e13e9634-5422-4c56-bdd6-bfdda5e970fc" x="73.638" y="0">p</tspan><tspan class="bfd35d22-e97c-41b4-a1ff-ba2d7b56e3e8" x="80.767" y="0">e</tspan><tspan class="b733b662-9766-48f7-83f9-dc4c223ebeb0" x="87.386" y="0">n</tspan><tspan class="e49c8763-9656-4ff1-8d62-6c27a339c6a1" x="94.345" y="0">s</tspan><tspan class="a700a71e-94dd-4afa-8600-8954eeaf2f02" x="100.098" y="0">h</tspan><tspan class="e260a974-141a-4d3e-b4b0-f26fb753c4cd" x="107.021" y="0">i</tspan><tspan class="feab918d-3e4a-444a-bb09-86187bc706fa" x="110.167" y="0">f</tspan><tspan class="b2e161c5-87bb-4485-9246-7cf388b39455" x="115.374" y="0">t</tspan><tspan x="120.426" y="0">-</tspan><tspan class="bfbc2055-8b57-41e3-b1b6-6b793f38b14e" x="0" y="12">c</tspan><tspan class="f6d2a449-0659-4184-b185-e1e506a230ef" x="5.876" y="12">o</tspan><tspan x="12.769" y="12" letter-spacing=".015em">n</tspan><tspan x="19.729" y="12" letter-spacing=".005em">s</tspan><tspan class="f6d2a449-0659-4184-b185-e1e506a230ef" x="25.409" y="12">ol</tspan><tspan x="35.554" y="12">e</tspan></text><g><text transform="translate(668.722 446.863)" font-family="RedHatText-Regular,Red Hat Text" font-size="10" fill="#f3f3f3">75_OpenShift_0520</text><path fill="none" d="M0 423.845h760v40H0z"/></g></svg>