<svg version="1.1" id="Layer_1" xmlns="http://www.w3.org/2000/svg" x="0" y="0" viewBox="0 0 760 213.7" xml:space="preserve"><style>.st0{fill:#e8e8e8}.st1{fill:none}.st3{fill:#151515}.st4{fill:none;stroke:#151515;stroke-miterlimit:10}.st5{font-family:&apos;RedHatText-Medium&apos;}.st6{font-size:14px}.st10{fill:#fff}.st11{font-family:&apos;RedHatText-Bold&apos;}.st12{font-size:11px}</style><path class="st1" d="M0 0h760v20H0z"/><path class="st0" d="M348.5 19.2h144v177.6h-144z"/><text transform="translate(386.926 96.85)"><tspan x="0" y="0" class="st3 st5 st6">OAuth 2.0</tspan><tspan x="-11.2" y="15" class="st3 st5 st6">Authorization</tspan><tspan x="11.8" y="30" class="st3 st5 st6">Server</tspan></text><text transform="translate(696.263 196.73)" font-size="10" font-family="RedHatText-Regular" fill="#f3f3f3">AMQ_46_1019</text><path class="st1" d="M0 173.7h760v40H0z"/><path fill="#06c" d="M-.1 20h144v60H-.1z"/><text transform="translate(30.398 55.173)" class="st10 st5 st6">Kafka client</text><path class="st0" d="M-.1 136.7h144v60H-.1z"/><text transform="translate(26.658 171.822)" class="st3 st5 st6">Kafka broker</text><path class="st4" d="M338.8 149.3H143.9"/><path class="st3" d="M337.4 144.4l8.6 4.9-8.6 5z"/><path class="st4" d="M348.5 180.8H153.6"/><path class="st3" d="M155 175.8l-8.6 5 8.6 5zM255.8 149.3c0 5.2-4.3 9.5-9.5 9.5s-9.5-4.3-9.5-9.5 4.3-9.5 9.5-9.5 9.5 4.3 9.5 9.5z"/><text transform="translate(242.207 153.132)" class="st10 st11 st12">4</text><path class="st3" d="M255.8 180.8c0 5.2-4.3 9.5-9.5 9.5s-9.5-4.3-9.5-9.5 4.3-9.5 9.5-9.5 9.5 4.3 9.5 9.5z"/><text transform="translate(242.614 184.586)" class="st10 st11 st12">5</text><g><path class="st4" d="M338.8 34.6H143.9"/><path class="st3" d="M337.4 29.6l8.6 5-8.6 5z"/></g><g><path class="st4" d="M348.5 66H153.6"/><path class="st3" d="M155 61.1l-8.6 4.9 8.6 5z"/></g><g><path class="st3" d="M255.8 34.6c0 5.2-4.3 9.5-9.5 9.5s-9.5-4.3-9.5-9.5 4.3-9.5 9.5-9.5 9.5 4.2 9.5 9.5z"/><text transform="translate(243.885 38.372)" class="st10 st11 st12">1</text></g><g><path class="st3" d="M255.8 66c0 5.2-4.3 9.5-9.5 9.5s-9.5-4.3-9.5-9.5 4.3-9.5 9.5-9.5 9.5 4.3 9.5 9.5z"/><text transform="translate(242.718 69.825)" class="st10 st11 st12">2</text></g><g><path class="st4" d="M71.9 80v47.1"/><path class="st3" d="M66.9 125.6l5 8.6 5-8.6z"/></g><g><path class="st3" d="M81.4 102.8c0 5.2-4.3 9.5-9.5 9.5s-9.5-4.3-9.5-9.5 4.3-9.5 9.5-9.5c5.3 0 9.5 4.2 9.5 9.5z"/><text transform="translate(68.174 106.571)" class="st10 st11 st12">3</text></g></svg>