<svg id="a58c2417-58dc-4966-bae3-3ccbfca25104" data-name="artwork" xmlns="http://www.w3.org/2000/svg" width="760" height="466.379"><defs><style>.a65b018a-ed43-404a-bc9d-f2494e042f3c{fill:#e8e8e8}.f20709df-1b31-4f5d-b92c-f2eb549e7c27{font-size:14px}.b0c36d7e-d2e1-4cda-bc77-09577c6ec5a8,.f09391ad-6988-4545-be83-5ba7e2d252d8,.f20709df-1b31-4f5d-b92c-f2eb549e7c27,.f5d047d0-d50f-47d1-a132-2e0c90108648{fill:#151515}.f20709df-1b31-4f5d-b92c-f2eb549e7c27,.f5d047d0-d50f-47d1-a132-2e0c90108648{font-family:RedHatText,&quot;Red Hat Text&quot;,Overpass,&quot;Helvetica Neue&quot;,Arial,sans-serif;font-weight:700}.f5da5d03-6c60-449b-aa38-ce20196fb4af{fill:#fff}.ee0b58b2-0f23-450a-92e3-c6701204e2a3{fill:#06c}.f09391ad-6988-4545-be83-5ba7e2d252d8,.f5d047d0-d50f-47d1-a132-2e0c90108648{font-size:12px}.b42421e4-4fa1-42d9-a223-2941717905ec{fill:#dfeac0}.f09391ad-6988-4545-be83-5ba7e2d252d8{font-family:RedHatText,&quot;Red Hat Text&quot;,Overpass,&quot;Helvetica Neue&quot;,Arial,sans-serif;font-weight:500}.b0c32c81-6e04-4f2e-b392-fb786d513a70{fill:#d9e8f7}.aa018ecd-fa74-4052-bf60-b1427f6f29fe,.b633bee7-0feb-4b4d-ae24-e425559feb18,.bb2f0e4e-4e6c-4089-b000-ec0b82eff152,.e2f0b132-3d5f-4c52-b4f7-b7f7d1524eac,.e337a43b-2dcf-49a2-80c0-4cc75fe07ed5{fill:none}.aa018ecd-fa74-4052-bf60-b1427f6f29fe,.b633bee7-0feb-4b4d-ae24-e425559feb18,.e2f0b132-3d5f-4c52-b4f7-b7f7d1524eac,.e337a43b-2dcf-49a2-80c0-4cc75fe07ed5{stroke:#d0d0d0}.aa018ecd-fa74-4052-bf60-b1427f6f29fe,.b633bee7-0feb-4b4d-ae24-e425559feb18,.bb2f0e4e-4e6c-4089-b000-ec0b82eff152,.e2f0b132-3d5f-4c52-b4f7-b7f7d1524eac,.e337a43b-2dcf-49a2-80c0-4cc75fe07ed5{stroke-linecap:round;stroke-linejoin:round}.b633bee7-0feb-4b4d-ae24-e425559feb18{stroke-dasharray:3.06 3.06}.aa018ecd-fa74-4052-bf60-b1427f6f29fe{stroke-dasharray:2.947 2.947}.e337a43b-2dcf-49a2-80c0-4cc75fe07ed5{stroke-dasharray:3.04 3.04}.bb2f0e4e-4e6c-4089-b000-ec0b82eff152{stroke:#151515}</style></defs><path class="a65b018a-ed43-404a-bc9d-f2494e042f3c" d="M0 250.379h235v177H0z"/><text class="f20709df-1b31-4f5d-b92c-f2eb549e7c27" transform="translate(20.005 407.347)">Remote site 1</text><path class="f5da5d03-6c60-449b-aa38-ce20196fb4af" d="M20.505 271.879h194v109h-194z"/><path class="ee0b58b2-0f23-450a-92e3-c6701204e2a3" d="M214.005 272.379v108h-193v-108h193m1-1h-195v110h195v-110z"/><text class="f5d047d0-d50f-47d1-a132-2e0c90108648" transform="translate(35.005 295.729)">RHEL Edge Device</text><path class="b42421e4-4fa1-42d9-a223-2941717905ec" transform="rotate(-180 75.006 336.198)" d="M35.005 306.198h80v60h-80z"/><text class="f09391ad-6988-4545-be83-5ba7e2d252d8" transform="translate(59.819 333.022)">Delta<tspan x="-8.256" y="13">update 1</tspan></text><path class="b0c32c81-6e04-4f2e-b392-fb786d513a70" transform="rotate(-180 160.005 336.198)" d="M120.005 306.198h80v60h-80z"/><text class="f09391ad-6988-4545-be83-5ba7e2d252d8" transform="translate(144.82 333.022)">Delta<tspan x="-9.624" y="13">update 2</tspan></text><path class="a65b018a-ed43-404a-bc9d-f2494e042f3c" d="M262.253 250.379h235v177h-235z"/><text class="f20709df-1b31-4f5d-b92c-f2eb549e7c27" transform="translate(282.258 407.347)">Remote site 2</text><path class="f5da5d03-6c60-449b-aa38-ce20196fb4af" d="M282.758 271.879h194v109h-194z"/><path class="ee0b58b2-0f23-450a-92e3-c6701204e2a3" d="M476.258 272.379v108h-193v-108h193m1-1h-195v110h195v-110z"/><text class="f5d047d0-d50f-47d1-a132-2e0c90108648" transform="translate(297.258 295.729)">RHEL Edge Device</text><path class="b42421e4-4fa1-42d9-a223-2941717905ec" transform="rotate(-180 337.258 336.198)" d="M297.258 306.198h80v60h-80z"/><path class="e2f0b132-3d5f-4c52-b4f7-b7f7d1524eac" d="M382.735 364.198v1.5h1.5"/><path class="b633bee7-0feb-4b4d-ae24-e425559feb18" d="M387.295 365.698h71.91"/><path class="e2f0b132-3d5f-4c52-b4f7-b7f7d1524eac" d="M460.735 365.698h1.5v-1.5"/><path class="aa018ecd-fa74-4052-bf60-b1427f6f29fe" d="M462.235 361.251v-51.579"/><path class="e2f0b132-3d5f-4c52-b4f7-b7f7d1524eac" d="M462.235 308.198v-1.5h-1.5"/><path class="b633bee7-0feb-4b4d-ae24-e425559feb18" d="M457.675 306.698h-71.91"/><path class="e2f0b132-3d5f-4c52-b4f7-b7f7d1524eac" d="M384.235 306.698h-1.5v1.5"/><path class="aa018ecd-fa74-4052-bf60-b1427f6f29fe" d="M382.735 311.146v51.579"/><text class="f09391ad-6988-4545-be83-5ba7e2d252d8" transform="translate(322.072 333.022)">Delta<tspan x="-8.256" y="13">update 1</tspan></text><path class="a65b018a-ed43-404a-bc9d-f2494e042f3c" d="M524.505 250.379h235v177h-235z"/><text class="f20709df-1b31-4f5d-b92c-f2eb549e7c27" transform="translate(545.005 406.115)">Remote site N</text><g><path class="f5da5d03-6c60-449b-aa38-ce20196fb4af" d="M545.505 270.647h194v109h-194z"/><path class="ee0b58b2-0f23-450a-92e3-c6701204e2a3" d="M739.005 271.148v108h-193v-108h193m1-1h-195v110h195v-110z"/></g><g><path class="e2f0b132-3d5f-4c52-b4f7-b7f7d1524eac" d="M560.506 362.967v1.5h1.5"/><path class="e337a43b-2dcf-49a2-80c0-4cc75fe07ed5" d="M565.046 364.467h71.44"/><path class="e2f0b132-3d5f-4c52-b4f7-b7f7d1524eac" d="M638.006 364.467h1.5v-1.5"/><path class="aa018ecd-fa74-4052-bf60-b1427f6f29fe" d="M639.506 360.019V308.44"/><path class="e2f0b132-3d5f-4c52-b4f7-b7f7d1524eac" d="M639.506 306.967v-1.5h-1.5"/><path class="e337a43b-2dcf-49a2-80c0-4cc75fe07ed5" d="M634.966 305.467h-71.44"/><path class="e2f0b132-3d5f-4c52-b4f7-b7f7d1524eac" d="M562.006 305.467h-1.5v1.5"/><path class="aa018ecd-fa74-4052-bf60-b1427f6f29fe" d="M560.506 309.914v51.579"/><g><path class="e2f0b132-3d5f-4c52-b4f7-b7f7d1524eac" d="M645.483 362.967v1.5h1.5"/><path class="e337a43b-2dcf-49a2-80c0-4cc75fe07ed5" d="M650.023 364.467h71.44"/><path class="e2f0b132-3d5f-4c52-b4f7-b7f7d1524eac" d="M722.983 364.467h1.5v-1.5"/><path class="aa018ecd-fa74-4052-bf60-b1427f6f29fe" d="M724.483 360.019V308.44"/><path class="e2f0b132-3d5f-4c52-b4f7-b7f7d1524eac" d="M724.483 306.967v-1.5h-1.5"/><path class="e337a43b-2dcf-49a2-80c0-4cc75fe07ed5" d="M719.943 305.467h-71.44"/><path class="e2f0b132-3d5f-4c52-b4f7-b7f7d1524eac" d="M646.983 305.467h-1.5v1.5"/><path class="aa018ecd-fa74-4052-bf60-b1427f6f29fe" d="M645.483 309.914v51.579"/></g></g><text class="f5d047d0-d50f-47d1-a132-2e0c90108648" transform="translate(560.005 295.729)">RHEL Edge Device</text><g><path class="bb2f0e4e-4e6c-4089-b000-ec0b82eff152" d="M505.879 196v25h-126v19.703"/><path class="b0c36d7e-d2e1-4cda-bc77-09577c6ec5a8" d="M374.893 239.244l4.986 8.635 4.986-8.635h-9.972z"/></g><g><path class="bb2f0e4e-4e6c-4089-b000-ec0b82eff152" d="M515.879 196v25h126v19.703"/><path class="b0c36d7e-d2e1-4cda-bc77-09577c6ec5a8" d="M636.893 239.244l4.986 8.635 4.986-8.635h-9.972z"/></g><path class="b0c32c81-6e04-4f2e-b392-fb786d513a70" transform="rotate(-180 466.384 221.01)" d="M456.384 211.009h20v20h-20z"/><g><path class="b42421e4-4fa1-42d9-a223-2941717905ec" transform="rotate(-180 554.384 221.01)" d="M544.384 211.009h20v20h-20z"/><path class="b0c32c81-6e04-4f2e-b392-fb786d513a70" transform="rotate(-180 579.217 221.01)" d="M569.218 211.009h20v20h-20z"/></g><g><path class="a65b018a-ed43-404a-bc9d-f2494e042f3c" d="M320.879 20h380v176h-380z"/><text class="f20709df-1b31-4f5d-b92c-f2eb549e7c27" transform="translate(340.884 50.032)">Repository endpoint</text><path class="f5da5d03-6c60-449b-aa38-ce20196fb4af" transform="rotate(-180 395.884 121)" d="M340.884 66h110v110h-110z"/><text class="f5d047d0-d50f-47d1-a132-2e0c90108648" transform="translate(355.884 90.35)">Rev A1</text><path class="f5da5d03-6c60-449b-aa38-ce20196fb4af" transform="rotate(-180 510.884 121)" d="M455.884 66h110v110h-110z"/><text class="f5d047d0-d50f-47d1-a132-2e0c90108648" transform="translate(470.884 90.35)">Rev A2</text><path class="b42421e4-4fa1-42d9-a223-2941717905ec" transform="rotate(-180 510.884 130.819)" d="M470.884 100.819h80v60h-80z"/><text class="f09391ad-6988-4545-be83-5ba7e2d252d8" transform="translate(495.698 127.643)">Delta<tspan x="-8.256" y="13">update 1</tspan></text><path class="f5da5d03-6c60-449b-aa38-ce20196fb4af" transform="rotate(-180 625.884 121)" d="M570.884 66h110v110h-110z"/><text class="f5d047d0-d50f-47d1-a132-2e0c90108648" transform="translate(585.884 90.35)">Rev A3</text><path class="b0c32c81-6e04-4f2e-b392-fb786d513a70" transform="rotate(-180 625.884 130.819)" d="M585.884 100.819h80v60h-80z"/><text class="f09391ad-6988-4545-be83-5ba7e2d252d8" transform="translate(610.698 127.643)">Delta<tspan x="-9.624" y="13">update 2</tspan></text></g><g><text transform="translate(688.821 450.397)" font-size="10" fill="#f3f3f3" font-family="RedHatText,&quot;Red Hat Text&quot;,Overpass,&quot;Helvetica Neue&quot;,Arial,sans-serif">125_RHEL_1020</text><path fill="none" d="M0 427.379h760v40H0z"/></g></svg>