<svg id="a946942a-f579-4150-b205-15f12d93ee80" data-name="artwork" xmlns="http://www.w3.org/2000/svg" width="760" height="607.5"><defs><style>.a26a270c-ada3-4a09-a591-1c6fca9b213e{fill:#e8e8e8}.e0879f20-8d8b-44cf-97fb-2cd59d08d374,.f21ea0c3-4248-4638-9752-725d04d79e40{fill:none}.f21ea0c3-4248-4638-9752-725d04d79e40{stroke:#151515;stroke-linecap:round;stroke-linejoin:round}.a3496890-b0c0-47ee-b794-ea573aabbeab,.b004ebd7-98e3-438e-82df-b5655d33919e,.b055acb5-06b2-4b2e-9d88-471025554655,.b4ceeb41-43be-4597-a133-fe0ae209ec99,.bf3455ff-3bfe-4841-b198-dc0e70423c03{fill:#151515}.bf3455ff-3bfe-4841-b198-dc0e70423c03{font-size:14px}.a3496890-b0c0-47ee-b794-ea573aabbeab,.adfbcce2-bd5f-49b2-8fda-d964cc61d8b5,.bf3455ff-3bfe-4841-b198-dc0e70423c03{font-family:RedHatText,&quot;Red Hat Text&quot;,Overpass,&quot;Helvetica Neue&quot;,Arial,sans-serif;font-weight:700}.ac2d08f3-5b43-45dc-97e3-11957146a2a5,.adfbcce2-bd5f-49b2-8fda-d964cc61d8b5{fill:#fff}.a3496890-b0c0-47ee-b794-ea573aabbeab,.b4ceeb41-43be-4597-a133-fe0ae209ec99{font-size:12px}.b4ceeb41-43be-4597-a133-fe0ae209ec99{font-family:RedHatText,&quot;Red Hat Text&quot;,Overpass,&quot;Helvetica Neue&quot;,Arial,sans-serif;font-weight:500}.b2920ecb-ba56-4d49-bc2a-d92c35992fa1{fill:#d9e8f7}.e0879f20-8d8b-44cf-97fb-2cd59d08d374{stroke:#e8e8e8;stroke-miterlimit:10;stroke-width:1.5px}.adfbcce2-bd5f-49b2-8fda-d964cc61d8b5,.b004ebd7-98e3-438e-82df-b5655d33919e{font-size:11px}.b004ebd7-98e3-438e-82df-b5655d33919e{font-family:RedHatText,&quot;Red Hat Text&quot;,Overpass,&quot;Helvetica Neue&quot;,Arial,sans-serif;font-style:italic}</style></defs><path class="a26a270c-ada3-4a09-a591-1c6fca9b213e" d="M445.076 20h170v351h-170z"/><path class="f21ea0c3-4248-4638-9752-725d04d79e40" d="M530.075 226.014v192.81"/><path class="b055acb5-06b2-4b2e-9d88-471025554655" d="M525.089 417.365l4.986 8.635 4.987-8.635h-9.973z"/><path class="f21ea0c3-4248-4638-9752-725d04d79e40" d="M550.075 226.014v1.5"/><path stroke-dasharray="3.141 3.141" stroke="#151515" stroke-linecap="round" stroke-linejoin="round" fill="none" d="M550.075 230.655v17.275"/><path class="f21ea0c3-4248-4638-9752-725d04d79e40" d="M550.075 249.5v1.5h1.5"/><path stroke-dasharray="3.023 3.023" stroke="#151515" stroke-linecap="round" stroke-linejoin="round" fill="none" d="M554.599 251h137.567"/><path class="f21ea0c3-4248-4638-9752-725d04d79e40" d="M693.677 251h1.5v-1.5"/><path stroke-dasharray="3.036 3.036" stroke="#151515" stroke-linecap="round" stroke-linejoin="round" fill="none" d="M695.177 246.464v-22.77"/><path class="f21ea0c3-4248-4638-9752-725d04d79e40" d="M695.177 222.176v-1.5"/><path class="b055acb5-06b2-4b2e-9d88-471025554655" d="M700.164 222.135l-4.987-8.635-4.986 8.635h9.973z"/><path class="a26a270c-ada3-4a09-a591-1c6fca9b213e" d="M0 20h380v351H0z"/><text class="bf3455ff-3bfe-4841-b198-dc0e70423c03" transform="translate(20 50.032)">RHEL system</text><text class="bf3455ff-3bfe-4841-b198-dc0e70423c03" transform="translate(465.076 50.032)">System 2</text><path class="ac2d08f3-5b43-45dc-97e3-11957146a2a5" transform="rotate(-180 530.075 156)" d="M465.075 86h130v140h-130z"/><path class="f21ea0c3-4248-4638-9752-725d04d79e40" d="M57.5 235.69v20.62"/><path class="b055acb5-06b2-4b2e-9d88-471025554655" d="M52.514 237.149l4.986-8.635 4.986 8.635h-9.972zM52.514 254.851l4.986 8.635 4.986-8.635h-9.972z"/><path class="ac2d08f3-5b43-45dc-97e3-11957146a2a5" transform="rotate(-180 85 308.5)" d="M20 266h130v85H20z"/><text class="b4ceeb41-43be-4597-a133-fe0ae209ec99" transform="translate(59.134 298.824)">RHEL for<tspan x="-7.242" y="13">Edge image</tspan><tspan x=".246" y="26">blueprint</tspan></text><path class="ac2d08f3-5b43-45dc-97e3-11957146a2a5" transform="rotate(-180 85 156)" d="M20 86h130v140H20z"/><text class="a3496890-b0c0-47ee-b794-ea573aabbeab" transform="translate(35 110.35)">Image Builder</text><path class="b2920ecb-ba56-4d49-bc2a-d92c35992fa1" transform="rotate(-180 85 168.5)" d="M35 126h100v85H35z"/><path class="ac2d08f3-5b43-45dc-97e3-11957146a2a5" transform="rotate(-180 294.972 156)" d="M229.972 86h130v140h-130z"/><text class="a3496890-b0c0-47ee-b794-ea573aabbeab" transform="translate(244.972 110.35)">Extracted<tspan x="0" y="13">contents</tspan></text><text class="b4ceeb41-43be-4597-a133-fe0ae209ec99" transform="translate(59.134 165.324)">RHEL for<tspan x="-7.242" y="13">Edge image</tspan></text><text class="a3496890-b0c0-47ee-b794-ea573aabbeab" transform="translate(480.075 110.35)">Web server</text><path class="e0879f20-8d8b-44cf-97fb-2cd59d08d374" d="M625.076 438.5V590h-170"/><path class="e0879f20-8d8b-44cf-97fb-2cd59d08d374" d="M620.076 433.5V585h-170"/><path class="ac2d08f3-5b43-45dc-97e3-11957146a2a5" d="M445.576 429h169v150.5h-169z"/><path d="M614.076 429.5V579h-168V429.5h168m1-1h-170V580h170V428.5z" fill="#06c"/><text class="bf3455ff-3bfe-4841-b198-dc0e70423c03" transform="translate(465.076 459.032)">Edge Devices</text><path class="b2920ecb-ba56-4d49-bc2a-d92c35992fa1" transform="rotate(-180 530.076 168.5)" d="M480.075 126h100v85h-100z"/><text class="b4ceeb41-43be-4597-a133-fe0ae209ec99" transform="translate(513.971 165.324)">RHEL<tspan x="-6.377" y="13">installer</tspan></text><path class="f21ea0c3-4248-4638-9752-725d04d79e40" d="M470.399 168.5H344.972"/><path class="b055acb5-06b2-4b2e-9d88-471025554655" d="M468.94 163.514l8.635 4.986-8.635 4.986v-9.972z"/><text class="b004ebd7-98e3-438e-82df-b5655d33919e" transform="translate(649.327 241)">Pull</text><path class="f21ea0c3-4248-4638-9752-725d04d79e40" d="M540.075 235.69v1.5"/><path stroke-dasharray="3.187 3.187" stroke="#151515" stroke-linecap="round" stroke-linejoin="round" fill="none" d="M540.075 240.377v17.529"/><path class="f21ea0c3-4248-4638-9752-725d04d79e40" d="M540.075 259.5v1.5h1.5"/><path stroke-dasharray="2.947 2.947" stroke="#151515" stroke-linecap="round" stroke-linejoin="round" fill="none" d="M544.523 261h157.681"/><path class="f21ea0c3-4248-4638-9752-725d04d79e40" d="M703.677 261h1.5v-1.5"/><path stroke-dasharray="3.133 3.133" stroke="#151515" stroke-linecap="round" stroke-linejoin="round" fill="none" d="M705.177 256.367v-42.3"/><path class="f21ea0c3-4248-4638-9752-725d04d79e40" d="M705.177 212.5V211"/><path class="b055acb5-06b2-4b2e-9d88-471025554655" d="M535.089 237.149l4.986-8.635 4.987 8.635h-9.973z"/><text class="b004ebd7-98e3-438e-82df-b5655d33919e" transform="translate(640.427 276.237)">Launch<tspan x="-1.034" y="12">installer</tspan></text><path class="a26a270c-ada3-4a09-a591-1c6fca9b213e" d="M244.972 141h30v70h-30zM279.972 141h30v70h-30zM314.972 141h30v70h-30z"/><text class="b4ceeb41-43be-4597-a133-fe0ae209ec99" transform="translate(257.92 179.324)">1</text><text class="b4ceeb41-43be-4597-a133-fe0ae209ec99" transform="translate(291.552 179.324)">2</text><text class="b4ceeb41-43be-4597-a133-fe0ae209ec99" transform="translate(325.406 179.324)">N</text><path class="b2920ecb-ba56-4d49-bc2a-d92c35992fa1" transform="rotate(-180 530.076 517.5)" d="M465.075 475h130v85h-130z"/><text class="b4ceeb41-43be-4597-a133-fe0ae209ec99" transform="translate(504.209 514.324)">RHEL for<tspan x="-7.242" y="13">Edge image</tspan></text><path class="a26a270c-ada3-4a09-a591-1c6fca9b213e" d="M640.177 126h120v85h-120z"/><g><path class="b055acb5-06b2-4b2e-9d88-471025554655" d="M685.081 142.012h3.73a2.558 2.558 0 012.806 2.543 2.386 2.386 0 01-1.655 2.3l1.763 3.551h-1.6l-1.619-3.358h-1.986v3.358h-1.439zm1.439 1.212v2.676h2.171a1.343 1.343 0 100-2.674zM693.084 142.012h1.44v3.538h4.176v-3.538h1.439v8.4H698.7v-3.6h-4.174v3.6h-1.44zM702.1 142.012h6.009v1.224h-4.569v2.338h3.19v1.2h-3.19v2.411h4.617v1.223H702.1zM709.788 142.012h1.44v7.148h4.472v1.248h-5.913zM662.844 163.468a2.233 2.233 0 01-1.775-.84v.78h-1.332v-8.575l1.356-.229v3.6a2.338 2.338 0 011.847-.852 2.883 2.883 0 012.722 3.058 2.912 2.912 0 01-2.818 3.058zm-1.751-4.306v2.506a1.84 1.84 0 001.439.66 1.924 1.924 0 000-3.838 1.763 1.763 0 00-1.439.672zM669.816 157.3a3.114 3.114 0 11-3.023 3.106 3 3 0 013.023-3.106zm1.679 3.118a1.7 1.7 0 10-3.358 0 1.7 1.7 0 103.358 0zM676.992 157.3a3.114 3.114 0 11-3.023 3.106 3 3 0 013.023-3.106zm1.679 3.118a1.7 1.7 0 10-3.359 0 1.7 1.7 0 103.359 0zM682.165 158.479h-1.212V157.4h1.212v-1.655l1.355-.288v1.943h1.68v1.08h-1.68v3.046c0 .587.228.815.839.815a2.491 2.491 0 00.816-.144v1.14a4.258 4.258 0 01-1.163.168c-1.212 0-1.847-.576-1.847-1.679zM687.852 162.64a.84.84 0 11-.839-.875.858.858 0 01.839.875zM689.161 155.348a.846.846 0 011.691 0 .846.846 0 01-1.691 0zm1.523 8.06h-1.355V157.4h1.355zM692.449 161.8a3.47 3.47 0 001.931.683c.72 0 1.211-.324 1.211-.8 0-.372-.252-.576-.827-.684l-1.068-.18c-1.163-.216-1.738-.755-1.738-1.655 0-1.127.923-1.859 2.326-1.859a4.234 4.234 0 012.363.719l-.636.888a3.288 3.288 0 00-1.811-.576c-.623 0-1.031.264-1.031.708 0 .384.216.552.852.66l1.055.192c1.2.228 1.775.779 1.775 1.679a2.2 2.2 0 01-2.447 1.955 4.033 4.033 0 01-2.591-.816zM700.847 157.3a3.114 3.114 0 11-3.022 3.106 3 3 0 013.022-3.106zm1.679 3.118a1.7 1.7 0 10-3.358 0 1.7 1.7 0 103.358 0zM707.809 155.348a.846.846 0 011.691 0 .846.846 0 01-1.691 0zm1.523 8.06h-1.355V157.4h1.355zM711 157.4h1.356v.959a2.05 2.05 0 011.787-1.055 1.889 1.889 0 011.763 1.163 2.217 2.217 0 011.994-1.167 1.991 1.991 0 011.967 2.183v3.922h-1.355v-3.634a1.216 1.216 0 00-1.212-1.371 1.431 1.431 0 00-1.211.707c.012.132.024.252.024.384v3.922h-1.356v-3.634a1.215 1.215 0 00-1.211-1.379 1.4 1.4 0 00-1.187.683v4.33H711zM721.212 161.681c0-1.08.876-1.764 2.291-1.764a3.717 3.717 0 011.62.373v-.66c0-.792-.456-1.2-1.38-1.2a4.152 4.152 0 00-1.751.467l-.48-.983a5.771 5.771 0 012.5-.612c1.559 0 2.459.792 2.459 2.183v3.922h-1.343v-.607a2.51 2.51 0 01-1.788.708 1.9 1.9 0 01-2.128-1.827zm2.5.875a2.144 2.144 0 001.416-.492v-.983a3.114 3.114 0 00-1.392-.288c-.768 0-1.247.336-1.247.864-.005.551.474.899 1.218.899zM727.836 160.4a2.9 2.9 0 012.807-3.046 2.26 2.26 0 011.763.816v-.77h1.344v6.213c0 1.547-1.008 2.4-2.831 2.4a5.221 5.221 0 01-2.411-.575l.48-1.008a4.089 4.089 0 001.871.516c1.007 0 1.535-.456 1.535-1.331v-1.02a2.33 2.33 0 01-1.835.852 2.881 2.881 0 01-2.723-3.047zm3.131 1.919a1.8 1.8 0 001.427-.659v-2.519a1.863 1.863 0 00-1.427-.648 1.793 1.793 0 00-1.787 1.907 1.816 1.816 0 001.787 1.916zM738.2 163.528a3.055 3.055 0 01-3.059-3.119 2.959 2.959 0 012.927-3.106 2.884 2.884 0 012.842 3.094v.336h-4.437a1.833 1.833 0 001.8 1.643 1.953 1.953 0 001.428-.564l.887.828a3.474 3.474 0 01-2.388.888zm-1.7-3.622h3.13a1.646 1.646 0 00-1.571-1.5 1.613 1.613 0 00-1.559 1.5zM657.372 171.868l.456.612a6.269 6.269 0 000 9.955l-.456.6a6.9 6.9 0 010-11.166zM663.647 179.628a2.3 2.3 0 01-1.871.864 3.019 3.019 0 01.049-6.009 2.383 2.383 0 011.822.815v-3.465l.876-.181v8.756h-.876zm-1.655.1a2 2 0 001.655-.78v-2.9a2.165 2.165 0 10-1.655 3.682zM668.9 174.459a3.041 3.041 0 11-2.842 3.022 2.872 2.872 0 012.842-3.022zm1.991 3.034a2 2 0 10-3.97 0 2 2 0 103.97 0zM674.341 180.408l-1.607-5.853h.851l1.224 4.677 1.4-4.677h.779l1.4 4.677 1.211-4.677h.828l-1.6 5.853h-.851l-1.391-4.726-1.391 4.726zM681.673 174.555h.876v.947a2.11 2.11 0 011.859-1.043 2.037 2.037 0 012.123 2.159v3.79h-.876v-3.538a1.518 1.518 0 00-1.571-1.68 1.726 1.726 0 00-1.535.9v4.318h-.876zM689.173 180.408h-.873v-8.575l.876-.181zM693.552 174.459a3.041 3.041 0 11-2.843 3.022 2.872 2.872 0 012.843-3.022zm1.991 3.034a2 2 0 10-3.97 0 2 2 0 103.97 0zM697.633 178.729c0-1.044.876-1.739 2.195-1.739a3.386 3.386 0 011.787.455v-.8a1.318 1.318 0 00-1.511-1.452 3.872 3.872 0 00-1.775.5l-.324-.672a5.025 5.025 0 012.207-.563c1.451 0 2.267.731 2.267 2.063v3.886h-.864v-.684a2.512 2.512 0 01-1.859.792 1.89 1.89 0 01-2.123-1.786zm2.3 1.115a2.316 2.316 0 001.679-.672v-1.127a3.088 3.088 0 00-1.655-.42c-.9 0-1.487.432-1.487 1.08.003.683.591 1.139 1.466 1.139zM708.562 179.628a2.3 2.3 0 01-1.871.864 3.019 3.019 0 01.049-6.009 2.383 2.383 0 011.822.815v-3.465l.876-.181v8.756h-.876zm-1.655.1a2 2 0 001.655-.78v-2.9a2.165 2.165 0 10-1.655 3.682zM713.879 180.516a2.921 2.921 0 01-2.9-3.035 2.848 2.848 0 012.758-3.022 2.765 2.765 0 012.687 2.95v.264h-4.593a2.133 2.133 0 002.087 2.075 2.39 2.39 0 001.606-.6l.552.588a3.416 3.416 0 01-2.197.78zm-2.026-3.466h3.706a1.934 1.934 0 00-1.835-1.836 1.954 1.954 0 00-1.871 1.836zM722.23 179.628a2.3 2.3 0 01-1.871.864 3.019 3.019 0 01.049-6.009 2.383 2.383 0 011.822.815v-3.465l.876-.181v8.756h-.876zm-1.655.1a2 2 0 001.655-.78v-2.9a2.165 2.165 0 10-1.655 3.682zM727.393 178.729c0-1.044.875-1.739 2.194-1.739a3.386 3.386 0 011.787.455v-.8a1.318 1.318 0 00-1.511-1.452 3.872 3.872 0 00-1.775.5l-.324-.672a5.025 5.025 0 012.207-.563c1.451 0 2.267.731 2.267 2.063v3.886h-.864v-.684a2.512 2.512 0 01-1.859.792 1.889 1.889 0 01-2.122-1.786zm2.3 1.115a2.316 2.316 0 001.679-.672v-1.127a3.088 3.088 0 00-1.655-.42c-.9 0-1.487.432-1.487 1.08.002.683.589 1.139 1.47 1.139zM734.016 174.555h.876v.947a2.108 2.108 0 011.858-1.043 2.037 2.037 0 012.124 2.159v3.79H738v-3.538a1.518 1.518 0 00-1.571-1.68 1.725 1.725 0 00-1.535.9v4.318h-.876zM744.945 179.628a2.306 2.306 0 01-1.871.864 3.019 3.019 0 01.049-6.009 2.383 2.383 0 011.822.815v-3.465l.876-.181v8.756h-.876zm-1.655.1a2 2 0 001.655-.78v-2.9a2.165 2.165 0 10-1.655 3.682zM675.032 191.729c0-1.043.875-1.739 2.195-1.739a3.392 3.392 0 011.786.455v-.8a1.318 1.318 0 00-1.511-1.452 3.875 3.875 0 00-1.775.5l-.324-.672a5.025 5.025 0 012.207-.563c1.452 0 2.267.731 2.267 2.063v3.886h-.864v-.683a2.513 2.513 0 01-1.859.791 1.889 1.889 0 01-2.122-1.786zm2.3 1.116a2.318 2.318 0 001.679-.672v-1.128a3.1 3.1 0 00-1.655-.42c-.9 0-1.487.433-1.487 1.08.002.684.59 1.14 1.465 1.14zM680.936 187.555h.947l1.895 4.761 1.871-4.761h.935l-2.41 5.853h-.84zM687.355 191.729c0-1.043.876-1.739 2.195-1.739a3.4 3.4 0 011.787.455v-.8a1.319 1.319 0 00-1.511-1.452 3.872 3.872 0 00-1.775.5l-.324-.672a5.025 5.025 0 012.207-.563c1.451 0 2.267.731 2.267 2.063v3.886h-.864v-.683a2.515 2.515 0 01-1.859.791 1.89 1.89 0 01-2.123-1.786zm2.3 1.116a2.321 2.321 0 001.679-.672v-1.128a3.1 3.1 0 00-1.655-.42c-.9 0-1.487.433-1.487 1.08.008.684.59 1.14 1.466 1.14zM693.787 185.48a.63.63 0 011.259 0 .63.63 0 11-1.259 0zm1.067 7.928h-.875v-5.853h.875zM697.53 193.408h-.875v-8.575l.875-.181zM699.019 191.729c0-1.043.876-1.739 2.2-1.739a3.392 3.392 0 011.786.455v-.8a1.318 1.318 0 00-1.511-1.452 3.879 3.879 0 00-1.775.5l-.323-.672a5.021 5.021 0 012.207-.563c1.451 0 2.266.731 2.266 2.063v3.886H703v-.683a2.512 2.512 0 01-1.858.791 1.89 1.89 0 01-2.123-1.786zm2.3 1.116a2.318 2.318 0 001.678-.672v-1.128a3.093 3.093 0 00-1.654-.42c-.9 0-1.488.433-1.488 1.08.003.684.591 1.14 1.467 1.14zM708.353 193.492a2.373 2.373 0 01-1.847-.851v.767h-.863v-8.575l.875-.181v3.706a2.361 2.361 0 011.883-.875 3.019 3.019 0 01-.048 6.009zm-1.835-4.437v2.866a2.057 2.057 0 001.667.815 2.251 2.251 0 000-4.485 2 2 0 00-1.667.804zM713.514 193.408h-.876v-8.575l.876-.181zM717.953 193.516a2.921 2.921 0 01-2.9-3.035 2.849 2.849 0 012.758-3.022 2.765 2.765 0 012.687 2.95v.265H715.9a2.133 2.133 0 002.087 2.074 2.385 2.385 0 001.607-.6l.552.588a3.416 3.416 0 01-2.193.78zm-2.027-3.466h3.706a1.932 1.932 0 00-1.835-1.835 1.955 1.955 0 00-1.871 1.835zM722.166 196.047l-.456-.612a6.267 6.267 0 000-9.955l.456-.6a6.906 6.906 0 010 11.167z"/></g><text class="b004ebd7-98e3-438e-82df-b5655d33919e" transform="translate(100.319 73.77)">Install Image Builder</text><g><circle class="b055acb5-06b2-4b2e-9d88-471025554655" cx="85" cy="80.986" r="10"/><text class="adfbcce2-bd5f-49b2-8fda-d964cc61d8b5" transform="translate(82.633 84.771)">1</text></g><text class="b004ebd7-98e3-438e-82df-b5655d33919e" transform="translate(399.031 135.937)">Use a<tspan x="-7.711" y="12">Kickstart</tspan><tspan x="-6.27" y="24">file (KS)</tspan></text><g><path class="f21ea0c3-4248-4638-9752-725d04d79e40" d="M222.796 168.5H135"/><path class="b055acb5-06b2-4b2e-9d88-471025554655" d="M221.337 163.514l8.635 4.986-8.635 4.986v-9.972z"/></g><text class="b004ebd7-98e3-438e-82df-b5655d33919e" transform="translate(101 254.119)">Create and import</text><g><circle class="b055acb5-06b2-4b2e-9d88-471025554655" cx="85" cy="260.995" r="10"/><text class="adfbcce2-bd5f-49b2-8fda-d964cc61d8b5" transform="translate(81.467 264.78)">2</text></g><g><text class="b004ebd7-98e3-438e-82df-b5655d33919e" transform="translate(165.726 128.037)">Download<tspan x="-3.262" y="12">and extract</tspan><tspan x="9.438" y="24">image</tspan></text><circle class="b055acb5-06b2-4b2e-9d88-471025554655" cx="189.986" cy="168.484" r="10"/><text class="adfbcce2-bd5f-49b2-8fda-d964cc61d8b5" transform="translate(186.254 172.269)">3</text></g><text class="b004ebd7-98e3-438e-82df-b5655d33919e" transform="translate(542.576 73.77)">Set up</text><g><circle class="b055acb5-06b2-4b2e-9d88-471025554655" cx="530.075" cy="80.986" r="10"/><text class="adfbcce2-bd5f-49b2-8fda-d964cc61d8b5" transform="translate(526.031 84.771)">4</text></g><text class="b004ebd7-98e3-438e-82df-b5655d33919e" transform="translate(545.076 399.389)">Install image</text><g><circle class="b055acb5-06b2-4b2e-9d88-471025554655" cx="530.075" cy="395.604" r="10"/><text class="adfbcce2-bd5f-49b2-8fda-d964cc61d8b5" transform="translate(526.245 399.389)">6</text></g><g><text transform="translate(689.941 590.517)" font-size="10" fill="#f3f3f3" font-family="RedHatText,&quot;Red Hat Text&quot;,Overpass,&quot;Helvetica Neue&quot;,Arial,sans-serif">125_RHEL_1220</text><path fill="none" d="M0 567.5h760v40H0z"/></g><g><circle class="b055acb5-06b2-4b2e-9d88-471025554655" cx="658.385" cy="256" r="10"/><text class="adfbcce2-bd5f-49b2-8fda-d964cc61d8b5" transform="translate(654.747 259.785)">5</text></g></svg>