<svg id="Layer_1" data-name="Layer 1" xmlns="http://www.w3.org/2000/svg" viewBox="0 0 760 309.35"><defs><style>.cls-2,.cls-3{fill:none}.cls-2,.cls-6{stroke-linecap:round;stroke-linejoin:round}.cls-2{stroke:#151515}.cls-7{fill:#f3f3f3}.cls-10{fill:#e8e8e8}.cls-11,.cls-12,.cls-13,.cls-14{fill:#151515}.cls-12{font-family:RedHatText,&quot;Red Hat Text&quot;,Overpass,&quot;Helvetica Neue&quot;,Arial,sans-serif;font-variation-settings:&apos;wght&apos; 400}.cls-12,.cls-13,.cls-14{font-size:11px}.cls-13{font-family:RedHatText,&quot;Red Hat Text&quot;,Overpass,&quot;Helvetica Neue&quot;,Arial,sans-serif;font-weight:500;font-variation-settings:&apos;wght&apos; 500}.cls-3{stroke:#c4c4c4;stroke-miterlimit:10}.cls-6{fill:#fff;stroke:#5b5b5b;stroke-width:1.5px}.cls-14{font-family:RedHatText,&quot;Red Hat Text&quot;,Overpass,&quot;Helvetica Neue&quot;,Arial,sans-serif;font-weight:700;font-variation-settings:&apos;wght&apos; 700}</style></defs><text transform="translate(720.39 292.37)" font-family="RedHatText,&quot;Red Hat Text&quot;,Overpass,&quot;Helvetica Neue&quot;,Arial,sans-serif" font-size="10" fill="#f3f3f3"><tspan x="0" y="0">213_0122</tspan></text><path fill="none" d="M0 269.35h760v40H0z"/><path class="cls-2" d="M507.18 143.47l78.14.06"/><path class="cls-11" d="M508.63 148.46l-8.63-4.99 8.64-4.98-.01 9.97zM583.86 148.51l8.64-4.98-8.63-4.99-.01 9.97z"/><path class="cls-2" d="M88 199.32v-1.5"/><path stroke-dasharray="0 0 2.85 2.85" stroke="#151515" stroke-linecap="round" stroke-linejoin="round" fill="none" d="M88.01 194.98l.04-38.41"/><path class="cls-2" d="M88.05 155.15v-1.5"/><path class="cls-11" d="M92.99 197.87l-5 8.63-4.97-8.64 9.97.01zM93.04 155.11l-4.98-8.64-4.99 8.63 9.97.01z"/><text class="cls-12" transform="translate(519.79 135.59)"><tspan x="0" y="0">Reconcile</tspan></text><path d="M495.5 19.5v248h-161v-248h161m2-2h-165v252h165v-252z" fill="#06c"/><text class="cls-14" transform="translate(347.5 40.03)"><tspan x="0" y="0">Data Grid Operator</tspan></text><path class="cls-10" d="M347.5 118.5h135v50h-135z"/><text class="cls-13" transform="translate(388.73 146.71)"><tspan x="0" y="0">Controller</tspan></text><path class="cls-10" d="M595 17.5h165v252H595z"/><text class="cls-14" transform="translate(610 40.03)"><tspan x="0" y="0">OpenShift </tspan><tspan x="0" y="12">native resources</tspan></text><path class="cls-7" transform="rotate(-180 677.5 78.25)" d="M610 64.5h135V92H610z"/><text class="cls-13" transform="translate(643.2 82.21)"><tspan x="0" y="0">Deployments</tspan></text><path class="cls-7" transform="rotate(-180 677.5 110.75)" d="M610 97h135v27.5H610z"/><text class="cls-13" transform="translate(645.72 114.71)"><tspan x="0" y="0">Statefulsets</tspan></text><path class="cls-7" transform="rotate(-180 677.5 143.25)" d="M610 129.5h135V157H610z"/><text class="cls-13" transform="translate(659.26 147.21)"><tspan x="0" y="0">Routes</tspan></text><path class="cls-7" transform="rotate(-180 677.5 175.75)" d="M610 162h135v27.5H610z"/><text class="cls-13" transform="translate(657.74 179.71)"><tspan x="0" y="0">Secrets</tspan></text><path class="cls-7" transform="rotate(-180 677.5 208.25)" d="M610 194.5h135V222H610z"/><text class="cls-13" transform="translate(646.13 212.21)"><tspan x="0" y="0">ConfigMaps</tspan></text><path class="cls-7" transform="rotate(-180 677.5 240.75)" d="M610 227h135v27.5H610z"/><text class="cls-13" transform="translate(627.35 244.71)"><tspan x="0" y="0">Persistent Volumes</tspan></text><path stroke="#fff" stroke-width="14" stroke-linecap="round" stroke-linejoin="round" fill="none" d="M330.49 143.47l8.89.06"/><path class="cls-2" d="M277.62 143.47l60.2.06"/><path class="cls-11" d="M279.07 148.46l-8.63-4.99 8.64-4.98-.01 9.97zM336.36 148.51l8.64-4.98-8.63-4.99-.01 9.97z"/><g><path class="cls-2" d="M42.24 143.44l81.03.06"/><path class="cls-11" d="M121.8 148.49l8.64-4.98-8.63-5-.01 9.98z"/></g><text class="cls-12" transform="translate(287.5 135.59)"><tspan x="0" y="0">Listen</tspan></text><text class="cls-12" transform="translate(93.02 184.7)"><tspan x="0" y="0">Apply</tspan></text><path class="cls-10" d="M132.94 118.5h135v50h-135z"/><text class="cls-13" transform="translate(160.14 146.71)"><tspan x="0" y="0">Kubernetes API</tspan></text><g><path class="cls-3" d="M33.03 269h130v-50"/><path class="cls-3" d="M28.03 264h130v-50"/><path class="cls-10" d="M23.03 209h130v50h-130z"/><text class="cls-13" transform="translate(41.34 237.21)"><tspan x="0" y="0">Custom resources</tspan></text></g><g><text class="cls-13" transform="translate(0 164.95)"><tspan x="0" y="0">OpenShift</tspan><tspan x="15.66" y="12">user</tspan></text><path class="cls-6" d="M45.26 148.38c0-10.06-8.26-18.22-18.45-18.22s-18.45 8.16-18.45 18.22h36.9z"/><ellipse class="cls-6" cx="26.81" cy="121.03" rx="9.26" ry="9.15"/></g></svg>