<svg id="Layer_1" data-name="Layer 1" xmlns="http://www.w3.org/2000/svg" viewBox="0 0 760 466"><defs><style>.cls-2,.cls-3,.cls-4,.cls-5,.cls-6,.cls-7{fill:none}.cls-2{stroke:#151515}.cls-2,.cls-3,.cls-4,.cls-5,.cls-6,.cls-7{stroke-linecap:round;stroke-linejoin:round}.cls-3{stroke:#c4c4c4}.cls-4,.cls-5,.cls-6{stroke:#adadad}.cls-9{fill:#fff}.cls-11{fill:#c4c4c4}.cls-12{fill:#d9e8f7}.cls-13,.cls-15,.cls-17{fill:#151515}.cls-5{stroke-dasharray:0 0 3.02 3.02}.cls-15,.cls-17{font-size:11px}.cls-15{font-family:RedHatText,&quot;Red Hat Text&quot;,Overpass,&quot;Helvetica Neue&quot;,Arial,sans-serif;font-weight:500;font-variation-settings:&apos;wght&apos; 500}.cls-6{stroke-dasharray:0 0 2.96 2.96}.cls-7{stroke:#fff;stroke-width:8px}.cls-17{font-family:RedHatText,&quot;Red Hat Text&quot;,Overpass,&quot;Helvetica Neue&quot;,Arial,sans-serif;font-weight:700;font-variation-settings:&apos;wght&apos; 700}</style></defs><text transform="translate(720.39 449.02)" fill="#f3f3f3" font-family="RedHatText,&quot;Red Hat Text&quot;,Overpass,&quot;Helvetica Neue&quot;,Arial,sans-serif" font-size="10"><tspan x="0" y="0">213_0122</tspan></text><path fill="none" d="M0 426h760v40H0z"/><g><path fill="#e8e8e8" d="M0 17.5h760V426H0z"/><text transform="translate(20 47.53)" style="font-variation-settings:'wght' 700" font-family="RedHatText,&quot;Red Hat Text&quot;,Overpass,&quot;Helvetica Neue&quot;,Arial,sans-serif" font-weight="700" font-size="13" fill="#151515"><tspan x="0" y="0">OpenShift Cluster</tspan></text><path class="cls-9" d="M20 62.5h710v80H20z"/><text class="cls-17" transform="translate(35 85.03)"><tspan x="0" y="0">openshift-operators</tspan></text><path class="cls-9" d="M20 162.5h285V406H20z"/><text class="cls-17" transform="translate(35 185.03)"><tspan x="0" y="0">Namespace 1</tspan></text><path class="cls-4" d="M35 199v-1.5h1.5"/><path class="cls-6" d="M39.46 197.5h247.56"/><path class="cls-4" d="M288.5 197.5h1.5v1.5"/><path class="cls-5" d="M290 202.02v185.97"/><path class="cls-4" d="M290 389.5v1.5h-1.5"/><path class="cls-6" d="M285.54 391H37.98"/><path class="cls-4" d="M36.5 391H35v-1.5"/><path class="cls-5" d="M35 386.48V200.51"/><text class="cls-17" transform="translate(45 215.03)"><tspan x="0" y="0">Data Grid cluster</tspan></text><path class="cls-12" d="M45 226h90v50H45zM190 226h90v50h-90zM45 331h90v50H45zM190 331h90v50h-90z"/><path class="cls-3" d="M82.52 285.68l-.04 35.64"/><path class="cls-11" d="M77.54 287.13l4.99-8.63 4.98 8.64-9.97-.01zM77.49 319.86l4.98 8.64 4.99-8.63-9.97-.01z"/><path class="cls-3" d="M242.52 285.68l-.04 35.64"/><path class="cls-11" d="M237.54 287.13l4.99-8.63 4.98 8.64-9.97-.01zM237.49 319.86l4.98 8.64 4.99-8.63-9.97-.01z"/><path class="cls-3" d="M144.68 355.98l35.64.04"/><path class="cls-11" d="M146.13 360.96l-8.63-4.99 8.64-4.98-.01 9.97zM178.86 361.01l8.64-4.98-8.63-4.99-.01 9.97z"/><path class="cls-3" d="M144.68 250.98l35.64.04"/><path class="cls-11" d="M146.13 255.96l-8.63-4.99 8.64-4.98-.01 9.97zM178.86 256.01l8.64-4.98-8.63-4.99-.01 9.97z"/><text class="cls-15" transform="translate(76.51 254.21)"><tspan x="0" y="0">Pod 1</tspan></text><text class="cls-15" transform="translate(220.09 254.21)"><tspan x="0" y="0">Pod 3</tspan></text><text class="cls-15" transform="translate(75.25 359.21)"><tspan x="0" y="0">Pod 2</tspan></text><text class="cls-15" transform="translate(219.24 359.21)"><tspan x="0" y="0">Pod N</tspan></text><path class="cls-9" d="M455 162.5h285V406H455z"/><text class="cls-17" transform="translate(470 185.03)"><tspan x="0" y="0">Namespace 2</tspan></text><path class="cls-4" d="M470 199v-1.5h1.5"/><path class="cls-6" d="M474.46 197.5h247.56"/><path class="cls-4" d="M723.5 197.5h1.5v1.5"/><path class="cls-5" d="M725 202.02v185.97"/><path class="cls-4" d="M725 389.5v1.5h-1.5"/><path class="cls-6" d="M720.54 391H472.98"/><path class="cls-4" d="M471.5 391H470v-1.5"/><path class="cls-5" d="M470 386.48V200.51"/><text class="cls-17" transform="translate(480 215.03)"><tspan x="0" y="0">Data Grid cluster</tspan></text><path class="cls-12" d="M480 226h90v50h-90zM625 226h90v50h-90zM480 331h90v50h-90zM625 331h90v50h-90z"/><g><path class="cls-3" d="M97.52 321.32l-.04-12.82h130.07v-22.82"/><path class="cls-11" d="M102.5 319.85l-4.95 8.65-5.02-8.62 9.97-.03zM232.53 287.14l-4.98-8.64-4.99 8.64h9.97z"/></g><path class="cls-7" d="M212.46 318.1l.06-20"/><g><path class="cls-3" d="M212.51 321.32l.06-22.82H97.48v-12.82"/><path class="cls-11" d="M217.5 319.88l-5 8.62-4.97-8.65 9.97.03zM102.46 287.14l-4.98-8.64-4.99 8.64h9.97z"/></g><g><path class="cls-3" d="M517.52 285.68l-.04 35.64"/><path class="cls-11" d="M512.54 287.13l4.99-8.63 4.98 8.64-9.97-.01zM512.49 319.86l4.98 8.64 4.99-8.63-9.97-.01z"/></g><g><path class="cls-3" d="M677.52 285.68l-.04 35.64"/><path class="cls-11" d="M672.54 287.13l4.99-8.63 4.98 8.64-9.97-.01zM672.49 319.86l4.98 8.64 4.99-8.63-9.97-.01z"/></g><g><path class="cls-3" d="M579.68 355.98l35.64.04"/><path class="cls-11" d="M581.13 360.96l-8.63-4.99 8.64-4.98-.01 9.97zM613.86 361.01l8.64-4.98-8.63-4.99-.01 9.97z"/></g><g><path class="cls-3" d="M579.68 250.98l35.64.04"/><path class="cls-11" d="M581.13 255.96l-8.63-4.99 8.64-4.98-.01 9.97zM613.86 256.01l8.64-4.98-8.63-4.99-.01 9.97z"/></g><g><path class="cls-3" d="M532.52 321.32l-.04-12.82h130.07v-22.82"/><path class="cls-11" d="M537.5 319.85l-4.95 8.65-5.02-8.62 9.97-.03zM667.53 287.14l-4.98-8.64-4.99 8.64h9.97z"/></g><text class="cls-15" transform="translate(511.51 254.21)"><tspan x="0" y="0">Pod 1</tspan></text><text class="cls-15" transform="translate(655.09 254.21)"><tspan x="0" y="0">Pod 3</tspan></text><text class="cls-15" transform="translate(510.25 359.21)"><tspan x="0" y="0">Pod 2</tspan></text><text class="cls-15" transform="translate(654.24 359.21)"><tspan x="0" y="0">Pod N</tspan></text><g><path class="cls-2" d="M460.32 284.25l-160.64-.06"/><path class="cls-13" d="M458.87 279.27l8.63 4.99-8.64 4.98.01-9.97zM301.14 279.21l-8.64 4.98 8.63 4.99.01-9.97z"/></g><path class="cls-2" d="M380.03 284.19l-.06-156.69"/><path d="M470.5 79.5v46h-181v-46h181m2-2h-185v50h185v-50z" fill="#06c"/><text class="cls-15" transform="translate(329.92 105.71)"><tspan x="0" y="0">Data Grid Operator</tspan></text><text transform="translate(337.3 298.47)" style="font-variation-settings:'wght' 400" font-size="11" font-family="RedHatText,&quot;Red Hat Text&quot;,Overpass,&quot;Helvetica Neue&quot;,Arial,sans-serif" fill="#151515"><tspan x="0" y="0">Manages clusters</tspan></text><path class="cls-7" d="M647.46 318.1l.06-20"/><g><path class="cls-3" d="M647.51 321.32l.06-22.82H532.48v-12.82"/><path class="cls-11" d="M652.5 319.88l-5 8.62-4.97-8.65 9.97.03zM537.46 287.14l-4.98-8.64-4.99 8.64h9.97z"/></g></g></svg>