<svg id="b461b778-ff4f-455a-b26e-7cda565c2179" data-name="artwork" xmlns="http://www.w3.org/2000/svg" width="760" height="344.724"><defs><style>.f74dc62d-9776-4c92-9070-4301f63858d9{font-size:12px}.abc024d7-43e5-41df-a7c2-5239df32db12,.f74dc62d-9776-4c92-9070-4301f63858d9{fill:#151515;font-family:RedHatText,&quot;Red Hat Text&quot;,Overpass,&quot;Helvetica Neue&quot;,Arial,sans-serif;font-weight:500}.be22d4fa-3632-47b0-a6ab-8997f3f349b7,.ebf97ad2-308d-43db-ab2c-cf0aea0a9123{fill:none}.be22d4fa-3632-47b0-a6ab-8997f3f349b7{stroke:#06c}.a8d4bace-bdde-4ee4-8e9f-342ec92b5611,.be22d4fa-3632-47b0-a6ab-8997f3f349b7,.ebf97ad2-308d-43db-ab2c-cf0aea0a9123{stroke-linecap:round;stroke-linejoin:round}.ba7a7a06-52b1-4613-9329-720b37649497{fill:#06c}.abc024d7-43e5-41df-a7c2-5239df32db12{font-size:11px}.a242ed3a-a057-4aaa-93c3-46c5f8483329,.a8d4bace-bdde-4ee4-8e9f-342ec92b5611{fill:#fff}.a8d4bace-bdde-4ee4-8e9f-342ec92b5611{stroke:#5b5b5b;stroke-width:1.5px}.fd35ea1b-0e42-4c73-832a-48ebfa516ae6{fill:#99c2eb}.ebf97ad2-308d-43db-ab2c-cf0aea0a9123{stroke:#151515}</style></defs><path fill="#f3f3f3" d="M0 19.724h760v285H0z"/><path fill="#cce0f5" d="M542.221 123.569h60v50h-60z"/><text class="f74dc62d-9776-4c92-9070-4301f63858d9" transform="translate(627.221 68.999)">Core build</text><path class="be22d4fa-3632-47b0-a6ab-8997f3f349b7" d="M572.221 183.224v24.066"/><path class="ba7a7a06-52b1-4613-9329-720b37649497" d="M567.234 184.683l4.987-8.635 4.986 8.635h-9.973z"/><text class="abc024d7-43e5-41df-a7c2-5239df32db12" transform="translate(512.981 262.358)">Application developers</text><path class="a8d4bace-bdde-4ee4-8e9f-342ec92b5611" d="M591.289 245.79a19.068 19.068 0 10-38.135 0z"/><ellipse class="a8d4bace-bdde-4ee4-8e9f-342ec92b5611" cx="572.221" cy="216.939" rx="9.573" ry="9.649"/><path class="fd35ea1b-0e42-4c73-832a-48ebfa516ae6" d="M527.221 108.387h60v50h-60z"/><path class="a242ed3a-a057-4aaa-93c3-46c5f8483329" d="M512.721 93.887h59v49h-59z"/><path class="ba7a7a06-52b1-4613-9329-720b37649497" d="M571.221 94.387v48h-58v-48h58m1-1h-60v50h60v-50z"/><text class="f74dc62d-9776-4c92-9070-4301f63858d9" transform="translate(627.221 93.999)">Middleware</text><path class="ebf97ad2-308d-43db-ab2c-cf0aea0a9123" d="M623.416 89.195l-43.942 29.094M623.356 64.462l-65.497 43.365M623.416 113.986l-29.302 19.401"/><text class="f74dc62d-9776-4c92-9070-4301f63858d9" transform="translate(627.221 118.999)">Application</text><path class="be22d4fa-3632-47b0-a6ab-8997f3f349b7" d="M97.5 153.224v54.066"/><path class="ba7a7a06-52b1-4613-9329-720b37649497" d="M92.514 154.683l4.986-8.635 4.986 8.635h-9.972z"/><g><text class="abc024d7-43e5-41df-a7c2-5239df32db12" transform="translate(68.554 262.358)">Operations</text><path class="a8d4bace-bdde-4ee4-8e9f-342ec92b5611" d="M116.568 245.79a19.068 19.068 0 10-38.135 0z"/><ellipse class="a8d4bace-bdde-4ee4-8e9f-342ec92b5611" cx="97.5" cy="216.939" rx="9.573" ry="9.649"/></g><g><path class="a242ed3a-a057-4aaa-93c3-46c5f8483329" d="M68 93.887h59v49H68z"/><path class="ba7a7a06-52b1-4613-9329-720b37649497" d="M126.5 94.387v48h-58v-48h58m1-1h-60v50h60v-50z"/></g><text class="f74dc62d-9776-4c92-9070-4301f63858d9" transform="translate(182.5 68.999)">Core build</text><g><path class="be22d4fa-3632-47b0-a6ab-8997f3f349b7" d="M331.134 168.224v39.066"/><path class="ba7a7a06-52b1-4613-9329-720b37649497" d="M326.148 169.683l4.986-8.635 4.986 8.635h-9.972z"/><text class="abc024d7-43e5-41df-a7c2-5239df32db12" transform="translate(304.46 262.358)">Architects</text><path class="a8d4bace-bdde-4ee4-8e9f-342ec92b5611" d="M350.2 245.79a19.068 19.068 0 10-38.135 0z"/><ellipse class="a8d4bace-bdde-4ee4-8e9f-342ec92b5611" cx="331.134" cy="216.939" rx="9.573" ry="9.649"/><path class="fd35ea1b-0e42-4c73-832a-48ebfa516ae6" d="M301.134 108.387h60v50h-60z"/><path class="a242ed3a-a057-4aaa-93c3-46c5f8483329" d="M286.634 93.887h59v49h-59z"/><path class="ba7a7a06-52b1-4613-9329-720b37649497" d="M345.134 94.387v48h-58v-48h58m1-1h-60v50h60v-50z"/><text class="f74dc62d-9776-4c92-9070-4301f63858d9" transform="translate(401.134 68.999)">Core build</text><text class="f74dc62d-9776-4c92-9070-4301f63858d9" transform="translate(401.134 93.999)">Middleware</text><path class="ebf97ad2-308d-43db-ab2c-cf0aea0a9123" d="M397.33 89.195l-43.943 29.094M397.33 64.462l-65.497 43.365"/></g><path class="ebf97ad2-308d-43db-ab2c-cf0aea0a9123" d="M178.695 64.462l-65.497 43.365"/><g><text transform="translate(664.872 327.084)" font-size="10" font-family="RedHatText,&quot;Red Hat Text&quot;,Overpass,&quot;Helvetica Neue&quot;,Arial,sans-serif" fill="#f3f3f3">107_OpenShift_0720</text><path fill="none" d="M0 304.724h760v40H0z"/></g></svg>