<svg id="a9beebe0-72e4-44c9-ad10-dece272880e4" data-name="artwork" xmlns="http://www.w3.org/2000/svg" width="760" height="217.136" viewBox="0 0 760 217.136">
  <defs>
    <style>
      .ae10f20f-90c5-47c5-8b33-ea852d5bc6d9 {
        fill: #e8e8e8;
      }

      .aec6ac89-98fd-41c8-8615-3f33b9415175 {
        font-size: 14px;
        font-family: RedHatText-Bold, Red Hat Text;
        font-weight: 700;
      }

      .aec6ac89-98fd-41c8-8615-3f33b9415175, .bd106038-b07d-487e-80ba-7cf5527b8155, .ed46db36-8d71-4ee3-bb02-8a24d75bb940 {
        fill: #151515;
      }

      .a61cc133-0d96-4306-a078-c193f507e799 {
        fill: #fff;
      }

      .ed46db36-8d71-4ee3-bb02-8a24d75bb940 {
        font-size: 11px;
        font-family: RedHatText-Medium, Red Hat Text;
        font-weight: 500;
      }

      .ad079ffd-1dc6-4e95-aadc-0807a26f2f85 {
        font-size: 10px;
        fill: #f3f3f3;
        font-family: RedHatText-Regular, Red Hat Text;
      }

      .b563919e-f7f3-40fc-8840-09c733f4cb30, .bfae60c1-1901-4871-a4f0-6b6f738548b3 {
        fill: none;
      }

      .b563919e-f7f3-40fc-8840-09c733f4cb30 {
        stroke: #151515;
        stroke-linecap: round;
        stroke-linejoin: round;
      }
    </style>
  </defs>
  <rect class="ae10f20f-90c5-47c5-8b33-ea852d5bc6d9" y="20" width="620" height="180"/>
  <text class="aec6ac89-98fd-41c8-8615-3f33b9415175" transform="translate(25 56.788)">RAN boundary</text>
  <rect class="a61cc133-0d96-4306-a078-c193f507e799" x="395" y="45" width="200" height="60" transform="translate(990 150) rotate(-180)"/>
  <text class="ed46db36-8d71-4ee3-bb02-8a24d75bb940" transform="translate(416.742 77.547)">Centralized Unit, control plane</text>
  <rect class="a61cc133-0d96-4306-a078-c193f507e799" x="395" y="115" width="200" height="60" transform="translate(990 290) rotate(-180)"/>
  <text class="ed46db36-8d71-4ee3-bb02-8a24d75bb940" transform="translate(422.836 147.547)">Centralized Unit, user plane </text>
  <g>
    <text class="ad079ffd-1dc6-4e95-aadc-0807a26f2f85" transform="translate(671.531 200.153)">135_OpenShift_0121</text>
    <rect class="bfae60c1-1901-4871-a4f0-6b6f738548b3" y="177.136" width="760" height="40"/>
  </g>
  <g>
    <polyline class="b563919e-f7f3-40fc-8840-09c733f4cb30" points="385.324 75 370 75 370 102.5 352.176 102.5"/>
    <polygon class="bd106038-b07d-487e-80ba-7cf5527b8155" points="383.865 70.014 392.5 75 383.865 79.986 383.865 70.014"/>
    <polygon class="bd106038-b07d-487e-80ba-7cf5527b8155" points="353.635 97.514 345 102.5 353.635 107.486 353.635 97.514"/>
  </g>
  <g>
    <polyline class="b563919e-f7f3-40fc-8840-09c733f4cb30" points="385.324 145 370 145 370 117.5 352.176 117.5"/>
    <polygon class="bd106038-b07d-487e-80ba-7cf5527b8155" points="383.865 140.014 392.5 145 383.865 149.986 383.865 140.014"/>
    <polygon class="bd106038-b07d-487e-80ba-7cf5527b8155" points="353.635 112.514 345 117.5 353.635 122.486 353.635 112.514"/>
  </g>
  <g>
    <line class="b563919e-f7f3-40fc-8840-09c733f4cb30" x1="192.837" y1="110" x2="174.689" y2="110"/>
    <polygon class="bd106038-b07d-487e-80ba-7cf5527b8155" points="191.378 105.014 200.013 110 191.378 114.986 191.378 105.014"/>
    <polygon class="bd106038-b07d-487e-80ba-7cf5527b8155" points="176.148 105.014 167.513 110 176.148 114.986 176.148 105.014"/>
  </g>
  <rect class="a61cc133-0d96-4306-a078-c193f507e799" x="202.5" y="80" width="140" height="60" transform="translate(545 220) rotate(-180)"/>
  <text class="ed46db36-8d71-4ee3-bb02-8a24d75bb940" transform="translate(231.118 112.547)">Distributed Unit</text>
  <rect class="a61cc133-0d96-4306-a078-c193f507e799" x="25" y="80" width="140" height="60" transform="translate(190 220) rotate(-180)"/>
  <text class="ed46db36-8d71-4ee3-bb02-8a24d75bb940" transform="translate(68.139 112.547)">Radio Unit</text>
</svg>
