<svg id="bfe2bbf4-d073-436a-a3bd-c0ea3b8f1f47" data-name="artwork" xmlns="http://www.w3.org/2000/svg" width="760" height="284.842"><defs><style>.f88ef603-b71b-454a-8e47-147a2a1bbe44{fill:#e8e8e8}.fbb38c06-dfa5-4f67-aa8c-783dcd1afc04{fill:none}.f7ae8355-3e2a-44d4-84bd-130657efc9c1{fill:#06c}.f08efccf-7e24-4ad4-89d7-fbdf38bac50e,.f9661dc3-a504-43f2-aacb-e86629a3c625{font-size:12px}.f08efccf-7e24-4ad4-89d7-fbdf38bac50e,.f30d5a04-7ec5-405f-84ae-e36c42448081,.f9661dc3-a504-43f2-aacb-e86629a3c625{fill:#151515}.f9661dc3-a504-43f2-aacb-e86629a3c625{font-family:RedHatText,&quot;Red Hat Text&quot;,Overpass,&quot;Helvetica Neue&quot;,Arial,sans-serif;font-weight:700}.b3a81cf0-daba-4220-8288-bcc2ba6aa140{fill:#e5f0fa}.f08efccf-7e24-4ad4-89d7-fbdf38bac50e{font-family:RedHatText,&quot;Red Hat Text&quot;,Overpass,&quot;Helvetica Neue&quot;,Arial,sans-serif;font-weight:500}.fbb38c06-dfa5-4f67-aa8c-783dcd1afc04{stroke:#151515;stroke-linecap:round;stroke-linejoin:round}</style></defs><text transform="translate(679.172 267.202)" fill="#e8e8e8" font-size="10" font-family="RedHatText,&quot;Red Hat Text&quot;,Overpass,&quot;Helvetica Neue&quot;,Arial,sans-serif">123_RHPAM_1020</text><path fill="none" d="M-.001 244.842h760v40h-760z"/><path class="f7ae8355-3e2a-44d4-84bd-130657efc9c1" d="M509.5 20.932v245h-233v-245h233m1-1h-235v247h235v-247z"/><text class="f9661dc3-a504-43f2-aacb-e86629a3c625" transform="translate(290.5 47.059)">KIE Server</text><path class="b3a81cf0-daba-4220-8288-bcc2ba6aa140" d="M290.5 61.932h205v60h-205z"/><text class="f08efccf-7e24-4ad4-89d7-fbdf38bac50e" transform="translate(338.155 96.817)">Red Hat JBoss EAP</text><path class="f7ae8355-3e2a-44d4-84bd-130657efc9c1" d="M555 61.932h205v60H555z"/><text transform="translate(569.464 88.654)" fill="#fff" font-family="RedHatText,&quot;Red Hat Text&quot;,Overpass,&quot;Helvetica Neue&quot;,Arial,sans-serif" font-weight="700" font-size="12">Red Hat Business Automation<tspan x="59.825" y="13">Database</tspan></text><path class="f7ae8355-3e2a-44d4-84bd-130657efc9c1" d="M234 20.932v245H1v-245h233m1-1H0v247h235v-247z"/><text class="f9661dc3-a504-43f2-aacb-e86629a3c625" transform="translate(15 47.059)">Business Central</text><path class="f88ef603-b71b-454a-8e47-147a2a1bbe44" d="M15 61.932h205v60H15z"/><text class="f08efccf-7e24-4ad4-89d7-fbdf38bac50e" transform="translate(93.678 96.817)">Maven</text><path class="f88ef603-b71b-454a-8e47-147a2a1bbe44" d="M15 126.932h205v60H15z"/><text class="f08efccf-7e24-4ad4-89d7-fbdf38bac50e" transform="translate(103.692 161.817)">Git</text><path class="b3a81cf0-daba-4220-8288-bcc2ba6aa140" d="M15 191.817h205v60H15z"/><text class="f08efccf-7e24-4ad4-89d7-fbdf38bac50e" transform="translate(57.655 226.701)">Red Hat JBoss EAP</text><g><path class="fbb38c06-dfa5-4f67-aa8c-783dcd1afc04" d="M244.676 91.817h20.647"/><path class="f30d5a04-7ec5-405f-84ae-e36c42448081" d="M246.135 96.803l-8.635-4.986 8.635-4.987v9.973zM263.865 96.803l8.635-4.986-8.635-4.987v9.973z"/></g><g><path class="fbb38c06-dfa5-4f67-aa8c-783dcd1afc04" d="M519.927 91.817h25.647"/><path class="f30d5a04-7ec5-405f-84ae-e36c42448081" d="M521.386 96.803l-8.636-4.986 8.636-4.987v9.973zM544.115 96.803l8.635-4.986-8.635-4.987v9.973z"/></g></svg>