<svg id="f351b6d4-97f4-464a-9718-c96b48b4b19e" data-name="artwork" xmlns="http://www.w3.org/2000/svg" width="760" height="426"><defs><style>.f3888cad-4bdb-4279-af4a-1bbc5890ba6c{fill:#e8e8e8}.b1a1f0d7-4a5e-416a-8b38-8045070259d1,.f086c313-7559-4d28-8424-3b1007dfd579{fill:none;stroke:#151515}.b1a1f0d7-4a5e-416a-8b38-8045070259d1{stroke-linecap:round;stroke-linejoin:round}.af67a15d-2e26-4bb3-ba76-12b32c52a18b,.b6fcc7ba-daa9-4398-812e-a774c1109815,.bb495ce6-c491-4ddf-9048-24d6f520eb62,.e7b49e97-f644-4acf-88bb-04bc3e068f9c,.f7dc7fc3-3314-4e5b-81d2-fbd4ac204114{fill:#151515}.e7b49e97-f644-4acf-88bb-04bc3e068f9c{font-size:14px}.bb495ce6-c491-4ddf-9048-24d6f520eb62,.e0ee024d-155e-4ad0-b991-2b5a42ada01b,.e7b49e97-f644-4acf-88bb-04bc3e068f9c{font-family:RedHatText,&quot;Red Hat Text&quot;,Overpass,&quot;Helvetica Neue&quot;,Arial,sans-serif;font-weight:700}.a64f2709-708d-4f41-845b-2231192c4bbf,.e0ee024d-155e-4ad0-b991-2b5a42ada01b{fill:#fff}.af67a15d-2e26-4bb3-ba76-12b32c52a18b,.e0ee024d-155e-4ad0-b991-2b5a42ada01b,.f7dc7fc3-3314-4e5b-81d2-fbd4ac204114{font-size:11px}.af67a15d-2e26-4bb3-ba76-12b32c52a18b{font-family:RedHatText,&quot;Red Hat Text&quot;,Overpass,&quot;Helvetica Neue&quot;,Arial,sans-serif;font-weight:500}.bb495ce6-c491-4ddf-9048-24d6f520eb62{font-size:12px}.e645c74c-2001-473f-9b80-595b00621074{fill:#d9e8f7}.f086c313-7559-4d28-8424-3b1007dfd579{stroke-miterlimit:10;opacity:.25}.f7dc7fc3-3314-4e5b-81d2-fbd4ac204114{font-family:RedHatText,&quot;Red Hat Text&quot;,Overpass,&quot;Helvetica Neue&quot;,Arial,sans-serif;font-style:italic}</style></defs><path class="f3888cad-4bdb-4279-af4a-1bbc5890ba6c" d="M401.076 20h170v366h-170z"/><path class="b1a1f0d7-4a5e-416a-8b38-8045070259d1" d="M471.075 191.014V323.5h110.426"/><path class="b6fcc7ba-daa9-4398-812e-a774c1109815" d="M580.042 328.486l8.635-4.986-8.635-4.986v9.972z"/><path class="b1a1f0d7-4a5e-416a-8b38-8045070259d1" d="M501.075 191.014v1.5"/><path stroke-dasharray="3.132 3.132" stroke-linecap="round" stroke-linejoin="round" stroke="#151515" fill="none" d="M501.075 195.646v42.288"/><path class="b1a1f0d7-4a5e-416a-8b38-8045070259d1" d="M501.075 239.5v1.5h1.5"/><path stroke-dasharray="2.97 2.97" stroke-linecap="round" stroke-linejoin="round" stroke="#151515" fill="none" d="M505.545 241h135.147"/><path class="b1a1f0d7-4a5e-416a-8b38-8045070259d1" d="M642.177 241h1.5v-1.5"/><path stroke-dasharray="2.871 2.871" stroke-linecap="round" stroke-linejoin="round" stroke="#151515" fill="none" d="M643.677 236.629v-33.017"/><path class="b1a1f0d7-4a5e-416a-8b38-8045070259d1" d="M643.677 202.176v-1.5"/><path class="b6fcc7ba-daa9-4398-812e-a774c1109815" d="M648.664 202.135l-4.987-8.635-4.986 8.635h9.973z"/><path class="f3888cad-4bdb-4279-af4a-1bbc5890ba6c" d="M0 20h380v366H0z"/><text class="e7b49e97-f644-4acf-88bb-04bc3e068f9c" transform="translate(20 50.032)">RHEL system</text><text class="e7b49e97-f644-4acf-88bb-04bc3e068f9c" transform="translate(421.076 50.032)">System 2</text><path class="b1a1f0d7-4a5e-416a-8b38-8045070259d1" d="M85 200.69v50.62"/><path class="b6fcc7ba-daa9-4398-812e-a774c1109815" d="M80.014 202.149L85 193.514l4.986 8.635h-9.972zM80.014 249.851L85 258.486l4.986-8.635h-9.972z"/><path class="b1a1f0d7-4a5e-416a-8b38-8045070259d1" d="M295.972 200.69v50.634"/><path class="b6fcc7ba-daa9-4398-812e-a774c1109815" d="M290.985 202.149l4.987-8.635 4.986 8.635h-9.973zM290.985 249.865l4.987 8.635 4.986-8.635h-9.973z"/><path class="a64f2709-708d-4f41-845b-2231192c4bbf" transform="rotate(-180 85 313.5)" d="M20 261h130v105H20z"/><text class="af67a15d-2e26-4bb3-ba76-12b32c52a18b" transform="translate(46.671 310.547)">RHEL for Edge<tspan x="-2.123" y="12">image blueprint</tspan></text><path class="a64f2709-708d-4f41-845b-2231192c4bbf" transform="rotate(-180 85 138.5)" d="M20 86h130v105H20z"/><text class="bb495ce6-c491-4ddf-9048-24d6f520eb62" transform="translate(30 105.35)">Image Builder</text><path class="a64f2709-708d-4f41-845b-2231192c4bbf" transform="rotate(-180 486.075 138.5)" d="M421.075 86h130v105h-130z"/><text class="af67a15d-2e26-4bb3-ba76-12b32c52a18b" transform="translate(449.468 129.547)">RHEL installer<tspan x="33.615" y="12">+</tspan><tspan x="3.899" y="24">Kickstart file</tspan></text><path class="a64f2709-708d-4f41-845b-2231192c4bbf" transform="rotate(-180 295.972 313.5)" d="M230.972 261h130v105h-130z"/><text class="bb495ce6-c491-4ddf-9048-24d6f520eb62" transform="translate(240.972 280.35)">Web server</text><path class="e645c74c-2001-473f-9b80-595b00621074" transform="rotate(-180 295.972 323.5)" d="M240.972 291h110v65h-110z"/><text class="af67a15d-2e26-4bb3-ba76-12b32c52a18b" transform="translate(259.364 326.547)">RHEL installer</text><path class="f086c313-7559-4d28-8424-3b1007dfd579" d="M601.177 386h130V281"/><path class="f086c313-7559-4d28-8424-3b1007dfd579" d="M596.177 381h130V276"/><path class="a64f2709-708d-4f41-845b-2231192c4bbf" d="M591.677 271.5h129v104h-129z"/><path d="M720.177 272v103h-128V272h128m1-1h-130v105h130V271z" fill="#06c"/><text class="bb495ce6-c491-4ddf-9048-24d6f520eb62" transform="translate(601.178 290.35)">Edge devices</text><path class="e645c74c-2001-473f-9b80-595b00621074" transform="rotate(-180 656.178 333.5)" d="M601.178 301h110v65h-110z"/><text class="af67a15d-2e26-4bb3-ba76-12b32c52a18b" transform="translate(617.848 330.547)">RHEL for Edge<tspan x="22.599" y="12">image</tspan></text><path class="b1a1f0d7-4a5e-416a-8b38-8045070259d1" d="M411.399 138.5h-50.427"/><path class="b6fcc7ba-daa9-4398-812e-a774c1109815" d="M409.94 133.514l8.635 4.986-8.635 4.986v-9.972z"/><path class="b1a1f0d7-4a5e-416a-8b38-8045070259d1" d="M486.075 200.69v1.5"/><path stroke-dasharray="3.077 3.077" stroke-linecap="round" stroke-linejoin="round" stroke="#151515" fill="none" d="M486.075 205.267v47.695"/><path class="b1a1f0d7-4a5e-416a-8b38-8045070259d1" d="M486.075 254.5v1.5h1.5"/><path stroke-dasharray="3.044 3.044" stroke-linecap="round" stroke-linejoin="round" stroke="#151515" fill="none" d="M490.619 256h175.036"/><path class="b1a1f0d7-4a5e-416a-8b38-8045070259d1" d="M667.177 256h1.5v-1.5"/><path stroke-dasharray="2.952 2.952" stroke-linecap="round" stroke-linejoin="round" stroke="#151515" fill="none" d="M668.677 251.548v-57.572"/><path class="b1a1f0d7-4a5e-416a-8b38-8045070259d1" d="M668.677 192.5V191"/><path class="b6fcc7ba-daa9-4398-812e-a774c1109815" d="M481.089 202.149l4.986-8.635 4.987 8.635h-9.973z"/><path class="f3888cad-4bdb-4279-af4a-1bbc5890ba6c" d="M591.177 86h130v105h-130z"/><g><path class="b6fcc7ba-daa9-4398-812e-a774c1109815" d="M642.34 113.923h3.421a2.346 2.346 0 012.574 2.332 2.19 2.19 0 01-1.518 2.113l1.618 3.256h-1.464l-1.485-3.081h-1.826v3.081h-1.32zm1.32 1.111v2.453h1.991a1.232 1.232 0 100-2.453zM649.677 113.923H651v3.245h3.829v-3.245h1.32v7.7h-1.32v-3.3H651v3.3h-1.32zM657.938 113.923h5.511v1.122h-4.192v2.145h2.927v1.1h-2.927v2.21h4.236v1.122h-5.555zM664.989 113.923h1.32v6.557h4.1v1.144h-5.424zM621.958 133.679a2.05 2.05 0 01-1.629-.77v.715h-1.221v-7.866l1.243-.209v3.3a2.147 2.147 0 011.694-.781 2.82 2.82 0 01-.087 5.611zm-1.607-3.95v2.3a1.69 1.69 0 001.32.6 1.765 1.765 0 000-3.521 1.618 1.618 0 00-1.32.621zM628.348 128.024a2.856 2.856 0 11-2.772 2.85 2.753 2.753 0 012.772-2.85zm1.54 2.861a1.558 1.558 0 10-3.08 0 1.555 1.555 0 103.08 0zM634.926 128.024a2.856 2.856 0 11-2.772 2.85 2.753 2.753 0 012.772-2.85zm1.54 2.861a1.558 1.558 0 10-3.08 0 1.555 1.555 0 103.08 0zM639.667 129.1h-1.111v-.991h1.111v-1.518l1.243-.264v1.782h1.541v.991h-1.541v2.8c0 .539.209.748.77.748a2.275 2.275 0 00.748-.132v1.045a3.91 3.91 0 01-1.067.154c-1.111 0-1.694-.528-1.694-1.54zM644.881 132.92a.771.771 0 11-.77-.8.787.787 0 01.77.8zM646.08 126.231a.776.776 0 011.551 0 .776.776 0 01-1.551 0zm1.4 7.393h-1.244v-5.512h1.244zM649.093 132.15a3.181 3.181 0 001.772.627c.66 0 1.111-.3 1.111-.737 0-.341-.231-.528-.759-.627l-.979-.165c-1.068-.2-1.6-.693-1.6-1.519 0-1.034.847-1.705 2.134-1.705a3.878 3.878 0 012.167.66l-.583.815a3.006 3.006 0 00-1.661-.529c-.573 0-.947.242-.947.65 0 .352.2.5.782.6l.968.175c1.1.209 1.628.716 1.628 1.541a2.019 2.019 0 01-2.244 1.793 3.7 3.7 0 01-2.377-.748zM656.794 128.024a2.856 2.856 0 11-2.773 2.85 2.752 2.752 0 012.773-2.85zm1.54 2.861a1.558 1.558 0 10-3.081 0 1.556 1.556 0 103.081 0zM663.173 126.231a.776.776 0 011.552 0 .776.776 0 01-1.552 0zm1.4 7.393h-1.243v-5.512h1.243zM666.1 128.112h1.243v.88a1.881 1.881 0 011.639-.968 1.732 1.732 0 011.618 1.067 2.033 2.033 0 011.826-1.067 1.826 1.826 0 011.8 2v3.6h-1.243v-3.333a1.116 1.116 0 00-1.111-1.266 1.315 1.315 0 00-1.111.649c.011.121.022.231.022.352v3.6h-1.244v-3.333a1.115 1.115 0 00-1.11-1.266 1.281 1.281 0 00-1.09.627v3.972H666.1zM675.46 132.04c0-.99.8-1.618 2.1-1.618a3.407 3.407 0 011.485.342v-.605c0-.726-.418-1.1-1.265-1.1a3.81 3.81 0 00-1.606.428l-.44-.9a5.291 5.291 0 012.288-.561c1.431 0 2.256.726 2.256 2v3.6h-1.233v-.561a2.3 2.3 0 01-1.639.649 1.738 1.738 0 01-1.946-1.674zm2.288.8a1.965 1.965 0 001.3-.451v-.9a2.852 2.852 0 00-1.276-.264c-.7 0-1.144.308-1.144.792-.002.507.438.826 1.12.826zM681.532 130.863a2.661 2.661 0 012.574-2.795 2.074 2.074 0 011.617.748v-.7h1.233v5.7c0 1.419-.925 2.2-2.6 2.2a4.787 4.787 0 01-2.211-.528l.44-.924a3.752 3.752 0 001.716.473c.924 0 1.408-.418 1.408-1.221v-.935a2.139 2.139 0 01-1.683.781 2.641 2.641 0 01-2.494-2.799zm2.871 1.76a1.649 1.649 0 001.309-.6v-2.31a1.707 1.707 0 00-1.309-.595 1.645 1.645 0 00-1.639 1.75 1.666 1.666 0 001.636 1.755zM691.036 133.734a2.8 2.8 0 01-2.8-2.86 2.715 2.715 0 012.685-2.85 2.645 2.645 0 012.606 2.839v.308h-4.07a1.683 1.683 0 001.651 1.507 1.79 1.79 0 001.309-.517l.814.759a3.188 3.188 0 01-2.195.814zm-1.562-3.322h2.872a1.51 1.51 0 00-1.442-1.376 1.481 1.481 0 00-1.43 1.376zM616.942 141.791l.418.561a5.748 5.748 0 000 9.131l-.418.55a6.332 6.332 0 010-10.242zM622.7 148.909a2.115 2.115 0 01-1.716.792 2.769 2.769 0 01.043-5.512 2.185 2.185 0 011.673.749v-3.18l.8-.165v8.031h-.8zm-1.519.088a1.839 1.839 0 001.519-.715v-2.662a1.986 1.986 0 10-1.524 3.38zM627.512 144.167a2.789 2.789 0 11-2.607 2.772 2.636 2.636 0 012.607-2.772zm1.826 2.784a1.837 1.837 0 10-3.641 0 1.835 1.835 0 103.641 0zM632.5 149.624l-1.474-5.369h.781l1.122 4.291 1.287-4.291h.715l1.288 4.291 1.111-4.291h.759l-1.463 5.369h-.781l-1.277-4.334-1.276 4.334zM639.216 144.255h.8v.87a1.933 1.933 0 011.705-.958 1.868 1.868 0 011.947 1.98v3.477h-.8v-3.246a1.392 1.392 0 00-1.441-1.54 1.583 1.583 0 00-1.408.826v3.96h-.8zM646.091 149.624h-.8v-7.866l.8-.165zM650.106 144.167a2.789 2.789 0 11-2.607 2.772 2.636 2.636 0 012.607-2.772zm1.826 2.784a1.837 1.837 0 10-3.641 0 1.835 1.835 0 103.641 0zM653.846 148.084c0-.958.8-1.595 2.013-1.595a3.108 3.108 0 011.639.418v-.738a1.209 1.209 0 00-1.386-1.331 3.545 3.545 0 00-1.628.462l-.3-.616a4.6 4.6 0 012.024-.517c1.331 0 2.08.671 2.08 1.893v3.564h-.788V149a2.3 2.3 0 01-1.705.726 1.733 1.733 0 01-1.949-1.642zm2.112 1.023a2.125 2.125 0 001.54-.616v-1.034a2.834 2.834 0 00-1.518-.385c-.825 0-1.364.4-1.364.99 0 .627.539 1.045 1.342 1.045zM663.867 148.909a2.115 2.115 0 01-1.716.792 2.769 2.769 0 01.044-5.512 2.184 2.184 0 011.672.749v-3.18l.8-.165v8.031h-.8zm-1.518.088a1.839 1.839 0 001.518-.715v-2.662a1.986 1.986 0 10-1.518 3.38zM668.74 149.723a2.68 2.68 0 01-2.663-2.784 2.613 2.613 0 012.53-2.772 2.536 2.536 0 012.465 2.707v.242h-4.214a1.958 1.958 0 001.914 1.9 2.2 2.2 0 001.475-.55l.506.539a3.134 3.134 0 01-2.013.718zm-1.86-3.18h3.4a1.774 1.774 0 00-1.683-1.683 1.794 1.794 0 00-1.717 1.683zM676.4 148.909a2.115 2.115 0 01-1.716.792 2.769 2.769 0 01.044-5.512 2.184 2.184 0 011.672.749v-3.18l.8-.165v8.031h-.8zm-1.519.088a1.839 1.839 0 001.519-.715v-2.662a1.986 1.986 0 10-1.523 3.38zM681.125 148.084c0-.958.8-1.595 2.013-1.595a3.106 3.106 0 011.639.418v-.738a1.209 1.209 0 00-1.386-1.331 3.545 3.545 0 00-1.628.462l-.3-.616a4.6 4.6 0 012.024-.517c1.332 0 2.08.671 2.08 1.893v3.564h-.793V149a2.3 2.3 0 01-1.705.726 1.733 1.733 0 01-1.944-1.642zm2.112 1.023a2.125 2.125 0 001.54-.616v-1.034a2.831 2.831 0 00-1.518-.385c-.825 0-1.364.4-1.364.99.005.627.539 1.045 1.342 1.045zM687.2 144.255h.8v.87a1.933 1.933 0 011.705-.958 1.868 1.868 0 011.947 1.98v3.477h-.8v-3.246a1.392 1.392 0 00-1.441-1.54 1.583 1.583 0 00-1.408.826v3.96h-.8zM697.218 148.909a2.115 2.115 0 01-1.716.792 2.769 2.769 0 01.044-5.512 2.184 2.184 0 011.672.749v-3.18l.8-.165v8.031h-.8zM695.7 149a1.839 1.839 0 001.518-.715v-2.665A1.986 1.986 0 10695.7 149zM633.127 160.084c0-.958.8-1.595 2.014-1.595a3.108 3.108 0 011.639.418v-.738a1.209 1.209 0 00-1.386-1.331 3.545 3.545 0 00-1.628.462l-.3-.616a4.6 4.6 0 012.024-.517c1.331 0 2.079.671 2.079 1.893v3.564h-.792V161a2.3 2.3 0 01-1.7.726 1.734 1.734 0 01-1.95-1.642zm2.113 1.023a2.125 2.125 0 001.54-.616v-1.034a2.834 2.834 0 00-1.518-.385c-.825 0-1.365.4-1.365.99.003.627.54 1.045 1.343 1.045zM638.539 156.255h.869l1.738 4.368 1.717-4.368h.858l-2.212 5.369h-.77zM644.424 160.084c0-.958.8-1.595 2.014-1.595a3.108 3.108 0 011.639.418v-.738a1.209 1.209 0 00-1.387-1.331 3.548 3.548 0 00-1.628.462l-.3-.616a4.6 4.6 0 012.024-.517c1.331 0 2.079.671 2.079 1.893v3.564h-.792V161a2.3 2.3 0 01-1.705.726 1.734 1.734 0 01-1.944-1.642zm2.113 1.023a2.125 2.125 0 001.54-.616v-1.034a2.834 2.834 0 00-1.518-.385c-.826 0-1.365.4-1.365.99 0 .627.539 1.045 1.343 1.045zM650.32 154.352a.578.578 0 011.155 0 .578.578 0 11-1.155 0zm.979 7.272h-.8v-5.369h.8zM653.752 161.624h-.8v-7.866l.8-.165zM655.116 160.084c0-.958.8-1.595 2.013-1.595a3.108 3.108 0 011.639.418v-.738a1.209 1.209 0 00-1.386-1.331 3.545 3.545 0 00-1.628.462l-.3-.616a4.6 4.6 0 012.024-.517c1.331 0 2.08.671 2.08 1.893v3.564h-.793V161a2.3 2.3 0 01-1.705.726 1.733 1.733 0 01-1.944-1.642zm2.112 1.023a2.125 2.125 0 001.54-.616v-1.034a2.834 2.834 0 00-1.518-.385c-.825 0-1.364.4-1.364.99 0 .627.539 1.045 1.342 1.045zM663.674 161.7a2.173 2.173 0 01-1.694-.781v.7h-.792v-7.866l.8-.165v3.4a2.163 2.163 0 011.727-.8 2.769 2.769 0 01-.044 5.512zm-1.683-4.071v2.63a1.887 1.887 0 001.529.748 2.065 2.065 0 000-4.114 1.832 1.832 0 00-1.529.737zM668.4 161.624h-.8v-7.866l.8-.165zM672.474 161.723a2.679 2.679 0 01-2.662-2.784 2.613 2.613 0 012.53-2.772 2.536 2.536 0 012.464 2.707v.242h-4.213a1.956 1.956 0 001.914 1.9 2.193 2.193 0 001.474-.55l.506.539a3.134 3.134 0 01-2.013.718zm-1.859-3.18h3.4a1.774 1.774 0 00-1.683-1.683 1.793 1.793 0 00-1.717 1.683zM676.334 164.044l-.417-.561a5.749 5.749 0 000-9.131l.417-.55a6.332 6.332 0 010 10.242z"/></g><text class="f7dc7fc3-3314-4e5b-81d2-fbd4ac204114" transform="translate(100.319 73.77)">Install Image Builder</text><g><circle class="b6fcc7ba-daa9-4398-812e-a774c1109815" cx="85" cy="80.986" r="10"/><text class="e0ee024d-155e-4ad0-b991-2b5a42ada01b" transform="translate(82.633 84.771)">1</text></g><g><path class="b1a1f0d7-4a5e-416a-8b38-8045070259d1" d="M221.296 138.5H140"/><path class="b6fcc7ba-daa9-4398-812e-a774c1109815" d="M219.837 133.514l8.635 4.986-8.635 4.986v-9.972z"/></g><g><text class="f7dc7fc3-3314-4e5b-81d2-fbd4ac204114" transform="translate(100.32 229.124)">Create and import</text><circle class="b6fcc7ba-daa9-4398-812e-a774c1109815" cx="85" cy="226" r="10"/><text class="e0ee024d-155e-4ad0-b991-2b5a42ada01b" transform="translate(81.467 229.785)">2</text></g><text class="f7dc7fc3-3314-4e5b-81d2-fbd4ac204114" transform="translate(683.677 225.624)">Launch installer</text><text class="f7dc7fc3-3314-4e5b-81d2-fbd4ac204114" transform="translate(610.804 225.624)">Pull</text><g><circle class="b6fcc7ba-daa9-4398-812e-a774c1109815" cx="643.645" cy="222.5" r="10"/><text class="e0ee024d-155e-4ad0-b991-2b5a42ada01b" transform="translate(640.008 226.285)">5</text></g><g><circle class="b6fcc7ba-daa9-4398-812e-a774c1109815" cx="668.677" cy="222.5" r="10"/><text class="e0ee024d-155e-4ad0-b991-2b5a42ada01b" transform="translate(665.039 226.285)">5</text></g><g><text class="f7dc7fc3-3314-4e5b-81d2-fbd4ac204114" transform="translate(162.112 111.136)">Load image<tspan x="6.886" y="12">and start</tspan></text><circle class="b6fcc7ba-daa9-4398-812e-a774c1109815" cx="190.101" cy="138.484" r="10"/><text class="e0ee024d-155e-4ad0-b991-2b5a42ada01b" transform="translate(186.369 142.269)">3</text></g><g><text class="f7dc7fc3-3314-4e5b-81d2-fbd4ac204114" transform="translate(498.576 73.77)">Set up</text><circle class="b6fcc7ba-daa9-4398-812e-a774c1109815" cx="486.075" cy="80.986" r="10"/><text class="e0ee024d-155e-4ad0-b991-2b5a42ada01b" transform="translate(482.031 84.771)">4</text></g><text class="f7dc7fc3-3314-4e5b-81d2-fbd4ac204114" transform="translate(486.076 298.59)">Install image</text><g><circle class="b6fcc7ba-daa9-4398-812e-a774c1109815" cx="471.075" cy="294.805" r="10"/><text class="e0ee024d-155e-4ad0-b991-2b5a42ada01b" transform="translate(467.245 298.59)">6</text></g><g><text transform="translate(688.041 409.017)" font-size="10" fill="#ececec" font-family="RedHatText,&quot;Red Hat Text&quot;,Overpass,&quot;Helvetica Neue&quot;,Arial,sans-serif">164_RHEL_0621</text><path fill="none" d="M0 386h760v40H0z"/></g><path class="a64f2709-708d-4f41-845b-2231192c4bbf" transform="rotate(-180 295.972 138.5)" d="M230.972 86h130v105h-130z"/><text class="af67a15d-2e26-4bb3-ba76-12b32c52a18b" transform="translate(270.304 141.547)">Container</text><path class="e645c74c-2001-473f-9b80-595b00621074" transform="rotate(-180 85 148.5)" d="M30 116h110v65H30z"/><text class="af67a15d-2e26-4bb3-ba76-12b32c52a18b" transform="translate(45.434 145.547)">RHEL for Edge <tspan x="-1.969" y="12">container image</tspan></text><g><path class="f3888cad-4bdb-4279-af4a-1bbc5890ba6c" d="M249.198 211.871h93.547v28.258h-93.547z"/><text class="f7dc7fc3-3314-4e5b-81d2-fbd4ac204114" transform="translate(257.433 223.124)">Serve extracted<tspan x="-24.095" y="12">OSTree content over http</tspan></text></g></svg>