<svg id="a3049bac-b87d-4a6f-986e-e9cbc5ba0132" data-name="artwork" xmlns="http://www.w3.org/2000/svg" width="760" height="607.5" viewBox="0 0 760 607.5">
  <defs>
    <style>
      .abc2e6fc-bca2-4c48-a1d4-42e8c601a992 {
        fill: #e8e8e8;
      }

      .a0c43b95-9de4-4dcf-885c-2a7f8ef76b65, .a0ce1996-91bb-4392-9074-26f4cca5551f, .a14430c3-3b0e-43eb-aed7-44526137527e, .a29f33ed-4886-47de-bc05-c0d1aea91f08, .ab3fdedf-543a-4720-923f-865c25186f65, .bf9dee23-6d41-4a88-908b-6661d0b85a49, .eaee71bc-83f2-430d-b176-3c67ad8249a0, .ee5230f7-5e21-4153-9caa-c27b35cf0798, .eec8f46e-7141-438e-a10f-710b78eee072 {
        fill: none;
      }

      .a0c43b95-9de4-4dcf-885c-2a7f8ef76b65, .a14430c3-3b0e-43eb-aed7-44526137527e, .a29f33ed-4886-47de-bc05-c0d1aea91f08, .ab3fdedf-543a-4720-923f-865c25186f65, .bf9dee23-6d41-4a88-908b-6661d0b85a49, .eaee71bc-83f2-430d-b176-3c67ad8249a0, .eec8f46e-7141-438e-a10f-710b78eee072 {
        stroke: #151515;
        stroke-linecap: round;
        stroke-linejoin: round;
      }

      .a189b9cb-aa35-49e1-9efe-e91d3806c503, .afc00c7a-3df1-4d97-b483-47295b40e055, .b9e49fe4-b116-4aa0-83d9-195b02c74db3, .baa30a83-d733-463c-a5ae-9260647bd3c8, .bd34a7f6-b1e9-4437-8bde-d9fdfe8ddc63 {
        fill: #151515;
      }

      .a0c43b95-9de4-4dcf-885c-2a7f8ef76b65 {
        stroke-dasharray: 3.141 3.141;
      }

      .a29f33ed-4886-47de-bc05-c0d1aea91f08 {
        stroke-dasharray: 3.023 3.023;
      }

      .ab3fdedf-543a-4720-923f-865c25186f65 {
        stroke-dasharray: 3.036 3.036;
      }

      .bd34a7f6-b1e9-4437-8bde-d9fdfe8ddc63 {
        font-size: 14px;
      }

      .a2f80273-1922-41c2-bb39-af052590df71, .afc00c7a-3df1-4d97-b483-47295b40e055, .bd34a7f6-b1e9-4437-8bde-d9fdfe8ddc63 {
        font-family: RedHatText-Bold, Red Hat Text;
        font-weight: 700;
      }

      .a2f80273-1922-41c2-bb39-af052590df71, .fd8dbd94-afaa-470c-a59b-b102589d72ef {
        fill: #fff;
      }

      .a189b9cb-aa35-49e1-9efe-e91d3806c503, .afc00c7a-3df1-4d97-b483-47295b40e055 {
        font-size: 12px;
      }

      .a189b9cb-aa35-49e1-9efe-e91d3806c503 {
        font-family: RedHatText-Medium, Red Hat Text;
        font-weight: 500;
      }

      .a2e27650-96d0-49c9-9af8-eefc3fb0e8ec {
        fill: #d9e8f7;
      }

      .ee5230f7-5e21-4153-9caa-c27b35cf0798 {
        stroke: #e8e8e8;
        stroke-miterlimit: 10;
        stroke-width: 1.5px;
      }

      .a26ee2f3-bf7d-499a-95b8-57c7b1a282da {
        fill: #06c;
      }

      .a2f80273-1922-41c2-bb39-af052590df71, .b9e49fe4-b116-4aa0-83d9-195b02c74db3 {
        font-size: 11px;
      }

      .b9e49fe4-b116-4aa0-83d9-195b02c74db3 {
        font-family: RedHatText-Italic, Red Hat Text;
        font-style: italic;
      }

      .eec8f46e-7141-438e-a10f-710b78eee072 {
        stroke-dasharray: 3.187 3.187;
      }

      .bf9dee23-6d41-4a88-908b-6661d0b85a49 {
        stroke-dasharray: 2.947 2.947;
      }

      .a14430c3-3b0e-43eb-aed7-44526137527e {
        stroke-dasharray: 3.133 3.133;
      }

      .b4903024-fedc-46c1-a470-37050b661d07 {
        font-size: 10px;
        fill: #f3f3f3;
        font-family: RedHatText-Regular, Red Hat Text;
      }
    </style>
  </defs>
  <rect class="abc2e6fc-bca2-4c48-a1d4-42e8c601a992" x="445.076" y="20" width="170" height="351"/>
  <g>
    <line class="eaee71bc-83f2-430d-b176-3c67ad8249a0" x1="530.075" y1="226.014" x2="530.075" y2="418.824"/>
    <polygon class="baa30a83-d733-463c-a5ae-9260647bd3c8" points="525.089 417.365 530.075 426 535.062 417.365 525.089 417.365"/>
  </g>
  <g>
    <line class="eaee71bc-83f2-430d-b176-3c67ad8249a0" x1="550.075" y1="226.014" x2="550.075" y2="227.514"/>
    <line class="a0c43b95-9de4-4dcf-885c-2a7f8ef76b65" x1="550.075" y1="230.655" x2="550.075" y2="247.93"/>
    <polyline class="eaee71bc-83f2-430d-b176-3c67ad8249a0" points="550.075 249.5 550.075 251 551.575 251"/>
    <line class="a29f33ed-4886-47de-bc05-c0d1aea91f08" x1="554.599" y1="251" x2="692.166" y2="251"/>
    <polyline class="eaee71bc-83f2-430d-b176-3c67ad8249a0" points="693.677 251 695.177 251 695.177 249.5"/>
    <line class="ab3fdedf-543a-4720-923f-865c25186f65" x1="695.177" y1="246.464" x2="695.177" y2="223.694"/>
    <line class="eaee71bc-83f2-430d-b176-3c67ad8249a0" x1="695.177" y1="222.176" x2="695.177" y2="220.676"/>
    <polygon class="baa30a83-d733-463c-a5ae-9260647bd3c8" points="700.164 222.135 695.177 213.5 690.191 222.135 700.164 222.135"/>
  </g>
  <rect class="abc2e6fc-bca2-4c48-a1d4-42e8c601a992" y="20" width="380" height="351"/>
  <text class="bd34a7f6-b1e9-4437-8bde-d9fdfe8ddc63" transform="translate(20 50.032)">RHEL system</text>
  <text class="bd34a7f6-b1e9-4437-8bde-d9fdfe8ddc63" transform="translate(465.076 50.032)">System 2</text>
  <rect class="fd8dbd94-afaa-470c-a59b-b102589d72ef" x="465.075" y="86" width="130" height="140" transform="translate(1060.15 312) rotate(-180)"/>
  <g>
    <line class="eaee71bc-83f2-430d-b176-3c67ad8249a0" x1="57.5" y1="235.69" x2="57.5" y2="256.31"/>
    <polygon class="baa30a83-d733-463c-a5ae-9260647bd3c8" points="52.514 237.149 57.5 228.514 62.486 237.149 52.514 237.149"/>
    <polygon class="baa30a83-d733-463c-a5ae-9260647bd3c8" points="52.514 254.851 57.5 263.486 62.486 254.851 52.514 254.851"/>
  </g>
  <rect class="fd8dbd94-afaa-470c-a59b-b102589d72ef" x="20" y="266" width="130" height="85" transform="translate(170 617) rotate(-180)"/>
  <text class="a189b9cb-aa35-49e1-9efe-e91d3806c503" transform="translate(59.134 298.824)">RHEL for<tspan x="-7.242" y="13">Edge image</tspan><tspan x="0.246" y="26">blueprint</tspan></text>
  <rect class="fd8dbd94-afaa-470c-a59b-b102589d72ef" x="20" y="86" width="130" height="140" transform="translate(170 312) rotate(-180)"/>
  <text class="afc00c7a-3df1-4d97-b483-47295b40e055" transform="translate(35 110.35)">Image Builder</text>
  <rect class="a2e27650-96d0-49c9-9af8-eefc3fb0e8ec" x="35" y="126" width="100" height="85" transform="translate(170 337) rotate(-180)"/>
  <rect class="fd8dbd94-afaa-470c-a59b-b102589d72ef" x="229.972" y="86" width="130" height="140" transform="translate(589.944 312) rotate(-180)"/>
  <text class="afc00c7a-3df1-4d97-b483-47295b40e055" transform="translate(244.972 110.35)">Extracted<tspan x="0" y="13">contents</tspan></text>
  <text class="a189b9cb-aa35-49e1-9efe-e91d3806c503" transform="translate(59.134 165.324)">RHEL for<tspan x="-7.242" y="13">Edge image</tspan></text>
  <text class="afc00c7a-3df1-4d97-b483-47295b40e055" transform="translate(480.075 110.35)">Web server</text>
  <polyline class="ee5230f7-5e21-4153-9caa-c27b35cf0798" points="625.076 438.5 625.076 590 455.076 590"/>
  <polyline class="ee5230f7-5e21-4153-9caa-c27b35cf0798" points="620.076 433.5 620.076 585 450.076 585"/>
  <g>
    <rect class="fd8dbd94-afaa-470c-a59b-b102589d72ef" x="445.576" y="429" width="169" height="150.5"/>
    <path class="a26ee2f3-bf7d-499a-95b8-57c7b1a282da" d="M614.076,429.5V579h-168V429.5h168m1-1h-170V580h170V428.5Z"/>
  </g>
  <text class="bd34a7f6-b1e9-4437-8bde-d9fdfe8ddc63" transform="translate(465.076 459.032)">Edge Devices</text>
  <rect class="a2e27650-96d0-49c9-9af8-eefc3fb0e8ec" x="480.075" y="126" width="100" height="85" transform="translate(1060.151 337) rotate(-180)"/>
  <text class="a189b9cb-aa35-49e1-9efe-e91d3806c503" transform="translate(513.971 165.324)">RHEL<tspan x="-6.377" y="13">installer</tspan></text>
  <g>
    <line class="eaee71bc-83f2-430d-b176-3c67ad8249a0" x1="470.399" y1="168.5" x2="344.972" y2="168.5"/>
    <polygon class="baa30a83-d733-463c-a5ae-9260647bd3c8" points="468.94 163.514 477.575 168.5 468.94 173.486 468.94 163.514"/>
  </g>
  <text class="b9e49fe4-b116-4aa0-83d9-195b02c74db3" transform="translate(649.327 241)">Pull</text>
  <g>
    <line class="eaee71bc-83f2-430d-b176-3c67ad8249a0" x1="540.075" y1="235.69" x2="540.075" y2="237.19"/>
    <line class="eec8f46e-7141-438e-a10f-710b78eee072" x1="540.075" y1="240.377" x2="540.075" y2="257.906"/>
    <polyline class="eaee71bc-83f2-430d-b176-3c67ad8249a0" points="540.075 259.5 540.075 261 541.575 261"/>
    <line class="bf9dee23-6d41-4a88-908b-6661d0b85a49" x1="544.523" y1="261" x2="702.204" y2="261"/>
    <polyline class="eaee71bc-83f2-430d-b176-3c67ad8249a0" points="703.677 261 705.177 261 705.177 259.5"/>
    <line class="a14430c3-3b0e-43eb-aed7-44526137527e" x1="705.177" y1="256.367" x2="705.177" y2="214.067"/>
    <line class="eaee71bc-83f2-430d-b176-3c67ad8249a0" x1="705.177" y1="212.5" x2="705.177" y2="211"/>
    <polygon class="baa30a83-d733-463c-a5ae-9260647bd3c8" points="535.089 237.149 540.075 228.514 545.062 237.149 535.089 237.149"/>
  </g>
  <text class="b9e49fe4-b116-4aa0-83d9-195b02c74db3" transform="translate(640.427 276.237)">Launch<tspan x="-1.034" y="12">installer</tspan></text>
  <rect class="abc2e6fc-bca2-4c48-a1d4-42e8c601a992" x="244.972" y="141" width="30" height="70"/>
  <rect class="abc2e6fc-bca2-4c48-a1d4-42e8c601a992" x="279.972" y="141" width="30" height="70"/>
  <rect class="abc2e6fc-bca2-4c48-a1d4-42e8c601a992" x="314.972" y="141" width="30" height="70"/>
  <text class="a189b9cb-aa35-49e1-9efe-e91d3806c503" transform="translate(257.92 179.324)">1</text>
  <text class="a189b9cb-aa35-49e1-9efe-e91d3806c503" transform="translate(291.552 179.324)">2</text>
  <text class="a189b9cb-aa35-49e1-9efe-e91d3806c503" transform="translate(325.406 179.324)">N</text>
  <rect class="a2e27650-96d0-49c9-9af8-eefc3fb0e8ec" x="465.075" y="475" width="130" height="85" transform="translate(1060.151 1035) rotate(-180)"/>
  <text class="a189b9cb-aa35-49e1-9efe-e91d3806c503" transform="translate(504.209 514.324)">RHEL for<tspan x="-7.242" y="13">Edge image</tspan></text>
  <rect class="abc2e6fc-bca2-4c48-a1d4-42e8c601a992" x="640.177" y="126" width="120" height="85"/>
  <g>
    <path class="baa30a83-d733-463c-a5ae-9260647bd3c8" d="M685.081,142.012h3.73a2.558,2.558,0,0,1,2.806,2.543,2.386,2.386,0,0,1-1.655,2.3l1.763,3.551h-1.6l-1.619-3.358H686.52v3.358h-1.439Zm1.439,1.212V145.9h2.171a1.343,1.343,0,1,0,0-2.674Z"/>
    <path class="baa30a83-d733-463c-a5ae-9260647bd3c8" d="M693.084,142.012h1.44v3.538H698.7v-3.538h1.439v8.4H698.7v-3.6h-4.174v3.6h-1.44Z"/>
    <path class="baa30a83-d733-463c-a5ae-9260647bd3c8" d="M702.1,142.012h6.009v1.224h-4.569v2.338h3.19v1.2h-3.19v2.411h4.617v1.223H702.1Z"/>
    <path class="baa30a83-d733-463c-a5ae-9260647bd3c8" d="M709.788,142.012h1.44v7.148H715.7v1.248h-5.913Z"/>
    <path class="baa30a83-d733-463c-a5ae-9260647bd3c8" d="M662.844,163.468a2.233,2.233,0,0,1-1.775-.84v.78h-1.332v-8.575l1.356-.229v3.6a2.338,2.338,0,0,1,1.847-.852,2.883,2.883,0,0,1,2.722,3.058A2.912,2.912,0,0,1,662.844,163.468Zm-1.751-4.306v2.506a1.84,1.84,0,0,0,1.439.66,1.924,1.924,0,0,0,0-3.838A1.763,1.763,0,0,0,661.093,159.162Z"/>
    <path class="baa30a83-d733-463c-a5ae-9260647bd3c8" d="M669.816,157.3a3.114,3.114,0,1,1-3.023,3.106A3,3,0,0,1,669.816,157.3Zm1.679,3.118a1.7,1.7,0,1,0-3.358,0,1.7,1.7,0,1,0,3.358,0Z"/>
    <path class="baa30a83-d733-463c-a5ae-9260647bd3c8" d="M676.992,157.3a3.114,3.114,0,1,1-3.023,3.106A3,3,0,0,1,676.992,157.3Zm1.679,3.118a1.7,1.7,0,1,0-3.359,0,1.7,1.7,0,1,0,3.359,0Z"/>
    <path class="baa30a83-d733-463c-a5ae-9260647bd3c8" d="M682.165,158.479h-1.212V157.4h1.212v-1.655l1.355-.288V157.4H685.2v1.08H683.52v3.046c0,.587.228.815.839.815a2.491,2.491,0,0,0,.816-.144v1.14a4.258,4.258,0,0,1-1.163.168c-1.212,0-1.847-.576-1.847-1.679Z"/>
    <path class="baa30a83-d733-463c-a5ae-9260647bd3c8" d="M687.852,162.64a.84.84,0,1,1-.839-.875A.858.858,0,0,1,687.852,162.64Z"/>
    <path class="baa30a83-d733-463c-a5ae-9260647bd3c8" d="M689.161,155.348a.846.846,0,0,1,1.691,0,.846.846,0,0,1-1.691,0Zm1.523,8.06h-1.355V157.4h1.355Z"/>
    <path class="baa30a83-d733-463c-a5ae-9260647bd3c8" d="M692.449,161.8a3.47,3.47,0,0,0,1.931.683c.72,0,1.211-.324,1.211-.8,0-.372-.252-.576-.827-.684l-1.068-.18c-1.163-.216-1.738-.755-1.738-1.655,0-1.127.923-1.859,2.326-1.859a4.234,4.234,0,0,1,2.363.719l-.636.888a3.288,3.288,0,0,0-1.811-.576c-.623,0-1.031.264-1.031.708,0,.384.216.552.852.66l1.055.192c1.2.228,1.775.779,1.775,1.679a2.2,2.2,0,0,1-2.447,1.955,4.033,4.033,0,0,1-2.591-.816Z"/>
    <path class="baa30a83-d733-463c-a5ae-9260647bd3c8" d="M700.847,157.3a3.114,3.114,0,1,1-3.022,3.106A3,3,0,0,1,700.847,157.3Zm1.679,3.118a1.7,1.7,0,1,0-3.358,0,1.7,1.7,0,1,0,3.358,0Z"/>
    <path class="baa30a83-d733-463c-a5ae-9260647bd3c8" d="M707.809,155.348a.846.846,0,0,1,1.691,0,.846.846,0,0,1-1.691,0Zm1.523,8.06h-1.355V157.4h1.355Z"/>
    <path class="baa30a83-d733-463c-a5ae-9260647bd3c8" d="M711,157.4h1.356v.959a2.05,2.05,0,0,1,1.787-1.055,1.889,1.889,0,0,1,1.763,1.163A2.217,2.217,0,0,1,717.9,157.3a1.991,1.991,0,0,1,1.967,2.183v3.922h-1.355v-3.634A1.216,1.216,0,0,0,717.3,158.4a1.431,1.431,0,0,0-1.211.707c.012.132.024.252.024.384v3.922h-1.356v-3.634a1.215,1.215,0,0,0-1.211-1.379,1.4,1.4,0,0,0-1.187.683v4.33H711Z"/>
    <path class="baa30a83-d733-463c-a5ae-9260647bd3c8" d="M721.212,161.681c0-1.08.876-1.764,2.291-1.764a3.717,3.717,0,0,1,1.62.373v-.66c0-.792-.456-1.2-1.38-1.2a4.152,4.152,0,0,0-1.751.467l-.48-.983a5.771,5.771,0,0,1,2.5-.612c1.559,0,2.459.792,2.459,2.183v3.922h-1.343V162.8a2.51,2.51,0,0,1-1.788.708A1.9,1.9,0,0,1,721.212,161.681Zm2.5.875a2.144,2.144,0,0,0,1.416-.492v-.983a3.114,3.114,0,0,0-1.392-.288c-.768,0-1.247.336-1.247.864C722.484,162.208,722.963,162.556,723.707,162.556Z"/>
    <path class="baa30a83-d733-463c-a5ae-9260647bd3c8" d="M727.836,160.4a2.9,2.9,0,0,1,2.807-3.046,2.26,2.26,0,0,1,1.763.816V157.4h1.344v6.213c0,1.547-1.008,2.4-2.831,2.4a5.221,5.221,0,0,1-2.411-.575l.48-1.008a4.089,4.089,0,0,0,1.871.516c1.007,0,1.535-.456,1.535-1.331v-1.02a2.33,2.33,0,0,1-1.835.852A2.881,2.881,0,0,1,727.836,160.4Zm3.131,1.919a1.8,1.8,0,0,0,1.427-.659v-2.519a1.863,1.863,0,0,0-1.427-.648,1.793,1.793,0,0,0-1.787,1.907A1.816,1.816,0,0,0,730.967,162.316Z"/>
    <path class="baa30a83-d733-463c-a5ae-9260647bd3c8" d="M738.2,163.528a3.055,3.055,0,0,1-3.059-3.119,2.959,2.959,0,0,1,2.927-3.106,2.884,2.884,0,0,1,2.842,3.094v.336h-4.437a1.833,1.833,0,0,0,1.8,1.643,1.953,1.953,0,0,0,1.428-.564l.887.828A3.474,3.474,0,0,1,738.2,163.528Zm-1.7-3.622h3.13a1.646,1.646,0,0,0-1.571-1.5A1.613,1.613,0,0,0,736.5,159.906Z"/>
    <path class="baa30a83-d733-463c-a5ae-9260647bd3c8" d="M657.372,171.868l.456.612a6.269,6.269,0,0,0,0,9.955l-.456.6a6.9,6.9,0,0,1,0-11.166Z"/>
    <path class="baa30a83-d733-463c-a5ae-9260647bd3c8" d="M663.647,179.628a2.3,2.3,0,0,1-1.871.864,3.019,3.019,0,0,1,.049-6.009,2.383,2.383,0,0,1,1.822.815v-3.465l.876-.181v8.756h-.876Zm-1.655.1a2,2,0,0,0,1.655-.78v-2.9a2.165,2.165,0,1,0-1.655,3.682Z"/>
    <path class="baa30a83-d733-463c-a5ae-9260647bd3c8" d="M668.9,174.459a3.041,3.041,0,1,1-2.842,3.022A2.872,2.872,0,0,1,668.9,174.459Zm1.991,3.034a2,2,0,1,0-3.97,0,2,2,0,1,0,3.97,0Z"/>
    <path class="baa30a83-d733-463c-a5ae-9260647bd3c8" d="M674.341,180.408l-1.607-5.853h.851l1.224,4.677,1.4-4.677h.779l1.4,4.677,1.211-4.677h.828l-1.6,5.853h-.851l-1.391-4.726-1.391,4.726Z"/>
    <path class="baa30a83-d733-463c-a5ae-9260647bd3c8" d="M681.673,174.555h.876v.947a2.11,2.11,0,0,1,1.859-1.043,2.037,2.037,0,0,1,2.123,2.159v3.79h-.876V176.87a1.518,1.518,0,0,0-1.571-1.68,1.726,1.726,0,0,0-1.535.9v4.318h-.876Z"/>
    <path class="baa30a83-d733-463c-a5ae-9260647bd3c8" d="M689.173,180.408H688.3v-8.575l.876-.181Z"/>
    <path class="baa30a83-d733-463c-a5ae-9260647bd3c8" d="M693.552,174.459a3.041,3.041,0,1,1-2.843,3.022A2.872,2.872,0,0,1,693.552,174.459Zm1.991,3.034a2,2,0,1,0-3.97,0,2,2,0,1,0,3.97,0Z"/>
    <path class="baa30a83-d733-463c-a5ae-9260647bd3c8" d="M697.633,178.729c0-1.044.876-1.739,2.195-1.739a3.386,3.386,0,0,1,1.787.455v-.8a1.318,1.318,0,0,0-1.511-1.452,3.872,3.872,0,0,0-1.775.5l-.324-.672a5.025,5.025,0,0,1,2.207-.563c1.451,0,2.267.731,2.267,2.063v3.886h-.864v-.684a2.512,2.512,0,0,1-1.859.792A1.89,1.89,0,0,1,697.633,178.729Zm2.3,1.115a2.316,2.316,0,0,0,1.679-.672v-1.127a3.088,3.088,0,0,0-1.655-.42c-.9,0-1.487.432-1.487,1.08C698.473,179.388,699.061,179.844,699.936,179.844Z"/>
    <path class="baa30a83-d733-463c-a5ae-9260647bd3c8" d="M708.562,179.628a2.3,2.3,0,0,1-1.871.864,3.019,3.019,0,0,1,.049-6.009,2.383,2.383,0,0,1,1.822.815v-3.465l.876-.181v8.756h-.876Zm-1.655.1a2,2,0,0,0,1.655-.78v-2.9a2.165,2.165,0,1,0-1.655,3.682Z"/>
    <path class="baa30a83-d733-463c-a5ae-9260647bd3c8" d="M713.879,180.516a2.921,2.921,0,0,1-2.9-3.035,2.848,2.848,0,0,1,2.758-3.022,2.765,2.765,0,0,1,2.687,2.95v.264h-4.593a2.133,2.133,0,0,0,2.087,2.075,2.39,2.39,0,0,0,1.606-.6l.552.588A3.416,3.416,0,0,1,713.879,180.516Zm-2.026-3.466h3.706a1.934,1.934,0,0,0-1.835-1.836A1.954,1.954,0,0,0,711.853,177.05Z"/>
    <path class="baa30a83-d733-463c-a5ae-9260647bd3c8" d="M722.23,179.628a2.3,2.3,0,0,1-1.871.864,3.019,3.019,0,0,1,.049-6.009,2.383,2.383,0,0,1,1.822.815v-3.465l.876-.181v8.756h-.876Zm-1.655.1a2,2,0,0,0,1.655-.78v-2.9a2.165,2.165,0,1,0-1.655,3.682Z"/>
    <path class="baa30a83-d733-463c-a5ae-9260647bd3c8" d="M727.393,178.729c0-1.044.875-1.739,2.194-1.739a3.386,3.386,0,0,1,1.787.455v-.8a1.318,1.318,0,0,0-1.511-1.452,3.872,3.872,0,0,0-1.775.5l-.324-.672a5.025,5.025,0,0,1,2.207-.563c1.451,0,2.267.731,2.267,2.063v3.886h-.864v-.684a2.512,2.512,0,0,1-1.859.792A1.889,1.889,0,0,1,727.393,178.729Zm2.3,1.115a2.316,2.316,0,0,0,1.679-.672v-1.127a3.088,3.088,0,0,0-1.655-.42c-.9,0-1.487.432-1.487,1.08C728.232,179.388,728.819,179.844,729.7,179.844Z"/>
    <path class="baa30a83-d733-463c-a5ae-9260647bd3c8" d="M734.016,174.555h.876v.947a2.108,2.108,0,0,1,1.858-1.043,2.037,2.037,0,0,1,2.124,2.159v3.79H738V176.87a1.518,1.518,0,0,0-1.571-1.68,1.725,1.725,0,0,0-1.535.9v4.318h-.876Z"/>
    <path class="baa30a83-d733-463c-a5ae-9260647bd3c8" d="M744.945,179.628a2.306,2.306,0,0,1-1.871.864,3.019,3.019,0,0,1,.049-6.009,2.383,2.383,0,0,1,1.822.815v-3.465l.876-.181v8.756h-.876Zm-1.655.1a2,2,0,0,0,1.655-.78v-2.9a2.165,2.165,0,1,0-1.655,3.682Z"/>
    <path class="baa30a83-d733-463c-a5ae-9260647bd3c8" d="M675.032,191.729c0-1.043.875-1.739,2.195-1.739a3.392,3.392,0,0,1,1.786.455v-.8a1.318,1.318,0,0,0-1.511-1.452,3.875,3.875,0,0,0-1.775.5l-.324-.672a5.025,5.025,0,0,1,2.207-.563c1.452,0,2.267.731,2.267,2.063v3.886h-.864v-.683a2.513,2.513,0,0,1-1.859.791A1.889,1.889,0,0,1,675.032,191.729Zm2.3,1.116a2.318,2.318,0,0,0,1.679-.672v-1.128a3.1,3.1,0,0,0-1.655-.42c-.9,0-1.487.433-1.487,1.08C675.871,192.389,676.459,192.845,677.334,192.845Z"/>
    <path class="baa30a83-d733-463c-a5ae-9260647bd3c8" d="M680.936,187.555h.947l1.895,4.761,1.871-4.761h.935l-2.41,5.853h-.84Z"/>
    <path class="baa30a83-d733-463c-a5ae-9260647bd3c8" d="M687.355,191.729c0-1.043.876-1.739,2.195-1.739a3.4,3.4,0,0,1,1.787.455v-.8a1.319,1.319,0,0,0-1.511-1.452,3.872,3.872,0,0,0-1.775.5l-.324-.672a5.025,5.025,0,0,1,2.207-.563c1.451,0,2.267.731,2.267,2.063v3.886h-.864v-.683a2.515,2.515,0,0,1-1.859.791A1.89,1.89,0,0,1,687.355,191.729Zm2.3,1.116a2.321,2.321,0,0,0,1.679-.672v-1.128a3.1,3.1,0,0,0-1.655-.42c-.9,0-1.487.433-1.487,1.08C688.2,192.389,688.782,192.845,689.658,192.845Z"/>
    <path class="baa30a83-d733-463c-a5ae-9260647bd3c8" d="M693.787,185.48a.63.63,0,0,1,1.259,0,.63.63,0,1,1-1.259,0Zm1.067,7.928h-.875v-5.853h.875Z"/>
    <path class="baa30a83-d733-463c-a5ae-9260647bd3c8" d="M697.53,193.408h-.875v-8.575l.875-.181Z"/>
    <path class="baa30a83-d733-463c-a5ae-9260647bd3c8" d="M699.019,191.729c0-1.043.876-1.739,2.2-1.739a3.392,3.392,0,0,1,1.786.455v-.8a1.318,1.318,0,0,0-1.511-1.452,3.879,3.879,0,0,0-1.775.5l-.323-.672a5.021,5.021,0,0,1,2.207-.563c1.451,0,2.266.731,2.266,2.063v3.886H703v-.683a2.512,2.512,0,0,1-1.858.791A1.89,1.89,0,0,1,699.019,191.729Zm2.3,1.116a2.318,2.318,0,0,0,1.678-.672v-1.128a3.093,3.093,0,0,0-1.654-.42c-.9,0-1.488.433-1.488,1.08C699.858,192.389,700.446,192.845,701.322,192.845Z"/>
    <path class="baa30a83-d733-463c-a5ae-9260647bd3c8" d="M708.353,193.492a2.373,2.373,0,0,1-1.847-.851v.767h-.863v-8.575l.875-.181v3.706a2.361,2.361,0,0,1,1.883-.875,3.019,3.019,0,0,1-.048,6.009Zm-1.835-4.437v2.866a2.057,2.057,0,0,0,1.667.815,2.251,2.251,0,0,0,0-4.485A2,2,0,0,0,706.518,189.055Z"/>
    <path class="baa30a83-d733-463c-a5ae-9260647bd3c8" d="M713.514,193.408h-.876v-8.575l.876-.181Z"/>
    <path class="baa30a83-d733-463c-a5ae-9260647bd3c8" d="M717.953,193.516a2.921,2.921,0,0,1-2.9-3.035,2.849,2.849,0,0,1,2.758-3.022,2.765,2.765,0,0,1,2.687,2.95v.265H715.9a2.133,2.133,0,0,0,2.087,2.074,2.385,2.385,0,0,0,1.607-.6l.552.588A3.416,3.416,0,0,1,717.953,193.516Zm-2.027-3.466h3.706a1.932,1.932,0,0,0-1.835-1.835A1.955,1.955,0,0,0,715.926,190.05Z"/>
    <path class="baa30a83-d733-463c-a5ae-9260647bd3c8" d="M722.166,196.047l-.456-.612a6.267,6.267,0,0,0,0-9.955l.456-.6a6.906,6.906,0,0,1,0,11.167Z"/>
  </g>
  <text class="b9e49fe4-b116-4aa0-83d9-195b02c74db3" transform="translate(100.319 73.77)">Install Image Builder</text>
  <g>
    <circle class="baa30a83-d733-463c-a5ae-9260647bd3c8" cx="85" cy="80.986" r="10"/>
    <text class="a2f80273-1922-41c2-bb39-af052590df71" transform="translate(82.633 84.771)">1</text>
  </g>
  <text class="b9e49fe4-b116-4aa0-83d9-195b02c74db3" transform="translate(398.382 135.937)">Fetch<tspan x="-7.063" y="12">Kickstart</tspan><tspan x="-5.621" y="24">(KS) file</tspan></text>
  <g>
    <line class="eaee71bc-83f2-430d-b176-3c67ad8249a0" x1="222.796" y1="168.5" x2="135" y2="168.5"/>
    <polygon class="baa30a83-d733-463c-a5ae-9260647bd3c8" points="221.337 163.514 229.972 168.5 221.337 173.486 221.337 163.514"/>
  </g>
  <text class="b9e49fe4-b116-4aa0-83d9-195b02c74db3" transform="translate(101 254.119)">Create and import</text>
  <g>
    <circle class="baa30a83-d733-463c-a5ae-9260647bd3c8" cx="85" cy="260.995" r="10"/>
    <text class="a2f80273-1922-41c2-bb39-af052590df71" transform="translate(81.467 264.78)">2</text>
  </g>
  <g>
    <text class="b9e49fe4-b116-4aa0-83d9-195b02c74db3" transform="translate(165.726 128.037)">Download<tspan x="-3.262" y="12">and extract</tspan><tspan x="9.438" y="24">image</tspan></text>
    <g>
      <circle class="baa30a83-d733-463c-a5ae-9260647bd3c8" cx="189.986" cy="168.484" r="10"/>
      <text class="a2f80273-1922-41c2-bb39-af052590df71" transform="translate(186.254 172.269)">3</text>
    </g>
  </g>
  <text class="b9e49fe4-b116-4aa0-83d9-195b02c74db3" transform="translate(542.576 73.77)">Set up</text>
  <g>
    <circle class="baa30a83-d733-463c-a5ae-9260647bd3c8" cx="530.075" cy="80.986" r="10"/>
    <text class="a2f80273-1922-41c2-bb39-af052590df71" transform="translate(526.031 84.771)">4</text>
  </g>
  <text class="b9e49fe4-b116-4aa0-83d9-195b02c74db3" transform="translate(545.076 399.389)">Install image</text>
  <g>
    <circle class="baa30a83-d733-463c-a5ae-9260647bd3c8" cx="530.075" cy="395.604" r="10"/>
    <text class="a2f80273-1922-41c2-bb39-af052590df71" transform="translate(526.245 399.389)">6</text>
  </g>
  <g>
    <text class="b4903024-fedc-46c1-a470-37050b661d07" transform="translate(688.821 590.517)">125_RHEL_1020</text>
    <rect class="a0ce1996-91bb-4392-9074-26f4cca5551f" y="567.5" width="760" height="40"/>
  </g>
  <g>
    <circle class="baa30a83-d733-463c-a5ae-9260647bd3c8" cx="658.385" cy="256" r="10"/>
    <text class="a2f80273-1922-41c2-bb39-af052590df71" transform="translate(654.747 259.785)">5</text>
  </g>
</svg>
