<svg id="ee6d9664-f8c9-4a25-8b68-a2742bbeb11c" data-name="Layer 1" xmlns="http://www.w3.org/2000/svg" width="760" height="394.5" viewBox="0 0 760 394.5">
  <defs>
    <style>
      .beb2bea2-6fd1-41ae-8740-1b6591f240d5 {
        fill: #e8e8e8;
      }

      .a06b4e21-78a3-48cd-abca-5722841c5bdf, .a7312d9d-ed93-44f7-a7dc-b36b865ba9ee, .aa863662-98b6-44c7-b96b-6ee32e631a7d, .abb8ed2e-280f-446e-a3e9-4ba14efd965b, .ada03517-5240-4001-aa02-80e6e4e8701b, .afe6e2f1-7512-430b-9b37-6737a4625d42, .b60bebd1-6519-4274-a82f-6ef4a4f7b989, .ba82db84-f628-418f-8b03-01d004f00cf8, .be287f78-bae6-40da-9bc0-fcf60bfb2e8b, .bf36bc38-a124-40f5-abb8-9859b827f5d9, .ea026e76-1d3f-4c5d-92bb-612ef332fa5b, .edc432e9-50d8-4b62-8f90-245038a8582f, .f0681cd0-b972-444b-a2c3-f9ea6132cf43 {
        fill: none;
      }

      .a06b4e21-78a3-48cd-abca-5722841c5bdf, .a7312d9d-ed93-44f7-a7dc-b36b865ba9ee, .aa863662-98b6-44c7-b96b-6ee32e631a7d, .afe6e2f1-7512-430b-9b37-6737a4625d42, .b60bebd1-6519-4274-a82f-6ef4a4f7b989, .edc432e9-50d8-4b62-8f90-245038a8582f {
        stroke: #151515;
      }

      .a023de0b-9d5f-4c44-8154-0e26ccf13504, .a06b4e21-78a3-48cd-abca-5722841c5bdf, .a7312d9d-ed93-44f7-a7dc-b36b865ba9ee, .aa863662-98b6-44c7-b96b-6ee32e631a7d, .abb8ed2e-280f-446e-a3e9-4ba14efd965b, .ada03517-5240-4001-aa02-80e6e4e8701b, .afe6e2f1-7512-430b-9b37-6737a4625d42, .b60bebd1-6519-4274-a82f-6ef4a4f7b989, .ba82db84-f628-418f-8b03-01d004f00cf8, .be287f78-bae6-40da-9bc0-fcf60bfb2e8b, .edc432e9-50d8-4b62-8f90-245038a8582f, .f0681cd0-b972-444b-a2c3-f9ea6132cf43 {
        stroke-linecap: round;
        stroke-linejoin: round;
      }

      .a06b4e21-78a3-48cd-abca-5722841c5bdf {
        stroke-dasharray: 2.889 2.889;
      }

      .b60bebd1-6519-4274-a82f-6ef4a4f7b989 {
        stroke-dasharray: 3.068 3.068;
      }

      .a4b5abcb-2cc4-48b0-8eca-e6b2ecd5fc12, .e22ad12b-c9d1-4198-aab1-6c9a91a838ca, .e994cdd7-30de-4b77-b926-320593909b4b {
        fill: #151515;
      }

      .e22ad12b-c9d1-4198-aab1-6c9a91a838ca {
        font-size: 14px;
        font-family: RedHatText-Bold, Red Hat Text;
        font-weight: 700;
      }

      .a023de0b-9d5f-4c44-8154-0e26ccf13504, .a43ff84f-1448-4d98-98c1-111bc9897d49 {
        fill: #fff;
      }

      .f8071d35-542a-42c8-922d-96112f895b4b {
        fill: #06c;
      }

      .a4b5abcb-2cc4-48b0-8eca-e6b2ecd5fc12 {
        font-size: 11px;
        font-family: RedHatText-Medium, Red Hat Text;
        font-weight: 500;
      }

      .a023de0b-9d5f-4c44-8154-0e26ccf13504, .ba82db84-f628-418f-8b03-01d004f00cf8, .be287f78-bae6-40da-9bc0-fcf60bfb2e8b {
        stroke: #5b5b5b;
      }

      .a023de0b-9d5f-4c44-8154-0e26ccf13504, .ba82db84-f628-418f-8b03-01d004f00cf8 {
        stroke-width: 1.5px;
      }

      .be287f78-bae6-40da-9bc0-fcf60bfb2e8b {
        stroke-width: 2px;
      }

      .edc432e9-50d8-4b62-8f90-245038a8582f {
        stroke-dasharray: 2.891 2.891;
      }

      .f0681cd0-b972-444b-a2c3-f9ea6132cf43 {
        stroke: #06c;
      }

      .abb8ed2e-280f-446e-a3e9-4ba14efd965b, .ada03517-5240-4001-aa02-80e6e4e8701b {
        stroke: #fff;
      }

      .ada03517-5240-4001-aa02-80e6e4e8701b {
        stroke-width: 11px;
      }

      .abb8ed2e-280f-446e-a3e9-4ba14efd965b {
        stroke-width: 8px;
      }

      .bf36bc38-a124-40f5-abb8-9859b827f5d9 {
        stroke: #c4c4c4;
        stroke-miterlimit: 10;
      }

      .aa863662-98b6-44c7-b96b-6ee32e631a7d {
        stroke-dasharray: 2.916 2.916;
      }

      .afe6e2f1-7512-430b-9b37-6737a4625d42 {
        stroke-dasharray: 3.178 3.178;
      }

      .bc1076ea-1fe2-4e6d-8acd-0aa1853ab071 {
        font-size: 10px;
        fill: #f3f3f3;
        font-family: RedHatText-Regular, Red Hat Text;
      }
    </style>
  </defs>
  <rect class="beb2bea2-6fd1-41ae-8740-1b6591f240d5" y="20" width="220" height="357.5"/>
  <g>
    <line class="a7312d9d-ed93-44f7-a7dc-b36b865ba9ee" x1="297.9" y1="92.5" x2="296.4" y2="92.5"/>
    <line class="a06b4e21-78a3-48cd-abca-5722841c5bdf" x1="293.51" y1="92.5" x2="242.945" y2="92.5"/>
    <polyline class="a7312d9d-ed93-44f7-a7dc-b36b865ba9ee" points="241.5 92.5 240 92.5 240 94"/>
    <line class="b60bebd1-6519-4274-a82f-6ef4a4f7b989" x1="240" y1="97.068" x2="240" y2="224.398"/>
    <line class="a7312d9d-ed93-44f7-a7dc-b36b865ba9ee" x1="240" y1="225.932" x2="240" y2="227.432"/>
    <polygon class="e994cdd7-30de-4b77-b926-320593909b4b" points="296.441 87.514 305.076 92.5 296.441 97.486 296.441 87.514"/>
  </g>
  <text class="e22ad12b-c9d1-4198-aab1-6c9a91a838ca" transform="translate(15 46.531)">Data Grid cluster</text>
  <g>
    <g>
      <rect class="a43ff84f-1448-4d98-98c1-111bc9897d49" x="15.5" y="273" width="189" height="89"/>
      <path class="f8071d35-542a-42c8-922d-96112f895b4b" d="M204,273.5v88H16v-88H204m1-1H15v90H205v-90Z"/>
    </g>
    <g>
      <text class="a4b5abcb-2cc4-48b0-8eca-e6b2ecd5fc12" transform="translate(87.535 331.714)">Server N</text>
      <g>
        <rect class="a023de0b-9d5f-4c44-8154-0e26ccf13504" x="91.551" y="300.869" width="36.898" height="14.25"/>
        <line class="be287f78-bae6-40da-9bc0-fcf60bfb2e8b" x1="122.562" y1="307.851" x2="122.562" y2="307.851"/>
        <line class="ba82db84-f628-418f-8b03-01d004f00cf8" x1="97.187" y1="307.976" x2="105.903" y2="307.976"/>
      </g>
    </g>
  </g>
  <g>
    <g>
      <rect class="a43ff84f-1448-4d98-98c1-111bc9897d49" x="15.5" y="168" width="189" height="89"/>
      <path class="f8071d35-542a-42c8-922d-96112f895b4b" d="M204,168.5v88H16v-88H204m1-1H15v90H205v-90Z"/>
    </g>
    <g>
      <text class="a4b5abcb-2cc4-48b0-8eca-e6b2ecd5fc12" transform="translate(88.585 226.714)">Server 2</text>
      <g>
        <rect class="a023de0b-9d5f-4c44-8154-0e26ccf13504" x="91.551" y="195.869" width="36.898" height="14.25"/>
        <line class="be287f78-bae6-40da-9bc0-fcf60bfb2e8b" x1="122.562" y1="202.851" x2="122.562" y2="202.851"/>
        <line class="ba82db84-f628-418f-8b03-01d004f00cf8" x1="97.187" y1="202.976" x2="105.903" y2="202.976"/>
      </g>
    </g>
  </g>
  <g>
    <g>
      <rect class="a43ff84f-1448-4d98-98c1-111bc9897d49" x="15.5" y="63" width="189" height="89"/>
      <path class="f8071d35-542a-42c8-922d-96112f895b4b" d="M204,63.5v88H16v-88H204m1-1H15v90H205v-90Z"/>
    </g>
    <g>
      <text class="a4b5abcb-2cc4-48b0-8eca-e6b2ecd5fc12" transform="translate(89.84 121.714)">Server 1</text>
      <g>
        <rect class="a023de0b-9d5f-4c44-8154-0e26ccf13504" x="91.551" y="90.869" width="36.898" height="14.25"/>
        <line class="be287f78-bae6-40da-9bc0-fcf60bfb2e8b" x1="122.562" y1="97.851" x2="122.562" y2="97.851"/>
        <line class="ba82db84-f628-418f-8b03-01d004f00cf8" x1="97.187" y1="97.976" x2="105.903" y2="97.976"/>
      </g>
    </g>
  </g>
  <g>
    <line class="a7312d9d-ed93-44f7-a7dc-b36b865ba9ee" x1="240" y1="332.432" x2="241.5" y2="332.434"/>
    <line class="edc432e9-50d8-4b62-8f90-245038a8582f" x1="244.391" y1="332.437" x2="294.981" y2="332.489"/>
    <line class="a7312d9d-ed93-44f7-a7dc-b36b865ba9ee" x1="296.427" y1="332.491" x2="297.927" y2="332.493"/>
    <polygon class="e994cdd7-30de-4b77-b926-320593909b4b" points="296.463 337.477 305.103 332.5 296.473 327.505 296.463 337.477"/>
  </g>
  <g>
    <polyline class="f0681cd0-b972-444b-a2c3-f9ea6132cf43" points="297.9 107.5 255 107.5 255 317.432 297.927 317.49"/>
    <polygon class="f8071d35-542a-42c8-922d-96112f895b4b" points="296.441 102.514 305.076 107.5 296.441 112.486 296.441 102.514"/>
    <polygon class="f8071d35-542a-42c8-922d-96112f895b4b" points="296.461 322.475 305.103 317.5 296.475 312.502 296.461 322.475"/>
  </g>
  <g>
    <polyline class="a7312d9d-ed93-44f7-a7dc-b36b865ba9ee" points="297.927 302.486 269.897 302.432 270 122.5"/>
    <polygon class="e994cdd7-30de-4b77-b926-320593909b4b" points="296.477 297.497 305.103 302.5 296.458 307.47 296.477 297.497"/>
  </g>
  <line class="ada03517-5240-4001-aa02-80e6e4e8701b" x1="230.721" y1="212.432" x2="245.43" y2="212.432"/>
  <line class="abb8ed2e-280f-446e-a3e9-4ba14efd965b" x1="266.447" y1="212.432" x2="281.156" y2="212.432"/>
  <line class="abb8ed2e-280f-446e-a3e9-4ba14efd965b" x1="251.541" y1="227.432" x2="277.969" y2="227.432"/>
  <line class="abb8ed2e-280f-446e-a3e9-4ba14efd965b" x1="235.699" y1="122.5" x2="265.103" y2="122.5"/>
  <g>
    <line class="f0681cd0-b972-444b-a2c3-f9ea6132cf43" x1="214.752" y1="212.5" x2="255" y2="212.5"/>
    <polygon class="f8071d35-542a-42c8-922d-96112f895b4b" points="216.211 217.486 207.576 212.5 216.211 207.514 216.211 217.486"/>
  </g>
  <g>
    <line class="a7312d9d-ed93-44f7-a7dc-b36b865ba9ee" x1="214.752" y1="122.5" x2="297.927" y2="122.5"/>
    <polygon class="e994cdd7-30de-4b77-b926-320593909b4b" points="216.211 127.486 207.576 122.5 216.211 117.514 216.211 127.486"/>
    <polygon class="e994cdd7-30de-4b77-b926-320593909b4b" points="296.468 127.486 305.103 122.5 296.468 117.514 296.468 127.486"/>
  </g>
  <polyline class="bf36bc38-a124-40f5-abb8-9859b827f5d9" points="317.603 352.438 507.603 352.438 507.603 302.438"/>
  <polyline class="bf36bc38-a124-40f5-abb8-9859b827f5d9" points="312.603 347.438 502.603 347.438 502.603 297.438"/>
  <rect class="beb2bea2-6fd1-41ae-8740-1b6591f240d5" x="307.603" y="292.438" width="190" height="50"/>
  <text class="a4b5abcb-2cc4-48b0-8eca-e6b2ecd5fc12" transform="translate(370.589 320.484)">Applications</text>
  <polyline class="bf36bc38-a124-40f5-abb8-9859b827f5d9" points="317.603 247.438 507.603 247.438 507.603 197.438"/>
  <polyline class="bf36bc38-a124-40f5-abb8-9859b827f5d9" points="312.603 242.438 502.603 242.438 502.603 192.438"/>
  <rect class="beb2bea2-6fd1-41ae-8740-1b6591f240d5" x="307.603" y="187.438" width="190" height="50"/>
  <text class="a4b5abcb-2cc4-48b0-8eca-e6b2ecd5fc12" transform="translate(370.589 215.484)">Applications</text>
  <polyline class="bf36bc38-a124-40f5-abb8-9859b827f5d9" points="317.603 142.438 507.603 142.438 507.603 92.438"/>
  <polyline class="bf36bc38-a124-40f5-abb8-9859b827f5d9" points="312.603 137.438 502.603 137.438 502.603 87.438"/>
  <rect class="beb2bea2-6fd1-41ae-8740-1b6591f240d5" x="307.603" y="82.438" width="190" height="50"/>
  <text class="a4b5abcb-2cc4-48b0-8eca-e6b2ecd5fc12" transform="translate(370.589 110.484)">Applications</text>
  <g>
    <line class="f0681cd0-b972-444b-a2c3-f9ea6132cf43" x1="255" y1="212.432" x2="297.927" y2="212.49"/>
    <polygon class="f8071d35-542a-42c8-922d-96112f895b4b" points="296.461 217.475 305.103 212.5 296.475 207.502 296.461 217.475"/>
  </g>
  <g>
    <line class="a7312d9d-ed93-44f7-a7dc-b36b865ba9ee" x1="269.95" y1="197.432" x2="297.927" y2="197.486"/>
    <polygon class="e994cdd7-30de-4b77-b926-320593909b4b" points="296.458 202.47 305.103 197.5 296.477 192.497 296.458 202.47"/>
  </g>
  <g>
    <line class="a7312d9d-ed93-44f7-a7dc-b36b865ba9ee" x1="297.927" y1="227.493" x2="296.427" y2="227.491"/>
    <line class="edc432e9-50d8-4b62-8f90-245038a8582f" x1="293.536" y1="227.488" x2="242.945" y2="227.435"/>
    <polyline class="a7312d9d-ed93-44f7-a7dc-b36b865ba9ee" points="241.5 227.434 240 227.432 240 228.432 240 228.932"/>
    <line class="aa863662-98b6-44c7-b96b-6ee32e631a7d" x1="240" y1="231.848" x2="240" y2="329.541"/>
    <polyline class="a7312d9d-ed93-44f7-a7dc-b36b865ba9ee" points="240 330.999 240 332.499 238.5 332.496"/>
    <line class="afe6e2f1-7512-430b-9b37-6737a4625d42" x1="235.322" y1="332.49" x2="217.841" y2="332.454"/>
    <line class="a7312d9d-ed93-44f7-a7dc-b36b865ba9ee" x1="216.252" y1="332.45" x2="214.752" y2="332.447"/>
    <polygon class="e994cdd7-30de-4b77-b926-320593909b4b" points="296.473 222.505 305.103 227.5 296.463 232.477 296.473 222.505"/>
    <polygon class="e994cdd7-30de-4b77-b926-320593909b4b" points="216.221 327.464 207.576 332.432 216.201 337.436 216.221 327.464"/>
  </g>
  <g>
    <text class="bc1076ea-1fe2-4e6d-8acd-0aa1853ab071" transform="translate(668.851 377.517)">166_Data_Grid_0521</text>
    <rect class="ea026e76-1d3f-4c5d-92bb-612ef332fa5b" y="354.5" width="760" height="40"/>
  </g>
</svg>
