<svg id="artwork" xmlns="http://www.w3.org/2000/svg" viewBox="0 0 760 449.46"><defs><style>.cls-2,.cls-3,.cls-4,.cls-5,.cls-6{fill:none}.cls-2,.cls-3,.cls-4,.cls-5{stroke:#151515}.cls-2,.cls-3,.cls-4{stroke-linecap:round;stroke-linejoin:round}.cls-10,.cls-11{fill:#151515}.cls-11{font-family:RedHatText,&quot;Red Hat Text&quot;,Overpass,&quot;Helvetica Neue&quot;,Arial,sans-serif;font-weight:700;font-variation-settings:&apos;wght&apos; 700}.cls-12{fill:#06c}.cls-13{fill:#e6e6e6}.cls-14,.cls-15{fill:#fff}.cls-16{fill:#7f7f7f}.cls-17{fill:#a6a6a6}.cls-18{fill:#d9e8f7}.cls-3{stroke-dasharray:0 0 3.02 3.02}.cls-10,.cls-15{font-family:RedHatText,&quot;Red Hat Text&quot;,Overpass,&quot;Helvetica Neue&quot;,Arial,sans-serif;font-weight:500;font-variation-settings:&apos;wght&apos; 500}.cls-4{stroke-dasharray:0 0 3.02 3.02}.cls-10,.cls-15{font-size:12px}.cls-5,.cls-6{stroke-miterlimit:10}.cls-6{stroke:#bfbfbf}.cls-11{font-size:14px}</style></defs><path class="cls-13" d="M.35 20.46h760v389H.35z"/><text transform="translate(25.04 58.6)" style="font-variation-settings:'wght' 700" font-family="RedHatText,&quot;Red Hat Text&quot;,Overpass,&quot;Helvetica Neue&quot;,Arial,sans-serif" font-weight="700" fill="#151515" font-size="16"><tspan x="0" y="0">Amazon Web Services</tspan></text><path class="cls-14" d="M40.54 85.02h271.5v283.59H40.54z"/><text class="cls-11" transform="translate(60.54 114.92)"><tspan x="0" y="0">VPC</tspan></text><path class="cls-18" d="M86.04 150.02h206v35h-206z"/><text class="cls-10" transform="translate(153.75 171.02)"><tspan x="0" y="0">Base system</tspan></text><path class="cls-6" d="M76.04 265.02v35h206"/><path class="cls-6" d="M81.04 260.02v35h206"/><path class="cls-13" d="M86.04 255.02h206v35h-206z"/><text class="cls-10" transform="translate(144.98 276.02)"><tspan x="0" y="0">RHEL instances</tspan></text><path class="cls-5" d="M189.04 235.02v20"/><path class="cls-2" d="M327.04 382.02v1.5h-1.5"/><path class="cls-3" d="M322.52 383.52H28.55"/><path class="cls-2" d="M27.04 383.52h-1.5v-1.5"/><path class="cls-4" d="M25.54 379V133.03"/><path class="cls-2" d="M25.54 131.52v-1.5h1.5"/><path class="cls-3" d="M30.06 130.02h293.97"/><path class="cls-2" d="M325.54 130.02h1.5v1.5"/><path class="cls-4" d="M327.04 134.54v245.97"/><path class="cls-13" d="M125.54 378.14h101.5v10.75h-101.5z"/><text class="cls-10" transform="translate(130.57 387.22)"><tspan x="0" y="0">Availability zone</tspan></text><path class="cls-5" d="M129.71 334.51H60.54V210.02h25.5"/><path class="cls-17" d="M137.64 320.5h109.13v28.01H137.64c-10.58 0-10.58-28.01 0-28.01z"/><text class="cls-15" transform="translate(140.35 337.92)"><tspan x="0" y="0">Elastic IP</tspan></text><path class="cls-16" d="M211.47 320.5h116.06v28.01H211.47c-10.58 0-10.58-28.01 0-28.01z"/><text class="cls-15" transform="translate(214.02 337.92)"><tspan x="0" y="0">Internet Gateway</tspan></text><path class="cls-12" d="M86.04 185.02h206v50h-206z"/><text class="cls-15" transform="translate(143.8 213.52)"><tspan x="0" y="0">Foreman Server</tspan></text><path class="cls-14" d="M448.35 85.02h271.5v283.59h-271.5z"/><text class="cls-11" transform="translate(468.35 114.92)"><tspan x="0" y="0">VPC</tspan></text><path class="cls-18" d="M468.35 150.02h206v35h-206z"/><text class="cls-10" transform="translate(536.06 171.02)"><tspan x="0" y="0">Base system</tspan></text><path class="cls-6" d="M684.35 265.02v35h-206"/><path class="cls-6" d="M679.35 260.02v35h-206"/><path class="cls-13" d="M468.35 255.02h206v35h-206z"/><text class="cls-10" transform="translate(527.29 276.02)"><tspan x="0" y="0">RHEL instances</tspan></text><path class="cls-5" d="M571.35 235.02v20"/><g><path class="cls-2" d="M433.35 382.02v1.5h1.5"/><path class="cls-3" d="M437.86 383.52h293.98"/><path class="cls-2" d="M733.35 383.52h1.5v-1.5"/><path class="cls-4" d="M734.85 379V133.03"/><path class="cls-2" d="M734.85 131.52v-1.5h-1.5"/><path class="cls-3" d="M730.33 130.02H436.36"/><path class="cls-2" d="M434.85 130.02h-1.5v1.5"/><path class="cls-4" d="M433.35 134.54v245.97"/></g><path class="cls-13" d="M532.99 378.14H635.2v10.75H532.99z"/><text class="cls-10" transform="translate(538.38 387.22)"><tspan x="0" y="0">Availability zone</tspan></text><path class="cls-5" d="M630.45 334.51h69.4V210.02h-25.5M327.54 334.51h105.31"/><g><path class="cls-17" d="M622.75 320.5H513.62v28.01h109.13c10.58 0 10.58-28.01 0-28.01z"/><text class="cls-15" transform="translate(568.52 337.92)"><tspan x="0" y="0">Elastic IP</tspan></text><path class="cls-16" d="M548.92 320.5H432.86v28.01h116.06c10.58 0 10.58-28.01 0-28.01z"/><text class="cls-15" transform="translate(448.02 337.92)"><tspan x="0" y="0">Internet Gateway</tspan></text></g><path class="cls-12" d="M468.35 185.02h206v50h-206z"/><text class="cls-15" transform="translate(526.1 213.52)"><tspan x="0" y="0">Foreman Server</tspan></text><g><text transform="translate(359.4 361.97)" style="font-variation-settings:'wght' 500" font-family="RedHatText,&quot;Red Hat Text&quot;,Overpass,&quot;Helvetica Neue&quot;,Arial,sans-serif" font-weight="500" font-size="11" fill="#151515"><tspan x="0" y="0">Internet</tspan></text><path d="M395.41 332.12c0-7.33-5.99-13.27-13.38-13.27-5 0-9.36 2.73-11.65 6.76a9.85 9.85 0 00-1.73-.16c-5.55 0-10.05 4.46-10.05 9.97s4.5 9.97 10.05 9.97h26.76c3.69 0 6.69-2.97 6.69-6.64s-3-6.64-6.69-6.64z" stroke="#5b5b5b" stroke-width="1.5" fill="#fff" stroke-linecap="round" stroke-linejoin="round"/></g><g><text transform="translate(714.48 432.48)" style="font-variation-settings:'wght' 400" fill="#ececec" font-family="RedHatText,&quot;Red Hat Text&quot;,Overpass,&quot;Helvetica Neue&quot;,Arial,sans-serif" font-size="10"><tspan x="0" y="0">278_0922</tspan></text><path fill="none" d="M0 409.46h760v40H0z"/></g></svg>