<svg id="artwork" xmlns="http://www.w3.org/2000/svg" viewBox="0 0 760 449"><defs><style>.cls-2,.cls-3,.cls-4,.cls-5,.cls-6,.cls-7{fill:none}.cls-2,.cls-3,.cls-4,.cls-5{stroke-linecap:round;stroke-linejoin:round}.cls-2{stroke:#5b5b5b;stroke-width:1.5px}.cls-3,.cls-4,.cls-5,.cls-6{stroke:#151515}.cls-10,.cls-11,.cls-12{fill:#151515}.cls-12{font-family:RedHatText,&quot;Red Hat Text&quot;,Overpass,&quot;Helvetica Neue&quot;,Arial,sans-serif;font-weight:700;font-variation-settings:&apos;wght&apos; 700}.cls-13{fill:#06c}.cls-14{fill:#e6e6e6}.cls-15,.cls-16{fill:#fff}.cls-18{fill:#7f7f7f}.cls-4{stroke-dasharray:0 0 3.02 3.02}.cls-10{font-size:11px}.cls-10,.cls-11,.cls-16{font-family:RedHatText,&quot;Red Hat Text&quot;,Overpass,&quot;Helvetica Neue&quot;,Arial,sans-serif;font-weight:500;font-variation-settings:&apos;wght&apos; 500}.cls-5{stroke-dasharray:0 0 3.02 3.02}.cls-11,.cls-16{font-size:12px}.cls-6,.cls-7{stroke-miterlimit:10}.cls-7{stroke:#bfbfbf}.cls-12{font-size:14px}</style></defs><path class="cls-14" d="M0 20h351.5v389H0z"/><text transform="translate(24.69 58.14)" style="font-variation-settings:'wght' 700" font-family="RedHatText,&quot;Red Hat Text&quot;,Overpass,&quot;Helvetica Neue&quot;,Arial,sans-serif" font-weight="700" fill="#151515" font-size="16"><tspan x="0" y="0">Amazon Web Services</tspan></text><path class="cls-15" d="M40.19 84.55h271.5v283.59H40.19z"/><text class="cls-12" transform="translate(60.19 114.45)"><tspan x="0" y="0">VPC</tspan></text><path fill="#d9e8f7" d="M85.69 149.55h206v35h-206z"/><text class="cls-11" transform="translate(153.41 170.56)"><tspan x="0" y="0">Base system</tspan></text><path class="cls-7" d="M75.69 264.55v35h206"/><path class="cls-7" d="M80.69 259.55v35h206"/><path class="cls-14" d="M85.69 254.55h206v35h-206z"/><text class="cls-11" transform="translate(144.63 275.56)"><tspan x="0" y="0">RHEL instances</tspan></text><path class="cls-6" d="M188.69 234.55v20"/><path class="cls-3" d="M326.69 381.55v1.5h-1.5"/><path class="cls-4" d="M322.18 383.05H28.2"/><path class="cls-3" d="M26.69 383.05h-1.5v-1.5"/><path class="cls-5" d="M25.19 378.54V132.56"/><path class="cls-3" d="M25.19 131.05v-1.5h1.5"/><path class="cls-4" d="M29.71 129.55h293.97"/><path class="cls-3" d="M325.19 129.55h1.5v1.5"/><path class="cls-5" d="M326.69 134.07v245.97"/><path class="cls-14" d="M125.19 377.68h101.5v10.75h-101.5z"/><text class="cls-11" transform="translate(130.22 386.76)"><tspan x="0" y="0">Availability zone</tspan></text><path class="cls-6" d="M223.19 334.05h-163v-124.5h25.5"/><path class="cls-18" d="M231.12 320.04h96.06v28.01h-96.06c-10.58 0-10.58-28.01 0-28.01z"/><text class="cls-16" transform="translate(233.67 337.45)"><tspan x="0" y="0">VPN Gateway</tspan></text><path class="cls-18" d="M235.43 39.58h116.06v28.01H235.43c-10.58 0-10.58-28.01 0-28.01z"/><text class="cls-16" transform="translate(237.98 56.99)"><tspan x="0" y="0">Internet Gateway</tspan></text><path class="cls-13" d="M85.69 184.55h206v50h-206z"/><text class="cls-16" transform="translate(133.67 213.06)"><tspan x="0" y="0">Smart Proxy Server</tspan></text><path class="cls-6" d="M327.19 334.05H488.5"/><path class="cls-15" d="M490 86.05h268.5v280.59H490z"/><path d="M757 87.55v277.59H491.5V87.55H757m3-3H488.5v283.59H760V84.55z" fill="#e5e5e5"/><text class="cls-12" transform="translate(508.5 114.45)"><tspan x="0" y="0">On-premise datacenter</tspan></text><path class="cls-6" d="M562.5 334.05H740v-124.5h-25.5"/><g><path class="cls-18" d="M554.57 320.04h-66.06v28.01h66.06c10.58 0 10.58-28.01 0-28.01z"/><text class="cls-16" transform="translate(502.08 337.45)"><tspan x="0" y="0">Gateway</tspan></text></g><path class="cls-13" d="M508.5 184.55h206v50h-206z"/><text class="cls-16" transform="translate(566.25 213.06)"><tspan x="0" y="0">Foreman Server</tspan></text><path class="cls-6" d="M351.5 53.58h46.75"/><g><text class="cls-10" transform="translate(399.05 81.04)"><tspan x="0" y="0">Internet</tspan></text><path d="M435.06 51.19c0-7.33-5.99-13.27-13.38-13.27-5 0-9.36 2.73-11.65 6.76a9.85 9.85 0 00-1.73-.16c-5.55 0-10.05 4.46-10.05 9.97s4.5 9.97 10.05 9.97h26.76c3.69 0 6.69-2.97 6.69-6.64s-3-6.64-6.69-6.64z" fill="#fff" stroke="#5b5b5b" stroke-width="1.5" stroke-linecap="round" stroke-linejoin="round"/></g><g><text class="cls-10" transform="translate(408.25 367.54)"><tspan x="0" y="0">VPN</tspan><tspan x="-16.98" y="12">connection</tspan></text><path class="cls-15" d="M434.73 318.73l-14.56-3.1a.97.97 0 00-.34 0l-14.56 3.1c-.38.08-.66.42-.66.81v16.76c0 8.49 6.9 15.39 15.39 15.39s15.39-6.9 15.39-15.39v-16.76c0-.39-.27-.73-.66-.81z"/><path class="cls-2" d="M415.28 333.8l2.84 2.81 6.54-6.5"/><path class="cls-2" d="M420 350.91c-8.06 0-14.61-6.55-14.61-14.61v-16.8l14.61-3.1 14.61 3.1v16.8c0 8.06-6.55 14.61-14.61 14.61z"/></g><g><text transform="translate(714.48 432.02)" style="font-variation-settings:'wght' 400" fill="#ececec" font-family="RedHatText,&quot;Red Hat Text&quot;,Overpass,&quot;Helvetica Neue&quot;,Arial,sans-serif" font-size="10"><tspan x="0" y="0">278_0922</tspan></text><path fill="none" d="M0 409h760v40H0z"/></g></svg>