<svg id="artwork" xmlns="http://www.w3.org/2000/svg" viewBox="0 0 760 504.46"><defs><style>.cls-2,.cls-3,.cls-4,.cls-5,.cls-6,.cls-7{fill:none}.cls-2{stroke:#5b5b5b;stroke-width:1.5px}.cls-2,.cls-3,.cls-4,.cls-7{stroke-linecap:round;stroke-linejoin:round}.cls-3,.cls-4,.cls-5,.cls-7{stroke:#151515}.cls-10,.cls-11{fill:#151515}.cls-11{font-family:RedHatText,&quot;Red Hat Text&quot;,Overpass,&quot;Helvetica Neue&quot;,Arial,sans-serif;font-weight:700;font-variation-settings:&apos;wght&apos; 700}.cls-12{fill:#06c}.cls-13{fill:#e6e6e6}.cls-14,.cls-15{fill:#fff}.cls-16{fill:#7f7f7f}.cls-17{fill:#a6a6a6}.cls-18{fill:#d9e8f7}.cls-4{stroke-dasharray:0 0 3.02 3.02}.cls-10,.cls-15{font-family:RedHatText,&quot;Red Hat Text&quot;,Overpass,&quot;Helvetica Neue&quot;,Arial,sans-serif;font-weight:500;font-variation-settings:&apos;wght&apos; 500;font-size:12px}.cls-5,.cls-6{stroke-miterlimit:10}.cls-6{stroke:#bfbfbf}.cls-7{stroke-dasharray:0 0 3.02 3.02}.cls-11{font-size:14px}</style></defs><path class="cls-13" d="M0 20.46h760v444H0z"/><text transform="translate(24.69 58.6)" style="font-variation-settings:'wght' 700" font-family="RedHatText,&quot;Red Hat Text&quot;,Overpass,&quot;Helvetica Neue&quot;,Arial,sans-serif" font-weight="700" fill="#151515" font-size="16"><tspan x="0" y="0">Amazon Web Services</tspan></text><path class="cls-14" d="M40.19 85.02h271.5v338.59H40.19z"/><text class="cls-11" transform="translate(60.19 114.92)"><tspan x="0" y="0">VPC</tspan></text><path class="cls-18" d="M70.69 150.02h221v35h-221z"/><text class="cls-10" transform="translate(145.91 171.02)"><tspan x="0" y="0">Base system</tspan></text><path class="cls-6" d="M60.69 265.02v35h221"/><path class="cls-6" d="M65.69 260.02v35h221"/><path class="cls-13" d="M70.69 255.02h221v35h-221z"/><text class="cls-10" transform="translate(137.13 276.02)"><tspan x="0" y="0">RHEL instances</tspan></text><path class="cls-5" d="M181.19 235.02v20"/><path class="cls-3" d="M326.69 437.02v1.5h-1.5"/><path class="cls-4" d="M322.18 438.52H28.2"/><path class="cls-3" d="M26.69 438.52h-1.5v-1.5"/><path class="cls-7" d="M25.19 433.99V133.03"/><path class="cls-3" d="M25.19 131.52v-1.5h1.5"/><path class="cls-4" d="M29.71 130.02h293.97"/><path class="cls-3" d="M325.19 130.02h1.5v1.5"/><path class="cls-7" d="M326.69 134.54v300.97"/><path class="cls-13" d="M125.19 433.14h101.5v10.75h-101.5z"/><text class="cls-10" transform="translate(130.22 442.22)"><tspan x="0" y="0">Availability zone</tspan></text><path class="cls-5" d="M129.36 389.51H61.19v-51.99h9.5"/><path class="cls-17" d="M137.29 375.5h109.13v28.01H137.29c-10.58 0-10.58-28.01 0-28.01z"/><text class="cls-15" transform="translate(140 392.92)"><tspan x="0" y="0">Elastic IP</tspan></text><path class="cls-16" d="M211.12 375.5h116.06v28.01H211.12c-10.58 0-10.58-28.01 0-28.01z"/><text class="cls-15" transform="translate(213.67 392.92)"><tspan x="0" y="0">Internet Gateway</tspan></text><path class="cls-12" d="M70.69 185.02h221v50h-221z"/><text class="cls-15" transform="translate(135.95 213.52)"><tspan x="0" y="0">Foreman Server</tspan></text><path class="cls-14" d="M448 85.02h271.5v338.59H448z"/><text class="cls-11" transform="translate(468 114.92)"><tspan x="0" y="0">VPC</tspan></text><path class="cls-18" d="M468 150.02h221v35H468z"/><text class="cls-10" transform="translate(543.22 171.02)"><tspan x="0" y="0">Base system</tspan></text><path class="cls-6" d="M699 265.02v35H478"/><path class="cls-6" d="M694 260.02v35H473"/><path class="cls-13" d="M468 255.02h221v35H468z"/><text class="cls-10" transform="translate(534.44 276.02)"><tspan x="0" y="0">RHEL instances</tspan></text><path class="cls-14" d="M71.19 320.52h220v34h-220z"/><path class="cls-12" d="M290.69 321.02v33h-219v-33h219m1-1h-221v35h221v-35z"/><text class="cls-10" transform="translate(125.83 341.02)"><tspan x="0" y="0">RHEL VPN instance</tspan></text><path class="cls-14" d="M468.5 320.52h220v34h-220z"/><path class="cls-12" d="M688 321.02v33H469v-33h219m1-1H468v35h221v-35z"/><text class="cls-10" transform="translate(523.14 341.02)"><tspan x="0" y="0">RHEL VPN instance</tspan></text><path class="cls-5" d="M578.5 235.02v20"/><g><path class="cls-3" d="M433 437.02v1.5h1.5"/><path class="cls-4" d="M437.52 438.52h293.97"/><path class="cls-3" d="M733 438.52h1.5v-1.5"/><path class="cls-7" d="M734.5 433.99V133.03"/><path class="cls-3" d="M734.5 131.52v-1.5H733"/><path class="cls-4" d="M729.98 130.02H436.01"/><path class="cls-3" d="M434.5 130.02H433v1.5"/><path class="cls-7" d="M433 134.54v300.97"/></g><path class="cls-13" d="M532.64 433.14h102.21v10.75H532.64z"/><text class="cls-10" transform="translate(538.03 442.22)"><tspan x="0" y="0">Availability zone</tspan></text><path class="cls-5" d="M630.1 389.51H699v-51.99h-10M327.19 389.51H432.5"/><g><path class="cls-17" d="M622.4 375.5H513.27v28.01H622.4c10.58 0 10.58-28.01 0-28.01z"/><text class="cls-15" transform="translate(568.17 392.92)"><tspan x="0" y="0">Elastic IP</tspan></text><path class="cls-16" d="M548.57 375.5H432.51v28.01h116.06c10.58 0 10.58-28.01 0-28.01z"/><text class="cls-15" transform="translate(447.67 392.92)"><tspan x="0" y="0">Internet Gateway</tspan></text></g><path class="cls-12" d="M468 185.02h221v50H468z"/><text class="cls-15" transform="translate(523.48 213.52)"><tspan x="0" y="0">Smart Proxy Server</tspan></text><g><text transform="translate(368.25 423.05)" style="font-variation-settings:'wght' 500" font-family="RedHatText,&quot;Red Hat Text&quot;,Overpass,&quot;Helvetica Neue&quot;,Arial,sans-serif" font-weight="500" font-size="11" fill="#151515"><tspan x="0" y="0">VPN</tspan><tspan x="-16.98" y="12">connection</tspan></text><path class="cls-14" d="M394.73 374.25l-14.56-3.1a.97.97 0 00-.34 0l-14.56 3.1c-.38.08-.66.42-.66.81v16.76c0 8.49 6.9 15.39 15.39 15.39s15.39-6.9 15.39-15.39v-16.76c0-.39-.27-.73-.66-.81z"/><path class="cls-2" d="M375.28 389.31l2.84 2.81 6.54-6.5"/><path class="cls-2" d="M380 406.43c-8.06 0-14.61-6.55-14.61-14.61v-16.8l14.61-3.1 14.61 3.1v16.8c0 8.06-6.55 14.61-14.61 14.61z"/></g><g><text transform="translate(714.48 487.48)" style="font-variation-settings:'wght' 400" fill="#ececec" font-family="RedHatText,&quot;Red Hat Text&quot;,Overpass,&quot;Helvetica Neue&quot;,Arial,sans-serif" font-size="10"><tspan x="0" y="0">278_0922</tspan></text><path fill="none" d="M0 464.46h760v40H0z"/></g></svg>