<svg id="artwork" xmlns="http://www.w3.org/2000/svg" viewBox="0 0 760 400.5"><defs><style>.cls-2,.cls-3,.cls-4,.cls-5,.cls-6{fill:none}.cls-2,.cls-3,.cls-4,.cls-5{stroke:#151515}.cls-2,.cls-3,.cls-4{stroke-linecap:round;stroke-linejoin:round}.cls-10{fill:#151515}.cls-13{fill:#e6e6e6}.cls-15{fill:#fff}.cls-3{stroke-dasharray:0 0 3.02 3.02}.cls-4{stroke-dasharray:0 0 3.01 3.01}.cls-10,.cls-15{font-family:RedHatText,&quot;Red Hat Text&quot;,Overpass,&quot;Helvetica Neue&quot;,Arial,sans-serif;font-weight:500;font-variation-settings:&apos;wght&apos; 500;font-size:12px}.cls-5,.cls-6{stroke-miterlimit:10}.cls-6{stroke:#bfbfbf}</style></defs><path class="cls-13" d="M0 20h351.5v340.5H0z"/><text transform="translate(24.69 58.14)" style="font-variation-settings:'wght' 700" font-family="RedHatText,&quot;Red Hat Text&quot;,Overpass,&quot;Helvetica Neue&quot;,Arial,sans-serif" font-weight="700" fill="#151515" font-size="16"><tspan x="0" y="0">Amazon Web Services</tspan></text><path fill="#fff" d="M40.19 84.55h271.5v235.09H40.19z"/><text transform="translate(60.19 114.45)" style="font-variation-settings:'wght' 700" font-size="14" font-family="RedHatText,&quot;Red Hat Text&quot;,Overpass,&quot;Helvetica Neue&quot;,Arial,sans-serif" font-weight="700" fill="#151515"><tspan x="0" y="0">VPC</tspan></text><path fill="#d9e8f7" d="M70.19 149.55h221.5v35H70.19z"/><text class="cls-10" transform="translate(145.66 170.56)"><tspan x="0" y="0">Base system</tspan></text><path class="cls-6" d="M60.19 264.55v35h221.5"/><path class="cls-6" d="M65.19 259.55v35h221.5"/><path class="cls-13" d="M70.19 254.55h221.5v35H70.19z"/><text class="cls-10" transform="translate(136.88 275.56)"><tspan x="0" y="0">RHEL instances</tspan></text><path class="cls-5" d="M180.94 234.55v20"/><path class="cls-2" d="M326.69 333.05v1.5h-1.5"/><path class="cls-3" d="M322.18 334.55H28.2"/><path class="cls-2" d="M26.69 334.55h-1.5v-1.5"/><path class="cls-4" d="M25.19 330.04V132.56"/><path class="cls-2" d="M25.19 131.05v-1.5h1.5"/><path class="cls-3" d="M29.71 129.55h293.97"/><path class="cls-2" d="M325.19 129.55h1.5v1.5"/><path class="cls-4" d="M326.69 134.07v197.48"/><path class="cls-13" d="M125.19 329.18h101.5v10.75h-101.5z"/><text class="cls-10" transform="translate(130.22 338.26)"><tspan x="0" y="0">Availability zone</tspan></text><g><path d="M235.43 39.58h116.06v28.01H235.43c-10.58 0-10.58-28.01 0-28.01z" fill="#7f7f7f"/><text class="cls-15" transform="translate(237.98 56.99)"><tspan x="0" y="0">Internet Gateway</tspan></text></g><path fill="#06c" d="M70.19 184.55h221.5v50H70.19z"/><text class="cls-15" transform="translate(135.7 213.06)"><tspan x="0" y="0">Foreman Server</tspan></text><path class="cls-5" d="M351.5 53.58h46.75"/><g><text transform="translate(399.05 81.04)" style="font-variation-settings:'wght' 500" font-family="RedHatText,&quot;Red Hat Text&quot;,Overpass,&quot;Helvetica Neue&quot;,Arial,sans-serif" font-weight="500" font-size="11" fill="#151515"><tspan x="0" y="0">Internet</tspan></text><path d="M435.06 51.19c0-7.33-5.99-13.27-13.38-13.27-5 0-9.36 2.73-11.65 6.76a9.85 9.85 0 00-1.73-.16c-5.55 0-10.05 4.46-10.05 9.97s4.5 9.97 10.05 9.97h26.76c3.69 0 6.69-2.97 6.69-6.64s-3-6.64-6.69-6.64z" stroke="#5b5b5b" stroke-width="1.5" fill="#fff" stroke-linecap="round" stroke-linejoin="round"/></g><g><text transform="translate(714.48 383.52)" style="font-variation-settings:'wght' 400" fill="#ececec" font-family="RedHatText,&quot;Red Hat Text&quot;,Overpass,&quot;Helvetica Neue&quot;,Arial,sans-serif" font-size="10"><tspan x="0" y="0">278_0922</tspan></text><path fill="none" d="M0 360.5h760v40H0z"/></g></svg>