<svg id="artwork" xmlns="http://www.w3.org/2000/svg" viewBox="0 0 760 392.51"><defs><style>.cls-2{fill:none;stroke:#151515;stroke-linecap:round;stroke-linejoin:round}.cls-3,.cls-4,.cls-5{font-size:12px}.cls-3,.cls-4,.cls-5,.cls-6{fill:#151515}.cls-3,.cls-6{font-family:RedHatText,&quot;Red Hat Text&quot;,Overpass,&quot;Helvetica Neue&quot;,Arial,sans-serif;font-weight:700;font-variation-settings:&apos;wght&apos; 700}.cls-7{fill:#e8e8e8}.cls-4,.cls-5{font-family:RedHatText,&quot;Red Hat Text&quot;,Overpass,&quot;Helvetica Neue&quot;,Arial,sans-serif;font-variation-settings:&apos;wght&apos; 400}.cls-5{font-weight:500;font-variation-settings:&apos;wght&apos; 500}.cls-6{font-size:14px}</style></defs><text class="cls-6" transform="translate(0 31.9)"><tspan x="0" y="0">Flat</tspan></text><path class="cls-2" d="M1.5 43.29v101.23H15M1.5 104.52H15M1.5 64.52H15"/><path class="cls-7" d="M15 47.02h135v35H15z"/><text class="cls-5" transform="translate(25 69.02)"><tspan x="0" y="0">dev-infra-git-rhel7</tspan></text><path class="cls-7" d="M15 87.02h135v35H15z"/><text class="cls-5" transform="translate(25 109.02)"><tspan x="0" y="0">qa-infra-git-rhel7</tspan></text><g><path class="cls-7" d="M15 127.02h135v35H15z"/><text class="cls-5" transform="translate(25 149.02)"><tspan x="0" y="0">prod-infra-git-rhel7</tspan></text></g><g><text class="cls-6" transform="translate(183.33 31.9)"><tspan x="0" y="0">LC Environment Based</tspan></text><path class="cls-2" d="M184.83 43.29v291.23h13.5M209.83 114.52h13.5M184.83 64.52h13.5M209.83 82.02v162.5h13.5M234.83 154.52h13.5M234.83 132.02v62.5h13.5"/><path class="cls-7" d="M198.33 47.02h155v35h-155z"/><text class="cls-3" transform="translate(208.33 69.02)"><tspan x="0" y="0">DEV</tspan></text><path class="cls-7" d="M198.33 317.02h155v35h-155z"/><text class="cls-3" transform="translate(208.33 339.02)"><tspan x="0" y="0">QA</tspan></text><path class="cls-7" d="M223.33 97.02h130v35h-130z"/><text class="cls-5" transform="translate(233.33 119.02)"><tspan x="0" y="0">RHEL 7</tspan></text><path class="cls-7" d="M248.33 137.02h105v35h-105z"/><text class="cls-4" transform="translate(258.33 159.02)"><tspan x="0" y="0">git</tspan></text><g><path class="cls-7" d="M248.33 177.02h105v35h-105z"/><text class="cls-4" transform="translate(258.33 199.02)"><tspan x="0" y="0">container</tspan></text></g><path class="cls-2" d="M234.83 262.02v22.5h13.5"/><g><path class="cls-7" d="M223.33 227.02h130v35h-130z"/><text class="cls-5" transform="translate(233.33 249.02)"><tspan x="0" y="0">RHEL 6</tspan></text></g><g><path class="cls-7" d="M248.33 267.02h105v35h-105z"/><text class="cls-4" transform="translate(258.33 289.02)"><tspan x="0" y="0">loghost</tspan></text></g></g><g><text class="cls-6" transform="translate(386.67 31.9)"><tspan x="0" y="0">Application Based</tspan></text><path class="cls-2" d="M388.17 43.29v291.23h13.5M413.17 114.52h13.5M388.17 64.52h13.5M413.17 82.02v162.5h13.5M438.17 154.52h13.5M438.17 132.02v62.5h13.5"/><path class="cls-7" d="M401.67 47.02h155v35h-155z"/><text class="cls-3" transform="translate(411.67 69.02)"><tspan x="0" y="0">acmeweb</tspan></text><path class="cls-7" d="M401.67 317.02h155v35h-155z"/><text class="cls-3" transform="translate(411.67 339.02)"><tspan x="0" y="0">infra</tspan></text><path class="cls-7" d="M426.67 97.02h130v35h-130z"/><text class="cls-5" transform="translate(436.67 119.02)"><tspan x="0" y="0">frontend</tspan></text><path class="cls-7" d="M451.67 137.02h105v35h-105z"/><text class="cls-4" transform="translate(461.67 159.02)"><tspan x="0" y="0">web-dev</tspan></text><g><path class="cls-7" d="M451.67 177.02h105v35h-105z"/><text class="cls-4" transform="translate(461.67 199.02)"><tspan x="0" y="0">web-qa</tspan></text></g><path class="cls-2" d="M438.17 262.02v22.5h13.5"/><g><path class="cls-7" d="M426.67 227.02h130v35h-130z"/><text class="cls-5" transform="translate(436.67 249.02)"><tspan x="0" y="0">backend</tspan></text></g><g><path class="cls-7" d="M451.67 267.02h105v35h-105z"/><text class="cls-4" transform="translate(461.67 289.02)"><tspan x="0" y="0">web-dev</tspan></text></g></g><g><text class="cls-6" transform="translate(590 31.9)"><tspan x="0" y="0">Location Base</tspan></text><path class="cls-2" d="M591.5 43.29v291.23H605M616.5 114.52H630M591.5 64.52H605M616.5 82.02v162.5H630M641.5 154.52H655M641.5 132.02v62.5H655"/><path class="cls-7" d="M605 47.02h155v35H605z"/><text class="cls-3" transform="translate(615 69.02)"><tspan x="0" y="0">Munich</tspan></text><path class="cls-7" d="M605 317.02h155v35H605z"/><text class="cls-3" transform="translate(615 339.02)"><tspan x="0" y="0">Boston</tspan></text><path class="cls-7" d="M630 97.02h130v35H630z"/><text class="cls-5" transform="translate(640 119.02)"><tspan x="0" y="0">web-dev</tspan></text><path class="cls-7" d="M655 137.02h105v35H655z"/><text class="cls-4" transform="translate(665 159.02)"><tspan x="0" y="0">web-frontend</tspan></text><g><path class="cls-7" d="M655 177.02h105v35H655z"/><text class="cls-4" transform="translate(665 199.02)"><tspan x="0" y="0">web-backend</tspan></text></g><path class="cls-2" d="M641.5 262.02v22.5H655"/><g><path class="cls-7" d="M630 227.02h130v35H630z"/><text class="cls-5" transform="translate(640 249.02)"><tspan x="0" y="0">web-qa</tspan></text></g><g><path class="cls-7" d="M655 267.02h105v35H655z"/><text class="cls-4" transform="translate(665 289.02)"><tspan x="0" y="0">web-frontend</tspan></text></g></g><g><text transform="translate(714.48 375.06)" style="font-variation-settings:'wght' 400" fill="#ececec" font-size="10" font-family="RedHatText,&quot;Red Hat Text&quot;,Overpass,&quot;Helvetica Neue&quot;,Arial,sans-serif"><tspan x="0" y="0">278_0922</tspan></text><path fill="none" d="M0 352.04h760v40H0z"/></g></svg>