<svg id="artwork" xmlns="http://www.w3.org/2000/svg" viewBox="0 0 760 718.5"><defs><style>.cls-2,.cls-3,.cls-5,.cls-7{fill:none}.cls-10,.cls-2,.cls-3,.cls-5,.cls-7{stroke-linecap:round;stroke-linejoin:round}.cls-10,.cls-2{stroke:#5b5b5b;stroke-width:1.5px}.cls-3,.cls-7{stroke:#151515}.cls-5{stroke:#06c}.cls-12,.cls-13,.cls-14,.cls-15,.cls-16{font-family:RedHatText,&quot;Red Hat Text&quot;,Overpass,&quot;Helvetica Neue&quot;,Arial,sans-serif;font-weight:700;font-variation-settings:&apos;wght&apos; 700}.cls-12,.cls-14,.cls-15,.cls-17,.cls-18{fill:#151515}.cls-12{font-size:9px}.cls-13,.cls-14{font-size:12px}.cls-10,.cls-13,.cls-16,.cls-20{fill:#fff}.cls-21{fill:#06c}.cls-22,.cls-23{fill:#e8e8e8}.cls-5{stroke-width:2px}.cls-18{font-size:11px;font-family:RedHatText,&quot;Red Hat Text&quot;,Overpass,&quot;Helvetica Neue&quot;,Arial,sans-serif;font-weight:500;font-variation-settings:&apos;wght&apos; 500}.cls-23{stroke:#adadad;stroke-miterlimit:10}.cls-7{stroke-dasharray:0 0 3.06 3.06}.cls-15,.cls-16{font-size:14px}</style></defs><path class="cls-22" d="M682.77 638.5v-158h-125v158l62.5 20 62.5-20zM100.27 77.5h635v313h-635z"/><path class="cls-21" d="M758.27 22v391.5h-681V22h681m2-2h-685v395.5h685V20z"/><path class="cls-23" d="M120.27 191.06h94.5v139.5h-94.5z"/><text class="cls-12" transform="translate(147.94 204.55)"><tspan x="0" y="0">Version 1</tspan></text><path class="cls-23" d="M130.27 211.06h94.5v139.5h-94.5z"/><text class="cls-12" transform="translate(156.9 224.55)"><tspan x="0" y="0">Version 2</tspan></text><path class="cls-20" d="M140.27 231.06h94.5v139.5h-94.5z"/><text class="cls-14" transform="translate(159.05 257.11)"><tspan x="0" y="0">Version N</tspan></text><text class="cls-18" transform="translate(166.15 330.46)"><tspan x="0" y="0">Content</tspan><tspan x="5.83" y="12">View 1</tspan></text><path class="cls-10" d="M201.67 313.91h-28.3V282.9l5.76-5.77h22.54v36.78z"/><path class="cls-2" d="M179.13 282.9h-5.76l5.76-5.77v5.77zM179.01 289.86h8.51M179.01 295.5h17.02M179.01 301.13h17.02M179.01 306.77h17.02"/><text transform="translate(100.27 57.29)" style="font-variation-settings:'wght' 700" fill="#151515" font-family="RedHatText,&quot;Red Hat Text&quot;,Overpass,&quot;Helvetica Neue&quot;,Arial,sans-serif" font-weight="700" font-size="16"><tspan x="0" y="0">Foreman</tspan></text><text class="cls-15" transform="translate(120.27 108.4)"><tspan x="0" y="0">Organization 1</tspan></text><path class="cls-20" d="M518.77 231.06h94.5v139.5h-94.5z"/><text class="cls-14" transform="translate(538.51 257.11)"><tspan x="0" y="0">Version 2</tspan></text><path class="cls-20" d="M416.77 231.06h94.5v139.5h-94.5z"/><text class="cls-14" transform="translate(435.55 257.11)"><tspan x="0" y="0">Version N</tspan></text><path class="cls-20" d="M620.77 231.06h94.5v139.5h-94.5z"/><text class="cls-14" transform="translate(641.88 257.11)"><tspan x="0" y="0">Version 1</tspan></text><text class="cls-18" transform="translate(435.85 330.44)"><tspan x="0" y="0">Composite</tspan><tspan x="6.8" y="12">Content</tspan><tspan x="11.38" y="24">View 2</tspan></text><path class="cls-10" d="M475.16 309.08H448.5v-29.16l5.43-5.42h21.23v34.58z"/><path class="cls-10" d="M453.93 279.92h-5.43l5.43-5.42v5.42z"/><path class="cls-2" d="M454.69 287.48h7.14M454.69 292.15h14.28M454.69 296.7h14.28M454.69 301.37h14.28M479.54 279.32v34.57h-26.66"/><text class="cls-18" transform="translate(537.85 330.44)"><tspan x="0" y="0">Composite</tspan><tspan x="6.8" y="12">Content</tspan><tspan x="11.38" y="24">View 2</tspan></text><path class="cls-10" d="M577.16 309.08H550.5v-29.16l5.43-5.42h21.23v34.58z"/><path class="cls-10" d="M555.93 279.92h-5.43l5.43-5.42v5.42z"/><path class="cls-2" d="M556.69 287.48h7.14M556.69 292.15h14.28M556.69 296.7h14.28M556.69 301.37h14.28M581.54 279.32v34.57h-26.66"/><text class="cls-18" transform="translate(639.85 330.44)"><tspan x="0" y="0">Composite</tspan><tspan x="6.8" y="12">Content</tspan><tspan x="11.38" y="24">View 2</tspan></text><path class="cls-10" d="M679.16 309.08H652.5v-29.16l5.43-5.42h21.23v34.58z"/><path class="cls-10" d="M657.93 279.92h-5.43l5.43-5.42v5.42z"/><path class="cls-2" d="M658.69 287.48h7.14M658.69 292.15h14.28M658.69 296.7h14.28M658.69 301.37h14.28M683.54 279.32v34.57h-26.66"/><path stroke="#fff" stroke-width="8" stroke-linecap="round" stroke-linejoin="round" fill="none" d="M67.63 153.56h17.9"/><path class="cls-3" d="M37.64 153.56h183.95"/><path class="cls-17" d="M220.13 158.55l8.64-4.99-8.64-4.98v9.97z"/><path stroke="#06c" stroke-linecap="round" stroke-linejoin="round" fill="none" d="M265.45 153.56h378.29"/><text class="cls-18" transform="translate(.27 183.12)"><tspan x="0" y="0">Operator</tspan></text><path class="cls-10" d="M42.61 166.55c0-10.06-8.26-18.22-18.45-18.22s-18.45 8.16-18.45 18.22h36.9z"/><ellipse class="cls-10" cx="24.16" cy="139.2" rx="9.26" ry="9.15"/><path class="cls-3" d="M268.09 252.89h-1.5"/><path stroke-dasharray="0 0 2.95 2.95" stroke="#151515" stroke-linecap="round" stroke-linejoin="round" fill="none" d="M263.64 252.89h-16.22"/><path class="cls-3" d="M245.95 252.89h-1.5"/><path class="cls-17" d="M266.63 247.9l8.64 4.99-8.64 4.99v-9.98zM245.91 247.9l-8.64 4.99 8.64 4.99v-9.98z"/><path class="cls-3" d="M668.02 221.39v-1.5"/><path class="cls-7" d="M668.02 216.82v-35.23"/><path class="cls-3" d="M668.02 180.06v-1.5"/><path class="cls-17" d="M673.01 219.93l-4.99 8.63-4.99-8.63h9.98z"/><g><path class="cls-3" d="M566.02 221.39v-1.5"/><path class="cls-7" d="M566.02 216.82v-35.23"/><path class="cls-3" d="M566.02 180.06v-1.5"/><path class="cls-17" d="M571.01 219.93l-4.99 8.63-4.99-8.63h9.98z"/></g><g><path class="cls-3" d="M464.02 221.39v-1.5"/><path class="cls-7" d="M464.02 216.82v-35.23"/><path class="cls-3" d="M464.02 180.06v-1.5"/><path class="cls-17" d="M469.01 219.93l-4.99 8.63-4.99-8.63h9.98z"/></g><g><path class="cls-3" d="M256.27 252.89v-1.5"/><path stroke-dasharray="0 0 3.1 3.1" stroke="#151515" stroke-linecap="round" stroke-linejoin="round" fill="none" d="M256.27 248.29v-66.68"/><path class="cls-3" d="M256.27 180.06v-1.5"/></g><g><circle class="cls-21" cx="256.27" cy="153.56" r="25"/><text class="cls-16" transform="translate(245.21 157.65)"><tspan x="0" y="0">Lib</tspan></text></g><g><circle class="cls-21" cx="464.02" cy="153.56" r="25"/><text class="cls-16" transform="translate(450.41 157.65)"><tspan x="0" y="0">Dev</tspan></text></g><g><circle class="cls-21" cx="566.02" cy="153.56" r="25"/><text class="cls-16" transform="translate(555.65 157.65)"><tspan x="0" y="0">QE</tspan></text></g><g><circle class="cls-21" cx="668.02" cy="153.56" r="25"/><text class="cls-16" transform="translate(651.13 157.65)"><tspan x="0" y="0">Prod</tspan></text></g><path class="cls-23" d="M297.77 191.06h94.5v139.5h-94.5z"/><text class="cls-12" transform="translate(325.44 204.55)"><tspan x="0" y="0">Version 1</tspan></text><path class="cls-23" d="M287.77 211.06h94.5v139.5h-94.5z"/><text class="cls-12" transform="translate(314.4 224.55)"><tspan x="0" y="0">Version 2</tspan></text><path class="cls-20" d="M277.77 231.06h94.5v139.5h-94.5z"/><text class="cls-14" transform="translate(296.55 257.11)"><tspan x="0" y="0">Version N</tspan></text><g><text class="cls-18" transform="translate(296.85 330.44)"><tspan x="0" y="0">Composite</tspan><tspan x="6.8" y="12">Content</tspan><tspan x="11.38" y="24">View 2</tspan></text><path class="cls-10" d="M336.16 309.08H309.5v-29.16l5.43-5.42h21.23v34.58z"/><path class="cls-10" d="M314.93 279.92h-5.43l5.43-5.42v5.42z"/><path class="cls-2" d="M315.69 287.48h7.14M315.69 292.15h14.28M315.69 296.7h14.28M315.69 301.37h14.28M340.54 279.32v34.57h-26.66"/></g><path class="cls-22" d="M277.77 638.5v-158h-125v158l62.5 20 62.5-20zM412.77 638.5v-158h-125v158l62.5 20 62.5-20zM547.77 638.5v-158h-125v158l62.5 20 62.5-20z"/><path class="cls-5" d="M485.27 602.23V460.5M350.27 602.23V460.5"/><text class="cls-14" transform="translate(185.47 678.5)"><tspan x="0" y="0">Location 1</tspan></text><text class="cls-14" transform="translate(319.2 678.5)"><tspan x="0" y="0">Location 2</tspan></text><text class="cls-14" transform="translate(453.98 678.5)"><tspan x="0" y="0">Location 3</tspan></text><text class="cls-14" transform="translate(588.05 678.5)"><tspan x="0" y="0">Location N</tspan></text><g><circle class="cls-20" cx="350.21" cy="617.2" r="14"/><path class="cls-21" d="M350.21 604.2c7.17 0 13 5.83 13 13s-5.83 13-13 13-13-5.83-13-13 5.83-13 13-13m0-2c-8.28 0-15 6.72-15 15s6.72 15 15 15 15-6.72 15-15-6.72-15-15-15z"/><text class="cls-15" transform="translate(346.02 621.99)"><tspan x="0" y="0">2</tspan></text></g><g><circle class="cls-20" cx="485.27" cy="617.2" r="14"/><path class="cls-21" d="M485.27 604.2c7.17 0 13 5.83 13 13s-5.83 13-13 13-13-5.83-13-13 5.83-13 13-13m0-2c-8.28 0-15 6.72-15 15s6.72 15 15 15 15-6.72 15-15-6.72-15-15-15z"/><text class="cls-15" transform="translate(480.83 621.99)"><tspan x="0" y="0">3</tspan></text></g><path class="cls-5" d="M620.27 602.23V460.5h-405v141.73"/><text transform="translate(214.26 451.7)" style="font-variation-settings:'wght' 500" font-family="RedHatText,&quot;Red Hat Text&quot;,Overpass,&quot;Helvetica Neue&quot;,Arial,sans-serif" font-weight="500" font-size="12" fill="#151515"><tspan x="0" y="0">Network (firewall)</tspan></text><path class="cls-5" d="M417.77 460.5v-45"/><g><circle class="cls-20" cx="215.27" cy="617.2" r="14"/><path class="cls-21" d="M215.27 604.2c7.17 0 13 5.83 13 13s-5.83 13-13 13-13-5.83-13-13 5.83-13 13-13m0-2c-8.28 0-15 6.72-15 15s6.72 15 15 15 15-6.72 15-15-6.72-15-15-15z"/><text class="cls-15" transform="translate(212.56 621.99)"><tspan x="0" y="0">1</tspan></text></g><g><circle class="cls-21" cx="350.29" cy="517" r="20"/><text class="cls-13" transform="translate(341.39 521.09)"><tspan x="0" y="0">QE</tspan></text><g><circle class="cls-21" cx="350.29" cy="567" r="20"/><text class="cls-13" transform="translate(335.81 571.09)"><tspan x="0" y="0">Prod</tspan></text></g></g><g><circle class="cls-21" cx="215.27" cy="517" r="20"/><text class="cls-13" transform="translate(203.61 521.09)"><tspan x="0" y="0">Dev</tspan></text><g><circle class="cls-21" cx="215.27" cy="567" r="20"/><text class="cls-13" transform="translate(206.38 571.09)"><tspan x="0" y="0">QE</tspan></text></g></g><g><circle class="cls-21" cx="485.27" cy="567" r="20"/><text class="cls-13" transform="translate(476.38 571.09)"><tspan x="0" y="0">QE</tspan></text></g><text class="cls-14" transform="translate(-.27 543.99)"><tspan x="0" y="0">Smart Proxy</tspan><tspan x="0" y="13">Servers</tspan></text><path class="cls-3" d="M207.98 617.64L78.92 541.93"/><g><circle class="cls-20" cx="620.27" cy="617.2" r="14"/><path class="cls-21" d="M620.27 604.2c7.17 0 13 5.83 13 13s-5.83 13-13 13-13-5.83-13-13 5.83-13 13-13m0-2c-8.28 0-15 6.72-15 15s6.72 15 15 15 15-6.72 15-15-6.72-15-15-15z"/><text class="cls-15" transform="translate(614.74 621.99)"><tspan x="0" y="0">N</tspan></text></g><g><circle class="cls-21" cx="620.27" cy="567" r="20"/><text class="cls-13" transform="translate(605.79 571.09)"><tspan x="0" y="0">Prod</tspan></text></g><g><text transform="translate(714.48 701.52)" style="font-variation-settings:'wght' 400" fill="#ececec" font-family="RedHatText,&quot;Red Hat Text&quot;,Overpass,&quot;Helvetica Neue&quot;,Arial,sans-serif" font-size="10"><tspan x="0" y="0">278_0922</tspan></text><path fill="none" d="M0 678.5h760v40H0z"/></g></svg>