<svg id="artwork" xmlns="http://www.w3.org/2000/svg" viewBox="0 0 760 382"><defs><style>.cls-2,.cls-3{fill:none}.cls-4{fill:#06c}.cls-6{fill:#e6e6e6}.cls-10,.cls-9{fill:#151515}.cls-10{font-family:RedHatText,&quot;Red Hat Text&quot;,Overpass,&quot;Helvetica Neue&quot;,Arial,sans-serif;font-weight:500;font-size:12px;font-variation-settings:&apos;wght&apos; 500}.cls-2,.cls-3{stroke:#151515;stroke-miterlimit:10}.cls-3{stroke:#06c}</style></defs><path class="cls-6" d="M0 110h240v50H0zM259.65 110h240v50h-240zM259.65 205h240v50h-240zM520 110h240v50H520z"/><path class="cls-2" d="M379.65 70v40M359.65 70v20H120v20M399.65 70v20H640v20M379.65 205v-35.32"/><path class="cls-9" d="M384.64 171.14l-4.99-8.64-4.99 8.64h9.98z"/><path class="cls-3" d="M359.65 315v-50.32"/><path class="cls-4" d="M364.64 266.14l-4.99-8.64-4.99 8.64h9.98z"/><path class="cls-2" d="M399.65 205v-20H640v-15.32"/><path class="cls-9" d="M644.99 171.14L640 162.5l-4.99 8.64h9.98z"/><path class="cls-3" d="M359.65 205v-20H120v-15.32"/><path class="cls-4" d="M124.99 171.14L120 162.5l-4.99 8.64h9.98zM259.65 20h240v50h-240z"/><path class="cls-2" d="M399.65 315v-50.32"/><path class="cls-9" d="M404.64 266.14l-4.99-8.64-4.99 8.64h9.98z"/><path class="cls-2" d="M319.65 315v-50.32"/><path class="cls-9" d="M324.64 266.14l-4.99-8.64-4.99 8.64h9.98z"/><path class="cls-2" d="M439.65 315v-50.32"/><path class="cls-9" d="M444.64 266.14l-4.99-8.64-4.99 8.64h9.98z"/><path class="cls-6" d="M259.65 315h240v50h-240z"/><path fill="#fff" d="M263 280.65h233.3v16.69H263z"/><text transform="translate(334.41 48.5)" style="font-variation-settings:'wght' 500" font-family="RedHatText,&quot;Red Hat Text&quot;,Overpass,&quot;Helvetica Neue&quot;,Arial,sans-serif" font-weight="500" font-size="12" fill="#fff"><tspan x="0" y="0">Foreman Server</tspan></text><text class="cls-10" transform="translate(362.87 344.46)"><tspan x="0" y="0">Client</tspan></text><text class="cls-10" transform="matrix(1.03 0 0 1 305.5 293.2)"><tspan x="0" y="0">8140</tspan></text><text class="cls-10" transform="matrix(1.03 0 0 1 384.47 293.2)"><tspan x="0" y="0">5647</tspan></text><text class="cls-10" transform="matrix(1.03 0 0 1 428.14 293.2)"><tspan x="0" y="0">433</tspan></text><text transform="matrix(1.03 0 0 1 347.55 293.2)" style="font-variation-settings:'wght' 500" font-family="RedHatText,&quot;Red Hat Text&quot;,Overpass,&quot;Helvetica Neue&quot;,Arial,sans-serif" font-weight="500" font-size="12" fill="#06c"><tspan x="0" y="0">8141</tspan></text><text class="cls-10" transform="translate(328.45 234.46)"><tspan x="0" y="0">TCP load balancer</tspan></text><text class="cls-10" transform="translate(319.85 139.46)"><tspan x="0" y="0">Smart Proxy Server 2</tspan></text><text class="cls-10" transform="translate(580 139.46)"><tspan x="0" y="0">Smart Proxy Server 3</tspan></text><text class="cls-10" transform="translate(61.7 139.46)"><tspan x="0" y="0">Smart Proxy Server 1</tspan></text><g><text transform="translate(714.48 365.02)" style="font-variation-settings:'wght' 400" fill="#ececec" font-family="RedHatText,&quot;Red Hat Text&quot;,Overpass,&quot;Helvetica Neue&quot;,Arial,sans-serif" font-size="10"><tspan x="0" y="0">278_0922</tspan></text><path fill="none" d="M0 342h760v40H0z"/></g></svg>