<svg id="artwork" xmlns="http://www.w3.org/2000/svg" viewBox="0 0 760 671"><defs><style>.cls-10,.cls-11,.cls-12,.cls-2,.cls-3,.cls-4,.cls-5,.cls-6,.cls-7,.cls-8{fill:none}.cls-11,.cls-12,.cls-14,.cls-2,.cls-3,.cls-4,.cls-5,.cls-6,.cls-7,.cls-8{stroke-linecap:round;stroke-linejoin:round}.cls-11,.cls-12,.cls-14,.cls-2,.cls-4,.cls-6,.cls-7{stroke:#5b5b5b}.cls-14,.cls-2{stroke-width:1.5px}.cls-3{stroke:#151515}.cls-16,.cls-17,.cls-18,.cls-19,.cls-20,.cls-21{fill:#151515}.cls-16,.cls-21{font-family:RedHatText,&quot;Red Hat Text&quot;,Overpass,&quot;Helvetica Neue&quot;,Arial,sans-serif;font-weight:700;font-variation-settings:&apos;wght&apos; 700}.cls-16,.cls-19{font-size:12px}.cls-22{fill:#06c}.cls-14,.cls-23{fill:#fff}.cls-24{fill:#e8e8e8}.cls-25{fill:#d9e8f7}.cls-4{stroke-dasharray:0 0 0 4.04}.cls-11,.cls-12,.cls-4,.cls-5,.cls-6,.cls-7{stroke-width:2px}.cls-20{font-size:10px}.cls-5{stroke:#06c}.cls-18{font-size:11px}.cls-18,.cls-19,.cls-20{font-family:RedHatText,&quot;Red Hat Text&quot;,Overpass,&quot;Helvetica Neue&quot;,Arial,sans-serif;font-weight:500;font-variation-settings:&apos;wght&apos; 500}.cls-7{stroke-dasharray:0 0 0 4.24}.cls-8{stroke:#fff;stroke-width:8px}.cls-10{stroke-miterlimit:10;stroke:#c4c4c4}.cls-21{font-size:14px}.cls-11,.cls-12{stroke-dasharray:0 0 0 4.38}</style></defs><path class="cls-25" d="M145 481v120h125V481l-62.5 20-62.5-20z"/><path class="cls-14" d="M189.05 532.56h36.9v36.88h-36.9z"/><path class="cls-6" d="M220.06 562.17"/><path class="cls-2" d="M194.69 562.29h8.71"/><path class="cls-6" d="M220.06 550.87"/><path class="cls-2" d="M194.69 550.99h8.71"/><path class="cls-6" d="M220.06 539.57"/><path class="cls-2" d="M194.69 539.69h8.71"/><path class="cls-24" d="M270 476v-53H145v53l62.5 20 62.5-20z"/><path class="cls-25" d="M279.94 481v120h125V481l-62.5 20-62.5-20z"/><path class="cls-24" d="M404.94 476v-53h-125v53l62.5 20 62.5-20z"/><path class="cls-25" d="M415.19 481v120h125V481l-62.5 20-62.5-20z"/><path class="cls-24" d="M540.19 476v-53h-125v53l62.5 20 62.5-20z"/><path class="cls-25" d="M550 481v120h125V481l-62.5 20-62.5-20z"/><path class="cls-24" d="M675 476v-53H550v53l62.5 20 62.5-20z"/><path class="cls-5" d="M477.5 439.73V403M342.5 439.73V403"/><circle class="cls-23" cx="342.44" cy="454.7" r="14"/><path class="cls-22" d="M342.44 441.7c7.17 0 13 5.83 13 13s-5.83 13-13 13-13-5.83-13-13 5.83-13 13-13m0-2c-8.28 0-15 6.72-15 15s6.72 15 15 15 15-6.72 15-15-6.72-15-15-15z"/><text class="cls-21" transform="translate(338.25 459.49)"><tspan x="0" y="0">2</tspan></text><circle class="cls-23" cx="477.5" cy="454.7" r="14"/><path class="cls-22" d="M477.5 441.7c7.17 0 13 5.83 13 13s-5.83 13-13 13-13-5.83-13-13 5.83-13 13-13m0-2c-8.28 0-15 6.72-15 15s6.72 15 15 15 15-6.72 15-15-6.72-15-15-15z"/><text class="cls-21" transform="translate(473.06 459.49)"><tspan x="0" y="0">3</tspan></text><path class="cls-5" d="M612.5 439.73V403h-405v36.7"/><circle class="cls-23" cx="207.5" cy="454.7" r="14"/><path class="cls-22" d="M207.5 441.7c7.17 0 13 5.83 13 13s-5.83 13-13 13-13-5.83-13-13 5.83-13 13-13m0-2c-8.28 0-15 6.72-15 15s6.72 15 15 15 15-6.72 15-15-6.72-15-15-15z"/><text class="cls-21" transform="translate(204.79 459.49)"><tspan x="0" y="0">1</tspan></text><circle class="cls-23" cx="612.5" cy="454.7" r="14"/><path class="cls-22" d="M612.5 441.7c7.17 0 13 5.83 13 13s-5.83 13-13 13-13-5.83-13-13 5.83-13 13-13m0-2c-8.28 0-15 6.72-15 15s6.72 15 15 15 15-6.72 15-15-6.72-15-15-15z"/><text class="cls-21" transform="translate(606.97 459.49)"><tspan x="0" y="0">N</tspan></text><path class="cls-14" d="M627.56 551c0-7.33-5.99-13.27-13.38-13.27-5 0-9.36 2.73-11.65 6.76a9.85 9.85 0 00-1.73-.16c-5.55 0-10.05 4.46-10.05 9.97s4.5 9.97 10.05 9.97h26.76c3.69 0 6.69-2.97 6.69-6.64s-3-6.64-6.69-6.64z"/><path class="cls-6" d="M455.8 529.12"/><path class="cls-11" d="M455.8 533.5v37.19"/><path class="cls-6" d="M455.8 572.87"/><path class="cls-12" d="M460.18 572.87h37.21"/><path class="cls-6" d="M499.57 572.87"/><path class="cls-11" d="M499.57 568.5v-37.19"/><path class="cls-6" d="M499.57 529.12"/><path class="cls-12" d="M495.2 529.12h-37.21"/><path class="cls-14" d="M459.24 532.56h36.9v36.88h-36.9z"/><path class="cls-6" d="M490.25 562.04"/><path class="cls-2" d="M464.88 562.29h8.71"/><path class="cls-6" d="M490.25 550.74"/><path class="cls-2" d="M464.88 550.99h8.71"/><path class="cls-6" d="M490.25 539.44"/><path class="cls-2" d="M464.88 539.69h8.71"/><path class="cls-6" d="M324.24 548.15"/><path class="cls-7" d="M324.24 543.91v-6.36"/><path class="cls-6" d="M324.24 535.43"/><path class="cls-4" d="M328.29 535.43h30.33"/><path class="cls-6" d="M360.64 535.43"/><path class="cls-7" d="M360.64 539.67v6.36"/><path class="cls-6" d="M360.64 548.15"/><path class="cls-4" d="M356.59 548.15h-30.33"/><path class="cls-14" d="M323.99 552.32h36.9v14.25h-36.9z"/><path class="cls-6" d="M355 559.3"/><path class="cls-2" d="M329.63 559.43h8.71"/><text class="cls-16" transform="translate(177.7 621)"><tspan x="0" y="0">Location 1</tspan></text><text class="cls-16" transform="translate(311.43 621)"><tspan x="0" y="0">Location 2</tspan></text><text class="cls-16" transform="translate(446.21 621)"><tspan x="0" y="0">Location 3</tspan></text><text class="cls-16" transform="translate(580.28 621)"><tspan x="0" y="0">Location N</tspan></text><text class="cls-19" transform="translate(206.49 394.2)"><tspan x="0" y="0">Network</tspan></text><path class="cls-5" d="M410 403v-45"/><path class="cls-22" d="M528 107v249H292V107h236m2-2H290v253h240V105z"/><path class="cls-8" d="M469 97.68v17.9"/><text class="cls-16" transform="translate(-.54 387.19)"><tspan x="0" y="0">Smart Proxy</tspan><tspan x="0" y="13">Servers</tspan></text><path class="cls-3" d="M199.97 455.1L80.03 384.74"/><text class="cls-16" transform="translate(-.54 506.97)"><tspan x="0" y="0">Managed hosts</tspan></text><text class="cls-20" transform="translate(-.54 533.78)"><tspan x="0" y="0">VMware</tspan><tspan x="0" y="13">RHV</tspan><tspan x="0" y="26">OpenStack</tspan><tspan x="0" y="39">KVM</tspan><tspan x="0" y="52">EC2</tspan></text><text class="cls-20" transform="translate(70.23 533.78)"><tspan x="0" y="0">GCE</tspan><tspan x="0" y="13">Rackspace</tspan><tspan x="0" y="26">Bare Metal</tspan><tspan x="0" y="39">Docker</tspan></text><path class="cls-3" d="M158.22 541.66l-62.74-36.81"/><path class="cls-10" d="M505 172.5V333H325"/><path class="cls-10" d="M500 167.5V328H320"/><path class="cls-24" d="M315 162.5h180V323H315z"/><text class="cls-21" transform="translate(335 193.4)"><tspan x="0" y="0">Organizations</tspan></text><g><text class="cls-18" transform="translate(380.28 277.39)"><tspan x="0" y="0">Life cycle</tspan><tspan x="-9.29" y="12">management</tspan></text><path class="cls-2" d="M399.95 227.78c1.74-.68 3.63-1.05 5.61-1.05 4.91 0 9.28 2.28 12.1 5.83"/><circle class="cls-14" cx="396.49" cy="228.79" r="3.6"/><path class="cls-2" d="M417.93 226.8l-.26 6.08-6.08-.26"/><g><path class="cls-2" d="M411.22 260.82l-4.88-3.63 3.64-4.88"/><circle class="cls-14" cx="420.18" cy="240.62" r="3.6"/><path class="cls-2" d="M406.55 257.34c7.28-.47 13.16-6.04 14.15-13.17"/></g><g><path class="cls-2" d="M386.22 238.63l5.45-2.72 2.71 5.45"/><path class="cls-2" d="M394.98 253.14a15.268 15.268 0 01-4.75-11.09c0-1.99.38-3.89 1.07-5.63"/><circle class="cls-14" cx="397.89" cy="255.26" r="3.6"/></g></g><g><text class="cls-18" transform="translate(.17 271.19)"><tspan x="0" y="0">Operators</tspan></text><path class="cls-14" d="M36.25 227.71c-2.08-2.84-5.42-4.78-9.52-4.8 3.77-.02 5.93-2.87 5.93-5.96s-2.38-5.97-5.97-5.97-5.97 2.86-5.97 5.97 2.17 5.94 5.93 5.96c-4.1.01-7.44 1.96-9.52 4.8M13.12 242.86c3.77-.02 5.93-2.87 5.93-5.96s-2.38-5.97-5.97-5.97-5.97 2.86-5.97 5.97 2.17 5.94 5.93 5.96c-7.03.02-11.86 5.71-11.86 11.88h23.8c0-6.17-4.82-11.86-11.86-11.88zM40.34 242.86c3.77-.02 5.93-2.87 5.93-5.96s-2.38-5.97-5.97-5.97-5.97 2.86-5.97 5.97 2.17 5.94 5.93 5.96c-7.03.02-11.86 5.71-11.86 11.88h23.79c0-6.17-4.82-11.86-11.86-11.88z"/><path class="cls-2" d="M22.98 236.49h7.43"/></g><g><path stroke-miterlimit="10" stroke="#151515" fill="none" d="M469 75v77.82"/><path class="cls-17" d="M464.01 151.36L469 160l4.99-8.64h-9.98z"/></g><path class="cls-8" d="M286.67 236.5h17.9M523.64 236.5h17.9"/><g><path class="cls-3" d="M49.44 236.5h255.88"/><path class="cls-17" d="M303.86 241.49l8.64-4.99-8.64-4.99v9.98z"/></g><g><path class="cls-3" d="M515.21 236.5h181.26"/><path class="cls-17" d="M516.67 241.49l-8.64-4.99 8.64-4.99v9.98z"/></g><g><text class="cls-18" transform="translate(670.31 271.19)"><tspan x="0" y="0">Red Hat analytics</tspan></text><path class="cls-2" d="M719.7 226.47h14.13v23.55h-37.36v-23.55h14.14M703.91 241.94v-2.87M711.71 241.94v-7.72M707.81 241.94v-4.81M701.97 242.17h11.67M693.4 254.64h43.5"/><ellipse class="cls-2" cx="723.65" cy="238.22" rx="3.1" ry="3.12"/><path class="cls-2" d="M725.84 240.43l1.16 1.16M720.3 234.86l1.16 1.16M725.84 236.02l1.16-1.16M720.3 241.59l1.16-1.16"/><g><path class="cls-2" d="M726.75 238.22h1.64M718.92 238.22h1.63"/></g><g><path class="cls-2" d="M723.65 235.11v-1.65M723.65 242.98v-1.64"/></g></g><text transform="translate(315 142.29)" style="font-variation-settings:'wght' 700" font-family="RedHatText,&quot;Red Hat Text&quot;,Overpass,&quot;Helvetica Neue&quot;,Arial,sans-serif" font-weight="700" fill="#151515" font-size="16"><tspan x="0" y="0">Foreman</tspan></text><g><text transform="translate(714.48 644.02)" style="font-variation-settings:'wght' 400" font-size="10" fill="#ececec" font-family="RedHatText,&quot;Red Hat Text&quot;,Overpass,&quot;Helvetica Neue&quot;,Arial,sans-serif"><tspan x="0" y="0">278_0922</tspan></text><path fill="none" d="M0 621h760v40H0z"/></g><path class="cls-24" d="M10.5 30h127v35h-127z"/><text class="cls-19" transform="translate(32.6 52)"><tspan x="0" y="0">Red Hat Portal</tspan></text><path class="cls-24" d="M142.5 30h115v35h-115z"/><text class="cls-19" transform="translate(179.18 52)"><tspan x="0" y="0">Puppet</tspan></text><path class="cls-24" d="M262.5 30h115v35h-115z"/><text class="cls-19" transform="translate(299.79 52)"><tspan x="0" y="0">Docker</tspan></text><path class="cls-24" d="M382.5 30h115v35h-115z"/><text class="cls-19" transform="translate(431.19 52)"><tspan x="0" y="0">Git</tspan></text><path class="cls-24" d="M502.5 30h115v35h-115z"/><text class="cls-19" transform="translate(543.58 52)"><tspan x="0" y="0">SCAP</tspan></text><path class="cls-24" d="M622.5 30h127v35h-127z"/><text class="cls-19" transform="translate(634.72 52)"><tspan x="0" y="0">Customer content</tspan></text><path stroke="#adadad" stroke-dasharray="0 3" stroke-linecap="round" stroke-linejoin="round" fill="none" d="M.5 20h759v55H.5z"/></svg>