<svg xmlns="http://www.w3.org/2000/svg" viewBox="0 0 760 560.34"><defs><style>.cls-14,.cls-2,.cls-3,.cls-4,.cls-6,.cls-8{fill:none;stroke-linejoin:round}.cls-14,.cls-2,.cls-3,.cls-4,.cls-8{stroke-linecap:round}.cls-2,.cls-6{stroke:#f7823c}.cls-14,.cls-16,.cls-3,.cls-8{stroke:#fff}.cls-4{stroke:#151515}.cls-17{font-size:12px}.cls-17,.cls-18,.cls-19,.cls-20{fill:#151515}.cls-17,.cls-20{font-family:RedHatText,&quot;Red Hat Text&quot;,Overpass,&quot;Helvetica Neue&quot;,Arial,sans-serif;font-weight:700;font-variation-settings:&apos;wght&apos; 700}.cls-22,.cls-23{fill:#f7823c}.cls-24{fill:#fff}.cls-25{fill:#e8e8e8}.cls-26{fill:#e5e5e5}.cls-16,.cls-27{fill:#cce0f5}.cls-19,.cls-23{font-size:10px}.cls-8{stroke-dasharray:0 0 2.82 2.82}.cls-16{stroke-miterlimit:10}.cls-19,.cls-23{font-family:RedHatText,&quot;Red Hat Text&quot;,Overpass,&quot;Helvetica Neue&quot;,Arial,sans-serif;font-weight:500;font-variation-settings:&apos;wght&apos; 500}.cls-14{stroke-dasharray:0 0 3.03 3.03}.cls-20{font-size:14px}</style></defs><g style="isolation:isolate"><g id="artwork"><path class="cls-4" d="M55 384.54v75.75"/><text transform="translate(714.48 543.35)" style="font-variation-settings:'wght' 400" font-size="10" fill="#ececec" font-family="RedHatText,&quot;Red Hat Text&quot;,Overpass,&quot;Helvetica Neue&quot;,Arial,sans-serif"><tspan x="0" y="0">278_0922</tspan></text><path fill="none" d="M0 520.34h760v40H0z"/><path class="cls-25" d="M34.5 20H760v334.5H34.5z"/><path class="cls-24" d="M50 198.5h609.5V339H50z"/><path d="M659 199v139.5H50.5V199H659m1-1H49.5v141.5H660V198z" fill="#06c"/><text class="cls-17" transform="translate(64.5 324.4)"><tspan x="0" y="0">Internal Smart Proxy</tspan></text><path class="cls-24" d="M309.93 61.02h115v55h-115z"/><text class="cls-19" transform="translate(333.4 91.44)"><tspan x="0" y="0">Puppet Server</tspan></text><path stroke="#151515" stroke-linejoin="round" fill="none" d="M39.82 88.52H3.9l-.16 296.02H168.5"/><path class="cls-18" d="M38.36 83.53L47 88.52l-8.64 4.98v-9.97z"/><text class="cls-20" transform="translate(49.5 45.9)"><tspan x="0" y="0">Foreman Server</tspan></text><path class="cls-24" d="M49.5 61.02H305v55H49.5z"/><text class="cls-17" transform="translate(62.91 92.02)"><tspan x="0" y="0">Foreman</tspan></text><path class="cls-24" d="M429.93 61.02h115v55h-115z"/><text class="cls-19" transform="translate(463.75 91.44)"><tspan x="0" y="0">Candlepin</tspan></text><path class="cls-24" d="M550 61.02h115v55H550z"/><text class="cls-19" transform="translate(596.07 91.44)"><tspan x="0" y="0">Qpid</tspan></text><path class="cls-4" d="M81.75 203.32v-1.5"/><path stroke-dasharray="0 0 2.94 2.94" stroke="#151515" stroke-linecap="round" stroke-linejoin="round" fill="none" d="M81.75 198.88v-57.41"/><path class="cls-4" d="M81.75 140v-1.5h1.5"/><path stroke-dasharray="0 0 3.01 3.01" stroke="#151515" stroke-linecap="round" stroke-linejoin="round" fill="none" d="M86.26 138.5h510.73"/><path class="cls-4" d="M598.5 138.5h1.5V137"/><path stroke-dasharray="0 0 3.27 3.27" stroke="#151515" stroke-linecap="round" stroke-linejoin="round" fill="none" d="M600 133.73v-4.9"/><path class="cls-4" d="M600 127.19v-1.5"/><path class="cls-18" d="M86.74 201.86l-4.99 8.64-4.99-8.64h9.98zM604.99 127.15l-4.99-8.63-4.99 8.63h9.98z"/><path class="cls-4" d="M126.25 203.32v-1.5"/><path stroke-dasharray="0 0 3.12 3.12" stroke="#151515" stroke-linecap="round" stroke-linejoin="round" fill="none" d="M126.25 198.7v-42.14"/><path class="cls-4" d="M126.25 155v-1.5h1.5"/><path stroke-dasharray="0 0 3.02 3.02" stroke="#151515" stroke-linecap="round" stroke-linejoin="round" fill="none" d="M130.77 153.5h481.22"/><path class="cls-4" d="M613.5 153.5h1.5V152"/><path stroke-dasharray="0 0 2.76 2.76" stroke="#151515" stroke-linecap="round" stroke-linejoin="round" fill="none" d="M615 149.24v-20.67"/><path class="cls-4" d="M615 127.19v-1.5"/><path class="cls-18" d="M131.24 201.86l-4.99 8.64-4.99-8.64h9.98zM619.99 127.15l-4.99-8.63-4.99 8.63h9.98z"/><path class="cls-24" d="M224.75 71.77h69.5v33.5h-69.5z"/><path class="cls-26" d="M293.5 72.52v32h-68v-32h68m1.5-1.5h-71v35h71v-35z"/><text class="cls-19" transform="translate(242.97 91.44)"><tspan x="0" y="0">Katello</tspan></text><path stroke-width="8" stroke="#fff" stroke-linecap="round" stroke-linejoin="round" fill="none" d="M99.75 369.54v28.02"/><path class="cls-4" d="M54.82 255.75H18.83v113.79h80.92v90.75"/><path class="cls-18" d="M53.36 250.76l8.64 4.99-8.64 4.99v-9.98z"/><path class="cls-27" d="M64.5 213H99v85.5H64.5z"/><text class="cls-19" transform="translate(71.13 258.67)"><tspan x="0" y="0">Pulp</tspan></text><path class="cls-27" d="M104 213h59.5v85.5H104zM168.5 213h44v85.5h-44z"/><text class="cls-19" transform="translate(175.62 253.17)"><tspan x="0" y="0">MQTT</tspan><tspan x="-.66" y="11">broker</tspan></text><text class="cls-19" transform="translate(122.33 247.67)"><tspan x="0" y="0">Qpid</tspan><tspan x="-9.34" y="11">Dispatch</tspan><tspan x="-4.73" y="22">Router</tspan></text><path class="cls-27" d="M218 213h427v85.5H218z"/><text class="cls-17" transform="translate(232.5 236.3)"><tspan x="0" y="0">Foreman Proxy</tspan></text><path class="cls-2" d="M308 293.15v167.1"/><path class="cls-22" d="M303.01 294.61l4.99-8.64 4.99 8.64h-9.98z"/><path class="cls-2" d="M358 293.15v167.1"/><path class="cls-22" d="M353.01 294.61l4.99-8.64 4.99 8.64h-9.98z"/><path class="cls-2" d="M495.5 293.15v167.14"/><path class="cls-22" d="M490.51 294.61l4.99-8.64 4.99 8.64h-9.98z"/><path class="cls-4" d="M557.25 293.15v167.14"/><path class="cls-18" d="M552.26 294.61l4.99-8.64 4.99 8.64h-9.98z"/><path class="cls-4" d="M605.75 283.47v167.15"/><path class="cls-18" d="M600.76 449.16l4.99 8.63 4.99-8.63h-9.98z"/><path class="cls-4" d="M675 460.29V183H190.5v20.32"/><path class="cls-18" d="M185.51 201.86l4.99 8.64 4.99-8.64h-9.98z"/><path class="cls-4" d="M710 460.29V168H141.25v35.32"/><path class="cls-18" d="M136.26 201.86l4.99 8.64 4.99-8.64h-9.98z"/><path class="cls-4" d="M745 460.29V38.52H367.43v12.82"/><path class="cls-18" d="M362.44 49.88l4.99 8.64 4.98-8.64h-9.97z"/><path class="cls-2" d="M273.98 283.47v167.11"/><path class="cls-22" d="M268.99 449.12l4.99 8.63 4.99-8.63h-9.98z"/><path class="cls-6" d="M209.96 460.25v-75.71H168.5M243.98 292.65v167.6"/><path class="cls-22" d="M238.99 294.11l4.99-8.64 4.99 8.64h-9.98z"/><path class="cls-2" d="M438 293.15v167.14"/><path class="cls-22" d="M433.01 294.61l4.99-8.64 4.99 8.64h-9.98z"/><path class="cls-6" d="M403 282.97v167.61"/><path class="cls-22" d="M398.01 449.12l4.99 8.63 4.99-8.63h-9.98z"/><path class="cls-24" transform="rotate(90 403.7 418.64)" d="M389.17 62.34h29.06v712.6h-29.06z"/><text class="cls-23" transform="translate(263.24 416.96)"><tspan x="0" y="0">UDP</tspan><tspan x="4.46" y="11">68</tspan></text><text class="cls-23" transform="translate(233.24 416.96)"><tspan x="0" y="0">UDP</tspan><tspan x="4.66" y="11">67</tspan></text><text class="cls-23" transform="translate(199.76 416.96)"><tspan x="0" y="0">TCP</tspan><tspan x="3.71" y="11">80</tspan></text><text class="cls-23" transform="translate(347.25 416.96)"><tspan x="0" y="0">UDP</tspan><tspan x="4.42" y="11">69</tspan></text><text class="cls-23" transform="translate(485.3 416.96)"><tspan x="0" y="0">TCP</tspan><tspan x="-3.04" y="11">8000</tspan></text><text class="cls-19" transform="translate(547.05 416.96)"><tspan x="0" y="0">TCP</tspan><tspan x="-2.87" y="11">9090</tspan></text><text class="cls-19" transform="translate(699.8 416.96)"><tspan x="0" y="0">TCP</tspan><tspan x="-2.1" y="11">5647</tspan></text><text class="cls-19" transform="translate(734.8 416.96)"><tspan x="0" y="0">TCP</tspan><tspan x="-1.26" y="11">8140</tspan></text><text class="cls-19" transform="translate(664.8 416.96)"><tspan x="0" y="0">TCP</tspan><tspan x="-.79" y="11">1883</tspan></text><text class="cls-19" transform="translate(595.55 416.96)"><tspan x="0" y="0">TCP</tspan><tspan x="4.5" y="11">22</tspan></text><text class="cls-19" transform="translate(44.8 416.96)"><tspan x="0" y="0">TCP</tspan><tspan x="-8.21" y="11">80, 443</tspan></text><text class="cls-19" transform="translate(89.55 416.96)"><tspan x="0" y="0">TCP</tspan><tspan x="-2.86" y="11">5000</tspan></text><text class="cls-23" transform="translate(392.8 416.96)"><tspan x="0" y="0">TCP</tspan><tspan x="-2.47" y="11">8443</tspan></text><text class="cls-23" transform="translate(427.8 416.96)"><tspan x="0" y="0">TCP</tspan><tspan x="-2.87" y="11">9090</tspan></text><text class="cls-23" transform="translate(297.25 416.96)"><tspan x="0" y="0">UDP</tspan><tspan x="4.75" y="11">53</tspan></text><path style="mix-blend-mode:multiply" fill="#fef6ed" d="M168.5 359.75h365v95.5h-365z"/><g><path class="cls-24" d="M148.75 71.77h69.5v33.5h-69.5z"/><path class="cls-26" d="M217.5 72.52v32h-68v-32h68m1.5-1.5h-71v35h71v-35z"/></g><text class="cls-19" transform="translate(162.99 91.44)"><tspan x="0" y="0">bootdisk</tspan></text><text class="cls-23" transform="translate(135 427.96)"><tspan x="0" y="0">provisioning</tspan></text><path class="cls-16" d="M233 249.5h50v34h-50zM283 249.5h50v34h-50z"/><g><path class="cls-27" d="M533 249.5h48.5v34H533z"/><path class="cls-3" d="M533 282v1.5h1.5"/><path class="cls-14" d="M537.53 283.5h40.95"/><path class="cls-3" d="M580 283.5h1.5V282"/><path class="cls-8" d="M581.5 279.18v-26.77"/><path class="cls-3" d="M581.5 251v-1.5H580"/><path class="cls-14" d="M576.97 249.5h-40.95"/><path class="cls-3" d="M534.5 249.5H533v1.5"/><path class="cls-8" d="M533 253.82v26.77"/></g><g><path class="cls-27" d="M581.5 249.5H630v34h-48.5z"/><path class="cls-3" d="M581.5 282v1.5h1.5"/><path class="cls-14" d="M586.03 283.5h40.95"/><path class="cls-3" d="M628.5 283.5h1.5V282"/><path class="cls-8" d="M630 279.18v-26.77"/><path class="cls-3" d="M630 251v-1.5h-1.5"/><path class="cls-14" d="M625.47 249.5h-40.95"/><path class="cls-3" d="M583 249.5h-1.5v1.5"/><path class="cls-8" d="M581.5 253.82v26.77"/></g><path class="cls-16" d="M333 249.5h50v34h-50zM383 249.5h75v34h-75zM458 249.5h75v34h-75z"/><text class="cls-19" transform="translate(297.3 270.75)"><tspan x="0" y="0">DNS</tspan></text><text class="cls-19" transform="translate(345.06 270.75)"><tspan x="0" y="0">TFTP</tspan></text><text class="cls-19" transform="translate(397.31 270.75)"><tspan x="0" y="0">Discovery</tspan></text><text class="cls-19" transform="translate(470.67 269.81)"><tspan x="0" y="0">Templates</tspan></text><text class="cls-19" transform="translate(543.57 270.75)"><tspan x="0" y="0">SCAP</tspan></text><text class="cls-19" transform="translate(595.69 270.23)"><tspan x="0" y="0">REX</tspan></text><text class="cls-19" transform="translate(243.55 270.75)"><tspan x="0" y="0">DHCP</tspan></text><g><path class="cls-25" d="M34.22 460.29h725.5v60H34.22z"/><text class="cls-20" transform="translate(49.22 485.19)"><tspan x="0" y="0">Direct Host</tspan></text></g><g><path class="cls-24" d="M10.17 280.87h16.25v56.91H10.17z"/><text class="cls-19" transform="rotate(-90 177.81 155.91)"><tspan x="0" y="0">TCP 5000</tspan></text></g><g><path class="cls-24" d="M.42 106.65h7.1v68.97H.42z"/><text class="cls-19" transform="rotate(-90 88.88 81.99)"><tspan x="0" y="0">TCP 443, 80</tspan></text></g><g><path class="cls-25" transform="rotate(90 188.56 168)" d="M180.44 142.05h16.25v51.89h-16.25z"/><text class="cls-19" transform="translate(164.94 171.61)"><tspan x="0" y="0">TCP 5647</tspan></text></g><g><path class="cls-25" transform="rotate(90 273.06 183)" d="M264.94 157.05h16.25v51.89h-16.25z"/><text class="cls-19" transform="translate(250.75 186.61)"><tspan x="0" y="0">TCP 1883</tspan></text></g><path class="cls-25" transform="rotate(90 487.43 38.52)" d="M481.8 12.57h11.25v51.89H481.8z"/><text class="cls-19" transform="translate(464.64 42.02)"><tspan x="0" y="0">TCP 8140</tspan></text></g></g></svg>