<svg xmlns="http://www.w3.org/2000/svg" viewBox="0 0 760 715.79"><defs><style>.cls-10,.cls-2,.cls-3,.cls-5{fill:none}.cls-10,.cls-15,.cls-16,.cls-2,.cls-3,.cls-5{stroke-linejoin:round}.cls-10,.cls-15,.cls-16,.cls-2,.cls-3{stroke-linecap:round}.cls-2,.cls-5{stroke:#f7823c}.cls-3{stroke:#151515}.cls-17{font-size:12px}.cls-17,.cls-18,.cls-19,.cls-20{fill:#151515}.cls-17,.cls-20{font-family:RedHatText,&quot;Red Hat Text&quot;,Overpass,&quot;Helvetica Neue&quot;,Arial,sans-serif;font-weight:700;font-variation-settings:&apos;wght&apos; 700}.cls-22,.cls-23{fill:#f7823c}.cls-16,.cls-24,.cls-25{fill:#fff}.cls-26{fill:#e8e8e8}.cls-27{fill:#e5e5e5}.cls-15,.cls-28,.cls-29{fill:#cce0f5}.cls-19,.cls-23{font-size:10px}.cls-15,.cls-16{stroke-dasharray:0 3}.cls-10,.cls-15,.cls-29{stroke:#fff}.cls-16,.cls-25{stroke:#e8e8e8}.cls-25,.cls-29{stroke-miterlimit:10}.cls-10{stroke-width:8px}.cls-19,.cls-23{font-family:RedHatText,&quot;Red Hat Text&quot;,Overpass,&quot;Helvetica Neue&quot;,Arial,sans-serif;font-weight:500;font-variation-settings:&apos;wght&apos; 500}.cls-20{font-size:14px}</style></defs><g style="isolation:isolate"><g id="artwork"><path class="cls-26" d="M34.5 391.79H760v138.5H34.5z"/><text transform="translate(714.48 698.81)" style="font-variation-settings:'wght' 400" font-size="10" fill="#ececec" font-family="RedHatText,&quot;Red Hat Text&quot;,Overpass,&quot;Helvetica Neue&quot;,Arial,sans-serif"><tspan x="0" y="0">278_0922</tspan></text><path fill="none" d="M0 675.79h760v40H0z"/><path class="cls-26" d="M34.22 615.79h725.5v60H34.22z"/><text class="cls-20" transform="translate(49.22 640.69)"><tspan x="0" y="0">Isolated Host</tspan></text><path class="cls-3" d="M721 524.97v90.82"/><path class="cls-18" d="M716.01 526.43l4.99-8.64 4.99 8.64h-9.98z"/><text class="cls-20" transform="translate(48.55 416.69)"><tspan x="0" y="0">Isolated Smart Proxy</tspan></text><path class="cls-26" d="M34.5 20H760v312H34.5z"/><path class="cls-24" d="M80 176h664.5v140.5H80z"/><path d="M744 176.5V316H80.5V176.5H744m1-1H79.5V317H745V175.5z" fill="#06c"/><text class="cls-17" transform="translate(94.5 301.9)"><tspan x="0" y="0">Internal Smart Proxy</tspan></text><path class="cls-24" d="M369.43 61.02h115v55h-115z"/><text class="cls-19" transform="translate(392.9 91.44)"><tspan x="0" y="0">Puppet Server</tspan></text><path class="cls-3" d="M667.02 51.2l.01-1.5"/><path stroke-dasharray="0 0 3.23 3.23" stroke="#151515" stroke-linecap="round" stroke-linejoin="round" fill="none" d="M667.06 46.47l.04-4.84"/><path class="cls-3" d="M667.12 40.02l.01-1.5h-1.5"/><path stroke-dasharray="0 0 3.01 3.01" stroke="#151515" stroke-linecap="round" stroke-linejoin="round" fill="none" d="M662.62 38.52H549.93"/><path class="cls-3" d="M548.43 38.52h-1.5v1.5"/><path stroke-dasharray="0 0 3.27 3.27" stroke="#151515" stroke-linecap="round" stroke-linejoin="round" fill="none" d="M546.93 43.29v4.91"/><path class="cls-3" d="M546.93 49.84v1.5"/><path class="cls-18" d="M672.02 49.78l-5.06 8.6-4.91-8.68 9.97.08zM541.94 49.88l4.99 8.64 4.98-8.64h-9.97z"/><path class="cls-3" d="M49.5 78.66H3.9l-.16 401.38h36.08"/><path class="cls-18" d="M38.36 485.03l8.64-4.99-8.64-4.98v9.97z"/><text class="cls-20" transform="translate(49.5 45.9)"><tspan x="0" y="0">Foreman Server</tspan></text><path class="cls-24" d="M49.5 61.02h315v55h-315z"/><text class="cls-17" transform="translate(62.91 92.02)"><tspan x="0" y="0">Foreman</tspan></text><path class="cls-24" d="M489.43 61.02h115v55h-115z"/><text class="cls-19" transform="translate(523.25 91.44)"><tspan x="0" y="0">Candlepin</tspan></text><path class="cls-24" d="M609.5 61.02h115v55h-115z"/><text class="cls-19" transform="translate(655.57 91.44)"><tspan x="0" y="0">Qpid</tspan></text><path class="cls-3" d="M140.25 180.82v-1.5"/><path stroke-dasharray="0 0 2.89 2.89" stroke="#151515" stroke-linecap="round" stroke-linejoin="round" fill="none" d="M140.25 176.43v-27.48"/><path class="cls-3" d="M140.25 147.5V146h1.5"/><path stroke-dasharray="0 0 2.98 2.98" stroke="#151515" stroke-linecap="round" stroke-linejoin="round" fill="none" d="M144.73 146h511.78"/><path class="cls-3" d="M658 146h1.5v-1.5"/><path stroke-dasharray="0 0 3.46 3.46" stroke="#151515" stroke-linecap="round" stroke-linejoin="round" fill="none" d="M659.5 141.04v-12.12"/><path class="cls-3" d="M659.5 127.19v-1.5"/><path class="cls-18" d="M145.24 179.36l-4.99 8.64-4.99-8.64h9.98zM664.49 127.15l-4.99-8.63-4.99 8.63h9.98z"/><path class="cls-3" d="M236.75 180.82v-1.5"/><path stroke-dasharray="0 0 3.37 3.37" stroke="#151515" stroke-linecap="round" stroke-linejoin="round" fill="none" d="M236.75 175.96v-11.78"/><path class="cls-3" d="M236.75 162.5V161h1.5"/><path stroke-dasharray="0 0 3 3" stroke="#151515" stroke-linecap="round" stroke-linejoin="round" fill="none" d="M241.25 161H671.5"/><path class="cls-3" d="M673 161h1.5v-1.5"/><path stroke-dasharray="0 0 2.94 2.94" stroke="#151515" stroke-linecap="round" stroke-linejoin="round" fill="none" d="M674.5 156.56v-27.9"/><path class="cls-3" d="M674.5 127.19v-1.5"/><path class="cls-18" d="M241.74 179.36l-4.99 8.64-4.99-8.64h9.98zM679.49 127.15l-4.99-8.63-4.99 8.63h9.98z"/><path class="cls-24" d="M264.25 71.77h89.5v33.5h-89.5z"/><path class="cls-27" d="M353 72.52v32h-88v-32h88m1.5-1.5h-91v35h91v-35z"/><text class="cls-19" transform="translate(292.47 91.44)"><tspan x="0" y="0">Katello</tspan></text><path class="cls-24" d="M.64 393.42h7.1v56.54H.64z"/><text class="cls-19" transform="rotate(-90 226.595 219.495)"><tspan x="0" y="0">TCP 9090</tspan></text><path class="cls-3" d="M39.82 98.66H18.83v366.38H49.5"/><path class="cls-18" d="M38.36 93.68L47 98.66l-8.64 4.99v-9.97z"/><path class="cls-24" d="M10.85 128.52H27.1v49.95H10.85z"/><text class="cls-19" transform="rotate(-90 98.135 76.235)"><tspan x="0" y="0">TCP 443</tspan></text><path class="cls-28" d="M94.5 190.5H186V276H94.5z"/><text class="cls-19" transform="translate(129.63 235.42)"><tspan x="0" y="0">Pulp</tspan></text><path class="cls-28" d="M191 190.5h91.5V276H191z"/><text class="cls-19" transform="translate(225.33 224.42)"><tspan x="0" y="0">Qpid</tspan><tspan x="-9.34" y="11">Dispatch</tspan><tspan x="-4.73" y="22">Router</tspan></text><path class="cls-28" d="M288 190.5h442V276H288z"/><text class="cls-17" transform="translate(303 213.8)"><tspan x="0" y="0">Foreman Proxy</tspan></text><path class="cls-3" d="M603.25 403.79v-27H18.83M497.75 403.79v-27M497.75 429.79v-15.82"/><path class="cls-18" d="M502.74 415.43l-4.99-8.64-4.99 8.64h9.98z"/><path class="cls-3" d="M603.25 429.79v-15.82"/><path class="cls-18" d="M608.24 415.43l-4.99-8.64-4.99 8.64h9.98z"/><path class="cls-3" d="M663 429.79V302H236.75v-16.32"/><path class="cls-18" d="M241.74 287.14l-4.99-8.64-4.99 8.64h9.98z"/><path class="cls-24" transform="rotate(-180 663 472.545)" d="M634 429.79h58v85.5h-58z"/><text class="cls-19" transform="translate(651.57 464.46)"><tspan x="0" y="0">Qpid</tspan><tspan x="-9.34" y="11">Dispatch</tspan><tspan x="-4.73" y="22">Router</tspan></text><path class="cls-24" transform="rotate(-180 603.25 472.545)" d="M577.5 429.79H629v85.5h-51.5z"/><text class="cls-19" transform="translate(585.9 469.96)"><tspan x="0" y="0">Puppet</tspan><tspan x="1.79" y="11">Server</tspan></text><path class="cls-24" d="M49.5 429.79H469v85.5H49.5z"/><text class="cls-17" transform="translate(62.91 453.09)"><tspan x="0" y="0">Foreman Proxy</tspan></text><path class="cls-24" transform="rotate(-180 497.75 472.545)" d="M474.5 429.79H521v85.5h-46.5z"/><text class="cls-19" transform="translate(483.03 469.96)"><tspan x="0" y="0">RHSM</tspan><tspan x=".61" y="11">(yum)</tspan></text><path class="cls-24" d="M330.88 368.77h47.57v16.25h-47.57z"/><text class="cls-19" transform="translate(333.79 379.82)"><tspan x="0" y="0">TCP 443</tspan></text><path class="cls-10" d="M549.25 385.93v-19.14M564.25 385.93v-19.14"/><path class="cls-3" d="M549.25 420.12v-58.33H49.5V131H213v-24.98"/><path class="cls-18" d="M554.24 418.66l-4.99 8.63-4.99-8.63h9.98z"/><path class="cls-3" d="M534.25 420.12v-43.33"/><path class="cls-18" d="M539.24 418.66l-4.99 8.63-4.99-8.63h9.98z"/><path class="cls-3" d="M564.25 429.79v-15.82"/><path class="cls-18" d="M569.24 415.43l-4.99-8.64-4.99 8.64h9.98z"/><path class="cls-24" d="M411.78 353.77h41.67v16.25h-41.67z"/><text class="cls-19" transform="translate(414.8 364.82)"><tspan x="0" y="0">TCP 80</tspan></text><path class="cls-3" d="M564.25 403.79v-57H64.57V233.25h20.25"/><path class="cls-18" d="M83.36 238.24l8.64-4.99-8.64-4.99v9.98z"/><path class="cls-24" d="M485.67 338.93h54.17v15.75h-54.17z"/><text class="cls-19" transform="translate(488.36 350.16)"><tspan x="0" y="0">TCP 5000</tspan></text><path class="cls-24" d="M337.41 293.77h54.5v16.25h-54.5z"/><text class="cls-19" transform="translate(340.8 304.82)"><tspan x="0" y="0">TCP 5646</tspan></text><path class="cls-2" d="M139.5 510.65v105.1"/><path class="cls-22" d="M134.51 512.11l4.99-8.64 4.99 8.64h-9.98z"/><path class="cls-2" d="M189.5 510.65v105.1"/><path class="cls-22" d="M184.51 512.11l4.99-8.64 4.99 8.64h-9.98z"/><path class="cls-2" d="M327 510.65v105.14"/><path class="cls-22" d="M322.01 512.11l4.99-8.64 4.99 8.64h-9.98z"/><path class="cls-3" d="M387.5 510.65v105.14"/><path class="cls-18" d="M382.51 512.11l4.99-8.64 4.99 8.64h-9.98z"/><g><path class="cls-3" d="M497.75 524.97v90.82"/><path class="cls-18" d="M492.76 526.43l4.99-8.64 4.99 8.64h-9.98z"/></g><g><path class="cls-3" d="M549.25 524.97v90.82"/><path class="cls-18" d="M544.26 526.43l4.99-8.64 4.99 8.64h-9.98z"/></g><g><path class="cls-3" d="M603.25 524.97v90.82"/><path class="cls-18" d="M598.26 526.43l4.99-8.64 4.99 8.64h-9.98z"/></g><g><path class="cls-3" d="M663 524.97v90.82"/><path class="cls-18" d="M658.01 526.43l4.99-8.64 4.99 8.64h-9.98z"/></g><g><path class="cls-3" d="M432.25 500.97v105.15"/><path class="cls-18" d="M427.26 604.66l4.99 8.63 4.99-8.63h-9.98z"/></g><g><path class="cls-2" d="M103.98 500.97v105.11"/><path class="cls-22" d="M98.99 604.62l4.99 8.63 4.99-8.63h-9.98z"/></g><g><path class="cls-5" d="M73.98 510.15v105.6"/><path class="cls-22" d="M68.99 511.61l4.99-8.64 4.99 8.64h-9.98z"/></g><g><path class="cls-2" d="M269.5 510.65v105.14"/><path class="cls-22" d="M264.51 512.11l4.99-8.64 4.99 8.64h-9.98z"/></g><g><path class="cls-5" d="M234.5 500.47v105.61"/><path class="cls-22" d="M229.51 604.62l4.99 8.63 4.99-8.63h-9.98z"/></g><path class="cls-24" transform="rotate(90 392.5 574.14)" d="M377.97 206.64h29.06v735h-29.06z"/><text class="cls-23" transform="translate(93.24 572.46)"><tspan x="0" y="0">UDP</tspan><tspan x="4.46" y="11">68</tspan></text><text class="cls-23" transform="translate(63.24 572.46)"><tspan x="0" y="0">UDP</tspan><tspan x="4.66" y="11">67</tspan></text><text class="cls-23" transform="translate(178.76 572.46)"><tspan x="0" y="0">UDP</tspan><tspan x="4.42" y="11">69</tspan></text><text class="cls-23" transform="translate(316.8 572.46)"><tspan x="0" y="0">TCP</tspan><tspan x="-3.04" y="11">8000</tspan></text><text class="cls-19" transform="translate(377.3 572.46)"><tspan x="0" y="0">TCP</tspan><tspan x="-2.87" y="11">9090</tspan></text><text class="cls-19" transform="translate(487.55 572.46)"><tspan x="0" y="0">TCP</tspan><tspan x="-2.47" y="11">8443</tspan></text><text class="cls-19" transform="translate(593.05 572.46)"><tspan x="0" y="0">TCP</tspan><tspan x="-1.26" y="11">8140</tspan></text><text class="cls-19" transform="translate(652.8 572.46)"><tspan x="0" y="0">TCP</tspan><tspan x="-2.1" y="11">5647</tspan></text><path class="cls-24" transform="rotate(-180 721 472.545)" d="M697 429.79h48v85.5h-48z"/><text class="cls-19" transform="translate(706.11 469.96)"><tspan x="0" y="0">MQTT</tspan><tspan x="-.66" y="11">broker</tspan></text><text class="cls-19" transform="translate(422.05 572.46)"><tspan x="0" y="0">TCP</tspan><tspan x="4.5" y="11">22</tspan></text><text class="cls-23" transform="translate(224.3 572.46)"><tspan x="0" y="0">TCP</tspan><tspan x="-2.47" y="11">8443</tspan></text><text class="cls-23" transform="translate(259.3 572.46)"><tspan x="0" y="0">TCP</tspan><tspan x="-2.87" y="11">9090</tspan></text><text class="cls-23" transform="translate(128.76 572.46)"><tspan x="0" y="0">UDP</tspan><tspan x="4.75" y="11">53</tspan></text><path style="mix-blend-mode:multiply" fill="#fef6ed" d="M34.5 535.25h330v75.5h-330z"/><path class="cls-24" transform="rotate(-180 549.25 472.545)" d="M526 429.79h46.5v85.5H526z"/><text class="cls-19" transform="translate(541.13 475.46)"><tspan x="0" y="0">Pulp</tspan></text><path class="cls-24" transform="rotate(90 549.25 578.9)" d="M529.96 550.9h38.58v56h-38.58z"/><text class="cls-19" transform="translate(539.05 572.46)"><tspan x="0" y="0">TCP</tspan><tspan x="-9.46" y="11">80, 443,</tspan><tspan x="-2.86" y="22">5000</tspan></text><g><path class="cls-24" d="M168.25 71.77h89.5v33.5h-89.5z"/><path class="cls-27" d="M257 72.52v32h-88v-32h88m1.5-1.5h-91v35h91v-35z"/></g><text class="cls-19" transform="translate(192.49 91.44)"><tspan x="0" y="0">bootdisk</tspan></text><path class="cls-25" d="M64.5 466.29h50v34h-50zM114.5 466.29h50v34h-50z"/><path class="cls-16" d="M364.5 466.29h46v34h-46zM410.5 466.29H454v34h-43.5z"/><path class="cls-25" d="M164.5 466.29h50v34h-50zM214.5 466.29h75v34h-75zM289.5 466.29h75v34h-75z"/><text class="cls-19" transform="translate(128.8 486.21)"><tspan x="0" y="0">DNS</tspan></text><text class="cls-19" transform="translate(176.56 486.21)"><tspan x="0" y="0">TFTP</tspan></text><text class="cls-19" transform="translate(228.81 486.21)"><tspan x="0" y="0">Discovery</tspan></text><text class="cls-19" transform="translate(302.17 486.21)"><tspan x="0" y="0">Templates</tspan></text><text class="cls-19" transform="translate(373.82 486.21)"><tspan x="0" y="0">SCAP</tspan></text><text class="cls-19" transform="translate(75.05 486.21)"><tspan x="0" y="0">DHCP</tspan></text><text class="cls-19" transform="translate(422.19 486.21)"><tspan x="0" y="0">REX</tspan></text><text class="cls-23" transform="translate(0 583.46)"><tspan x="0" y="0">provisioning</tspan></text><text class="cls-19" transform="translate(710.8 572.46)"><tspan x="0" y="0">TCP</tspan><tspan x="-.79" y="11">1883</tspan></text><g><path class="cls-29" d="M303 227h50v34h-50zM353 227h50v34h-50z"/><path class="cls-15" d="M603 227h56v34h-56zM659 227h56v34h-56z"/><path class="cls-29" d="M403 227h50v34h-50zM453 227h75v34h-75zM528 227h75v34h-75z"/><text class="cls-19" transform="translate(367.3 248.25)"><tspan x="0" y="0">DNS</tspan></text><text class="cls-19" transform="translate(415.06 248.25)"><tspan x="0" y="0">TFTP</tspan></text><text class="cls-19" transform="translate(467.31 248.25)"><tspan x="0" y="0">Discovery</tspan></text><text class="cls-19" transform="translate(540.67 247.31)"><tspan x="0" y="0">Templates</tspan></text><text class="cls-19" transform="translate(617.32 248.25)"><tspan x="0" y="0">SCAP</tspan></text><text class="cls-19" transform="translate(676.94 247.73)"><tspan x="0" y="0">REX</tspan></text><text class="cls-19" transform="translate(313.55 248.25)"><tspan x="0" y="0">DHCP</tspan></text></g></g></g></svg>