<svg id="b333d9d2-6ee0-4cd4-9b60-17d0f0a92ba3" data-name="artwork" xmlns="http://www.w3.org/2000/svg" width="760" height="318.855"><defs><style>.a9f3bda6-9998-4e7b-bd62-36b9696180b6{font-family:RedHatText,&quot;Red Hat Text&quot;,Overpass,&quot;Helvetica Neue&quot;,Arial,sans-serif}.f8fba13b-a727-4313-a6bf-7a74b6b0efa9{fill:none}.a4edd7d7-a30f-42df-8ab8-dfcb11e23fe0{fill:#e8e8e8}.e035eada-ba47-4863-b252-343ce30e0f7d,.f54a0b5a-9a8e-4dd7-88cb-f414a8a9d108{font-size:14px}.e035eada-ba47-4863-b252-343ce30e0f7d,.f54a0b5a-9a8e-4dd7-88cb-f414a8a9d108,.f640565b-f6b2-4c5d-8580-ff8199d0fb7c{fill:#151515}.e035eada-ba47-4863-b252-343ce30e0f7d{font-family:RedHatText,&quot;Red Hat Text&quot;,Overpass,&quot;Helvetica Neue&quot;,Arial,sans-serif;font-weight:700}.afae2104-113b-46ff-9647-4cd440626d7e{fill:#fff}.e8801e4b-0886-4ee7-95db-8a06ce8003be{fill:#06c}.f54a0b5a-9a8e-4dd7-88cb-f414a8a9d108{font-family:RedHatText,&quot;Red Hat Text&quot;,Overpass,&quot;Helvetica Neue&quot;,Arial,sans-serif;font-weight:500}.f8fba13b-a727-4313-a6bf-7a74b6b0efa9{stroke:#151515;stroke-linecap:round;stroke-linejoin:round}.a9f3bda6-9998-4e7b-bd62-36b9696180b6{font-weight:400}</style></defs><path transform="rotate(-180 380.209 179.784)" fill="#f3f3f3" d="M.209 80.784h760v198h-760z"/><text transform="translate(696.961 301.873)" font-family="RedHatText,&quot;Red Hat Text&quot;,Overpass,&quot;Helvetica Neue&quot;,Arial,sans-serif" font-size="10" fill="#f3f3f3">104_RHI_1020</text><path fill="none" d="M0 318.855h760v-40H15l-15 40z"/><path class="a4edd7d7-a30f-42df-8ab8-dfcb11e23fe0" d="M520 100.855h220v126H520z"/><text class="e035eada-ba47-4863-b252-343ce30e0f7d" transform="translate(540 131.887)">Kafka Connect</text><path class="afae2104-113b-46ff-9647-4cd440626d7e" d="M540.5 147.355h179v59h-179z"/><path class="e8801e4b-0886-4ee7-95db-8a06ce8003be" d="M719 147.855v58H541v-58h178m1-1H540v60h180v-60z"/><text class="f54a0b5a-9a8e-4dd7-88cb-f414a8a9d108" transform="translate(588.567 173.234)">Camel Kafka<tspan x="-6.622" y="15">sink connector</tspan></text><path class="f8fba13b-a727-4313-a6bf-7a74b6b0efa9" d="M260.324 163.855H235"/><path class="f640565b-f6b2-4c5d-8580-ff8199d0fb7c" d="M258.865 158.869l8.635 4.986-8.635 4.986v-9.972z"/><path class="f8fba13b-a727-4313-a6bf-7a74b6b0efa9" d="M130 60.855v30.324"/><path class="f640565b-f6b2-4c5d-8580-ff8199d0fb7c" d="M125.013 89.72L130 98.355l4.986-8.635h-9.973z"/><path class="f8fba13b-a727-4313-a6bf-7a74b6b0efa9" d="M629.994 60.855v30.324"/><path class="f640565b-f6b2-4c5d-8580-ff8199d0fb7c" d="M625.007 89.72l4.987 8.635 4.986-8.635h-9.973z"/><path class="f8fba13b-a727-4313-a6bf-7a74b6b0efa9" d="M511.324 163.855H486"/><path class="f640565b-f6b2-4c5d-8580-ff8199d0fb7c" d="M509.865 158.869l8.635 4.986-8.635 4.986v-9.972z"/><path class="a4edd7d7-a30f-42df-8ab8-dfcb11e23fe0" d="M270 100.855h220v126H270z"/><path class="afae2104-113b-46ff-9647-4cd440626d7e" d="M290.5 147.355h179v59h-179z"/><path class="e8801e4b-0886-4ee7-95db-8a06ce8003be" d="M469 147.855v58H291v-58h178m1-1H290v60h180v-60z"/><text class="e035eada-ba47-4863-b252-343ce30e0f7d" transform="translate(290 131.887)">Kafka cluster</text><text class="f54a0b5a-9a8e-4dd7-88cb-f414a8a9d108" transform="translate(342.6 181.234)">Kafka topic</text><path class="a4edd7d7-a30f-42df-8ab8-dfcb11e23fe0" d="M36.5.855h180v60h-180z"/><text class="f54a0b5a-9a8e-4dd7-88cb-f414a8a9d108" transform="translate(73.847 27.331)">External system<tspan class="a9f3bda6-9998-4e7b-bd62-36b9696180b6"><tspan x="26.019" y="15">(source)</tspan></tspan></text><path class="a4edd7d7-a30f-42df-8ab8-dfcb11e23fe0" d="M539.994.855h180v60h-180z"/><text class="f54a0b5a-9a8e-4dd7-88cb-f414a8a9d108" transform="translate(577.341 27.331)">External system<tspan class="a9f3bda6-9998-4e7b-bd62-36b9696180b6"><tspan x="35.027" y="15">(sink)</tspan></tspan></text><path class="a4edd7d7-a30f-42df-8ab8-dfcb11e23fe0" d="M20 100.855h220v126H20z"/><g><path class="afae2104-113b-46ff-9647-4cd440626d7e" d="M40.5 147.355h179v59h-179z"/><path class="e8801e4b-0886-4ee7-95db-8a06ce8003be" d="M219 147.855v58H41v-58h178m1-1H40v60h180v-60z"/></g><text class="f54a0b5a-9a8e-4dd7-88cb-f414a8a9d108" transform="translate(88.567 173.233)">Camel Kafka<tspan x="-15.679" y="15">source connector</tspan></text><text class="e035eada-ba47-4863-b252-343ce30e0f7d" transform="translate(40 131.887)">Kafka Connect</text><text transform="translate(20.533 257.826)" font-size="16" font-family="RedHatText,&quot;Red Hat Text&quot;,Overpass,&quot;Helvetica Neue&quot;,Arial,sans-serif" font-weight="700" fill="#151515">AMQ Streams</text></svg>