<svg id="fff411dd-07ee-4357-9c95-d91bcb614393" data-name="Layer 1" xmlns="http://www.w3.org/2000/svg" width="760" height="472.785"><defs><style>.a22724c2-e95f-442f-a07e-1eb88ee58eca,.af2ac5d9-4635-4a8d-9b80-2374e64d8671,.b55ba748-d2e3-4b01-b775-b924822f1819,.b67c894b-b719-4ad0-8a4d-b56e0b05202f,.f4f7bed2-e87c-4d3b-b616-b98c55c20c38{fill:none}.af2ac5d9-4635-4a8d-9b80-2374e64d8671,.b55ba748-d2e3-4b01-b775-b924822f1819,.f4f7bed2-e87c-4d3b-b616-b98c55c20c38{stroke:#adadad}.a22724c2-e95f-442f-a07e-1eb88ee58eca,.af2ac5d9-4635-4a8d-9b80-2374e64d8671,.b55ba748-d2e3-4b01-b775-b924822f1819,.b67c894b-b719-4ad0-8a4d-b56e0b05202f,.f4f7bed2-e87c-4d3b-b616-b98c55c20c38{stroke-linecap:round;stroke-linejoin:round}.f4f7bed2-e87c-4d3b-b616-b98c55c20c38{stroke-dasharray:3.019 3.019}.af2ac5d9-4635-4a8d-9b80-2374e64d8671{stroke-dasharray:2.992 2.992}.a462e97e-01c6-45ee-a793-6623e625f093{fill:#e8e8e8}.e73a33d3-ca2b-45c6-ac21-4e2346373d68,.eaba6d98-2081-4fbd-a06e-7901f360e484{fill:#fff}.b2aef2b8-4acf-4a8d-b3a0-f77547bb5088,.eaba6d98-2081-4fbd-a06e-7901f360e484,.f8c17dcd-6629-46b9-994f-4dd61bd9ac6a{font-size:12px}.b2aef2b8-4acf-4a8d-b3a0-f77547bb5088,.f8c17dcd-6629-46b9-994f-4dd61bd9ac6a,.f9c6b72f-87f6-49cf-a075-cf6139a6f713{fill:#151515}.eaba6d98-2081-4fbd-a06e-7901f360e484,.f8c17dcd-6629-46b9-994f-4dd61bd9ac6a{font-family:RedHatText,&quot;Red Hat Text&quot;,Overpass,&quot;Helvetica Neue&quot;,Arial,sans-serif;font-weight:500}.adf67d93-95ef-41e8-b43e-dbc0c4e38148{letter-spacing:-.087em}.ff75aa87-84f1-4c85-8cd5-2f574a79044f{letter-spacing:.004em}.af7feff2-e9bc-48fa-b592-40b79d14af19{letter-spacing:.002em}.b32b2df8-8a37-4ac5-b720-328a08e097cf{fill:#d9e8f7}.e79d61f8-e04b-423e-b33c-a4ad429332c5{fill:#06c}.a22724c2-e95f-442f-a07e-1eb88ee58eca{stroke:#06c}.b5c672e0-56fd-4042-b5f1-22efeb1fecaa{letter-spacing:-.021em}.f928cbe6-9009-402a-a094-f44bfb64d05e{letter-spacing:.002em}.faf056c5-4703-4fdd-9859-2268f3f31dc6{letter-spacing:.006em}.fe011be7-7483-4fcf-8e00-71b51095ec4c{letter-spacing:.003em}.f5a1484d-cd81-4a4c-b63f-fe3d4acac7ec{letter-spacing:.007em}.b890ad1f-08c8-465d-a1ba-6219931f1396{letter-spacing:-.004em}.b2e49b9f-9817-4416-bd09-1e80c5cc5869{letter-spacing:.028em}.e8a2afb7-edf1-4b75-a6f9-fe1181eddf7d{letter-spacing:-.005em}.a7536115-420c-468b-b11b-4c02e2011458{letter-spacing:.003em}.b2aef2b8-4acf-4a8d-b3a0-f77547bb5088{font-family:RedHatText,&quot;Red Hat Text&quot;,Overpass,&quot;Helvetica Neue&quot;,Arial,sans-serif;font-weight:700}.b2554b0d-2a51-4a6b-a826-42dff167fef7{letter-spacing:.008em}.ac46b9a9-b2d1-4266-9a74-5a42f0163be3{letter-spacing:-.001em}.b8160362-eee0-4902-a337-08f87bae98bd{letter-spacing:.004em}.f794fdfd-d9e6-4241-82ca-712f0e0e84a9{letter-spacing:-.027em}.f6b0b99b-8f32-46a0-808e-a5b00b7bb8ff{letter-spacing:.006em}.f37e7da5-2f1a-48a0-9eb6-cfdcd7abdc4a{font-family:RedHatText,&quot;Red Hat Text&quot;,Overpass,&quot;Helvetica Neue&quot;,Arial,sans-serif;font-weight:400}.f200a977-781f-40ee-93a6-4387c019ef45{letter-spacing:-.012em}.a36bf475-ccd1-4e18-928f-08f3a8071173{letter-spacing:-.028em}.b5b30aac-a263-48aa-b8b8-fe2f8bcda690{letter-spacing:.003em}.f4efb52f-b210-4cd5-9dc6-59a399375da5{letter-spacing:-.06em}.b79dd72e-cb82-4173-a52d-5d6adaa2f044{letter-spacing:.005em}.a956a82c-3f24-4c2c-b77e-13044591f9ef{letter-spacing:.002em}.eb470540-5515-40ee-92bb-ea640e9062ca{letter-spacing:0}.a46fb1ed-7dfc-4c79-8d90-059db640b461{letter-spacing:-.007em}.fb00009d-9d80-4110-92b1-0c32eef7efd3{letter-spacing:-.013em}.a670b021-d349-44c5-96a8-0ce9bccab0ea{letter-spacing:-.009em}.f8f8a5c7-5c98-465f-bc44-4053e5129e8c{letter-spacing:.004em}.f3e3bda6-ea84-44de-8332-e28f31f2a4a3{letter-spacing:.012em}.f5697934-f4b1-4966-9cfe-009955aea268{letter-spacing:-.063em}.e7447c52-ff45-483d-9ef1-8e7bd2fcbc70{letter-spacing:-.038em}.b954fad7-8ee4-42f0-ab73-71ae91651c24{letter-spacing:-.001em}.b67c894b-b719-4ad0-8a4d-b56e0b05202f{stroke:#151515}</style></defs><path class="b55ba748-d2e3-4b01-b775-b924822f1819" d="M505.25 422.455v1.5h-1.5"/><path class="f4f7bed2-e87c-4d3b-b616-b98c55c20c38" d="M500.731 423.955H272.76"/><path class="b55ba748-d2e3-4b01-b775-b924822f1819" d="M271.25 423.955h-1.5v-1.5"/><path class="af2ac5d9-4635-4a8d-9b80-2374e64d8671" d="M269.75 419.463V49.951"/><path class="b55ba748-d2e3-4b01-b775-b924822f1819" d="M269.75 48.455v-1.5h1.5"/><path class="f4f7bed2-e87c-4d3b-b616-b98c55c20c38" d="M274.269 46.955H502.24"/><path class="b55ba748-d2e3-4b01-b775-b924822f1819" d="M503.75 46.955h1.5v1.5"/><path class="af2ac5d9-4635-4a8d-9b80-2374e64d8671" d="M505.25 51.447v369.512"/><path class="a462e97e-01c6-45ee-a793-6623e625f093" d="M284.75 146.955h205v167h-205z"/><path class="e73a33d3-ca2b-45c6-ac21-4e2346373d68" d="M299.75 205.955h175v93h-175z"/><text class="f8c17dcd-6629-46b9-994f-4dd61bd9ac6a" transform="translate(314.751 229.06)"><tspan class="adf67d93-95ef-41e8-b43e-dbc0c4e38148">T</tspan><tspan class="ff75aa87-84f1-4c85-8cd5-2f574a79044f" x="6.623" y="0">o</tspan><tspan class="af7feff2-e9bc-48fa-b592-40b79d14af19" x="13.853" y="0">p</tspan><tspan x="21.212" y="0">ic 1</tspan></text><path class="b32b2df8-8a37-4ac5-b720-328a08e097cf" d="M314.75 243.955h45v40h-45z"/><text class="f8c17dcd-6629-46b9-994f-4dd61bd9ac6a" transform="translate(335.198 267.299)">1</text><path class="e79d61f8-e04b-423e-b33c-a4ad429332c5" d="M364.75 243.974h45v40h-45z"/><text class="eaba6d98-2081-4fbd-a06e-7901f360e484" transform="translate(383.83 267.298)">2</text><path class="b32b2df8-8a37-4ac5-b720-328a08e097cf" d="M414.75 243.974h45v40h-45z"/><text class="f8c17dcd-6629-46b9-994f-4dd61bd9ac6a" transform="translate(433.608 267.298)">3</text><path class="a22724c2-e95f-442f-a07e-1eb88ee58eca" d="M387.25 121.955v112.343"/><path class="e79d61f8-e04b-423e-b33c-a4ad429332c5" d="M382.264 232.839l4.986 8.635 4.986-8.635h-9.972z"/><path class="a462e97e-01c6-45ee-a793-6623e625f093" d="M364.75 175.215h45v17.5h-45z"/><path class="e73a33d3-ca2b-45c6-ac21-4e2346373d68" d="M327.624 413.909h119.753v20.094H327.624z"/><text class="f8c17dcd-6629-46b9-994f-4dd61bd9ac6a" transform="translate(335.212 427.587)"><tspan class="b5c672e0-56fd-4042-b5f1-22efeb1fecaa">A</tspan><tspan class="f928cbe6-9009-402a-a094-f44bfb64d05e" x="8.115" y="0">v</tspan><tspan class="ff75aa87-84f1-4c85-8cd5-2f574a79044f" x="14.638" y="0">a</tspan><tspan class="faf056c5-4703-4fdd-9859-2268f3f31dc6" x="21.291" y="0">i</tspan><tspan class="fe011be7-7483-4fcf-8e00-71b51095ec4c" x="24.391" y="0">l</tspan><tspan class="f5a1484d-cd81-4a4c-b63f-fe3d4acac7ec" x="27.456" y="0">a</tspan><tspan class="af7feff2-e9bc-48fa-b592-40b79d14af19" x="34.134" y="0">b</tspan><tspan class="faf056c5-4703-4fdd-9859-2268f3f31dc6" x="41.493" y="0">il</tspan><tspan class="b890ad1f-08c8-465d-a1ba-6219931f1396" x="47.692" y="0">i</tspan><tspan class="b2e49b9f-9817-4416-bd09-1e80c5cc5869" x="50.668" y="0">t</tspan><tspan x="55.966" y="0">y </tspan><tspan class="e8a2afb7-edf1-4b75-a6f9-fe1181eddf7d" x="65.109" y="0">Z</tspan><tspan class="ff75aa87-84f1-4c85-8cd5-2f574a79044f" x="72.403" y="0">o</tspan><tspan class="a7536115-420c-468b-b11b-4c02e2011458" x="79.633" y="0">n</tspan><tspan x="86.648" y="0">e B</tspan></text><path class="b55ba748-d2e3-4b01-b775-b924822f1819" d="M759.5 422.455v1.5H758"/><path class="f4f7bed2-e87c-4d3b-b616-b98c55c20c38" d="M754.98 423.955H527.01"/><path class="b55ba748-d2e3-4b01-b775-b924822f1819" d="M525.5 423.955H524v-1.5"/><path class="af2ac5d9-4635-4a8d-9b80-2374e64d8671" d="M524 419.463V49.951"/><path class="b55ba748-d2e3-4b01-b775-b924822f1819" d="M524 48.455v-1.5h1.5"/><path class="f4f7bed2-e87c-4d3b-b616-b98c55c20c38" d="M528.519 46.955H756.49"/><path class="b55ba748-d2e3-4b01-b775-b924822f1819" d="M758 46.955h1.5v1.5"/><path class="af2ac5d9-4635-4a8d-9b80-2374e64d8671" d="M759.5 51.447v369.512"/><path class="a462e97e-01c6-45ee-a793-6623e625f093" d="M539 146.955h205v167H539z"/><path class="e73a33d3-ca2b-45c6-ac21-4e2346373d68" d="M554 205.955h175v93H554z"/><text class="b2aef2b8-4acf-4a8d-b3a0-f77547bb5088" transform="translate(553.5 172.298)"><tspan class="b2554b0d-2a51-4a6b-a826-42dff167fef7">B</tspan><tspan class="ac46b9a9-b2d1-4266-9a74-5a42f0163be3" x="8.85" y="0">r</tspan><tspan class="b8160362-eee0-4902-a337-08f87bae98bd" x="14.137" y="0">o</tspan><tspan class="f794fdfd-d9e6-4241-82ca-712f0e0e84a9" x="21.609" y="0">k</tspan><tspan class="f6b0b99b-8f32-46a0-808e-a5b00b7bb8ff" x="28.529" y="0">e</tspan><tspan x="35.704" y="0">r 3</tspan><tspan class="f37e7da5-2f1a-48a0-9eb6-cfdcd7abdc4a"><tspan class="a7536115-420c-468b-b11b-4c02e2011458" x="0" y="15">b</tspan><tspan class="f200a977-781f-40ee-93a6-4387c019ef45" x="7.028" y="15">r</tspan><tspan class="a7536115-420c-468b-b11b-4c02e2011458" x="11.108" y="15">o</tspan><tspan class="a36bf475-ccd1-4e18-928f-08f3a8071173" x="18.112" y="15">k</tspan><tspan class="b5b30aac-a263-48aa-b8b8-fe2f8bcda690" x="23.643" y="15">e</tspan><tspan class="f4efb52f-b210-4cd5-9dc6-59a399375da5" x="30.356" y="15">r</tspan><tspan class="b79dd72e-cb82-4173-a52d-5d6adaa2f044" x="33.855" y="15">.</tspan><tspan class="f928cbe6-9009-402a-a094-f44bfb64d05e" x="36.555" y="15">r</tspan><tspan x="40.797" y="15">a</tspan><tspan class="a956a82c-3f24-4c2c-b77e-13044591f9ef" x="47.108" y="15">c</tspan><tspan class="ff75aa87-84f1-4c85-8cd5-2f574a79044f" x="53.24" y="15">k</tspan><tspan class="eb470540-5515-40ee-92bb-ea640e9062ca" x="59.162" y="15">=e</tspan><tspan class="a46fb1ed-7dfc-4c79-8d90-059db640b461" x="72.242" y="15">u</tspan><tspan class="fb00009d-9d80-4110-92b1-0c32eef7efd3" x="78.776" y="15">-</tspan><tspan class="a670b021-d349-44c5-96a8-0ce9bccab0ea" x="84.086" y="15">w</tspan><tspan class="f8f8a5c7-5c98-465f-bc44-4053e5129e8c" x="92.357" y="15">e</tspan><tspan class="f3e3bda6-ea84-44de-8332-e28f31f2a4a3" x="99.088" y="15">s</tspan><tspan class="f5697934-f4b1-4966-9cfe-009955aea268" x="104.656" y="15">t</tspan><tspan class="e7447c52-ff45-483d-9ef1-8e7bd2fcbc70" x="108.436" y="15">-</tspan><tspan x="113.438" y="15" letter-spacing=".006em">1</tspan><tspan x="117.192" y="15">c</tspan></tspan></text><text class="f8c17dcd-6629-46b9-994f-4dd61bd9ac6a" transform="translate(569.001 229.06)"><tspan class="adf67d93-95ef-41e8-b43e-dbc0c4e38148">T</tspan><tspan class="ff75aa87-84f1-4c85-8cd5-2f574a79044f" x="6.623" y="0">o</tspan><tspan class="af7feff2-e9bc-48fa-b592-40b79d14af19" x="13.853" y="0">p</tspan><tspan x="21.212" y="0">ic 1</tspan></text><path class="b32b2df8-8a37-4ac5-b720-328a08e097cf" d="M569 243.955h45v40h-45z"/><text class="f8c17dcd-6629-46b9-994f-4dd61bd9ac6a" transform="translate(589.448 267.299)">1</text><path class="b32b2df8-8a37-4ac5-b720-328a08e097cf" d="M619 243.974h45v40h-45z"/><text class="f8c17dcd-6629-46b9-994f-4dd61bd9ac6a" transform="translate(638.08 267.298)">2</text><path class="e79d61f8-e04b-423e-b33c-a4ad429332c5" d="M669 243.974h45v40h-45z"/><text class="eaba6d98-2081-4fbd-a06e-7901f360e484" transform="translate(687.858 267.298)">3</text><path class="e73a33d3-ca2b-45c6-ac21-4e2346373d68" d="M581.874 413.909h119.753v20.094H581.874z"/><text class="f8c17dcd-6629-46b9-994f-4dd61bd9ac6a" transform="translate(589.3 427.587)"><tspan class="b5c672e0-56fd-4042-b5f1-22efeb1fecaa">A</tspan><tspan class="f928cbe6-9009-402a-a094-f44bfb64d05e" x="8.115" y="0">v</tspan><tspan class="ff75aa87-84f1-4c85-8cd5-2f574a79044f" x="14.638" y="0">a</tspan><tspan class="faf056c5-4703-4fdd-9859-2268f3f31dc6" x="21.291" y="0">i</tspan><tspan class="fe011be7-7483-4fcf-8e00-71b51095ec4c" x="24.391" y="0">l</tspan><tspan class="f5a1484d-cd81-4a4c-b63f-fe3d4acac7ec" x="27.456" y="0">a</tspan><tspan class="af7feff2-e9bc-48fa-b592-40b79d14af19" x="34.134" y="0">b</tspan><tspan class="faf056c5-4703-4fdd-9859-2268f3f31dc6" x="41.493" y="0">il</tspan><tspan class="b890ad1f-08c8-465d-a1ba-6219931f1396" x="47.692" y="0">i</tspan><tspan class="b2e49b9f-9817-4416-bd09-1e80c5cc5869" x="50.668" y="0">t</tspan><tspan x="55.966" y="0">y </tspan><tspan class="e8a2afb7-edf1-4b75-a6f9-fe1181eddf7d" x="65.109" y="0">Z</tspan><tspan class="ff75aa87-84f1-4c85-8cd5-2f574a79044f" x="72.403" y="0">o</tspan><tspan class="a7536115-420c-468b-b11b-4c02e2011458" x="79.633" y="0">n</tspan><tspan x="86.648" y="0">e C</tspan></text><path class="b55ba748-d2e3-4b01-b775-b924822f1819" d="M251 422.455v1.5h-1.5"/><path class="f4f7bed2-e87c-4d3b-b616-b98c55c20c38" d="M246.481 423.955H18.51"/><path class="b55ba748-d2e3-4b01-b775-b924822f1819" d="M17 423.955h-1.5v-1.5"/><path class="af2ac5d9-4635-4a8d-9b80-2374e64d8671" d="M15.5 419.463V49.951"/><path class="b55ba748-d2e3-4b01-b775-b924822f1819" d="M15.5 48.455v-1.5H17"/><path class="f4f7bed2-e87c-4d3b-b616-b98c55c20c38" d="M20.019 46.955H247.99"/><path class="b55ba748-d2e3-4b01-b775-b924822f1819" d="M249.5 46.955h1.5v1.5"/><path class="af2ac5d9-4635-4a8d-9b80-2374e64d8671" d="M251 51.447v369.512"/><path class="a462e97e-01c6-45ee-a793-6623e625f093" d="M539 338.955h205v60H539z"/><text class="f8c17dcd-6629-46b9-994f-4dd61bd9ac6a" transform="translate(611.011 364.863)"><tspan letter-spacing="-.008em">C</tspan><tspan class="ff75aa87-84f1-4c85-8cd5-2f574a79044f" x="8.584" y="0">o</tspan><tspan x="15.813" y="0" letter-spacing=".01em">n</tspan><tspan x="22.915" y="0" letter-spacing=".005em">s</tspan><tspan x="28.727" y="0" letter-spacing=".006em">u</tspan><tspan x="35.786" y="0" letter-spacing=".004em">me</tspan><tspan x="53.26" y="0">r</tspan><tspan class="f37e7da5-2f1a-48a0-9eb6-cfdcd7abdc4a"><tspan class="a956a82c-3f24-4c2c-b77e-13044591f9ef" x="-30.41" y="15">c</tspan><tspan x="-24.278" y="15" letter-spacing=".004em">l</tspan><tspan x="-21.551" y="15" letter-spacing="-.002em">i</tspan><tspan class="b5b30aac-a263-48aa-b8b8-fe2f8bcda690" x="-18.896" y="15">e</tspan><tspan class="fb00009d-9d80-4110-92b1-0c32eef7efd3" x="-12.182" y="15">n</tspan><tspan x="-5.708" y="15" letter-spacing=".01em">t</tspan><tspan x="-1.058" y="15" letter-spacing=".005em">.</tspan><tspan x="1.643" y="15" letter-spacing=".001em">r</tspan><tspan class="eb470540-5515-40ee-92bb-ea640e9062ca" x="5.884" y="15">a</tspan><tspan class="a956a82c-3f24-4c2c-b77e-13044591f9ef" x="12.196" y="15">c</tspan><tspan class="ff75aa87-84f1-4c85-8cd5-2f574a79044f" x="18.328" y="15">k</tspan><tspan x="24.25" y="15">=e</tspan><tspan class="a46fb1ed-7dfc-4c79-8d90-059db640b461" x="37.329" y="15">u</tspan><tspan class="fb00009d-9d80-4110-92b1-0c32eef7efd3" x="43.863" y="15">-</tspan><tspan class="a670b021-d349-44c5-96a8-0ce9bccab0ea" x="49.173" y="15">w</tspan><tspan x="57.444" y="15" letter-spacing=".004em">e</tspan><tspan x="64.176" y="15" letter-spacing=".012em">s</tspan><tspan x="69.743" y="15" letter-spacing="-.063em">t</tspan><tspan class="e7447c52-ff45-483d-9ef1-8e7bd2fcbc70" x="73.523" y="15">-</tspan><tspan x="78.526" y="15" letter-spacing=".006em">1</tspan><tspan class="eb470540-5515-40ee-92bb-ea640e9062ca" x="82.279" y="15">c</tspan></tspan></text><path class="a462e97e-01c6-45ee-a793-6623e625f093" d="M30.5 146.955h205v167h-205z"/><path class="e73a33d3-ca2b-45c6-ac21-4e2346373d68" d="M45.5 205.955h175v93h-175z"/><text class="b2aef2b8-4acf-4a8d-b3a0-f77547bb5088" transform="translate(45 172.298)"><tspan class="b2554b0d-2a51-4a6b-a826-42dff167fef7">B</tspan><tspan class="ac46b9a9-b2d1-4266-9a74-5a42f0163be3" x="8.85" y="0">r</tspan><tspan class="b8160362-eee0-4902-a337-08f87bae98bd" x="14.137" y="0">o</tspan><tspan class="f794fdfd-d9e6-4241-82ca-712f0e0e84a9" x="21.609" y="0">k</tspan><tspan class="f6b0b99b-8f32-46a0-808e-a5b00b7bb8ff" x="28.529" y="0">e</tspan><tspan x="35.704" y="0">r 1</tspan><tspan class="f37e7da5-2f1a-48a0-9eb6-cfdcd7abdc4a"><tspan class="a7536115-420c-468b-b11b-4c02e2011458" x="0" y="15">b</tspan><tspan class="f200a977-781f-40ee-93a6-4387c019ef45" x="7.028" y="15">r</tspan><tspan class="a7536115-420c-468b-b11b-4c02e2011458" x="11.108" y="15">o</tspan><tspan class="a36bf475-ccd1-4e18-928f-08f3a8071173" x="18.112" y="15">k</tspan><tspan class="b5b30aac-a263-48aa-b8b8-fe2f8bcda690" x="23.643" y="15">e</tspan><tspan class="f4efb52f-b210-4cd5-9dc6-59a399375da5" x="30.356" y="15">r</tspan><tspan class="b79dd72e-cb82-4173-a52d-5d6adaa2f044" x="33.855" y="15">.</tspan><tspan class="f928cbe6-9009-402a-a094-f44bfb64d05e" x="36.555" y="15">r</tspan><tspan x="40.797" y="15">a</tspan><tspan class="a956a82c-3f24-4c2c-b77e-13044591f9ef" x="47.108" y="15">c</tspan><tspan class="ff75aa87-84f1-4c85-8cd5-2f574a79044f" x="53.24" y="15">k</tspan><tspan class="eb470540-5515-40ee-92bb-ea640e9062ca" x="59.162" y="15">=e</tspan><tspan class="a46fb1ed-7dfc-4c79-8d90-059db640b461" x="72.242" y="15">u</tspan><tspan class="fb00009d-9d80-4110-92b1-0c32eef7efd3" x="78.776" y="15">-</tspan><tspan class="a670b021-d349-44c5-96a8-0ce9bccab0ea" x="84.086" y="15">w</tspan><tspan class="f8f8a5c7-5c98-465f-bc44-4053e5129e8c" x="92.357" y="15">e</tspan><tspan class="f3e3bda6-ea84-44de-8332-e28f31f2a4a3" x="99.088" y="15">s</tspan><tspan class="f5697934-f4b1-4966-9cfe-009955aea268" x="104.656" y="15">t</tspan><tspan class="e7447c52-ff45-483d-9ef1-8e7bd2fcbc70" x="108.436" y="15">-</tspan><tspan x="113.438" y="15" letter-spacing=".004em">1</tspan><tspan x="117.173" y="15">a</tspan></tspan></text><text class="f8c17dcd-6629-46b9-994f-4dd61bd9ac6a" transform="translate(60.501 229.06)"><tspan class="adf67d93-95ef-41e8-b43e-dbc0c4e38148">T</tspan><tspan class="ff75aa87-84f1-4c85-8cd5-2f574a79044f" x="6.623" y="0">o</tspan><tspan class="af7feff2-e9bc-48fa-b592-40b79d14af19" x="13.853" y="0">p</tspan><tspan x="21.212" y="0">ic 1</tspan></text><path class="e79d61f8-e04b-423e-b33c-a4ad429332c5" d="M60.5 243.955h45v40h-45z"/><text class="eaba6d98-2081-4fbd-a06e-7901f360e484" transform="translate(80.948 267.299)">1</text><path class="b32b2df8-8a37-4ac5-b720-328a08e097cf" d="M110.5 243.974h45v40h-45z"/><text class="f8c17dcd-6629-46b9-994f-4dd61bd9ac6a" transform="translate(129.58 267.298)">2</text><path class="b32b2df8-8a37-4ac5-b720-328a08e097cf" d="M160.5 243.974h45v40h-45z"/><text class="f8c17dcd-6629-46b9-994f-4dd61bd9ac6a" transform="translate(179.358 267.298)">3</text><path class="b32b2df8-8a37-4ac5-b720-328a08e097cf" d="M71.5 14.721l-18-.008V32.71l.002.003h17.991l.007-17.992z"/><path class="e79d61f8-e04b-423e-b33c-a4ad429332c5" d="M48.5 14.721l-18-.008V32.71l.002.003h17.991l.007-17.992z"/><text class="f8c17dcd-6629-46b9-994f-4dd61bd9ac6a" transform="translate(77.201 27.036)"><tspan letter-spacing="-.01em">P</tspan><tspan x="8.031" y="0" letter-spacing=".007em">a</tspan><tspan x="14.709" y="0" letter-spacing=".019em">r</tspan><tspan class="b954fad7-8ee4-42f0-ab73-71ae91651c24" x="19.659" y="0">t</tspan><tspan x="24.614" y="0" letter-spacing="-.004em">i</tspan><tspan class="b954fad7-8ee4-42f0-ab73-71ae91651c24" x="27.59" y="0">t</tspan><tspan x="32.544" y="0">i</tspan><tspan x="35.568" y="0" letter-spacing=".005em">o</tspan><tspan x="42.798" y="0">n</tspan></text><g><path class="a22724c2-e95f-442f-a07e-1eb88ee58eca" d="M284.105 91.955H.5v172.019h50.324"/><path class="e79d61f8-e04b-423e-b33c-a4ad429332c5" d="M49.365 268.961L58 263.974l-8.635-4.986v9.973z"/></g><g><path class="a22724c2-e95f-442f-a07e-1eb88ee58eca" d="M489.75 91.955H691.5v142.343"/><path class="e79d61f8-e04b-423e-b33c-a4ad429332c5" d="M686.513 232.839l4.987 8.635 4.986-8.635h-9.973z"/></g><g><path class="b67c894b-b719-4ad0-8a4d-b56e0b05202f" d="M591.5 283.974v45.305"/><path class="f9c6b72f-87f6-49cf-a075-cf6139a6f713" d="M586.514 327.82l4.986 8.635 4.986-8.635h-9.972z"/></g><g><path class="b67c894b-b719-4ad0-8a4d-b56e0b05202f" d="M641.5 283.974v45.305"/><path class="f9c6b72f-87f6-49cf-a075-cf6139a6f713" d="M636.514 327.82l4.986 8.635 4.986-8.635h-9.972z"/></g><g><path class="b67c894b-b719-4ad0-8a4d-b56e0b05202f" d="M691.5 283.974v45.305"/><path class="f9c6b72f-87f6-49cf-a075-cf6139a6f713" d="M686.514 327.82l4.986 8.635 4.986-8.635h-9.972z"/></g><path class="e73a33d3-ca2b-45c6-ac21-4e2346373d68" d="M73.374 413.909h119.753v20.094H73.374z"/><text class="f8c17dcd-6629-46b9-994f-4dd61bd9ac6a" transform="translate(80.956 427.587)"><tspan class="b5c672e0-56fd-4042-b5f1-22efeb1fecaa">A</tspan><tspan class="f928cbe6-9009-402a-a094-f44bfb64d05e" x="8.115" y="0">v</tspan><tspan class="ff75aa87-84f1-4c85-8cd5-2f574a79044f" x="14.638" y="0">a</tspan><tspan class="faf056c5-4703-4fdd-9859-2268f3f31dc6" x="21.291" y="0">i</tspan><tspan class="fe011be7-7483-4fcf-8e00-71b51095ec4c" x="24.391" y="0">l</tspan><tspan class="f5a1484d-cd81-4a4c-b63f-fe3d4acac7ec" x="27.456" y="0">a</tspan><tspan class="af7feff2-e9bc-48fa-b592-40b79d14af19" x="34.134" y="0">b</tspan><tspan class="faf056c5-4703-4fdd-9859-2268f3f31dc6" x="41.493" y="0">il</tspan><tspan class="b890ad1f-08c8-465d-a1ba-6219931f1396" x="47.692" y="0">i</tspan><tspan class="b2e49b9f-9817-4416-bd09-1e80c5cc5869" x="50.668" y="0">t</tspan><tspan x="55.966" y="0">y </tspan><tspan class="e8a2afb7-edf1-4b75-a6f9-fe1181eddf7d" x="65.109" y="0">Z</tspan><tspan class="ff75aa87-84f1-4c85-8cd5-2f574a79044f" x="72.403" y="0">o</tspan><tspan class="a7536115-420c-468b-b11b-4c02e2011458" x="79.633" y="0">n</tspan><tspan x="86.648" y="0">e A</tspan></text><path class="a462e97e-01c6-45ee-a793-6623e625f093" d="M284.75 61.955h205v60h-205z"/><text class="f8c17dcd-6629-46b9-994f-4dd61bd9ac6a" transform="translate(361.475 95.28)"><tspan letter-spacing="-.01em">P</tspan><tspan x="8.031" y="0" letter-spacing="-.007em">r</tspan><tspan x="12.669" y="0">o</tspan><tspan x="19.845" y="0" letter-spacing=".006em">d</tspan><tspan class="fe011be7-7483-4fcf-8e00-71b51095ec4c" x="27.238" y="0">u</tspan><tspan x="34.263" y="0" letter-spacing="-.01em">c</tspan><tspan class="f8f8a5c7-5c98-465f-bc44-4053e5129e8c" x="40.413" y="0">e</tspan><tspan x="47.336" y="0">r</tspan></text><text class="b2aef2b8-4acf-4a8d-b3a0-f77547bb5088" transform="translate(299.25 172.298)"><tspan class="b2554b0d-2a51-4a6b-a826-42dff167fef7">B</tspan><tspan class="ac46b9a9-b2d1-4266-9a74-5a42f0163be3" x="8.85" y="0">r</tspan><tspan class="b8160362-eee0-4902-a337-08f87bae98bd" x="14.137" y="0">o</tspan><tspan class="f794fdfd-d9e6-4241-82ca-712f0e0e84a9" x="21.609" y="0">k</tspan><tspan class="f6b0b99b-8f32-46a0-808e-a5b00b7bb8ff" x="28.529" y="0">e</tspan><tspan x="35.704" y="0">r 2</tspan><tspan class="f37e7da5-2f1a-48a0-9eb6-cfdcd7abdc4a"><tspan class="a7536115-420c-468b-b11b-4c02e2011458" x="0" y="15">b</tspan><tspan class="f200a977-781f-40ee-93a6-4387c019ef45" x="7.028" y="15">r</tspan><tspan class="a7536115-420c-468b-b11b-4c02e2011458" x="11.108" y="15">o</tspan><tspan class="a36bf475-ccd1-4e18-928f-08f3a8071173" x="18.112" y="15">k</tspan><tspan class="b5b30aac-a263-48aa-b8b8-fe2f8bcda690" x="23.643" y="15">e</tspan><tspan class="f4efb52f-b210-4cd5-9dc6-59a399375da5" x="30.356" y="15">r</tspan><tspan class="b79dd72e-cb82-4173-a52d-5d6adaa2f044" x="33.855" y="15">.</tspan><tspan class="f928cbe6-9009-402a-a094-f44bfb64d05e" x="36.555" y="15">r</tspan><tspan x="40.797" y="15">a</tspan><tspan class="a956a82c-3f24-4c2c-b77e-13044591f9ef" x="47.108" y="15">c</tspan><tspan class="ff75aa87-84f1-4c85-8cd5-2f574a79044f" x="53.24" y="15">k</tspan><tspan class="eb470540-5515-40ee-92bb-ea640e9062ca" x="59.162" y="15">=e</tspan><tspan class="a46fb1ed-7dfc-4c79-8d90-059db640b461" x="72.242" y="15">u</tspan><tspan class="fb00009d-9d80-4110-92b1-0c32eef7efd3" x="78.776" y="15">-</tspan><tspan class="a670b021-d349-44c5-96a8-0ce9bccab0ea" x="84.086" y="15">w</tspan><tspan class="f8f8a5c7-5c98-465f-bc44-4053e5129e8c" x="92.357" y="15">e</tspan><tspan class="f3e3bda6-ea84-44de-8332-e28f31f2a4a3" x="99.088" y="15">s</tspan><tspan class="f5697934-f4b1-4966-9cfe-009955aea268" x="104.656" y="15">t</tspan><tspan class="e7447c52-ff45-483d-9ef1-8e7bd2fcbc70" x="108.436" y="15">-</tspan><tspan x="113.438" y="15" letter-spacing=".009em">1</tspan><tspan x="117.234" y="15">b</tspan></tspan></text><g><text transform="translate(692.241 455.802)" font-size="10" fill="#f3f3f3" font-family="RedHatText,&quot;Red Hat Text&quot;,Overpass,&quot;Helvetica Neue&quot;,Arial,sans-serif">128_AMQ_1220</text><path fill="none" d="M0 432.785h760v40H0z"/></g></svg>