<svg version="1.1" id="bcd55aa7-8cc3-4bbe-b7d8-9615a851f9b7" xmlns="http://www.w3.org/2000/svg" x="0" y="0" viewBox="0 0 760 657" xml:space="preserve"><style>.st0{fill:#f3f3f3}.st1{fill:#151515}.st2{font-family:RedHatText,&quot;Red Hat Text&quot;,Overpass,&quot;Helvetica Neue&quot;,Arial,sans-serif;font-weight:700}.st3{font-size:11px}.st5{font-family:LiberationMono,&quot;Liberation Mono&quot;,Consolas,Monaco,&quot;Andale Mono&quot;,monospace}.st6{font-size:10px}.st7{fill:#fff}.st8{fill:#dfeac0}.st9{fill:none;stroke:#151515;stroke-linecap:round;stroke-linejoin:round}.st11{fill:none;stroke:#f3f3f3;stroke-width:1.5;stroke-miterlimit:10}.st12{font-size:12px}.st14{font-size:9.9px}.st17{font-family:RedHatText,&quot;Red Hat Text&quot;,Overpass,&quot;Helvetica Neue&quot;,Arial,sans-serif;font-weight:500}.st19{fill:#fff;stroke:#5b5b5b;stroke-width:1.5;stroke-linecap:round;stroke-linejoin:round}</style><path class="st0" d="M590 56.7h170v120H590z"/><text transform="translate(605 82.535)" class="st1 st2 st3">n</text><text transform="translate(611.883 82.535)" class="st1 st2 st3">a</text><text transform="translate(618.388 82.535)" class="st1 st2 st3">me</text><text transform="translate(635.135 82.535)" class="st1 st2 st3">s</text><text transform="translate(640.887 82.535)" class="st1 st2 st3">p</text><text transform="translate(647.993 82.535)" class="st1 st2 st3">a</text><text transform="translate(654.44 82.535)" class="st1 st2 st3">c</text><text transform="translate(660.317 82.535)" class="st1 st2 st3">e</text><text transform="translate(666.629 82.535)" class="st1 st2 st3">/</text><text transform="translate(671.745 82.535)" class="st1 st2 st3">o</text><text transform="translate(678.638 82.535)" class="st1 st2 st3">p</text><text transform="translate(685.767 82.535)" class="st1 st2 st3">e</text><text transform="translate(692.386 82.535)" class="st1 st2 st3">n</text><text transform="translate(699.345 82.535)" class="st1 st2 st3">s</text><text transform="translate(705.098 82.535)" class="st1 st2 st3">h</text><text transform="translate(712.021 82.535)" class="st1 st2 st3">i</text><text transform="translate(715.167 82.535)" class="st1 st2 st3">f</text><text transform="translate(720.374 82.535)" class="st1 st2 st3">t</text><text transform="translate(725.426 82.535)" class="st1 st2 st3">-</text><text transform="translate(605 94.535)" class="st1 st2 st3">a</text><text transform="translate(611.496 94.535)" class="st1 st2 st3">u</text><text transform="translate(618.31 94.535)" class="st1 st2 st3">t</text><text transform="translate(623.593 94.535)" class="st1 st2 st3">h</text><text transform="translate(630.47 94.535)" class="st1 st2 st3">e</text><text transform="translate(637.089 94.535)" class="st1 st2 st3">n</text><text transform="translate(643.861 94.535)" class="st1 st2 st3">t</text><text transform="translate(649.12 94.535)" class="st1 st2 st3">i</text><text transform="translate(652.352 94.535)" class="st1 st2 st3">c</text><text transform="translate(658.385 94.535)" class="st1 st2 st3">a</text><text transform="translate(664.717 94.535)" class="st1 st2 st3">t</text><text transform="translate(669.977 94.535)" class="st1 st2 st3">i</text><text transform="translate(673.207 94.535)" class="st1 st2 st3">o</text><text transform="translate(680.1 94.535)" class="st1 st2 st3">n</text><path fill="#df3dc0" d="M604.8 111.7h140v50h-140z"/><text transform="translate(614.74 135.856)" class="st1 st5 st6">secrets/v4-0-config-</text><text transform="translate(617.741 147.856)" class="st1 st5 st6">system-router-certs</text><circle class="st1" cx="674.8" cy="111.7" r="9"/><text transform="translate(669.099 115.496)" class="st7 st2 st3">12</text><path class="st0" d="M590 491.6h170v125H590z"/><text transform="translate(605 514.947)" class="st1 st2 st3">n</text><text transform="translate(611.883 514.947)" class="st1 st2 st3">a</text><text transform="translate(618.388 514.947)" class="st1 st2 st3">me</text><text transform="translate(635.135 514.947)" class="st1 st2 st3">s</text><text transform="translate(640.887 514.947)" class="st1 st2 st3">p</text><text transform="translate(647.993 514.947)" class="st1 st2 st3">a</text><text transform="translate(654.44 514.947)" class="st1 st2 st3">c</text><text transform="translate(660.317 514.947)" class="st1 st2 st3">e</text><text transform="translate(666.629 514.947)" class="st1 st2 st3">/</text><text transform="translate(671.745 514.947)" class="st1 st2 st3">o</text><text transform="translate(678.638 514.947)" class="st1 st2 st3">p</text><text transform="translate(685.767 514.947)" class="st1 st2 st3">e</text><text transform="translate(692.386 514.947)" class="st1 st2 st3">n</text><text transform="translate(699.345 514.947)" class="st1 st2 st3">s</text><text transform="translate(705.098 514.947)" class="st1 st2 st3">h</text><text transform="translate(712.021 514.947)" class="st1 st2 st3">i</text><text transform="translate(715.167 514.947)" class="st1 st2 st3">f</text><text transform="translate(720.374 514.947)" class="st1 st2 st3">t</text><text transform="translate(725.426 514.947)" class="st1 st2 st3">-</text><text transform="translate(605 526.947)" class="st1 st2 st3">c</text><text transform="translate(610.876 526.947)" class="st1 st2 st3">o</text><text transform="translate(617.769 526.947)" class="st1 st2 st3">n</text><text transform="translate(624.729 526.947)" class="st1 st2 st3">s</text><text transform="translate(630.409 526.947)" class="st1 st2 st3">ol</text><text transform="translate(640.554 526.947)" class="st1 st2 st3">e</text><path class="st8" d="M605 551.6h140v50H605z"/><text transform="translate(617.991 575.768)" class="st1 st5 st6">configmaps/default-</text><text transform="translate(638.994 587.768)" class="st1 st5 st6">ingress-cert</text><circle class="st1" cx="675" cy="551.6" r="9"/><text transform="translate(669.349 555.408)" class="st7 st2 st3">12</text><path class="st0" d="M590 196.7h170v120H590z"/><path class="st8" d="M604.8 251.6h140v50h-140z"/><text transform="translate(641.745 275.768)" class="st1 st5 st6">configmaps/</text><text transform="translate(626.742 287.768)" class="st1 st5 st6">serviceacount-ca</text><circle class="st1" cx="674.8" cy="251.6" r="9"/><text transform="translate(669.099 255.408)" class="st7 st2 st3">12</text><text transform="translate(605 222.379)" class="st1 st2 st3">n</text><text transform="translate(611.883 222.379)" class="st1 st2 st3">a</text><text transform="translate(618.388 222.379)" class="st1 st2 st3">me</text><text transform="translate(635.135 222.379)" class="st1 st2 st3">s</text><text transform="translate(640.887 222.379)" class="st1 st2 st3">p</text><text transform="translate(647.993 222.379)" class="st1 st2 st3">a</text><text transform="translate(654.44 222.379)" class="st1 st2 st3">c</text><text transform="translate(660.317 222.379)" class="st1 st2 st3">e</text><text transform="translate(666.629 222.379)" class="st1 st2 st3">/</text><text transform="translate(671.745 222.379)" class="st1 st2 st3">o</text><text transform="translate(678.638 222.379)" class="st1 st2 st3">p</text><text transform="translate(685.767 222.379)" class="st1 st2 st3">e</text><text transform="translate(692.386 222.379)" class="st1 st2 st3">n</text><text transform="translate(699.345 222.379)" class="st1 st2 st3">s</text><text transform="translate(705.098 222.379)" class="st1 st2 st3">h</text><text transform="translate(712.021 222.379)" class="st1 st2 st3">i</text><text transform="translate(715.167 222.379)" class="st1 st2 st3">f</text><text transform="translate(720.374 222.379)" class="st1 st2 st3">t</text><text transform="translate(725.426 222.379)" class="st1 st2 st3">-</text><text transform="translate(605 234.379)" class="st1 st2 st3">k</text><text transform="translate(611.693 234.379)" class="st1 st2 st3">u</text><text transform="translate(618.62 234.379)" class="st1 st2 st3">b</text><text transform="translate(625.749 234.379)" class="st1 st2 st3">e</text><text transform="translate(632.556 234.379)" class="st1 st2 st3">-</text><text transform="translate(638.004 234.379)" class="st1 st2 st3">c</text><text transform="translate(643.88 234.379)" class="st1 st2 st3">o</text><text transform="translate(650.772 234.379)" class="st1 st2 st3">n</text><text transform="translate(657.545 234.379)" class="st1 st2 st3">t</text><text transform="translate(662.828 234.379)" class="st1 st2 st3">r</text><text transform="translate(667.718 234.379)" class="st1 st2 st3">o</text><text transform="translate(674.61 234.379)" class="st1 st2 st3">l</text><text transform="translate(677.896 234.379)" class="st1 st2 st3">l</text><text transform="translate(681.149 234.379)" class="st1 st2 st3">e</text><text transform="translate(687.769 234.379)" class="st1 st2 st3">r</text><text transform="translate(692.673 234.379)" class="st1 st2 st3">-</text><text transform="translate(698.037 234.379)" class="st1 st2 st3">m</text><text transform="translate(708.182 234.379)" class="st1 st2 st3">a</text><text transform="translate(714.687 234.379)" class="st1 st2 st3">n</text><text transform="translate(721.569 234.379)" class="st1 st2 st3">a</text><text transform="translate(728.018 234.379)" class="st1 st2 st3">ge</text><text transform="translate(741.796 234.379)" class="st1 st2 st3">r</text><path class="st0" d="M590 341.6h170v125H590z"/><path class="st8" d="M605 401.8h140v50H605z"/><text transform="translate(641.995 424.742)" class="st1 st5 st6">configmaps/</text><text transform="translate(626.992 436.742)" class="st1 st5 st6">serviceacount-ca</text><circle class="st1" cx="675" cy="401.8" r="9"/><text transform="translate(669.349 405.605)" class="st7 st2 st3">12</text><text transform="translate(605 366.791)" class="st1 st2 st3">n</text><text transform="translate(611.883 366.791)" class="st1 st2 st3">a</text><text transform="translate(618.388 366.791)" class="st1 st2 st3">me</text><text transform="translate(635.135 366.791)" class="st1 st2 st3">s</text><text transform="translate(640.887 366.791)" class="st1 st2 st3">p</text><text transform="translate(647.993 366.791)" class="st1 st2 st3">a</text><text transform="translate(654.44 366.791)" class="st1 st2 st3">c</text><text transform="translate(660.317 366.791)" class="st1 st2 st3">e</text><text transform="translate(666.629 366.791)" class="st1 st2 st3">/</text><text transform="translate(671.745 366.791)" class="st1 st2 st3">o</text><text transform="translate(678.638 366.791)" class="st1 st2 st3">p</text><text transform="translate(685.767 366.791)" class="st1 st2 st3">e</text><text transform="translate(692.386 366.791)" class="st1 st2 st3">n</text><text transform="translate(699.345 366.791)" class="st1 st2 st3">s</text><text transform="translate(705.098 366.791)" class="st1 st2 st3">h</text><text transform="translate(712.021 366.791)" class="st1 st2 st3">i</text><text transform="translate(715.167 366.791)" class="st1 st2 st3">f</text><text transform="translate(720.374 366.791)" class="st1 st2 st3">t</text><text transform="translate(725.426 366.791)" class="st1 st2 st3">-</text><text transform="translate(605 378.791)" class="st1 st2 st3">k</text><text transform="translate(611.693 378.791)" class="st1 st2 st3">u</text><text transform="translate(618.62 378.791)" class="st1 st2 st3">b</text><text transform="translate(625.749 378.791)" class="st1 st2 st3">e</text><text transform="translate(632.556 378.791)" class="st1 st2 st3">-</text><text transform="translate(637.898 378.791)" class="st1 st2 st3">s</text><text transform="translate(643.58 378.791)" class="st1 st2 st3">c</text><text transform="translate(649.6 378.791)" class="st1 st2 st3">he</text><text transform="translate(663.068 378.791)" class="st1 st2 st3">d</text><text transform="translate(670.287 378.791)" class="st1 st2 st3">u</text><text transform="translate(677.214 378.791)" class="st1 st2 st3">l</text><text transform="translate(680.468 378.791)" class="st1 st2 st3">e</text><text transform="translate(687.087 378.791)" class="st1 st2 st3">r</text><path class="st0" d="M195 491.6h170v125H195zM390 341.6h170v125H390z"/><path class="st8" d="M405 402h140v50H405z"/><text transform="translate(441.994 425.18)" class="st1 st5 st6">configmaps/</text><text transform="translate(450.995 439.18)" class="st1 st5 st6">proxy-ca</text><circle class="st1" cx="475" cy="401.5" r="9"/><text transform="translate(470.515 405.319)" class="st7 st2 st3">11</text><path class="st0" d="M195 341.6h170v125H195z"/><path class="st8" d="M210 401.5h140v50H210z"/><text transform="translate(237.993 425.68)" class="st1 st5 st6">configmaps/my-</text><text transform="translate(246.995 437.68)" class="st1 st5 st6">certificate</text><path class="st9" d="M280 461.2v1.5"/><path fill="none" stroke="#151515" stroke-linecap="round" stroke-linejoin="round" stroke-dasharray="2.901,2.901" d="M280 465.6v74"/><path class="st9" d="M280 541v1.5"/><path class="st1" d="M275 462.7l5-8.7 5 8.7z"/><path class="st11" d="M570 351.6v125H400"/><path class="st11" d="M565 346.6v125H395"/><path class="st0" d="M390 56.7h170v260H390zM195 56.7h170v260H195zM0 56.7h170v260H0z"/><text transform="translate(210 80.035)" class="st1 st2 st12">n</text><text transform="translate(217.462 80.035)" class="st1 st2 st12">a</text><text transform="translate(224.513 80.035)" class="st1 st2 st12">me</text><text transform="translate(242.688 80.035)" class="st1 st2 st12">s</text><text transform="translate(248.918 80.035)" class="st1 st2 st12">p</text><text transform="translate(256.622 80.035)" class="st1 st2 st12">a</text><text transform="translate(263.609 80.035)" class="st1 st2 st12">c</text><text transform="translate(269.971 80.035)" class="st1 st2 st12">e</text><text transform="translate(276.801 80.035)" class="st1 st2 st12">/</text><text transform="translate(282.318 80.035)" class="st1 st2 st12">o</text><text transform="translate(289.791 80.035)" class="st1 st2 st12">p</text><text transform="translate(297.519 80.035)" class="st1 st2 st12">e</text><text transform="translate(304.693 80.035)" class="st1 st2 st12">n</text><text transform="translate(312.24 80.035)" class="st1 st2 st12">s</text><text transform="translate(318.471 80.035)" class="st1 st2 st12">h</text><text transform="translate(325.979 80.035)" class="st1 st2 st12">i</text><text transform="translate(329.362 80.035)" class="st1 st2 st12">f</text><text transform="translate(334.998 80.035)" class="st1 st2 st12">t</text><text transform="translate(340.458 80.035)" class="st1 st2 st12">-</text><text transform="translate(210 92.035)" class="st1 st2 st12">i</text><text transform="translate(213.545 92.035)" class="st1 st2 st12">n</text><text transform="translate(221.023 92.035)" class="st1 st2 st12">g</text><text transform="translate(228.828 92.035)" class="st1 st2 st12">r</text><text transform="translate(234.115 92.035)" class="st1 st2 st12">e</text><text transform="translate(241.276 92.035)" class="st1 st2 st12">s</text><text transform="translate(247.481 92.035)" class="st1 st2 st12">s</text><text transform="translate(15 80.035)" class="st1 st2 st12">n</text><text transform="translate(22.462 80.035)" class="st1 st2 st12">a</text><text transform="translate(29.513 80.035)" class="st1 st2 st12">me</text><text transform="translate(47.688 80.035)" class="st1 st2 st12">s</text><text transform="translate(53.918 80.035)" class="st1 st2 st12">p</text><text transform="translate(61.622 80.035)" class="st1 st2 st12">a</text><text transform="translate(68.609 80.035)" class="st1 st2 st12">c</text><text transform="translate(74.971 80.035)" class="st1 st2 st12">e</text><text transform="translate(81.801 80.035)" class="st1 st2 st12">/</text><text transform="translate(87.318 80.035)" class="st1 st2 st12">o</text><text transform="translate(94.791 80.035)" class="st1 st2 st12">p</text><text transform="translate(102.519 80.035)" class="st1 st2 st12">e</text><text transform="translate(109.693 80.035)" class="st1 st2 st12">n</text><text transform="translate(117.24 80.035)" class="st1 st2 st12">s</text><text transform="translate(123.471 80.035)" class="st1 st2 st12">h</text><text transform="translate(130.979 80.035)" class="st1 st2 st12">i</text><text transform="translate(134.362 80.035)" class="st1 st2 st12">f</text><text transform="translate(139.998 80.035)" class="st1 st2 st12">t</text><text transform="translate(145.458 80.035)" class="st1 st2 st12">-</text><text transform="translate(15 92.035)" class="st1 st2 st12">i</text><text transform="translate(18.545 92.035)" class="st1 st2 st12">n</text><text transform="translate(26.023 92.035)" class="st1 st2 st12">g</text><text transform="translate(33.828 92.035)" class="st1 st2 st12">r</text><text transform="translate(39.115 92.035)" class="st1 st2 st12">e</text><text transform="translate(46.276 92.035)" class="st1 st2 st12">s</text><text transform="translate(52.481 92.035)" class="st1 st2 st12">s</text><text transform="translate(58.653 92.035)" class="st1 st2 st12">-</text><text transform="translate(64.552 92.035)" class="st1 st2 st12">o</text><text transform="translate(72.024 92.035)" class="st1 st2 st12">p</text><text transform="translate(79.752 92.035)" class="st1 st2 st12">e</text><text transform="translate(86.927 92.035)" class="st1 st2 st12">r</text><text transform="translate(92.22 92.035)" class="st1 st2 st12">a</text><text transform="translate(99.079 92.035)" class="st1 st2 st12">to</text><text transform="translate(112.087 92.035)" class="st1 st2 st12">r</text><text transform="translate(405 80.035)" class="st1 st2 st12">n</text><text transform="translate(412.462 80.035)" class="st1 st2 st12">a</text><text transform="translate(419.513 80.035)" class="st1 st2 st12">me</text><text transform="translate(437.688 80.035)" class="st1 st2 st12">s</text><text transform="translate(443.918 80.035)" class="st1 st2 st12">p</text><text transform="translate(451.622 80.035)" class="st1 st2 st12">a</text><text transform="translate(458.609 80.035)" class="st1 st2 st12">c</text><text transform="translate(464.97 80.035)" class="st1 st2 st12">e</text><text transform="translate(471.801 80.035)" class="st1 st2 st12">/</text><text transform="translate(477.318 80.035)" class="st1 st2 st12">o</text><text transform="translate(484.791 80.035)" class="st1 st2 st12">p</text><text transform="translate(492.519 80.035)" class="st1 st2 st12">e</text><text transform="translate(499.693 80.035)" class="st1 st2 st12">n</text><text transform="translate(507.24 80.035)" class="st1 st2 st12">s</text><text transform="translate(513.47 80.035)" class="st1 st2 st12">h</text><text transform="translate(520.979 80.035)" class="st1 st2 st12">i</text><text transform="translate(524.362 80.035)" class="st1 st2 st12">f</text><text transform="translate(529.998 80.035)" class="st1 st2 st12">t</text><text transform="translate(535.458 80.035)" class="st1 st2 st12">-</text><text transform="translate(405 92.035)" class="st1 st2 st12">c</text><text transform="translate(411.361 92.035)" class="st1 st2 st12">o</text><text transform="translate(418.833 92.035)" class="st1 st2 st12">n</text><text transform="translate(426.166 92.035)" class="st1 st2 st12">f</text><text transform="translate(431.67 92.035)" class="st1 st2 st12">i</text><text transform="translate(435.147 92.035)" class="st1 st2 st12">g</text><text transform="translate(443.028 92.035)" class="st1 st2 st12">-</text><text transform="translate(448.834 92.035)" class="st1 st2 st12">m</text><text transform="translate(459.854 92.035)" class="st1 st2 st12">a</text><text transform="translate(466.904 92.035)" class="st1 st2 st12">n</text><text transform="translate(474.366 92.035)" class="st1 st2 st12">a</text><text transform="translate(481.354 92.035)" class="st1 st2 st12">g</text><text transform="translate(489.123 92.035)" class="st1 st2 st12">e</text><text transform="translate(496.264 92.035)" class="st1 st2 st12">d</text><path class="st8" d="M210 111.6h140v110H210z"/><text transform="translate(220 132.797)" class="st1 st5 st6">deployments/router-</text><text transform="translate(220 144.797)" class="st1 st5 st6">default</text><circle class="st1" cx="280" cy="111.6" r="9"/><text transform="translate(276.268 115.408)" class="st7 st2 st3">3</text><path class="st9" d="M395.3 136.6H380v50"/><path class="st1" d="M393.9 131.6l8.6 5-8.6 5z"/><path class="st9" d="M395.3 206.6H380v-20h-40"/><path class="st1" d="M393.9 201.6l8.6 5-8.6 5z"/><path fill="#c9dc95" d="M220 161.6h120v50H220z"/><text transform="translate(246.995 182.797)" class="st1 st5 st6">secrets/my-</text><text transform="translate(246.995 194.797)" class="st1 st5 st6">certificate</text><circle class="st1" cx="280" cy="161.6" r="9"/><text transform="translate(276.82 165.03)" class="st7 st2 st14">2</text><path class="st9" d="M279.8 405.6v-129h115.5"/><path class="st1" d="M393.9 281.6l8.6-5-8.6-5z"/><path class="st9" d="M475 382.9v-81.3"/><path class="st1" d="M480 381.4l-5 8.6-5-8.6z"/><path class="st9" d="M210.3 194.1H84.8v138.5"/><path class="st1" d="M208.9 189.1l8.6 5-8.6 5z"/><path class="st9" d="M210.3 179.1h-1.5"/><path fill="none" stroke="#151515" stroke-linecap="round" stroke-linejoin="round" stroke-dasharray="2.99,2.99" d="M205.8 179.1H87.7"/><path class="st9" d="M86.2 179.1h-1.4v-1.5"/><path fill="none" stroke="#151515" stroke-linecap="round" stroke-linejoin="round" stroke-dasharray="2.9,2.9" d="M84.8 174.7v-10.1"/><path class="st9" d="M84.8 163.1v-1.5"/><path class="st1" d="M208.9 174.1l8.6 5-8.6 5z"/><path class="st8" d="M15 111.6h140v50H15z"/><text transform="translate(27.991 135.768)" class="st1 st5 st6">ingresscontrollers/</text><text transform="translate(63.997 147.768)" class="st1 st5 st6">default</text><text transform="translate(33.927 28.42)" class="st1 st17 st6">R</text><text transform="translate(40.397 28.42)" class="st1 st17 st6">e</text><text transform="translate(45.977 28.42)" class="st1 st17 st6">f</text><text transform="translate(49.917 28.42)" class="st1 st17 st6">e</text><text transform="translate(55.647 28.42)" class="st1 st17 st6">r</text><text transform="translate(59.337 28.42)" class="st1 st17 st6">en</text><text transform="translate(70.887 28.42)" class="st1 st17 st6">c</text><text transform="translate(75.967 28.42)" class="st1 st17 st6">e</text><path class="st9" d="M20.8 25.1h-1.5"/><path fill="none" stroke="#151515" stroke-linecap="round" stroke-linejoin="round" stroke-dasharray="3.465,3.465" d="M15.9 25.1H3.7"/><path class="st9" d="M2 25.1H.5"/><path class="st1" d="M19.4 20.1l8.6 5-8.6 5z"/><text transform="translate(137.697 28.42)" class="st1 st17 st6">C</text><text transform="translate(144.777 28.42)" class="st1 st17 st6">o</text><text transform="translate(150.757 28.42)" class="st1 st17 st6">n</text><text transform="translate(156.426 28.42)" class="st1 st17 st6">t</text><text transform="translate(160.497 28.42)" class="st1 st17 st6">e</text><text transform="translate(166.227 28.42)" class="st1 st17 st6">n</text><text transform="translate(171.897 28.42)" class="st1 st17 st6">t</text><text transform="translate(176.136 28.42)" class="st1 st17 st6">s a</text><text transform="translate(188.676 28.42)" class="st1 st17 st6">r</text><text transform="translate(192.366 28.42)" class="st1 st17 st6">e</text><text transform="translate(200.346 28.42)" class="st1 st17 st6">c</text><text transform="translate(205.426 28.42)" class="st1 st17 st6">opi</text><text transform="translate(220.036 28.42)" class="st1 st17 st6">e</text><text transform="translate(225.796 28.42)" class="st1 st17 st6">d</text><path class="st9" d="M124.6 25.1h-20.3"/><path class="st1" d="M123.1 20.1l8.7 5-8.7 5z"/><path class="st9" d="M595.3 136.6h-50.4"/><path class="st1" d="M593.9 131.6l8.6 5-8.6 5z"/><circle class="st1" cx="85" cy="111.6" r="9"/><text transform="translate(80.949 115.408)" class="st7 st2 st3">0</text><path class="st9" d="M579.9 279.1h15.4"/><path class="st1" d="M593.9 284.1l8.6-5-8.6-5z"/><path class="st9" d="M579.9 424.3h15.4"/><path class="st1" d="M593.9 429.3l8.6-5-8.6-5z"/><path class="st9" d="M170 426.5h30.3"/><path class="st1" d="M198.9 431.5l8.6-5-8.6-5z"/><path class="st9" d="M595.3 576.6H580v-370h-35"/><path class="st1" d="M593.9 571.6l8.6 5-8.6 5z"/><path class="st0" d="M263.8 352.8h31.9v18.4h-31.9zM457.3 352.8h31.9v18.4h-31.9zM263.8 504.7h31.9v18.2h-31.9z"/><text transform="translate(210 364.947)" class="st1 st2 st3">n</text><text transform="translate(216.883 364.947)" class="st1 st2 st3">a</text><text transform="translate(223.388 364.947)" class="st1 st2 st3">me</text><text transform="translate(240.135 364.947)" class="st1 st2 st3">s</text><text transform="translate(245.887 364.947)" class="st1 st2 st3">p</text><text transform="translate(252.993 364.947)" class="st1 st2 st3">a</text><text transform="translate(259.441 364.947)" class="st1 st2 st3">c</text><text transform="translate(265.317 364.947)" class="st1 st2 st3">e</text><text transform="translate(271.629 364.947)" class="st1 st2 st3">/</text><text transform="translate(276.745 364.947)" class="st1 st2 st3">o</text><text transform="translate(283.638 364.947)" class="st1 st2 st3">p</text><text transform="translate(290.767 364.947)" class="st1 st2 st3">e</text><text transform="translate(297.386 364.947)" class="st1 st2 st3">n</text><text transform="translate(304.345 364.947)" class="st1 st2 st3">s</text><text transform="translate(310.098 364.947)" class="st1 st2 st3">h</text><text transform="translate(317.021 364.947)" class="st1 st2 st3">i</text><text transform="translate(320.167 364.947)" class="st1 st2 st3">f</text><text transform="translate(325.374 364.947)" class="st1 st2 st3">t</text><text transform="translate(330.426 364.947)" class="st1 st2 st3">-</text><text transform="translate(210 376.947)" class="st1 st2 st3">c</text><text transform="translate(215.876 376.947)" class="st1 st2 st3">o</text><text transform="translate(222.769 376.947)" class="st1 st2 st3">n</text><text transform="translate(229.536 376.947)" class="st1 st2 st3">f</text><text transform="translate(234.624 376.947)" class="st1 st2 st3">i</text><text transform="translate(237.854 376.947)" class="st1 st2 st3">g</text><g><circle class="st1" cx="280" cy="401.5" r="9"/><text transform="translate(276.191 405.32)" class="st7 st2 st3">9</text></g><path class="st8" d="M210 551.5h140v50H210z"/><text transform="translate(234.992 581.679)" class="st1 st5 st6">proxies/cluster</text><g><circle class="st1" cx="280" cy="551.5" r="9"/><text transform="translate(274.448 554.941)" class="st7 st2 st14">10</text></g><path class="st0" d="M0 341.6h170v125H0z"/><g><text transform="translate(73.043 430.789)" class="st1 st17 st3">User</text><path class="st19" d="M104.8 414.2c-.1-10.9-9-19.7-19.9-19.6-10.8.1-19.4 8.8-19.6 19.6h39.5z"/><ellipse class="st19" cx="85" cy="384.9" rx="9.9" ry="9.8"/></g><g><circle class="st1" cx="85" cy="341.6" r="9"/><text transform="translate(81.601 345.396)" class="st7 st2 st3">7</text></g><text transform="translate(210 514.947)" class="st1 st2 st3">c</text><text transform="translate(216.021 514.947)" class="st1 st2 st3">l</text><text transform="translate(219.318 514.947)" class="st1 st2 st3">u</text><text transform="translate(226.296 514.947)" class="st1 st2 st3">s</text><text transform="translate(231.94 514.947)" class="st1 st2 st3">t</text><text transform="translate(237.06 514.947)" class="st1 st2 st3">e</text><text transform="translate(243.678 514.947)" class="st1 st2 st3">r</text><text transform="translate(248.583 514.947)" class="st1 st2 st3">-</text><text transform="translate(253.926 514.947)" class="st1 st2 st3">s</text><text transform="translate(259.606 514.947)" class="st1 st2 st3">c</text><text transform="translate(265.482 514.947)" class="st1 st2 st3">o</text><text transform="translate(272.375 514.947)" class="st1 st2 st3">p</text><text transform="translate(279.504 514.947)" class="st1 st2 st3">e</text><text transform="translate(286.094 514.947)" class="st1 st2 st3">d</text><path class="st8" d="M405 111.6h140v50H405z"/><text transform="translate(429.993 135.768)" class="st1 st5 st6">secrets/router-</text><text transform="translate(459.997 147.768)" class="st1 st5 st6">certs</text><g><circle class="st1" cx="475" cy="111.6" r="9"/><text transform="translate(470.955 115.408)" class="st7 st2 st3">4</text></g><path class="st8" d="M405 181.6h140v50H405z"/><text transform="translate(417.991 205.768)" class="st1 st5 st6">configmaps/default-</text><text transform="translate(438.994 217.768)" class="st1 st5 st6">ingress-cert</text><g><circle class="st1" cx="475" cy="181.6" r="9"/><text transform="translate(471.17 185.408)" class="st7 st2 st3">6</text></g><path class="st8" d="M405 251.6h140v50H405z"/><text transform="translate(417.991 275.768)" class="st1 st5 st6">configmaps/trusted-</text><text transform="translate(447.995 287.768)" class="st1 st5 st6">ca-bundle</text><g><circle class="st1" cx="475" cy="251.6" r="9"/><text transform="translate(471.241 255.408)" class="st7 st2 st3">8</text></g><text transform="translate(405 364.947)" class="st1 st2 st3">R</text><text transform="translate(412.798 364.947)" class="st1 st2 st3">e</text><text transform="translate(419.387 364.947)" class="st1 st2 st3">q</text><text transform="translate(426.605 364.947)" class="st1 st2 st3">ue</text><text transform="translate(440.109 364.947)" class="st1 st2 st3">s</text><text transform="translate(445.753 364.947)" class="st1 st2 st3">t</text><text transform="translate(451.013 364.947)" class="st1 st2 st3">i</text><text transform="translate(454.304 364.947)" class="st1 st2 st3">n</text><text transform="translate(461.2 364.947)" class="st1 st2 st3">g</text><text transform="translate(470.627 364.947)" class="st1 st2 st3">n</text><text transform="translate(477.51 364.947)" class="st1 st2 st3">a</text><text transform="translate(484.016 364.947)" class="st1 st2 st3">me</text><text transform="translate(500.762 364.947)" class="st1 st2 st3">s</text><text transform="translate(506.515 364.947)" class="st1 st2 st3">p</text><text transform="translate(513.62 364.947)" class="st1 st2 st3">a</text><text transform="translate(520.068 364.947)" class="st1 st2 st3">c</text><text transform="translate(525.944 364.947)" class="st1 st2 st3">e</text><text transform="translate(532.553 364.947)" class="st1 st2 st3">s</text><g><text transform="translate(668.722 640.049)" class="st0 st6" font-family="RedHatText,&quot;Red Hat Text&quot;,Overpass,&quot;Helvetica Neue&quot;,Arial,sans-serif">75_OpenShift_0520</text><path fill="none" d="M0 617h760v40H0z"/></g></svg>