<svg xmlns="http://www.w3.org/2000/svg" width="760" height="443"><defs><pattern id="f42069e3-34ec-4bac-bfdf-227801aa19ba" data-name="diaginal hash (gray)" width="50" height="50" patternTransform="translate(-114.569 75.023)" patternUnits="userSpaceOnUse"><path class="a3fb2fd9-1da8-4efb-afc0-0b7c96be6659" d="M0 0h50v50H0z"/><path class="a366645e-184a-4ac2-9acc-088ced26c921" d="M50 50v.707l.707-.707H50zM54.849 50L50 54.849v1.414L56.263 50h-1.414zM60.404 50L50 60.404v1.414L61.818 50h-1.414zM65.96 50L50 65.96v1.414L67.374 50H65.96zM71.515 50L50 71.515v1.414L72.929 50h-1.414zM77.071 50L50 77.071v1.414L78.485 50h-1.414zM82.626 50L50 82.626v1.414L84.041 50h-1.415zM88.182 50L50 88.182v1.414L89.596 50h-1.414zM93.737 50L50 93.737v1.414L95.151 50h-1.414zM100 50h-.707L50 99.293V100h.707L100 50.707V50z"/><g><path class="a366645e-184a-4ac2-9acc-088ced26c921" d="M0 50v.707L.707 50H0zM4.849 50L0 54.849v1.414L6.263 50H4.849zM10.404 50L0 60.404v1.414L11.818 50h-1.414zM15.96 50L0 65.96v1.414L17.374 50H15.96zM21.515 50L0 71.515v1.414L22.929 50h-1.414zM27.071 50L0 77.071v1.414L28.485 50h-1.414zM32.626 50L0 82.626v1.414L34.041 50h-1.415zM38.182 50L0 88.182v1.414L39.596 50h-1.414zM43.737 50L0 93.737v1.414L45.151 50h-1.414zM50 50h-.707L0 99.293V100h.707L50 50.707V50z"/></g><path class="a366645e-184a-4ac2-9acc-088ced26c921" d="M0 50h-.707L-50 99.293V100h.707L0 50.707V50z"/><g><path class="a366645e-184a-4ac2-9acc-088ced26c921" d="M50 0v.707L50.707 0H50zM54.849 0L50 4.849v1.414L56.263 0h-1.414zM60.404 0L50 10.404v1.414L61.818 0h-1.414zM65.96 0L50 15.96v1.414L67.374 0H65.96zM71.515 0L50 21.515v1.414L72.929 0h-1.414zM77.071 0L50 27.071v1.414L78.485 0h-1.414zM82.626 0L50 32.626v1.414L84.041 0h-1.415zM88.182 0L50 38.182v1.414L89.596 0h-1.414zM93.737 0L50 43.737v1.414L95.151 0h-1.414zM100 0h-.707L50 49.293V50h.707L100 .707V0z"/></g><g><path class="a366645e-184a-4ac2-9acc-088ced26c921" d="M0 0v.707L.707 0H0zM4.849 0L0 4.849v1.414L6.263 0H4.849zM10.404 0L0 10.404v1.414L11.818 0h-1.414zM15.96 0L0 15.96v1.414L17.374 0H15.96zM21.515 0L0 21.515v1.414L22.929 0h-1.414zM27.071 0L0 27.071v1.414L28.485 0h-1.414zM32.626 0L0 32.626v1.414L34.041 0h-1.415zM38.182 0L0 38.182v1.414L39.596 0h-1.414zM43.737 0L0 43.737v1.414L45.151 0h-1.414zM50 0h-.707L0 49.293V50h.707L50 .707V0zM6.263 50L50 6.262V4.848L4.849 50h1.414zM11.818 50L50 11.818v-1.414L10.404 50h1.414zM17.374 50L50 17.374V15.96L15.96 50h1.414zM22.929 50L50 22.929v-1.414L21.515 50h1.414zM28.485 50L50 28.485v-1.414L27.071 50h1.414zM34.04 50L50 34.04v-1.414L32.626 50h1.414zM39.596 50L50 39.596v-1.414L38.182 50h1.414zM45.151 50L50 45.151v-1.414L43.737 50h1.414zM50 50v-.707l-.707.707H50z"/></g><g><path class="a366645e-184a-4ac2-9acc-088ced26c921" d="M0 0h-.707L-50 49.293V50h.707L0 .707V0zM-43.737 50L0 6.262V4.848L-45.151 50h1.414zM-38.182 50L0 11.818v-1.414L-39.596 50h1.414zM-32.626 50L0 17.374V15.96L-34.04 50h1.414zM-27.071 50L0 22.929v-1.414L-28.485 50h1.414zM-21.515 50L0 28.485v-1.414L-22.929 50h1.414zM-15.96 50L0 34.04v-1.414L-17.374 50h1.414zM-10.404 50L0 39.596v-1.414L-11.818 50h1.414zM-4.849 50L0 45.151v-1.414L-6.263 50h1.414zM0 50v-.707L-.707 50H0z"/></g><path class="a366645e-184a-4ac2-9acc-088ced26c921" d="M100-50h-.707L50-.707V0h.707L100-49.293V-50z"/><g><path class="a366645e-184a-4ac2-9acc-088ced26c921" d="M50-50h-.707L0-.707V0h.707L50-49.293V-50zM6.263 0L50-43.738v-1.414L4.849 0h1.414zM11.818 0L50-38.182v-1.414L10.404 0h1.414zM17.374 0L50-32.626v-1.414L15.96 0h1.414zM22.929 0L50-27.071v-1.414L21.515 0h1.414zM28.485 0L50-21.515v-1.414L27.071 0h1.414zM34.04 0L50-15.96v-1.414L32.626 0h1.414zM39.596 0L50-10.404v-1.414L38.182 0h1.414zM45.151 0L50-4.849v-1.414L43.737 0h1.414zM50 0v-.707L49.293 0H50z"/></g><g><path class="a366645e-184a-4ac2-9acc-088ced26c921" d="M0-50h-.707L-50-.707V0h.707L0-49.293V-50zM-43.737 0L0-43.738v-1.414L-45.151 0h1.414zM-38.182 0L0-38.182v-1.414L-39.596 0h1.414zM-32.626 0L0-32.626v-1.414L-34.04 0h1.414zM-27.071 0L0-27.071v-1.414L-28.485 0h1.414zM-21.515 0L0-21.515v-1.414L-22.929 0h1.414zM-15.96 0L0-15.96v-1.414L-17.374 0h1.414zM-10.404 0L0-10.404v-1.414L-11.818 0h1.414zM-4.849 0L0-4.849v-1.414L-6.263 0h1.414zM0 0v-.707L-.707 0H0z"/></g></pattern><pattern id="a157d360-6338-431a-8f15-41cbc474bf77" data-name="diaginal hash (gray)" width="50" height="50" patternTransform="translate(-114.569 190.023)" patternUnits="userSpaceOnUse"><path class="a3fb2fd9-1da8-4efb-afc0-0b7c96be6659" d="M0 0h50v50H0z"/><path class="a366645e-184a-4ac2-9acc-088ced26c921" d="M50 50v.707l.707-.707H50zM54.849 50L50 54.849v1.414L56.263 50h-1.414zM60.404 50L50 60.404v1.414L61.818 50h-1.414zM65.96 50L50 65.96v1.414L67.374 50H65.96zM71.515 50L50 71.515v1.414L72.929 50h-1.414zM77.071 50L50 77.071v1.414L78.485 50h-1.414zM82.626 50L50 82.626v1.414L84.041 50h-1.415zM88.182 50L50 88.182v1.414L89.596 50h-1.414zM93.737 50L50 93.737v1.414L95.151 50h-1.414zM100 50h-.707L50 99.293V100h.707L100 50.707V50z"/><g><path class="a366645e-184a-4ac2-9acc-088ced26c921" d="M0 50v.707L.707 50H0zM4.849 50L0 54.849v1.414L6.263 50H4.849zM10.404 50L0 60.404v1.414L11.818 50h-1.414zM15.96 50L0 65.96v1.414L17.374 50H15.96zM21.515 50L0 71.515v1.414L22.929 50h-1.414zM27.071 50L0 77.071v1.414L28.485 50h-1.414zM32.626 50L0 82.626v1.414L34.041 50h-1.415zM38.182 50L0 88.182v1.414L39.596 50h-1.414zM43.737 50L0 93.737v1.414L45.151 50h-1.414zM50 50h-.707L0 99.293V100h.707L50 50.707V50z"/></g><path class="a366645e-184a-4ac2-9acc-088ced26c921" d="M0 50h-.707L-50 99.293V100h.707L0 50.707V50z"/><g><path class="a366645e-184a-4ac2-9acc-088ced26c921" d="M50 0v.707L50.707 0H50zM54.849 0L50 4.849v1.414L56.263 0h-1.414zM60.404 0L50 10.404v1.414L61.818 0h-1.414zM65.96 0L50 15.96v1.414L67.374 0H65.96zM71.515 0L50 21.515v1.414L72.929 0h-1.414zM77.071 0L50 27.071v1.414L78.485 0h-1.414zM82.626 0L50 32.626v1.414L84.041 0h-1.415zM88.182 0L50 38.182v1.414L89.596 0h-1.414zM93.737 0L50 43.737v1.414L95.151 0h-1.414zM100 0h-.707L50 49.293V50h.707L100 .707V0z"/></g><g><path class="a366645e-184a-4ac2-9acc-088ced26c921" d="M0 0v.707L.707 0H0zM4.849 0L0 4.849v1.414L6.263 0H4.849zM10.404 0L0 10.404v1.414L11.818 0h-1.414zM15.96 0L0 15.96v1.414L17.374 0H15.96zM21.515 0L0 21.515v1.414L22.929 0h-1.414zM27.071 0L0 27.071v1.414L28.485 0h-1.414zM32.626 0L0 32.626v1.414L34.041 0h-1.415zM38.182 0L0 38.182v1.414L39.596 0h-1.414zM43.737 0L0 43.737v1.414L45.151 0h-1.414zM50 0h-.707L0 49.293V50h.707L50 .707V0zM6.263 50L50 6.262V4.848L4.849 50h1.414zM11.818 50L50 11.818v-1.414L10.404 50h1.414zM17.374 50L50 17.374V15.96L15.96 50h1.414zM22.929 50L50 22.929v-1.414L21.515 50h1.414zM28.485 50L50 28.485v-1.414L27.071 50h1.414zM34.04 50L50 34.04v-1.414L32.626 50h1.414zM39.596 50L50 39.596v-1.414L38.182 50h1.414zM45.151 50L50 45.151v-1.414L43.737 50h1.414zM50 50v-.707l-.707.707H50z"/></g><g><path class="a366645e-184a-4ac2-9acc-088ced26c921" d="M0 0h-.707L-50 49.293V50h.707L0 .707V0zM-43.737 50L0 6.262V4.848L-45.151 50h1.414zM-38.182 50L0 11.818v-1.414L-39.596 50h1.414zM-32.626 50L0 17.374V15.96L-34.04 50h1.414zM-27.071 50L0 22.929v-1.414L-28.485 50h1.414zM-21.515 50L0 28.485v-1.414L-22.929 50h1.414zM-15.96 50L0 34.04v-1.414L-17.374 50h1.414zM-10.404 50L0 39.596v-1.414L-11.818 50h1.414zM-4.849 50L0 45.151v-1.414L-6.263 50h1.414zM0 50v-.707L-.707 50H0z"/></g><path class="a366645e-184a-4ac2-9acc-088ced26c921" d="M100-50h-.707L50-.707V0h.707L100-49.293V-50z"/><g><path class="a366645e-184a-4ac2-9acc-088ced26c921" d="M50-50h-.707L0-.707V0h.707L50-49.293V-50zM6.263 0L50-43.738v-1.414L4.849 0h1.414zM11.818 0L50-38.182v-1.414L10.404 0h1.414zM17.374 0L50-32.626v-1.414L15.96 0h1.414zM22.929 0L50-27.071v-1.414L21.515 0h1.414zM28.485 0L50-21.515v-1.414L27.071 0h1.414zM34.04 0L50-15.96v-1.414L32.626 0h1.414zM39.596 0L50-10.404v-1.414L38.182 0h1.414zM45.151 0L50-4.849v-1.414L43.737 0h1.414zM50 0v-.707L49.293 0H50z"/></g><g><path class="a366645e-184a-4ac2-9acc-088ced26c921" d="M0-50h-.707L-50-.707V0h.707L0-49.293V-50zM-43.737 0L0-43.738v-1.414L-45.151 0h1.414zM-38.182 0L0-38.182v-1.414L-39.596 0h1.414zM-32.626 0L0-32.626v-1.414L-34.04 0h1.414zM-27.071 0L0-27.071v-1.414L-28.485 0h1.414zM-21.515 0L0-21.515v-1.414L-22.929 0h1.414zM-15.96 0L0-15.96v-1.414L-17.374 0h1.414zM-10.404 0L0-10.404v-1.414L-11.818 0h1.414zM-4.849 0L0-4.849v-1.414L-6.263 0h1.414zM0 0v-.707L-.707 0H0z"/></g></pattern><style>.a3fb2fd9-1da8-4efb-afc0-0b7c96be6659,.a5306c19-f4a3-4b58-95aa-735693f0edba,.b5a1c7b3-40c2-439b-bd38-fbedf77da56a,.bd17ad21-155c-449b-86e3-b47873332927,.bd541103-7126-4604-8ea1-10e122872bf6,.e63f9afa-f624-4d8a-9ad5-dc8e3271383c,.f0c964d2-d56b-4d86-9b9e-4f80fa198ecc,.f4701e53-969e-4c4b-9020-6cf17a63528d{fill:none}.a366645e-184a-4ac2-9acc-088ced26c921,.bb3c1d39-a7d9-4187-80ad-7525d6c91c88,.fe35b818-834f-47d8-8206-7f8c1ac34dae,.ff367e4a-f919-45f7-b1be-d15b7fce1387{fill:#151515}.a366645e-184a-4ac2-9acc-088ced26c921,.bd541103-7126-4604-8ea1-10e122872bf6{stroke:#151515}.a366645e-184a-4ac2-9acc-088ced26c921{stroke-miterlimit:10}.ac05bf5c-5d6f-404e-8fdc-c631f9b2a2a1,.f0c964d2-d56b-4d86-9b9e-4f80fa198ecc{stroke:#06c}.a5306c19-f4a3-4b58-95aa-735693f0edba,.ac05bf5c-5d6f-404e-8fdc-c631f9b2a2a1,.b51f8241-8d77-4c4b-91cf-6e2b5879498c,.b5a1c7b3-40c2-439b-bd38-fbedf77da56a,.bd17ad21-155c-449b-86e3-b47873332927,.bd541103-7126-4604-8ea1-10e122872bf6,.e63f9afa-f624-4d8a-9ad5-dc8e3271383c,.f0c964d2-d56b-4d86-9b9e-4f80fa198ecc,.f4701e53-969e-4c4b-9020-6cf17a63528d{stroke-linecap:round;stroke-linejoin:round}.a5306c19-f4a3-4b58-95aa-735693f0edba,.ac05bf5c-5d6f-404e-8fdc-c631f9b2a2a1,.b5a1c7b3-40c2-439b-bd38-fbedf77da56a,.bd17ad21-155c-449b-86e3-b47873332927,.f0c964d2-d56b-4d86-9b9e-4f80fa198ecc,.f4701e53-969e-4c4b-9020-6cf17a63528d{stroke-width:2px}.a5306c19-f4a3-4b58-95aa-735693f0edba{stroke:#c0d682}.abee631a-5a21-4ffe-9274-d643843e9317,.fe35b818-834f-47d8-8206-7f8c1ac34dae{font-size:11px;font-family:RedHatText,&quot;Red Hat Text&quot;,Overpass,&quot;Helvetica Neue&quot;,Arial,sans-serif;font-weight:500}.abee631a-5a21-4ffe-9274-d643843e9317,.ac05bf5c-5d6f-404e-8fdc-c631f9b2a2a1,.b51f8241-8d77-4c4b-91cf-6e2b5879498c{fill:#fff}.b51f8241-8d77-4c4b-91cf-6e2b5879498c,.bd17ad21-155c-449b-86e3-b47873332927,.e63f9afa-f624-4d8a-9ad5-dc8e3271383c{stroke:#5b5b5b}.b51f8241-8d77-4c4b-91cf-6e2b5879498c,.e63f9afa-f624-4d8a-9ad5-dc8e3271383c{stroke-width:1.5px}.f4701e53-969e-4c4b-9020-6cf17a63528d{stroke:#5e40be}.b8d85ac7-d367-405b-8213-f5d5cf9de390{fill:#e8e8e8}.ff367e4a-f919-45f7-b1be-d15b7fce1387{font-size:12px;font-family:RedHatText,&quot;Red Hat Text&quot;,Overpass,&quot;Helvetica Neue&quot;,Arial,sans-serif;font-weight:700}.b5a1c7b3-40c2-439b-bd38-fbedf77da56a{stroke:#4cb6d6}.e7beeb9c-3f1e-4b80-9c68-01b9acad8d3f{fill:#5e40be}.eee14205-5d40-4db4-be52-7e11c7ce3aa0{opacity:.35;mix-blend-mode:multiply}.a486d70d-c699-4eb0-9f12-aaadac46500a{fill:#06c}</style></defs><g style="isolation:isolate"><g id="befe5bc0-d43b-4c3d-b15d-a97359b0a4b8" data-name="artwork"><path class="f0c964d2-d56b-4d86-9b9e-4f80fa198ecc" d="M639 114.017V209.5"/><path stroke-width="10" stroke="#fff" stroke-linecap="round" stroke-linejoin="round" fill="none" d="M617.425 189.5H645.5"/><path class="a5306c19-f4a3-4b58-95aa-735693f0edba" d="M760 189.5H419.832v20M659 189.5v20"/><path class="f0c964d2-d56b-4d86-9b9e-4f80fa198ecc" d="M399.5 114.017V209.5"/><text class="fe35b818-834f-47d8-8206-7f8c1ac34dae" transform="translate(418.832 167.501)">Out-of-Band <tspan x="0" y="12">Management network</tspan></text><path class="f0c964d2-d56b-4d86-9b9e-4f80fa198ecc" d="M689.778 114.069v20"/><text class="fe35b818-834f-47d8-8206-7f8c1ac34dae" transform="translate(672.001 164.414)">Router</text><path class="b51f8241-8d77-4c4b-91cf-6e2b5879498c" d="M662.278 134.069h55v13.75h-55z"/><path class="bd17ad21-155c-449b-86e3-b47873332927" d="M711.398 139.966"/><path class="e63f9afa-f624-4d8a-9ad5-dc8e3271383c" d="M668.17 138.931v3.965M674.063 138.931v3.965M679.956 138.931v3.965M685.849 138.931v3.965M691.742 138.931v3.965M697.635 138.931v3.965"/><path class="a5306c19-f4a3-4b58-95aa-735693f0edba" d="M689.778 169.5v20"/><path class="f4701e53-969e-4c4b-9020-6cf17a63528d" d="M649 378v25M409.5 378v25"/><path class="b8d85ac7-d367-405b-8213-f5d5cf9de390" d="M299 209.5h221V378H299z"/><text class="ff367e4a-f919-45f7-b1be-d15b7fce1387" transform="translate(314 234.604)"><tspan>Master nodes x3</tspan></text><path class="b8d85ac7-d367-405b-8213-f5d5cf9de390" d="M0 209.5h281V378H0z"/><path class="f4701e53-969e-4c4b-9020-6cf17a63528d" d="M0 403h760"/><path class="f0c964d2-d56b-4d86-9b9e-4f80fa198ecc" d="M0 114.017h760"/><text class="fe35b818-834f-47d8-8206-7f8c1ac34dae" transform="translate(0 104.017)">Baremetal network</text><text class="fe35b818-834f-47d8-8206-7f8c1ac34dae" transform="translate(1 419.817)">Provisioning network</text><path class="f4701e53-969e-4c4b-9020-6cf17a63528d" d="M22.727 403v-50.25"/><path class="f0c964d2-d56b-4d86-9b9e-4f80fa198ecc" d="M22.727 114.009V264.25M436.439 94.017v20"/><path class="b5a1c7b3-40c2-439b-bd38-fbedf77da56a" d="M436.439 38.672v20"/><text class="fe35b818-834f-47d8-8206-7f8c1ac34dae" transform="translate(418.663 89.017)">Router</text><path class="b51f8241-8d77-4c4b-91cf-6e2b5879498c" d="M408.939 58.672h55v13.75h-55z"/><path class="bd17ad21-155c-449b-86e3-b47873332927" d="M458.06 64.569"/><path class="e63f9afa-f624-4d8a-9ad5-dc8e3271383c" d="M414.832 63.535v3.964M420.725 63.535v3.964M426.618 63.535v3.964M432.511 63.535v3.964M438.403 63.535v3.964M444.296 63.535v3.964"/><path class="f0c964d2-d56b-4d86-9b9e-4f80fa198ecc" d="M518.252 94.017v20"/><g><text class="fe35b818-834f-47d8-8206-7f8c1ac34dae" transform="translate(484.878 89.838)">DHCP server</text><path class="b51f8241-8d77-4c4b-91cf-6e2b5879498c" d="M490.684 59.493h55v13.75h-55z"/><path class="bd17ad21-155c-449b-86e3-b47873332927" d="M539.805 65.39"/><path class="e63f9afa-f624-4d8a-9ad5-dc8e3271383c" d="M497.42 67.35h8.25"/></g><path class="f0c964d2-d56b-4d86-9b9e-4f80fa198ecc" d="M601.063 94.017v20"/><g><text class="fe35b818-834f-47d8-8206-7f8c1ac34dae" transform="translate(571.814 89.838)">DNS server</text><path class="b51f8241-8d77-4c4b-91cf-6e2b5879498c" d="M573.495 59.493h55v13.75h-55z"/><path class="bd17ad21-155c-449b-86e3-b47873332927" d="M622.616 65.39"/><path class="e63f9afa-f624-4d8a-9ad5-dc8e3271383c" d="M580.23 67.35h8.25"/></g><g><text transform="translate(670.861 426.017)" font-size="10" fill="#f3f3f3" font-family="RedHatText,&quot;Red Hat Text&quot;,Overpass,&quot;Helvetica Neue&quot;,Arial,sans-serif">71_OpenShift_0920</text><path class="a3fb2fd9-1da8-4efb-afc0-0b7c96be6659" d="M0 403h760v40H0z"/></g><path class="b5a1c7b3-40c2-439b-bd38-fbedf77da56a" d="M0 38.672h760"/><text class="fe35b818-834f-47d8-8206-7f8c1ac34dae" transform="translate(.5 28.671)">Internet access</text><path class="b8d85ac7-d367-405b-8213-f5d5cf9de390" d="M41.209 219.5H0V240h41.209c5.661 0 5.661-20.5 0-20.5z"/><text class="ff367e4a-f919-45f7-b1be-d15b7fce1387" transform="translate(15 234.604)">Provisioning node</text><g><path class="bd541103-7126-4604-8ea1-10e122872bf6" d="M191.972 123.726v1.5"/><path stroke-dasharray="3 3" stroke-linecap="round" stroke-linejoin="round" stroke="#151515" fill="none" d="M191.972 128.226v16.5"/><path class="bd541103-7126-4604-8ea1-10e122872bf6" d="M191.972 146.226v1.5h1.5"/><path stroke-dasharray="2.991 2.991" stroke-linecap="round" stroke-linejoin="round" stroke="#151515" fill="none" d="M196.463 147.726h160.041"/><path class="bd541103-7126-4604-8ea1-10e122872bf6" d="M358 147.726h1.5v1.5"/><path stroke-dasharray="2.888 2.888" stroke-linecap="round" stroke-linejoin="round" stroke="#151515" fill="none" d="M359.5 152.114v44.766"/><path class="bd541103-7126-4604-8ea1-10e122872bf6" d="M359.5 198.324v1.5"/><path class="bb3c1d39-a7d9-4187-80ad-7525d6c91c88" d="M354.514 198.365L359.5 207l4.986-8.635h-9.972z"/></g><path stroke-width="8" stroke="#fff" stroke-linecap="round" stroke-linejoin="round" fill="none" d="M268.255 123.726v9h350.859V207"/><g><path class="bd541103-7126-4604-8ea1-10e122872bf6" d="M268.255 123.726v1.5"/><path stroke-dasharray="2 2" stroke-linecap="round" stroke-linejoin="round" stroke="#151515" fill="none" d="M268.255 127.226v3"/><path class="bd541103-7126-4604-8ea1-10e122872bf6" d="M268.255 131.226v1.5h1.5"/><path stroke-dasharray="3.025 3.025" stroke-linecap="round" stroke-linejoin="round" stroke="#151515" fill="none" d="M272.78 132.726h343.321"/><path class="bd541103-7126-4604-8ea1-10e122872bf6" d="M617.614 132.726h1.5v1.5"/><path stroke-dasharray="3.052 3.052" stroke-linecap="round" stroke-linejoin="round" stroke="#151515" fill="none" d="M619.114 137.278v59.52"/><path class="bd541103-7126-4604-8ea1-10e122872bf6" d="M619.114 198.324v1.5"/><path class="bb3c1d39-a7d9-4187-80ad-7525d6c91c88" d="M614.127 198.365l4.987 8.635 4.986-8.635h-9.973z"/></g><path d="M260 290.5v36H16v-36h244m1-1H15v38h246v-38z" fill="#d5d5d5"/><text transform="translate(101.893 311.547)" fill="#c4c4c4" font-size="11" font-family="RedHatText,&quot;Red Hat Text&quot;,Overpass,&quot;Helvetica Neue&quot;,Arial,sans-serif" font-weight="500">Bootstrap VM</text><g><path class="b8d85ac7-d367-405b-8213-f5d5cf9de390" d="M538.5 209.5h221V378h-221z"/><text class="ff367e4a-f919-45f7-b1be-d15b7fce1387" transform="translate(552.467 234.604)"><tspan>Worker nodes xN</tspan></text></g><g><path class="e7beeb9c-3f1e-4b80-9c68-01b9acad8d3f" d="M161.678 342.5H.455V363h161.223c5.661 0 5.661-20.5 0-20.5z"/><path d="M161.678 342.5H.455V363h161.223c5.661 0 5.661-20.5 0-20.5z" fill="url(#f42069e3-34ec-4bac-bfdf-227801aa19ba)"/><text class="abee631a-5a21-4ffe-9274-d643843e9317" transform="translate(55.661 356.074)">Provisioning bridge</text><path class="e7beeb9c-3f1e-4b80-9c68-01b9acad8d3f" d="M41.223 342.5H0V363h41.223c5.661 0 5.661-20.5 0-20.5z"/><text class="abee631a-5a21-4ffe-9274-d643843e9317" transform="translate(11.671 356.074)">eno1</text><g><path class="a486d70d-c699-4eb0-9f12-aaadac46500a" d="M161.664 254.5H.455V275h161.209c5.661 0 5.661-20.5 0-20.5z"/><path d="M161.664 254.5H.455V275h161.209c5.661 0 5.661-20.5 0-20.5z" fill="url(#a157d360-6338-431a-8f15-41cbc474bf77)"/><text class="abee631a-5a21-4ffe-9274-d643843e9317" transform="translate(55.677 269.349)">Baremetal bridge</text><g><path class="a486d70d-c699-4eb0-9f12-aaadac46500a" d="M41.209 254.5H0V275h41.209c5.661 0 5.661-20.5 0-20.5z"/><text class="abee631a-5a21-4ffe-9274-d643843e9317" transform="translate(11.671 269.349)">eno2</text></g></g></g><circle class="ac05bf5c-5d6f-404e-8fdc-c631f9b2a2a1" cx="268.255" cy="113.371" r="9.355"/><text class="fe35b818-834f-47d8-8206-7f8c1ac34dae" transform="translate(239.271 98.016)">Ingress VIP</text><circle class="ac05bf5c-5d6f-404e-8fdc-c631f9b2a2a1" cx="191.972" cy="113.371" r="9.355"/><text class="fe35b818-834f-47d8-8206-7f8c1ac34dae" transform="translate(172.552 98.016)">API VIP</text></g></g></svg>