<svg xmlns="http://www.w3.org/2000/svg" width="760" height="443"><defs><pattern id="a363671b-7210-4049-aad1-df85f0fa35e8" data-name="diaginal hash (gray)" width="50" height="50" patternUnits="userSpaceOnUse"><path class="a8e006ef-143d-4022-bcfd-9606ebaea282" d="M0 0h50v50H0z"/><path class="e6cd7a4b-53a8-4aa1-b07a-a910c3b557e2" d="M50 50v.707l.707-.707H50zM54.849 50L50 54.849v1.414L56.263 50h-1.414zM60.404 50L50 60.404v1.414L61.818 50h-1.414zM65.96 50L50 65.96v1.414L67.374 50H65.96zM71.515 50L50 71.515v1.414L72.929 50h-1.414zM77.071 50L50 77.071v1.414L78.485 50h-1.414zM82.626 50L50 82.626v1.414L84.041 50h-1.415zM88.182 50L50 88.182v1.414L89.596 50h-1.414zM93.737 50L50 93.737v1.414L95.151 50h-1.414zM100 50h-.707L50 99.293V100h.707L100 50.707V50z"/><g><path class="e6cd7a4b-53a8-4aa1-b07a-a910c3b557e2" d="M0 50v.707L.707 50H0zM4.849 50L0 54.849v1.414L6.263 50H4.849zM10.404 50L0 60.404v1.414L11.818 50h-1.414zM15.96 50L0 65.96v1.414L17.374 50H15.96zM21.515 50L0 71.515v1.414L22.929 50h-1.414zM27.071 50L0 77.071v1.414L28.485 50h-1.414zM32.626 50L0 82.626v1.414L34.041 50h-1.415zM38.182 50L0 88.182v1.414L39.596 50h-1.414zM43.737 50L0 93.737v1.414L45.151 50h-1.414zM50 50h-.707L0 99.293V100h.707L50 50.707V50z"/></g><path class="e6cd7a4b-53a8-4aa1-b07a-a910c3b557e2" d="M0 50h-.707L-50 99.293V100h.707L0 50.707V50z"/><g><path class="e6cd7a4b-53a8-4aa1-b07a-a910c3b557e2" d="M50 0v.707L50.707 0H50zM54.849 0L50 4.849v1.414L56.263 0h-1.414zM60.404 0L50 10.404v1.414L61.818 0h-1.414zM65.96 0L50 15.96v1.414L67.374 0H65.96zM71.515 0L50 21.515v1.414L72.929 0h-1.414zM77.071 0L50 27.071v1.414L78.485 0h-1.414zM82.626 0L50 32.626v1.414L84.041 0h-1.415zM88.182 0L50 38.182v1.414L89.596 0h-1.414zM93.737 0L50 43.737v1.414L95.151 0h-1.414zM100 0h-.707L50 49.293V50h.707L100 .707V0z"/></g><g><path class="e6cd7a4b-53a8-4aa1-b07a-a910c3b557e2" d="M0 0v.707L.707 0H0zM4.849 0L0 4.849v1.414L6.263 0H4.849zM10.404 0L0 10.404v1.414L11.818 0h-1.414zM15.96 0L0 15.96v1.414L17.374 0H15.96zM21.515 0L0 21.515v1.414L22.929 0h-1.414zM27.071 0L0 27.071v1.414L28.485 0h-1.414zM32.626 0L0 32.626v1.414L34.041 0h-1.415zM38.182 0L0 38.182v1.414L39.596 0h-1.414zM43.737 0L0 43.737v1.414L45.151 0h-1.414zM50 0h-.707L0 49.293V50h.707L50 .707V0zM6.263 50L50 6.262V4.848L4.849 50h1.414zM11.818 50L50 11.818v-1.414L10.404 50h1.414zM17.374 50L50 17.374V15.96L15.96 50h1.414zM22.929 50L50 22.929v-1.414L21.515 50h1.414zM28.485 50L50 28.485v-1.414L27.071 50h1.414zM34.04 50L50 34.04v-1.414L32.626 50h1.414zM39.596 50L50 39.596v-1.414L38.182 50h1.414zM45.151 50L50 45.151v-1.414L43.737 50h1.414zM50 50v-.707l-.707.707H50z"/></g><g><path class="e6cd7a4b-53a8-4aa1-b07a-a910c3b557e2" d="M0 0h-.707L-50 49.293V50h.707L0 .707V0zM-43.737 50L0 6.262V4.848L-45.151 50h1.414zM-38.182 50L0 11.818v-1.414L-39.596 50h1.414zM-32.626 50L0 17.374V15.96L-34.04 50h1.414zM-27.071 50L0 22.929v-1.414L-28.485 50h1.414zM-21.515 50L0 28.485v-1.414L-22.929 50h1.414zM-15.96 50L0 34.04v-1.414L-17.374 50h1.414zM-10.404 50L0 39.596v-1.414L-11.818 50h1.414zM-4.849 50L0 45.151v-1.414L-6.263 50h1.414zM0 50v-.707L-.707 50H0z"/></g><path class="e6cd7a4b-53a8-4aa1-b07a-a910c3b557e2" d="M100-50h-.707L50-.707V0h.707L100-49.293V-50z"/><g><path class="e6cd7a4b-53a8-4aa1-b07a-a910c3b557e2" d="M50-50h-.707L0-.707V0h.707L50-49.293V-50zM6.263 0L50-43.738v-1.414L4.849 0h1.414zM11.818 0L50-38.182v-1.414L10.404 0h1.414zM17.374 0L50-32.626v-1.414L15.96 0h1.414zM22.929 0L50-27.071v-1.414L21.515 0h1.414zM28.485 0L50-21.515v-1.414L27.071 0h1.414zM34.04 0L50-15.96v-1.414L32.626 0h1.414zM39.596 0L50-10.404v-1.414L38.182 0h1.414zM45.151 0L50-4.849v-1.414L43.737 0h1.414zM50 0v-.707L49.293 0H50z"/></g><g><path class="e6cd7a4b-53a8-4aa1-b07a-a910c3b557e2" d="M0-50h-.707L-50-.707V0h.707L0-49.293V-50zM-43.737 0L0-43.738v-1.414L-45.151 0h1.414zM-38.182 0L0-38.182v-1.414L-39.596 0h1.414zM-32.626 0L0-32.626v-1.414L-34.04 0h1.414zM-27.071 0L0-27.071v-1.414L-28.485 0h1.414zM-21.515 0L0-21.515v-1.414L-22.929 0h1.414zM-15.96 0L0-15.96v-1.414L-17.374 0h1.414zM-10.404 0L0-10.404v-1.414L-11.818 0h1.414zM-4.849 0L0-4.849v-1.414L-6.263 0h1.414zM0 0v-.707L-.707 0H0z"/></g></pattern><pattern id="b2587d9a-894e-4576-a7bb-f9aa313d82b7" data-name="diaginal hash (gray)" width="50" height="50" patternTransform="translate(-124.569 190.023)" patternUnits="userSpaceOnUse"><path class="a8e006ef-143d-4022-bcfd-9606ebaea282" d="M0 0h50v50H0z"/><path class="e6cd7a4b-53a8-4aa1-b07a-a910c3b557e2" d="M50 50v.707l.707-.707H50zM54.849 50L50 54.849v1.414L56.263 50h-1.414zM60.404 50L50 60.404v1.414L61.818 50h-1.414zM65.96 50L50 65.96v1.414L67.374 50H65.96zM71.515 50L50 71.515v1.414L72.929 50h-1.414zM77.071 50L50 77.071v1.414L78.485 50h-1.414zM82.626 50L50 82.626v1.414L84.041 50h-1.415zM88.182 50L50 88.182v1.414L89.596 50h-1.414zM93.737 50L50 93.737v1.414L95.151 50h-1.414zM100 50h-.707L50 99.293V100h.707L100 50.707V50z"/><g><path class="e6cd7a4b-53a8-4aa1-b07a-a910c3b557e2" d="M0 50v.707L.707 50H0zM4.849 50L0 54.849v1.414L6.263 50H4.849zM10.404 50L0 60.404v1.414L11.818 50h-1.414zM15.96 50L0 65.96v1.414L17.374 50H15.96zM21.515 50L0 71.515v1.414L22.929 50h-1.414zM27.071 50L0 77.071v1.414L28.485 50h-1.414zM32.626 50L0 82.626v1.414L34.041 50h-1.415zM38.182 50L0 88.182v1.414L39.596 50h-1.414zM43.737 50L0 93.737v1.414L45.151 50h-1.414zM50 50h-.707L0 99.293V100h.707L50 50.707V50z"/></g><path class="e6cd7a4b-53a8-4aa1-b07a-a910c3b557e2" d="M0 50h-.707L-50 99.293V100h.707L0 50.707V50z"/><g><path class="e6cd7a4b-53a8-4aa1-b07a-a910c3b557e2" d="M50 0v.707L50.707 0H50zM54.849 0L50 4.849v1.414L56.263 0h-1.414zM60.404 0L50 10.404v1.414L61.818 0h-1.414zM65.96 0L50 15.96v1.414L67.374 0H65.96zM71.515 0L50 21.515v1.414L72.929 0h-1.414zM77.071 0L50 27.071v1.414L78.485 0h-1.414zM82.626 0L50 32.626v1.414L84.041 0h-1.415zM88.182 0L50 38.182v1.414L89.596 0h-1.414zM93.737 0L50 43.737v1.414L95.151 0h-1.414zM100 0h-.707L50 49.293V50h.707L100 .707V0z"/></g><g><path class="e6cd7a4b-53a8-4aa1-b07a-a910c3b557e2" d="M0 0v.707L.707 0H0zM4.849 0L0 4.849v1.414L6.263 0H4.849zM10.404 0L0 10.404v1.414L11.818 0h-1.414zM15.96 0L0 15.96v1.414L17.374 0H15.96zM21.515 0L0 21.515v1.414L22.929 0h-1.414zM27.071 0L0 27.071v1.414L28.485 0h-1.414zM32.626 0L0 32.626v1.414L34.041 0h-1.415zM38.182 0L0 38.182v1.414L39.596 0h-1.414zM43.737 0L0 43.737v1.414L45.151 0h-1.414zM50 0h-.707L0 49.293V50h.707L50 .707V0zM6.263 50L50 6.262V4.848L4.849 50h1.414zM11.818 50L50 11.818v-1.414L10.404 50h1.414zM17.374 50L50 17.374V15.96L15.96 50h1.414zM22.929 50L50 22.929v-1.414L21.515 50h1.414zM28.485 50L50 28.485v-1.414L27.071 50h1.414zM34.04 50L50 34.04v-1.414L32.626 50h1.414zM39.596 50L50 39.596v-1.414L38.182 50h1.414zM45.151 50L50 45.151v-1.414L43.737 50h1.414zM50 50v-.707l-.707.707H50z"/></g><g><path class="e6cd7a4b-53a8-4aa1-b07a-a910c3b557e2" d="M0 0h-.707L-50 49.293V50h.707L0 .707V0zM-43.737 50L0 6.262V4.848L-45.151 50h1.414zM-38.182 50L0 11.818v-1.414L-39.596 50h1.414zM-32.626 50L0 17.374V15.96L-34.04 50h1.414zM-27.071 50L0 22.929v-1.414L-28.485 50h1.414zM-21.515 50L0 28.485v-1.414L-22.929 50h1.414zM-15.96 50L0 34.04v-1.414L-17.374 50h1.414zM-10.404 50L0 39.596v-1.414L-11.818 50h1.414zM-4.849 50L0 45.151v-1.414L-6.263 50h1.414zM0 50v-.707L-.707 50H0z"/></g><path class="e6cd7a4b-53a8-4aa1-b07a-a910c3b557e2" d="M100-50h-.707L50-.707V0h.707L100-49.293V-50z"/><g><path class="e6cd7a4b-53a8-4aa1-b07a-a910c3b557e2" d="M50-50h-.707L0-.707V0h.707L50-49.293V-50zM6.263 0L50-43.738v-1.414L4.849 0h1.414zM11.818 0L50-38.182v-1.414L10.404 0h1.414zM17.374 0L50-32.626v-1.414L15.96 0h1.414zM22.929 0L50-27.071v-1.414L21.515 0h1.414zM28.485 0L50-21.515v-1.414L27.071 0h1.414zM34.04 0L50-15.96v-1.414L32.626 0h1.414zM39.596 0L50-10.404v-1.414L38.182 0h1.414zM45.151 0L50-4.849v-1.414L43.737 0h1.414zM50 0v-.707L49.293 0H50z"/></g><g><path class="e6cd7a4b-53a8-4aa1-b07a-a910c3b557e2" d="M0-50h-.707L-50-.707V0h.707L0-49.293V-50zM-43.737 0L0-43.738v-1.414L-45.151 0h1.414zM-38.182 0L0-38.182v-1.414L-39.596 0h1.414zM-32.626 0L0-32.626v-1.414L-34.04 0h1.414zM-27.071 0L0-27.071v-1.414L-28.485 0h1.414zM-21.515 0L0-21.515v-1.414L-22.929 0h1.414zM-15.96 0L0-15.96v-1.414L-17.374 0h1.414zM-10.404 0L0-10.404v-1.414L-11.818 0h1.414zM-4.849 0L0-4.849v-1.414L-6.263 0h1.414zM0 0v-.707L-.707 0H0z"/></g></pattern><style>.a1beff2b-e6d5-4f01-9f71-75c02fa3bda4,.a2fcf0a1-4c86-4322-9b1c-9496a99199bc,.a69362b6-9618-4625-86e6-f381c22bd142,.a6c90965-43cb-488b-9ebf-d280b27b9bfe,.a783729b-c958-4329-a0fe-a802508b2605,.a8e006ef-143d-4022-bcfd-9606ebaea282,.b6353768-dcc4-461a-a60d-f2470377d4f2,.b88a8fd4-b639-4e51-a4cc-58f54dc65cc4,.be889753-c23c-4f9a-b73e-d4e8efd16295,.bec8a4d5-5632-4c61-93fe-d2e8048dcfdc,.f3777c69-e6d5-498e-8e99-dbe5ec768c0a{fill:none}.b7eabc67-b799-49ed-977c-f679a623499c,.e6cd7a4b-53a8-4aa1-b07a-a910c3b557e2,.f35e4e20-f74a-41b9-ad85-b7b89893c7c7{fill:#151515}.a6c90965-43cb-488b-9ebf-d280b27b9bfe,.b6353768-dcc4-461a-a60d-f2470377d4f2,.be889753-c23c-4f9a-b73e-d4e8efd16295,.bec8a4d5-5632-4c61-93fe-d2e8048dcfdc,.e6cd7a4b-53a8-4aa1-b07a-a910c3b557e2{stroke:#151515}.e6cd7a4b-53a8-4aa1-b07a-a910c3b557e2{stroke-miterlimit:10}.a2fcf0a1-4c86-4322-9b1c-9496a99199bc{stroke:#5e40be}.a1beff2b-e6d5-4f01-9f71-75c02fa3bda4,.a2fcf0a1-4c86-4322-9b1c-9496a99199bc,.a69362b6-9618-4625-86e6-f381c22bd142,.a6c90965-43cb-488b-9ebf-d280b27b9bfe,.a783729b-c958-4329-a0fe-a802508b2605,.a7fb9964-af5c-4c55-8332-83a550fb7896,.b6353768-dcc4-461a-a60d-f2470377d4f2,.b88a8fd4-b639-4e51-a4cc-58f54dc65cc4,.be889753-c23c-4f9a-b73e-d4e8efd16295,.bec8a4d5-5632-4c61-93fe-d2e8048dcfdc,.f3777c69-e6d5-498e-8e99-dbe5ec768c0a,.fc80b46f-18c5-437b-8882-c5f7ff893a47{stroke-linecap:round;stroke-linejoin:round}.a1beff2b-e6d5-4f01-9f71-75c02fa3bda4,.a2fcf0a1-4c86-4322-9b1c-9496a99199bc,.a783729b-c958-4329-a0fe-a802508b2605,.a7fb9964-af5c-4c55-8332-83a550fb7896,.b88a8fd4-b639-4e51-a4cc-58f54dc65cc4,.f3777c69-e6d5-498e-8e99-dbe5ec768c0a{stroke-width:2px}.e6fd3cc4-8a6a-40bd-967e-7148a6a8eee9{fill:#e8e8e8}.a783729b-c958-4329-a0fe-a802508b2605,.a7fb9964-af5c-4c55-8332-83a550fb7896{stroke:#06c}.ebc1b527-0be7-48a7-a976-ca9a71f881f8,.f35e4e20-f74a-41b9-ad85-b7b89893c7c7{font-size:11px;font-family:RedHatText,&quot;Red Hat Text&quot;,Overpass,&quot;Helvetica Neue&quot;,Arial,sans-serif;font-weight:500}.b88a8fd4-b639-4e51-a4cc-58f54dc65cc4{stroke:#4cb6d6}.b80ee905-721c-4884-a556-bd15663ec860{font-size:12px;font-family:RedHatText,&quot;Red Hat Text&quot;,Overpass,&quot;Helvetica Neue&quot;,Arial,sans-serif;font-weight:700}.bec8a4d5-5632-4c61-93fe-d2e8048dcfdc{stroke-dasharray:2 2}.be889753-c23c-4f9a-b73e-d4e8efd16295{stroke-dasharray:3.071 3.071}.b6353768-dcc4-461a-a60d-f2470377d4f2{stroke-dasharray:2.941 2.941}.a7fb9964-af5c-4c55-8332-83a550fb7896,.b33e941a-ddc2-4b73-bcb8-03bc93d173fb,.ebc1b527-0be7-48a7-a976-ca9a71f881f8,.fc80b46f-18c5-437b-8882-c5f7ff893a47{fill:#fff}.f3777c69-e6d5-498e-8e99-dbe5ec768c0a{stroke:#c0d682}.a1beff2b-e6d5-4f01-9f71-75c02fa3bda4,.a69362b6-9618-4625-86e6-f381c22bd142,.fc80b46f-18c5-437b-8882-c5f7ff893a47{stroke:#5b5b5b}.a69362b6-9618-4625-86e6-f381c22bd142,.fc80b46f-18c5-437b-8882-c5f7ff893a47{stroke-width:1.5px}.b80ee905-721c-4884-a556-bd15663ec860{fill:#dcdcdc}.e3309599-5f13-4a03-9d9c-2beaa5f6105f{fill:#5e40be}.acdaf3e5-e0b7-4ec7-b614-c4760e8fc979{opacity:.35;mix-blend-mode:multiply}.b7a7e62a-bfb6-40fa-bf95-da0926a4f7d9{fill:#06c}</style></defs><g style="isolation:isolate"><g id="e5521cc7-8eff-43d0-8b9b-ec4e7e5206e4" data-name="artwork"><path class="a2fcf0a1-4c86-4322-9b1c-9496a99199bc" d="M649 378v25M409.5 378v25"/><path class="e6fd3cc4-8a6a-40bd-967e-7148a6a8eee9" d="M0 209.5h281V378H0z"/><path class="a2fcf0a1-4c86-4322-9b1c-9496a99199bc" d="M0 403h760"/><path class="a783729b-c958-4329-a0fe-a802508b2605" d="M0 114.017h760"/><text class="f35e4e20-f74a-41b9-ad85-b7b89893c7c7" transform="translate(0 104.017)">Baremetal network</text><text class="f35e4e20-f74a-41b9-ad85-b7b89893c7c7" transform="translate(1 419.817)">Provisioning network</text><path class="a2fcf0a1-4c86-4322-9b1c-9496a99199bc" d="M22.727 403v-50.25"/><path class="a783729b-c958-4329-a0fe-a802508b2605" d="M22.727 114.009V264.25"/><text transform="translate(670.861 422.834)" font-size="10" fill="#f3f3f3" font-family="RedHatText,&quot;Red Hat Text&quot;,Overpass,&quot;Helvetica Neue&quot;,Arial,sans-serif">71_OpenShift_0920</text><path class="a8e006ef-143d-4022-bcfd-9606ebaea282" d="M0 399.817h760v40H0z"/><path class="b88a8fd4-b639-4e51-a4cc-58f54dc65cc4" d="M0 38.672h760"/><text class="f35e4e20-f74a-41b9-ad85-b7b89893c7c7" transform="translate(.5 28.671)">Internet access</text><path class="a2fcf0a1-4c86-4322-9b1c-9496a99199bc" d="M183.217 327.5v25.25h-17.293"/><path class="a783729b-c958-4329-a0fe-a802508b2605" d="M183.217 289.5v-25.25h-17.293"/><path class="e6fd3cc4-8a6a-40bd-967e-7148a6a8eee9" d="M41.209 219.5H0V240h41.209c5.661 0 5.661-20.5 0-20.5z"/><path fill="#d0d0d0" d="M15 289.5h246v38H15z"/><text class="f35e4e20-f74a-41b9-ad85-b7b89893c7c7" transform="translate(101.893 311.547)">Bootstrap VM</text><text transform="translate(15 234.604)" font-size="12" font-family="RedHatText,&quot;Red Hat Text&quot;,Overpass,&quot;Helvetica Neue&quot;,Arial,sans-serif" font-weight="700" fill="#151515">Provisioning node</text><path class="a6c90965-43cb-488b-9ebf-d280b27b9bfe" d="M191.972 123.726v1.5"/><path class="bec8a4d5-5632-4c61-93fe-d2e8048dcfdc" d="M191.972 127.226v3"/><path class="a6c90965-43cb-488b-9ebf-d280b27b9bfe" d="M191.972 131.226v1.5h1.5"/><path class="be889753-c23c-4f9a-b73e-d4e8efd16295" d="M196.543 132.726h23.035"/><path class="a6c90965-43cb-488b-9ebf-d280b27b9bfe" d="M221.114 132.726h1.5v1.5"/><path class="b6353768-dcc4-461a-a60d-f2470377d4f2" d="M222.614 137.167v139.686"/><path class="a6c90965-43cb-488b-9ebf-d280b27b9bfe" d="M222.614 278.324v1.5"/><path class="b7eabc67-b799-49ed-977c-f679a623499c" d="M217.627 278.365l4.987 8.635 4.986-8.635h-9.973z"/><path class="a6c90965-43cb-488b-9ebf-d280b27b9bfe" d="M268.255 123.726v1.5"/><path class="bec8a4d5-5632-4c61-93fe-d2e8048dcfdc" d="M268.255 127.226v3"/><path class="a6c90965-43cb-488b-9ebf-d280b27b9bfe" d="M268.255 131.226v1.5h-1.5"/><path class="be889753-c23c-4f9a-b73e-d4e8efd16295" d="M263.684 132.726h-23.035"/><path class="a6c90965-43cb-488b-9ebf-d280b27b9bfe" d="M239.114 132.726h-1.5v1.5"/><path class="b6353768-dcc4-461a-a60d-f2470377d4f2" d="M237.614 137.167v139.686"/><path class="a6c90965-43cb-488b-9ebf-d280b27b9bfe" d="M237.614 278.324v1.5"/><path class="b7eabc67-b799-49ed-977c-f679a623499c" d="M232.627 278.365l4.987 8.635 4.986-8.635h-9.973z"/><circle class="a7fb9964-af5c-4c55-8332-83a550fb7896" cx="268.255" cy="113.371" r="9.355"/><text class="f35e4e20-f74a-41b9-ad85-b7b89893c7c7" transform="translate(239.271 98.016)">Ingress VIP</text><circle class="a7fb9964-af5c-4c55-8332-83a550fb7896" cx="191.972" cy="113.371" r="9.355"/><text class="f35e4e20-f74a-41b9-ad85-b7b89893c7c7" transform="translate(172.552 98.016)">API VIP</text><path class="a783729b-c958-4329-a0fe-a802508b2605" d="M639 114.017V209.5"/><path stroke="#fff" stroke-width="10" stroke-linecap="round" stroke-linejoin="round" fill="none" d="M617.425 189.5H645.5"/><path class="f3777c69-e6d5-498e-8e99-dbe5ec768c0a" d="M760 189.5H419.832v20M659 189.5v20"/><path class="a783729b-c958-4329-a0fe-a802508b2605" d="M399.5 114.017V209.5"/><text class="f35e4e20-f74a-41b9-ad85-b7b89893c7c7" transform="translate(418.832 167.501)">Out-of-Band <tspan x="0" y="12">Management network</tspan></text><path class="a783729b-c958-4329-a0fe-a802508b2605" d="M689.778 114.069v20"/><g><text class="f35e4e20-f74a-41b9-ad85-b7b89893c7c7" transform="translate(672.001 164.414)">Router</text><path class="fc80b46f-18c5-437b-8882-c5f7ff893a47" d="M662.278 134.069h55v13.75h-55z"/><path class="a1beff2b-e6d5-4f01-9f71-75c02fa3bda4" d="M711.398 139.966"/><path class="a69362b6-9618-4625-86e6-f381c22bd142" d="M668.17 138.931v3.965M674.063 138.931v3.965M679.956 138.931v3.965M685.849 138.931v3.965M691.742 138.931v3.965M697.635 138.931v3.965"/></g><path class="f3777c69-e6d5-498e-8e99-dbe5ec768c0a" d="M689.778 169.5v20"/><g><path class="b33e941a-ddc2-4b73-bcb8-03bc93d173fb" d="M299.5 210h220v167.5h-220z"/><path class="e6fd3cc4-8a6a-40bd-967e-7148a6a8eee9" d="M519 210.5V377H300V210.5h219m1-1H299V378h221V209.5z"/><text class="b80ee905-721c-4884-a556-bd15663ec860" transform="translate(314 234.604)"><tspan>Master nodes x3</tspan></text></g><g><path class="b33e941a-ddc2-4b73-bcb8-03bc93d173fb" d="M539 210h220v167.5H539z"/><path class="e6fd3cc4-8a6a-40bd-967e-7148a6a8eee9" d="M758.5 210.5V377h-219V210.5h219m1-1h-221V378h221V209.5z"/><text class="b80ee905-721c-4884-a556-bd15663ec860" transform="translate(552.467 234.604)"><tspan>Worker nodes xN</tspan></text></g><path class="a783729b-c958-4329-a0fe-a802508b2605" d="M436.439 94.017v20"/><path class="b88a8fd4-b639-4e51-a4cc-58f54dc65cc4" d="M436.439 38.672v20"/><g><text class="f35e4e20-f74a-41b9-ad85-b7b89893c7c7" transform="translate(418.663 89.017)">Router</text><path class="fc80b46f-18c5-437b-8882-c5f7ff893a47" d="M408.939 58.672h55v13.75h-55z"/><path class="a1beff2b-e6d5-4f01-9f71-75c02fa3bda4" d="M458.06 64.569"/><path class="a69362b6-9618-4625-86e6-f381c22bd142" d="M414.832 63.535v3.964M420.725 63.535v3.964M426.618 63.535v3.964M432.511 63.535v3.964M438.403 63.535v3.964M444.296 63.535v3.964"/></g><path class="a783729b-c958-4329-a0fe-a802508b2605" d="M518.252 94.017v20"/><g><text class="f35e4e20-f74a-41b9-ad85-b7b89893c7c7" transform="translate(484.878 89.838)">DHCP server</text><path class="fc80b46f-18c5-437b-8882-c5f7ff893a47" d="M490.684 59.493h55v13.75h-55z"/><path class="a1beff2b-e6d5-4f01-9f71-75c02fa3bda4" d="M539.805 65.39"/><path class="a69362b6-9618-4625-86e6-f381c22bd142" d="M497.42 67.35h8.25"/></g><path class="a783729b-c958-4329-a0fe-a802508b2605" d="M601.063 94.017v20"/><g><text class="f35e4e20-f74a-41b9-ad85-b7b89893c7c7" transform="translate(571.814 89.838)">DNS server</text><path class="fc80b46f-18c5-437b-8882-c5f7ff893a47" d="M573.495 59.493h55v13.75h-55z"/><path class="a1beff2b-e6d5-4f01-9f71-75c02fa3bda4" d="M622.616 65.39"/><path class="a69362b6-9618-4625-86e6-f381c22bd142" d="M580.23 67.35h8.25"/></g><g><path class="e3309599-5f13-4a03-9d9c-2beaa5f6105f" d="M161.678 342.5H.455V363h161.223c5.661 0 5.661-20.5 0-20.5z"/><path d="M161.678 342.5H.455V363h161.223c5.661 0 5.661-20.5 0-20.5z" fill="url(#a363671b-7210-4049-aad1-df85f0fa35e8)"/><text class="ebc1b527-0be7-48a7-a976-ca9a71f881f8" transform="translate(55.661 356.074)">Provisioning bridge</text><path class="e3309599-5f13-4a03-9d9c-2beaa5f6105f" d="M41.223 342.5H0V363h41.223c5.661 0 5.661-20.5 0-20.5z"/><text class="ebc1b527-0be7-48a7-a976-ca9a71f881f8" transform="translate(11.671 356.074)">eno1</text></g><g><path class="b7a7e62a-bfb6-40fa-bf95-da0926a4f7d9" d="M161.664 254.5H.455V275h161.209c5.661 0 5.661-20.5 0-20.5z"/><path d="M161.664 254.5H.455V275h161.209c5.661 0 5.661-20.5 0-20.5z" fill="url(#b2587d9a-894e-4576-a7bb-f9aa313d82b7)"/><text class="ebc1b527-0be7-48a7-a976-ca9a71f881f8" transform="translate(55.677 269.349)">Baremetal bridge</text><g><path class="b7a7e62a-bfb6-40fa-bf95-da0926a4f7d9" d="M41.209 254.5H0V275h41.209c5.661 0 5.661-20.5 0-20.5z"/><text class="ebc1b527-0be7-48a7-a976-ca9a71f881f8" transform="translate(11.671 269.349)">eno2</text></g></g></g></g></svg>