<svg id="b78170c1-78cb-4d5c-9b5a-166c50e1158a" data-name="artwork" xmlns="http://www.w3.org/2000/svg" width="760" height="269" viewBox="0 0 760 269">
  <defs>
    <style>
      .a72f8003-014f-439a-a970-6641173adc44 {
        font-size: 10px;
        fill: #f3f3f3;
      }

      .a72f8003-014f-439a-a970-6641173adc44, .a81b71de-4897-4a0e-8fb0-3efe5399749b, .b5436a64-c436-433f-9b33-7c8e7ba5ac48 {
        font-family: RedHatText-Regular, Red Hat Text;
      }

      .a36ce3f0-fb64-4749-8f5e-a110b66566d6 {
        fill: none;
      }

      .a6221942-1f6a-42ea-9d65-7f8f358054c3 {
        fill: #e8e8e8;
      }

      .be99ec90-e11b-4690-89f8-015465e43598 {
        font-size: 16px;
        font-family: RedHatText-Bold, Red Hat Text;
        font-weight: 700;
      }

      .be99ec90-e11b-4690-89f8-015465e43598, .fb03541f-2059-4471-b2b1-a07e9545b29a {
        fill: #151515;
      }

      .a81b71de-4897-4a0e-8fb0-3efe5399749b, .b5436a64-c436-433f-9b33-7c8e7ba5ac48 {
        font-weight: 400;
      }

      .a81b71de-4897-4a0e-8fb0-3efe5399749b {
        letter-spacing: 0em;
      }

      .e635a102-dbec-473a-81bf-2f7302f50e39 {
        fill: #fff;
      }

      .f6101475-af08-4b05-9b32-2a4a9289f40e, .fb03541f-2059-4471-b2b1-a07e9545b29a {
        font-size: 12px;
        font-family: RedHatText-Medium, Red Hat Text;
        font-weight: 500;
      }

      .f6101475-af08-4b05-9b32-2a4a9289f40e {
        fill: #b9b9b9;
      }
    </style>
  </defs>
  <g>
    <text class="a72f8003-014f-439a-a970-6641173adc44" transform="translate(628.182 252.017)">96_RHEL_0720</text>
    <rect class="a36ce3f0-fb64-4749-8f5e-a110b66566d6" y="229" width="700" height="40"/>
  </g>
  <rect class="a6221942-1f6a-42ea-9d65-7f8f358054c3" y="20.5" width="700" height="208.5"/>
  <text class="be99ec90-e11b-4690-89f8-015465e43598" transform="translate(25 58.972)">Disk <tspan class="a81b71de-4897-4a0e-8fb0-3efe5399749b" x="38.048" y="0">(MBR table)</tspan></text>
  <rect class="e635a102-dbec-473a-81bf-2f7302f50e39" x="25" y="83.824" width="160" height="120"/>
  <text class="fb03541f-2059-4471-b2b1-a07e9545b29a" transform="translate(57.925 112.148)">Unused partition</text>
  <path class="a6221942-1f6a-42ea-9d65-7f8f358054c3" d="M174,145v48H36V145H174m1-1H35v50H175V144Z"/>
  <text class="f6101475-af08-4b05-9b32-2a4a9289f40e" transform="translate(73.236 164.824)">File system<tspan class="b5436a64-c436-433f-9b33-7c8e7ba5ac48"><tspan x="6.51" y="15">(Unused)</tspan></tspan></text>
  <rect class="e635a102-dbec-473a-81bf-2f7302f50e39" x="195" y="83.824" width="160" height="120"/>
  <text class="fb03541f-2059-4471-b2b1-a07e9545b29a" transform="translate(227.925 112.148)">Unused partition</text>
  <path class="a6221942-1f6a-42ea-9d65-7f8f358054c3" d="M344,145v48H206V145H344m1-1H205v50H345V144Z"/>
  <text class="f6101475-af08-4b05-9b32-2a4a9289f40e" transform="translate(243.236 164.824)">File system<tspan class="b5436a64-c436-433f-9b33-7c8e7ba5ac48"><tspan x="6.51" y="15">(Unused)</tspan></tspan></text>
  <rect class="e635a102-dbec-473a-81bf-2f7302f50e39" x="365" y="82.824" width="150" height="120"/>
  <text class="fb03541f-2059-4471-b2b1-a07e9545b29a" transform="translate(392.925 111.148)">Unused partition</text>
  <path class="a6221942-1f6a-42ea-9d65-7f8f358054c3" d="M504,144v48H376V144H504m1-1H375v50H505V143Z"/>
  <text class="f6101475-af08-4b05-9b32-2a4a9289f40e" transform="translate(408.236 163.824)">File system<tspan class="b5436a64-c436-433f-9b33-7c8e7ba5ac48"><tspan x="6.51" y="15">(Unused)</tspan></tspan></text>
  <rect class="e635a102-dbec-473a-81bf-2f7302f50e39" x="525" y="82.824" width="150" height="120"/>
  <text class="fb03541f-2059-4471-b2b1-a07e9545b29a" transform="translate(552.925 111.148)">Unused partition</text>
  <path class="a6221942-1f6a-42ea-9d65-7f8f358054c3" d="M664,144v48H536V144H664m1-1H535v50H665V143Z"/>
  <text class="f6101475-af08-4b05-9b32-2a4a9289f40e" transform="translate(568.236 163.824)">File system<tspan class="b5436a64-c436-433f-9b33-7c8e7ba5ac48"><tspan x="6.51" y="15">(Unused)</tspan></tspan></text>
</svg>
