<svg id="ac15c30a-2569-4f9e-b761-9f8e3c5bfe1e" data-name="artwork" xmlns="http://www.w3.org/2000/svg" width="760" height="599.206"><defs><style>.b0348dc7-996e-444c-ad64-4f1623950828,.b8bb141e-5f2a-4b8b-8bff-a2b128696cad,.ba7e9391-3ad4-4657-be12-b05b356344ce{fill:none}.b8bb141e-5f2a-4b8b-8bff-a2b128696cad{stroke:#151515}.b0348dc7-996e-444c-ad64-4f1623950828,.b8bb141e-5f2a-4b8b-8bff-a2b128696cad,.ba7e9391-3ad4-4657-be12-b05b356344ce{stroke-linecap:round;stroke-linejoin:round}.a1aef570-96f4-407b-bcdc-4aada5fc1b06,.ad64ee9d-579e-400a-8938-ec114258412b,.e47dbbff-6b4e-4b8a-8843-1937bdb84bd2{fill:#151515}.bc01a50a-28f8-4f6d-a5ea-a149a6041d0a{fill:#e8e8e8}.a1aef570-96f4-407b-bcdc-4aada5fc1b06,.aa58d46d-a287-433b-8b75-a0287cbec2be,.e47dbbff-6b4e-4b8a-8843-1937bdb84bd2{font-size:10px}.a1aef570-96f4-407b-bcdc-4aada5fc1b06,.e47dbbff-6b4e-4b8a-8843-1937bdb84bd2{font-family:RedHatText,&quot;Red Hat Text&quot;,Overpass,&quot;Helvetica Neue&quot;,Arial,sans-serif}.e47dbbff-6b4e-4b8a-8843-1937bdb84bd2{font-weight:500}.a1aef570-96f4-407b-bcdc-4aada5fc1b06{font-style:italic}.b6a34651-bfe9-490f-8fd4-733f88f448ff{fill:#06c}.aa58d46d-a287-433b-8b75-a0287cbec2be{fill:#fff;font-family:RedHatText,&quot;Red Hat Text&quot;,Overpass,&quot;Helvetica Neue&quot;,Arial,sans-serif;font-weight:700}.ba7e9391-3ad4-4657-be12-b05b356344ce{stroke:#06c}.b0348dc7-996e-444c-ad64-4f1623950828{stroke:#fff;stroke-width:8px}</style></defs><path class="b8bb141e-5f2a-4b8b-8bff-a2b128696cad" d="M634.505 343.438v13.439H132.021v-13.439M75.718 49.5h-1.5"/><path stroke-dasharray="3.181 3.181" stroke-linecap="round" stroke-linejoin="round" stroke="#151515" fill="none" d="M71.037 49.5H28.091"/><path class="b8bb141e-5f2a-4b8b-8bff-a2b128696cad" d="M26.5 49.5H25V51"/><path stroke-dasharray="2.968 2.968" stroke-linecap="round" stroke-linejoin="round" stroke="#151515" fill="none" d="M25 53.968v164.705"/><path class="b8bb141e-5f2a-4b8b-8bff-a2b128696cad" d="M25 220.157v1.5"/><path class="ad64ee9d-579e-400a-8938-ec114258412b" d="M74.259 44.514l8.635 4.986-8.635 4.986v-9.972zM20.014 220.198L25 228.833l4.987-8.635h-9.973z"/><path class="b8bb141e-5f2a-4b8b-8bff-a2b128696cad" d="M75.136 138.542h-1.5"/><path stroke-dasharray="2.921 2.921" stroke-linecap="round" stroke-linejoin="round" stroke="#151515" fill="none" d="M70.715 138.542H42.961"/><path class="b8bb141e-5f2a-4b8b-8bff-a2b128696cad" d="M41.5 138.542H40v1.5"/><path stroke-dasharray="2.967 2.967" stroke-linecap="round" stroke-linejoin="round" stroke="#151515" fill="none" d="M40 143.01v75.663"/><path class="b8bb141e-5f2a-4b8b-8bff-a2b128696cad" d="M40 220.157v1.5"/><path class="ad64ee9d-579e-400a-8938-ec114258412b" d="M73.677 133.556l8.635 4.986-8.635 4.987v-9.973zM35.014 220.198L40 228.833l4.987-8.635h-9.973z"/><path class="b8bb141e-5f2a-4b8b-8bff-a2b128696cad" d="M288.604 366.915l-.083 24.965-79-.052.083-24.966M549.504 451.88v23.957H298.521V451.88M719.505 401.88v40H298.521v-40.003M719.505 343.438v48.442H464.521v-25.014"/><path class="b8bb141e-5f2a-4b8b-8bff-a2b128696cad" d="M719.505 520.837v25H132.021V366.862M298.521 343.438v13.439M379.521 343.438v13.439M209.521 343.438v13.439M464.521 343.438v13.439M549.503 343.438v13.439M549.503 366.889v24.991M464.521 401.88v40M298.521 520.837v25"/><path class="bc01a50a-28f8-4f6d-a5ea-a149a6041d0a" d="M85 15.943h674.897v67.049H85zM0 231.438h65v112H0z"/><text class="e47dbbff-6b4e-4b8a-8843-1937bdb84bd2" transform="translate(14.205 283.493)">Identity<tspan x="1.62" y="11">service</tspan></text><text class="a1aef570-96f4-407b-bcdc-4aada5fc1b06" transform="translate(234.638 404.72)">Stores<tspan x="-14.98" y="11">block devices</tspan><tspan x="-2.79" y="22">for VMs</tspan></text><text class="a1aef570-96f4-407b-bcdc-4aada5fc1b06" transform="translate(328.603 41.615)">Graphical user interface</text><text class="a1aef570-96f4-407b-bcdc-4aada5fc1b06" transform="translate(433.347 454.72)">Stores images</text><path class="b8bb141e-5f2a-4b8b-8bff-a2b128696cad" d="M379.521 381.877v10.003h-81v-25.003"/><text class="a1aef570-96f4-407b-bcdc-4aada5fc1b06" transform="translate(324.596 404.72)">Stores<tspan x="-7.64" y="11">file shares</tspan><tspan x="-2.79" y="22">for VMs</tspan></text><text class="a1aef570-96f4-407b-bcdc-4aada5fc1b06" transform="translate(560.838 404.72)">Stores images<tspan x="9.13" y="11">as objects</tspan></text><text class="a1aef570-96f4-407b-bcdc-4aada5fc1b06" transform="translate(375.708 488.677)">Stores objects for VMs</text><path class="b8bb141e-5f2a-4b8b-8bff-a2b128696cad" d="M719.505 451.88v58.957H298.521V486.88"/><text class="a1aef570-96f4-407b-bcdc-4aada5fc1b06" transform="translate(372.964 523.677)">Provisions VM instances</text><text class="a1aef570-96f4-407b-bcdc-4aada5fc1b06" transform="translate(379.054 558.677)">Network connectivity</text><text class="a1aef570-96f4-407b-bcdc-4aada5fc1b06" transform="translate(330.514 369.718)">Collects usage statistics</text><text class="e47dbbff-6b4e-4b8a-8843-1937bdb84bd2" transform="translate(126.258 52.785)">Dashboard service</text><path class="b6a34651-bfe9-490f-8fd4-733f88f448ff" d="M120.467 49.5a9.5 9.5 0 11-9.5-9.5 9.5 9.5 0 019.5 9.5z"/><text class="aa58d46d-a287-433b-8b75-a0287cbec2be" transform="translate(109.042 52.785)">1</text><path class="b6a34651-bfe9-490f-8fd4-733f88f448ff" d="M42 258.715a9.5 9.5 0 11-9.5-9.5 9.5 9.5 0 019.5 9.5z"/><text class="aa58d46d-a287-433b-8b75-a0287cbec2be" transform="translate(29.515 261.999)">2</text><path class="bc01a50a-28f8-4f6d-a5ea-a149a6041d0a" d="M680 231.438h80v112h-80z"/><text class="e47dbbff-6b4e-4b8a-8843-1937bdb84bd2" transform="translate(705.775 283.493)">Load-<tspan x="-8.33" y="11">balancing</tspan><tspan x="-2.45" y="22">service</tspan></text><path class="b6a34651-bfe9-490f-8fd4-733f88f448ff" d="M729.5 258.715a9.5 9.5 0 11-9.5-9.5 9.5 9.5 0 019.5 9.5z"/><text class="aa58d46d-a287-433b-8b75-a0287cbec2be" transform="translate(714.621 261.999)">10</text><path class="bc01a50a-28f8-4f6d-a5ea-a149a6041d0a" d="M85 105.051h674.897V172.1H85z"/><text class="e47dbbff-6b4e-4b8a-8843-1937bdb84bd2" transform="translate(126.258 141.828)">Orchestration service</text><path class="b6a34651-bfe9-490f-8fd4-733f88f448ff" d="M120.467 138.543a9.5 9.5 0 11-9.5-9.5 9.5 9.5 0 019.5 9.5z"/><text class="aa58d46d-a287-433b-8b75-a0287cbec2be" transform="translate(107.118 141.828)">11</text><text class="a1aef570-96f4-407b-bcdc-4aada5fc1b06" transform="translate(348.773 130.821)">Creates stacks</text><path class="b8bb141e-5f2a-4b8b-8bff-a2b128696cad" d="M132.521 221.657V206.5h579.983v15.157"/><path class="ad64ee9d-579e-400a-8938-ec114258412b" d="M137.508 220.198l-4.987 8.635-4.986-8.635h9.973zM707.518 220.198l4.986 8.635 4.986-8.635h-9.972z"/><path class="bc01a50a-28f8-4f6d-a5ea-a149a6041d0a" d="M340 231.438h80v112h-80z"/><text class="e47dbbff-6b4e-4b8a-8843-1937bdb84bd2" transform="translate(353.595 283.493)">Shared File<tspan x="6.43" y="11">Systems</tspan><tspan x="9.73" y="22">service</tspan></text><path class="b6a34651-bfe9-490f-8fd4-733f88f448ff" d="M389.5 258.715a9.5 9.5 0 11-9.5-9.5 9.5 9.5 0 019.5 9.5z"/><text class="aa58d46d-a287-433b-8b75-a0287cbec2be" transform="translate(376.745 261.999)">6</text><g><path class="bc01a50a-28f8-4f6d-a5ea-a149a6041d0a" d="M85 231.438h80v112H85z"/><text class="e47dbbff-6b4e-4b8a-8843-1937bdb84bd2" transform="translate(97.7 283.493)">Networking<tspan x="10.625" y="11">service</tspan></text><path class="b6a34651-bfe9-490f-8fd4-733f88f448ff" d="M134.5 258.715a9.5 9.5 0 11-9.5-9.5 9.5 9.5 0 019.5 9.5z"/><text class="aa58d46d-a287-433b-8b75-a0287cbec2be" transform="translate(121.835 261.999)">3</text></g><g><path class="bc01a50a-28f8-4f6d-a5ea-a149a6041d0a" d="M170 231.438h80v112h-80z"/><text class="e47dbbff-6b4e-4b8a-8843-1937bdb84bd2" transform="translate(196.951 283.493)">Block<tspan x="-5.82" y="11">Storage</tspan><tspan x="-3.625" y="22">service</tspan></text><path class="b6a34651-bfe9-490f-8fd4-733f88f448ff" d="M219.5 258.715a9.5 9.5 0 11-9.5-9.5 9.5 9.5 0 019.5 9.5z"/><text class="aa58d46d-a287-433b-8b75-a0287cbec2be" transform="translate(206.55 261.999)">4</text></g><g><path class="bc01a50a-28f8-4f6d-a5ea-a149a6041d0a" d="M255 231.438h80v112h-80z"/><text class="e47dbbff-6b4e-4b8a-8843-1937bdb84bd2" transform="translate(273.115 283.493)">Compute<tspan x="5.21" y="11">service</tspan></text><path class="b6a34651-bfe9-490f-8fd4-733f88f448ff" d="M304.5 258.715a9.5 9.5 0 11-9.5-9.5 9.5 9.5 0 019.5 9.5z"/><text class="aa58d46d-a287-433b-8b75-a0287cbec2be" transform="translate(291.92 261.999)">5</text></g><g><path class="bc01a50a-28f8-4f6d-a5ea-a149a6041d0a" d="M425 231.438h80v112h-80z"/><text class="e47dbbff-6b4e-4b8a-8843-1937bdb84bd2" transform="translate(450.575 283.493)">Image<tspan x="-4.445" y="11">Storage</tspan><tspan x="-2.25" y="22">service</tspan></text><path class="b6a34651-bfe9-490f-8fd4-733f88f448ff" d="M474.5 258.715a9.5 9.5 0 11-9.5-9.5 9.5 9.5 0 019.5 9.5z"/><text class="aa58d46d-a287-433b-8b75-a0287cbec2be" transform="translate(461.911 261.999)">7</text></g><g><path class="bc01a50a-28f8-4f6d-a5ea-a149a6041d0a" d="M509.983 231.438h80v112h-80z"/><path class="ad64ee9d-579e-400a-8938-ec114258412b" d="M538.121 283.6a3.609 3.609 0 113.538-3.6 3.541 3.541 0 01-3.538 3.6zm.01-6.147a2.543 2.543 0 000 5.067 2.545 2.545 0 000-5.067zM545.461 283.542a1.862 1.862 0 01-1.479-.7v.65h-1.109v-7.146l1.129-.19v3a1.95 1.95 0 011.54-.71 2.561 2.561 0 01-.081 5.1zM544 279.955v2.088a1.536 1.536 0 001.2.55 1.6 1.6 0 000-3.2 1.471 1.471 0 00-1.2.562zM548.023 285.591v-.909a1.591 1.591 0 00.4.04c.39 0 .56-.16.56-.54v-5.7h1.129v5.747a1.319 1.319 0 01-1.479 1.43 2.621 2.621 0 01-.61-.068zm.82-8.815a.7.7 0 011.409 0 .7.7 0 01-1.409 0zM553.822 283.593a2.546 2.546 0 01-2.549-2.6 2.466 2.466 0 012.438-2.589 2.4 2.4 0 012.37 2.579v.28h-3.7a1.53 1.53 0 001.5 1.369 1.631 1.631 0 001.19-.469l.74.689a2.9 2.9 0 01-1.989.741zm-1.42-3.019h2.609a1.37 1.37 0 00-1.309-1.249 1.346 1.346 0 00-1.302 1.249zM560.811 282.043l.68.68a2.605 2.605 0 01-1.959.87 2.589 2.589 0 010-5.177 2.7 2.7 0 012 .839l-.7.729a1.658 1.658 0 00-1.259-.589 1.606 1.606 0 00.03 3.2 1.539 1.539 0 001.208-.552zM563.083 279.385h-1.01v-.9h1.01v-1.379l1.129-.24v1.619h1.4v.9h-1.4v2.538c0 .49.19.68.7.68a2.074 2.074 0 00.679-.12v.95a3.592 3.592 0 01-.969.14c-1.01 0-1.539-.48-1.539-1.4zM532 292.583a3.5 3.5 0 002.349 1.02c.929 0 1.569-.47 1.569-1.109 0-.57-.339-.83-1.269-1l-1.29-.22c-1.209-.219-1.8-.819-1.8-1.778 0-1.26 1.01-2.1 2.579-2.1a4.674 4.674 0 012.809.91l-.61.9a3.629 3.629 0 00-2.239-.81c-.839 0-1.389.42-1.389.989 0 .5.31.76 1.079.88l1.24.22c1.409.24 2.069.859 2.069 1.919 0 1.279-1.14 2.189-2.809 2.189a4.4 4.4 0 01-2.938-1.13zM538.8 290.385h-1.009v-.9h1.009v-1.379l1.13-.24v1.619h1.4v.9h-1.4v2.538c0 .49.19.68.7.68a2.076 2.076 0 00.68-.12v.95a3.593 3.593 0 01-.97.14c-1.009 0-1.539-.48-1.539-1.4zM544.612 289.4a2.6 2.6 0 11-2.519 2.589 2.5 2.5 0 012.519-2.589zm1.4 2.6a1.415 1.415 0 10-2.8 0 1.413 1.413 0 102.8 0zM548.3 289.485h1.13v1.09a1.483 1.483 0 011.379-1.179 1.3 1.3 0 01.489.1v.989a1.585 1.585 0 00-.619-.12 1.373 1.373 0 00-1.249.829v3.3h-1.13zM551.983 293.053c0-.9.729-1.469 1.909-1.469a3.089 3.089 0 011.349.31v-.55c0-.659-.38-1-1.149-1a3.459 3.459 0 00-1.459.39l-.4-.82a4.8 4.8 0 012.079-.51c1.3 0 2.048.66 2.048 1.82v3.268h-1.119v-.51a2.088 2.088 0 01-1.489.59 1.579 1.579 0 01-1.769-1.519zm2.079.73a1.789 1.789 0 001.179-.409v-.82a2.591 2.591 0 00-1.159-.24c-.64 0-1.04.28-1.04.72 0 .459.4.749 1.02.749zM557.5 291.984a2.417 2.417 0 012.339-2.539 1.888 1.888 0 011.469.68v-.64h1.119v5.178c0 1.289-.839 2-2.358 2a4.352 4.352 0 01-2.01-.48l.4-.84a3.41 3.41 0 001.559.43c.84 0 1.28-.38 1.28-1.109v-.85a1.944 1.944 0 01-1.53.709 2.4 2.4 0 01-2.268-2.539zm2.608 1.6a1.5 1.5 0 001.19-.549v-2.1a1.554 1.554 0 00-1.19-.54 1.493 1.493 0 00-1.488 1.589 1.513 1.513 0 001.491 1.599zM566.142 294.593a2.546 2.546 0 01-2.549-2.6 2.466 2.466 0 012.438-2.589 2.4 2.4 0 012.369 2.579v.28h-3.7a1.53 1.53 0 001.5 1.369 1.631 1.631 0 001.19-.469l.739.689a2.892 2.892 0 01-1.987.741zm-1.42-3.019h2.609a1.37 1.37 0 00-1.31-1.249 1.345 1.345 0 00-1.299 1.249zM534.088 304.153a2.887 2.887 0 001.609.57c.6 0 1.01-.27 1.01-.67 0-.309-.21-.479-.69-.569l-.89-.15c-.969-.18-1.449-.63-1.449-1.379 0-.94.77-1.55 1.939-1.55a3.52 3.52 0 011.969.6l-.529.74a2.738 2.738 0 00-1.51-.48c-.519 0-.859.22-.859.589 0 .32.18.46.709.55l.88.16c1 .19 1.479.65 1.479 1.4a1.835 1.835 0 01-2.039 1.63 3.355 3.355 0 01-2.158-.68zM541.117 305.593a2.546 2.546 0 01-2.549-2.6 2.467 2.467 0 012.439-2.589 2.4 2.4 0 012.368 2.579v.28h-3.7a1.529 1.529 0 001.5 1.369 1.63 1.63 0 001.189-.469l.74.689a2.9 2.9 0 01-1.987.741zm-1.419-3.019h2.608a1.37 1.37 0 00-1.306-1.249 1.345 1.345 0 00-1.3 1.249zM544.528 300.485h1.13v1.09a1.483 1.483 0 011.379-1.179 1.294 1.294 0 01.489.1v.989a1.585 1.585 0 00-.619-.12 1.374 1.374 0 00-1.249.829v3.3h-1.13zM547.868 300.485h1.23l1.389 3.659 1.389-3.659h1.189l-2.059 5.008h-1.089zM553.738 298.776a.7.7 0 011.409 0 .7.7 0 01-1.409 0zm1.269 6.717h-1.129v-5.008h1.129zM559.976 304.043l.68.68a2.605 2.605 0 01-1.959.87 2.589 2.589 0 010-5.177 2.7 2.7 0 012 .839l-.7.729a1.658 1.658 0 00-1.259-.589 1.606 1.606 0 00.03 3.2 1.539 1.539 0 001.208-.552zM563.947 305.593a2.546 2.546 0 01-2.549-2.6 2.466 2.466 0 012.438-2.589 2.4 2.4 0 012.37 2.579v.28h-3.7a1.53 1.53 0 001.5 1.369 1.631 1.631 0 001.19-.469l.74.689a2.9 2.9 0 01-1.989.741zm-1.42-3.019h2.609a1.37 1.37 0 00-1.309-1.249 1.346 1.346 0 00-1.3 1.249z"/><g><path class="b6a34651-bfe9-490f-8fd4-733f88f448ff" d="M559.483 258.715a9.5 9.5 0 11-9.5-9.5 9.5 9.5 0 019.5 9.5z"/><text class="aa58d46d-a287-433b-8b75-a0287cbec2be" transform="translate(546.794 261.999)">8</text></g></g><g><path class="bc01a50a-28f8-4f6d-a5ea-a149a6041d0a" d="M594.983 231.438h80v112h-80z"/><text class="e47dbbff-6b4e-4b8a-8843-1937bdb84bd2" transform="translate(610.833 283.493)">Telemetry<tspan x="7.475" y="11">service</tspan></text><path class="b6a34651-bfe9-490f-8fd4-733f88f448ff" d="M644.483 258.715a9.5 9.5 0 11-9.5-9.5 9.5 9.5 0 019.5 9.5z"/><text class="aa58d46d-a287-433b-8b75-a0287cbec2be" transform="translate(631.748 261.999)">9</text></g><g><path class="b8bb141e-5f2a-4b8b-8bff-a2b128696cad" d="M472.521 221.657v-83.676H232.163"/><path class="ad64ee9d-579e-400a-8938-ec114258412b" d="M477.508 220.198l-4.987 8.635-4.986-8.635h9.973z"/></g><g><path class="ba7e9391-3ad4-4657-be12-b05b356344ce" d="M505.713 49.751v45.554"/><path class="b6a34651-bfe9-490f-8fd4-733f88f448ff" d="M500.726 93.846l4.987 8.635 4.986-8.635h-9.973z"/></g><g><path class="b8bb141e-5f2a-4b8b-8bff-a2b128696cad" d="M217.5 206.5v15.157"/><path class="ad64ee9d-579e-400a-8938-ec114258412b" d="M212.514 220.198l4.986 8.635 4.986-8.635h-9.972z"/><path class="b0348dc7-996e-444c-ad64-4f1623950828" d="M202.5 194.087V212.8"/><g><path class="ba7e9391-3ad4-4657-be12-b05b356344ce" d="M202.5 191.5v30.157"/><path class="b6a34651-bfe9-490f-8fd4-733f88f448ff" d="M197.514 220.198l4.986 8.635 4.986-8.635h-9.972z"/></g></g><g><path class="b8bb141e-5f2a-4b8b-8bff-a2b128696cad" d="M302.5 206.5v15.157"/><path class="ad64ee9d-579e-400a-8938-ec114258412b" d="M297.514 220.198l4.986 8.635 4.986-8.635h-9.972z"/><path class="b0348dc7-996e-444c-ad64-4f1623950828" d="M287.5 194.087V212.8"/><g><path class="ba7e9391-3ad4-4657-be12-b05b356344ce" d="M287.5 191.5v30.157"/><path class="b6a34651-bfe9-490f-8fd4-733f88f448ff" d="M282.514 220.198l4.986 8.635 4.986-8.635h-9.972z"/></g></g><g><path class="b8bb141e-5f2a-4b8b-8bff-a2b128696cad" d="M387.5 206.5v15.157"/><path class="ad64ee9d-579e-400a-8938-ec114258412b" d="M382.514 220.198l4.986 8.635 4.986-8.635h-9.972z"/><path class="b0348dc7-996e-444c-ad64-4f1623950828" d="M372.5 194.087V212.8"/><g><path class="ba7e9391-3ad4-4657-be12-b05b356344ce" d="M372.5 191.5v30.157"/><path class="b6a34651-bfe9-490f-8fd4-733f88f448ff" d="M367.514 220.198l4.986 8.635 4.986-8.635h-9.972z"/></g></g><g><path class="b8bb141e-5f2a-4b8b-8bff-a2b128696cad" d="M627.483 206.5v15.157"/><path class="ad64ee9d-579e-400a-8938-ec114258412b" d="M622.496 220.198l4.987 8.635 4.986-8.635h-9.973z"/><path class="b0348dc7-996e-444c-ad64-4f1623950828" d="M642.483 194.087V212.8"/><g><path class="ba7e9391-3ad4-4657-be12-b05b356344ce" d="M642.483 191.5v30.157"/><path class="b6a34651-bfe9-490f-8fd4-733f88f448ff" d="M637.496 220.198l4.987 8.635 4.986-8.635h-9.973z"/></g></g><g><path class="b8bb141e-5f2a-4b8b-8bff-a2b128696cad" d="M542.504 206.5v15.157"/><path class="ad64ee9d-579e-400a-8938-ec114258412b" d="M537.518 220.198l4.986 8.635 4.986-8.635h-9.972z"/><path class="b0348dc7-996e-444c-ad64-4f1623950828" d="M557.004 194.087V212.8"/></g><path class="b0348dc7-996e-444c-ad64-4f1623950828" d="M457.521 194.087V212.8M465.165 191.5h13.713"/><g><path class="ba7e9391-3ad4-4657-be12-b05b356344ce" d="M457.521 191.5v30.157"/><path class="b6a34651-bfe9-490f-8fd4-733f88f448ff" d="M452.535 220.198l4.986 8.635 4.987-8.635h-9.973z"/></g><g><path class="ba7e9391-3ad4-4657-be12-b05b356344ce" d="M117.521 221.657V191.5h609.983v30.157"/><path class="b6a34651-bfe9-490f-8fd4-733f88f448ff" d="M122.508 220.198l-4.987 8.635-4.986-8.635h9.973zM722.518 220.198l4.986 8.635 4.986-8.635h-9.972z"/></g><g><path class="ba7e9391-3ad4-4657-be12-b05b356344ce" d="M557.504 221.657V48.775H219.021"/><path class="b6a34651-bfe9-490f-8fd4-733f88f448ff" d="M562.49 220.198l-4.986 8.635-4.986-8.635h9.972z"/></g><path class="bc01a50a-28f8-4f6d-a5ea-a149a6041d0a" d="M519.946 105.051h180.37V172.1h-180.37z"/><g><text transform="translate(666.762 582.223)" fill="#f3f3f3" font-family="RedHatText,&quot;Red Hat Text&quot;,Overpass,&quot;Helvetica Neue&quot;,Arial,sans-serif" font-size="10">134_OpenStack_0121</text><path fill="none" d="M0 559.206h760v40H0z"/></g><g><path class="b8bb141e-5f2a-4b8b-8bff-a2b128696cad" d="M74.676 324.33h1.5"/><path stroke-dasharray="3.011 3.011" stroke-linecap="round" stroke-linejoin="round" stroke="#151515" fill="none" d="M79.187 324.33h660.922"/><path class="b8bb141e-5f2a-4b8b-8bff-a2b128696cad" d="M741.614 324.33h1.5"/><path class="ad64ee9d-579e-400a-8938-ec114258412b" d="M76.135 329.316L67.5 324.33l8.635-4.986v9.972zM741.655 329.316l8.636-4.986-8.636-4.986v9.972z"/></g></svg>