<svg id="f3caf0ec-b204-446b-9728-fa1710dd7085" data-name="artwork" xmlns="http://www.w3.org/2000/svg" width="760" height="518.861"><defs><style>.a75999f2-4e6f-4f79-b7ff-0f2ee66d79aa,.a8e35bd0-112c-4cf5-bd07-fbbf657ef37d,.b72c13da-0527-4186-a24e-dab972cf13f3{fill:none}.a8e35bd0-112c-4cf5-bd07-fbbf657ef37d{stroke:#151515}.a75999f2-4e6f-4f79-b7ff-0f2ee66d79aa,.a8e35bd0-112c-4cf5-bd07-fbbf657ef37d,.b72c13da-0527-4186-a24e-dab972cf13f3{stroke-linecap:round;stroke-linejoin:round}.aa034079-9784-468a-b05f-a57d7cecc486{fill:#e8e8e8}.a8b24648-76dc-44b5-9196-9758c1b7f1ea,.b96ada14-251b-4e0e-9740-b24dba0d7c27,.bf1496c0-251b-46c4-a8ad-ec4c6ab15d1e{fill:#151515}.a8b24648-76dc-44b5-9196-9758c1b7f1ea{font-size:11px;font-family:RedHatText,&quot;Red Hat Text&quot;,Overpass,&quot;Helvetica Neue&quot;,Arial,sans-serif;font-weight:500}.e9647f65-0bd5-4fbc-b17b-7f2111d1cf8c{fill:#06c}.b711d606-6c70-4df2-852a-451ed84ae472,.bf1496c0-251b-46c4-a8ad-ec4c6ab15d1e{font-size:10px;font-family:RedHatText,&quot;Red Hat Text&quot;,Overpass,&quot;Helvetica Neue&quot;,Arial,sans-serif}.b711d606-6c70-4df2-852a-451ed84ae472{fill:#fff;font-weight:700}.bf1496c0-251b-46c4-a8ad-ec4c6ab15d1e{font-style:italic}.a75999f2-4e6f-4f79-b7ff-0f2ee66d79aa{stroke:#06c}.b72c13da-0527-4186-a24e-dab972cf13f3{stroke:#fff;stroke-width:8px}</style></defs><path class="a8e35bd0-112c-4cf5-bd07-fbbf657ef37d" d="M714.505 343.438V476.02H144.521v-28.439"/><path class="aa034079-9784-468a-b05f-a57d7cecc486" d="M669.504 231.438h90v112h-90z"/><path class="a8e35bd0-112c-4cf5-bd07-fbbf657ef37d" d="M90.718 49.5h-1.5"/><path stroke-dasharray="2.906 2.906" stroke-linecap="round" stroke-linejoin="round" stroke="#151515" fill="none" d="M86.312 49.5H35.454"/><path class="a8e35bd0-112c-4cf5-bd07-fbbf657ef37d" d="M34.001 49.5h-1.5V51"/><path stroke-dasharray="2.968 2.968" stroke-linecap="round" stroke-linejoin="round" stroke="#151515" fill="none" d="M32.501 53.968v164.705"/><path class="a8e35bd0-112c-4cf5-bd07-fbbf657ef37d" d="M32.501 220.157v1.5"/><path class="b96ada14-251b-4e0e-9740-b24dba0d7c27" d="M89.259 44.514l8.635 4.986-8.635 4.986v-9.972zM27.514 220.198l4.987 8.635 4.986-8.635h-9.973z"/><path class="a8e35bd0-112c-4cf5-bd07-fbbf657ef37d" d="M90.136 138.542h-1.5"/><path stroke-dasharray="3.049 3.049" stroke-linecap="round" stroke-linejoin="round" stroke="#151515" fill="none" d="M85.587 138.542H50.525"/><path class="a8e35bd0-112c-4cf5-bd07-fbbf657ef37d" d="M49.001 138.542h-1.5v1.5"/><path stroke-dasharray="2.967 2.967" stroke-linecap="round" stroke-linejoin="round" stroke="#151515" fill="none" d="M47.501 143.01v75.663"/><path class="a8e35bd0-112c-4cf5-bd07-fbbf657ef37d" d="M47.501 220.157v1.5"/><path class="b96ada14-251b-4e0e-9740-b24dba0d7c27" d="M88.677 133.556l8.635 4.986-8.635 4.987v-9.973zM42.514 220.198l4.987 8.635 4.986-8.635h-9.973z"/><path class="a8e35bd0-112c-4cf5-bd07-fbbf657ef37d" d="M319.521 343.415v15.209h-80v-15.209M619.504 368.624v68.957H334.521v-18.957"/><path class="a8e35bd0-112c-4cf5-bd07-fbbf657ef37d" d="M517.021 343.415v65.209h-182.5v-65.209M619.504 343.415v15.209h-87.482v-15.209M319.521 368.624v68.957h-175v-94.143M334.521 462.581v13.439M429.521 462.581v13.439M239.521 462.581v13.439M524.521 462.581v13.439M619.503 447.581v28.439"/><path class="aa034079-9784-468a-b05f-a57d7cecc486" d="M100.103 16h659.401v67H100.103zM384.521 231.438h90v112h-90z"/><text class="a8b24648-76dc-44b5-9196-9758c1b7f1ea" transform="translate(400.476 283.493)">Shared File<tspan x="7.073" y="12">Systems</tspan><tspan x="10.703" y="24">service</tspan></text><path class="e9647f65-0bd5-4fbc-b17b-7f2111d1cf8c" d="M439.021 258.715a9.5 9.5 0 11-9.5-9.5 9.5 9.5 0 019.5 9.5z"/><text class="b711d606-6c70-4df2-852a-451ed84ae472" transform="translate(426.267 261.999)">6</text><path class="aa034079-9784-468a-b05f-a57d7cecc486" d="M289.521 231.438h90v112h-90z"/><text class="a8b24648-76dc-44b5-9196-9758c1b7f1ea" transform="translate(310.448 283.493)">Compute<tspan x="5.731" y="12">service</tspan></text><path class="aa034079-9784-468a-b05f-a57d7cecc486" d="M99.521 231.438h90v112h-90z"/><text class="a8b24648-76dc-44b5-9196-9758c1b7f1ea" transform="translate(115.691 283.493)">OpenStack<tspan x="-1.199" y="12">Networking</tspan><tspan x="10.488" y="24">service</tspan></text><path class="aa034079-9784-468a-b05f-a57d7cecc486" d="M0 231.438h80v112H0zM479.521 231.438h90v112h-90z"/><text class="a8b24648-76dc-44b5-9196-9758c1b7f1ea" transform="translate(508.654 283.493)">Image<tspan x="-4.89" y="12">Storage</tspan><tspan x="-2.475" y="24">service</tspan></text><text class="a8b24648-76dc-44b5-9196-9758c1b7f1ea" transform="translate(19.877 283.493)">Identity<tspan x="1.782" y="12">service</tspan></text><path class="aa034079-9784-468a-b05f-a57d7cecc486" d="M194.521 231.438h90v112h-90z"/><text class="a8b24648-76dc-44b5-9196-9758c1b7f1ea" transform="translate(225.167 283.493)">Block<tspan x="-6.402" y="12">Storage</tspan><tspan x="-3.987" y="24">service</tspan></text><text class="bf1496c0-251b-46c4-a8ad-ec4c6ab15d1e" transform="translate(264.992 371.464)">Stores<tspan x="-15.405" y="11">Block devices</tspan><tspan x="-2.79" y="22">for VMs</tspan></text><text class="bf1496c0-251b-46c4-a8ad-ec4c6ab15d1e" transform="translate(343.603 41.615)">Graphical user interface</text><text class="bf1496c0-251b-46c4-a8ad-ec4c6ab15d1e" transform="translate(398.346 421.463)">Stores images</text><path class="a8e35bd0-112c-4cf5-bd07-fbbf657ef37d" d="M429.521 343.415v15.209h-80v-15.209"/><text class="bf1496c0-251b-46c4-a8ad-ec4c6ab15d1e" transform="translate(375.096 371.464)">Stores<tspan x="-9.665" y="11">File Shares</tspan><tspan x="-2.79" y="22">for VMs</tspan></text><text class="bf1496c0-251b-46c4-a8ad-ec4c6ab15d1e" transform="translate(544.589 371.464)">Stores images<tspan x="9.13" y="11">as objects</tspan></text><text class="bf1496c0-251b-46c4-a8ad-ec4c6ab15d1e" transform="translate(379.467 450.421)">Stores objects for VMs</text><text class="bf1496c0-251b-46c4-a8ad-ec4c6ab15d1e" transform="translate(185.093 450.421)">Network connectivity</text><text class="bf1496c0-251b-46c4-a8ad-ec4c6ab15d1e" transform="translate(376.772 488.861)">Collects usage statistics</text><path class="aa034079-9784-468a-b05f-a57d7cecc486" d="M574.504 231.438h90v112h-90z"/><path class="b96ada14-251b-4e0e-9740-b24dba0d7c27" d="M606.459 283.614a3.972 3.972 0 113.9-3.971 3.9 3.9 0 01-3.9 3.971zm.011-6.766a2.8 2.8 0 000 5.578 2.8 2.8 0 000-5.578zM614.533 283.548a2.048 2.048 0 01-1.628-.771v.716h-1.221v-7.866l1.243-.209v3.3a2.144 2.144 0 011.694-.78 2.644 2.644 0 012.5 2.8 2.673 2.673 0 01-2.588 2.81zm-1.606-3.949v2.3a1.69 1.69 0 001.32.6 1.765 1.765 0 000-3.521 1.616 1.616 0 00-1.32.622zM617.348 285.8v-1a1.75 1.75 0 00.44.044c.429 0 .616-.176.616-.594v-6.27h1.243v6.325a1.451 1.451 0 01-1.627 1.573 2.9 2.9 0 01-.672-.078zm.9-9.7a.776.776 0 011.552 0 .776.776 0 01-1.552 0zM623.729 283.6a2.8 2.8 0 01-2.806-2.861 2.714 2.714 0 012.685-2.848 2.645 2.645 0 012.607 2.838v.308h-4.07a1.683 1.683 0 001.65 1.507 1.791 1.791 0 001.309-.518l.814.76a3.187 3.187 0 01-2.189.814zm-1.562-3.323h2.871a1.509 1.509 0 00-1.438-1.377 1.48 1.48 0 00-1.433 1.38zM631.418 281.9l.748.748a2.866 2.866 0 01-2.156.957 2.85 2.85 0 010-5.7 2.97 2.97 0 012.2.924l-.77.8a1.819 1.819 0 00-1.386-.65 1.769 1.769 0 00.033 3.521 1.693 1.693 0 001.331-.6zM633.915 278.972H632.8v-.99h1.112v-1.519l1.243-.264v1.783h1.54v.99h-1.54v2.794c0 .539.209.748.77.748a2.283 2.283 0 00.748-.132v1.045a3.91 3.91 0 01-1.067.154c-1.111 0-1.694-.528-1.694-1.54zM599.727 293.392a3.853 3.853 0 002.585 1.122c1.023 0 1.728-.517 1.728-1.221 0-.628-.375-.913-1.4-1.1l-1.419-.242c-1.331-.242-1.98-.9-1.98-1.958 0-1.386 1.111-2.31 2.838-2.31a5.142 5.142 0 013.091 1l-.671.99a3.994 3.994 0 00-2.464-.891c-.924 0-1.529.462-1.529 1.089 0 .55.341.836 1.188.968l1.364.242c1.551.265 2.277.946 2.277 2.112 0 1.409-1.254 2.41-3.091 2.41a4.846 4.846 0 01-3.234-1.244zM607.207 290.972H606.1v-.99h1.112v-1.519l1.243-.264v1.783h1.54v.99h-1.54v2.794c0 .539.209.748.77.748a2.283 2.283 0 00.748-.132v1.045a3.91 3.91 0 01-1.067.154c-1.111 0-1.694-.528-1.694-1.54zM613.6 289.894a2.856 2.856 0 11-2.773 2.848 2.751 2.751 0 012.773-2.848zm1.54 2.86a1.558 1.558 0 10-3.081 0 1.555 1.555 0 103.081 0zM617.656 289.982h1.244v1.2a1.636 1.636 0 011.519-1.3 1.494 1.494 0 01.539.11v1.089a1.753 1.753 0 00-.682-.132 1.515 1.515 0 00-1.376.913v3.631h-1.243zM621.7 293.909c0-.99.8-1.618 2.1-1.618a3.4 3.4 0 011.486.342v-.606c0-.725-.418-1.1-1.266-1.1a3.813 3.813 0 00-1.606.429l-.44-.9a5.29 5.29 0 012.289-.56c1.43 0 2.255.725 2.255 2v3.6h-1.232v-.561a2.3 2.3 0 01-1.64.649 1.738 1.738 0 01-1.946-1.675zm2.288.8a1.973 1.973 0 001.3-.451v-.9a2.867 2.867 0 00-1.277-.263c-.7 0-1.144.307-1.144.792.003.506.443.825 1.125.825zM627.776 292.732a2.659 2.659 0 012.574-2.794 2.069 2.069 0 011.617.748v-.7h1.233v5.7c0 1.42-.925 2.2-2.6 2.2a4.8 4.8 0 01-2.212-.527l.44-.925a3.752 3.752 0 001.716.473c.924 0 1.409-.418 1.409-1.221v-.935a2.142 2.142 0 01-1.684.781 2.641 2.641 0 01-2.493-2.8zm2.871 1.76a1.653 1.653 0 001.31-.605v-2.311a1.712 1.712 0 00-1.31-.594 1.645 1.645 0 00-1.639 1.75 1.667 1.667 0 001.639 1.76zM637.28 295.6a2.8 2.8 0 01-2.8-2.861 2.714 2.714 0 012.685-2.848 2.645 2.645 0 012.607 2.838v.308H635.7a1.684 1.684 0 001.651 1.507 1.791 1.791 0 001.309-.518l.814.76a3.188 3.188 0 01-2.194.814zm-1.562-3.323h2.872a1.51 1.51 0 00-1.442-1.375 1.48 1.48 0 00-1.43 1.378zM602.02 306.019a3.176 3.176 0 001.772.627c.66 0 1.111-.3 1.111-.737 0-.342-.232-.528-.759-.628l-.979-.165c-1.068-.2-1.6-.692-1.6-1.517 0-1.034.848-1.7 2.135-1.7a3.885 3.885 0 012.167.659l-.583.814a3.013 3.013 0 00-1.662-.528c-.572 0-.946.242-.946.649 0 .353.2.506.781.606l.969.176c1.1.209 1.628.714 1.628 1.54a2.02 2.02 0 01-2.245 1.793 3.7 3.7 0 01-2.376-.748zM609.753 307.6a2.8 2.8 0 01-2.805-2.861 2.714 2.714 0 012.685-2.848 2.645 2.645 0 012.607 2.838v.308h-4.071a1.685 1.685 0 001.651 1.507 1.791 1.791 0 001.309-.518l.814.76a3.188 3.188 0 01-2.19.814zm-1.562-3.323h2.872a1.509 1.509 0 00-1.441-1.375 1.481 1.481 0 00-1.431 1.378zM613.5 301.982h1.243v1.2a1.634 1.634 0 011.519-1.3 1.494 1.494 0 01.539.11v1.089a1.756 1.756 0 00-.682-.132 1.513 1.513 0 00-1.376.913v3.631H613.5zM617.178 301.982h1.353l1.529 4.026 1.529-4.026h1.311l-2.266 5.511h-1.2zM623.635 300.1a.776.776 0 011.551 0 .776.776 0 01-1.551 0zm1.4 7.393h-1.243v-5.511h1.243zM630.5 305.9l.748.748a2.866 2.866 0 01-2.156.957 2.85 2.85 0 010-5.7 2.974 2.974 0 012.2.924l-.771.8a1.819 1.819 0 00-1.386-.65 1.769 1.769 0 00.033 3.521 1.693 1.693 0 001.332-.6zM634.866 307.6a2.8 2.8 0 01-2.8-2.861 2.714 2.714 0 012.685-2.848 2.646 2.646 0 012.607 2.838v.308h-4.071a1.683 1.683 0 001.651 1.507 1.791 1.791 0 001.309-.518l.814.76a3.188 3.188 0 01-2.195.814zm-1.566-3.32h2.872a1.51 1.51 0 00-1.442-1.375 1.48 1.48 0 00-1.43 1.375z"/><text class="a8b24648-76dc-44b5-9196-9758c1b7f1ea" transform="translate(687.939 283.493)">Telemetry<tspan x="8.222" y="12">service</tspan></text><text class="a8b24648-76dc-44b5-9196-9758c1b7f1ea" transform="translate(141.258 52.785)">Dashboard service</text><g><path class="e9647f65-0bd5-4fbc-b17b-7f2111d1cf8c" d="M135.467 49.5a9.5 9.5 0 11-9.5-9.5 9.5 9.5 0 019.5 9.5z"/><text class="b711d606-6c70-4df2-852a-451ed84ae472" transform="translate(124.042 52.785)">1</text></g><g><path class="e9647f65-0bd5-4fbc-b17b-7f2111d1cf8c" d="M154.021 258.715a9.5 9.5 0 11-9.5-9.5 9.5 9.5 0 019.5 9.5z"/><text class="b711d606-6c70-4df2-852a-451ed84ae472" transform="translate(141.356 261.999)">3</text></g><g><path class="e9647f65-0bd5-4fbc-b17b-7f2111d1cf8c" d="M49.5 258.715a9.5 9.5 0 11-9.5-9.5 9.5 9.5 0 019.5 9.5z"/><text class="b711d606-6c70-4df2-852a-451ed84ae472" transform="translate(37.015 261.999)">2</text></g><g><path class="e9647f65-0bd5-4fbc-b17b-7f2111d1cf8c" d="M249.021 258.715a9.5 9.5 0 11-9.5-9.5 9.5 9.5 0 019.5 9.5z"/><text class="b711d606-6c70-4df2-852a-451ed84ae472" transform="translate(236.071 261.999)">4</text></g><g><path class="e9647f65-0bd5-4fbc-b17b-7f2111d1cf8c" d="M344.021 258.715a9.5 9.5 0 11-9.5-9.5 9.5 9.5 0 019.5 9.5z"/><text class="b711d606-6c70-4df2-852a-451ed84ae472" transform="translate(331.441 261.999)">5</text></g><g><path class="e9647f65-0bd5-4fbc-b17b-7f2111d1cf8c" d="M534.021 258.715a9.5 9.5 0 11-9.5-9.5 9.5 9.5 0 019.5 9.5z"/><text class="b711d606-6c70-4df2-852a-451ed84ae472" transform="translate(521.432 261.999)">7</text></g><g><path class="e9647f65-0bd5-4fbc-b17b-7f2111d1cf8c" d="M629 258.715a9.5 9.5 0 11-9.5-9.5 9.5 9.5 0 019.5 9.5z"/><text class="b711d606-6c70-4df2-852a-451ed84ae472" transform="translate(616.315 261.999)">8</text></g><g><path class="e9647f65-0bd5-4fbc-b17b-7f2111d1cf8c" d="M724 258.715a9.5 9.5 0 11-9.5-9.5 9.5 9.5 0 019.5 9.5z"/><text class="b711d606-6c70-4df2-852a-451ed84ae472" transform="translate(711.269 261.999)">9</text></g><g><path class="a8e35bd0-112c-4cf5-bd07-fbbf657ef37d" d="M89.676 324.33h1.5"/><path stroke-dasharray="3.002 3.002" stroke-linecap="round" stroke-linejoin="round" stroke="#151515" fill="none" d="M94.178 324.33h640.935"/><path class="a8e35bd0-112c-4cf5-bd07-fbbf657ef37d" d="M736.614 324.33h1.5"/><path class="b96ada14-251b-4e0e-9740-b24dba0d7c27" d="M91.135 329.316L82.5 324.33l8.635-4.986v9.972zM736.655 329.316l8.636-4.986-8.636-4.986v9.972z"/></g><path class="aa034079-9784-468a-b05f-a57d7cecc486" d="M100.103 105.042h659.401v67H100.103z"/><text class="a8b24648-76dc-44b5-9196-9758c1b7f1ea" transform="translate(141.258 141.828)">Orchestration service</text><g><path class="e9647f65-0bd5-4fbc-b17b-7f2111d1cf8c" d="M135.467 138.543a9.5 9.5 0 11-9.5-9.5 9.5 9.5 0 019.5 9.5z"/><text class="b711d606-6c70-4df2-852a-451ed84ae472" transform="translate(120.588 141.828)">10</text></g><text class="bf1496c0-251b-46c4-a8ad-ec4c6ab15d1e" transform="translate(363.773 130.821)">Creates stacks</text><g><path class="a8e35bd0-112c-4cf5-bd07-fbbf657ef37d" d="M152.021 221.657V206.5h554.983v15.157"/><path class="b96ada14-251b-4e0e-9740-b24dba0d7c27" d="M157.008 220.198l-4.987 8.635-4.986-8.635h9.973zM702.018 220.198l4.986 8.635 4.986-8.635h-9.972z"/></g><g><path class="a8e35bd0-112c-4cf5-bd07-fbbf657ef37d" d="M532.021 221.657v-83.676H259.604"/><path class="b96ada14-251b-4e0e-9740-b24dba0d7c27" d="M537.008 220.198l-4.987 8.635-4.986-8.635h9.973z"/></g><g><path class="a75999f2-4e6f-4f79-b7ff-0f2ee66d79aa" d="M560.713 49.751v45.554"/><path class="e9647f65-0bd5-4fbc-b17b-7f2111d1cf8c" d="M555.726 93.846l4.987 8.635 4.986-8.635h-9.973z"/></g><g><path class="a8e35bd0-112c-4cf5-bd07-fbbf657ef37d" d="M247.021 206.5v15.157"/><path class="b96ada14-251b-4e0e-9740-b24dba0d7c27" d="M242.035 220.198l4.986 8.635 4.987-8.635h-9.973z"/><path class="b72c13da-0527-4186-a24e-dab972cf13f3" d="M232.021 194.087V212.8"/><g><path class="a75999f2-4e6f-4f79-b7ff-0f2ee66d79aa" d="M232.021 191.5v30.157"/><path class="e9647f65-0bd5-4fbc-b17b-7f2111d1cf8c" d="M227.035 220.198l4.986 8.635 4.987-8.635h-9.973z"/></g></g><g><path class="a8e35bd0-112c-4cf5-bd07-fbbf657ef37d" d="M342.021 206.5v15.157"/><path class="b96ada14-251b-4e0e-9740-b24dba0d7c27" d="M337.035 220.198l4.986 8.635 4.987-8.635h-9.973z"/><path class="b72c13da-0527-4186-a24e-dab972cf13f3" d="M327.021 194.087V212.8"/><g><path class="a75999f2-4e6f-4f79-b7ff-0f2ee66d79aa" d="M327.021 191.5v30.157"/><path class="e9647f65-0bd5-4fbc-b17b-7f2111d1cf8c" d="M322.035 220.198l4.986 8.635 4.987-8.635h-9.973z"/></g></g><g><path class="a8e35bd0-112c-4cf5-bd07-fbbf657ef37d" d="M437.021 206.5v15.157"/><path class="b96ada14-251b-4e0e-9740-b24dba0d7c27" d="M432.035 220.198l4.986 8.635 4.987-8.635h-9.973z"/><path class="b72c13da-0527-4186-a24e-dab972cf13f3" d="M422.021 194.087V212.8"/><g><path class="a75999f2-4e6f-4f79-b7ff-0f2ee66d79aa" d="M422.021 191.5v30.157"/><path class="e9647f65-0bd5-4fbc-b17b-7f2111d1cf8c" d="M417.035 220.198l4.986 8.635 4.986-8.635h-9.972z"/></g></g><g><path class="a8e35bd0-112c-4cf5-bd07-fbbf657ef37d" d="M627.004 206.5v15.157"/><path class="b96ada14-251b-4e0e-9740-b24dba0d7c27" d="M622.018 220.198l4.986 8.635 4.986-8.635h-9.972z"/><path class="b72c13da-0527-4186-a24e-dab972cf13f3" d="M612.004 194.087V212.8"/></g><path class="b72c13da-0527-4186-a24e-dab972cf13f3" d="M517.021 194.087V212.8M525.165 191.5h13.713"/><g><path class="a75999f2-4e6f-4f79-b7ff-0f2ee66d79aa" d="M517.021 191.5v30.157"/><path class="e9647f65-0bd5-4fbc-b17b-7f2111d1cf8c" d="M512.035 220.198l4.986 8.635 4.987-8.635h-9.973z"/></g><g><path class="a75999f2-4e6f-4f79-b7ff-0f2ee66d79aa" d="M137.021 221.657V191.5h584.983v30.157"/><path class="e9647f65-0bd5-4fbc-b17b-7f2111d1cf8c" d="M142.008 220.198l-4.987 8.635-4.986-8.635h9.973zM717.018 220.198l4.986 8.635 4.986-8.635h-9.972z"/></g><g><path class="a75999f2-4e6f-4f79-b7ff-0f2ee66d79aa" d="M612.004 221.657V48.775H245.103"/><path class="e9647f65-0bd5-4fbc-b17b-7f2111d1cf8c" d="M616.99 220.198l-4.986 8.635-4.986-8.635h9.972z"/></g><path class="aa034079-9784-468a-b05f-a57d7cecc486" d="M594.266 105.042h165.237v67H594.266z"/><g><text transform="translate(666.783 511.878)" fill="#f3f3f3" font-family="RedHatText,&quot;Red Hat Text&quot;,Overpass,&quot;Helvetica Neue&quot;,Arial,sans-serif" font-size="10">134_OpenStack_0121</text><path fill="none" d="M-.479 488.861h760v40h-760z"/></g></svg>