<svg id="b9feaea6-30c8-4f78-838f-b031e15361ff" data-name="artwork" xmlns="http://www.w3.org/2000/svg" width="760" height="258.272"><defs><pattern id="ae13f03c-355c-456b-8726-5629eb656b81" data-name="diaginal hash (gray) 2" width="50" height="50" patternTransform="matrix(1.5 0 0 1.5 -70.498 -94.502)" patternUnits="userSpaceOnUse"><path class="bbb43f7a-9e41-43db-98a5-db3ce2d2c0f8" d="M0 0h50v50H0z"/><path class="ed5a42dc-5281-44b7-8c88-ce05532959db" d="M50 50v.707l.707-.707H50zM54.849 50L50 54.849v1.414L56.263 50h-1.414zM60.404 50L50 60.404v1.414L61.818 50h-1.414zM65.96 50L50 65.96v1.414L67.374 50H65.96zM71.515 50L50 71.515v1.414L72.929 50h-1.414zM77.071 50L50 77.071v1.414L78.485 50h-1.414zM82.626 50L50 82.626v1.414L84.041 50h-1.415zM88.182 50L50 88.182v1.414L89.596 50h-1.414zM93.737 50L50 93.737v1.414L95.151 50h-1.414zM100 50h-.707L50 99.293V100h.707L100 50.707V50z"/><g><path class="ed5a42dc-5281-44b7-8c88-ce05532959db" d="M0 50v.707L.707 50H0zM4.849 50L0 54.849v1.414L6.263 50H4.849zM10.404 50L0 60.404v1.414L11.818 50h-1.414zM15.96 50L0 65.96v1.414L17.374 50H15.96zM21.515 50L0 71.515v1.414L22.929 50h-1.414zM27.071 50L0 77.071v1.414L28.485 50h-1.414zM32.626 50L0 82.626v1.414L34.041 50h-1.415zM38.182 50L0 88.182v1.414L39.596 50h-1.414zM43.737 50L0 93.737v1.414L45.151 50h-1.414zM50 50h-.707L0 99.293V100h.707L50 50.707V50z"/></g><path class="ed5a42dc-5281-44b7-8c88-ce05532959db" d="M0 50h-.707L-50 99.293V100h.707L0 50.707V50z"/><g><path class="ed5a42dc-5281-44b7-8c88-ce05532959db" d="M50 0v.707L50.707 0H50zM54.849 0L50 4.849v1.414L56.263 0h-1.414zM60.404 0L50 10.404v1.414L61.818 0h-1.414zM65.96 0L50 15.96v1.414L67.374 0H65.96zM71.515 0L50 21.515v1.414L72.929 0h-1.414zM77.071 0L50 27.071v1.414L78.485 0h-1.414zM82.626 0L50 32.626v1.414L84.041 0h-1.415zM88.182 0L50 38.182v1.414L89.596 0h-1.414zM93.737 0L50 43.737v1.414L95.151 0h-1.414zM100 0h-.707L50 49.293V50h.707L100 .707V0z"/></g><g><path class="ed5a42dc-5281-44b7-8c88-ce05532959db" d="M0 0v.707L.707 0H0zM4.849 0L0 4.849v1.414L6.263 0H4.849zM10.404 0L0 10.404v1.414L11.818 0h-1.414zM15.96 0L0 15.96v1.414L17.374 0H15.96zM21.515 0L0 21.515v1.414L22.929 0h-1.414zM27.071 0L0 27.071v1.414L28.485 0h-1.414zM32.626 0L0 32.626v1.414L34.041 0h-1.415zM38.182 0L0 38.182v1.414L39.596 0h-1.414zM43.737 0L0 43.737v1.414L45.151 0h-1.414zM50 0h-.707L0 49.293V50h.707L50 .707V0zM6.263 50L50 6.262V4.848L4.849 50h1.414zM11.818 50L50 11.818v-1.414L10.404 50h1.414zM17.374 50L50 17.374V15.96L15.96 50h1.414zM22.929 50L50 22.929v-1.414L21.515 50h1.414zM28.485 50L50 28.485v-1.414L27.071 50h1.414zM34.04 50L50 34.04v-1.414L32.626 50h1.414zM39.596 50L50 39.596v-1.414L38.182 50h1.414zM45.151 50L50 45.151v-1.414L43.737 50h1.414zM50 50v-.707l-.707.707H50z"/></g><g><path class="ed5a42dc-5281-44b7-8c88-ce05532959db" d="M0 0h-.707L-50 49.293V50h.707L0 .707V0zM-43.737 50L0 6.262V4.848L-45.151 50h1.414zM-38.182 50L0 11.818v-1.414L-39.596 50h1.414zM-32.626 50L0 17.374V15.96L-34.04 50h1.414zM-27.071 50L0 22.929v-1.414L-28.485 50h1.414zM-21.515 50L0 28.485v-1.414L-22.929 50h1.414zM-15.96 50L0 34.04v-1.414L-17.374 50h1.414zM-10.404 50L0 39.596v-1.414L-11.818 50h1.414zM-4.849 50L0 45.151v-1.414L-6.263 50h1.414zM0 50v-.707L-.707 50H0z"/></g><path class="ed5a42dc-5281-44b7-8c88-ce05532959db" d="M100-50h-.707L50-.707V0h.707L100-49.293V-50z"/><g><path class="ed5a42dc-5281-44b7-8c88-ce05532959db" d="M50-50h-.707L0-.707V0h.707L50-49.293V-50zM6.263 0L50-43.738v-1.414L4.849 0h1.414zM11.818 0L50-38.182v-1.414L10.404 0h1.414zM17.374 0L50-32.626v-1.414L15.96 0h1.414zM22.929 0L50-27.071v-1.414L21.515 0h1.414zM28.485 0L50-21.515v-1.414L27.071 0h1.414zM34.04 0L50-15.96v-1.414L32.626 0h1.414zM39.596 0L50-10.404v-1.414L38.182 0h1.414zM45.151 0L50-4.849v-1.414L43.737 0h1.414zM50 0v-.707L49.293 0H50z"/></g><g><path class="ed5a42dc-5281-44b7-8c88-ce05532959db" d="M0-50h-.707L-50-.707V0h.707L0-49.293V-50zM-43.737 0L0-43.738v-1.414L-45.151 0h1.414zM-38.182 0L0-38.182v-1.414L-39.596 0h1.414zM-32.626 0L0-32.626v-1.414L-34.04 0h1.414zM-27.071 0L0-27.071v-1.414L-28.485 0h1.414zM-21.515 0L0-21.515v-1.414L-22.929 0h1.414zM-15.96 0L0-15.96v-1.414L-17.374 0h1.414zM-10.404 0L0-10.404v-1.414L-11.818 0h1.414zM-4.849 0L0-4.849v-1.414L-6.263 0h1.414zM0 0v-.707L-.707 0H0z"/></g></pattern><style>.bbb43f7a-9e41-43db-98a5-db3ce2d2c0f8,.f8e6f3fd-81db-48b1-b7b0-ad2303dfe167{fill:none}.b0faa9c8-3987-47ab-a61f-6a9502538d06,.bd5075b4-3db8-41f9-a975-3b0d3575a11d,.e053634e-5083-4285-8169-6f3431a040fb,.ed5a42dc-5281-44b7-8c88-ce05532959db,.ef8828b6-6cc2-404c-b8ff-487e92860b6f{fill:#151515}.ed5a42dc-5281-44b7-8c88-ce05532959db,.f8e6f3fd-81db-48b1-b7b0-ad2303dfe167{stroke:#151515}.ed5a42dc-5281-44b7-8c88-ce05532959db{stroke-miterlimit:10}.b80b361f-a07a-4c91-86c3-1091dbde6640{fill:#fff}.bd5075b4-3db8-41f9-a975-3b0d3575a11d{font-family:RedHatText,&quot;Red Hat Text&quot;,Overpass,&quot;Helvetica Neue&quot;,Arial,sans-serif;font-weight:700}.f8e6f3fd-81db-48b1-b7b0-ad2303dfe167{stroke-linecap:round;stroke-linejoin:round}.ef8828b6-6cc2-404c-b8ff-487e92860b6f{font-size:11px;font-family:RedHatText,&quot;Red Hat Text&quot;,Overpass,&quot;Helvetica Neue&quot;,Arial,sans-serif;font-style:italic}.bec01fb0-dab1-46b0-a830-6a884f12b8bb{fill:#e8e8e8}.b0faa9c8-3987-47ab-a61f-6a9502538d06,.bd5075b4-3db8-41f9-a975-3b0d3575a11d{font-size:12px}.b0faa9c8-3987-47ab-a61f-6a9502538d06{font-family:RedHatText,&quot;Red Hat Text&quot;,Overpass,&quot;Helvetica Neue&quot;,Arial,sans-serif;font-weight:500}</style></defs><path class="b80b361f-a07a-4c91-86c3-1091dbde6640" d="M.5 20.5h208v175H.5z"/><path d="M208 21v174H1V21h207m1-1H0v176h209V20z" fill="#06c"/><text transform="translate(19.005 50.032)" font-family="RedHatText,&quot;Red Hat Text&quot;,Overpass,&quot;Helvetica Neue&quot;,Arial,sans-serif" font-weight="700" font-size="14" fill="#151515">Edge Device</text><path class="f8e6f3fd-81db-48b1-b7b0-ad2303dfe167" d="M189 121h75.572"/><path class="e053634e-5083-4285-8169-6f3431a040fb" d="M263.113 125.986l8.636-4.986-8.636-4.986v9.972z"/><text class="ef8828b6-6cc2-404c-b8ff-487e92860b6f" transform="translate(218.17 114.124)">Upgrade</text><path class="f8e6f3fd-81db-48b1-b7b0-ad2303dfe167" d="M474.249 121h55.561"/><path class="e053634e-5083-4285-8169-6f3431a040fb" d="M528.351 125.986l8.635-4.986-8.635-4.986v9.972z"/><path class="f8e6f3fd-81db-48b1-b7b0-ad2303dfe167" d="M740.009 121H759.5v82.887H374.249v-18.211"/><path class="e053634e-5083-4285-8169-6f3431a040fb" d="M379.235 187.135l-4.986-8.635-4.987 8.635h9.973z"/><text class="ef8828b6-6cc2-404c-b8ff-487e92860b6f" transform="translate(483.407 114.124)">Upgrade</text><text class="ef8828b6-6cc2-404c-b8ff-487e92860b6f" transform="translate(526.032 216.342)">Restore upgrade</text><path class="bec01fb0-dab1-46b0-a830-6a884f12b8bb" transform="rotate(-180 374.248 121)" d="M274.249 66h200v110h-200z"/><text class="bd5075b4-3db8-41f9-a975-3b0d3575a11d" transform="translate(289.249 90.35)">RHEL A1</text><path class="b80b361f-a07a-4c91-86c3-1091dbde6640" transform="rotate(-180 374.248 131)" d="M289.249 101h170v60h-170z"/><text class="b0faa9c8-3987-47ab-a61f-6a9502538d06" transform="translate(311.958 127.643)">Greenboot OS update<tspan x="5.61" y="13">health check passed</tspan></text><path class="bec01fb0-dab1-46b0-a830-6a884f12b8bb" transform="rotate(-180 639.997 121)" d="M539.997 66h200v110h-200z"/><text class="bd5075b4-3db8-41f9-a975-3b0d3575a11d" transform="translate(554.997 90.35)">RHEL A2</text><path opacity=".08" fill="url(#ae13f03c-355c-456b-8726-5629eb656b81)" d="M554.998 161h170v-60h-170v60z"/><path transform="rotate(-180 639.997 131)" opacity=".05" fill="none" d="M554.998 101h170v60h-170z"/><text class="b0faa9c8-3987-47ab-a61f-6a9502538d06" transform="translate(577.707 127.643)">Greenboot OS update<tspan x="9.534" y="13">health check failed</tspan></text><path class="bec01fb0-dab1-46b0-a830-6a884f12b8bb" transform="rotate(-180 104.006 121)" d="M19.005 66h170v110h-170z"/><text class="bd5075b4-3db8-41f9-a975-3b0d3575a11d" transform="translate(34.005 90.35)">RHEL 0</text><path class="b80b361f-a07a-4c91-86c3-1091dbde6640" transform="rotate(-180 104.006 131)" d="M34.005 101h140v60h-140z"/><path class="b80b361f-a07a-4c91-86c3-1091dbde6640" transform="rotate(-180 104.006 130.819)" d="M34.005 100.819h140v60h-140z"/><text class="b0faa9c8-3987-47ab-a61f-6a9502538d06" transform="translate(63.813 133.866)">Data and apps</text><g><text transform="translate(688.821 241.289)" font-size="10" fill="#f3f3f3" font-family="RedHatText,&quot;Red Hat Text&quot;,Overpass,&quot;Helvetica Neue&quot;,Arial,sans-serif">125_RHEL_1020</text><path class="bbb43f7a-9e41-43db-98a5-db3ce2d2c0f8" d="M0 218.272h760v40H0z"/></g></svg>