<svg xmlns="http://www.w3.org/2000/svg" width="760" height="571.5"><defs><style>.a{fill:#e8e8e8}.b{font-size:14px}.b,.f,.t,.y{fill:#151515}.b,.y{font-family:RedHatText-Bold,Red Hat Text;font-weight:700}.c,.g,.h,.i,.j,.l,.s,.x{fill:none}.c{stroke:#baccdf}.c,.j{stroke-miterlimit:10}.c,.j,.x{stroke-width:1.5px}.d{fill:#fff}.e{fill:#06c}.f,.y{font-size:12px}.f{font-family:RedHatText-Medium,Red Hat Text;font-weight:500}.g,.h,.i{stroke:#adadad}.g,.h,.i,.l,.s,.x{stroke-linecap:round;stroke-linejoin:round}.h{stroke-dasharray:2.968 2.968}.i{stroke-dasharray:3.037 3.037}.j{stroke:#d0d0d0}.k{font-family:RedHatText-Regular,Red Hat Text;font-weight:400}.l{stroke:#06c}.s{stroke:#151515}.x{stroke:#5b5b5b}</style></defs><path class="a" d="M20.147 20h720v245h-720z"/><text class="b" transform="translate(40.147 245.12)">Primary site</text><path class="c" d="M220.442 165.34v50h-160"/><path class="c" d="M215.442 160.34v50h-160"/><path class="d" d="M50.942 155.84h159v49h-159z"/><path class="e" d="M209.442 156.34v48h-158v-48h158m1-1h-160v50h160v-50z"/><text class="f" transform="translate(60.44 175.444)">Controller nodes</text><path class="g" d="M475.442 223.84v1.5h-1.5"/><path class="h" d="M470.974 225.34H288.426"/><path class="g" d="M286.942 225.34h-1.5v-1.5"/><path class="i" d="M285.442 220.803v-77.445"/><path class="g" d="M285.442 141.84v-1.5h1.5"/><path class="h" d="M289.91 140.34h182.548"/><path class="g" d="M473.942 140.34h1.5v1.5"/><path class="i" d="M475.442 144.877v77.444"/><path class="j" d="M465.442 165.34v50h-160"/><path class="j" d="M460.442 160.34v50h-160"/><path class="d" d="M295.442 155.34h160v50h-160z"/><text class="f" transform="translate(305.44 175.444)">Compute nodes<tspan class="k"><tspan x="0" y="14">(local ephemeral)</tspan></tspan></text><path class="j" d="M704.147 160.34v50h-160"/><path class="j" d="M709.147 165.34v50h-160"/><path class="d" d="M539.147 155.34h160v50h-160z"/><text class="f" transform="translate(549.146 175.444)">Volume storage</text><path class="a" d="M20.147 361.555h230v150h-230z"/><path class="g" d="M230.147 465.186v1.5h-1.5"/><path class="h" d="M225.679 466.686H43.131"/><path class="g" d="M41.647 466.686h-1.5v-1.5"/><path class="i" d="M40.147 462.148v-77.444"/><path class="g" d="M40.147 383.186v-1.5h1.5"/><path class="h" d="M44.615 381.686h182.548"/><path class="g" d="M228.647 381.686h1.5v1.5"/><path class="i" d="M230.147 386.223v77.444"/><path class="c" d="M220.147 406.686v50h-160"/><path class="c" d="M215.147 401.686v50h-160"/><path class="d" d="M50.647 397.186h159v49h-159z"/><path class="e" d="M209.147 397.686v48h-158v-48h158m1-1h-160v50h160v-50z"/><text class="f" transform="translate(60.147 416.79)">Compute nodes<tspan class="k"><tspan x="0" y="14">(local ephemeral)</tspan></tspan></text><path class="a" d="M510.147 361.555h230v150h-230z"/><path class="g" d="M720.147 465.186v1.5h-1.5"/><path class="h" d="M715.679 466.686H533.131"/><path class="g" d="M531.647 466.686h-1.5v-1.5"/><path class="i" d="M530.147 462.148v-77.444"/><path class="g" d="M530.147 383.186v-1.5h1.5"/><path class="h" d="M534.615 381.686h182.548"/><path class="g" d="M718.647 381.686h1.5v1.5"/><path class="i" d="M720.147 386.223v77.444"/><path class="c" d="M710.147 406.686v50h-160"/><path class="c" d="M705.147 401.686v50h-160"/><path class="d" d="M540.647 397.186h159v49h-159z"/><path class="e" d="M699.147 397.686v48h-158v-48h158m1-1h-160v50h160v-50z"/><text class="f" transform="translate(550.147 416.79)">Compute nodes<tspan class="k"><tspan x="0" y="14">(local ephemeral)</tspan></tspan></text><path class="g" d="M719.147 223.84v1.5h-1.5"/><path class="h" d="M714.679 225.34H532.131"/><path class="g" d="M530.647 225.34h-1.5v-1.5"/><path class="i" d="M529.147 220.803v-77.445"/><path class="g" d="M529.147 141.84v-1.5h1.5"/><path class="h" d="M533.615 140.34h182.548"/><path class="g" d="M717.647 140.34h1.5v1.5"/><path class="i" d="M719.147 144.877v77.444"/><path class="l" d="M759 101.786v-1.5h-1.5"/><path stroke-dasharray="2.988 2.988" stroke="#06c" stroke-linecap="round" stroke-linejoin="round" fill="none" d="M754.512 100.284l-500.518-.22"/><path class="l" d="M252.5 100.063H251v1.5"/><path stroke-dasharray="2.949 2.949" stroke="#06c" stroke-linecap="round" stroke-linejoin="round" fill="none" d="M251 104.512v28.018"/><path class="l" d="M251 134.005v1.5l-1.5-.001"/><path stroke-dasharray="2.976 2.976" stroke="#06c" stroke-linecap="round" stroke-linejoin="round" fill="none" d="M246.524 135.502l-242.536-.16"/><path class="l" d="M2.5 135.341L1 135.34v1.5"/><path stroke-dasharray="3.001 3.001" stroke="#06c" stroke-linecap="round" stroke-linejoin="round" fill="none" d="M1 139.841v388.658"/><path class="l" d="M1 530v1.5h1.5"/><path stroke-dasharray="3.008 3.008" stroke="#06c" stroke-linecap="round" stroke-linejoin="round" fill="none" d="M5.508 531.5h750.488"/><path class="l" d="M757.5 531.5h1.5V530"/><path stroke-dasharray="2.995 2.995" stroke="#06c" stroke-linecap="round" stroke-linejoin="round" fill="none" d="M759 527.005V103.283"/><path class="d" d="M50.442 80.34h160v35h-160z"/><text class="f" transform="translate(60.44 101.164)">Container registry</text><path class="d" d="M50.442 40.34h160v35h-160z"/><text class="f" transform="translate(60.44 60.444)">Undercloud</text><path class="s" d="M380.147 265v18.67M380.147 322.886v28.993"/><path class="t" d="M375.161 350.42l4.986 8.635 4.987-8.635h-9.973z"/><path class="s" d="M625.147 351.879V337.22h-490v14.659"/><path class="t" d="M630.134 350.42l-4.987 8.635-4.986-8.635h9.973zM130.161 350.42l4.986 8.635 4.987-8.635h-9.973z"/><text transform="translate(353.269 316.372)" font-size="11" font-family="RedHatText-Medium,Red Hat Text" font-weight="500" fill="#151515">L3 routing</text><path stroke="#5b5b5b" stroke-linecap="round" stroke-linejoin="round" fill="#fff" stroke-width="1.5" d="M348.397 283.67h63.5v16.107h-63.5z"/><path stroke-width="2" stroke="#5b5b5b" stroke-linecap="round" stroke-linejoin="round" fill="none" d="M405.109 290.577h0"/><path class="x" d="M355.201 289.366v4.644M362.004 289.366v4.644M368.808 289.366v4.644M375.612 289.366v4.644M382.415 289.366v4.644M389.219 289.366v4.644"/><text class="b" transform="translate(40.147 497.285)">DCN site 1</text><path class="a" d="M265.147 361.555h230v150h-230z"/><path class="g" d="M475.147 465.186v1.5h-1.5"/><path class="h" d="M470.679 466.686H288.131"/><path class="g" d="M286.647 466.686h-1.5v-1.5"/><path class="i" d="M285.147 462.148v-77.444"/><path class="g" d="M285.147 383.186v-1.5h1.5"/><path class="h" d="M289.615 381.686h182.548"/><path class="g" d="M473.647 381.686h1.5v1.5"/><path class="i" d="M475.147 386.223v77.444"/><path class="c" d="M465.147 406.686v50h-160"/><path class="c" d="M460.147 401.686v50h-160"/><path class="d" d="M295.647 397.186h159v49h-159z"/><path class="e" d="M454.147 397.686v48h-158v-48h158m1-1h-160v50h160v-50z"/><text class="f" transform="translate(305.147 416.79)">Compute nodes<tspan class="k"><tspan x="0" y="14">(local ephemeral)</tspan></tspan></text><text class="b" transform="translate(285.147 497.285)">DCN site 2</text><text class="b" transform="translate(530.147 497.285)">DCN site N</text><path class="a" d="M55.147 376.555h34.877v12.33H55.147zM300.147 376.555h34.877v12.33h-34.877zM300.709 134.174h94.51v12.33h-94.51zM300.709 94.174H410v12.33H300.709zM545.147 376.555h34.877v12.33h-34.877z"/><text class="y" transform="translate(60.147 386.29)">AZ 1</text><text class="y" transform="translate(305.147 386.29)">AZ 2</text><text class="y" transform="translate(550.147 386.29)">AZ N</text><text class="y" transform="translate(305.44 144.944)">AZ 0<tspan class="k" x="27.252" y="0"> (optional)</tspan></text><path class="a" d="M544.225 134.174h94.51v12.33h-94.51z"/><text class="y" transform="translate(549.146 144.944)">AZ 0<tspan class="k" x="27.252" y="0"> (optional)</tspan></text><text transform="translate(305.44 103.846)" font-size="12" fill="#06c" font-family="RedHatText-Bold,Red Hat Text" font-weight="700">Overcloud stack</text><text transform="translate(664.102 554.517)" font-size="10" fill="#f3f3f3" font-family="RedHatText-Regular,Red Hat Text">68_OpenStack_0220</text><path fill="none" d="M0 531.5h760v40H0z"/></svg>