<svg id="artwork" xmlns="http://www.w3.org/2000/svg" viewBox="0 0 760 392.51"><defs><style>.cls-3{fill:none}.cls-4{letter-spacing:0}.cls-3{stroke:#151515;stroke-linecap:round;stroke-linejoin:round}.cls-5{letter-spacing:.01em}.cls-10,.cls-14,.cls-17,.cls-19,.cls-20,.cls-21,.cls-9{letter-spacing:0}.cls-23{letter-spacing:.01em}.cls-26,.cls-27,.cls-28{font-size:12px}.cls-26,.cls-27,.cls-28,.cls-29{fill:#151515}.cls-26,.cls-29{font-family:RedHatText,&quot;Red Hat Text&quot;,Overpass,&quot;Helvetica Neue&quot;,Arial,sans-serif;font-weight:700;font-variation-settings:&apos;wght&apos; 700}.cls-30{fill:#e8e8e8}.cls-33,.cls-35{letter-spacing:-.02em}.cls-36,.cls-37{letter-spacing:0}.cls-44{letter-spacing:.02em}.cls-45{letter-spacing:0}.cls-48{letter-spacing:-.01em}.cls-27{font-family:RedHatText,&quot;Red Hat Text&quot;,Overpass,&quot;Helvetica Neue&quot;,Arial,sans-serif;font-variation-settings:&apos;wght&apos; 400}.cls-51,.cls-52,.cls-53,.cls-54,.cls-55,.cls-57{letter-spacing:0}.cls-58,.cls-60{letter-spacing:-.01em}.cls-63{letter-spacing:0}.cls-66{letter-spacing:-.03em}.cls-69,.cls-72,.cls-75,.cls-76,.cls-77,.cls-80{letter-spacing:0}.cls-28{font-family:RedHatText,&quot;Red Hat Text&quot;,Overpass,&quot;Helvetica Neue&quot;,Arial,sans-serif;font-weight:500;font-variation-settings:&apos;wght&apos; 500}.cls-85,.cls-94,.cls-96{letter-spacing:0}.cls-29{font-size:14px}.cls-100,.cls-102,.cls-105,.cls-106{letter-spacing:0}.cls-109{letter-spacing:-.02em}</style></defs><text class="cls-29" transform="translate(0 31.9)"><tspan x="0" y="0" letter-spacing="0">F</tspan><tspan x="9.25" y="0" letter-spacing="0">l</tspan><tspan class="cls-52" x="13.27" y="0">a</tspan><tspan x="21.25" y="0">t</tspan></text><path class="cls-3" d="M1.5 43.29v101.23H15M1.5 104.52H15M1.5 64.52H15"/><path class="cls-30" d="M15 47.02h135v35H15z"/><text class="cls-28" transform="translate(25 69.02)"><tspan class="cls-45" x="0" y="0">d</tspan><tspan class="cls-58" x="7.35" y="0">e</tspan><tspan x="14.1" y="0" letter-spacing="0">v</tspan><tspan class="cls-94" x="20.58" y="0">-i</tspan><tspan class="cls-48" x="29.27" y="0">n</tspan><tspan class="cls-105" x="36.11" y="0">f</tspan><tspan class="cls-76" x="41.13" y="0">r</tspan><tspan class="cls-21" x="45.87" y="0">a</tspan><tspan class="cls-23" x="52.55" y="0">-</tspan><tspan class="cls-17" x="58.23" y="0">g</tspan><tspan class="cls-55" x="65.6" y="0">i</tspan><tspan class="cls-66" x="68.66" y="0">t</tspan><tspan class="cls-14" x="73.31" y="0">-</tspan><tspan class="cls-10" x="78.93" y="0">r</tspan><tspan class="cls-76" x="83.72" y="0">h</tspan><tspan x="90.73" y="0">e</tspan><tspan class="cls-85" x="97.61" y="0">l</tspan><tspan class="cls-63" x="100.69" y="0">7</tspan></text><path class="cls-30" d="M15 87.02h135v35H15z"/><text class="cls-28" transform="translate(25 109.02)"><tspan x="0" y="0" letter-spacing="0">q</tspan><tspan class="cls-20" x="7.31" y="0">a</tspan><tspan class="cls-94" x="13.99" y="0">-i</tspan><tspan class="cls-48" x="22.69" y="0">n</tspan><tspan class="cls-105" x="29.52" y="0">f</tspan><tspan class="cls-76" x="34.54" y="0">r</tspan><tspan class="cls-21" x="39.29" y="0">a</tspan><tspan class="cls-23" x="45.96" y="0">-</tspan><tspan class="cls-17" x="51.64" y="0">g</tspan><tspan class="cls-55" x="59.01" y="0">i</tspan><tspan class="cls-66" x="62.07" y="0">t</tspan><tspan class="cls-20" x="66.72" y="0">-</tspan><tspan class="cls-10" x="72.34" y="0">r</tspan><tspan x="77.13" y="0" letter-spacing="0">h</tspan><tspan x="84.14" y="0">e</tspan><tspan class="cls-85" x="91.02" y="0">l</tspan><tspan class="cls-63" x="94.1" y="0">7</tspan></text><g><path class="cls-30" d="M15 127.02h135v35H15z"/><text class="cls-28" transform="translate(25 149.02)"><tspan class="cls-51" x="0" y="0">p</tspan><tspan class="cls-109" x="7.37" y="0">r</tspan><tspan x="11.88" y="0" letter-spacing="0">o</tspan><tspan class="cls-96" x="19.04" y="0">d</tspan><tspan class="cls-94" x="26.45" y="0">-i</tspan><tspan class="cls-48" x="35.14" y="0">n</tspan><tspan class="cls-102" x="41.98" y="0">f</tspan><tspan class="cls-76" x="47" y="0">r</tspan><tspan class="cls-20" x="51.74" y="0">a</tspan><tspan class="cls-23" x="58.42" y="0">-</tspan><tspan x="64.1" y="0" letter-spacing="0">g</tspan><tspan x="71.47" y="0" letter-spacing="0">i</tspan><tspan class="cls-66" x="74.53" y="0">t</tspan><tspan class="cls-20" x="79.18" y="0">-</tspan><tspan class="cls-10" x="84.8" y="0">r</tspan><tspan class="cls-76" x="89.59" y="0">h</tspan><tspan x="96.6" y="0">e</tspan><tspan class="cls-80" x="103.47" y="0">l</tspan><tspan x="106.56" y="0">7</tspan></text></g><g><text class="cls-29" transform="translate(183.33 31.9)"><tspan x="0" y="0" letter-spacing="-.06em">L</tspan><tspan x="8.25" y="0">C </tspan><tspan x="21.34" y="0" letter-spacing="0">E</tspan><tspan x="30.62" y="0" letter-spacing="-.01em">n</tspan><tspan x="39.08" y="0" letter-spacing="0">v</tspan><tspan x="47.46" y="0" letter-spacing="0">i</tspan><tspan x="51.55" y="0" letter-spacing="-.02em">r</tspan><tspan class="cls-100" x="57.49" y="0">o</tspan><tspan x="66.17" y="0" letter-spacing="0">n</tspan><tspan x="74.88" y="0" letter-spacing="0">m</tspan><tspan x="87.67" y="0" letter-spacing="0">e</tspan><tspan x="95.94" y="0" letter-spacing="-.01em">n</tspan><tspan x="104.4" y="0">t B</tspan><tspan class="cls-75" x="124.03" y="0">as</tspan><tspan class="cls-4" x="139.4" y="0">e</tspan><tspan x="147.7" y="0">d</tspan></text><path class="cls-3" d="M184.83 43.29v291.23h13.5M209.83 114.52h13.5M184.83 64.52h13.5M209.83 82.02v162.5h13.5M234.83 154.52h13.5M234.83 132.02v62.5h13.5"/><path class="cls-30" d="M198.33 47.02h155v35h-155z"/><text class="cls-26" transform="translate(208.33 69.02)"><tspan x="0" y="0" letter-spacing="0">D</tspan><tspan x="9.16" y="0" letter-spacing=".03em">E</tspan><tspan x="17.53" y="0">V</tspan></text><path class="cls-30" d="M198.33 317.02h155v35h-155z"/><text class="cls-26" transform="translate(208.33 339.02)"><tspan x="0" y="0" letter-spacing="0">Q</tspan><tspan x="9.85" y="0">A</tspan></text><path class="cls-30" d="M223.33 97.02h130v35h-130z"/><text class="cls-28" transform="translate(233.33 119.02)"><tspan class="cls-5" x="0" y="0">R</tspan><tspan class="cls-96" x="8.21" y="0">H</tspan><tspan class="cls-54" x="17.25" y="0">E</tspan><tspan x="24.83" y="0">L 7</tspan></text><path class="cls-30" d="M248.33 137.02h105v35h-105z"/><text class="cls-27" transform="translate(258.33 159.02)"><tspan class="cls-17" x="0" y="0">g</tspan><tspan class="cls-55" x="7.05" y="0">i</tspan><tspan x="9.75" y="0">t</tspan></text><g><path class="cls-30" d="M248.33 177.02h105v35h-105z"/><text class="cls-27" transform="translate(258.33 199.02)"><tspan x="0" y="0" letter-spacing="-.01em">c</tspan><tspan class="cls-51" x="5.96" y="0">o</tspan><tspan class="cls-48" x="12.96" y="0">n</tspan><tspan class="cls-69" x="19.43" y="0">t</tspan><tspan class="cls-45" x="23.99" y="0">a</tspan><tspan class="cls-80" x="30.34" y="0">i</tspan><tspan class="cls-76" x="33.06" y="0">n</tspan><tspan class="cls-77" x="39.71" y="0">e</tspan><tspan x="46.38" y="0">r</tspan></text></g><path class="cls-3" d="M234.83 262.02v22.5h13.5"/><g><path class="cls-30" d="M223.33 227.02h130v35h-130z"/><text class="cls-28" transform="translate(233.33 249.02)"><tspan class="cls-5" x="0" y="0">R</tspan><tspan class="cls-96" x="8.21" y="0">H</tspan><tspan class="cls-54" x="17.25" y="0">E</tspan><tspan x="24.83" y="0">L 6</tspan></text></g><g><path class="cls-30" d="M248.33 267.02h105v35h-105z"/><text class="cls-27" transform="translate(258.33 289.02)"><tspan class="cls-19" x="0" y="0">l</tspan><tspan x="2.72" y="0">o</tspan><tspan x="9.68" y="0" letter-spacing="0">g</tspan><tspan class="cls-69" x="16.71" y="0">ho</tspan><tspan class="cls-44" x="30.35" y="0">s</tspan><tspan x="35.99" y="0">t</tspan></text></g></g><g><text class="cls-29" transform="translate(386.67 31.9)"><tspan x="0" y="0" letter-spacing=".01em">A</tspan><tspan x="10.56" y="0" letter-spacing="0">p</tspan><tspan x="19.61" y="0" letter-spacing="0">p</tspan><tspan x="28.64" y="0" letter-spacing="0">l</tspan><tspan class="cls-36" x="32.72" y="0">i</tspan><tspan class="cls-72" x="36.73" y="0">c</tspan><tspan class="cls-52" x="44.4" y="0">a</tspan><tspan x="52.38" y="0" letter-spacing="0">t</tspan><tspan x="58.78" y="0" letter-spacing="0">i</tspan><tspan class="cls-100" x="62.79" y="0">o</tspan><tspan x="71.46" y="0" letter-spacing="0">n B</tspan><tspan class="cls-75" x="93.33" y="0">as</tspan><tspan class="cls-4" x="108.71" y="0">e</tspan><tspan x="117" y="0">d</tspan></text><path class="cls-3" d="M388.17 43.29v291.23h13.5M413.17 114.52h13.5M388.17 64.52h13.5M413.17 82.02v162.5h13.5M438.17 154.52h13.5M438.17 132.02v62.5h13.5"/><path class="cls-30" d="M401.67 47.02h155v35h-155z"/><text class="cls-26" transform="translate(411.67 69.02)"><tspan class="cls-57" x="0" y="0">a</tspan><tspan class="cls-76" x="6.97" y="0">cm</tspan><tspan x="24.44" y="0" letter-spacing="0">ew</tspan><tspan class="cls-77" x="40.72" y="0">e</tspan><tspan x="47.81" y="0">b</tspan></text><path class="cls-30" d="M401.67 317.02h155v35h-155z"/><text class="cls-26" transform="translate(411.67 339.02)"><tspan class="cls-80" x="0" y="0">i</tspan><tspan x="3.51" y="0" letter-spacing="-.01em">n</tspan><tspan class="cls-105" x="10.78" y="0">f</tspan><tspan class="cls-76" x="16.39" y="0">r</tspan><tspan x="21.72" y="0">a</tspan></text><path class="cls-30" d="M426.67 97.02h130v35h-130z"/><text class="cls-28" transform="translate(436.67 119.02)"><tspan class="cls-105" x="0" y="0">f</tspan><tspan x="5.02" y="0" letter-spacing="-.02em">r</tspan><tspan class="cls-51" x="9.54" y="0">o</tspan><tspan class="cls-48" x="16.73" y="0">n</tspan><tspan x="23.57" y="0" letter-spacing="-.02em">t</tspan><tspan class="cls-77" x="28.27" y="0">e</tspan><tspan class="cls-76" x="35.13" y="0">n</tspan><tspan x="42.14" y="0">d</tspan></text><path class="cls-30" d="M451.67 137.02h105v35h-105z"/><text class="cls-27" transform="translate(461.67 159.02)"><tspan class="cls-53" x="0" y="0">w</tspan><tspan class="cls-77" x="8.27" y="0">e</tspan><tspan class="cls-106" x="14.94" y="0">b</tspan><tspan class="cls-23" x="22.05" y="0">-</tspan><tspan class="cls-45" x="27.64" y="0">d</tspan><tspan class="cls-60" x="34.66" y="0">e</tspan><tspan x="41.21" y="0">v</tspan></text><g><path class="cls-30" d="M451.67 177.02h105v35h-105z"/><text class="cls-27" transform="translate(461.67 199.02)"><tspan class="cls-53" x="0" y="0">w</tspan><tspan class="cls-77" x="8.27" y="0">e</tspan><tspan class="cls-106" x="14.94" y="0">b</tspan><tspan class="cls-23" x="22.05" y="0">-</tspan><tspan class="cls-37" x="27.64" y="0">qa</tspan></text></g><path class="cls-3" d="M438.17 262.02v22.5h13.5"/><g><path class="cls-30" d="M426.67 227.02h130v35h-130z"/><text class="cls-28" transform="translate(436.67 249.02)"><tspan x="0" y="0" letter-spacing="0">b</tspan><tspan class="cls-57" x="7.31" y="0">a</tspan><tspan class="cls-76" x="13.93" y="0">c</tspan><tspan x="20.23" y="0" letter-spacing="-.03em">k</tspan><tspan class="cls-77" x="26.39" y="0">e</tspan><tspan class="cls-76" x="33.25" y="0">n</tspan><tspan x="40.26" y="0">d</tspan></text></g><g><path class="cls-30" d="M451.67 267.02h105v35h-105z"/><text class="cls-27" transform="translate(461.67 289.02)"><tspan class="cls-53" x="0" y="0">w</tspan><tspan class="cls-77" x="8.27" y="0">e</tspan><tspan class="cls-106" x="14.94" y="0">b</tspan><tspan class="cls-23" x="22.05" y="0">-</tspan><tspan class="cls-45" x="27.64" y="0">d</tspan><tspan class="cls-60" x="34.66" y="0">e</tspan><tspan x="41.21" y="0">v</tspan></text></g></g><g><text class="cls-29" transform="translate(590 31.9)"><tspan x="0" y="0" letter-spacing="-.03em">L</tspan><tspan class="cls-9" x="8.69" y="0">o</tspan><tspan class="cls-72" x="17.33" y="0">c</tspan><tspan x="25" y="0" letter-spacing="0">a</tspan><tspan class="cls-9" x="32.97" y="0">t</tspan><tspan class="cls-36" x="39.38" y="0">i</tspan><tspan class="cls-100" x="43.38" y="0">o</tspan><tspan x="52.06" y="0">n B</tspan><tspan class="cls-75" x="73.93" y="0">as</tspan><tspan x="89.3" y="0">e</tspan></text><path class="cls-3" d="M591.5 43.29v291.23H605M616.5 114.52H630M591.5 64.52H605M616.5 82.02v162.5H630M641.5 154.52H655M641.5 132.02v62.5H655"/><path class="cls-30" d="M605 47.02h155v35H605z"/><text class="cls-26" transform="translate(615 69.02)"><tspan x="0" y="0" letter-spacing="0">M</tspan><tspan x="11.17" y="0" letter-spacing="0">u</tspan><tspan class="cls-19" x="18.64" y="0">n</tspan><tspan x="26.1" y="0" letter-spacing="0">i</tspan><tspan class="cls-69" x="29.54" y="0">c</tspan><tspan x="36.04" y="0">h</tspan></text><path class="cls-30" d="M605 317.02h155v35H605z"/><text class="cls-26" transform="translate(615 339.02)"><tspan x="0" y="0" letter-spacing="0">B</tspan><tspan class="cls-76" x="8.79" y="0">o</tspan><tspan x="16.23" y="0" letter-spacing=".02em">s</tspan><tspan x="22.58" y="0" letter-spacing="-.02em">t</tspan><tspan class="cls-51" x="27.8" y="0">o</tspan><tspan x="35.25" y="0">n</tspan></text><path class="cls-30" d="M630 97.02h130v35H630z"/><text class="cls-28" transform="translate(640 119.02)"><tspan class="cls-53" x="0" y="0">w</tspan><tspan class="cls-77" x="8.72" y="0">e</tspan><tspan class="cls-106" x="15.59" y="0">b</tspan><tspan class="cls-23" x="23.04" y="0">-</tspan><tspan class="cls-45" x="28.71" y="0">d</tspan><tspan class="cls-58" x="36.07" y="0">e</tspan><tspan x="42.81" y="0">v</tspan></text><path class="cls-30" d="M655 137.02h105v35H655z"/><text class="cls-27" transform="translate(665 159.02)"><tspan class="cls-53" x="0" y="0">w</tspan><tspan class="cls-77" x="8.27" y="0">e</tspan><tspan class="cls-106" x="14.94" y="0">b</tspan><tspan class="cls-35" x="22.05" y="0">-</tspan><tspan class="cls-102" x="27.23" y="0">f</tspan><tspan class="cls-109" x="31.77" y="0">r</tspan><tspan class="cls-51" x="35.79" y="0">o</tspan><tspan class="cls-48" x="42.78" y="0">n</tspan><tspan class="cls-33" x="49.26" y="0">t</tspan><tspan class="cls-77" x="53.52" y="0">e</tspan><tspan class="cls-76" x="60.19" y="0">n</tspan><tspan x="66.84" y="0">d</tspan></text><g><path class="cls-30" d="M655 177.02h105v35H655z"/><text class="cls-27" transform="translate(665 199.02)"><tspan class="cls-53" x="0" y="0">w</tspan><tspan class="cls-77" x="8.27" y="0">e</tspan><tspan class="cls-106" x="14.94" y="0">b</tspan><tspan class="cls-14" x="22.05" y="0">-</tspan><tspan x="27.59" y="0" letter-spacing="0">b</tspan><tspan x="34.57" y="0" letter-spacing="0">a</tspan><tspan class="cls-76" x="40.9" y="0">c</tspan><tspan x="47.03" y="0" letter-spacing="-.03em">k</tspan><tspan class="cls-77" x="52.57" y="0">e</tspan><tspan class="cls-76" x="59.24" y="0">n</tspan><tspan x="65.89" y="0">d</tspan></text></g><path class="cls-3" d="M641.5 262.02v22.5H655"/><g><path class="cls-30" d="M630 227.02h130v35H630z"/><text class="cls-28" transform="translate(640 249.02)"><tspan class="cls-53" x="0" y="0">w</tspan><tspan class="cls-77" x="8.72" y="0">e</tspan><tspan class="cls-106" x="15.59" y="0">b</tspan><tspan class="cls-23" x="23.04" y="0">-</tspan><tspan class="cls-37" x="28.71" y="0">qa</tspan></text></g><g><path class="cls-30" d="M655 267.02h105v35H655z"/><text class="cls-27" transform="translate(665 289.02)"><tspan class="cls-53" x="0" y="0">w</tspan><tspan class="cls-77" x="8.27" y="0">e</tspan><tspan class="cls-106" x="14.94" y="0">b</tspan><tspan class="cls-35" x="22.05" y="0">-</tspan><tspan class="cls-102" x="27.23" y="0">f</tspan><tspan class="cls-109" x="31.77" y="0">r</tspan><tspan class="cls-51" x="35.79" y="0">o</tspan><tspan class="cls-48" x="42.78" y="0">n</tspan><tspan class="cls-33" x="49.26" y="0">t</tspan><tspan class="cls-77" x="53.52" y="0">e</tspan><tspan class="cls-76" x="60.19" y="0">n</tspan><tspan x="66.84" y="0">d</tspan></text></g></g><g><text transform="translate(670.98 375.06)" style="font-variation-settings:'wght' 400" fill="#ececec" font-size="10" font-family="RedHatText,&quot;Red Hat Text&quot;,Overpass,&quot;Helvetica Neue&quot;,Arial,sans-serif"><tspan x="0" y="0" letter-spacing="0">2</tspan><tspan x="5.53" y="0" letter-spacing="0">7</tspan><tspan x="11.06" y="0" letter-spacing=".04em">8</tspan><tspan x="17.64" y="0" letter-spacing=".06em">_</tspan><tspan class="cls-44" x="22.8" y="0">S</tspan><tspan x="29.21" y="0" letter-spacing="0">a</tspan><tspan x="34.48" y="0" letter-spacing="-.01em">t</tspan><tspan x="38.14" y="0" letter-spacing="0">e</tspan><tspan x="43.81" y="0" letter-spacing=".01em">ll</tspan><tspan x="48.53" y="0" letter-spacing=".01em">i</tspan><tspan x="50.87" y="0" letter-spacing="-.01em">t</tspan><tspan x="54.53" y="0" letter-spacing=".02em">e</tspan><tspan x="60.29" y="0" letter-spacing=".02em">_</tspan><tspan x="65.07" y="0" letter-spacing=".01em">0</tspan><tspan x="71.77" y="0" letter-spacing="-.01em">9</tspan><tspan x="77.85" y="0" letter-spacing=".02em">2</tspan><tspan x="83.54" y="0" letter-spacing="0">2</tspan></text><path fill="none" d="M0 352.04h760v40H0z"/></g></svg>