<svg id="artwork" xmlns="http://www.w3.org/2000/svg" viewBox="0 0 760 160"><defs><style>.cls-1{fill:none;stroke:#06c;stroke-linecap:round;stroke-linejoin:round}.cls-3{letter-spacing:0}.cls-4{fill:#fff;font-family:RedHatText,&quot;Red Hat Text&quot;,Overpass,&quot;Helvetica Neue&quot;,Arial,sans-serif;font-weight:700;font-size:12px;font-variation-settings:&apos;wght&apos; 700}.cls-5{fill:#06c}.cls-6,.cls-7,.cls-8{letter-spacing:0}.cls-10{letter-spacing:-.01em}.cls-11,.cls-12{letter-spacing:0}.cls-13{letter-spacing:-.03em}.cls-14{letter-spacing:0}.cls-15{letter-spacing:-.02em}</style></defs><path class="cls-1" d="M50 45h267.75"/><circle class="cls-5" cx="25" cy="45" r="25"/><text class="cls-4" transform="translate(15.51 49.09)"><tspan class="cls-3" x="0" y="0">L</tspan><tspan class="cls-12" x="7.73" y="0">i</tspan><tspan x="11.25" y="0">b</tspan></text><circle class="cls-5" cx="132.75" cy="45" r="25"/><text class="cls-4" transform="translate(119.63 42.5)"><tspan class="cls-13" x="0" y="0">W</tspan><tspan class="cls-11" x="11.42" y="0">e</tspan><tspan x="18.51" y="0">b</tspan><tspan class="cls-8" x="1.51" y="12">D</tspan><tspan class="cls-10" x="10.65" y="12">e</tspan><tspan x="17.62" y="12">v</tspan></text><circle class="cls-5" cx="202.75" cy="45" r="25"/><text class="cls-4" transform="translate(189.63 42.5)"><tspan class="cls-13" x="0" y="0">W</tspan><tspan class="cls-11" x="11.42" y="0">e</tspan><tspan x="18.51" y="0">b</tspan><tspan class="cls-14" x="3.74" y="12">Q</tspan><tspan class="cls-7" x="13.59" y="12">A</tspan></text><circle class="cls-5" cx="272.75" cy="45" r="25"/><text class="cls-4" transform="translate(259.63 42.5)"><tspan class="cls-13" x="0" y="0">W</tspan><tspan class="cls-11" x="11.42" y="0">e</tspan><tspan x="18.51" y="0">b</tspan><tspan x=".8" y="12" letter-spacing="-.02em">U</tspan><tspan x="9.56" y="12" letter-spacing="-.08em">A</tspan><tspan x="17.47" y="12">T</tspan></text><circle class="cls-5" cx="342.75" cy="45" r="25"/><text class="cls-4" transform="translate(329.63 42.5)"><tspan class="cls-13" x="0" y="0">W</tspan><tspan class="cls-11" x="11.42" y="0">e</tspan><tspan x="18.51" y="0">b</tspan><tspan class="cls-6" x="-1.21" y="12">P</tspan><tspan class="cls-15" x="7.21" y="12">r</tspan><tspan x="12.31" y="12">od</tspan></text><path class="cls-1" d="M50 115h197.75"/><circle class="cls-5" cx="25" cy="115" r="25"/><text class="cls-4" transform="translate(15.51 119.09)"><tspan class="cls-3" x="0" y="0">L</tspan><tspan class="cls-12" x="7.73" y="0">i</tspan><tspan x="11.25" y="0">b</tspan></text><circle class="cls-5" cx="132.75" cy="115" r="25"/><text class="cls-4" transform="translate(121.14 119.09)"><tspan class="cls-8" x="0" y="0">D</tspan><tspan class="cls-10" x="9.14" y="0">e</tspan><tspan x="16.11" y="0">v</tspan></text><g><circle class="cls-5" cx="202.75" cy="115" r="25"/><text class="cls-4" transform="translate(193.38 119.09)"><tspan class="cls-14" x="0" y="0">Q</tspan><tspan class="cls-7" x="9.85" y="0">A</tspan></text></g><g><circle class="cls-5" cx="272.75" cy="115" r="25"/><text class="cls-4" transform="translate(258.43 119.09)"><tspan class="cls-6" x="0" y="0">P</tspan><tspan class="cls-15" x="8.42" y="0">r</tspan><tspan x="13.52" y="0">od</tspan></text></g></svg>