<svg id="artwork" xmlns="http://www.w3.org/2000/svg" viewBox="0 0 760 718.5"><defs><style>.cls-3,.cls-4,.cls-6,.cls-8{fill:none}.cls-11,.cls-3,.cls-4,.cls-6,.cls-8{stroke-linecap:round;stroke-linejoin:round}.cls-11,.cls-3{stroke:#5b5b5b;stroke-width:1.5px}.cls-4,.cls-8{stroke:#151515}.cls-6{stroke:#06c}.cls-16,.cls-17,.cls-18,.cls-19,.cls-20{font-family:RedHatText,&quot;Red Hat Text&quot;,Overpass,&quot;Helvetica Neue&quot;,Arial,sans-serif;font-weight:700;font-variation-settings:&apos;wght&apos; 700}.cls-16,.cls-18,.cls-19,.cls-21,.cls-22{fill:#151515}.cls-24{letter-spacing:-.01em}.cls-25,.cls-28,.cls-33{letter-spacing:0}.cls-16{font-size:9px}.cls-36{letter-spacing:.03em}.cls-37{letter-spacing:.01em}.cls-41{letter-spacing:0}.cls-17,.cls-18{font-size:12px}.cls-11,.cls-17,.cls-20,.cls-42{fill:#fff}.cls-43{fill:#06c}.cls-44,.cls-45{fill:#e8e8e8}.cls-46,.cls-51{letter-spacing:0}.cls-53{letter-spacing:.02em}.cls-55{letter-spacing:0}.cls-56{letter-spacing:-.02em}.cls-59{letter-spacing:-.05em}.cls-64,.cls-70{letter-spacing:0}.cls-74{letter-spacing:.03em}.cls-6{stroke-width:2px}.cls-22{font-size:11px;font-family:RedHatText,&quot;Red Hat Text&quot;,Overpass,&quot;Helvetica Neue&quot;,Arial,sans-serif;font-weight:500;font-variation-settings:&apos;wght&apos; 500}.cls-83{letter-spacing:-.03em}.cls-84{letter-spacing:0}.cls-45{stroke:#adadad;stroke-miterlimit:10}.cls-8{stroke-dasharray:0 0 3.06 3.06}.cls-89{letter-spacing:-.03em}.cls-90{letter-spacing:.02em}.cls-100,.cls-101,.cls-104,.cls-93,.cls-96,.cls-97{letter-spacing:0}.cls-110{letter-spacing:-.02em}.cls-114{letter-spacing:0}.cls-115{letter-spacing:.01em}.cls-116,.cls-120,.cls-121,.cls-123{letter-spacing:0}.cls-19,.cls-20{font-size:14px}.cls-127{letter-spacing:.01em}.cls-129{letter-spacing:-.02em}.cls-130{letter-spacing:0}.cls-131{letter-spacing:.01em}.cls-132{letter-spacing:0}.cls-137{letter-spacing:-.02em}.cls-138{letter-spacing:0}</style></defs><path class="cls-44" d="M682.77 638.5v-158h-125v158l62.5 20 62.5-20zM100.27 77.5h635v313h-635z"/><path class="cls-43" d="M758.27 22v391.5h-681V22h681m2-2h-685v395.5h685V20z"/><path class="cls-45" d="M120.27 191.06h94.5v139.5h-94.5z"/><text class="cls-16" transform="translate(147.67 204.55)"><tspan class="cls-89" x="0" y="0">V</tspan><tspan class="cls-131" x="6.39" y="0">e</tspan><tspan class="cls-74" x="11.84" y="0">r</tspan><tspan class="cls-53" x="16.06" y="0">s</tspan><tspan class="cls-127" x="20.85" y="0">i</tspan><tspan class="cls-90" x="23.56" y="0">o</tspan><tspan x="29.27" y="0">n 1</tspan></text><path class="cls-45" d="M130.27 211.06h94.5v139.5h-94.5z"/><text class="cls-16" transform="translate(156.64 224.55)"><tspan class="cls-89" x="0" y="0">V</tspan><tspan class="cls-131" x="6.39" y="0">e</tspan><tspan class="cls-74" x="11.84" y="0">r</tspan><tspan class="cls-53" x="16.06" y="0">s</tspan><tspan class="cls-127" x="20.85" y="0">i</tspan><tspan class="cls-90" x="23.56" y="0">o</tspan><tspan x="29.27" y="0">n 2</tspan></text><path class="cls-42" d="M140.27 231.06h94.5v139.5h-94.5z"/><text class="cls-18" transform="translate(159.22 257.11)"><tspan class="cls-59" x="0" y="0">V</tspan><tspan class="cls-93" x="8.32" y="0">e</tspan><tspan class="cls-115" x="15.41" y="0">r</tspan><tspan class="cls-33" x="20.88" y="0">s</tspan><tspan class="cls-46" x="27.1" y="0">i</tspan><tspan class="cls-55" x="30.54" y="0">o</tspan><tspan x="37.99" y="0">n N</tspan></text><text class="cls-22" transform="translate(166.32 330.46)"><tspan class="cls-100" x="0" y="0">C</tspan><tspan class="cls-116" x="7.87" y="0">o</tspan><tspan class="cls-97" x="14.51" y="0">n</tspan><tspan class="cls-129" x="20.83" y="0">t</tspan><tspan class="cls-114" x="25.19" y="0">e</tspan><tspan class="cls-97" x="31.53" y="0">n</tspan><tspan x="37.85" y="0">t</tspan><tspan class="cls-36" x="5.53" y="12">V</tspan><tspan class="cls-120" x="13.48" y="12">i</tspan><tspan class="cls-123" x="16.29" y="12">e</tspan><tspan x="22.54" y="12">w 1</tspan></text><path class="cls-11" d="M201.67 313.91h-28.3V282.9l5.76-5.77h22.54v36.78z"/><path class="cls-3" d="M179.13 282.9h-5.76l5.76-5.77v5.77zM179.01 289.86h8.51M179.01 295.5h17.02M179.01 301.13h17.02M179.01 306.77h17.02"/><text transform="translate(100.27 57.29)" style="font-variation-settings:'wght' 700" fill="#151515" font-family="RedHatText,&quot;Red Hat Text&quot;,Overpass,&quot;Helvetica Neue&quot;,Arial,sans-serif" font-weight="700" font-size="16"><tspan x="0" y="0" letter-spacing="0">R</tspan><tspan x="11.1" y="0" letter-spacing="0">ed </tspan><tspan x="34.3" y="0" letter-spacing="0">H</tspan><tspan class="cls-24" x="46.5" y="0">a</tspan><tspan x="55.6" y="0">t </tspan><tspan x="66.37" y="0" letter-spacing="0">S</tspan><tspan class="cls-24" x="76.96" y="0">a</tspan><tspan class="cls-56" x="86.06" y="0">t</tspan><tspan x="93.01" y="0" letter-spacing="0">e</tspan><tspan x="102.46" y="0" letter-spacing="0">l</tspan><tspan x="107.1" y="0" letter-spacing="0">l</tspan><tspan x="111.75" y="0" letter-spacing="0">i</tspan><tspan class="cls-56" x="116.38" y="0">t</tspan><tspan x="123.33" y="0">e</tspan></text><text class="cls-19" transform="translate(120.27 108.4)"><tspan x="0" y="0" letter-spacing="0">O</tspan><tspan x="11.51" y="0" letter-spacing="-.02em">r</tspan><tspan x="17.44" y="0" letter-spacing="0">g</tspan><tspan x="26.41" y="0" letter-spacing="0">a</tspan><tspan x="34.57" y="0" letter-spacing="0">n</tspan><tspan x="43.25" y="0" letter-spacing="0">i</tspan><tspan x="47.21" y="0" letter-spacing="0">z</tspan><tspan x="54.29" y="0" letter-spacing="0">a</tspan><tspan class="cls-28" x="62.26" y="0">t</tspan><tspan x="68.67" y="0" letter-spacing="0">i</tspan><tspan x="72.67" y="0" letter-spacing="0">o</tspan><tspan x="81.35" y="0">n 1</tspan></text><path class="cls-42" d="M518.77 231.06h94.5v139.5h-94.5z"/><text class="cls-18" transform="translate(538.67 257.11)"><tspan class="cls-59" x="0" y="0">V</tspan><tspan class="cls-93" x="8.32" y="0">e</tspan><tspan class="cls-115" x="15.41" y="0">r</tspan><tspan class="cls-33" x="20.88" y="0">s</tspan><tspan class="cls-46" x="27.1" y="0">i</tspan><tspan class="cls-55" x="30.54" y="0">o</tspan><tspan x="37.99" y="0">n 2</tspan></text><path class="cls-42" d="M416.77 231.06h94.5v139.5h-94.5z"/><text class="cls-18" transform="translate(435.72 257.11)"><tspan class="cls-59" x="0" y="0">V</tspan><tspan class="cls-93" x="8.32" y="0">e</tspan><tspan class="cls-115" x="15.41" y="0">r</tspan><tspan class="cls-33" x="20.88" y="0">s</tspan><tspan class="cls-46" x="27.1" y="0">i</tspan><tspan class="cls-55" x="30.54" y="0">o</tspan><tspan x="37.99" y="0">n N</tspan></text><path class="cls-42" d="M620.77 231.06h94.5v139.5h-94.5z"/><text class="cls-18" transform="translate(642.04 257.11)"><tspan class="cls-59" x="0" y="0">V</tspan><tspan class="cls-93" x="8.32" y="0">e</tspan><tspan class="cls-115" x="15.41" y="0">r</tspan><tspan class="cls-33" x="20.88" y="0">s</tspan><tspan class="cls-46" x="27.1" y="0">i</tspan><tspan class="cls-55" x="30.54" y="0">o</tspan><tspan x="37.99" y="0">n 1</tspan></text><text class="cls-22" transform="translate(435.74 330.44)"><tspan class="cls-100" x="0" y="0">C</tspan><tspan class="cls-116" x="7.87" y="0">o</tspan><tspan class="cls-70" x="14.51" y="0">m</tspan><tspan class="cls-104" x="24.25" y="0">p</tspan><tspan class="cls-25" x="31.02" y="0">o</tspan><tspan class="cls-37" x="37.66" y="0">s</tspan><tspan class="cls-121" x="43.05" y="0">i</tspan><tspan class="cls-129" x="45.9" y="0">t</tspan><tspan class="cls-101" x="50.26" y="0">e</tspan><tspan class="cls-100" x="7.08" y="12">C</tspan><tspan class="cls-116" x="14.95" y="12">o</tspan><tspan class="cls-97" x="21.59" y="12">n</tspan><tspan class="cls-129" x="27.91" y="12">t</tspan><tspan class="cls-114" x="32.27" y="12">e</tspan><tspan class="cls-97" x="38.61" y="12">n</tspan><tspan x="44.93" y="12">t</tspan><tspan class="cls-36" x="11.36" y="24">V</tspan><tspan class="cls-120" x="19.31" y="24">i</tspan><tspan class="cls-123" x="22.12" y="24">e</tspan><tspan x="28.37" y="24">w 2</tspan></text><path class="cls-11" d="M475.16 309.08H448.5v-29.16l5.43-5.42h21.23v34.58z"/><path class="cls-11" d="M453.93 279.92h-5.43l5.43-5.42v5.42z"/><path class="cls-3" d="M454.69 287.48h7.14M454.69 292.15h14.28M454.69 296.7h14.28M454.69 301.37h14.28M479.54 279.32v34.57h-26.66"/><text class="cls-22" transform="translate(537.74 330.44)"><tspan class="cls-100" x="0" y="0">C</tspan><tspan class="cls-116" x="7.87" y="0">o</tspan><tspan class="cls-70" x="14.51" y="0">m</tspan><tspan class="cls-104" x="24.25" y="0">p</tspan><tspan class="cls-25" x="31.02" y="0">o</tspan><tspan class="cls-37" x="37.66" y="0">s</tspan><tspan class="cls-121" x="43.05" y="0">i</tspan><tspan class="cls-129" x="45.9" y="0">t</tspan><tspan class="cls-101" x="50.26" y="0">e</tspan><tspan class="cls-100" x="7.08" y="12">C</tspan><tspan class="cls-116" x="14.95" y="12">o</tspan><tspan class="cls-97" x="21.59" y="12">n</tspan><tspan class="cls-129" x="27.91" y="12">t</tspan><tspan class="cls-114" x="32.27" y="12">e</tspan><tspan class="cls-97" x="38.61" y="12">n</tspan><tspan x="44.93" y="12">t</tspan><tspan class="cls-36" x="11.36" y="24">V</tspan><tspan class="cls-120" x="19.31" y="24">i</tspan><tspan class="cls-123" x="22.12" y="24">e</tspan><tspan x="28.37" y="24">w 2</tspan></text><path class="cls-11" d="M577.16 309.08H550.5v-29.16l5.43-5.42h21.23v34.58z"/><path class="cls-11" d="M555.93 279.92h-5.43l5.43-5.42v5.42z"/><path class="cls-3" d="M556.69 287.48h7.14M556.69 292.15h14.28M556.69 296.7h14.28M556.69 301.37h14.28M581.54 279.32v34.57h-26.66"/><text class="cls-22" transform="translate(639.74 330.44)"><tspan class="cls-100" x="0" y="0">C</tspan><tspan class="cls-116" x="7.87" y="0">o</tspan><tspan class="cls-70" x="14.51" y="0">m</tspan><tspan class="cls-104" x="24.25" y="0">p</tspan><tspan class="cls-25" x="31.02" y="0">o</tspan><tspan class="cls-37" x="37.66" y="0">s</tspan><tspan class="cls-121" x="43.05" y="0">i</tspan><tspan class="cls-129" x="45.9" y="0">t</tspan><tspan class="cls-101" x="50.26" y="0">e</tspan><tspan class="cls-100" x="7.08" y="12">C</tspan><tspan class="cls-116" x="14.95" y="12">o</tspan><tspan class="cls-97" x="21.59" y="12">n</tspan><tspan class="cls-129" x="27.91" y="12">t</tspan><tspan class="cls-114" x="32.27" y="12">e</tspan><tspan class="cls-97" x="38.61" y="12">n</tspan><tspan x="44.93" y="12">t</tspan><tspan class="cls-36" x="11.36" y="24">V</tspan><tspan class="cls-120" x="19.31" y="24">i</tspan><tspan class="cls-123" x="22.12" y="24">e</tspan><tspan x="28.37" y="24">w 2</tspan></text><path class="cls-11" d="M679.16 309.08H652.5v-29.16l5.43-5.42h21.23v34.58z"/><path class="cls-11" d="M657.93 279.92h-5.43l5.43-5.42v5.42z"/><path class="cls-3" d="M658.69 287.48h7.14M658.69 292.15h14.28M658.69 296.7h14.28M658.69 301.37h14.28M683.54 279.32v34.57h-26.66"/><path stroke="#fff" stroke-width="8" stroke-linecap="round" stroke-linejoin="round" fill="none" d="M67.63 153.56h17.9"/><path class="cls-4" d="M37.64 153.56h183.95"/><path class="cls-21" d="M220.13 158.55l8.64-4.99-8.64-4.98v9.97z"/><path stroke="#06c" stroke-linecap="round" stroke-linejoin="round" fill="none" d="M265.45 153.56h378.29"/><text class="cls-22" transform="translate(.2 183.12)"><tspan x="0" y="0" letter-spacing=".01em">O</tspan><tspan class="cls-104" x="9.08" y="0">p</tspan><tspan x="15.85" y="0" letter-spacing="0">e</tspan><tspan class="cls-25" x="22.19" y="0">r</tspan><tspan x="26.59" y="0" letter-spacing="0">a</tspan><tspan x="32.59" y="0" letter-spacing="-.02em">t</tspan><tspan x="36.95" y="0" letter-spacing="0">o</tspan><tspan x="43.59" y="0">r</tspan></text><path class="cls-11" d="M42.61 166.55c0-10.06-8.26-18.22-18.45-18.22s-18.45 8.16-18.45 18.22h36.9z"/><ellipse class="cls-11" cx="24.16" cy="139.2" rx="9.26" ry="9.15"/><path class="cls-4" d="M268.09 252.89h-1.5"/><path stroke-dasharray="0 0 2.95 2.95" stroke="#151515" stroke-linecap="round" stroke-linejoin="round" fill="none" d="M263.64 252.89h-16.22"/><path class="cls-4" d="M245.95 252.89h-1.5"/><path class="cls-21" d="M266.63 247.9l8.64 4.99-8.64 4.99v-9.98zM245.91 247.9l-8.64 4.99 8.64 4.99v-9.98z"/><path class="cls-4" d="M668.02 221.39v-1.5"/><path class="cls-8" d="M668.02 216.82v-35.23"/><path class="cls-4" d="M668.02 180.06v-1.5"/><path class="cls-21" d="M673.01 219.93l-4.99 8.63-4.99-8.63h9.98z"/><g><path class="cls-4" d="M566.02 221.39v-1.5"/><path class="cls-8" d="M566.02 216.82v-35.23"/><path class="cls-4" d="M566.02 180.06v-1.5"/><path class="cls-21" d="M571.01 219.93l-4.99 8.63-4.99-8.63h9.98z"/></g><g><path class="cls-4" d="M464.02 221.39v-1.5"/><path class="cls-8" d="M464.02 216.82v-35.23"/><path class="cls-4" d="M464.02 180.06v-1.5"/><path class="cls-21" d="M469.01 219.93l-4.99 8.63-4.99-8.63h9.98z"/></g><g><path class="cls-4" d="M256.27 252.89v-1.5"/><path stroke-dasharray="0 0 3.1 3.1" stroke="#151515" stroke-linecap="round" stroke-linejoin="round" fill="none" d="M256.27 248.29v-66.68"/><path class="cls-4" d="M256.27 180.06v-1.5"/></g><g><circle class="cls-43" cx="256.27" cy="153.56" r="25"/><text class="cls-20" transform="translate(245.21 157.65)"><tspan x="0" y="0" letter-spacing="0">L</tspan><tspan class="cls-130" x="9.01" y="0">i</tspan><tspan x="13.1" y="0">b</tspan></text></g><g><circle class="cls-43" cx="464.02" cy="153.56" r="25"/><text class="cls-20" transform="translate(450.49 157.65)"><tspan x="0" y="0" letter-spacing="0">D</tspan><tspan x="10.65" y="0" letter-spacing="-.01em">e</tspan><tspan x="18.77" y="0">v</tspan></text></g><g><circle class="cls-43" cx="566.02" cy="153.56" r="25"/><text class="cls-20" transform="translate(555.6 157.65)"><tspan x="0" y="0" letter-spacing="0">Q</tspan><tspan x="11.48" y="0">E</tspan></text></g><g><circle class="cls-43" cx="668.02" cy="153.56" r="25"/><text class="cls-20" transform="translate(651.33 157.65)"><tspan x="0" y="0" letter-spacing="0">P</tspan><tspan x="9.81" y="0" letter-spacing="-.02em">r</tspan><tspan class="cls-28" x="15.74" y="0">o</tspan><tspan x="24.39" y="0">d</tspan></text></g><path class="cls-45" d="M297.77 191.06h94.5v139.5h-94.5z"/><text class="cls-16" transform="translate(325.17 204.55)"><tspan class="cls-89" x="0" y="0">V</tspan><tspan class="cls-131" x="6.39" y="0">e</tspan><tspan class="cls-74" x="11.84" y="0">r</tspan><tspan class="cls-53" x="16.06" y="0">s</tspan><tspan class="cls-127" x="20.85" y="0">i</tspan><tspan class="cls-90" x="23.56" y="0">o</tspan><tspan x="29.27" y="0">n 1</tspan></text><path class="cls-45" d="M287.77 211.06h94.5v139.5h-94.5z"/><text class="cls-16" transform="translate(314.14 224.55)"><tspan class="cls-89" x="0" y="0">V</tspan><tspan class="cls-131" x="6.39" y="0">e</tspan><tspan class="cls-74" x="11.84" y="0">r</tspan><tspan class="cls-53" x="16.06" y="0">s</tspan><tspan class="cls-127" x="20.85" y="0">i</tspan><tspan class="cls-90" x="23.56" y="0">o</tspan><tspan x="29.27" y="0">n 2</tspan></text><path class="cls-42" d="M277.77 231.06h94.5v139.5h-94.5z"/><text class="cls-18" transform="translate(296.72 257.11)"><tspan class="cls-59" x="0" y="0">V</tspan><tspan class="cls-93" x="8.32" y="0">e</tspan><tspan class="cls-115" x="15.41" y="0">r</tspan><tspan class="cls-33" x="20.88" y="0">s</tspan><tspan class="cls-46" x="27.1" y="0">i</tspan><tspan class="cls-55" x="30.54" y="0">o</tspan><tspan x="37.99" y="0">n N</tspan></text><g><text class="cls-22" transform="translate(296.74 330.44)"><tspan class="cls-100" x="0" y="0">C</tspan><tspan class="cls-116" x="7.87" y="0">o</tspan><tspan class="cls-70" x="14.51" y="0">m</tspan><tspan class="cls-104" x="24.25" y="0">p</tspan><tspan class="cls-25" x="31.02" y="0">o</tspan><tspan class="cls-37" x="37.66" y="0">s</tspan><tspan class="cls-121" x="43.05" y="0">i</tspan><tspan class="cls-129" x="45.9" y="0">t</tspan><tspan class="cls-101" x="50.26" y="0">e</tspan><tspan class="cls-100" x="7.08" y="12">C</tspan><tspan class="cls-116" x="14.95" y="12">o</tspan><tspan class="cls-97" x="21.59" y="12">n</tspan><tspan class="cls-129" x="27.91" y="12">t</tspan><tspan class="cls-114" x="32.27" y="12">e</tspan><tspan class="cls-97" x="38.61" y="12">n</tspan><tspan x="44.93" y="12">t</tspan><tspan class="cls-36" x="11.36" y="24">V</tspan><tspan class="cls-120" x="19.31" y="24">i</tspan><tspan class="cls-123" x="22.12" y="24">e</tspan><tspan x="28.37" y="24">w 2</tspan></text><path class="cls-11" d="M336.16 309.08H309.5v-29.16l5.43-5.42h21.23v34.58z"/><path class="cls-11" d="M314.93 279.92h-5.43l5.43-5.42v5.42z"/><path class="cls-3" d="M315.69 287.48h7.14M315.69 292.15h14.28M315.69 296.7h14.28M315.69 301.37h14.28M340.54 279.32v34.57h-26.66"/></g><path class="cls-44" d="M277.77 638.5v-158h-125v158l62.5 20 62.5-20zM412.77 638.5v-158h-125v158l62.5 20 62.5-20zM547.77 638.5v-158h-125v158l62.5 20 62.5-20z"/><path class="cls-6" d="M485.27 602.23V460.5M350.27 602.23V460.5"/><text class="cls-18" transform="translate(185.61 678.5)"><tspan class="cls-83" x="0" y="0">L</tspan><tspan x="7.46" y="0">o</tspan><tspan class="cls-138" x="14.87" y="0">c</tspan><tspan class="cls-132" x="21.45" y="0">a</tspan><tspan class="cls-84" x="28.3" y="0">t</tspan><tspan class="cls-96" x="33.8" y="0">i</tspan><tspan class="cls-55" x="37.24" y="0">o</tspan><tspan x="44.69" y="0">n 1</tspan></text><text class="cls-18" transform="translate(319.34 678.5)"><tspan class="cls-83" x="0" y="0">L</tspan><tspan x="7.46" y="0">o</tspan><tspan class="cls-138" x="14.87" y="0">c</tspan><tspan class="cls-132" x="21.45" y="0">a</tspan><tspan class="cls-84" x="28.3" y="0">t</tspan><tspan class="cls-96" x="33.8" y="0">i</tspan><tspan class="cls-55" x="37.24" y="0">o</tspan><tspan x="44.69" y="0">n 2</tspan></text><text class="cls-18" transform="translate(454.12 678.5)"><tspan class="cls-83" x="0" y="0">L</tspan><tspan x="7.46" y="0">o</tspan><tspan class="cls-138" x="14.87" y="0">c</tspan><tspan class="cls-132" x="21.45" y="0">a</tspan><tspan class="cls-84" x="28.3" y="0">t</tspan><tspan class="cls-96" x="33.8" y="0">i</tspan><tspan class="cls-55" x="37.24" y="0">o</tspan><tspan x="44.69" y="0">n 3</tspan></text><text class="cls-18" transform="translate(588.19 678.5)"><tspan class="cls-83" x="0" y="0">L</tspan><tspan x="7.46" y="0">o</tspan><tspan class="cls-138" x="14.87" y="0">c</tspan><tspan class="cls-132" x="21.45" y="0">a</tspan><tspan class="cls-84" x="28.3" y="0">t</tspan><tspan class="cls-96" x="33.8" y="0">i</tspan><tspan class="cls-55" x="37.24" y="0">o</tspan><tspan x="44.69" y="0">n N</tspan></text><g><circle class="cls-42" cx="350.21" cy="617.2" r="14"/><path class="cls-43" d="M350.21 604.2c7.17 0 13 5.83 13 13s-5.83 13-13 13-13-5.83-13-13 5.83-13 13-13m0-2c-8.28 0-15 6.72-15 15s6.72 15 15 15 15-6.72 15-15-6.72-15-15-15z"/><text class="cls-19" transform="translate(346.02 621.99)"><tspan x="0" y="0">2</tspan></text></g><g><circle class="cls-42" cx="485.27" cy="617.2" r="14"/><path class="cls-43" d="M485.27 604.2c7.17 0 13 5.83 13 13s-5.83 13-13 13-13-5.83-13-13 5.83-13 13-13m0-2c-8.28 0-15 6.72-15 15s6.72 15 15 15 15-6.72 15-15-6.72-15-15-15z"/><text class="cls-19" transform="translate(480.83 621.99)"><tspan x="0" y="0">3</tspan></text></g><path class="cls-6" d="M620.27 602.23V460.5h-405v141.73"/><text transform="translate(214.26 451.7)" style="font-variation-settings:'wght' 500" font-family="RedHatText,&quot;Red Hat Text&quot;,Overpass,&quot;Helvetica Neue&quot;,Arial,sans-serif" font-weight="500" font-size="12" fill="#151515"><tspan x="0" y="0" letter-spacing="0">N</tspan><tspan x="9.18" y="0" letter-spacing="-.02em">e</tspan><tspan x="15.87" y="0" letter-spacing=".02em">t</tspan><tspan x="21.12" y="0" letter-spacing="0">w</tspan><tspan x="29.84" y="0" letter-spacing="0">o</tspan><tspan x="37.04" y="0" letter-spacing="0">r</tspan><tspan x="41.83" y="0">k </tspan><tspan x="51.02" y="0" letter-spacing="-.04em">(</tspan><tspan x="55.49" y="0" letter-spacing=".02em">f</tspan><tspan x="60.64" y="0" letter-spacing="0">i</tspan><tspan x="63.72" y="0" letter-spacing="-.02em">r</tspan><tspan x="68.24" y="0" letter-spacing="0">e</tspan><tspan x="75" y="0" letter-spacing="0">w</tspan><tspan x="83.77" y="0" letter-spacing="0">a</tspan><tspan class="cls-130" x="90.42" y="0">l</tspan><tspan class="cls-51" x="93.49" y="0">l</tspan><tspan class="cls-64" x="96.41" y="0">)</tspan></text><path class="cls-6" d="M417.77 460.5v-45"/><g><circle class="cls-42" cx="215.27" cy="617.2" r="14"/><path class="cls-43" d="M215.27 604.2c7.17 0 13 5.83 13 13s-5.83 13-13 13-13-5.83-13-13 5.83-13 13-13m0-2c-8.28 0-15 6.72-15 15s6.72 15 15 15 15-6.72 15-15-6.72-15-15-15z"/><text class="cls-19" transform="translate(212.56 621.99)"><tspan x="0" y="0">1</tspan></text></g><g><circle class="cls-43" cx="350.29" cy="517" r="20"/><text class="cls-17" transform="translate(341.35 521.09)"><tspan class="cls-41" x="0" y="0">Q</tspan><tspan x="9.85" y="0">E</tspan></text><g><circle class="cls-43" cx="350.29" cy="567" r="20"/><text class="cls-17" transform="translate(335.96 571.09)"><tspan class="cls-51" x="0" y="0">P</tspan><tspan class="cls-137" x="8.42" y="0">r</tspan><tspan x="13.52" y="0">od</tspan></text></g></g><g><circle class="cls-43" cx="215.27" cy="517" r="20"/><text class="cls-17" transform="translate(203.66 521.09)"><tspan x="0" y="0" letter-spacing="0">D</tspan><tspan x="9.14" y="0" letter-spacing="-.01em">e</tspan><tspan x="16.11" y="0">v</tspan></text><g><circle class="cls-43" cx="215.27" cy="567" r="20"/><text class="cls-17" transform="translate(206.34 571.09)"><tspan class="cls-41" x="0" y="0">Q</tspan><tspan x="9.85" y="0">E</tspan></text></g></g><g><circle class="cls-43" cx="485.27" cy="567" r="20"/><text class="cls-17" transform="translate(476.34 571.09)"><tspan class="cls-41" x="0" y="0">Q</tspan><tspan x="9.85" y="0">E</tspan></text></g><text class="cls-18" transform="translate(-.27 550.49)"><tspan x="0" y="0" letter-spacing="0">R</tspan><tspan x="8.35" y="0" letter-spacing="0">e</tspan><tspan class="cls-64" x="15.47" y="0">d </tspan><tspan x="25.76" y="0" letter-spacing="0">H</tspan><tspan class="cls-132" x="34.93" y="0">a</tspan><tspan x="41.77" y="0">t </tspan><tspan x="49.85" y="0" letter-spacing="0">S</tspan><tspan class="cls-132" x="57.82" y="0">a</tspan><tspan class="cls-110" x="64.66" y="0">t</tspan><tspan x="69.89" y="0">e</tspan><tspan class="cls-130" x="76.99" y="0">ll</tspan><tspan x="84" y="0" letter-spacing="0">i</tspan><tspan class="cls-110" x="87.49" y="0">t</tspan><tspan x="92.72" y="0">e</tspan><tspan x="0" y="13" letter-spacing="0">C</tspan><tspan x="8.67" y="13" letter-spacing="0">a</tspan><tspan x="15.67" y="13" letter-spacing="0">p</tspan><tspan x="23.42" y="13" letter-spacing="0">s</tspan><tspan x="29.6" y="13" letter-spacing="0">u</tspan><tspan x="37.07" y="13" letter-spacing="0">l</tspan><tspan x="40.56" y="13">e </tspan><tspan x="50.25" y="13" letter-spacing="0">S</tspan><tspan x="58.19" y="13" letter-spacing="0">e</tspan><tspan x="65.29" y="13" letter-spacing=".04em">r</tspan><tspan x="71.03" y="13" letter-spacing="-.01em">v</tspan><tspan class="cls-93" x="77.97" y="13">e</tspan><tspan class="cls-115" x="85.06" y="13">r</tspan><tspan x="90.53" y="13">s</tspan></text><path class="cls-4" d="M208.09 617.75l-106.4-62.42"/><g><circle class="cls-42" cx="620.27" cy="617.2" r="14"/><path class="cls-43" d="M620.27 604.2c7.17 0 13 5.83 13 13s-5.83 13-13 13-13-5.83-13-13 5.83-13 13-13m0-2c-8.28 0-15 6.72-15 15s6.72 15 15 15 15-6.72 15-15-6.72-15-15-15z"/><text class="cls-19" transform="translate(614.74 621.99)"><tspan x="0" y="0">N</tspan></text></g><g><circle class="cls-43" cx="620.27" cy="567" r="20"/><text class="cls-17" transform="translate(605.95 571.09)"><tspan class="cls-51" x="0" y="0">P</tspan><tspan class="cls-137" x="8.42" y="0">r</tspan><tspan x="13.52" y="0">od</tspan></text></g><g><text transform="translate(670.98 701.52)" style="font-variation-settings:'wght' 400" fill="#ececec" font-family="RedHatText,&quot;Red Hat Text&quot;,Overpass,&quot;Helvetica Neue&quot;,Arial,sans-serif" font-size="10"><tspan x="0" y="0" letter-spacing="0">2</tspan><tspan x="5.53" y="0" letter-spacing="0">7</tspan><tspan x="11.06" y="0" letter-spacing=".04em">8</tspan><tspan x="17.64" y="0" letter-spacing=".06em">_</tspan><tspan x="22.8" y="0" letter-spacing=".02em">S</tspan><tspan x="29.21" y="0" letter-spacing="0">a</tspan><tspan x="34.48" y="0" letter-spacing="-.01em">t</tspan><tspan x="38.14" y="0" letter-spacing="0">e</tspan><tspan x="43.81" y="0" letter-spacing=".01em">ll</tspan><tspan x="48.53" y="0" letter-spacing=".01em">i</tspan><tspan x="50.87" y="0" letter-spacing="-.01em">t</tspan><tspan x="54.53" y="0" letter-spacing=".02em">e</tspan><tspan x="60.29" y="0" letter-spacing=".02em">_</tspan><tspan x="65.07" y="0" letter-spacing=".01em">0</tspan><tspan x="71.77" y="0" letter-spacing="-.01em">9</tspan><tspan x="77.85" y="0" letter-spacing=".02em">2</tspan><tspan x="83.54" y="0" letter-spacing="0">2</tspan></text><path fill="none" d="M0 678.5h760v40H0z"/></g></svg>