<svg id="artwork" xmlns="http://www.w3.org/2000/svg" viewBox="0 0 760 671"><defs><style>.cls-11,.cls-12,.cls-13,.cls-3,.cls-4,.cls-5,.cls-6,.cls-7,.cls-8,.cls-9{fill:none}.cls-12,.cls-13,.cls-15,.cls-3,.cls-4,.cls-5,.cls-6,.cls-7,.cls-8,.cls-9{stroke-linecap:round;stroke-linejoin:round}.cls-12,.cls-13,.cls-15,.cls-3,.cls-5,.cls-7,.cls-8{stroke:#5b5b5b}.cls-15,.cls-3{stroke-width:1.5px}.cls-4{stroke:#151515}.cls-19,.cls-20,.cls-21,.cls-22,.cls-23,.cls-24{fill:#151515}.cls-19,.cls-24{font-family:RedHatText,&quot;Red Hat Text&quot;,Overpass,&quot;Helvetica Neue&quot;,Arial,sans-serif;font-weight:700;font-variation-settings:&apos;wght&apos; 700}.cls-25{letter-spacing:-.01em}.cls-26,.cls-40,.cls-41{letter-spacing:0}.cls-19,.cls-22{font-size:12px}.cls-48{fill:#06c}.cls-15,.cls-49{fill:#fff}.cls-50{fill:#e8e8e8}.cls-51{fill:#d9e8f7}.cls-63{letter-spacing:0}.cls-64{letter-spacing:-.02em}.cls-74{letter-spacing:.02em}.cls-5{stroke-dasharray:0 0 0 4.04}.cls-12,.cls-13,.cls-5,.cls-6,.cls-7,.cls-8{stroke-width:2px}.cls-80{letter-spacing:-.01em}.cls-81{letter-spacing:0}.cls-85,.cls-86,.cls-88{letter-spacing:.01em}.cls-23{font-size:10px}.cls-6{stroke:#06c}.cls-21{font-size:11px}.cls-21,.cls-22,.cls-23{font-family:RedHatText,&quot;Red Hat Text&quot;,Overpass,&quot;Helvetica Neue&quot;,Arial,sans-serif;font-weight:500;font-variation-settings:&apos;wght&apos; 500}.cls-101{letter-spacing:-.03em}.cls-102,.cls-110,.cls-112{letter-spacing:0}.cls-114{letter-spacing:.02em}.cls-115{letter-spacing:0}.cls-8{stroke-dasharray:0 0 0 4.24}.cls-119{letter-spacing:0}.cls-9{stroke:#fff;stroke-width:8px}.cls-11{stroke-miterlimit:10;stroke:#c4c4c4}.cls-129{letter-spacing:0}.cls-131{letter-spacing:.01em}.cls-138{letter-spacing:-.02em}.cls-144,.cls-145,.cls-152{letter-spacing:0}.cls-24{font-size:14px}.cls-159{letter-spacing:0}.cls-12,.cls-13{stroke-dasharray:0 0 0 4.38}.cls-168,.cls-169,.cls-171,.cls-173{letter-spacing:0}</style></defs><path class="cls-51" d="M145 481v120h125V481l-62.5 20-62.5-20z"/><path class="cls-15" d="M189.05 532.56h36.9v36.88h-36.9z"/><path class="cls-7" d="M220.06 562.17"/><path class="cls-3" d="M194.69 562.29h8.71"/><path class="cls-7" d="M220.06 550.87"/><path class="cls-3" d="M194.69 550.99h8.71"/><path class="cls-7" d="M220.06 539.57"/><path class="cls-3" d="M194.69 539.69h8.71"/><path class="cls-50" d="M270 476v-53H145v53l62.5 20 62.5-20z"/><path class="cls-51" d="M279.94 481v120h125V481l-62.5 20-62.5-20z"/><path class="cls-50" d="M404.94 476v-53h-125v53l62.5 20 62.5-20z"/><path class="cls-51" d="M415.19 481v120h125V481l-62.5 20-62.5-20z"/><path class="cls-50" d="M540.19 476v-53h-125v53l62.5 20 62.5-20z"/><path class="cls-51" d="M550 481v120h125V481l-62.5 20-62.5-20z"/><path class="cls-50" d="M675 476v-53H550v53l62.5 20 62.5-20z"/><path class="cls-6" d="M477.5 439.73V403M342.5 439.73V403"/><circle class="cls-49" cx="342.44" cy="454.7" r="14"/><path class="cls-48" d="M342.44 441.7c7.17 0 13 5.83 13 13s-5.83 13-13 13-13-5.83-13-13 5.83-13 13-13m0-2c-8.28 0-15 6.72-15 15s6.72 15 15 15 15-6.72 15-15-6.72-15-15-15z"/><text class="cls-24" transform="translate(338.25 459.49)"><tspan x="0" y="0">2</tspan></text><circle class="cls-49" cx="477.5" cy="454.7" r="14"/><path class="cls-48" d="M477.5 441.7c7.17 0 13 5.83 13 13s-5.83 13-13 13-13-5.83-13-13 5.83-13 13-13m0-2c-8.28 0-15 6.72-15 15s6.72 15 15 15 15-6.72 15-15-6.72-15-15-15z"/><text class="cls-24" transform="translate(473.06 459.49)"><tspan x="0" y="0">3</tspan></text><path class="cls-6" d="M612.5 439.73V403h-405v36.7"/><circle class="cls-49" cx="207.5" cy="454.7" r="14"/><path class="cls-48" d="M207.5 441.7c7.17 0 13 5.83 13 13s-5.83 13-13 13-13-5.83-13-13 5.83-13 13-13m0-2c-8.28 0-15 6.72-15 15s6.72 15 15 15 15-6.72 15-15-6.72-15-15-15z"/><text class="cls-24" transform="translate(204.79 459.49)"><tspan x="0" y="0">1</tspan></text><circle class="cls-49" cx="612.5" cy="454.7" r="14"/><path class="cls-48" d="M612.5 441.7c7.17 0 13 5.83 13 13s-5.83 13-13 13-13-5.83-13-13 5.83-13 13-13m0-2c-8.28 0-15 6.72-15 15s6.72 15 15 15 15-6.72 15-15-6.72-15-15-15z"/><text class="cls-24" transform="translate(606.97 459.49)"><tspan x="0" y="0">N</tspan></text><path class="cls-15" d="M627.56 551c0-7.33-5.99-13.27-13.38-13.27-5 0-9.36 2.73-11.65 6.76a9.85 9.85 0 00-1.73-.16c-5.55 0-10.05 4.46-10.05 9.97s4.5 9.97 10.05 9.97h26.76c3.69 0 6.69-2.97 6.69-6.64s-3-6.64-6.69-6.64z"/><path class="cls-7" d="M455.8 529.12"/><path class="cls-12" d="M455.8 533.5v37.19"/><path class="cls-7" d="M455.8 572.87"/><path class="cls-13" d="M460.18 572.87h37.21"/><path class="cls-7" d="M499.57 572.87"/><path class="cls-12" d="M499.57 568.5v-37.19"/><path class="cls-7" d="M499.57 529.12"/><path class="cls-13" d="M495.2 529.12h-37.21"/><path class="cls-15" d="M459.24 532.56h36.9v36.88h-36.9z"/><path class="cls-7" d="M490.25 562.04"/><path class="cls-3" d="M464.88 562.29h8.71"/><path class="cls-7" d="M490.25 550.74"/><path class="cls-3" d="M464.88 550.99h8.71"/><path class="cls-7" d="M490.25 539.44"/><path class="cls-3" d="M464.88 539.69h8.71"/><path class="cls-7" d="M324.24 548.15"/><path class="cls-8" d="M324.24 543.91v-6.36"/><path class="cls-7" d="M324.24 535.43"/><path class="cls-5" d="M328.29 535.43h30.33"/><path class="cls-7" d="M360.64 535.43"/><path class="cls-8" d="M360.64 539.67v6.36"/><path class="cls-7" d="M360.64 548.15"/><path class="cls-5" d="M356.59 548.15h-30.33"/><path class="cls-15" d="M323.99 552.32h36.9v14.25h-36.9z"/><path class="cls-7" d="M355 559.3"/><path class="cls-3" d="M329.63 559.43h8.71"/><text class="cls-19" transform="translate(177.84 621)"><tspan class="cls-101" x="0" y="0">L</tspan><tspan x="7.46" y="0">o</tspan><tspan class="cls-168" x="14.87" y="0">c</tspan><tspan class="cls-159" x="21.45" y="0">a</tspan><tspan class="cls-102" x="28.3" y="0">t</tspan><tspan class="cls-119" x="33.8" y="0">i</tspan><tspan class="cls-63" x="37.24" y="0">o</tspan><tspan x="44.69" y="0">n 1</tspan></text><text class="cls-19" transform="translate(311.57 621)"><tspan class="cls-101" x="0" y="0">L</tspan><tspan x="7.46" y="0">o</tspan><tspan class="cls-168" x="14.87" y="0">c</tspan><tspan class="cls-159" x="21.45" y="0">a</tspan><tspan class="cls-102" x="28.3" y="0">t</tspan><tspan class="cls-119" x="33.8" y="0">i</tspan><tspan class="cls-63" x="37.24" y="0">o</tspan><tspan x="44.69" y="0">n 2</tspan></text><text class="cls-19" transform="translate(446.35 621)"><tspan class="cls-101" x="0" y="0">L</tspan><tspan x="7.46" y="0">o</tspan><tspan class="cls-168" x="14.87" y="0">c</tspan><tspan class="cls-159" x="21.45" y="0">a</tspan><tspan class="cls-102" x="28.3" y="0">t</tspan><tspan class="cls-119" x="33.8" y="0">i</tspan><tspan class="cls-63" x="37.24" y="0">o</tspan><tspan x="44.69" y="0">n 3</tspan></text><text class="cls-19" transform="translate(580.42 621)"><tspan class="cls-101" x="0" y="0">L</tspan><tspan x="7.46" y="0">o</tspan><tspan class="cls-168" x="14.87" y="0">c</tspan><tspan class="cls-159" x="21.45" y="0">a</tspan><tspan class="cls-102" x="28.3" y="0">t</tspan><tspan class="cls-119" x="33.8" y="0">i</tspan><tspan class="cls-63" x="37.24" y="0">o</tspan><tspan x="44.69" y="0">n N</tspan></text><text class="cls-22" transform="translate(206.49 394.2)"><tspan x="0" y="0" letter-spacing="0">N</tspan><tspan x="9.18" y="0" letter-spacing="-.02em">e</tspan><tspan x="15.87" y="0" letter-spacing=".02em">t</tspan><tspan x="21.12" y="0" letter-spacing="0">w</tspan><tspan class="cls-81" x="29.84" y="0">o</tspan><tspan x="37.04" y="0" letter-spacing="0">r</tspan><tspan x="41.83" y="0">k</tspan></text><path class="cls-6" d="M410 403v-45"/><path class="cls-48" d="M528 107v249H292V107h236m2-2H290v253h240V105z"/><path class="cls-9" d="M469 97.68v17.9"/><text class="cls-19" transform="translate(-.54 392.78)"><tspan x="0" y="0" letter-spacing="0">R</tspan><tspan class="cls-152" x="8.35" y="0">e</tspan><tspan x="15.47" y="0" letter-spacing="0">d </tspan><tspan x="25.76" y="0" letter-spacing="0">H</tspan><tspan class="cls-159" x="34.93" y="0">a</tspan><tspan x="41.77" y="0">t </tspan><tspan x="49.85" y="0" letter-spacing="0">S</tspan><tspan class="cls-159" x="57.82" y="0">a</tspan><tspan class="cls-138" x="64.66" y="0">t</tspan><tspan x="69.89" y="0">e</tspan><tspan x="76.99" y="0" letter-spacing="0">ll</tspan><tspan x="84" y="0" letter-spacing="0">i</tspan><tspan class="cls-138" x="87.49" y="0">t</tspan><tspan x="92.72" y="0">e</tspan><tspan x="0" y="13" letter-spacing="0">C</tspan><tspan class="cls-129" x="8.67" y="13">a</tspan><tspan class="cls-40" x="15.67" y="13">p</tspan><tspan x="23.42" y="13" letter-spacing="0">s</tspan><tspan x="29.6" y="13" letter-spacing="0">u</tspan><tspan x="37.07" y="13" letter-spacing="0">l</tspan><tspan x="40.56" y="13">e </tspan><tspan x="50.25" y="13" letter-spacing="0">S</tspan><tspan class="cls-112" x="58.19" y="13">e</tspan><tspan x="65.29" y="13" letter-spacing=".04em">r</tspan><tspan x="71.03" y="13" letter-spacing="-.01em">v</tspan><tspan class="cls-115" x="77.97" y="13">e</tspan><tspan x="85.06" y="13" letter-spacing=".01em">r</tspan><tspan x="90.53" y="13">s</tspan></text><path class="cls-4" d="M200.08 455.2l-98.64-57.86"/><text class="cls-19" transform="translate(-.54 506.97)"><tspan x="0" y="0" letter-spacing="0">M</tspan><tspan class="cls-129" x="11.11" y="0">a</tspan><tspan x="18.12" y="0" letter-spacing="0">n</tspan><tspan class="cls-40" x="25.49" y="0">a</tspan><tspan class="cls-81" x="32.46" y="0">g</tspan><tspan class="cls-152" x="40.19" y="0">e</tspan><tspan x="47.32" y="0">d </tspan><tspan class="cls-110" x="57.61" y="0">ho</tspan><tspan x="72.5" y="0" letter-spacing=".02em">s</tspan><tspan x="78.85" y="0" letter-spacing=".02em">t</tspan><tspan x="84.61" y="0">s</tspan></text><text class="cls-23" transform="translate(-.54 533.78)"><tspan class="cls-114" x="0" y="0">V</tspan><tspan x="7.15" y="0" letter-spacing=".01em">M</tspan><tspan x="16.14" y="0" letter-spacing="0">w</tspan><tspan class="cls-85" x="23.54" y="0">a</tspan><tspan x="29.18" y="0" letter-spacing="0">r</tspan><tspan x="33.05" y="0">e</tspan><tspan x="0" y="13" letter-spacing=".02em">R</tspan><tspan x="6.93" y="13" letter-spacing=".02em">H</tspan><tspan class="cls-41" x="14.57" y="13">V</tspan><tspan x="0" y="26" letter-spacing=".02em">O</tspan><tspan class="cls-169" x="8.3" y="26">p</tspan><tspan class="cls-171" x="14.5" y="26">e</tspan><tspan x="20.32" y="26" letter-spacing=".01em">n</tspan><tspan x="26.29" y="26" letter-spacing="0">S</tspan><tspan class="cls-131" x="32.58" y="26">t</tspan><tspan class="cls-88" x="36.83" y="26">ac</tspan><tspan class="cls-41" x="47.79" y="26">k</tspan><tspan x="0" y="39" letter-spacing=".06em">K</tspan><tspan class="cls-114" x="7.29" y="39">V</tspan><tspan x="14.44" y="39">M</tspan><tspan x="0" y="52" letter-spacing="-.05em">E</tspan><tspan class="cls-114" x="5.95" y="52">C</tspan><tspan x="13.36" y="52">2</tspan></text><text class="cls-23" transform="translate(70.23 533.78)"><tspan x="0" y="0" letter-spacing=".01em">G</tspan><tspan x="8.13" y="0" letter-spacing="0">C</tspan><tspan x="15.34" y="0" letter-spacing="0">E</tspan><tspan x="0" y="13" letter-spacing="0">R</tspan><tspan class="cls-88" x="6.73" y="13">a</tspan><tspan class="cls-131" x="12.34" y="13">c</tspan><tspan x="17.69" y="13" letter-spacing=".02em">k</tspan><tspan class="cls-114" x="23.34" y="13">s</tspan><tspan x="28.3" y="13" letter-spacing="0">p</tspan><tspan class="cls-88" x="34.49" y="13">a</tspan><tspan x="40.1" y="13" letter-spacing="0">c</tspan><tspan x="45.31" y="13">e</tspan><tspan x="0" y="26" letter-spacing=".01em">B</tspan><tspan class="cls-85" x="7.06" y="26">a</tspan><tspan x="12.7" y="26" letter-spacing="0">r</tspan><tspan x="16.57" y="26">e </tspan><tspan class="cls-86" x="24.55" y="26">M</tspan><tspan x="33.57" y="26" letter-spacing="0">e</tspan><tspan class="cls-131" x="39.25" y="26">t</tspan><tspan class="cls-86" x="43.5" y="26">a</tspan><tspan x="49.14" y="26">l</tspan><tspan class="cls-88" x="0" y="39">D</tspan><tspan class="cls-169" x="7.53" y="39">o</tspan><tspan x="13.59" y="39" letter-spacing=".01em">c</tspan><tspan x="18.94" y="39" letter-spacing="-.02em">k</tspan><tspan class="cls-171" x="24.17" y="39">e</tspan><tspan class="cls-41" x="29.99" y="39">r</tspan></text><path class="cls-4" d="M158.22 541.66l-62.74-36.81"/><path class="cls-11" d="M505 172.5V333H325"/><path class="cls-11" d="M500 167.5V328H320"/><path class="cls-50" d="M315 162.5h180V323H315z"/><text class="cls-24" transform="translate(335 193.4)"><tspan x="0" y="0" letter-spacing="0">O</tspan><tspan x="11.51" y="0" letter-spacing="-.02em">r</tspan><tspan x="17.44" y="0" letter-spacing="0">g</tspan><tspan x="26.41" y="0" letter-spacing="0">a</tspan><tspan x="34.57" y="0" letter-spacing="0">n</tspan><tspan x="43.25" y="0" letter-spacing="0">i</tspan><tspan x="47.21" y="0" letter-spacing="0">z</tspan><tspan x="54.29" y="0" letter-spacing="0">a</tspan><tspan x="62.26" y="0" letter-spacing="0">t</tspan><tspan x="68.67" y="0" letter-spacing="0">i</tspan><tspan x="72.67" y="0" letter-spacing="0">o</tspan><tspan x="81.35" y="0" letter-spacing="0">n</tspan><tspan x="90.07" y="0">s</tspan></text><g><text class="cls-21" transform="translate(380.12 277.39)"><tspan class="cls-173" x="0" y="0">L</tspan><tspan x="6.9" y="0" letter-spacing="0">i</tspan><tspan x="9.75" y="0" letter-spacing="-.01em">f</tspan><tspan x="14.16" y="0" letter-spacing="0">e </tspan><tspan x="22.94" y="0" letter-spacing=".03em">c</tspan><tspan x="28.98" y="0" letter-spacing="-.01em">y</tspan><tspan class="cls-26" x="34.77" y="0">c</tspan><tspan x="40.59" y="0" letter-spacing="0">l</tspan><tspan x="43.45" y="0" letter-spacing="0">e</tspan><tspan class="cls-173" x="-9.3" y="12">m</tspan><tspan x=".34" y="12" letter-spacing="0">a</tspan><tspan x="6.49" y="12" letter-spacing="0">n</tspan><tspan x="12.9" y="12" letter-spacing="0">a</tspan><tspan class="cls-144" x="19.02" y="12">g</tspan><tspan class="cls-145" x="25.8" y="12">e</tspan><tspan x="32.14" y="12" letter-spacing="0">m</tspan><tspan class="cls-145" x="41.85" y="12">e</tspan><tspan x="48.19" y="12" letter-spacing="0">n</tspan><tspan x="54.5" y="12">t</tspan></text><path class="cls-3" d="M399.95 227.78c1.74-.68 3.63-1.05 5.61-1.05 4.91 0 9.28 2.28 12.1 5.83"/><circle class="cls-15" cx="396.49" cy="228.79" r="3.6"/><path class="cls-3" d="M417.93 226.8l-.26 6.08-6.08-.26"/><g><path class="cls-3" d="M411.22 260.82l-4.88-3.63 3.64-4.88"/><circle class="cls-15" cx="420.18" cy="240.62" r="3.6"/><path class="cls-3" d="M406.55 257.34c7.28-.47 13.16-6.04 14.15-13.17"/></g><g><path class="cls-3" d="M386.22 238.63l5.45-2.72 2.71 5.45"/><path class="cls-3" d="M394.98 253.14a15.268 15.268 0 01-4.75-11.09c0-1.99.38-3.89 1.07-5.63"/><circle class="cls-15" cx="397.89" cy="255.26" r="3.6"/></g></g><g><text class="cls-21" transform="translate(0 271.19)"><tspan x="0" y="0" letter-spacing=".01em">O</tspan><tspan x="9.08" y="0" letter-spacing="0">p</tspan><tspan class="cls-145" x="15.85" y="0">e</tspan><tspan class="cls-26" x="22.19" y="0">r</tspan><tspan x="26.59" y="0" letter-spacing="0">a</tspan><tspan x="32.59" y="0" letter-spacing="-.02em">t</tspan><tspan class="cls-144" x="36.95" y="0">o</tspan><tspan x="43.59" y="0" letter-spacing=".02em">r</tspan><tspan x="48.12" y="0">s</tspan></text><path class="cls-15" d="M36.25 227.71c-2.08-2.84-5.42-4.78-9.52-4.8 3.77-.02 5.93-2.87 5.93-5.96s-2.38-5.97-5.97-5.97-5.97 2.86-5.97 5.97 2.17 5.94 5.93 5.96c-4.1.01-7.44 1.96-9.52 4.8M13.12 242.86c3.77-.02 5.93-2.87 5.93-5.96s-2.38-5.97-5.97-5.97-5.97 2.86-5.97 5.97 2.17 5.94 5.93 5.96c-7.03.02-11.86 5.71-11.86 11.88h23.8c0-6.17-4.82-11.86-11.86-11.88zM40.34 242.86c3.77-.02 5.93-2.87 5.93-5.96s-2.38-5.97-5.97-5.97-5.97 2.86-5.97 5.97 2.17 5.94 5.93 5.96c-7.03.02-11.86 5.71-11.86 11.88h23.79c0-6.17-4.82-11.86-11.86-11.88z"/><path class="cls-3" d="M22.98 236.49h7.43"/></g><g><path stroke-miterlimit="10" stroke="#151515" fill="none" d="M469 75v77.82"/><path class="cls-20" d="M464.01 151.36L469 160l4.99-8.64h-9.98z"/></g><path class="cls-9" d="M286.67 236.5h17.9M523.64 236.5h17.9"/><g><path class="cls-4" d="M49.44 236.5h255.88"/><path class="cls-20" d="M303.86 241.49l8.64-4.99-8.64-4.99v9.98z"/></g><g><path class="cls-4" d="M515.21 236.5h181.26"/><path class="cls-20" d="M516.67 241.49l-8.64-4.99 8.64-4.99v9.98z"/></g><g><text class="cls-21" transform="translate(670.31 271.19)"><tspan x="0" y="0">Red Hat analytics</tspan></text><path class="cls-3" d="M719.7 226.47h14.13v23.55h-37.36v-23.55h14.14M703.91 241.94v-2.87M711.71 241.94v-7.72M707.81 241.94v-4.81M701.97 242.17h11.67M693.4 254.64h43.5"/><ellipse class="cls-3" cx="723.65" cy="238.22" rx="3.1" ry="3.12"/><path class="cls-3" d="M725.84 240.43l1.16 1.16M720.3 234.86l1.16 1.16M725.84 236.02l1.16-1.16M720.3 241.59l1.16-1.16"/><g><path class="cls-3" d="M726.75 238.22h1.64M718.92 238.22h1.63"/></g><g><path class="cls-3" d="M723.65 235.11v-1.65M723.65 242.98v-1.64"/></g></g><text transform="translate(315 142.29)" style="font-variation-settings:'wght' 700" font-family="RedHatText,&quot;Red Hat Text&quot;,Overpass,&quot;Helvetica Neue&quot;,Arial,sans-serif" font-weight="700" fill="#151515" font-size="16"><tspan x="0" y="0" letter-spacing="0">R</tspan><tspan x="11.1" y="0" letter-spacing="0">ed </tspan><tspan x="34.3" y="0" letter-spacing="0">H</tspan><tspan class="cls-25" x="46.5" y="0">a</tspan><tspan x="55.6" y="0">t </tspan><tspan x="66.37" y="0" letter-spacing="0">S</tspan><tspan class="cls-25" x="76.96" y="0">a</tspan><tspan class="cls-64" x="86.06" y="0">t</tspan><tspan x="93.01" y="0" letter-spacing="0">e</tspan><tspan x="102.46" y="0" letter-spacing="0">l</tspan><tspan x="107.1" y="0" letter-spacing="0">l</tspan><tspan x="111.75" y="0" letter-spacing="0">i</tspan><tspan class="cls-64" x="116.38" y="0">t</tspan><tspan x="123.33" y="0">e</tspan></text><g><text transform="translate(670.98 644.02)" style="font-variation-settings:'wght' 400" font-size="10" fill="#ececec" font-family="RedHatText,&quot;Red Hat Text&quot;,Overpass,&quot;Helvetica Neue&quot;,Arial,sans-serif"><tspan x="0" y="0" letter-spacing="0">2</tspan><tspan x="5.53" y="0" letter-spacing="0">7</tspan><tspan x="11.06" y="0" letter-spacing=".04em">8</tspan><tspan x="17.64" y="0" letter-spacing=".06em">_</tspan><tspan class="cls-74" x="22.8" y="0">S</tspan><tspan x="29.21" y="0" letter-spacing="0">a</tspan><tspan x="34.48" y="0" letter-spacing="-.01em">t</tspan><tspan x="38.14" y="0" letter-spacing="0">e</tspan><tspan x="43.81" y="0" letter-spacing=".01em">ll</tspan><tspan x="48.53" y="0" letter-spacing=".01em">i</tspan><tspan x="50.87" y="0" letter-spacing="-.01em">t</tspan><tspan x="54.53" y="0" letter-spacing=".02em">e</tspan><tspan x="60.29" y="0" letter-spacing=".02em">_</tspan><tspan x="65.07" y="0" letter-spacing=".01em">0</tspan><tspan x="71.77" y="0" letter-spacing="-.01em">9</tspan><tspan x="77.85" y="0" letter-spacing=".02em">2</tspan><tspan x="83.54" y="0" letter-spacing="0">2</tspan></text><path fill="none" d="M0 621h760v40H0z"/></g><path class="cls-50" d="M10.5 30h127v35h-127z"/><text class="cls-22" transform="translate(32.84 52)"><tspan x="0" y="0" letter-spacing="0">R</tspan><tspan class="cls-152" x="7.97" y="0">e</tspan><tspan x="14.87" y="0">d </tspan><tspan x="24.89" y="0" letter-spacing="0">H</tspan><tspan x="33.85" y="0" letter-spacing="0">a</tspan><tspan x="40.35" y="0">t p</tspan><tspan class="cls-63" x="55.35" y="0">o</tspan><tspan x="62.54" y="0" letter-spacing=".03em">r</tspan><tspan class="cls-110" x="67.64" y="0">t</tspan><tspan x="72.63" y="0" letter-spacing="0">a</tspan><tspan x="79.29" y="0">l</tspan></text><path class="cls-50" d="M142.5 30h115v35h-115z"/><text class="cls-22" transform="translate(179.27 52)"><tspan x="0" y="0" letter-spacing="0">P</tspan><tspan x="8.06" y="0" letter-spacing="0">u</tspan><tspan class="cls-63" x="15.09" y="0">p</tspan><tspan x="22.46" y="0">p</tspan><tspan x="29.79" y="0" letter-spacing="-.02em">e</tspan><tspan x="36.48" y="0">t</tspan></text><path class="cls-50" d="M262.5 30h115v35h-115z"/><text class="cls-22" transform="translate(299.94 52)"><tspan x="0" y="0" letter-spacing="0">D</tspan><tspan class="cls-102" x="8.92" y="0">o</tspan><tspan class="cls-110" x="16.08" y="0">c</tspan><tspan x="22.39" y="0" letter-spacing="-.03em">k</tspan><tspan class="cls-115" x="28.55" y="0">e</tspan><tspan x="35.41" y="0">r</tspan></text><path class="cls-50" d="M382.5 30h115v35h-115z"/><text class="cls-22" transform="translate(431.16 52)"><tspan x="0" y="0" letter-spacing="0">G</tspan><tspan x="9.65" y="0" letter-spacing="0">i</tspan><tspan x="12.71" y="0">t</tspan></text><path class="cls-50" d="M502.5 30h115v35h-115z"/><text class="cls-22" transform="translate(543.47 52)"><tspan x="0" y="0" letter-spacing="0">S</tspan><tspan x="7.65" y="0" letter-spacing=".01em">C</tspan><tspan x="16.45" y="0" letter-spacing="0">A</tspan><tspan x="24.91" y="0">P</tspan></text><path class="cls-50" d="M622.5 30h127v35h-127z"/><text class="cls-22" transform="translate(635.11 52)"><tspan x="0" y="0" letter-spacing="-.01em">C</tspan><tspan x="8.52" y="0" letter-spacing="0">u</tspan><tspan class="cls-74" x="15.59" y="0">s</tspan><tspan x="21.55" y="0" letter-spacing="-.02em">t</tspan><tspan class="cls-63" x="26.24" y="0">o</tspan><tspan class="cls-110" x="33.44" y="0">m</tspan><tspan class="cls-115" x="43.98" y="0">e</tspan><tspan x="50.84" y="0">r </tspan><tspan x="58.26" y="0" letter-spacing="-.01em">c</tspan><tspan class="cls-63" x="64.39" y="0">o</tspan><tspan class="cls-80" x="71.59" y="0">n</tspan><tspan class="cls-138" x="78.42" y="0">t</tspan><tspan class="cls-112" x="83.12" y="0">e</tspan><tspan class="cls-80" x="89.99" y="0">n</tspan><tspan x="96.82" y="0">t</tspan></text><path stroke="#adadad" stroke-dasharray="0 3" stroke-linecap="round" stroke-linejoin="round" fill="none" d="M.5 20h759v55H.5z"/></svg>