<svg xmlns="http://www.w3.org/2000/svg" viewBox="0 0 760 560.34"><defs><style>.cls-14,.cls-2,.cls-3,.cls-4,.cls-6,.cls-8{fill:none;stroke-linejoin:round}.cls-14,.cls-2,.cls-3,.cls-4,.cls-8{stroke-linecap:round}.cls-2,.cls-6{stroke:#f7823c}.cls-14,.cls-17,.cls-3,.cls-8{stroke:#fff}.cls-4{stroke:#151515}.cls-19{letter-spacing:.01em}.cls-20{letter-spacing:-.01em}.cls-25{letter-spacing:.01em}.cls-26,.cls-32{letter-spacing:0}.cls-35{letter-spacing:.01em}.cls-44{font-size:12px}.cls-44,.cls-45,.cls-46,.cls-47{fill:#151515}.cls-44,.cls-47{font-family:RedHatText,&quot;Red Hat Text&quot;,Overpass,&quot;Helvetica Neue&quot;,Arial,sans-serif;font-weight:700;font-variation-settings:&apos;wght&apos; 700}.cls-49,.cls-50{fill:#f7823c}.cls-51{fill:#fff}.cls-52{fill:#e8e8e8}.cls-53{fill:#e5e5e5}.cls-17,.cls-54{fill:#cce0f5}.cls-56{letter-spacing:.01em}.cls-59{letter-spacing:0}.cls-61{letter-spacing:.02em}.cls-62{letter-spacing:.01em}.cls-63{letter-spacing:.02em}.cls-73,.cls-76{letter-spacing:0}.cls-78{letter-spacing:-.01em}.cls-79,.cls-81{letter-spacing:0}.cls-82{letter-spacing:.02em}.cls-83,.cls-84{letter-spacing:.01em}.cls-46,.cls-50{font-size:10px}.cls-8{stroke-dasharray:0 0 2.82 2.82}.cls-17{stroke-miterlimit:10}.cls-93{letter-spacing:0}.cls-94{letter-spacing:.02em}.cls-95,.cls-96{letter-spacing:0}.cls-97{letter-spacing:.02em}.cls-98{letter-spacing:.03em}.cls-101{letter-spacing:0}.cls-107{letter-spacing:.02em}.cls-108,.cls-109,.cls-112{letter-spacing:0}.cls-46,.cls-50{font-family:RedHatText,&quot;Red Hat Text&quot;,Overpass,&quot;Helvetica Neue&quot;,Arial,sans-serif;font-weight:500;font-variation-settings:&apos;wght&apos; 500}.cls-14{stroke-dasharray:0 0 3.03 3.03}.cls-117{letter-spacing:0}.cls-118,.cls-119,.cls-120{letter-spacing:.01em}.cls-122{letter-spacing:.02em}.cls-124{letter-spacing:.01em}.cls-125{letter-spacing:.02em}.cls-127{letter-spacing:-.06em}.cls-128,.cls-129{letter-spacing:.01em}.cls-135{letter-spacing:-.02em}.cls-47{font-size:14px}.cls-137{letter-spacing:.01em}.cls-141{letter-spacing:-.04em}.cls-144{letter-spacing:.01em}.cls-145,.cls-148,.cls-149,.cls-155,.cls-156,.cls-157,.cls-159{letter-spacing:0}.cls-160{letter-spacing:.02em}</style></defs><g style="isolation:isolate"><g id="artwork"><path class="cls-4" d="M55 384.54v75.75"/><text transform="translate(670.98 543.35)" style="font-variation-settings:'wght' 400" font-size="10" fill="#ececec" font-family="RedHatText,&quot;Red Hat Text&quot;,Overpass,&quot;Helvetica Neue&quot;,Arial,sans-serif"><tspan x="0" y="0" letter-spacing="0">2</tspan><tspan x="5.53" y="0" letter-spacing="0">7</tspan><tspan x="11.06" y="0" letter-spacing=".04em">8</tspan><tspan x="17.64" y="0" letter-spacing=".06em">_</tspan><tspan x="22.8" y="0" letter-spacing=".02em">S</tspan><tspan class="cls-108" x="29.21" y="0">a</tspan><tspan class="cls-78" x="34.48" y="0">t</tspan><tspan class="cls-155" x="38.14" y="0">e</tspan><tspan class="cls-144" x="43.81" y="0">ll</tspan><tspan x="48.53" y="0" letter-spacing=".01em">i</tspan><tspan x="50.87" y="0" letter-spacing="-.01em">t</tspan><tspan class="cls-160" x="54.53" y="0">e</tspan><tspan x="60.29" y="0" letter-spacing=".02em">_</tspan><tspan class="cls-124" x="65.07" y="0">0</tspan><tspan x="71.77" y="0" letter-spacing="-.01em">9</tspan><tspan class="cls-125" x="77.85" y="0">2</tspan><tspan class="cls-32" x="83.54" y="0">2</tspan></text><path fill="none" d="M0 520.34h760v40H0z"/><path class="cls-52" d="M34.5 20H760v334.5H34.5z"/><path class="cls-51" d="M50 198.5h609.5V339H50z"/><path d="M659 199v139.5H50.5V199H659m1-1H49.5v141.5H660V198z" fill="#06c"/><text class="cls-44" transform="translate(64.5 324.4)"><tspan class="cls-26" x="0" y="0">I</tspan><tspan x="3.77" y="0" letter-spacing="-.01em">n</tspan><tspan x="11.04" y="0" letter-spacing="-.02em">t</tspan><tspan class="cls-101" x="16.26" y="0">e</tspan><tspan class="cls-26" x="23.36" y="0">r</tspan><tspan class="cls-109" x="28.73" y="0">n</tspan><tspan x="36.11" y="0" letter-spacing="0">a</tspan><tspan x="43.11" y="0">l </tspan><tspan x="49.14" y="0" letter-spacing="0">C</tspan><tspan class="cls-93" x="57.81" y="0">a</tspan><tspan x="64.81" y="0" letter-spacing="0">p</tspan><tspan x="72.56" y="0" letter-spacing="0">su</tspan><tspan x="86.21" y="0" letter-spacing="0">l</tspan><tspan x="89.71" y="0" letter-spacing="0">e</tspan></text><path class="cls-51" d="M309.93 61.02h115v55h-115z"/><text class="cls-46" transform="translate(332.87 91.44)"><tspan class="cls-156" x="0" y="0">P</tspan><tspan class="cls-83" x="6.81" y="0">u</tspan><tspan class="cls-25" x="12.77" y="0">p</tspan><tspan x="19" y="0" letter-spacing="0">p</tspan><tspan x="25.2" y="0" letter-spacing="0">e</tspan><tspan x="30.88" y="0">t </tspan><tspan x="37.27" y="0" letter-spacing=".02em">S</tspan><tspan class="cls-159" x="43.8" y="0">e</tspan><tspan x="49.62" y="0" letter-spacing=".04em">r</tspan><tspan class="cls-148" x="54" y="0">v</tspan><tspan class="cls-157" x="59.37" y="0">e</tspan><tspan x="65.19" y="0">r</tspan></text><path stroke="#151515" stroke-linejoin="round" fill="none" d="M39.82 88.52H3.9l-.16 296.02H168.5"/><path class="cls-45" d="M38.36 83.53L47 88.52l-8.64 4.98v-9.97z"/><text class="cls-47" transform="translate(49.5 45.9)"><tspan x="0" y="0" letter-spacing="0">S</tspan><tspan x="9.28" y="0" letter-spacing="0">a</tspan><tspan x="17.26" y="0" letter-spacing="-.02em">t</tspan><tspan x="23.34" y="0" letter-spacing="0">e</tspan><tspan x="31.63" y="0" letter-spacing="0">l</tspan><tspan x="35.7" y="0" letter-spacing="0">l</tspan><tspan x="39.78" y="0" letter-spacing="0">i</tspan><tspan x="43.84" y="0" letter-spacing="-.02em">t</tspan><tspan x="49.93" y="0">e </tspan><tspan x="61.23" y="0" letter-spacing="0">S</tspan><tspan class="cls-96" x="70.49" y="0">e</tspan><tspan x="78.75" y="0" letter-spacing=".04em">r</tspan><tspan x="85.44" y="0" letter-spacing="-.01em">v</tspan><tspan class="cls-96" x="93.52" y="0">e</tspan><tspan x="101.78" y="0" letter-spacing="0">r</tspan></text><path class="cls-51" d="M49.5 61.02H305v55H49.5z"/><text class="cls-44" transform="translate(62.91 92.02)"><tspan class="cls-127" x="0" y="0">F</tspan><tspan class="cls-76" x="7.24" y="0">o</tspan><tspan class="cls-135" x="14.69" y="0">r</tspan><tspan class="cls-101" x="19.8" y="0">e</tspan><tspan class="cls-109" x="26.89" y="0">m</tspan><tspan class="cls-93" x="37.8" y="0">a</tspan><tspan x="44.8" y="0">n</tspan></text><path class="cls-51" d="M429.93 61.02h115v55h-115z"/><text class="cls-46" transform="translate(463.28 91.44)"><tspan x="0" y="0" letter-spacing=".01em">C</tspan><tspan class="cls-83" x="7.35" y="0">a</tspan><tspan class="cls-120" x="12.99" y="0">n</tspan><tspan class="cls-84" x="18.92" y="0">d</tspan><tspan x="25.16" y="0" letter-spacing=".01em">l</tspan><tspan class="cls-159" x="27.8" y="0">e</tspan><tspan class="cls-117" x="33.62" y="0">p</tspan><tspan class="cls-128" x="39.82" y="0">i</tspan><tspan class="cls-59" x="42.48" y="0">n</tspan></text><path class="cls-51" d="M550 61.02h115v55H550z"/><text class="cls-46" transform="translate(595.88 91.44)"><tspan class="cls-61" x="0" y="0">Q</tspan><tspan class="cls-117" x="8.33" y="0">pi</tspan><tspan x="17.13" y="0">d</tspan></text><path class="cls-4" d="M81.75 203.32v-1.5"/><path stroke-dasharray="0 0 2.94 2.94" stroke="#151515" stroke-linecap="round" stroke-linejoin="round" fill="none" d="M81.75 198.88v-57.41"/><path class="cls-4" d="M81.75 140v-1.5h1.5"/><path stroke-dasharray="0 0 3.01 3.01" stroke="#151515" stroke-linecap="round" stroke-linejoin="round" fill="none" d="M86.26 138.5h510.73"/><path class="cls-4" d="M598.5 138.5h1.5V137"/><path stroke-dasharray="0 0 3.27 3.27" stroke="#151515" stroke-linecap="round" stroke-linejoin="round" fill="none" d="M600 133.73v-4.9"/><path class="cls-4" d="M600 127.19v-1.5"/><path class="cls-45" d="M86.74 201.86l-4.99 8.64-4.99-8.64h9.98zM604.99 127.15l-4.99-8.63-4.99 8.63h9.98z"/><path class="cls-4" d="M126.25 203.32v-1.5"/><path stroke-dasharray="0 0 3.12 3.12" stroke="#151515" stroke-linecap="round" stroke-linejoin="round" fill="none" d="M126.25 198.7v-42.14"/><path class="cls-4" d="M126.25 155v-1.5h1.5"/><path stroke-dasharray="0 0 3.02 3.02" stroke="#151515" stroke-linecap="round" stroke-linejoin="round" fill="none" d="M130.77 153.5h481.22"/><path class="cls-4" d="M613.5 153.5h1.5V152"/><path stroke-dasharray="0 0 2.76 2.76" stroke="#151515" stroke-linecap="round" stroke-linejoin="round" fill="none" d="M615 149.24v-20.67"/><path class="cls-4" d="M615 127.19v-1.5"/><path class="cls-45" d="M131.24 201.86l-4.99 8.64-4.99-8.64h9.98zM619.99 127.15l-4.99-8.63-4.99 8.63h9.98z"/><path class="cls-51" d="M224.75 71.77h69.5v33.5h-69.5z"/><path class="cls-53" d="M293.5 72.52v32h-68v-32h68m1.5-1.5h-71v35h71v-35z"/><text class="cls-46" transform="translate(242.77 91.44)"><tspan x="0" y="0" letter-spacing=".01em">K</tspan><tspan class="cls-108" x="6.83" y="0">a</tspan><tspan class="cls-78" x="12.34" y="0">t</tspan><tspan class="cls-145" x="16.36" y="0">e</tspan><tspan x="22.18" y="0" letter-spacing=".01em">ll</tspan><tspan x="27.48" y="0">o</tspan></text><path stroke-width="8" stroke="#fff" stroke-linecap="round" stroke-linejoin="round" fill="none" d="M99.75 369.54v28.02"/><path class="cls-4" d="M54.82 255.75H18.83v113.79h80.92v90.75"/><path class="cls-45" d="M53.36 250.76l8.64 4.99-8.64 4.99v-9.98z"/><path class="cls-54" d="M64.5 213H99v85.5H64.5z"/><text class="cls-46" transform="translate(70.98 258.67)"><tspan class="cls-156" x="0" y="0">P</tspan><tspan class="cls-84" x="6.81" y="0">ul</tspan><tspan class="cls-59" x="15.42" y="0">p</tspan></text><path class="cls-54" d="M104 213h59.5v85.5H104zM168.5 213h44v85.5h-44z"/><text class="cls-46" transform="translate(175.55 253.17)"><tspan class="cls-137" x="0" y="0">M</tspan><tspan x="9.02" y="0" letter-spacing="-.04em">Q</tspan><tspan x="16.76" y="0" letter-spacing=".04em">T</tspan><tspan x="23.53" y="0">T</tspan><tspan class="cls-62" x="-.63" y="11">b</tspan><tspan class="cls-79" x="5.6" y="11">r</tspan><tspan class="cls-25" x="9.46" y="11">o</tspan><tspan x="15.55" y="11" letter-spacing="-.02em">k</tspan><tspan class="cls-157" x="20.79" y="11">e</tspan><tspan x="26.6" y="11">r</tspan></text><text class="cls-46" transform="translate(122.13 247.67)"><tspan class="cls-61" x="0" y="0">Q</tspan><tspan class="cls-117" x="8.33" y="0">pi</tspan><tspan x="17.13" y="0">d</tspan><tspan class="cls-19" x="-9.4" y="11">D</tspan><tspan class="cls-129" x="-1.85" y="11">i</tspan><tspan class="cls-107" x=".8" y="11">s</tspan><tspan x="5.77" y="11" letter-spacing="0">p</tspan><tspan x="11.96" y="11" letter-spacing="0">a</tspan><tspan x="17.47" y="11" letter-spacing="-.01em">t</tspan><tspan class="cls-119" x="21.47" y="11">c</tspan><tspan class="cls-59" x="26.82" y="11">h</tspan><tspan x="-4.64" y="22" letter-spacing="0">R</tspan><tspan class="cls-155" x="2.1" y="22">o</tspan><tspan class="cls-35" x="8.17" y="22">u</tspan><tspan class="cls-78" x="14.12" y="22">t</tspan><tspan class="cls-157" x="18.13" y="22">e</tspan><tspan x="23.95" y="22">r</tspan></text><path class="cls-54" d="M218 213h427v85.5H218z"/><text class="cls-44" transform="translate(232.5 236.3)"><tspan class="cls-127" x="0" y="0">F</tspan><tspan class="cls-76" x="7.24" y="0">o</tspan><tspan class="cls-135" x="14.69" y="0">r</tspan><tspan class="cls-101" x="19.8" y="0">e</tspan><tspan class="cls-109" x="26.89" y="0">m</tspan><tspan class="cls-93" x="37.8" y="0">a</tspan><tspan x="44.8" y="0">n </tspan><tspan x="54.8" y="0" letter-spacing="0">P</tspan><tspan x="63.22" y="0" letter-spacing="-.02em">r</tspan><tspan x="68.32" y="0" letter-spacing="-.01em">o</tspan><tspan x="75.57" y="0" letter-spacing=".03em">x</tspan><tspan x="83.05" y="0">y</tspan></text><path class="cls-2" d="M308 293.15v167.1"/><path class="cls-49" d="M303.01 294.61l4.99-8.64 4.99 8.64h-9.98z"/><path class="cls-2" d="M358 293.15v167.1"/><path class="cls-49" d="M353.01 294.61l4.99-8.64 4.99 8.64h-9.98z"/><path class="cls-2" d="M495.5 293.15v167.14"/><path class="cls-49" d="M490.51 294.61l4.99-8.64 4.99 8.64h-9.98z"/><path class="cls-4" d="M557.25 293.15v167.14"/><path class="cls-45" d="M552.26 294.61l4.99-8.64 4.99 8.64h-9.98z"/><path class="cls-4" d="M605.75 283.47v167.15"/><path class="cls-45" d="M600.76 449.16l4.99 8.63 4.99-8.63h-9.98z"/><path class="cls-4" d="M675 460.29V183H190.5v20.32"/><path class="cls-45" d="M185.51 201.86l4.99 8.64 4.99-8.64h-9.98z"/><path class="cls-4" d="M710 460.29V168H141.25v35.32"/><path class="cls-45" d="M136.26 201.86l4.99 8.64 4.99-8.64h-9.98z"/><path class="cls-4" d="M745 460.29V38.52H367.43v12.82"/><path class="cls-45" d="M362.44 49.88l4.99 8.64 4.98-8.64h-9.97z"/><path class="cls-2" d="M273.98 283.47v167.11"/><path class="cls-49" d="M268.99 449.12l4.99 8.63 4.99-8.63h-9.98z"/><path class="cls-6" d="M209.96 460.25v-75.71H168.5M243.98 292.65v167.6"/><path class="cls-49" d="M238.99 294.11l4.99-8.64 4.99 8.64h-9.98z"/><path class="cls-2" d="M438 293.15v167.14"/><path class="cls-49" d="M433.01 294.61l4.99-8.64 4.99 8.64h-9.98z"/><path class="cls-6" d="M403 282.97v167.61"/><path class="cls-49" d="M398.01 449.12l4.99 8.63 4.99-8.63h-9.98z"/><path class="cls-51" transform="rotate(90 403.7 418.64)" d="M389.17 62.34h29.06v712.6h-29.06z"/><text class="cls-50" transform="translate(263.07 416.96)"><tspan class="cls-63" x="0" y="0">U</tspan><tspan class="cls-35" x="7.49" y="0">D</tspan><tspan x="15.04" y="0">P</tspan><tspan class="cls-144" x="4.56" y="11">6</tspan><tspan x="11.02" y="11">8</tspan></text><text class="cls-50" transform="translate(233.07 416.96)"><tspan class="cls-63" x="0" y="0">U</tspan><tspan class="cls-35" x="7.49" y="0">D</tspan><tspan x="15.04" y="0">P</tspan><tspan x="4.77" y="11" letter-spacing=".01em">6</tspan><tspan class="cls-32" x="11.21" y="11">7</tspan></text><text class="cls-50" transform="translate(199.97 416.96)"><tspan class="cls-141" x="0" y="0">T</tspan><tspan class="cls-149" x="5.99" y="0">C</tspan><tspan class="cls-59" x="13.2" y="0">P</tspan><tspan class="cls-81" x="3.46" y="11">8</tspan><tspan x="9.8" y="11">0</tspan></text><text class="cls-50" transform="translate(347.08 416.96)"><tspan class="cls-63" x="0" y="0">U</tspan><tspan class="cls-35" x="7.49" y="0">D</tspan><tspan x="15.04" y="0">P</tspan><tspan x="4.66" y="11" letter-spacing="-.01em">6</tspan><tspan x="10.84" y="11">9</tspan></text><text class="cls-50" transform="translate(485.5 416.96)"><tspan class="cls-141" x="0" y="0">T</tspan><tspan class="cls-149" x="5.99" y="0">C</tspan><tspan class="cls-59" x="13.2" y="0">P</tspan><tspan class="cls-81" x="-3.47" y="11">8</tspan><tspan class="cls-82" x="2.87" y="11">00</tspan><tspan class="cls-59" x="16.73" y="11">0</tspan></text><text class="cls-46" transform="translate(547.25 416.96)"><tspan class="cls-141" x="0" y="0">T</tspan><tspan class="cls-149" x="5.99" y="0">C</tspan><tspan class="cls-59" x="13.2" y="0">P</tspan><tspan class="cls-97" x="-3.29" y="11">9</tspan><tspan class="cls-56" x="3.21" y="11">0</tspan><tspan class="cls-97" x="10.05" y="11">9</tspan><tspan x="16.54" y="11">0</tspan></text><text class="cls-46" transform="translate(700 416.96)"><tspan class="cls-141" x="0" y="0">T</tspan><tspan class="cls-149" x="5.99" y="0">C</tspan><tspan class="cls-59" x="13.2" y="0">P</tspan><tspan class="cls-118" x="-2.43" y="11">5</tspan><tspan class="cls-122" x="3.6" y="11">6</tspan><tspan class="cls-20" x="10.16" y="11">4</tspan><tspan x="16.57" y="11">7</tspan></text><text class="cls-46" transform="translate(735 416.96)"><tspan class="cls-141" x="0" y="0">T</tspan><tspan class="cls-149" x="5.99" y="0">C</tspan><tspan class="cls-59" x="13.2" y="0">P</tspan><tspan x="-1.6" y="11" letter-spacing="0">8</tspan><tspan x="4.66" y="11" letter-spacing="0">1</tspan><tspan class="cls-160" x="8.15" y="11">4</tspan><tspan class="cls-59" x="14.85" y="11">0</tspan></text><text class="cls-46" transform="translate(665 416.96)"><tspan class="cls-141" x="0" y="0">T</tspan><tspan class="cls-149" x="5.99" y="0">C</tspan><tspan class="cls-59" x="13.2" y="0">P</tspan><tspan class="cls-94" x="-1.2" y="11">1</tspan><tspan class="cls-62" x="2.4" y="11">8</tspan><tspan class="cls-56" x="8.76" y="11">8</tspan><tspan x="15.12" y="11">3</tspan></text><text class="cls-46" transform="translate(595.75 416.96)"><tspan class="cls-141" x="0" y="0">T</tspan><tspan class="cls-149" x="5.99" y="0">C</tspan><tspan class="cls-59" x="13.2" y="0">P</tspan><tspan class="cls-125" x="4.19" y="11">2</tspan><tspan class="cls-59" x="10.1" y="11">2</tspan></text><text class="cls-46" transform="translate(45.01 416.96)"><tspan class="cls-141" x="0" y="0">T</tspan><tspan class="cls-149" x="5.99" y="0">C</tspan><tspan class="cls-59" x="13.2" y="0">P</tspan><tspan class="cls-81" x="-8.51" y="11">8</tspan><tspan x="-2.17" y="11" letter-spacing="-.02em">0</tspan><tspan x="4.39" y="11">, </tspan><tspan class="cls-98" x="9.14" y="11">4</tspan><tspan class="cls-73" x="15.99" y="11">4</tspan><tspan x="22.43" y="11">3</tspan></text><text class="cls-46" transform="translate(89.76 416.96)"><tspan class="cls-141" x="0" y="0">T</tspan><tspan class="cls-149" x="5.99" y="0">C</tspan><tspan class="cls-59" x="13.2" y="0">P</tspan><tspan class="cls-56" x="-3.31" y="11">5</tspan><tspan class="cls-82" x="2.7" y="11">00</tspan><tspan class="cls-59" x="16.56" y="11">0</tspan></text><text class="cls-50" transform="translate(393 416.96)"><tspan class="cls-141" x="0" y="0">T</tspan><tspan class="cls-149" x="5.99" y="0">C</tspan><tspan class="cls-59" x="13.2" y="0">P</tspan><tspan x="-2.91" y="11" letter-spacing=".02em">8</tspan><tspan class="cls-98" x="3.54" y="11">4</tspan><tspan class="cls-73" x="10.39" y="11">4</tspan><tspan x="16.83" y="11">3</tspan></text><text class="cls-50" transform="translate(428.01 416.96)"><tspan class="cls-141" x="0" y="0">T</tspan><tspan class="cls-149" x="5.99" y="0">C</tspan><tspan class="cls-59" x="13.2" y="0">P</tspan><tspan class="cls-97" x="-3.29" y="11">9</tspan><tspan class="cls-56" x="3.21" y="11">0</tspan><tspan class="cls-97" x="10.05" y="11">9</tspan><tspan x="16.54" y="11">0</tspan></text><text class="cls-50" transform="translate(297.08 416.96)"><tspan class="cls-63" x="0" y="0">U</tspan><tspan class="cls-35" x="7.49" y="0">D</tspan><tspan x="15.04" y="0">P</tspan><tspan x="4.87" y="11" letter-spacing=".01em">5</tspan><tspan x="10.89" y="11">3</tspan></text><path style="mix-blend-mode:multiply" fill="#fef6ed" d="M168.5 359.75h365v95.5h-365z"/><g><path class="cls-51" d="M148.75 71.77h69.5v33.5h-69.5z"/><path class="cls-53" d="M217.5 72.52v32h-68v-32h68m1.5-1.5h-71v35h71v-35z"/></g><text class="cls-46" transform="translate(162.78 91.44)"><tspan x="0" y="0" letter-spacing="0">bo</tspan><tspan x="12.27" y="0" letter-spacing="0">o</tspan><tspan class="cls-78" x="18.14" y="0">t</tspan><tspan x="22.16" y="0" letter-spacing=".01em">d</tspan><tspan class="cls-129" x="28.4" y="0">i</tspan><tspan class="cls-107" x="31.06" y="0">s</tspan><tspan x="36.03" y="0">k</tspan></text><text class="cls-50" transform="translate(135 427.96)"><tspan class="cls-62" x="0" y="0">p</tspan><tspan class="cls-79" x="6.23" y="0">r</tspan><tspan class="cls-148" x="10.09" y="0">o</tspan><tspan x="16.02" y="0" letter-spacing=".02em">v</tspan><tspan class="cls-129" x="21.61" y="0">i</tspan><tspan x="24.27" y="0" letter-spacing=".02em">s</tspan><tspan class="cls-112" x="29.22" y="0">i</tspan><tspan class="cls-25" x="31.82" y="0">on</tspan><tspan class="cls-129" x="43.86" y="0">i</tspan><tspan class="cls-120" x="46.52" y="0">n</tspan><tspan x="52.45" y="0">g</tspan></text><path class="cls-17" d="M233 249.5h50v34h-50zM283 249.5h50v34h-50z"/><g><path class="cls-54" d="M533 249.5h48.5v34H533z"/><path class="cls-3" d="M533 282v1.5h1.5"/><path class="cls-14" d="M537.53 283.5h40.95"/><path class="cls-3" d="M580 283.5h1.5V282"/><path class="cls-8" d="M581.5 279.18v-26.77"/><path class="cls-3" d="M581.5 251v-1.5H580"/><path class="cls-14" d="M576.97 249.5h-40.95"/><path class="cls-3" d="M534.5 249.5H533v1.5"/><path class="cls-8" d="M533 253.82v26.77"/></g><g><path class="cls-54" d="M581.5 249.5H630v34h-48.5z"/><path class="cls-3" d="M581.5 282v1.5h1.5"/><path class="cls-14" d="M586.03 283.5h40.95"/><path class="cls-3" d="M628.5 283.5h1.5V282"/><path class="cls-8" d="M630 279.18v-26.77"/><path class="cls-3" d="M630 251v-1.5h-1.5"/><path class="cls-14" d="M625.47 249.5h-40.95"/><path class="cls-3" d="M583 249.5h-1.5v1.5"/><path class="cls-8" d="M581.5 253.82v26.77"/></g><path class="cls-17" d="M333 249.5h50v34h-50zM383 249.5h75v34h-75zM458 249.5h75v34h-75z"/><text class="cls-46" transform="translate(297.13 270.75)"><tspan class="cls-35" x="0" y="0">D</tspan><tspan x="7.55" y="0" letter-spacing=".02em">N</tspan><tspan class="cls-59" x="15.37" y="0">S</tspan></text><text class="cls-46" transform="translate(344.8 270.75)"><tspan class="cls-95" x="0" y="0">T</tspan><tspan x="6.47" y="0" letter-spacing=".03em">F</tspan><tspan class="cls-95" x="13.14" y="0">T</tspan><tspan x="19.61" y="0">P</tspan></text><text class="cls-46" transform="translate(396.9 270.75)"><tspan class="cls-19" x="0" y="0">D</tspan><tspan class="cls-129" x="7.55" y="0">is</tspan><tspan x="15.14" y="0" letter-spacing="0">c</tspan><tspan class="cls-148" x="20.34" y="0">ov</tspan><tspan class="cls-112" x="31.65" y="0">e</tspan><tspan x="37.47" y="0" letter-spacing=".04em">r</tspan><tspan x="41.84" y="0">y</tspan></text><text class="cls-46" transform="translate(470.84 269.81)"><tspan x="0" y="0" letter-spacing="-.08em">T</tspan><tspan class="cls-159" x="5.58" y="0">e</tspan><tspan class="cls-128" x="11.39" y="0">m</tspan><tspan class="cls-119" x="20.29" y="0">p</tspan><tspan class="cls-145" x="26.52" y="0">l</tspan><tspan class="cls-108" x="29.13" y="0">a</tspan><tspan class="cls-78" x="34.65" y="0">t</tspan><tspan class="cls-137" x="38.66" y="0">e</tspan><tspan x="44.53" y="0">s</tspan></text><text class="cls-46" transform="translate(543.33 270.75)"><tspan class="cls-56" x="0" y="0">S</tspan><tspan class="cls-160" x="6.47" y="0">C</tspan><tspan x="13.9" y="0" letter-spacing=".02em">A</tspan><tspan x="21.04" y="0">P</tspan></text><text class="cls-46" transform="translate(595.38 270.23)"><tspan x="0" y="0" letter-spacing=".02em">R</tspan><tspan x="6.93" y="0" letter-spacing=".04em">E</tspan><tspan x="13.75" y="0">X</tspan></text><text class="cls-46" transform="translate(243.43 270.75)"><tspan class="cls-35" x="0" y="0">DH</tspan><tspan class="cls-149" x="15.14" y="0">C</tspan><tspan x="22.35" y="0">P</tspan></text><g><path class="cls-52" d="M34.22 460.29h725.5v60H34.22z"/><text class="cls-47" transform="translate(49.22 485.19)"><tspan x="0" y="0" letter-spacing="0">D</tspan><tspan x="10.67" y="0" letter-spacing="0">i</tspan><tspan x="14.76" y="0" letter-spacing="-.02em">r</tspan><tspan x="20.71" y="0" letter-spacing="0">e</tspan><tspan x="29.01" y="0" letter-spacing=".02em">c</tspan><tspan x="36.9" y="0">t </tspan><tspan x="46.32" y="0" letter-spacing="0">H</tspan><tspan x="57.05" y="0" letter-spacing="0">o</tspan><tspan x="65.72" y="0" letter-spacing=".02em">s</tspan><tspan x="73.11" y="0">t</tspan></text></g><g><path class="cls-51" d="M10.17 280.87h16.25v56.91H10.17z"/><text class="cls-46" transform="rotate(-90 177.825 155.925)"><tspan class="cls-141" x="0" y="0">T</tspan><tspan class="cls-149" x="5.99" y="0">C</tspan><tspan class="cls-59" x="13.2" y="0">P </tspan><tspan class="cls-124" x="22.24" y="0">5</tspan><tspan class="cls-82" x="28.25" y="0">00</tspan><tspan x="42.11" y="0">0</tspan></text></g><g><path class="cls-51" d="M.42 106.65h7.1v68.97H.42z"/><text class="cls-46" transform="rotate(-90 88.875 81.985)"><tspan class="cls-141" x="0" y="0">T</tspan><tspan class="cls-149" x="5.99" y="0">C</tspan><tspan class="cls-59" x="13.2" y="0">P </tspan><tspan x="22.24" y="0" letter-spacing=".03em">4</tspan><tspan class="cls-73" x="29.09" y="0">4</tspan><tspan class="cls-156" x="35.53" y="0">3</tspan><tspan x="41.62" y="0">, </tspan><tspan class="cls-81" x="46.38" y="0">8</tspan><tspan x="52.72" y="0">0</tspan></text></g><g><path class="cls-52" transform="rotate(90 188.56 168)" d="M180.44 142.05h16.25v51.89h-16.25z"/><text class="cls-46" transform="translate(165.02 171.61)"><tspan class="cls-141" x="0" y="0">T</tspan><tspan class="cls-149" x="5.99" y="0">C</tspan><tspan class="cls-59" x="13.2" y="0">P </tspan><tspan class="cls-118" x="22.24" y="0">5</tspan><tspan class="cls-122" x="28.27" y="0">6</tspan><tspan class="cls-20" x="34.84" y="0">4</tspan><tspan x="41.25" y="0">7</tspan></text></g><g><path class="cls-52" transform="rotate(90 273.06 183)" d="M264.94 157.05h16.25v51.89h-16.25z"/><text class="cls-46" transform="translate(250.75 186.61)"><tspan class="cls-141" x="0" y="0">T</tspan><tspan class="cls-149" x="5.99" y="0">C</tspan><tspan class="cls-59" x="13.2" y="0">P </tspan><tspan class="cls-94" x="22.24" y="0">1</tspan><tspan class="cls-62" x="25.83" y="0">8</tspan><tspan class="cls-124" x="32.2" y="0">8</tspan><tspan class="cls-59" x="38.55" y="0">3</tspan></text></g><path class="cls-52" transform="rotate(90 487.43 38.52)" d="M481.8 12.57h11.25v51.89H481.8z"/><text class="cls-46" transform="translate(464.71 42.02)"><tspan class="cls-141" x="0" y="0">T</tspan><tspan class="cls-149" x="5.99" y="0">C</tspan><tspan class="cls-59" x="13.2" y="0">P </tspan><tspan x="22.24" y="0" letter-spacing="0">8</tspan><tspan x="28.5" y="0" letter-spacing="0">1</tspan><tspan class="cls-160" x="32" y="0">4</tspan><tspan x="38.7" y="0">0</tspan></text></g></g></svg>