<svg id="b7038dfb-27fd-45cf-aa08-abbdb7117967" data-name="artwork" xmlns="http://www.w3.org/2000/svg" width="760" height="462.598"><defs><style>.af715651-f969-4044-9834-54c9d545cddd{fill:#d0d0d0}.bed09dda-075f-4576-a8d2-99cb8a588442{fill:#fff}.bda17b06-1799-4011-8605-cbddce964684{fill:#06c}.eb59b206-ff92-4d22-96fd-85acf2cb9e4d{fill:#e5f0fa}.a8645a00-6497-4159-88fc-ee41ced90da1,.b4d2b0cc-05c4-459b-bf88-53c330f5857d{font-size:11px}.a8645a00-6497-4159-88fc-ee41ced90da1,.b4d2b0cc-05c4-459b-bf88-53c330f5857d,.fc99fba8-bd26-4b50-8cb8-c08f29c966ba,.fe16cb87-d1fe-4290-9571-67d3a26dc99f{fill:#151515}.a8645a00-6497-4159-88fc-ee41ced90da1,.fe16cb87-d1fe-4290-9571-67d3a26dc99f{font-family:RedHatText,&quot;Red Hat Text&quot;,Overpass,&quot;Helvetica Neue&quot;,Arial,sans-serif;font-weight:500}.e984b41a-6b4a-4f6a-9829-9ff3791768c1{fill:#e8e8e8}.a30eec94-ad31-488b-930b-0816d75d4fe2,.b277f1b6-2afb-4946-a5d3-e5c1a863e1c3{fill:none;stroke:#151515;stroke-linecap:round;stroke-linejoin:round}.b277f1b6-2afb-4946-a5d3-e5c1a863e1c3{stroke-dasharray:2.889 2.889}.b4d2b0cc-05c4-459b-bf88-53c330f5857d{font-family:LiberationMono,&quot;Liberation Mono&quot;,Consolas,Monaco,&quot;Andale Mono&quot;,monospace;font-weight:700}.fe16cb87-d1fe-4290-9571-67d3a26dc99f{font-size:10px}.e85e7116-b0c2-4166-83ef-2c65314c6426{letter-spacing:-.015em}</style></defs><path class="af715651-f969-4044-9834-54c9d545cddd" d="M759 218.6v203H1v-203h758m1-1H0v205h760v-205z"/><path class="bed09dda-075f-4576-a8d2-99cb8a588442" d="M20.5 73.094h79v44h-79z"/><path class="bda17b06-1799-4011-8605-cbddce964684" d="M99 73.594v43H21v-43h78m1-1H20v45h80v-45z"/><path class="eb59b206-ff92-4d22-96fd-85acf2cb9e4d" d="M25 77.594h70v35H25z"/><text class="a8645a00-6497-4159-88fc-ee41ced90da1" transform="translate(39.37 98.14)">Object 1</text><path class="bed09dda-075f-4576-a8d2-99cb8a588442" d="M105.5 73.094h79v44h-79z"/><path class="bda17b06-1799-4011-8605-cbddce964684" d="M184 73.594v43h-78v-43h78m1-1h-80v45h80v-45z"/><path class="eb59b206-ff92-4d22-96fd-85acf2cb9e4d" d="M110 77.594h70v35h-70z"/><text class="a8645a00-6497-4159-88fc-ee41ced90da1" transform="translate(122.912 98.14)">Object 3</text><path class="bed09dda-075f-4576-a8d2-99cb8a588442" d="M105.5 123.094h79v44h-79z"/><path class="bda17b06-1799-4011-8605-cbddce964684" d="M184 123.594v43h-78v-43h78m1-1h-80v45h80v-45z"/><path class="eb59b206-ff92-4d22-96fd-85acf2cb9e4d" d="M110 127.594h70v35h-70z"/><text class="a8645a00-6497-4159-88fc-ee41ced90da1" transform="translate(122.065 148.14)">Object N</text><path class="bda17b06-1799-4011-8605-cbddce964684" d="M141.5 238.6v163h-78v-163h78m1-1h-80v165h80v-165z"/><path class="eb59b206-ff92-4d22-96fd-85acf2cb9e4d" d="M67.5 242.598h70v35h-70z"/><text class="a8645a00-6497-4159-88fc-ee41ced90da1" transform="translate(81.87 263.146)">Object 1</text><path class="e984b41a-6b4a-4f6a-9829-9ff3791768c1" d="M67.5 282.598h70v35h-70z"/><text class="a8645a00-6497-4159-88fc-ee41ced90da1" transform="translate(80.616 303.146)">Object 2</text><path class="eb59b206-ff92-4d22-96fd-85acf2cb9e4d" d="M67.5 322.598h70v35h-70z"/><text class="a8645a00-6497-4159-88fc-ee41ced90da1" transform="translate(80.412 343.146)">Object 3</text><path class="eb59b206-ff92-4d22-96fd-85acf2cb9e4d" d="M67.5 362.598h70v35h-70z"/><text class="a8645a00-6497-4159-88fc-ee41ced90da1" transform="translate(79.565 383.146)">Object N</text><path class="bda17b06-1799-4011-8605-cbddce964684" d="M326.5 238.6v163h-78v-163h78m1-1h-80v165h80v-165zM511.5 238.6v163h-78v-163h78m1-1h-80v165h80v-165zM696.5 238.6v163h-78v-163h78m1-1h-80v165h80v-165z"/><path class="bed09dda-075f-4576-a8d2-99cb8a588442" d="M205.5 73.094h79v44h-79z"/><path class="bda17b06-1799-4011-8605-cbddce964684" d="M284 73.594v43h-78v-43h78m1-1h-80v45h80v-45z"/><path class="eb59b206-ff92-4d22-96fd-85acf2cb9e4d" d="M210 77.594h70v35h-70z"/><text class="a8645a00-6497-4159-88fc-ee41ced90da1" transform="translate(224.37 98.14)">Object 1</text><path class="bed09dda-075f-4576-a8d2-99cb8a588442" d="M290.5 73.094h79v44h-79z"/><path class="bda17b06-1799-4011-8605-cbddce964684" d="M369 73.594v43h-78v-43h78m1-1h-80v45h80v-45z"/><path class="eb59b206-ff92-4d22-96fd-85acf2cb9e4d" d="M295 77.594h70v35h-70z"/><text class="a8645a00-6497-4159-88fc-ee41ced90da1" transform="translate(307.912 98.14)">Object 3</text><path class="bed09dda-075f-4576-a8d2-99cb8a588442" d="M205.5 123.094h79v44h-79z"/><path class="bda17b06-1799-4011-8605-cbddce964684" d="M284 123.594v43h-78v-43h78m1-1h-80v45h80v-45z"/><path class="eb59b206-ff92-4d22-96fd-85acf2cb9e4d" d="M210 127.594h70v35h-70z"/><text class="a8645a00-6497-4159-88fc-ee41ced90da1" transform="translate(223.116 148.14)">Object 2</text><g><path class="bed09dda-075f-4576-a8d2-99cb8a588442" d="M290.5 123.094h79v44h-79z"/><path class="bda17b06-1799-4011-8605-cbddce964684" d="M369 123.594v43h-78v-43h78m1-1h-80v45h80v-45z"/></g><path class="eb59b206-ff92-4d22-96fd-85acf2cb9e4d" d="M295 127.594h70v35h-70z"/><text class="a8645a00-6497-4159-88fc-ee41ced90da1" transform="translate(307.065 148.14)">Object N</text><g><path class="bed09dda-075f-4576-a8d2-99cb8a588442" d="M390.5 73.094h79v44h-79z"/><path class="bda17b06-1799-4011-8605-cbddce964684" d="M469 73.594v43h-78v-43h78m1-1h-80v45h80v-45z"/><path class="eb59b206-ff92-4d22-96fd-85acf2cb9e4d" d="M395 77.594h70v35h-70z"/><text class="a8645a00-6497-4159-88fc-ee41ced90da1" transform="translate(409.37 98.14)">Object 1</text><path class="bed09dda-075f-4576-a8d2-99cb8a588442" d="M475.5 73.094h79v44h-79z"/><path class="bda17b06-1799-4011-8605-cbddce964684" d="M554 73.594v43h-78v-43h78m1-1h-80v45h80v-45z"/><path class="eb59b206-ff92-4d22-96fd-85acf2cb9e4d" d="M480 77.594h70v35h-70z"/><text class="a8645a00-6497-4159-88fc-ee41ced90da1" transform="translate(492.912 98.14)">Object 3</text><path class="bed09dda-075f-4576-a8d2-99cb8a588442" d="M390.5 123.094h79v44h-79z"/><path class="bda17b06-1799-4011-8605-cbddce964684" d="M469 123.594v43h-78v-43h78m1-1h-80v45h80v-45z"/><path class="eb59b206-ff92-4d22-96fd-85acf2cb9e4d" d="M395 127.594h70v35h-70z"/><text class="a8645a00-6497-4159-88fc-ee41ced90da1" transform="translate(408.116 148.14)">Object 2</text><g><path class="bed09dda-075f-4576-a8d2-99cb8a588442" d="M475.5 123.094h79v44h-79z"/><path class="bda17b06-1799-4011-8605-cbddce964684" d="M554 123.594v43h-78v-43h78m1-1h-80v45h80v-45z"/></g><path class="eb59b206-ff92-4d22-96fd-85acf2cb9e4d" d="M480 127.594h70v35h-70z"/><text class="a8645a00-6497-4159-88fc-ee41ced90da1" transform="translate(492.066 148.14)">Object N</text></g><g><path class="bda17b06-1799-4011-8605-cbddce964684" d="M654 73.594v43h-78v-43h78m1-1h-80v45h80v-45z"/><path class="eb59b206-ff92-4d22-96fd-85acf2cb9e4d" d="M580 77.594h70v35h-70z"/><text class="a8645a00-6497-4159-88fc-ee41ced90da1" transform="translate(594.37 98.14)">Object 1</text><path class="bed09dda-075f-4576-a8d2-99cb8a588442" d="M660.5 73.094h79v44h-79z"/><path class="bda17b06-1799-4011-8605-cbddce964684" d="M739 73.594v43h-78v-43h78m1-1h-80v45h80v-45z"/><path class="eb59b206-ff92-4d22-96fd-85acf2cb9e4d" d="M665 77.594h70v35h-70z"/><text class="a8645a00-6497-4159-88fc-ee41ced90da1" transform="translate(677.912 98.14)">Object 3</text><path class="bed09dda-075f-4576-a8d2-99cb8a588442" d="M575.5 123.094h79v44h-79z"/><path class="bda17b06-1799-4011-8605-cbddce964684" d="M654 123.594v43h-78v-43h78m1-1h-80v45h80v-45z"/><path class="eb59b206-ff92-4d22-96fd-85acf2cb9e4d" d="M580 127.594h70v35h-70z"/><text class="a8645a00-6497-4159-88fc-ee41ced90da1" transform="translate(593.116 148.14)">Object 2</text><path class="bed09dda-075f-4576-a8d2-99cb8a588442" d="M660.5 123.094h79v44h-79z"/><path class="bda17b06-1799-4011-8605-cbddce964684" d="M739 123.594v43h-78v-43h78m1-1h-80v45h80v-45z"/><path class="eb59b206-ff92-4d22-96fd-85acf2cb9e4d" d="M665 127.594h70v35h-70z"/><text class="a8645a00-6497-4159-88fc-ee41ced90da1" transform="translate(677.066 148.14)">Object N</text></g><path class="af715651-f969-4044-9834-54c9d545cddd" d="M759 53.594v133H1v-133h758m1-1H0v135h760v-135z"/><g><path class="a30eec94-ad31-488b-930b-0816d75d4fe2" d="M657.499 228.484v-1.5"/><path class="b277f1b6-2afb-4946-a5d3-e5c1a863e1c3" d="M657.499 224.095v-50.557"/><path class="a30eec94-ad31-488b-930b-0816d75d4fe2" d="M657.499 172.094v-1.5"/><path class="fc99fba8-bd26-4b50-8cb8-c08f29c966ba" d="M662.486 227.025l-4.987 8.635-4.986-8.635h9.973z"/></g><g><path class="a30eec94-ad31-488b-930b-0816d75d4fe2" d="M472.5 228.484v-1.5"/><path class="b277f1b6-2afb-4946-a5d3-e5c1a863e1c3" d="M472.5 224.095v-50.557"/><path class="a30eec94-ad31-488b-930b-0816d75d4fe2" d="M472.5 172.094v-1.5"/><path class="fc99fba8-bd26-4b50-8cb8-c08f29c966ba" d="M477.486 227.025l-4.986 8.635-4.986-8.635h9.972z"/></g><g><path class="a30eec94-ad31-488b-930b-0816d75d4fe2" d="M287.5 228.484v-1.5"/><path class="b277f1b6-2afb-4946-a5d3-e5c1a863e1c3" d="M287.5 224.095v-50.557"/><path class="a30eec94-ad31-488b-930b-0816d75d4fe2" d="M287.5 172.094v-1.5"/><path class="fc99fba8-bd26-4b50-8cb8-c08f29c966ba" d="M292.486 227.025l-4.986 8.635-4.986-8.635h9.972z"/></g><path stroke="#fff" stroke-miterlimit="10" stroke-width="8" fill="none" d="M40 300.098h25"/><g><path class="a30eec94-ad31-488b-930b-0816d75d4fe2" d="M40 167.594v132.504h17.824"/><path class="fc99fba8-bd26-4b50-8cb8-c08f29c966ba" d="M56.365 305.085L65 300.098l-8.635-4.986v9.973z"/></g><path class="bed09dda-075f-4576-a8d2-99cb8a588442" d="M340.95 210.067h78.1v16.156h-78.1z"/><text class="b4d2b0cc-05c4-459b-bf88-53c330f5857d" transform="translate(346.995 221.055)">pg_num = 4</text><path class="bed09dda-075f-4576-a8d2-99cb8a588442" d="M338.421 46.516h83.158v13.156h-83.158z"/><text class="b4d2b0cc-05c4-459b-bf88-53c330f5857d" transform="translate(343.694 56.504)">pg_num = 16</text><g><path class="bed09dda-075f-4576-a8d2-99cb8a588442" d="M.505 18.008h13.997v13.997H.505z"/><path class="bda17b06-1799-4011-8605-cbddce964684" d="M1 18.505l13 .006v12.994H1v-13m-1-1v15h15l.006-14.993-15-.007z"/><text class="fe16cb87-d1fe-4290-9571-67d3a26dc99f" transform="translate(20.932 28.29)">Pla<tspan class="e85e7116-b0c2-4166-83ef-2c65314c6426" x="14.81" y="0">c</tspan><tspan x="19.89" y="0">eme</tspan><tspan class="e85e7116-b0c2-4166-83ef-2c65314c6426" x="40.109" y="0">n</tspan><tspan x="45.779" y="0" letter-spacing="0">t G</tspan><tspan x="60.189" y="0" letter-spacing="-.024em">r</tspan><tspan x="63.879" y="0">oup</tspan></text></g><g><path class="eb59b206-ff92-4d22-96fd-85acf2cb9e4d" d="M144.537 17.512l-15-.007v14.997l.002.003h14.992l.006-14.993z"/><text class="fe16cb87-d1fe-4290-9571-67d3a26dc99f" transform="translate(150.464 28.29)"><tspan letter-spacing="-.019em">P</tspan><tspan x="6.6" y="0" letter-spacing="-.005em">a</tspan><tspan x="12.05" y="0">u</tspan><tspan x="17.87" y="0" letter-spacing=".005em">s</tspan><tspan x="22.709" y="0" letter-spacing=".003em">e</tspan><tspan x="28.469" y="0">d</tspan></text></g><g><path class="bed09dda-075f-4576-a8d2-99cb8a588442" d="M20.5 123.094h79v44h-79z"/><path class="bda17b06-1799-4011-8605-cbddce964684" d="M99 123.594v43H21v-43h78m1-1H20v45h80v-45z"/></g><path class="e984b41a-6b4a-4f6a-9829-9ff3791768c1" d="M25 127.594h70v35H25z"/><text class="a8645a00-6497-4159-88fc-ee41ced90da1" transform="translate(38.116 148.14)">Object 2</text><g><text transform="translate(690.231 445.616)" fill="#f3f3f3" font-family="RedHatText,&quot;Red Hat Text&quot;,Overpass,&quot;Helvetica Neue&quot;,Arial,sans-serif" font-size="10">149_Ceph_0321</text><path fill="none" d="M0 422.598h760v40H0z"/></g></svg>