<?xml version="1.0" encoding="utf-8"?>
<!-- Generator: Adobe Illustrator 24.1.0, SVG Export Plug-In . SVG Version: 6.00 Build 0)  -->
<svg version="1.1" id="Layer_1" xmlns="http://www.w3.org/2000/svg" xmlns:xlink="http://www.w3.org/1999/xlink" x="0px" y="0px"
	 viewBox="0 0 760 213.7" style="enable-background:new 0 0 760 213.7;" xml:space="preserve">
<style type="text/css">
	.st0{fill:#E8E8E8;}
	.st1{fill:none;}
	.st2{fill:#0066CC;}
	.st3{fill:#151515;}
	.st4{fill:none;stroke:#151515;stroke-miterlimit:10;}
	.st5{font-family:'RedHatText-Medium';}
	.st6{font-size:14px;}
	.st7{fill:#F3F3F3;}
	.st8{font-family:'RedHatText-Regular';}
	.st9{font-size:10px;}
	.st10{fill:#FFFFFF;}
	.st11{font-family:'RedHatText-Bold';}
	.st12{font-size:11px;}
	.st13{fill:#D9E8F7;}
</style>
<rect class="st1" width="760" height="20"/>
<g>
	<rect x="348.5" y="19.2" class="st0" width="144" height="177.6"/>
</g>
<g>
	<text transform="matrix(1 0 0 1 386.9263 96.8495)"><tspan x="0" y="0" class="st3 st5 st6">OAuth 2.0</tspan><tspan x="-11.2" y="15" class="st3 st5 st6">Authorization</tspan><tspan x="11.8" y="30" class="st3 st5 st6">Server</tspan></text>
</g>
<g>
	<text transform="matrix(1 0 0 1 696.2627 196.7298)" class="st7 st8 st9">AMQ_46_1019</text>
	<rect y="173.7" class="st1" width="760" height="40"/>
</g>
<g>
	<rect x="-0.1" y="20" class="st2" width="144" height="60"/>
</g>
<g>
	<text transform="matrix(1 0 0 1 30.3975 55.173)" class="st10 st5 st6">Kafka client</text>
</g>
<rect x="-0.1" y="136.7" class="st0" width="144" height="60"/>
<g>
	<text transform="matrix(1 0 0 1 26.6582 171.8217)" class="st3 st5 st6">Kafka broker</text>
</g>
<g>
	<g>
		<line class="st4" x1="338.8" y1="149.3" x2="143.9" y2="149.3"/>
		<g>
			<polygon class="st3" points="337.4,144.4 346,149.3 337.4,154.3 			"/>
		</g>
	</g>
</g>
<g>
	<g>
		<line class="st4" x1="348.5" y1="180.8" x2="153.6" y2="180.8"/>
		<g>
			<polygon class="st3" points="155,175.8 146.4,180.8 155,185.8 			"/>
		</g>
	</g>
</g>
<g>
	<g>
		<path class="st3" d="M255.8,149.3c0,5.2-4.3,9.5-9.5,9.5c-5.2,0-9.5-4.3-9.5-9.5c0-5.2,4.3-9.5,9.5-9.5
			C251.5,139.8,255.8,144.1,255.8,149.3z"/>
		<g>
			<text transform="matrix(1 0 0 1 242.2068 153.1324)" class="st10 st11 st12">4</text>
		</g>
	</g>
	<g>
		<path class="st3" d="M255.8,180.8c0,5.2-4.3,9.5-9.5,9.5c-5.2,0-9.5-4.3-9.5-9.5c0-5.2,4.3-9.5,9.5-9.5
			C251.5,171.3,255.8,175.6,255.8,180.8z"/>
		<g>
			<text transform="matrix(1 0 0 1 242.6138 184.5856)" class="st10 st11 st12">5</text>
		</g>
	</g>
</g>
<g>
	<g>
		<line class="st4" x1="338.8" y1="34.6" x2="143.9" y2="34.6"/>
		<g>
			<polygon class="st3" points="337.4,29.6 346,34.6 337.4,39.6 			"/>
		</g>
	</g>
</g>
<g>
	<g>
		<line class="st4" x1="348.5" y1="66" x2="153.6" y2="66"/>
		<g>
			<polygon class="st3" points="155,61.1 146.4,66 155,71 			"/>
		</g>
	</g>
</g>
<g>
	<path class="st3" d="M255.8,34.6c0,5.2-4.3,9.5-9.5,9.5c-5.2,0-9.5-4.3-9.5-9.5c0-5.2,4.3-9.5,9.5-9.5
		C251.5,25.1,255.8,29.3,255.8,34.6z"/>
	<g>
		<text transform="matrix(1 0 0 1 243.8845 38.3721)" class="st10 st11 st12">1</text>
	</g>
</g>
<g>
	<path class="st3" d="M255.8,66c0,5.2-4.3,9.5-9.5,9.5c-5.2,0-9.5-4.3-9.5-9.5c0-5.2,4.3-9.5,9.5-9.5
		C251.5,56.5,255.8,60.8,255.8,66z"/>
	<g>
		<text transform="matrix(1 0 0 1 242.7183 69.8251)" class="st10 st11 st12">2</text>
	</g>
</g>
<g>
	<g>
		<line class="st4" x1="71.9" y1="80" x2="71.9" y2="127.1"/>
		<g>
			<polygon class="st3" points="66.9,125.6 71.9,134.2 76.9,125.6 			"/>
		</g>
	</g>
</g>
<g>
	<path class="st3" d="M81.4,102.8c0,5.2-4.3,9.5-9.5,9.5c-5.2,0-9.5-4.3-9.5-9.5c0-5.2,4.3-9.5,9.5-9.5
		C77.2,93.3,81.4,97.5,81.4,102.8z"/>
	<g>
		<text transform="matrix(1 0 0 1 68.1736 106.5712)" class="st10 st11 st12">3</text>
	</g>
</g>
</svg>
