<svg id="a482cae0-48a0-43ab-88c9-b42f628cda3c" data-name="artwork" xmlns="http://www.w3.org/2000/svg" width="760" height="384.99"><defs><style>.a622b597-7131-4b36-bb63-e284a14451c3,.b28ef0d0-2b5b-4b60-b7f7-fe76cc0381e5,.b89605a6-1281-49e4-b06a-bde2465d9c14{fill:none}.b28ef0d0-2b5b-4b60-b7f7-fe76cc0381e5{stroke:#00b9e4}.a622b597-7131-4b36-bb63-e284a14451c3,.b28ef0d0-2b5b-4b60-b7f7-fe76cc0381e5,.b89605a6-1281-49e4-b06a-bde2465d9c14{stroke-linejoin:round;stroke-width:2px}.b89605a6-1281-49e4-b06a-bde2465d9c14{stroke:#f7823c}.a622b597-7131-4b36-bb63-e284a14451c3,.b28ef0d0-2b5b-4b60-b7f7-fe76cc0381e5,.b89605a6-1281-49e4-b06a-bde2465d9c14{stroke-linecap:round}.b7fa3468-d60e-4169-bb04-5697673b3530{font-size:12px;fill:#151515;font-family:RedHatText,&quot;Red Hat Text&quot;,Overpass,&quot;Helvetica Neue&quot;,Arial,sans-serif;font-weight:500}.a622b597-7131-4b36-bb63-e284a14451c3{stroke:#5b5b5b}.be6517bb-852b-460b-a674-bd817b29bb30{fill:#e8e8e8}</style></defs><text transform="translate(693.731 368.007)" font-size="10" fill="#f3f3f3" font-family="RedHatText,&quot;Red Hat Text&quot;,Overpass,&quot;Helvetica Neue&quot;,Arial,sans-serif">141_Ceph_0221</text><path fill="none" d="M0 344.99h760v40H0z"/><path stroke-width="2" stroke-linejoin="round" stroke="#00b9e4" fill="none" d="M0 111h760"/><path class="b89605a6-1281-49e4-b06a-bde2465d9c14" d="M1 345.008h758"/><text class="b7fa3468-d60e-4169-bb04-5697673b3530" transform="translate(0 364.112)">Private network (40 Gb/s)</text><text class="b7fa3468-d60e-4169-bb04-5697673b3530" transform="translate(0 98.544)">Public network (10 Gb/s)</text><path class="b28ef0d0-2b5b-4b60-b7f7-fe76cc0381e5" d="M254 111V81.487"/><text class="b7fa3468-d60e-4169-bb04-5697673b3530" transform="translate(222.141 75.117)">Ceph client</text><path stroke="#5b5b5b" fill="#fff" stroke-linecap="round" stroke-linejoin="round" d="M229.75 20.5h48.5v37.18h-48.5z"/><path class="a622b597-7131-4b36-bb63-e284a14451c3" d="M265.192 26.081"/><path stroke="#5b5b5b" stroke-linecap="round" stroke-linejoin="round" fill="none" d="M235.346 26.081h14.923"/><path class="b28ef0d0-2b5b-4b60-b7f7-fe76cc0381e5" d="M212 140.513V111"/><path class="be6517bb-852b-460b-a674-bd817b29bb30" d="M148 140.513h128v75H148z"/><text class="b7fa3468-d60e-4169-bb04-5697673b3530" transform="translate(167.673 168.337)">Ceph Monitor / <tspan x="15.113" y="13">Manager/ </tspan><tspan x="5.771" y="26">Grafana node</tspan></text><path class="b28ef0d0-2b5b-4b60-b7f7-fe76cc0381e5" d="M548 140.513V111"/><path class="be6517bb-852b-460b-a674-bd817b29bb30" d="M484 140.513h128v75H484z"/><text class="b7fa3468-d60e-4169-bb04-5697673b3530" transform="translate(503.673 168.337)">Ceph Monitor / <tspan x="15.113" y="13">Manager/ </tspan><tspan x="5.771" y="26">Grafana node</tspan></text><path class="b28ef0d0-2b5b-4b60-b7f7-fe76cc0381e5" d="M380 140.513V111"/><path class="be6517bb-852b-460b-a674-bd817b29bb30" d="M316 140.513h128v75H316z"/><text class="b7fa3468-d60e-4169-bb04-5697673b3530" transform="translate(335.673 168.337)">Ceph Monitor / <tspan x="15.113" y="13">Manager/ </tspan><tspan x="5.771" y="26">Grafana node</tspan></text><path class="b28ef0d0-2b5b-4b60-b7f7-fe76cc0381e5" d="M464 240.513V111M296 240.513V111"/><path class="b89605a6-1281-49e4-b06a-bde2465d9c14" d="M296 345.008v-29.513M464 345.008v-29.513"/><path class="be6517bb-852b-460b-a674-bd817b29bb30" d="M232 240.513h128v75H232z"/><text class="b7fa3468-d60e-4169-bb04-5697673b3530" transform="translate(251.049 273.336)">Ceph OSD node<tspan x="33.138" y="20">(x3)</tspan></text><path class="be6517bb-852b-460b-a674-bd817b29bb30" d="M400 240.513h128v75H400z"/><text class="b7fa3468-d60e-4169-bb04-5697673b3530" transform="translate(419.05 273.337)">Ceph OSD node<tspan x="33.138" y="20">(x3)</tspan></text></svg>