<svg id="fca69309-23be-4f26-bf4e-ee4e65b9c9c5" data-name="artwork" xmlns="http://www.w3.org/2000/svg" width="760" height="689.594"><defs><style>.a28a6e0b-7595-4fdb-8039-81c84344a99a,.a332fa94-0eb6-4b14-94cc-f3280c90c10b,.a465583e-9bc0-49da-840c-8079f596a660,.aa502b36-3209-4746-bed0-73b1b331ca51,.b65c7ba9-8ae2-4536-b64c-3bbb6923a682,.be7cd6b1-1036-4718-807c-fb042db80116,.e6ffdf63-b20b-47ac-adc0-bf7b89841b65{fill:none}.a332fa94-0eb6-4b14-94cc-f3280c90c10b,.a465583e-9bc0-49da-840c-8079f596a660{stroke:#adadad}.a332fa94-0eb6-4b14-94cc-f3280c90c10b,.a465583e-9bc0-49da-840c-8079f596a660,.aa502b36-3209-4746-bed0-73b1b331ca51,.b65c7ba9-8ae2-4536-b64c-3bbb6923a682,.be7cd6b1-1036-4718-807c-fb042db80116{stroke-linecap:round;stroke-linejoin:round}.a332fa94-0eb6-4b14-94cc-f3280c90c10b{stroke-dasharray:3.007 3.007}.a7967b9b-43dd-41d1-81ee-cbf95e49071d{fill:#e8e8e8}.a28a6e0b-7595-4fdb-8039-81c84344a99a{stroke:#d5d5d5}.a28a6e0b-7595-4fdb-8039-81c84344a99a,.e6ffdf63-b20b-47ac-adc0-bf7b89841b65{stroke-miterlimit:10;stroke-width:1.5px}.aa502b36-3209-4746-bed0-73b1b331ca51,.b65c7ba9-8ae2-4536-b64c-3bbb6923a682{stroke:#06c}.b9fd85ef-0dbc-46ce-a917-366e03f1c6f1{fill:#06c}.e0a94933-c7a7-4b12-97ba-5eda3ba7a12a,.e7927443-64e1-42ec-bab4-0af5c00b795e{font-size:11px}.bd086bac-36ce-42ae-a204-16030568e6fa,.e0a94933-c7a7-4b12-97ba-5eda3ba7a12a,.e7927443-64e1-42ec-bab4-0af5c00b795e{fill:#151515}.e0a94933-c7a7-4b12-97ba-5eda3ba7a12a{font-family:RedHatText,&quot;Red Hat Text&quot;,Overpass,&quot;Helvetica Neue&quot;,Arial,sans-serif;font-style:italic}.b47edc81-d056-4273-9a5f-38fc45f84f2a{letter-spacing:.011em}.b1369698-264f-4aaa-9e6d-121525be4a6c{letter-spacing:.006em}.a9c6a74c-6d0a-4c79-bb7d-07b11ca0c75d{letter-spacing:.005em}.a8b3b591-6b84-4fac-a01c-39d8e781ad71{letter-spacing:-.013em}.e0d00fbe-6ede-4cdb-8956-43498cd4a1aa{letter-spacing:.018em}.eda0519e-5131-4f56-a08d-e45ae9fd2079{letter-spacing:.004em}.b834a177-8574-44c4-99a4-d23a7c472146{letter-spacing:.008em}.adf6f4c5-1ccb-4903-8ede-6ac01d88f4ae{letter-spacing:.011em}.fc1b701e-b17b-4a82-b17c-cf977970ee61{letter-spacing:.005em}.a6e71ffa-a9eb-43a9-8ea0-f34f61c13c75{letter-spacing:.007em}.be7cd6b1-1036-4718-807c-fb042db80116{stroke:#151515}.ae0a9c1a-e399-4eeb-b8a2-eb6fb3de5004{letter-spacing:.009em}.a32cf516-c1bd-4341-a392-e917615fee24{letter-spacing:.001em}.f37c49f3-44b6-4a68-8238-c3ba89219d6d{fill:#fff}.e7927443-64e1-42ec-bab4-0af5c00b795e{font-family:RedHatText,&quot;Red Hat Text&quot;,Overpass,&quot;Helvetica Neue&quot;,Arial,sans-serif;font-weight:500}.b2b24f58-e645-477e-9158-12d71da54dd8{letter-spacing:-.005em}.af4d6898-06c4-45fc-a185-e756830ba62a{letter-spacing:-.002em}.e1e97621-47b0-4d68-95d2-a9893e7ddd77{letter-spacing:.009em}.e03c627a-79a8-4690-bf3d-f27cd3339fb9{letter-spacing:.008em}.bace2baf-c386-412d-a91c-99ec85509d25{letter-spacing:-.006em}.e298fcb1-2e47-4ac3-9ea9-535bd1c2123c{letter-spacing:.008em}.e1472d46-d0f4-43e1-9261-28eca6aed22b{letter-spacing:.007em}.b227e3ae-479f-453b-ab42-9d25cf5e64b4{letter-spacing:.006em}.a94bec21-1ccf-4a5f-ae26-6f53c61a4b36{letter-spacing:.017em}.adbd650c-b38f-4ce0-b5fb-a257f4f30653{letter-spacing:.014em}.f7a83945-ae09-4808-9963-777c4aabaa98{letter-spacing:.007em}.ada6089e-4ef8-4813-a6dd-a39fa994d071{letter-spacing:.008em}.faca8470-91f7-46de-a5b0-1aabe90ce193{letter-spacing:.004em}.e713220d-5bc6-4058-bf26-d69f6655f515{letter-spacing:-.003em}.b227992f-267c-41a8-974d-256891e2da78{letter-spacing:-.005em}.eef63654-389f-4355-b9d2-fb42cf305f7b{letter-spacing:.009em}.b4e48364-f5c4-4921-8fa9-e6d49d13b4f5{letter-spacing:.011em}.e578fd4f-96f3-44ff-8a0e-0447a329564e{letter-spacing:0}.b6ed4a94-0a66-4431-9930-90afeec7a36c{letter-spacing:.008em}.b58bf343-78f0-4e56-ae29-c88647ac133e{letter-spacing:.004em}.a6857f83-0366-49cb-9690-2913aa92a770{letter-spacing:.017em}.a42812c3-55dc-452e-8336-51cdcac1dd86{letter-spacing:.032em}.b61fac68-ddcd-4f8b-b129-0f557584d3f2{letter-spacing:.026em}.e6ffdf63-b20b-47ac-adc0-bf7b89841b65{stroke:#f3f3f3}.b979a60a-08c0-4e5a-86d7-f026d873f356{letter-spacing:0}.b57981e8-ab25-4b6a-a623-e7055c571a21{letter-spacing:.01em}.bc42dfaf-d5ea-49e3-a007-b70190e81efa{letter-spacing:.009em}.a1c853b9-0d18-4e80-9237-83855a256f66{letter-spacing:.012em}.a9076e1a-de08-48d8-879f-2d9bca8514a2{letter-spacing:.001em}.b9270033-f072-42bc-8e09-6be1f4165217{letter-spacing:-.006em}.f7216aef-e5d0-4cd7-b099-4c2a97f20803{letter-spacing:.008em}.b264168b-7345-4b2d-a25f-d42ea5824741{letter-spacing:.007em}.b65c7ba9-8ae2-4536-b64c-3bbb6923a682{stroke-dasharray:2.941 2.941}.bac22023-2ed4-4f1d-b81e-f91ebaf0c4e6{letter-spacing:.006em}.aa2d332b-dc1e-4883-8bcb-11945b0a9ceb{letter-spacing:.011em}.ba56b297-d1b0-4a56-af81-98779e8b4cf8{letter-spacing:.007em}.a8343451-fe87-4e7b-81df-5afb59a4a34d{letter-spacing:.011em}.eeaf3a97-643c-46d4-8496-6b9383b63fb1{letter-spacing:.01em}.a65de759-13a7-4b7f-9dd2-d5e40873fe3f{letter-spacing:.017em}.b0dcae7a-6880-46f1-bf8c-907d4a2b4e68{letter-spacing:.01em}.bde126e8-6f06-4f6b-8411-aa94d7a7a27e{letter-spacing:-.005em}</style></defs><path class="a465583e-9bc0-49da-840c-8079f596a660" d="M433.5 305.367v1.5"/><path stroke-dasharray="3.067 3.067" stroke-linecap="round" stroke-linejoin="round" stroke="#adadad" fill="none" d="M433.5 309.934v96.614"/><path class="a465583e-9bc0-49da-840c-8079f596a660" d="M433.5 408.082v1.5M433.5 153.5v1.5"/><path stroke-dasharray="2.955 2.955" stroke-linecap="round" stroke-linejoin="round" stroke="#adadad" fill="none" d="M433.5 157.955V292.39"/><path class="a465583e-9bc0-49da-840c-8079f596a660" d="M433.5 293.867v1.5M433.5 420.5v1.5"/><path stroke-dasharray="2.965 2.965" stroke-linecap="round" stroke-linejoin="round" stroke="#adadad" fill="none" d="M433.5 424.965v241.647"/><path class="a465583e-9bc0-49da-840c-8079f596a660" d="M433.5 668.094v1.5H432"/><path class="a332fa94-0eb6-4b14-94cc-f3280c90c10b" d="M428.993 669.594H3.503"/><path class="a465583e-9bc0-49da-840c-8079f596a660" d="M2 669.594H.5v-1.5"/><path stroke-dasharray="3.009 3.009" stroke-linecap="round" stroke-linejoin="round" stroke="#adadad" fill="none" d="M.5 665.085V119.004"/><path class="a465583e-9bc0-49da-840c-8079f596a660" d="M.5 117.5V116H2"/><path class="a332fa94-0eb6-4b14-94cc-f3280c90c10b" d="M5.007 116h425.489"/><path class="a465583e-9bc0-49da-840c-8079f596a660" d="M432 116h1.5v1.5"/><path stroke-dasharray="2.722 2.722" stroke-linecap="round" stroke-linejoin="round" stroke="#adadad" fill="none" d="M433.5 120.222v20.417"/><path class="a465583e-9bc0-49da-840c-8079f596a660" d="M433.5 142v1.5"/><path class="a7967b9b-43dd-41d1-81ee-cbf95e49071d" d="M460.5 168.582h279v291h-279z"/><path class="a28a6e0b-7595-4fdb-8039-81c84344a99a" d="M577.5 219.582v60h-92"/><path class="a28a6e0b-7595-4fdb-8039-81c84344a99a" d="M572.5 214.582v60h-92"/><path class="aa502b36-3209-4746-bed0-73b1b331ca51" d="M632.5 239.582h-55.324"/><path class="b9fd85ef-0dbc-46ce-a917-366e03f1c6f1" d="M578.635 234.596L570 239.582l8.635 4.986v-9.972z"/><path class="aa502b36-3209-4746-bed0-73b1b331ca51" d="M312.5 517.595H128.676"/><path class="b9fd85ef-0dbc-46ce-a917-366e03f1c6f1" d="M130.135 512.608l-8.635 4.987 8.635 4.986v-9.973z"/><text class="e0a94933-c7a7-4b12-97ba-5eda3ba7a12a" transform="translate(586.059 231.554)"><tspan class="b47edc81-d056-4273-9a5f-38fc45f84f2a">D</tspan><tspan class="b1369698-264f-4aaa-9e6d-121525be4a6c" x="8.01" y="0">e</tspan><tspan class="a9c6a74c-6d0a-4c79-bb7d-07b11ca0c75d" x="14.071" y="0">pl</tspan><tspan class="a8b3b591-6b84-4fac-a01c-39d8e781ad71" x="22.877" y="0">o</tspan><tspan x="29.004" y="0">y</tspan></text><text class="e0a94933-c7a7-4b12-97ba-5eda3ba7a12a" transform="translate(683.513 324.582)"><tspan class="b47edc81-d056-4273-9a5f-38fc45f84f2a">D</tspan><tspan class="b1369698-264f-4aaa-9e6d-121525be4a6c" x="8.01" y="0">e</tspan><tspan class="a9c6a74c-6d0a-4c79-bb7d-07b11ca0c75d" x="14.071" y="0">pl</tspan><tspan class="a8b3b591-6b84-4fac-a01c-39d8e781ad71" x="22.877" y="0">o</tspan><tspan x="29.004" y="0">y</tspan></text><text class="e0a94933-c7a7-4b12-97ba-5eda3ba7a12a" transform="translate(539.914 406.554)"><tspan class="e0d00fbe-6ede-4cdb-8956-43498cd4a1aa">Q</tspan><tspan class="eda0519e-5131-4f56-a08d-e45ae9fd2079" x="8.919" y="0">u</tspan><tspan class="b834a177-8574-44c4-99a4-d23a7c472146" x="14.917" y="0">e</tspan><tspan class="adf6f4c5-1ccb-4903-8ede-6ac01d88f4ae" x="20.998" y="0">r</tspan><tspan class="fc1b701e-b17b-4a82-b17c-cf977970ee61" x="24.9" y="0">i</tspan><tspan class="a6e71ffa-a9eb-43a9-8ea0-f34f61c13c75" x="27.375" y="0">e</tspan><tspan x="33.443" y="0">s</tspan></text><path class="be7cd6b1-1036-4718-807c-fb042db80116" d="M373.5 199.906V148.5h386v267l-34-.918"/><path class="bd086bac-36ce-42ae-a204-16030568e6fa" d="M378.486 198.447l-4.986 8.635-4.986-8.635h9.972z"/><path class="a7967b9b-43dd-41d1-81ee-cbf95e49071d" d="M18.5 168.582h279v291h-279z"/><text class="e0a94933-c7a7-4b12-97ba-5eda3ba7a12a" transform="translate(.901 97.407)"><tspan letter-spacing=".015em">I</tspan><tspan class="ae0a9c1a-e399-4eeb-b8a2-eb6fb3de5004" x="2.883" y="0">ns</tspan><tspan x="13.923" y="0" letter-spacing=".005em">t</tspan><tspan class="ae0a9c1a-e399-4eeb-b8a2-eb6fb3de5004" x="18.059" y="0">a</tspan><tspan x="23.837" y="0" letter-spacing=".012em">l</tspan><tspan class="a32cf516-c1bd-4341-a392-e917615fee24" x="26.39" y="0">l</tspan><tspan x="28.821" y="0" letter-spacing=".006em">e</tspan><tspan x="34.887" y="0">d </tspan><tspan x="43.73" y="0" letter-spacing="-.012em">b</tspan><tspan x="49.879" y="0">y </tspan><tspan x="57.82" y="0" letter-spacing=".001em">d</tspan><tspan x="64.108" y="0" letter-spacing="-.015em">e</tspan><tspan class="adf6f4c5-1ccb-4903-8ede-6ac01d88f4ae" x="69.935" y="0">f</tspan><tspan x="74.036" y="0" letter-spacing=".006em">a</tspan><tspan x="79.774" y="0" letter-spacing=".013em">u</tspan><tspan x="85.87" y="0" letter-spacing=".004em">l</tspan><tspan x="88.334" y="0">t</tspan></text><path class="a28a6e0b-7595-4fdb-8039-81c84344a99a" d="M282.5 219.582v60h-92"/><path class="a28a6e0b-7595-4fdb-8039-81c84344a99a" d="M277.5 214.582v60h-92"/><path class="aa502b36-3209-4746-bed0-73b1b331ca51" d="M125.5 239.582h45.324"/><path class="b9fd85ef-0dbc-46ce-a917-366e03f1c6f1" d="M169.365 244.568l8.635-4.986-8.635-4.986v9.972z"/><path class="aa502b36-3209-4746-bed0-73b1b331ca51" d="M79.5 209.582V148.5h274v51.406"/><path class="b9fd85ef-0dbc-46ce-a917-366e03f1c6f1" d="M348.514 198.447l4.986 8.635 4.986-8.635h-9.972z"/><path class="f37c49f3-44b6-4a68-8238-c3ba89219d6d" d="M33.5 209.582h92v60h-92z"/><text class="e7927443-64e1-42ec-bab4-0af5c00b795e" transform="translate(47.655 236.536)"><tspan class="b2b24f58-e645-477e-9158-12d71da54dd8">P</tspan><tspan class="af4d6898-06c4-45fc-a185-e756830ba62a" x="7.412" y="0">r</tspan><tspan class="e1e97621-47b0-4d68-95d2-a9893e7ddd77" x="11.711" y="0">o</tspan><tspan class="e03c627a-79a8-4690-bf3d-f27cd3339fb9" x="18.385" y="0">m</tspan><tspan class="bace2baf-c386-412d-a91c-99ec85509d25" x="28.107" y="0">e</tspan><tspan class="e298fcb1-2e47-4ac3-9ea9-535bd1c2123c" x="34.348" y="0">t</tspan><tspan class="e1472d46-d0f4-43e1-9261-28eca6aed22b" x="38.989" y="0">h</tspan><tspan class="b227e3ae-479f-453b-ab42-9d25cf5e64b4" x="45.467" y="0">e</tspan><tspan class="a94bec21-1ccf-4a5f-ae26-6f53c61a4b36" x="51.835" y="0">u</tspan><tspan x="58.421" y="0">s</tspan><tspan class="adbd650c-b38f-4ce0-b5fb-a257f4f30653" x="7.77" y="12">O</tspan><tspan class="f7a83945-ae09-4808-9963-777c4aabaa98" x="16.849" y="12">p</tspan><tspan class="ada6089e-4ef8-4813-a6dd-a39fa994d071" x="23.643" y="12">e</tspan><tspan class="faca8470-91f7-46de-a5b0-1aabe90ce193" x="30.035" y="12">r</tspan><tspan class="e713220d-5bc6-4058-bf26-d69f6655f515" x="34.405" y="12">a</tspan><tspan class="b227992f-267c-41a8-974d-256891e2da78" x="40.421" y="12">t</tspan><tspan class="eef63654-389f-4355-b9d2-fb42cf305f7b" x="44.924" y="12">o</tspan><tspan x="51.598" y="12">r</tspan></text><path class="f37c49f3-44b6-4a68-8238-c3ba89219d6d" d="M33.5 344.582h92v30h-92z"/><text class="e7927443-64e1-42ec-bab4-0af5c00b795e" transform="translate(71.716 362.629)"><tspan letter-spacing=".013em">N</tspan><tspan x="8.517" y="0">E</tspan></text><path class="f37c49f3-44b6-4a68-8238-c3ba89219d6d" d="M33.5 379.582h92v30h-92z"/><text class="e7927443-64e1-42ec-bab4-0af5c00b795e" transform="translate(72.2 397.629)"><tspan letter-spacing="-.049em">P</tspan><tspan x="6.933" y="0">A</tspan></text><path class="f37c49f3-44b6-4a68-8238-c3ba89219d6d" d="M124.5 415.582v28h-90v-28h90m1-1h-92v30h92v-30z"/><text class="e7927443-64e1-42ec-bab4-0af5c00b795e" transform="translate(58.213 432.629)"><tspan letter-spacing=".011em">G</tspan><tspan class="eda0519e-5131-4f56-a08d-e45ae9fd2079" x="8.942" y="0">r</tspan><tspan x="13.312" y="0" letter-spacing="-.003em">a</tspan><tspan x="19.333" y="0" letter-spacing=".003em">f</tspan><tspan class="b4e48364-f5c4-4921-8fa9-e6d49d13b4f5" x="23.891" y="0">a</tspan><tspan class="b1369698-264f-4aaa-9e6d-121525be4a6c" x="30.057" y="0">n</tspan><tspan x="36.525" y="0">a</tspan></text><path class="f37c49f3-44b6-4a68-8238-c3ba89219d6d" d="M33.5 274.582h92v30h-92z"/><path class="a7967b9b-43dd-41d1-81ee-cbf95e49071d" d="M33.5 182.573h92v15.891h-92z"/><text class="e7927443-64e1-42ec-bab4-0af5c00b795e" transform="translate(67.311 292.629)"><tspan letter-spacing=".005em">K</tspan><tspan x="7.402" y="0" letter-spacing=".016em">S</tspan><tspan x="14.588" y="0">M</tspan></text><path class="f37c49f3-44b6-4a68-8238-c3ba89219d6d" d="M33.5 309.582h92v30h-92z"/><text transform="translate(66.519 327.629)" font-family="RedHatText,&quot;Red Hat Text&quot;,Overpass,&quot;Helvetica Neue&quot;,Arial,sans-serif" font-weight="500" letter-spacing=".006em" fill="#151515" font-size="11">O<tspan x="8.987" y="0" letter-spacing=".016em">S</tspan><tspan class="e578fd4f-96f3-44ff-8a0e-0447a329564e" x="16.173" y="0">M</tspan></text><path class="a7967b9b-43dd-41d1-81ee-cbf95e49071d" d="M18.5 487.595h102v60h-102z"/><text class="e7927443-64e1-42ec-bab4-0af5c00b795e" transform="translate(43.029 514.641)"><tspan letter-spacing="-.081em">T</tspan><tspan class="ada6089e-4ef8-4813-a6dd-a39fa994d071" x="6.135" y="0">e</tspan><tspan class="a6e71ffa-a9eb-43a9-8ea0-f34f61c13c75" x="12.527" y="0">l</tspan><tspan class="b6ed4a94-0a66-4431-9930-90afeec7a36c" x="15.371" y="0">em</tspan><tspan x="31.488" y="0" letter-spacing="-.006em">et</tspan><tspan class="ada6089e-4ef8-4813-a6dd-a39fa994d071" x="42.228" y="0">e</tspan><tspan x="48.62" y="0">r</tspan><tspan x="10.987" y="12">C</tspan><tspan x="18.94" y="12" letter-spacing=".01em">l</tspan><tspan class="b58bf343-78f0-4e56-ae29-c88647ac133e" x="21.827" y="12">i</tspan><tspan class="ada6089e-4ef8-4813-a6dd-a39fa994d071" x="24.642" y="12">e</tspan><tspan class="e713220d-5bc6-4058-bf26-d69f6655f515" x="31.034" y="12">n</tspan><tspan x="37.402" y="12">t</tspan></text><text class="e0a94933-c7a7-4b12-97ba-5eda3ba7a12a" transform="translate(133.558 231.554)"><tspan class="b47edc81-d056-4273-9a5f-38fc45f84f2a">D</tspan><tspan class="b1369698-264f-4aaa-9e6d-121525be4a6c" x="8.01" y="0">e</tspan><tspan class="a9c6a74c-6d0a-4c79-bb7d-07b11ca0c75d" x="14.071" y="0">pl</tspan><tspan class="a8b3b591-6b84-4fac-a01c-39d8e781ad71" x="22.877" y="0">o</tspan><tspan x="29.004" y="0">y</tspan></text><text class="e0a94933-c7a7-4b12-97ba-5eda3ba7a12a" transform="translate(199.605 141.579)"><tspan class="b47edc81-d056-4273-9a5f-38fc45f84f2a">D</tspan><tspan class="b1369698-264f-4aaa-9e6d-121525be4a6c" x="8.01" y="0">e</tspan><tspan class="a9c6a74c-6d0a-4c79-bb7d-07b11ca0c75d" x="14.071" y="0">pl</tspan><tspan class="a8b3b591-6b84-4fac-a01c-39d8e781ad71" x="22.877" y="0">o</tspan><tspan x="29.004" y="0">y</tspan></text><text class="e0a94933-c7a7-4b12-97ba-5eda3ba7a12a" transform="translate(533.646 141.579)"><tspan class="a6857f83-0366-49cb-9690-2913aa92a770">A</tspan><tspan class="a32cf516-c1bd-4341-a392-e917615fee24" x="7.305" y="0">l</tspan><tspan class="e03c627a-79a8-4690-bf3d-f27cd3339fb9" x="9.737" y="0">e</tspan><tspan class="a42812c3-55dc-452e-8336-51cdcac1dd86" x="15.818" y="0">r</tspan><tspan class="b61fac68-ddcd-4f8b-b129-0f557584d3f2" x="19.955" y="0">t</tspan><tspan x="24.318" y="0">s</tspan></text><text class="e0a94933-c7a7-4b12-97ba-5eda3ba7a12a" transform="translate(199.855 532.395)"><tspan class="b47edc81-d056-4273-9a5f-38fc45f84f2a">D</tspan><tspan class="b1369698-264f-4aaa-9e6d-121525be4a6c" x="8.01" y="0">e</tspan><tspan class="a9c6a74c-6d0a-4c79-bb7d-07b11ca0c75d" x="14.071" y="0">pl</tspan><tspan class="a8b3b591-6b84-4fac-a01c-39d8e781ad71" x="22.877" y="0">o</tspan><tspan x="29.004" y="0">y</tspan></text><text transform="translate(475.5 195.37)" font-size="14" font-family="RedHatText,&quot;Red Hat Text&quot;,Overpass,&quot;Helvetica Neue&quot;,Arial,sans-serif" font-weight="700" fill="#151515"><tspan letter-spacing=".008em">U</tspan><tspan x="10.603" y="0" letter-spacing=".001em">s</tspan><tspan x="17.768" y="0" letter-spacing=".005em">e</tspan><tspan x="26.128" y="0">r</tspan></text><path class="a7967b9b-43dd-41d1-81ee-cbf95e49071d" d="M312.5 209.582h102v60h-102z"/><text class="e7927443-64e1-42ec-bab4-0af5c00b795e" transform="translate(327.367 242.629)"><tspan letter-spacing=".015em">A</tspan><tspan class="a6e71ffa-a9eb-43a9-8ea0-f34f61c13c75" x="7.836" y="0">l</tspan><tspan class="b6ed4a94-0a66-4431-9930-90afeec7a36c" x="10.681" y="0">e</tspan><tspan x="17.073" y="0" letter-spacing=".024em">r</tspan><tspan class="e298fcb1-2e47-4ac3-9ea9-535bd1c2123c" x="21.654" y="0">t</tspan><tspan x="26.295" y="0" letter-spacing=".007em">m</tspan><tspan class="b4e48364-f5c4-4921-8fa9-e6d49d13b4f5" x="36.008" y="0">a</tspan><tspan class="b1369698-264f-4aaa-9e6d-121525be4a6c" x="42.174" y="0">n</tspan><tspan class="e1472d46-d0f4-43e1-9261-28eca6aed22b" x="48.642" y="0">a</tspan><tspan x="54.768" y="0" letter-spacing=".008em">ge</tspan><tspan x="67.943" y="0">r</tspan></text><path class="e6ffdf63-b20b-47ac-adc0-bf7b89841b65" d="M424.5 219.582v60h-102"/><path class="e6ffdf63-b20b-47ac-adc0-bf7b89841b65" d="M419.5 214.582v60h-102"/><path class="a7967b9b-43dd-41d1-81ee-cbf95e49071d" d="M166 16h102v60H166z"/><text transform="translate(189.717 43.047)" letter-spacing=".014em" font-family="RedHatText,&quot;Red Hat Text&quot;,Overpass,&quot;Helvetica Neue&quot;,Arial,sans-serif" font-weight="500" fill="#151515" font-size="11">O<tspan class="f7a83945-ae09-4808-9963-777c4aabaa98" x="9.079" y="0">p</tspan><tspan class="b6ed4a94-0a66-4431-9930-90afeec7a36c" x="15.873" y="0">e</tspan><tspan x="22.265" y="0" letter-spacing=".012em">n</tspan><tspan x="28.795" y="0" letter-spacing=".015em">S</tspan><tspan class="e1e97621-47b0-4d68-95d2-a9893e7ddd77" x="35.965" y="0">h</tspan><tspan x="42.463" y="0" letter-spacing=".001em">i</tspan><tspan x="45.244" y="0" letter-spacing=".022em">f</tspan><tspan class="b979a60a-08c0-4e5a-86d7-f026d873f356" x="50.012" y="0">t</tspan><tspan class="b57981e8-ab25-4b6a-a623-e7055c571a21"><tspan x="-5.907" y="12">N</tspan><tspan class="b4e48364-f5c4-4921-8fa9-e6d49d13b4f5" x="2.574" y="12">a</tspan><tspan class="e03c627a-79a8-4690-bf3d-f27cd3339fb9" x="8.741" y="12">m</tspan><tspan class="bc42dfaf-d5ea-49e3-a007-b70190e81efa" x="18.462" y="12">e</tspan><tspan class="a1c853b9-0d18-4e80-9237-83855a256f66" x="24.859" y="12">s</tspan><tspan class="a9076e1a-de08-48d8-879f-2d9bca8514a2" x="30.257" y="12">p</tspan><tspan class="e1472d46-d0f4-43e1-9261-28eca6aed22b" x="36.994" y="12">a</tspan><tspan class="b9270033-f072-42bc-8e09-6be1f4165217" x="43.12" y="12">c</tspan><tspan class="f7216aef-e5d0-4cd7-b099-4c2a97f20803" x="48.807" y="12">e</tspan><tspan class="e578fd4f-96f3-44ff-8a0e-0447a329564e" x="55.203" y="12">s</tspan></tspan></text><path class="e6ffdf63-b20b-47ac-adc0-bf7b89841b65" d="M277.625 26v60h-102"/><path class="e6ffdf63-b20b-47ac-adc0-bf7b89841b65" d="M272.625 21v60h-102"/><path class="a7967b9b-43dd-41d1-81ee-cbf95e49071d" d="M544.125 16h102v60h-102z"/><text class="e7927443-64e1-42ec-bab4-0af5c00b795e" transform="translate(559.928 43.047)"><tspan letter-spacing=".013em">U</tspan><tspan x="8.158" y="0" letter-spacing=".007em">s</tspan><tspan class="b6ed4a94-0a66-4431-9930-90afeec7a36c" x="13.507" y="0">e</tspan><tspan x="19.899" y="0" letter-spacing="-.059em">r</tspan><tspan x="23.569" y="0" letter-spacing=".018em">-</tspan><tspan x="28.85" y="0" letter-spacing=".006em">D</tspan><tspan x="37.081" y="0" letter-spacing="-.005em">e</tspan><tspan x="43.327" y="0" letter-spacing=".01em">fi</tspan><tspan class="b264168b-7345-4b2d-a25f-d42ea5824741" x="50.845" y="0">n</tspan><tspan x="57.322" y="0" letter-spacing=".005em">e</tspan><tspan x="63.684" y="0">d</tspan><tspan class="b57981e8-ab25-4b6a-a623-e7055c571a21"><tspan x="2.007" y="12">N</tspan><tspan class="b4e48364-f5c4-4921-8fa9-e6d49d13b4f5" x="10.488" y="12">a</tspan><tspan class="e03c627a-79a8-4690-bf3d-f27cd3339fb9" x="16.655" y="12">m</tspan><tspan class="bc42dfaf-d5ea-49e3-a007-b70190e81efa" x="26.376" y="12">e</tspan><tspan class="a1c853b9-0d18-4e80-9237-83855a256f66" x="32.773" y="12">s</tspan><tspan class="a9076e1a-de08-48d8-879f-2d9bca8514a2" x="38.171" y="12">p</tspan><tspan class="e1472d46-d0f4-43e1-9261-28eca6aed22b" x="44.908" y="12">a</tspan><tspan class="b9270033-f072-42bc-8e09-6be1f4165217" x="51.034" y="12">c</tspan><tspan class="f7216aef-e5d0-4cd7-b099-4c2a97f20803" x="56.721" y="12">e</tspan><tspan class="e578fd4f-96f3-44ff-8a0e-0447a329564e" x="63.117" y="12">s</tspan></tspan></text><path class="e6ffdf63-b20b-47ac-adc0-bf7b89841b65" d="M656.125 26v60h-102"/><path class="e6ffdf63-b20b-47ac-adc0-bf7b89841b65" d="M651.125 21v60h-102"/><path class="be7cd6b1-1036-4718-807c-fb042db80116" d="M511.5 269.582v30.785h-270v-30.785"/><path class="aa502b36-3209-4746-bed0-73b1b331ca51" d="M531.5 279.258v1.5"/><path class="b65c7ba9-8ae2-4536-b64c-3bbb6923a682" d="M531.5 283.699v127.913"/><path class="aa502b36-3209-4746-bed0-73b1b331ca51" d="M531.5 413.082v1.5"/><path class="b9fd85ef-0dbc-46ce-a917-366e03f1c6f1" d="M526.513 280.717l4.987-8.635 4.986 8.635h-9.973z"/><path class="aa502b36-3209-4746-bed0-73b1b331ca51" d="M215.75 471.937v45.418"/><path class="b9fd85ef-0dbc-46ce-a917-366e03f1c6f1" d="M210.764 473.396l4.986-8.635 4.986 8.635h-9.972z"/><path class="aa502b36-3209-4746-bed0-73b1b331ca51" d="M678.5 269.582v105.324"/><path class="b9fd85ef-0dbc-46ce-a917-366e03f1c6f1" d="M673.513 373.447l4.987 8.635 4.986-8.635h-9.973z"/><g><path class="aa502b36-3209-4746-bed0-73b1b331ca51" d="M221.5 279.258v1.5"/><path class="b65c7ba9-8ae2-4536-b64c-3bbb6923a682" d="M221.5 283.699v127.913"/><path class="aa502b36-3209-4746-bed0-73b1b331ca51" d="M221.5 413.082v1.5h1.5"/><path stroke-dasharray="3.034 3.034" stroke="#06c" stroke-linecap="round" stroke-linejoin="round" fill="none" d="M226.034 414.582h83.449"/><path class="aa502b36-3209-4746-bed0-73b1b331ca51" d="M311 414.582h1.5"/><path class="b9fd85ef-0dbc-46ce-a917-366e03f1c6f1" d="M216.514 280.717l4.986-8.635 4.986 8.635h-9.972z"/></g><g><path class="aa502b36-3209-4746-bed0-73b1b331ca51" d="M622.823 414.582h-1.5"/><path stroke-dasharray="3.01 3.01" stroke="#06c" stroke-linecap="round" stroke-linejoin="round" fill="none" d="M618.314 414.582H427.181"/><path class="aa502b36-3209-4746-bed0-73b1b331ca51" d="M425.676 414.582h-1.5"/><path class="b9fd85ef-0dbc-46ce-a917-366e03f1c6f1" d="M621.365 409.596l8.635 4.986-8.635 4.986v-9.972zM425.635 409.596L417 414.582l8.635 4.986v-9.972z"/></g><text class="e0a94933-c7a7-4b12-97ba-5eda3ba7a12a" transform="translate(348.904 314.582)"><tspan class="a6857f83-0366-49cb-9690-2913aa92a770">A</tspan><tspan class="a32cf516-c1bd-4341-a392-e917615fee24" x="7.305" y="0">l</tspan><tspan class="e03c627a-79a8-4690-bf3d-f27cd3339fb9" x="9.737" y="0">e</tspan><tspan class="a42812c3-55dc-452e-8336-51cdcac1dd86" x="15.818" y="0">r</tspan><tspan class="b61fac68-ddcd-4f8b-b129-0f557584d3f2" x="19.955" y="0">t</tspan><tspan x="24.318" y="0">s</tspan></text><g><path class="be7cd6b1-1036-4718-807c-fb042db80116" d="M363.5 300.367v-21.109"/><path class="bd086bac-36ce-42ae-a204-16030568e6fa" d="M368.486 280.717l-4.986-8.635-4.986 8.635h9.972z"/></g><path class="f37c49f3-44b6-4a68-8238-c3ba89219d6d" d="M632.5 384.582h92v60h-92z"/><text class="e7927443-64e1-42ec-bab4-0af5c00b795e" transform="translate(658.198 411.629)"><tspan class="bac22023-2ed4-4f1d-b81e-f91ebaf0c4e6">Th</tspan><tspan class="aa2d332b-dc1e-4883-8bcb-11945b0a9ceb" x="13.554" y="0">a</tspan><tspan class="e1472d46-d0f4-43e1-9261-28eca6aed22b" x="19.72" y="0">n</tspan><tspan class="ba56b297-d1b0-4a56-af81-98779e8b4cf8" x="26.198" y="0">o</tspan><tspan x="32.858" y="0">s </tspan><tspan letter-spacing=".01em"><tspan x="6.514" y="12">R</tspan><tspan class="a8343451-fe87-4e7b-81df-5afb59a4a34d" x="14.012" y="12">u</tspan><tspan class="a6e71ffa-a9eb-43a9-8ea0-f34f61c13c75" x="20.529" y="12">l</tspan><tspan class="b6ed4a94-0a66-4431-9930-90afeec7a36c" x="23.374" y="12">e</tspan><tspan class="b979a60a-08c0-4e5a-86d7-f026d873f356" x="29.766" y="12">r</tspan></tspan></text><path class="f37c49f3-44b6-4a68-8238-c3ba89219d6d" d="M475.5 209.582h92v60h-92z"/><text class="e7927443-64e1-42ec-bab4-0af5c00b795e" transform="translate(489.654 242.536)"><tspan class="b2b24f58-e645-477e-9158-12d71da54dd8">P</tspan><tspan class="af4d6898-06c4-45fc-a185-e756830ba62a" x="7.412" y="0">r</tspan><tspan class="e1e97621-47b0-4d68-95d2-a9893e7ddd77" x="11.711" y="0">o</tspan><tspan class="e03c627a-79a8-4690-bf3d-f27cd3339fb9" x="18.385" y="0">m</tspan><tspan class="bace2baf-c386-412d-a91c-99ec85509d25" x="28.107" y="0">e</tspan><tspan class="e298fcb1-2e47-4ac3-9ea9-535bd1c2123c" x="34.348" y="0">t</tspan><tspan class="e1472d46-d0f4-43e1-9261-28eca6aed22b" x="38.989" y="0">h</tspan><tspan class="b227e3ae-479f-453b-ab42-9d25cf5e64b4" x="45.467" y="0">e</tspan><tspan class="a94bec21-1ccf-4a5f-ae26-6f53c61a4b36" x="51.835" y="0">u</tspan><tspan x="58.421" y="0">s</tspan></text><g><path class="a7967b9b-43dd-41d1-81ee-cbf95e49071d" d="M312.5 384.582h102v60h-102z"/><text class="e7927443-64e1-42ec-bab4-0af5c00b795e" transform="translate(344.437 411.629)"><tspan class="bac22023-2ed4-4f1d-b81e-f91ebaf0c4e6">Th</tspan><tspan class="aa2d332b-dc1e-4883-8bcb-11945b0a9ceb" x="13.554" y="0">a</tspan><tspan class="e1472d46-d0f4-43e1-9261-28eca6aed22b" x="19.72" y="0">n</tspan><tspan class="ba56b297-d1b0-4a56-af81-98779e8b4cf8" x="26.198" y="0">o</tspan><tspan x="32.858" y="0">s</tspan><tspan letter-spacing=".017em"><tspan x="-.884" y="12">Q</tspan><tspan x="8.229" y="12" letter-spacing=".008em">u</tspan><tspan class="ada6089e-4ef8-4813-a6dd-a39fa994d071" x="14.714" y="12">e</tspan><tspan class="faca8470-91f7-46de-a5b0-1aabe90ce193" x="21.106" y="12">ri</tspan><tspan class="ada6089e-4ef8-4813-a6dd-a39fa994d071" x="28.296" y="12">e</tspan><tspan class="b979a60a-08c0-4e5a-86d7-f026d873f356" x="34.688" y="12">r</tspan></tspan></text></g><text class="e0a94933-c7a7-4b12-97ba-5eda3ba7a12a" transform="translate(229.089 406.554)"><tspan class="e0d00fbe-6ede-4cdb-8956-43498cd4a1aa">Q</tspan><tspan class="eda0519e-5131-4f56-a08d-e45ae9fd2079" x="8.919" y="0">u</tspan><tspan class="b834a177-8574-44c4-99a4-d23a7c472146" x="14.917" y="0">e</tspan><tspan class="adf6f4c5-1ccb-4903-8ede-6ac01d88f4ae" x="20.998" y="0">r</tspan><tspan class="fc1b701e-b17b-4a82-b17c-cf977970ee61" x="24.9" y="0">i</tspan><tspan class="a6e71ffa-a9eb-43a9-8ea0-f34f61c13c75" x="27.375" y="0">e</tspan><tspan x="33.443" y="0">s</tspan></text><path class="f37c49f3-44b6-4a68-8238-c3ba89219d6d" d="M180.5 209.582h92v60h-92z"/><text class="e7927443-64e1-42ec-bab4-0af5c00b795e" transform="translate(194.655 242.536)"><tspan class="b2b24f58-e645-477e-9158-12d71da54dd8">P</tspan><tspan class="af4d6898-06c4-45fc-a185-e756830ba62a" x="7.412" y="0">r</tspan><tspan class="e1e97621-47b0-4d68-95d2-a9893e7ddd77" x="11.711" y="0">o</tspan><tspan class="e03c627a-79a8-4690-bf3d-f27cd3339fb9" x="18.385" y="0">m</tspan><tspan class="bace2baf-c386-412d-a91c-99ec85509d25" x="28.107" y="0">e</tspan><tspan class="e298fcb1-2e47-4ac3-9ea9-535bd1c2123c" x="34.348" y="0">t</tspan><tspan class="e1472d46-d0f4-43e1-9261-28eca6aed22b" x="38.989" y="0">h</tspan><tspan class="b227e3ae-479f-453b-ab42-9d25cf5e64b4" x="45.467" y="0">e</tspan><tspan class="a94bec21-1ccf-4a5f-ae26-6f53c61a4b36" x="51.835" y="0">u</tspan><tspan x="58.421" y="0">s</tspan></text><g><path class="be7cd6b1-1036-4718-807c-fb042db80116" d="M217 76v29.824"/><path class="bd086bac-36ce-42ae-a204-16030568e6fa" d="M212.014 104.365L217 113l4.986-8.635h-9.972z"/></g><g><path class="be7cd6b1-1036-4718-807c-fb042db80116" d="M595.125 76l-.92 82.906"/><path class="bd086bac-36ce-42ae-a204-16030568e6fa" d="M589.235 157.392l4.89 8.69 5.082-8.579-9.972-.111z"/></g><path class="be7cd6b1-1036-4718-807c-fb042db80116" d="M98.75 94.629L116.315 115"/><path class="f37c49f3-44b6-4a68-8238-c3ba89219d6d" d="M632.5 209.582h92v60h-92z"/><text class="e7927443-64e1-42ec-bab4-0af5c00b795e" transform="translate(646.654 236.536)"><tspan class="b2b24f58-e645-477e-9158-12d71da54dd8">P</tspan><tspan class="af4d6898-06c4-45fc-a185-e756830ba62a" x="7.412" y="0">r</tspan><tspan class="e1e97621-47b0-4d68-95d2-a9893e7ddd77" x="11.711" y="0">o</tspan><tspan class="e03c627a-79a8-4690-bf3d-f27cd3339fb9" x="18.385" y="0">m</tspan><tspan class="bace2baf-c386-412d-a91c-99ec85509d25" x="28.107" y="0">e</tspan><tspan class="e298fcb1-2e47-4ac3-9ea9-535bd1c2123c" x="34.348" y="0">t</tspan><tspan class="e1472d46-d0f4-43e1-9261-28eca6aed22b" x="38.989" y="0">h</tspan><tspan class="b227e3ae-479f-453b-ab42-9d25cf5e64b4" x="45.467" y="0">e</tspan><tspan class="a94bec21-1ccf-4a5f-ae26-6f53c61a4b36" x="51.835" y="0">u</tspan><tspan x="58.421" y="0">s</tspan><tspan class="adbd650c-b38f-4ce0-b5fb-a257f4f30653" x="7.77" y="12">O</tspan><tspan class="f7a83945-ae09-4808-9963-777c4aabaa98" x="16.849" y="12">p</tspan><tspan class="ada6089e-4ef8-4813-a6dd-a39fa994d071" x="23.643" y="12">e</tspan><tspan class="faca8470-91f7-46de-a5b0-1aabe90ce193" x="30.035" y="12">r</tspan><tspan class="e713220d-5bc6-4058-bf26-d69f6655f515" x="34.405" y="12">a</tspan><tspan class="b227992f-267c-41a8-974d-256891e2da78" x="40.421" y="12">t</tspan><tspan class="eef63654-389f-4355-b9d2-fb42cf305f7b" x="44.924" y="12">o</tspan><tspan x="51.598" y="12">r</tspan></text><text transform="translate(33.501 195.37)" letter-spacing="-.011em" font-size="14" font-family="RedHatText,&quot;Red Hat Text&quot;,Overpass,&quot;Helvetica Neue&quot;,Arial,sans-serif" font-weight="700" fill="#151515">P<tspan x="9.779" y="0" letter-spacing=".004em">l</tspan><tspan x="13.862" y="0" letter-spacing="-.008em">a</tspan><tspan x="21.854" y="0" letter-spacing=".009em">t</tspan><tspan x="28.397" y="0" letter-spacing="-.009em">f</tspan><tspan x="34.708" y="0" letter-spacing=".003em">o</tspan><tspan x="43.415" y="0" letter-spacing="-.005em">r</tspan><tspan x="49.537" y="0" letter-spacing="0">m</tspan></text><g><text transform="translate(667.231 672.611)" font-size="10" fill="#f3f3f3" font-family="RedHatText,&quot;Red Hat Text&quot;,Overpass,&quot;Helvetica Neue&quot;,Arial,sans-serif">118_OpenShift_0920</text><path fill="none" d="M0 649.594h760v40H0z"/></g><text class="e0a94933-c7a7-4b12-97ba-5eda3ba7a12a" transform="translate(368.514 472.27)"><tspan class="b47edc81-d056-4273-9a5f-38fc45f84f2a">D</tspan><tspan class="b1369698-264f-4aaa-9e6d-121525be4a6c" x="8.01" y="0">e</tspan><tspan class="a9c6a74c-6d0a-4c79-bb7d-07b11ca0c75d" x="14.071" y="0">pl</tspan><tspan class="a8b3b591-6b84-4fac-a01c-39d8e781ad71" x="22.877" y="0">o</tspan><tspan x="29.004" y="0">y</tspan></text><g><path class="aa502b36-3209-4746-bed0-73b1b331ca51" d="M363.5 455.177v32.418"/><path class="b9fd85ef-0dbc-46ce-a917-366e03f1c6f1" d="M358.514 456.636L363.5 448l4.986 8.636h-9.972z"/></g><text class="e0a94933-c7a7-4b12-97ba-5eda3ba7a12a" transform="translate(368.514 574.364)"><tspan class="b47edc81-d056-4273-9a5f-38fc45f84f2a">D</tspan><tspan class="b1369698-264f-4aaa-9e6d-121525be4a6c" x="8.01" y="0">e</tspan><tspan class="a9c6a74c-6d0a-4c79-bb7d-07b11ca0c75d" x="14.071" y="0">pl</tspan><tspan class="a8b3b591-6b84-4fac-a01c-39d8e781ad71" x="22.877" y="0">o</tspan><tspan x="29.004" y="0">y</tspan></text><g><path class="aa502b36-3209-4746-bed0-73b1b331ca51" d="M363.5 557.271v32.418"/><path class="b9fd85ef-0dbc-46ce-a917-366e03f1c6f1" d="M358.514 558.73l4.986-8.635 4.986 8.635h-9.972z"/></g><path class="a7967b9b-43dd-41d1-81ee-cbf95e49071d" d="M312.5 487.595h102v60h-102z"/><text class="e7927443-64e1-42ec-bab4-0af5c00b795e" transform="translate(344.495 508.548)">C<tspan class="eeaf3a97-643c-46d4-8496-6b9383b63fb1" x="7.953" y="0">l</tspan><tspan class="a65de759-13a7-4b7f-9dd2-d5e40873fe3f" x="10.833" y="0">u</tspan><tspan class="b0dcae7a-6880-46f1-bf8c-907d4a2b4e68" x="17.418" y="0">s</tspan><tspan class="bde126e8-6f06-4f6b-8411-aa94d7a7a27e" x="22.798" y="0">t</tspan><tspan class="ada6089e-4ef8-4813-a6dd-a39fa994d071" x="27.296" y="0">e</tspan><tspan x="33.688" y="0">r</tspan><tspan x="-9.72" y="12" letter-spacing=".009em">Mon</tspan><tspan x="13.347" y="12">i</tspan><tspan x="16.119" y="12" letter-spacing="-.005em">t</tspan><tspan class="e1e97621-47b0-4d68-95d2-a9893e7ddd77" x="20.622" y="12">o</tspan><tspan class="eda0519e-5131-4f56-a08d-e45ae9fd2079" x="27.296" y="12">r</tspan><tspan class="a8343451-fe87-4e7b-81df-5afb59a4a34d" x="31.666" y="12">i</tspan><tspan class="b264168b-7345-4b2d-a25f-d42ea5824741" x="34.554" y="12">n</tspan><tspan x="41.031" y="12">g</tspan><tspan class="adbd650c-b38f-4ce0-b5fb-a257f4f30653" x="-5.07" y="24">O</tspan><tspan class="f7a83945-ae09-4808-9963-777c4aabaa98" x="4.009" y="24">p</tspan><tspan class="ada6089e-4ef8-4813-a6dd-a39fa994d071" x="10.803" y="24">e</tspan><tspan class="faca8470-91f7-46de-a5b0-1aabe90ce193" x="17.195" y="24">r</tspan><tspan class="e713220d-5bc6-4058-bf26-d69f6655f515" x="21.565" y="24">a</tspan><tspan class="b227992f-267c-41a8-974d-256891e2da78" x="27.581" y="24">t</tspan><tspan class="eef63654-389f-4355-b9d2-fb42cf305f7b" x="32.084" y="24">o</tspan><tspan x="38.758" y="24">r</tspan></text><path class="a7967b9b-43dd-41d1-81ee-cbf95e49071d" d="M312.5 589.689h102v60h-102z"/><text class="e7927443-64e1-42ec-bab4-0af5c00b795e" transform="translate(344.495 610.642)">C<tspan class="eeaf3a97-643c-46d4-8496-6b9383b63fb1" x="7.953" y="0">l</tspan><tspan class="a65de759-13a7-4b7f-9dd2-d5e40873fe3f" x="10.833" y="0">u</tspan><tspan class="b0dcae7a-6880-46f1-bf8c-907d4a2b4e68" x="17.418" y="0">s</tspan><tspan class="bde126e8-6f06-4f6b-8411-aa94d7a7a27e" x="22.798" y="0">t</tspan><tspan class="ada6089e-4ef8-4813-a6dd-a39fa994d071" x="27.296" y="0">e</tspan><tspan x="33.688" y="0">r</tspan><tspan x="-.695" y="12" letter-spacing="-.043em">V</tspan><tspan class="ada6089e-4ef8-4813-a6dd-a39fa994d071" x="6.503" y="12">e</tspan><tspan x="12.896" y="12" letter-spacing=".019em">r</tspan><tspan x="17.427" y="12" letter-spacing=".011em">s</tspan><tspan class="b58bf343-78f0-4e56-ae29-c88647ac133e" x="22.815" y="12">i</tspan><tspan class="e1e97621-47b0-4d68-95d2-a9893e7ddd77" x="25.63" y="12">o</tspan><tspan x="32.304" y="12">n</tspan><tspan class="adbd650c-b38f-4ce0-b5fb-a257f4f30653" x="-5.07" y="24">O</tspan><tspan class="f7a83945-ae09-4808-9963-777c4aabaa98" x="4.009" y="24">p</tspan><tspan class="ada6089e-4ef8-4813-a6dd-a39fa994d071" x="10.803" y="24">e</tspan><tspan class="faca8470-91f7-46de-a5b0-1aabe90ce193" x="17.195" y="24">r</tspan><tspan class="e713220d-5bc6-4058-bf26-d69f6655f515" x="21.565" y="24">a</tspan><tspan class="b227992f-267c-41a8-974d-256891e2da78" x="27.581" y="24">t</tspan><tspan class="eef63654-389f-4355-b9d2-fb42cf305f7b" x="32.084" y="24">o</tspan><tspan x="38.758" y="24">r</tspan></text></svg>