<svg id="abc66b85-12ee-4f7c-bd9b-be41a13d56c1" data-name="Layer 1" xmlns="http://www.w3.org/2000/svg" width="760" height="483.675"><defs><style>.a159cb92-1302-4b4b-965f-06bfd683ab15{fill:#e8e8e8}.bc736af3-7c83-4d01-bb24-ec711cb320cb,.e4cf4f52-12a9-4028-8cac-a96871631bfc,.f93d55c7-a7a8-4ed6-a486-135c300418ca,.fb06aac9-8518-4dcb-bd24-1d9c120ff770{fill:none}.e4cf4f52-12a9-4028-8cac-a96871631bfc{stroke:#d5d5d5;stroke-miterlimit:10}.a61a94db-d549-4a94-ad7c-c33cde518403,.e4cf4f52-12a9-4028-8cac-a96871631bfc,.fb06aac9-8518-4dcb-bd24-1d9c120ff770{stroke-width:1.5px}.aff4ef5a-8471-4f50-ab2e-a5705eb7d475,.be69e3f1-54b4-4f07-b440-ea65ab095af5,.fabdf109-972c-493a-bb15-85182a74293c{font-size:12px}.ab3af15c-09b7-4a2f-a848-c93777b57f8a,.aff4ef5a-8471-4f50-ab2e-a5705eb7d475,.b72aa2f9-742f-472d-a346-15731b69989f,.be69e3f1-54b4-4f07-b440-ea65ab095af5{fill:#151515}.aff4ef5a-8471-4f50-ab2e-a5705eb7d475{font-family:RedHatText,&quot;Red Hat Text&quot;,Overpass,&quot;Helvetica Neue&quot;,Arial,sans-serif;font-weight:700}.a61a94db-d549-4a94-ad7c-c33cde518403,.ba706bfd-e0c6-4fa2-886f-30dc0de8619f,.fabdf109-972c-493a-bb15-85182a74293c{fill:#fff}.bc4117bd-e05b-4d69-aaf2-a7e73b8f7077{fill:#06c}.fabdf109-972c-493a-bb15-85182a74293c{font-family:RedHatText,&quot;Red Hat Text&quot;,Overpass,&quot;Helvetica Neue&quot;,Arial,sans-serif;font-style:italic;font-weight:500}.f93d55c7-a7a8-4ed6-a486-135c300418ca{stroke:#151515}.a61a94db-d549-4a94-ad7c-c33cde518403,.bc736af3-7c83-4d01-bb24-ec711cb320cb,.f93d55c7-a7a8-4ed6-a486-135c300418ca,.fb06aac9-8518-4dcb-bd24-1d9c120ff770{stroke-linecap:round;stroke-linejoin:round}.bc736af3-7c83-4d01-bb24-ec711cb320cb{stroke:#06c}.ab3af15c-09b7-4a2f-a848-c93777b57f8a,.be69e3f1-54b4-4f07-b440-ea65ab095af5{font-family:RedHatText,&quot;Red Hat Text&quot;,Overpass,&quot;Helvetica Neue&quot;,Arial,sans-serif;font-weight:500}.ab3af15c-09b7-4a2f-a848-c93777b57f8a{font-size:9px}.a61a94db-d549-4a94-ad7c-c33cde518403,.fb06aac9-8518-4dcb-bd24-1d9c120ff770{stroke:#5b5b5b}</style></defs><path class="a159cb92-1302-4b4b-965f-06bfd683ab15" d="M0 133.533h275.5v207H0zM484.5 133.533H760v207H484.5z"/><path class="e4cf4f52-12a9-4028-8cac-a96871631bfc" d="M30 270.982h235.5v-85"/><path class="e4cf4f52-12a9-4028-8cac-a96871631bfc" d="M25 265.982h235.5v-85M514.5 270.982H750v-85"/><path class="e4cf4f52-12a9-4028-8cac-a96871631bfc" d="M509.5 265.982H745v-85"/><text class="aff4ef5a-8471-4f50-ab2e-a5705eb7d475" transform="translate(20 158.62)">Broker A</text><path class="ba706bfd-e0c6-4fa2-886f-30dc0de8619f" d="M20 175.982h235.5v85H20z"/><path class="bc4117bd-e05b-4d69-aaf2-a7e73b8f7077" transform="rotate(-180 137.75 228.482)" d="M35.25 210.982h205v35h-205z"/><text class="fabdf109-972c-493a-bb15-85182a74293c" transform="translate(112.184 231.766)">multicast</text><text class="aff4ef5a-8471-4f50-ab2e-a5705eb7d475" transform="translate(35.063 200.185)">Addresses</text><path class="f93d55c7-a7a8-4ed6-a486-135c300418ca" d="M137.75 275.945v-29.963"/><path class="b72aa2f9-742f-472d-a346-15731b69989f" d="M142.736 274.486l-4.986 8.635-4.986-8.635h9.972z"/><text class="aff4ef5a-8471-4f50-ab2e-a5705eb7d475" transform="translate(504.5 158.62)">Broker B</text><path class="ba706bfd-e0c6-4fa2-886f-30dc0de8619f" d="M504.5 175.982H740v85H504.5z"/><path class="bc4117bd-e05b-4d69-aaf2-a7e73b8f7077" transform="rotate(-180 622.25 228.482)" d="M519.75 210.982h205v35h-205z"/><text class="fabdf109-972c-493a-bb15-85182a74293c" transform="translate(596.684 231.766)">multicast</text><text class="aff4ef5a-8471-4f50-ab2e-a5705eb7d475" transform="translate(519.563 200.185)">Addresses</text><path class="ba706bfd-e0c6-4fa2-886f-30dc0de8619f" d="M504.5 285.621H740v35H504.5z"/><path class="bc736af3-7c83-4d01-bb24-ec711cb320cb" d="M495.074 303.121h-1.5"/><path stroke-dasharray="2.998 2.998" stroke="#06c" stroke-linecap="round" stroke-linejoin="round" fill="none" d="M490.576 303.121H258.261"/><path class="bc736af3-7c83-4d01-bb24-ec711cb320cb" d="M256.762 303.121h-1.5"/><path class="bc4117bd-e05b-4d69-aaf2-a7e73b8f7077" d="M493.615 298.135l8.635 4.986-8.635 4.986v-9.972z"/><text class="be69e3f1-54b4-4f07-b440-ea65ab095af5" transform="translate(600.122 306.406)">Queue 1</text><text class="be69e3f1-54b4-4f07-b440-ea65ab095af5" transform="translate(328.851 296.445)">Queue Federation</text><path class="a159cb92-1302-4b4b-965f-06bfd683ab15" d="M504.5 409.175H740v35H504.5z"/><text class="aff4ef5a-8471-4f50-ab2e-a5705eb7d475" transform="translate(592.053 429.999)">Consumer</text><path class="a159cb92-1302-4b4b-965f-06bfd683ab15" d="M20 20h235.5v35H20z"/><text class="aff4ef5a-8471-4f50-ab2e-a5705eb7d475" transform="translate(110.121 40.824)">Producer</text><path class="ba706bfd-e0c6-4fa2-886f-30dc0de8619f" d="M20 285.621h235.5v35H20z"/><text class="be69e3f1-54b4-4f07-b440-ea65ab095af5" transform="translate(115.622 306.406)">Queue 1</text><g><path class="f93d55c7-a7a8-4ed6-a486-135c300418ca" d="M137.75 201.306V55"/><path class="b72aa2f9-742f-472d-a346-15731b69989f" d="M142.736 199.847l-4.986 8.635-4.986-8.635h9.972z"/></g><path class="ba706bfd-e0c6-4fa2-886f-30dc0de8619f" d="M102.163 90.824h71.174v30.699h-71.174z"/><g><text class="ab3af15c-09b7-4a2f-a848-c93777b57f8a" transform="translate(116.51 114.756)">Message 1</text><path class="a61a94db-d549-4a94-ad7c-c33cde518403" d="M149.5 99.703H126V73.495l5.875-5.824H149.5v32.032z"/><path class="fb06aac9-8518-4dcb-bd24-1d9c120ff770" d="M131.875 73.495H126l5.875-5.824v5.824zM130.406 77.863h7.344M130.406 82.231h14.688M130.406 86.599h14.688M130.406 90.967h14.688"/></g><g><path stroke="#151515" stroke-miterlimit="10" fill="none" d="M622.25 320.608v78.967"/><path class="b72aa2f9-742f-472d-a346-15731b69989f" d="M617.263 398.116l4.987 8.635 4.986-8.635h-9.973z"/><path class="ba706bfd-e0c6-4fa2-886f-30dc0de8619f" d="M586.663 356.932h71.174v30.699h-71.174z"/><g><text class="ab3af15c-09b7-4a2f-a848-c93777b57f8a" transform="translate(601.01 380.864)">Message 1</text><path class="a61a94db-d549-4a94-ad7c-c33cde518403" d="M634 365.811h-23.5v-26.207l5.875-5.824H634v32.031z"/><path class="fb06aac9-8518-4dcb-bd24-1d9c120ff770" d="M616.375 339.604H610.5l5.875-5.824v5.824zM614.906 343.972h7.344M614.906 348.34h14.688M614.906 352.707h14.688M614.906 357.075h14.688"/></g></g><g><text transform="translate(690.661 466.693)" font-size="10" fill="#f3f3f3" font-family="RedHatText,&quot;Red Hat Text&quot;,Overpass,&quot;Helvetica Neue&quot;,Arial,sans-serif">120_AMQ_1020</text><path fill="none" d="M0 443.675h760v40H0z"/></g></svg>