<svg id="f5d9c864-021c-48e3-b579-9d527fd0d14c" data-name="Layer 1" xmlns="http://www.w3.org/2000/svg" width="760" height="552.675"><defs><style>.f2f7e0c4-5916-4e29-adf9-4053d319ffb7{fill:#e8e8e8}.bffde533-f43f-4e7f-a468-f0afcadc5332,.fc8a1865-ad3c-403b-817a-d722ce6ca072{fill:#151515}.a0312ec2-6ced-45fe-a912-68effaf90d2d,.a052c100-1014-4e6e-a82d-0e4754763838,.b9ceb8bb-d8a5-4693-94bd-3a322795b522,.f6711f22-ae48-452a-8697-927c59b1ea90,.fef5f55b-6a2b-49e6-8ced-2dde6962b1f5{fill:none}.a052c100-1014-4e6e-a82d-0e4754763838{stroke:#151515;stroke-miterlimit:10}.be4f56f2-60c0-42be-ae72-5bdf3f8a8127,.ef3f8ce7-940b-4710-bb98-f83e8b8ea69c{fill:#fff}.bffde533-f43f-4e7f-a468-f0afcadc5332{font-size:9px}.ba31aadc-9ed3-465a-b3d9-8532c0eade90,.bffde533-f43f-4e7f-a468-f0afcadc5332{font-family:RedHatText,&quot;Red Hat Text&quot;,Overpass,&quot;Helvetica Neue&quot;,Arial,sans-serif;font-weight:500}.be4f56f2-60c0-42be-ae72-5bdf3f8a8127,.fef5f55b-6a2b-49e6-8ced-2dde6962b1f5{stroke:#5b5b5b}.a0312ec2-6ced-45fe-a912-68effaf90d2d,.b9ceb8bb-d8a5-4693-94bd-3a322795b522,.be4f56f2-60c0-42be-ae72-5bdf3f8a8127,.f6711f22-ae48-452a-8697-927c59b1ea90,.fef5f55b-6a2b-49e6-8ced-2dde6962b1f5{stroke-linecap:round;stroke-linejoin:round;stroke-width:1.5px}.ba31aadc-9ed3-465a-b3d9-8532c0eade90{font-size:10px}.a0312ec2-6ced-45fe-a912-68effaf90d2d,.b9ceb8bb-d8a5-4693-94bd-3a322795b522,.f6711f22-ae48-452a-8697-927c59b1ea90{stroke:#d0d0d0}.f6711f22-ae48-452a-8697-927c59b1ea90{stroke-dasharray:2.929 2.929}.b9ceb8bb-d8a5-4693-94bd-3a322795b522{stroke-dasharray:3.226 3.226}.ba31aadc-9ed3-465a-b3d9-8532c0eade90{fill:#d0d0d0}</style></defs><path class="f2f7e0c4-5916-4e29-adf9-4053d319ffb7" d="M143.75 20h215.5v55h-215.5z"/><path class="fc8a1865-ad3c-403b-817a-d722ce6ca072" d="M159.686 44.241v-8.4h4.1a3.348 3.348 0 011.218.21 2.823 2.823 0 01.936.576 2.463 2.463 0 01.6.876 2.886 2.886 0 01.21 1.109 2.71 2.71 0 01-.21 1.063 2.443 2.443 0 01-.6.857 2.9 2.9 0 01-.936.571 3.391 3.391 0 01-1.218.209h-2.04v2.928zm3.744-6.695h-1.68v2.124h1.668a1.287 1.287 0 00.936-.307 1.023 1.023 0 00.312-.761 1.01 1.01 0 00-.312-.75 1.264 1.264 0 00-.924-.306zM168.025 44.241V38.05h1.945v1.4a2.988 2.988 0 01.714-1.145 1.385 1.385 0 01.965-.378 2.01 2.01 0 01.336.042 1.485 1.485 0 01.313.114v1.668a2.027 2.027 0 00-.42-.139 2.234 2.234 0 00-.492-.053 1.655 1.655 0 00-.811.209 1.693 1.693 0 00-.6.558v3.912zM173.054 41.157a3.253 3.253 0 01.245-1.271 3.052 3.052 0 01.679-1.015A3.184 3.184 0 01175 38.2a3.307 3.307 0 011.278-.246 3.351 3.351 0 011.284.246 3.177 3.177 0 011.033.672 3.078 3.078 0 01.677 1.015 3.254 3.254 0 01.246 1.271 3.2 3.2 0 01-.251 1.273 3.113 3.113 0 01-1.71 1.685 3.445 3.445 0 01-2.557 0 3.087 3.087 0 01-1.7-1.7 3.231 3.231 0 01-.246-1.259zm3.227 1.561a1.22 1.22 0 00.966-.439 1.656 1.656 0 00.378-1.122 1.7 1.7 0 00-.378-1.134 1.209 1.209 0 00-.966-.45 1.193 1.193 0 00-.96.45 1.72 1.72 0 00-.372 1.134 1.673 1.673 0 00.372 1.122 1.2 1.2 0 00.96.439zM185.042 44.241v-.8a2.139 2.139 0 01-.786.612 2.463 2.463 0 01-2.106-.019 2.658 2.658 0 01-.87-.672 3.3 3.3 0 01-.582-1 3.452 3.452 0 01-.216-1.223 3.332 3.332 0 01.222-1.219 3.076 3.076 0 01.612-.989 2.926 2.926 0 01.918-.666 2.638 2.638 0 011.128-.246 2.22 2.22 0 01.912.191 2.119 2.119 0 01.744.553v-3.1l1.944-.3v8.88zm-2.652-3.095a1.5 1.5 0 00.426 1.085 1.408 1.408 0 001.05.439 1.554 1.554 0 00.636-.127 1.58 1.58 0 00.516-.365V40.09a1.667 1.667 0 00-.522-.355 1.582 1.582 0 00-.63-.126 1.4 1.4 0 00-1.056.439 1.523 1.523 0 00-.42 1.098zM190.37 38.05v3.611a1.213 1.213 0 00.281.834.956.956 0 00.75.318 1.3 1.3 0 00.571-.125 1.318 1.318 0 00.462-.39V38.05h1.944v6.191h-1.944v-1.008a2.559 2.559 0 01-.858.823 2.2 2.2 0 01-1.1.282 1.963 1.963 0 01-1.476-.595 2.086 2.086 0 01-.576-1.517V38.05zM198.938 42.682a1.562 1.562 0 00.7-.157 1.5 1.5 0 00.546-.456l1.152 1.14a3.079 3.079 0 01-1.11.847 3.341 3.341 0 01-1.411.3 3.226 3.226 0 01-1.259-.246 3.1 3.1 0 01-1.7-1.7 3.363 3.363 0 010-2.52 3.116 3.116 0 011.7-1.7 3.226 3.226 0 011.259-.246 3.584 3.584 0 011.435.294 3.085 3.085 0 011.145.847l-1.187 1.187a2.149 2.149 0 00-.612-.51 1.517 1.517 0 00-.708-.162 1.218 1.218 0 00-.96.445 1.627 1.627 0 00-.384 1.1 1.561 1.561 0 00.4 1.086 1.29 1.29 0 00.994.451zM207.949 43.365a4 4 0 01-1.212.763 3.9 3.9 0 01-1.391.233 3.315 3.315 0 01-1.279-.246 3.271 3.271 0 01-1.038-.677 3.125 3.125 0 01-.695-1.021 3.165 3.165 0 01-.252-1.26 3.324 3.324 0 01.239-1.271 3.189 3.189 0 01.655-1.021 2.966 2.966 0 01.99-.677 3.1 3.1 0 011.235-.247 3 3 0 011.231.247 2.892 2.892 0 01.96.677 3.137 3.137 0 01.629 1.038 3.719 3.719 0 01.229 1.326v.42h-4.261a1.553 1.553 0 00.529.84 1.413 1.413 0 00.923.324 1.819 1.819 0 00.7-.131 1.313 1.313 0 00.522-.384zm-2.76-3.912a1.094 1.094 0 00-.767.288 1.537 1.537 0 00-.433.8h2.46a1.475 1.475 0 00-.456-.8 1.181 1.181 0 00-.804-.288zM209.461 44.241V38.05h1.944v1.4a3 3 0 01.714-1.145 1.389 1.389 0 01.966-.378 2.01 2.01 0 01.336.042 1.479 1.479 0 01.312.114v1.668a2.008 2.008 0 00-.42-.139 2.234 2.234 0 00-.492-.053 1.651 1.651 0 00-.81.209 1.7 1.7 0 00-.606.558v3.912zM159.59 53.232h1.354v.96a2.053 2.053 0 011.787-1.055A1.89 1.89 0 01164.5 54.3a2.214 2.214 0 011.99-1.163 1.991 1.991 0 011.968 2.182v3.922H167.1v-3.634a1.215 1.215 0 00-1.212-1.378 1.431 1.431 0 00-1.211.707c.012.131.023.252.023.383v3.922h-1.354v-3.634a1.215 1.215 0 00-1.212-1.378 1.4 1.4 0 00-1.188.683v4.329h-1.356zM171.637 59.277l-2.267-6.045h1.511l1.523 4.462 1.679-4.462h1.476l-2.859 6.993a2.031 2.031 0 01-2.135 1.583 2.86 2.86 0 01-.683-.084v-1.163a4.8 4.8 0 00.527.047.958.958 0 00.972-.7zM178.009 58.474a.84.84 0 11-.84-.875.858.858 0 01.84.875zM179.186 57.515c0-1.08.875-1.764 2.29-1.764a3.708 3.708 0 011.619.372v-.659c0-.792-.455-1.2-1.379-1.2a4.16 4.16 0 00-1.751.466l-.48-.983a5.779 5.779 0 012.494-.611c1.56 0 2.459.792 2.459 2.182v3.922H183.1v-.61a2.511 2.511 0 01-1.787.707 1.893 1.893 0 01-2.127-1.822zm2.494.875a2.14 2.14 0 001.42-.49v-.983a3.11 3.11 0 00-1.391-.288c-.767 0-1.248.336-1.248.863-.005.55.476.898 1.219.898zM186.085 53.232h1.354v.984a2.184 2.184 0 011.908-1.079 2.022 2.022 0 012.075 2.146v3.958h-1.356v-3.574a1.293 1.293 0 00-1.319-1.438 1.542 1.542 0 00-1.308.719v4.293h-1.354zM194.6 59.277l-2.266-6.045h1.511l1.523 4.462 1.679-4.462h1.475l-2.854 6.993a2.032 2.032 0 01-2.135 1.583 2.86 2.86 0 01-.683-.084v-1.163a4.8 4.8 0 00.527.047.959.959 0 00.972-.7zM203.806 57.5l.816.816a3.126 3.126 0 01-2.351 1.043 3.107 3.107 0 010-6.213 3.243 3.243 0 012.4 1.008l-.84.876a1.985 1.985 0 00-1.511-.708 1.928 1.928 0 00.035 3.838 1.843 1.843 0 001.451-.66zM205.489 57.515c0-1.08.875-1.764 2.29-1.764a3.705 3.705 0 011.619.372v-.659c0-.792-.455-1.2-1.378-1.2a4.16 4.16 0 00-1.751.466l-.48-.983a5.773 5.773 0 012.494-.611c1.56 0 2.459.792 2.459 2.182v3.922H209.4v-.61a2.509 2.509 0 01-1.787.707 1.894 1.894 0 01-2.124-1.822zm2.494.875a2.14 2.14 0 001.417-.49v-.983a3.1 3.1 0 00-1.39-.288c-.768 0-1.248.336-1.248.863-.002.55.478.898 1.221.898zM212.484 57.635a3.47 3.47 0 001.931.683c.72 0 1.212-.324 1.212-.8 0-.372-.252-.577-.828-.684l-1.068-.181c-1.163-.215-1.739-.754-1.739-1.654 0-1.128.924-1.859 2.327-1.859a4.226 4.226 0 012.363.719l-.636.888a3.28 3.28 0 00-1.811-.576c-.624 0-1.031.264-1.031.708 0 .384.216.552.852.659l1.055.193c1.2.227 1.775.779 1.775 1.678a2.2 2.2 0 01-2.447 1.955 4.033 4.033 0 01-2.59-.815zM218.88 54.312h-1.211v-1.08h1.211v-1.654l1.355-.288v1.942h1.679v1.08h-1.679v3.046c0 .588.228.816.84.816a2.5 2.5 0 00.816-.144v1.14a4.3 4.3 0 01-1.164.167c-1.211 0-1.847-.575-1.847-1.679zM224.567 58.474a.84.84 0 11-.839-.875.858.858 0 01.839.875zM230.338 58.438a2.31 2.31 0 01-1.847.864 3.075 3.075 0 01.084-6.117 2.29 2.29 0 011.751.792v-3.311l1.356-.228v8.8h-1.344zm-1.439-.276a1.793 1.793 0 001.427-.66v-2.53a1.861 1.861 0 00-1.427-.648 1.924 1.924 0 000 3.838zM236.146 59.361a3.054 3.054 0 01-3.058-3.118 2.96 2.96 0 012.927-3.106 2.883 2.883 0 012.841 3.094v.336h-4.437a1.836 1.836 0 001.8 1.643 1.952 1.952 0 001.427-.564l.887.828a3.472 3.472 0 01-2.387.887zm-1.7-3.622h3.13a1.644 1.644 0 00-1.57-1.5 1.616 1.616 0 00-1.563 1.5zM240.336 57.635a3.465 3.465 0 001.931.683c.719 0 1.212-.324 1.212-.8 0-.372-.252-.577-.829-.684l-1.067-.181c-1.163-.215-1.739-.754-1.739-1.654 0-1.128.924-1.859 2.327-1.859a4.221 4.221 0 012.362.719l-.636.888a3.28 3.28 0 00-1.81-.576c-.624 0-1.031.264-1.031.708 0 .384.215.552.851.659l1.056.193c1.2.227 1.774.779 1.774 1.678a2.2 2.2 0 01-2.446 1.955 4.036 4.036 0 01-2.591-.815zM246.731 54.312h-1.21v-1.08h1.21v-1.654l1.356-.288v1.942h1.679v1.08h-1.679v3.046c0 .588.227.816.84.816a2.49 2.49 0 00.815-.144v1.14a4.3 4.3 0 01-1.164.167c-1.211 0-1.847-.575-1.847-1.679zM250.788 51.182a.846.846 0 011.691 0 .846.846 0 01-1.691 0zm1.523 8.059h-1.355v-6.009h1.355zM253.979 53.232h1.355v.984a2.182 2.182 0 011.907-1.079 2.021 2.021 0 012.075 2.146v3.958h-1.355v-3.574a1.293 1.293 0 00-1.319-1.438 1.54 1.54 0 00-1.308.719v4.293h-1.355zM260.664 57.515c0-1.08.875-1.764 2.29-1.764a3.705 3.705 0 011.619.372v-.659c0-.792-.455-1.2-1.379-1.2a4.164 4.164 0 00-1.751.466l-.479-.983a5.773 5.773 0 012.494-.611c1.56 0 2.459.792 2.459 2.182v3.922h-1.344v-.61a2.509 2.509 0 01-1.787.707 1.893 1.893 0 01-2.122-1.822zm2.494.875a2.14 2.14 0 001.415-.492v-.983a3.1 3.1 0 00-1.39-.288c-.768 0-1.248.336-1.248.863 0 .552.48.9 1.223.9zM268.307 54.312H267.1v-1.08h1.211v-1.654l1.355-.288v1.942h1.679v1.08h-1.679v3.046c0 .588.228.816.84.816a2.49 2.49 0 00.815-.144v1.14a4.292 4.292 0 01-1.164.167c-1.211 0-1.846-.575-1.846-1.679zM272.363 51.182a.846.846 0 011.691 0 .846.846 0 01-1.691 0zm1.523 8.059h-1.355v-6.009h1.355zM278.3 53.137a3.113 3.113 0 11-3.023 3.106 3 3 0 013.023-3.106zm1.678 3.118a1.7 1.7 0 10-3.357 0 1.7 1.7 0 103.357 0zM282.731 53.232h1.355v.984a2.181 2.181 0 011.907-1.079 2.021 2.021 0 012.075 2.146v3.958h-1.355v-3.574a1.293 1.293 0 00-1.319-1.438 1.54 1.54 0 00-1.308.719v4.293h-1.355z"/><g><path class="f2f7e0c4-5916-4e29-adf9-4053d319ffb7" d="M20 480.675h215.5v55H20z"/><path class="fc8a1865-ad3c-403b-817a-d722ce6ca072" d="M40.04 503.188a2.12 2.12 0 001.044-.264 2.827 2.827 0 00.876-.779l1.356 1.284a4.024 4.024 0 01-1.464 1.163 4.244 4.244 0 01-1.884.445 4.575 4.575 0 01-1.752-.336 4.362 4.362 0 01-1.4-.912 4.38 4.38 0 01-.93-4.783 4.209 4.209 0 01.936-1.374 4.431 4.431 0 011.4-.911 4.512 4.512 0 011.746-.337 4.409 4.409 0 011.932.445 3.9 3.9 0 011.476 1.188l-1.392 1.319a2.906 2.906 0 00-.918-.834 2.232 2.232 0 00-1.1-.281 2.167 2.167 0 00-.912.192 2.235 2.235 0 00-.726.522 2.377 2.377 0 00-.48.792 2.784 2.784 0 00-.174.989 2.661 2.661 0 00.18.985 2.37 2.37 0 00.5.785 2.259 2.259 0 00.75.516 2.342 2.342 0 00.936.186zM44.12 501.833a3.258 3.258 0 01.245-1.272 3.078 3.078 0 01.679-1.015 3.192 3.192 0 011.025-.671 3.3 3.3 0 011.279-.247 3.337 3.337 0 011.284.247 3.181 3.181 0 011.032.671 3.09 3.09 0 01.678 1.015 3.259 3.259 0 01.246 1.272 3.19 3.19 0 01-.252 1.271 3.156 3.156 0 01-.685 1.015 3.211 3.211 0 01-1.025.672 3.445 3.445 0 01-2.557 0 3.1 3.1 0 01-1.7-1.7 3.222 3.222 0 01-.249-1.258zm3.228 1.56a1.217 1.217 0 00.965-.438 1.656 1.656 0 00.378-1.122 1.7 1.7 0 00-.378-1.134 1.2 1.2 0 00-.965-.45 1.186 1.186 0 00-.96.45 1.719 1.719 0 00-.372 1.134 1.673 1.673 0 00.372 1.122 1.2 1.2 0 00.96.438zM51.823 504.917v-6.192h1.945v1.007a2.541 2.541 0 01.857-.821 2.191 2.191 0 011.1-.283 1.966 1.966 0 011.475.6 2.09 2.09 0 01.576 1.518v4.176h-1.945v-3.612a1.213 1.213 0 00-.281-.834.957.957 0 00-.75-.319 1.283 1.283 0 00-.571.126 1.326 1.326 0 00-.461.39v4.249zM58.735 504.28l.852-1.3a6.893 6.893 0 001.1.487 3.009 3.009 0 00.888.137 1.315 1.315 0 00.649-.137.415.415 0 00.24-.367.349.349 0 00-.139-.288.97.97 0 00-.437-.155l-1.189-.217a2.543 2.543 0 01-1.361-.624 1.573 1.573 0 01-.462-1.175 1.784 1.784 0 01.689-1.488 3.008 3.008 0 011.9-.54 4.7 4.7 0 011.284.179 5.417 5.417 0 011.235.529l-.887 1.236a4.469 4.469 0 00-.907-.4 3 3 0 00-.87-.132 1.113 1.113 0 00-.546.113.354.354 0 00-.2.318.325.325 0 00.139.288 1.3 1.3 0 00.5.157l1.164.216a2.661 2.661 0 011.391.629 1.5 1.5 0 01.468 1.159 1.822 1.822 0 01-.2.845 1.976 1.976 0 01-.558.673 2.781 2.781 0 01-.851.444 3.392 3.392 0 01-1.057.162 6.215 6.215 0 01-1.571-.192 4.014 4.014 0 01-1.264-.557zM67.268 498.725v3.611a1.208 1.208 0 00.281.834.953.953 0 00.75.318 1.281 1.281 0 00.57-.126 1.326 1.326 0 00.462-.389v-4.248h1.944v6.192h-1.944v-1.008a2.541 2.541 0 01-.857.821 2.194 2.194 0 01-1.1.283 1.967 1.967 0 01-1.476-.595 2.093 2.093 0 01-.576-1.518v-4.175zM72.787 504.917v-6.192h1.944v.983a2.43 2.43 0 01.8-.8 2.006 2.006 0 011.032-.276 1.825 1.825 0 011.056.312 1.927 1.927 0 01.685.84 2.593 2.593 0 01.876-.851 2.244 2.244 0 011.151-.3 1.79 1.79 0 011.4.613 2.247 2.247 0 01.546 1.559v4.117h-1.942v-3.732a1.068 1.068 0 00-.258-.75.861.861 0 00-.666-.283 1.037 1.037 0 00-.486.115 1.233 1.233 0 00-.413.365v4.285h-1.945v-3.732a1.072 1.072 0 00-.257-.75.865.865 0 00-.666-.283 1.053 1.053 0 00-.493.12 1.374 1.374 0 00-.42.36v4.285zM89.335 504.041a4.044 4.044 0 01-1.212.762 3.9 3.9 0 01-1.392.234 3.287 3.287 0 01-2.316-.925 3.11 3.11 0 01-.7-1.02 3.156 3.156 0 01-.252-1.259 3.33 3.33 0 01.239-1.272 3.2 3.2 0 01.654-1.02 2.971 2.971 0 01.991-.679 3.122 3.122 0 011.235-.245 3.032 3.032 0 011.23.245 2.873 2.873 0 01.96.679 3.112 3.112 0 01.63 1.038 3.706 3.706 0 01.229 1.325v.421h-4.256a1.561 1.561 0 00.528.84 1.422 1.422 0 00.924.323 1.8 1.8 0 00.7-.132 1.3 1.3 0 00.523-.383zm-2.76-3.913a1.088 1.088 0 00-.767.289 1.526 1.526 0 00-.433.8h2.46a1.479 1.479 0 00-.456-.8 1.183 1.183 0 00-.804-.289zM90.847 504.917v-6.192h1.944v1.4a3.013 3.013 0 01.714-1.146 1.388 1.388 0 01.966-.378 2.263 2.263 0 01.336.042 1.682 1.682 0 01.312.115v1.668a2.09 2.09 0 00-.42-.138 2.176 2.176 0 00-.492-.055 1.656 1.656 0 00-.811.21 1.693 1.693 0 00-.605.558v3.913zM101.863 496.517v8.4h-1.847v-6.48l-1.657.684v-1.633l2.34-.971zM35.84 513.908h1.354v.959a2.053 2.053 0 011.787-1.055 1.89 1.89 0 011.764 1.163 2.216 2.216 0 011.99-1.163A1.991 1.991 0 0144.7 516v3.922h-1.352v-3.634a1.217 1.217 0 00-1.212-1.38 1.432 1.432 0 00-1.211.708c.012.132.023.252.023.384v3.922h-1.354v-3.634a1.217 1.217 0 00-1.212-1.38 1.4 1.4 0 00-1.188.684v4.33H35.84zM47.887 519.953l-2.267-6.045h1.511l1.523 4.461 1.679-4.461h1.476l-2.855 6.992a2.031 2.031 0 01-2.135 1.583 2.86 2.86 0 01-.683-.084v-1.163a4.9 4.9 0 00.527.048.959.959 0 00.972-.7zM54.259 519.149a.84.84 0 11-.84-.876.866.866 0 01.84.876zM55.436 518.189c0-1.079.875-1.763 2.29-1.763a3.708 3.708 0 011.619.372v-.659c0-.792-.455-1.2-1.379-1.2a4.152 4.152 0 00-1.751.468l-.48-.984a5.779 5.779 0 012.494-.611c1.56 0 2.459.792 2.459 2.183v3.922h-1.343v-.617a2.511 2.511 0 01-1.787.707 1.894 1.894 0 01-2.122-1.818zm2.494.876a2.14 2.14 0 001.415-.492v-.983a3.11 3.11 0 00-1.391-.288c-.767 0-1.248.336-1.248.864 0 .551.481.899 1.224.899zM62.335 513.908h1.354v.983a2.184 2.184 0 011.908-1.079 2.022 2.022 0 012.075 2.146v3.959h-1.356v-3.575A1.294 1.294 0 0065 514.9a1.542 1.542 0 00-1.308.72v4.294h-1.357zM70.854 519.953l-2.266-6.045H70.1l1.523 4.461 1.679-4.461h1.475l-2.855 6.992a2.032 2.032 0 01-2.135 1.583 2.86 2.86 0 01-.683-.084v-1.163a4.9 4.9 0 00.527.048.959.959 0 00.972-.7zM80.056 518.177l.816.816a3.126 3.126 0 01-2.351 1.044 3.107 3.107 0 010-6.213 3.239 3.239 0 012.4 1.008l-.84.875a1.985 1.985 0 00-1.512-.707 1.928 1.928 0 00.035 3.838 1.846 1.846 0 001.452-.661zM81.739 518.189c0-1.079.875-1.763 2.29-1.763a3.705 3.705 0 011.619.372v-.659c0-.792-.455-1.2-1.378-1.2a4.152 4.152 0 00-1.751.468l-.48-.984a5.773 5.773 0 012.494-.611c1.56 0 2.459.792 2.459 2.183v3.922h-1.344v-.617a2.509 2.509 0 01-1.787.707 1.894 1.894 0 01-2.122-1.818zm2.494.876a2.14 2.14 0 001.415-.492v-.983a3.1 3.1 0 00-1.39-.288c-.768 0-1.248.336-1.248.864 0 .551.48.899 1.223.899zM88.734 518.31a3.47 3.47 0 001.931.683c.72 0 1.212-.324 1.212-.8 0-.371-.252-.575-.828-.683l-1.068-.18c-1.163-.216-1.739-.756-1.739-1.655 0-1.128.924-1.859 2.327-1.859a4.234 4.234 0 012.363.719l-.636.888a3.28 3.28 0 00-1.811-.576c-.624 0-1.031.264-1.031.708 0 .384.216.552.852.659l1.055.192c1.2.228 1.775.78 1.775 1.68a2.2 2.2 0 01-2.447 1.955 4.028 4.028 0 01-2.59-.816zM95.13 514.987h-1.211v-1.079h1.211v-1.655l1.355-.288v1.943h1.679v1.079h-1.679v3.047c0 .587.228.815.84.815a2.5 2.5 0 00.816-.144v1.14a4.264 4.264 0 01-1.164.167c-1.211 0-1.847-.575-1.847-1.679zM100.817 519.149a.84.84 0 11-1.678 0 .84.84 0 111.678 0zM106.588 519.113a2.31 2.31 0 01-1.847.864 3.075 3.075 0 01.084-6.117 2.289 2.289 0 011.751.791v-3.31l1.356-.228v8.8h-1.344zm-1.439-.276a1.8 1.8 0 001.427-.66v-2.53a1.861 1.861 0 00-1.427-.648 1.924 1.924 0 000 3.838zM112.4 520.037a3.055 3.055 0 01-3.058-3.119 2.96 2.96 0 012.927-3.106 2.883 2.883 0 012.841 3.094v.336h-4.437a1.837 1.837 0 001.8 1.643 1.952 1.952 0 001.427-.564l.887.828a3.473 3.473 0 01-2.387.888zm-1.7-3.622h3.13a1.644 1.644 0 00-1.57-1.5 1.616 1.616 0 00-1.567 1.5zM116.586 518.31a3.465 3.465 0 001.931.683c.719 0 1.212-.324 1.212-.8 0-.371-.252-.575-.829-.683l-1.067-.18c-1.163-.216-1.739-.756-1.739-1.655 0-1.128.924-1.859 2.327-1.859a4.229 4.229 0 012.362.719l-.636.888a3.28 3.28 0 00-1.81-.576c-.624 0-1.031.264-1.031.708 0 .384.215.552.851.659l1.056.192c1.2.228 1.774.78 1.774 1.68a2.2 2.2 0 01-2.446 1.955 4.031 4.031 0 01-2.591-.816zM122.981 514.987h-1.21v-1.079h1.21v-1.655l1.356-.288v1.943h1.679v1.079h-1.679v3.047c0 .587.227.815.84.815a2.49 2.49 0 00.815-.144v1.14a4.259 4.259 0 01-1.164.167c-1.211 0-1.847-.575-1.847-1.679zM127.038 511.857a.846.846 0 011.691 0 .846.846 0 01-1.691 0zm1.523 8.06h-1.355v-6.009h1.355zM130.229 513.908h1.355v.983a2.182 2.182 0 011.907-1.079 2.021 2.021 0 012.075 2.146v3.959h-1.355v-3.575a1.294 1.294 0 00-1.319-1.439 1.541 1.541 0 00-1.308.72v4.294h-1.355zM136.914 518.189c0-1.079.875-1.763 2.29-1.763a3.705 3.705 0 011.619.372v-.659c0-.792-.455-1.2-1.379-1.2a4.156 4.156 0 00-1.751.468l-.479-.984a5.773 5.773 0 012.494-.611c1.56 0 2.459.792 2.459 2.183v3.922h-1.344v-.617a2.509 2.509 0 01-1.787.707 1.894 1.894 0 01-2.122-1.818zm2.494.876a2.14 2.14 0 001.415-.492v-.983a3.1 3.1 0 00-1.39-.288c-.768 0-1.248.336-1.248.864 0 .551.48.899 1.223.899zM144.557 514.987h-1.211v-1.079h1.211v-1.655l1.355-.288v1.943h1.679v1.079h-1.679v3.047c0 .587.228.815.84.815a2.49 2.49 0 00.815-.144v1.14a4.253 4.253 0 01-1.164.167c-1.211 0-1.846-.575-1.846-1.679zM148.613 511.857a.846.846 0 011.691 0 .846.846 0 01-1.691 0zm1.523 8.06h-1.355v-6.009h1.355zM154.552 513.812a3.114 3.114 0 11-3.023 3.106 3 3 0 013.023-3.106zm1.678 3.118a1.7 1.7 0 10-3.357 0 1.7 1.7 0 103.357 0zM158.981 513.908h1.355v.983a2.181 2.181 0 011.907-1.079 2.021 2.021 0 012.075 2.146v3.959h-1.355v-3.575a1.294 1.294 0 00-1.319-1.439 1.541 1.541 0 00-1.308.72v4.294h-1.355zM167.428 514.651a.84.84 0 11-.84-.875.858.858 0 01.84.875zm0 4.5a.84.84 0 11-.84-.876.866.866 0 01.84.874zM170.368 514.651a.84.84 0 11-.84-.875.858.858 0 01.84.875zm0 4.5a.84.84 0 11-.84-.876.866.866 0 01.84.874zM171.568 516.918a2.911 2.911 0 012.807-3.058 2.261 2.261 0 011.763.815v-.767h1.343v8.551h-1.355v-3.334a2.333 2.333 0 01-1.835.852 2.885 2.885 0 01-2.723-3.059zm3.131 1.919a1.8 1.8 0 001.427-.66v-2.53A1.863 1.863 0 00174.7 515a1.924 1.924 0 000 3.838zM181.563 519.917h-1.307v-7.029l-1.487.648v-1.163l1.967-.852h.827z"/></g><g><path class="f2f7e0c4-5916-4e29-adf9-4053d319ffb7" d="M267.25 480.675h215.5v55h-215.5z"/><path class="fc8a1865-ad3c-403b-817a-d722ce6ca072" d="M287.29 503.188a2.12 2.12 0 001.044-.264 2.827 2.827 0 00.876-.779l1.356 1.284a4.024 4.024 0 01-1.464 1.163 4.244 4.244 0 01-1.884.445 4.575 4.575 0 01-1.752-.336 4.362 4.362 0 01-1.4-.912 4.38 4.38 0 01-.93-4.783 4.209 4.209 0 01.936-1.374 4.431 4.431 0 011.4-.911 4.512 4.512 0 011.746-.337 4.409 4.409 0 011.932.445 3.9 3.9 0 011.476 1.188l-1.392 1.319a2.906 2.906 0 00-.918-.834 2.232 2.232 0 00-1.1-.281 2.167 2.167 0 00-.912.192 2.235 2.235 0 00-.726.522 2.377 2.377 0 00-.48.792 2.784 2.784 0 00-.174.989 2.661 2.661 0 00.18.985 2.37 2.37 0 00.5.785 2.259 2.259 0 00.75.516 2.342 2.342 0 00.936.186zM291.37 501.833a3.258 3.258 0 01.245-1.272 3.078 3.078 0 01.679-1.015 3.192 3.192 0 011.025-.671 3.3 3.3 0 011.279-.247 3.337 3.337 0 011.284.247 3.181 3.181 0 011.032.671 3.09 3.09 0 01.678 1.015 3.259 3.259 0 01.246 1.272 3.19 3.19 0 01-.252 1.271 3.156 3.156 0 01-.685 1.015 3.211 3.211 0 01-1.025.672 3.445 3.445 0 01-2.557 0 3.1 3.1 0 01-1.7-1.7 3.222 3.222 0 01-.249-1.258zm3.228 1.56a1.217 1.217 0 00.965-.438 1.656 1.656 0 00.378-1.122 1.7 1.7 0 00-.378-1.134 1.2 1.2 0 00-.965-.45 1.186 1.186 0 00-.96.45 1.719 1.719 0 00-.372 1.134 1.673 1.673 0 00.372 1.122 1.2 1.2 0 00.962.438zM299.073 504.917v-6.192h1.945v1.007a2.541 2.541 0 01.857-.821 2.191 2.191 0 011.1-.283 1.966 1.966 0 011.475.6 2.09 2.09 0 01.576 1.518v4.176h-1.944v-3.612a1.213 1.213 0 00-.281-.834.957.957 0 00-.75-.319 1.283 1.283 0 00-.571.126 1.326 1.326 0 00-.461.39v4.249zM305.985 504.28l.852-1.3a6.893 6.893 0 001.1.487 3.009 3.009 0 00.888.137 1.315 1.315 0 00.649-.137.415.415 0 00.24-.367.349.349 0 00-.139-.288.97.97 0 00-.437-.155l-1.189-.217a2.543 2.543 0 01-1.361-.624 1.573 1.573 0 01-.462-1.175 1.784 1.784 0 01.689-1.488 3.008 3.008 0 011.9-.54 4.7 4.7 0 011.284.179 5.417 5.417 0 011.235.529l-.887 1.236a4.469 4.469 0 00-.907-.4 3 3 0 00-.87-.132 1.113 1.113 0 00-.546.113.354.354 0 00-.2.318.325.325 0 00.139.288 1.3 1.3 0 00.5.157l1.164.216a2.661 2.661 0 011.391.629 1.5 1.5 0 01.468 1.159 1.822 1.822 0 01-.2.845 1.976 1.976 0 01-.558.673 2.781 2.781 0 01-.851.444 3.392 3.392 0 01-1.057.162 6.215 6.215 0 01-1.571-.192 4.014 4.014 0 01-1.264-.557zM314.518 498.725v3.611a1.208 1.208 0 00.281.834.953.953 0 00.75.318 1.281 1.281 0 00.57-.126 1.326 1.326 0 00.462-.389v-4.248h1.944v6.192h-1.944v-1.008a2.541 2.541 0 01-.857.821 2.194 2.194 0 01-1.1.283 1.967 1.967 0 01-1.476-.595 2.093 2.093 0 01-.576-1.518v-4.175zM320.037 504.917v-6.192h1.944v.983a2.43 2.43 0 01.8-.8 2.006 2.006 0 011.032-.276 1.825 1.825 0 011.056.312 1.927 1.927 0 01.685.84 2.593 2.593 0 01.876-.851 2.244 2.244 0 011.151-.3 1.79 1.79 0 011.4.613 2.247 2.247 0 01.546 1.559v4.117h-1.944v-3.732a1.068 1.068 0 00-.258-.75.861.861 0 00-.666-.283 1.037 1.037 0 00-.486.115 1.233 1.233 0 00-.413.365v4.285h-1.945v-3.732a1.072 1.072 0 00-.257-.75.865.865 0 00-.666-.283 1.053 1.053 0 00-.493.12 1.374 1.374 0 00-.42.36v4.285zM336.585 504.041a4.044 4.044 0 01-1.212.762 3.9 3.9 0 01-1.392.234 3.287 3.287 0 01-2.316-.925 3.11 3.11 0 01-.695-1.02 3.156 3.156 0 01-.252-1.259 3.33 3.33 0 01.239-1.272 3.2 3.2 0 01.654-1.02 2.971 2.971 0 01.991-.679 3.122 3.122 0 011.235-.245 3.032 3.032 0 011.23.245 2.873 2.873 0 01.96.679 3.112 3.112 0 01.63 1.038 3.706 3.706 0 01.229 1.325v.421h-4.261a1.561 1.561 0 00.528.84 1.422 1.422 0 00.924.323 1.8 1.8 0 00.7-.132 1.3 1.3 0 00.523-.383zm-2.76-3.913a1.088 1.088 0 00-.767.289 1.526 1.526 0 00-.433.8h2.46a1.479 1.479 0 00-.456-.8 1.183 1.183 0 00-.804-.289zM338.1 504.917v-6.192h1.944v1.4a3.013 3.013 0 01.714-1.146 1.388 1.388 0 01.966-.378 2.263 2.263 0 01.336.042 1.682 1.682 0 01.312.115v1.668a2.09 2.09 0 00-.42-.138 2.176 2.176 0 00-.492-.055 1.656 1.656 0 00-.811.21 1.693 1.693 0 00-.605.558v3.913zM345.838 504.917V503.6l3.552-3.516a2.23 2.23 0 00.425-.559 1.209 1.209 0 00.138-.558.818.818 0 00-.353-.677 1.41 1.41 0 00-.882-.27 2.394 2.394 0 00-1.057.239 4.443 4.443 0 00-1.067.792l-1.032-1.259a5.211 5.211 0 011.536-1.033 4.237 4.237 0 011.679-.347 3.291 3.291 0 012.155.672 2.171 2.171 0 01.822 1.764 2.4 2.4 0 01-.265 1.1 4.283 4.283 0 01-.828 1.068l-2.424 2.339 3.637-.011v1.572zM283.09 513.908h1.354v.959a2.053 2.053 0 011.787-1.055 1.89 1.89 0 011.769 1.163 2.216 2.216 0 011.99-1.163 1.991 1.991 0 011.963 2.188v3.922H290.6v-3.634a1.217 1.217 0 00-1.212-1.38 1.432 1.432 0 00-1.211.708c.012.132.023.252.023.384v3.922h-1.354v-3.634a1.217 1.217 0 00-1.212-1.38 1.4 1.4 0 00-1.188.684v4.33h-1.356zM295.137 519.953l-2.267-6.045h1.511l1.523 4.461 1.679-4.461h1.476L296.2 520.9a2.031 2.031 0 01-2.135 1.583 2.86 2.86 0 01-.683-.084v-1.163a4.9 4.9 0 00.527.048.959.959 0 00.972-.7zM301.509 519.149a.84.84 0 11-.84-.876.866.866 0 01.84.876zM302.686 518.189c0-1.079.875-1.763 2.29-1.763a3.708 3.708 0 011.619.372v-.659c0-.792-.455-1.2-1.379-1.2a4.152 4.152 0 00-1.751.468l-.48-.984a5.779 5.779 0 012.494-.611c1.56 0 2.459.792 2.459 2.183v3.922H306.6v-.617a2.511 2.511 0 01-1.787.707 1.894 1.894 0 01-2.127-1.818zm2.494.876a2.14 2.14 0 001.415-.492v-.983a3.11 3.11 0 00-1.391-.288c-.767 0-1.248.336-1.248.864 0 .551.481.899 1.224.899zM309.585 513.908h1.354v.983a2.184 2.184 0 011.908-1.079 2.022 2.022 0 012.075 2.146v3.959h-1.356v-3.575a1.294 1.294 0 00-1.319-1.439 1.542 1.542 0 00-1.308.72v4.294h-1.354zM318.1 519.953l-2.266-6.045h1.511l1.523 4.461 1.679-4.461h1.475l-2.854 6.992a2.032 2.032 0 01-2.135 1.583 2.86 2.86 0 01-.683-.084v-1.163a4.9 4.9 0 00.527.048.959.959 0 00.972-.7zM327.306 518.177l.816.816a3.126 3.126 0 01-2.351 1.044 3.107 3.107 0 010-6.213 3.239 3.239 0 012.4 1.008l-.84.875a1.985 1.985 0 00-1.511-.708 1.928 1.928 0 00.035 3.838 1.846 1.846 0 001.451-.66zM328.989 518.189c0-1.079.875-1.763 2.29-1.763a3.705 3.705 0 011.619.372v-.659c0-.792-.455-1.2-1.378-1.2a4.152 4.152 0 00-1.751.468l-.48-.984a5.773 5.773 0 012.494-.611c1.56 0 2.459.792 2.459 2.183v3.922H332.9v-.617a2.509 2.509 0 01-1.787.707 1.894 1.894 0 01-2.124-1.818zm2.494.876a2.14 2.14 0 001.415-.492v-.983a3.1 3.1 0 00-1.39-.288c-.768 0-1.248.336-1.248.864 0 .551.48.899 1.223.899zM335.984 518.31a3.47 3.47 0 001.931.683c.72 0 1.212-.324 1.212-.8 0-.371-.252-.575-.828-.683l-1.068-.18c-1.163-.216-1.739-.756-1.739-1.655 0-1.128.924-1.859 2.327-1.859a4.234 4.234 0 012.363.719l-.636.888a3.28 3.28 0 00-1.811-.576c-.624 0-1.031.264-1.031.708 0 .384.216.552.852.659l1.055.192c1.2.228 1.775.78 1.775 1.68a2.2 2.2 0 01-2.447 1.955 4.028 4.028 0 01-2.59-.816zM342.38 514.987h-1.211v-1.079h1.211v-1.655l1.355-.288v1.943h1.679v1.079h-1.679v3.047c0 .587.228.815.84.815a2.5 2.5 0 00.816-.144v1.14a4.264 4.264 0 01-1.164.167c-1.211 0-1.847-.575-1.847-1.679zM348.067 519.149a.84.84 0 11-1.678 0 .84.84 0 111.678 0zM353.838 519.113a2.31 2.31 0 01-1.847.864 3.075 3.075 0 01.084-6.117 2.289 2.289 0 011.751.791v-3.31l1.356-.228v8.8h-1.344zm-1.439-.276a1.8 1.8 0 001.427-.66v-2.53A1.861 1.861 0 00352.4 515a1.924 1.924 0 000 3.838zM359.646 520.037a3.055 3.055 0 01-3.058-3.119 2.96 2.96 0 012.927-3.106 2.883 2.883 0 012.841 3.094v.336h-4.437a1.837 1.837 0 001.8 1.643 1.952 1.952 0 001.427-.564l.887.828a3.473 3.473 0 01-2.387.888zm-1.7-3.622h3.13a1.644 1.644 0 00-1.57-1.5 1.616 1.616 0 00-1.563 1.5zM363.836 518.31a3.465 3.465 0 001.931.683c.719 0 1.212-.324 1.212-.8 0-.371-.252-.575-.829-.683l-1.067-.18c-1.163-.216-1.739-.756-1.739-1.655 0-1.128.924-1.859 2.327-1.859a4.229 4.229 0 012.362.719l-.636.888a3.28 3.28 0 00-1.81-.576c-.624 0-1.031.264-1.031.708 0 .384.215.552.851.659l1.056.192c1.2.228 1.774.78 1.774 1.68a2.2 2.2 0 01-2.446 1.955 4.031 4.031 0 01-2.591-.816zM370.231 514.987h-1.21v-1.079h1.21v-1.655l1.356-.288v1.943h1.679v1.079h-1.679v3.047c0 .587.227.815.84.815a2.49 2.49 0 00.815-.144v1.14a4.259 4.259 0 01-1.164.167c-1.211 0-1.847-.575-1.847-1.679zM374.288 511.857a.846.846 0 011.691 0 .846.846 0 01-1.691 0zm1.523 8.06h-1.355v-6.009h1.355zM377.479 513.908h1.355v.983a2.182 2.182 0 011.907-1.079 2.021 2.021 0 012.075 2.146v3.959h-1.355v-3.575a1.294 1.294 0 00-1.319-1.439 1.541 1.541 0 00-1.308.72v4.294h-1.355zM384.164 518.189c0-1.079.875-1.763 2.29-1.763a3.705 3.705 0 011.619.372v-.659c0-.792-.455-1.2-1.379-1.2a4.156 4.156 0 00-1.751.468l-.479-.984a5.773 5.773 0 012.494-.611c1.56 0 2.459.792 2.459 2.183v3.922h-1.344v-.617a2.509 2.509 0 01-1.787.707 1.894 1.894 0 01-2.122-1.818zm2.494.876a2.14 2.14 0 001.415-.492v-.983a3.1 3.1 0 00-1.39-.288c-.768 0-1.248.336-1.248.864 0 .551.48.899 1.223.899zM391.807 514.987H390.6v-1.079h1.211v-1.655l1.355-.288v1.943h1.679v1.079h-1.679v3.047c0 .587.228.815.84.815a2.49 2.49 0 00.815-.144v1.14a4.253 4.253 0 01-1.164.167c-1.211 0-1.846-.575-1.846-1.679zM395.863 511.857a.846.846 0 011.691 0 .846.846 0 01-1.691 0zm1.523 8.06h-1.355v-6.009h1.355zM401.8 513.812a3.114 3.114 0 11-3.023 3.106 3 3 0 013.023-3.106zm1.678 3.118a1.7 1.7 0 10-3.357 0 1.7 1.7 0 103.357 0zM406.231 513.908h1.355v.983a2.181 2.181 0 011.907-1.079 2.021 2.021 0 012.075 2.146v3.959h-1.355v-3.575a1.294 1.294 0 00-1.319-1.439 1.541 1.541 0 00-1.308.72v4.294h-1.355zM414.678 514.651a.84.84 0 11-.84-.875.858.858 0 01.84.875zm0 4.5a.84.84 0 11-.84-.876.866.866 0 01.84.874zM417.618 514.651a.84.84 0 11-.84-.875.858.858 0 01.84.875zm0 4.5a.84.84 0 11-.84-.876.866.866 0 01.84.874zM418.818 516.918a2.911 2.911 0 012.807-3.058 2.261 2.261 0 011.763.815v-.767h1.343v8.551h-1.355v-3.334a2.333 2.333 0 01-1.835.852 2.885 2.885 0 01-2.723-3.059zm3.131 1.919a1.8 1.8 0 001.427-.66v-2.53a1.863 1.863 0 00-1.427-.648 1.924 1.924 0 000 3.838zM426.187 518.969l3.442-3.6a2.247 2.247 0 00.815-1.583 1.368 1.368 0 00-1.535-1.235 3.025 3.025 0 00-2.171 1.031l-.743-.9a4.247 4.247 0 012.95-1.272c1.644 0 2.771.936 2.771 2.291a3.2 3.2 0 01-1.2 2.338l-2.687 2.771 4.042-.024v1.128h-5.685z"/></g><g><path class="a052c100-1014-4e6e-a82d-0e4754763838" d="M251.5 74.794v78.966"/><path class="fc8a1865-ad3c-403b-817a-d722ce6ca072" d="M246.514 152.301l4.986 8.635 4.986-8.635h-9.972z"/><path class="ef3f8ce7-940b-4710-bb98-f83e8b8ea69c" d="M215.913 111.117h71.174v30.699h-71.174z"/><g><text class="bffde533-f43f-4e7f-a468-f0afcadc5332" transform="translate(224.757 135.049)">Message 1-N</text><path class="be4f56f2-60c0-42be-ae72-5bdf3f8a8127" d="M263.25 119.996h-23.5V93.789l5.875-5.824h17.625v32.031z"/><path class="fef5f55b-6a2b-49e6-8ced-2dde6962b1f5" d="M245.625 93.789h-5.875l5.875-5.824v5.824zM244.157 98.157h7.343M244.157 102.525h14.687M244.157 106.893h14.687M244.157 111.26h14.687"/></g></g><path class="f2f7e0c4-5916-4e29-adf9-4053d319ffb7" d="M0 163.533h503v248.5H0z"/><text transform="translate(20 193.62)" font-size="14" font-family="RedHatText,&quot;Red Hat Text&quot;,Overpass,&quot;Helvetica Neue&quot;,Arial,sans-serif" font-weight="700" fill="#151515">Broker</text><g><path fill="#06c" d="M143.75 183.482h215.5v60h-215.5z"/><path class="ef3f8ce7-940b-4710-bb98-f83e8b8ea69c" d="M158.774 207.724l3.276-8.4h2.35l3.228 8.4H165.4l-.7-2h-3.07l-.708 2zm3.42-3.6h1.956l-.972-2.783zM172.694 207.724v-.8a2.1 2.1 0 01-.786.612 2.452 2.452 0 01-2.1-.017 2.685 2.685 0 01-.87-.672 3.258 3.258 0 01-.582-1 3.44 3.44 0 01-.216-1.225 3.33 3.33 0 01.221-1.218 3.088 3.088 0 01.613-.99 2.931 2.931 0 01.918-.666 2.632 2.632 0 011.128-.246 2.225 2.225 0 01.912.193 2.1 2.1 0 01.743.551v-3.095l1.944-.3v8.88zm-2.652-3.1a1.5 1.5 0 00.427 1.087 1.4 1.4 0 001.05.437 1.531 1.531 0 001.151-.492v-2.088a1.655 1.655 0 00-.522-.353 1.581 1.581 0 00-.629-.126 1.4 1.4 0 00-1.057.437 1.529 1.529 0 00-.42 1.101zM180.41 207.724v-.8a2.1 2.1 0 01-.786.612 2.452 2.452 0 01-2.1-.017 2.7 2.7 0 01-.871-.672 3.3 3.3 0 01-.582-1 3.462 3.462 0 01-.215-1.225 3.33 3.33 0 01.221-1.218 3.088 3.088 0 01.613-.99 2.919 2.919 0 01.918-.666 2.631 2.631 0 011.127-.246 2.23 2.23 0 01.913.193 2.1 2.1 0 01.743.551v-3.095l1.944-.3v8.88zm-2.652-3.1a1.494 1.494 0 00.427 1.087 1.4 1.4 0 001.049.437 1.531 1.531 0 001.152-.492v-2.088a1.667 1.667 0 00-.522-.353 1.582 1.582 0 00-.63-.126 1.4 1.4 0 00-1.056.437 1.525 1.525 0 00-.42 1.101zM183.842 207.724v-6.193h1.944v1.405a3.01 3.01 0 01.714-1.147 1.388 1.388 0 01.966-.378 2.385 2.385 0 01.336.042 1.744 1.744 0 01.312.114v1.668a2.135 2.135 0 00-.42-.137 2.235 2.235 0 00-.492-.055 1.642 1.642 0 00-.81.21 1.7 1.7 0 00-.606.559v3.912zM194.737 206.848a4.027 4.027 0 01-1.212.761 3.853 3.853 0 01-1.391.235 3.315 3.315 0 01-1.279-.246 3.276 3.276 0 01-1.038-.679 3.11 3.11 0 01-.695-1.02 3.156 3.156 0 01-.252-1.259 3.342 3.342 0 01.239-1.273 3.219 3.219 0 01.655-1.019 2.971 2.971 0 01.99-.679 3.129 3.129 0 011.235-.245 3.033 3.033 0 011.231.245 2.9 2.9 0 01.96.679 3.135 3.135 0 01.63 1.038 3.727 3.727 0 01.228 1.325v.421h-4.261a1.553 1.553 0 00.529.84 1.412 1.412 0 00.923.323 1.8 1.8 0 00.7-.132 1.306 1.306 0 00.522-.384zm-2.759-3.912a1.086 1.086 0 00-.768.288 1.531 1.531 0 00-.433.8h2.46a1.479 1.479 0 00-.456-.8 1.175 1.175 0 00-.803-.288zM195.745 207.087l.852-1.3a6.748 6.748 0 001.1.486 2.978 2.978 0 00.888.138 1.3 1.3 0 00.648-.138.413.413 0 00.241-.366.348.348 0 00-.139-.288.97.97 0 00-.438-.155l-1.188-.217a2.539 2.539 0 01-1.361-.624 1.575 1.575 0 01-.462-1.176 1.781 1.781 0 01.689-1.487 3.013 3.013 0 011.9-.54 4.668 4.668 0 011.285.18 5.344 5.344 0 011.235.528l-.888 1.235a4.487 4.487 0 00-.906-.395 3 3 0 00-.87-.132 1.11 1.11 0 00-.546.113.353.353 0 00-.2.318.331.331 0 00.138.289 1.334 1.334 0 00.5.156l1.165.216a2.653 2.653 0 011.391.63 1.5 1.5 0 01.468 1.158 1.825 1.825 0 01-.2.845 1.985 1.985 0 01-.558.672 2.782 2.782 0 01-.851.445 3.4 3.4 0 01-1.057.162 6.164 6.164 0 01-1.571-.193 3.992 3.992 0 01-1.265-.56zM201.877 207.087l.852-1.3a6.748 6.748 0 001.1.486 2.978 2.978 0 00.888.138 1.3 1.3 0 00.648-.138.412.412 0 00.24-.366.35.35 0 00-.138-.288.975.975 0 00-.438-.155l-1.188-.217a2.546 2.546 0 01-1.362-.624 1.579 1.579 0 01-.462-1.176 1.782 1.782 0 01.69-1.487 3.013 3.013 0 011.9-.54 4.656 4.656 0 011.284.18 5.351 5.351 0 011.236.528l-.888 1.235a4.487 4.487 0 00-.906-.395 3 3 0 00-.87-.132 1.11 1.11 0 00-.546.113.353.353 0 00-.2.318.331.331 0 00.138.289 1.334 1.334 0 00.5.156l1.164.216a2.653 2.653 0 011.392.63 1.5 1.5 0 01.468 1.158 1.838 1.838 0 01-.2.845 1.985 1.985 0 01-.558.672 2.788 2.788 0 01-.852.445 3.385 3.385 0 01-1.056.162 6.177 6.177 0 01-1.572-.193 4 4 0 01-1.264-.56zM159.59 216.715h1.354v.959a2.053 2.053 0 011.787-1.055 1.888 1.888 0 011.764 1.163 2.216 2.216 0 011.99-1.163 1.992 1.992 0 011.968 2.183v3.922H167.1v-3.634a1.217 1.217 0 00-1.212-1.38 1.432 1.432 0 00-1.211.708c.012.132.023.252.023.384v3.922h-1.354v-3.634a1.217 1.217 0 00-1.212-1.38 1.4 1.4 0 00-1.188.684v4.33h-1.356zM171.637 222.76l-2.267-6.045h1.511l1.523 4.461 1.679-4.461h1.476l-2.855 6.992a2.031 2.031 0 01-2.135 1.583 2.86 2.86 0 01-.683-.084v-1.163a4.9 4.9 0 00.527.048.959.959 0 00.972-.7zM178.009 221.956a.84.84 0 11-.84-.876.867.867 0 01.84.876zM179.186 221c0-1.079.875-1.763 2.29-1.763a3.722 3.722 0 011.619.372v-.66c0-.791-.455-1.2-1.379-1.2a4.152 4.152 0 00-1.751.468l-.48-.984a5.779 5.779 0 012.494-.611c1.56 0 2.459.791 2.459 2.183v3.922H183.1v-.613a2.5 2.5 0 01-1.787.708 1.894 1.894 0 01-2.127-1.822zm2.494.876a2.14 2.14 0 001.415-.492v-.984a3.11 3.11 0 00-1.391-.288c-.767 0-1.248.336-1.248.865 0 .547.481.895 1.224.895zM186.085 216.715h1.354v.983a2.182 2.182 0 011.908-1.079 2.022 2.022 0 012.075 2.147v3.958h-1.356v-3.575a1.293 1.293 0 00-1.319-1.439 1.542 1.542 0 00-1.308.72v4.294h-1.354zM194.6 222.76l-2.266-6.045h1.511l1.523 4.461 1.679-4.461h1.475l-2.854 6.992a2.032 2.032 0 01-2.135 1.583 2.86 2.86 0 01-.683-.084v-1.163a4.9 4.9 0 00.527.048.96.96 0 00.972-.7zM203.806 220.984l.816.816a3.13 3.13 0 01-2.351 1.044 3.107 3.107 0 010-6.213 3.236 3.236 0 012.4 1.008l-.84.875a1.985 1.985 0 00-1.511-.708 1.928 1.928 0 00.035 3.838 1.846 1.846 0 001.451-.66zM205.489 221c0-1.079.875-1.763 2.29-1.763a3.719 3.719 0 011.619.372v-.66c0-.791-.455-1.2-1.378-1.2a4.152 4.152 0 00-1.751.468l-.48-.984a5.773 5.773 0 012.494-.611c1.56 0 2.459.791 2.459 2.183v3.922H209.4v-.613a2.5 2.5 0 01-1.787.708 1.894 1.894 0 01-2.124-1.822zm2.494.876a2.14 2.14 0 001.415-.492v-.984a3.1 3.1 0 00-1.39-.288c-.768 0-1.248.336-1.248.865 0 .547.48.895 1.223.895zM212.484 221.116a3.464 3.464 0 001.931.684c.72 0 1.212-.323 1.212-.8 0-.371-.252-.575-.828-.684l-1.068-.179c-1.163-.216-1.739-.756-1.739-1.655 0-1.127.924-1.859 2.327-1.859a4.234 4.234 0 012.363.719l-.636.888a3.28 3.28 0 00-1.811-.576c-.624 0-1.031.264-1.031.707 0 .384.216.552.852.661l1.055.191c1.2.229 1.775.78 1.775 1.68a2.2 2.2 0 01-2.447 1.955 4.022 4.022 0 01-2.59-.817zM218.88 217.794h-1.211v-1.079h1.211v-1.655l1.355-.289v1.944h1.679v1.079h-1.679v3.047c0 .587.228.815.84.815a2.5 2.5 0 00.816-.144v1.139a4.227 4.227 0 01-1.164.168c-1.211 0-1.847-.575-1.847-1.678zM224.567 221.956a.84.84 0 11-1.678 0 .84.84 0 111.678 0zM230.338 221.92a2.309 2.309 0 01-1.847.863 3.074 3.074 0 01.084-6.116 2.289 2.289 0 011.751.791v-3.31l1.356-.228v8.8h-1.344zm-1.439-.276a1.8 1.8 0 001.427-.66v-2.53a1.861 1.861 0 00-1.427-.648 1.924 1.924 0 000 3.838zM236.146 222.844a3.055 3.055 0 01-3.058-3.119 2.96 2.96 0 012.927-3.106 2.883 2.883 0 012.841 3.094v.336h-4.437a1.837 1.837 0 001.8 1.643 1.952 1.952 0 001.427-.564l.887.828a3.477 3.477 0 01-2.387.888zm-1.7-3.622h3.13a1.644 1.644 0 00-1.57-1.5 1.616 1.616 0 00-1.563 1.5zM240.336 221.116a3.46 3.46 0 001.931.684c.719 0 1.212-.323 1.212-.8 0-.371-.252-.575-.829-.684l-1.067-.179c-1.163-.216-1.739-.756-1.739-1.655 0-1.127.924-1.859 2.327-1.859a4.229 4.229 0 012.362.719l-.636.888a3.28 3.28 0 00-1.81-.576c-.624 0-1.031.264-1.031.707 0 .384.215.552.851.661l1.056.191c1.2.229 1.774.78 1.774 1.68a2.2 2.2 0 01-2.446 1.955 4.025 4.025 0 01-2.591-.817zM246.731 217.794h-1.21v-1.079h1.21v-1.655l1.356-.289v1.944h1.679v1.079h-1.679v3.047c0 .587.227.815.84.815a2.49 2.49 0 00.815-.144v1.139a4.222 4.222 0 01-1.164.168c-1.211 0-1.847-.575-1.847-1.678zM250.788 214.664a.846.846 0 011.691 0 .846.846 0 01-1.691 0zm1.523 8.06h-1.355v-6.009h1.355zM253.979 216.715h1.355v.983a2.18 2.18 0 011.907-1.079 2.022 2.022 0 012.075 2.147v3.958h-1.355v-3.575a1.294 1.294 0 00-1.319-1.439 1.541 1.541 0 00-1.308.72v4.294h-1.355zM260.664 221c0-1.079.875-1.763 2.29-1.763a3.719 3.719 0 011.619.372v-.66c0-.791-.455-1.2-1.379-1.2a4.156 4.156 0 00-1.751.468l-.479-.984a5.773 5.773 0 012.494-.611c1.56 0 2.459.791 2.459 2.183v3.922h-1.344v-.613a2.5 2.5 0 01-1.787.708 1.894 1.894 0 01-2.122-1.822zm2.494.876a2.14 2.14 0 001.415-.492v-.984a3.1 3.1 0 00-1.39-.288c-.768 0-1.248.336-1.248.865 0 .547.48.895 1.223.895zM268.307 217.794H267.1v-1.079h1.211v-1.655l1.355-.289v1.944h1.679v1.079h-1.679v3.047c0 .587.228.815.84.815a2.49 2.49 0 00.815-.144v1.139a4.216 4.216 0 01-1.164.168c-1.211 0-1.846-.575-1.846-1.678zM272.363 214.664a.846.846 0 011.691 0 .846.846 0 01-1.691 0zm1.523 8.06h-1.355v-6.009h1.355zM278.3 216.619a3.114 3.114 0 11-3.023 3.106 3 3 0 013.023-3.106zm1.678 3.118a1.7 1.7 0 10-3.357 0 1.7 1.7 0 103.357 0zM282.731 216.715h1.355v.983a2.179 2.179 0 011.907-1.079 2.022 2.022 0 012.075 2.147v3.958h-1.355v-3.575a1.294 1.294 0 00-1.319-1.439 1.541 1.541 0 00-1.308.72v4.294h-1.355z"/></g><g><path class="a052c100-1014-4e6e-a82d-0e4754763838" d="M375 257.445v-43.963h-15.75"/><path class="fc8a1865-ad3c-403b-817a-d722ce6ca072" d="M379.986 255.986L375 264.621l-4.986-8.635h9.972z"/></g><g><path class="a052c100-1014-4e6e-a82d-0e4754763838" d="M127.75 257.445v-43.963h16.097"/><path class="fc8a1865-ad3c-403b-817a-d722ce6ca072" d="M132.737 255.986l-4.987 8.635-4.986-8.635h9.973z"/></g><g><path class="a052c100-1014-4e6e-a82d-0e4754763838" d="M127.75 392.033v78.966"/><path class="fc8a1865-ad3c-403b-817a-d722ce6ca072" d="M122.764 469.54l4.986 8.635 4.986-8.635h-9.972z"/><path class="ef3f8ce7-940b-4710-bb98-f83e8b8ea69c" d="M92.163 428.357h71.174v30.699H92.163z"/><g><text class="bffde533-f43f-4e7f-a468-f0afcadc5332" transform="translate(106.51 452.289)">Message 1</text><path class="be4f56f2-60c0-42be-ae72-5bdf3f8a8127" d="M139.5 437.236H116v-26.208l5.875-5.824H139.5v32.032z"/><path class="fef5f55b-6a2b-49e6-8ced-2dde6962b1f5" d="M121.875 411.028H116l5.875-5.824v5.824zM120.407 415.396h7.343M120.407 419.764h14.687M120.407 424.132h14.687M120.407 428.5h14.687"/></g></g><g><path class="a052c100-1014-4e6e-a82d-0e4754763838" d="M375 392.033v78.966"/><path class="fc8a1865-ad3c-403b-817a-d722ce6ca072" d="M370.014 469.54l4.986 8.635 4.986-8.635h-9.972z"/><path class="ef3f8ce7-940b-4710-bb98-f83e8b8ea69c" d="M339.413 428.357h71.174v30.699h-71.174z"/><g><text class="bffde533-f43f-4e7f-a468-f0afcadc5332" transform="translate(352.735 452.289)">Message 2</text><path class="be4f56f2-60c0-42be-ae72-5bdf3f8a8127" d="M386.75 437.236h-23.5v-26.208l5.875-5.824h17.625v32.032z"/><path class="fef5f55b-6a2b-49e6-8ced-2dde6962b1f5" d="M369.125 411.028h-5.875l5.875-5.824v5.824zM367.657 415.396H375M367.657 419.764h14.687M367.657 424.132h14.687M367.657 428.5h14.687"/></g></g><g><text transform="translate(694.192 535.792)" fill="#f3f3f3" font-family="RedHatText,&quot;Red Hat Text&quot;,Overpass,&quot;Helvetica Neue&quot;,Arial,sans-serif" font-size="10">120_AMQ_1120</text><path fill="none" d="M0 512.774h760v40H0z"/></g><g><path class="ef3f8ce7-940b-4710-bb98-f83e8b8ea69c" d="M267.25 267.315h215.5v125h-215.5z"/><path class="fc8a1865-ad3c-403b-817a-d722ce6ca072" d="M291.465 287.318a4.322 4.322 0 01-1.188 3l.732.876-1.476 1.008-.732-.876a3.983 3.983 0 01-.8.24 4.486 4.486 0 01-.87.084 4.361 4.361 0 01-1.71-.336 4.207 4.207 0 01-2.3-2.3 4.461 4.461 0 010-3.4 4.2 4.2 0 012.3-2.3 4.379 4.379 0 011.71-.336 4.326 4.326 0 013.078 1.254 4.284 4.284 0 01.918 1.38 4.334 4.334 0 01.338 1.706zm-3.192.588l.684.828a2.573 2.573 0 00.276-.654 3.031 3.031 0 00-.072-1.752 2.438 2.438 0 00-.462-.792 2.16 2.16 0 00-.7-.521 2.085 2.085 0 00-1.752 0 2.16 2.16 0 00-.7.521 2.438 2.438 0 00-.462.792 3 3 0 000 1.981 2.428 2.428 0 00.462.792 2.174 2.174 0 00.7.521 2.032 2.032 0 00.876.192 1.689 1.689 0 00.2-.011l.2-.025-.72-.864zM294.657 285.326v3.612a1.213 1.213 0 00.281.834.956.956 0 00.75.318 1.286 1.286 0 00.571-.126 1.318 1.318 0 00.462-.39v-4.248h1.944v6.193h-1.944v-1.008a2.553 2.553 0 01-.858.821 2.179 2.179 0 01-1.1.282 1.969 1.969 0 01-1.476-.593 2.094 2.094 0 01-.576-1.519v-4.176zM305.769 290.643a4.052 4.052 0 01-1.212.761 3.859 3.859 0 01-1.392.235 3.307 3.307 0 01-1.278-.246 3.265 3.265 0 01-1.038-.679 3.113 3.113 0 01-.7-1.02 3.156 3.156 0 01-.252-1.259 3.323 3.323 0 01.24-1.273 3.217 3.217 0 01.654-1.019 2.957 2.957 0 01.99-.679 3.13 3.13 0 011.236-.245 3.032 3.032 0 011.23.245 2.883 2.883 0 01.96.679 3.119 3.119 0 01.63 1.038 3.727 3.727 0 01.228 1.325v.421h-4.26a1.546 1.546 0 00.528.84 1.42 1.42 0 00.924.323 1.8 1.8 0 00.7-.132 1.3 1.3 0 00.522-.384zm-2.76-3.913a1.086 1.086 0 00-.768.289 1.53 1.53 0 00-.432.8h2.46a1.487 1.487 0 00-.457-.8 1.176 1.176 0 00-.803-.289zM309.177 285.326v3.612a1.213 1.213 0 00.281.834.953.953 0 00.75.318 1.281 1.281 0 00.57-.126 1.318 1.318 0 00.462-.39v-4.248h1.945v6.193h-1.945v-1.008a2.541 2.541 0 01-.857.821 2.18 2.18 0 01-1.1.282 1.967 1.967 0 01-1.475-.593 2.1 2.1 0 01-.577-1.519v-4.176zM320.288 290.643a4.039 4.039 0 01-1.212.761 3.853 3.853 0 01-1.391.235 3.315 3.315 0 01-1.279-.246 3.276 3.276 0 01-1.038-.679 3.11 3.11 0 01-.695-1.02 3.156 3.156 0 01-.252-1.259 3.342 3.342 0 01.239-1.273 3.217 3.217 0 01.654-1.019 2.971 2.971 0 01.991-.679 3.126 3.126 0 011.235-.245 3.04 3.04 0 011.231.245 2.869 2.869 0 01.959.679 3.1 3.1 0 01.63 1.038 3.706 3.706 0 01.229 1.325v.421h-4.261a1.558 1.558 0 00.528.84 1.422 1.422 0 00.924.323 1.792 1.792 0 00.7-.132 1.309 1.309 0 00.523-.384zm-2.76-3.913a1.086 1.086 0 00-.767.289 1.531 1.531 0 00-.433.8h2.46a1.479 1.479 0 00-.456-.8 1.178 1.178 0 00-.804-.289zM282.766 303.768a2.669 2.669 0 012.575-2.8 2.074 2.074 0 011.617.748v-.7h1.231v7.844h-1.243v-3.059a2.137 2.137 0 01-1.682.781 2.645 2.645 0 01-2.498-2.814zm2.872 1.76a1.647 1.647 0 001.308-.605V302.6a1.707 1.707 0 00-1.308-.594 1.764 1.764 0 000 3.52zM289.521 305.649l3.157-3.3a2.062 2.062 0 00.748-1.453 1.255 1.255 0 00-1.408-1.132 2.772 2.772 0 00-1.992.946l-.682-.825a3.9 3.9 0 012.707-1.167c1.507 0 2.541.858 2.541 2.1a2.941 2.941 0 01-1.1 2.146l-2.464 2.541 3.707-.022v1.035h-5.213zM302.1 298.7l.485.847a5.988 5.988 0 00-3.169 5.358 4.169 4.169 0 001.376 3.289l-.8.727a4.8 4.8 0 01-1.682-3.895 6.953 6.953 0 013.79-6.326zM302.434 305.066c0-1.078.847-1.771 2.168-1.771a3.551 3.551 0 011.627.385l.1-.462c.188-.847-.209-1.265-1.177-1.265a4.16 4.16 0 00-1.5.341l-.3-.913a5.976 5.976 0 012.09-.451c1.607 0 2.4.858 2.1 2.244l-.738 3.345H305.6l.11-.5a2.406 2.406 0 01-1.508.561c-1.075.004-1.768-.59-1.768-1.514zm2.212.649a2.022 2.022 0 001.22-.4l.209-.935a2.691 2.691 0 00-1.32-.286c-.715 0-1.177.341-1.177.858 0 .488.385.763 1.068.763zM309.474 301.007h1.231l-.176.825a2.271 2.271 0 011.761-.892 1.542 1.542 0 011.54 2.091l-.748 3.488h-1.222l.694-3.2c.187-.824-.2-1.4-.957-1.4a1.63 1.63 0 00-1.222.594l-.869 4h-1.232zM315.975 306.6l-.88-5.589h1.276l.55 4.181 2.409-4.181h1.342l-3.883 6.5a2.305 2.305 0 01-2.091 1.342 2.811 2.811 0 01-.769-.122l.219-1.055a2.538 2.538 0 00.5.065 1.054 1.054 0 001-.572zM324.61 305.044l.594.781a3.03 3.03 0 01-2.068.8 2.4 2.4 0 01-2.443-2.5 3.118 3.118 0 013-3.2 2.577 2.577 0 012.179 1.111l-.88.726a1.481 1.481 0 00-1.331-.738 1.906 1.906 0 00-1.75 2 1.406 1.406 0 001.42 1.507 1.862 1.862 0 001.279-.487zM326.083 305.066c0-1.078.848-1.771 2.168-1.771a3.555 3.555 0 011.628.385l.1-.462c.187-.847-.209-1.265-1.177-1.265a4.16 4.16 0 00-1.5.341l-.3-.913a5.976 5.976 0 012.09-.451c1.606 0 2.4.858 2.1 2.244l-.737 3.345h-1.21l.11-.5a2.406 2.406 0 01-1.508.561c-1.071.004-1.764-.59-1.764-1.514zm2.212.649a2.025 2.025 0 001.221-.4l.209-.935a2.7 2.7 0 00-1.321-.286c-.715 0-1.176.341-1.176.858 0 .488.384.763 1.072.763zM332.419 304.923a2.676 2.676 0 001.782.76c.583 0 1.023-.33 1.023-.76 0-.286-.187-.462-.649-.583l-.935-.253c-.859-.232-1.287-.715-1.287-1.43 0-1.067.8-1.738 2.068-1.738a3.478 3.478 0 012.244.813l-.682.771a2.779 2.779 0 00-1.639-.649c-.561 0-.9.252-.9.649 0 .319.165.473.639.6l.935.254c.913.253 1.353.693 1.353 1.386a2.009 2.009 0 01-2.189 1.893 3.519 3.519 0 01-2.443-.925zM338.756 302h-1.078l.219-.99h1.068l.318-1.519 1.287-.263-.384 1.782h1.506l-.219.99h-1.5l-.594 2.761c-.132.572.065.792.692.792a2.358 2.358 0 00.628-.088l-.221 1.034a4.022 4.022 0 01-.934.11c-1.145 0-1.661-.583-1.431-1.627zM341.472 308.917l-.484-.848a5.987 5.987 0 003.168-5.357 4.166 4.166 0 00-1.375-3.29l.8-.726a4.8 4.8 0 011.684 3.895 6.956 6.956 0 01-3.793 6.326z"/><g><path class="a0312ec2-6ced-45fe-a912-68effaf90d2d" d="M319.28 354.716v1.5h-1.5"/><path class="f6711f22-ae48-452a-8697-927c59b1ea90" d="M314.851 356.216h-16.107"/><path class="a0312ec2-6ced-45fe-a912-68effaf90d2d" d="M297.28 356.216h-1.5v-1.5"/><path class="b9ceb8bb-d8a5-4693-94bd-3a322795b522" d="M295.78 351.49v-24.193"/><path class="a0312ec2-6ced-45fe-a912-68effaf90d2d" d="M295.78 325.684v-1.5h1.5"/><path class="f6711f22-ae48-452a-8697-927c59b1ea90" d="M300.209 324.184h16.107"/><path class="a0312ec2-6ced-45fe-a912-68effaf90d2d" d="M317.78 324.184h1.5v1.5"/><path class="b9ceb8bb-d8a5-4693-94bd-3a322795b522" d="M319.28 328.91v24.193"/><text class="ba31aadc-9ed3-465a-b3d9-8532c0eade90" transform="translate(303.723 342.97)">N</text></g><g><text class="bffde533-f43f-4e7f-a468-f0afcadc5332" transform="translate(378.812 370.268)">Message<tspan x="15.759" y="10">4</tspan></text><path class="be4f56f2-60c0-42be-ae72-5bdf3f8a8127" d="M409.25 356.216h-23.5v-26.208l5.875-5.824h17.625v32.032z"/><path class="fef5f55b-6a2b-49e6-8ced-2dde6962b1f5" d="M391.625 330.008h-5.875l5.875-5.824v5.824zM390.156 334.376h7.344M390.156 338.744h14.688M390.156 343.112h14.688M390.156 347.48h14.688"/></g><g><path class="a0312ec2-6ced-45fe-a912-68effaf90d2d" d="M454.22 354.716v1.5h-1.5"/><path class="f6711f22-ae48-452a-8697-927c59b1ea90" d="M449.791 356.216h-16.107"/><path class="a0312ec2-6ced-45fe-a912-68effaf90d2d" d="M432.22 356.216h-1.5v-1.5"/><path class="b9ceb8bb-d8a5-4693-94bd-3a322795b522" d="M430.72 351.49v-24.193"/><path class="a0312ec2-6ced-45fe-a912-68effaf90d2d" d="M430.72 325.684v-1.5h1.5"/><path class="f6711f22-ae48-452a-8697-927c59b1ea90" d="M435.149 324.184h16.107"/><path class="a0312ec2-6ced-45fe-a912-68effaf90d2d" d="M452.72 324.184h1.5v1.5"/><path class="b9ceb8bb-d8a5-4693-94bd-3a322795b522" d="M454.22 328.91v24.193"/><text class="ba31aadc-9ed3-465a-b3d9-8532c0eade90" transform="translate(439.62 342.97)">2</text></g><g><text class="bffde533-f43f-4e7f-a468-f0afcadc5332" transform="translate(333.812 370.268)">Message<tspan x="15.835" y="10">6</tspan></text><path class="be4f56f2-60c0-42be-ae72-5bdf3f8a8127" d="M364.25 356.216h-23.5v-26.208l5.875-5.824h17.625v32.032z"/><path class="fef5f55b-6a2b-49e6-8ced-2dde6962b1f5" d="M346.625 330.008h-5.875l5.875-5.824v5.824zM345.156 334.376h7.344M345.156 338.744h14.688M345.156 343.112h14.688M345.156 347.48h14.688"/></g></g><g><path class="ef3f8ce7-940b-4710-bb98-f83e8b8ea69c" d="M20 267.315h215.5v125H20z"/><path class="fc8a1865-ad3c-403b-817a-d722ce6ca072" d="M44.215 287.318a4.322 4.322 0 01-1.188 3l.732.876-1.476 1.006-.732-.876a3.983 3.983 0 01-.8.24 4.486 4.486 0 01-.87.084 4.361 4.361 0 01-1.71-.336 4.207 4.207 0 01-2.3-2.3 4.461 4.461 0 010-3.4 4.2 4.2 0 012.3-2.3 4.379 4.379 0 011.71-.336 4.326 4.326 0 013.078 1.254 4.284 4.284 0 01.918 1.38 4.334 4.334 0 01.338 1.708zm-3.192.588l.684.828a2.573 2.573 0 00.276-.654 3.031 3.031 0 00-.072-1.752 2.438 2.438 0 00-.462-.792 2.16 2.16 0 00-.7-.521 2.085 2.085 0 00-1.752 0 2.16 2.16 0 00-.7.521 2.438 2.438 0 00-.462.792 3 3 0 000 1.981 2.428 2.428 0 00.462.792 2.174 2.174 0 00.7.521 2.032 2.032 0 00.876.192 1.689 1.689 0 00.2-.011l.2-.025-.72-.864zM47.407 285.326v3.612a1.213 1.213 0 00.281.834.956.956 0 00.75.318 1.286 1.286 0 00.571-.126 1.318 1.318 0 00.462-.39v-4.248h1.944v6.193h-1.944v-1.008a2.553 2.553 0 01-.858.821 2.179 2.179 0 01-1.1.282 1.969 1.969 0 01-1.476-.593 2.094 2.094 0 01-.576-1.519v-4.176zM58.519 290.643a4.052 4.052 0 01-1.212.761 3.859 3.859 0 01-1.392.235 3.307 3.307 0 01-1.278-.246 3.265 3.265 0 01-1.038-.679 3.113 3.113 0 01-.7-1.02 3.156 3.156 0 01-.252-1.259 3.323 3.323 0 01.24-1.273 3.217 3.217 0 01.654-1.019 2.957 2.957 0 01.99-.679 3.13 3.13 0 011.236-.245 3.032 3.032 0 011.23.245 2.883 2.883 0 01.96.679 3.119 3.119 0 01.63 1.038 3.727 3.727 0 01.228 1.325v.421h-4.26a1.546 1.546 0 00.528.84 1.42 1.42 0 00.924.323 1.8 1.8 0 00.7-.132 1.3 1.3 0 00.522-.384zm-2.76-3.913a1.086 1.086 0 00-.768.289 1.53 1.53 0 00-.432.8h2.46a1.487 1.487 0 00-.457-.8 1.176 1.176 0 00-.803-.289zM61.927 285.326v3.612a1.213 1.213 0 00.281.834.953.953 0 00.75.318 1.281 1.281 0 00.57-.126 1.318 1.318 0 00.462-.39v-4.248h1.945v6.193H63.99v-1.008a2.541 2.541 0 01-.857.821 2.18 2.18 0 01-1.1.282 1.967 1.967 0 01-1.475-.593 2.1 2.1 0 01-.577-1.519v-4.176zM73.038 290.643a4.039 4.039 0 01-1.212.761 3.853 3.853 0 01-1.391.235 3.315 3.315 0 01-1.279-.246 3.276 3.276 0 01-1.038-.679 3.11 3.11 0 01-.695-1.02 3.156 3.156 0 01-.252-1.259 3.342 3.342 0 01.239-1.273 3.217 3.217 0 01.654-1.019 2.971 2.971 0 01.991-.679 3.126 3.126 0 011.235-.245 3.04 3.04 0 011.231.245 2.869 2.869 0 01.959.679 3.1 3.1 0 01.63 1.038 3.706 3.706 0 01.229 1.325v.421h-4.261a1.558 1.558 0 00.528.84 1.422 1.422 0 00.924.323 1.792 1.792 0 00.7-.132 1.309 1.309 0 00.523-.384zm-2.76-3.913a1.086 1.086 0 00-.767.289 1.531 1.531 0 00-.433.8h2.46a1.479 1.479 0 00-.456-.8 1.178 1.178 0 00-.804-.289zM35.516 303.768a2.669 2.669 0 012.575-2.8 2.074 2.074 0 011.617.748v-.7h1.231v7.844H39.7v-3.059a2.137 2.137 0 01-1.682.781 2.645 2.645 0 01-2.502-2.814zm2.872 1.76a1.647 1.647 0 001.308-.605V302.6a1.707 1.707 0 00-1.308-.594 1.764 1.764 0 000 3.52zM44.68 306.519h-1.2v-6.448l-1.364.594V299.6l1.8-.782h.76zM52.346 298.7l.484.847a5.988 5.988 0 00-3.169 5.358 4.169 4.169 0 001.376 3.289l-.8.727a4.8 4.8 0 01-1.682-3.895 6.952 6.952 0 013.791-6.326zM52.675 305.066c0-1.078.847-1.771 2.168-1.771a3.555 3.555 0 011.628.385l.1-.462c.188-.847-.209-1.265-1.176-1.265a4.16 4.16 0 00-1.5.341l-.3-.913a5.971 5.971 0 012.089-.451c1.607 0 2.4.858 2.1 2.244l-.737 3.345h-1.21l.11-.5a2.406 2.406 0 01-1.508.561c-1.071.004-1.764-.59-1.764-1.514zm2.212.649a2.02 2.02 0 001.22-.4l.209-.935A2.688 2.688 0 0055 304.1c-.715 0-1.177.341-1.177.858-.004.482.377.757 1.064.757zM59.716 301.007h1.231l-.176.825a2.271 2.271 0 011.761-.892 1.541 1.541 0 011.54 2.091l-.748 3.488H62.1l.693-3.2c.187-.824-.2-1.4-.957-1.4a1.63 1.63 0 00-1.222.594l-.869 4h-1.228zM66.217 306.6l-.88-5.589h1.276l.55 4.181 2.409-4.181h1.342l-3.883 6.5a2.305 2.305 0 01-2.091 1.342 2.811 2.811 0 01-.769-.122l.22-1.055a2.539 2.539 0 00.495.065 1.053 1.053 0 001-.572zM74.853 305.044l.593.781a3.03 3.03 0 01-2.068.8 2.4 2.4 0 01-2.442-2.5 3.117 3.117 0 013-3.2 2.577 2.577 0 012.179 1.111l-.88.726a1.48 1.48 0 00-1.331-.738 1.906 1.906 0 00-1.75 2 1.406 1.406 0 001.42 1.507 1.866 1.866 0 001.279-.487zM76.325 305.066c0-1.078.848-1.771 2.168-1.771a3.555 3.555 0 011.628.385l.1-.462c.187-.847-.209-1.265-1.177-1.265a4.16 4.16 0 00-1.5.341l-.3-.913a5.976 5.976 0 012.09-.451c1.606 0 2.4.858 2.1 2.244l-.737 3.345h-1.21l.11-.5a2.4 2.4 0 01-1.507.561c-1.071.004-1.765-.59-1.765-1.514zm2.212.649a2.023 2.023 0 001.221-.4l.209-.935a2.7 2.7 0 00-1.321-.286c-.714 0-1.176.341-1.176.858 0 .488.384.763 1.067.763zM82.661 304.923a2.676 2.676 0 001.782.76c.583 0 1.023-.33 1.023-.76 0-.286-.187-.462-.649-.583l-.935-.253c-.859-.232-1.287-.715-1.287-1.43 0-1.067.8-1.738 2.068-1.738a3.478 3.478 0 012.244.813l-.681.771a2.779 2.779 0 00-1.64-.649c-.561 0-.9.252-.9.649 0 .319.165.473.638.6l.935.254c.913.253 1.353.693 1.353 1.386a2.009 2.009 0 01-2.189 1.893 3.515 3.515 0 01-2.442-.925zM89 302h-1.08l.22-.99h1.067l.318-1.519 1.287-.263-.384 1.782h1.507l-.22.99h-1.5l-.594 2.761c-.132.572.065.792.692.792a2.358 2.358 0 00.628-.088l-.22 1.034a4.038 4.038 0 01-.935.11c-1.144 0-1.661-.583-1.431-1.627zM91.714 308.917l-.484-.848a5.985 5.985 0 003.168-5.357 4.166 4.166 0 00-1.375-3.29l.8-.726a4.8 4.8 0 011.684 3.895 6.956 6.956 0 01-3.793 6.326z"/><g><path class="a0312ec2-6ced-45fe-a912-68effaf90d2d" d="M72.03 354.716v1.5h-1.5"/><path class="f6711f22-ae48-452a-8697-927c59b1ea90" d="M67.601 356.216H51.494"/><path class="a0312ec2-6ced-45fe-a912-68effaf90d2d" d="M50.03 356.216h-1.5v-1.5"/><path class="b9ceb8bb-d8a5-4693-94bd-3a322795b522" d="M48.53 351.49v-24.193"/><path class="a0312ec2-6ced-45fe-a912-68effaf90d2d" d="M48.53 325.684v-1.5h1.5"/><path class="f6711f22-ae48-452a-8697-927c59b1ea90" d="M52.959 324.184h16.107"/><path class="a0312ec2-6ced-45fe-a912-68effaf90d2d" d="M70.53 324.184h1.5v1.5"/><path class="b9ceb8bb-d8a5-4693-94bd-3a322795b522" d="M72.03 328.91v24.193"/><text class="ba31aadc-9ed3-465a-b3d9-8532c0eade90" transform="translate(56.473 342.97)">N</text></g><g><text class="bffde533-f43f-4e7f-a468-f0afcadc5332" transform="translate(131.562 370.268)">Message<tspan x="15.957" y="10">3</tspan></text><path class="be4f56f2-60c0-42be-ae72-5bdf3f8a8127" d="M162 356.216h-23.5v-26.208l5.875-5.824H162v32.032z"/><path class="fef5f55b-6a2b-49e6-8ced-2dde6962b1f5" d="M144.375 330.008H138.5l5.875-5.824v5.824zM142.906 334.376h7.344M142.906 338.744h14.688M142.906 343.112h14.688M142.906 347.48h14.688"/></g><g><path class="a0312ec2-6ced-45fe-a912-68effaf90d2d" d="M206.97 354.716v1.5h-1.5"/><path class="f6711f22-ae48-452a-8697-927c59b1ea90" d="M202.541 356.216h-16.107"/><path class="a0312ec2-6ced-45fe-a912-68effaf90d2d" d="M184.97 356.216h-1.5v-1.5"/><path class="b9ceb8bb-d8a5-4693-94bd-3a322795b522" d="M183.47 351.49v-24.193"/><path class="a0312ec2-6ced-45fe-a912-68effaf90d2d" d="M183.47 325.684v-1.5h1.5"/><path class="f6711f22-ae48-452a-8697-927c59b1ea90" d="M187.899 324.184h16.107"/><path class="a0312ec2-6ced-45fe-a912-68effaf90d2d" d="M205.47 324.184h1.5v1.5"/><path class="b9ceb8bb-d8a5-4693-94bd-3a322795b522" d="M206.97 328.91v24.193"/><text class="ba31aadc-9ed3-465a-b3d9-8532c0eade90" transform="translate(193.51 342.97)">1</text></g><g><text class="bffde533-f43f-4e7f-a468-f0afcadc5332" transform="translate(86.562 370.268)">Message<tspan x="16.029" y="10">5</tspan></text><path class="be4f56f2-60c0-42be-ae72-5bdf3f8a8127" d="M117 356.216H93.5v-26.208l5.875-5.824H117v32.032z"/><path class="fef5f55b-6a2b-49e6-8ced-2dde6962b1f5" d="M99.375 330.008H93.5l5.875-5.824v5.824zM97.906 334.376h7.344M97.906 338.744h14.688M97.906 343.112h14.688M97.906 347.48h14.688"/></g></g></svg>