<svg id="a0843a7a-bc2e-4808-9f0d-31aef128d763" data-name="Layer 1" xmlns="http://www.w3.org/2000/svg" width="760" height="552.675"><defs><style>.b8d989d8-f5dc-4c23-94cc-f54ddf22aab6{fill:#e8e8e8}.b40fc3a1-8e60-4948-aff5-92ff014b77df,.f297cb86-9eef-4f65-a3b1-bef72dcaf71e{fill:#151515}.a0068f99-a98f-4a95-9ab8-9e55aa1150a5,.aaecb16d-4ebf-4379-8e9b-c5715be626ed,.b90ff29f-9f99-492b-9097-b50f32a1d4bb,.bab58652-448f-49ec-8599-b0bb9b2b60ab,.bd737ae2-502f-4ea0-ad11-f24601d8e0b6{fill:none}.b90ff29f-9f99-492b-9097-b50f32a1d4bb{stroke:#151515;stroke-miterlimit:10}.a65cd1f4-6816-472c-a6da-31d32cbdd204,.f389151c-099d-4912-8b42-5770fd565bf3{fill:#fff}.f297cb86-9eef-4f65-a3b1-bef72dcaf71e{font-size:9px}.bb0887c9-64e9-4e19-893a-5b9aa2472b2a,.f297cb86-9eef-4f65-a3b1-bef72dcaf71e{font-family:RedHatText,&quot;Red Hat Text&quot;,Overpass,&quot;Helvetica Neue&quot;,Arial,sans-serif;font-weight:500}.aaecb16d-4ebf-4379-8e9b-c5715be626ed,.f389151c-099d-4912-8b42-5770fd565bf3{stroke:#5b5b5b}.a0068f99-a98f-4a95-9ab8-9e55aa1150a5,.aaecb16d-4ebf-4379-8e9b-c5715be626ed,.bab58652-448f-49ec-8599-b0bb9b2b60ab,.bd737ae2-502f-4ea0-ad11-f24601d8e0b6,.f389151c-099d-4912-8b42-5770fd565bf3{stroke-linecap:round;stroke-linejoin:round;stroke-width:1.5px}.a0068f99-a98f-4a95-9ab8-9e55aa1150a5,.bab58652-448f-49ec-8599-b0bb9b2b60ab,.bd737ae2-502f-4ea0-ad11-f24601d8e0b6{stroke:#d0d0d0}.a0068f99-a98f-4a95-9ab8-9e55aa1150a5{stroke-dasharray:2.929 2.929}.bab58652-448f-49ec-8599-b0bb9b2b60ab{stroke-dasharray:3.226 3.226}.bb0887c9-64e9-4e19-893a-5b9aa2472b2a{font-size:10px;fill:#d0d0d0}</style></defs><path class="b8d989d8-f5dc-4c23-94cc-f54ddf22aab6" d="M143.055 20h215.5v55h-215.5z"/><path class="b40fc3a1-8e60-4948-aff5-92ff014b77df" d="M224.11 44.241v-8.4h4.1a3.352 3.352 0 011.218.21 2.833 2.833 0 01.936.576 2.463 2.463 0 01.6.876 2.9 2.9 0 01.21 1.109 2.728 2.728 0 01-.21 1.063 2.443 2.443 0 01-.6.857 2.907 2.907 0 01-.936.571 3.4 3.4 0 01-1.218.209h-2.04v2.928zm3.744-6.695h-1.679v2.124h1.668a1.284 1.284 0 00.935-.307 1.024 1.024 0 00.313-.761 1.011 1.011 0 00-.313-.75 1.263 1.263 0 00-.924-.306zM232.45 44.241V38.05h1.95v1.4a3 3 0 01.713-1.145 1.389 1.389 0 01.966-.378 2.01 2.01 0 01.336.042 1.485 1.485 0 01.313.114v1.668a2.027 2.027 0 00-.42-.139 2.234 2.234 0 00-.492-.053 1.652 1.652 0 00-.811.209 1.693 1.693 0 00-.6.558v3.912zM237.479 41.157a3.254 3.254 0 01.246-1.271 3.065 3.065 0 01.678-1.015 3.188 3.188 0 011.026-.672 3.307 3.307 0 011.278-.246 3.351 3.351 0 011.284.246 3.172 3.172 0 011.032.672 3.065 3.065 0 01.678 1.015 3.254 3.254 0 01.246 1.271 3.2 3.2 0 01-.252 1.273 3.1 3.1 0 01-1.71 1.685 3.443 3.443 0 01-2.556 0 3.079 3.079 0 01-1.7-1.7 3.231 3.231 0 01-.25-1.258zm3.228 1.561a1.22 1.22 0 00.966-.439 1.656 1.656 0 00.378-1.122 1.7 1.7 0 00-.378-1.134 1.209 1.209 0 00-.966-.45 1.191 1.191 0 00-.96.45 1.72 1.72 0 00-.372 1.134 1.673 1.673 0 00.372 1.122 1.2 1.2 0 00.96.439zM249.467 44.241v-.8a2.139 2.139 0 01-.786.612 2.431 2.431 0 01-1.038.227 2.4 2.4 0 01-1.068-.246 2.658 2.658 0 01-.87-.672 3.3 3.3 0 01-.582-1 3.452 3.452 0 01-.216-1.223 3.311 3.311 0 01.222-1.219 3.042 3.042 0 01.612-.989 2.926 2.926 0 01.918-.666 2.638 2.638 0 011.128-.246 2.223 2.223 0 01.912.191 2.125 2.125 0 01.743.553v-3.1l1.945-.3v8.88zm-2.653-3.095a1.5 1.5 0 00.427 1.085 1.406 1.406 0 001.05.439 1.537 1.537 0 001.151-.492V40.09a1.651 1.651 0 00-.521-.355 1.582 1.582 0 00-.63-.126 1.4 1.4 0 00-1.057.439 1.528 1.528 0 00-.42 1.098zM254.8 38.05v3.611a1.213 1.213 0 00.281.834.956.956 0 00.75.318 1.291 1.291 0 00.57-.125 1.31 1.31 0 00.462-.39V38.05h1.937v6.191h-1.945v-1.008a2.548 2.548 0 01-.857.823 2.2 2.2 0 01-1.1.282 1.963 1.963 0 01-1.475-.595 2.086 2.086 0 01-.576-1.517V38.05zM263.362 42.682a1.556 1.556 0 00.7-.157 1.5 1.5 0 00.546-.456l1.153 1.14a3.074 3.074 0 01-1.111.847 3.333 3.333 0 01-1.41.3 3.235 3.235 0 01-1.26-.246 3.1 3.1 0 01-1.7-1.7 3.363 3.363 0 010-2.52 3.118 3.118 0 011.7-1.7 3.235 3.235 0 011.26-.246 3.584 3.584 0 011.435.294 3.085 3.085 0 011.145.847l-1.187 1.187a2.152 2.152 0 00-.613-.51 1.514 1.514 0 00-.708-.162 1.219 1.219 0 00-.96.445 1.631 1.631 0 00-.383 1.1 1.561 1.561 0 00.395 1.086 1.29 1.29 0 00.998.451zM272.374 43.365a4.008 4.008 0 01-1.212.763 3.9 3.9 0 01-1.391.233 3.312 3.312 0 01-1.279-.246 3.271 3.271 0 01-1.038-.677 3.125 3.125 0 01-.695-1.021 3.165 3.165 0 01-.252-1.26 3.324 3.324 0 01.239-1.271 3.2 3.2 0 01.654-1.021 2.98 2.98 0 01.991-.677 3.092 3.092 0 011.235-.247 3 3 0 011.23.247 2.872 2.872 0 01.96.677 3.122 3.122 0 01.63 1.038 3.719 3.719 0 01.229 1.326v.42h-4.261a1.558 1.558 0 00.528.84 1.417 1.417 0 00.924.324 1.814 1.814 0 00.7-.131 1.309 1.309 0 00.523-.384zm-2.76-3.912a1.094 1.094 0 00-.767.288 1.537 1.537 0 00-.433.8h2.46a1.475 1.475 0 00-.456-.8 1.183 1.183 0 00-.804-.288zM273.886 44.241V38.05h1.944v1.4a3 3 0 01.714-1.145 1.388 1.388 0 01.966-.378 2.01 2.01 0 01.336.042 1.479 1.479 0 01.312.114v1.668a2.027 2.027 0 00-.42-.139 2.234 2.234 0 00-.492-.053 1.651 1.651 0 00-.81.209 1.7 1.7 0 00-.606.558v3.912zM188.046 53.729h1.243v.88a1.88 1.88 0 011.639-.967 1.732 1.732 0 011.617 1.067 2.033 2.033 0 011.826-1.067 1.827 1.827 0 011.8 2v3.6h-1.243v-3.334a1.115 1.115 0 00-1.112-1.265 1.313 1.313 0 00-1.111.649c.011.121.022.23.022.352v3.6h-1.243v-3.336a1.115 1.115 0 00-1.111-1.265 1.279 1.279 0 00-1.089.627v3.971h-1.243zM199.09 59.274l-2.08-5.545h1.39l1.4 4.093 1.54-4.093h1.353l-2.619 6.415a1.862 1.862 0 01-1.964 1.456 2.634 2.634 0 01-.627-.077v-1.072a4.625 4.625 0 00.485.045.877.877 0 00.89-.639zM204.931 58.537a.771.771 0 11-.771-.8.788.788 0 01.771.8zM206.283 53.729h1.243v.88a1.881 1.881 0 011.639-.967 1.732 1.732 0 011.617 1.067 2.033 2.033 0 011.826-1.067 1.826 1.826 0 011.805 2v3.6h-1.243v-3.334a1.115 1.115 0 00-1.111-1.265 1.313 1.313 0 00-1.112.649c.011.121.023.23.023.352v3.6h-1.243v-3.336a1.116 1.116 0 00-1.112-1.265 1.279 1.279 0 00-1.089.627v3.971h-1.243zM217.13 57.008a1.186 1.186 0 001.21 1.32 1.388 1.388 0 001.21-.682v-3.917h1.243v5.512h-1.243v-.913a2.013 2.013 0 01-1.76 1 1.849 1.849 0 01-1.9-1.969v-3.63h1.243zM223.564 59.241h-1.243v-7.866l1.243-.209zM225.775 54.72h-1.111v-.991h1.111v-1.517l1.244-.265v1.782h1.54v.991h-1.54v2.8c0 .539.209.748.77.748a2.287 2.287 0 00.748-.133v1.046a3.948 3.948 0 01-1.067.153c-1.112 0-1.695-.527-1.695-1.54zM229.493 51.849a.776.776 0 011.551 0 .776.776 0 01-1.551 0zm1.4 7.392h-1.244v-5.512h1.244zM236.357 57.646l.748.749a2.87 2.87 0 01-2.156.957 2.851 2.851 0 010-5.7 2.966 2.966 0 012.2.925l-.77.8a1.822 1.822 0 00-1.386-.65 1.769 1.769 0 00.033 3.521 1.693 1.693 0 001.331-.602zM237.9 57.657c0-.99.8-1.617 2.1-1.617a3.406 3.406 0 011.485.341v-.6c0-.726-.419-1.1-1.265-1.1a3.832 3.832 0 00-1.607.428l-.439-.9a5.277 5.277 0 012.288-.561c1.43 0 2.255.726 2.255 2v3.6h-1.232v-.56a2.3 2.3 0 01-1.639.648 1.738 1.738 0 01-1.946-1.679zm2.289.8a1.965 1.965 0 001.3-.451v-.9a2.855 2.855 0 00-1.276-.264c-.7 0-1.145.308-1.145.792-.006.508.432.826 1.117.826zM244.31 57.768a3.173 3.173 0 001.77.627c.66 0 1.111-.3 1.111-.738 0-.341-.23-.528-.758-.627l-.98-.165c-1.066-.2-1.595-.693-1.595-1.518 0-1.035.847-1.7 2.134-1.7a3.879 3.879 0 012.168.66l-.583.814a3.013 3.013 0 00-1.662-.528c-.571 0-.945.242-.945.649 0 .352.2.506.781.6l.968.176c1.1.209 1.628.715 1.628 1.541a2.02 2.02 0 01-2.244 1.793 3.7 3.7 0 01-2.376-.748zM250.173 54.72h-1.111v-.991h1.111v-1.517l1.243-.265v1.782h1.54v.991h-1.54v2.8c0 .539.209.748.771.748a2.3 2.3 0 00.748-.133v1.046a3.961 3.961 0 01-1.068.153c-1.111 0-1.694-.527-1.694-1.54zM255.387 58.537a.771.771 0 11-.771-.8.789.789 0 01.771.8zM260.678 58.5a2.124 2.124 0 01-1.695.793 2.82 2.82 0 01.078-5.611 2.1 2.1 0 011.605.726v-3.033l1.243-.209v8.075h-1.231zm-1.321-.253a1.648 1.648 0 001.309-.6v-2.322a1.709 1.709 0 00-1.309-.6 1.765 1.765 0 000 3.521zM266 59.352a2.8 2.8 0 01-2.806-2.861 2.715 2.715 0 012.685-2.849 2.645 2.645 0 012.607 2.838v.308h-4.07a1.683 1.683 0 001.65 1.507 1.79 1.79 0 001.309-.517l.814.759a3.182 3.182 0 01-2.189.815zm-1.563-3.323h2.873a1.511 1.511 0 00-1.442-1.376 1.482 1.482 0 00-1.43 1.376zM269.841 57.768a3.176 3.176 0 001.77.627c.66 0 1.112-.3 1.112-.738 0-.341-.231-.528-.759-.627l-.98-.165c-1.066-.2-1.594-.693-1.594-1.518 0-1.035.846-1.7 2.133-1.7a3.879 3.879 0 012.168.66l-.583.814a3.013 3.013 0 00-1.662-.528c-.571 0-.945.242-.945.649 0 .352.2.506.781.6l.968.176c1.1.209 1.628.715 1.628 1.541a2.02 2.02 0 01-2.244 1.793 3.7 3.7 0 01-2.376-.748zM275.7 54.72h-1.111v-.991h1.111v-1.517l1.243-.265v1.782h1.54v.991h-1.54v2.8c0 .539.209.748.771.748a2.287 2.287 0 00.748-.133v1.046a3.949 3.949 0 01-1.068.153c-1.111 0-1.694-.527-1.694-1.54zM279.421 51.849a.776.776 0 011.551 0 .776.776 0 01-1.551 0zm1.4 7.392h-1.243v-5.512h1.243zM282.348 53.729h1.243v.9a2 2 0 011.749-.99 1.855 1.855 0 011.9 1.969v3.63H286v-3.275a1.187 1.187 0 00-1.21-1.32 1.413 1.413 0 00-1.2.66v3.938h-1.243zM288.474 57.657c0-.99.8-1.617 2.1-1.617a3.413 3.413 0 011.486.341v-.6c0-.726-.419-1.1-1.266-1.1a3.832 3.832 0 00-1.607.428l-.439-.9a5.277 5.277 0 012.288-.561c1.43 0 2.255.726 2.255 2v3.6h-1.231v-.56a2.3 2.3 0 01-1.64.648 1.738 1.738 0 01-1.946-1.679zm2.288.8a1.968 1.968 0 001.3-.451v-.9a2.859 2.859 0 00-1.277-.264c-.7 0-1.144.308-1.144.792-.001.508.439.826 1.121.826zM295.48 54.72h-1.111v-.991h1.111v-1.517l1.244-.265v1.782h1.54v.991h-1.54v2.8c0 .539.209.748.77.748a2.287 2.287 0 00.748-.133v1.046a3.948 3.948 0 01-1.067.153c-1.112 0-1.695-.527-1.695-1.54zM299.2 51.849a.776.776 0 011.551 0 .776.776 0 01-1.551 0zm1.4 7.392h-1.243v-5.512h1.243zM304.644 53.642a2.856 2.856 0 11-2.773 2.849 2.751 2.751 0 012.773-2.849zm1.541 2.86a1.558 1.558 0 10-3.081 0 1.556 1.556 0 103.081 0zM308.7 53.729h1.243v.9a2 2 0 011.749-.99 1.855 1.855 0 011.9 1.969v3.63h-1.244v-3.275a1.187 1.187 0 00-1.209-1.32 1.413 1.413 0 00-1.2.66v3.938H308.7z"/><path class="b8d989d8-f5dc-4c23-94cc-f54ddf22aab6" d="M19.305 480.675h215.5v55h-215.5z"/><g><path class="b40fc3a1-8e60-4948-aff5-92ff014b77df" d="M39.345 503.188a2.12 2.12 0 001.044-.264 2.827 2.827 0 00.876-.779l1.357 1.284a4.036 4.036 0 01-1.465 1.163 4.244 4.244 0 01-1.884.445 4.575 4.575 0 01-1.752-.336 4.362 4.362 0 01-1.4-.912 4.38 4.38 0 01-.93-4.783 4.212 4.212 0 01.937-1.374 4.415 4.415 0 011.4-.911 4.512 4.512 0 011.746-.337 4.416 4.416 0 011.933.445 3.9 3.9 0 011.475 1.188l-1.391 1.319a2.927 2.927 0 00-.918-.834 2.236 2.236 0 00-1.1-.281 2.167 2.167 0 00-.912.192 2.246 2.246 0 00-.726.522 2.377 2.377 0 00-.48.792 2.806 2.806 0 00-.174.989 2.662 2.662 0 00.181.985 2.352 2.352 0 00.5.785 2.279 2.279 0 00.75.516 2.342 2.342 0 00.933.186zM43.425 501.833a3.258 3.258 0 01.245-1.272 3.078 3.078 0 01.679-1.015 3.186 3.186 0 011.026-.671 3.289 3.289 0 011.278-.247 3.333 3.333 0 011.284.247 3.181 3.181 0 011.032.671 3.09 3.09 0 01.678 1.015 3.259 3.259 0 01.246 1.272 3.19 3.19 0 01-.252 1.271 3.153 3.153 0 01-.684 1.015 3.216 3.216 0 01-1.026.672 3.443 3.443 0 01-2.556 0 3.1 3.1 0 01-1.7-1.7 3.222 3.222 0 01-.25-1.258zm3.228 1.56a1.22 1.22 0 00.966-.438 1.656 1.656 0 00.381-1.122 1.7 1.7 0 00-.378-1.134 1.2 1.2 0 00-.966-.45 1.186 1.186 0 00-.96.45 1.719 1.719 0 00-.372 1.134 1.673 1.673 0 00.372 1.122 1.2 1.2 0 00.957.438zM51.128 504.917v-6.192h1.945v1.007a2.541 2.541 0 01.857-.821 2.191 2.191 0 011.1-.283 1.965 1.965 0 011.475.6 2.091 2.091 0 01.577 1.518v4.176h-1.946v-3.612a1.213 1.213 0 00-.281-.834.954.954 0 00-.75-.319 1.278 1.278 0 00-.57.126 1.32 1.32 0 00-.462.39v4.249zM58.041 504.28l.851-1.3a6.9 6.9 0 001.1.487 3 3 0 00.887.137 1.313 1.313 0 00.649-.137.415.415 0 00.24-.367.349.349 0 00-.139-.288.97.97 0 00-.437-.155l-1.189-.217a2.546 2.546 0 01-1.361-.624 1.573 1.573 0 01-.462-1.175 1.785 1.785 0 01.69-1.488 3 3 0 011.9-.54 4.7 4.7 0 011.284.179 5.417 5.417 0 011.235.529l-.887 1.236a4.469 4.469 0 00-.907-.4 3 3 0 00-.87-.132 1.113 1.113 0 00-.546.113.356.356 0 00-.2.318.325.325 0 00.139.288 1.312 1.312 0 00.5.157l1.164.216a2.668 2.668 0 011.392.629 1.5 1.5 0 01.467 1.159 1.822 1.822 0 01-.2.845 1.976 1.976 0 01-.558.673 2.781 2.781 0 01-.851.444 3.392 3.392 0 01-1.057.162 6.215 6.215 0 01-1.571-.192 4 4 0 01-1.263-.557zM66.573 498.725v3.611a1.213 1.213 0 00.281.834.953.953 0 00.75.318 1.281 1.281 0 00.57-.126 1.326 1.326 0 00.462-.389v-4.248h1.945v6.192h-1.945v-1.008a2.541 2.541 0 01-.857.821 2.191 2.191 0 01-1.1.283 1.965 1.965 0 01-1.475-.595 2.09 2.09 0 01-.577-1.518v-4.175zM72.092 504.917v-6.192h1.945v.983a2.418 2.418 0 01.8-.8 2.01 2.01 0 011.033-.276 1.821 1.821 0 011.055.312 1.927 1.927 0 01.685.84 2.593 2.593 0 01.876-.851 2.247 2.247 0 011.151-.3 1.794 1.794 0 011.4.613 2.251 2.251 0 01.545 1.559v4.117H79.64v-3.732a1.068 1.068 0 00-.258-.75.861.861 0 00-.666-.283 1.04 1.04 0 00-.486.115 1.243 1.243 0 00-.413.365v4.285h-1.944v-3.732a1.068 1.068 0 00-.258-.75.865.865 0 00-.666-.283 1.047 1.047 0 00-.492.12 1.363 1.363 0 00-.42.36v4.285zM88.64 504.041a4.044 4.044 0 01-1.212.762 3.9 3.9 0 01-1.391.234 3.287 3.287 0 01-2.317-.925 3.11 3.11 0 01-.695-1.02 3.156 3.156 0 01-.252-1.259 3.33 3.33 0 01.239-1.272 3.185 3.185 0 01.655-1.02 2.957 2.957 0 01.99-.679 3.129 3.129 0 011.235-.245 3.04 3.04 0 011.231.245 2.883 2.883 0 01.96.679 3.126 3.126 0 01.629 1.038 3.706 3.706 0 01.229 1.325v.421H84.68a1.561 1.561 0 00.528.84 1.422 1.422 0 00.924.323 1.792 1.792 0 00.7-.132 1.3 1.3 0 00.523-.383zm-2.76-3.913a1.09 1.09 0 00-.767.289 1.526 1.526 0 00-.433.8h2.46a1.479 1.479 0 00-.456-.8 1.183 1.183 0 00-.804-.289zM90.152 504.917v-6.192H92.1v1.4a3.013 3.013 0 01.714-1.146 1.388 1.388 0 01.966-.378 2.245 2.245 0 01.336.042 1.682 1.682 0 01.312.115v1.668a2.069 2.069 0 00-.42-.138 2.176 2.176 0 00-.492-.055 1.652 1.652 0 00-.81.21 1.7 1.7 0 00-.606.557v3.913zM101.168 496.517v8.4h-1.847v-6.48l-1.656.684v-1.633l2.339-.971zM39.014 518.321l.748.748a2.863 2.863 0 01-2.156.957 2.85 2.85 0 010-5.7 2.972 2.972 0 012.2.924l-.77.8a1.823 1.823 0 00-1.386-.649 1.768 1.768 0 00.033 3.52 1.7 1.7 0 001.331-.6zM42.072 519.917h-1.243v-7.867l1.243-.209zM43.447 512.523a.776.776 0 011.551 0 .776.776 0 01-1.551 0zm1.4 7.394H43.6v-5.512h1.243zM48.924 520.026a2.8 2.8 0 01-2.8-2.86 2.714 2.714 0 012.684-2.849 2.645 2.645 0 012.608 2.838v.308H47.34a1.683 1.683 0 001.651 1.507 1.788 1.788 0 001.308-.517l.815.759a3.188 3.188 0 01-2.19.814zm-1.561-3.326h2.871a1.509 1.509 0 00-1.442-1.375 1.479 1.479 0 00-1.429 1.375zM52.675 514.405h1.243v.9a2 2 0 011.749-.99 1.855 1.855 0 011.9 1.969v3.631h-1.239v-3.279a1.187 1.187 0 00-1.21-1.32 1.414 1.414 0 00-1.2.66v3.939h-1.243zM59.759 515.4h-1.111v-.99h1.111v-1.518l1.241-.269v1.782h1.54v.99H61v2.794c0 .54.209.749.771.749a2.287 2.287 0 00.748-.133v1.046a3.909 3.909 0 01-1.067.153c-1.112 0-1.7-.527-1.7-1.54zM65.832 519.917h-1.2v-6.447l-1.364.593V513l1.8-.782h.76zM67.184 519.047l3.157-3.3a2.062 2.062 0 00.748-1.452 1.255 1.255 0 00-1.408-1.133 2.774 2.774 0 00-1.991.946l-.683-.825a3.9 3.9 0 012.707-1.167c1.507 0 2.541.859 2.541 2.1a2.939 2.939 0 01-1.1 2.145l-2.464 2.539 3.707-.022v1.035h-5.214zM76.106 520.026a3.873 3.873 0 01-2.85-1.154l.814-.76a2.525 2.525 0 002.024.858c.99 0 1.673-.517 1.673-1.276a1.216 1.216 0 00-1.364-1.155h-.957v-1h.854a1.116 1.116 0 001.222-1.155 1.328 1.328 0 00-1.463-1.221 2.383 2.383 0 00-1.915.913l-.814-.76a3.737 3.737 0 012.773-1.221c1.528 0 2.629.913 2.629 2.156a1.852 1.852 0 01-1.5 1.761 1.907 1.907 0 011.738 1.76c.007 1.309-1.192 2.254-2.864 2.254zM81.682 519.212a.771.771 0 11-.77-.8.787.787 0 01.77.8zM83.035 514.405h1.243v.88a1.879 1.879 0 011.639-.968 1.732 1.732 0 011.617 1.067 2.033 2.033 0 011.826-1.067 1.827 1.827 0 011.805 2v3.6h-1.244v-3.334a1.115 1.115 0 00-1.111-1.265 1.313 1.313 0 00-1.111.649c.01.121.022.231.022.352v3.6h-1.243v-3.334a1.116 1.116 0 00-1.111-1.265 1.278 1.278 0 00-1.089.627v3.972h-1.243zM94.08 519.95L92 514.405h1.386l1.4 4.092 1.54-4.092h1.352l-2.618 6.414a1.862 1.862 0 01-1.958 1.452 2.634 2.634 0 01-.627-.077v-1.068a4.358 4.358 0 00.484.045.878.878 0 00.891-.638zM99.919 519.212a.771.771 0 11-.77-.8.787.787 0 01.77.8zM101.273 514.405h1.243v.88a1.879 1.879 0 011.639-.968 1.732 1.732 0 011.617 1.067 2.033 2.033 0 011.826-1.067 1.826 1.826 0 011.805 2v3.6h-1.243v-3.334a1.115 1.115 0 00-1.112-1.265 1.313 1.313 0 00-1.111.649c.011.121.022.231.022.352v3.6h-1.243v-3.334a1.115 1.115 0 00-1.111-1.265 1.279 1.279 0 00-1.089.627v3.972h-1.243zM112.119 517.683a1.186 1.186 0 001.21 1.32 1.391 1.391 0 001.21-.682v-3.916h1.243v5.512h-1.243V519a2.015 2.015 0 01-1.76 1 1.849 1.849 0 01-1.9-1.969v-3.63h1.244zM118.553 519.917h-1.243v-7.867l1.243-.209zM120.764 515.4h-1.111v-.99h1.111v-1.518l1.243-.264v1.782h1.54v.99h-1.54v2.794c0 .54.209.749.771.749a2.287 2.287 0 00.748-.133v1.046a3.91 3.91 0 01-1.068.153c-1.111 0-1.694-.527-1.694-1.54zM124.482 512.523a.776.776 0 011.551 0 .776.776 0 01-1.551 0zm1.4 7.394h-1.243v-5.512h1.243zM131.347 518.321l.748.748a2.863 2.863 0 01-2.156.957 2.85 2.85 0 010-5.7 2.972 2.972 0 012.2.924l-.77.8a1.821 1.821 0 00-1.386-.649 1.768 1.768 0 00.033 3.52 1.7 1.7 0 001.331-.6zM132.886 518.333c0-.991.8-1.618 2.1-1.618a3.409 3.409 0 011.485.341v-.605c0-.726-.419-1.1-1.265-1.1a3.82 3.82 0 00-1.607.429l-.439-.9a5.288 5.288 0 012.288-.561c1.429 0 2.255.726 2.255 2v3.6h-1.232v-.562a2.3 2.3 0 01-1.64.649 1.737 1.737 0 01-1.945-1.673zm2.288.8a1.968 1.968 0 001.3-.451v-.9a2.855 2.855 0 00-1.276-.264c-.7 0-1.145.308-1.145.792-.001.506.44.825 1.121.825zM139.3 518.442a3.168 3.168 0 001.771.627c.66 0 1.111-.3 1.111-.736 0-.342-.23-.529-.759-.628l-.979-.165c-1.067-.2-1.595-.693-1.595-1.518 0-1.034.847-1.705 2.134-1.705a3.881 3.881 0 012.168.66l-.583.814a3.015 3.015 0 00-1.661-.528c-.573 0-.947.242-.947.649 0 .352.2.506.782.605l.967.176c1.1.209 1.628.715 1.628 1.54a2.018 2.018 0 01-2.244 1.793 3.692 3.692 0 01-2.376-.748zM145.162 515.4h-1.112v-.99h1.112v-1.518l1.243-.264v1.782h1.54v.99h-1.54v2.794c0 .54.209.749.77.749a2.287 2.287 0 00.748-.133v1.046a3.909 3.909 0 01-1.067.153c-1.111 0-1.694-.527-1.694-1.54zM150.375 519.212a.771.771 0 11-.77-.8.787.787 0 01.77.8zM155.667 519.179a2.12 2.12 0 01-1.694.793 2.82 2.82 0 01.077-5.611 2.1 2.1 0 011.606.726v-3.037l1.243-.209v8.076h-1.232zm-1.32-.253a1.649 1.649 0 001.309-.605V516a1.71 1.71 0 00-1.309-.594 1.764 1.764 0 000 3.52zM160.991 520.026a2.8 2.8 0 01-2.806-2.86 2.714 2.714 0 012.685-2.849 2.645 2.645 0 012.607 2.838v.308h-4.07a1.682 1.682 0 001.65 1.507 1.79 1.79 0 001.309-.517l.814.759a3.187 3.187 0 01-2.189.814zm-1.562-3.322h2.871a1.509 1.509 0 00-1.441-1.375 1.48 1.48 0 00-1.43 1.371zM164.83 518.442a3.166 3.166 0 001.77.627c.66 0 1.111-.3 1.111-.736 0-.342-.23-.529-.758-.628l-.98-.165c-1.066-.2-1.6-.693-1.6-1.518 0-1.034.847-1.705 2.134-1.705a3.879 3.879 0 012.168.66l-.583.814a3.013 3.013 0 00-1.662-.528c-.571 0-.945.242-.945.649 0 .352.2.506.781.605l.968.176c1.1.209 1.628.715 1.628 1.54a2.019 2.019 0 01-2.244 1.793 3.692 3.692 0 01-2.376-.748zM170.692 515.4h-1.111v-.99h1.111v-1.518l1.243-.264v1.782h1.54v.99h-1.54v2.794c0 .54.209.749.771.749a2.292 2.292 0 00.748-.133v1.046a3.921 3.921 0 01-1.068.153c-1.111 0-1.694-.527-1.694-1.54zM174.41 512.523a.775.775 0 011.55 0 .775.775 0 01-1.55 0zm1.4 7.394h-1.243v-5.512h1.243zM177.336 514.405h1.244v.9a2 2 0 011.749-.99 1.855 1.855 0 011.9 1.969v3.631h-1.243v-3.279a1.187 1.187 0 00-1.21-1.32 1.412 1.412 0 00-1.2.66v3.939h-1.244zM183.462 518.333c0-.991.8-1.618 2.1-1.618a3.406 3.406 0 011.485.341v-.605c0-.726-.419-1.1-1.265-1.1a3.82 3.82 0 00-1.607.429l-.439-.9a5.291 5.291 0 012.288-.561c1.43 0 2.255.726 2.255 2v3.6h-1.232v-.562a2.3 2.3 0 01-1.639.649 1.738 1.738 0 01-1.946-1.673zm2.288.8a1.966 1.966 0 001.3-.451v-.9a2.855 2.855 0 00-1.276-.264c-.7 0-1.145.308-1.145.792-.001.506.44.825 1.121.825zM190.469 515.4h-1.111v-.99h1.111v-1.518l1.243-.264v1.782h1.54v.99h-1.54v2.794c0 .54.209.749.771.749a2.287 2.287 0 00.748-.133v1.046a3.909 3.909 0 01-1.067.153c-1.112 0-1.695-.527-1.695-1.54zM194.188 512.523a.776.776 0 011.551 0 .776.776 0 01-1.551 0zm1.4 7.394h-1.243v-5.512h1.243zM199.632 514.317a2.856 2.856 0 11-2.772 2.849 2.752 2.752 0 012.772-2.849zm1.541 2.86a1.558 1.558 0 10-3.081 0 1.556 1.556 0 103.081 0zM203.692 514.405h1.243v.9a2 2 0 011.749-.99 1.855 1.855 0 011.9 1.969v3.631h-1.243v-3.279a1.187 1.187 0 00-1.21-1.32 1.413 1.413 0 00-1.2.66v3.939h-1.243z"/></g><path class="b8d989d8-f5dc-4c23-94cc-f54ddf22aab6" d="M266.555 480.675h215.5v55h-215.5z"/><g><path class="b40fc3a1-8e60-4948-aff5-92ff014b77df" d="M286.6 503.188a2.12 2.12 0 001.044-.264 2.827 2.827 0 00.876-.779l1.357 1.284a4.036 4.036 0 01-1.465 1.163 4.244 4.244 0 01-1.884.445 4.575 4.575 0 01-1.752-.336 4.362 4.362 0 01-1.4-.912 4.38 4.38 0 01-.93-4.783 4.212 4.212 0 01.937-1.374 4.415 4.415 0 011.4-.911 4.512 4.512 0 011.746-.337 4.416 4.416 0 011.933.445 3.9 3.9 0 011.475 1.188l-1.391 1.319a2.927 2.927 0 00-.918-.834 2.236 2.236 0 00-1.1-.281 2.167 2.167 0 00-.912.192 2.246 2.246 0 00-.726.522 2.377 2.377 0 00-.48.792 2.806 2.806 0 00-.174.989 2.662 2.662 0 00.181.985 2.352 2.352 0 00.5.785 2.279 2.279 0 00.75.516 2.342 2.342 0 00.933.186zM290.675 501.833a3.258 3.258 0 01.245-1.272 3.078 3.078 0 01.679-1.015 3.186 3.186 0 011.026-.671 3.289 3.289 0 011.278-.247 3.333 3.333 0 011.284.247 3.181 3.181 0 011.032.671 3.09 3.09 0 01.678 1.015 3.259 3.259 0 01.246 1.272 3.19 3.19 0 01-.252 1.271 3.153 3.153 0 01-.684 1.015 3.216 3.216 0 01-1.026.672 3.443 3.443 0 01-2.556 0 3.1 3.1 0 01-1.7-1.7 3.222 3.222 0 01-.25-1.258zm3.228 1.56a1.22 1.22 0 00.966-.438 1.656 1.656 0 00.378-1.122 1.7 1.7 0 00-.378-1.134 1.2 1.2 0 00-.966-.45 1.186 1.186 0 00-.96.45 1.719 1.719 0 00-.372 1.134 1.673 1.673 0 00.372 1.122 1.2 1.2 0 00.957.438zM298.378 504.917v-6.192h1.945v1.007a2.541 2.541 0 01.857-.821 2.191 2.191 0 011.1-.283 1.965 1.965 0 011.475.6 2.091 2.091 0 01.577 1.518v4.176h-1.945v-3.612a1.213 1.213 0 00-.281-.834.954.954 0 00-.75-.319 1.278 1.278 0 00-.57.126 1.32 1.32 0 00-.462.39v4.249zM305.291 504.28l.851-1.3a6.9 6.9 0 001.105.487 3 3 0 00.887.137 1.313 1.313 0 00.649-.137.415.415 0 00.24-.367.349.349 0 00-.139-.288.97.97 0 00-.437-.155l-1.189-.217a2.546 2.546 0 01-1.361-.624 1.573 1.573 0 01-.462-1.175 1.785 1.785 0 01.69-1.488 3 3 0 011.9-.54 4.7 4.7 0 011.284.179 5.417 5.417 0 011.235.529l-.887 1.236a4.469 4.469 0 00-.907-.4 3 3 0 00-.87-.132 1.113 1.113 0 00-.546.113.356.356 0 00-.2.318.325.325 0 00.139.288 1.312 1.312 0 00.5.157l1.164.216a2.668 2.668 0 011.392.629 1.5 1.5 0 01.467 1.159 1.822 1.822 0 01-.2.845 1.976 1.976 0 01-.558.673 2.781 2.781 0 01-.851.444 3.392 3.392 0 01-1.057.162 6.215 6.215 0 01-1.571-.192 4 4 0 01-1.268-.557zM313.823 498.725v3.611a1.213 1.213 0 00.281.834.953.953 0 00.75.318 1.281 1.281 0 00.57-.126 1.326 1.326 0 00.462-.389v-4.248h1.945v6.192h-1.945v-1.008a2.541 2.541 0 01-.857.821 2.191 2.191 0 01-1.1.283 1.965 1.965 0 01-1.475-.595 2.09 2.09 0 01-.577-1.518v-4.175zM319.342 504.917v-6.192h1.945v.983a2.418 2.418 0 01.8-.8 2.01 2.01 0 011.033-.276 1.821 1.821 0 011.055.312 1.927 1.927 0 01.685.84 2.593 2.593 0 01.876-.851 2.247 2.247 0 011.151-.3 1.794 1.794 0 011.4.613 2.251 2.251 0 01.545 1.559v4.117h-1.942v-3.732a1.068 1.068 0 00-.258-.75.861.861 0 00-.666-.283 1.04 1.04 0 00-.486.115 1.243 1.243 0 00-.413.365v4.285h-1.944v-3.732a1.068 1.068 0 00-.258-.75.865.865 0 00-.666-.283 1.047 1.047 0 00-.492.12 1.363 1.363 0 00-.42.36v4.285zM335.89 504.041a4.044 4.044 0 01-1.212.762 3.9 3.9 0 01-1.391.234 3.287 3.287 0 01-2.317-.925 3.11 3.11 0 01-.7-1.02 3.156 3.156 0 01-.252-1.259 3.33 3.33 0 01.239-1.272 3.185 3.185 0 01.655-1.02 2.957 2.957 0 01.99-.679 3.129 3.129 0 011.235-.245 3.04 3.04 0 011.231.245 2.883 2.883 0 01.96.679 3.126 3.126 0 01.629 1.038 3.706 3.706 0 01.229 1.325v.421h-4.256a1.561 1.561 0 00.528.84 1.422 1.422 0 00.924.323 1.792 1.792 0 00.7-.132 1.3 1.3 0 00.523-.383zm-2.76-3.913a1.09 1.09 0 00-.767.289 1.526 1.526 0 00-.433.8h2.46a1.479 1.479 0 00-.456-.8 1.183 1.183 0 00-.804-.289zM337.4 504.917v-6.192h1.944v1.4a3.013 3.013 0 01.714-1.146 1.388 1.388 0 01.966-.378 2.245 2.245 0 01.336.042 1.682 1.682 0 01.312.115v1.668a2.069 2.069 0 00-.42-.138 2.176 2.176 0 00-.492-.055 1.652 1.652 0 00-.81.21 1.7 1.7 0 00-.606.558v3.913zM345.143 504.917V503.6l3.552-3.516a2.261 2.261 0 00.426-.559 1.22 1.22 0 00.137-.558.818.818 0 00-.353-.677 1.408 1.408 0 00-.882-.27 2.394 2.394 0 00-1.057.239 4.443 4.443 0 00-1.067.792l-1.032-1.259a5.211 5.211 0 011.536-1.033 4.238 4.238 0 011.68-.347 3.29 3.29 0 012.154.672 2.168 2.168 0 01.822 1.764 2.4 2.4 0 01-.265 1.1 4.259 4.259 0 01-.828 1.068l-2.424 2.339 3.637-.011v1.572zM286.264 518.321l.748.748a2.863 2.863 0 01-2.156.957 2.85 2.85 0 010-5.7 2.972 2.972 0 012.2.924l-.77.8a1.823 1.823 0 00-1.386-.649 1.768 1.768 0 00.033 3.52 1.7 1.7 0 001.331-.6zM289.322 519.917h-1.243v-7.867l1.243-.209zM290.7 512.523a.776.776 0 011.551 0 .776.776 0 01-1.551 0zm1.4 7.394h-1.243v-5.512h1.243zM296.174 520.026a2.8 2.8 0 01-2.8-2.86 2.714 2.714 0 012.684-2.849 2.645 2.645 0 012.608 2.838v.308h-4.076a1.683 1.683 0 001.651 1.507 1.788 1.788 0 001.308-.517l.815.759a3.188 3.188 0 01-2.19.814zm-1.561-3.322h2.871a1.509 1.509 0 00-1.442-1.375 1.479 1.479 0 00-1.429 1.371zM299.925 514.405h1.243v.9a2 2 0 011.749-.99 1.855 1.855 0 011.9 1.969v3.631h-1.243v-3.279a1.187 1.187 0 00-1.21-1.32 1.414 1.414 0 00-1.2.66v3.939h-1.243zM307.009 515.4H305.9v-.99h1.111v-1.518l1.243-.264v1.782h1.54v.99h-1.54v2.794c0 .54.209.749.771.749a2.287 2.287 0 00.748-.133v1.046a3.909 3.909 0 01-1.073.144c-1.112 0-1.695-.527-1.695-1.54zM315.886 516.979h.99v1.034h-.99v1.9h-1.2v-1.9h-4.136v-.979l3.972-4.819h1.363zm-1.2 0V513.5l-2.849 3.477zM318.174 512.215h4.687v1.035H319.2l-.1 2.233a3.427 3.427 0 011.607-.385 2.325 2.325 0 012.563 2.332 2.634 2.634 0 01-2.916 2.608 3.879 3.879 0 01-2.706-1.046l.727-.825a2.86 2.86 0 002.023.825 1.484 1.484 0 10-.032-2.948 3.255 3.255 0 00-1.53.407L318 516.2zM324.323 516.264c0-2.5 1.43-4.159 3.587-4.159a3.463 3.463 0 012.046.661l-.661.891a2.43 2.43 0 00-1.485-.473c-1.43 0-2.266 1.122-2.288 3.058a2.669 2.669 0 012.124-1.122 2.383 2.383 0 012.574 2.365 2.542 2.542 0 01-2.707 2.531c-1.891 0-3.19-1.53-3.19-3.752zm1.255.737c.186 1.2.913 1.98 1.891 1.98a1.483 1.483 0 001.573-1.463 1.451 1.451 0 00-1.584-1.441 2.4 2.4 0 00-1.88.923zM332.859 519.212a.771.771 0 11-.771-.8.787.787 0 01.771.8zM334.211 514.405h1.244v.88a1.878 1.878 0 011.638-.968 1.731 1.731 0 011.617 1.067 2.033 2.033 0 011.827-1.067 1.826 1.826 0 011.8 2v3.6H341.1v-3.334a1.115 1.115 0 00-1.111-1.265 1.315 1.315 0 00-1.112.649c.011.121.023.231.023.352v3.6h-1.243v-3.334a1.116 1.116 0 00-1.112-1.265 1.277 1.277 0 00-1.088.627v3.972h-1.244zM345.256 519.95l-2.08-5.545h1.387l1.4 4.092 1.54-4.092h1.353l-2.618 6.414a1.863 1.863 0 01-1.958 1.452 2.628 2.628 0 01-.627-.077v-1.068a4.358 4.358 0 00.484.045.878.878 0 00.891-.638zM351.1 519.212a.771.771 0 11-.77-.8.787.787 0 01.77.8zM352.45 514.405h1.243v.88a1.879 1.879 0 011.639-.968 1.732 1.732 0 011.617 1.067 2.033 2.033 0 011.826-1.067 1.827 1.827 0 011.805 2v3.6h-1.244v-3.334a1.115 1.115 0 00-1.111-1.265 1.313 1.313 0 00-1.111.649c.011.121.022.231.022.352v3.6h-1.243v-3.334a1.116 1.116 0 00-1.111-1.265 1.278 1.278 0 00-1.089.627v3.972h-1.243zM363.3 517.683a1.187 1.187 0 001.21 1.32 1.39 1.39 0 001.21-.682v-3.916h1.243v5.512h-1.243V519a2.013 2.013 0 01-1.759 1 1.849 1.849 0 01-1.9-1.969v-3.63h1.239zM369.73 519.917h-1.243v-7.867l1.243-.209zM371.941 515.4h-1.111v-.99h1.111v-1.518l1.243-.264v1.782h1.54v.99h-1.54v2.794c0 .54.209.749.771.749a2.287 2.287 0 00.748-.133v1.046a3.921 3.921 0 01-1.068.153c-1.111 0-1.694-.527-1.694-1.54zM375.659 512.523a.775.775 0 011.55 0 .775.775 0 01-1.55 0zm1.4 7.394h-1.243v-5.512h1.243zM382.524 518.321l.748.748a2.866 2.866 0 01-2.156.957 2.85 2.85 0 010-5.7 2.972 2.972 0 012.2.924l-.771.8a1.819 1.819 0 00-1.385-.649 1.768 1.768 0 00.033 3.52 1.7 1.7 0 001.331-.6zM384.063 518.333c0-.991.8-1.618 2.1-1.618a3.409 3.409 0 011.485.341v-.605c0-.726-.419-1.1-1.266-1.1a3.817 3.817 0 00-1.606.429l-.44-.9a5.294 5.294 0 012.288-.561c1.43 0 2.255.726 2.255 2v3.6h-1.229v-.562a2.3 2.3 0 01-1.64.649 1.737 1.737 0 01-1.947-1.673zm2.288.8a1.968 1.968 0 001.3-.451v-.9a2.858 2.858 0 00-1.276-.264c-.705 0-1.145.308-1.145.792-.001.506.439.825 1.121.825zM390.476 518.442a3.168 3.168 0 001.771.627c.66 0 1.111-.3 1.111-.736 0-.342-.231-.529-.759-.628l-.979-.165c-1.067-.2-1.6-.693-1.6-1.518 0-1.034.847-1.705 2.134-1.705a3.881 3.881 0 012.168.66l-.583.814a3.018 3.018 0 00-1.662-.528c-.572 0-.946.242-.946.649 0 .352.2.506.781.605l.968.176c1.1.209 1.628.715 1.628 1.54a2.019 2.019 0 01-2.244 1.793 3.692 3.692 0 01-2.376-.748zM396.338 515.4h-1.111v-.99h1.111v-1.518l1.244-.264v1.782h1.54v.99h-1.54v2.794c0 .54.209.749.77.749a2.287 2.287 0 00.748-.133v1.046a3.909 3.909 0 01-1.067.153c-1.112 0-1.695-.527-1.695-1.54zM401.552 519.212a.771.771 0 11-.77-.8.787.787 0 01.77.8zM406.844 519.179a2.123 2.123 0 01-1.694.793 2.82 2.82 0 01.077-5.611 2.1 2.1 0 011.606.726v-3.037l1.243-.209v8.076h-1.232zm-1.32-.253a1.651 1.651 0 001.309-.605V516a1.71 1.71 0 00-1.309-.594 1.764 1.764 0 000 3.52zM412.167 520.026a2.8 2.8 0 01-2.8-2.86 2.714 2.714 0 012.684-2.849 2.645 2.645 0 012.608 2.838v.308h-4.071a1.683 1.683 0 001.651 1.507 1.788 1.788 0 001.308-.517l.815.759a3.188 3.188 0 01-2.195.814zm-1.562-3.322h2.872a1.509 1.509 0 00-1.441-1.375 1.481 1.481 0 00-1.431 1.371zM416.006 518.442a3.168 3.168 0 001.771.627c.66 0 1.111-.3 1.111-.736 0-.342-.23-.529-.759-.628l-.979-.165c-1.067-.2-1.595-.693-1.595-1.518 0-1.034.847-1.705 2.134-1.705a3.881 3.881 0 012.168.66l-.583.814a3.015 3.015 0 00-1.661-.528c-.572 0-.946.242-.946.649 0 .352.2.506.781.605l.968.176c1.1.209 1.627.715 1.627 1.54a2.018 2.018 0 01-2.244 1.793 3.692 3.692 0 01-2.376-.748zM421.869 515.4h-1.112v-.99h1.112v-1.518l1.243-.264v1.782h1.54v.99h-1.54v2.794c0 .54.209.749.77.749a2.287 2.287 0 00.748-.133v1.046a3.909 3.909 0 01-1.067.153c-1.111 0-1.694-.527-1.694-1.54zM425.586 512.523a.776.776 0 011.551 0 .776.776 0 01-1.551 0zm1.4 7.394h-1.243v-5.512h1.243zM428.513 514.405h1.243v.9a2 2 0 011.749-.99 1.855 1.855 0 011.9 1.969v3.631h-1.243v-3.279a1.187 1.187 0 00-1.21-1.32 1.413 1.413 0 00-1.2.66v3.939h-1.243zM434.639 518.333c0-.991.8-1.618 2.1-1.618a3.409 3.409 0 011.485.341v-.605c0-.726-.419-1.1-1.266-1.1a3.82 3.82 0 00-1.606.429l-.439-.9a5.288 5.288 0 012.288-.561c1.429 0 2.255.726 2.255 2v3.6h-1.232v-.562a2.3 2.3 0 01-1.64.649 1.737 1.737 0 01-1.945-1.673zm2.288.8a1.968 1.968 0 001.3-.451v-.9a2.855 2.855 0 00-1.276-.264c-.7 0-1.145.308-1.145.792-.001.506.44.825 1.121.825zM441.646 515.4h-1.111v-.99h1.111v-1.518l1.243-.264v1.782h1.54v.99h-1.54v2.794c0 .54.209.749.771.749a2.287 2.287 0 00.748-.133v1.046a3.921 3.921 0 01-1.068.153c-1.111 0-1.694-.527-1.694-1.54zM445.365 512.523a.776.776 0 011.551 0 .776.776 0 01-1.551 0zm1.4 7.394h-1.243v-5.512h1.243zM450.809 514.317a2.856 2.856 0 11-2.772 2.849 2.752 2.752 0 012.772-2.849zm1.541 2.86a1.558 1.558 0 10-3.081 0 1.556 1.556 0 103.081 0zM454.869 514.405h1.243v.9a2 2 0 011.749-.99 1.855 1.855 0 011.9 1.969v3.631h-1.243v-3.279a1.187 1.187 0 00-1.21-1.32 1.413 1.413 0 00-1.2.66v3.939h-1.243z"/></g><g><path class="b90ff29f-9f99-492b-9097-b50f32a1d4bb" d="M250.805 74.794v78.966"/><path class="b40fc3a1-8e60-4948-aff5-92ff014b77df" d="M245.819 152.301l4.986 8.635 4.986-8.635h-9.972z"/><path class="a65cd1f4-6816-472c-a6da-31d32cbdd204" d="M215.218 111.117h71.174v30.699h-71.174z"/><g><text class="f297cb86-9eef-4f65-a3b1-bef72dcaf71e" transform="translate(224.062 135.049)">Message 1-N</text><path class="f389151c-099d-4912-8b42-5770fd565bf3" d="M262.555 119.996h-23.5V93.789l5.875-5.824h17.625v32.031z"/><path class="aaecb16d-4ebf-4379-8e9b-c5715be626ed" d="M244.93 93.789h-5.875l5.875-5.824v5.824zM243.462 98.157h7.343M243.462 102.525h14.687M243.462 106.893h14.687M243.462 111.26h14.687"/></g></g><path class="b8d989d8-f5dc-4c23-94cc-f54ddf22aab6" d="M-.695 163.533h503v248.5h-503z"/><text transform="translate(19.305 193.62)" font-size="14" font-family="RedHatText,&quot;Red Hat Text&quot;,Overpass,&quot;Helvetica Neue&quot;,Arial,sans-serif" font-weight="700" fill="#151515">Broker</text><path fill="#06c" d="M143.055 183.482h215.5v60h-215.5z"/><g><path class="a65cd1f4-6816-472c-a6da-31d32cbdd204" d="M226.325 207.724l3.276-8.4h2.352l3.228 8.4h-2.232l-.7-2h-3.072l-.708 2zm3.42-3.6h1.955l-.972-2.783zM240.245 207.724v-.8a2.1 2.1 0 01-.786.612 2.452 2.452 0 01-2.1-.017 2.7 2.7 0 01-.871-.672 3.3 3.3 0 01-.582-1 3.462 3.462 0 01-.215-1.225 3.33 3.33 0 01.221-1.218 3.088 3.088 0 01.613-.99 2.919 2.919 0 01.918-.666 2.631 2.631 0 011.127-.246 2.23 2.23 0 01.913.193 2.1 2.1 0 01.743.551v-3.095l1.944-.3v8.88zm-2.652-3.1a1.494 1.494 0 00.427 1.087 1.4 1.4 0 001.049.437 1.531 1.531 0 001.152-.492v-2.088a1.667 1.667 0 00-.522-.353 1.582 1.582 0 00-.63-.126 1.4 1.4 0 00-1.056.437 1.525 1.525 0 00-.42 1.101zM247.961 207.724v-.8a2.1 2.1 0 01-.786.612 2.454 2.454 0 01-2.106-.017 2.685 2.685 0 01-.87-.672 3.3 3.3 0 01-.582-1 3.463 3.463 0 01-.216-1.225 3.33 3.33 0 01.222-1.218 3.1 3.1 0 01.612-.99 2.942 2.942 0 01.918-.666 2.638 2.638 0 011.128-.246 2.222 2.222 0 01.912.193 2.1 2.1 0 01.744.551v-3.095l1.944-.3v8.88zm-2.652-3.1a1.5 1.5 0 00.426 1.087 1.406 1.406 0 001.05.437 1.531 1.531 0 001.152-.492v-2.088a1.678 1.678 0 00-.522-.353 1.582 1.582 0 00-.63-.126 1.4 1.4 0 00-1.056.437 1.525 1.525 0 00-.42 1.101zM251.393 207.724v-6.193h1.944v1.405a3 3 0 01.714-1.147 1.386 1.386 0 01.966-.378 2.4 2.4 0 01.336.042 1.772 1.772 0 01.312.114v1.668a2.157 2.157 0 00-.42-.137 2.235 2.235 0 00-.492-.055 1.645 1.645 0 00-.811.21 1.687 1.687 0 00-.605.559v3.912zM262.288 206.848a4.039 4.039 0 01-1.212.761 3.853 3.853 0 01-1.391.235 3.315 3.315 0 01-1.279-.246 3.276 3.276 0 01-1.038-.679 3.11 3.11 0 01-.695-1.02 3.156 3.156 0 01-.252-1.259 3.342 3.342 0 01.239-1.273 3.217 3.217 0 01.654-1.019 2.985 2.985 0 01.991-.679 3.126 3.126 0 011.235-.245 3.04 3.04 0 011.231.245 2.883 2.883 0 01.959.679 3.1 3.1 0 01.63 1.038 3.706 3.706 0 01.229 1.325v.421h-4.261a1.558 1.558 0 00.528.84 1.417 1.417 0 00.924.323 1.792 1.792 0 00.7-.132 1.309 1.309 0 00.523-.384zm-2.76-3.912a1.085 1.085 0 00-.767.288 1.531 1.531 0 00-.433.8h2.46a1.479 1.479 0 00-.456-.8 1.177 1.177 0 00-.804-.288zM263.3 207.087l.851-1.3a6.79 6.79 0 001.105.486 2.978 2.978 0 00.888.138 1.3 1.3 0 00.648-.138.412.412 0 00.24-.366.35.35 0 00-.138-.288.975.975 0 00-.438-.155l-1.188-.217a2.546 2.546 0 01-1.362-.624 1.579 1.579 0 01-.462-1.176 1.782 1.782 0 01.69-1.487 3.013 3.013 0 011.9-.54 4.656 4.656 0 011.284.18 5.351 5.351 0 011.236.528l-.888 1.235a4.487 4.487 0 00-.906-.395 3 3 0 00-.87-.132 1.11 1.11 0 00-.546.113.353.353 0 00-.2.318.328.328 0 00.138.289 1.334 1.334 0 00.5.156l1.164.216a2.653 2.653 0 011.392.63 1.5 1.5 0 01.468 1.158 1.826 1.826 0 01-.2.845 1.97 1.97 0 01-.557.672 2.788 2.788 0 01-.852.445 3.385 3.385 0 01-1.056.162 6.177 6.177 0 01-1.572-.193 4 4 0 01-1.269-.56zM269.428 207.087l.851-1.3a6.79 6.79 0 001.105.486 2.976 2.976 0 00.887.138 1.3 1.3 0 00.649-.138.412.412 0 00.24-.366.348.348 0 00-.139-.288.966.966 0 00-.437-.155l-1.188-.217a2.546 2.546 0 01-1.362-.624 1.579 1.579 0 01-.462-1.176 1.782 1.782 0 01.69-1.487 3.011 3.011 0 011.9-.54 4.661 4.661 0 011.284.18 5.351 5.351 0 011.236.528l-.888 1.235a4.511 4.511 0 00-.906-.395 3 3 0 00-.87-.132 1.108 1.108 0 00-.546.113.354.354 0 00-.2.318.329.329 0 00.139.289 1.334 1.334 0 00.5.156l1.164.216a2.657 2.657 0 011.392.63 1.5 1.5 0 01.468 1.158 1.826 1.826 0 01-.2.845 1.981 1.981 0 01-.557.672 2.8 2.8 0 01-.852.445 3.392 3.392 0 01-1.057.162 6.175 6.175 0 01-1.571-.193 4 4 0 01-1.27-.56zM188.046 217.212h1.243v.88a1.879 1.879 0 011.639-.968 1.732 1.732 0 011.617 1.066 2.032 2.032 0 011.826-1.066 1.826 1.826 0 011.8 2v3.6h-1.243v-3.334a1.115 1.115 0 00-1.112-1.265 1.314 1.314 0 00-1.111.648c.011.122.022.232.022.353v3.6h-1.243v-3.336a1.115 1.115 0 00-1.111-1.265 1.279 1.279 0 00-1.089.627v3.972h-1.243zM199.09 222.757l-2.08-5.545h1.39l1.4 4.092 1.54-4.092h1.353l-2.619 6.414a1.862 1.862 0 01-1.958 1.452 2.634 2.634 0 01-.627-.077v-1.067a4.512 4.512 0 00.485.044.878.878 0 00.89-.638zM204.931 222.02a.771.771 0 11-.771-.8.794.794 0 01.771.8zM206.283 217.212h1.243v.88a1.88 1.88 0 011.639-.968 1.732 1.732 0 011.617 1.066 2.032 2.032 0 011.826-1.066 1.826 1.826 0 011.805 2v3.6h-1.243v-3.334a1.115 1.115 0 00-1.111-1.265 1.314 1.314 0 00-1.112.648c.011.122.023.232.023.353v3.6h-1.243v-3.336a1.116 1.116 0 00-1.112-1.265 1.279 1.279 0 00-1.089.627v3.972h-1.243zM217.13 220.49a1.188 1.188 0 001.21 1.321 1.391 1.391 0 001.21-.683v-3.916h1.243v5.512h-1.243v-.913a2.017 2.017 0 01-1.76 1 1.849 1.849 0 01-1.9-1.97v-3.63h1.243zM223.564 222.724h-1.243v-7.867l1.243-.209zM225.775 218.2h-1.111v-.99h1.111v-1.519l1.244-.263v1.782h1.54v.99h-1.54v2.8c0 .539.209.748.77.748a2.283 2.283 0 00.748-.132v1.045a3.873 3.873 0 01-1.067.155c-1.112 0-1.695-.529-1.695-1.541zM229.493 215.33a.776.776 0 011.551 0 .776.776 0 01-1.551 0zm1.4 7.394h-1.244v-5.512h1.244zM236.357 221.128l.748.748a2.863 2.863 0 01-2.156.957 2.85 2.85 0 010-5.7 2.968 2.968 0 012.2.924l-.77.8a1.821 1.821 0 00-1.386-.649 1.768 1.768 0 00.033 3.52 1.693 1.693 0 001.331-.6zM237.9 221.14c0-.991.8-1.619 2.1-1.619a3.407 3.407 0 011.485.342v-.6c0-.726-.419-1.1-1.265-1.1a3.82 3.82 0 00-1.607.429l-.439-.9a5.291 5.291 0 012.288-.561c1.43 0 2.255.726 2.255 2v3.6h-1.232v-.562a2.3 2.3 0 01-1.639.65 1.739 1.739 0 01-1.946-1.679zm2.289.8a1.965 1.965 0 001.3-.451v-.9a2.855 2.855 0 00-1.276-.264c-.7 0-1.145.308-1.145.792-.006.506.432.825 1.117.825zM244.31 221.249a3.173 3.173 0 001.77.627c.66 0 1.111-.3 1.111-.736 0-.342-.23-.529-.758-.628l-.98-.165c-1.066-.2-1.595-.693-1.595-1.518 0-1.034.847-1.705 2.134-1.705a3.886 3.886 0 012.168.659l-.583.815a3.006 3.006 0 00-1.662-.529c-.571 0-.945.243-.945.65 0 .352.2.506.781.605l.968.176c1.1.209 1.628.715 1.628 1.54a2.019 2.019 0 01-2.244 1.793 3.7 3.7 0 01-2.376-.748zM250.173 218.2h-1.111v-.99h1.111v-1.519l1.243-.263v1.782h1.54v.99h-1.54v2.8c0 .539.209.748.771.748a2.292 2.292 0 00.748-.132v1.045a3.886 3.886 0 01-1.068.155c-1.111 0-1.694-.529-1.694-1.541zM255.387 222.02a.771.771 0 11-.771-.8.8.8 0 01.771.8zM260.678 221.986a2.123 2.123 0 01-1.695.792 2.819 2.819 0 01.078-5.61 2.1 2.1 0 011.605.726v-3.037l1.243-.209v8.076h-1.231zm-1.321-.253a1.648 1.648 0 001.309-.605v-2.321a1.708 1.708 0 00-1.309-.594 1.764 1.764 0 000 3.52zM266 222.833a2.8 2.8 0 01-2.806-2.86 2.714 2.714 0 012.685-2.849 2.645 2.645 0 012.607 2.838v.309h-4.07a1.682 1.682 0 001.65 1.506 1.79 1.79 0 001.309-.517l.814.76a3.189 3.189 0 01-2.189.813zm-1.563-3.322h2.873a1.51 1.51 0 00-1.442-1.375 1.482 1.482 0 00-1.43 1.375zM269.841 221.249a3.176 3.176 0 001.77.627c.66 0 1.112-.3 1.112-.736 0-.342-.231-.529-.759-.628l-.98-.165c-1.066-.2-1.594-.693-1.594-1.518 0-1.034.846-1.705 2.133-1.705a3.886 3.886 0 012.168.659l-.583.815a3.006 3.006 0 00-1.662-.529c-.571 0-.945.243-.945.65 0 .352.2.506.781.605l.968.176c1.1.209 1.628.715 1.628 1.54a2.019 2.019 0 01-2.244 1.793 3.7 3.7 0 01-2.376-.748zM275.7 218.2h-1.111v-.99h1.111v-1.519l1.243-.263v1.782h1.54v.99h-1.54v2.8c0 .539.209.748.771.748a2.283 2.283 0 00.748-.132v1.045a3.875 3.875 0 01-1.068.155c-1.111 0-1.694-.529-1.694-1.541zM279.421 215.33a.776.776 0 011.551 0 .776.776 0 01-1.551 0zm1.4 7.394h-1.243v-5.512h1.243zM282.348 217.212h1.243v.9a2 2 0 011.749-.989 1.855 1.855 0 011.9 1.969v3.631H286v-3.279a1.187 1.187 0 00-1.21-1.32 1.411 1.411 0 00-1.2.66v3.939h-1.243zM288.474 221.14c0-.991.8-1.619 2.1-1.619a3.415 3.415 0 011.486.342v-.6c0-.726-.419-1.1-1.266-1.1a3.82 3.82 0 00-1.607.429l-.439-.9a5.291 5.291 0 012.288-.561c1.43 0 2.255.726 2.255 2v3.6h-1.231v-.562a2.306 2.306 0 01-1.64.65 1.738 1.738 0 01-1.946-1.679zm2.288.8a1.968 1.968 0 001.3-.451v-.9a2.859 2.859 0 00-1.277-.264c-.7 0-1.144.308-1.144.792-.001.506.439.825 1.121.825zM295.48 218.2h-1.111v-.99h1.111v-1.519l1.244-.263v1.782h1.54v.99h-1.54v2.8c0 .539.209.748.77.748a2.283 2.283 0 00.748-.132v1.045a3.873 3.873 0 01-1.067.155c-1.112 0-1.695-.529-1.695-1.541zM299.2 215.33a.776.776 0 011.551 0 .776.776 0 01-1.551 0zm1.4 7.394h-1.243v-5.512h1.243zM304.644 217.124a2.856 2.856 0 11-2.773 2.849 2.75 2.75 0 012.773-2.849zm1.541 2.86a1.558 1.558 0 10-3.081 0 1.556 1.556 0 103.081 0zM308.7 217.212h1.243v.9a2 2 0 011.749-.989 1.855 1.855 0 011.9 1.969v3.631h-1.244v-3.279a1.187 1.187 0 00-1.209-1.32 1.411 1.411 0 00-1.2.66v3.939H308.7z"/></g><g><path class="b90ff29f-9f99-492b-9097-b50f32a1d4bb" d="M374.305 257.445v-43.963h-15.75"/><path class="b40fc3a1-8e60-4948-aff5-92ff014b77df" d="M379.291 255.986l-4.986 8.635-4.986-8.635h9.972z"/></g><g><path class="b90ff29f-9f99-492b-9097-b50f32a1d4bb" d="M127.055 257.445v-43.963h16.097"/><path class="b40fc3a1-8e60-4948-aff5-92ff014b77df" d="M132.042 255.986l-4.987 8.635-4.986-8.635h9.973z"/></g><g><path class="a65cd1f4-6816-472c-a6da-31d32cbdd204" d="M266.555 267.315h215.5v125h-215.5z"/><path class="b40fc3a1-8e60-4948-aff5-92ff014b77df" d="M290.77 287.318a4.316 4.316 0 01-1.187 3l.731.876-1.476 1.008-.732-.876a3.983 3.983 0 01-.8.24 4.486 4.486 0 01-.87.084 4.365 4.365 0 01-1.71-.336 4.207 4.207 0 01-2.3-2.3 4.461 4.461 0 010-3.4 4.2 4.2 0 012.3-2.3 4.383 4.383 0 011.71-.336 4.326 4.326 0 013.078 1.254 4.284 4.284 0 01.918 1.38 4.334 4.334 0 01.338 1.706zm-3.191.588l.683.828a2.611 2.611 0 00.277-.654 2.934 2.934 0 00.1-.762 2.859 2.859 0 00-.168-.99 2.438 2.438 0 00-.462-.792 2.16 2.16 0 00-.7-.521 2.085 2.085 0 00-1.752 0 2.16 2.16 0 00-.7.521 2.456 2.456 0 00-.462.792 3 3 0 000 1.981 2.446 2.446 0 00.462.792 2.174 2.174 0 00.7.521 2.032 2.032 0 00.876.192 1.718 1.718 0 00.2-.011l.2-.025-.72-.864zM293.962 285.326v3.612a1.209 1.209 0 00.282.834.953.953 0 00.75.318 1.281 1.281 0 00.57-.126 1.318 1.318 0 00.462-.39v-4.248h1.944v6.193h-1.944v-1.008a2.535 2.535 0 01-.858.821 2.179 2.179 0 01-1.1.282 1.969 1.969 0 01-1.476-.593 2.094 2.094 0 01-.576-1.519v-4.176zM305.074 290.643a4.052 4.052 0 01-1.212.761 3.855 3.855 0 01-1.392.235 3.307 3.307 0 01-1.278-.246 3.265 3.265 0 01-1.038-.679 3.113 3.113 0 01-.7-1.02 3.173 3.173 0 01-.251-1.259 3.342 3.342 0 01.239-1.273 3.217 3.217 0 01.654-1.019 2.967 2.967 0 01.99-.679 3.13 3.13 0 011.236-.245 3.032 3.032 0 011.23.245 2.873 2.873 0 01.96.679 3.1 3.1 0 01.63 1.038 3.728 3.728 0 01.229 1.325v.421h-4.261a1.552 1.552 0 00.528.84 1.42 1.42 0 00.924.323 1.8 1.8 0 00.7-.132 1.309 1.309 0 00.523-.384zm-2.76-3.913a1.086 1.086 0 00-.768.289 1.53 1.53 0 00-.432.8h2.46a1.486 1.486 0 00-.456-.8 1.18 1.18 0 00-.804-.289zM308.482 285.326v3.612a1.213 1.213 0 00.281.834.956.956 0 00.75.318 1.278 1.278 0 00.57-.126 1.31 1.31 0 00.462-.39v-4.248h1.945v6.193h-1.945v-1.008a2.541 2.541 0 01-.857.821 2.18 2.18 0 01-1.1.282 1.969 1.969 0 01-1.475-.593 2.094 2.094 0 01-.576-1.519v-4.176zM319.593 290.643a4.027 4.027 0 01-1.212.761 3.853 3.853 0 01-1.391.235 3.315 3.315 0 01-1.279-.246 3.276 3.276 0 01-1.038-.679 3.11 3.11 0 01-.695-1.02 3.156 3.156 0 01-.252-1.259 3.342 3.342 0 01.239-1.273 3.2 3.2 0 01.655-1.019 2.957 2.957 0 01.99-.679 3.129 3.129 0 011.235-.245 3.037 3.037 0 011.231.245 2.883 2.883 0 01.96.679 3.135 3.135 0 01.63 1.038 3.727 3.727 0 01.228 1.325v.421h-4.261a1.553 1.553 0 00.529.84 1.417 1.417 0 00.923.323 1.8 1.8 0 00.7-.132 1.306 1.306 0 00.522-.384zm-2.76-3.913a1.086 1.086 0 00-.767.289 1.531 1.531 0 00-.433.8h2.46a1.479 1.479 0 00-.456-.8 1.176 1.176 0 00-.804-.289zM286.263 304.923l.748.748a2.863 2.863 0 01-2.156.957 2.85 2.85 0 010-5.7 2.972 2.972 0 012.2.924l-.77.8a1.823 1.823 0 00-1.386-.649 1.768 1.768 0 00.033 3.52 1.7 1.7 0 001.331-.6zM289.321 306.519h-1.243v-7.867l1.243-.209zM290.7 299.125a.776.776 0 011.551 0 .776.776 0 01-1.551 0zm1.4 7.394h-1.25v-5.512h1.243zM296.173 306.628a2.8 2.8 0 01-2.805-2.86 2.714 2.714 0 012.684-2.849 2.645 2.645 0 012.608 2.838v.308h-4.071a1.683 1.683 0 001.651 1.507 1.788 1.788 0 001.308-.517l.815.759a3.188 3.188 0 01-2.19.814zm-1.561-3.322h2.871a1.509 1.509 0 00-1.441-1.375 1.479 1.479 0 00-1.43 1.375zM299.924 301.007h1.243v.9a2 2 0 011.75-.989 1.854 1.854 0 011.9 1.969v3.631h-1.243v-3.278a1.187 1.187 0 00-1.21-1.32 1.412 1.412 0 00-1.2.66v3.939h-1.243zM307.008 302H305.9v-.99h1.111v-1.519l1.243-.263v1.782h1.541v.99h-1.541v2.794c0 .539.209.748.771.748a2.283 2.283 0 00.748-.132v1.045a3.872 3.872 0 01-1.067.154c-1.112 0-1.695-.528-1.695-1.54zM315.885 303.581h.99v1.034h-.99v1.9h-1.2v-1.9h-4.135v-.979l3.972-4.819h1.363zm-1.2 0V300.1l-2.849 3.477zM318.173 298.817h4.687v1.035h-3.66l-.1 2.233a3.416 3.416 0 011.607-.386 2.326 2.326 0 012.563 2.333 2.634 2.634 0 01-2.916 2.608 3.884 3.884 0 01-2.706-1.046l.727-.824a2.858 2.858 0 002.023.824 1.484 1.484 0 10-.032-2.948 3.243 3.243 0 00-1.53.407L318 302.8zM324.322 302.866c0-2.5 1.43-4.159 3.587-4.159a3.469 3.469 0 012.046.66l-.661.892a2.431 2.431 0 00-1.485-.474c-1.43 0-2.266 1.122-2.288 3.059a2.669 2.669 0 012.124-1.122 2.383 2.383 0 012.574 2.365 2.542 2.542 0 01-2.707 2.53c-1.891 0-3.19-1.529-3.19-3.751zm1.255.737c.186 1.2.913 1.98 1.891 1.98a1.484 1.484 0 001.574-1.463 1.451 1.451 0 00-1.584-1.441 2.406 2.406 0 00-1.881.921zM332.858 305.814a.771.771 0 11-.771-.8.786.786 0 01.771.8zM334.21 301.007h1.244v.88a1.878 1.878 0 011.638-.968 1.731 1.731 0 011.617 1.066 2.032 2.032 0 011.827-1.066 1.825 1.825 0 011.8 2v3.6H341.1v-3.334a1.115 1.115 0 00-1.111-1.265 1.313 1.313 0 00-1.111.648c.01.121.022.232.022.353v3.6h-1.243v-3.334a1.116 1.116 0 00-1.112-1.265 1.277 1.277 0 00-1.088.627v3.972h-1.247zM345.255 306.552l-2.08-5.545h1.387l1.4 4.092 1.541-4.092h1.352l-2.618 6.414a1.863 1.863 0 01-1.958 1.452 2.628 2.628 0 01-.627-.077v-1.067a4.414 4.414 0 00.484.043.878.878 0 00.891-.637zM351.1 305.814a.771.771 0 11-.77-.8.786.786 0 01.77.8zM352.449 301.007h1.243v.88a1.879 1.879 0 011.639-.968 1.732 1.732 0 011.617 1.066 2.032 2.032 0 011.826-1.066 1.826 1.826 0 011.805 2v3.6h-1.244v-3.334a1.115 1.115 0 00-1.111-1.265 1.314 1.314 0 00-1.111.648c.011.121.022.232.022.353v3.6h-1.243v-3.334a1.116 1.116 0 00-1.111-1.265 1.278 1.278 0 00-1.089.627v3.972h-1.243zM363.294 304.285a1.187 1.187 0 001.21 1.32 1.39 1.39 0 001.21-.682v-3.916h1.244v5.512h-1.244v-.914a2.013 2.013 0 01-1.759 1 1.849 1.849 0 01-1.9-1.969v-3.63h1.243zM369.729 306.519h-1.243v-7.867l1.243-.209zM371.94 302h-1.111v-.99h1.111v-1.519l1.243-.263v1.782h1.54v.99h-1.54v2.794c0 .539.209.748.771.748a2.283 2.283 0 00.748-.132v1.045a3.884 3.884 0 01-1.068.154c-1.111 0-1.694-.528-1.694-1.54zM375.658 299.125a.775.775 0 011.55 0 .775.775 0 01-1.55 0zm1.4 7.394h-1.243v-5.512h1.243zM382.523 304.923l.748.748a2.866 2.866 0 01-2.156.957 2.85 2.85 0 010-5.7 2.972 2.972 0 012.2.924l-.771.8a1.819 1.819 0 00-1.385-.649 1.768 1.768 0 00.033 3.52 1.7 1.7 0 001.331-.6zM384.062 304.935c0-.991.8-1.619 2.1-1.619a3.41 3.41 0 011.485.342v-.605c0-.726-.419-1.1-1.266-1.1a3.817 3.817 0 00-1.606.429l-.44-.9a5.306 5.306 0 012.288-.56c1.43 0 2.255.726 2.255 2v3.6h-1.231v-.562a2.3 2.3 0 01-1.64.649 1.737 1.737 0 01-1.945-1.674zm2.288.8a1.968 1.968 0 001.3-.451v-.9a2.858 2.858 0 00-1.276-.264c-.7 0-1.145.308-1.145.792-.001.506.439.825 1.121.825zM390.475 305.044a3.176 3.176 0 001.771.627c.66 0 1.111-.3 1.111-.736 0-.342-.231-.529-.759-.628l-.979-.165c-1.067-.2-1.6-.693-1.6-1.518 0-1.034.847-1.705 2.134-1.705a3.888 3.888 0 012.168.659l-.583.815a3.011 3.011 0 00-1.662-.529c-.572 0-.946.242-.946.65 0 .352.2.506.782.605l.967.176c1.1.209 1.628.715 1.628 1.54a2.019 2.019 0 01-2.244 1.793 3.7 3.7 0 01-2.376-.748zM396.337 302h-1.111v-.99h1.111v-1.519l1.244-.263v1.782h1.54v.99h-1.54v2.794c0 .539.209.748.77.748a2.283 2.283 0 00.748-.132v1.045a3.872 3.872 0 01-1.067.154c-1.112 0-1.695-.528-1.695-1.54zM401.551 305.814a.771.771 0 11-1.54 0 .771.771 0 111.54 0zM406.843 305.781a2.121 2.121 0 01-1.694.792 2.82 2.82 0 01.077-5.61 2.105 2.105 0 011.606.725v-3.036l1.243-.209v8.076h-1.232zm-1.32-.253a1.651 1.651 0 001.309-.605V302.6a1.71 1.71 0 00-1.309-.594 1.764 1.764 0 000 3.52zM412.167 306.628a2.8 2.8 0 01-2.806-2.86 2.714 2.714 0 012.684-2.849 2.645 2.645 0 012.608 2.838v.308h-4.07a1.682 1.682 0 001.65 1.507 1.79 1.79 0 001.309-.517l.814.759a3.187 3.187 0 01-2.189.814zm-1.563-3.322h2.872a1.509 1.509 0 00-1.441-1.375 1.481 1.481 0 00-1.435 1.375zM416.005 305.044a3.176 3.176 0 001.771.627c.66 0 1.111-.3 1.111-.736 0-.342-.23-.529-.759-.628l-.979-.165c-1.066-.2-1.6-.693-1.6-1.518 0-1.034.847-1.705 2.134-1.705a3.888 3.888 0 012.168.659l-.583.815a3.008 3.008 0 00-1.661-.529c-.572 0-.946.242-.946.65 0 .352.2.506.781.605l.968.176c1.1.209 1.627.715 1.627 1.54a2.018 2.018 0 01-2.244 1.793 3.7 3.7 0 01-2.376-.748zM421.868 302h-1.112v-.99h1.112v-1.519l1.243-.263v1.782h1.54v.99h-1.54v2.794c0 .539.209.748.77.748a2.283 2.283 0 00.748-.132v1.045a3.872 3.872 0 01-1.067.154c-1.111 0-1.694-.528-1.694-1.54zM425.585 299.125a.776.776 0 011.551 0 .776.776 0 01-1.551 0zm1.4 7.394h-1.245v-5.512h1.243zM428.512 301.007h1.243v.9a2 2 0 011.749-.989 1.855 1.855 0 011.9 1.969v3.631h-1.243v-3.278a1.187 1.187 0 00-1.21-1.32 1.411 1.411 0 00-1.2.66v3.939h-1.243zM434.638 304.935c0-.991.8-1.619 2.1-1.619a3.41 3.41 0 011.485.342v-.605c0-.726-.419-1.1-1.266-1.1a3.82 3.82 0 00-1.606.429l-.439-.9a5.3 5.3 0 012.288-.56c1.429 0 2.255.726 2.255 2v3.6h-1.232v-.562a2.3 2.3 0 01-1.64.649 1.737 1.737 0 01-1.945-1.674zm2.288.8a1.968 1.968 0 001.3-.451v-.9a2.855 2.855 0 00-1.276-.264c-.7 0-1.145.308-1.145.792-.005.506.44.825 1.121.825zM441.645 302h-1.111v-.99h1.111v-1.519l1.243-.263v1.782h1.54v.99h-1.54v2.794c0 .539.209.748.771.748a2.283 2.283 0 00.748-.132v1.045a3.884 3.884 0 01-1.068.154c-1.111 0-1.694-.528-1.694-1.54zM445.364 299.125a.776.776 0 011.551 0 .776.776 0 01-1.551 0zm1.4 7.394h-1.243v-5.512h1.243zM450.808 300.919a2.856 2.856 0 11-2.772 2.849 2.751 2.751 0 012.772-2.849zm1.541 2.86a1.558 1.558 0 10-3.081 0 1.556 1.556 0 103.081 0zM454.868 301.007h1.243v.9a2 2 0 011.749-.989 1.854 1.854 0 011.9 1.969v3.631h-1.24v-3.278a1.187 1.187 0 00-1.21-1.32 1.411 1.411 0 00-1.2.66v3.939h-1.243z"/><g><path class="bd737ae2-502f-4ea0-ad11-f24601d8e0b6" d="M318.585 354.716v1.5h-1.5"/><path class="a0068f99-a98f-4a95-9ab8-9e55aa1150a5" d="M314.156 356.216h-16.107"/><path class="bd737ae2-502f-4ea0-ad11-f24601d8e0b6" d="M296.585 356.216h-1.5v-1.5"/><path class="bab58652-448f-49ec-8599-b0bb9b2b60ab" d="M295.085 351.49v-24.193"/><path class="bd737ae2-502f-4ea0-ad11-f24601d8e0b6" d="M295.085 325.684v-1.5h1.5"/><path class="a0068f99-a98f-4a95-9ab8-9e55aa1150a5" d="M299.514 324.184h16.107"/><path class="bd737ae2-502f-4ea0-ad11-f24601d8e0b6" d="M317.085 324.184h1.5v1.5"/><path class="bab58652-448f-49ec-8599-b0bb9b2b60ab" d="M318.585 328.91v24.193"/><text class="bb0887c9-64e9-4e19-893a-5b9aa2472b2a" transform="translate(303.029 342.97)">N</text></g><g><text class="f297cb86-9eef-4f65-a3b1-bef72dcaf71e" transform="translate(378.117 370.268)">Message<tspan x="16.124" y="10">2</tspan></text><path class="f389151c-099d-4912-8b42-5770fd565bf3" d="M408.555 356.216h-23.5v-26.208l5.875-5.824h17.625v32.032z"/><path class="aaecb16d-4ebf-4379-8e9b-c5715be626ed" d="M390.93 330.008h-5.875l5.875-5.824v5.824zM389.461 334.376h7.344M389.461 338.744h14.688M389.461 343.112h14.688M389.461 347.48h14.688"/></g><g><path class="bd737ae2-502f-4ea0-ad11-f24601d8e0b6" d="M453.525 354.716v1.5h-1.5"/><path class="a0068f99-a98f-4a95-9ab8-9e55aa1150a5" d="M449.096 356.216h-16.107"/><path class="bd737ae2-502f-4ea0-ad11-f24601d8e0b6" d="M431.525 356.216h-1.5v-1.5"/><path class="bab58652-448f-49ec-8599-b0bb9b2b60ab" d="M430.025 351.49v-24.193"/><path class="bd737ae2-502f-4ea0-ad11-f24601d8e0b6" d="M430.025 325.684v-1.5h1.5"/><path class="a0068f99-a98f-4a95-9ab8-9e55aa1150a5" d="M434.454 324.184h16.107"/><path class="bd737ae2-502f-4ea0-ad11-f24601d8e0b6" d="M452.025 324.184h1.5v1.5"/><path class="bab58652-448f-49ec-8599-b0bb9b2b60ab" d="M453.525 328.91v24.193"/><text class="bb0887c9-64e9-4e19-893a-5b9aa2472b2a" transform="translate(440.065 342.97)">1</text></g><g><text class="f297cb86-9eef-4f65-a3b1-bef72dcaf71e" transform="translate(333.117 370.268)">Message<tspan x="15.957" y="10">3</tspan></text><path class="f389151c-099d-4912-8b42-5770fd565bf3" d="M363.555 356.216h-23.5v-26.208l5.875-5.824h17.625v32.032z"/><path class="aaecb16d-4ebf-4379-8e9b-c5715be626ed" d="M345.93 330.008h-5.875l5.875-5.824v5.824zM344.461 334.376h7.344M344.461 338.744h14.688M344.461 343.112h14.688M344.461 347.48h14.688"/></g></g><g><path class="a65cd1f4-6816-472c-a6da-31d32cbdd204" d="M19.305 267.315h215.5v125h-215.5z"/><path class="b40fc3a1-8e60-4948-aff5-92ff014b77df" d="M43.52 287.318a4.316 4.316 0 01-1.187 3l.731.876-1.476 1.006-.732-.876a3.983 3.983 0 01-.8.24 4.486 4.486 0 01-.87.084 4.365 4.365 0 01-1.71-.336 4.207 4.207 0 01-2.3-2.3 4.461 4.461 0 010-3.4 4.2 4.2 0 012.3-2.3 4.383 4.383 0 011.71-.336 4.326 4.326 0 013.078 1.254 4.284 4.284 0 01.918 1.38 4.334 4.334 0 01.338 1.708zm-3.191.588l.683.828a2.611 2.611 0 00.277-.654 2.934 2.934 0 00.095-.762 2.859 2.859 0 00-.168-.99 2.438 2.438 0 00-.462-.792 2.16 2.16 0 00-.7-.521 2.085 2.085 0 00-1.752 0 2.16 2.16 0 00-.7.521 2.456 2.456 0 00-.462.792 3 3 0 000 1.981 2.446 2.446 0 00.462.792 2.174 2.174 0 00.7.521 2.032 2.032 0 00.876.192 1.718 1.718 0 00.2-.011l.2-.025-.72-.864zM46.712 285.326v3.612a1.209 1.209 0 00.282.834.953.953 0 00.75.318 1.281 1.281 0 00.57-.126 1.318 1.318 0 00.462-.39v-4.248h1.944v6.193h-1.944v-1.008a2.535 2.535 0 01-.858.821 2.179 2.179 0 01-1.1.282 1.969 1.969 0 01-1.476-.593 2.094 2.094 0 01-.576-1.519v-4.176zM57.824 290.643a4.052 4.052 0 01-1.212.761 3.855 3.855 0 01-1.392.235 3.307 3.307 0 01-1.278-.246 3.265 3.265 0 01-1.038-.679 3.113 3.113 0 01-.7-1.02 3.173 3.173 0 01-.251-1.259 3.342 3.342 0 01.239-1.273 3.217 3.217 0 01.654-1.019 2.967 2.967 0 01.99-.679 3.13 3.13 0 011.236-.245 3.032 3.032 0 011.23.245 2.873 2.873 0 01.96.679 3.1 3.1 0 01.63 1.038 3.728 3.728 0 01.229 1.325v.421h-4.257a1.552 1.552 0 00.528.84 1.42 1.42 0 00.924.323 1.8 1.8 0 00.7-.132 1.309 1.309 0 00.523-.384zm-2.76-3.913a1.086 1.086 0 00-.768.289 1.53 1.53 0 00-.432.8h2.46a1.486 1.486 0 00-.456-.8 1.18 1.18 0 00-.804-.289zM61.232 285.326v3.612a1.213 1.213 0 00.281.834.956.956 0 00.75.318 1.278 1.278 0 00.57-.126 1.31 1.31 0 00.462-.39v-4.248h1.945v6.193H63.3v-1.008a2.541 2.541 0 01-.857.821 2.18 2.18 0 01-1.1.282 1.969 1.969 0 01-1.475-.593 2.094 2.094 0 01-.576-1.519v-4.176zM72.343 290.643a4.027 4.027 0 01-1.212.761 3.853 3.853 0 01-1.391.235 3.315 3.315 0 01-1.279-.246 3.276 3.276 0 01-1.038-.679 3.11 3.11 0 01-.7-1.02 3.156 3.156 0 01-.252-1.259 3.342 3.342 0 01.239-1.273 3.2 3.2 0 01.655-1.019 2.957 2.957 0 01.99-.679 3.129 3.129 0 011.235-.245 3.037 3.037 0 011.231.245 2.883 2.883 0 01.96.679 3.135 3.135 0 01.63 1.038 3.727 3.727 0 01.228 1.325v.421h-4.256a1.553 1.553 0 00.529.84 1.417 1.417 0 00.923.323 1.8 1.8 0 00.7-.132 1.306 1.306 0 00.522-.384zm-2.76-3.913a1.086 1.086 0 00-.767.289 1.531 1.531 0 00-.433.8h2.46a1.479 1.479 0 00-.456-.8 1.176 1.176 0 00-.804-.289zM39.013 304.923l.748.748a2.863 2.863 0 01-2.156.957 2.85 2.85 0 010-5.7 2.972 2.972 0 012.2.924l-.77.8a1.823 1.823 0 00-1.386-.649 1.768 1.768 0 00.033 3.52 1.7 1.7 0 001.331-.6zM42.071 306.519h-1.243v-7.867l1.243-.209zM43.446 299.125a.776.776 0 011.551 0 .776.776 0 01-1.551 0zm1.4 7.394H43.6v-5.512h1.243zM48.923 306.628a2.8 2.8 0 01-2.8-2.86 2.714 2.714 0 012.684-2.849 2.645 2.645 0 012.608 2.838v.308h-4.076a1.683 1.683 0 001.651 1.507 1.788 1.788 0 001.308-.517l.815.759a3.188 3.188 0 01-2.19.814zm-1.561-3.322h2.871a1.509 1.509 0 00-1.441-1.375 1.479 1.479 0 00-1.43 1.375zM52.674 301.007h1.243v.9a2 2 0 011.75-.989 1.854 1.854 0 011.9 1.969v3.631h-1.24v-3.278a1.187 1.187 0 00-1.21-1.32 1.412 1.412 0 00-1.2.66v3.939h-1.243zM59.758 302h-1.111v-.99h1.111v-1.519l1.242-.266v1.782h1.541V302H61v2.794c0 .539.209.748.771.748a2.283 2.283 0 00.748-.132v1.045a3.872 3.872 0 01-1.067.154c-1.112 0-1.7-.528-1.7-1.54zM65.831 306.519h-1.2v-6.448l-1.364.594V299.6l1.8-.782h.76zM67.183 305.649l3.157-3.3a2.062 2.062 0 00.748-1.453 1.254 1.254 0 00-1.408-1.132 2.77 2.77 0 00-1.991.946l-.683-.825a3.9 3.9 0 012.707-1.167c1.507 0 2.541.858 2.541 2.1a2.939 2.939 0 01-1.1 2.146l-2.464 2.541 3.707-.022v1.035h-5.214zM76.105 306.628a3.873 3.873 0 01-2.85-1.154l.814-.76a2.525 2.525 0 002.024.858c.99 0 1.673-.517 1.673-1.276a1.216 1.216 0 00-1.364-1.155h-.957v-1h.855a1.117 1.117 0 001.222-1.156 1.328 1.328 0 00-1.463-1.22 2.383 2.383 0 00-1.915.913l-.813-.76a3.733 3.733 0 012.772-1.221c1.528 0 2.629.913 2.629 2.157a1.851 1.851 0 01-1.5 1.759 1.909 1.909 0 011.738 1.761c.006 1.309-1.193 2.254-2.865 2.254zM81.681 305.814a.771.771 0 11-.77-.8.786.786 0 01.77.8zM83.034 301.007h1.243v.88a1.879 1.879 0 011.639-.968 1.732 1.732 0 011.617 1.066 2.032 2.032 0 011.826-1.066 1.826 1.826 0 011.805 2v3.6H89.92v-3.334a1.115 1.115 0 00-1.111-1.265 1.314 1.314 0 00-1.111.648c.01.121.022.232.022.353v3.6h-1.243v-3.334a1.116 1.116 0 00-1.111-1.265 1.278 1.278 0 00-1.089.627v3.972h-1.243zM94.079 306.552L92 301.007h1.386l1.4 4.092 1.54-4.092h1.352l-2.618 6.414a1.862 1.862 0 01-1.958 1.452 2.634 2.634 0 01-.627-.077v-1.067a4.414 4.414 0 00.484.043.878.878 0 00.891-.637zM99.918 305.814a.771.771 0 11-1.54 0 .771.771 0 111.54 0zM101.272 301.007h1.243v.88a1.879 1.879 0 011.639-.968 1.732 1.732 0 011.617 1.066 2.032 2.032 0 011.826-1.066 1.826 1.826 0 011.805 2v3.6h-1.243v-3.334a1.115 1.115 0 00-1.112-1.265 1.314 1.314 0 00-1.111.648c.011.121.022.232.022.353v3.6h-1.243v-3.334a1.115 1.115 0 00-1.111-1.265 1.279 1.279 0 00-1.089.627v3.972h-1.243zM112.118 304.285a1.186 1.186 0 001.21 1.32 1.391 1.391 0 001.21-.682v-3.916h1.243v5.512h-1.243v-.914a2.015 2.015 0 01-1.76 1 1.849 1.849 0 01-1.9-1.969v-3.63h1.243zM118.552 306.519h-1.243v-7.867l1.243-.209zM120.763 302h-1.111v-.99h1.111v-1.519l1.243-.263v1.782h1.54v.99h-1.54v2.794c0 .539.209.748.771.748a2.283 2.283 0 00.748-.132v1.045a3.872 3.872 0 01-1.067.154c-1.112 0-1.695-.528-1.695-1.54zM124.481 299.125a.776.776 0 011.551 0 .776.776 0 01-1.551 0zm1.4 7.394h-1.243v-5.512h1.243zM131.346 304.923l.748.748a2.863 2.863 0 01-2.156.957 2.85 2.85 0 010-5.7 2.972 2.972 0 012.2.924l-.77.8a1.821 1.821 0 00-1.386-.649 1.768 1.768 0 00.033 3.52 1.7 1.7 0 001.331-.6zM132.885 304.935c0-.991.8-1.619 2.1-1.619a3.41 3.41 0 011.485.342v-.605c0-.726-.419-1.1-1.265-1.1a3.82 3.82 0 00-1.607.429l-.439-.9a5.3 5.3 0 012.288-.56c1.429 0 2.255.726 2.255 2v3.6h-1.232v-.562a2.3 2.3 0 01-1.639.649 1.738 1.738 0 01-1.946-1.674zm2.288.8a1.968 1.968 0 001.3-.451v-.9a2.855 2.855 0 00-1.276-.264c-.7 0-1.145.308-1.145.792-.001.506.44.825 1.121.825zM139.3 305.044a3.176 3.176 0 001.771.627c.66 0 1.111-.3 1.111-.736 0-.342-.23-.529-.759-.628l-.979-.165c-1.067-.2-1.595-.693-1.595-1.518 0-1.034.847-1.705 2.134-1.705a3.888 3.888 0 012.168.659l-.583.815a3.008 3.008 0 00-1.661-.529c-.572 0-.947.242-.947.65 0 .352.2.506.782.605l.968.176c1.1.209 1.627.715 1.627 1.54a2.018 2.018 0 01-2.244 1.793 3.7 3.7 0 01-2.376-.748zM145.161 302h-1.112v-.99h1.112v-1.519l1.243-.263v1.782h1.54v.99H146.4v2.794c0 .539.209.748.77.748a2.283 2.283 0 00.748-.132v1.045a3.872 3.872 0 01-1.067.154c-1.111 0-1.694-.528-1.694-1.54zM150.375 305.814a.771.771 0 11-.771-.8.787.787 0 01.771.8zM155.667 305.781a2.123 2.123 0 01-1.695.792 2.82 2.82 0 01.077-5.61 2.1 2.1 0 011.606.725v-3.036l1.243-.209v8.076h-1.231zm-1.321-.253a1.648 1.648 0 001.309-.605V302.6a1.71 1.71 0 00-1.309-.594 1.764 1.764 0 000 3.52zM160.99 306.628a2.8 2.8 0 01-2.806-2.86 2.714 2.714 0 012.685-2.849 2.645 2.645 0 012.607 2.838v.308h-4.07a1.682 1.682 0 001.65 1.507 1.79 1.79 0 001.309-.517l.814.759a3.187 3.187 0 01-2.189.814zm-1.562-3.322h2.872a1.509 1.509 0 00-1.441-1.375 1.48 1.48 0 00-1.431 1.375zM164.829 305.044a3.173 3.173 0 001.77.627c.66 0 1.111-.3 1.111-.736 0-.342-.23-.529-.758-.628l-.98-.165c-1.066-.2-1.595-.693-1.595-1.518 0-1.034.847-1.705 2.134-1.705a3.886 3.886 0 012.168.659l-.583.815a3.006 3.006 0 00-1.662-.529c-.571 0-.945.242-.945.65 0 .352.2.506.781.605l.968.176c1.1.209 1.628.715 1.628 1.54a2.019 2.019 0 01-2.244 1.793 3.7 3.7 0 01-2.376-.748zM170.691 302h-1.111v-.99h1.111v-1.519l1.243-.263v1.782h1.54v.99h-1.54v2.794c0 .539.209.748.771.748a2.283 2.283 0 00.748-.132v1.045a3.884 3.884 0 01-1.068.154c-1.111 0-1.694-.528-1.694-1.54zM174.409 299.125a.775.775 0 011.55 0 .775.775 0 01-1.55 0zm1.4 7.394h-1.243v-5.512h1.243zM177.335 301.007h1.244v.9a2 2 0 011.749-.989 1.854 1.854 0 011.9 1.969v3.631h-1.243v-3.278a1.187 1.187 0 00-1.21-1.32 1.409 1.409 0 00-1.2.66v3.939h-1.244zM183.461 304.935c0-.991.8-1.619 2.1-1.619a3.407 3.407 0 011.485.342v-.605c0-.726-.419-1.1-1.265-1.1a3.82 3.82 0 00-1.607.429l-.439-.9a5.3 5.3 0 012.288-.56c1.43 0 2.255.726 2.255 2v3.6h-1.232v-.562a2.3 2.3 0 01-1.639.649 1.738 1.738 0 01-1.946-1.674zm2.289.8a1.965 1.965 0 001.3-.451v-.9a2.855 2.855 0 00-1.276-.264c-.7 0-1.145.308-1.145.792-.002.506.439.825 1.121.825zM190.468 302h-1.111v-.99h1.111v-1.519l1.243-.263v1.782h1.54v.99h-1.54v2.794c0 .539.209.748.771.748a2.283 2.283 0 00.748-.132v1.045a3.872 3.872 0 01-1.067.154c-1.112 0-1.7-.528-1.7-1.54zM194.187 299.125a.776.776 0 011.551 0 .776.776 0 01-1.551 0zm1.4 7.394h-1.243v-5.512h1.243zM199.631 300.919a2.856 2.856 0 11-2.772 2.849 2.751 2.751 0 012.772-2.849zm1.541 2.86a1.558 1.558 0 10-3.081 0 1.556 1.556 0 103.081 0zM203.691 301.007h1.243v.9a2 2 0 011.749-.989 1.854 1.854 0 011.9 1.969v3.631h-1.243v-3.278a1.187 1.187 0 00-1.21-1.32 1.411 1.411 0 00-1.2.66v3.939h-1.243z"/><g><path class="bd737ae2-502f-4ea0-ad11-f24601d8e0b6" d="M71.335 354.716v1.5h-1.5"/><path class="a0068f99-a98f-4a95-9ab8-9e55aa1150a5" d="M66.906 356.216H50.799"/><path class="bd737ae2-502f-4ea0-ad11-f24601d8e0b6" d="M49.335 356.216h-1.5v-1.5"/><path class="bab58652-448f-49ec-8599-b0bb9b2b60ab" d="M47.835 351.49v-24.193"/><path class="bd737ae2-502f-4ea0-ad11-f24601d8e0b6" d="M47.835 325.684v-1.5h1.5"/><path class="a0068f99-a98f-4a95-9ab8-9e55aa1150a5" d="M52.264 324.184h16.107"/><path class="bd737ae2-502f-4ea0-ad11-f24601d8e0b6" d="M69.835 324.184h1.5v1.5"/><path class="bab58652-448f-49ec-8599-b0bb9b2b60ab" d="M71.335 328.91v24.193"/><text class="bb0887c9-64e9-4e19-893a-5b9aa2472b2a" transform="translate(55.779 342.97)">N</text></g><g><text class="f297cb86-9eef-4f65-a3b1-bef72dcaf71e" transform="translate(130.867 370.268)">Message<tspan x="16.124" y="10">2</tspan></text><path class="f389151c-099d-4912-8b42-5770fd565bf3" d="M161.305 356.216h-23.5v-26.208l5.875-5.824h17.625v32.032z"/><path class="aaecb16d-4ebf-4379-8e9b-c5715be626ed" d="M143.68 330.008h-5.875l5.875-5.824v5.824zM142.211 334.376h7.344M142.211 338.744h14.688M142.211 343.112h14.688M142.211 347.48h14.688"/></g><g><path class="bd737ae2-502f-4ea0-ad11-f24601d8e0b6" d="M206.275 354.716v1.5h-1.5"/><path class="a0068f99-a98f-4a95-9ab8-9e55aa1150a5" d="M201.846 356.216h-16.107"/><path class="bd737ae2-502f-4ea0-ad11-f24601d8e0b6" d="M184.275 356.216h-1.5v-1.5"/><path class="bab58652-448f-49ec-8599-b0bb9b2b60ab" d="M182.775 351.49v-24.193"/><path class="bd737ae2-502f-4ea0-ad11-f24601d8e0b6" d="M182.775 325.684v-1.5h1.5"/><path class="a0068f99-a98f-4a95-9ab8-9e55aa1150a5" d="M187.204 324.184h16.107"/><path class="bd737ae2-502f-4ea0-ad11-f24601d8e0b6" d="M204.775 324.184h1.5v1.5"/><path class="bab58652-448f-49ec-8599-b0bb9b2b60ab" d="M206.275 328.91v24.193"/><text class="bb0887c9-64e9-4e19-893a-5b9aa2472b2a" transform="translate(192.815 342.97)">1</text></g><g><text class="f297cb86-9eef-4f65-a3b1-bef72dcaf71e" transform="translate(85.867 370.268)">Message<tspan x="15.957" y="10">3</tspan></text><path class="f389151c-099d-4912-8b42-5770fd565bf3" d="M116.305 356.216h-23.5v-26.208l5.875-5.824h17.625v32.032z"/><path class="aaecb16d-4ebf-4379-8e9b-c5715be626ed" d="M98.68 330.008h-5.875l5.875-5.824v5.824zM97.211 334.376h7.344M97.211 338.744h14.688M97.211 343.112h14.688M97.211 347.48h14.688"/></g></g><g><path class="b90ff29f-9f99-492b-9097-b50f32a1d4bb" d="M127.055 392.033v78.966"/><path class="b40fc3a1-8e60-4948-aff5-92ff014b77df" d="M122.069 469.54l4.986 8.635 4.986-8.635h-9.972z"/><path class="a65cd1f4-6816-472c-a6da-31d32cbdd204" d="M91.468 428.357h71.174v30.699H91.468z"/><g><text class="f297cb86-9eef-4f65-a3b1-bef72dcaf71e" transform="translate(105.815 452.289)">Message 1</text><path class="f389151c-099d-4912-8b42-5770fd565bf3" d="M138.805 437.236h-23.5v-26.208l5.875-5.824h17.625v32.032z"/><path class="aaecb16d-4ebf-4379-8e9b-c5715be626ed" d="M121.18 411.028h-5.875l5.875-5.824v5.824zM119.712 415.396h7.343M119.712 419.764h14.687M119.712 424.132h14.687M119.712 428.5h14.687"/></g></g><g><path class="b90ff29f-9f99-492b-9097-b50f32a1d4bb" d="M374.305 392.033v78.966"/><path class="b40fc3a1-8e60-4948-aff5-92ff014b77df" d="M369.319 469.54l4.986 8.635 4.986-8.635h-9.972z"/><path class="a65cd1f4-6816-472c-a6da-31d32cbdd204" d="M338.718 428.357h71.174v30.699h-71.174z"/><g><text class="f297cb86-9eef-4f65-a3b1-bef72dcaf71e" transform="translate(353.065 452.289)">Message 1</text><path class="f389151c-099d-4912-8b42-5770fd565bf3" d="M386.055 437.236h-23.5v-26.208l5.875-5.824h17.625v32.032z"/><path class="aaecb16d-4ebf-4379-8e9b-c5715be626ed" d="M368.43 411.028h-5.875l5.875-5.824v5.824zM366.962 415.396h7.343M366.962 419.764h14.687M366.962 424.132h14.687M366.962 428.5h14.687"/></g></g><g><text transform="translate(690.661 535.693)" fill="#f3f3f3" font-family="RedHatText,&quot;Red Hat Text&quot;,Overpass,&quot;Helvetica Neue&quot;,Arial,sans-serif" font-size="10">120_AMQ_1020</text><path fill="none" d="M0 512.675h760v40H0z"/></g></svg>