<svg id="fe2debe7-51a2-4476-9bba-4471cd162b59" data-name="Layer 1" xmlns="http://www.w3.org/2000/svg" width="760" height="579.919"><defs><style>.a6c5abe6-80a2-4243-afa7-19039a134150{fill:#e8e8e8}.ad372ab9-d7ef-4ffa-b9d7-8360899685b4,.adf3ebef-6e91-4e1b-af16-f08928b59a54,.f9cb1aff-0460-498e-ac8d-dbb9a4d97f25,.fc2506a6-e4f9-4a73-9fe1-4d6ac1aebb98{fill:none}.adf3ebef-6e91-4e1b-af16-f08928b59a54{stroke:#d5d5d5;stroke-width:1.5px;stroke-miterlimit:10}.b869dbbc-48c3-4e39-8a20-dc884db49042,.f4f2b5e1-94da-4754-a880-3a80e82a39c5{font-size:12px}.b869dbbc-48c3-4e39-8a20-dc884db49042{fill:#151515;font-family:RedHatText,&quot;Red Hat Text&quot;,Overpass,&quot;Helvetica Neue&quot;,Arial,sans-serif;font-weight:700}.f4f2b5e1-94da-4754-a880-3a80e82a39c5,.f531c941-adc1-4c52-b447-fe7d44220596{fill:#fff}.e84500fa-867a-4068-9fea-c3bbe1031ec1{fill:#06c}.f4f2b5e1-94da-4754-a880-3a80e82a39c5{font-family:RedHatText,&quot;Red Hat Text&quot;,Overpass,&quot;Helvetica Neue&quot;,Arial,sans-serif;font-style:italic;font-weight:500}.ad372ab9-d7ef-4ffa-b9d7-8360899685b4,.f9cb1aff-0460-498e-ac8d-dbb9a4d97f25,.fc2506a6-e4f9-4a73-9fe1-4d6ac1aebb98{stroke:#06c;stroke-linecap:round;stroke-linejoin:round}.fc2506a6-e4f9-4a73-9fe1-4d6ac1aebb98{stroke-dasharray:2.996 2.996}.f9cb1aff-0460-498e-ac8d-dbb9a4d97f25{stroke-dasharray:3.011 3.011}</style></defs><path class="a6c5abe6-80a2-4243-afa7-19039a134150" d="M144.25 62h220.5v147h-220.5z"/><path class="adf3ebef-6e91-4e1b-af16-f08928b59a54" d="M174.25 189.449h175.5v-80"/><path class="adf3ebef-6e91-4e1b-af16-f08928b59a54" d="M169.25 184.449h175.5v-80"/><text class="b869dbbc-48c3-4e39-8a20-dc884db49042" transform="translate(164.25 87.104)">Broker B</text><path class="f531c941-adc1-4c52-b447-fe7d44220596" d="M164.25 99.449h175.5v80h-175.5z"/><path class="e84500fa-867a-4068-9fea-c3bbe1031ec1" transform="rotate(-180 252 146.949)" d="M179.5 129.449h145v35h-145z"/><text class="f4f2b5e1-94da-4754-a880-3a80e82a39c5" transform="translate(226.434 150.233)">multicast</text><text class="b869dbbc-48c3-4e39-8a20-dc884db49042" transform="translate(179.313 118.652)">Addresses</text><path class="a6c5abe6-80a2-4243-afa7-19039a134150" d="M395.25 62h220.5v147h-220.5z"/><path class="adf3ebef-6e91-4e1b-af16-f08928b59a54" d="M425.25 189.449h175.5v-80"/><path class="adf3ebef-6e91-4e1b-af16-f08928b59a54" d="M420.25 184.449h175.5v-80"/><text class="b869dbbc-48c3-4e39-8a20-dc884db49042" transform="translate(415.25 87.104)">Broker A</text><path class="f531c941-adc1-4c52-b447-fe7d44220596" d="M415.25 99.449h175.5v80h-175.5z"/><path class="e84500fa-867a-4068-9fea-c3bbe1031ec1" transform="rotate(-180 503 146.949)" d="M430.5 129.449h145v35h-145z"/><text class="f4f2b5e1-94da-4754-a880-3a80e82a39c5" transform="translate(482.434 150.233)">multicast</text><text class="b869dbbc-48c3-4e39-8a20-dc884db49042" transform="translate(430.313 118.652)">Addresses</text><path class="a6c5abe6-80a2-4243-afa7-19039a134150" d="M144.25 416h220.5v147h-220.5z"/><path class="adf3ebef-6e91-4e1b-af16-f08928b59a54" d="M174.25 543.449h175.5v-80"/><path class="adf3ebef-6e91-4e1b-af16-f08928b59a54" d="M169.25 538.449h175.5v-80"/><text class="b869dbbc-48c3-4e39-8a20-dc884db49042" transform="translate(164.25 441.104)">Broker D</text><path class="f531c941-adc1-4c52-b447-fe7d44220596" d="M164.25 453.449h175.5v80h-175.5z"/><path class="e84500fa-867a-4068-9fea-c3bbe1031ec1" transform="rotate(-180 252 500.949)" d="M179.5 483.449h145v35h-145z"/><text class="f4f2b5e1-94da-4754-a880-3a80e82a39c5" transform="translate(226.434 504.233)">multicast</text><text class="b869dbbc-48c3-4e39-8a20-dc884db49042" transform="translate(179.313 472.652)">Addresses</text><path class="a6c5abe6-80a2-4243-afa7-19039a134150" d="M395.25 416h220.5v147h-220.5z"/><path class="adf3ebef-6e91-4e1b-af16-f08928b59a54" d="M425.25 543.449h175.5v-80"/><path class="adf3ebef-6e91-4e1b-af16-f08928b59a54" d="M420.25 538.449h175.5v-80"/><text class="b869dbbc-48c3-4e39-8a20-dc884db49042" transform="translate(415.25 441.104)">Broker E</text><path class="f531c941-adc1-4c52-b447-fe7d44220596" d="M415.25 453.449h175.5v80h-175.5z"/><path class="e84500fa-867a-4068-9fea-c3bbe1031ec1" transform="rotate(-180 503 500.949)" d="M430.5 483.449h145v35h-145z"/><text class="f4f2b5e1-94da-4754-a880-3a80e82a39c5" transform="translate(477.434 504.233)">multicast</text><text class="b869dbbc-48c3-4e39-8a20-dc884db49042" transform="translate(430.313 472.652)">Addresses</text><path class="a6c5abe6-80a2-4243-afa7-19039a134150" d="M0 239h215.5v147H0z"/><path class="adf3ebef-6e91-4e1b-af16-f08928b59a54" d="M30 366.449h170.5v-80"/><path class="adf3ebef-6e91-4e1b-af16-f08928b59a54" d="M25 361.449h170.5v-80"/><text class="b869dbbc-48c3-4e39-8a20-dc884db49042" transform="translate(20 264.104)">Broker C</text><path class="f531c941-adc1-4c52-b447-fe7d44220596" d="M20 276.449h170.5v80H20z"/><path class="e84500fa-867a-4068-9fea-c3bbe1031ec1" transform="rotate(-180 105.25 323.949)" d="M35.25 306.449h140v35h-140z"/><text class="f4f2b5e1-94da-4754-a880-3a80e82a39c5" transform="translate(82.184 327.233)">multicast</text><text class="b869dbbc-48c3-4e39-8a20-dc884db49042" transform="translate(35.063 295.652)">Addresses</text><path class="a6c5abe6-80a2-4243-afa7-19039a134150" d="M539.5 239H760v147H539.5z"/><path class="adf3ebef-6e91-4e1b-af16-f08928b59a54" d="M569.5 366.449H745v-80"/><path class="adf3ebef-6e91-4e1b-af16-f08928b59a54" d="M564.5 361.449H740v-80"/><text class="b869dbbc-48c3-4e39-8a20-dc884db49042" transform="translate(559.5 264.104)">Broker F</text><path class="f531c941-adc1-4c52-b447-fe7d44220596" d="M559.5 276.449H735v80H559.5z"/><path class="e84500fa-867a-4068-9fea-c3bbe1031ec1" transform="rotate(-180 647.25 323.949)" d="M574.75 306.449h145v35h-145z"/><text class="f4f2b5e1-94da-4754-a880-3a80e82a39c5" transform="translate(621.684 327.233)">multicast</text><g><path class="ad372ab9-d7ef-4ffa-b9d7-8360899685b4" d="M107.75 296.773v-1.5"/><path class="fc2506a6-e4f9-4a73-9fe1-4d6ac1aebb98" d="M107.75 292.276V149.947"/><path class="ad372ab9-d7ef-4ffa-b9d7-8360899685b4" d="M107.75 148.449v-1.5h1.5"/><path stroke-dasharray="2.993 2.993" stroke="#06c" stroke-linecap="round" stroke-linejoin="round" fill="none" d="M112.243 146.949h64.355"/><path class="ad372ab9-d7ef-4ffa-b9d7-8360899685b4" d="M178.095 146.949h1.5"/><path class="e84500fa-867a-4068-9fea-c3bbe1031ec1" d="M112.736 295.314l-4.986 8.635-4.986-8.635h9.972z"/></g><g><path class="ad372ab9-d7ef-4ffa-b9d7-8360899685b4" d="M647.25 306.449v-1.5"/><path stroke-dasharray="2.953 2.953" stroke="#06c" stroke-linecap="round" stroke-linejoin="round" fill="none" d="M647.25 301.996V149.925"/><path class="ad372ab9-d7ef-4ffa-b9d7-8360899685b4" d="M647.25 148.449v-1.5h-1.5"/><path stroke-dasharray="3.109 3.109" stroke="#06c" stroke-linecap="round" stroke-linejoin="round" fill="none" d="M642.64 146.949h-54.41"/><path class="ad372ab9-d7ef-4ffa-b9d7-8360899685b4" d="M586.676 146.949h-1.5"/><path class="e84500fa-867a-4068-9fea-c3bbe1031ec1" d="M586.635 141.963L578 146.949l8.635 4.986v-9.972z"/></g><g><path class="ad372ab9-d7ef-4ffa-b9d7-8360899685b4" d="M430.5 146.949H429"/><path class="f9cb1aff-0460-498e-ac8d-dbb9a4d97f25" d="M425.989 146.949h-88.823"/><path class="ad372ab9-d7ef-4ffa-b9d7-8360899685b4" d="M335.66 146.949h-1.5"/><path class="e84500fa-867a-4068-9fea-c3bbe1031ec1" d="M335.619 141.963l-8.635 4.986 8.635 4.986v-9.972z"/></g><g><path class="ad372ab9-d7ef-4ffa-b9d7-8360899685b4" d="M420.824 500.934h-1.5"/><path class="f9cb1aff-0460-498e-ac8d-dbb9a4d97f25" d="M416.313 500.934H327.49"/><path class="ad372ab9-d7ef-4ffa-b9d7-8360899685b4" d="M325.984 500.934h-1.5"/><path class="e84500fa-867a-4068-9fea-c3bbe1031ec1" d="M419.365 495.948l8.635 4.986-8.635 4.986v-9.972z"/></g><g><path class="ad372ab9-d7ef-4ffa-b9d7-8360899685b4" d="M107.75 341.449v1.5"/><path stroke-dasharray="2.953 2.953" stroke="#06c" stroke-linecap="round" stroke-linejoin="round" fill="none" d="M107.75 345.901v152.057"/><path class="ad372ab9-d7ef-4ffa-b9d7-8360899685b4" d="M107.75 499.434v1.5h1.5"/><path stroke-dasharray="3.114 3.114" stroke="#06c" stroke-linecap="round" stroke-linejoin="round" fill="none" d="M112.364 500.934h54.497"/><path class="ad372ab9-d7ef-4ffa-b9d7-8360899685b4" d="M168.418 500.934h1.5"/><path class="e84500fa-867a-4068-9fea-c3bbe1031ec1" d="M168.459 505.92l8.636-4.986-8.636-4.986v9.972z"/></g><g><path class="ad372ab9-d7ef-4ffa-b9d7-8360899685b4" d="M647.25 351.11v1.5"/><path class="fc2506a6-e4f9-4a73-9fe1-4d6ac1aebb98" d="M647.25 355.607v142.329"/><path class="ad372ab9-d7ef-4ffa-b9d7-8360899685b4" d="M647.25 499.434v1.5h-1.5"/><path stroke-dasharray="2.989 2.989" stroke="#06c" stroke-linecap="round" stroke-linejoin="round" fill="none" d="M642.76 500.934h-64.266"/><path class="ad372ab9-d7ef-4ffa-b9d7-8360899685b4" d="M577 500.934h-1.5"/><path class="e84500fa-867a-4068-9fea-c3bbe1031ec1" d="M642.263 352.569l4.987-8.635 4.986 8.635h-9.973z"/></g><text class="b869dbbc-48c3-4e39-8a20-dc884db49042" transform="translate(574.75 295.652)">Addresses</text><g><path class="ad372ab9-d7ef-4ffa-b9d7-8360899685b4" d="M27.31 24h-1.5"/><path stroke-dasharray="3.427 3.427" stroke="#06c" stroke-linecap="round" stroke-linejoin="round" fill="none" d="M22.383 24H10.39"/><path class="ad372ab9-d7ef-4ffa-b9d7-8360899685b4" d="M8.676 24h-1.5"/><path class="e84500fa-867a-4068-9fea-c3bbe1031ec1" d="M8.635 19.013L0 24l8.635 4.986v-9.973z"/><text transform="translate(35 27.324)" font-family="RedHatText,&quot;Red Hat Text&quot;,Overpass,&quot;Helvetica Neue&quot;,Arial,sans-serif" font-weight="500" font-size="10" fill="#151515">Address Federation</text></g><path stroke="#e8e8e8" stroke-miterlimit="10" fill="none" d="M0 44.943h760"/><g><text transform="translate(690.661 562.936)" fill="#f3f3f3" font-family="RedHatText,&quot;Red Hat Text&quot;,Overpass,&quot;Helvetica Neue&quot;,Arial,sans-serif" font-size="10">120_AMQ_1020</text><path fill="none" d="M0 539.919h760v40H0z"/></g></svg>