<svg id="aea3e825-e7f6-4a95-8bac-b35ca3333d36" data-name="Layer 1" xmlns="http://www.w3.org/2000/svg" width="760" height="483.675"><defs><style>.b99236ea-4fc2-4e33-9b10-afd0ba6635dc{fill:#e8e8e8}.b7166573-825c-497d-bfee-9c56ad7e2dc6,.b7a34feb-7e63-4781-b2a0-ecbff22c4635,.bc3ae8fb-0e53-4621-802d-f187c3f8b25e,.f4da0a36-86eb-433e-9f9d-5fec7604fae9,.f783eea4-9fea-4ca7-b607-05a0c06dadb5{fill:none}.b7166573-825c-497d-bfee-9c56ad7e2dc6{stroke:#d5d5d5;stroke-miterlimit:10}.f783eea4-9fea-4ca7-b607-05a0c06dadb5{stroke-miterlimit:10}.b7166573-825c-497d-bfee-9c56ad7e2dc6,.b7a34feb-7e63-4781-b2a0-ecbff22c4635,.b9203bc3-4806-4416-ae8f-8802b339804b{stroke-width:1.5px}.ba3861dc-2063-4b4e-87b9-bb3b7411b374,.e612556c-8340-4a24-ae82-2b13134d0c3c,.fc6c1532-73ff-41f4-a82b-a618fe1ac79c{font-size:12px}.ab53f3fe-88ae-4fe6-846e-34cd847557b4,.ba3861dc-2063-4b4e-87b9-bb3b7411b374,.efcfb7ab-c339-4990-b879-9fc6c35f7c01,.fc6c1532-73ff-41f4-a82b-a618fe1ac79c{fill:#151515}.fc6c1532-73ff-41f4-a82b-a618fe1ac79c{font-family:RedHatText,&quot;Red Hat Text&quot;,Overpass,&quot;Helvetica Neue&quot;,Arial,sans-serif;font-weight:700}.a7c8c8bd-7357-4db0-8a41-620a64c4a87f,.b9203bc3-4806-4416-ae8f-8802b339804b,.e612556c-8340-4a24-ae82-2b13134d0c3c{fill:#fff}.a1d1526f-16eb-4018-b0b9-dc5bf3d95c46{fill:#06c}.e612556c-8340-4a24-ae82-2b13134d0c3c{font-family:RedHatText,&quot;Red Hat Text&quot;,Overpass,&quot;Helvetica Neue&quot;,Arial,sans-serif;font-style:italic;font-weight:500}.bc3ae8fb-0e53-4621-802d-f187c3f8b25e,.f783eea4-9fea-4ca7-b607-05a0c06dadb5{stroke:#151515}.b7a34feb-7e63-4781-b2a0-ecbff22c4635,.b9203bc3-4806-4416-ae8f-8802b339804b,.bc3ae8fb-0e53-4621-802d-f187c3f8b25e,.f4da0a36-86eb-433e-9f9d-5fec7604fae9{stroke-linecap:round;stroke-linejoin:round}.f4da0a36-86eb-433e-9f9d-5fec7604fae9{stroke:#06c}.ba3861dc-2063-4b4e-87b9-bb3b7411b374,.efcfb7ab-c339-4990-b879-9fc6c35f7c01{font-family:RedHatText,&quot;Red Hat Text&quot;,Overpass,&quot;Helvetica Neue&quot;,Arial,sans-serif;font-weight:500}.efcfb7ab-c339-4990-b879-9fc6c35f7c01{font-size:9px}.b7a34feb-7e63-4781-b2a0-ecbff22c4635,.b9203bc3-4806-4416-ae8f-8802b339804b{stroke:#5b5b5b}</style></defs><path class="b99236ea-4fc2-4e33-9b10-afd0ba6635dc" d="M0 133.533h275.5v207H0zM484.5 133.533H760v207H484.5z"/><path class="b7166573-825c-497d-bfee-9c56ad7e2dc6" d="M30 270.982h235.5v-85"/><path class="b7166573-825c-497d-bfee-9c56ad7e2dc6" d="M25 265.982h235.5v-85M514.5 270.982H750v-85"/><path class="b7166573-825c-497d-bfee-9c56ad7e2dc6" d="M509.5 265.982H745v-85"/><text class="fc6c1532-73ff-41f4-a82b-a618fe1ac79c" transform="translate(20 158.62)">Broker A</text><path class="a7c8c8bd-7357-4db0-8a41-620a64c4a87f" d="M20 175.982h235.5v85H20z"/><path class="a1d1526f-16eb-4018-b0b9-dc5bf3d95c46" transform="rotate(-180 137.75 228.482)" d="M35.25 210.982h205v35h-205z"/><text class="e612556c-8340-4a24-ae82-2b13134d0c3c" transform="translate(112.184 231.766)">multicast</text><text class="fc6c1532-73ff-41f4-a82b-a618fe1ac79c" transform="translate(35.063 200.185)">Addresses</text><path class="bc3ae8fb-0e53-4621-802d-f187c3f8b25e" d="M137.75 275.945v-29.963"/><path class="ab53f3fe-88ae-4fe6-846e-34cd847557b4" d="M142.736 274.486l-4.986 8.635-4.986-8.635h9.972z"/><text class="fc6c1532-73ff-41f4-a82b-a618fe1ac79c" transform="translate(504.5 158.62)">Broker B</text><path class="a7c8c8bd-7357-4db0-8a41-620a64c4a87f" d="M504.5 175.982H740v85H504.5z"/><path class="a1d1526f-16eb-4018-b0b9-dc5bf3d95c46" transform="rotate(-180 622.25 228.482)" d="M519.75 210.982h205v35h-205z"/><text class="e612556c-8340-4a24-ae82-2b13134d0c3c" transform="translate(596.684 231.766)">multicast</text><text class="fc6c1532-73ff-41f4-a82b-a618fe1ac79c" transform="translate(519.563 200.185)">Addresses</text><path class="a7c8c8bd-7357-4db0-8a41-620a64c4a87f" d="M504.5 285.621H740v35H504.5z"/><path class="f4da0a36-86eb-433e-9f9d-5fec7604fae9" d="M495.074 303.121h-1.5"/><path stroke-dasharray="2.998 2.998" stroke="#06c" stroke-linecap="round" stroke-linejoin="round" fill="none" d="M490.576 303.121H258.261"/><path class="f4da0a36-86eb-433e-9f9d-5fec7604fae9" d="M256.762 303.121h-1.5"/><path class="a1d1526f-16eb-4018-b0b9-dc5bf3d95c46" d="M493.615 298.135l8.635 4.986-8.635 4.986v-9.972z"/><text class="ba3861dc-2063-4b4e-87b9-bb3b7411b374" transform="translate(600.122 306.406)">Queue 1</text><text class="ba3861dc-2063-4b4e-87b9-bb3b7411b374" transform="translate(328.851 296.445)">Queue Federation</text><path class="b99236ea-4fc2-4e33-9b10-afd0ba6635dc" d="M20 409.175h235.5v35H20z"/><text class="fc6c1532-73ff-41f4-a82b-a618fe1ac79c" transform="translate(103.952 429.999)">Consumer 1</text><path class="b99236ea-4fc2-4e33-9b10-afd0ba6635dc" d="M504.5 409.175H740v35H504.5z"/><text class="fc6c1532-73ff-41f4-a82b-a618fe1ac79c" transform="translate(587.181 429.999)">Consumer 2</text><path class="b99236ea-4fc2-4e33-9b10-afd0ba6635dc" d="M20 20h235.5v35H20z"/><text class="fc6c1532-73ff-41f4-a82b-a618fe1ac79c" transform="translate(110.121 40.824)">Producer</text><path class="bc3ae8fb-0e53-4621-802d-f187c3f8b25e" d="M137.75 201.306V55"/><path class="ab53f3fe-88ae-4fe6-846e-34cd847557b4" d="M142.736 199.847l-4.986 8.635-4.986-8.635h9.972z"/><path class="a7c8c8bd-7357-4db0-8a41-620a64c4a87f" d="M102.163 90.824h71.174v30.699h-71.174z"/><g><text class="efcfb7ab-c339-4990-b879-9fc6c35f7c01" transform="translate(116.51 114.756)">Message 1</text><path class="b9203bc3-4806-4416-ae8f-8802b339804b" d="M149.5 99.703H126V73.495l5.875-5.824H149.5v32.032z"/><path class="b7a34feb-7e63-4781-b2a0-ecbff22c4635" d="M131.875 73.495H126l5.875-5.824v5.824zM130.406 77.863h7.344M130.406 82.231h14.688M130.406 86.599h14.688M130.406 90.967h14.688"/></g><path class="a7c8c8bd-7357-4db0-8a41-620a64c4a87f" d="M20 285.621h235.5v35H20z"/><text class="ba3861dc-2063-4b4e-87b9-bb3b7411b374" transform="translate(115.622 306.406)">Queue 1</text><g><path class="f783eea4-9fea-4ca7-b607-05a0c06dadb5" d="M137.75 320.608v78.967"/><path class="ab53f3fe-88ae-4fe6-846e-34cd847557b4" d="M132.764 398.116l4.986 8.635 4.986-8.635h-9.972z"/><path class="a7c8c8bd-7357-4db0-8a41-620a64c4a87f" d="M102.163 356.932h71.174v30.699h-71.174z"/><g><text class="efcfb7ab-c339-4990-b879-9fc6c35f7c01" transform="translate(116.511 380.864)">Message 1</text><path class="b9203bc3-4806-4416-ae8f-8802b339804b" d="M149.501 365.811h-23.5v-26.207l5.875-5.824h17.625v32.031z"/><path class="b7a34feb-7e63-4781-b2a0-ecbff22c4635" d="M131.876 339.604h-5.875l5.875-5.824v5.824zM130.407 343.972h7.344M130.407 348.34h14.687M130.407 352.707h14.687M130.407 357.075h14.687"/></g></g><g><path class="f783eea4-9fea-4ca7-b607-05a0c06dadb5" d="M622.25 320.608v78.967"/><path class="ab53f3fe-88ae-4fe6-846e-34cd847557b4" d="M617.263 398.116l4.987 8.635 4.986-8.635h-9.973z"/><path class="a7c8c8bd-7357-4db0-8a41-620a64c4a87f" d="M586.663 356.932h71.174v30.699h-71.174z"/><g><text class="efcfb7ab-c339-4990-b879-9fc6c35f7c01" transform="translate(601.01 380.864)">Message 1</text><path class="b9203bc3-4806-4416-ae8f-8802b339804b" d="M634 365.811h-23.5v-26.207l5.875-5.824H634v32.031z"/><path class="b7a34feb-7e63-4781-b2a0-ecbff22c4635" d="M616.375 339.604H610.5l5.875-5.824v5.824zM614.906 343.972h7.344M614.906 348.34h14.688M614.906 352.707h14.688M614.906 357.075h14.688"/></g></g><g><text transform="translate(690.661 466.693)" font-size="10" fill="#f3f3f3" font-family="RedHatText,&quot;Red Hat Text&quot;,Overpass,&quot;Helvetica Neue&quot;,Arial,sans-serif">120_AMQ_1020</text><path fill="none" d="M0 443.675h760v40H0z"/></g></svg>