<svg id="a387e084-0d6d-4a46-8ab7-d3861b8dd97e" data-name="artwork" xmlns="http://www.w3.org/2000/svg" width="760" height="524.218"><defs><style>.b9a9c9d9-87d7-479a-8c95-add05141c48b{font-size:12px;font-family:RedHatText,&quot;Red Hat Text&quot;,Overpass,&quot;Helvetica Neue&quot;,Arial,sans-serif;font-weight:500;fill:#151515}.f8d4deb5-4e10-4966-8a86-78fcc8f92a11{fill:#151515}.a22a300a-9fdb-46b3-9360-45bf7c684a8b,.e83d103e-c079-4fb7-b12f-ca4b10d4447d,.f8e0a708-049c-4cdd-8eb8-a732ae0c50f6,.ff271b8b-3d6a-4173-9f7c-e0199d93d7ce{fill:none}.e83d103e-c079-4fb7-b12f-ca4b10d4447d,.f8e0a708-049c-4cdd-8eb8-a732ae0c50f6,.ff271b8b-3d6a-4173-9f7c-e0199d93d7ce{stroke:#06c}.a22a300a-9fdb-46b3-9360-45bf7c684a8b,.e83d103e-c079-4fb7-b12f-ca4b10d4447d,.f8e0a708-049c-4cdd-8eb8-a732ae0c50f6,.ff271b8b-3d6a-4173-9f7c-e0199d93d7ce{stroke-linecap:round;stroke-linejoin:round}.a22a300a-9fdb-46b3-9360-45bf7c684a8b,.f8e0a708-049c-4cdd-8eb8-a732ae0c50f6{stroke-width:2px}.a22a300a-9fdb-46b3-9360-45bf7c684a8b{stroke:#4cb6d6}.b8d8d85a-ac21-40f1-a68f-b2e629d14b91{fill:#e8e8e8}.f8d4deb5-4e10-4966-8a86-78fcc8f92a11{font-size:14px;font-family:RedHatText,&quot;Red Hat Text&quot;,Overpass,&quot;Helvetica Neue&quot;,Arial,sans-serif;font-weight:700}.f8f548e3-dc15-47be-a3bc-05af63cb91e4{fill:#fff}.b6330101-eae3-4bc9-8996-f18569100a75{fill:#d5d5d5}.e83d103e-c079-4fb7-b12f-ca4b10d4447d{stroke-dasharray:3.4 3.4}.b06f50e5-17a7-4b56-b9ec-4a8cf5a90893{font-size:11px;font-family:LiberationMono,&quot;Liberation Mono&quot;,Consolas,Monaco,&quot;Andale Mono&quot;,monospace;font-weight:400}</style></defs><text class="b9a9c9d9-87d7-479a-8c95-add05141c48b" transform="translate(467.089 152.904)">Pod network<tspan x="0" y="15">10.128.0.0/14</tspan></text><path class="f8e0a708-049c-4cdd-8eb8-a732ae0c50f6" d="M424.774 117.5h34.817v321.718h-34.498"/><text class="b9a9c9d9-87d7-479a-8c95-add05141c48b" transform="translate(597.089 152.904)">Infrastructure network<tspan x="0" y="15">192.168.126.0/18</tspan></text><path class="a22a300a-9fdb-46b3-9360-45bf7c684a8b" d="M424.614 97.501h164.977v361.717H424.933"/><path class="b8d8d85a-ac21-40f1-a68f-b2e629d14b91" d="M633.07 220h127v95h-127z"/><text class="f8d4deb5-4e10-4966-8a86-78fcc8f92a11" transform="translate(653.07 251.788)">External<tspan x="0" y="15">service</tspan></text><path class="f8e0a708-049c-4cdd-8eb8-a732ae0c50f6" d="M459.591 260H425.07"/><path stroke="#fff" stroke-width="8" stroke-linecap="round" stroke-linejoin="round" fill="none" d="M469.591 240H425.07"/><path class="a22a300a-9fdb-46b3-9360-45bf7c684a8b" d="M589.591 240H425.07M589.591 267.5h33.803"/><path fill="#4cb6d6" d="M621.935 272.486l8.635-4.986-8.635-4.986v9.972z"/><path class="f8f548e3-dc15-47be-a3bc-05af63cb91e4" d="M464.185 87.706h83.558v20.426h-83.558z"/><text class="b9a9c9d9-87d7-479a-8c95-add05141c48b" transform="translate(467.089 101.647)">192.168.126.10</text><path class="f8f548e3-dc15-47be-a3bc-05af63cb91e4" d="M464.185 449.005h91.058v20.426h-91.058z"/><text class="b9a9c9d9-87d7-479a-8c95-add05141c48b" transform="translate(467.089 462.946)">192.168.126.102</text><path class="b8d8d85a-ac21-40f1-a68f-b2e629d14b91" d="M.07 55h425v135H.07zM.07 374.218h425v130H.07zM.07 220h425v95H.07z"/><path class="b6330101-eae3-4bc9-8996-f18569100a75" d="M394.996 444.218H265.07l.075-70H395.07l-.074 70z"/><path class="b8d8d85a-ac21-40f1-a68f-b2e629d14b91" d="M394.996 339.218H265.07l.075 35H395.07l-.074-35z"/><path class="b6330101-eae3-4bc9-8996-f18569100a75" d="M265.107 55h129.925v135H265.107zM394.996 290H265.07l.075-70H395.07l-.074 70z"/><path class="b8d8d85a-ac21-40f1-a68f-b2e629d14b91" d="M394.996 20H265.07l.075 35H395.07l-.074-35zM394.996 190H265.07l.075 30H395.07l-.074-30z"/><path class="ff271b8b-3d6a-4173-9f7c-e0199d93d7ce" d="M385.07 140h1.5"/><path class="e83d103e-c079-4fb7-b12f-ca4b10d4447d" d="M389.97 140h11.9"/><path class="ff271b8b-3d6a-4173-9f7c-e0199d93d7ce" d="M403.57 140h1.5v-1.5"/><path stroke-dasharray="2.8 2.8" stroke-linecap="round" stroke-linejoin="round" stroke="#06c" fill="none" d="M405.07 135.7V97.9"/><path class="ff271b8b-3d6a-4173-9f7c-e0199d93d7ce" d="M405.07 96.5V95h-1.5"/><path class="e83d103e-c079-4fb7-b12f-ca4b10d4447d" d="M400.17 95h-11.9"/><path class="ff271b8b-3d6a-4173-9f7c-e0199d93d7ce" d="M386.57 95h-1.5M425.07 117.5h-1.5"/><path stroke-dasharray="3.3 3.3" stroke-linecap="round" stroke-linejoin="round" stroke="#06c" fill="none" d="M420.27 117.5h-11.55"/><path class="ff271b8b-3d6a-4173-9f7c-e0199d93d7ce" d="M407.07 117.5h-1.5"/><path class="f8f548e3-dc15-47be-a3bc-05af63cb91e4" d="M275.07 394.218h110v40h-110z"/><text class="b9a9c9d9-87d7-479a-8c95-add05141c48b" transform="translate(315.251 417.542)">pod4</text><text class="f8d4deb5-4e10-4966-8a86-78fcc8f92a11" transform="translate(20.07 406.006)">Node 3<tspan class="b06f50e5-17a7-4b56-b9ec-4a8cf5a90893"><tspan x="0" y="26">meta:</tspan><tspan x="0" y="39"> name: node3</tspan><tspan x="0" y="52"> labels:</tspan><tspan x="0" y="65"> k8s.ovn.org/egress-assignable: &quot;&quot;</tspan></tspan></text><path class="f8f548e3-dc15-47be-a3bc-05af63cb91e4" d="M275.07 120h110v40h-110z"/><text class="b9a9c9d9-87d7-479a-8c95-add05141c48b" transform="translate(315.736 143.323)">pod2</text><path class="f8f548e3-dc15-47be-a3bc-05af63cb91e4" d="M275.07 75h110v40h-110z"/><text class="b9a9c9d9-87d7-479a-8c95-add05141c48b" transform="translate(317.104 98.323)">pod1</text><text class="f8d4deb5-4e10-4966-8a86-78fcc8f92a11" transform="translate(20.07 86.788)">Node 1<tspan class="b06f50e5-17a7-4b56-b9ec-4a8cf5a90893"><tspan x="0" y="26">meta:</tspan><tspan x="0" y="39"> name: node1</tspan><tspan x="0" y="52"> labels:</tspan><tspan x="0" y="65"> k8s.ovn.org/egress-assignable: &quot;&quot;</tspan></tspan></text><text class="f8d4deb5-4e10-4966-8a86-78fcc8f92a11" transform="translate(20.07 251.788)">Node 2<tspan class="b06f50e5-17a7-4b56-b9ec-4a8cf5a90893"><tspan x="0" y="26">meta:</tspan><tspan x="0" y="39"> name: node2</tspan></tspan></text><g><path class="ff271b8b-3d6a-4173-9f7c-e0199d93d7ce" d="M425.07 260h-1.5"/><path stroke-dasharray="2.846 2.846" stroke-linecap="round" stroke-linejoin="round" stroke="#06c" fill="none" d="M420.724 260h-32.731"/><path class="ff271b8b-3d6a-4173-9f7c-e0199d93d7ce" d="M386.57 260h-1.5"/></g><path class="f8f548e3-dc15-47be-a3bc-05af63cb91e4" d="M275.07 240h110v40h-110z"/><text class="b9a9c9d9-87d7-479a-8c95-add05141c48b" transform="translate(315.514 263.323)">pod3</text><text class="b9a9c9d9-87d7-479a-8c95-add05141c48b" transform="translate(296.117 43.531)">namespace1</text><text class="b9a9c9d9-87d7-479a-8c95-add05141c48b" transform="translate(294.749 362.742)">namespace2</text><g><text transform="translate(671.012 507.235)" font-size="10" fill="#f3f3f3" font-family="RedHatText,&quot;Red Hat Text&quot;,Overpass,&quot;Helvetica Neue&quot;,Arial,sans-serif">121_OpenShift_1020</text><path fill="none" d="M0 484.218h760v40H0z"/></g></svg>