<svg id="b6b27a4f-2090-4f7c-a3b8-802c2f4d32c2" data-name="Layer 1" xmlns="http://www.w3.org/2000/svg" width="760" height="503.466"><defs><style>.f44300c4-3a5e-41fe-b08b-1f91a570ea35{fill:#e8e8e8}.bd4fa3f2-bdd8-4547-a184-653d31198cc5,.e2f87176-32fb-4fa1-b192-40b8751bfe68,.f0b11fbe-c668-41e0-8d2f-f4dac6665620,.fd9c73a9-3211-4625-9111-1edab8bfbd3c{fill:none}.e2f87176-32fb-4fa1-b192-40b8751bfe68{stroke:#d5d5d5;stroke-miterlimit:10}.f0b11fbe-c668-41e0-8d2f-f4dac6665620{stroke-miterlimit:10}.bd4fa3f2-bdd8-4547-a184-653d31198cc5,.bff07d51-337d-4f65-9b1f-5196738da386,.e2f87176-32fb-4fa1-b192-40b8751bfe68{stroke-width:1.5px}.b9c92d3a-2301-41cf-918b-4495fbe58ee3,.f528eb0c-9b6e-4296-a830-17b95254b8af{font-size:12px}.aea2c72b-ec4f-4737-b054-c1d2f8878217,.b12803e5-0e22-428d-b259-818c6a51e76c,.b9c92d3a-2301-41cf-918b-4495fbe58ee3{fill:#151515}.b9c92d3a-2301-41cf-918b-4495fbe58ee3{font-family:RedHatText,&quot;Red Hat Text&quot;,Overpass,&quot;Helvetica Neue&quot;,Arial,sans-serif;font-weight:700}.ad87dbeb-6070-462d-8d47-a01655091a8c,.bff07d51-337d-4f65-9b1f-5196738da386,.f528eb0c-9b6e-4296-a830-17b95254b8af{fill:#fff}.bb19da82-fa14-49f1-810c-6ce8b4db831b{fill:#06c}.f528eb0c-9b6e-4296-a830-17b95254b8af{font-family:RedHatText,&quot;Red Hat Text&quot;,Overpass,&quot;Helvetica Neue&quot;,Arial,sans-serif;font-style:italic;font-weight:500}.f0b11fbe-c668-41e0-8d2f-f4dac6665620{stroke:#151515}.fd9c73a9-3211-4625-9111-1edab8bfbd3c{stroke:#06c}.bd4fa3f2-bdd8-4547-a184-653d31198cc5,.bff07d51-337d-4f65-9b1f-5196738da386,.fd9c73a9-3211-4625-9111-1edab8bfbd3c{stroke-linecap:round;stroke-linejoin:round}.aea2c72b-ec4f-4737-b054-c1d2f8878217{font-family:RedHatText,&quot;Red Hat Text&quot;,Overpass,&quot;Helvetica Neue&quot;,Arial,sans-serif;font-weight:500;font-size:9px}.bd4fa3f2-bdd8-4547-a184-653d31198cc5,.bff07d51-337d-4f65-9b1f-5196738da386{stroke:#5b5b5b}</style></defs><path class="f44300c4-3a5e-41fe-b08b-1f91a570ea35" d="M484.5 133.033H760v227H484.5zM0 133.033h275.5v227H0z"/><path class="e2f87176-32fb-4fa1-b192-40b8751bfe68" d="M30 270.482h235.5v-85"/><path class="e2f87176-32fb-4fa1-b192-40b8751bfe68" d="M25 265.482h235.5v-85M514.5 270.482H750v-85"/><path class="e2f87176-32fb-4fa1-b192-40b8751bfe68" d="M509.5 265.482H745v-85"/><text class="b9c92d3a-2301-41cf-918b-4495fbe58ee3" transform="translate(20 158.12)">Broker A</text><path class="f44300c4-3a5e-41fe-b08b-1f91a570ea35" d="M20.25 428.675h110v35h-110z"/><text class="b9c92d3a-2301-41cf-918b-4495fbe58ee3" transform="translate(41.452 449.5)">Consumer 1</text><path class="f44300c4-3a5e-41fe-b08b-1f91a570ea35" d="M145 428.675h110.5v35H145z"/><text class="b9c92d3a-2301-41cf-918b-4495fbe58ee3" transform="translate(165.18 449.5)">Consumer 2</text><path class="ad87dbeb-6070-462d-8d47-a01655091a8c" d="M20 175.482h235.5v85H20z"/><path class="bb19da82-fa14-49f1-810c-6ce8b4db831b" transform="rotate(-180 137.75 227.982)" d="M35.25 210.482h205v35h-205z"/><text class="f528eb0c-9b6e-4296-a830-17b95254b8af" transform="translate(112.184 231.267)">multicast</text><path class="ad87dbeb-6070-462d-8d47-a01655091a8c" transform="rotate(-180 200.25 322.741)" d="M145.25 305.241h110v35h-110z"/><text class="b9c92d3a-2301-41cf-918b-4495fbe58ee3" transform="translate(175.98 327.064)">Queue 2</text><path class="ad87dbeb-6070-462d-8d47-a01655091a8c" transform="rotate(-180 75.25 322.741)" d="M20.25 305.241h110v35h-110z"/><text class="b9c92d3a-2301-41cf-918b-4495fbe58ee3" transform="translate(52.252 327.064)">Queue 1</text><path class="f0b11fbe-c668-41e0-8d2f-f4dac6665620" d="M137.75 245.482v40M75.25 295.565v-10.083h125v10.083"/><path class="b12803e5-0e22-428d-b259-818c6a51e76c" d="M80.236 294.106l-4.986 8.635-4.987-8.635h9.973zM195.264 294.106l4.986 8.635 4.986-8.635h-9.972z"/><text class="b9c92d3a-2301-41cf-918b-4495fbe58ee3" transform="translate(504.5 158.12)">Broker B</text><path class="f44300c4-3a5e-41fe-b08b-1f91a570ea35" d="M504.75 428.675h110v35h-110z"/><text class="b9c92d3a-2301-41cf-918b-4495fbe58ee3" transform="translate(525.952 449.5)">Consumer 1</text><path class="f44300c4-3a5e-41fe-b08b-1f91a570ea35" d="M629.75 428.675h110v35h-110z"/><text class="b9c92d3a-2301-41cf-918b-4495fbe58ee3" transform="translate(649.68 449.5)">Consumer 2</text><path class="ad87dbeb-6070-462d-8d47-a01655091a8c" d="M504.5 175.482H740v85H504.5z"/><path class="bb19da82-fa14-49f1-810c-6ce8b4db831b" transform="rotate(-180 622.25 227.982)" d="M519.75 210.482h205v35h-205z"/><text class="f528eb0c-9b6e-4296-a830-17b95254b8af" transform="translate(596.684 231.267)">multicast</text><path class="ad87dbeb-6070-462d-8d47-a01655091a8c" transform="rotate(-180 684.75 322.741)" d="M629.75 305.241h110v35h-110z"/><text class="b9c92d3a-2301-41cf-918b-4495fbe58ee3" transform="translate(659.922 327.064)">Queue 4</text><path class="ad87dbeb-6070-462d-8d47-a01655091a8c" transform="rotate(-180 559.75 322.741)" d="M504.75 305.241h110v35h-110z"/><text class="b9c92d3a-2301-41cf-918b-4495fbe58ee3" transform="translate(535.264 327.064)">Queue 3</text><text class="b9c92d3a-2301-41cf-918b-4495fbe58ee3" transform="translate(519.75 199.685)">Addresses</text><path class="f0b11fbe-c668-41e0-8d2f-f4dac6665620" d="M622.25 245.482v40M566.999 295.565v-10.083H677.25v10.083"/><path class="b12803e5-0e22-428d-b259-818c6a51e76c" d="M571.986 294.106l-4.987 8.635-4.986-8.635h9.973zM672.263 294.106l4.987 8.635 4.986-8.635h-9.973z"/><path class="fd9c73a9-3211-4625-9111-1edab8bfbd3c" d="M510.074 227.982h-1.5"/><path stroke-dasharray="3.001 3.001" stroke-linecap="round" stroke-linejoin="round" stroke="#06c" fill="none" d="M505.573 227.982H242.999"/><path class="fd9c73a9-3211-4625-9111-1edab8bfbd3c" d="M241.499 227.982h-1.5"/><path class="bb19da82-fa14-49f1-810c-6ce8b4db831b" d="M508.615 222.996l8.635 4.986-8.635 4.986v-9.972z"/><text transform="translate(324.531 221.306)" font-family="RedHatText,&quot;Red Hat Text&quot;,Overpass,&quot;Helvetica Neue&quot;,Arial,sans-serif" font-weight="500" fill="#151515" font-size="12">Address Federation</text><path stroke-linecap="round" stroke-linejoin="round" stroke="#151515" fill="none" d="M137.75 200.806V55"/><path class="b12803e5-0e22-428d-b259-818c6a51e76c" d="M142.736 199.347l-4.986 8.635-4.986-8.635h9.972z"/><path class="f44300c4-3a5e-41fe-b08b-1f91a570ea35" d="M20 20h235.5v35H20z"/><text class="b9c92d3a-2301-41cf-918b-4495fbe58ee3" transform="translate(106.521 40.824)">Producer 1</text><text class="b9c92d3a-2301-41cf-918b-4495fbe58ee3" transform="translate(35.25 199.685)">Addresses</text><path class="ad87dbeb-6070-462d-8d47-a01655091a8c" d="M102.163 90.824h71.174v30.699h-71.174z"/><g><text class="aea2c72b-ec4f-4737-b054-c1d2f8878217" transform="translate(116.51 114.756)">Message 1</text><path class="bff07d51-337d-4f65-9b1f-5196738da386" d="M149.5 99.703H126V73.495l5.875-5.824H149.5v32.032z"/><path class="bd4fa3f2-bdd8-4547-a184-653d31198cc5" d="M131.875 73.495H126l5.875-5.824v5.824zM130.406 77.863h7.344M130.406 82.231h14.688M130.406 86.599h14.688M130.406 90.967h14.688"/></g><g><path class="f0b11fbe-c668-41e0-8d2f-f4dac6665620" d="M75.25 340.032v78.966"/><path class="b12803e5-0e22-428d-b259-818c6a51e76c" d="M70.264 417.539l4.986 8.636 4.986-8.636h-9.972z"/><path class="ad87dbeb-6070-462d-8d47-a01655091a8c" d="M39.663 376.356h71.174v30.699H39.663z"/><g><text class="aea2c72b-ec4f-4737-b054-c1d2f8878217" transform="translate(54.011 400.288)">Message 1</text><path class="bff07d51-337d-4f65-9b1f-5196738da386" d="M87 385.235H63.5v-26.208l5.875-5.823H87v32.031z"/><path class="bd4fa3f2-bdd8-4547-a184-653d31198cc5" d="M69.375 359.027H63.5l5.875-5.823v5.823zM67.907 363.395h7.343M67.907 367.763h14.687M67.907 372.131h14.687M67.907 376.499h14.687"/></g></g><g><path class="f0b11fbe-c668-41e0-8d2f-f4dac6665620" d="M200.25 340.032v78.966"/><path class="b12803e5-0e22-428d-b259-818c6a51e76c" d="M195.264 417.539l4.986 8.636 4.986-8.636h-9.972z"/><path class="ad87dbeb-6070-462d-8d47-a01655091a8c" d="M164.663 376.356h71.174v30.699h-71.174z"/><g><text class="aea2c72b-ec4f-4737-b054-c1d2f8878217" transform="translate(179.011 400.288)">Message 1</text><path class="bff07d51-337d-4f65-9b1f-5196738da386" d="M212 385.235h-23.5v-26.208l5.875-5.823H212v32.031z"/><path class="bd4fa3f2-bdd8-4547-a184-653d31198cc5" d="M194.375 359.027H188.5l5.875-5.823v5.823zM192.907 363.395h7.343M192.907 367.763h14.687M192.907 372.131h14.687M192.907 376.499h14.687"/></g></g><g><path class="f0b11fbe-c668-41e0-8d2f-f4dac6665620" d="M559.75 340.032v78.966"/><path class="b12803e5-0e22-428d-b259-818c6a51e76c" d="M554.764 417.539l4.986 8.636 4.986-8.636h-9.972z"/><path class="ad87dbeb-6070-462d-8d47-a01655091a8c" d="M524.163 376.356h71.174v30.699h-71.174z"/><g><text class="aea2c72b-ec4f-4737-b054-c1d2f8878217" transform="translate(538.511 400.288)">Message 1</text><path class="bff07d51-337d-4f65-9b1f-5196738da386" d="M571.5 385.235H548v-26.208l5.875-5.823H571.5v32.031z"/><path class="bd4fa3f2-bdd8-4547-a184-653d31198cc5" d="M553.875 359.027H548l5.875-5.823v5.823zM552.407 363.395h7.343M552.407 367.763h14.687M552.407 372.131h14.687M552.407 376.499h14.687"/></g></g><g><path class="f0b11fbe-c668-41e0-8d2f-f4dac6665620" d="M684.75 340.032v78.966"/><path class="b12803e5-0e22-428d-b259-818c6a51e76c" d="M679.764 417.539l4.986 8.636 4.986-8.636h-9.972z"/><path class="ad87dbeb-6070-462d-8d47-a01655091a8c" d="M649.163 376.356h71.174v30.699h-71.174z"/><g><text class="aea2c72b-ec4f-4737-b054-c1d2f8878217" transform="translate(663.511 400.288)">Message 1</text><path class="bff07d51-337d-4f65-9b1f-5196738da386" d="M696.5 385.235H673v-26.208l5.875-5.823H696.5v32.031z"/><path class="bd4fa3f2-bdd8-4547-a184-653d31198cc5" d="M678.875 359.027H673l5.875-5.823v5.823zM677.407 363.395h7.343M677.407 367.763h14.687M677.407 372.131h14.687M677.407 376.499h14.687"/></g></g><g><text transform="translate(690.661 486.483)" font-size="10" fill="#f3f3f3" font-family="RedHatText,&quot;Red Hat Text&quot;,Overpass,&quot;Helvetica Neue&quot;,Arial,sans-serif">120_AMQ_1020</text><path fill="none" d="M0 463.466h760v40H0z"/></g></svg>