<svg id="a3272893-9775-4d2f-8927-63995f3333f1" data-name="Layer 1" xmlns="http://www.w3.org/2000/svg" width="760" height="483.675"><defs><style>.a8233380-948e-45ce-8e04-88c8df61e7d7{fill:#e8e8e8}.a6b52650-0de2-4c59-8052-ae3384470b72,.be4188ec-c286-4c51-9651-44908d40bd41,.e131d946-09de-4bc8-8553-cdd89b6c7e2b,.e2d7df89-67eb-49d8-9c1e-badb03cdc782,.ea8aabf4-8f55-4bd1-ae8f-c5db2eb1dd14{fill:none}.ea8aabf4-8f55-4bd1-ae8f-c5db2eb1dd14{stroke:#d5d5d5}.be4188ec-c286-4c51-9651-44908d40bd41,.ea8aabf4-8f55-4bd1-ae8f-c5db2eb1dd14{stroke-miterlimit:10}.a4bf8eb2-33d1-4c53-9ecd-2ca96f95b367,.a6b52650-0de2-4c59-8052-ae3384470b72,.ea8aabf4-8f55-4bd1-ae8f-c5db2eb1dd14{stroke-width:1.5px}.bc1b78db-d3a9-4a25-9032-3314dd9e651e,.edf40ae5-a807-4d6a-9196-29b330bbb7a5,.fde696f0-1dea-437f-99e8-713e0779058a{font-size:12px}.aadffd9a-e613-42f5-9dd6-36c990a39d7c,.bc1b78db-d3a9-4a25-9032-3314dd9e651e,.bfbcace3-b29a-415f-b8f8-2ed7dbc63971,.edf40ae5-a807-4d6a-9196-29b330bbb7a5{fill:#151515}.edf40ae5-a807-4d6a-9196-29b330bbb7a5{font-family:RedHatText,&quot;Red Hat Text&quot;,Overpass,&quot;Helvetica Neue&quot;,Arial,sans-serif;font-weight:700}.a4bf8eb2-33d1-4c53-9ecd-2ca96f95b367,.b0cf78d2-5071-47fd-b184-4e924b018691,.fde696f0-1dea-437f-99e8-713e0779058a{fill:#fff}.a4211578-2432-4e81-8c37-52e46c6dda73{fill:#06c}.fde696f0-1dea-437f-99e8-713e0779058a{font-family:RedHatText,&quot;Red Hat Text&quot;,Overpass,&quot;Helvetica Neue&quot;,Arial,sans-serif;font-style:italic;font-weight:500}.be4188ec-c286-4c51-9651-44908d40bd41,.e131d946-09de-4bc8-8553-cdd89b6c7e2b{stroke:#151515}.a4bf8eb2-33d1-4c53-9ecd-2ca96f95b367,.a6b52650-0de2-4c59-8052-ae3384470b72,.e131d946-09de-4bc8-8553-cdd89b6c7e2b,.e2d7df89-67eb-49d8-9c1e-badb03cdc782{stroke-linecap:round;stroke-linejoin:round}.e2d7df89-67eb-49d8-9c1e-badb03cdc782{stroke:#06c}.bc1b78db-d3a9-4a25-9032-3314dd9e651e,.bfbcace3-b29a-415f-b8f8-2ed7dbc63971{font-family:RedHatText,&quot;Red Hat Text&quot;,Overpass,&quot;Helvetica Neue&quot;,Arial,sans-serif;font-weight:500}.bfbcace3-b29a-415f-b8f8-2ed7dbc63971{font-size:9px}.a4bf8eb2-33d1-4c53-9ecd-2ca96f95b367,.a6b52650-0de2-4c59-8052-ae3384470b72{stroke:#5b5b5b}</style></defs><path class="a8233380-948e-45ce-8e04-88c8df61e7d7" d="M0 133.533h275.5v207H0zM484.5 133.533H760v207H484.5z"/><path class="ea8aabf4-8f55-4bd1-ae8f-c5db2eb1dd14" d="M30 270.982h235.5v-85"/><path class="ea8aabf4-8f55-4bd1-ae8f-c5db2eb1dd14" d="M25 265.982h235.5v-85M514.5 270.982H750v-85"/><path class="ea8aabf4-8f55-4bd1-ae8f-c5db2eb1dd14" d="M509.5 265.982H745v-85"/><text class="edf40ae5-a807-4d6a-9196-29b330bbb7a5" transform="translate(20 158.62)">Broker A</text><path class="b0cf78d2-5071-47fd-b184-4e924b018691" d="M20 175.982h235.5v85H20z"/><path class="a4211578-2432-4e81-8c37-52e46c6dda73" transform="rotate(-180 137.75 228.482)" d="M35.25 210.982h205v35h-205z"/><text class="fde696f0-1dea-437f-99e8-713e0779058a" transform="translate(112.184 231.767)">multicast</text><text class="edf40ae5-a807-4d6a-9196-29b330bbb7a5" transform="translate(35.063 200.186)">Addresses</text><path class="b0cf78d2-5071-47fd-b184-4e924b018691" d="M20 285.621h235.5v35H20z"/><path class="e131d946-09de-4bc8-8553-cdd89b6c7e2b" d="M137.75 275.945v-29.963"/><path class="aadffd9a-e613-42f5-9dd6-36c990a39d7c" d="M142.736 274.486l-4.986 8.635-4.986-8.635h9.972z"/><text class="edf40ae5-a807-4d6a-9196-29b330bbb7a5" transform="translate(504.5 158.62)">Broker B</text><path class="b0cf78d2-5071-47fd-b184-4e924b018691" d="M504.5 175.982H740v85H504.5z"/><path class="a4211578-2432-4e81-8c37-52e46c6dda73" transform="rotate(-180 622.25 228.482)" d="M519.75 210.982h205v35h-205z"/><text class="fde696f0-1dea-437f-99e8-713e0779058a" transform="translate(596.684 231.767)">multicast</text><text class="edf40ae5-a807-4d6a-9196-29b330bbb7a5" transform="translate(519.563 200.186)">Addresses</text><path class="b0cf78d2-5071-47fd-b184-4e924b018691" d="M504.5 285.621H740v35H504.5z"/><path class="e131d946-09de-4bc8-8553-cdd89b6c7e2b" d="M622.25 275.945v-29.963"/><path class="aadffd9a-e613-42f5-9dd6-36c990a39d7c" d="M627.236 274.486l-4.986 8.635-4.986-8.635h9.972z"/><path class="e2d7df89-67eb-49d8-9c1e-badb03cdc782" d="M495.074 303.121h-1.5"/><path stroke-dasharray="3.032 3.032" stroke="#06c" stroke-linecap="round" stroke-linejoin="round" fill="none" d="M490.542 303.121H267.691"/><path class="e2d7df89-67eb-49d8-9c1e-badb03cdc782" d="M266.175 303.121h-1.5"/><path class="a4211578-2432-4e81-8c37-52e46c6dda73" d="M493.615 298.135l8.635 4.986-8.635 4.987v-9.973zM266.134 298.135l-8.635 4.986 8.635 4.987v-9.973z"/><text class="bc1b78db-d3a9-4a25-9032-3314dd9e651e" transform="translate(115.622 306.406)">Queue 1</text><text class="bc1b78db-d3a9-4a25-9032-3314dd9e651e" transform="translate(600.122 306.406)">Queue 1</text><text class="bc1b78db-d3a9-4a25-9032-3314dd9e651e" transform="translate(296.889 296.445)">Symmetric Queue Federation</text><path class="a8233380-948e-45ce-8e04-88c8df61e7d7" d="M20 409.175h235.5v35H20z"/><text class="edf40ae5-a807-4d6a-9196-29b330bbb7a5" transform="translate(103.952 430)">Consumer 1</text><path class="a8233380-948e-45ce-8e04-88c8df61e7d7" d="M504.5 409.175H740v35H504.5z"/><text class="edf40ae5-a807-4d6a-9196-29b330bbb7a5" transform="translate(587.181 430)">Consumer 2</text><path class="a8233380-948e-45ce-8e04-88c8df61e7d7" d="M20 20h235.5v35H20z"/><text class="edf40ae5-a807-4d6a-9196-29b330bbb7a5" transform="translate(106.521 40.824)">Producer 1</text><path class="a8233380-948e-45ce-8e04-88c8df61e7d7" d="M504.5 20H740v35H504.5z"/><text class="edf40ae5-a807-4d6a-9196-29b330bbb7a5" transform="translate(589.749 40.824)">Producer 2</text><path class="e131d946-09de-4bc8-8553-cdd89b6c7e2b" d="M137.75 201.306V55"/><path class="aadffd9a-e613-42f5-9dd6-36c990a39d7c" d="M142.736 199.847l-4.986 8.635-4.986-8.635h9.972z"/><g><path class="e131d946-09de-4bc8-8553-cdd89b6c7e2b" d="M622.25 201.306V55"/><path class="aadffd9a-e613-42f5-9dd6-36c990a39d7c" d="M627.236 199.847l-4.986 8.635-4.986-8.635h9.972z"/></g><path class="b0cf78d2-5071-47fd-b184-4e924b018691" d="M102.163 90.824h71.174v30.699h-71.174z"/><g><text class="bfbcace3-b29a-415f-b8f8-2ed7dbc63971" transform="translate(116.51 114.756)">Message 1</text><path class="a4bf8eb2-33d1-4c53-9ecd-2ca96f95b367" d="M149.5 99.703H126V73.495l5.875-5.824H149.5v32.032z"/><path class="a6b52650-0de2-4c59-8052-ae3384470b72" d="M131.875 73.495H126l5.875-5.824v5.824zM130.406 77.863h7.344M130.406 82.231h14.688M130.406 86.599h14.688M130.406 90.967h14.688"/></g><path class="b0cf78d2-5071-47fd-b184-4e924b018691" d="M586.663 90.824h71.174v30.699h-71.174z"/><g><text class="bfbcace3-b29a-415f-b8f8-2ed7dbc63971" transform="translate(599.984 114.756)">Message 2</text><path class="a4bf8eb2-33d1-4c53-9ecd-2ca96f95b367" d="M634 99.703h-23.5V73.495l5.875-5.824H634v32.032z"/><path class="a6b52650-0de2-4c59-8052-ae3384470b72" d="M616.375 73.495H610.5l5.875-5.824v5.824zM614.907 77.863h7.343M614.907 82.231h14.687M614.907 86.599h14.687M614.907 90.967h14.687"/></g><g><path class="be4188ec-c286-4c51-9651-44908d40bd41" d="M137.75 320.608v78.967"/><path class="aadffd9a-e613-42f5-9dd6-36c990a39d7c" d="M132.764 398.116l4.986 8.635 4.986-8.635h-9.972z"/><path class="b0cf78d2-5071-47fd-b184-4e924b018691" d="M102.163 356.932h71.174v30.699h-71.174z"/><g><text class="bfbcace3-b29a-415f-b8f8-2ed7dbc63971" transform="translate(116.511 380.864)">Message 1</text><path class="a4bf8eb2-33d1-4c53-9ecd-2ca96f95b367" d="M149.501 365.811h-23.5v-26.207l5.875-5.824h17.625v32.031z"/><path class="a6b52650-0de2-4c59-8052-ae3384470b72" d="M131.876 339.604h-5.875l5.875-5.824v5.824zM130.407 343.972h7.344M130.407 348.34h14.687M130.407 352.707h14.687M130.407 357.075h14.687"/></g></g><g><path class="be4188ec-c286-4c51-9651-44908d40bd41" d="M622.25 320.608v78.967"/><path class="aadffd9a-e613-42f5-9dd6-36c990a39d7c" d="M617.263 398.116l4.987 8.635 4.986-8.635h-9.973z"/><path class="b0cf78d2-5071-47fd-b184-4e924b018691" d="M586.663 356.932h71.174v30.699h-71.174z"/><g><text class="bfbcace3-b29a-415f-b8f8-2ed7dbc63971" transform="translate(599.984 380.864)">Message 2</text><path class="a4bf8eb2-33d1-4c53-9ecd-2ca96f95b367" d="M634 365.811h-23.5v-26.207l5.875-5.824H634v32.031z"/><path class="a6b52650-0de2-4c59-8052-ae3384470b72" d="M616.375 339.604H610.5l5.875-5.824v5.824zM614.906 343.972h7.344M614.906 348.34h14.688M614.906 352.707h14.688M614.906 357.075h14.688"/></g></g><g><text transform="translate(690.661 466.693)" font-size="10" fill="#f3f3f3" font-family="RedHatText,&quot;Red Hat Text&quot;,Overpass,&quot;Helvetica Neue&quot;,Arial,sans-serif">120_AMQ_1020</text><path fill="none" d="M0 443.675h760v40H0z"/></g></svg>