<svg id="aae78b09-8c65-4043-9dc1-be99d1732df4" data-name="Layer 1" xmlns="http://www.w3.org/2000/svg" width="760" height="583.758"><defs><style>.ae01e960-619c-444e-aa08-0a0e67ba798d{fill:#e8e8e8}.a367243e-08cd-476a-849e-d6c1e70d9721,.a531ff33-e642-4da6-868c-7b2c9bc5922d,.aa8ee59e-397f-46dd-a55b-07353aa203e5,.eaa1532d-0922-4d82-9249-dcdfd5771c2c,.eea62e53-36e1-413a-a74b-822376d6bd17,.f9ba8360-c5be-43c8-b933-e5d84e1d791d,.ffac1fac-8e66-4f41-814d-dc9b67baa06d,.ffd9b79f-3049-4eda-baae-5bc359f113ee{fill:none}.eaa1532d-0922-4d82-9249-dcdfd5771c2c{stroke:#d5d5d5;stroke-width:1.5px;stroke-miterlimit:10}.b6f41fe1-c836-4c10-9ced-5c6a8ea9c4c6,.b8aadce8-90ad-4a0a-8b6c-b2993ea82acd{font-size:12px}.b8aadce8-90ad-4a0a-8b6c-b2993ea82acd{fill:#151515;font-family:RedHatText,&quot;Red Hat Text&quot;,Overpass,&quot;Helvetica Neue&quot;,Arial,sans-serif;font-weight:700}.b6f41fe1-c836-4c10-9ced-5c6a8ea9c4c6,.ee7df9ee-927f-4666-b087-52305d684772{fill:#fff}.b93598dc-a467-499a-80d1-35127a9c9d8a{fill:#06c}.b6f41fe1-c836-4c10-9ced-5c6a8ea9c4c6{font-family:RedHatText,&quot;Red Hat Text&quot;,Overpass,&quot;Helvetica Neue&quot;,Arial,sans-serif;font-style:italic;font-weight:500}.a367243e-08cd-476a-849e-d6c1e70d9721,.a531ff33-e642-4da6-868c-7b2c9bc5922d,.aa8ee59e-397f-46dd-a55b-07353aa203e5,.eea62e53-36e1-413a-a74b-822376d6bd17,.f9ba8360-c5be-43c8-b933-e5d84e1d791d,.ffac1fac-8e66-4f41-814d-dc9b67baa06d,.ffd9b79f-3049-4eda-baae-5bc359f113ee{stroke:#06c;stroke-linecap:round;stroke-linejoin:round}.eea62e53-36e1-413a-a74b-822376d6bd17{stroke-dasharray:2.998 2.998}.a367243e-08cd-476a-849e-d6c1e70d9721{stroke-dasharray:2.943 2.943}.aa8ee59e-397f-46dd-a55b-07353aa203e5{stroke-dasharray:2.965 2.965}.f9ba8360-c5be-43c8-b933-e5d84e1d791d{stroke-dasharray:3.275 3.275}.a531ff33-e642-4da6-868c-7b2c9bc5922d,.ffd9b79f-3049-4eda-baae-5bc359f113ee{stroke-dasharray:2.965 2.965}</style></defs><path class="ae01e960-619c-444e-aa08-0a0e67ba798d" d="M314.75 62h130.5v137h-130.5z"/><path class="eaa1532d-0922-4d82-9249-dcdfd5771c2c" d="M339.75 184.449h95.5v-75"/><path class="eaa1532d-0922-4d82-9249-dcdfd5771c2c" d="M334.75 179.449h95.5v-75"/><text class="b8aadce8-90ad-4a0a-8b6c-b2993ea82acd" transform="translate(329.75 87.104)">Broker A</text><path class="ee7df9ee-927f-4666-b087-52305d684772" d="M329.75 99.449h95.5v75h-95.5z"/><path class="b93598dc-a467-499a-80d1-35127a9c9d8a" transform="rotate(-180 377.5 146.949)" d="M340 129.449h75v35h-75z"/><text class="b6f41fe1-c836-4c10-9ced-5c6a8ea9c4c6" transform="translate(351.934 150.234)">multicast</text><text class="b8aadce8-90ad-4a0a-8b6c-b2993ea82acd" transform="translate(339.813 118.653)">Addresses</text><path class="ffac1fac-8e66-4f41-814d-dc9b67baa06d" d="M380 224.412v-1.5"/><path class="eea62e53-36e1-413a-a74b-822376d6bd17" d="M380 219.914v-52.466"/><path class="ffac1fac-8e66-4f41-814d-dc9b67baa06d" d="M380 165.949v-1.5"/><path class="b93598dc-a467-499a-80d1-35127a9c9d8a" d="M384.987 222.953L380 231.588l-4.986-8.635h9.973z"/><path class="ffac1fac-8e66-4f41-814d-dc9b67baa06d" d="M395 164.449v1.5"/><path class="a367243e-08cd-476a-849e-d6c1e70d9721" d="M395 168.892v39.725"/><path class="ffac1fac-8e66-4f41-814d-dc9b67baa06d" d="M395 210.088v1.5h1.5"/><path class="aa8ee59e-397f-46dd-a55b-07353aa203e5" d="M399.466 211.588h134.926"/><path class="ffac1fac-8e66-4f41-814d-dc9b67baa06d" d="M535.875 211.588h1.5v1.5"/><path class="f9ba8360-c5be-43c8-b933-e5d84e1d791d" d="M537.375 216.363v4.912"/><path class="ffac1fac-8e66-4f41-814d-dc9b67baa06d" d="M537.375 222.912v1.5"/><path class="b93598dc-a467-499a-80d1-35127a9c9d8a" d="M532.389 222.953l4.986 8.635 4.986-8.635h-9.972z"/><path class="ffac1fac-8e66-4f41-814d-dc9b67baa06d" d="M365 164.449v1.5"/><path class="a367243e-08cd-476a-849e-d6c1e70d9721" d="M365 168.892v39.725"/><path class="ffac1fac-8e66-4f41-814d-dc9b67baa06d" d="M365 210.088v1.5h-1.5"/><path class="a531ff33-e642-4da6-868c-7b2c9bc5922d" d="M360.535 211.588H225.608"/><path class="ffac1fac-8e66-4f41-814d-dc9b67baa06d" d="M224.125 211.588h-1.5v1.5"/><path class="f9ba8360-c5be-43c8-b933-e5d84e1d791d" d="M222.625 216.363v4.912"/><path class="ffac1fac-8e66-4f41-814d-dc9b67baa06d" d="M222.625 222.912v1.5"/><path class="b93598dc-a467-499a-80d1-35127a9c9d8a" d="M217.639 222.953l4.986 8.635 4.986-8.635h-9.972z"/><path class="ae01e960-619c-444e-aa08-0a0e67ba798d" d="M157.375 234.379h130.5v137h-130.5z"/><path class="eaa1532d-0922-4d82-9249-dcdfd5771c2c" d="M182.375 356.828h95.5v-75"/><path class="eaa1532d-0922-4d82-9249-dcdfd5771c2c" d="M177.375 351.828h95.5v-75"/><text class="b8aadce8-90ad-4a0a-8b6c-b2993ea82acd" transform="translate(172.375 259.483)">Broker B</text><path class="ee7df9ee-927f-4666-b087-52305d684772" d="M172.375 271.828h95.5v75h-95.5z"/><path class="b93598dc-a467-499a-80d1-35127a9c9d8a" transform="rotate(-180 220.125 319.328)" d="M182.625 301.828h75v35h-75z"/><text class="b6f41fe1-c836-4c10-9ced-5c6a8ea9c4c6" transform="translate(194.559 322.613)">multicast</text><text class="b8aadce8-90ad-4a0a-8b6c-b2993ea82acd" transform="translate(182.438 291.032)">Addresses</text><path class="ae01e960-619c-444e-aa08-0a0e67ba798d" d="M314.75 234.379h130.5v137h-130.5z"/><path class="eaa1532d-0922-4d82-9249-dcdfd5771c2c" d="M339.75 356.828h95.5v-75"/><path class="eaa1532d-0922-4d82-9249-dcdfd5771c2c" d="M334.75 351.828h95.5v-75"/><text class="b8aadce8-90ad-4a0a-8b6c-b2993ea82acd" transform="translate(329.75 259.483)">Broker C</text><path class="ee7df9ee-927f-4666-b087-52305d684772" d="M329.75 271.828h95.5v75h-95.5z"/><path class="b93598dc-a467-499a-80d1-35127a9c9d8a" transform="rotate(-180 377.5 319.328)" d="M340 301.828h75v35h-75z"/><text class="b6f41fe1-c836-4c10-9ced-5c6a8ea9c4c6" transform="translate(351.934 322.613)">multicast</text><text class="b8aadce8-90ad-4a0a-8b6c-b2993ea82acd" transform="translate(339.813 291.032)">Addresses</text><path class="ae01e960-619c-444e-aa08-0a0e67ba798d" d="M472.125 234.379h130.5v137h-130.5z"/><path class="eaa1532d-0922-4d82-9249-dcdfd5771c2c" d="M497.125 356.828h95.5v-75"/><path class="eaa1532d-0922-4d82-9249-dcdfd5771c2c" d="M492.125 351.828h95.5v-75"/><text class="b8aadce8-90ad-4a0a-8b6c-b2993ea82acd" transform="translate(487.125 259.483)">Broker D</text><path class="ee7df9ee-927f-4666-b087-52305d684772" d="M487.125 271.828h95.5v75h-95.5z"/><path class="b93598dc-a467-499a-80d1-35127a9c9d8a" transform="rotate(-180 534.875 319.328)" d="M497.375 301.828h75v35h-75z"/><text class="b6f41fe1-c836-4c10-9ced-5c6a8ea9c4c6" transform="translate(509.309 322.613)">multicast</text><text class="b8aadce8-90ad-4a0a-8b6c-b2993ea82acd" transform="translate(497.188 291.032)">Addresses</text><path class="ae01e960-619c-444e-aa08-0a0e67ba798d" d="M0 406.758h130.5v137H0z"/><path class="eaa1532d-0922-4d82-9249-dcdfd5771c2c" d="M25 529.207h95.5v-75"/><path class="eaa1532d-0922-4d82-9249-dcdfd5771c2c" d="M20 524.207h95.5v-75"/><text class="b8aadce8-90ad-4a0a-8b6c-b2993ea82acd" transform="translate(15 431.862)">Broker E</text><path class="ee7df9ee-927f-4666-b087-52305d684772" d="M15 444.207h95.5v75H15z"/><path class="b93598dc-a467-499a-80d1-35127a9c9d8a" transform="rotate(-180 62.75 491.707)" d="M25.25 474.207h75v35h-75z"/><text class="b6f41fe1-c836-4c10-9ced-5c6a8ea9c4c6" transform="translate(37.184 494.992)">multicast</text><text class="b8aadce8-90ad-4a0a-8b6c-b2993ea82acd" transform="translate(25.063 463.411)">Addresses</text><path class="ae01e960-619c-444e-aa08-0a0e67ba798d" d="M157.375 406.758h130.5v137h-130.5z"/><path class="eaa1532d-0922-4d82-9249-dcdfd5771c2c" d="M182.375 529.207h95.5v-75"/><path class="eaa1532d-0922-4d82-9249-dcdfd5771c2c" d="M177.375 524.207h95.5v-75"/><text class="b8aadce8-90ad-4a0a-8b6c-b2993ea82acd" transform="translate(172.375 431.862)">Broker F</text><path class="ee7df9ee-927f-4666-b087-52305d684772" d="M172.375 444.207h95.5v75h-95.5z"/><path class="b93598dc-a467-499a-80d1-35127a9c9d8a" transform="rotate(-180 220.125 491.707)" d="M182.625 474.207h75v35h-75z"/><text class="b6f41fe1-c836-4c10-9ced-5c6a8ea9c4c6" transform="translate(194.559 494.992)">multicast</text><text class="b8aadce8-90ad-4a0a-8b6c-b2993ea82acd" transform="translate(182.438 463.411)">Addresses</text><path class="ae01e960-619c-444e-aa08-0a0e67ba798d" d="M314.75 406.758h130.5v137h-130.5z"/><path class="eaa1532d-0922-4d82-9249-dcdfd5771c2c" d="M339.75 529.207h95.5v-75"/><path class="eaa1532d-0922-4d82-9249-dcdfd5771c2c" d="M334.75 524.207h95.5v-75"/><text class="b8aadce8-90ad-4a0a-8b6c-b2993ea82acd" transform="translate(329.75 431.862)">Broker G</text><path class="ee7df9ee-927f-4666-b087-52305d684772" d="M329.75 444.207h95.5v75h-95.5z"/><path class="b93598dc-a467-499a-80d1-35127a9c9d8a" transform="rotate(-180 377.5 491.707)" d="M340 474.207h75v35h-75z"/><text class="b6f41fe1-c836-4c10-9ced-5c6a8ea9c4c6" transform="translate(351.934 494.992)">multicast</text><text class="b8aadce8-90ad-4a0a-8b6c-b2993ea82acd" transform="translate(339.813 463.411)">Addresses</text><path class="ae01e960-619c-444e-aa08-0a0e67ba798d" d="M472.125 406.758h130.5v137h-130.5z"/><path class="eaa1532d-0922-4d82-9249-dcdfd5771c2c" d="M497.125 529.207h95.5v-75"/><path class="eaa1532d-0922-4d82-9249-dcdfd5771c2c" d="M492.125 524.207h95.5v-75"/><text class="b8aadce8-90ad-4a0a-8b6c-b2993ea82acd" transform="translate(487.125 431.862)">Broker H</text><path class="ee7df9ee-927f-4666-b087-52305d684772" d="M487.125 444.207h95.5v75h-95.5z"/><path class="b93598dc-a467-499a-80d1-35127a9c9d8a" transform="rotate(-180 534.875 491.707)" d="M497.375 474.207h75v35h-75z"/><text class="b6f41fe1-c836-4c10-9ced-5c6a8ea9c4c6" transform="translate(509.309 494.992)">multicast</text><text class="b8aadce8-90ad-4a0a-8b6c-b2993ea82acd" transform="translate(497.188 463.411)">Addresses</text><path class="ae01e960-619c-444e-aa08-0a0e67ba798d" d="M629.5 406.758H760v137H629.5z"/><path class="eaa1532d-0922-4d82-9249-dcdfd5771c2c" d="M654.5 529.207H750v-75"/><path class="eaa1532d-0922-4d82-9249-dcdfd5771c2c" d="M649.5 524.207H745v-75"/><text class="b8aadce8-90ad-4a0a-8b6c-b2993ea82acd" transform="translate(644.5 431.862)">Broker I</text><path class="ee7df9ee-927f-4666-b087-52305d684772" d="M644.5 444.207H740v75h-95.5z"/><path class="b93598dc-a467-499a-80d1-35127a9c9d8a" transform="rotate(-180 692.25 491.707)" d="M654.75 474.207h75v35h-75z"/><text class="b6f41fe1-c836-4c10-9ced-5c6a8ea9c4c6" transform="translate(666.684 494.992)">multicast</text><text class="b8aadce8-90ad-4a0a-8b6c-b2993ea82acd" transform="translate(654.563 463.411)">Addresses</text><g><path class="ffac1fac-8e66-4f41-814d-dc9b67baa06d" d="M380 396.792v-1.5"/><path class="eea62e53-36e1-413a-a74b-822376d6bd17" d="M380 392.294v-52.466"/><path class="ffac1fac-8e66-4f41-814d-dc9b67baa06d" d="M380 338.329v-1.5"/><path class="b93598dc-a467-499a-80d1-35127a9c9d8a" d="M384.987 395.333L380 403.968l-4.986-8.635h9.973z"/></g><g><path class="ffac1fac-8e66-4f41-814d-dc9b67baa06d" d="M395 336.829v1.5"/><path class="a367243e-08cd-476a-849e-d6c1e70d9721" d="M395 341.271v39.726"/><path class="ffac1fac-8e66-4f41-814d-dc9b67baa06d" d="M395 382.468v1.5h1.5"/><path class="aa8ee59e-397f-46dd-a55b-07353aa203e5" d="M399.466 383.968h134.926"/><path class="ffac1fac-8e66-4f41-814d-dc9b67baa06d" d="M535.875 383.968h1.5v1.5"/><path class="f9ba8360-c5be-43c8-b933-e5d84e1d791d" d="M537.375 388.742v4.912"/><path class="ffac1fac-8e66-4f41-814d-dc9b67baa06d" d="M537.375 395.292v1.5"/><path class="b93598dc-a467-499a-80d1-35127a9c9d8a" d="M532.389 395.333l4.986 8.635 4.986-8.635h-9.972z"/></g><g><path class="ffac1fac-8e66-4f41-814d-dc9b67baa06d" d="M552.375 336.829v1.5"/><path class="a367243e-08cd-476a-849e-d6c1e70d9721" d="M552.375 341.271v39.726"/><path class="ffac1fac-8e66-4f41-814d-dc9b67baa06d" d="M552.375 382.468v1.5h1.5"/><path class="ffd9b79f-3049-4eda-baae-5bc359f113ee" d="M556.84 383.968h134.897"/><path class="ffac1fac-8e66-4f41-814d-dc9b67baa06d" d="M693.22 383.968h1.5v1.5"/><path class="f9ba8360-c5be-43c8-b933-e5d84e1d791d" d="M694.72 388.742v4.912"/><path class="ffac1fac-8e66-4f41-814d-dc9b67baa06d" d="M694.72 395.292v1.5"/><path class="b93598dc-a467-499a-80d1-35127a9c9d8a" d="M689.733 395.333l4.987 8.635 4.986-8.635h-9.973z"/></g><g><path class="ffac1fac-8e66-4f41-814d-dc9b67baa06d" d="M207.625 336.829v1.5"/><path class="a367243e-08cd-476a-849e-d6c1e70d9721" d="M207.625 341.271v39.726"/><path class="ffac1fac-8e66-4f41-814d-dc9b67baa06d" d="M207.625 382.468v1.5h-1.5"/><path class="ffd9b79f-3049-4eda-baae-5bc359f113ee" d="M203.16 383.968H68.263"/><path class="ffac1fac-8e66-4f41-814d-dc9b67baa06d" d="M66.78 383.968h-1.5v1.5"/><path class="f9ba8360-c5be-43c8-b933-e5d84e1d791d" d="M65.28 388.742v4.912"/><path class="ffac1fac-8e66-4f41-814d-dc9b67baa06d" d="M65.28 395.292v1.5"/><path class="b93598dc-a467-499a-80d1-35127a9c9d8a" d="M60.294 395.333l4.986 8.635 4.987-8.635h-9.973z"/></g><g><path class="ffac1fac-8e66-4f41-814d-dc9b67baa06d" d="M365 336.829v1.5"/><path class="a367243e-08cd-476a-849e-d6c1e70d9721" d="M365 341.271v39.726"/><path class="ffac1fac-8e66-4f41-814d-dc9b67baa06d" d="M365 382.468v1.5h-1.5"/><path class="a531ff33-e642-4da6-868c-7b2c9bc5922d" d="M360.535 383.968H225.608"/><path class="ffac1fac-8e66-4f41-814d-dc9b67baa06d" d="M224.125 383.968h-1.5v1.5"/><path class="f9ba8360-c5be-43c8-b933-e5d84e1d791d" d="M222.625 388.742v4.912"/><path class="ffac1fac-8e66-4f41-814d-dc9b67baa06d" d="M222.625 395.292v1.5"/><path class="b93598dc-a467-499a-80d1-35127a9c9d8a" d="M217.639 395.333l4.986 8.635 4.986-8.635h-9.972z"/></g><g><path class="ffac1fac-8e66-4f41-814d-dc9b67baa06d" d="M27.31 24h-1.5"/><path stroke-dasharray="3.427 3.427" stroke="#06c" stroke-linecap="round" stroke-linejoin="round" fill="none" d="M22.383 24H10.39"/><path class="ffac1fac-8e66-4f41-814d-dc9b67baa06d" d="M8.676 24h-1.5"/><path class="b93598dc-a467-499a-80d1-35127a9c9d8a" d="M8.635 19.013L0 24l8.635 4.986v-9.973z"/><text transform="translate(35 27.324)" font-family="RedHatText,&quot;Red Hat Text&quot;,Overpass,&quot;Helvetica Neue&quot;,Arial,sans-serif" font-weight="500" font-size="10" fill="#151515"><tspan>Symmetric Address Federation / </tspan><tspan x="159.477" y="0" font-family="LiberationMono,&quot;Liberation Mono&quot;,Consolas,Monaco,&quot;Andale Mono&quot;,monospace" font-weight="400">max-hops=[Number of levels]-1</tspan></text></g><path stroke="#e8e8e8" stroke-miterlimit="10" fill="none" d="M0 44.943h760"/><g><text transform="translate(690.661 566.776)" fill="#f3f3f3" font-family="RedHatText,&quot;Red Hat Text&quot;,Overpass,&quot;Helvetica Neue&quot;,Arial,sans-serif" font-size="10">120_AMQ_1020</text><path fill="none" d="M0 543.758h760v40H0z"/></g></svg>