<svg id="fd285e07-9ad5-4c6f-b715-f53c7d207c0f" data-name="Layer 1" xmlns="http://www.w3.org/2000/svg" width="760" height="702.161"><defs><style>.a1490200-4d3a-4228-a655-716dbbc76663{fill:#e8e8e8}.a37d923c-5853-4416-882a-8abc0980503e,.ad07fdac-b3ad-4030-8a04-257df8cc501e,.b69993f5-d487-4c18-a55c-adce08c93f52,.b7832526-443d-42d0-aa8b-39858e6d3a2b,.fe8b3d7b-dab7-430d-91bc-08b725d5ce5b{fill:none}.b7832526-443d-42d0-aa8b-39858e6d3a2b{stroke:#d5d5d5}.a37d923c-5853-4416-882a-8abc0980503e,.b7832526-443d-42d0-aa8b-39858e6d3a2b{stroke-miterlimit:10}.acc10b11-381b-42d7-9cf8-3d3702664538,.b69993f5-d487-4c18-a55c-adce08c93f52,.b7832526-443d-42d0-aa8b-39858e6d3a2b{stroke-width:1.5px}.b1f97da6-cc62-4529-b37e-a70ba0b24844,.b2661b6f-e6ab-4469-8d07-920852dc9a98,.b4a34bf4-aef2-4483-9b80-eb41b75bef3b{font-size:12px}.a9a155d9-a66b-48ad-ba50-c1d10f88bac1,.b2661b6f-e6ab-4469-8d07-920852dc9a98,.b4a34bf4-aef2-4483-9b80-eb41b75bef3b,.baee49b4-6612-4764-8ac7-7b0ce9bfc4b9{fill:#151515}.b4a34bf4-aef2-4483-9b80-eb41b75bef3b{font-family:RedHatText,&quot;Red Hat Text&quot;,Overpass,&quot;Helvetica Neue&quot;,Arial,sans-serif;font-weight:700}.acc10b11-381b-42d7-9cf8-3d3702664538,.b1f97da6-cc62-4529-b37e-a70ba0b24844,.b509a3b7-f253-4e33-81bc-9fbbb3ceb6d7{fill:#fff}.f7f4fd66-806f-4b5a-82c1-ce1f2ca81fdd{fill:#06c}.b1f97da6-cc62-4529-b37e-a70ba0b24844{font-family:RedHatText,&quot;Red Hat Text&quot;,Overpass,&quot;Helvetica Neue&quot;,Arial,sans-serif;font-style:italic;font-weight:500}.a37d923c-5853-4416-882a-8abc0980503e,.ad07fdac-b3ad-4030-8a04-257df8cc501e{stroke:#151515}.acc10b11-381b-42d7-9cf8-3d3702664538,.ad07fdac-b3ad-4030-8a04-257df8cc501e,.b69993f5-d487-4c18-a55c-adce08c93f52,.fe8b3d7b-dab7-430d-91bc-08b725d5ce5b{stroke-linecap:round;stroke-linejoin:round}.a9a155d9-a66b-48ad-ba50-c1d10f88bac1,.b2661b6f-e6ab-4469-8d07-920852dc9a98{font-family:RedHatText,&quot;Red Hat Text&quot;,Overpass,&quot;Helvetica Neue&quot;,Arial,sans-serif;font-weight:500}.a9a155d9-a66b-48ad-ba50-c1d10f88bac1{font-size:9px}.acc10b11-381b-42d7-9cf8-3d3702664538,.b69993f5-d487-4c18-a55c-adce08c93f52{stroke:#5b5b5b}.fe8b3d7b-dab7-430d-91bc-08b725d5ce5b{stroke:#06c}</style></defs><path class="a1490200-4d3a-4228-a655-716dbbc76663" d="M267.25 416.154h225.5v207h-225.5z"/><path class="b7832526-443d-42d0-aa8b-39858e6d3a2b" d="M297.25 553.603h185.5v-85"/><path class="b7832526-443d-42d0-aa8b-39858e6d3a2b" d="M292.25 548.603h185.5v-85"/><text class="b4a34bf4-aef2-4483-9b80-eb41b75bef3b" transform="translate(287.25 441.241)">Broker C</text><path class="b509a3b7-f253-4e33-81bc-9fbbb3ceb6d7" d="M287.25 458.603h185.5v85h-185.5z"/><path class="f7f4fd66-806f-4b5a-82c1-ce1f2ca81fdd" transform="rotate(-180 380 511.103)" d="M302.5 493.603h155v35h-155z"/><text class="b1f97da6-cc62-4529-b37e-a70ba0b24844" transform="translate(354.434 514.388)">multicast</text><text class="b4a34bf4-aef2-4483-9b80-eb41b75bef3b" transform="translate(302.313 482.807)">Addresses</text><path class="b509a3b7-f253-4e33-81bc-9fbbb3ceb6d7" d="M287.25 568.242h185.5v35h-185.5z"/><path class="ad07fdac-b3ad-4030-8a04-257df8cc501e" d="M380 558.566v-29.963"/><path class="baee49b4-6612-4764-8ac7-7b0ce9bfc4b9" d="M384.986 557.107L380 565.742l-4.986-8.635h9.972z"/><text class="b2661b6f-e6ab-4469-8d07-920852dc9a98" transform="translate(356.282 589.027)">Queue 3</text><path class="a1490200-4d3a-4228-a655-716dbbc76663" d="M302.5 302.621h155v35h-155z"/><text class="b4a34bf4-aef2-4483-9b80-eb41b75bef3b" transform="translate(347.282 323.445)">Producer 3</text><path class="a1490200-4d3a-4228-a655-716dbbc76663" d="M287.25 691.797h185.5v35h-185.5z"/><path class="ad07fdac-b3ad-4030-8a04-257df8cc501e" d="M380 483.629V337.324"/><path class="baee49b4-6612-4764-8ac7-7b0ce9bfc4b9" d="M384.986 482.17L380 490.805l-4.986-8.635h9.972z"/><path class="b509a3b7-f253-4e33-81bc-9fbbb3ceb6d7" d="M344.413 373.445h71.174v30.699h-71.174z"/><text class="a9a155d9-a66b-48ad-ba50-c1d10f88bac1" transform="translate(357.568 397.377)">Message 3</text><path class="acc10b11-381b-42d7-9cf8-3d3702664538" d="M391.75 382.324h-23.5v-26.207l5.875-5.824h17.625v32.031z"/><path class="b69993f5-d487-4c18-a55c-adce08c93f52" d="M374.125 356.117h-5.875l5.875-5.824v5.824zM372.656 360.484H380M372.656 364.852h14.688M372.656 369.22h14.688M372.656 373.588h14.688"/><path class="a37d923c-5853-4416-882a-8abc0980503e" d="M380 603.242v78.967"/><path class="baee49b4-6612-4764-8ac7-7b0ce9bfc4b9" d="M375.014 680.75l4.986 8.635 4.986-8.635h-9.972z"/><path class="b509a3b7-f253-4e33-81bc-9fbbb3ceb6d7" d="M344.413 639.566h71.174v30.699h-71.174z"/><text class="a9a155d9-a66b-48ad-ba50-c1d10f88bac1" transform="translate(353.95 663.498)">Message 1-3</text><path class="acc10b11-381b-42d7-9cf8-3d3702664538" d="M391.751 648.445h-23.5v-26.207l5.875-5.824h17.625v32.031z"/><path class="b69993f5-d487-4c18-a55c-adce08c93f52" d="M374.126 622.238h-5.875l5.875-5.824v5.824zM372.657 626.606h7.344M372.657 630.974h14.687M372.657 635.341h14.687M372.657 639.709h14.687"/><path class="a1490200-4d3a-4228-a655-716dbbc76663" d="M534.5 175.533H760v217H534.5z"/><path class="b7832526-443d-42d0-aa8b-39858e6d3a2b" d="M564.5 312.982H750v-85"/><path class="b7832526-443d-42d0-aa8b-39858e6d3a2b" d="M559.5 307.982H745v-85"/><path class="b509a3b7-f253-4e33-81bc-9fbbb3ceb6d7" d="M554.5 217.982H740v85H554.5z"/><path class="a1490200-4d3a-4228-a655-716dbbc76663" d="M0 175.533h225.5v217H0z"/><path class="b7832526-443d-42d0-aa8b-39858e6d3a2b" d="M30 312.982h185.5v-85"/><path class="b7832526-443d-42d0-aa8b-39858e6d3a2b" d="M25 307.982h185.5v-85"/><text class="b4a34bf4-aef2-4483-9b80-eb41b75bef3b" transform="translate(20 200.62)">Broker A</text><path class="b509a3b7-f253-4e33-81bc-9fbbb3ceb6d7" d="M20 217.982h185.5v85H20z"/><path class="f7f4fd66-806f-4b5a-82c1-ce1f2ca81fdd" transform="rotate(-180 112.75 270.482)" d="M35.25 252.982h155v35h-155z"/><text class="b1f97da6-cc62-4529-b37e-a70ba0b24844" transform="translate(87.184 273.767)">multicast</text><text class="b4a34bf4-aef2-4483-9b80-eb41b75bef3b" transform="translate(35.063 242.186)">Addresses</text><path class="ad07fdac-b3ad-4030-8a04-257df8cc501e" d="M112.75 327.945v-39.963"/><path class="baee49b4-6612-4764-8ac7-7b0ce9bfc4b9" d="M117.736 326.486l-4.986 8.635-4.986-8.635h9.972z"/><path class="fe8b3d7b-dab7-430d-91bc-08b725d5ce5b" d="M199.675 280.482h1.5"/><path stroke-dasharray="2.922 2.922" stroke="#06c" stroke-linecap="round" stroke-linejoin="round" fill="none" d="M204.096 280.482h39.443"/><path class="fe8b3d7b-dab7-430d-91bc-08b725d5ce5b" d="M245 280.482h1.5v1.5"/><path stroke-dasharray="3.035 3.035" stroke="#06c" stroke-linecap="round" stroke-linejoin="round" fill="none" d="M246.5 285.017v223.069"/><path class="fe8b3d7b-dab7-430d-91bc-08b725d5ce5b" d="M246.5 509.603v1.5h1.5"/><path stroke-dasharray="2.876 2.876" stroke="#06c" stroke-linecap="round" stroke-linejoin="round" fill="none" d="M250.876 511.103h38.822"/><path class="fe8b3d7b-dab7-430d-91bc-08b725d5ce5b" d="M291.136 511.103h1.5"/><path class="f7f4fd66-806f-4b5a-82c1-ce1f2ca81fdd" d="M201.134 285.468l-8.635-4.986 8.635-4.986v9.972zM291.177 516.089l8.635-4.986-8.635-4.986v9.972z"/><g><path class="fe8b3d7b-dab7-430d-91bc-08b725d5ce5b" d="M560.075 280.347l-1.5-.028"/><path stroke-dasharray="2.956 2.956" stroke="#06c" stroke-linecap="round" stroke-linejoin="round" fill="none" d="M555.62 280.264l-39.893-.748"/><path class="fe8b3d7b-dab7-430d-91bc-08b725d5ce5b" d="M514.25 279.488l-1.5-.028v1.5"/><path stroke-dasharray="2.969 2.969" stroke="#06c" stroke-linecap="round" stroke-linejoin="round" fill="none" d="M512.75 283.93v224.188"/><path class="fe8b3d7b-dab7-430d-91bc-08b725d5ce5b" d="M512.75 509.603v1.5h-1.5"/><path stroke-dasharray="2.838 2.838" stroke="#06c" stroke-linecap="round" stroke-linejoin="round" fill="none" d="M508.412 511.103h-38.317"/><path class="fe8b3d7b-dab7-430d-91bc-08b725d5ce5b" d="M468.676 511.103h-1.5"/><path class="f7f4fd66-806f-4b5a-82c1-ce1f2ca81fdd" d="M558.71 275.335l8.54 5.147-8.727 4.824.187-9.971zM468.635 506.117L460 511.103l8.635 4.986v-9.972z"/></g><text class="b4a34bf4-aef2-4483-9b80-eb41b75bef3b" transform="translate(554.5 200.62)">Broker B</text><path class="f7f4fd66-806f-4b5a-82c1-ce1f2ca81fdd" transform="rotate(-180 647.25 270.482)" d="M569.75 252.982h155v35h-155z"/><text class="b1f97da6-cc62-4529-b37e-a70ba0b24844" transform="translate(621.684 273.767)">multicast</text><text class="b4a34bf4-aef2-4483-9b80-eb41b75bef3b" transform="translate(569.563 242.186)">Addresses</text><g><path class="ad07fdac-b3ad-4030-8a04-257df8cc501e" d="M647.25 327.945v-39.963"/><path class="baee49b4-6612-4764-8ac7-7b0ce9bfc4b9" d="M652.236 326.486l-4.986 8.635-4.986-8.635h9.972z"/></g><g><path class="fe8b3d7b-dab7-430d-91bc-08b725d5ce5b" d="M560.074 265.482h-1.5"/><path stroke-dasharray="3.003 3.003" stroke="#06c" stroke-linecap="round" stroke-linejoin="round" fill="none" d="M555.57 265.482H202.676"/><path class="fe8b3d7b-dab7-430d-91bc-08b725d5ce5b" d="M201.175 265.482h-1.5"/><path class="f7f4fd66-806f-4b5a-82c1-ce1f2ca81fdd" d="M558.615 260.496l8.635 4.986-8.635 4.986v-9.972zM201.134 260.496l-8.635 4.986 8.635 4.986v-9.972z"/></g><path class="b509a3b7-f253-4e33-81bc-9fbbb3ceb6d7" transform="rotate(-180 112.75 355.121)" d="M20 337.621h185.5v35H20z"/><text class="b2661b6f-e6ab-4469-8d07-920852dc9a98" transform="translate(90.622 358.406)">Queue 1</text><path class="b509a3b7-f253-4e33-81bc-9fbbb3ceb6d7" transform="rotate(-180 647.25 355.121)" d="M554.5 337.621H740v35H554.5z"/><text class="b2661b6f-e6ab-4469-8d07-920852dc9a98" transform="translate(623.754 358.406)">Queue 2</text><path class="a1490200-4d3a-4228-a655-716dbbc76663" d="M20 62h185.5v35H20z"/><text class="b4a34bf4-aef2-4483-9b80-eb41b75bef3b" transform="translate(81.521 82.824)">Producer 1</text><g><path class="a1490200-4d3a-4228-a655-716dbbc76663" d="M20 461.175h185.5v35H20z"/><text class="b4a34bf4-aef2-4483-9b80-eb41b75bef3b" transform="translate(78.952 481.999)">Consumer 1</text></g><g><path class="a1490200-4d3a-4228-a655-716dbbc76663" d="M554.5 461.175H740v35H554.5z"/><text class="b4a34bf4-aef2-4483-9b80-eb41b75bef3b" transform="translate(612.181 481.999)">Consumer 2</text></g><path class="a1490200-4d3a-4228-a655-716dbbc76663" d="M554.5 62H740v35H554.5z"/><text class="b4a34bf4-aef2-4483-9b80-eb41b75bef3b" transform="translate(614.749 82.824)">Producer 2</text><g><path class="ad07fdac-b3ad-4030-8a04-257df8cc501e" d="M112.75 243.306V97"/><path class="baee49b4-6612-4764-8ac7-7b0ce9bfc4b9" d="M117.736 241.847l-4.986 8.635-4.986-8.635h9.972z"/></g><g><path class="ad07fdac-b3ad-4030-8a04-257df8cc501e" d="M647.25 243.306V97"/><path class="baee49b4-6612-4764-8ac7-7b0ce9bfc4b9" d="M652.236 241.847l-4.986 8.635-4.986-8.635h9.972z"/></g><path class="b509a3b7-f253-4e33-81bc-9fbbb3ceb6d7" d="M77.163 132.824h71.174v30.699H77.163z"/><g><text class="a9a155d9-a66b-48ad-ba50-c1d10f88bac1" transform="translate(91.51 156.756)">Message 1</text><path class="acc10b11-381b-42d7-9cf8-3d3702664538" d="M124.5 141.703H101v-26.208l5.875-5.824H124.5v32.032z"/><path class="b69993f5-d487-4c18-a55c-adce08c93f52" d="M106.875 115.495H101l5.875-5.824v5.824zM105.406 119.863h7.344M105.406 124.231h14.688M105.406 128.599h14.688M105.406 132.967h14.688"/></g><path class="b509a3b7-f253-4e33-81bc-9fbbb3ceb6d7" d="M611.663 132.824h71.174v30.699h-71.174z"/><g><text class="a9a155d9-a66b-48ad-ba50-c1d10f88bac1" transform="translate(624.984 156.756)">Message 2</text><path class="acc10b11-381b-42d7-9cf8-3d3702664538" d="M659 141.703h-23.5v-26.208l5.875-5.824H659v32.032z"/><path class="b69993f5-d487-4c18-a55c-adce08c93f52" d="M641.375 115.495H635.5l5.875-5.824v5.824zM639.907 119.863h7.343M639.907 124.231h14.687M639.907 128.599h14.687M639.907 132.967h14.687"/></g><g><path class="a37d923c-5853-4416-882a-8abc0980503e" d="M647.25 372.608v78.967"/><path class="baee49b4-6612-4764-8ac7-7b0ce9bfc4b9" d="M642.264 450.116l4.986 8.635 4.986-8.635h-9.972z"/><path class="b509a3b7-f253-4e33-81bc-9fbbb3ceb6d7" d="M611.663 408.932h71.174v30.699h-71.174z"/><g><text class="a9a155d9-a66b-48ad-ba50-c1d10f88bac1" transform="translate(621.2 432.864)">Message 1-3</text><path class="acc10b11-381b-42d7-9cf8-3d3702664538" d="M659 417.811h-23.5v-26.207l5.875-5.824H659v32.031z"/><path class="b69993f5-d487-4c18-a55c-adce08c93f52" d="M641.375 391.604H635.5l5.875-5.824v5.824zM639.907 395.972h7.343M639.907 400.34h14.687M639.907 404.707h14.687M639.907 409.075h14.687"/></g></g><g><path class="a37d923c-5853-4416-882a-8abc0980503e" d="M112.75 372.608v78.967"/><path class="baee49b4-6612-4764-8ac7-7b0ce9bfc4b9" d="M107.764 450.116l4.986 8.635 4.986-8.635h-9.972z"/><path class="b509a3b7-f253-4e33-81bc-9fbbb3ceb6d7" d="M77.163 408.932h71.174v30.699H77.163z"/><g><text class="a9a155d9-a66b-48ad-ba50-c1d10f88bac1" transform="translate(86.7 432.864)">Message 1-3</text><path class="acc10b11-381b-42d7-9cf8-3d3702664538" d="M124.501 417.811h-23.5v-26.207l5.875-5.824h17.625v32.031z"/><path class="b69993f5-d487-4c18-a55c-adce08c93f52" d="M106.876 391.604h-5.875l5.875-5.824v5.824zM105.407 395.972h7.344M105.407 400.34h14.687M105.407 404.707h14.687M105.407 409.075h14.687"/></g></g><g><path class="fe8b3d7b-dab7-430d-91bc-08b725d5ce5b" d="M30.134 24h-1.5"/><path stroke-dasharray="2.851 2.851" stroke="#06c" stroke-linecap="round" stroke-linejoin="round" fill="none" d="M25.783 24H10.102"/><path class="fe8b3d7b-dab7-430d-91bc-08b725d5ce5b" d="M8.676 24h-1.5"/><path class="f7f4fd66-806f-4b5a-82c1-ce1f2ca81fdd" d="M28.675 19.013L37.31 24l-8.635 4.986v-9.973zM8.635 19.013L0 24l8.635 4.986v-9.973z"/></g><text transform="translate(45 27.324)" font-size="10" font-family="RedHatText,&quot;Red Hat Text&quot;,Overpass,&quot;Helvetica Neue&quot;,Arial,sans-serif" font-weight="500" fill="#151515">Symmetric Address Federation</text><path stroke="#e8e8e8" stroke-miterlimit="10" fill="none" d="M0 44.943h760"/></svg>